# .PCD v0.7 - Point Cloud Data file format
VERSION 0.7
FIELDS x y
SIZE 4 4
TYPE F F
COUNT 1 1
WIDTH 570
HEIGHT 1
VIEWPOINT 0 0 0 1 0 0 0
POINTS 570
DATA ascii
-7.481834995348312 20.55631195823327
-7.354607534352497 20.57790690270266
-7.228496566731098 20.60189498273858
-7.105111261048398 20.633116185907436
-6.985414625236821 20.674868158510005
-6.870177849182233 20.730123180258897
-6.760341291846606 20.802604388740324
-6.6574892616793155 20.898349632288234
-6.565031706532192 21.029730983833694
-6.493690395706684 21.234049072725846
0.6604998410412604 19.233608797113327
0.7698403647164831 19.170308682204457
0.879747509458513 19.134221556011592
0.9902175314556448 19.115962928427663
1.1012965629191105 19.11080060453943
1.2130143855285793 19.115477886615434
1.3253274508893746 19.126771940822838
1.4380139119917776 19.14008481250465
1.550465265911883 19.147368092833226
1.6614640645695113 19.13572768369219
0.8477601869766578 9.147076138600843
0.8916260967213294 9.0480844797981
0.9376035511805036 8.979856018221058
0.9846236522487961 8.927767164254119
1.032332128648662 8.88629752306023
1.0805781185017507 8.85265337390329
1.1292931410147906 8.825196368190987
1.1784491970761037 8.802877075687732
1.2280410468839387 8.784984389236461
1.2780777440779794 8.771019124956707
1.3285782902392849 8.76062420531789
1.379569346620568 8.753543530963588
1.4310840816364492 8.749596669761194
1.4831617139267874 8.74866291275135
1.5358475364860382 8.750671267113958
1.5891933255148367 8.75559449910905
1.643258109667668 8.763446198414984
1.6981093283906419 8.774280358743798
1.7538244607194562 8.788193350682507
1.8104932685581099 8.805328492106428
1.8682208899656847 8.82588380218336
1.9271321602295024 8.850124042151245
1.9873777782401578 8.878398970133745
2.049143356040537 8.911171146497962
2.112663167957041 8.94905921813409
2.178241921603739 8.992907603932213
2.246290922771536 9.04390358244878
2.3173912563995964 9.103783203407765
2.392407467025302 9.175201125595391
2.472660306318122 9.262269439493242
2.5594359034283656 9.368592726050364
2.6403952232953465 9.448687768510723
2.689976298400228 9.414776989842457
2.730265396485091 9.349832569633643
2.769874113345733 9.284682035026174
2.810082348534912 9.223536671785654
2.851105383632925 9.166840728335439
2.892957323089264 9.114367410969875
2.935613584851419 9.065786674539373
2.979049245573883 9.020791477314189
3.023248659885996 8.979124316270342
3.068207485169809 8.940578610454715
3.113932730645098 8.904994234035701
3.1604425028944143 8.872252639333988
3.2077659866883312 8.842273111301077
3.2559438639729383 8.815010566516767
3.305029292367997 8.79045503281996
3.355089583244839 8.768632972712282
3.4062087938964334 8.74961077908595
3.458491586129363 8.733501071391903
3.5120689393437394 8.72047291680774
3.5671067261593565 8.710767971471773
3.6238189472943994 8.704726161401952
3.682489003478183 8.702827777772038
3.743505814361187 8.705765942315082
3.80742981681824 8.714580416429126
3.87512630397783 8.730930318208724
3.9480769057619236 8.75773625609039
4.029297125825081 8.801086500290614
4.127632477172738 8.879236177524309
14.989278657248688 19.714290116191613
14.826907697245916 19.26739943854486
14.670372546681461 18.83657055442609
14.519354128638726 18.420925274167207
14.37355618666018 18.019648216439734
14.232703279937267 17.63198129045221
14.096538986198413 17.257218749790944
13.964824287617077 16.894702749983793
13.837336118357404 16.543819350936165
13.713866055182969 16.20399491311694
13.594219134954168 15.874692842977787
13.478212784896433 15.55541064874956
13.365675853288641 15.245677272623459
13.256447729742922 14.945050669512947
13.15037754556174 14.653115606210754
13.047323445794996 14.369481657884968
12.947151925607393 14.093781381574605
12.84973722442348 13.825668648706035
12.754960772065747 13.564817120708788
12.662710681753536 13.310918853605516
12.572881285401387 13.063683019022
12.485372707156037 12.822834730440714
12.400090471550742 12.588113964730958
12.31694514304228 12.359274570053024
12.235851994036855 12.13608335217191
12.156730698812204 11.91831923204459
12.079505051009306 11.70577246827748
12.004102702602982 11.4982439387
11.93045492246999 11.295544475875811
11.858496372859264 11.097494251885841
11.788164902234373 10.90392220817241
11.719401353106107 10.714665526640177
11.652149383604632 10.529569138572496
11.586355301640161 10.348485268266385
11.521967910758926 10.171273008409166
11.458938366372424 9.997797925065228
11.397220042052506 9.827931689338893
11.336768404882191 9.661551733844995
11.277540898842338 9.498540932426108
11.219496836078031 9.338787300797883
11.16259729537516 9.182183716595324
11.106805026849456 9.0286276579062
11.052084363216325 8.878020957913034
10.99840113606659 8.730269575778157
10.945722597951706 8.585283381158211
10.894017348872602 8.442975952576512
10.843255267531312 8.30326438782672
10.793407446791123 8.166069125815778
10.744446132553122 8.031313779705133
10.696344666849377 7.898924979213265
10.649077433817094 7.768832222818797
10.60261980949932 7.640967737660019
10.556948113512599 7.515266348923956
10.51203956449865 7.391665355309875
10.46787223692062 7.270104413196306
10.424425022382174 7.1505254243242256
10.381677590075054 7.0328724340362525
10.339610352323179 6.917091530937674
10.298204430089571 6.803130754795678
10.257441621343345 6.690940007966883
10.217304370289977 6.5804709728240915
10.177775739386933 6.471677031816138
10.138839381668554 6.364513193512148
10.10047951507649 6.258936021659814
10.062680898387997 6.154903567466251
10.025428807495219 6.052375306774243
9.988709014029945 5.95131207859268
9.952507764103117 5.851676028288415
9.916811758470487 5.753430553042839
9.881608134021288 5.656540249422716
9.846884445389765 5.5609708648787235
9.812628648393234 5.466689250006555
9.778829083502579 5.373663314449594
9.74547446047278 5.281861984285184
9.712553843600556 5.191255161625848
9.680056637859341 5.101813685791322
9.647972575406644 5.013509296811285
9.61629170290267 4.92631460028735
9.585004369358932 4.840203033977202
9.554101214548965 4.755148835897609
9.523573157945497 4.671127013876422
9.493411388156364 4.588113316477203
9.463607352833062 4.506084205224733
9.43415274902741 4.4250168280638205
9.40503951397325 4.34488899398794
9.376259816271405 4.2656791487777745
9.347806047457476 4.187366351793363
9.3196708139331 4.109930253766696
9.291846929242535 4.033351075544686
9.264327406677385 3.957609587735256
9.237105452193248 3.882687091212007
9.210174457623037 3.8085653984353045
9.183527994172481 3.7352268155501345
9.157159806184227 3.66265412522308
9.131063805157577 3.5908305701829977
9.105234064011718 3.519739837431789
9.079664811580873 3.4493660430935322
9.054350427330505 3.3796937178719335
9.02928543628418 3.310707793087655
9.004464504151336 3.2423935872685763
8.97988243264671 3.1747367932675
8.955534154992572 3.1077234658830744
8.931414731595513 3.041340009961056
8.90751934588983 2.975573168954136
8.883843300340024 2.9104100139197153
8.860382012595322 2.845837932936045
8.837131011789449 2.7818446209181547
8.81408593497924 2.718418069815913
8.791242523715999 2.6555465591774388
8.768596620743818 2.593218647061951
8.746144166819358 2.531423161286888
8.72388119764783 2.4701491909948907
8.701803840930232 2.4093860785269503
8.679908313517092 2.349123411588694
8.658190918664172 2.2893510156973442
8.636648043385906 2.230058946897611
8.61527615590243 2.171237484735184
8.594071803176314 2.1128771254771443
8.573031608535299 2.054968575569062
8.552152269377483 1.9975027453190417
8.53143055495561 1.9404707427994075
8.510863304237184 1.883863867957186
8.4904474238374 1.8276736069249215
8.470179886021912 1.771891626523746
8.450057726776674 1.7165097689510203
8.430078043942146 1.661520046645157
8.410237995409346 1.6069146373206304
8.390534797375276 1.5526858791664426
8.370965722655418 1.4988262662016179
8.351528099051064 1.445328443781616
8.33221930776931 1.3921852042497738
8.313036781893762 1.3393894827281847
8.293978004903908 1.2869343530426212
8.27504050924134 1.2348130237763921
8.25622187492104 1.1830188344482002
8.23751972818602 1.1315452518092854
8.218931740203624 1.0803858662553603
8.200455625802013 1.0295343883490076
8.182089142245262 0.9789846454483999
8.163830088045632 0.9287305784383717
8.145676301811672 0.8787662385600457
8.127625661130795 0.8290857843353678
8.10967608148506 0.7796834785830297
8.091825515198938 0.7305536855224535
8.074071950417919 0.6816908679625912
8.056413410116793 0.63308958457246
8.038847951136562 0.5847444872304344
8.021373663248918 0.5366503184494524
8.003988668247327 0.4888019088753871
7.986691119063716 0.4411941748559604
7.969479198909899 0.393822116077654
7.9523511204427955 0.34668081326820727
7.935305124952646 0.29976542596233646
7.918339481573387 0.2530711903284483
7.901452486514382 0.20659341705416825
7.8846424623127795 0.16032748928860852
7.867907757105749 0.1142688606393675
7.8512467439219105 0.06841305322232595
7.834657819991263 0.022755655762392496
7.818139406072977 -0.0227076782566109
7.801689945800416 -0.06798123239462989
7.785307905042787 -0.11306922901230823
7.768991771282822 -0.15797583098375242
7.752740053009962 -0.20270514336669782
7.73655127912846 -0.24726121503154952
7.720423998379913 -0.2916480402507548
7.7043567787796965 -0.3358695602498822
7.688348207066825 -0.3799296647217632
7.672396888166767 -0.4238321933049802
7.656501444666755 -0.46758093702796255
7.640660516303152 -0.5111796397198968
7.624872759460447 -0.5546319993896192
7.609136846681485 -0.5979416695736264
7.593451466188505 -0.6411122606542945
7.577815321414624 -0.6841473411493689
7.562227130545395 -0.7270504389737464
7.54668562607005 -0.7698250426745448
7.5311895543421254 -0.8124746026404227
7.515737675149081 -0.8550025322860755
7.500328761290632 -0.8974122092128206
7.484961598165429 -0.9397069763461348
7.469634983365821 -0.981890143051011
7.454347726280366 -1.0239649862259388
7.4390986477038235 -1.0659347513763289
7.423886579454329 -1.1078026536681491
7.408710363997489 -1.1495718789625295
7.393568854077115 -1.191245584832073
7.378460912352353 -1.2328269015595916
7.363385411040941 -1.2743189331199531
7.348341231568358 -1.315724758145731
7.333327264222613 -1.3570474308773042
7.3183424078144625 -1.3982899820980619
7.303385569342793 -1.4394554200553358
7.288455663664988 -1.4805467313676728
7.2735516131720175 -1.5215668819190473
7.258672347468081 -1.5625188177406044
7.243816803054561 -1.6034054658804946
7.228983923018102 -1.644229735262365
7.2141726567226145 -1.6849945175330616
7.199381959505002 -1.7257026879000674
7.184610792374425 -1.7663571059592074
7.16985812171492 -1.806960616513143
7.155122918991174 -1.8475160503811514
7.140404160457284 -1.888026225200692
7.1257008268683295 -1.9284939462212611
7.111011903196262 -1.9689220070848767
7.0963363783370355 -2.0093131906402357
7.0816732448452635 -2.049670269658929
7.067021498651629 -2.0899960076185775
7.052380138786409 -2.1302931594649497
7.0377481670674245 -2.170564472490319
7.023124587872873 -2.2108126869281737
7.0085084078998365 -2.2510405366118795
6.993898635778013 -2.2912507500862964
6.979294281916578 -2.331446050979529
6.964694358165108 -2.371629158962883
6.950097877597536 -2.4118027903317545
6.935503854172536 -2.4519696589533213
6.920911302568937 -2.4921324767050317
6.906319237898512 -2.532293954279177
6.891726675220998 -2.5724568025097607
6.877132629636316 -2.6126237321178647
6.862536115826669 -2.652797454981542
6.847936147701879 -2.6929806850888274
6.833331738338586 -2.733176138733923
6.818721899602282 -2.773386535546506
6.8041056418810975 -2.813614599222391
6.789481973817804 -2.8538630582593263
6.774849901968311 -2.894134646865574
6.760208430768538 -2.9344321051427347
6.745556562013809 -2.97475818042734
6.730893294690127 -3.0151156277928894
6.716217624634631 -3.0555072109511783
6.701528544431562 -3.0959357026317202
6.686825042958105 -3.136403885743437
6.67210610505196 -3.1769145542470385
6.657370711418652 -3.2174705135240704
6.642617838330481 -3.258074581208328
6.627846457186824 -3.298729588294175
6.613055534354387 -3.3394383796656357
6.598244030592325 -3.3802038154613694
6.5834109013903035 -3.4210287706384177
6.568555095884565 -3.461916137341964
6.55367555724376 -3.5028688244005615
6.538771221793155 -3.5438897592628735
6.523841018983359 -3.584981888312439
6.508883871321992 -3.6261481772966704
6.493898693347973 -3.667391613491229
6.478884392214713 -3.7087152049556047
6.463839866459111 -3.7501219830507178
6.448764006270021 -3.791615002284575
6.433655693130881 -3.8331973412978395
6.41851379900349 -3.874872104611888
6.403337186474991 -3.9166424227465604
6.388124708201493 -3.9585114535447237
6.372875206524473 -4.00048238320276
6.357587513106216 -4.042558427276154
6.342260448650459 -4.084742831561575
6.326892822404442 -4.12703887333399
6.31148343182552 -4.169449862329932
6.296031062172833 -4.211979141858851
6.280534486101982 -4.25463008991871
6.264992463251611 -4.297406120333784
6.24940373982165 -4.340310683915499
6.2337670481428304 -4.38334726964722
6.218081106237205 -4.426519405893835
6.2023446173692856 -4.4698306616371335
6.186556269587494 -4.513284647737892
6.170714735255525 -4.556885018225677
6.154818670573268 -4.600635471617398
6.13886671508691 -4.644539752265659
6.122857491187807 -4.688601651737998
6.106789603599706 -4.73282501022818
6.0906616388539385 -4.777213718000654
6.07447216475207 -4.821771716869451
6.058219729815621 -4.866503001712724
6.041902862722352 -4.911411622024252
6.025520071728628 -4.956501683503258
6.009069844077366 -5.0017773496838975
5.992550645391037 -5.047242843605895
5.975960919049175 -5.092902449527804
5.9592990855498496 -5.138760514684434
5.942563541854484 -5.184821451090064
5.92575266071546 -5.231089737389098
5.908864789985844 -5.277569920755878
5.891898251910594 -5.324266618845477
5.8748513423985855 -5.371184521797301
5.857722330274731 -5.418328394293456
5.840509456511488 -5.465703077673858
5.823210933438985 -5.5133134921102
5.805824943932971 -5.561164638840934
5.788349640579787 -5.609261602469489
5.770783144817506 -5.657609553328128
5.753123546052354 -5.706213749909791
5.73536890074948 -5.755079541370557
5.7175172314971405 -5.80421237010525
5.699566526043291 -5.853617774399042
5.681514736303549 -5.903301391157806
5.6633597773394415 -5.9532689587202565
5.645099526305837 -6.003526319754939
5.62673182136635 -6.054079424245318
5.55971793242377 -6.052099298211069
5.4634904832686555 -6.017136511830716
5.369360962478823 -5.982935975950825
5.27725535313972 -5.94947079764641
5.187103054895666 -5.916715325347401
5.098836688686696 -5.8846450778927535
5.012391914722006 -5.85323667839384
4.927707262654803 -5.822467792531061
4.844723973014794 -5.792317070940743
4.763385849037188 -5.76276409537944
4.6836391181014365 -5.733789328379811
4.605432302060345 -5.70537406613666
4.528716095800977 -5.677500394383879
4.4534432534340604 -5.65015114704309
4.3795684815585245 -5.623309867442941
4.3070483390932255 -5.59696077192447
4.235841143209185 -5.571088715663015
4.165906880933184 -5.54567916055071
4.097207126027665 -5.52071814499607
4.029704960783115 -5.496192255508424
3.963364902387412 -5.472088599945341
3.898152833562615 -5.4483947823105545
3.8340359371833523 -5.425098878998538
3.7709826346125705 -5.402189416389753
3.7089625275103844 -5.379655349707751
3.6479463428898407 -5.357486043056036
3.587905881210098 -5.335671250558496
3.528813967312898 -5.3142010985329176
3.4706444040221562 -5.293066068632102
3.4133719282395085 -5.272256981891845
3.356972169380497 -5.251764983629348
3.3014216100070257 -5.231581529139633
3.2466975485218392 -5.211698370141127
3.1927780638000067 -5.1921075419250595
3.1396419816410295 -5.172801351166347
3.087268842933154 -5.153772364356563
3.0356388734286432 -5.135013396822254
2.9847329550357196 -5.116517502294294
2.9345325985390187 -5.098277962996288
2.8850199176662534 -5.080288280222068
2.836177604424166 -5.062542165374394
2.787988905631783 -5.045033531438672
2.740437600583682 -5.027756484867233
2.6935079797802093 -5.010705317851283
2.6471848246655942 -4.993874500959052
2.6014533883186166 -4.977258676120044
2.55629937704394 -4.96085264993652
2.5117089328154005 -4.944651387304542
2.467668616525517 -4.928650005327927
2.424165391998343 -4.912843767509565
2.3811866107252855 -4.897228078205409
2.338719997285978 -4.881798477327367
2.2967536354185194 -4.866550635282138
2.255275954705573 -4.851480348133806
2.2142757178446613 -4.8365835329786915
2.173742008472956 -4.82185622352168
2.133664219518473 -4.8072945658438
2.094032042051303 -4.792894814351488
2.054835454609887 -4.77865332789845
2.0160647129788654 -4.7645665660716015
1.9777103403962766 -4.750631085633001
1.9397631181691644 -4.736843537110173
1.9022140766777687 -4.72320066152761
1.865054486749617 -4.709699287272691
1.8282758513857897 -4.696336327089536
1.7918698978226715 -4.683108775194769
1.7558285699133123 -4.670013704509398
1.7201440208134453 -4.657048264001392
1.6848086059579692 -4.64420967613379
1.649814876314437 -4.631495234413463
1.6151555719008392 -4.618902301035888
1.5808236155555935 -4.606428304621587
1.546812106948308 -4.594070738040005
1.513114316820449 -4.581827156316967
1.4797236814456116 -4.569695174621881
1.4466337972996122 -4.557672466331212
1.4138384159311277 -4.545756761164797
1.3813314390240319 -4.533945843391827
1.3491069136430804 -4.52223755010343
1.317159027654935 -4.510629769548976
1.2854821053169985 -4.49912043953335
1.2540706030268174 -4.4877075458725475
1.2229191052251949 -4.476389120905151
1.192022320446533 -4.465163242057268
1.1613750775101332 -4.454028030458708
1.1309723218465744 -4.44298164960821
1.1008091119535321 -4.432022304085749
1.0708806159756492 -4.421148238309847
1.0411821084033606 -4.41035773533817
1.0117089668857766 -4.399649115709523
0.9824566691529724 -4.389020736325613
0.9534207900432559 -4.378470989370954
0.9245969986311535 -4.367998301269363
0.8959810554520881 -4.357601131675591
0.867568809819874 -4.347277972500667
0.8393561972333508 -4.337027346969648
0.8113392368686217 -4.326847808710457
0.7835140291535292 -4.316737940872607
0.7558767534211623 -4.306696355274635
0.7284236656392974 -4.2967216915791315
0.7011510962128403 -4.286812616494292
0.6740554478564555 -4.27696782300097
0.6471331935346774 -4.267186029604238
0.6203808744669347 -4.257465979608558
0.5937950981950134 -4.247806440415612
0.5673725367105897 -4.238206202843976
0.5411099246405808 -4.228664080469792
0.5150040574881264 -4.219178908987653
0.4890517899271323 -4.209749545590955
0.46325003414837856 -4.200374868370983
0.4375957582552785 -4.191053775734024
0.4120859847074642 -4.181785185835879
0.38671778881041574 -4.172568036033085
0.361488297249479 -4.163401282350277
0.33639468666662853 -4.154283898963072
0.3114341822784225 -4.145214877695929
0.28660405653366455 -4.136193227534426
0.26190162780932963 -4.127217974151448
0.23732425914338115 -4.118288159446774
0.21286935700314968 -4.109402841099583
0.18853437008799923 -4.100561092133426
0.16431678816506728 -4.09176200049321
0.14021414093688297 -4.083004668633756
0.11622399693974572 -4.074288213119555
0.09234396247176625 -4.06561176423527
0.06857168054952378 -4.0569744656066735
0.04490482989232782 -4.048375473831578
0.021341123933113132 -4.03981395812047
-0.0021216901449746263 -4.03128909994646
-0.025485832347191997 -4.0228000927042595
-0.04875349078189783 -4.014346141377832
-0.07192682255216645 -4.005926462216443
-0.0950079546251231 -3.9975402824187984
-0.11799898467979404 -3.9891868398249923
-0.1409019819342049 -3.9808653826159897
-0.16371898795247838 -3.9725751690203857
-0.18645201743259496 -3.9643154670281775
-0.20910305897554834 -3.9560855541113114
-0.23167407583649385 -3.9478847169507585
-0.2541670066585578 -3.9397122511698965
-0.2765837661899114 -3.9315674610739735
-0.2989262459846944 -3.9234496593954415
-0.32119631508835317 -3.91535816704494
-0.3433958207079768 -3.9072923128677477
-0.36552658886812345 -3.8992514334054955
-0.3875904250526901 -3.891234872662951
-0.4095891148333145 -3.883241981879701
-0.43152442448478334 -3.8752721193065494
-0.4533981015879469 -3.8673246499864606
-0.47521187562057104 -3.859398945539879
-0.49696745853657703 -3.851494383954274
-0.5186665453341083 -3.843610349377738
-0.5403108146128317 -3.8357462319165028
-0.5619019291208824 -3.8279014274362155
-0.5834415362918516 -3.820075337366829
-0.6049312687721822 -3.812267368510982
-0.6263727449393772 -3.8044769328557186
-0.6477675694113492 -3.796703447387421
-0.6691173335472889 -3.7889463339098257
-0.6904236159403838 -3.7812050188650046
-0.7116879829027195 -3.773478933157182
-0.7329119889427178 -3.7657675119792646
-0.7540971772353842 -3.7580701946419834
-0.7752450800857136 -3.750386424405524
-0.7963572193855539 -3.742715648313531
-0.8174351070642101 -3.7350573170293875
-0.8384802455330795 -3.7274108846746663
-0.8594941281246254 -3.71977580866963
-0.8804782395259437 -3.712151549575709
-0.9014340562072114 -3.7045375709398214
-0.9223630468452687 -3.6969333391404806
-0.9432666727426171 -3.6893383232355523
-0.9641463882420842 -3.681751994811595
-0.9850036411373949 -3.6741738278346836
-1.0058398730799227 -3.666603298502624
-1.0266565199818503 -3.659039885098471
-1.0474550124159936 -3.651483067845255
-1.0682367760125107 -3.643932328761849
-1.0890032318527474 -3.6363871515198665
-1.1097557968604563 -3.62884702130152
-1.1304958841905997 -3.621311424658354
-1.1512249036159798 -3.6137798493707725
-1.1719442619119163 -3.6062517843082653
-1.1926553632391999 -3.5987267192902745
-1.2133596095255386 -3.591204144947599
-1.2340584008457212 -3.5836835525842656
-1.254753135800714 -3.5761644340397933
-1.2754452118959139 -3.5686462815517626
-1.2961360259187684 -3.561128587618605
