# .PCD v0.7 - Point Cloud Data file format
VERSION 0.7
FIELDS x y
SIZE 4 4
TYPE F F
COUNT 1 1
WIDTH 613
HEIGHT 1
VIEWPOINT 0 0 0 1 0 0 0
POINTS 613
DATA ascii
-1.10691357456552 3.0412406533582783
-1.0871040910687355 3.0416751233931243
-1.0673710669938865 3.0421079164690026
-1.0477127363217646 3.042539071343434
-1.0281273565011722 3.042968626232191
-1.0086132077115177 3.043396618849482
-0.9891685921538054 3.043823086440965
-0.9697918335313552 3.0442480657586337
-0.9504812762578629 3.04467159312961
-0.9312352851066364 3.0450937043875252
-0.9120522442034146 3.0455144350141063
-0.8929305569394809 3.045933819998844
-0.8738686450446781 3.046351893961799
-0.8548649481253112 3.0467686911355583
-0.8359179232565578 3.0471842453388245
-0.8170260440894588 3.0475985900880773
-0.7981878008856559 3.0480117584554844
-0.7794016994858056 3.048423783222714
-0.7606662610226259 3.0488346968319386
-0.741980021427066 3.0492445313973606
-0.7233415310324346 3.049653318695476
-0.7047493538022499 3.050061090247387
-0.6862020672938681 3.050467877226405
-0.6676982618150635 3.0508737105596855
-0.6492365400768817 3.0512786209116407
-0.6308155170829005 3.0516826386236624
-0.612433819093424 3.052085793852808
-0.5940900837640485 3.0524881164612907
-0.5757829593664399 3.0528896361007054
-0.5575111044494732 3.0532903822038895
-0.5392731875818453 3.053690383966076
-0.52106788692172 3.0540896703618223
-0.5028938895072789 3.0544882702076483
-0.4847498912032921 3.0548862121100706
-0.46663459639345173 3.055283524465205
-0.44854671722283135 3.0556802355277513
-0.43048497341073655 3.056076373386721
-0.4124480921538734 3.056471965936188
-0.39443480714651985 3.056867040970132
-0.3764438587478828 3.057261626114667
-0.3584739936314863 3.057655748840128
-0.3405239638374996 3.0580494365402116
-0.32259252732218613 3.0584427164325487
-0.30467844667388483 3.058835615673924
-0.2867804893631537 3.0592281612989067
-0.2688974275109274 3.059620380221989
-0.2510280369294747 3.0600122993033967
-0.23317109734801963 3.060403945303028
-0.21532539179240462 3.0607953449137706
-0.19748970637744703 3.0611865247582792
-0.17966282994606303 3.0615775113992156
-0.16184355364440048 3.0619683313518906
-0.14403067071685463 3.062359011083288
-0.12622297619114525 3.0627495770199586
-0.10841926644171448 3.063140055560675
-0.09061833896572669 3.0635304730789574
-0.07281899198244124 3.0639208559333464
-0.055020024023703165 3.064311230475197
0.807829692884428 20.116306295459346
0.916170480581321 19.926409304995364
1.0279184021503558 19.843771135893054
1.1412706412297566 19.804470834400227
1.256024700301596 19.793262693414494
1.3722409112861622 19.803814476508666
1.4900613944960195 19.832841135027792
1.609632667210616 19.878051995704745
1.730989796328094 19.936482571091084
1.8537675604384063 20.001591581069757
1.976629435408945 20.058531465825276
2.0973025884130343 20.086821606934855
2.2149965530940277 20.08378881665555
2.3315158714529165 20.069649232547427
2.4493544750585414 20.066375383925553
2.571658451114399 20.09698810585905
2.820606945514704 21.069602560553577
2.9501801591213987 21.104576845439965
3.081926634092429 21.15022937735223
3.216590533597427 21.210147037819457
3.3553721107781684 21.290264172820944
5.029166565957351 12.281074385768436
5.010107626852513 12.034711326696838
4.940992168119023 11.677048824815339
4.798862448963128 11.160066350041758
4.780967465314946 10.942847918241062
4.793190373159573 10.799392811276102
4.819258652658665 10.690216335013613
4.853924359155854 10.602297824350842
4.894815499586124 10.529576726269415
4.940682952114703 10.468725678085223
4.990824407354729 10.417749461545878
5.0448487922765635 10.375404869386653
5.102567741501869 10.340927318687648
5.163944171570809 10.3138943771798
5.2290717363114 10.294161269030859
5.298175652114876 10.281842948307945
5.3716341029554515 10.277336724129228
5.450027294927451 10.281394817646401
5.534234114736022 10.29527906251259
5.6256267362582175 10.321082041291694
5.72650368338863 10.362452677714613
5.841245221276926 10.426550927162433
5.980636343404573 10.531420090938603
6.557153279475078 11.39199819466314
6.618400270728071 11.345457477271768
6.679473617203087 11.298836237829223
6.741966778631207 11.254789858892732
6.80632865712303 11.213949322860634
6.872787264791864 11.176552168208456
6.941530517906145 11.142757446848455
7.012765373793943 11.112744184664225
7.086749764672364 11.086759849045196
7.163822552365165 11.065162034136026
7.244444554278351 11.04847376812752
7.329266381690259 11.037474862036316
7.419254812978552 11.033373203431397
7.515959179780131 11.038168498375553
7.622178270399674 11.055569260848232
14.400411023561285 20.376348834756488
14.405711718631702 20.134665805683895
14.410930842134931 19.896701998936727
14.416070606851262 19.662356523699604
14.421133148223717 19.431532015319796
14.426120527734513 19.204134481356704
14.431034736106533 18.98007315561261
14.435877696340246 18.75926035966575
14.440651266595857 18.54161137145944
14.44535724292985 18.327044300531078
14.449997361894411 18.11547996949264
14.454573303007676 17.906841801399842
14.459086691102277 17.701055712671426
14.463539098559124 17.4980500112416
14.467932047432868 17.29775529964958
14.47226701147518 17.100104382788878
14.476545418061542 16.905032180056825
14.480768650026855 16.712475641661072
14.48493804741481 16.52237366885526
14.489054909145901 16.3346670378898
14.493120494608247 16.149298327477435
14.497136025175482 15.966211849585171
14.501102685655617 15.785353583375576
14.505021625674406 15.606671112131417
14.508893960996746 15.430113563007243
14.512720774789305 15.255631549460949
14.516503118827373 15.083177116227011
14.520242014648867 14.912703686701166
14.52393845465809 14.744166012613784
14.527593403181884 14.577520125876523
14.53120779748043 14.412723292493084
14.534782548715137 14.249733968431451
14.538318542875526 14.088511757360513
14.541816641667314 13.929017370159706
14.545277683363471 13.771212586114967
14.548702483620096 13.615060215719597
14.552091836258754 13.460524065002723
14.555446514016973 13.30756890131234
14.558767269268289 13.156160420484037
14.562054834690118 13.006265215355997
14.565309924049163 12.857850745379942
14.568533232616582 12.710885307816486
14.571725437890894 12.565338009706721
14.574887200336617 12.421178740880416
14.578019163731113 12.278378148431846
14.581121955736524 12.136907611911944
14.584196188597334 11.99673921929021
14.587242459361832 11.857845744370337
14.590261350743559 11.720200624276982
14.593253431152624 11.58377793876099
14.596219255487412 11.448552389344087
14.599159365336275 11.314499279930217
14.602074289519182 11.181594497698166
14.604964544662748 11.049814494611898
14.607830635131478 10.919136270419585
14.61067305375582 10.789537355234062
14.613492281892423 10.6609957935845
14.616288790414746 10.533490127771994
14.619063039243713 10.406999383751884
14.62181547831083 10.281503055579346
14.62454654684399 10.156981092700317
14.627256675618531 10.033413883505032
14.629946284881205 9.91078224551455
14.63261578646473 9.789067409999483
14.635265583113345 9.668251011037182
14.637896069246608 9.548315072872589
14.640507630507384 9.429241999495137
14.643100644977801 9.311014562046461
14.645675482677346 9.193615889204207
14.64823250588829 9.077029456661208
14.65077206986347 8.961239076296568
14.65329452222145 8.846228887773755
14.655800204029052 8.731983347714896
14.658289449434184 8.618487221516553
14.660762585844676 8.505725574578792
14.66321993460505 8.39368376293602
14.665661810480934 8.282347426188453
14.668088522546357 8.171702478262919
14.67050037389276 8.061735100453326
14.67289766189736 7.95243173372627
14.6752806783255 7.8437790715426665
14.677649709704195 7.735764052386735
14.680005037263237 7.628373853296706
14.682346937158123 7.521595883075552
14.684675680602266 7.415417775858157
14.686991534004292 7.309827384852081
14.689294759101282 7.204812776261977
14.691585613088133 7.100362223390916
14.693864348743228 6.996464200912271
14.696131214550418 6.89310737930587
14.698386454817612 6.7902806194526
14.700630309791952 6.687972967381659
14.702863015771822 6.586173649165038
14.705084805215677 6.484872065953927
14.707295906847936 6.38405778915202
14.70949654576193 6.283720555720778
14.711686943520073 6.18385026361206
14.71386731825136 6.084436967323492
14.716037884746235 5.985470873572364
14.718198854548978 5.886942337083736
14.72035043604765 5.7888418564888475
14.722492834561725 5.691160070329882
14.724626252427472 5.593887753167363
14.726750889081147 5.497015811786591
14.728866941140101 5.400535281499649
14.730974602481867 5.304437322539609
14.733074064321285 5.208713216543746
14.735165515285756 5.113354363122586
14.737249141488675 5.018352276511841
14.739325126601114 4.923698582304291
14.74139365192178 4.829385014258814
14.743454896445407 4.73540341118386
14.745509036929507 4.641745713892751
14.747556247959636 4.54840396222827
14.749596702013184 4.4553702921540905
14.75163056952176 4.3626369329107
14.753658018932196 4.270196204233499
14.755679216766245 4.178040513630875
14.757694327679026 4.0861623537200895
14.759703514516215 3.99455429961895
14.761706938370082 3.903209006391153
14.763704758634379 3.812119206543463
14.76569713305815 3.721277707572741
14.767684217798465 3.6306773895610265
14.769666167472156 3.5403112028168904
14.771643135206574 3.450172165561324
14.773615272689398 3.3602533616564645
14.775582730217549 3.270547938375548
14.777545656745227 3.181049104212496
14.779504199931125 3.0917501267295697
14.781458506184823 3.002644330441623
14.783408720712428 2.913725094735446
14.785354987561469 2.8249858518228192
14.787297449665077 2.7364200847258586
14.7892362488855 2.6480213252932865
14.791171526056957 2.5597831522463443
14.793103421027876 2.4716991892530147
14.795032072702536 2.3837631030293203
14.796957619082148 2.295968601466431
14.798880197305385 2.2083094317824177
14.800799943688414 2.1207793786974394
14.802716993764413 2.033372262631198
14.804631482322668 1.946081937921568
14.806543543447173 1.8589022910632442
14.808453310554874 1.7718272389653447
14.810360916433464 1.6848507272268725
14.812266493278862 1.5979667284290038
14.814170172732304 1.5111692404431618
14.816072085917142 1.4244522847538201
14.817972363475308 1.337809904795087
14.819871135603542 1.2512361643000238
14.821768532089312 1.1647251456617531
14.823664682346541 1.078270948305361
14.82555971545109 0.9918676870696614
14.827453760176054 0.9055094905978489
14.82934694502689 0.8191904997361273
14.831239398276379 0.7329048659393472
14.833131247999463 0.6466467496827756
14.835022622107964 0.5604103188790271
14.836913648385211 0.47418974729928626
14.8388044545206 0.38797921299788407
14.840695168144077 0.3017728967393392
14.842585916860616 0.21556498042695452
14.844476828284662 0.1293496455320579
14.8463680300746 0.04312107152301178
14.84825964996721 -0.04312656570694643
14.850151815812222 -0.12939909541389655
14.852044655606889 -0.21570235358040274
14.85393829753067 -0.3020421844965252
14.855832869980002 -0.3884244423456266
14.85772850160322 -0.4748549927958534
14.859625321335594 -0.5613397145982445
14.861523458434545 -0.6478845011923675
14.86342304251506 -0.7344952623204458
14.865324203585285 -0.8211779256508938
14.867227072082365 -0.9079384384122361
14.869131778908534 -0.9947827690383622
14.871038455467463 -1.0817169088260925
14.872947233700913 -1.1687468736060482
14.874858246125685 -1.2558787054278215
14.876771625870923 -1.3431184742604625
14.878687506715774 -1.4304722797093146
14.8806060231274 -1.517946252750241
14.882527310299457 -1.6055465574823178
14.884451504190922 -1.6932793929000574
14.886378741565453 -1.7811509946862931
14.888309160031158 -1.8691676370268167
14.890242898080917 -1.957335634447954
14.495298760596325 -1.9911438184466355
13.97562466456178 -2.002541531929643
13.491144851517637 -2.013167349417015
13.038371631139235 -2.0230977644175527
12.614263372324576 -2.032399487279308
12.216155400308832 -2.0411309607834935
11.841703354096556 -2.049343602453378
11.488836459436156 -2.057082829391314
11.155718749689138 -2.064388908799128
10.84071670088678 -2.071297667819841
10.542372076432502 -2.0778410891192154
10.25937902867389 -2.0840478131038216
9.990564698641023 -2.089943563415836
9.734872705952204 -2.0955515090394576
9.491349038731792 -2.100892573769236
9.259129946140218 -2.1059857017562553
9.03743150958139 -2.1108480862368557
8.825540627184052 -2.115495367264822
8.622807193049875 -2.1199418032394446
8.428637290536468 -2.124200420193337
8.242487249427423 -2.128283142133108
8.063858441723577 -2.132200905180286
7.8922927111270536 -2.135963757813818
7.727368347988314 -2.139580949142644
7.5686965352364375 -2.143061006892046
7.415918202262792 -2.146411806343186
7.268701233109798 -2.149640631582941
7.126737983292804 -2.152754229966998
6.9897430661286215 -2.155758860791443
6.857451375164649 -2.158660338503094
6.729616313758312 -2.1614640714476927
6.606008206800809 -2.164175097059414
6.486412873425556 -2.1667981128054623
6.370630341623642 -2.169337504589189
6.258473688832235 -2.1717973720337183
6.149767994118206 -2.174181551655864
6.044349389871598 -2.1764936374000308
5.94206420191652 -2.1787369995700514
5.842768168493546 -2.1809148024644696
5.746325730430046 -2.1830300190960537
5.652609384165151 -2.185085445850765
5.561499091713707 -2.187083715602438
5.472881741968927 -2.189027309085231
5.386650657748385 -2.1909185659505295
5.302705144424196 -2.192759694659709
5.220950076022988 -2.1945527815577743
5.1412955151618975 -2.1962997993330653
5.063656363917636 -2.198002614247944
4.987952042164581 -2.1996629936460934
4.914106191472575 -2.201282612254645
4.842046401873306 -2.202863058281104
4.7717039597391775 -2.204405838668071
4.703013614499108 -2.205912384496001
4.6359133628760105 -2.2073840557777573
4.570344249218196 -2.208822145549455
4.506250180251954 -2.2102278839714726
4.44357775308959 -2.211602442314876
4.382276095669214 -2.2129469362754652
4.32229671815097 -2.2142624295965154
4.2635933752404584 -2.215549936267943
4.206121937068865 -2.2168104243640863
4.149840269781037 -2.218044817795569
4.094708123361337 -2.2192539994649443
4.040687027439621 -2.2204388132020205
3.987740193925992 -2.2216000656346737
3.935832425398477 -2.222738528982433
3.8849300303504966 -2.2238549419191482
3.835000742758515 -2.2249500123079065
3.786013647597519 -2.2260244181873734
3.73793911063749 -2.227078809350477
3.690748712308838 -2.2281138092556723
3.6444151861564955 -2.229130015884739
3.598912360620281 -2.2301280032195803
3.55421510439814 -2.2311083224572035
3.510299275059891 -2.232071503129249
3.467141670725269 -2.233018054078339
3.424719984434223 -2.233948464559641
3.3830127612343603 -2.2348632051323025
3.3419993576777793 -2.2357627285572104
3.30165990360977 -2.236647470635056
3.261975266094174 -2.2375178509975395
3.222927015337303 -2.2383742738547405
3.1844973924823523 -2.2392171287014673
3.146669279155596 -2.2400467909851773
3.1094261686541262 -2.240863622737906
3.0727521386728056 -2.241667973174428
3.0366318254753026 -2.2424601792587473
3.0010503994207354 -2.24324056624086
2.965993541763605 -2.244009448165589
2.93144742265036 -2.2447671283551673
2.8973986802411376 -2.2455138998671558
2.8638344008901178 -2.2462500459291315
2.8307421003223108 -2.2469758403515274
2.798109705748809 -2.247691547919889
2.7659255388663198 -2.248397424767734
2.734178299690338 -2.249093718731135
2.7028570511746124 -2.249780669686044
2.6719512045726317 -2.2504585098693566
2.6414505054996216 -2.251127464184606
2.611345020656246 -2.2517877504931407
2.5816251251775864 -2.2524395798915955
2.5522814905732814 -2.253083156976392
2.523305073226804 -2.2537186800959765
2.4946871034238187 -2.2543463415914577
2.4664190748814083 -2.254966328026252
2.4384927347516325 -2.255578820405336
2.410900074074527 -2.2561839943846267
2.3836333186570737 -2.256782020471035
2.356684920356102 -2.2573730642136507
2.330047548744369 -2.257957286386523
2.3037140831402496 -2.2585348431634737
2.27767760498265 -2.259105886285329
2.2519313905337395 -2.259670563219969
2.226468903893179 -2.260229017315543
2.2012837903083566 -2.260781387947189
2.176369869766096 -2.261327810657588
2.151721130852038 -2.261868417291638
2.1273317248647285 -2.262403336125547
2.1031959601721044 -2.262932691990615
2.079308296798775 -2.26345660639194
2.0556633412331284 -2.263975197622313
2.0322558414438485 -2.2644885808715216
2.0090806820960347 -2.2649968683312687
1.9861328799576023 -2.26550016929592
1.9634075794871422 -2.2659985902592776
1.9409000485948977 -2.266492235007548
1.9186056745689366 -2.2669812047086935
1.896519960158992 -2.26746559799832
1.8746385198108853 -2.26794551106227
1.852957076044734 -2.268421037716052
1.8314714559705676 -2.268892269481266
1.810177587935229 -2.269359295659141
1.7890714982948026 -2.269822203401328
1.7681493083070545 -2.2702810777780513
1.747407231138676 -2.2707360018437526
1.726841568982347 -2.2711870567003154
1.7064487102789165 -2.2716343215579924
1.6862251270401867 -2.272077873794122
1.6661673722680361 -2.272517789009734
1.6462720774658073 -2.272954141084133
1.626535950238078 -2.2733870022275346
1.606955771975141 -2.2738164430318584
1.587528395618637 -2.274242532519727
1.5682507435050315 -2.2746653381917676
1.5491198052837072 -2.2750849260722714
1.5301326359066292 -2.275501360753285
1.5112863536866872 -2.275914705437197
1.4925781384219199 -2.2763250219778777
1.4740052295829849 -2.276732370920432
1.455564924561341 -2.2771368115396196
1.4372545769757241 -2.277538401877001
1.4190715950346224 -2.277937198776852
1.4010134399525178 -2.278333257920896
1.3830776244178131 -2.2787266338619117
1.3652617111104255 -2.2791173800562383
1.3475633112671002 -2.2795055488952496
1.3299800832926225 -2.279891191735808
1.3125097314151508 -2.280274358929759
1.2951500043839925 -2.280655099852492
1.2778986942081973 -2.281033462930603
1.2607536349344213 -2.2814094956687034
1.2437127014625897 -2.2817832446753923
1.2267738083979256 -2.282154755688436
1.2099349089379887 -2.282524073599177
1.1931939937934182 -2.282891242476204
1.1765490901411355 -2.2832563055883135
1.159998260608797 -2.2836193054267797
1.1435396022893483 -2.2839802837269705
1.1271712457845826 -2.284339281489323
1.1108913542766383 -2.2846963389997095
1.0946981226264183 -2.2850514958492063
1.0785897764979486 -2.285404790953308
1.0625645715077556 -2.2857562625705743
1.0466207923983373 -2.2861059483207633
1.030756752234882 -2.2864538852024467
1.0149707916243829 -2.2868001096101387
0.9992612779563713 -2.2871446573509475
0.9836266046644739 -2.28748756366077
0.9680651905080712 -2.2878288632200485
0.9525754788733334 -2.2881685901691005
0.9371559370929592 -2.2885067781230375
0.9218050557839425 -2.28884346018629
0.9065213482027468 -2.2891786689667506
0.8913033496172564 -2.2895124365895465
0.8761496166949412 -2.289844794710462
0.8610587269066322 -2.2901757745290126
0.8460292779453912 -2.29050540680119
0.8310598871599276 -2.2908337218518917
0.8161491910020566 -2.2911607495870365
0.8012958444877119 -2.2914865195053875
0.7864985206710257 -2.291811060710087
0.771755910131039 -2.2921344019199115
0.7570667204705762 -2.2924565714802667
0.742429675826875 -2.292777597373918
0.7278435163935435 -2.293097507231475
0.7133069979534641 -2.2934163283416376
0.698818891422236 -2.293734087661208
0.6843779824018054 -2.294050811824881
0.6699830707438997 -2.2943665271548195
0.6556329701229409 -2.2946812596700212
0.6413265076180802 -2.294995035095485
0.6270625233040297 -2.2953078788711863
0.6128398698503889 -2.2956198161608636
0.5986574121291367 -2.295930871860629
0.5845140268300052 -2.2962410706073997
0.5704086020834411 -2.296550436787173
0.5563400370908755 -2.296858994543132
0.5423072417620267 -2.2971667677836
0.5283091363589764 -2.2974737801898493
0.5143446511467548 -2.297780055223762
0.5004127260501955 -2.2980856161353587
0.48651231031680453 -2.2983904859701894
0.472642362185416 -2.298694687576604
0.4588018485604015 -2.2989982436128953
0.44498974469120806 -2.2993011765543288
0.43120503385700737 -2.299603508700059
0.4174467070562405 -2.2999052621799363
0.40371376270085785 -2.3002064589612177
0.39000520631504026 -2.3005071208551686
0.37632005023821175 -2.300807269523583
0.3626573133321471 -2.3011069264852004
0.3490160206919848 -2.30140611312205
0.3353952033609603 -2.3017048506857036
0.32179389804867875 -2.302003160303457
0.30821114685274614 -2.3023010629844323
0.29464599698359195 -2.302598579625617
0.281097500492302 -2.302895731017829
0.2675647140013015 -2.3031925378516274
0.2540466984377194 -2.3034890207231586
0.24054251876927182 -2.3037852001399477
0.227051243742509 -2.3040810965266427
0.2135719456232559 -2.304376730230704
0.20010369993910876 -2.3046721215280535
0.18664558522382188 -2.3049672906286816
0.17319668276343445 -2.3052622576822137
0.15975607634399255 -2.3055570427834446
0.14632285200071446 -2.3058516659778396
0.13289609776845393 -2.306146147267005
0.11947490343331688 -2.30644050661414
0.1060583602852831 -2.306734763949459
0.09264556087169862 -2.3070289391756007
0.0792355987514855 -2.307323052173017
0.06582756824993516 -2.3076171228053504
0.05242056421394131 -2.3079111709248044
0.03901368176753216 -2.3082052163775035
0.025606016067561667 -2.3084992790088528
0.012196662059420159 -2.3087933786688963
-0.0012152857673790143 -2.309087535217674
-0.01463073362386923 -2.3093817685305935
-0.028050588666707687 -2.3096760985038
-0.041475759243793486 -2.3099705450595653
-0.054907155140568306 -2.3102651281516926
-0.06834568782714878 -2.3105598677709316
-0.0817922707064226 -2.310854783950424
-0.09524781936326616 -2.311149896771166
-0.1087132518150073 -2.311445226367505
-0.12218948876331055 -2.3117407929326617
-0.13567745384760047 -2.31203661672429
-0.1491780739001924 -2.312332718070069
-0.1626922792032781 -2.3126291173733446
-0.17622100374791477 -2.3129258351188065
-0.18976518549516874 -2.3132228918782154
-0.20332576663958898 -2.313520308316184
-0.21690369387514383 -2.313818105196007
-0.2304999186638037 -2.314116303385554
-0.2441153975069266 -2.3144149238632186
-0.2577510922196061 -2.3147139877239398
-0.27140797020816976 -2.3150135161852847
-0.28508700475098536 -2.315313530593609
-0.29878917528275656 -2.3156140524302913
-0.3125154676824938 -2.315915103318049
-0.3262668745653386 -2.3162167050273417
-0.34004439557843097 -2.316518879482855
-0.35384903770101667 -2.3168216487700852
-0.36768181554898005 -2.3171250351420216
-0.38154375168402155 -2.317429061025922
-0.3954358769276689 -2.317733749030203
-0.409359230680346 -2.3180391219514362
-0.4233148612457099 -2.318345202781465
-0.4373038261604755 -2.3186520147146346
-0.45132719252997616 -2.318959581155153
-0.465386037369663 -2.3192679257245805
-0.47948144795281 -2.3195770722694595
-0.4936145221646674 -2.3198870448690756
-0.5077863688633133 -2.3201978678433757
-0.5219981082474615 -2.3205095657610353
-0.5362508722315137 -2.320822163447683
-0.5505458048281162 -2.3211356859942915
-0.5648840625385217 -2.3214501587657375
-0.5792668147510374 -2.3217656074095436
-0.5936952441478793 -2.3220820578647996
-0.6081705471207441 -2.322399536371278
-0.622693934195409 -2.3227180694787446
-0.6372666304657161 -2.3230376840564797
-0.6518898760372729 -2.323358407303007
-0.6665649264812373 -2.3236802667560474
-0.6812930532985413 -2.324003290302701
-0.696075544394952 -2.324327506189865
-0.710913704567362 -2.3246529430349003
-0.725808856001711 -2.3249796298365517
-0.7407623387829646 -2.325307595986134
-0.7557755114175945 -2.325636871278988
-0.7708497513690079 -2.325967485926228
-0.785986455606399 -2.326299470566777
-0.8011870411675083 -2.3266328562797107
-0.8164529457357954 -2.3269676745969137
-0.8317856282325488 -2.3273039575160688
-0.8471865694244745 -2.327641737513982
