# .PCD v0.7 - Point Cloud Data file format
VERSION 0.7
FIELDS x y
SIZE 4 4
TYPE F F
COUNT 1 1
WIDTH 179
HEIGHT 1
VIEWPOINT 0 0 0 1 0 0 0
POINTS 179
DATA ascii
9.919639073093561e-17 -1.62
0.02827289842839943 -1.619753266153354
0.056537184658051756 -1.6190131397709353
0.08740104692571642 -1.6677113230401381
0.11998113483989578 -1.7158101664468977
0.14555009038858907 -1.663645145813215
0.17978895682036394 -1.71057766003343
0.20961527065685367 -1.7071793808230737
0.2393777336513126 -1.703261078235501
0.27219596917000183 -1.7185777126355397
0.3021478291404589 -1.713565490241242
0.3415481017240154 -1.7571126583713186
0.37216192656378944 -1.750884205313512
0.4026623872755186 -1.744122415965571
0.44513628790338855 -1.7853441363478335
0.4891679952437642 -1.825599811686339
0.5347364702849784 -1.8648476901203386
0.5672011071621094 -1.8552312265682886
0.6149438188061455 -1.8926024674273556
0.647880627369742 -1.8815819654426402
0.7148220995506478 -1.9639575774425482
0.7489890145496777 -1.9511830913791515
0.7829277802392564 -1.9378142560445855
0.8361646149670457 -1.9698803863882226
0.8907532483360028 -2.0006645522372954
0.9466649062991669 -2.030129442962096
1.0038699261469874 -2.0582383660250922
1.0623377693905396 -2.084955266600781
1.1220370350582791 -2.1102447469328354
1.1829354734010626 -2.1340720854201254
1.2699999999999998 -2.1997045256124745
1.3339486140170405 -2.2200633088184705
1.3830892796486647 -2.213405530968272
1.4759717848907234 -2.2727972391320987
1.5713320587527988 -2.329595578879667
1.6404286079639916 -2.3427748466665164
1.769233609400344 -2.435141153068592
1.8415539708452677 -2.443824660744716
1.9454902620290806 -2.4901139813972413
2.083050494374962 -2.572353132422574
2.191905749031099 -2.612211551035715
2.3027671917566805 -2.6490306265819297
2.482474549591364 -2.7570673025211327
2.6325136698412446 -2.8230252882499975
2.7855800655405787 -2.8845525993579906
2.9769195487953652 -2.976919548795365
3.172288519493452 -3.063443413724178
3.4446759346262934 -3.212212275894368
3.6488410930940063 -3.2854312772219934
3.9697723919717807 -3.450870492490068
4.297509325897467 -3.6060384903414855
4.592932632210698 -3.719283511104539
5.0117483929387525 -3.915606983071186
6.596729312990639 -4.970992091235918
7.410595668474519 -5.384112910999054
8.117796758903909 -5.684142484238866
9.12770367383101 -6.156713867212922
9.527297651860017 -6.187099437770706
9.676228777144821 -6.046378804900868
9.694562170940891 -5.825080627232712
9.838048586991222 -5.68
10.154334799888384 -5.628639691059973
18.109255129536592 -9.62886175273862
18.363644463522263 -9.35674419963206
38.1193055227615 -17.775324088813818
41.712485595961155 -18.571595122841032
42.07627685131105 -17.8603198832447
35.566772661181965 -14.36990892343438
19.101055526132747 -7.332208247696845
19.320080283358273 -7.0319341467757495
10.410159517348479 -3.584505380573295
10.47113224440964 -3.4022771080681706
10.433284887556718 -3.1897752985250576
10.295112763499397 -2.952076080800061
10.538250764813736 -2.8237157820685006
10.294837655788323 -2.5667913123124735
9.558570335543159 -2.2067698431133143
8.910924642684968 -1.894075503349788
8.255484612794854 -1.6047036511167423
7.789829326326566 -1.373557085345419
7.318770603809971 -1.1591793859481108
6.892265758441329 -0.9686447826820552
6.56073006234914 -0.8055563599080245
6.22570706500539 -0.6543481800555102
5.98713013553139 -0.523806013913425
5.696090726983597 -0.39830946507895476
5.452517259759973 -0.2857543210864737
5.256795750120443 -0.18357135265515534
5.00923695273352 -0.08743655625079051
4.81 0.0
4.659290259428784 0.08132821399774127
4.507252629856121 0.1573967301282796
4.354024771529942 0.22818476921923544
4.19974465159386 0.2936747544627679
4.044550474252486 0.3538523155554926
3.9383067056583623 0.41393271453990826
3.831228145335503 0.4704156655438691
3.673894535031226 0.5163322045618427
3.614939326578204 0.572550142047245
3.5059156007234606 0.6181875124942721
3.3964300547289175 0.6601991240028452
3.335483318502277 0.7089788656885596
3.225164914439129 0.7445879898781934
3.163164067659748 0.7886653796549171
3.0523256110734556 0.8178681825239661
2.989523874368172 0.8572321765908671
2.8784773154487366 0.8800388312154375
2.8436589837225092 0.9239608131810928
2.7798246122619914 0.9571703741040407
2.715711674071275 0.9884382142111828
2.651368411252053 1.017764976708653
2.5868429542413365 1.0451523956303947
2.5682085411323086 1.0901398484850742
2.4574372810585965 1.0941215698739029
2.392652557776756 1.1157122109954465
2.3728162822298007 1.1572998275231647
2.3077068976478725 1.175835394325426
2.242686885861674 1.192457769476163
2.221534056134065 1.2314164354256962
2.1131019852340303 1.2199999999999995
2.091488213713154 1.2566929027805325
2.0692373546216793 1.29300300472902
2.004422657389563 1.301687293685915
1.98139979840655 1.336471039295085
1.9168157836362405 1.3421688610614482
1.893099766837377 1.375417490364387
1.8288753180083004 1.378156403018191
1.8045446257593931 1.4098647784957574
1.7796642517364636 1.4411436955041275
1.7542417747424597 1.4719836261821753
1.6905494596990094 1.4695722249387362
1.6274871677954932 1.4653960279258997
1.6016646065459834 1.4935764085368717
1.5393871727247133 1.4865689127822543
1.513208511739212 1.5132085117392116
1.5213018313052038 1.5753541627416463
1.4594764905337467 1.5650969214650248
1.431939497607957 1.5903299265216235
1.37116337059016 1.5773430226655933
1.3434261042448674 1.601032886118664
1.31527961729416 1.6242350594450692
1.286732483430626 1.6469424750380486
1.2577933983877805 1.6691482159988422
1.1990819146766452 1.650394668524893
1.198774751973686 1.712027772563993
1.1407535230803234 1.6912366480122851
1.1110636314306555 1.710887958608665
1.081035299035738 1.730018116159109
1.0506776728165108 1.7486212934323089
1.0199999999999998 1.766691823720255
0.9890116253025277 1.7842242025643673
0.957721988083217 1.8012130894322111
0.9397603344608619 1.8443835050699213
0.8942771394497175 1.8335398544503008
0.8621412539510269 1.848867885554766
0.8297427518746328 1.8636327335909055
0.7970915021181184 1.8778299010429784
0.7641974505684609 1.8914550633162461
0.7310706170724124 1.9045040700542917
0.6977210923843644 1.916972946403253
0.6641590350925993 1.9288578942226065
0.6303946685248928 1.9401552932421133
0.6052094287760647 1.9795508448434835
0.5705693265411882 1.9898117105923199
0.5409318042642688 2.0187849769441524
0.5056167618033054 2.0279180679168327
0.47014770357867813 2.0364334354011415
0.43453543380911674 2.044328485533654
0.41405551996710244 2.1301309880814308
0.3681341366538921 2.0877924363858815
1.331257297492365 8.405227778464623
1.1147765386901225 7.932047230619978
0.9213322361429149 7.503648906408394
0.7484237969964004 7.120776770836837
0.6022461823863178 6.883705363813962
0.46109029144866925 6.5938983722174385
0.330239883892975 6.30135236430136
0.21149095001715654 6.05630841173572
0.09965324075688808 5.709130339342994
