# .PCD v0.7 - Point Cloud Data file format
VERSION 0.7
FIELDS x y
SIZE 4 4
TYPE F F
COUNT 1 1
WIDTH 180
HEIGHT 1
VIEWPOINT 0 0 0 1 0 0 0
POINTS 180
DATA ascii
5.143516556418883e-17 -0.84
0.01518359360043673 -0.8698674947860604
0.03036256213117594 -0.8694700195066133
0.04291548411921405 -0.8188762184987505
0.06068813215738914 -0.8678807237260471
0.07321082390803284 -0.8368035463970662
0.0909397630428585 -0.8652340489703978
0.10602632876247832 -0.8635151519279501
0.11690540480645499 -0.8318251777429191
0.13609798458500091 -0.8592888563177699
0.14586446924022153 -0.8272385125302547
0.1602795561162977 -0.8245668340960377
0.17464582028691794 -0.8216439846163966
0.17771133293165348 -0.7697523511803359
0.20321439230372085 -0.815048410071837
0.21740799788611742 -0.8113776940828173
0.23153537888627929 -0.8074598245881879
0.24559223196709887 -0.8032959950089498
0.25957427527495586 -0.7988874736879289
0.27347724974401166 -0.794235603503426
0.2872969203935618 -0.789341801460163
0.31894747509531735 -0.8308865795825096
0.33339986814016187 -0.8251936305644407
0.34775070435545363 -0.819249319572672
0.3416587801836723 -0.7673781844197846
0.37613025294922253 -0.8066139304626184
0.4120688779817328 -0.8448664035212169
0.426751069755174 -0.8375461327370658
0.4178296908794429 -0.7858233576444449
0.45572104303155686 -0.822142524711032
0.46999999999999986 -0.8140638795573724
0.48413579041545096 -0.8057372626599855
0.49812410837921256 -0.7971652103870404
0.5119606929141254 -0.7883503338686985
0.5256413292625021 -0.779295318201739
0.5391618501699833 -0.7700029216316523
0.5819073997695484 -0.800926824431198
0.5957968729205277 -0.7906491549468199
0.6402879343386848 -0.8195311837509908
0.6544932066918309 -0.8082317999152497
0.668499114074001 -0.7966862208437372
0.6823013901501276 -0.7848979634316829
0.6958958306132126 -0.7728706184964901
0.7433782124681235 -0.7971755347648958
0.7571776238003071 -0.7840803823691297
0.7707463914933369 -0.7707463914933368
0.7840803823691298 -0.7571776238003071
0.8337432198458544 -0.7774781304712481
0.81002785977036 -0.7293523609311554
0.8981044004650987 -0.7807102444987036
0.9115928873115838 -0.7649172555269816
0.9248036941337954 -0.7488912653493065
0.9771333344723353 -0.7634202294038162
0.9903080324586431 -0.7462506287085399
1.0436319227436823 -0.7582429754572904
1.097663739347249 -0.7685924247104018
1.110910347223756 -0.7493184906508007
1.1238185610468683 -0.7298163069201362
1.1787868536574322 -0.7365877772841548
1.2343209130110417 -0.7416548278704778
1.2903778516388136 -0.745
1.3031833636376997 -0.7223663341670422
1.3597392930027477 -0.7229862066902718
1.3721500472500865 -0.6991453695989021
1.4290825336156756 -0.6970101233946331
1.5316601600919384 -0.714224862341782
1.5895690962981257 -0.7077217589518923
1.6477036876798683 -0.6994087199957999
1.7060182924028888 -0.6892761318852779
1.8111460274045714 -0.6952338221178826
1.823003684324662 -0.6635190780517974
1.9004923369546267 -0.6543919904588849
2.006729249382774 -0.652025858131139
2.065618272880157 -0.6315228822011113
2.2012892836987503 -0.631209544820928
2.163673850887513 -0.5797546610296463
2.1928683413837518 -0.5467434840552488
2.3092570535410077 -0.5331339987949597
2.3377727657537957 -0.496908941054445
2.36572151210887 -0.45984967885747313
3.062752111867967 -0.5400458325441534
3.269248407369906 -0.5177980792831642
3.0797336937862836 -0.4328283439858034
3.4342096846789745 -0.4216679281818101
4.087484989963603 -0.42961198403005546
6.933515098718549 -0.6066039695237001
6.793411182269403 -0.4750415861974924
6.800667131678647 -0.35640786201444796
6.735894174108705 -0.23522260777485687
6.758970419257205 -0.1179782675160367
7.91 0.0
8.558696270538709 0.1493925991031471
9.40426768224969 0.32840426397053457
20.531823234554036 1.0760272603549266
20.559795075854975 1.4376809238664245
28.750178986927775 2.515314735697418
26.513953730518168 2.7867288307156453
9.389486594526907 1.152883988612695
9.61550294748065 1.3513708103222353
2.143283699091449 0.339462789137301
2.0385520487352706 0.3594517277705458
2.1203147162469542 0.4121474300133369
2.2106135776584006 0.46988042124813617
2.2507948496538934 0.5196369355343283
2.241383127697552 0.5588395788352327
2.2795849500422007 0.6108129464419493
2.3647037720082644 0.6780678953098178
2.448140175265371 0.748471564090206
2.5298103333451087 0.8219852050373602
2.5623553398741485 0.8822896985788946
3.6741981472729015 1.337298760403365
2.530002955807417 0.9711771432677638
2.559027438604333 1.0339141978279174
2.632643880873979 1.1174910274793233
3.6633172851468294 1.6310139387339593
3.770240394072464 1.7580919688413095
5.356812515943035 2.6126920348629024
2.4591780067598954 1.253013779281149
2.1720510784329603 1.1549000444532918
2.0641025088489737 1.1441507037813554
2.0264994448555864 1.1699999999999995
1.894339734551668 1.13823414555122
1.8317838876978805 1.1446256107437227
1.7276613699675734 1.121956412130956
1.6912366480122851 1.1407535230803234
1.6301125681350934 1.141417108338582
1.5290421193686505 1.1109141268327742
1.4694893384870187 1.1073396425997692
1.4105392489560322 1.1020340408329283
1.3522339729351296 1.0950174804267168
1.294615108871073 1.0863110603702515
1.237723711565346 1.0759368075444318
1.2187575137829263 1.0973741944285276
1.1262847004935228 1.0502774744962478
1.1077832925215225 1.069773890506856
1.053589103967956 1.0535891039679557
1.0003080534609559 1.0358493124876578
0.9820776384899977 1.0531493303316055
0.930091542838813 1.0329713074135778
0.9119220502968051 1.049046316509653
0.861335396979963 1.0264995537794306
0.8118233044542903 1.0025182902794925
0.7942033031700994 1.0165338721526713
0.7763413798661422 1.030239807961008
0.7288537128426666 1.0031810730249349
0.7399136028928492 1.0567061371327995
0.6654395551301887 0.9865547113404997
0.6481204516678823 0.9980179758550545
0.6306039244375138 1.009177234426147
0.6128953091429645 1.0200290878355136
0.5699999999999998 0.98726896031426
0.5526829670808243 0.997066466138911
0.5117240034366208 0.9624128762162305
0.4948496447161061 0.971197111365321
0.4778245500000942 0.9796855104660921
0.4395229922103274 0.942560098518116
0.44334294095262244 0.9957645488304349
0.42589693005330836 1.0033502902631601
0.4083211868233443 1.0106304014777983
0.3727026675271122 0.9709236435570898
0.3557009490586956 0.9772803256173447
0.3385908806354428 0.9833393186232896
0.30592682443119795 0.941545951132202
0.28944798767550917 0.9467417084034052
0.2728809822588292 0.9516490789789357
0.25623085465149575 0.9562665680261775
0.239502676643671 0.9605927690132365
0.22270154380042648 0.9646263641373829
0.20583257390958165 0.9683661247264677
0.18890090542277946 0.9718109116131873
0.17191169589026092 0.9749596754820861
0.14704839713781706 0.9284270401594295
0.13082271490246133 0.9308519846170761
0.11821326310299306 0.9627697670920823
0.09825675547159446 0.9348505816461768
0.0845410704652284 0.9663088571489932
0.0676637795318017 0.9676371287520295
0.04919579886836712 0.9387117626692993
0.033852511801426045 0.9694091022085228
0.016405262051046372 0.9398568334470078
