# .PCD v0.7 - Point Cloud Data file format
VERSION 0.7
FIELDS x y
SIZE 4 4
TYPE F F
COUNT 1 1
WIDTH 179
HEIGHT 1
VIEWPOINT 0 0 0 1 0 0 0
POINTS 179
DATA ascii
1.1389215232070384e-16 -1.86
0.034206716617075854 -1.9597014825065269
0.07189296320715223 -2.058745103659337
0.11042886767261176 -2.1071083183321506
0.1471861596001047 -2.104860146048229
0.19697197860970736 -2.2514000176873448
0.2362343269848968 -2.2476194835322976
0.28761165043614806 -2.3424089178735197
0.3284485182657545 -2.3370326422301058
0.611658758307303 -3.8618614117269887
0.678964374677698 -3.8505983142777334
0.7365227221534634 -3.7890809281079827
0.7921435420156635 -3.7267423587957995
0.8683110697673194 -3.761068450071008
0.9338185170147172 -3.745341503425346
1.1025691321367384 -4.1148440199914305
1.256906342525516 -4.383353333478734
1.4063078997163638 -4.5998258761822
1.5790768412559815 -4.859898798268235
1.777602123336076 -5.162531422772269
2.004238039888419 -5.506598757805423
2.261301761630845 -5.890892491197342
2.7383741978703178 -6.777713976883215
2.8953176621055183 -6.820940964082583
1.5089929458112195 -3.3892536478540487
1.538330472736146 -3.298960344813406
4.563443638074296 -9.356446021974328
5.452425901871957 -10.700988355502298
6.88245311044116 -12.944011711311868
10.767621665671149 -19.42530369556598
10.054999999999998 -17.41577087010506
10.331663782695689 -17.19477605208437
10.60368447730643 -16.969442404090085
10.898227090650693 -16.781798064587935
12.71045382953918 -18.15240930144406
5.295945123155183 -7.289243119318276
4.098360307665448 -5.438707823422064
3.361511655278095 -4.302538714692702
2.1963281647639326 -2.7122394054848287
1.9990694661251374 -2.3823982181000214
1.7647987879844644 -2.0301687707992566
1.8133439432325058 -2.0139224770437383
1.8482155557693711 -1.9819685313879516
1.7088595913291331 -1.7695759088330816
1.5980613254815974 -1.5980613254815972
1.4818399886976215 -1.4309962431455343
1.3968855700926157 -1.3026168677193721
1.3673864788784056 -1.231200315700299
1.3962127234121282 -1.2137092036324386
1.4171822197701094 -1.1891570779200977
1.414405649851687 -1.1453631117107042
1.4499397866363686 -1.1328171145992112
1.469489338487019 -1.1073396425997688
1.4885912696499033 -1.0815248642181505
1.589154965920644 -1.1127382865210294
1.5668810121290289 -1.0568745875597114
1.6270209018141226 -1.0565997279291524
1.6452133065434664 -1.0280433726124174
1.6629045633620978 -0.9991738653255048
1.6800892833418108 -0.97
1.7404932172073975 -0.9647711442902107
1.7570657097892648 -0.9342484099439227
1.8176533093442706 -0.9261406194686755
1.878479556765259 -0.9161956967891717
1.8941832749065983 -0.8832721670380617
1.909310006473036 -0.8500795840284222
1.9698803863882226 -0.8361646149670456
1.9841734487729252 -0.8016581099100515
1.997862112704012 -0.7669074120269428
2.057926839521139 -0.7490241138832145
2.11796160934247 -0.7292726659840311
2.130366596501144 -0.6921980673998822
2.1899378911553513 -0.669531203815067
2.2012892836987503 -0.631209544820928
2.2602664335164198 -0.6056365655398983
2.3675215721134313 -0.590289425263189
2.377462958075974 -0.5488805725990302
2.435587525827176 -0.517700110136221
2.4933330459570664 -0.48465484825642396
2.5506520803016186 -0.4497487801573496
2.607497219171164 -0.4129869877062095
2.614307701477746 -0.3674169865345727
2.7195764554972226 -0.333922000930104
2.744880431216434 -0.2884985586187233
2.8491168365423922 -0.24926542425830206
2.902911386256089 -0.20299133859540427
2.9559434228735384 -0.15491443047911396
3.008166389327478 -0.10504748507452806
3.109526331936377 -0.0542769840199518
3.21 0.0
3.309495870967655 0.057767465307408505
3.3579531787841614 0.11726230892040342
3.555121143726283 0.1863160042248803
3.5513280189249743 0.24833304652908642
3.695882329920376 0.32334780559381227
3.838854516121535 0.4034798682131429
3.8808554529175696 0.4765091327141265
4.070001762527855 0.5720014449458689
4.207552330935287 0.6664108210713835
4.392242578434447 0.7744708723945094
4.574382674866114 0.8891699184546991
4.704889959529605 1.0000552328334227
5.855964089359263 1.351955836606629
6.316625178056737 1.5749115403538376
6.336473420456287 1.697852935872537
6.257813640558456 1.7943991863686641
6.608065863704576 2.0202884796341105
3.2431027205664735 1.0537479508185708
3.2242183427936704 1.1101874066989044
3.298321098958538 1.2004907030730974
3.183509254355458 1.2220347079494742
3.161696944072745 1.2774084835482604
3.3690477636359315 1.4300759302707424
4.987958198728601 2.2207820711938697
5.084386685275606 2.370888448365324
4.952355195108409 2.4154250188078175
13.997712494999261 7.132190750908281
17.005570638462935 9.04202229925626
23.667209275192047 13.11894832386588
23.521249966785355 13.579999999999995
37.681074538864856 22.641073773045985
37.83142556953817 23.63969837744327
37.161492865661735 24.132955641515856
36.77610671854165 24.805797197962328
15.694953168577081 10.989724520486046
12.628755282192929 9.175327788285506
9.55168070016562 7.1977076768985
7.493982266799925 5.85494063034701
6.535797535853126 5.292584488729132
5.21676265764024 4.377383621965333
4.53580457713886 3.942914764232948
3.9460990232849626 3.5530835197655377
3.5178113047882102 3.2804121119006173
3.1363215294765183 3.0287104952012287
2.870853531617383 2.8708535316173824
2.5771825544028792 2.6687506592563963
2.3597143258162445 2.5304838076023297
2.181365776729878 2.4226521310563047
1.9747376772614267 2.2716758364705436
1.806233183219176 2.152584885164328
1.7054582597450594 2.106065555548391
1.5453103030674025 1.9779069915528718
1.4503742057964362 1.9247115792139762
1.3283946701809892 1.828378407287381
1.2676039243358115 1.8103260178786722
1.1798970263232758 1.7492692780911379
1.0947244603802047 1.6857278415703019
1.0386417578970817 1.6621742684665948
0.9837227230782036 1.6371895443410343
0.9949999999999998 1.723390553531033
0.9259863746705038 1.6705236406362458
0.9201642630603456 1.7305772820034968
0.8580420445077436 1.6840023307160152
0.8066029100919021 1.6537810451904673
0.756486688515852 1.6222909387956035
0.6873849267981026 1.5438918234159953
0.6798721635713363 1.6016784450072463
0.614354813202096 1.520581521489531
0.5698050397770272 1.4843928781305509
0.52671102072153 1.4471266360102988
0.4850965501411632 1.4088226776429822
0.4604353216186717 1.4170742092797788
0.4210152548007406 1.377078848586771
0.3969177923764788 1.3842168421511791
0.3597584726925041 1.3426368985418047
0.33627143488353806 1.348711059523635
0.2789393073863928 1.2082188803336917
0.2411775613486007 1.1346512168512146
0.21752225472926118 1.1190549891303367
0.18927651365695394 1.0734404507833069
0.17051356689385172 1.0765802912487001
0.15169868004647113 1.0793921949283118
0.13283758431161077 1.081875305289041
0.10870960179835983 1.0343027711830042
0.09064197245756447 1.0360424860154154
0.0690589090066842 0.987588409757226
0.05181259668051431 0.9886432394070281
0.034550501735476066 0.9893969187489048
0.017277882372910544 0.9898492182048273
