# .PCD v0.7 - Point Cloud Data file format
VERSION 0.7
FIELDS x y
SIZE 4 4
TYPE F F
COUNT 1 1
WIDTH 170
HEIGHT 1
VIEWPOINT 0 0 0 1 0 0 0
POINTS 170
DATA ascii
4.1025667771436334e-17 -0.67
0.011693112312980012 -0.6698979557547822
0.023382662790675725 -0.6695918541027942
0.03506509068277246 -0.6690817882855645
0.04673683740856406 -0.6683679136740822
0.05577967535850121 -0.6375646067787172
0.06689821649129822 -0.636494013035695
0.08165246008144883 -0.6650059215996857
0.0890707846144419 -0.633771563994605
0.10481109157695473 -0.6617511881987423
0.11981724259018198 -0.6795173495784235
0.131658206809816 -0.6773227565788881
0.13306348212336605 -0.6260144644696356
0.1439686747800737 -0.6235968414625506
0.1669261079637707 -0.6695040511304375
0.1785851411207393 -0.6664888201394571
0.1901897755137294 -0.66327057019744
0.20173647625868835 -0.6598502816144944
0.21322172611871373 -0.6562289962436559
0.22464202657543814 -0.6524078171635285
0.23599389889471148 -0.6483879083422767
0.24727388518625723 -0.6441704942830692
0.2584785494569794 -0.6397568596510832
0.26960447865759885 -0.6351483488821839
0.2806482837223022 -0.6303463657733944
0.29160660060108257 -0.6253523730552885
0.3024760912844634 -0.6201678919464251
0.31325344482028733 -0.6147945016899738
0.3474089564615592 -0.6533812187156058
0.35875911898228946 -0.6472185832831528
0.36999999999999994 -0.6408587988004847
0.38112817543344013 -0.6343038025195631
0.39214025553257165 -0.6275555911557552
0.40303288591112 -0.6206162202796137
0.4138027485683527 -0.6134878036907307
0.42444656289977406 -0.606172512773854
0.4643503493110538 -0.6391234255562085
0.47543386829011813 -0.6309220529373614
0.48637256550727015 -0.6225284953493103
0.49716310892937154 -0.613945309551007
0.539941592136693 -0.6434773322199415
0.551089584352026 -0.6339560473871285
0.5620697093414408 -0.6242416534010111
0.6069785404556237 -0.6509047944410616
0.5835130311855576 -0.6042454322844669
0.6293250352560273 -0.6293250352560272
0.6402124223013995 -0.6182459497085075
0.6874724795220203 -0.6410784584587486
0.661398894674881 -0.5955262396593838
0.7094270054094056 -0.6166954872510768
0.7200817765318392 -0.6042203531053468
0.7693745018424012 -0.623027187139339
0.8195311837509909 -0.6402879343386846
0.8305809304491846 -0.6258876240781303
0.8413776741499454 -0.6112966623841721
0.8928757282750012 -0.6251983156226403
0.9036509540849955 -0.609520264783114
0.9560844474577833 -0.6208884999171307
0.9667748296183256 -0.6041079612258535
1.0200290878355136 -0.6128953091429643
1.0738715006927038 -0.62
1.0845284368528507 -0.6011639291054579
1.139002394788016 -0.6056183159937991
1.193948742412413 -0.6083472696509927
1.204384022040884 -0.5874173366973637
1.3050832133327759 -0.6085702969066071
1.3611827318874754 -0.6060375981829422
1.4175774743167582 -0.6017259378734815
1.474222328761192 -0.5956244835312999
1.5310718994554107 -0.5877234372542925
1.588080529128185 -0.5780140422203802
1.6452023215428113 -0.5664885887554526
1.6548383383535672 -0.5376895702124085
1.6639702753756818 -0.5087267662175619
1.672595350932675 -0.47960899912157845
1.7290072290574323 -0.463286090733512
1.8338589226616333 -0.4572323826833718
1.8415594224440945 -0.42515749270990455
1.966076677474949 -0.4179024985436963
2.611128307970786 -0.5075519277016094
2.8657905612655257 -0.5053161970107674
2.5581128021414066 -0.4051652644541979
2.8321666766008913 -0.39803506874578704
3.632718915007239 -0.4460417968628396
3.9880328004267755 -0.41915913770329005
4.4430283534891855 -0.388714612654555
7.391949612425298 -0.5168954704439676
7.399844852531392 -0.3878094357602143
7.355516486860545 -0.25686029573040753
7.438866851963551 -0.1298459038933895
8.26 0.0
12.608079435922093 0.22007484517414538
19.048389162983963 0.6651844071496693
25.624833861802365 1.3429406371939405
25.547615327154098 1.7864632925870514
8.363929140047178 0.8790843760809669
21.250413106640707 2.6092226423042066
16.34932581492333 2.29774789685068
12.701672060053472 2.011747220417369
8.402728690312005 1.633325000423224
8.275128702207995 1.7589329043182447
7.2200821800585935 1.6668873126880404
1.688314563720234 0.42094409834342206
1.6130961299027438 0.4322278053212099
1.6437575000545253 0.4713398784470685
2.209063986274612 0.6753786379095218
5.506598757805423 2.004238039888419
5.424102277948742 2.082117786858195
5.247860616848016 2.1202733187340628
4.485508197025171 1.9970769175021796
2.8639326070358138 1.3354737071006102
2.660430377045534 1.2975785944956697
2.6373793115975688 1.3438118792290585
2.7018196341483165 1.4365829821248264
2.5451433477756416 1.410795994916841
1.8103260178786715 1.2676039243358121
1.6261241586936441 1.1814483571078709
1.6052573751950583 1.2096481965356174
1.544501077069175 1.2066964916382903
1.5620633825285115 1.2649339860101727
1.5780515528250947 1.324142475954271
1.5547017352589103 1.3514815997204448
1.493721099209562 1.3449525187813052
1.4334532551735744 1.336716785722497
1.3739390186468232 1.3267974875766848
1.3505739520663058 1.3505739520663056
1.2920645690537347 1.3379720286298915
1.2344170317131222 1.3237501999306986
1.2445829278274767 1.3822493753879532
1.154663891023293 1.3282888611920787
1.1313061930483095 1.3482382198894014
1.0761378686952219 1.3289195940914202
1.0527811228068757 1.3474983886674945
0.9689221872747976 1.2858031711761417
0.9463342561908819 1.3025173609436655
0.8947792407076317 1.2778771890908274
0.8443812842408277 1.251846734558113
0.8224049428726911 1.26639255759759
0.8266740522037996 1.3229550300040245
0.8034593968596847 1.337180989095295
0.7549999999999998 1.3076983597145024
0.7078220455596522 1.2769447724235177
0.6854284816674003 1.2891034855740333
0.640126604632761 1.2563191991055986
0.6181033169725989 1.2672996052818255
0.5958917490543861 1.2778939797216764
0.5734986667368785 1.288099095276067
0.5313943347454123 1.251886600695319
0.5094649670456406 1.2609700422108308
0.48738041138160826 1.2696693800361945
0.4480463877566262 1.2309973332295399
0.4427726900617329 1.285905262815071
0.4202631123499286 1.293436862161409
0.3976255184229217 1.3005744681097284
0.34730306832941893 1.2111897368822817
0.33905294908430245 1.2653628324386794
0.30482158845558127 1.2225726151077556
0.2834383284732701 1.2277062816293964
0.2619687304303766 1.2324659769245951
0.23087888440561935 1.1877688919716733
0.2187967038603321 1.2408577687953823
0.18928570269867942 1.1951028921201168
0.1558738730752731 1.109100236990559
0.1364936646137652 1.1116516898382807
0.11916244812512518 1.1337549607198314
0.10197221901476002 1.1655477967673422
0.08719559218015682 1.2469550628247803
0.06280314749153248 1.1983554417054885
0.041879396043001296 1.199268992422915
0.021291935853485718 1.2198141880907973
