# .PCD v0.7 - Point Cloud Data file format
VERSION 0.7
FIELDS x y
SIZE 4 4
TYPE F F
COUNT 1 1
WIDTH 180
HEIGHT 1
VIEWPOINT 0 0 0 1 0 0 0
POINTS 180
DATA ascii
9.613477373306724e-17 -1.57
0.02740027810653525 -1.5697608813955344
0.0547922098229267 -1.5690435984199804
0.08478424911356923 -1.6177798463024098
0.11300548746548325 -1.6160537614209154
0.14119230325120619 -1.613835410908628
0.16933611049359862 -1.611125470496603
0.19742833631633894 -1.6079247656589417
0.22546042355530607 -1.604234271361344
0.2534238333651741 -1.6000551117641233
0.28999245670377377 -1.6446289475303872
0.3091105725100028 -1.5902360371852158
0.34721252366565825 -1.6335064932254553
0.36442070803706156 -1.5784795049520812
0.404009565651445 -1.620393862880914
0.43222780532120963 -1.613096129902744
0.4603143842143886 -1.6053070322169924
0.4882607468869704 -1.597028942458269
0.5160583806061623 -1.5882643822129063
0.5436988179434518 -1.5790160212508588
0.5609130350540968 -1.5410958980888896
0.6056418347315576 -1.577750920780271
0.6330851428728915 -1.5669407142178704
0.6603356071468726 -1.5556532023346241
0.7077217589518926 -1.5895690962981253
0.735355775428817 -1.576975549443771
0.7846843527524486 -1.6088413428755088
0.8126429945337889 -1.5949016782971785
0.8403540973867447 -1.5804761912174792
0.8678092202409434 -1.5655692757795183
0.8949999999999998 -1.5501854727741453
0.9476700578344999 -1.5771878332918865
1.0015474094007573 -1.6028109017356449
1.029367776178401 -1.5850873734168511
1.0568745875597116 -1.5668810121290286
1.1127382865210294 -1.589154965920644
1.140303389447398 -1.569492969087398
1.1976118960725761 -1.5892846649941128
1.255949409664343 -1.6075419373577127
1.2838135977416683 -1.5853777613722206
1.3434261042448672 -1.601032886118664
1.37116337059016 -1.5773430226655933
1.3984829672900136 -1.5531726852477539
1.493576408536872 -1.601664606545983
1.521301831305204 -1.5753541627416459
1.5839191898578666 -1.5839191898578664
1.6472881427755113 -1.5907676683511038
1.7113676617888591 -1.5958761625462463
1.7389588916171026 -1.565765618879728
1.8414913757435636 -1.6007840307368377
1.9074506633662554 -1.600541148119483
1.973950742100706 -1.598473793266587
2.001547314161074 -1.5637801473271717
2.108397746524853 -1.5887916611214075
2.1762557148686086 -1.5811423286667527
2.2608596422376173 -1.583070964328887
2.288143700251915 -1.543372413579261
2.3985978243239128 -1.557667640142977
2.5102223646230213 -1.5685610221302866
2.622931940148464 -1.5760165092247653
2.736640275958826 -1.58
2.80752925991746 -1.556238880990742
2.9667039120059946 -1.577424450960593
3.082882573691753 -1.570807129098832
3.1997068048250346 -1.5606012825691156
3.3624018899059713 -1.5679137510579948
3.48060819361831 -1.5496666101187986
3.6912244623442856 -1.5668318252419873
3.903444027726175 -1.5770937582809892
4.0704106595278 -1.5624842600175095
4.238013719744447 -1.542510846398766
4.500668419852748 -1.5497044152160657
4.764793146638719 -1.5481751418184864
5.077978254163718 -1.5524937520777318
5.392678114213969 -1.546325566133365
5.756917924682847 -1.5425615088110232
6.122566032801537 -1.5265271612339026
6.58674163794819 -1.5206691273645265
7.150258961364118 -1.519834459877821
7.764671021071022 -1.5092991534284699
8.479194753435111 -1.4951108097122703
9.39291611905976 -1.4876917625325956
12.041659715897495 -1.6923449076743955
12.01973389637641 -1.4758377486363354
12.640373290130754 -1.3285567681318746
12.711444347650673 -1.1121072774601168
12.679039078802369 -0.886604781287831
12.692581386730634 -0.665190003847817
12.702257411412708 -0.443572603088788
12.658071820679913 -0.22094746549600958
12.66 0.0
12.508094666406455 0.21832960453041703
12.582330512170415 0.4393846634844878
12.742512863468361 0.6678068016599642
12.728917281315356 0.8900926049750401
12.6118248778415 1.103391703185354
10.104342456941657 1.0620091867993606
8.744331595960048 1.073668915399349
7.4369131962491934 1.0451899882100912
6.627388765393374 1.049675260419949
5.86945420795276 1.0349431388949049
5.261521703279479 1.0227362152182806
4.851612099639675 1.0312419864560867
4.443127495420672 1.0257768078080247
4.084945007621945 1.0184911804746015
3.776769980790257 1.0119824663508568
3.5182178071342474 1.0088327222902167
3.308814455632103 1.011606098340669
3.1955498947517156 1.0382971010998232
3.1769424140137046 1.0939089989760464
3.0164133127227655 1.0978846600753966
2.856756105081437 1.096605925608619
2.698105016789351 1.0901051868403044
2.586618638201357 1.0979544710548597
2.201644552918668 0.9802353098126788
2.138886377406494 0.9973790977080504
2.031274544636117 0.9907187917433152
1.969124418456293 1.0033190044243985
1.8630194209323356 0.9905849974782299
1.8017165967071553 0.9987078177074543
1.723390553531033 0.9949999999999997
1.6629045633620976 0.9991738653255052
1.602810901735645 1.0015474094007573
1.5012203166223088 0.9749038726768987
1.4425253762457726 0.9729956520390994
1.4253245570628454 0.9980229992508205
1.3672387204936611 0.9933570763742796
1.30976223647756 0.9869766379693594
1.252937098234688 0.9789017457677968
1.1968047806437354 0.9691534022167494
1.1797084424032263 0.9898929189172706
1.1245172745319303 0.9775279531958556
1.1072857899613173 0.9970046034746989
1.016581645250647 0.9479777204868728
0.9998823224707247 0.9655751349380063
0.9828784258493011 0.9828784258493009
0.965575134938006 0.9998823224707253
0.9138778024837481 0.9800139601696884
0.8631784822029273 0.9586568248658385
0.8463161473977544 0.973575358487376
0.7970566360113089 0.9498951094675328
0.8118233044542903 1.0025182902794925
0.7634202294038164 0.9771333344723352
0.7161598775509372 0.9503762569562786
0.699464450228043 0.9627302233061874
0.6825559592577446 0.9747909327039004
0.6374799099566513 0.9451028327127475
0.6481204516678823 0.9980179758550545
0.6041079612258535 0.9667748296183255
0.5613915016519592 0.9343123577653024
0.5449999999999999 0.9439676901250382
0.3829995999946063 0.6909495686401227
0.2863776532993933 0.5385980316439455
0.2678543948463326 0.525693849271137
0.25863897660555557 0.5302884873165086
0.27047568751404766 0.580036983703456
0.2399746194147222 0.5389918200091344
0.2500679222331352 0.5891231062095619
0.2397482197861838 0.5933976669227439
0.21143709023172708 0.550812451633349
0.21889289172842805 0.6014032773029814
0.18231816649600768 0.5294904023356175
0.18850036656871794 0.5801444749400436
0.2602108172032355 0.8511112328071017
0.2728809822588292 0.9516490789789357
0.25623085465149575 0.9562665680261775
0.239502676643671 0.9605927690132365
0.22945007543074245 0.9938574660809399
0.19543698936869366 0.9194587446897773
0.18508472551524857 0.952178367944234
0.17191169589026092 0.9749596754820861
0.14704839713781706 0.9284270401594295
0.14195656297926654 1.0100734301164018
0.11821326310299306 0.9627697670920823
0.10139260936962406 0.964686238507225
0.0845410704652284 0.9663088571489932
0.0676637795318017 0.9676371287520295
0.05076587755565543 0.9686706487119366
0.03280552690035101 0.93942737739795
0.016928834244164876 0.9698522643016995
