# .PCD v0.7 - Point Cloud Data file format
VERSION 0.7
FIELDS x y
SIZE 4 4
TYPE F F
COUNT 1 1
WIDTH 180
HEIGHT 1
VIEWPOINT 0 0 0 1 0 0 0
POINTS 180
DATA ascii
9.919639073093561e-17 -1.62
0.02740027810653525 -1.5697608813955344
0.0547922098229267 -1.5690435984199804
0.08478424911356923 -1.6177798463024098
0.11300548746548325 -1.6160537614209154
0.14555009038858907 -1.663645145813215
0.16933611049359862 -1.611125470496603
0.19742833631633894 -1.6079247656589417
0.23241907860330932 -1.6537476747984223
0.2534238333651741 -1.6000551117641233
0.2813100478204273 -1.595388559879777
0.31865102227883 -1.6393173963575989
0.34721252366565825 -1.6335064932254553
0.37566826075425475 -1.6271980081913429
0.404009565651445 -1.620393862880914
0.43222780532120963 -1.613096129902744
0.4740962520052385 -1.6533701170139086
0.4941081809814251 -1.6161550375775298
0.5315092303249096 -1.635817208027664
0.5762556333891674 -1.6735678788107906
0.6053756536864339 -1.6632559387910577
0.6235602322088226 -1.624429942105131
0.6518154725436872 -1.61329990694621
0.6798721635713363 -1.6016784450072463
0.7280585911056827 -1.6352463691802555
0.777617601602887 -1.667606328147436
0.7846843527524486 -1.6088413428755088
0.8353425195207662 -1.639452004506597
0.8638276755260392 -1.6246235708604255
0.8920497012532603 -1.6093002611364882
0.9449999999999997 -1.6367880131525891
0.9991738653255052 -1.6629045633620976
1.0280433726124174 -1.6452133065434662
1.0565997279291526 -1.6270209018141224
1.084834232733249 -1.6083328907567807
1.1414171083385816 -1.6301125681350936
1.1990819146766452 -1.650394668524893
1.2577933983877807 -1.669148215998842
1.286732483430626 -1.6469424750380486
1.31527961729416 -1.6242350594450692
1.4077048652135211 -1.6776373304305618
1.4367692734892108 -1.6528139806878708
1.4988525582438426 -1.6646444090693633
1.527676326539997 -1.6382322916269418
1.5907676683511038 -1.647288142775511
1.6899852070358488 -1.6899852070358485
1.7192221228093765 -1.6602335053970034
1.8210707170317348 -1.6981759165556214
1.850430615438712 -1.666135209833557
1.9546978127769794 -1.6991928850854137
2.022357329834102 -1.6969592895724637
2.0672082574755426 -1.6739922401925675
2.096108604593881 -1.6376595243662508
2.2042340077305282 -1.661009463899653
2.3137886039123496 -1.681065821556473
2.3837324488809664 -1.669107429781544
2.4954030933906752 -1.6831706394469477
2.608265466310269 -1.6938273988967338
2.7222343886621276 -1.7010408381885878
2.794365400288886 -1.679024124206776
2.953146626904936 -1.705
3.113646157416249 -1.72592224807696
3.2315881898636727 -1.7182659197963603
3.350184530948263 -1.7070042790206958
3.5142847210297434 -1.7140311839452926
3.7249250047206317 -1.7369610557542745
3.89170364955748 -1.7326980995029087
4.105451646397884 -1.7426608330621605
4.32067676228123 -1.7456667253181495
4.583879894101261 -1.7595866322674247
4.848813923255287 -1.7648239395604508
5.16253142277227 -1.7776021233360755
5.858508140378146 -1.903544685349676
6.177728723521209 -1.8887212125088793
6.257813640558456 -1.7943991863686641
8.075139907776611 -2.163727217057073
8.11167227166733 -2.022467047213221
8.097015238365305 -1.8693432615975172
8.030591802024544 -1.7069549816138048
8.108240535277703 -1.5760823018102605
8.08527165223023 -1.4256515386454984
8.108921276286083 -1.2843269579802956
8.130100844368293 -1.142611158882137
8.099176597393189 -0.9944538421860031
8.065572571436697 -0.847725837100669
8.079139001524055 -0.7068330736835069
8.090244447607175 -0.5657250020648551
8.098885526859593 -0.42444460513027504
8.15502914847582 -0.2847798930924083
8.158757192476154 -0.14241163652823366
8.11 0.0
8.158757192476154 0.14241163652823366
8.15502914847582 0.2847798930924083
8.148817003597323 0.4270614029424223
8.190000852633158 0.5727006494392696
8.178758471333232 0.7155486479582747
8.214750855741936 0.8634051065908188
6.3125935244388085 0.7750890240567377
5.604917269077289 0.7877197514339702
5.096471837470911 0.8072018396075913
4.736925291988721 0.835247734577935
4.328975879004198 0.8414676696105629
4.020186639015941 0.8545170492609911
3.7123499468317465 0.857063517050126
3.4542527855425473 0.8612419483348175
3.245510776331269 0.8696319915444702
3.037586959165088 0.8710140443817173
2.8784773154487366 0.8800388312154375
2.7200216366041388 0.8837886039123495
2.5623553398741485 0.8822896985788946
2.4807885188747982 0.9029331783797656
2.4646523259526125 0.9460913867995929
2.4477653760563185 0.988961406618008
2.476158055787064 1.0510667356361467
2.4300309173293186 1.0819194705816289
2.320147934813824 1.0819027500561904
2.211033353895951 1.0783930211011308
2.147325723293967 1.094117104372308
2.066097367289889 1.0985634569189848
2.0641025088489737 1.1441507037813554
2.0871212231204974 1.2049999999999996
2.091488213713154 1.2566929027805325
2.086198316544808 1.303601390013684
1.9373290119539293 1.2581161708847128
1.8736249139743941 1.2637759618438877
1.851283620093121 1.2962827461533644
1.7474767078498865 1.269616144951742
1.645189150697423 1.23973894769322
1.6233021524298472 1.268262639170856
1.6009206806013603 1.2964000055626648
1.5397493306691457 1.292003095469944
1.4641365856321777 1.2727545162415839
1.4565638579356925 1.3114959884633623
1.3603178850116573 1.2685169497162472
1.3379720286298908 1.2920645690537351
1.2798632739476512 1.279863273947651
1.2573316505307848 1.302005038612959
1.2003171137099973 1.28718251484974
1.1442133368736478 1.270777651566344
1.1218609395737673 1.29055338218094
1.0670274320796556 1.2716337755775033
1.04467184914273 1.2900622960185717
0.9912149752743101 1.2686973133068224
0.8485591826443879 1.126076069166683
0.7876322380719141 1.0840827724624296
0.7800639534374225 1.1140467802330292
0.7325427035466783 1.0860392200471047
0.7298163069201364 1.123818561046868
0.7100918140724947 1.1363844488496109
0.6901510203794727 1.1486041829408304
0.6449999999999999 1.117172770881926
0.6254044101177749 1.1282594222098206
0.6056183159937989 1.139002394788016
0.5765679346692245 1.1315782857192271
0.5435802220184558 1.1145046174109672
0.4395229922103274 0.942560098518116
0.4230061087988324 0.9500872759483048
0.38682381720438097 0.911299804917916
0.3895908571525487 0.9642712087494588
0.35478427004984714 0.9242446222322297
0.3557009490586956 0.9772803256173447
0.32231247291258497 0.9360633898433237
0.30592682443119795 0.941545951132202
0.304066572911646 0.994556946201557
0.2728809822588292 0.9516490789789357
0.25623085465149575 0.9562665680261775
0.2274065818636876 0.9120779826994366
0.22270154380042648 0.9646263641373829
0.19543698936869366 0.9194587446897773
0.18890090542277946 0.9718109116131873
0.1684387323369223 0.9552635204218418
0.1548701203898286 0.9778114571891864
0.1349979079312633 0.9605600266793233
0.11821326310299306 0.9627697670920823
0.10661903253300675 1.0144123332756387
0.0845410704652284 0.9663088571489932
0.06557108531947792 0.9377102072442347
0.05076587755565543 0.9686706487119366
0.033852511801426045 0.9694091022085228
0.017801454566029044 1.0198446490595192
