# .PCD v0.7 - Point Cloud Data file format
VERSION 0.7
FIELDS x y
SIZE 4 4
TYPE F F
COUNT 1 1
WIDTH 180
HEIGHT 1
VIEWPOINT 0 0 0 1 0 0 0
POINTS 180
DATA ascii
4.2250314570583685e-17 -0.69
0.012914780763589862 -0.7398872944157295
0.025825627559850798 -0.7395492119941308
0.03611180980763133 -0.6890543789806559
0.04813196688344656 -0.6883191946792786
0.06013746249588411 -0.6873743416833044
0.07212463965468088 -0.6862201078041085
0.08408984694955177 -0.6848568446325121
0.09602943966244516 -0.6832849674316835
0.10793978087775932 -0.681504955010645
0.11113483370683547 -0.6302769619278131
0.12211775704098875 -0.628241397406505
0.143459066664254 -0.6749218445063258
0.15521622749726693 -0.6723153447018123
0.1548300131837873 -0.6209892648166377
0.16564418886561327 -0.6181925288250038
0.17640790772287948 -0.6152074854005241
0.18711789102255152 -0.6120350438163427
0.22249223594996215 -0.6847606917325105
0.21813066348629503 -0.6334974456515422
0.21889289172842805 -0.6014032773029814
0.22935548770899225 -0.5974914729582091
0.2397482197861838 -0.5933976669227439
0.2617898560878134 -0.6167382518131351
0.27251355086078627 -0.6120754566205425
0.27047568751404766 -0.580036983703456
0.2805575339450096 -0.5752281896314668
0.29055391983330997 -0.5702441754805555
0.32393537832226466 -0.6092338390726595
0.3345186379699726 -0.603487597926183
0.31999999999999995 -0.5542562584220407
0.3553762716879374 -0.5914454374844574
0.33914832910925113 -0.5427507815401126
0.34856898240961737 -0.5367491634850713
0.3858431033948153 -0.5720359250629786
0.39576774108222174 -0.5652149105594043
0.3761825614671828 -0.5177708763999663
0.3851616148173109 -0.5111267264302675
0.42480641797470425 -0.543727419988638
0.43423106982438775 -0.5362307134053099
0.47566283116803915 -0.5668728879080437
0.45268073000345 -0.5207496103537127
0.46170011838761216 -0.512769929579402
0.47057886844312397 -0.5046340541172275
0.4793142756167081 -0.4963444622336692
0.5232590180780452 -0.5232590180780451
0.5323114522506018 -0.5140471941396579
0.5412017391981863 -0.5046787864462489
0.5499271708532718 -0.495156648705555
0.5584850893648513 -0.4854836814529754
0.6051751100639926 -0.507802211652366
0.5750880114781585 -0.46569708937687965
0.6225284953493104 -0.48637256550727
0.6309220529373614 -0.47543386829011813
0.6391234255562085 -0.4643503493110538
0.6471301149883035 -0.4531253847173264
0.696391560946235 -0.4697220389154273
0.7044832770741561 -0.4574967894126226
0.7123604007713978 -0.4451321819558921
0.7200205325897744 -0.4326319829244454
0.7707626093681503 -0.445
0.7346805539970924 -0.4072400810069231
0.785823357644445 -0.4178296908794428
0.7929958065276475 -0.40405154476819666
0.7999267012062586 -0.3901503206422789
0.8519293198144509 -0.3972611660362574
0.8587327301840448 -0.38233244449125214
0.8652745622452939 -0.36728726077991725
0.8715528232927802 -0.35213019781095717
0.8495581881124536 -0.3261148340862233
0.8833110635387538 -0.3214989347261286
0.8604219037953783 -0.2962670205560126
0.8939931253174442 -0.2904759747124505
0.8989264706052533 -0.2748294024393725
0.9228112281007861 -0.26461186158431915
0.975585084551959 -0.2614072355535459
0.9897016408015165 -0.24676033351166096
0.9646263641373829 -0.22270154380042623
0.9683661247264675 -0.2058325739095818
0.9914434552821406 -0.19271708533031032
1.0438962181929405 -0.1840670683269462
1.046949641030846 -0.16582053294264473
1.1487109597402216 -0.16144079711367587
1.4491173813963303 -0.17792924137151525
1.5017280620060927 -0.15783797953415662
1.5540637290231232 -0.13596295868634659
1.6060781209183173 -0.11230792272804155
1.6577250276925926 -0.08687768736328688
1.7089583142026536 -0.059678139361276736
1.7597319434752487 -0.030716235329619025
1.91 0.0
1.6597471739596095 0.028970994685890667
1.7389400390132266 0.06072512426235177
1.8075194579057787 0.09472808079972847
2.304372956100194 0.16113745434892968
2.4008292224011067 0.21004534002185649
2.54597605214278 0.26759286596519327
2.689800070947983 0.3302659206279495
5.456377058766052 0.7668437862899604
5.442162756679209 0.861953902371672
5.2785695561454355 0.9307542322947467
5.261521703279479 1.0227362152182806
5.193963759896508 1.1040110782423023
5.154417642713894 1.1899910774790463
5.181379178313821 1.2918629225022262
5.998399381255114 1.607266270086655
6.834570658121447 1.9597815998588637
6.942772528291638 2.1226185762870684
18.174690026400384 5.9053147625052445
18.163411837262878 6.25416424712198
23.59568170793416 8.588125798907543
25.636118511613162 9.840783894513947
23.37430497362871 9.443832220015144
7.5573448468445354 3.207902564896939
7.317499115717233 3.2579605110371603
9.16277172694053 4.272670626198471
9.04186810576962 4.4100137366981205
9.0080759595444 4.5898439523668175
8.970747543446697 4.769831077904652
5.125271483836859 2.8409843746435355
4.511992353716925 2.604999999999999
4.037257986306948 2.4258293328263556
3.612684889626375 2.257456065633453
3.36306897746115 2.184002530410259
3.034277515551453 2.046646026702933
2.8342660732399114 1.9845744697746202
2.6373954016623284 1.9161799224734624
2.4438246607447156 1.8415539708452684
2.293111292995561 1.7915748931976656
2.1060655555483914 1.705458259745059
1.9993759965405324 1.6776756612818677
1.101875987125247 0.9578461823261404
0.639104549910559 0.5754523214686181
0.5558288132305697 0.5183187536474988
0.5682784422675343 0.548780112662608
0.5374011537017762 0.5374011537017761
0.5140471941396578 0.532311452250602
0.5046787864462489 0.5412017391981861
0.5085392608327324 0.5647900673628196
0.8922402794270899 1.02640502910297
0.8420517686893667 1.0035182204858613
0.824409712275287 1.0180612095086319
1.699225671898817 2.174909679954552
0.7281961780139783 0.9663489671572244
0.7699986805031398 1.0598122626311812
0.7800639534374225 1.1140467802330292
1.3196952521909624 1.9565286712298984
1.2308842191339613 1.895395483556658
1.1446256107437227 1.8317838876978803
1.1124822418057172 1.8514813695165626
1.0549999999999997 1.8273136019851655
0.9502268556828207 1.7142546259932157
0.8732171067817567 1.6422825227176043
0.8217228045285798 1.6127218087809458
0.7496146610093221 1.5369378191715757
0.6592844883154911 1.413840147777174
0.5734986667368785 1.288099095276067
0.5704674475943396 1.3439370860405628
0.5281952967164362 1.30732923493917
0.5232172063361382 1.3630274226859145
0.46514739492290963 1.2779819642688355
0.4753295055074485 1.3804571203750025
0.4357139620686759 1.3409896879761665
0.42686268889519535 1.3962049437060318
0.3886486717019688 1.3553789912730296
0.3649348535945545 1.361955415067586
0.3169176832355647 1.2710874014215554
0.29468588119046335 1.2764247848686583
0.2619687304303766 1.2324659769245951
0.2404193341744466 1.2368502511440567
0.22400614919033998 1.2704020013857484
0.2018004599018979 1.2741179593677276
0.17953330023848416 1.2774458086766258
0.15721145299264028 1.2803845356173054
0.13275114834992016 1.2630428071177071
0.11068779328952584 1.2651672665765168
0.08301020375550928 1.1871012198091908
0.06384986661639137 1.21832803240058
0.04257738597705132 1.219256808963297
0.021291935853485718 1.2198141880907973
