# .PCD v0.7 - Point Cloud Data file format
VERSION 0.7
FIELDS x y
SIZE 4 4
TYPE F F
COUNT 1 1
WIDTH 180
HEIGHT 1
VIEWPOINT 0 0 0 1 0 0 0
POINTS 180
DATA ascii
4.0168415012033185e-16 -6.56
0.1144877862285804 -6.559000880225926
0.22894069836840708 -6.556003825245268
0.23865196046782447 -4.553750678480856
0.3146016965860058 -4.499013866671807
0.3887146126545553 -4.4430283534891855
0.4139327145399077 -3.9383067056583623
0.4765091327141267 -3.880855452917569
0.5483420177826579 -3.9016561908417873
0.611658758307303 -3.8618614117269887
0.678964374677698 -3.8505983142777334
0.16409573602382863 -0.844199377764991
0.16840846956238517 -0.7922995565943826
0.18221035401853078 -0.7892397524760406
0.19595673543573083 -0.7859395382835572
0.22258437878816784 -0.8306962106085988
0.22326625821176935 -0.7786219737100384
0.2368210808254168 -0.7746068523300588
0.2657546151624548 -0.817908604013832
0.26371020511029697 -0.7658700462354466
0.2941373232600752 -0.8081356538758812
0.30819643660895835 -0.8028791667875935
0.3408920000084801 -0.8437373076557765
0.35556532692523907 -0.8376594166417207
0.3497935130451883 -0.7856490935726367
0.3845826181840365 -0.8247400862033515
0.3989177435780605 -0.817902582132242
0.435830879749965 -0.8553662632208332
0.4272191221351607 -0.8034823095016235
0.4654172354364836 -0.8396349188538199
0.4449999999999999 -0.7707626093681504
0.5201884556591548 -0.8657389737091333
0.5087224936638767 -0.8141261723101689
0.5500854253651773 -0.8470572736248781
0.5647848325054544 -0.8373279482805921
0.5793122007145565 -0.8273435647318818
0.5936631048153979 -0.8171071643186969
0.6379239245411712 -0.8465536406501304
0.652601163845198 -0.8352913988231253
0.6670796145128277 -0.8237747191443892
0.6813548662677318 -0.8120071097061168
0.7282255221794631 -0.837727634047277
0.7427349730583327 -0.8248907562799077
0.7433782124681235 -0.7971755347648958
0.7710707912094871 -0.7984671783759028
0.8555992052357225 -0.8555992052357224
0.8344341683928354 -0.8058037097324368
0.8849379789591963 -0.8252180156756231
0.8992052388276471 -0.8096480336942183
0.9509340710806927 -0.8266343765280392
0.9652159983299123 -0.8099123882050394
1.0180612095086319 -0.824409712275287
1.0322940872248059 -0.8065165326766123
1.0462125181619537 -0.7883776803291833
1.1002631123499287 -0.7993879431177635
1.1550043824474783 -0.8087427752549748
1.210394855930361 -0.8164216390672903
1.2663925575975903 -0.8224049428726907
1.3229550300040247 -0.8266740522037996
1.3371809890952953 -0.8034593968596844
1.3509996299037244 -0.78
1.4955996992083667 -0.8290244506212363
1.509840383788765 -0.8027963723638732
1.6127218087809458 -0.8217228045285797
1.6717569261164509 -0.815370333027684
1.7310478732400012 -0.8072008799247358
1.790549096979498 -0.7972038204285683
1.942265240784649 -0.8244426811123674
1.9563579331359213 -0.7904199121075741
2.016533721233956 -0.7740747710178487
2.1706899540154483 -0.7900665310822949
2.212513466902401 -0.7618294814297466
2.225472248130659 -0.7230997668373769
2.1899378911553513 -0.669531203815067
2.2012892836987503 -0.631209544820928
2.163673850887513 -0.5797546610296463
2.173462426858232 -0.5419050461432555
2.182588945118927 -0.5038903617302574
2.1910506256437245 -0.4657221874317811
2.1988448909227674 -0.4274121496434605
2.1567289790967354 -0.38028950909057746
2.1630374659033516 -0.3425914784381056
2.168687070544039 -0.30478909110254326
2.173676072094495 -0.2668938620572729
2.1780029508565186 -0.22891733455616092
2.2514000176873448 -0.19697197860970722
2.6535203736911326 -0.18555222015937298
3.1556693298244536 -0.16538162172770274
8.15502914847582 -0.2847798930924083
8.158757192476154 -0.14241163652823366
8.16 0.0
8.258741961991792 0.14415687717196202
9.254359058196826 0.3231693394651594
9.197378015089626 0.4820141569975134
5.44669971441864 0.3808703466429247
5.4890327864855175 0.48022814253959717
5.678720022552841 0.5968575252583022
5.766693141036081 0.7080608851839065
8.278641054679527 1.1634871240261468
8.257074527375352 1.30779212773633
8.232992815182058 1.4516987652955378
8.255484612794854 1.6047036511167423
8.226221322171305 1.7485373197773566
8.243170748083092 1.9030859197490988
4.909696374956542 1.2241247917343192
4.887584681022685 1.3096243682187556
6.017498216573876 1.7254898474144142
4.599825876182201 1.4063078997163634
4.574581843379688 1.4863717429434968
4.973427707652406 1.7124884924446442
4.61389076805881 1.6793189037290337
4.39716380880182 1.6879130423583646
4.135239991367872 1.670745406634968
3.9213506757073953 1.6645146073643067
3.708994558028959 1.651350770887749
3.5889788366651336 1.6735683164931696
3.334525911769909 1.6263569545874779
3.2610838785294267 1.6616052290467413
3.099146050934833 1.6478451853784772
2.9824532013453395 1.6532008050400095
2.909845356715714 1.6799999999999993
2.7943654002888856 1.6790241242067767
2.2982103405839145 1.4360812060719852
1.9373290119539293 1.2581161708847128
1.8736249139743941 1.2637759618438877
1.7693684156642222 1.23892510251826
1.707025858131139 1.2402268823371183
1.645189150697423 1.23973894769322
1.6233021524298472 1.268262639170856
1.5620633825285115 1.2649339860101727
1.5014471085131968 1.2598637149856171
1.479230777236633 1.285875696821394
1.4194066166618227 1.2780394581454193
1.2871825148497402 1.2003171137099973
1.3020050386129582 1.2573316505307852
1.2798632739476512 1.279863273947651
1.222598732007835 1.2660380485960263
1.1662171957068723 1.2506148297687814
1.1107568065557047 1.2336204102924742
1.089057988124242 1.2528179031698015
1.0348880515953287 1.2333315534215548
1.0132058295902382 1.2512049979457232
0.9912149752743101 1.2686973133068224
0.9388314361171951 1.245871395673777
0.9169449935762581 1.262066511224918
0.8947792407076317 1.2778771890908274
0.872340929414365 1.2932986131858653
0.8224049428726911 1.26639255759759
0.8001780889921394 1.2805526251962032
0.7519555893686792 1.2514642590250837
0.7199999999999999 1.2470765814495917
0.7078220455596522 1.2769447724235177
0.6854284816674003 1.2891034855740333
0.6628261296197384 1.300869525315017
0.6181033169725989 1.2672996052818255
0.5958917490543861 1.2778939797216764
0.5531618345830885 1.2424218223939372
0.5313943347454123 1.251886600695319
0.49073463737484496 1.2146108494824914
0.48738041138160826 1.2696693800361945
0.4480463877566262 1.2309973332295399
0.4264942823388751 1.2386293340351051
0.4048122626311812 1.2458840363466512
0.36838834795064807 1.2049439925134249
0.36108493612026893 1.2592528216791978
0.3261119968291764 1.2170665411242259
0.30482158845558127 1.2225726151077556
0.2721907757560768 1.1789877783901346
0.25157314588948865 1.1835585968879048
0.23087888440561935 1.1877688919716733
0.2187967038603321 1.2408577687953823
0.18928570269867942 1.1951028921201168
0.1725746451904809 1.2279324052395473
0.1511179858223829 1.2307572280352392
0.12647944055386096 1.2033714933956106
0.10545844872466634 1.205395584691012
0.08649802744271556 1.236979422322182
0.062279787929103055 1.1883691463579429
0.04083241114192626 1.169287267612342
0.02041931553162155 1.1698218033329777
