# .PCD v0.7 - Point Cloud Data file format
VERSION 0.7
FIELDS x y
SIZE 4 4
TYPE F F
COUNT 1 1
WIDTH 180
HEIGHT 1
VIEWPOINT 0 0 0 1 0 0 0
POINTS 180
DATA ascii
6.674325055353075e-17 -1.09
0.019023123016639124 -1.0898339877204666
0.03804045140572618 -1.0893360014508144
0.05704619230480893 -1.0885061928824855
0.07603455638109675 -1.0873448147832085
0.09499975959494737 -1.0858522209200028
0.1118454556963892 -1.0641384280440525
0.1304001974435078 -1.0620243822562145
0.15587387307527334 -1.109100236990559
0.1673848775930471 -1.0568265244367974
0.18580355010361554 -1.0537442957230627
0.20416562505290306 -1.0503410862890006
0.23286109371589062 -1.0955253128218623
0.24069762814793572 -1.0425759693202017
0.2709525230716278 -1.086731213429116
0.2821127591617476 -1.0528591506550846
0.3004447178405291 -1.0477752485727676
0.3186851581477831 -1.0423721839997087
0.3368285238686927 -1.0366516027617174
0.37114769608115866 -1.077891176183221
0.372801956224979 -1.0242649566566402
0.4085394624816424 -1.0642816862068099
0.42705151649413986 -1.0569895942061374
0.43371155262309385 -1.021760387332209
0.45147767381413845 -1.0140354579832869
0.4902371836192113 -1.0513170329625139
0.486591972935876 -0.9976613913920753
0.5266289796978744 -1.0335675680585066
0.5445870128316334 -1.0242192077163552
0.562379159485751 -1.014558860281699
0.5849999999999999 -1.0132497224277932
0.6231960706411657 -1.0371724338495558
2.3104479920567735 -3.6974896992420176
2.292930337413264 -3.5308030910502346
2.242363542917695 -3.324440665945717
2.1853262224974856 -3.1209692887410587
2.151294023390452 -2.9610021994123077
2.1123707312636895 -2.8032106402659975
2.0994056308604954 -2.6871166697989217
2.05158447482247 -2.533495834349725
2.0633482270937913 -2.4590026624119194
2.0403435801604775 -2.347146794492821
2.0475396554581065 -2.2740231659608265
1.984615227781871 -2.1282392717117857
1.9867229395127322 -2.057311828968542
1.9516147160748711 -1.951614716074871
1.9494108589177448 -1.8825241839438824
1.9307737722746103 -1.800475670564996
1.8875878567125817 -1.6995917401514997
1.916962333765841 -1.6663899336358885
1.9074506633662554 -1.600541148119483
1.896236145955009 -1.5355417541616032
1.8833457011200656 -1.4714309260283231
1.868807093510665 -1.4082471541757928
1.8526489171186298 -1.3460282277497635
1.8349005792073418 -1.2848112174263433
1.8155922838955414 -1.2246324586009354
1.8366885438004785 -1.192759486682909
1.814822925774752 -1.1340272254590587
1.8343380235025204 -1.1021814803075156
1.8965956342879204 -1.095
1.9591481439922467 -1.085973549351795
1.9778026080039965 -1.0516163006403956
2.0404049403913627 -1.0396382444035621
2.2559730562109093 -1.1003115784405841
2.274832545461991 -1.0607718369691554
2.3386763715650587 -1.0412458062740484
2.4485429101834915 -1.039344801781468
2.5590274386043332 -1.0339141978279167
2.623360998457137 -1.007013938222294
2.7345055264869935 -0.9952786170776962
2.8460109125539437 -0.9799601449160416
2.957785765677927 -0.9610428525060863
2.9741077910450406 -0.9092760016877112
2.989523874368172 -0.8572321765908671
3.100621902387909 -0.8308091347790914
3.2116788539735484 -0.8007614744348999
3.3226019209176525 -0.7670830953125792
3.531112838649038 -0.7505612038521114
3.6418368505908334 -0.7079013728469814
3.8505983142777334 -0.6789643746776978
4.059399079846017 -0.642945651315349
4.268055376276168 -0.5998360651378819
4.476383143902362 -0.5496307387572149
4.7339242219529805 -0.4975554851540301
5.0407451723442325 -0.4410080583031498
5.346943309392659 -0.373894699268511
9.197378015089626 -0.4820141569975134
9.154419975494918 -0.31967938979490934
9.108612502874724 -0.158991422643653
9.11 0.0
9.058620118116906 0.15811880232178885
9.004511351442053 0.3144444652895342
9.696692782466913 0.5081821351189854
10.933301990847674 0.7645309522356144
12.512205408032324 1.0946761289105882
14.480238796562059 1.5219344251770366
16.337309656016163 2.0059693924487267
4.7631894106469534 0.6694226156179146
4.750780918262612 0.7524497768435104
5.032367617892383 0.8873421878780142
4.96703354824518 0.9654935166053169
14.14401430661083 3.0064030492248013
11.507310465113628 2.6566719518010466
8.64533492111913 2.1555240897930403
8.654695403550052 2.3190186441185876
4.67173184226023 1.3395975492706158
4.073858260402531 1.2455034621188583
4.051500759417354 1.3164123960372758
4.878875850092475 1.6799316769989285
2.4525977402512207 0.8926725740799955
2.1565707852085363 0.8278299634496438
1.956357933135921 0.7904199121075746
1.7581642700941609 0.7462964554145131
1.6078400054509776 0.7158564918134086
1.4591555371290066 0.6804154014025261
1.4740222359306336 0.7189286807340872
1.416700373459505 0.7218448945858794
1.4038866726456938 0.7464597848295667
1.3906453343516394 0.7708472961916759
1.4202816622064793 0.8199999999999997
1.405754373151464 0.8446624428524889
1.3907988776965388 0.869067593342456
1.3754197314304952 0.8932080174246445
1.3596216189902683 0.9170763616920247
1.384366954848396 0.9693441774332682
1.3672387204936611 0.9933570763742796
1.3896257874822893 1.0471581402845644
1.371138711275696 1.0712509670666455
1.3522339729351296 1.0950174804267168
1.3329173310270217 1.1184504408545786
1.3131946695876233 1.1415427104434825
1.3302292376045355 1.1977437853823565
1.3091231258983154 1.2207770645118723
1.323585232623118 1.2781714016445551
1.3010764773832475 1.3010764773832473
1.3129043201675046 1.359552222640051
1.288976900518122 1.382258496060232
1.2111263975095337 1.3450921341140833
1.1874668424728183 1.3660243402032173
1.1313061930483095 1.3482382198894014
1.0761378686952219 1.3289195940914202
1.0712509670666457 1.371138711275696
1.0291036895900023 1.365666722180871
1.0345020440347528 1.4238699100999075
1.009494527977841 1.4417075979486258
1.0400988004555891 1.5420098849523778
1.0130286051279507 1.5599272563784885
1.0121457946854213 1.6197718636587735
1.1794371915440243 1.962913118607837
1.1699999999999997 2.0264994448555864
1.1586949923887457 2.090341100063156
1.1220370350582787 2.110244746932836
1.1304363443514718 2.218606245229036
1.13538127018371 2.3278765799148426
1.0945812979084115 2.3473371684249233
1.081919470581629 2.430030917329318
1.0588813582059318 2.494568152856113
1.0526445274987133 2.6053866313326726
1.0249323356995583 2.6700400197819967
1.0123796242439798 2.7814901575262887
0.996238552638899 2.8932868413339095
0.976493702224834 3.005338591492685
0.9385131721599843 3.069738266641344
0.9261415155451171 3.2298392983527515
0.8955138960547225 3.342103358960176
0.8612419483348169 3.4542527855425473
0.8345684116157397 3.6149129403532227
0.8025391265565506 3.77564973883249
0.7651440714599451 3.9363250056251324
0.7310588279777762 4.146040640181396
0.6898759908274184 4.355705582024558
0.6346293403778974 4.515622393461561
0.5922850089490168 4.823774296976826
0.5289140241343275 5.032280790563463
0.4671547811274476 5.339603581771756
0.39830946507895637 5.696090726983596
0.27528712983788406 5.252791352809058
0.18008140298490558 5.156856667418534
0.030716235329618743 1.7597319434752487
