# .PCD v0.7 - Point Cloud Data file format
VERSION 0.7
FIELDS x y
SIZE 4 4
TYPE F F
COUNT 1 1
WIDTH 178
HEIGHT 1
VIEWPOINT 0 0 0 1 0 0 0
POINTS 178
DATA ascii
4.0168415012033185e-16 -6.56
0.13455805363145654 -7.708825729655777
0.34061908781641054 -9.754054471706375
0.6076204519805795 -11.594088898500601
1.3365340369374437 -19.113327202978233
2.001095853486231 -22.87263026818648
2.6194832894873956 -24.92271869792893
3.7426075359720796 -30.481092316905
4.280964585531614 -30.460645794490706
4.811924144637503 -30.38129335670644
2.910343457697754 -16.505377940484607
2.5015059293865036 -12.869132374998873
2.19554745503554 -10.329238663748987
2.116789421375771 -9.168822309629064
1.9136021941933714 -7.675039194843132
1.8013805539135443 -6.722843750971915
1.7117079796235648 -5.969435131776961
1.6402052634945534 -5.364869680952629
1.6099785406934761 -4.95500444989775
0.7846192522417478 -2.2786997671943534
0.7661251210494983 -2.104911470560435
0.802744206981473 -2.091220155353732
0.8391187692516434 -2.076891834229604
0.9025889068102223 -2.1263662114751374
1.0209089741202588 -2.2929990986829276
0.9973790977080507 -2.138886377406494
1.0257884834864412 -2.1031780683400503
1.0396382444035623 -2.0404049403913627
1.2957415132890586 -2.436935356290638
1.2895935898552568 -2.326488420990793
1.2799999999999998 -2.217025033688163
1.2669936642787334 -2.108631559727196
1.2241135003787034 -1.958991102121344
1.247223390184412 -1.9205556005950208
1.3085113941215476 -1.9399479197787972
1.3421688610614477 -1.9168157836362407
1.404806752979011 -1.9335506165561245
1.4383379053333953 -1.90873886901303
1.5022139997946065 -1.9227462388004013
1.5355417541616032 -1.896236145955009
1.568401767635156 -1.8691484412103063
1.6335869821863633 -1.8792268547547024
1.7330482704694428 -1.9247450979864509
1.7663757525618713 -1.894206087193651
1.7991651794888028 -1.8630900828771062
1.8667619023324857 -1.8667619023324853
1.9350240629109716 -1.8686310165347026
1.9673414573555688 -1.834575588568121
2.0362168218080607 -1.8334178614232715
2.105639728821534 -1.8304046908835154
2.1755662184578974 -1.8255168115097713
2.1837801516940885 -1.768390298850043
2.1355091422742167 -1.6684425981325337
2.1643022322281635 -1.6309187127420508
2.1924360547561075 -1.5928980337126022
2.2608596422376173 -1.583070964328887
2.329595578879667 -1.5713320587527986
2.4405313527211843 -1.5848995918937285
2.5102223646230213 -1.5685610221302866
2.8800821303590975 -1.7305279316977815
2.9964478970941575 -1.73
3.0699151720592788 -1.701681767064643
6.101167866655185 -3.2440484988505056
6.156855082141623 -3.1370743532002683
4.14344055343916 -2.0208909866976468
6.62510992323791 -3.089339493324512
6.815049114013803 -3.034255357345469
6.082326085958125 -2.457419252808382
6.030929555171923 -2.3150569540626402
5.976445068198378 -2.1752481115512534
6.013498140811655 -2.0706134623475165
5.953613792007661 -1.9344463847871707
5.986467772328602 -1.8302468715643319
6.017498216573876 -1.7254898474144142
5.950103089940661 -1.5943253178315275
5.928506887546339 -1.4781427821139692
5.904682592598525 -1.363203389323821
5.927574460446861 -1.2599448463556218
5.89957937252046 -1.1467620622130346
3.6043963760246815 -0.6355523302609651
5.8866225099470215 -0.932349411639776
5.753457479388524 -0.80859571657798
5.766693141036081 -0.7080608851839065
3.1924152841321574 -0.3355363670891674
5.738081461008454 -0.5020170782265104
3.6012062214379656 -0.2518208702162919
4.204230341316756 -0.22033437578279383
5.706521622279037 -0.19927612617128082
5.759122724100814 -0.10052586107875316
6.559000880225926 0.11448778622857998
3.8576485922937094 0.13471205727165392
6.501078271252275 0.3407070751415648
6.494141967191456 0.45411464407425634
4.343408883680011 0.37999903837979015
5.330637359173945 0.5602725631146234
5.3696746803795525 0.6593131478218477
5.3078368484548175 0.7459678211459506
4.010014662816259 0.6351239280633373
3.9983194772295643 0.7050116013277372
5.310603062451862 1.0322766649871078
5.340685900006578 1.1351978318649663
5.320060553727385 1.2282327567175033
8.30573141692253 2.070851426333157
4.404621767878151 1.1802148456674952
8.276463202028925 2.3732376335843623
8.233783948841735 2.517320377662763
4.194159236861627 1.362764945193518
3.602425773033397 1.240414668481767
3.48625962311572 1.268894731738231
8.178164536115487 3.1393032380168306
6.221403664143143 2.5136102418207704
4.3816031024336155 1.8598801716089437
5.490408200432031 2.44448722488556
5.175017463979271 2.4131502745393933
4.862475790478493 2.37158790412891
4.597593664811979 2.3425909786560615
4.335272680937331 2.3051053732787246
4.119458820626554 2.2834533113602475
3.8624733008785967 2.229999999999999
3.6943910660261032 2.2198141028623337
3.5278800800107324 2.2044641392101325
3.36306897746115 2.184002530410259
2.619758729273932 1.7670495749675599
2.5066052555243146 1.7551438952342016
2.3946903033498446 1.7398443467857205
2.2441657832328925 1.6911002150572563
1.8203048408315277 1.4221780080022708
1.7408069536636153 1.4096776759516356
1.6546559971369925 1.3884212369229252
1.6905494596990094 1.4695722249387362
1.5308783404834319 1.3784090490992482
1.1043440894449477 1.0298175236943727
1.0358493124876573 1.000308053460956
1.0182337649086284 1.0182337649086284
1.0003080534609559 1.0358493124876578
0.9957176056912478 1.0677764043639888
1.2646568460182421 1.4045437201522748
1.4039663220396856 1.6150785016767322
0.9706092906266746 1.1567271091096567
0.9188077709327626 1.1346331037271775
0.917335598235231 1.1741360228740156
0.8666136333389494 1.1500351344681017
0.8581664683470107 1.1811648117874232
0.8661004188900794 1.2369195868763778
1.0568745875597114 1.5668810121290289
1.0293677761784013 1.5850873734168511
0.9750514461890971 1.5604084969278238
0.9476700578344999 1.5771878332918865
0.8949999999999998 1.5501854727741453
0.8678092202409434 1.5655692757795183
0.7934069411081551 1.4921814319315865
0.7899434695468115 1.55035135208776
0.7846843527524483 1.608841342875509
0.777617601602887 1.667606328147436
0.7890690875670527 1.7722781878266454
0.7775549456936547 1.8318046583703564
0.7641974505684609 1.8914550633162461
0.7489890145496773 1.9511830913791515
0.7387635095834447 2.0297360608975623
0.9148465140246099 2.6569071974340805
1.857192136193434 5.715849662933873
1.640205263494552 5.36486968095263
1.5049799627608154 5.2484888598232216
1.5166796043007729 5.66032534205394
1.3934701186540857 5.58890338334974
1.2957180730206632 5.612371573162955
1.1975713391102931 5.6341301802267205
0.6411182244651908 3.298267336384151
0.9828486855948251 5.574011882049098
0.8854190721277071 5.59031600776848
0.7877197514339693 5.604917269077289
0.5496307387572151 4.476383143902362
0.4714233693371181 4.485293748110912
0.4627969939900647 5.289793846867169
0.3773825229557187 5.396821511905649
0.2936047145229144 5.60231168997316
0.22894069836840708 6.556003825245268
0.02809837436402624 1.60975478920179
