# .PCD v0.7 - Point Cloud Data file format
VERSION 0.7
FIELDS x y
SIZE 4 4
TYPE F F
COUNT 1 1
WIDTH 180
HEIGHT 1
VIEWPOINT 0 0 0 1 0 0 0
POINTS 180
DATA ascii
4.2250314570583685e-17 -0.69
0.011693112312980012 -0.6698979557547822
0.023382662790675725 -0.6695918541027942
0.03506509068277246 -0.6690817882855645
0.04673683740856406 -0.6683679136740822
0.05839434764093095 -0.6674504477214696
0.07212463965468088 -0.6862201078041085
0.08408984694955177 -0.6848568446325121
0.0890707846144419 -0.633771563994605
0.10793978087775932 -0.681504955010645
0.11981724259018198 -0.6795173495784235
0.131658206809816 -0.6773227565788881
0.143459066664254 -0.6749218445063258
0.15521622749726693 -0.6723153447018123
0.1669261079637707 -0.6695040511304375
0.1785851411207393 -0.6664888201394571
0.1901897755137294 -0.66327057019744
0.20173647625868835 -0.6598502816144944
0.21322172611871373 -0.6562289962436559
0.240920434298296 -0.6996837459434944
0.23599389889471148 -0.6483879083422767
0.2651922826635223 -0.6908495156079293
0.27720887912777503 -0.6861160523794226
0.30867759150652624 -0.7271988342274279
0.3009851158760923 -0.6760236386555245
0.3127375136881176 -0.6706677624071209
0.34631320596337123 -0.7100472965763419
0.35865249479424205 -0.7038951541088107
0.3708825346008538 -0.6975285983585523
0.3829995999946063 -0.6909495686401227
0.4199999999999999 -0.7274613391789285
0.43263198292444555 -0.7200205325897743
0.4451321819558921 -0.7123604007713977
0.45749678941262273 -0.704483277074156
0.4697220389154274 -0.6963915609462349
0.510483028352431 -0.7290453194172027
0.5231288745403011 -0.7200251249937032
0.5356153706053229 -0.7107856039420907
0.547938713039836 -0.7013295707099825
0.5600951480343553 -0.6916599056967041
0.6042203531053469 -0.7200817765318392
0.6166954872510768 -0.7094270054094056
0.6289827699773267 -0.6985561359487505
0.6751783764618736 -0.7240401646029786
0.7224447052773572 -0.7481133923521972
0.7353910524340095 -0.7353910524340094
0.7481133923521973 -0.7224447052773572
0.797175534764896 -0.7433782124681234
0.81002785977036 -0.7293523609311554
0.86036892145396 -0.7479072930491782
0.8732906651556349 -0.7327778750426547
0.8859463960609467 -0.7174252457968145
0.9771333344723353 -0.7634202294038162
0.9903080324586431 -0.7462506287085399
1.0031810730249349 -0.7288537128426666
1.0567061371327995 -0.7399136028928495
1.110910347223756 -0.7493184906508007
1.2076856178414106 -0.7842802104216388
1.2211892584652535 -0.7630837404958151
1.2771792780461473 -0.7674067316159805
1.3336791218280355 -0.77
1.3906453343516394 -0.7708472961916759
1.4921814319315865 -0.7934069411081555
1.5058010258783416 -0.767243944559834
1.6268172238014924 -0.7934517756882301
1.6857324838881689 -0.7860699668377009
1.8362263698616277 -0.8175406525823582
1.850214755439405 -0.78536956826344
2.0490763185926 -0.8278805714491653
2.1565707852085363 -0.8278299634496438
2.264659216094039 -0.8242685454148618
2.420527553534251 -0.8334544754103211
2.6249159849746238 -0.8528869044748547
2.7828468398524335 -0.8508016607431639
3.1337131287589193 -0.898577779963417
3.3903996502746296 -0.9084548483098476
4.084945007621945 -1.0184911804746006
4.521077100603491 -1.043772892155533
4.509260439382844 -0.9584728946698708
5.89957937252046 -1.1467620622130346
5.91869459560337 -1.0436255477782515
7.071848518661186 -1.120070769688053
14.91343711524805 -2.095946900458585
14.997372351300376 -1.8414457788517777
10.40269902555214 -1.0933677257796546
10.320577072230483 -0.9029334948657376
10.185128953152807 -0.7122135969275181
10.146076073106471 -0.53173331542831
10.453628050619743 -0.3650487355081607
12.108155588343898 -0.2113486419555036
10.26 0.0
10.308429737062394 0.17993431036839327
10.203780343864969 0.3563238613325354
10.1960075498442 0.5343501132404573
8.190000852633158 0.5727006494392696
7.2821832430506594 0.6371084794853821
6.524063633615873 0.6857067190358076
6.114084294110544 0.7507151553757082
5.852484286262681 0.8225130266739866
4.94831858638164 0.7837366698515567
4.884646454940552 0.8612949612279746
4.67254539321088 0.9082508179923535
3.97127925897925 0.8441214647201031
3.761068450071008 0.8683110697673192
3.5512823581701474 0.8854341378947843
3.342103358960176 0.8955138960547223
3.2298392983527515 0.9261415155451169
3.0219230288431924 0.9238945869238481
2.8626801140484117 0.9301411530685916
2.704183126214046 0.9311249217474681
2.5935516333691067 0.9439755955788457
2.4833239344825566 0.953258745790499
2.3735906676909755 0.9589928791447351
2.264441939493003 0.9611985760836137
2.155967280036538 0.9598984776588887
2.0935709880546614 0.9762481846210156
2.031274544636117 0.9907187917433152
1.9513042879725258 0.9942391944296075
1.845360469075157 0.981195566222512
1.7842242025643673 0.9890116253025276
1.723390553531033 0.9949999999999997
1.7057629283972033 1.024925769071008
1.602810901735645 1.0015474094007573
1.54315384501958 1.0021358244276501
1.5254291335012768 1.028914942386174
1.4253245570628454 0.9980229992508205
1.4076895702124086 1.0227463389889033
1.3496940119799246 1.017067389126962
1.2923376359150238 1.0096848195340795
1.2745193767894323 1.032085441321733
1.2333315534215548 1.0348880515953285
1.215082424158663 1.0562550366747165
1.2187575137829263 1.0973741944285276
1.1774794596068647 1.0980173597006226
1.1797172725553875 1.1392397275527557
1.159655121145938 1.1596551211459378
1.0697738905068557 1.107783292521523
1.0502774744962478 1.1262847004935226
0.9970046034746989 1.1072857899613173
0.9775279531958558 1.1245172745319303
0.9577535384329439 1.1414062202472772
0.9062213631117658 1.119090184498038
0.8865525244689481 1.1347354851936795
0.8365228821813468 1.1101033589657372
0.8170215006865376 1.1245336221811768
0.7972712465279538 1.1386213415616986
0.777278135824338 1.1523622258515078
0.7298163069201364 1.123818561046868
0.7100918140724947 1.1363844488496109
0.66439911663397 1.105745817905725
0.6449999999999999 1.117172770881926
0.6254044101177749 1.1282594222098206
0.6056183159937989 1.139002394788016
0.5856477446640155 1.1493984162029947
0.5435802220184558 1.1145046174109672
0.5451775576455022 1.1691370452772785
0.5043534374139924 1.1327963674768249
0.4845065993266994 1.141426018281026
0.4757503736382085 1.17752349529982
0.4443762574361722 1.15763972885653
0.4241049777238293 1.1652188497745264
0.39719314843773096 1.1535326622311666
0.3831810730249348 1.1793100802059904
0.3625409138561933 1.185817897394164
0.336277574096739 1.1727392690447491
0.2898773305148235 1.0818369254437565
0.2709525230716278 1.086731213429116
0.24069762814793572 1.0425759693202017
0.22662374299135757 1.0661808847998482
0.21370607482173032 1.0994224454613837
0.18580355010361535 1.0537442957230627
0.16269184364184017 1.0271958742189433
0.1558738730752731 1.109100236990559
0.1364936646137652 1.1116516898382807
0.11707187885977213 1.1138645228124662
0.09325664473999422 1.0659283269581679
0.07812725059342052 1.1172717362910032
0.058616270992097 1.1184650789251227
0.03908743630680121 1.1193177262613874
0.019546695209757384 1.1198294185751583
