# .PCD v0.7 - Point Cloud Data file format
VERSION 0.7
FIELDS x y
SIZE 4 4
TYPE F F
COUNT 1 1
WIDTH 178
HEIGHT 1
VIEWPOINT 0 0 0 1 0 0 0
POINTS 178
DATA ascii
4.531193156845207e-17 -0.74
0.01256573263484419 -0.7198903405126017
0.025127637625800777 -0.719561395453749
0.03768188849491966 -0.7190132650232931
0.051619790570652836 -0.7381973971922698
0.06275213477831386 -0.7172601826260567
0.07735106281806356 -0.7359462025725222
0.08408984694955177 -0.6848568446325121
0.10298809471044844 -0.7327983708687621
0.11576150412977088 -0.7308893720404019
0.11981724259018198 -0.6795173495784235
0.14119865657864322 -0.7264041157512713
0.153854651205142 -0.7238292245430161
0.1664637802144602 -0.7210338479410741
0.17902220274375408 -0.7180188374442373
0.19152609337586535 -0.7147851114539105
0.20397164330457937 -0.711333654994356
0.2163550614948252 -0.7076655194126462
0.2441234255562085 -0.7513346478731713
0.25719884202115384 -0.7469596747234603
0.2701959132272784 -0.7423571704208676
0.28311068014078733 -0.7375285369327894
0.29593920879857066 -0.732475245107762
0.30867759150652624 -0.7271988342274279
0.3213219480298823 -0.7217009115376546
0.3549993398621875 -0.7612985411107859
0.34631320596337123 -0.7100472965763419
0.38135201978121935 -0.748445480318229
0.3943561127401483 -0.7416759780014985
0.40724008100692316 -0.7346805539970924
0.4199999999999999 -0.7274613391789285
0.4583838866699483 -0.7628788976248799
0.4451321819558921 -0.7123604007713977
0.4847287411633741 -0.7464168054714273
0.49768168408896474 -0.737843439573987
0.510483028352431 -0.7290453194172027
0.5525181371549247 -0.7604759747124505
0.5657061217629253 -0.7507173794444553
0.5787217868061189 -0.7407301083903185
0.5915611675868471 -0.7305172037695526
0.6042203531053469 -0.7200817765318392
0.6494984387006022 -0.7471624844205443
0.6958958306132126 -0.7728706184964901
0.7092782944649986 -0.7606078496839372
0.7224447052773572 -0.7481133923521972
0.7707463914933369 -0.7707463914933368
0.7840803823691298 -0.7571776238003071
0.8337432198458544 -0.7774781304712481
0.8471851010442295 -0.7628088912490982
0.8981044004650987 -0.7807102444987036
0.9115928873115838 -0.7649172555269816
0.9248036941337954 -0.7488912653493065
0.9771333344723353 -0.7634202294038162
1.0302398079610078 -0.7763413798661423
1.0436319227436823 -0.7582429754572904
1.097663739347249 -0.7685924247104018
1.110910347223756 -0.7493184906508007
1.1657520894441393 -0.7570482586708874
1.2635916632730748 -0.7895797037074753
1.320037643081253 -0.7931586353614832
1.3336791218280355 -0.77
1.434376319708609 -0.7950877772039927
1.4921814319315865 -0.7934069411081555
1.55035135208776 -0.7899434695468114
1.608841342875509 -0.7846843527524485
1.7129217174992684 -0.7987485146899218
1.790549096979498 -0.7972038204285683
1.850214755439405 -0.78536956826344
1.9563579331359213 -0.7904199121075741
2.063212742558816 -0.7919931684951137
2.1706899540154483 -0.7900665310822949
2.325975695974319 -0.8008976599646055
2.482257507530351 -0.8065343553186126
2.6394011264579778 -0.8069459050347533
2.8933977047743396 -0.8296684410091673
3.100621902387909 -0.8308091347790914
3.308708426601148 -0.8249536639948666
3.6149129403532227 -0.8345684116157387
4.460353059346153 -0.9480773101289828
4.525301315693731 -0.8796294686858719
4.933886842591162 -0.869977370111321
5.936006926976778 -0.9401711348917875
6.347618320633466 -0.8920995771540193
7.454021598826329 -0.9152387689726572
12.143112342446617 -1.276292536498048
12.2133469986048 -1.068529406086288
17.71673753261448 -1.2388749736956632
24.72606728052325 -1.2958382765752912
35.1385814779914 -1.2270663040599357
40.95376159360579 -0.7148505676711336
40.96 0.0
27.155863400447586 0.4740073588366208
13.801587321133713 0.4819620494615391
13.341690584321105 0.6992083754057306
12.230135256185445 0.8552143681029774
12.263156733509389 1.0728871932236737
8.214750855741936 0.8634051065908188
8.19843121255732 1.0066407765265177
7.238859582500879 1.017355368018078
5.73846925885775 0.9088842418837413
5.672492657350318 1.000213503361519
4.770708111555647 0.9273317175300081
4.558167819419534 0.9688684792107588
4.443127495420672 1.0257768078080247
4.376033725504744 1.091067749154502
3.583584815532443 0.9602186573303525
3.566280891931163 1.0226145900810666
3.50007540682471 1.0700804392852163
3.157367205840652 1.149187681574247
2.9967931690560174 1.150361118040414
2.8835417877027085 1.1650265055234867
2.678669123546601 1.137027583903787
2.384353644447188 1.0615826384278388
2.365463324165656 1.1030336631432254
2.3907921631557842 1.1660672504589464
2.280976701922222 1.1622156793332399
2.1720510784329603 1.1549000444532918
2.0641025088489737 1.1441507037813554
1.9572174125528312 1.1299999999999994
1.894339734551668 1.13823414555122
1.8317838876978805 1.1446256107437227
1.7276613699675734 1.121956412130956
1.707817399463386 1.1519373811497384
1.6055380068064238 1.1242098152480506
1.5452224592561496 1.1226698318786237
1.525393824190329 1.1494666942204126
1.465700001708503 1.1451303441057246
1.4066341902371176 1.1390699078002056
1.3482382198894014 1.1313061930483093
1.3282888611920787 1.1546638910232927
1.270777651566344 1.1442133368736478
1.140911774525906 1.0639174416974977
1.0502361084944305 1.014201220870136
1.0182337649086284 1.0182337649086284
1.0003080534609559 1.0358493124876578
0.9820776384899977 1.0531493303316055
0.930091542838813 1.0329713074135778
0.8922402794270899 1.02640502910297
0.8420517686893667 1.0035182204858613
0.8558757318277789 1.0569185075814804
0.8557694507026651 1.0953349475133434
0.8786499338019903 1.1660078446690476
0.9169449935762581 1.262066511224918
0.8947792407076317 1.2778771890908274
0.9282602197614397 1.3762023704413693
0.8496368946234425 1.3083260859948613
0.8266740522037996 1.3229550300040245
0.8034593968596847 1.337180989095295
0.7549999999999998 1.3076983597145024
0.7563030075842859 1.3644067431374574
0.7089020598066949 1.3332508652169797
0.6628261296197384 1.300869525315017
0.6400218743120527 1.3122393075967838
0.6170226621414212 1.323209369073509
0.5938354988906686 1.3337763681581971
0.5704674475943396 1.3439370860405628
0.5281952967164362 1.30732923493917
0.5052988088588732 1.3163484013610545
0.482248402089193 1.3249665953081307
0.4427726900617329 1.285905262815071
0.4202631123499286 1.293436862161409
0.3976255184229217 1.3005744681097284
0.36108493612026893 1.2592528216791978
0.33905294908430245 1.2653628324386794
0.3169176832355647 1.2710874014215554
0.29468588119046335 1.2764247848686583
0.2723643149712646 1.2813733569612855
0.24995978394327384 1.2859316103164398
0.2448439305103716 1.3885789317472135
0.22057259570672558 1.3926405602391443
0.18231676225768548 1.2972511700514573
0.14746190552022845 1.2009808434859996
0.13170586371724363 1.2530975881640243
0.10981623586204925 1.2552053195955994
0.08789315691759808 1.2569307033273784
0.06070970924181474 1.1584102603153055
0.038738441339776206 1.1093238179911964
0.01902312301663888 1.0898339877204666
