# .PCD v0.7 - Point Cloud Data file format
VERSION 0.7
FIELDS x y
SIZE 4 4
TYPE F F
COUNT 1 1
WIDTH 174
HEIGHT 1
VIEWPOINT 0 0 0 1 0 0 0
POINTS 174
DATA ascii
1.751244922780715e-16 -2.86
0.04729602144503855 -2.70958725387382
0.09632261089890297 -2.758318682572704
0.31192229920794606 -5.95183202713726
0.4366755256382253 -6.244750954626499
0.5717416724246374 -6.5350372194818505
0.727518104342868 -6.921872391763182
0.8847714331213707 -7.205885060915997
1.0730246084021047 -7.634966809997508
1.2765052347282844 -8.059536859256324
1.5124756274789641 -8.577675528736332
1.7764317469556332 -9.138949077897752
2.101987194167548 -9.889072243418774
2.454216002891569 -10.630377406806916
2.8933858713720255 -11.604736886260918
3.431940538059425 -12.808176456593046
4.082189239649757 -14.236285716846503
4.3738807026521425 -14.306319149207011
4.684697634724204 -14.418016787034528
7.865726611684908 -22.843728786479492
8.21190364124931 -22.56201982506966
9.356987162627792 -24.37578493584194
16.786121450967027 -41.547108523137744
13.34737534919359 -31.44444579393536
13.93479739177692 -31.2980673788355
10.525291234405751 -21.580045051642998
6.678200251168735 -13.106705970810893
6.671190907187509 -12.546685294525352
7.058828070786668 -12.734462935949603
6.504999999999998 -11.266990503235547
5.696321108505201 -9.480270345765362
5.17201201891608 -8.276949418486717
4.743805994980886 -7.304820646804643
4.3952562212800705 -6.516235320282627
4.135486106091042 -5.90608623932363
3.8852605176532475 -5.347602332818403
3.646999040301412 -4.839731190886594
3.4538608765769436 -4.42074032773371
3.3416912764746365 -4.126645055336515
3.1882265440452353 -3.799580437870131
3.057235075095764 -3.516946643838118
2.950865974042565 -3.277268680355309
2.8712130958631192 -3.078999083816707
2.7855800655405787 -2.8845525993579906
2.6587214972614186 -2.658721497261418
2.5968166792225307 -2.50771671735698
2.5670514926832886 -2.3938142438193695
2.496966613604045 -2.2482788373657634
2.422617752515098 -2.1059494830595282
2.344095995944073 -1.96693008564081
2.339209343985482 -1.8942543770600104
2.253710755315225 -1.7607918194313823
2.244165783232893 -1.6911002150572556
2.1519852050373602 -1.5635087710979787
2.097029233379819 -1.4683556770586779
2.0808843071131546 -1.4035741877115744
2.0463561857868346 -1.3289192454366658
2.0268349498138583 -1.2665070415173598
1.6629045633620978 -0.9991738653255048
1.636788013152589 -0.945
1.5830616699223063 -0.8775054126458701
1.5804761912174794 -0.8403540973867446
1.5949016782971785 -0.8126429945337887
1.608841342875509 -0.7846843527524485
1.6404170945363363 -0.764939053750666
1.817955460708776 -0.8094059197208423
1.7857794156977342 -0.7580183892691909
1.7987366778595675 -0.7267367912268691
1.7644670060797112 -0.6773154246406176
1.7760190532853666 -0.646418070885514
1.739754179102743 -0.5990454042011684
1.702391164168325 -0.5531404199311558
1.6926594180545729 -0.517497917359244
1.7014332018108245 -0.4878781197960884
1.6903701960058695 -0.4529333289294112
1.7174234355085138 -0.4282017552114117
1.6954039127263094 -0.3914148345583249
1.7997915853502024 -0.3825575111046773
1.8552753767160848 -0.36062900126166975
1.9105270408436834 -0.3368774646738449
1.9654997977843243 -0.31130458543005946
2.0201468602328037 -0.28391312595853346
2.074421456930363 -0.2547069277167581
2.128276856088105 -0.22369091139277827
2.23147612372551 -0.1952288637547541
2.2844216750949977 -0.15974232487404666
2.386724588063432 -0.12508293542063595
2.408531893116021 -0.08410778705302746
2.509617714842542 -0.043805540157581674
2.61 0.0
2.70958725387382 0.04729602144503838
2.8082882239236593 0.09806758573402787
2.9559434228735384 0.15491443047911396
3.102424196308053 0.21694263334422997
3.24759471577909 0.284127721357366
3.3913196632058122 0.3564420597426988
3.583091607425173 0.43994832969258224
3.7234079384683043 0.5232908596098459
4.010014662816259 0.6351239280633373
4.244521415482616 0.7484236457444697
4.574382674866114 0.8891699184546991
4.851612099639675 1.0312419864560867
5.271342050488123 1.2169852040003102
5.685932955977339 1.4176623082140536
6.722843750971915 1.8013805539135455
6.8826337429183635 1.9735634676497136
8.5684906134288 2.6196504743157214
8.473913560189818 2.7533414198807815
10.017123337577782 3.645934727851629
13.032782753900937 5.002816575652393
22.745674928809798 9.654966184969958
18.554108244721224 8.260821220869504
18.126155740732997 8.452365234813987
12.277526672446621 5.9881498651388
6.112304755932204 3.114374828213291
6.057020487012239 3.220574920711212
6.0436221763332245 3.350034475902189
5.94093426996125 3.429999999999999
5.923026047851596 3.558913097628475
5.902414749248726 3.688238079063106
4.117872488612032 2.6741776619237836
3.6560556949677343 2.4660407043059935
3.4895877086711042 2.443435618855457
3.486863245756023 2.533354437380559
3.7229759935582334 3.1239477830765816
1.8943210463591575 1.6467081627661728
1.79097902940052 1.6126047613248486
1.689427050740284 1.5754162117443715
1.5537739687314862 1.5004620801914343
1.4212846301849604 1.4212846301849602
1.3267974875766846 1.3739390186468239
1.2685169497162472 1.360317885011657
1.2111263975095337 1.3450921341140833
1.1415427104434825 1.3131946695876233
1.0348880515953287 1.2333315534215548
1.0006194217692415 1.2356620787165837
0.948118672001514 1.2135365605543518
0.8967043844965518 1.1899669099704664
0.9051892885304087 1.2458861713374192
0.8546288901630584 1.220536545990598
0.8611570713449501 1.2767178617347643
0.8659760656738933 1.3334862030332242
0.8425716301307958 1.3483964728887174
0.8189105391069863 1.3628960081163586
0.7949999999999998 1.3769803920172576
0.7950877772039928 1.434376319708609
0.7934069411081551 1.4921814319315865
0.7672439445598341 1.5058010258783416
0.7627657954129944 1.5639016405605506
0.735355775428817 1.576975549443771
0.7077217589518926 1.5895690962981253
0.6798721635713363 1.6016784450072463
0.6892761318852785 1.7060182924028888
0.6593970271633524 1.7177879847548512
0.6464180708855141 1.7760190532853666
0.6153238119240259 1.7870301078827087
0.6149438188061455 1.8926024674273556
0.5818196923982457 1.9030464643664406
0.5485183380758283 1.9129107749172547
0.5409318042642688 2.0187849769441524
0.5177128565832888 2.0764328542306325
0.4926428090130647 2.1338704418796652
0.4553266028908927 2.1421432456070346
0.42741214964346064 2.1988448909227674
0.4063367357406167 2.304450142048567
0.35354189099092187 2.2321756497450114
0.31453120816974744 2.2380058353559487
0.26933124892537597 2.1935269951273217
0.22578148065813197 2.1481672939954706
0.1882564043349416 2.1517805478781704
0.1471861596001047 2.104860146048229
0.1104288676726113 2.1071083183321506
0.07363793804227728 2.108714645010292
0.0376971979045321 2.159671021537805
