# .PCD v0.7 - Point Cloud Data file format
VERSION 0.7
FIELDS x y
SIZE 4 4
TYPE F F
COUNT 1 1
WIDTH 174
HEIGHT 1
VIEWPOINT 0 0 0 1 0 0 0
POINTS 174
DATA ascii
8.584774062022946e-16 -14.02
0.2691161072629131 -15.417651459311553
0.810366313432075 -23.2058550033834
1.2230912973976005 -23.33797222721439
2.47426212370413 -35.38359686271596
3.6709998845313607 -41.95972068362432
4.585663683551957 -43.629675549806144
5.34640809518382 -43.54299967250479
6.112482594166075 -43.492573579129775
3.6402300014861737 -22.983507685648856
2.660290081857374 -15.087254776147027
2.179038727200143 -11.210182434972323
1.87536345117619 -8.822891358618925
1.6916319286658659 -7.327262887184968
1.5652346645298498 -6.277813349005697
1.4545630334761666 -5.428503143744564
1.3699176584104857 -4.777470628813445
1.3361386905829071 -4.370312734751073
1.2731500168247836 -3.9183528471360325
1.227391942303481 -3.564605030009424
1.186809897340071 -3.260733394127102
1.1539447975358672 -3.00612897332099
1.1125815824452592 -2.7537360480633586
1.1018617823397518 -2.5958236867358817
1.085986837012387 -2.439166371905744
1.0649980195865627 -2.283895623332358
1.0608581752295674 -2.175081592043984
1.007858909421794 -1.978034483698177
1.0187532912453832 -1.9159962765038712
1.0035559139099177 -1.8104627937785491
0.9999999999999998 -1.7320508075688774
0.9785723423291031 -1.6286178713340131
0.9803506388314291 -1.5688889778893882
0.9531183112762974 -1.467673493904492
0.9785875810738071 -1.450815751971323
0.9464011199792259 -1.3516008730768363
0.940456403667957 -1.294427190999916
0.9328132858856748 -1.237885040573304
0.9234922129884876 -1.182016130410083
0.9125145670222642 -1.1268616441126078
0.8999026535611551 -1.0724622203665692
0.9184826405867101 -1.0565934123118808
0.8698697882665157 -0.9660882731206125
0.8865978680812482 -0.9507598121049214
0.8683229630737466 -0.8991747504233139
0.8838834764831844 -0.8838834764831843
0.8847879544165409 -0.8544297956645666
0.8995650529915797 -0.8388579828768731
0.8769108940633253 -0.7895741155034526
0.890557304662871 -0.7741496542087986
0.9422346650363429 -0.7906287599144433
0.9558895325920742 -0.7740640809913
0.9850134420084025 -0.7695768441570727
0.998294387559116 -0.7522687789400604
1.0517220926874318 -0.7641208279802151
1.0648976575756894 -0.7456493672563599
1.0114258385171508 -0.6822153422343111
0.981244564496146 -0.6372276709675815
1.0346186773108397 -0.64650150236451
1.0886024718916827 -0.6540983551357686
1.099852262806237 -0.635
1.1107670280670325 -0.6157082177128481
1.342080341145569 -0.713596775434554
1.443430569185156 -0.7354646095780659
1.4560463550046507 -0.7101612577983054
1.5135340043512053 -0.705772497106968
1.5712981871452736 -0.6995870260903763
1.6292935906108195 -0.6915940974260144
1.6874746153115532 -0.6817840000169597
1.7457953975497673 -0.6701480656497116
1.8511944629482393 -0.6737796823515675
1.90994752271062 -0.6576476720034565
1.7784756854719372 -0.5778617794811517
1.6926594180545729 -0.517497917359244
1.8456224562015722 -0.5292237231686383
1.9028738777894645 -0.5098735188519657
2.348115657587911 -0.5854509873511956
2.455412563258793 -0.5668766569465394
2.611654093959261 -0.5551242144834175
2.7681886573224124 -0.5380813669618565
2.924879026446258 -0.5157350876707832
3.7729694610734263 -0.5975796564536819
3.8818508294669556 -0.5455585557634564
3.870929991401156 -0.47529043928007497
3.8786353919362657 -0.4076610067438482
4.0545124212334045 -0.35472387298296837
4.508989507174405 -0.31529926132344577
4.863325834254774 -0.25487610690313683
5.366728741092544 -0.18741029729243047
6.019083124841475 -0.10506348675244688
6.77 0.0
7.718824206607341 0.1347325776958289
9.014505259712243 0.3147934602565592
10.855103042782217 0.5688918443608002
13.487065959512822 0.9431075250205754
21.13925149350684 1.849444861105309
21.054028524946347 2.212867567376227
18.778973189053815 2.30576797722539
18.735871860590514 2.6331550701644377
18.78583223811952 2.975383525065191
1.8908308857834393 0.3334045011205063
1.7963777457092251 0.3491804615390771
1.8682619174015687 0.39711132946192046
1.9682275308661752 0.4544011297746075
1.911482580763713 0.47658613433134567
1.9028738777894643 0.5098735188519662
2.037874795389236 0.5843511943320382
1.9795508448434835 0.605209428776065
2.0162398145457257 0.6551160280748886
2.0517753090505173 0.70648289517203
2.1331022491840117 0.7763857253492681
2.119227568148648 0.8134952454678317
3.7004295108788097 1.5707391365268808
3.307034556666215 1.4723866479343972
3.0289359360281924 1.4773107646791914
2.7106491100769055 1.441277697752685
1.882666773467266 1.1764207665977149
1.7360480756470273 1.1274028024811062
1.6580751451100835 1.1183858069414936
1.6546871294637633 1.1586244014291134
1.6342143286373938 1.1873262096307957
1.6931072813002606 1.2758478490823428
1.6311822599659143 1.2744192539241126
1.4921202459973844 1.2082951508156876
1.4708053307884377 1.2341522105981555
1.4113069150165838 1.2268303842122485
1.3525235823688573 1.2178177035731221
1.2944960518659319 1.2071370973106224
1.2732314465994121 1.2295453157124254
1.2515790027001892 1.251579002700189
1.194812397189475 1.2372644565824802
1.1048373433012475 1.1847929966230561
1.0839915823013506 1.2038946172733787
1.0300126755150965 1.1848940409497521
1.009176547207867 1.2026897756967956
0.9565669943957529 1.1812618614145958
0.9050223687287179 1.158375807801881
0.7643050794031012 1.014267097760062
0.7758765330260646 1.0679024325749307
0.7284420741658284 1.0403230962470198
0.6822153422343111 1.0114258385171508
0.6644596227183331 1.023178092893417
0.64650150236451 1.0346186773108397
0.6283464513902662 1.045744106856577
0.6099999999999999 1.0565509926170151
0.6157082177128481 1.1107670280670325
0.5962288847380811 1.1213434429308373
0.6219669846431792 1.220678938138064
0.6882427004588513 1.4111066526896923
0.6635106709328982 1.4229032256475405
0.6792501939365866 1.5256209142631432
0.6525209845770871 1.5372431052655753
0.6068626813337777 1.5020378443981957
0.5733887192724803 1.493728682395523
0.5369716250213 1.4753174146338761
0.5274204102205936 1.5317400924708935
0.5315092303249096 1.635817208027664
0.48826074688697 1.5970289424582693
0.4603143842143886 1.6053070322169924
0.44516875757633606 1.6613924212171973
0.4161056604314284 1.6689086491947138
0.36442070803706156 1.5784795049520812
0.3472125236656579 1.6335064932254555
0.3091105725100028 1.5902360371852158
0.28131004782042696 1.5953885598797772
0.24560211011316258 1.5506706947343663
0.2254604235553057 1.604234271361344
0.19133486914608155 1.5582974580768756
0.16410968733021628 1.5613993757281892
0.13683451611382327 1.5640256760040405
0.10951766377827697 1.566175558907924
0.0795506534892745 1.5179168928269522
0.053047234987801645 1.5190740570690255
0.02652765778467073 1.5197684966377147
