# .PCD v0.7 - Point Cloud Data file format
VERSION 0.7
FIELDS x y
SIZE 4 4
TYPE F F
COUNT 1 1
WIDTH 178
HEIGHT 1
VIEWPOINT 0 0 0 1 0 0 0
POINTS 178
DATA ascii
2.3329521523757077e-16 -3.81
0.0673662888479147 -3.8594121033036703
0.13820200694190427 -3.957587674995619
0.2124839823463525 -4.054435911103569
0.2901869307755619 -4.149866449080869
0.37128346410502366 -4.243789413870836
0.45051767668358633 -4.286389369037257
0.5374438044167005 -4.37712852873823
0.6207120302818919 -4.416595586587404
0.713341160583453 -4.503858833113828
0.8178829168112423 -4.6384445166875
0.9177912677611809 -4.721626752383263
1.020846401915199 -4.8027047196029855
1.1382523349799576 -4.93031252781329
0.6798005266350662 -2.72653099083555
0.6496358032073271 -2.4244738239855614
0.6780678953098179 -2.3647037720082644
0.7046158083817956 -2.3046944618709158
0.7601818061623707 -2.339599030086078
0.7846192522417478 -2.2786997671943534
0.8413695525811453 -2.3116438471333343
0.863666758404174 -2.2499288278582563
0.9215322198031439 -2.280872282234297
1.0588813582059318 -2.494568152856113
1.1225931348892089 -2.5213854630935777
1.2086882285784004 -2.592040270924819
1.4510084958718463 -2.9750082932502426
1.5708071290988321 -3.082882573691753
2.4928939983930802 -4.688451718080901
2.57433908350805 -4.644230644910191
0.47999999999999987 -0.8313843876330611
1.473008894242755 -2.451498480008041
0.5087224936638767 -0.8141261723101689
0.2777659078576638 -0.42772198965216623
0.3131480259436183 -0.46426104063082335
0.5219545570794519 -0.7454283603029825
0.4761060543569033 -0.6553037654437075
0.45737941759555667 -0.6069629876359426
0.43711964748121745 -0.5594876350607725
0.4153514580928927 -0.5129163345616008
0.424239822393116 -0.5055893324585256
0.40019600768420943 -0.4603728439358909
0.37471313956096064 -0.4161611022673408
0.3682791144337493 -0.394930998874352
0.30564968300195877 -0.31650951214900647
0.29698484809834996 -0.2969848480983499
0.3021227161422335 -0.2917565155927788
0.4314986839553106 -0.40237903243687406
0.45331834354121053 -0.40816966987890346
0.4603728439358909 -0.40019600768420943
0.4672871103025766 -0.39210044190878895
0.5517736326344493 -0.44681747764538454
0.5594876350607726 -0.4371196474812173
0.6069629876359426 -0.45737941759555667
0.5744020660062127 -0.4173275291276559
0.6635131558740834 -0.46459691344434734
0.6715204337695838 -0.45294625181130493
0.7631902168303359 -0.4956215218636746
1.7045766732744163 -1.0651377211087418
1.6371895443410345 -0.9837227230782032
1.437602170282168 -0.83
1.4518687138513968 -0.8047839696089195
1.3773982448599262 -0.7323756379459897
1.389970177733854 -0.708225179593693
1.3571790099117422 -0.6619404316515068
1.323209369073509 -0.6170226621414211
1.2880990952760674 -0.5734986667368782
1.2979118433679409 -0.5509308911698758
1.260970042210831 -0.5094649670456403
1.3163484013610545 -0.5052988088588735
1.3249665953081307 -0.48224840208919295
1.3331811915950367 -0.4590510977845909
1.436095339605682 -0.46661566150617056
1.34838970590788 -0.4122441036590587
1.3553789912730296 -0.3886486717019687
1.1204739584953192 -0.30023009231892395
0.7665336237580372 -0.19111829752373743
0.7405212492367788 -0.17096280130133729
0.6944847965210019 -0.14761730048060917
0.598792581903075 -0.11639348717969236
0.5514923416868366 -0.09724297949348101
0.8000275558820616 -0.12671191668258702
0.802117135680672 -0.112730211777653
0.853589690411537 -0.1048076353284268
0.855288830016715 -0.08989447841018192
0.8567274403589011 -0.07495393876298594
0.8579050832234489 -0.059990567419947655
0.9087528766266623 -0.047625720181078954
0.9094456525873772 -0.03175854199927593
0.9098614025923161 -0.015881689857928018
0.71 0.0
0.7098918635610377 0.01239120857047131
0.709567487183558 0.02477864265877572
0.7090269696757474 0.03715852893249017
0.658392273171484 0.04603927267112277
0.6076787658359648 0.053165003076071554
0.6563844509430604 0.06898878575665139
0.6550804600832726 0.0804337666473973
0.5842581605575264 0.08211212956643858
0.651874304792791 0.10324674692655238
0.6302769619278131 0.11113483370683543
0.598792581903075 0.11639348717969236
0.5966700364476214 0.12682613139883323
0.5943657395189935 0.1372201431497577
0.6889099656559574 0.17176454587576415
0.666488820139457 0.17858514112073942
0.6344327193192905 0.18192065483921943
0.726791614531907 0.2222024955892799
0.7228029523843167 0.23485291572496003
0.8131459750154125 0.27998861283315474
0.8551202849151766 0.31123833042635857
0.8495581881124536 0.3261148340862233
0.8437373076557765 0.34089200000848
0.7916341739690986 0.3360287705007755
0.7856490935726367 0.34979351304518824
0.7794246968515189 0.3634517050970015
0.6830834751873669 0.33316207155969896
0.6771649583831596 0.3450327798020556
0.6268927909298381 0.33332480957798255
0.6209799920689709 0.3442148303748993
0.5715767664977296 0.3299999999999999
0.6085887834984997 0.36567703318613853
0.5597117434632413 0.34974671439391525
0.595456103241251 0.3866937148606693
0.5886166765140796 0.3970269614642302
0.5406403492307346 0.37856044799169053
0.49350036656871793 0.3585490038984086
0.4871676611288486 0.3671071641227496
0.4806865597001003 0.37555349994865156
0.5129163345616009 0.41535145809289264
0.4672871103025766 0.392100441908789
0.49810832294702956 0.43299895913373476
0.4533183435412104 0.4081696698789036
0.44612575798769405 0.41601899963812405
0.4387972782065771 0.4237416059799884
0.41719300090006306 0.417193000900063
0.4237416059799882 0.43879727820657727
0.41601899963812405 0.446125757987694
0.4416262001968465 0.49047558481508013
0.40019600768420943 0.4603728439358909
0.39210044190878907 0.4672871103025766
0.3838854385404008 0.47405903648875225
0.4063365737149346 0.5200870973804365
0.3971979152803518 0.5270994366312134
0.3879382665130323 0.5339512162874653
0.37856044799169036 0.5406403492307347
0.3690673162906929 0.5471647978863275
0.35946176310991795 0.5535225748439798
0.34974671439391525 0.5597117434632412
0.36567703318613853 0.6085887834984997
0.3549999999999999 0.6148780366869514
0.3684553113872162 0.6647109774259408
0.3567983877172769 0.6710401705727845
0.3450327798020556 0.6771649583831596
0.3331620715596987 0.683083475187367
0.3845826181840365 0.8247400862033515
0.2887830165838183 0.6486172749262465
0.3360287705007754 0.7916341739690987
0.3970829890208669 0.9828148858407946
0.34403323156348814 0.8962372094373137
1.3543997675696486 3.7211827783121967
1.3055282993731976 3.79152948815326
0.32755801403744433 1.0081199072728628
0.2222024955892798 0.726791614531907
0.1957025226300694 0.6824958041162064
1.0766872276264872 4.018251437362524
1.0063950856946176 4.036430221308145
0.9470439387876722 4.10209797274584
0.8960993874245422 4.215816159162702
0.8319272198417359 4.2798945198318155
0.7571060546278158 4.293761803133227
0.7211628838354646 4.553243250143585
0.620712030281891 4.416595586587404
0.5557242059274725 4.526010451484428
0.4818762156638835 4.58474593764774
0.41050354834146985 4.692077028012122
0.24650235390426503 4.703545108694042
0.07871035303214802 4.509313105155324
