# .PCD v0.7 - Point Cloud Data file format
VERSION 0.7
FIELDS x y
SIZE 4 4
TYPE F F
COUNT 1 1
WIDTH 180
HEIGHT 1
VIEWPOINT 0 0 0 1 0 0 0
POINTS 180
DATA ascii
4.592425496802574e-17 -0.75
0.013612877021081207 -0.7798812022219852
0.02617462252687581 -0.7495431202643218
0.038205248057349095 -0.7289995603708389
0.05231735530809409 -0.7481730376948681
0.06798147934317335 -0.7770318645115616
0.07316992428735741 -0.6961653267577913
0.09140200755386062 -0.7444096137309915
0.1043798257200491 -0.7427010515561778
0.11732584878017319 -0.7407662554463533
0.1302361332501978 -0.738605814759156
0.14310674653240868 -0.736220387585748
0.1559337681133196 -0.7336107005503542
0.16871329075789887 -0.7307775485889264
0.19353751647973416 -0.7762365810207972
0.19411428382689055 -0.7244443697168013
0.2067280168627494 -0.7209462719537392
0.21927877854205258 -0.7172285669722765
0.2317627457812106 -0.7132923872213651
0.24417611584286758 -0.7091389316994876
0.2565151074942516 -0.7047694655894312
0.2866943596362403 -0.7468643411977615
0.29968527473272977 -0.7417470836534299
0.312584902791419 -0.7364038827619523
0.32538931446064034 -0.7308363661140806
0.3592255224795945 -0.7703616189811524
0.35069691743126197 -0.7190352370393336
0.36319239979163753 -0.7128052193506944
0.3755772502287127 -0.7063580742871416
0.41208817720938656 -0.7434267510684863
0.4249999999999999 -0.7361215932167728
0.46353426741904885 -0.771450570631901
0.45043137459822413 -0.720840881732962
0.4901751315135244 -0.7548035111508815
0.5032736131236722 -0.7461338152995375
0.5162187927159415 -0.7372368398600926
0.49961746444860217 -0.6876644452187053
0.5717242719944459 -0.7587037345449281
0.5848784015593754 -0.7486102159263858
0.5978543714973454 -0.7382886633841224
0.6106482292022124 -0.7277422209630291
0.6232560775409819 -0.7169741012116334
0.6691306063588582 -0.7431448254773942
0.6819983600624986 -0.7313537016191703
0.7293912889819472 -0.7553067903555837
0.7071067811865476 -0.7071067811865475
0.7193398003386512 -0.6946583704589973
0.8044890717810876 -0.7501981960687484
0.8174593080251339 -0.736043666994744
0.8301805382450493 -0.721664931889558
0.8809511095868247 -0.73920575113952
0.8937178556755164 -0.7237184497073129
0.9062123666477302 -0.7080106966245069
0.9583626120567513 -0.7221780277824579
1.0517220926874318 -0.7641208279802151
1.0648976575756894 -0.7456493672563599
1.1192007229493064 -0.7549104196855082
1.1322052667263225 -0.7352626972702865
1.1448649298111753 -0.7153910067148267
1.2428925860180629 -0.7468052086195783
1.299038105676658 -0.75
1.3556605460660633 -0.7514549113818224
1.3685687689313368 -0.7276809223181308
1.470160764910807 -0.7490843245702522
1.527949878708584 -0.7452309495414315
1.5407232379623048 -0.718451044959189
1.6443818237566818 -0.7321259575364403
1.7489592215596366 -0.7423891441296199
1.7801930007682318 -0.7192446593585509
1.8858324615243476 -0.7239032580815067
1.9921483560661257 -0.7250827038504178
2.0990512378304835 -0.7227613028948879
2.254003943619514 -0.7323702766686253
2.362072747228698 -0.7221581106651598
2.5185056433583957 -0.7221698722405377
2.675614538820719 -0.7169287549339823
2.88177830703971 -0.7185080299310129
3.0887531053691957 -0.7130948422700516
3.296357414472925 -0.7006623980558492
4.044303995804376 -0.7861330609513648
4.234673337952494 -0.7466871639678005
4.365582465430509 -0.6914403354778205
5.41676633601639 -0.7612768622515578
5.60788575677347 -0.688561790239083
6.285378378727487 -0.6606198878515694
7.292145190031578 -0.6379800369128571
11.940841681610097 -0.8349849907171785
11.90366405427452 -0.6238445984158913
16.509936462355462 -0.5765396855253168
24.616250254750355 -0.4296782464859207
34.87 0.0
40.61381337725261 0.7089167494824572
40.8950726416214 1.4280874050663417
13.00215654250455 0.6814141502831296
12.888527529356928 0.9012536407741002
12.92064523424994 1.1304099834371282
11.904427087558233 1.2512057053138137
11.831150127564559 1.4526825733893574
8.04097671818155 1.130085579795731
7.773107240483735 1.231139239866617
7.947398566808519 1.401340793772128
7.283673701181667 1.4158027456939628
5.350467376013916 1.1372769487731438
5.183648744657452 1.1967396091093623
4.434251469081304 1.1055830628904821
4.172799569568775 1.1180982748428905
4.152650526453538 1.1907533771294363
3.987790832365858 1.219190008693812
3.9183528471360325 1.2731500168247833
3.186397599769698 1.097164680520618
3.2137487630878065 1.169708890173787
3.2395240799452902 1.243536784922192
3.078250397161734 1.243693890140828
3.0100508707894797 1.2776907901599257
2.850261827844915 1.2690183263964971
2.6011033487951853 1.2129144111958072
2.6244786151935675 1.2800437486241065
2.468088072001779 1.2575536842785446
2.4016174525762812 1.2769626507776235
2.247772647348247 1.245960724033086
2.0091789367798976 1.1599999999999995
1.9886281376289001 1.1948883337913259
1.9250691782750873 1.202916729809375
1.8618486608388414 1.2090986577333604
1.840463411072193 1.241408245705058
1.7366023338926624 1.2159820450642183
1.674665178356141 1.2167154722454192
1.6132437302955314 1.215666346767138
1.5523811846052422 1.2128531063915469
1.4921202459973844 1.2082951508156876
1.4325031086324889 1.2020128301138286
1.4113069150165838 1.2268303842122485
1.3525235823688573 1.2178177035731221
1.2944960518659319 1.2071370973106224
1.2732314465994121 1.2295453157124254
1.2162236636408619 1.2162236636408617
1.1600794786665252 1.2012974665655476
1.1389372613043725 1.2213606817040146
1.1174481126192934 1.241051858547248
1.0628156269646218 1.2226295199608908
1.041315927692194 1.2409919978527444
1.0194990335007366 1.2589764575602929
0.9358054424950007 1.1977763454822172
0.9147588351911132 1.2139259752718854
0.8934335834845591 1.22970583144992
0.8431573614360375 1.204153505104818
0.7101749874078485 1.052877717144903
0.6916915744690846 1.0651116212906884
0.6623990802915061 1.0600601201955324
0.6437975936375678 1.0714591258776403
0.5999999999999999 1.0392304845413265
0.6060120253079214 1.0932746339242447
0.5868394534823633 1.1036844910736587
0.5447885996874562 1.0692078290260414
0.5260453761468926 1.0785528555590005
0.48601100100180433 1.0422539550921472
0.4758818723986864 1.0688481854418428
0.47669197675691394 1.1230159212119772
0.4757503736382085 1.17752349529982
0.5268008858315912 1.3723632269508865
0.5198706178550166 1.4283327835945807
0.46230677932916225 1.34263637735103
0.43880413201242535 1.350500253139118
0.4005492354701491 1.3101375156693589
0.37762317746928886 1.316928523435497
0.35458209179045375 1.3233183820160235
0.3314329969715447 1.3293051449981153
0.296935391733902 1.2861684855165105
0.2744434318794422 1.2911548329686235
0.2518678738970393 1.2957478821509165
0.2292155945203479 1.2999462339761148
0.19867177060109328 1.2543641925558249
0.17674983821928286 1.2576404473017944
0.1547740661245373 1.260533612584479
0.13797757151330287 1.3127689018861208
0.11068779328952584 1.2651672665765168
0.08510289796783305 1.2170281413169854
0.06541994530367969 1.2482869184432173
0.04362437087812635 1.2492385337738696
0.02007026740287588 1.14982484942985
