# .PCD v0.7 - Point Cloud Data file format
VERSION 0.7
FIELDS x y
SIZE 4 4
TYPE F F
COUNT 1 1
WIDTH 175
HEIGHT 1
VIEWPOINT 0 0 0 1 0 0 0
POINTS 175
DATA ascii
1.8737096026954504e-16 -3.06
0.05340436369808781 -3.0595339471785574
0.10330251023940319 -2.9581968479765233
0.15229763266696694 -2.90601194613581
0.21903532755655394 -3.132351117815848
0.2693112450902636 -3.0782416171034934
0.32299295149704915 -3.0730726566879643
0.3704828039516484 -3.017340300989619
0.42308622691859904 -3.010414928974374
0.4677390504702905 -2.953188138379462
0.5105256423407754 -2.8953347938558913
0.43122832955099144 -2.2184774345917204
0.4490892521663605 -2.1127988175850203
0.48139525629587143 -2.0851519386404034
0.5225512944952823 -2.0958387687561526
0.7402224689932093 -2.762547863186735
0.5815948207738681 -2.028262178429853
0.6022857117288377 -1.969987797283853
0.6458455182436401 -1.9877081190568708
0.6706703981817429 -1.9477682657345925
2.380460197546655 -6.5402606406699215
2.4763225313580257 -6.451040747095664
2.588531560503953 -6.4068404350565
1.7621973894866243 -4.151476889070506
2.790213371499991 -6.2669218394282415
2.878030362454163 -6.171956029719586
2.5030992481656322 -5.132114004368243
2.546886703538858 -4.998546600696744
3.0327862955968548 -5.703841449868667
3.2045915898282886 -5.781236264191406
3.8049999999999993 -6.590453322799579
3.996695461302021 -6.65161825344839
5.463467614244343 -8.743375871372752
5.587996499254178 -8.604760027120049
7.219180383807343 -10.702875061685587
8.035805873278155 -11.476320140488776
10.350898292870452 -14.246789270942823
16.629016448546036 -21.28417045491756
16.935011723151124 -20.912997822807085
13.6335252014515 -16.247802638553523
13.91501200488866 -16.007390196524995
9.173780613179947 -10.188515557295077
6.7927036662224864 -7.284282868126938
5.3210831177159195 -5.510142870594067
4.53255446740577 -4.532554467405769
3.8196943397982377 -3.688635947137275
3.481243619707252 -3.246312193897493
3.12863971525983 -2.8170398527707925
2.8377080216376225 -2.4667819490043073
1.3482382198894014 -1.131306193048309
1.3133766748622808 -1.0635514608742251
1.3317381735953602 -1.0404678933003624
1.3496940119799248 -1.0170673891269615
1.38341906038116 -1.005112781420129
2.1625613969229383 -1.5142417919667617
1.4176542490691213 -0.956219864934977
1.4173532598277665 -0.9204399691753955
1.4756036873121814 -0.9220595197657765
1.4486127381865699 -0.8704143465979913
1.6800892833418108 -0.97
2.4401889829189143 -1.3526188404872803
2.41927640443346 -1.286352082033341
2.5304585286949646 -1.289333019260313
2.552575091489634 -1.2449740568809797
2.5739141151840856 -1.2002358633435861
2.640146372587117 -1.1754688984890624
2.660259026477553 -1.129212961334001
2.6795613396980156 -1.0826130549719855
2.744726453901773 -1.053601771663183
2.8096809361498662 -1.0226402285437497
2.8271005410419576 -0.9734487818268986
2.8912118095372668 -0.9394116628998401
2.9549816959257797 -0.9034285675932564
2.970298640449405 -0.8517194294745272
3.0330070945476746 -0.812691801621915
3.0952433668204287 -0.7717308469629397
3.1569590099041624 -0.7288414160741222
3.188761178392206 -0.6777921120658956
3.2786347927151978 -0.6373020445576598
3.308954050121019 -0.583457876960886
3.318632824399663 -0.5256198025351757
3.4263275178458334 -0.4815389293218263
3.48383699226104 -0.4277613953520675
3.4907718527426392 -0.36689490606946334
3.596262860111201 -0.3146322313190456
3.651084423950957 -0.25530869390349814
3.7548470506771974 -0.19678319547346906
3.8576485922937094 -0.13471205727165392
3.90940448806149 -0.06823890916977862
3.96 0.0
4.059381642334948 0.07085677013537114
4.107496299048484 0.1434369314472792
4.2541618180544845 0.22295117359494102
4.349379259132834 0.30413822552438674
4.393218618584598 0.3843568255171731
4.535019842879326 0.47664979250050044
4.674892374230627 0.5740046074382444
4.812702814084032 0.6763812706659179
4.898934169351883 0.7759149465995451
5.032367617892383 0.8873421878780142
5.212440344107096 1.0131957654494532
5.291778519969888 1.1248022473240784
5.46621606344517 1.2619754148690832
5.6374181696635395 1.40556621343407
5.853510507311753 1.5684434133212766
6.017498216573876 1.7254898474144142
6.225543961319361 1.903339797745016
6.524247701784754 2.1198565814121393
6.769913001291108 2.331067985913242
6.916137688984286 2.5172682548769223
7.244584109618286 2.7809352884715306
8.910236842386826 3.5999693627269154
8.84605164167795 3.7549261447819218
9.327299122530956 4.152781125803922
9.887817956569851 4.61076523559103
11.198973816887621 5.462104488991907
11.101941291387066 5.656721626754754
11.22226390523696 5.966983563008674
11.33507140452657 6.283132678392529
10.963881611910994 6.329999999999998
10.808879661853634 6.494630124615784
11.24511775503421 7.026729443732297
18.249471558492427 11.851345401926993
18.039857578797708 12.168037579523451
17.78379088151401 12.452344433181215
35.89684260455531 30.121027389911234
9.215003974520046 8.010480743974092
9.036641077805113 8.136628173323718
8.673854901203363 8.088500550341232
8.675237992084131 8.377579947735509
8.068088373338508 8.068088373338506
6.536735266019163 6.768987521186709
5.496906782103738 5.894710835050514
4.72406208089354 5.246602467870402
4.106929521480575 4.724481972194552
3.606038490341487 4.297509325897467
3.215827198264669 3.9712158630451215
2.899765548783851 3.7115306494876603
2.5938227497853275 3.4421190483038324
2.357018861692817 3.2441581474435393
2.1566474006799328 3.0800116865266096
1.9627670911823212 2.9099218796681963
1.80275520589974 2.775999579899353
1.6480489117652672 2.6374295790464846
1.5245127017337605 2.5372152100782523
1.4049999999999998 2.4335313846342728
1.2895935898552568 2.326488420990793
1.1783736225925854 2.2161984580759064
1.1168166293592852 2.191876049503385
1.0345559064222223 2.1211539492660343
0.9551172715339806 2.048255598702829
0.8704164161822129 1.9549872793551657
0.8049061246879039 1.8962399981120273
0.7641974505684609 1.8914550633162461
0.6952338221178823 1.8111460274045714
0.6464180708855141 1.7760190532853666
0.599045404201168 1.739754179102743
0.5531404199311559 1.702391164168325
0.5087267662175616 1.6639702753756818
0.46582713133072856 1.6245322661357589
0.42446323396813435 1.5841183551140718
0.3846558140034716 1.5427702047788345
0.34642462368955235 1.5005298997692622
0.3201840038593492 1.5063473051300609
0.2843054031110519 1.4626245033370193
0.2500533758403795 1.4181231643375796
0.2252656296579325 1.4222712104569983
0.20040926538249396 1.4259860189878613
0.169398387333155 1.3796391507814374
0.14006814077865593 1.3326593397934863
0.1167886952818619 1.334900895442939
0.09347367481712812 1.3367358273481644
0.06751338355339744 1.2882320998334003
0.04327537591110134 1.2392446255036786
0.021640983982231386 1.239811141993925
