# .PCD v0.7 - Point Cloud Data file format
VERSION 0.7
FIELDS x y
SIZE 4 4
TYPE F F
COUNT 1 1
WIDTH 180
HEIGHT 1
VIEWPOINT 0 0 0 1 0 0 0
POINTS 180
DATA ascii
6.245698675651501e-17 -1.02
0.01780145456602927 -1.0198446490595192
0.0355974866365511 -1.0193786435594776
0.05338267536780285 -1.0186021254496653
0.07463942690621424 -1.067393533778012
0.0888988576026113 -1.0161185920535805
0.1087096017983596 -1.0343027711830042
0.1304001974435078 -1.0620243822562145
0.1377813699504648 -0.9803653880541546
0.16269184364184017 -1.0271958742189433
0.18059410477360763 -1.0242000631326964
0.19844135519160672 -1.0208922707855705
0.21622815845046983 -1.0172735047631578
0.24519664923481302 -1.0620633706159064
0.2515987714236544 -1.0091075553270363
0.26917180690662157 -1.004562859340631
0.3004447178405291 -1.0477752485727676
0.3186851581477831 -1.0423721839997087
0.3368285238686927 -1.0366516027617174
0.3548692883583009 -1.0306152474032553
0.3899029633912624 -1.0712495876959354
0.4085394624816424 -1.0642816862068099
0.42705151649413986 -1.0569895942061374
0.42589693005330836 -1.0033502902631601
0.4636797731064124 -1.0414418217125647
0.5029157314714323 -1.0785062665736134
0.49974310733954824 -1.0246252127810502
0.5402486946900608 -1.0602977637841577
0.5586711597152101 -1.050707635502123
0.5769234480931411 -1.0407974514958809
0.6199999999999999 -1.073871500692704
0.6128953091429645 -1.0200290878355136
0.657099887649174 -1.0515796392339682
0.6753524034186336 -1.0399515042523257
0.7213588454772635 -1.0694584685960038
0.7399136028928495 -1.0567061371327995
0.7876322380719141 -1.0840827724624296
0.8365228821813471 -1.110103358965737
0.8249863769363823 -1.0559344098330075
0.8747553435592739 -1.0802328864251896
0.8934747774642896 -1.0648017759353794
0.9447250017463305 -1.0867817955207917
0.9970046034746988 -1.1072857899613173
1.0502774744962478 -1.1262847004935224
1.069773890506856 -1.1077832925215227
1.0889444430272832 -1.0889444430272832
1.107783292521523 -1.069773890506856
1.1994200706554397 -1.1184773105024974
1.2187575137829267 -1.0973741944285273
1.2754591905764847 -1.1087397589939572
1.3329173310270217 -1.1184504408545783
1.3522339729351294 -1.095017480426717
1.4499397866363686 -1.1328171145992112
1.5094211139893834 -1.137430393757371
1.569492969087398 -1.140303389447398
1.6301125681350936 -1.1414171083385816
1.6912366480122851 -1.1407535230803234
1.7528214870059362 -1.1382955831814063
1.814822925774752 -1.1340272254590587
1.8943397345516682 -1.1382341455512195
2.000518682742053 -1.155
2.107833494205944 -1.1683911847936723
2.2161984580759064 -1.1783736225925858
2.3255270281316403 -1.1849152043202171
2.4357318654707427 -1.1879858077983998
2.5467248815729864 -1.1875573154913652
2.704094554622099 -1.2039404635043685
2.8627700942370895 -1.2151738096016411
3.022619365887727 -1.2212174945358727
3.183509254355458 -1.2220347079494742
3.4392749920764247 -1.2517937245719477
3.696977630593329 -1.2729714839274828
3.9088422819730813 -1.2700598468810338
4.265119211595138 -1.3039778030634057
4.623668757463314 -1.3258156814797657
5.032473554966046 -1.3484472249841328
5.49187381072214 -1.3692779290941188
6.58674163794819 -1.5206691273645265
6.661185160997215 -1.4158786144689415
7.666508302726255 -1.4902182538908153
8.774637079338774 -1.5472052630123496
10.331220042625143 -1.636304504320815
12.734847364016595 -1.789766078346441
14.20333542998732 -1.7439503041276598
20.546822358308525 -2.159558051109719
38.51288702822688 -3.3694410146244604
14.175385154192105 -0.9912394919040188
14.34032011907568 -0.7515443316486744
15.850338516522859 -0.5535060177016661
15.907576829938185 -0.27766778641718104
11.66 0.0
9.558543965695101 0.1668450055404306
7.905181441721048 0.2760550189167831
6.750735654940919 0.3537910642023008
5.895603537035561 0.4122607598277811
5.1901743770579944 0.4540814197152997
4.684198127184567 0.4923290619906485
4.307650298123337 0.5289129503783399
4.297763418338415 0.6040112581666839
3.9606302457865024 0.6273022048113257
3.308954050121019 0.583457876960886
3.1019418996946184 0.6029564253898818
3.12029084634084 0.6632382937086525
2.98157239824282 0.6883502262922272
2.7750457771493497 0.69189662141505
2.617658989243375 0.7013996122278316
2.3166406872113487 0.6642860275189679
2.1134335106783086 0.6461414674372481
2.006729249382774 0.652025858131139
1.9004923369546267 0.6543919904588849
1.8417975367403803 0.6703594809183108
1.7364595932847953 0.6665643861542586
1.7060182924028888 0.6892761318852784
1.601678445007246 0.6798721635713365
1.5438918234159955 0.6873849267981025
1.4863447707401058 0.693093949254747
1.4290825336156754 0.6970101233946334
1.3721500472500865 0.6991453695989021
1.315591913359801 0.6995126285509775
1.2594523782807299 0.6981258531547253
1.2037753112603697 0.6949999999999997
1.1486041829408304 0.6901510203794727
1.0939820440417896 0.6835958508608343
1.081885032649597 0.7025843551693851
1.0280065899682518 0.693399200303726
1.0157485349183497 0.7112347810752974
0.9627302233061874 0.699464450228043
0.9503762569562783 0.7161598775509377
0.9377327967919991 0.7326371556375333
0.8859463960609468 0.7174252457968144
0.8349884429996861 0.7006384945583279
0.86036892145396 0.7479072930491781
0.8100278597703596 0.7293523609311556
0.7606078496839375 0.7092782944649985
0.748113392352197 0.7224447052773573
0.7353910524340095 0.7353910524340094
0.722444705277357 0.7481133923521974
0.6751783764618735 0.7240401646029787
0.6624393002952698 0.7357133772226202
0.6166954872510768 0.7094270054094056
0.604220353105347 0.7200817765318392
0.5915611675868471 0.7305172037695526
0.5787217868061189 0.7407301083903185
0.5657061217629252 0.7507173794444553
0.5231288745403011 0.7200251249937032
0.5104830283524309 0.7290453194172029
0.4976816840889646 0.7378434395739871
0.45749678941262284 0.704483277074156
0.47162814516755236 0.7547628055792192
0.43263198292444555 0.7200205325897743
0.4449999999999999 0.7707626093681504
0.40724008100692316 0.7346805539970924
0.39435611274014815 0.7416759780014986
0.38135201978121935 0.748445480318229
0.346313205963371 0.710047296576342
0.33386842677515255 0.7159831517589534
0.3416587801836723 0.7673781844197846
0.30867759150652624 0.7271988342274279
0.29593920879857066 0.732475245107762
0.28311068014078716 0.7375285369327894
0.25309490606099494 0.6953725393815722
0.2571988420211537 0.7469596747234604
0.2441234255562085 0.7513346478731713
0.23097364673096188 0.7554807572107981
0.21775351109542934 0.759396739791272
0.20446704563099158 0.7630814027683639
0.19111829752373746 0.7665336237580372
0.17771133293165348 0.7697523511803359
0.1642502357460298 0.7727366045797065
0.14119865657864322 0.7264041157512713
0.12849965147352835 0.728757737229034
0.12358322738178244 0.7802737890701589
0.10298809471044829 0.7327983708687621
0.09018331411980914 0.7344841522145783
0.07735106281806373 0.7359462025725222
0.06449524963326703 0.7371840765878916
0.051619790570652836 0.7381973971922698
0.03872860761977837 0.7389858557183846
0.026872612460925833 0.7695309368047037
0.012914780763589699 0.7398872944157295
