# .PCD v0.7 - Point Cloud Data file format
VERSION 0.7
FIELDS x y
SIZE 4 4
TYPE F F
COUNT 1 1
WIDTH 180
HEIGHT 1
VIEWPOINT 0 0 0 1 0 0 0
POINTS 180
DATA ascii
4.041334437186266e-17 -0.66
0.010645967926742994 -0.6099070940453987
0.023033667823650714 -0.6595979458326032
0.03192493330819582 -0.60916401620029
0.04394657845879904 -0.6284653516636892
0.05229344564859488 -0.5977168188550473
0.06271707796059207 -0.596713137220964
0.07921507321334587 -0.6451549985668593
0.0793286675472373 -0.5644527991826951
0.08916764507293162 -0.5629823541392285
0.10766187015349686 -0.610580806867569
0.11830157713345785 -0.6086088537375517
0.12890524830701086 -0.6064515124549594
0.1394696536931964 -0.6041094401668459
0.16208767005177735 -0.6500981366049177
0.1734087602186889 -0.6471703036136758
0.18467702839738945 -0.6440453362786737
0.19588904216423364 -0.6407241864952338
0.2070413862312148 -0.6372078659177529
0.21813066348629503 -0.6334974456515422
0.22915349602819812 -0.6295940559265586
0.25802492367261626 -0.6721779070779852
0.26971674725945677 -0.6675723752880869
0.2813264125122771 -0.662763494485757
0.3131872151683663 -0.7034300023848026
0.30428514845330357 -0.6525416066663879
0.3156272256881358 -0.6471317133354002
0.3268731598124737 -0.6415246974156249
0.3380195252058414 -0.6357222668584274
0.37330340758967956 -0.6734571744973348
0.3849999999999999 -0.6668395609140179
0.42233122142624446 -0.702877186575732
0.434533796671228 -0.6953994388482693
0.41937205696157087 -0.6457763373179765
0.4361704647071826 -0.6466493065929325
0.45886114908083686 -0.6553216354311935
0.48198390687982795 -0.6633939353874568
0.49348831898467954 -0.65488111823878
0.5048424097670399 -0.6461688179575119
0.5475087402133585 -0.6761169864675647
0.5592252204272893 -0.6664586655135109
0.5707713552217413 -0.6565973347938117
0.5821436275322066 -0.646535998165333
0.5933385732543738 -0.6362777204086782
0.6390857008222774 -0.6617926163115591
0.6151828996322963 -0.6151828996322963
0.6617926163115592 -0.6390857008222774
0.672845405489637 -0.6274384912574986
0.7208504807130725 -0.6490566881680924
0.7320682928160889 -0.636377258120792
0.7430631098254087 -0.6235039813959431
0.7926888806861103 -0.6419067988708341
0.8431715063591926 -0.6587577785984543
0.8545399957506034 -0.6439420747726917
0.8656481839811938 -0.6289302199529463
0.9174502896036709 -0.6424056087131716
0.9285220812616468 -0.6262960518872365
1.0231780928934173 -0.6644596227183329
1.0346186773108397 -0.64650150236451
1.045744106856577 -0.6283464513902659
1.0565509926170151 -0.61
1.1544980134240024 -0.6399486987251649
1.1654908225737837 -0.6197024628773758
1.220678938138064 -0.6219669846431791
1.276287545744817 -0.6224870284404899
1.3322724469438754 -0.6212488447588281
1.3429118227346235 -0.5979028653214262
1.4451926199203315 -0.6134478717281596
1.548397037126535 -0.6255930110045729
1.605758333575187 -0.6163928732179166
1.6632559387910577 -0.6053756536864338
1.7208438075907566 -0.5925340411120252
1.8260285112866947 -0.593312629199899
1.9317356070453318 -0.5905908435399282
2.134000964983068 -0.6119149299137381
3.3034663259086137 -0.8851611342506207
3.318411383863908 -0.8273728829508632
3.3323456215655045 -0.7693326058560178
3.3452647945096152 -0.7110579825967371
3.3375324237220574 -0.6487505842802525
3.2695617400005306 -0.5765119498542087
3.5754317929543986 -0.5662927634456357
4.129417846652348 -0.5803518310034728
4.93295437365737 -0.6056906367235827
5.290856483359214 -0.556091424583916
5.299755793848086 -0.46366855141754093
5.257162544869273 -0.36761661663153966
5.262777648156604 -0.27581048940031433
5.266789658390635 -0.18392034762218035
5.269197353474182 -0.09197418192448423
5.32 0.0
11.368268293928168 0.19843386119191378
12.31249498887526 0.42996179937481255
12.30311586817635 0.644778980913069
11.491937858993174 0.8035945775323245
11.426353187112323 0.9996763693156406
11.456892234642508 1.2041678968433696
11.384504359325964 1.3978413688570412
11.358374748465813 1.5963154680119502
11.378169683655987 1.8021250372634596
11.394225702351248 2.0091094156063845
9.443253504766526 1.8355825355223614
8.578354458435474 1.8233855284717497
7.814447919577586 1.8041074558377979
7.199594288967893 1.7950604653495355
6.587614135291445 1.7651458875991926
5.017786052798025 1.4388269973647352
4.752834637136287 1.4530873724720015
4.441433931098367 1.4431093637310044
4.226468032928946 1.4552896504234905
4.012487490755828 1.4604260120006054
3.7996723358436113 1.4585575546493723
3.588201517173467 1.44972751651958
3.4703032975157 1.4730563544045625
1.8910390973201836 0.8419448511669066
1.830741729814033 0.8536888887162127
1.842527794913292 0.8986608509176089
1.799833178860503 0.9170608094738846
2.0307794635755316 1.0797845944075493
2.029117720563398 1.1247583189715018
2.139082747347564 1.2349999999999997
2.4600701530150624 1.4781592749918557
2.3490932263533004 1.4678763619259776
2.2811839448115534 1.4814181752408742
2.1720784400942095 1.4650854070933566
2.1461783560371583 1.5027702632397413
2.0387228258248675 1.4812188357770324
1.972629709816813 1.48648310718556
1.867585486047931 1.4591176965218102
1.8418359286530215 1.4914893267881144
1.7389208858800802 1.4591278739884443
1.675455268094554 1.456451044358926
1.6497815125598152 1.4854699461166656
1.5870375325136001 1.4799364413356217
1.52500037671794 1.4726757453730746
1.499066376115481 1.4990663761154808
0.743284456391127 0.769693586362357
0.6274384912574986 0.6728454054896369
0.6156001578501497 0.6836932394392027
0.5904531260914566 0.6792386222004948
0.5785088487178855 0.6894399988070802
0.5663883519448537 0.6994313653112738
0.5540953277930926 0.7092096782460497
0.5235790701422819 0.6948128937411449
0.5407624321090753 0.7442956348249516
1.273339688699322 1.8185175383215622
1.2693678908785953 1.8819152896999447
1.263562561234863 1.9457157176333835
1.2718062341596916 2.035315430775422
0.6283464513902662 1.045744106856577
0.4849999999999999 0.8400446416709055
0.470265331638947 0.8483811159252138
0.44599798464659607 0.8388002132159806
0.4312909747525695 0.8464561979789494
0.3945340321101695 0.8089146416692503
0.3803564355666295 0.815677008332985
0.36606297876822036 0.8221909118783407
0.3516580156403464 0.8284543681071963
0.3633683956134348 0.8993683389297836
1.7452519142856118 4.546536677041373
1.6485370908297239 4.529318432188078
1.5529600967606365 4.510123605608741
1.4740110631684993 4.536539582727882
1.3799944462913165 4.513758448145528
1.301008319456236 4.537155204828865
1.2345668451390248 4.607466191398855
1.1660635367903982 4.676825400650303
1.0730165292202367 4.6477452090255715
1.0021343497415995 4.7146714355369435
1.015103855403219 5.222256615941572
0.9324907140714153 5.288417633675558
0.20649349385310484 1.303748609585582
0.18092503124808482 1.2873484893640414
0.15843014642669173 1.2903099971337186
0.1306605790845671 1.2431523692103417
0.11155935071700242 1.2751292135574344
0.09277611007968686 1.3267601868455663
0.066990023990968 1.2782458044858545
0.04467135577920139 1.2792202585844425
0.02233908023972272 1.279805049800181
