# .PCD v0.7 - Point Cloud Data file format
VERSION 0.7
FIELDS x y
SIZE 4 4
TYPE F F
COUNT 1 1
WIDTH 179
HEIGHT 1
VIEWPOINT 0 0 0 1 0 0 0
POINTS 179
DATA ascii
1.175660927181459e-16 -1.92
0.03350862035958451 -1.9197075747002712
0.06526205883367703 -1.8688608465257093
0.1004850359864524 -1.9173687067287817
0.13393242958872087 -1.9153229764988624
0.1673390260755036 -1.9126938203361514
0.20069464947389462 -1.9094820391070846
0.23033305903572873 -1.8759122266020984
0.2630371608145237 -1.8716066499215678
0.30035417287724336 -1.8963616139426644
0.336877464673845 -1.9105270408436834
0.37016945103049714 -1.904356735888468
0.4033486801864533 -1.8976063454235828
0.43640504542709835 -1.8902779256833564
0.46932847746335526 -1.882373708975433
0.5021089474988902 -1.8738961030007926
0.5485183380758283 -1.9129107749172547
0.5818196923982462 -1.9030464643664404
0.6303946685248928 -1.9401552932421133
0.6641590350925998 -1.9288578942226062
0.6977210923843644 -1.916972946403253
0.7310706170724128 -1.9045040700542917
0.8016581099100522 -1.984173448772925
0.8361646149670457 -1.9698803863882226
0.8704164161822129 -1.9549872793551657
0.9044030801250968 -1.9394986642584309
0.9600328114680796 -1.9683589613951755
0.9942391944296076 -1.9513042879725258
1.028142722501101 -1.9336552283610497
1.0859735493517952 -1.9591481439922467
1.1449999999999998 -1.9831981746663647
1.1536852877985218 -1.9200547535727315
1.2400110783056995 -1.9844325450060367
1.2744553419351634 -1.9624891289922919
1.3364710392950852 -1.9813997984065497
1.3995265046965524 -1.99873098806514
1.4341960155936344 -1.9740014662748717
1.4985194076486004 -1.9886024200177592
1.5637801473271724 -2.0015473141610736
1.6299398128190787 -2.0128080401735544
1.696959289572464 -2.022357329834102
1.7647987879844644 -2.0301687707992566
1.7999613311053286 -1.9990595805341904
1.902775424574371 -2.040476827517485
1.9728297721035521 -2.0429250329617687
2.0223253941935257 -2.0223253941935257
2.093278818985475 -2.021455858035682
2.2013746418737035 -2.0528150637881204
2.274023165960827 -2.047539655458106
2.3848822735039596 -2.073146531610003
2.190887107320277 -1.8383725637035022
2.2614947478397855 -1.831322337955027
2.253710755315225 -1.7607918194313823
2.244165783232893 -1.6911002150572556
2.2733377541936024 -1.6516765589418496
2.3427748466665164 -1.6404286079639916
1.6249136422078818 -1.0960180908026638
1.6270209018141226 -1.0565997279291524
1.7045766732744163 -1.0651377211087418
1.7229062744112456 -1.0352265305692085
2.087121223120497 -1.205
2.107833494205944 -1.1683911847936723
2.8342617730771558 -1.5070037165427095
2.993781921272916 -1.5254080791248772
3.0648876978801596 -1.494845610550754
3.2717711112023062 -1.5256519248839246
3.48060819361831 -1.5496666101187986
3.645199219671664 -1.5472952688175237
3.8570848349978357 -1.5583634286101935
4.11708968085266 -1.5804026574947745
4.425952243901628 -1.6109148750639
10.693815090028274 -3.6821758269104423
10.89910767674246 -3.5413347555368975
11.00706774113454 -3.3651983213586996
11.112185205046966 -3.18636783324451
11.31099142584499 -3.0307710181505176
11.410677741005719 -2.845001492252091
11.556028968352889 -2.6679195045182373
11.551923164666244 -2.4554370685577385
11.494854318172147 -2.2343733358593405
11.827541113676618 -2.0855146137798335
13.491822732529583 -2.136894792449554
13.774628836195244 -1.93589783435451
31.969911544366987 -3.925411551079799
21.093809400761078 -2.2170487059069286
23.22129841251859 -2.0316003634479096
21.557359126114804 -1.507437397610545
29.769146431033846 -1.5601348556021577
22.706541157001645 -0.3963441501907091
22.46 0.0
11.708216510281343 0.20436767938059022
11.702866584393613 0.40867310638628696
11.743883328713789 0.6154708454170204
11.781231433568525 0.823823954918121
11.66543991465434 1.0205937475750786
11.546399205225653 1.2135754585374583
11.473833512973684 1.4088096097635043
11.298958664341319 1.5879650819543463
4.3063211649948006 0.6820542675754067
4.047559864880175 0.7136940102110838
3.7890809281079827 0.7365227221534631
3.5800202186857284 0.7609567883929994
3.371320424156914 0.7783306480297731
3.1146492813459488 0.7765692848749337
2.617658989243375 0.7013996122278316
2.5569561111959285 0.7331953664732177
2.7828468398524335 0.8508016607431639
2.7675744624188967 0.8992394536310969
2.2314238384143876 0.7683408445188897
2.35862847817263 0.8584705597474286
2.296607849183116 0.8815851558814388
2.2345130895059575 0.9028018901323482
2.2184166968203813 0.9416620196591501
2.201644552918668 0.9802353098126788
1.957624819999164 0.9128554453599107
1.9413951400062006 0.9468816770644076
1.9067539617631075 0.9715396694426303
1.8895078487181036 1.0046691443618068
1.889178567421095 1.047188779732088
1.8706148721743878 1.0799999999999996
2.2372066548325127 1.3442493755152416
2.1710031261604508 1.3565933164370045
2.2560238277731903 1.4650790041904231
2.18865919154531 1.4762692651627716
2.1216037947084883 1.4855629701492097
2.014452315993619 1.4635852782082583
1.9486706445153943 1.4684286564909983
0.9534930118641335 0.7449503851440465
0.9014893152900864 0.7300116536178112
0.8732906651556349 0.7327778750426548
0.8981044004650987 0.7807102444987035
0.8471851010442293 0.7628088912490985
0.8483702938782378 0.7911180976724982
1.5753541627416456 1.5213018313052042
1.513208511739212 1.5132085117392116
1.486568912782254 1.539387172724714
0.8593179336787481 0.9215056640401548
0.8297219518849843 0.9214995835919687
0.7807102444987036 0.8981044004650987
0.764917255526982 0.9115928873115838
0.7803572849017983 0.9636609922066439
0.7449503851440467 0.9534930118641335
0.8666136333389494 1.1500351344681017
1.1109141268327742 1.5290421193686505
1.0840594647034767 1.5481973637061945
1.0568745875597114 1.5668810121290289
1.0021358244276501 1.54315384501958
0.9750514461890971 1.5604084969278238
0.9219181540889971 1.534329468256781
0.8699999999999998 1.5068842025849234
0.8435687392286266 1.5218382904225485
0.8168805192474498 1.536328811574533
0.8126429945337889 1.5949016782971785
0.7627657954129944 1.5639016405605506
0.7142248623417821 1.5316601600919384
0.6873849267981026 1.5438918234159953
0.6407990507224088 1.5096279596620021
0.6443233406753689 1.594756229854874
0.5877234372542922 1.5310718994554107
0.5609130350540968 1.5410958980888896
0.5436988179434514 1.579016021250859
0.5160583806061623 1.5882643822129063
0.48826074688697 1.5970289424582693
0.4603143842143886 1.6053070322169924
0.43222780532120997 1.6130961299027438
0.404009565651445 1.620393862880914
0.37566826075425475 1.6271980081913429
0.33681693912476995 1.5845991131887653
0.3091105725100028 1.5902360371852158
0.28131004782042696 1.5953885598797772
0.2534238333651741 1.6000551117641233
0.2254604235553057 1.604234271361344
0.19742833631633894 1.6079247656589417
0.16933611049359898 1.611125470496603
0.14119230325120619 1.613835410908628
0.11300548746548325 1.6160537614209154
0.08478424911356887 1.6177798463024098
0.056537184658051756 1.6190131397709353
0.02827289842839907 1.619753266153354
