# .PCD v0.7 - Point Cloud Data file format
VERSION 0.7
FIELDS x y
SIZE 4 4
TYPE F F
COUNT 1 1
WIDTH 180
HEIGHT 1
VIEWPOINT 0 0 0 1 0 0 0
POINTS 180
DATA ascii
3.735172737399427e-17 -0.61
0.011169540119861503 -0.6399025249000905
0.020590703054475638 -0.5896405879412665
0.03192493330819582 -0.60916401620029
0.04464414319624029 -0.6384409921662875
0.05403656050354805 -0.6176407128168823
0.06480764722594515 -0.6166035751283294
0.08165246008144883 -0.6650059215996857
0.08628732259524059 -0.6139662026197736
0.09698936832494318 -0.6123667711689854
0.11634427903684338 -0.6598211945181794
0.11830157713345785 -0.6086088537375517
0.12890524830701086 -0.6064515124549594
0.1439686747800737 -0.6235968414625506
0.14273391840380392 -0.5724744785028378
0.16564418886561327 -0.6181925288250038
0.1626260399320295 -0.5671444006036082
0.18711789102255152 -0.6120350438163427
0.19777087639996638 -0.6086761704288983
0.20836361885258034 -0.6051318883835627
0.23599389889471148 -0.6483879083422767
0.23652284669989826 -0.6161630814881531
0.24724035165450206 -0.6119413440140796
0.23834598837845697 -0.5615079606059886
0.24810935227623823 -0.5572627291619865
0.2789280527488616 -0.598163139444189
0.28932495688079113 -0.5932040705574502
0.29963372982810094 -0.5880643059643228
0.31454594706654687 -0.591574887215481
0.3199743493625825 -0.5772490067120012
0.3799999999999999 -0.6581793068761734
3.5846650013739776 -5.965884412886701
3.4232784469465036 -5.478390701170512
3.4639042626955723 -5.333944812132897
3.5005475757268756 -5.18977520419456
3.4471943824697866 -4.92310378617684
3.385643053204645 -4.659937887599697
3.225728524094979 -4.28068633385349
3.2075962864466803 -4.105536026291021
3.152895159159685 -3.893501266899424
3.1560871635609082 -3.761278215714182
3.0900380265452894 -3.554682122849256
3.084692095314337 -3.425897645450788
3.0417126858787435 -3.2618375092214995
3.0287104952012283 -3.1363215294765188
2.9769195487953652 -2.976919548795365
2.9564865793918567 -2.855045902586479
2.969296028573832 -2.7689133418537435
2.980010750164351 -2.6832137314990208
2.9131789796598997 -2.532387851903358
2.9186293282833065 -2.4490207929057144
2.883211517005362 -2.3347786507948967
2.8841193582006026 -2.2533209996919092
2.8431424157683627 -2.1424614824212918
2.8396496502560655 -2.0631262355465805
2.8342660732399114 -1.9845744697746193
2.8270181224126922 -1.9068478008352467
2.7759995798993535 -1.8027552058997394
2.8494416030855914 -1.7805287278235684
2.837223765323992 -1.704776027952279
2.9098453567157136 -1.68
2.85126024527443 -1.5804793620030586
3.2757355695066193 -1.7417394979356549
3.394734857157682 -1.7297038040076733
2.975008293250243 -1.4510084958718463
3.5889788366651336 -1.6735683164931696
3.7546718309110902 -1.6716876030415388
3.276997278290688 -1.3910028174218143
2.9762601731593876 -1.2024871648650772
3.0434721903808777 -1.168279515517679
3.1103825748013567 -1.1320866744079636
2.751459054994012 -0.947403329470326
2.7200216366041388 -0.8837886039123495
2.6394011264579778 -0.8069459050347533
2.65308228078976 -0.7607591020549175
5.273955011538313 -1.413151986259763
5.49187381072214 -1.3692779290941188
2.835416888525035 -0.6546075681406468
3.0909464183188256 -0.6570009429841197
6.2922302458995265 -1.2230856603636526
6.608060022711916 -1.1651792721451026
6.9730796846016725 -1.1044273231840298
7.337886389375036 -1.0312726781140846
7.404394291244262 -0.9091453018023998
7.419133339447319 -0.7797823359766942
7.381802712859835 -0.6458240537601463
7.3420714099123074 -0.5134076467567613
2.6563545624471665 -0.13921364360623079
4.307374464452303 -0.15041683078777937
4.259351181366227 -0.07434725142282786
3.06 0.0
3.0095415624207376 0.05253174337622344
2.9082273066255686 0.10155753540427796
2.90601194613581 0.15229763266696678
2.7033985762041235 0.18904004384657982
2.799307101637805 0.2449076371209198
2.4465238626059524 0.25714001963842786
2.5905454557838508 0.3180789862874348
2.6341130628525775 0.370200448553774
2.5778665689533096 0.40829395375500255
2.5506520803016186 0.4497487801573496
2.562046948798403 0.49801147793278205
2.601872617951923 0.55304509757524
2.6892613788072492 0.6208649099890676
2.72653099083555 0.6798005266350666
2.7142515718722815 0.7272815167380837
2.701145365586676 0.7745409698457675
2.5915858886598264 0.7923273197986165
2.7675744624188967 0.8992394536310969
2.798734983773978 0.9636817371931838
2.828474788565584 1.029480631410263
2.810077083756577 1.078687528131354
3.810725642269496 1.539633098939399
3.461098248981175 1.4691490431196697
3.115190010561269 1.3869719528884792
2.9092479963876463 1.356604620187645
2.4357318654707423 1.1879858077984002
2.548278659178732 1.2984128292551038
2.5252301155765307 1.342688669567648
2.5451433477756416 1.410795994916841
2.260326303877385 1.3049999999999995
2.2372066548325127 1.3442493755152416
2.213405530968272 1.3830892796486647
2.2308637107348277 1.4487398331399723
2.246691821624163 1.5154127684057237
2.0970292333798186 1.4683556770586785
2.1924360547561075 1.5928980337126022
2.0844386812234337 1.5707372104268464
1.9779069915528718 1.5453103030674022
1.8340644690384516 1.4851961228776158
1.807864885760788 1.5169787588602328
1.592437214270049 1.38428455116997
1.6051928230311714 1.445322109735134
1.5797239954974085 1.4731164577349969
1.5178069787145534 1.4657291616684844
1.456639969244288 1.4566399692442877
1.3962633246225842 1.4458729986806889
1.336716785722497 1.4334532551735741
1.2780394581454193 1.4194066166618227
1.0562550366747168 1.215082424158663
1.0670274320796556 1.2716337755775033
1.1390699078002058 1.4066341902371173
1.0835641965731588 1.3868989263478306
1.0591944407476048 1.4055984976832356
0.9463342561908819 1.3025173609436655
0.923458062525184 1.3188347913052771
0.9003005745879024 1.3347504918136173
0.8496368946234425 1.3083260859948613
0.8001780889921394 1.2805526251962032
0.7519555893686792 1.2514642590250837
0.7049999999999998 1.2210958193360586
0.6593410835350185 1.1894828017095782
0.6150077472495168 1.1566613466451945
0.6174270796457838 1.2117688728961804
0.5742662022936912 1.1774202006519088
0.5536299228803163 1.1872632010180115
0.5328250024292985 1.196744549511807
0.5118577783209486 1.205861358022697
0.47200430770404933 1.168251656754152
0.4515436164270782 1.1763113373864742
0.4138443734240593 1.137028071150949
0.3939374668931594 1.1440774764751733
0.37391056319368643 1.1507783847171358
0.3537697627145112 1.1571287547152729
0.333521200538569 1.1631266520853658
0.3131710445740504 1.1687702498097725
0.29272549367559786 1.1740578287939556
0.26094322303888356 1.1302692751508727
0.2411775613486007 1.1346512168512146
0.2213384346367921 1.13868753279929
0.20143188609363905 1.1423769934941614
0.17364225619465634 1.096334058060603
0.15448214206567243 1.0991975563031433
0.13527497117971374 1.1017262283218674
0.11602659422709559 1.1039193038587833
0.09238508731251763 1.0559663799772503
0.07394186216877299 1.0574178932754137
0.05547611361752037 1.0585473068398483
0.038738441339776206 1.1093238179911964
0.01937217114538455 1.1098309416235943
