# .PCD v0.7 - Point Cloud Data file format
VERSION 0.7
FIELDS x y
SIZE 4 4
TYPE F F
COUNT 1 1
WIDTH 180
HEIGHT 1
VIEWPOINT 0 0 0 1 0 0 0
POINTS 180
DATA ascii
5.143516556418883e-17 -0.84
0.014660021407318221 -0.8398720639313686
0.027570602394975854 -0.7895187533450857
0.04134540543192573 -0.7889173324561134
0.055107614257859115 -0.7880755997052612
0.06885303677064994 -0.786993811492479
0.08257748598144624 -0.7856722973409359
0.09627678129006652 -0.7841114597966444
0.10994674975845173 -0.7823117743058406
0.12358322738178244 -0.7802737890701589
0.12849965147352851 -0.7287577372290339
0.14119865657864322 -0.7264041157512713
0.16425023574602998 -0.7727366045797064
0.1664637802144602 -0.7210338479410741
0.17902220274375408 -0.7180188374442373
0.19152609337586535 -0.7147851114539105
0.21775351109542934 -0.759396739791272
0.2163550614948252 -0.7076655194126462
0.22867257583746112 -0.7037818220584136
0.240920434298296 -0.6996837459434944
0.25309490606099494 -0.6953725393815722
0.2651922826635223 -0.6908495156079293
0.27720887912777503 -0.6861160523794226
0.28914103508206257 -0.6811735915548058
0.3009851158760923 -0.6760236386555245
0.3127375136881176 -0.6706677624071209
0.3243946486239173 -0.6651075942613836
0.31325344482028733 -0.6147945016899738
0.36149310334513596 -0.6798696465013737
0.3490629265773627 -0.6297261891403649
0.36999999999999994 -0.6408587988004847
0.3862785561825407 -0.6428754755265842
0.3974394481749037 -0.6360360721173195
0.38124732451051896 -0.5870693975617968
0.3914350324295228 -0.5803263007885291
0.4416538559903055 -0.6307470741025237
0.45259464426520435 -0.6229430856687096
0.4152523659749133 -0.5510585019326321
0.45558949174098723 -0.5831279576689742
0.43423106982438775 -0.5362307134053099
0.46280707897430834 -0.5515519990456641
0.4854836814529754 -0.5584850893648513
0.4951566487055551 -0.5499271708532717
0.504678786446249 -0.541201739198186
0.5140471941396579 -0.5323114522506018
0.5232590180780452 -0.5232590180780451
0.5323114522506018 -0.5140471941396579
0.5412017391981863 -0.5046787864462489
0.5499271708532718 -0.495156648705555
0.5962205683759899 -0.5182866329025008
0.6051751100639926 -0.507802211652366
0.613945309551007 -0.49716310892937154
0.5831279576689743 -0.45558949174098706
0.6309220529373614 -0.47543386829011813
0.6391234255562085 -0.4643503493110538
0.6471301149883035 -0.4531253847173264
0.654939682318483 -0.44176239374188997
0.7044832770741561 -0.4574967894126226
0.7123604007713978 -0.4451321819558921
0.7200205325897744 -0.4326319829244454
0.7274613391789284 -0.42
0.7346805539970924 -0.4072400810069231
0.7416759780014986 -0.39435611274014826
0.748445480318229 -0.3813520197812193
0.7999267012062586 -0.3901503206422789
0.8066139304626184 -0.3761302529492225
0.8130554573019149 -0.36199561233746214
0.8652745622452939 -0.36728726077991725
0.8715528232927802 -0.35213019781095717
0.8775656009073696 -0.33686587257258227
0.8833110635387538 -0.3214989347261286
0.9360633898433237 -0.32231247291258514
0.941545951132202 -0.3059268244311979
0.994556946201557 -0.3040665729116462
0.9997121637758517 -0.28666285004967906
1.004562859340631 -0.2691718069066215
1.0576223416408361 -0.26369486620363775
1.0620633706159064 -0.2451966492348127
1.1150882648365383 -0.2370193275322457
1.1190549891303367 -0.21752225472926112
1.1719212260845275 -0.20664133142364713
1.175349125308214 -0.18615701339787472
1.1982243631773002 -0.16839945216167915
1.2307572280352395 -0.1511179858223828
1.3326593397934863 -0.14006814077865554
1.334900895442939 -0.11678869528186182
1.3367358273481647 -0.09347367481712775
1.3880950533088576 -0.07274697917769202
1.439122790907498 -0.050255275251601464
1.489773065783023 -0.02600408559155247
1.54 0.0
1.589757835298662 0.027749326235280824
1.6889704976622717 0.058980149427226715
1.6577250276925926 0.08687768736328688
1.7856396499650853 0.12486408800198447
1.8031124035460595 0.1577518943732615
1.8498107253849885 0.19442294167783572
1.9453904572169913 0.23886391307408897
2.039952221607635 0.28669658797773473
2.1334068156854977 0.3378984444868987
2.22566552180759 0.3924448815272626
2.36572151210887 0.45984967885747313
2.5040578578785424 0.5322539284934641
2.6405428755679874 0.6096173572718744
2.82356056346315 0.7039927161950335
3.0523256110734556 0.8178681825239661
3.2298392983527515 0.9261415155451169
3.50007540682471 1.0700804392852163
3.766183804528808 1.2237072977247916
4.122460989613022 1.4194771534332034
4.566906137019514 1.6622178965627503
5.003991086025001 1.9208522095628098
5.7578117368597495 2.3263069451128144
6.590814750719472 2.797634879983201
7.8656263903027925 3.5020024968826404
9.615925620458855 4.483979757068821
14.928969109029163 7.281344748166578
16.537081088936105 8.426063675165988
16.387507323461683 8.713392205306135
10.023141843817475 5.555918248023023
9.924651127369668 5.729999999999999
15.909025101031201 9.559106670330607
15.739772664663267 9.835301544168281
15.607659269464339 10.135732441629656
15.469841103877078 10.434539578764134
13.688030660069051 9.584462251425984
12.507402733036688 9.087160000441635
10.390247985715279 7.829613451208151
9.936815602980763 7.7634912038565504
7.973517564548523 6.45682721217133
7.170175987593634 6.0164920266660085
6.573520443740345 5.714274142507318
6.435634188634233 5.794671051067714
6.370090741102977 5.940205716144362
6.40931762101738 6.1894060807896665
6.300321420372139 6.300321420372138
6.224138999312615 6.4452846110343165
6.144805224163111 6.589496851588725
6.062323293611257 6.732892118825191
3.516476395389119 4.045243349994058
3.2525053050138895 3.8761848821820286
3.0899631200547018 3.8157866707537273
2.8689824750175683 3.672130111807324
2.714185754415737 3.601846150313291
2.5039651747659355 3.446412396037276
2.3860779752203514 3.4076725042422065
2.270323188091232 3.365892544573469
2.102306675158005 3.2372683922693364
1.9924964335168502 3.1886608415481614
1.8592874504252959 3.094373955534625
1.7799999999999996 3.0830504374726018
1.6774412860523265 3.0261841867023094
1.5774244509605926 2.9667039120059946
1.4800090291509227 2.904681268854079
1.385252823853484 2.840189186305368
1.2932118809265403 2.7733018283321487
1.2242772956581591 2.749771827504228
1.1565641403282503 2.7246943662192233
1.0901051868403044 2.698105016789351
1.0177649767086523 2.651368411252053
0.9371351927123327 2.574757780953389
0.892056743212609 2.5907208971421283
0.8312557148686086 2.558342028833963
0.7630901493263423 2.495955413063523
0.7139007515660278 2.4896677924802457
0.6574003745604032 2.453451598774233
0.6023855200431726 2.4160363584272315
0.5488805725990309 2.377462958075974
0.5073045255953326 2.386680145790486
0.4560334989499424 2.346088968439917
0.4063367357406167 2.304450142048567
0.35823492494212883 2.2618062999628656
0.3187064011985494 2.267713877418196
0.2729873292275304 2.2233033796765613
0.23414375771954427 2.2277290456249323
0.19087107661737132 2.181666388820923
0.15276667749963474 2.184665270069015
0.11199894635989963 2.1370672043747883
0.07468492294335231 2.138696369820865
0.036475529453922254 2.0896816828768574
