# .PCD v0.7 - Point Cloud Data file format
VERSION 0.7
FIELDS x y
SIZE 4 4
TYPE F F
COUNT 1 1
WIDTH 180
HEIGHT 1
VIEWPOINT 0 0 0 1 0 0 0
POINTS 180
DATA ascii
4.71489017671731e-17 -0.77
0.012914780763589862 -0.7398872944157295
0.027570602394975854 -0.7895187533450857
0.03872860761977853 -0.7389858557183846
0.055107614257859115 -0.7880755997052612
0.06885303677064994 -0.786993811492479
0.08257748598144624 -0.7856722973409359
0.09627678129006652 -0.7841114597966444
0.10994674975845173 -0.7823117743058406
0.12358322738178244 -0.7802737890701589
0.14586446924022153 -0.8272385125302547
0.15073910634747048 -0.7754854749236546
0.17464582028691794 -0.8216439846163966
0.18895888564884672 -0.8184708544195975
0.20321439230372085 -0.815048410071837
0.21740799788611742 -0.8113776940828173
0.24531724667712926 -0.8555229093851038
0.24559223196709887 -0.8032959950089498
0.29047597471245057 -0.8939931253174442
0.3060340651897273 -0.8887874610633577
0.30439792755984524 -0.8363264324994584
0.30819643660895835 -0.8028791667875935
0.30343134066688887 -0.7510189221990978
0.3282141479309899 -0.7732240769000499
0.32945668089139835 -0.7399718206905067
0.36345170509700153 -0.7794246968515189
0.3769991862386066 -0.7729628798172835
0.3904318297760103 -0.7662656108019964
0.40374554399586615 -0.7593349298586771
0.4169362734118499 -0.7521729481398803
0.47999999999999987 -0.8313843876330611
0.5459403594046576 -0.908597338744239
0.5617144200871972 -0.8989309819258116
0.6045493288666801 -0.9309243304194207
0.6486637680260664 -0.9616835841638482
0.6366698443496611 -0.909258769160781
0.6818308926592688 -0.938459713474939
0.7281961780139784 -0.9663489671572243
0.7449503851440467 -0.9534930118641335
0.7929436927227951 -0.9792039114357833
0.8420517686893666 -1.0035182204858613
0.8922402794270899 -1.02640502910297
0.9100176246480473 -1.0106769626492562
0.961617687688123 -1.0312087192830302
1.0142012208701359 -1.0502361084944305
1.067731239591687 -1.0677312395916867
1.0862030985113633 -1.0489341393930858
1.1774794596068647 -1.0980173597006226
1.0478342039231259 -0.9434741549659899
1.049046316509653 -0.9119220502968051
1.118424886953708 -0.9384699101423473
1.173490401800026 -0.9502737904852545
1.3868989263478309 -1.0835641965731584
1.5892846649941128 -1.1976118960725761
1.6665750084123918 -1.2108376197224946
1.9741564267364704 -1.382319211606021
2.0808843071131546 -1.4035741877115744
2.1889301823375567 -1.4215078813892204
3.0020902603937483 -1.8759141953855454
3.008657225464414 -1.8077836429342895
3.0224286592076908 -1.745
3.0261841867023094 -1.6774412860523262
3.187440810220726 -1.6947923416570658
3.4392851833671 -1.7524033289946506
3.7839229349194934 -1.845542527982016
6.579794533886078 -3.0682085802374774
7.271821842835104 -3.237623678883369
8.063622516243377 -3.422804685566037
9.837420696953615 -3.974575956142825
11.585733092830274 -4.447346253857177
11.802539317071009 -4.2957730001704
11.828437380747454 -4.07285761225903
11.89771701885237 -3.865802599630592
17.70120103287579 -5.411800254417857
19.090657281335012 -5.474157886525602
20.19750902770442 -5.411906233093707
18.057203465996295 -4.502166477109815
18.084308402413964 -4.175091568622132
18.203326849656122 -3.869236566118502
18.31716324313341 -3.560495853726327
10.153367933555865 -1.790312711746052
5.343393922619695 -0.846310455867649
4.565135796898639 -0.6415879954259016
3.831228145335503 -0.4704156655438691
1.452001967237679 -0.15261155637077395
1.4046345243093612 -0.12288959727419788
1.4165409513689504 -0.09905419271665775
1.607793550954864 -0.0842608895511397
1.8088973969045634 -0.06316808903152685
1.8597167129908878 -0.03246147597334738
1.86 0.0
1.8597167129908878 0.03246147597334738
1.9588060209574276 0.068403013536902
1.9073824113812359 0.09996167642402286
2.0051037410222463 0.14021051222569203
1.9525416082598213 0.17082525578541025
1.9989890096902292 0.21010221116798372
1.7468812268887268 0.2144900443930595
1.8914120112963992 0.26582062283372493
1.7877158964771993 0.28314638172281786
1.979463583554538 0.34903283711052996
5.359684421624245 1.041817114755935
5.53631542015334 1.1767801700285183
2.0559208366968464 0.4746467246655553
5.152270306525541 1.2846052656342362
1.7483257455832135 0.46846247163556287
4.815921096650977 1.3809431526431655
1.4918354193023355 0.4560998593674693
1.436095339605682 0.46661566150617056
1.3804571203750025 0.4753295055074488
1.3249665953081307 0.48224840208919295
1.3163484013610545 0.5052988088588735
1.30732923493917 0.5281952967164361
1.2518866006953189 0.5313943347454125
1.3337763681581973 0.5938354988906684
1.323209369073509 0.6170226621414211
1.3122393075967838 0.6400218743120533
1.300869525315017 0.6628261296197383
1.2891034855740333 0.6854284816674008
1.3644067431374574 0.7563030075842858
1.3943009000929465 0.8049999999999998
1.337180989095295 0.8034593968596847
1.3229550300040247 0.8266740522037996
1.3083260859948613 0.8496368946234425
1.2767178617347643 0.8611570713449501
1.2778771890908271 0.8947792407076323
1.262066511224918 0.9169449935762581
1.2858031711761413 0.9689221872747982
1.2686973133068224 0.9912149752743099
1.3289195940914205 1.0761378686952217
1.3099359977334524 1.0991668125639822
1.3282888611920787 1.1546638910232927
1.3450921341140833 1.2111263975095337
1.2871825148497402 1.2003171137099973
1.3020050386129582 1.2573316505307852
1.2445079348883237 1.2445079348883235
1.2573316505307848 1.302005038612959
1.3026168677193721 1.3968855700926155
1.3114959884633623 1.4565638579356925
1.3186786482709194 1.5169662562477715
1.356281856438598 1.6163537749810435
1.3907980642201405 1.7174925748199057
1.391394934235988 1.7809043031511913
1.4202834546388337 1.8847798037116112
1.4753409832541073 2.030632655881118
1.5257133206937823 2.1789444378087186
1.5713320587527986 2.329595578879667
1.5848995918937292 2.440531352721184
1.621552948553607 2.5950271742386635
1.6532722204612742 2.75150703525378
1.7299999999999995 2.996447897094158
1.7744032101015939 3.2011081281301887
1.8356338104928325 3.4523250880784047
1.888600478916515 3.7065871406236104
1.9770538720187383 4.053561148809243
2.096186578233869 4.495286623701784
2.1394347425787097 4.80524910720008
2.2506113000982166 5.302107955886056
2.419958593466793 5.989607700501446
2.315056954062639 6.030929555171923
2.2094501258838206 6.070414330276968
2.103170277793231 6.108049998371587
1.9962497836621604 6.143825095266692
1.8741026272727412 6.129913485723058
1.7806173185778147 6.2097505557615404
1.6590300791071595 6.191584546512927
1.5628154455738532 6.268110391742937
1.4531838110613688 6.29443061851262
1.249549261814733 5.878667080410172
1.1086002631377259 5.7032539358309275
1.000213503361518 5.672492657350318
0.9088842418837416 5.73846925885775
0.6137533752338877 4.367082183150325
0.5252568700761856 4.277873913574098
0.3982534450497605 3.789128421353121
0.22747648857138772 2.600068162019456
0.18555222015937373 2.6535203736911326
0.14183044141837756 2.706286039184895
0.09283266122865289 2.658379599870795
0.04729602144503795 2.70958725387382
