# .PCD v0.7 - Point Cloud Data file format
VERSION 0.7
FIELDS x y
SIZE 4 4
TYPE F F
COUNT 1 1
WIDTH 179
HEIGHT 1
VIEWPOINT 0 0 0 1 0 0 0
POINTS 179
DATA ascii
5.633375276077825e-17 -0.92
0.01518359360043673 -0.8698674947860604
0.032107536966301 -0.9194395608575682
0.04553228193136125 -0.8688076952364793
0.06417595584459543 -0.9177589262390383
0.0801832833278455 -0.916499122244406
0.09616618620624119 -0.9149601437388115
0.10846371563058127 -0.8833660749607766
0.12386405985445827 -0.8813385811799976
0.13922667388580554 -0.8790426231296726
0.15454687812356807 -0.8764789001808652
0.16982000588512497 -0.8736481932684209
0.1912787555523387 -0.8998957926751012
0.20020643836604 -0.8671893576588594
0.21531048708370423 -0.8635631963856368
0.23034895014124346 -0.8596739853972708
0.2590991144679792 -0.9035859941820197
0.26021081720323574 -0.8511112328071015
0.29047597471245057 -0.8939931253174442
0.28975565746686954 -0.8415115322833919
0.32149893472612867 -0.8833110635387538
0.3368658725725823 -0.8775656009073696
0.35213019781095745 -0.87155282329278
0.36728726077991725 -0.8652745622452939
0.4026692766450424 -0.9044100030661747
0.41839207912329246 -0.8972447091662834
0.43398743532118667 -0.8898061058361753
0.4494505947421514 -0.8820964589464843
0.46477684715803197 -0.8741181169303376
0.5042020050561906 -0.9096044954249716
0.5199999999999999 -0.9006664199358163
0.5356395979064564 -0.8914539927301968
0.5511160348025331 -0.881970020002683
0.5664245964156281 -0.8722173906632409
0.5815606196095768 -0.8621990754572433
0.6251983156226403 -0.8928757282750012
0.6112966623841721 -0.8413776741499454
0.6559783752357327 -0.8705127059515493
0.6710710081049677 -0.8589317214313269
0.7174252457968145 -0.8859463960609467
0.7649172555269818 -0.9115928873115838
0.7479072930491782 -0.86036892145396
0.7628088912490983 -0.8471851010442294
0.8115780484743733 -0.8703109049268126
0.8266434608462067 -0.8560143624029948
0.8768124086713189 -0.8768124086713188
0.9279483424368601 -0.8961092978921065
0.94344627508873 -0.8797778844806231
0.9586568248658387 -0.863178482202927
1.0113108374985145 -0.8791190988472798
1.0648017759353794 -0.8934747774642895
1.0802328864251896 -0.8747553435592739
1.150495700265814 -0.8988657539754609
1.1899669099704664 -0.8967043844965519
1.2458861713374192 -0.9051892885304087
1.2614941482050475 -0.883307711980611
1.3596216189902683 -0.9170763616920247
1.3754197314304955 -0.8932080174246442
1.43320128250436 -0.8955635565541162
1.4914711032216754 -0.8961662503434941
1.550185472774145 -0.895
1.6093002611364882 -0.8920497012532602
1.6687709505033719 -0.8873012536653335
1.7731029831348522 -0.9034410944816982
1.7616363307463674 -0.8592074477065917
1.8669940412954988 -0.8705936191858408
1.9732581885080183 -0.8785511490437284
2.080340968802515 -0.8830523503857584
2.188153896777618 -0.884071560461552
2.3432868705079763 -0.8995035533587037
2.386819256796207 -0.8687311640471986
2.6096312686541143 -0.8985681063017524
2.7675744624188967 -0.8992394536310969
2.926292553246889 -0.8946574164515744
3.0856500439620036 -0.8847959121725671
3.293807067645723 -0.8825729437995956
3.5512823581701474 -0.8854341378947835
3.8585054565495316 -0.8908061752017049
4.215816159162702 -0.8960993874245429
4.525301315693731 -0.8796294686858719
4.983127230241772 -0.8786597789946675
5.422408989867306 -0.8588252130708675
5.505890462203131 -0.7738024413379636
6.411848139602941 -0.7872759583972524
10.104342456941657 -1.0620091867993584
10.051604503745713 -0.8794014443238699
11.681475028542543 -0.8168483075437059
12.692581386730634 -0.665190003847817
23.945404215377536 -0.8361919409919244
30.01 0.0
5.489163846408588 0.09581371134068661
5.606582539577127 0.19578617650103072
5.652243166710888 0.2962215123350625
5.745968929496587 0.4017972887661623
7.033134568527723 0.6153195437984675
7.1705028656052505 0.7536502201597826
7.156257753333932 0.878677965951113
7.139832775626722 1.0034380579220716
5.491547173708966 0.8697756256236836
5.2785695561454355 0.9307542322947467
4.770708111555647 0.9273317175300081
4.313630919236083 0.916890556506319
4.004660966267317 0.9245488333532855
3.6968267171115468 0.9217224222347344
3.486992232903536 0.9343367528201004
3.2298392983527515 0.9261415155451169
2.9741077910450406 0.9092760016877112
2.8912118095372668 0.9394116628998401
2.8932868413339095 0.9962385526388995
2.7345055264869935 0.9952786170776962
2.623360998457137 1.007013938222294
2.5126682458759935 1.015183868157122
2.356492424838247 1.0002716889325411
2.2473218258007983 1.0005721419664688
1.9394986642584309 0.9044030801250967
1.8515157353762839 0.9030445623854998
1.7909231136186192 0.9125209044764889
1.7305772820034966 0.9201642630603463
1.7142546259932157 0.9502268556828206
1.6974097914175 0.9799999999999996
1.7057629283972033 1.024925769071008
1.602810901735645 1.0015474094007573
1.54315384501958 1.0021358244276501
1.4839772548735248 1.0009552972126368
1.4253245570628454 0.9980229992508205
1.3672387204936611 0.9933570763742796
1.30976223647756 0.9869766379693594
1.252937098234688 0.9789017457677968
1.235662078716584 1.0006194217692412
1.1414062202472772 0.9577535384329436
1.1245172745319303 0.9775279531958556
1.1072857899613173 0.9970046034746989
1.0531493303316055 0.9820776384899977
1.0358493124876573 1.000308053460956
0.9828784258493011 0.9828784258493009
0.965575134938006 0.9998823224707253
0.9138778024837481 0.9800139601696884
0.8096480336942186 0.8992052388276469
0.7807102444987036 0.8981044004650987
0.7327778750426549 0.8732906651556349
0.7174252457968145 0.8859463960609467
0.6710710081049677 0.8589317214313269
0.6559783752357325 0.8705127059515494
0.6406859249987957 0.8818285238686928
0.5965194938050878 0.8519181260605516
0.5815606196095767 0.8621990754572434
0.5936565481663797 0.9141509190605122
0.5511160348025331 0.881970020002683
0.5356395979064564 0.8914539927301968
0.5199999999999999 0.9006664199358163
0.47996152404387377 0.8658735100680017
0.48825042529732626 0.918265496573284
0.4494505947421514 0.8820964589464843
0.43398743532118644 0.8898061058361754
0.41839207912329246 0.8972447091662834
0.4026692766450424 0.9044100030661747
0.38682381720438097 0.911299804917916
0.35213019781095745 0.87155282329278
0.3368658725725821 0.8775656009073696
0.32149893472612867 0.8833110635387538
0.30603406518972714 0.8887874610633578
0.29047597471245057 0.8939931253174442
0.2602108172032355 0.8511112328071017
0.24531724667712926 0.8555229093851038
0.2432899023963697 0.907970276711724
0.2274065818636876 0.9120779826994366
0.20020643836604 0.8671893576588594
0.1850414048278057 0.870551364653087
0.16982000588512497 0.8736481932684209
0.1545468781235679 0.8764789001808653
0.13922667388580554 0.8790426231296726
0.12386405985445807 0.8813385811799976
0.10846371563058127 0.8833660749607766
0.09616618620624139 0.9149601437388115
0.07756861104541575 0.8866132813016535
0.06417595584459543 0.9177589262390383
0.04553228193136106 0.8688076952364793
0.031060552065225962 0.8894578360469952
0.015183593600436538 0.8698674947860604
