# .PCD v0.7 - Point Cloud Data file format
VERSION 0.7
FIELDS x y
SIZE 4 4
TYPE F F
COUNT 1 1
WIDTH 180
HEIGHT 1
VIEWPOINT 0 0 0 1 0 0 0
POINTS 180
DATA ascii
9.613477373306724e-17 -1.57
0.02740027810653525 -1.5697608813955344
0.0547922098229267 -1.5690435984199804
0.08478424911356923 -1.6177798463024098
0.11300548746548325 -1.6160537614209154
0.14119230325120619 -1.613835410908628
0.16933611049359862 -1.611125470496603
0.19742833631633894 -1.6079247656589417
0.22546042355530607 -1.604234271361344
0.2534238333651741 -1.6000551117641233
0.28999245670377377 -1.6446289475303872
0.3091105725100028 -1.5902360371852158
0.33681693912477034 -1.5845991131887651
0.37566826075425475 -1.6271980081913429
0.404009565651445 -1.620393862880914
0.43222780532120963 -1.613096129902744
0.4603143842143886 -1.6053070322169924
0.4882607468869704 -1.597028942458269
0.5160583806061623 -1.5882643822129063
0.5436988179434518 -1.5790160212508588
0.5711736393538669 -1.569286676712467
0.6163928732179167 -1.605758333575187
0.6330851428728915 -1.5669407142178704
0.6720575410015508 -1.5832683479381975
0.7077217589518926 -1.5895690962981253
0.735355775428817 -1.576975549443771
0.7627657954129948 -1.5639016405605504
0.8126429945337889 -1.5949016782971785
0.8403540973867447 -1.5804761912174792
0.8678092202409434 -1.5655692757795183
0.8949999999999998 -1.5501854727741453
0.9476700578344999 -1.5771878332918865
1.0015474094007573 -1.6028109017356449
1.029367776178401 -1.5850873734168511
1.084834232733249 -1.6083328907567807
1.1127382865210294 -1.589154965920644
1.1696926520620214 -1.6099438188061455
1.1976118960725761 -1.5892846649941128
1.255949409664343 -1.6075419373577127
1.2838135977416683 -1.5853777613722206
1.3434261042448672 -1.601032886118664
1.4039663220396856 -1.6150785016767322
1.4653960279258995 -1.6274871677954934
1.493576408536872 -1.601664606545983
1.556034749828154 -1.6113211527585787
1.5839191898578666 -1.5839191898578664
1.6472881427755113 -1.5907676683511038
1.7113676617888591 -1.5958761625462463
1.7761161328909727 -1.599222149197671
1.8414913757435636 -1.6007840307368377
1.9074506633662554 -1.600541148119483
1.973950742100706 -1.598473793266587
2.04094785184141 -1.5945632210934546
2.108397746524853 -1.5887916611214075
2.1924360547561075 -1.5928980337126022
2.2608596422376173 -1.583070964328887
2.329595578879667 -1.5713320587527986
2.4405313527211843 -1.5848995918937285
2.595027174238664 -1.621552948553607
2.6657903051835694 -1.601768412970268
2.7799415461480477 -1.605
2.8949912306314 -1.6047198430153757
3.010851291648941 -1.6008980290998878
2.7264799640164057 -1.3892109292030133
3.2895862094549515 -1.6044383972480234
3.4530326686096364 -1.6101755772320647
2.658417281739969 -1.1836036313505784
2.5866186382013576 -1.097954471054859
2.512668245875994 -1.0151838681571212
2.558010368602333 -0.981928181754123
2.6875208954476975 -0.9781776099114127
4.689772134972611 -1.6148180461074972
4.95500444989775 -1.609978540693476
6.703696339300879 -2.0495256501063843
6.738444488527615 -1.9322178642771637
6.722843750971915 -1.801380553913544
6.704743468567136 -1.6716802985937034
6.927771160623023 -1.5994019963848793
7.590425381694331 -1.6133947207458128
7.911915098588172 -1.5379205027349516
7.888310101627786 -1.390921903112112
3.417401658459177 -0.5412632490391988
3.4263275178458334 -0.4815389293218263
3.4342096846789745 -0.4216679281818101
3.6896762318162937 -0.38780059872299405
3.646072595015789 -0.31899001845642855
3.7009626264639484 -0.25879651759070443
3.7548470506771974 -0.19678319547346906
10.553567133321652 -0.36853868517841076
10.658376430367131 -0.18604265262144248
12.56 0.0
14.1578433634145 0.24712607515193488
14.10140456923944 0.49243189847228935
6.30135236430136 0.33023988389297604
6.1948727521135085 0.43318770195101874
6.136559340245153 0.5368793753255751
6.374885349310632 0.6700274495456596
14.153708122405252 1.7378568369574023
14.121222660254793 1.9846084196905327
8.405227778464623 1.3312572974923647
8.08527165223023 1.4256515386454984
8.255484612794854 1.6047036511167423
8.030591802024544 1.7069549816138048
8.194452244843829 1.8918383670319054
7.529494835901732 1.8773139098534224
7.060917790173088 1.8919672196994277
6.738444488527615 1.9322178642771637
6.703696339300879 2.0495256501063843
6.714459005043784 2.1816599802871286
6.7226370725111435 2.3147895781903842
6.728199164827104 2.4488642262117883
5.097349128674722 1.9566890045173397
4.737909496836283 1.914239692355311
4.47365358777886 1.8989532844578711
4.25712183261452 1.8953927567332296
4.087448119535291 1.9060083604505542
3.873802339549409 1.8893796426609242
3.7065871406236104 1.8886004789165147
3.5847672270072426 1.9060545449107171
3.4197630549150375 1.895605615163178
3.2562555182294894 1.8799999999999992
3.137232320569731 1.8850393541707986
3.061453627124698 1.9130085438818696
2.9437336934884377 1.9116830129027453
2.78556624378494 1.8788881556617092
2.752350868811012 1.9272168261395155
2.596944551943581 1.8867906598588386
2.4837564362470803 1.8716447220028707
2.411312906036569 1.8839241144965144
2.3392093439854826 1.89425437706001
2.2674915516321748 1.9026513246721566
2.196204878448267 1.909131774362376
2.147688545629669 1.9337874523771008
2.040476827517486 1.9027754245743709
1.9709910529279038 1.903363935057653
1.9374725804511406 1.9374725804511401
1.8338980980117525 1.8990570728940395
1.7663757525618708 1.8942060871936515
1.733048270469443 1.9247450979864507
1.6663899336358885 1.916962333765841
1.6005411481194833 1.9074506633662554
1.5040757346091114 1.8573788478821605
1.4714309260283236 1.8833457011200654
1.4383379053333951 1.9087388690130302
1.404806752979011 1.9335506165561245
1.3421688610614475 1.916815783636241
1.2805517489480103 1.8984960411510456
1.219991438433661 1.8786220721977498
1.1870191518823792 1.8996277353903943
1.1279333840530188 1.8771963885376257
1.0949999999999998 1.8965956342879207
1.0374925873271614 1.871686173278307
1.0281427225011004 1.93365522836105
0.9715396694426304 1.9067539617631075
0.9161956967891713 1.878479556765259
0.8832721670380618 1.8941832749065983
0.8500795840284228 1.9093100064730355
0.7970915021181184 1.8778299010429784
0.7641974505684609 1.8914550633162461
0.7310706170724124 1.9045040700542917
0.6806200852180809 1.8699883153639576
0.6641590350925993 1.9288578942226065
0.6149438188061455 1.8926024674273556
0.5818196923982457 1.9030464643664406
0.5347364702849784 1.8648476901203386
0.5021089474988907 1.8738961030007923
0.46932847746335526 1.882373708975433
0.43640504542709835 1.8902779256833564
0.40958603091098567 1.9269507734455973
0.37589372089179346 1.933805551391898
0.34208691000385255 1.94007127343405
0.30035417287724336 1.8963616139426644
0.26721235384332526 1.901314691983815
0.23398913933788318 1.905688611151338
0.20069464947389506 1.9094820391070846
0.1673390260755036 1.9126938203361514
0.13393242958872087 1.9153229764988624
0.10048503598645199 1.9173687067287817
0.06700703366880208 1.9188303878766637
0.03350862035958408 1.9197075747002712
