# .PCD v0.7 - Point Cloud Data file format
VERSION 0.7
FIELDS x y
SIZE 4 4
TYPE F F
COUNT 1 1
WIDTH 178
HEIGHT 1
VIEWPOINT 0 0 0 1 0 0 0
POINTS 178
DATA ascii
1.2246467991473532e-16 -2.0
0.03350862035958451 -1.9197075747002712
0.0739869330093023 -2.118708553280483
0.18683936378730995 -3.565107439073828
0.2560062586409404 -3.661060064453555
0.3111460016091395 -3.5564150721875314
0.3888458833556709 -3.699621450769977
0.4716343589779208 -3.841153606851916
0.5942691410994795 -4.2284446535265054
0.6132231029577052 -3.87173829513294
0.6633360386876741 -3.7619656165066346
0.7288903623384015 -3.749815840770076
0.794222658923841 -3.7365238348031373
0.8480654748763716 -3.673375144240337
0.9120455464107471 -3.6580148880605066
0.9757478000365032 -3.6415403651097877
1.0391528314300869 -3.623956593687462
1.1168599120408544 -3.653084167778795
1.3040517162622782 -4.013458498765548
1.422732834977775 -4.131916175369014
2.1786683129845104 -5.985841994406236
2.2828038386035634 -5.9469073167871755
2.3862440000593605 -5.9061611535904355
2.46942073205221 -5.817590673819423
2.5705755842390583 -5.773607292301237
2.6920783272882556 -5.7731806034234605
2.7924242050464234 -5.725318074925694
2.8919194833409136 -5.675711559079904
2.9905338549461247 -5.6243761665113645
3.0882372809691674 -5.571327534477951
3.184999999999999 -5.5165818221068745
3.1262811147040295 -5.203005515261822
2.7926745225089897 -4.469213466744365
2.5434642935201763 -3.9165915523051296
2.359794052646552 -3.4985385561822753
2.191061986860996 -3.1291608091839485
2.039614825454882 -2.8072889704810677
1.907753623391993 -2.5316745668499183
1.7977315079509224 -2.300991400531628
1.7432174832080496 -2.1526943132358096
1.6519641568944061 -1.9687342188157733
1.5876628501570276 -1.8263971841391082
1.5189264764346082 -1.6869387538336849
1.479936441335622 -1.5870375325135997
1.4032099083271745 -1.4530663966840751
1.3576450198781713 -1.357645019878171
1.3451654266332778 -1.299011152758325
1.316436662914507 -1.2275970481124974
1.2633462033115703 -1.1375220308100589
1.2452708073675738 -1.0824973978343368
1.1873688868344159 -0.9963207950141358
1.1657189421854564 -0.9439805865747561
1.1820161304100831 -0.9234922129884873
1.1580214895685745 -0.87263178357047
1.1326237921249263 -0.8228993532094624
1.105855259790139 -0.7743281890739122
1.0777488443215544 -0.7269507745119709
1.0483382099317802 -0.6807987937687837
1.0176577153877113 -0.6359031170798458
1.0286007608425347 -0.6180456898920649
1.0392304845413263 -0.6
1.049543648567275 -0.5817715442956044
1.0595371114307124 -0.5633658753430689
1.0692078290260414 -0.5447885996874562
1.1234925578739587 -0.5479639334863468
1.1328847337958123 -0.5282728271758742
1.1876090949353812 -0.5287576359985402
1.1966563094881726 -0.5079504670360557
1.2053390109368236 -0.48698857144068547
1.2323261629763063 -0.47304569339979646
1.362554300139567 -0.4959292078222197
1.4655537921789412 -0.5046306394085929
1.474137600257488 -0.47897634128116845
1.5300876095408569 -0.46779472755637874
1.586081798298226 -0.4548016370980485
1.5937776133769626 -0.4270514244191591
1.649502734669194 -0.4112672225194349
1.7051476133741617 -0.3936643451017635
1.76066568132085 -0.3742410434719669
1.7669289302057951 -0.34345619167778074
1.8711347307231951 -0.32993153756716764
1.8766078471307617 -0.29722548357643863
1.9310227340460622 -0.2713875468721275
1.9850923032826442 -0.24373868681029487
2.0089342286439122 -0.21114749580065983
2.062123025049913 -0.18041238748765218
2.114835786550828 -0.14788372433754537
2.1170946136796966 -0.11095222723504108
2.1686780946314377 -0.07573190784442721
2.2196618832471886 -0.03874434229076945
2.32 0.0
2.3696390375206473 0.04136220325636198
2.4684953427371665 0.08620175685517752
2.6164093810569837 0.13712020535651304
2.713374216706722 0.1897376085840211
2.8092690486187224 0.24577919454839636
2.953730029243772 0.31044953590493124
3.096743993120925 0.38023235142406003
3.2876899882220134 0.46205469518741715
3.526047375924642 0.5584710401936241
3.712725228856024 0.6546536298043275
3.9952226366319925 0.7765926111825376
4.2745050152067305 0.9085740888736086
4.842619221982619 1.1180067400890095
7.927316083674891 1.9765018870492863
7.843317709467233 2.1016106462324697
7.805444971019148 2.2381753292340325
7.717379380621697 2.3594396571124854
7.675026086501889 2.4937671446058256
8.670405338245736 2.985459976372127
10.261443418982118 3.734859965116303
12.668686387567028 4.863053075329725
14.436252615604879 5.832624659485752
18.980810078189318 8.056875869448827
13.814464491618194 6.737764526148122
12.090958533236153 6.16065108146565
12.025746214738584 6.394202685143835
9.638309172676141 5.342602015114634
4.953665309646989 2.859999999999999
4.988713690086294 2.997521595976516
4.893237514822578 3.057634154625592
6.810005011716842 4.422468964322021
6.690333210519187 4.512686731008927
6.651514599626612 4.657440663170496
3.5758551151372675 2.598010815132731
3.2504465258924817 2.4493871442288375
2.9708005410973417 2.321043761977732
2.7200108650993986 2.2026213686744303
2.681155550916423 2.2497566339028876
2.6792190097908404 2.3290095529163004
2.987442198419124 2.6899050375626103
2.9766095655900244 2.775733325454369
2.92771298737831 2.8272595677681194
2.913279938488576 2.9132799384885755
2.861992486291068 2.9636799773952434
2.8439331614606185 3.049744935751941
2.823731158834382 3.136071163514603
2.801372053789466 3.222609907551236
2.7447030933615233 3.271009772118036
1.227174762547183 1.5154346248410933
1.138973729352468 1.4578198941724356
1.0832670416736867 1.4375439180851273
1.028624191511828 1.415779740156158
0.9464011199792257 1.3516008730768365
0.894708645553195 1.326460116088067
0.8714224560240436 1.3418729087126784
0.8213748595614676 1.3144745490424603
0.7725571123650814 1.2857509510531684
0.7249999999999999 1.255736835487436
0.7029739493571888 1.2681985753521239
0.6572601879002469 1.2361266300024978
0.6128871746483883 1.2028588076542968
0.5698824908258004 1.1684322601889172
0.5282728271758743 1.1328847337958123
0.5084208038447504 1.1419318220532508
0.4884139106115921 1.1506310668155504
0.4495279120990946 1.1126206254801447
0.4300415394543602 1.1202965117966421
0.3933231648245191 1.0806465139037944
0.37440337762573 1.0873463619392143
0.3399186938124422 1.0461621679246689
0.32160887519501025 1.051935231559339
0.3032010913986991 1.057387865532151
0.2847009496127731 1.062518408917975
0.25401799037965106 1.0188105125897964
0.24744615977825168 1.0718070712637588
0.22870285989953518 1.0759623608071864
0.21943034468302663 1.1288712609648135
0.20837781320031626 1.1817693036146497
0.1877213580482771 1.1852260087141653
0.17396637620008154 1.237835085926963
0.15233667925643435 1.2406826895516525
0.13588700224794978 1.2928784639787554
0.1176602527093385 1.3448628424238567
0.09556636902945188 1.3666627488559593
0.06646666442853856 1.2682595091383089
0.04257738597705132 1.219256808963297
0.021291935853485718 1.2198141880907973
