# .PCD v0.7 - Point Cloud Data file format
VERSION 0.7
FIELDS x y
SIZE 4 4
TYPE F F
COUNT 1 1
WIDTH 180
HEIGHT 1
VIEWPOINT 0 0 0 1 0 0 0
POINTS 180
DATA ascii
3.91886975727153e-17 -0.64
0.01256573263484419 -0.7198903405126017
0.023382662790675725 -0.6695918541027942
0.03506509068277246 -0.6690817882855645
0.04673683740856406 -0.6683679136740822
0.05839434764093095 -0.6674504477214696
0.07003407038932782 -0.6663296698967431
0.08165246008144883 -0.6650059215996857
0.09324597764324387 -0.6634796060568522
0.11263281482896625 -0.7111356052284992
0.11634427903684338 -0.6598211945181794
0.1278420269022851 -0.6576902129099349
0.13930083284789885 -0.6553588924916498
0.15071720641038966 -0.6528279434061076
0.16208767005177735 -0.6500981366049177
0.18634971247381493 -0.6954665949281291
0.1984588961882394 -0.6921084210755896
0.19588904216423364 -0.6407241864952338
0.2070413862312148 -0.6372078659177529
0.24743179738743915 -0.7185941174554807
3.9708538640110147 -10.909831327324396
3.891875932061962 -10.13868343175961
3.806002989105668 -9.42018796239856
3.735389588357457 -8.800026399005331
3.6850339862667516 -8.276721846241964
3.765528712109632 -8.07520238249655
3.577108557798872 -7.334159417801202
3.5229662779788837 -6.914210627701735
3.502257858382746 -6.586789042727594
3.4469963999514572 -6.218546117761104
3.4299999999999993 -5.94093426996125
3.4044016751554587 -5.6658758576409625
3.3967824837348437 -5.435988296362691
3.354976455692567 -5.166210698543812
3.3327897046856516 -4.941063932428048
3.3038002733820253 -4.7183157751045925
3.2680860027461502 -4.498134488724707
3.2558192752525814 -4.320618109355855
3.238379360212963 -4.144936563971357
3.215827198264669 -3.9712158630451215
3.1882265440452353 -3.799580437870131
3.1884468808938657 -3.6678885598826723
3.151605155950222 -3.5002121279985268
3.144012439888119 -3.3715405644643757
3.1329092507700773 -3.244222499527316
3.0829855659733476 -3.082985565973347
3.064387549442654 -2.959244658155328
3.0789990838167083 -2.8712130958631183
3.0914824739859608 -2.78358332245285
3.064120895704454 -2.663599657701459
3.033535994751153 -2.5454389343586956
2.9997834112239077 -2.4291767094523724
3.002320971241611 -2.345670220990758
3.002869517777821 -2.2628244870517014
2.9610021994123077 -2.151294023390452
2.95713887988326 -2.0706109352272764
2.9513737582959485 -1.9907267363558585
2.943733693488438 -1.9116830129027444
2.934246412701234 -1.833520654246889
2.922940495394203 -1.7562798354432843
2.9098453567157136 -1.68
2.9824532013453395 -1.6532008050400095
3.010851291648941 -1.6008980290998878
3.0383322474823347 -1.5481076041118547
3.019947995565201 -1.4729270532113001
3.0270680087024107 -1.411544994213936
3.0238354647970094 -1.3462982885808985
3.000845822254955 -1.273783478875032
3.0040756887963913 -1.2137253626675546
2.9967931690560174 -1.150361118040414
2.9976194603070474 -1.0910442572088834
3.0162042561618208 -1.03856241271833
2.986317461166782 -0.9703133623373349
2.9549816959257797 -0.9034285675932564
2.970298640449405 -0.8517194294745272
2.984710803233221 -0.7997508493667889
2.80415464893763 -0.6991542782830394
2.81592948722933 -0.6501085470537695
2.7779391860840077 -0.5904692019224367
2.7878212009913654 -0.5418975468693874
2.7968540185546704 -0.49316082457408217
2.805034887290191 -0.44427388071425566
2.7925559538512283 -0.39246814470738445
2.7692037630792887 -0.3400154681003614
3.043236999826916 -0.31985709759901937
3.2974044506836777 -0.2884855084947482
3.6012062214379656 -0.2518208702162919
4.004504434365841 -0.20986718453420505
4.407313547154213 -0.1539067804580295
4.539308536010016 -0.07923392522526726
4.56 0.0
5.3091912612804375 0.09267227818197557
14.651069524099944 0.5116266216586649
16.537305095535743 0.866683435383151
16.519660672302688 1.1551672052027164
18.190515187155274 1.5914638625722406
24.37573165547638 2.5619926346901902
22.540723103774425 2.7676527887308984
22.439474437683984 3.1536624677550824
22.331633380856065 3.53698325455962
5.377050331446656 0.9481190500614397
5.556009858313778 1.079978913831244
7.3947958615475695 1.571812382582261
7.317519186537116 1.6893824181224268
7.335435690646533 1.8289295307334887
7.302399246745355 1.956671980975058
7.363264590887523 2.1113821455582134
8.185968711043584 2.5027017924266266
5.287874230601053 1.7181344887247074
3.9333572744931584 1.3543635225417718
3.392290361037129 1.234692717405664
3.090151211705738 1.186197912994944
2.8835417877027085 1.1650265055234867
2.7246943662192233 1.1565641403282507
2.4757081902114484 1.1022563027354189
2.410778713517489 1.1241645762302603
2.255973056210909 1.1003115784405846
2.147325723293967 1.094117104372308
1.9954615598611745 1.0610057318961135
1.889178567421095 1.047188779732088
1.8273136019851655 1.0549999999999995
1.7229062744112453 1.035226530569209
1.5773694588509526 0.9856498314737612
1.5179937279812175 0.9857966533771992
1.4591061276968735 0.9841795101085143
1.359792393519726 0.9521368843427368
1.3429682106624128 0.9757235188055053
1.3656667221808705 1.029103689590003
1.3080978509871584 1.0219980490405927
1.2123476998728748 0.9817398100377462
1.1567271091096567 0.9706092906266744
1.1396114661363856 0.9906491337756659
1.0849914451969953 0.9769306852839331
1.067776404363989 0.9957176056912478
1.0502361084944305 1.014201220870136
0.997020561473032 0.9970205614730319
0.9100024653012863 0.9423351384436333
0.927517769684998 0.994641034202072
0.8431045640121615 0.9363624801015166
0.813513195948229 0.9358398794762373
0.8099123882050397 0.9652159983299123
0.7929436927227951 0.9792039114357833
0.7449503851440467 0.9534930118641335
0.7281961780139783 0.9663489671572244
0.7112201552738925 0.9789105631936864
0.6653486661672132 0.9502163713752305
0.6486637680260663 0.9616835841638484
0.6045493288666802 0.9309243304194207
0.5617144200871972 0.8989309819258116
0.5201884556591548 0.8657389737091333
0.47999999999999987 0.8313843876330611
0.48965771644880046 0.8833659042107898
0.450692700274455 0.8476296891445699
0.4494505947421514 0.8820964589464843
0.44275485825696803 0.9077819867621587
0.44797535744514144 0.960686254258849
0.4108040095065584 0.9226809122190268
0.39463843977416646 0.9297099019869648
0.35962232967927565 0.8900965003841158
0.3619516290407532 0.9429162307621738
0.32833933759264206 0.902104915954472
0.3125454282788703 0.9076978325753441
0.29665631459994957 0.9130142556433474
0.2806768365338271 0.9180525657245141
0.2646118615843192 0.9228112281007861
0.2484662832984201 0.9272887932375055
0.2201489249956976 0.8829691109111568
0.19345790673572402 0.8379582557153022
0.1850414048278057 0.870551364653087
0.16409573602382863 0.844199377764991
0.1580198416769065 0.8961750552411094
0.1345336399345986 0.8494119729118185
0.1196888668256561 0.8516305391177506
0.10480763532842684 0.8535896904115369
0.08466805524679949 0.8055627352483015
0.07059615162560309 0.806917705454314
0.05859543794506538 0.8379538022182523
0.043962203244072746 0.838848809193842
0.029315577230100906 0.8394882946960404
0.014660021407318036 0.8398720639313686
