# .PCD v0.7 - Point Cloud Data file format
VERSION 0.7
FIELDS x y
SIZE 4 4
TYPE F F
COUNT 1 1
WIDTH 180
HEIGHT 1
VIEWPOINT 0 0 0 1 0 0 0
POINTS 180
DATA ascii
7.164183775012016e-17 -1.17
0.02041931553162181 -1.1698218033329777
0.04083241114192626 -1.169287267612342
0.06123306880424444 -1.1683965556628513
0.08161507428062678 -1.1671499388039943
0.10197221901476002 -1.1655477967673422
0.12229830202315453 -1.1635906175808797
0.14258713178402255 -1.1612789974203466
0.1628325281232766 -1.1586136404276373
0.18302832409707018 -1.1555953584963112
0.20316836787030856 -1.1522250710242834
0.22324652459055755 -1.1485038046337668
0.24325667825677855 -1.1444326928585524
0.25644420195200623 -1.110781873855168
0.2878870557636045 -1.1546519142684357
0.30281828276994927 -1.1301332167582099
0.328008453422229 -1.1439014181665994
0.3566934797617389 -1.166691802274903
0.36773022330618743 -1.1317572543912326
0.38742610380401654 -1.1251671049631868
0.41726457485731594 -1.146424997358808
0.4551272959225315 -1.1856471416514462
0.4645121758357311 -1.1497079796628162
0.4845065993266994 -1.141426018281026
0.5246902695677825 -1.178473640358955
0.5451775576455022 -1.1691370452772785
0.5654987793579099 -1.1594443197259254
0.5856477446640155 -1.1493984162029947
0.6056183159937992 -1.1390023947880157
0.639948698725165 -1.1544980134240024
0.6699999999999999 -1.160474041071148
0.6901510203794727 -1.1486041829408304
0.7365877772841548 -1.178786853657432
0.7570482586708875 -1.165752089444139
0.7772781358243381 -1.1523622258515078
0.8259500683455063 -1.1795789437761481
0.8464107633011613 -1.1649844718999243
0.8666136333389495 -1.1500351344681017
0.917335598235231 -1.1741360228740156
0.9691534022167496 -1.1968047806437352
0.9898929189172706 -1.1797084424032263
1.0103309046453812 -1.162252753543069
1.0639176641105847 -1.1816002725090569
1.1184773105024977 -1.1994200706554392
1.1392397275527555 -1.1797172725553877
1.1950104602052654 -1.1950104602052651
1.2156842625723205 -1.1739726460757054
1.2725554408173567 -1.1866771465087473
1.330229237604536 -1.197743785382356
1.350930148598762 -1.1743456618930082
1.4095217753389195 -1.1827292018232323
1.468805867153675 -1.1894155390841925
1.5287408619970406 -1.194383262131777
1.5892846649941128 -1.1976118960725761
1.6261241586936441 -1.1814483571078709
1.6710701703495432 -1.170095930156134
1.7741404052677894 -1.1966728134273983
1.8366885438004785 -1.192759486682909
1.9165886973135227 -1.197617537167043
1.9800564646218795 -1.189737953042225
2.087121223120497 -1.205
2.1515644795629134 -1.1926316658059892
2.260345837718853 -1.2018472007318806
2.370077354341059 -1.2076147293071946
2.4806715677857007 -1.2099043651378536
2.5739141151840856 -1.2002358633435861
2.7497718275042287 -1.2242772956581585
2.9087953369097117 -1.2347103660261047
3.022619365887727 -1.2212174945358727
3.230188275680318 -1.2399531054267392
3.392290361037129 -1.234692717405664
3.5551498442534313 -1.224136260758909
3.861289456158323 -1.2546089971622862
4.073858260402531 -1.2455034621188583
4.43141641827565 -1.270688210316366
4.790992098393779 -1.2837424637085026
5.152270306525541 -1.284605265634235
5.563653069923693 -1.2844705203034683
6.0742966005569325 -1.2911315999782857
6.733962478450975 -1.3089497082830979
7.543627388073514 -1.3301450409286866
8.405227778464623 -1.3312572974923647
9.665016350917726 -1.3583294653702385
11.672342743301948 -1.4331834784445339
13.784073469804268 -1.448764500889676
17.244130223968114 -1.508665906961961
20.21064765826404 -1.4132661580559762
20.18230289738994 -1.0577096756698963
20.14771907270497 -0.7035738535224205
20.20692191911067 -0.35271313409750027
20.26 0.0
20.256914303868488 0.35358575441936446
20.24765815540688 0.7070638031926707
20.232234374127668 1.0603264734820437
14.724045381835005 1.0296055524632908
14.155926659883706 1.2384831044442244
10.999412162773103 1.156084803740249
10.233150823422031 1.25647293050707
10.160150385288512 1.427916015850271
10.281835625595384 1.6284827810688034
10.251848708857086 1.807677529512745
6.5376370417614424 1.2707879092077887
6.0742966005569325 1.2911315999782857
5.661090076402217 1.3069656257378561
5.249299879153141 1.308797455194203
4.935880972337139 1.3225653204738819
4.67173184226023 1.3395975492706158
4.360749687191442 1.3332149735356793
4.14660641104687 1.3473140954747707
3.8860813457131926 1.3380851148189141
3.6741981472729015 1.337298760403365
3.5102624036294783 1.347463490290329
3.3471337149861022 1.3523298022314427
3.184946792945443 1.3519297045728875
3.023835464797009 1.3462982885808992
2.9092479963876463 1.356604620187645
2.795249483990409 1.3633342665140311
2.681929637806987 1.3665114042160358
2.5693774952194772 1.3661622477069428
2.457681377061702 1.3623150328922071
2.346928844255829 1.3549999999999995
2.2800650198676187 1.3700012792607443
2.1710031261604508 1.3565933164370045
2.063129597145743 1.3398120261369668
2.039432428485403 1.375614542538037
1.9741564267364702 1.3823192116060217
1.9335506165561245 1.404806752979011
1.8288753180083004 1.378156403018191
1.7415037654708554 1.3606118604697048
1.7019496555907665 1.3782116563991436
1.6776373304305618 1.4077048652135211
1.6150785016767322 1.4039663220396854
1.5531726852477536 1.3984829672900139
1.491961551303108 1.3912766545274968
1.4314862026739155 1.3823701572134048
1.4071424945612296 1.4071424945612294
1.3476372386904545 1.3955192126569835
1.288976900518122 1.382258496060232
1.2646568460182421 1.4045437201522748
1.2071486133425335 1.3886656276099005
1.1505898213389056 1.3712195531829707
1.126483499979209 1.391091271007978
1.0712509670666457 1.371138711275696
1.0471581402845638 1.3896257874822897
1.0227463389889033 1.4076895702124086
0.9693441774332676 1.3843669548483963
0.9450360068655621 1.4010734976180206
0.8932080174246445 1.3754197314304952
0.869067593342456 1.3907988776965385
0.8189105391069863 1.3628960081163586
0.8199999999999997 1.4202816622064793
0.770847296191676 1.3906453343516394
0.7464597848295662 1.403886672645694
0.7218448945858795 1.416700373459505
0.6970101233946329 1.4290825336156756
0.6508321230806772 1.395713992036441
0.6263744303367326 1.4068600047696052
0.5821893814490179 1.3715522316441362
0.5694020219921865 1.4093194589415168
0.5447192833088562 1.4190422482757468
0.5198706178550166 1.4283327835945807
0.49486359477487796 1.4371882349109617
0.4449844718999243 1.369521383465021
0.4444049911785596 1.453583229063814
0.40518691305098875 1.4130546930293288
0.3804639963007058 1.4199109646449302
0.3556251865315115 1.4263347176257148
0.3306780498854818 1.4323239952342959
0.3056301855021061 1.4378769730786944
0.28048922320352104 1.442991959668066
0.2552628211703874 1.4476673969279459
0.22995866360913944 1.4519018606748526
0.19762580336329263 1.4061806576130298
0.17914793480556682 1.4590428429127433
0.14843041784006822 1.412221091422948
0.12376115470167455 1.4145964712902785
0.09905419271665813 1.4165409513689502
0.07693385567712731 1.4679854160892236
0.05130226015267659 1.4691045157180707
0.023037176497214058 1.3197989576064366
