# .PCD v0.7 - Point Cloud Data file format
VERSION 0.7
FIELDS x y
SIZE 4 4
TYPE F F
COUNT 1 1
WIDTH 179
HEIGHT 1
VIEWPOINT 0 0 0 1 0 0 0
POINTS 179
DATA ascii
6.062001655779399e-17 -0.99
0.017277882372910763 -0.9898492182048273
0.034550501735476066 -0.9893969187489048
0.05704619230480893 -1.0885061928824855
0.07603455638109675 -1.0873448147832085
0.09499975959494737 -1.0858522209200028
0.11916244812512493 -1.1337549607198314
0.13893105148186813 -1.131502612871107
0.17257464519048119 -1.2279324052395473
0.2018004599018979 -1.2741179593677276
0.23268855807368677 -1.3196423890363589
0.26522450357339744 -1.364461784992253
0.2993928347775736 -1.40853254505668
0.34642462368955235 -1.5005298997692622
0.3846558140034716 -1.5427702047788345
0.43740418622326005 -1.6324146464285254
0.48512174623791854 -1.6918205848514412
0.5584299560204272 -1.8265420838893975
0.605673308974897 -1.8640707719385008
0.7032272136274587 -2.0423201232945245
0.790066531082295 -2.1706899540154483
0.8815851558814389 -2.296607849183116
0.9964535384863265 -2.4663090531476546
1.1370275839037867 -2.6786691235466016
1.3259614564271092 -2.9781581919148783
1.5256519248839249 -3.2717711112023062
1.8017054133031085 -3.6940435302895764
2.9327786283174726 -5.755902146256856
3.0562598737361495 -5.7479888295116135
3.3742749569145065 -6.087353161690194
6.179999999999998 -10.704073990775662
6.468878220870282 -10.76602129681853
10.126757139496545 -16.2061991175493
24.078491738014346 -37.0776258088672
24.777837552788796 -36.734654839913894
25.32913542926219 -36.173754275801876
26.01537526646486 -35.80709217103517
16.255023775336824 -21.57114512637738
16.56745030101347 -21.20536937955689
12.057778692514885 -14.890116621515563
10.580284055440439 -12.609091533738379
9.683431267899888 -11.139513404088115
8.772302249364632 -9.742628662008638
8.054400632338108 -8.637287216122402
7.509256984661761 -7.776063241660818
7.042783540618014 -7.0427835406180135
6.589152571102045 -6.363070673404415
6.223820000779141 -5.8038060441318615
6.212690740991016 -5.593931869160054
5.667868947473018 -4.927003307718709
5.408273768419985 -4.538080524386967
5.175792103303427 -4.191273804391917
5.051148930619088 -3.946390056837469
4.87966296638896 -3.6770897914590153
4.700388737318445 -3.4150323158192686
4.554485366246794 -3.189084986111816
4.402189510267271 -2.9693143174296655
4.285606602201117 -2.783105468926788
4.163916152128052 -2.6019035873850362
4.037257986306949 -2.4258293328263547
3.9490758412570397 -2.28
3.8570729084847355 -2.1380104252863465
3.761356745579029 -1.9999488574678947
3.7065871406236104 -1.8886004789165147
3.6041641256596595 -1.7578682986242002
3.5436634473133015 -1.6524374034061347
3.48060819361831 -1.5496666101187986
3.4150730063085537 -1.4496124866952054
3.3471337149861027 -1.3523298022314418
3.276867297005178 -1.257871502904004
3.2043518368799475 -1.1662886887405306
3.129666485233739 -1.0776305912531887
3.1004442431222 -1.0073954016623285
3.069738266641344 -0.9385131721599849
3.037586959165088 -0.8710140443817173
2.955733028444549 -0.7919862780137134
2.9496990078790293 -0.7354425626229896
2.9133664937078536 -0.672603652488156
2.8757539461573884 -0.6112603710042126
2.836902560163749 -0.5514379966382147
2.7476136309040604 -0.4844784156907357
2.7556504702604343 -0.43645215746224414
2.713334508351903 -0.3813342966305793
2.6699491479151565 -0.3278285337598466
2.6255378037722417 -0.27595514302660495
2.600068162019456 -0.22747648857138755
2.6335690926859363 -0.1841570906844905
2.706286039184895 -0.14183044141837797
2.638391783330413 -0.09213467129460269
2.6395979152128732 -0.04607435299442854
2.59 0.0
2.539613145697234 0.04432911235070018
2.538452700628503 0.0886447216243526
2.5365190182766177 0.1329333288570775
2.4839344851469622 0.17369361962287225
2.4307150633438592 0.21266001230428622
2.426633424698587 0.2550494503730748
2.3721853024227597 0.29126773073830237
2.4162540877294316 0.3395823663425596
2.3605751340223793 0.37387837144615177
2.3536905296991772 0.41501914462396355
2.2970076092675336 0.44649304918111493
2.239958005680415 0.476117771972669
2.231307448358189 0.515137914447451
2.221977213172032 0.5540011409232394
2.1153775595730595 0.5668137087745208
2.0090369445110863 0.5760820736575281
1.9986769399627442 0.6110568628705197
1.9877081190568708 0.64584551824364
1.976133823002572 0.6804374428154575
2.010942208481844 0.7319231067169312
1.9511830913791515 0.7489890145496776
1.984173448772925 0.801658109910052
1.9330601922501247 0.8205353698274752
1.918445461049462 0.8541469504591807
1.8941832749065983 0.8832721670380617
2.211033353895951 1.0783930211011308
2.5037283329693136 1.2757133042681266
2.922556532363048 1.5539508728212992
3.5072250256289768 1.9440865771878115
3.3515183126457777 1.9349999999999994
3.951541256236738 2.37432552533535
13.49244520984874 8.43101549395029
18.41720567208151 11.960273208929998
11.614816391496134 7.834292577625162
11.681108151561022 8.179199982365919
17.806464046192595 12.937153402957335
17.577967576140914 13.245948659576587
10.843027969628492 8.471501900481059
6.7871537660341446 5.695098221822739
3.7056240388938106 3.2212498323433905
3.633978196584457 3.2720486650948173
5.090221763269427 4.746708586034989
4.970638020340078 4.800089339871672
4.956818536117698 4.956818536117698
4.86955517691757 5.042572000373945
5.394607028094363 5.785007779807638
5.326279626616512 5.915432810800057
5.2550328222139635 6.045223737584403
3.027529641623601 3.6080693270903863
3.152895159159685 3.893501266899424
3.0536809176152655 3.9085333378893408
2.8345487590461467 3.7615732523227496
2.7684685382975482 3.8104700435060024
1.7838227170517529 2.5475628577387646
1.7111302846204852 2.536854972018428
1.6121315436444805 2.482464881118455
1.4890731324953057 2.383015150199557
1.4215050867517496 2.3657817499378297
1.3299999999999998 2.3036275740666072
1.241112627830623 2.239026450276853
1.1549000444532909 2.1720510784329603
1.094117104372308 2.147325723293967
0.9907187917433145 2.0312745446361173
0.9339863584469458 2.0029402093509963
0.8785511490437289 1.9732581885080178
0.8439792375368312 1.9882904834572714
0.7716895824367791 1.909998740407582
0.7203195785860532 1.8764966572593753
0.6874604880845943 1.8887821677796754
0.6543919904588845 1.9004923369546267
0.605673308974897 1.8640707719385008
0.54381137078429 1.7787268460912462
0.4989036140287685 1.7398836696483573
0.4684624716355629 1.7483257455832135
0.4378786310353985 1.7562352645595536
0.39591385564520265 1.7148913140220141
0.36592457583925625 1.721539777291498
0.3262833820938918 1.6785824836955054
0.27957356604375766 1.5855404823496553
0.24403776546276026 1.540793811328415
0.21015138244969853 1.4953047837997713
0.18402270854177272 1.4987446889783962
0.15783797953415707 1.5017280620060927
0.12724738441158087 1.4544442592139484
0.09835662797921689 1.406565310866352
0.07379369830255067 1.408067644003949
0.04920829035052652 1.409141066096925
0.02600408559155223 1.489773065783023
