# .PCD v0.7 - Point Cloud Data file format
VERSION 0.7
FIELDS x y
SIZE 4 4
TYPE F F
COUNT 1 1
WIDTH 176
HEIGHT 1
VIEWPOINT 0 0 0 1 0 0 0
POINTS 176
DATA ascii
5.021051876504148e-17 -0.82
0.01431097327857255 -0.8198751100282408
0.028617587296050885 -0.8195004781556585
0.04029868630706686 -0.7689447417610219
0.053712484782976605 -0.7681243187000647
0.07146770905307967 -0.8168796524352313
0.08571333987947583 -0.8155079542019841
0.09383939442196357 -0.764260536763818
0.12108059783525696 -0.8615332198051662
0.12358322738178244 -0.7802737890701589
0.13718206035687502 -0.7779981248796444
0.15073910634747048 -0.7754854749236546
0.16425023574602998 -0.7727366045797064
0.17771133293165348 -0.7697523511803359
0.20321439230372085 -0.815048410071837
0.21740799788611742 -0.8113776940828173
0.23153537888627929 -0.8074598245881879
0.23097364673096205 -0.755480757210798
0.25957427527495586 -0.7988874736879289
0.27347724974401166 -0.794235603503426
0.2872969203935618 -0.789341801460163
0.3010290776180523 -0.7842075582576494
0.31466953846936624 -0.7788344378361013
0.3282141479309899 -0.7732240769000499
0.3416587801836723 -0.7673781844197846
0.37613025294922253 -0.8066139304626184
0.36823176330282503 -0.7549869988913002
0.38135201978121935 -0.748445480318229
0.4413032690187374 -0.8299707372873912
0.43148056201924 -0.7784115393540623
0.4449999999999999 -0.7707626093681504
0.4583838866699483 -0.7628788976248799
0.49812410837921256 -0.7971652103870404
0.5119606929141254 -0.7883503338686985
0.5256413292625021 -0.779295318201739
0.5391618501699833 -0.7700029216316523
0.5819073997695484 -0.800926824431198
0.5657061217629253 -0.7507173794444553
0.591035016312632 -0.756490323462453
0.623027187139339 -0.7693745018424012
0.6170761052990777 -0.7354026653942188
0.5970137163813617 -0.6867857180027226
0.6423653821045039 -0.7134190324582984
0.6751783764618736 -0.7240401646029786
0.6877117867544073 -0.7121464023352646
0.7000357133746821 -0.700035713374682
0.7481133923521973 -0.7224447052773572
0.797175534764896 -0.7433782124681234
0.81002785977036 -0.7293523609311554
0.8226334424428215 -0.715104341599653
0.8349884429996861 -0.7006384945583278
0.8859463960609467 -0.7174252457968145
0.9377327967919992 -0.7326371556375332
0.9503762569562785 -0.7161598775509374
1.0031810730249349 -0.7288537128426666
1.01574853491835 -0.7112347810752971
1.0694584685960038 -0.7213588454772634
1.1238185610468683 -0.7298163069201362
1.1787868536574322 -0.7365877772841548
1.191462547975936 -0.715902924124975
1.2903778516388136 -0.745
1.3031833636376997 -0.7223663341670422
1.3597392930027477 -0.7229862066902718
1.4612506996689232 -0.7445444195728567
1.5189619382455923 -0.7408472380735408
1.5316601600919384 -0.714224862341782
1.6809236420623859 -0.7483954232594723
1.7121390274215391 -0.726759898990049
1.8172803549509033 -0.7342289230951873
1.8764966572593753 -0.7203195785860536
1.9827514298582665 -0.721662502417161
2.0895960520744903 -0.7195056213503163
2.2444933784565624 -0.7292801067248759
2.400324937467219 -0.7338529788540691
2.605019195992844 -0.7469772342640676
2.714251571872282 -0.7272815167380832
2.920590136090749 -0.7281849057549995
3.1764464111998665 -0.7333404371609994
3.4332980785756573 -0.7297700347703354
3.7890809281079827 -0.7365227221534631
4.244521415482616 -0.7484236457444697
4.701396501232856 -0.7446280535914989
5.3078368484548175 -0.7459678211459506
6.7096119850953375 -0.8238367614187966
7.120776770836837 -0.7484237969963983
8.278377941142406 -0.7242642222330385
10.68391097828272 -0.7470918337995807
14.390251595813409 -0.7541611294608217
20.79732311026738 -0.7262585263790461
37.354309891042774 -0.6520219044969129
43.11 0.0
43.403388446738944 0.7576089634424782
29.292145139929694 1.0229042483503048
20.88134357171814 1.094344845039957
14.42477616675706 1.0086786103400533
14.404975334406641 1.260272040131139
10.352972930783725 1.088141302616274
7.833020423745822 1.1008592285941174
6.627388765393374 1.049675260419949
6.5588196350613055 1.1564968632617563
5.7032539358309275 1.1086002631377256
5.6830375602634104 1.207966923651182
4.570092870759943 1.1394521282744354
4.046911739900323 1.1604332679895661
3.433314023825504 1.11555134969356
3.129666485233739 1.0776305912531887
2.9694286816834703 1.0807836529091133
2.9967931690560174 1.150361118040414
3.0226193658877265 1.2212174945358734
3.0468710649275774 1.2933200352994965
3.023835464797009 1.3462982885808992
2.9092479963876463 1.356604620187645
2.7053700793604922 1.3194971518351233
2.5037283329693136 1.2757133042681266
2.4810827359335845 1.3192150914283536
2.413950391704732 1.3380745518798902
2.346928844255829 1.3549999999999995
2.3657817499378297 1.4215050867517496
1.9165886973135227 1.197617537167043
1.9373290119539293 1.2581161708847128
2.329595578879667 1.5713320587527986
2.342774846666516 1.6404286079639923
2.3542394536310973 1.7104550841710968
2.3639611097399866 1.7813724685300636
2.3719123683562326 1.8531410407302313
2.4557812382040285 1.988652435717486
2.4207004402559704 2.0312088466094647
2.422617752515098 2.105949483059528
2.4226521310563047 2.181365776729878
2.4207807523594544 2.25741457180687
2.4169817291378672 2.334052124742231
1.2798632739476512 1.279863273947651
1.1878658134848852 1.2300710585790937
1.1662171957068723 1.2506148297687814
1.1442133368736478 1.270777651566344
1.1218609395737673 1.29055338218094
1.0670274320796556 1.2716337755775033
1.04467184914273 1.2900622960185717
1.0219980490405929 1.3080978509871584
0.9689221872747976 1.2858031711761417
0.9757235188055053 1.3429682106624128
1.009494527977841 1.4417075979486258
1.0680584456291264 1.5834617635801296
2.047842771656502 3.153401335474794
0.7736821257804791 1.2381502203883819
2.271317910353339 3.780107796096315
1.8299999999999996 3.1696529778510456
1.8228841721262274 3.288570098844128
0.5680605909709276 1.0683665873593016
0.5402486946900608 1.0602977637841577
0.5304290876147835 1.087540796021992
0.5240466445584673 1.123821655925446
0.5328250024292985 1.196744549511807
1.4886855995441328 3.5071234916537977
1.3335994725606475 3.300774522257763
1.3295450928130637 3.4635833823046185
1.2859957389045147 3.533244254155015
1.2404146684817665 3.602425773033397
1.2391581474435391 3.8137366303435654
1.9179583829811517 6.273359199117513
0.8572321765908674 2.989523874368172
0.9990415140957308 3.7284736894758033
1.5749115403538365 6.316625178056737
1.464431363778562 6.343149121751881
1.1559890009467413 5.438500660079959
1.01892003531075 5.241889159610525
0.6355523302609646 3.604396376024682
1.0105666441598917 6.38046668024459
0.8920995771540182 6.347618320633466
0.7872759583972527 6.41184813960294
0.6491217568921294 6.175980970236977
0.5325215881881913 6.086749605340565
0.4401633493254316 6.29462915713949
0.32500628826868067 6.2014894108259035
0.18357135265515567 5.256795750120443
0.10488896268807309 6.009084647889911
