# .PCD v0.7 - Point Cloud Data file format
VERSION 0.7
FIELDS x y
SIZE 4 4
TYPE F F
COUNT 1 1
WIDTH 178
HEIGHT 1
VIEWPOINT 0 0 0 1 0 0 0
POINTS 178
DATA ascii
9.307315673519885e-17 -1.52
0.02740027810653525 -1.5697608813955344
0.0547922098229267 -1.5690435984199804
0.08216745130142203 -1.567848369564681
0.11300548746548325 -1.6160537614209154
0.13683451611382327 -1.5640256760040405
0.16410968733021594 -1.5613993757281892
0.19133486914608155 -1.5582974580768756
0.2185017685073028 -1.5547208679242654
0.24560211011316258 -1.5506706947343663
0.27262763893708075 -1.5461481722291666
0.3091105725100028 -1.5902360371852158
0.33681693912477034 -1.5845991131887651
0.36442070803706156 -1.5784795049520812
0.39191347087146167 -1.5718790765671145
0.4192868530660836 -1.5647998385882909
0.4465325164235387 -1.5572439474200768
0.4736421616508336 -1.5492137046601175
0.5006075308874149 -1.5407115563981488
0.5176533655868792 -1.5033745352029138
0.5609130350540968 -1.5410958980888896
0.5877234372542925 -1.5310718994554107
0.6255930110045733 -1.5483970371265348
0.6720575410015508 -1.5832683479381975
0.6873849267981026 -1.5438918234159953
0.7142248623417821 -1.5316601600919384
0.7627657954129948 -1.5639016405605504
0.803563184538998 -1.5770815478134113
0.8168805192474501 -1.5363288115745328
0.8678092202409434 -1.5655692757795183
0.8949999999999998 -1.5501854727741453
0.9476700578344999 -1.5771878332918865
0.9750514461890971 -1.5604084969278238
1.029367776178401 -1.5850873734168511
1.0289149423861743 -1.5254291335012766
1.084059464703477 -1.5481973637061943
1.1109141268327742 -1.5290421193686505
1.1675211449149736 -1.549352889491748
1.1943832621317774 -1.5287408619970404
1.2523475781891764 -1.546520463299372
1.3112867237605403 -1.5627306639627152
1.3383604191406349 -1.539607543654455
1.3984829672900136 -1.5531726852477539
1.4594764905337472 -1.5650969214650245
1.4865689127822541 -1.5393871727247135
2.0576807332528535 -2.057680733252853
2.1292458090024073 -2.0561887765586317
2.2013746418737035 -2.0528150637881204
2.274023165960827 -2.047539655458106
2.3094113154816824 -2.0075406287109523
2.4207004402559704 -2.031208846609464
2.4946385362768764 -2.020118455269978
2.5689150567579135 -2.0070564095616454
2.683415313758904 -2.022098477790882
2.7991988005373183 -2.033736972931957
2.916181277668811 -2.041932113409724
3.034277515551453 -2.046646026702933
3.0276007502829807 -1.9661469164042473
3.061453627124698 -1.9130085438818696
3.0943739555346252 -1.859287450425295
3.2129542480402673 -1.855
3.332301084201098 -1.8471246531385441
3.4523250880784047 -1.8356338104928331
3.662036814414192 -1.8659009539295375
3.8288626372344514 -1.8674610853214697
3.9968173408316265 -1.8637465342764843
4.16576728685026 -1.8547190924256485
4.427628345106238 -1.8794167280334062
4.598831918651266 -1.858048703342923
5.050670107349862 -1.9387706070400748
5.553583388844718 -2.0213390470547026
5.966222212031689 -2.0543350546246586
5.934592661681759 -1.9282660448996718
5.986467772328602 -1.8302468715643319
6.257813640558456 -1.7943991863686641
6.288177129141834 -1.6849119836174096
6.268110391742937 -1.5628154455738528
6.391867624991143 -1.4756789164957533
6.221018740667004 -1.3223183536009497
6.194067527554759 -1.204004760825998
6.312617696808253 -1.1130848188450235
6.627388765393374 -1.049675260419949
6.694212144693015 -0.9408101624900421
7.2555123684980645 -0.8908649002916277
8.363929140047178 -0.879084376080965
15.500789502307562 -1.3561433571535595
15.472218419529876 -1.0819229077713814
15.688469990994356 -0.8221978725766488
34.38903835772708 -1.20089168153306
37.11 0.0
40.65380728505887 0.7096148457399485
40.585261485245475 1.4172685610885662
33.27873671666774 2.3270759641040235
15.600408972116735 1.3648589314283288
15.524486786698745 1.6316893116080728
15.543272734703104 1.9084739177246088
15.507597956492992 2.1794507610346243
6.232313429155319 0.9871014744038568
6.066415758555202 1.069672774428291
6.046823450037611 1.1753834115195163
5.927574460446861 1.2599448463556218
5.904682592598525 1.3632033893238222
5.734447742291139 1.429758402994037
5.66032534205394 1.5166796043007726
5.632993538198549 1.615234905087615
5.747391583337843 1.7571539453836476
5.76340248874863 1.8726429859121811
5.777118496911826 1.9892214237332275
5.459614126766127 1.9871370327221354
5.1907071713244415 1.9925257994718697
4.923346267749641 1.9891610110384932
4.657754558469347 1.9770995101557256
4.439830924143041 1.9767400853483896
4.223394287590789 1.969401099711659
4.0535611488092425 1.9770538720187398
1.9245740922468748 0.9806194794374211
1.8895078487181036 1.0046691443618068
1.871686173278307 1.0374925873271614
1.8965956342879207 1.0949999999999995
3.2658074156750474 1.9622950654073068
3.146258436740341 1.96600047030519
3.0276007502829803 1.9661469164042482
2.9099218796681963 1.9627670911823212
2.793308471025462 1.955895647957068
2.677846251381076 1.945569185088086
1.629216440496477 1.2277026472301789
1.5681413996773765 1.22516633589806
1.5853777613722209 1.283813597741668
1.5627306639627152 1.3112867237605403
1.539607543654455 1.3383604191406346
1.5308783404834319 1.3784090490992482
2.113612197679403 1.9709752605806208
2.006958042944836 1.9380968535806027
1.9728279195104677 1.9728279195104674
1.8686310165347022 1.935024062910972
1.834575588568121 1.9673414573555685
1.766504800787386 1.9619023392603205
1.6991928850854137 1.9546978127769794
1.6326805286038102 1.9457528855222042
1.5670077737140953 1.9350934440278578
1.5022139997946065 1.9227462388004013
1.4985194076486001 1.9886024200177597
1.404806752979011 1.9335506165561245
1.370847682879 1.9577733858506907
1.3085113941215474 1.9399479197787974
1.2472233901844123 1.9205556005950208
1.2135151150940393 1.9420301401982154
1.1536852877985218 1.9200547535727315
1.1449999999999998 1.9831981746663647
1.0617330683394783 1.9154171586352766
1.0281427225011004 1.93365522836105
0.9942391944296076 1.9513042879725258
0.9381142541286254 1.9234192590802175
0.9044030801250968 1.9394986642584309
0.8704164161822129 1.9549872793551657
0.8361646149670457 1.9698803863882226
0.8016581099100522 1.984173448772925
0.7489890145496773 1.9511830913791515
0.7148220995506478 1.9639575774425482
0.6641590350925993 1.9288578942226065
0.6303946685248928 1.9401552932421133
0.5964382776343826 1.9508617021645926
0.5485183380758283 1.9129107749172547
0.5150498997540167 1.9221923943152457
0.4814245722433387 1.930888495289233
0.44765259814429165 1.938996428922618
0.4137442647273409 1.9465137254602733
0.37589372089179346 1.933805551391898
0.34208691000385255 1.94007127343405
0.303482862178048 1.9161153807545672
0.2811296639393318 2.000341498857972
0.24008260650814056 1.9553159187334044
0.20592107263727774 1.9592081338754983
0.17169681321288652 1.9625035552407386
0.13742025327592713 1.9652011790118535
0.10310183379859918 1.9673001834665105
0.06875200850392713 1.9687999292276186
0.03350862035958408 1.9197075747002712
