# .PCD v0.7 - Point Cloud Data file format
VERSION 0.7
FIELDS x y
SIZE 4 4
TYPE F F
COUNT 1 1
WIDTH 179
HEIGHT 1
VIEWPOINT 0 0 0 1 0 0 0
POINTS 179
DATA ascii
2.700346192119914e-16 -4.41
0.08132821399774157 -4.659290259428784
0.17310150364440535 -4.956978502014715
0.27790392765003247 -5.302722829546787
0.3948216413917501 -5.646212524470605
0.5238060139134254 -5.98713013553139
0.680480295872424 -6.474337538847459
0.9030518346321429 -7.354766983662196
0.5720014449458691 -4.070001762527855
0.5772431759984521 -3.6445699767960584
1.6687589873792013 -9.464002506447319
2.072185689789278 -10.66047121224163
2.6009752521301706 -12.236626485179908
3.297782456681063 -14.28426514975155
5.360989206488636 -21.50175329427608
5.204850997011692 -19.424768366673163
5.515503489898154 -19.23484653572576
5.850357811501963 -19.135658166820342
6.183430057442699 -19.030640891066025
3.8169447995144643 -10.486969647970737
2.798853685948796 -7.291263130943145
2.2326552967588364 -5.526015773218052
1.3441150820031016 -3.166536695876395
1.2242772956581591 -2.749771827504228
1.1283907588476674 -2.419841791387855
1.2537414798167614 -2.5705509724156173
1.230314254294172 -2.414627680550477
1.131426466313997 -2.1279036987900137
1.0471887797320882 -1.889178567421095
1.0049999999999997 -1.7407110616067216
0.9476700578344999 -1.5771878332918865
0.9909490241160932 -1.5858499398125165
0.9912430437273493 -1.5263804336606717
1.0177310843167593 -1.508848382050176
1.0439091141589039 -1.490856720605965
1.0991584217869248 -1.5128617794811519
1.1073396425997688 -1.469489338487019
1.1328171145992114 -1.4499397866363684
1.1894155390841925 -1.468805867153675
1.2148685823075593 -1.4478239974948683
1.2399515647920587 -1.4264011066210391
1.264656846018242 -1.404543720152275
1.3230768185212471 -1.4188261811411904
1.3476372386904547 -1.395519212656983
1.4071424945612296 -1.4071424945612294
1.431486202673916 -1.3823701572134046
1.4553938662221495 -1.3571767365243719
1.4788582027000148 -1.3315699066541276
1.539607543654455 -1.3383604191406349
1.601032886118664 -1.343426104244867
1.6242350594450692 -1.31527961729416
1.6469424750380488 -1.2867324834306255
1.7090799915012067 -1.2878841495453834
1.7312963679623876 -1.2578604399058926
1.793942976992892 -1.2561323956087909
1.8570441625232936 -1.252592103774473
1.87862207219775 -1.2199914384336605
1.9420301401982156 -1.2135151150940393
2.0057714836429428 -1.2051890952895263
2.026499444855586 -1.17
2.090341100063156 -1.1586949923887457
2.154392126575782 -1.1455106131975736
2.218606245229036 -1.1304363443514716
2.282936877599884 -1.1134627128442567
2.3473371684249233 -1.0945812979084113
2.4117600081764667 -1.0737847377201124
2.4761580557870646 -1.051066735636146
2.586842954241337 -1.0451523956303943
2.604689389927193 -0.9998465792313879
2.6405362644084023 -0.9610766027451293
2.751459054994012 -0.947403329470326
2.815127288233654 -0.9146903033498442
2.926292553246889 -0.8946574164515744
3.037586959165088 -0.8710140443817173
3.100621902387909 -0.8308091347790914
3.2116788539735484 -0.8007614744348999
3.3226019209176525 -0.7670830953125792
3.482205458612348 -0.7401656193112235
3.5436741322460668 -0.6888204733093269
3.702877151325902 -0.6529171480276581
3.812476994697232 -0.6038370350552912
3.970974955653697 -0.5580841348498623
4.1289919908279 -0.5069764685654133
4.286389369037257 -0.45051767668358605
4.492838088393772 -0.39307239979193787
4.698526676723772 -0.32855299133482957
4.953202492382686 -0.25958634296500177
6.206217035788585 -0.2167258745225313
6.509008495468107 -0.11361516590671582
6.46 0.0
6.658985649741566 0.11623302687230835
3.507861802837026 0.12249723342577856
3.405326713513097 0.17846561078843873
3.4515716138989916 0.24135739915467389
3.3970239204928525 0.2972010827695148
3.291867473668985 0.34598921341593347
3.3845823770969083 0.41557446101155276
5.505890462203131 0.7738024413379636
5.8866225099470215 0.932349411639776
12.516906540785165 2.207068338146685
14.390654509342754 2.7972598722201476
17.225179248922316 3.661324875300743
18.76636744776363 4.332557306662842
26.256202353028463 6.5464064949270115
42.36550674103853 11.351803318196566
42.83382117101149 12.28240057520548
42.4694942123184 12.984227406736736
42.0937614112235 13.677092171035172
25.633008584497478 8.826152667333519
18.004510614258002 6.553105946119814
12.799387647276637 4.9132245882660674
9.883779889681954 3.9933062858136235
7.7414458175350225 3.2860487905947933
6.815049114013802 3.0342553573454705
5.809432914904926 2.7089830577578833
5.132114004368243 2.503099248165633
4.508493012393141 2.2971919286821065
4.0703884030796535 2.1642639044429575
3.7258799524138255 2.065288982249396
3.3428580586079333 1.9299999999999993
3.094373955534625 1.8592874504252959
2.8070391982777703 1.7540327646119083
2.6082654663102685 1.6938273988967345
2.4124993361351716 1.6272513490998732
2.260859642237617 1.5830709643288876
2.1115343553186126 1.5341195084833548
1.96464335471634 1.4804649569540393
1.8597053785118636 1.4529610817685534
1.7563498728927542 1.4222640837726321
1.6546559971369925 1.3884212369229252
1.5169662562477715 1.3186786482709192
1.4565638579356925 1.3114959884633623
1.3968855700926157 1.3026168677193721
1.3739390186468232 1.3267974875766848
1.3505739520663058 1.3505739520663056
1.3267974875766846 1.3739390186468239
1.323076818521247 1.4188261811411906
1.2646568460182421 1.4045437201522748
1.2071486133425335 1.3886656276099005
1.1505898213389056 1.3712195531829707
1.0635514608742251 1.3133766748622808
1.0096848195340797 1.2923376359150238
0.986976637969359 1.3097622364775603
0.9345785511450323 1.2863370210561664
0.8833077119806108 1.2614941482050475
0.8611570713449501 1.2767178617347643
0.8115121621723905 1.2496191462386816
0.7630837404958151 1.2211892584652533
0.7416548278704781 1.2343209130110415
0.6949999999999998 1.2037753112603697
0.6496448911300917 1.1719904075667904
0.6056183159937989 1.139002394788016
0.5629482196770381 1.1048480899935762
0.48659197293587575 0.9976613913920755
0.46065390529736244 0.9878754878699485
0.44334294095262244 0.9957645488304349
0.4063603736288447 0.957325047590538
0.3895908571525487 0.9642712087494588
0.3727026675271122 0.9709236435570898
0.3557009490586956 0.9772803256173447
0.32231247291258497 0.9360633898433237
0.30592682443119795 0.941545951132202
0.28944798767550917 0.9467417084034052
0.2590991144679792 0.9035859941820197
0.2432899023963697 0.907970276711724
0.23466423873167763 0.9411868544877166
0.21820252271354917 0.9451389628416782
0.20167434009322646 0.9488031727117915
0.17554427574642134 0.903097008771851
0.15975632345357582 0.9060231327712315
0.151741431089024 0.9580576903772836
0.1349979079312633 0.9605600266793233
0.12065064997109601 0.9826206901249087
0.10557374790033022 1.0044671143219561
0.09499975959494737 1.0858522209200028
0.079522380068303 1.1372230172961995
0.06489658574125025 1.2383006230956715
0.045020350746226394 1.2892141668546335
0.023386224625959726 1.3397959115095643
