# .PCD v0.7 - Point Cloud Data file format
VERSION 0.7
FIELDS x y
SIZE 4 4
TYPE F F
COUNT 1 1
WIDTH 180
HEIGHT 1
VIEWPOINT 0 0 0 1 0 0 0
POINTS 180
DATA ascii
3.306546357697854e-17 -0.54
0.008551679154268963 -0.4899253706266317
0.01710075338422553 -0.4897015052393569
0.025644618559042542 -0.48932847202974117
0.035575801609503986 -0.5087576656325103
0.04444942880130565 -0.5080592960267902
0.053309516266503265 -0.5072061666378194
0.06215336513662522 -0.5061985373370742
0.0709782814896334 -0.5050367150582009
0.0844746111217247 -0.5333517039213744
0.09377001594014243 -0.5317961866265923
0.09731258764203791 -0.5006298635583086
0.10603496231705732 -0.4988552763742409
0.11472503771537122 -0.49692873304046997
0.11128407197584714 -0.4463360340869584
0.13199771300228558 -0.49262217140742487
0.14057505146666957 -0.49024346492854265
0.14910956940859577 -0.4877154255411481
0.1575986671312232 -0.48503882331052833
0.16603975877314994 -0.48221447355565156
0.1744302730960911 -0.47924323660081325
0.1827676542681032 -0.4761260175135729
0.20977969231291085 -0.519222958557401
0.1992728755295296 -0.4694574752607446
0.22777252012244822 -0.5115854562798565
0.21553531348775673 -0.4622169713886915
0.2454878422018834 -0.5033246659275336
0.2769342048411236 -0.5435139797549045
0.2629040751600989 -0.4944506520009991
0.3199743493625825 -0.5772490067120012
0.32999999999999996 -0.5715767664977296
0.33992512944063585 -0.5657304184633941
0.37624267760557545 -0.6021141482710624
0.3866937148606692 -0.595456103241251
0.3970269614642303 -0.5886166765140796
0.4072392698092427 -0.5815979514451841
0.4467167917422796 -0.61485291572496
0.45737941759555667 -0.6069629876359426
0.4679027212475004 -0.5988881727411086
0.47828349719787644 -0.5906309307072979
0.520657963846097 -0.6204959989263722
0.5314078134823109 -0.6113147599804454
0.5419957911506752 -0.6019473086366893
0.5183187536474989 -0.5558288132305694
0.5487801126626078 -0.5682784422675344
0.5727564927611035 -0.5727564927611035
0.61863222829124 -0.5974061985947376
0.6289641833924867 -0.5865185896537487
0.6762617911844289 -0.608908851786561
0.6490502389915839 -0.5642107649318362
0.7354026653942188 -0.6170761052990776
0.7849174210715406 -0.6356135949603358
0.7958908611427893 -0.6218180900789148
0.8465536406501304 -0.6379239245411712
0.8171071643186969 -0.5936631048153979
0.8273435647318818 -0.5793122007145565
0.8787798269083443 -0.5927444776789916
0.9728578588166918 -0.6317812806174312
1.0261381963492755 -0.641202309722178
1.0371724338495558 -0.6231960706411653
1.1344932789576145 -0.655
1.1457518163526084 -0.6351006025227016
1.1566613466451945 -0.615007747249517
1.300869525315017 -0.6628261296197383
1.3571790099117422 -0.6619404316515068
1.413840147777174 -0.659284488315491
1.4708081868045877 -0.6548459953520382
1.6200885420762952 -0.6876867861411217
1.7245619694942247 -0.6967682637535961
1.8298176359345153 -0.7024011811087886
1.9827514298582665 -0.721662502417161
2.136871980854456 -0.7357840290731741
8.85433616670788 -2.8769482176307606
4.504195400585897 -1.37707072924409
8.901283304388834 -2.5524019148654116
8.89617686012232 -2.383723405394216
8.936423639001928 -2.228100658472939
6.050838102316311 -1.3969460474754007
4.509260439382844 -0.9584728946698708
4.721626752383263 -0.9177912677611807
4.68768490433811 -0.8265653256945885
4.652012084203099 -0.7368063303394874
4.565135796898639 -0.6415879954259016
4.575637759066495 -0.5618176730977297
4.485293748110912 -0.47142336933711676
4.542647823298359 -0.39743018692932075
4.648648474210781 -0.32506516764762333
4.703545108694042 -0.24650235390426578
4.757100336610896 -0.16612160430390482
4.8092674137022415 -0.0839460749633338
4.81 0.0
4.909252183217881 0.08569131560706217
4.90700896066376 0.17135652880928
6.650872701465462 0.3485574685780064
5.696090726983596 0.39830946507895604
4.7418867629167085 0.41486133547885345
4.783650316721394 0.5027819083174139
4.774146989394759 0.5861915417787591
4.466108990024482 0.627670685329895
4.4544744160840715 0.7055194373314412
4.53996374138628 0.800518099044549
4.525301315693731 0.8796294686858719
3.97127925897925 0.8441214647201031
4.686720011616981 1.082014571393991
3.308708426601148 0.8249536639948674
3.4386959415890828 0.9213958005649744
4.719794927057146 1.3533794170614657
4.695456351778505 1.4355450701886372
2.815127288233654 0.9146903033498442
2.8460109125539437 0.9799601449160416
2.6405362644084023 0.9610766027451293
2.530002955807417 0.9711771432677638
2.4663090531476546 0.9964535384863263
2.1723914541477587 0.9221254632346864
2.018935461390148 0.8988879811975187
2.0029402093509963 0.9339863584469457
1.9863348423211589 0.9688002344038614
1.969124418456293 1.0033190044243985
1.8630194209323356 0.9905849974782299
1.889178567421095 1.047188779732088
1.9139161423636095 1.1049999999999995
1.8514813695165626 1.1124822418057172
1.7469790780822378 1.0916336843204022
1.7276613699675734 1.121956412130956
1.6663655208356336 1.1239777359762009
1.6055380068064238 1.1242098152480506
1.5452224592561496 1.1226698318786237
1.525393824190329 1.1494666942204126
1.4262994640281668 1.1143472703394415
1.4066341902371176 1.1390699078002056
1.2716337755775033 1.0670274320796553
1.215082424158663 1.0562550366747165
1.0849914451969953 0.9769306852839331
1.0531493303316055 0.9820776384899977
0.9998823224707247 0.9655751349380063
0.9828784258493011 0.9828784258493009
0.9308422164150563 0.9639153324537928
0.9138778024837481 0.9800139601696884
0.8966350125208702 0.9958140661397082
0.8791190988472798 1.0113108374985145
0.8934747774642898 1.0648017759353794
0.9062213631117658 1.119090184498038
0.8865525244689481 1.1347354851936795
0.9267951356541542 1.229898685472831
0.9051892885304087 1.2458861713374192
0.9119865337981631 1.3024517504194972
0.9450360068655621 1.4010734976180206
0.920439969175396 1.4173532598277665
0.9220595197657765 1.4756036873121812
0.9476700578344999 1.5771878332918865
0.9449999999999997 1.6367880131525891
0.9502268556828207 1.7142546259932157
0.9671114193389347 1.8188720412893897
0.9352204294634665 1.835473439828038
0.8811260050460451 1.8065760330613256
0.8494627060988058 1.821678651943666
0.8175406525823586 1.8362263698616272
0.8049061246879039 1.8962399981120273
0.7529592527659834 1.8636395476792422
0.7382379760633183 1.9231756785842355
0.7558645167497281 2.0767206919368575
0.7846192522417473 2.278699767194354
0.7756326558811181 2.3871518559008353
0.8069459050347528 2.6394011264579778
1.2293426069438163 4.287227163884903
1.270801511453378 4.742695807079325
1.3208935499741854 5.297814665466941
1.3856984947582094 6.002119599077049
1.3223183536009488 6.221018740667004
1.2135452105948257 6.243148886727143
1.0957200010783297 6.214136921507033
0.9949231976558688 6.281697846185076
0.885140922106015 6.298104917196388
0.7750890240567381 6.3125935244388085
0.6595746032188947 6.2754331597738044
0.5499527367377228 6.285988544958914
0.29716257814997443 4.249622854106851
0.22295117359494035 4.2541618180544845
0.129477132766279 3.7077399682408454
0.06300318723859298 3.6094501795145724
