# .PCD v0.7 - Point Cloud Data file format
VERSION 0.7
FIELDS x y
SIZE 4 4
TYPE F F
COUNT 1 1
WIDTH 179
HEIGHT 1
VIEWPOINT 0 0 0 1 0 0 0
POINTS 179
DATA ascii
4.71489017671731e-17 -0.77
0.01431097327857255 -0.8198751100282408
0.026872612460925833 -0.7695309368047037
0.04029868630706686 -0.7689447417610219
0.05720030847018287 -0.8180025212130558
0.07146770905307967 -0.8168796524352313
0.08571333987947583 -0.8155079542019841
0.09383939442196357 -0.764260536763818
0.1071632877392504 -0.7625064129310092
0.12045453808097782 -0.7605200222582561
0.1302361332501978 -0.738605814759156
0.15264719630123594 -0.7853017467581312
0.1559337681133196 -0.7336107005503542
0.16871329075789887 -0.7307775485889264
0.1886990785677408 -0.7568306664952773
0.20187885517996618 -0.7534221445054733
0.21499713753725935 -0.7497841228318888
0.2280499296837347 -0.7459177096511677
0.2317627457812106 -0.7132923872213651
0.24417611584286758 -0.7091389316994876
0.2736161146605351 -0.7517540966287267
0.2866943596362403 -0.7468643411977615
0.28095494506193414 -0.6953878909250905
0.3203995253612044 -0.7548139798310011
0.3131872151683663 -0.7034300023848026
0.3380946093925596 -0.72504622962932
0.3813828977064974 -0.7819508202802752
0.3495726847994511 -0.6860750236250432
0.3849666814844305 -0.72401702614432
0.3975438886019964 -0.7171881598543045
0.40999999999999986 -0.7101408311032397
0.4480831251717472 -0.7457355516108376
0.46102975988288825 -0.7378018436560906
0.4466040087123222 -0.6877098657152476
0.45853818084601244 -0.6798108094951341
0.4990114996254101 -0.7126622785314228
0.5407624321090753 -0.7442956348249516
0.5536698212998844 -0.7347446692435095
0.5356254835333228 -0.685569355637848
0.5789747597658504 -0.7149742845404132
0.5913646009116162 -0.7047608876694598
0.6035743066712668 -0.6943328138049503
0.6156001578501497 -0.6836932394392027
0.6274384912574987 -0.6728454054896368
0.6251925334130976 -0.647405820304786
0.6505382386916237 -0.6505382386916236
0.6977596063284917 -0.6738186193452274
0.7094130905705954 -0.6615384092606235
0.7580077219869422 -0.6825132184860353
0.7698037718272275 -0.6691802095703174
0.7430631098254087 -0.6235039813959431
0.7926888806861103 -0.6419067988708341
0.8431715063591926 -0.6587577785984543
0.8146082202482386 -0.6138513236150892
0.8251973342624465 -0.5995409573383226
0.8355350851747716 -0.585047965078067
0.8456183240061426 -0.5703767615401617
0.939311036098875 -0.6099957192168303
0.9328529057720687 -0.5829111906565254
0.960027376786366 -0.5768426438992605
0.9699484522385713 -0.56
0.9795740719961233 -0.5429867746758975
1.0330486836449446 -0.5492817284594922
1.0424776333003904 -0.5311688846952697
1.0965287364849838 -0.5348127990826744
1.1510108895365454 -0.5367251924106883
1.1602027312061032 -0.5165555367062662
1.2150664065572214 -0.5157650896058412
1.2516982036651632 -0.5057189011114811
1.2323261629763063 -0.47304569339979646
1.2873788904766945 -0.46856759635616624
1.34263637735103 -0.4623067793291625
1.3980530789538756 -0.4542549817311727
1.4057679912656622 -0.42978640594242296
1.4611177778262447 -0.41896878084183864
1.5165035472738373 -0.4063459008109575
1.5718790765671145 -0.39191347087146156
1.6759165114306045 -0.38691581347144754
1.7313212532988358 -0.36800369274743416
1.7865614738747484 -0.34727237158531166
1.7923501104822186 -0.31603968335381327
3.061833855844927 -0.4849468416247157
3.0698310130988684 -0.4314366129762028
3.0768930700880985 -0.37779496455595707
3.0332917808732334 -0.3188118129663428
3.0583177231416587 -0.26756813023531023
3.2121562418366345 -0.2246158454560831
3.664970392549286 -0.19207295941160413
3.8676425005639006 -0.13506105223867895
4.069380119286513 -0.071031294199744
4.17 0.0
4.169364888802152 0.07277653484347234
4.5172465381263125 0.15774572509530457
4.863325834254774 0.25487610690313683
5.2072843423562825 0.3641287929443346
5.648423938180197 0.4941730613792225
6.18592618919066 0.6501670415248054
6.918046676940015 0.8494293235338776
10.170053065975928 1.4293077468598716
10.143559257912065 1.6065819559631709
10.064735235784767 1.7746843757560284
11.504670590006622 2.236281425813106
14.104888402581476 2.9980865815920903
17.265837547994366 3.986132682973289
22.09363368730444 5.508561562804436
30.106716316788148 8.632961984188412
15.08092600153707 4.610701783477558
14.903055610345056 4.842296301855425
12.452479640643002 4.287732594200754
2.696917821655557 0.9815978113446694
2.632696802722109 1.010597617717747
2.6610176626066795 1.0751209231036678
5.449388732438447 2.3131282806565014
2.439166371905744 1.0859868370123869
2.374526402036023 1.1072598457606324
2.3548404013038176 1.1485324045873833
2.423537745792361 1.2348541592915674
3.0196807675775297 1.6055927447277472
2.7288134862749147 1.5126060151685716
2.5547749411640943 1.4749999999999996
2.4857851720361253 1.4936104172391573
2.501741883661457 1.5632618294879546
2.4740781754390007 1.6066851532943303
2.445660839037373 1.649619065238703
2.457456132866975 1.7207293090531388
2.4270509831248424 1.7633557568774194
2.395906530141878 1.8054450694561455
2.4034327985005017 1.8777674997432576
2.3702951824437615 1.9194271927020037
2.3517564403752624 1.9733579617376757
2.339599698690593 2.033782989870572
2.3409062002537913 2.107761410030404
2.3183912341327706 2.1619348013981203
2.1724061970227257 2.097868278786172
2.0859650045003155 2.085965004500315
2.063135360263222 2.1364392070057945
2.0596350473887455 2.208688178889895
2.054230961521695 2.2814546142156
2.014101219000857 2.31695841128391
2.03763672270633 2.42836088468716
2.120809717837952 2.618981890109992
2.136345319380035 2.7343973150153253
2.1183888814952097 2.8111969953664713
2.098393350684129 2.888190669918562
2.047667877773234 2.924372798111701
2.0242783105641036 3.001116012649251
1.9988252585051498 3.077920984359706
1.9977956261591825 3.197141322509726
1.9674454461564073 3.2743790886820685
1.9349999999999996 3.3515183126457777
1.9246941923779584 3.472240237343401
1.8872756823992802 3.5494493232928863
0.9851593844348167 1.9334841574887582
0.9512653885322976 1.9503830804691924
0.8959507148902829 1.921372508517698
0.8419448511669068 1.8910390973201834
0.8088134359727965 1.9054450466465513
0.7567053187001426 1.8729113862249105
0.7239032580815064 1.8858324615243476
0.6737796823515676 1.8511944629482393
0.6250908565577405 1.8153956651506882
0.5933126291998991 1.8260285112866947
0.5467350878315174 1.7882898936508766
0.5154418553777884 1.7975593714046565
0.4710506620865882 1.7579850038461042
0.4402978499913952 1.7659382218223136
0.4094109189058346 1.7733535179091282
0.36800369274743383 1.731321253298836
0.3377319218164845 1.7374801147023653
0.3073572744704665 1.7431097228316084
0.27688900312120873 1.7482083628533938
0.2393777336513122 1.703261078235501
0.20961527065685367 1.7071793808230737
0.17978895682036433 1.71057766003343
0.14555009038858907 1.663645145813215
0.11858600536501326 1.6958588854417012
0.08740104692571606 1.6677113230401381
0.0582821594931768 1.6689826811218897
0.029145518750263236 1.6697456509111734
