# .PCD v0.7 - Point Cloud Data file format
VERSION 0.7
FIELDS x y
SIZE 4 4
TYPE F F
COUNT 1 1
WIDTH 178
HEIGHT 1
VIEWPOINT 0 0 0 1 0 0 0
POINTS 178
DATA ascii
9.123618653647781e-17 -1.49
0.02513146526968838 -1.4397806810252034
0.050255275251601554 -1.439122790907498
0.07274697917769211 -1.3880950533088576
0.09347367481712812 -1.3367358273481644
0.10545844872466634 -1.205395584691012
0.1243888712885076 -1.1834810554882451
0.13893105148186813 -1.131502612871107
0.15169868004647136 -1.0793921949283118
0.17051356689385172 -1.0765802912487001
0.18927651365695417 -1.0734404507833069
0.19844135519160672 -1.0208922707855705
0.21622815845046983 -1.0172735047631578
0.22270154380042648 -0.9646263641373829
0.239502676643671 -0.9605927690132365
0.25623085465149553 -0.9562665680261776
0.2866628500496791 -0.9997121637758517
0.30406657291164624 -0.9945569462015569
0.3368285238686927 -1.0366516027617174
0.3548692883583009 -1.0306152474032553
0.3899029633912624 -1.0712495876959354
0.42645785995890745 -1.11096070753167
0.4457818461649355 -1.103348786934477
0.4845065993266994 -1.141426018281026
0.5043534374139924 -1.1327963674768249
0.5451775576455022 -1.1691370452772785
0.6093358940368176 -1.249323724355842
0.6310467946379701 -1.2384990686218313
0.6760390504116828 -1.2714445337168547
0.7223663341670423 -1.3031833636376997
0.7949999999999998 -1.3769803920172576
0.8446624428524889 -1.405754373151464
0.8955635565541162 -1.4332012825043599
0.9476719209261472 -1.4592867882250375
1.012139155282052 -1.5005580063246253
1.095530993430498 -1.5645804045919742
1.1814483571078709 -1.6261241586936441
1.2698296988508218 -1.6851209261997877
1.360611860469705 -1.7415037654708554
1.4851961228776163 -1.8340644690384513
1.6133969003132136 -1.9227715522286346
1.7779199685642746 -2.045262962403712
1.9471700645042775 -2.1625514421392174
2.1210148997943703 -2.27451001203562
2.3340521247422306 -2.4169817291378677
2.6233661582020913 -2.623366158202091
2.9564865793918567 -2.855045902586479
3.3349728793834177 -3.1099125218849926
3.8717845407372247 -3.4861704591296507
4.53580457713886 -3.9429147642329485
5.791295989979473 -4.8594743292302365
6.768941324290217 -5.481380606044084
8.636597859529674 -6.747649769569215
11.987519005809865 -9.033243497512244
17.40195554900512 -12.643260776811099
12.48530584267893 -8.421445126269447
14.086078877158236 -8.801958978913532
14.323265594732298 -8.606286231747003
11.353593043613989 -6.555
9.935679873103535 -5.507437285998389
8.35268422844545 -4.441200983954527
7.359713889795919 -3.7499615278486567
6.660063883076828 -3.2483301977070638
6.0360098616640885 -2.814637623193058
5.536085473314162 -2.464824057039349
5.118006985195568 -2.1724650744003613
4.830627882292962 -1.951700351696901
4.817275000725561 -1.8491786196537496
4.519921505980219 -1.6451168893964667
3.9806332032731238 -1.3706419302646298
3.861289456158323 -1.2546089971622862
3.834782071411772 -1.1724105359381742
3.710470146321911 -1.0639601934536165
3.5352885242179903 -0.9472777050752258
3.163164067659748 -0.7886653796549163
2.98157239824282 -0.6883502262922265
2.8953168981720645 -0.6154186048205678
2.758372385487936 -0.536173277008091
2.668829010663084 -0.47058656147738126
2.5778665689533096 -0.40829395375500255
2.4855728525413414 -0.34932448340976413
2.3920362254555863 -0.29370511760640533
2.347071673069125 -0.24668717331166198
2.3310955935346844 -0.20394443802951986
2.234543472582007 -0.15625450118684042
2.1869986811125166 -0.11461574417204715
2.138696369820865 -0.07468492294335219
2.0396892981190384 -0.035602909132058415
1.99 0.0
1.9896969133612186 0.034730288810194236
1.8888486630660908 0.06596004876772692
1.8874098206861445 0.09891495729916397
1.8355178524780766 0.12835191168919075
1.7831885095842246 0.15600877951830835
1.7801941927092093 0.18710594924909996
1.7270303038559005 0.21205265752495653
1.6735530361732538 0.23520254062251053
1.6198088785760258 0.2565525226659786
1.6150847149400211 0.28478301137376577
1.5607872216817857 0.30338630264870636
1.5063473051300607 0.3201840038593495
1.5005298997692622 0.34642462368955224
1.4457406321512347 0.3604636244435051
1.4392294811707116 0.3856403772027561
1.4322799269480952 0.4106996601673287
1.377078848586771 0.42101525480074087
1.369521383465021 0.44498447189992424
1.3615467488630162 0.4688181424183056
1.3061727428924124 0.47540799922267957
1.2976767928311104 0.4981314498679674
1.2887855578478342 0.5207031648481178
1.23347650362627 0.523579712175627
1.2241509132410853 0.5450271017215724
1.214452434629111 0.5663084707325372
1.1594443197259254 0.56549877935791
1.1315782857192271 0.5765679346692244
1.1390023947880157 0.6056183159937993
1.0845284368528507 0.6011639291054579
1.073871500692704 0.6199999999999998
1.0886024718916825 0.654098355135769
1.0515796392339682 0.657099887649174
1.023178092893417 0.6644596227183331
1.052877717144903 0.7101749874078485
0.9993654940325698 0.6997632523482764
1.0031810730249349 0.7288537128426666
0.9743353222576971 0.7342143282454991
0.9377327967919991 0.7326371556375333
0.8859463960609468 0.7174252457968144
0.9115928873115838 0.7649172555269818
0.9131985920695541 0.7938314250785137
0.9735197213753863 0.8765610943301044
1.067776404363989 0.9957176056912478
1.158137078545228 1.1183999764389858
1.2091525958289964 1.2091525958289961
1.3267974875766846 1.3739390186468239
1.4390165397318717 1.5431563104164496
1.5791482310069056 1.75382178812665
1.7779199685642746 2.045262962403712
2.0633482270937917 2.4590026624119194
2.4606427290048645 3.0386407092967564
2.9921147700827 3.8297322625286685
3.917815800719833 5.1991171704078765
4.032206830726366 5.54985658141214
3.9060555315506225 5.578425421608035
3.8081036726357853 5.645745869099834
3.736223780203087 5.753280096105608
3.6087501894281253 5.7752075348252605
3.5331611938829726 5.88016768281649
3.4299999999999993 5.94093426996125
3.3257939948898727 5.999891190976255
3.22057492071121 6.057020487012239
3.1143748282132915 6.112304755932204
3.029144624312524 6.210666859927245
2.9202921886282334 6.262586808423251
2.8105502036537806 6.312599112310371
2.719488654285345 6.406713780028985
2.625992219845544 6.499558820513179
2.512159326312554 6.544398789745384
2.0897430757198365 5.7415219130019
1.9892214237332264 5.777118496911826
1.7644870378809498 5.430532708045327
1.6255866782584152 5.317054443154477
1.5187618305516652 5.296551944620137
1.4390338907700164 5.370547594167219
1.3450857395341522 5.39484423809454
1.2619754148690836 5.46621606344517
1.1144066627831895 5.242871139933198
0.994114865911799 5.1142776257623295
0.8786597789946669 4.983127230241773
0.5803718652992568 3.664323743607961
0.5232908596098453 3.7234079384683043
0.4338548625223251 3.5334642998431063
0.37734775239622975 3.5902240422794662
0.34077895414334336 3.895121269538725
0.21694263334423017 3.102424196308053
0.16276482391555505 3.1057378530867243
0.10504748507452824 3.008166389327478
0.050786502732494625 2.9095567929050987
