# .PCD v0.7 - Point Cloud Data file format
VERSION 0.7
FIELDS x y
SIZE 4 4
TYPE F F
COUNT 1 1
WIDTH 178
HEIGHT 1
VIEWPOINT 0 0 0 1 0 0 0
POINTS 178
DATA ascii
4.531193156845207e-17 -0.74
0.013438352956708371 -0.7698827252704213
0.025825627559850798 -0.7395492119941308
0.04029868630706686 -0.7689447417610219
0.055107614257859115 -0.7880755997052612
0.06710992191569677 -0.7670699175306441
0.07735106281806356 -0.7359462025725222
0.09383939442196357 -0.764260536763818
0.10298809471044844 -0.7327983708687621
0.12358322738178244 -0.7802737890701589
0.12849965147352851 -0.7287577372290339
0.14119865657864322 -0.7264041157512713
0.153854651205142 -0.7238292245430161
0.17771133293165348 -0.7697523511803359
0.19111829752373746 -0.7665336237580372
0.20446704563099138 -0.763081402768364
0.20397164330457937 -0.711333654994356
0.23097364673096205 -0.755480757210798
0.22867257583746112 -0.7037818220584136
0.25719884202115384 -0.7469596747234603
0.2701959132272784 -0.7423571704208676
0.28311068014078733 -0.7375285369327894
0.29593920879857066 -0.732475245107762
0.30867759150652624 -0.7271988342274279
0.3416587801836723 -0.7673781844197846
0.33386842677515255 -0.7159831517589534
0.34631320596337123 -0.7100472965763419
0.38135201978121935 -0.748445480318229
0.3943561127401483 -0.7416759780014985
0.40724008100692316 -0.7346805539970924
0.4199999999999999 -0.7274613391789285
0.43263198292444555 -0.7200205325897743
0.47162814516755236 -0.7547628055792192
0.45749678941262273 -0.704483277074156
0.49768168408896474 -0.737843439573987
0.510483028352431 -0.7290453194172027
0.5231288745403011 -0.7200251249937032
0.5657061217629253 -0.7507173794444553
0.5787217868061189 -0.7407301083903185
0.5915611675868471 -0.7305172037695526
0.6042203531053469 -0.7200817765318392
0.6494984387006022 -0.7471624844205443
0.6624393002952697 -0.7357133772226203
0.6751783764618736 -0.7240401646029786
0.6877117867544073 -0.7121464023352646
0.7353910524340095 -0.7353910524340094
0.7481133923521973 -0.7224447052773572
0.7606078496839375 -0.7092782944649985
0.81002785977036 -0.7293523609311554
0.8226334424428215 -0.715104341599653
0.8732906651556349 -0.7327778750426547
0.8859463960609467 -0.7174252457968145
0.898332259111663 -0.7018540818712503
0.9503762569562785 -0.7161598775509374
0.9627302233061874 -0.699464450228043
1.01574853491835 -0.7112347810752971
1.0694584685960038 -0.7213588454772634
1.1238185610468683 -0.7298163069201362
1.136384448849611 -0.7100918140724947
1.191462547975936 -0.715902924124975
1.2470765814495914 -0.72
1.2594523782807299 -0.6981258531547253
1.3155919133598013 -0.6995126285509773
1.3721500472500865 -0.6991453695989021
1.4290825336156756 -0.6970101233946331
1.4863447707401058 -0.693093949254747
1.5438918234159955 -0.6873849267981023
1.6477036876798683 -0.6994087199957999
1.9099987404075822 -0.7716895824367785
1.9698546999090956 -0.7561563735405836
2.0767206919368575 -0.755864516749728
2.136871980854456 -0.7357840290731741
2.2444933784565624 -0.7292801067248759
2.400324937467219 -0.7338529788540691
2.5088930263990123 -0.7194134986823676
2.5500441814031403 -0.6832822790706546
2.6100955036824303 -0.6507698991631059
2.6892613788072492 -0.620864909989067
2.8953168981720645 -0.6154186048205678
3.1510232588670015 -0.612496875158709
3.3581944377716293 -0.5921402858442325
3.664323743607961 -0.5803718652992566
3.970974955653697 -0.5580841348498623
4.377128528738231 -0.5374438044167003
4.883102506258222 -0.5132347546441781
5.389413316676343 -0.4715125682648302
6.144994549600518 -0.4296998782638111
7.10025599210502 -0.3721086488873312
8.65472456198537 -0.3022296414436588
10.058467813273296 -0.17557120875907237
16.36 0.0
22.706541157001645 0.3963441501907091
34.28909927502518 1.19740173186281
44.9982468360411 2.3582581883070524
18.95558732571929 1.9923125098814776
16.287682348434096 1.9998759252784695
12.19019992620873 1.7132208728184053
9.689222621238303 1.5346221020446649
8.479194753435111 1.4951108097122703
7.568345584381489 1.471137354353161
7.590425381694331 1.6133947207458128
6.4893046314696665 1.4981740219301416
16.2136415860719 4.04251487547045
4.839288389708232 1.2966834159636298
4.815921096650977 1.3809431526431655
4.886717302971112 1.4940194111331846
4.907451624082992 1.5945276909747286
4.358840633512851 1.5008691920474926
3.8151520403907875 1.3886017819022152
4.21044772350238 1.6162394524493044
4.2279583768245494 1.7082060659765592
4.197502131743128 1.7817339459110888
4.21144455973239 1.8750559245794396
4.223394287590789 1.969401099711659
2.3458524608408258 1.1441486931194924
2.370077354341059 1.2076147293071946
2.3486405970047457 1.24879435701047
2.3702194063477626 1.3138340708675733
3.1263517076618235 1.8049999999999993
4.2086914464473715 2.5288369478083665
4.163916152128052 2.6019035873850362
4.075938960214761 2.6469457101730325
3.8633150881064946 2.60583893017368
3.735333321957802 2.615508549760771
3.6082157949122657 2.6215222252244303
1.4854620486879646 1.1193759430628103
1.4105392489560322 1.1020340408329283
1.3522339729351296 1.0950174804267168
1.3329173310270217 1.1184504408545786
1.237723711565346 1.0759368075444318
1.1964631690186047 1.077300276237762
1.2140471446878232 1.1321172777037474
1.21568426257232 1.1739726460757056
1.1950104602052654 1.1950104602052651
1.1531328949619353 1.1941040685621611
1.1321172777037474 1.214047144687823
1.043843745919819 1.1593059277447348
1.0562550366747168 1.215082424158663
1.0670274320796556 1.2716337755775033
1.04467184914273 1.2900622960185717
1.0219980490405929 1.3080978509871584
0.9388314361171951 1.245871395673777
0.9169449935762581 1.262066511224918
0.8947792407076317 1.2778771890908274
0.8443812842408277 1.251846734558113
0.7951729911219397 1.224459029200319
0.8001780889921394 1.2805526251962032
0.7519555893686792 1.2514642590250837
0.7049999999999998 1.2210958193360586
0.6835815645473353 1.2332137870665478
0.6619549035281057 1.244956105931087
0.6628261296197384 1.300869525315017
0.5961847596331451 1.2223599029668673
0.5747608359673513 1.232578590369844
0.5531618345830885 1.2424218223939372
0.5313943347454123 1.251886600695319
0.5094649670456406 1.2609700422108308
0.42645785995890717 1.11096070753167
0.4070039705575459 1.1182342187352308
0.38742610380401626 1.125167104963187
0.36773022330618743 1.1317572543912326
0.33330374338391966 1.0901874217978604
0.314226585631379 1.0958383333696835
0.2691718069066218 1.004562859340631
0.2515987714236544 1.0091075553270363
0.25644420195200623 1.110781873855168
0.25157314588948865 1.1835585968879048
0.24995978394327384 1.2859316103164398
0.2535263393937181 1.437819319397824
0.22839431895873713 1.442024977268901
0.1753581072096822 1.2477377666143787
0.1596488398607432 1.300235458650132
0.13170586371724363 1.2530975881640243
0.10545844872466634 1.205395584691012
0.08789315691759808 1.2569307033273784
0.06332650705396192 1.2083417370530343
0.04397336584515136 1.2592324420440606
0.01937217114538455 1.1098309416235943
