# .PCD v0.7 - Point Cloud Data file format
VERSION 0.7
FIELDS x y
SIZE 4 4
TYPE F F
COUNT 1 1
WIDTH 178
HEIGHT 1
VIEWPOINT 0 0 0 1 0 0 0
POINTS 178
DATA ascii
4.2250314570583685e-17 -0.69
0.012042160441725682 -0.6898949096579099
0.024080652724725742 -0.689579670643176
0.03611180980763133 -0.6890543789806559
0.04813196688344656 -0.6883191946792786
0.06013746249588411 -0.6873743416833044
0.07212463965468088 -0.6862201078041085
0.08408984694955177 -0.6848568446325121
0.09602943966244516 -0.6832849674316835
0.11576150412977088 -0.7308893720404019
0.12849965147352851 -0.7287577372290339
0.14119865657864322 -0.7264041157512713
0.153854651205142 -0.7238292245430161
0.1664637802144602 -0.7210338479410741
0.17902220274375408 -0.7180188374442373
0.19152609337586535 -0.7147851114539105
0.21775351109542934 -0.759396739791272
0.2163550614948252 -0.7076655194126462
0.2441234255562085 -0.7513346478731713
0.25719884202115384 -0.7469596747234603
0.2701959132272784 -0.7423571704208676
0.3010290776180523 -0.7842075582576494
0.31466953846936624 -0.7788344378361013
0.3282141479309899 -0.7732240769000499
0.3416587801836723 -0.7673781844197846
0.3549993398621875 -0.7612985411107859
0.39015032064227895 -0.7999267012062585
0.4040515447681967 -0.7929958065276475
0.3943561127401483 -0.7416759780014985
0.43148056201924 -0.7784115393540623
0.4449999999999999 -0.7707626093681504
0.48413579041545096 -0.8057372626599855
0.49812410837921256 -0.7971652103870404
0.5119606929141254 -0.7883503338686985
0.5536009744360394 -0.8207471968294912
0.596519493805088 -0.8519181260605515
0.6112966623841721 -0.8413776741499454
0.6258876240781303 -0.8305809304491846
0.591035016312632 -0.756490323462453
0.6041475754078439 -0.7460601229986921
0.5720809726210201 -0.6817795543758904
0.629816667830887 -0.7245211970138611
0.6423653821045039 -0.7134190324582984
0.6547184256599986 -0.7020995535544035
0.7016049541635873 -0.7265331983420376
0.7495331880577405 -0.7495331880577404
0.9423351384436331 -0.9100024653012865
0.9580733491211135 -0.893417851681873
1.0106769626492564 -0.9100176246480471
1.0641405081141084 -0.9250432308766152
1.118424886953708 -0.9384699101423473
1.173490401800026 -0.9502737904852545
1.2292967756264863 -0.9604319015080268
1.2858031711761415 -0.9689221872747977
1.3429682106624128 -0.9757235188055053
1.4417075979486256 -1.0094945279778411
1.4591061276968735 -0.9841795101085143
1.3502596143921328 -0.8768688463741935
1.3483964728887174 -0.8425716301307958
1.465756084200612 -0.8807151080961924
1.4809034404713899 -0.855
1.9766405381350343 -1.0956697417567216
2.3927879766476923 -1.272267935149764
2.5928289853881505 -1.3211123542420813
3.3345259117699095 -1.6263569545874772
3.389591123517071 -1.5805922989102157
3.3892536478540496 -1.5089929458112186
3.55314873432642 -1.5082221559685962
3.903444027726175 -1.5770937582809892
7.0111890029939845 -2.6913433010852055
7.855830309770193 -2.8592883982025907
8.755502010049673 -3.014761110273271
10.328473766965367 -3.3559245589119286
12.10681821049203 -3.701425781789847
12.26569924017295 -3.5171326602249087
12.32521354344851 -3.3025310155081637
18.154233038623897 -4.526358666669782
18.230463912131754 -4.208834226773712
19.377103970536687 -4.118730595099813
18.51348867982294 -3.598657652801636
18.573474221810244 -3.2750046307983065
18.627802103624298 -2.9503540106587542
18.676455776466018 -2.6248046841068335
5.339603581771756 -0.4671547811274473
4.499013866671808 -0.3146016965860045
3.9046414808903838 -0.20463358890991068
1.7089583142026536 -0.059678139361276736
1.6697456509111734 -0.029145518750263503
1.67 0.0
2.009693867264346 0.0350793369389399
2.158684186361247 0.0753829128774022
2.1570397950698794 0.11304566548475883
2.104860146048229 0.1471861596001046
2.2514000176873448 0.19697197860970772
2.197893388763884 0.23100790382151448
2.34240891787352 0.28761165043614795
2.2875192387930277 0.3214898632177511
2.2321756497450114 0.3535418909909217
2.077944358855759 0.36639765487722303
2.267558793764104 0.4407687793198186
5.53631542015334 1.1767801700285183
5.514934566684432 1.2732229675862765
5.8799921012325385 1.466046687333987
5.66032534205394 1.5166796043007726
2.1724514328206004 0.6229404241464179
2.065618272880157 0.6315228822011113
1.7214122944942278 0.5593207598186548
1.6168367642748318 0.5567215441217379
1.5598897505046077 0.5677534379206102
1.5497435079853548 0.5948907962451985
1.539125198580867 0.621846945070414
1.482012814058429 0.6290771168677309
1.5621627325688474 0.6955196596596185
1.5497863158326715 0.7226772275765959
1.5369378191715755 0.7496146610093226
1.5236211563621092 0.776323754554625
1.5539877634317114 0.8262699505031681
1.6267926552792762 0.901745893658187
1.5675059808498342 0.9049999999999997
1.5086144492357174 0.9064670118416955
1.49256464923531 0.9326579050504407
1.5179937279812175 0.9857966533771992
1.5005580063246255 1.0121391552820518
1.482665200163075 1.0381733497953938
1.5047716095374024 1.0932805692640002
1.525393824190329 1.1494666942204126
1.544501077069175 1.2066964916382903
1.5232060844556632 1.233467966457681
1.5397493306691457 1.292003095469944
1.5169662562477715 1.3186786482709192
1.4565638579356925 1.3114959884633623
1.4334532551735744 1.336716785722497
1.4458729986806882 1.3962633246225846
1.456639969244288 1.4566399692442877
1.465729161668484 1.517806978714554
1.5072163757381216 1.6162916805783667
1.5122351703710197 1.6795073055789105
1.548299308417597 1.781114609325742
1.5491181393445603 1.8461671079167372
1.5795941815350918 1.9506363632569967
1.6068764505999684 2.056708066913544
1.6911002150572554 2.2441657832328934
1.681065821556473 2.3137886039123496
1.697786251599096 2.424690051095416
1.7111302846204852 2.536854972018428
1.7482913023982374 2.692132523104811
1.7805287278235684 2.849441603085591
1.8077836429342904 3.0086572254644137
1.8549999999999995 3.2129542480402677
1.8956056151631782 3.4197630549150375
1.953001701189305 3.673061986293136
1.9793985788644244 3.884788445461284
1.998972429358192 4.098500851124201
2.096186578233869 4.495286623701784
2.11909791042492 4.75957183431795
2.1920016308248256 5.164032227868191
2.307576615442019 5.71145254413141
2.368812146494434 6.170966619146504
2.2436521402163874 6.164383592355558
2.135727093238947 6.202601855931518
2.011700633380908 6.1913779210814495
1.9179583829811517 6.273359199117513
1.8081810541595145 6.305876725355372
1.6849119836174113 6.288177129141833
1.5749115403538365 6.316625178056737
1.464431363778562 6.343149121751881
1.3431095226827245 6.318833500740385
1.1276811626753804 5.801416654175695
1.0175783211282112 5.77097343265154
0.9167059651357533 5.787853675887508
0.37020044855377354 2.6341130628525775
0.3278285337598467 2.669949147915156
0.2780457122919588 2.645428241679607
0.23619206284615354 2.6996876318286303
0.18904004384658 2.7033985762041235
0.14183044141837756 2.706286039184895
0.09457763606377792 2.7083491412217495
0.048168641766902116 2.7595796386316396
