# .PCD v0.7 - Point Cloud Data file format
VERSION 0.7
FIELDS x y
SIZE 4 4
TYPE F F
COUNT 1 1
WIDTH 180
HEIGHT 1
VIEWPOINT 0 0 0 1 0 0 0
POINTS 180
DATA ascii
1.9900510486144489e-16 -3.25
0.05672032092117169 -3.2495050092582716
0.11167838944800346 -3.1980506464611067
0.1674750599774207 -3.1956145112146364
0.22880123388073148 -3.2720100848522233
0.2858708362123187 -3.2675186097409252
0.33449108245649106 -3.1824700651784745
0.39973144636888375 -3.255551377383536
0.45231257812021275 -3.2183712234101036
0.5084120113807505 -3.209987106934198
0.5643565774175239 -3.200625197289676
0.6201292349737709 -3.190288346204908
0.6757129951577182 -3.178979702384868
0.7310909266175617 -3.1667027105520145
0.78624616069892 -3.1534611103969885
0.8282209443280664 -3.090962644125019
0.8958214064052473 -3.1241005117995364
0.9355894551127577 -3.0601752190817137
1.0043052317185792 -3.090933677959249
0.9994942341834712 -2.9027420270899023
1.0500018400098032 -2.8848563458127385
1.1181080025813372 -2.9127709306712695
1.168772571457646 -2.8928136262483766
1.219081120886534 -2.871975142771614
1.2690183263964971 -2.8502618278449146
1.3396998897180172 -2.87299568490618
1.4115550926608296 -2.8941168290833175
1.461849409161341 -2.869041007886545
1.6196768916113236 -3.046169195363298
1.6580489012424728 -2.9911993984167333
1.7099999999999995 -2.96180688094278
1.7871821199378883 -2.9743705334363297
1.8653158101008813 -2.9851292984706195
1.9443613550036467 -2.9940539275651634
1.9963186653905665 -2.9596641340214984
2.0763466995907867 -2.9653304003261503
2.1571718759133764 -2.969092369356057
2.2387518861256197 -2.9709240973759297
2.2902606882114496 -2.931400003417006
2.372537874257887 -2.9298402746927805
2.45544866900258 -2.926289772714496
2.5389484421932633 -2.920726075462128
2.6229919769267243 -2.9131277158713855
2.7075334894481196 -2.9034741954281063
2.792526649245169 -2.891745997361377
2.8779245994292486 -2.877924599429248
2.9996469674121755 -2.8967254048140183
3.0863126208328997 -2.8780330794637434
3.173228404788474 -2.857187689152324
3.1471389495289595 -2.735766150890415
3.1944053278061384 -2.6804243323928687
3.1241267650570226 -2.529867972020346
3.167803229499022 -2.4749591308091454
3.1705829748877528 -2.3892056419136316
3.2522483173872883 -2.3628967142157418
3.211076013612848 -2.2484196304961004
3.2083754057880114 -2.16407653643179
3.1617880411542485 -2.0532891620066516
3.154738917701905 -1.9712996629475223
3.188662358611858 -1.9159416386654011
3.1783132318888896 -1.835
3.1661233398446127 -1.7550108252917402
2.445764832219228 -1.3004362289169176
2.468088072001779 -1.2575536842785446
2.534599210563651 -1.2362066339451983
2.6917341274988504 -1.2551762373698772
2.713230009198525 -1.2080078299351265
2.964025628116858 -1.2581542337354612
3.0133475273420594 -1.2174714286017136
3.0528079946458497 -1.171863195013132
3.166764132048511 -1.1526078830075037
3.328225386109595 -1.1459999036891917
3.490377414803213 -1.134092369356057
3.6530841677787955 -1.1168599120408542
3.8642720176720418 -1.1080621703843363
4.0279106956254145 -1.0792754180775113
4.240192323826105 -1.0571986837705476
4.452871196068525 -1.0280263183514624
4.763578815573633 -1.0125299342824883
5.02593117925204 -0.9769420563279098
5.386898408976777 -0.949855531838109
5.748346142263702 -0.9104485865341437
6.060440580698411 -0.8517393778756003
6.669910139029684 -0.8189619876825908
7.279900274095761 -0.7651483511192229
7.939671743791211 -0.6946312696988348
8.698758518265668 -0.6082764510487716
9.706679077814458 -0.5087054946814148
9.714078838625612 -0.3392231079483099
17.367354464866516 -0.30314829981561503
17.52 0.0
17.617316388655617 0.30751140142493594
21.90664692825858 0.7649969677188224
34.822211876891984 1.824954794191454
34.78505843256007 2.4324082394576525
34.637689652649996 3.030405175336079
34.52980020718645 3.6292282446529334
34.51082969256877 4.237397070196977
24.330886448980383 3.419483090588807
17.353684144256572 2.7485535507568564
17.253831832773884 3.0423160727246197
9.492334863938911 1.8451229852911888
9.507594679132591 2.0209016347486215
8.301632951970204 1.9165829830097305
7.345138647909294 1.8313487496894856
6.539317843976991 1.7522049353440665
5.882921579142511 1.6869006176000345
5.37443272851226 1.6431289805417804
5.012067840875459 1.6285195603559726
4.6046754631686735 1.5855169122063533
4.294395276991601 1.5630320549983063
3.986388421143051 1.5302311445584322
3.680919902630146 1.4871881758611711
3.5163285401883217 1.4925929108290261
3.261357283784085 1.452049815780607
3.0542572423135104 1.4242235420661569
2.8941168290833175 1.4115550926608298
2.7353900292582893 1.3937508342004086
2.5782069711480666 1.3708569633348016
2.510158559490066 1.3914036101069873
2.3555890982936734 1.3599999999999997
2.2457783278395342 1.3493997562643423
2.1794836071220147 1.3618925090793366
2.029582774427926 1.3180264647363658
1.964819046955449 1.32528718122567
1.9004327427504606 1.3306973323344273
1.860739087062379 1.351906080272688
1.756998122104044 1.3239930509345068
1.654822582574116 1.2928890981838825
1.6320065190596391 1.3215728212046582
1.532088886237956 1.2855752193730787
1.509419160445544 1.3121180579810143
1.4491324096809186 1.3048046823997737
1.389572033076424 1.295796884118747
1.2948116406095718 1.2503850668261953
1.2727922061357857 1.2727922061357855
1.215652148303245 1.2588446505926398
1.1593972121062475 1.2433012927525897
1.137522030810059 1.26334620331157
1.0824973978343368 1.2452708073675738
1.06059955598279 1.2639733311463137
1.0069126256797398 1.2434335383311534
0.9542752867547706 1.221416668090419
0.9328132858856747 1.2378850405733042
0.9110671410533334 1.2539763412811686
0.8316858327090166 1.1877704642190383
0.8387893552061202 1.2435563588325627
0.7897266007717894 1.2160723235208646
0.7683829331381471 1.2296697394268177
0.7468052086195787 1.2428925860180626
0.6749999999999999 1.1691342951089922
0.6544929873325551 1.1807366046381844
0.6337866097609524 1.1919792503595514
0.6128871746483883 1.2028588076542968
0.5918010481652544 1.2133719625038757
0.5494037402629093 1.1782001231476449
0.5287576359985405 1.187609094935381
0.5079504670360558 1.1966563094881726
0.48698857144068586 1.2053390109368236
0.44795993693162517 1.1669755331215022
0.42752517915708604 1.1746157759823854
0.40696019307144565 1.181898219499146
0.37082039324993693 1.141267819554184
0.3654646309034207 1.1953809449537944
0.33903394765490896 1.1823518860041322
0.31058285412302516 1.1591109915468818
0.2903062747196012 1.1643548715311958
0.27668979684295414 1.1984751796858393
0.24949402898131107 1.1737771208805667
0.22515461454432298 1.1583200764682435
0.20490484964697764 1.1620731485544056
0.1845926687474725 1.1654722419022625
0.17118291418088025 1.2180297245521314
0.14380582521807403 1.1712044589367598
0.12334358665583134 1.1735358365345625
0.10284377644223659 1.1755097437482598
0.08231263901806803 1.1771255793065925
0.06175642836667362 1.178382851010397
0.03943643127382622 1.1293116345315781
0.019721219274130213 1.129827895526722
