# .PCD v0.7 - Point Cloud Data file format
VERSION 0.7
FIELDS x y
SIZE 4 4
TYPE F F
COUNT 1 1
WIDTH 177
HEIGHT 1
VIEWPOINT 0 0 0 1 0 0 0
POINTS 177
DATA ascii
4.592425496802574e-17 -0.75
0.01396192514982688 -0.799878156125113
0.02617462252687581 -0.7495431202643218
0.04186876499435518 -0.7989036278036591
0.05580517899530037 -0.7980512402078594
0.06972459419812652 -0.7969557584733965
0.08362277061412277 -0.7956175162946186
0.097495474724118 -0.7940369213130576
0.11133848076805238 -0.7922144549932564
0.12514757203218474 -0.7901506724761103
0.14760095101689086 -0.8370865900603768
0.15264719630123594 -0.7853017467581312
0.17672493719509552 -0.8314254606237347
0.19120839619228536 -0.8282145550674499
0.2177297060397009 -0.8732661536483969
0.21999618833714263 -0.8210369523457081
0.23429175244444927 -0.8170724415475711
0.24851594901432625 -0.8128590425685801
0.27811529493745274 -0.8559508646656382
0.2930113390114411 -0.8509667180393851
0.30781812899310196 -0.8457233587073175
0.34044955206803534 -0.8869014051723416
0.35587626374511655 -0.8808246618384479
0.37119457206481 -0.8744796107798183
0.4067366430758004 -0.9135454576426008
0.42261826174069944 -0.9063077870366499
0.43837114678907746 -0.8987940462991669
0.45399049973954686 -0.8910065241883679
0.51641871906448 -0.9712423521448197
0.509050101258654 -0.9183506924963656
0.5499999999999999 -0.9526279441628827
0.5922937861465624 -0.985742395807429
0.5829111906565254 -0.9328529057720686
0.6263348902672811 -0.9644711531372374
0.6430718389913589 -0.9533932084382978
0.6882917236212552 -0.9829824531467901
0.7347315653655915 -1.0112712429686843
0.7522687789400604 -0.998294387559116
0.769576844157073 -0.9850134420084024
0.8181165083647887 -1.0102897498940622
0.8356238925925012 -0.9958577760546714
0.9184826405867101 -1.0565934123118808
0.9367828489024015 -1.040402755668352
0.954797704087498 -1.0238951822668385
1.0419875556884959 -1.0790097005079766
1.0606601717798214 -1.0606601717798212
1.1149766905249094 -1.0767204742114458
1.1701659225906729 -1.0911973760999976
1.2633462033115703 -1.1375220308100589
3.4490227816180683 -2.9981897624866183
3.4625208828977803 -2.9053999957831573
3.4738424477126597 -2.813062147992773
3.522408068622047 -2.752006794705692
3.5299689544090342 -2.660022402332053
3.5354042654185203 -2.5686215525181075
3.5796944335428944 -2.5065290268540714
3.5814423134377806 -2.415713342993626
3.6230568535242322 -2.352840631264917
3.663567775395761 -2.2892512214874454
3.6601043739980192 -2.1992125798659306
3.6979284741595526 -2.135
3.69089516412825 -2.045896597439542
3.7260388418646717 -1.9811699949564592
3.7600475320749123 -1.9158399089008875
3.756959113530518 -1.8323913935783434
3.869934250646495 -1.8045799776327862
3.928245467863184 -1.7489675652259407
4.2987576656228965 -1.824714370044908
4.700822142653612 -1.8992554286186734
6.675100049454993 -2.5623308392488973
7.724273342860167 -2.8114055781369975
9.710475771404983 -3.343584946274999
12.240097364718626 -3.9770487176055727
14.028990769977732 -4.289092908282548
23.95464146278291 -6.868882906959619
21.51116815145755 -5.763900134433135
24.22828428511163 -6.040789733123701
21.796658349245714 -5.032155085672257
5.057023095793775 -1.074903441527816
5.369500693458722 -1.0437252047097003
5.485379184277999 -0.9672203496048022
9.946021589793038 -1.575295062955125
9.625405628168064 -1.3527625413318358
5.356918949895257 -0.3745922640059522
5.212846171418875 -0.27319369158816714
5.31675919974159 -0.18566532245730544
4.36933442783343 -0.07626701613092905
4.22 0.0
4.269349658317791 0.0745217754872007
4.467276996775357 0.15600075026017954
4.463874020352945 0.23394172440595923
4.508989507174405 0.31529926132344677
4.5028000353746895 0.39394395721941544
4.395786777527768 0.46201580764302896
4.3870539902546435 0.5386624978507516
4.42649826727482 0.6221037612914924
4.217429214341238 0.6679751657217857
4.057407942410297 0.7154304919877531
3.8970599182872263 0.7575117116448832
3.5408943146563763 0.7526403207602891
3.624656641001075 0.8368179221591782
3.4154409564915076 0.8515650725108308
3.303466325908613 0.8851611342506215
3.1433257457183026 0.9013341535215871
3.0793013142009746 0.9414368892072122
2.7770850275818484 0.9023296235748464
2.7136383119700396 0.9343806032920398
2.6499331906162613 0.9644968041783859
2.679375824046969 1.028516015195012
2.568299277150001 1.0376602637620767
2.5497984440632595 1.0823252259152887
2.5761981905521343 1.1469973334737569
2.465157180739688 1.1495216719347023
2.444719805933734 1.192369519266291
2.334437093373524 1.1894551093176127
2.269175313647442 1.2065419163597397
2.2040416619912775 1.2217202430207694
2.0957814771583414 1.2099999999999995
2.031486502664006 1.2206402375368286
1.9250691782750873 1.202916729809375
1.7779816040442988 1.1546347542318578
1.7161077751889362 1.1575293101844457
1.8185175383215617 1.273339688699323
1.7960177275123834 1.3048832600892906
1.733039056802625 1.3059386002399451
1.6705827976462506 1.3052023276903957
1.6475494382887785 1.3341592290256552
1.5857119972562843 1.3305703520511363
1.5245133520499994 1.3252392385608245
1.5383097887382058 1.3851003551628367
1.513902162351683 1.4117366053293718
1.453066396684075 1.4032099083271747
1.4283556979968262 1.428355697996826
1.3684769898042244 1.417099406667143
1.343536769323122 1.4407667921897658
1.284730764209008 1.4268380649165966
1.259633335661774 1.4490423940277222
1.2020128301138289 1.4325031086324889
1.176829131263196 1.4532629479245356
1.1205038850926983 1.4341795715642338
1.0953033421367278 1.4535166282860732
1.069769159172301 1.4724109297624044
1.0439091141589036 1.4908567206059653
0.9618117939696845 1.4259446247946717
0.9367791402258467 1.4425133768661291
0.964453060904433 1.5434475350046952
0.9373692963362988 1.5600444872778443
0.8849999999999998 1.5328649646984565
0.8581130278360167 1.5480768816367305
0.8309646661310265 1.5628172393603008
0.7808636595520206 1.5325312216039928
0.7539983724772128 1.5459257596345672
0.7269034101940031 1.5588493937030379
0.6995870260903766 1.5712981871452734
0.6525209845770871 1.5372431052655753
0.6255930110045733 1.5483970371265348
0.6163928732179162 1.605758333575187
0.5711736393538669 1.569286676712467
0.5436988179434514 1.579016021250859
0.5160583806061623 1.5882643822129063
0.4736421616508332 1.5492137046601178
0.4465325164235387 1.5572439474200768
0.4166986626150588 1.5551405803254
0.39191347087146167 1.5718790765671145
0.36442070803706156 1.5784795049520812
0.3472125236656579 1.6335064932254555
0.31865102227883 1.6393173963575989
0.28999245670377344 1.6446289475303875
0.2612455566171856 1.6494395287938801
0.23241907860330896 1.6537476747984223
0.2035218034865963 1.6575520732410076
0.17456253365698163 1.6608515652650164
0.14555009038858907 1.663645145813215
0.11161035799060073 1.596102480415719
0.08269081086385112 1.5778346649122268
0.05514120478995171 1.5790375066901714
0.027574802170907735 1.5797593583470984
