# .PCD v0.7 - Point Cloud Data file format
VERSION 0.7
FIELDS x y
SIZE 4 4
TYPE F F
COUNT 1 1
WIDTH 180
HEIGHT 1
VIEWPOINT 0 0 0 1 0 0 0
POINTS 180
DATA ascii
1.4940690949597708e-16 -2.44
0.042060299513853476 -2.409632945326903
0.0806178373827775 -2.3085928104141114
0.11827926110905335 -2.2569027485453366
0.150673983287311 -2.1547383485612204
0.1821555023426055 -2.082046919011748
0.21323806506601306 -2.0288246665512775
0.2425199933762435 -1.9751668417662307
0.2630371608145237 -1.8716066499215678
0.28783941567402493 -1.8173465466950536
0.26741819360707286 -1.5166039396388005
0.2938458528798792 -1.5117058625094026
0.30978841931846157 -1.4574399250933703
0.3239295182551658 -1.4030928932907387
0.33627143488353806 -1.348711059523635
0.35975847269250383 -1.342636898541805
0.3693540567947789 -1.2880906725573473
0.3800832161395578 -1.2431961827519462
0.4017220926874317 -1.2363734711836996
0.42974996388344694 -1.2480845197910981
0.46856759635616635 -1.2873788904766945
0.4730456933997965 -1.2323261629763063
0.5019728351773224 -1.2424263651194951
0.5235797121756268 -1.2334765036262703
0.5450271017215725 -1.224150913241085
0.5874393838195722 -1.2597678239809433
0.6312544513762716 -1.2942634266708004
0.6537463196249474 -1.2830493948312498
0.6995126285509774 -1.315591913359801
0.7466068151793591 -1.3469143489946696
0.7699999999999998 -1.3336791218280357
0.8189105391069863 -1.3628960081163586
0.8425716301307958 -1.3483964728887174
0.9204399691753957 -1.4173532598277665
0.9729956520390997 -1.4425253762457724
0.9980229992508202 -1.4253245570628457
1.052135601603527 -1.448140419931156
1.1073396425997688 -1.469489338487019
1.1943832621317774 -1.5287408619970404
1.2208815586366846 -1.5076631652265235
1.3112867237605403 -1.5627306639627152
1.37116337059016 -1.5773430226655933
1.4319394976079567 -1.5903299265216237
1.5072163757381218 -1.6162916805783665
1.6393937542832335 -1.6976419287992164
1.7041273426595798 -1.7041273426595795
1.8055428988500144 -1.743592509852083
1.9088331612260352 -1.780015719763121
2.051079718317608 -1.8468004735504482
2.158469399437128 -1.8763288229128507
2.098961774146 -1.7612380505411176
2.222637449766937 -1.799856318402535
2.687116669798922 -2.0994056308604945
2.883074191270727 -2.172552233578894
2.8801004999748128 -2.0925154981612044
2.424690051095416 -1.6977862515990962
2.288143700251915 -1.543372413579261
2.3398908845677333 -1.5195429076919253
2.3660541882764288 -1.4784747472106416
2.4086401149729357 -1.4472569904972519
2.4595121467478056 -1.42
2.4839199682758837 -1.3768593214995972
2.525230115576531 -1.3426886695676477
2.9492315950634977 -1.5027085541379
13.221260421060748 -6.448439569267329
13.286472157957288 -6.195583717118653
18.828171882014004 -8.382842213792241
19.93813512577986 -8.463236243077668
20.036443097188275 -8.095248483717857
3.3328821225950103 -1.279373579876722
3.3453057299978335 -1.2175917102393807
3.4605979866934997 -1.1915794453131936
3.5284196754550194 -1.1464530491310547
3.6913363580173173 -1.1285547802297637
3.710470146321911 -1.0639601934536165
3.8250662721047104 -1.024923418605982
3.9394006486805453 -0.9822028961346504
4.004660966267317 -0.9245488333532846
5.53631542015334 -1.1767801700285183
6.439474323416675 -1.2517070096701342
3.3581944377716293 -0.5921402858442325
3.318632824399663 -0.5256198025351757
3.5253543247199906 -0.49545623941783284
3.6128679919744124 -0.44360440999473666
3.540497947511053 -0.3721213292328461
1.9027318733552339 -0.16646746864802692
1.6360050424261117 -0.11440061694036528
1.6577250276925926 -0.08687768736328688
1.5590496901497894 -0.05444321485590159
1.4597776349283311 -0.025480513398433963
1.41 0.0
1.4097852501705117 0.024607893076569784
1.3591715247459704 0.04746331551540139
1.258273213790763 0.06594330486610932
1.2070525008143873 0.08440533323039173
1.1555858497864246 0.1011006615872836
1.1039193038587833 0.11602659422709552
1.1017262283218676 0.13527497117971365
1.0991975563031433 0.15448214206567262
1.046949641030846 0.16582053294264473
0.9946558305423301 0.17538465944359966
0.9914434552821406 0.19271708533031032
0.8901143166677631 0.18919963864416106
0.8379582557153022 0.19345790673572397
0.8344543245973569 0.20805283021571433
0.7341036279796919 0.1967024742779159
0.7786219737100384 0.2232662582117693
0.7554807572107981 0.23097364673096202
0.7703557781990744 0.2503037654437074
0.8131459750154125 0.27998861283315474
0.7611510228365858 0.2770363160937917
0.7562001454627335 0.29027803913169326
0.7510189221990978 0.3034313406668888
0.6995836886238546 0.29695565765184817
0.6942945478083766 0.3091198487376082
0.688793918147854 0.32118987892293155
0.6830834751873669 0.33316207155969896
0.6326146321737411 0.32233325481507824
0.6710401705727844 0.3567983877172771
0.6209799920689709 0.3442148303748993
0.5715767664977296 0.3299999999999999
0.6085887834984997 0.36567703318613853
0.5173093386554198 0.323250751182255
0.5115890464467086 0.33222981135916657
0.5471647978863275 0.3690673162906929
0.5815979514451841 0.40723926980924285
0.5339512162874653 0.3879382665130323
0.5270994366312132 0.39719791528035203
0.5200870973804365 0.4063365737149345
0.5129163345616009 0.41535145809289264
0.5055893324585256 0.424239822393116
0.4603728439358909 0.4001960076842094
0.4533183435412104 0.4081696698789036
0.44612575798769405 0.41601899963812405
0.4387972782065771 0.4237416059799884
0.431335136523794 0.43133513652379396
0.4237416059799882 0.43879727820657727
0.41601899963812405 0.446125757987694
0.3747131395609607 0.41616110226734077
0.3673930562346841 0.42263736492475235
0.35996106142446216 0.4289848881466277
0.35241941898790896 0.43520173841590376
0.3139873524160858 0.40188548433942817
0.337016412965147 0.4472358856264841
0.2997704786691613 0.41259866713122323
0.29252398253903344 0.41776754258738585
0.2572287355965435 0.3813572833753192
0.27776590785766386 0.42772198965216623
0.2702588247589345 0.43250452903977726
0.2626694182041277 0.4371553233580772
0.25499999999999995 0.4416729559300637
0.22301242531331508 0.40232506528412204
0.2300410657650864 0.4326443205008742
0.22245534487237795 0.43659319685230025
0.21480186192664785 0.44040908268659185
0.2070829482529427 0.44409081564795844
0.19930095510714219 0.4476372742448744
0.20318018681442235 0.478662523795269
0.19479542857627435 0.4821356043747294
0.16843293628629105 0.4387828004536848
0.16074946736306434 0.4416555317693769
0.15301703259486357 0.4443937305316789
0.15141832724372425 0.4660176929846252
0.1432621353141409 0.4685893304218874
0.1350623043503296 0.47101823100977624
0.13976228435536134 0.5215999461960968
0.11854172884383715 0.47544490587523824
0.10347748499817797 0.4482102298012082
0.10603496231705721 0.49885527637424093
0.08777213787321067 0.4515485043859255
0.08856057061013442 0.5022519540362261
0.07978157717051777 0.5037210537035203
0.07097828148963327 0.5050367150582009
0.06215336513662522 0.5061985373370742
0.053309516266503376 0.5072061666378194
0.04444942880130565 0.5080592960267902
0.035575801609503986 0.5087576656325103
0.025644618559042435 0.48932847202974117
0.01779874331827555 0.5096893217797388
0.008900727283014522 0.5099223245297596
