# .PCD v0.7 - Point Cloud Data file format
VERSION 0.7
FIELDS x y
SIZE 4 4
TYPE F F
COUNT 1 1
WIDTH 175
HEIGHT 1
VIEWPOINT 0 0 0 1 0 0 0
POINTS 175
DATA ascii
0.8239281079041587 -47.20280968833323
0.6573396104113762 -12.542786956517448
0.8621900154773906 -12.329891661211427
1.0641716189489059 -12.163537263700213
1.2815189596614314 -12.19283843721503
1.5002116173173656 -12.218243126704674
1.455750636042285 -10.358203999036826
1.4172962532644922 -8.948456365791948
1.3996043119954593 -7.937550489278397
1.3757328566648888 -7.077531992657657
1.363900691764502 -6.416648260813764
1.3407082838894362 -5.807245586120002
1.332989644754169 -5.346329451780741
1.322565320473881 -4.93588097233714
1.325815681479766 -4.623668757463314
1.3185963882995428 -4.31293444939329
1.3009615463185287 -4.003947933602596
1.3055282993731985 -3.7915294881532597
1.3030967460707983 -3.5802288851943107
1.2937082978585344 -3.370225339654898
1.296138813219056 -3.2080561368010843
1.293320035299496 -3.046871064927578
1.2649509599657391 -2.841126373268488
1.2720809678395053 -2.727986438980316
1.2756600371562155 -2.6154906747305757
1.2757133042681268 -2.5037283329693136
1.272267935149764 -2.392787976647692
1.241112627830623 -2.239026450276853
1.2549999999999997 -2.173723763498941
1.2669936642787334 -2.108631559727196
1.2665070415173598 -2.0268349498138583
1.247223390184412 -1.9205556005950208
1.2525921037744732 -1.8570441625232934
1.2274535737912387 -1.7529853747784425
1.2578604399058926 -1.7312963679623876
1.2277026472301784 -1.6292164404964773
1.255949409664343 -1.6075419373577127
1.2523475781891764 -1.546520463299372
1.2148685823075593 -1.4478239974948683
1.2399515647920587 -1.4264011066210391
1.2312003157002993 -1.3673864788784054
1.2207770645118725 -1.309123125898315
1.2434384831216052 -1.2876182426061855
1.2303657992645927 -1.2303657992645927
1.2156842625723205 -1.1739726460757054
1.2359877557363983 -1.1525772285056224
1.2559147550567964 -1.1308307247464702
1.1999882325542075 -1.0431338560949066
1.2409919978527444 -1.0413159276921937
1.2201191594874443 -0.9880330139482447
1.213536560554352 -0.9481186720015137
1.2298986854728309 -0.9267951356541544
1.2863370210561664 -0.9345785511450323
1.3434093526339466 -0.9406653556157155
1.4010734976180206 -0.9450360068655621
1.4592867882250378 -0.9476719209261469
1.5180060921200027 -0.9485554829774367
1.5771878332918867 -0.9476700578344995
1.593486742963367 -0.92
1.7404932172073975 -0.9647711442902107
1.8012130894322111 -0.9577219880832173
1.8622036355536888 -0.9488401444556528
1.9683589613951757 -0.9600328114680795
2.0029402093509963 -0.9339863584469457
2.110290007154408 -0.9395616455050984
2.172391454147759 -0.9221254632346858
2.280872282234297 -0.9215322198031433
2.3899658918328366 -0.9174219508359689
2.5465670023298115 -0.9268745884125623
2.6569071974340805 -0.9148465140246104
2.815127288233654 -0.9146903033498442
2.926292553246889 -0.8946574164515744
3.1337131287589193 -0.898577779963417
3.3421033589601765 -0.8955138960547215
3.5997971444839467 -0.8975302326747668
3.8097869533102697 -0.8795586224845117
4.118001399089321 -0.8753082183427671
4.427138597348964 -0.8605485691482173
4.8354060672899415 -0.8526125523446281
5.294009505589939 -0.8384887326156375
5.703944075951445 -0.8016370615299767
6.511102754767072 -0.7994628927377672
7.319681149910492 -0.769329489649929
8.92590449490204 -0.7809154550190164
9.786103333048876 -0.6843110074298681
11.793814805451518 -0.6180876432291675
19.157081839196458 -0.33438810733835256
24.21 0.0
29.85545217736984 0.5211288562172863
29.841810094790198 1.0420989715366804
29.819077907771575 1.5627516534143049
17.118199102458583 1.197021089449192
13.259351431601134 1.1600429359713318
10.352972930783725 1.088141302616274
8.396940442885585 1.0310146452075475
7.238859582500879 1.017355368018078
6.232313429155319 0.9871014744038568
5.4755311067478765 0.9654838678281328
4.917952189072796 0.9559530668364897
4.460353059346153 0.9480773101289828
4.004660966267317 0.9245488333532855
3.7938562897391463 0.9459146117947013
3.82506627210471 1.0249234186059828
4.046911739900323 1.1604332679895661
4.073858260402531 1.2455034621188583
4.051500759417354 1.3164123960372758
4.075185060833055 1.4031987457103452
4.1440444576658555 1.5083088320661993
2.1881538967776177 0.8840715604615526
2.034315726129893 0.8635157939612953
1.973258188508018 0.8785511490437288
1.821678651943666 0.8494627060988057
1.7166966284314087 0.8372888903671382
1.6840023307160152 0.8580420445077435
1.5804761912174792 0.8403540973867448
1.5655692757795183 0.8678092202409433
1.5068842025849234 0.8699999999999997
1.405754373151464 0.8446624428524889
1.3907988776965388 0.869067593342456
1.3334862030332242 0.8659760656738933
1.235265983107012 0.8331974261714127
1.2205365459905977 0.854628890163059
1.1649844718999243 0.8464107633011613
1.1500351344681015 0.8666136333389498
1.1741360228740156 0.9173355982352308
1.1579474825708869 0.9376873826642576
1.1414062202472772 0.9577535384329436
1.162252753543069 1.010330904645381
1.1816002725090566 1.0639176641105847
1.1262847004935228 1.0502774744962478
1.1437502825384551 1.1045068090298058
1.1950104602052654 1.1950104602052651
1.1392397275527553 1.1797172725553882
1.1525772285056224 1.235987755736398
1.1642872550644134 1.2930719963306658
1.1415427104434825 1.3131946695876233
1.1505898213389056 1.3712195531829707
1.126483499979209 1.391091271007978
1.1328171145992114 1.4499397866363684
1.1374303937573709 1.5094211139893836
1.140303389447398 1.569492969087398
1.1414171083385813 1.6301125681350939
1.1407535230803234 1.6912366480122851
1.1382955831814068 1.752821487005936
1.1340272254590587 1.8148229257747517
1.1279333840530188 1.8771963885376257
1.0549999999999997 1.8273136019851655
0.9744673366951375 1.7579856113501853
0.9436378411996401 1.7747246616464432
0.912520904476489 1.7909231136186192
0.9030445623854991 1.851515735376284
0.8705936191858409 1.8669940412954988
0.8582143168899388 1.9275809156258874
0.8752377278159732 2.0619308717334666
0.8391187692516434 2.076891834229604
2.021339047054703 5.553583388844718
1.9241077928417951 5.588014781791963
1.810839587037192 5.5731911854896
1.7132981896752362 5.603945869943389
1.601453037296765 5.584930453401633
1.5037386520456466 5.612029050739486
1.3813740238741024 5.54038859703594
1.2844705203034699 5.563653069923693
1.1767801700285172 5.536315420153341
1.0799789138312443 5.556009858313778
0.9741662767114786 5.524771494398488
0.8775973488756955 5.540931590738723
0.7738024413379627 5.505890462203131
0.67759354933262 5.51855660312575
0.5811782557681544 5.529541738247599
0.47587035540221345 5.439223051580931
0.38087034664292496 5.44669971441864
0.2831375232743257 5.402585783022245
0.18880627716053086 5.406704374173308
0.056894844985543806 3.2595034862098355
