# .PCD v0.7 - Point Cloud Data file format
VERSION 0.7
FIELDS x y
SIZE 4 4
TYPE F F
COUNT 1 1
WIDTH 179
HEIGHT 1
VIEWPOINT 0 0 0 1 0 0 0
POINTS 179
DATA ascii
7.470345474798854e-17 -1.22
0.021291935853485988 -1.2198141880907973
0.04257738597705132 -1.219256808963297
0.06646666442853884 -1.2682595091383089
0.08510289796783305 -1.2170281413169854
0.11068779328952584 -1.2651672665765168
0.13275114834991988 -1.2630428071177071
0.1547740661245373 -1.260533612584479
0.18370849326728642 -1.307153850738873
0.19867177060109328 -1.2543641925558249
0.22053318563700164 -1.2507058463255043
0.24232742412821204 -1.2466665229785332
0.2640478473385545 -1.2422474529319332
0.296935391733902 -1.2861684855165105
0.31933690219156136 -1.2807903586843155
0.32870018728020134 -1.2267257993871168
0.3638413096784389 -1.268865438638581
0.37715949909233043 -1.2336331351923158
0.423353282293678 -1.3029474273243604
0.43626132697259007 -1.2669948913030844
0.4412059848901128 -1.2122034808138218
0.49096409087706155 -1.2790051843011665
0.5132110329797998 -1.2702418807564988
0.5548382024547687 -1.3071168919024652
0.5572292010138465 -1.2515572769703631
0.5874393838195722 -1.2597678239809433
0.62248702844049 -1.276287545744817
0.6673660346171338 -1.3097795905569007
0.6901231972952595 -1.2979329615026225
0.6981258531547254 -1.2594523782807299
0.7199999999999999 -1.2470765814495917
0.7571059701177798 -1.2600359320321048
0.7895797037074753 -1.2635916632730746
0.8115121621723903 -1.2496191462386816
0.8611570713449502 -1.276717861734764
0.883307711980611 -1.2614941482050475
0.9345785511450323 -1.2863370210561664
0.9568858868117568 -1.2698304609751956
1.0096848195340797 -1.2923376359150238
1.0320854413217333 -1.2745193767894323
1.0863110603702515 -1.294615108871073
1.1087397589939572 -1.2754591905764847
1.1642872550644132 -1.293071996330666
1.2207770645118725 -1.309123125898315
1.2434384831216052 -1.2876182426061855
1.3010764773832475 -1.3010764773832473
1.3595522226400507 -1.3129043201675048
1.3822584960602322 -1.288976900518122
1.441700961426145 -1.2981133763361847
1.4641365856321777 -1.272754516241584
1.5627306639627152 -1.3112867237605401
1.6242350594450692 -1.31527961729416
1.6469424750380488 -1.2867324834306255
1.7490117670035712 -1.3179749007029857
1.8121980673998825 -1.31663896513514
1.8758581814217912 -1.3134900392438955
1.98139979840655 -1.336471039295085
2.1889301823375567 -1.4215078813892204
2.2982103405839145 -1.4360812060719852
2.4086401149729357 -1.4472569904972519
2.5201339250127166 -1.455
2.632605318489581 -1.4592769569414745
2.7459670137912626 -1.4600565602641205
2.860130942644661 -1.4573095041639452
2.930068590935284 -1.4290899385323923
2.9092479963876463 -1.356604620187645
3.1151900105612693 -1.3869719528884785
3.276997278290688 -1.3910028174218143
3.4398521004427813 -1.3897904615730332
3.650299467604059 -1.4012186827221242
3.8621366714300835 -1.4057027890684988
4.122460989613022 -1.4194771534332034
4.431923365935416 -1.4400191937872548
4.743271589576656 -1.450163655424774
5.152362690229389 -1.4774162271791154
5.51543646811058 -1.4778567475353932
6.025536460173938 -1.5023349716739358
6.635460141187452 -1.5319166800817197
7.34588848151088 -1.5614167980413731
8.157321894450089 -1.585622751579088
9.267040955844877 -1.6340293518458147
9.491684953119274 -1.5033352090366185
17.24056707679074 -2.423003687714739
17.37948311523955 -2.133932203024132
17.414078387898467 -1.8302933918166109
38.06704415791489 -2.6619070380758165
38.00784009275908 -1.991906494606445
38.086784417697736 -1.3300198193323138
38.154188047167885 -0.6659838296467396
28.36 0.0
21.456731538056157 0.3745286421441047
17.499333381104368 0.6110901872607929
17.38614020007713 0.9111689981896534
9.98561614310084 0.6982623021786952
9.573431048661675 0.8375666878049961
8.861190087731314 0.9313486077147937
7.999921982229057 0.9822669078454884
7.189346179063801 1.0103967129700748
6.578004348363618 1.0418535371679376
6.017175370904591 1.0609903655449446
5.605091217486161 1.089519363600071
5.193963759896508 1.1040110782423023
4.735438514856243 1.0932621241111844
4.570092870759943 1.1394521282744354
4.308029185249244 1.1543329411572432
4.046911739900323 1.1604332679895661
3.834782071411772 1.1724105359381742
3.623525327084535 1.1773547485685496
3.4605979866934997 1.1915794453131936
3.298321098958538 1.2004907030730974
3.090151211705738 1.186197912994944
3.0226193658877265 1.2212174945358734
2.8167448515644673 1.1956372531771782
2.7040945546220985 1.203940463504369
2.6373556602766515 1.2298191416654354
2.4806715677857003 1.209904365137854
2.370077354341059 1.2076147293071946
2.304493217361799 1.2253207788711753
2.1952954649198833 1.216872146818306
2.130422493309719 1.2299999999999995
2.0486298486780483 1.2309409990350297
1.984432545006037 1.2400110783056995
1.9205556005950208 1.2472233901844123
1.8984960411510456 1.2805517489480103
1.7939429769928918 1.2561323956087913
1.7312963679623876 1.2578604399058926
1.6691482159988418 1.2577933983877811
1.6075419373577127 1.2559494096643429
1.5465204632993723 1.2523475781891762
1.5244284418067662 1.2791473432762133
1.5018720646433164 1.3055574676911093
1.4045437201522748 1.2646568460182421
1.3822584960602322 1.288976900518122
1.323585232623118 1.2781714016445551
1.3010764773832475 1.3010764773832473
1.243438483121605 1.287618242606186
1.2207770645118723 1.3091231258983151
1.1308307247464706 1.255914755056796
1.095618578414147 1.2603649989720291
1.0541716798859246 1.2563128867151239
1.0006194217692415 1.2356620787165837
0.9789017457677969 1.252937098234688
0.9568858868117566 1.2698304609751958
0.9345785511450323 1.2863370210561664
0.9119865337981631 1.3024517504194972
0.8779328584490725 1.3015889889114156
0.8387441139231419 1.291552674635953
0.7895797037074753 1.2635916632730746
0.7828578738632825 1.3028942970672106
0.7199999999999999 1.2470765814495917
0.7369106227744324 1.3294219548518815
0.7135967754345538 1.342080341145569
0.6537463196249474 1.2830493948312498
0.6224870284404896 1.276287545744817
0.6001179316717932 1.2869570575920428
0.5857007660291526 1.315505459005345
0.5548382024547687 1.3071168919024652
0.5319413626505952 1.316601073484838
0.4981314498679672 1.2976767928311104
0.45830699205639625 1.2591881118531172
0.46230677932916225 1.34263637735103
0.423353282293678 1.3029474273243604
0.4005492354701491 1.3101375156693589
0.37762317746928886 1.316928523435497
0.3675230440455797 1.3716146733304768
0.3314329969715447 1.3293051449981153
0.3081829444510953 1.3348869887557724
0.28483901642033016 1.340062213005314
0.2614083236658666 1.3448292413232998
0.2292155945203479 1.2999462339761148
0.20649349385310484 1.303748609585582
0.18370849326728614 1.307153850738873
0.16452361359694911 1.3399373047157848
0.13797757151330287 1.3127689018861208
0.11504558042690875 1.3149770014811042
0.09556636902945188 1.3666627488559593
0.07170026005283293 1.3681224626137662
0.04606733564730143 1.3191958916652065
0.023037176497214058 1.3197989576064366
