# .PCD v0.7 - Point Cloud Data file format
VERSION 0.7
FIELDS x y
SIZE 4 4
TYPE F F
COUNT 1 1
WIDTH 179
HEIGHT 1
VIEWPOINT 0 0 0 1 0 0 0
POINTS 179
DATA ascii
2.1798713024822888e-16 -3.56
0.060908898466119764 -3.4894684560958056
0.12354421832685382 -3.537843527647599
0.18369920641273332 -3.505189666988554
0.24833304652908664 -3.5513280189249743
0.310274444181663 -3.546453125206614
0.3721213292328463 -3.540497947511053
0.4338548625223251 -3.5334642998431063
0.5024148944658363 -3.574867728157069
0.5881935885512682 -3.713708160637718
0.6442347391443118 -3.6536367636752916
0.6792800235404999 -3.4945927730736837
0.7089788656885597 -3.335483318502277
0.7558355425953869 -3.27388341767839
0.8007614744349 -3.2116788539735484
0.8696319915444697 -3.2455107763312694
0.9261415155451171 -3.2298392983527515
0.9969875131045324 -3.260999217833951
1.069198800537318 -3.290655546381231
1.1101874066989046 -3.2242183427936704
1.5938138678976168 -4.378967612862333
1.6341578499265697 -4.257126744827239
1.7269363956473553 -4.27431756955289
0.42589693005330836 -1.0033502902631601
0.45147767381413845 -1.0140354579832869
0.44797535744514144 -0.960686254258849
0.44275485825696825 -0.9077819867621586
0.45853040473694234 -0.8999165894302515
0.47416627841374975 -0.8917770687875162
0.4654172354364836 -0.8396349188538199
0.47999999999999987 -0.8313843876330611
0.4686846481681494 -0.7800222436389221
0.4822265304522165 -0.7717237675023476
0.49562152186367464 -0.7631902168303358
0.4809058969848423 -0.7129723123973358
0.4932757352618996 -0.704470758088533
0.5054953169715269 -0.6957546151624548
0.4874701687531591 -0.6468947631383072
0.49868579501378335 -0.6382887104214447
0.5097495167503683 -0.6294882287801464
0.520657963846097 -0.6204959989263722
0.49860486203278553 -0.5735792809693068
0.5419957911506752 -0.6019473086366893
0.5183187536474989 -0.5558288132305694
0.5279403615488379 -0.5466982482573748
0.5374011537017762 -0.5374011537017761
0.5466982482573749 -0.5279403615488379
0.5192611281496111 -0.4842188356443739
0.52763282608895 -0.4750827305147892
0.535843801958168 -0.46580191058326015
0.5438915546144744 -0.4563792028774428
0.5906309307072979 -0.47828349719787644
0.6382887104214449 -0.4986857950137832
0.6468947631383072 -0.4874701687531591
0.6957546151624548 -0.5054953169715269
0.704470758088533 -0.4932757352618996
0.754424191025088 -0.5088655421583796
0.8051237452276071 -0.5228534736144259
0.8565285771179904 -0.5352184568755369
0.9085973387442391 -0.5459403594046573
0.9179869280115049 -0.53
1.014558860281699 -0.5623791594857509
1.0683665873593016 -0.5680605909709279
1.1226682204773435 -0.572028029671829
1.1774202006519088 -0.5742662022936914
1.323209369073509 -0.6170226621414211
1.4708081868045877 -0.6548459953520382
1.482012814058429 -0.6290771168677306
1.6782027767658854 -0.6780379340828006
1.8298176359345153 -0.7024011811087886
2.0297360608975623 -0.7387635095834446
2.325975695974319 -0.8008976599646055
2.482257507530351 -0.8065343553186126
2.926292553246889 -0.8946574164515744
3.422091637540415 -0.9812689867085168
4.018251437362524 -1.076687227626486
8.20870184429493 -2.046659236773188
8.243170748083092 -1.903085919749097
6.954629441217358 -1.4782521217142695
6.930287915140507 -1.3471115073584066
6.854261960964968 -1.2085913165618354
6.726157599452888 -1.0653187069239722
6.9912925653154865 -0.9825620927780617
7.205885060915998 -0.8847714331213703
9.109820561573384 -0.957480723531705
7.082944303432311 -0.6196773309358489
9.13768670037999 -0.6389692994961866
9.197378015089626 -0.4820141569975134
8.254968231177731 -0.2882698427626584
7.108917112561942 -0.12408660976908595
6.81 0.0
6.758970419257205 0.1179782675160367
6.855821073350997 0.23941054737915698
6.9929239923213675 0.48899288094631904
7.182563773241485 0.6283929052106163
4.385841558574086 0.4609705230103524
4.327501221156164 0.5313503372464429
4.218541972839089 0.5928774100898786
2.330944483804525 0.3691853374949448
2.17642513415698 0.3837624726439161
2.0712333570745707 0.40260698024450964
1.966076677474949 0.4179024985436963
1.9584838302183227 0.45215161923116876
1.7562352645595536 0.4378786310353988
1.70002945426876 0.4555215193804368
1.5956944152576094 0.4575580106562185
1.5874658948986389 0.4853370298397429
1.5787538170499549 0.5129682106624126
1.4750089779349342 0.5078863209531644
1.4189358573867217 0.5164504164217598
1.3630274226859145 0.5232172063361384
1.30732923493917 0.5281952967164361
1.2979118433679406 0.5509308911698761
1.2424218223939372 0.5531618345830884
1.232578590369844 0.5747608359673512
1.1774202006519088 0.5742662022936916
1.167218546686762 0.5947275546588063
1.112513967002248 0.5915341691102226
1.014558860281699 0.5623791594857509
1.0045894683899488 0.5799999999999997
0.9943140688144501 0.5974441668956629
0.9837357915414542 0.6147063465105176
0.9309243304194207 0.6045493288666802
0.9202317055360965 0.620704122852529
0.9092587691607809 0.6366698443496615
0.8575580140374444 0.6230523674300216
0.8465536406501303 0.6379239245411714
0.8352913988231253 0.6526011638451978
0.8237747191443893 0.6670796145128276
0.7737048875501678 0.6492154857834047
0.6867857180027226 0.5970137163813616
0.6985561359487504 0.6289827699773268
0.7020995535544037 0.6547184256599985
0.690566208325105 0.6668720356406375
0.6434671708797584 0.6434671708797582
0.6321391171176874 0.6545992183081727
0.6206185076568737 0.6655318684734451
0.642365382104504 0.7134190324582983
0.5642107649318362 0.6490502389915839
0.5849367248147509 0.69710044323827
0.5412155363028601 0.668345526852995
0.5294688687800663 0.6776892481017808
0.5175609199107614 0.6868265386406719
0.5054953169715269 0.6957546151624548
0.4932757352618995 0.704470758088533
0.45294625181130493 0.6715204337695838
0.44115761836217204 0.6793231600357934
0.4027386408172357 0.6445165530788838
0.39142893693164127 0.6514471485336053
0.3799999999999999 0.6581793068761734
0.34421483037489936 0.6209799920689709
0.33332480957798233 0.6268927909298382
0.3450327798020556 0.6771649583831596
0.3112435142202448 0.6381437728724085
0.3000589658358966 0.6434785287960214
0.2887830165838183 0.6486172749262465
0.27741910122738433 0.6535584459512326
0.2659706813252976 0.658300536742419
0.23652284669989812 0.6161630814881531
0.23599389889471148 0.6483879083422767
0.23115338966458113 0.671318188675515
0.23485291572496006 0.7228029523843167
0.20758391035314294 0.6789763767337552
0.1957025226300694 0.6824958041162064
0.17858514112073945 0.666488820139457
0.17902220274375408 0.7180188374442373
0.1664637802144602 0.7210338479410741
0.14345906666425387 0.6749218445063259
0.13738247667111234 0.706771572082318
0.12502668792018976 0.7090615821687898
0.11263281482896625 0.7111356052284992
0.10020463269124698 0.7129930094939306
0.09383939442196357 0.764260536763818
0.07212463965468104 0.6862201078041085
0.06013746249588411 0.6873743416833044
0.04813196688344656 0.6883191946792786
0.03611180980763118 0.6890543789806559
0.025825627559850798 0.7395492119941308
0.012391208570471197 0.7098918635610377
