# .PCD v0.7 - Point Cloud Data file format
VERSION 0.7
FIELDS x y
SIZE 4 4
TYPE F F
COUNT 1 1
WIDTH 179
HEIGHT 1
VIEWPOINT 0 0 0 1 0 0 0
POINTS 179
DATA ascii
1.7083822848105578e-16 -2.79
0.04956483428188542 -2.839567454244151
0.10085954547022813 -2.8882394900851867
0.15386771135425525 -2.9359708321784472
0.20857185649493512 -2.9827165102768745
0.26059567081549784 -2.9786221472943195
0.31776652833366653 -3.023346561919551
0.3704828039516484 -3.017340300989619
0.4370035370146056 -3.109441735848531
0.4990259434783366 -3.1507258064984893
0.5626200956408546 -3.190777119759554
0.6277615947888328 -3.2295534335428147
0.6944250473313165 -3.2670129864509105
0.7558355425953869 -3.27388341767839
0.8249536639948668 -3.308708426601148
0.8955138960547218 -3.3421033589601765
0.9537052511268171 -3.3259654679465833
1.040843268812943 -3.404444931228406
1.100100499974813 -3.3857611980107465
1.1915794453131938 -3.4605979866934993
1.251793724571948 -3.4392749920764247
1.3474634902903293 -3.5102624036294783
1.4085207912438298 -3.48621129317112
1.4886855995441328 -3.5071234916537977
1.5903402744263795 -3.571962739382569
1.6735683164931698 -3.5889788366651336
1.6701940692663853 -3.424405316399826
1.7524033289946508 -3.4392851833671
1.8121602323535386 -3.4081777084354576
1.8956056151631782 -3.4197630549150375
1.9549999999999996 -3.3861593287971554
2.0653026803893173 -3.43724087581547
2.1249762495751514 -3.400672865587268
6.7045065210349835 -10.324034691408169
6.548148899642447 -9.708029974619539
6.458470673312778 -9.223652018694047
6.2951800520523875 -8.664572009755688
6.23480363985522 -8.273863884089954
6.162771368009841 -7.887987643603286
6.047768957988937 -7.46837268960149
5.952213265697354 -7.093571543281736
5.91109185120447 -6.7999333178071755
5.861584111703598 -6.509948671181974
5.769706126128739 -6.187252315698181
5.7378781399913175 -5.9417467507972574
5.663925317304246 -5.663925317304245
4.82677006027235 -4.6611576657798715
4.761112597540801 -4.439809324006865
4.6892438487623584 -4.222214126124395
4.686746493183414 -4.0741265700310505
4.6039271031450575 -3.8631535342161007
4.55407533413785 -3.6878174915520474
4.538941940774719 -3.546210097875791
4.520276986867677 -3.4062730310405933
4.45768363900596 -3.2386967401315268
4.472570161817895 -3.1317273424767116
4.402189510267271 -2.9693143174296655
4.41140718739293 -2.8648013241790418
4.503135390590622 -2.813871293078318
4.637275096798428 -2.7863559852633926
4.771799974852256 -2.755
4.99407852776595 -2.7682629316065848
5.129925514510365 -2.7276297797860254
5.176747905534417 -2.6376848034867666
5.22199340899816 -2.5469363628445394
5.310963632034769 -2.4765430138004985
5.399053654667772 -2.403813560577979
5.486208926576545 -2.328757525796071
5.526015773218053 -2.232655296758835
5.610818363248182 -2.1537913767672547
5.647552650923309 -2.0555410613872693
5.729842568131859 -1.9729430160103694
5.76340248874863 -1.8726429859121811
5.8908372967322995 -1.8010097010920583
5.921372046980045 -1.6979261118327145
5.950103089940661 -1.5943253178315275
6.025536460173938 -1.5023349716739358
6.050838102316311 -1.3969460474754007
6.0742966005569325 -1.2911315999782857
6.144986168382376 -1.1944643110571709
6.214136921507032 -1.0957200010783306
6.232313429155319 -0.9871014744038568
6.248591513759308 -0.8781822670580127
6.262966216856742 -0.7689955568864802
6.2754331597738044 -0.6595746032188928
6.335798279863502 -0.5543105238751054
6.344507359652483 -0.4436511730126361
6.3512838410390895 -0.3328566817051232
6.406095201192404 -0.22370577386303153
6.409023725952468 -0.11186992526298747
6.36 0.0
6.409023725952468 0.11186992526298747
8.055090065773912 0.28128994342215824
8.548268817499153 0.44799578543959984
9.53671232048392 0.6668718889938389
10.719054951467182 0.9377957919648032
12.143112342446617 1.2762925364980506
13.95519889207699 1.713482968276373
18.23083514553231 2.562176788674804
24.679282290485933 4.351623332333275
20.03501081416682 3.8944115956352805
19.86617777090359 4.222686440508693
26.17157994013142 6.042185319676216
26.062143207773264 6.498022115807078
25.993063985438827 6.964820503708838
20.388360570851745 5.846268316878551
16.12329818553678 4.92938694162534
11.422188760704794 3.711294102443118
9.464640941749161 3.2589372261161387
7.902814940809489 2.8763894053688746
5.9375715125222035 2.2792201591081103
5.804170929588088 2.3450372747836097
5.762360382612276 2.4459768643428546
5.673117291960551 2.52583455350072
5.673486746849428 2.645590318496778
5.626450729832785 2.7442033788996256
5.533150515209765 2.8192810033825855
5.43895717201099 2.8919448267610885
5.387657395978678 2.9864272607174365
5.291415217122921 3.0549999999999993
5.237292207289906 3.1468826377004318
5.181573867515763 3.237806704464882
5.082343641749269 3.3005125521910648
4.9825158110558005 3.360749349859188
4.882146183962391 3.418515560652236
4.781290436755939 3.4738108410485165
4.7199358643795 3.5567267868286065
4.617743016135391 3.607776245408358
4.554075334137851 3.6878174915520465
4.450718214521262 3.7345960122787933
4.347127182083167 3.778900006985321
4.28051419474979 3.854192292627024
4.176029636245464 3.8942106359568665
4.071463269916765 3.9317663767979254
3.966869042456532 3.9668690424565316
3.862300539752024 3.999529289882901
3.7578109639443666 4.0297588959216295
3.6869096410373094 4.094727988380441
3.5820822982881695 4.1207143080163355
3.445341587919852 4.105998215117722
3.3416912764746365 4.126645055336515
3.1768132126803974 4.066135488610685
3.0451840171493636 4.041095680839302
2.886025588756043 3.9722734423809922
2.7875814806660832 3.981078935244501
2.745637156041367 4.070574481245255
2.7286415654252862 4.201739545406574
2.6813914770200165 4.291123366551515
2.6318445627903775 4.380124906587794
2.6049999999999995 4.511992353716925
2.598579564520367 4.687961630267162
2.5633147328109627 4.820893857009741
2.5241871785518804 4.953996274487325
2.4811806908261773 5.087174302053286
2.4554121007134637 5.265648242682936
2.4241503927317702 5.444730927549901
2.3873671950694626 5.624284654594411
2.401228263795997 5.943248507773107
2.243383364153579 5.844213469872483
2.294955161715238 6.305337485473445
2.282232762744667 6.628085214951211
1.9653480842246658 6.048719443637177
1.8594840420366046 6.082098247924907
2.359455765793513 8.22840011723201
2.2672548350980835 8.461510238292238
2.203908468912972 8.839394066374327
2.116789421375771 9.168822309629064
2.018822517840442 9.497813203125254
1.929078943256869 9.924250824655882
1.8250423472794366 10.350329484158307
1.7067000135889194 10.775679795892954
0.4787554673026244 3.406522156471002
0.41923054131370735 3.4143587616461475
0.35957791364072866 3.42115532006686
0.2954579679145611 3.3771000265310174
0.232986622305379 3.3318639278678126
0.1774188916635793 3.3853541228180055
0.1165643189863536 3.3379653622437795
0.056894844985543806 3.2595034862098355
