# .PCD v0.7 - Point Cloud Data file format
VERSION 0.7
FIELDS x y
SIZE 4 4
TYPE F F
COUNT 1 1
WIDTH 180
HEIGHT 1
VIEWPOINT 0 0 0 1 0 0 0
POINTS 180
DATA ascii
2.694222958124177e-17 -0.44
0.007679058832404783 -0.4399329858688122
0.013610803713975422 -0.38976242253744736
0.021457742059607026 -0.40943810924937524
0.035575801609503986 -0.5087576656325103
0.048807215938688565 -0.5578690309313775
0.07421520892003396 -0.706110545711474
0.09871416815816947 -0.8039623828294709
0.13360617692166285 -0.9506573459919075
0.17364225619465634 -1.096334058060603
0.2101142949769858 -1.1916173811447717
0.2366031542669157 -1.2172177074751034
0.24741491207313374 -1.1639956448732285
0.26769175466919953 -1.1595003770944299
0.2878870557636045 -1.1546519142684357
0.3079946636719997 -1.1494517332839913
0.328008453422229 -1.1439014181665994
0.3625409138561936 -1.185817897394164
0.37391056319368643 -1.1507783847171358
0.4688181424183057 -1.361546748863016
0.4925090063889631 -1.353157373931708
0.5160498473452325 -1.3443558141559704
0.5207031648481178 -1.2887855578478342
0.5431162686000904 -1.279501746298892
0.5653639338753624 -1.269828186123215
0.5874393838195722 -1.2597678239809433
0.6181033169725992 -1.2672996052818253
1.8659009539295377 -3.662036814414192
1.9530017011893062 -3.6730619862931357
2.0168080202247625 -3.6384179816998863
2.0799999999999996 -3.6026656797432652
2.1683102953713282 -3.6086743359558926
2.336943955268434 -3.7398921040498387
2.4018581444162694 -3.6985372046393197
2.5219599946530686 -3.7389594522232374
2.5868297279432175 -3.694375719743353
2.3276295990781937 -3.203707297724792
2.292915238209304 -3.042801293280186
2.3148871472244754 -2.962920433561274
2.3662446703473883 -2.9220688150782106
2.384742031937061 -2.8420248839714084
2.433978997554782 -2.799972542626484
2.449018019273421 -2.719910061247263
2.46201407982562 -2.640186862845205
2.6119154729258294 -2.704717649273328
2.8001428534987283 -2.800142853498728
3.783727349781305 -3.6539030286143253
1.9819685313879523 -1.848215555769371
2.0139224770437387 -1.8133439432325056
1.9697920043814348 -1.7123140656652238
1.9610737743845839 -1.6455362807975404
1.4921202459973841 -1.2082951508156878
1.4657000017085031 -1.1451303441057243
1.4854620486879648 -1.1193759430628099
1.5047716095374024 -1.0932805692640002
1.4826652001630751 -1.0381733497953933
1.4591061276968735 -0.9841795101085143
1.4341266711866751 -0.9313327498756961
1.4501622444274886 -0.9061619418387804
1.4228977191655063 -0.8549632043506896
1.3943009000929463 -0.805
1.3644067431374574 -0.7563030075842858
1.244956105931087 -0.661954903528106
1.2563191991055986 -0.6401266046327609
1.3571790099117422 -0.6619404316515068
1.413840147777174 -0.659284488315491
1.4251309139224575 -0.6345091631982482
1.482012814058429 -0.6290771168677306
1.4927660058525278 -0.6031166153996182
1.5497435079853548 -0.5948907962451985
1.5598897505046077 -0.5677534379206102
1.7113886218347636 -0.5892783595674537
1.7689651203089856 -0.5747716095374021
1.7787268460912462 -0.5438113707842903
1.836009839242189 -0.5264673496104683
1.9415109108410271 -0.5202262806560665
1.9988091961285528 -0.4983591049353153
2.1046393399361083 -0.48589427738274815
2.1617061976217102 -0.45948483670724827
2.316640152936487 -0.45030922908864585
2.3733866847594216 -0.4184921081773022
2.5284821519235527 -0.400472230502991
2.6836264662896556 -0.37715910360177723
2.7890546861121153 -0.3424528549684643
2.9437848102900888 -0.309404251272254
3.0483557761607414 -0.2666965728078337
3.202180601334036 -0.2239182807186418
3.505189666988554 -0.1836992064127331
3.6577704268898907 -0.12773215793115372
3.90940448806149 -0.06823890916977862
4.16 0.0
4.459320720397505 0.07783773271028457
4.857039419312806 0.16961155397415495
6.401215317776819 0.3354734795172704
6.29462915713949 0.4401633493254312
6.684466424195612 0.5848150338367871
8.015846476668283 0.8424994139372881
8.19843121255732 1.0066407765265177
8.179614247805372 1.1495698139301402
8.158305693315837 1.2921486812323069
8.134512039880837 1.4343339475288448
13.948922276791306 2.711395824300703
14.095106926574138 2.9960074646839128
16.135568272843493 3.7251894599344055
16.1166120134443 4.018322685910483
13.87069486551102 3.7166414876722
13.803717953674258 3.958152429532107
13.73253629562919 4.198457679818499
13.657171573998404 4.437484039224245
13.672198603166123 4.707715513450486
10.439985016931441 3.79984379234818
7.057868024318845 2.7092616985624702
6.4068404350565 2.5885315605039527
5.670309897267032 2.4069037514939273
5.307699108903511 2.3631398962703996
4.812494349164611 2.2441029698431136
4.502958171958826 2.1962394454132785
4.107540076508377 2.092896203799311
3.8937988845078677 2.0703695918857794
3.8570729084847355 2.1380104252863465
2.909845356715714 1.6799999999999993
2.665790305183569 1.6017684129702687
2.4678199598152 1.5420650589186264
2.3566642959266413 1.5304356883922265
2.246691821624163 1.5154127684057237
2.0970292333798186 1.4683556770586785
1.9497309564436234 1.4165624580248604
1.8847798037116108 1.4202834546388343
1.7415037654708554 1.3606118604697048
1.6397779786742088 1.3278660251151566
1.6163537749810435 1.3562818564385979
1.5169662562477715 1.3186786482709192
1.493721099209562 1.3449525187813052
1.3603178850116573 1.2685169497162472
1.3379720286298908 1.2920645690537351
1.2445079348883237 1.2445079348883235
1.1878658134848852 1.2300710585790937
1.1321172777037474 1.214047144687823
1.043843745919819 1.1593059277447348
1.0234520852251914 1.1773469451475245
0.9706092906266746 1.1567271091096567
0.9502737904852545 1.173490401800026
0.8680826802091783 1.111095162585478
0.8786499338019903 1.1660078446690476
0.8581664683470107 1.1811648117874232
0.8087427752549747 1.1550043824474785
0.7884619938937529 1.1689429773026088
0.7407090876204371 1.1405919724057767
0.7471861625688189 1.1957478155805605
0.6746998781321711 1.1228891639197671
0.6299999999999999 1.0911920087683928
0.5866196404980679 1.058289845638669
0.5680605909709276 1.0683665873593016
0.5947275546588064 1.167218546686762
0.5523476449542373 1.1324804983369505
0.5113680967062463 1.0966324223143464
0.49215133812171846 1.1053900037475468
0.4727846654720212 1.1138108726774527
0.4532739780332537 1.1218924640258126
0.43362521894981315 1.1296323160616142
0.4138443734240593 1.137028071150949
0.37765905917030157 1.0968015476952075
0.3430088637561917 1.0556727330876206
0.304066572911646 0.994556946201557
0.3059574649568691 1.067000482491534
0.2872891400637983 1.0721776671808658
0.25643720933564773 1.0285134698525562
0.23844811760449705 1.0328322686723495
0.2203863922668248 1.036836456777834
0.20225753509913763 1.0405248144545238
0.17538465944359952 0.9946558305423302
0.15799880969063324 0.9975652240010892
0.1405648319696659 1.000170749428986
0.12308803683919897 1.0024716131577351
0.10557374790033022 1.0044671143219561
0.0836695130377518 0.9563469101680757
0.06696621479436043 0.9576614882494312
0.050242517993225995 0.9586843533643908
0.03350351683440104 0.9594151939383319
0.015881689857927872 0.9098614025923161
