# .PCD v0.7 - Point Cloud Data file format
VERSION 0.7
FIELDS x y
SIZE 4 4
TYPE F F
COUNT 1 1
WIDTH 180
HEIGHT 1
VIEWPOINT 0 0 0 1 0 0 0
POINTS 180
DATA ascii
2.0574066225675533e-16 -3.36
0.05951270595113707 -3.4094806404832942
0.12179924349172878 -3.4878739862966444
0.18369920641273332 -3.505189666988554
0.2518208702162929 -3.601206221437965
0.3146322313190459 -3.596262860111201
0.3878005987229943 -3.6896762318162937
0.45822873120335456 -3.7319735301713703
0.5372081697058527 -3.8224347453424614
0.611658758307303 -3.8618614117269887
0.6876467835610445 -3.899838701928344
0.7651440714599451 -3.9363250056251324
0.8441214647201033 -3.97127925897925
0.8908061752017059 -3.8585054565495316
0.9701068013546673 -3.8908858623667455
1.0378643708611082 -3.8733625634191635
1.1053057968261666 -3.8546594007126584
1.2016477064104483 -3.9304125470080757
1.270059846881034 -3.9088422819730813
1.354363522541772 -3.933357274493158
3.7998437923481805 -10.439985016931441
3.8381207396301673 -9.998646367785032
3.862193978118055 -9.559265540583578
3.8721454833287026 -9.122203097713685
3.9087391399584415 -8.779171847945392
3.9557069298929464 -8.483040886663042
3.9497240325695877 -8.098134357155494
3.9769567777184305 -7.805217151890103
3.995202999307931 -7.5138840152294675
4.028767944247062 -7.268089766328379
3.629999999999999 -6.287344431475025
3.5331611938829726 -5.88016768281649
3.582254226216465 -5.732805130017439
3.545600117947826 -5.45974539732471
3.5564668660739507 -5.272678961450065
3.561909669739996 -5.086934195034639
3.561978628892387 -4.902642985912181
3.5868175379862075 -4.759867639881866
3.576993171642075 -4.578342478455054
3.5934194328945717 -4.437503439919304
3.606038490341486 -4.297509325897467
3.614885249737695 -4.1584497870274735
3.6869096410373086 -4.094727988380442
3.8260107999506174 -4.1028942660835455
3.966499295320874 -4.107430259933698
4.143645737753169 -4.143645737753168
4.323232200035293 -4.174896806458573
4.395435746731215 -4.098810143975616
2.7942245437950026 -2.5159310799093064
2.7622370636153457 -2.401176046105257
2.8420248839714084 -2.3847420319370607
4.787219122574941 -3.8766136088669985
4.93294731757808 -3.85404083553862
4.959526517393688 -3.73727129377422
5.064446384787171 -3.6795356793508818
5.168849399463538 -3.6192673133751003
5.231227082822313 -3.528507220900412
5.375878340530169 -3.491136214446323
5.435988296362691 -3.3967824837348437
5.537300762535645 -3.327145963918949
5.637825378636695 -3.255
5.693774293477466 -3.1561106278036544
5.7921362091545605 -3.0797334518754433
5.845002798675693 -2.9781776782914267
5.8960889437225354 -2.8757147229363476
5.990694472312256 -2.793506710106023
5.992858202135462 -2.668192378577249
6.130562323993253 -2.6022693157385626
6.175044471414805 -2.4948799121499734
6.217645640471364 -2.3867305439717
6.25835285443415 -2.277854154548954
6.297153713491451 -2.1682839086846637
6.38158922434048 -2.073504032255897
6.368989674713817 -1.9471955534534267
6.45006597974612 -1.849526657532064
8.026843616462157 -2.150786264801947
8.742364493746727 -2.179716279353005
9.802162851739467 -2.2630076066992806
11.013941984262651 -2.3410856386079706
12.525562860792192 -2.4347227810047123
14.634243209761411 -2.580411920130585
17.442576094910134 -2.762632652610477
24.370497171730047 -3.42505001462721
27.007180786160376 -3.3160648340540617
27.060940772970717 -2.844219485512849
27.00683826526722 -2.36279218588901
18.61454517784832 -1.3016558000653757
5.901900550399532 -0.3093055013957985
5.806460704980946 -0.2027660758415309
5.809115108858633 -0.10139848140061734
5.96 0.0
5.859107493616453 0.10227110172248152
9.204389516845874 0.3214243646300344
6.551009747990004 0.343323872953712
6.544020169704447 0.4576024677614626
6.5350372194818505 0.5717416724246384
6.524063633615873 0.6857067190358076
6.461475447185006 0.7933694255675098
6.397131724070545 0.8990582322020225
6.38046668024459 1.0105666441598915
6.312617696808253 1.1130848188450235
6.2922302458995265 1.2230856603636526
6.269926120703694 1.3327139381418378
6.148275108794834 1.4194411529097886
6.122566032801537 1.526527161233904
6.046695672569567 1.6202072223417807
5.969435131776961 1.7117079796235644
5.93865253453045 1.815628286328195
5.858508140378146 1.903544685349676
5.777118496911826 1.9892214237332275
5.694537281962604 2.0726420685535527
5.657497384573042 2.17170977424452
5.572374965946391 2.2513856264296317
5.486208926576544 2.3287575257960724
5.399053654667771 2.40381356057798
5.310963632034769 2.4765430138004985
5.266933111313119 2.5688549201839948
5.132197579324999 2.6149852784997893
5.085778134867419 2.704156201646732
4.99407852776595 2.7682629316065848
4.8584025152307015 2.8049999999999993
4.765850191903744 2.8636116964999014
4.5879402002062655 2.8668632195016386
4.41140718739293 2.864801324179043
4.277833874384015 2.8854353819090535
4.144909344102298 2.902296767936294
4.093625991537234 2.974193376599914
4.081027456341666 3.075274768306968
4.144936563971357 3.2383793602129627
4.126645055336516 3.3416912764746356
4.105998215117722 3.445341587919851
4.1207143080163355 3.582082298288169
4.131885229654311 3.720366171355252
4.176029636245464 3.8942106359568665
4.143397249950629 4.001232213843824
4.214356415871824 4.214356415871823
4.209629724981522 4.359199190052227
4.201109897984991 4.50513880197409
4.2222141261243955 4.689243848762357
4.270944278728202 4.913159367250246
4.216686719543699 5.0252515468604955
4.348603902154377 5.370078593667669
4.500485384630562 5.760358608865137
3.8576342984046286 5.119253619403148
3.9734283054971185 5.4689548819746445
4.938493116982505 7.05289910132822
4.982408769924354 7.386724771465422
5.016125512488401 7.724155930777355
5.0130362396461186 8.02253498963979
5.02677161112213 8.365952854852615
1.7549999999999994 3.0397491672833796
1.6774412860523265 3.0261841867023094
1.6384557541227585 3.0814870990776555
1.5617273191040413 3.0650624432079856
1.4860781876149718 3.0469118169541765
1.4326759073009712 3.072383398054243
1.3788372200269634 3.0969191014084165
1.3050419691541741 3.0744862105311506
1.2774084835482606 3.161696944072745
1.2041163104722086 3.1368302330305977
1.1320866744079638 3.1103825748013567
1.0450737758074724 3.0351146276738072
0.976493702224834 3.005338591492685
0.9180471528293928 3.0027969337239315
0.8655012972653774 3.0183617252463213
0.766104373503462 2.8591404458156418
0.7233464678430064 2.9011842215652295
0.6613560997709635 2.8646479904685918
0.6008647864633242 2.8268465661206985
0.5323570971005603 2.7387398418189823
0.4844784156907353 2.747613630904061
0.4208087109582212 2.6568816362009207
0.3743756415825755 2.6638211049148244
0.3217350665895894 2.6203218403330903
0.2655022966998403 2.5260856142354142
0.22573337371643457 2.5801442680576208
0.17718144331007865 2.5338126876599536
0.12769973323278275 2.43665606480116
0.08340979711897759 2.388544076575639
0.0408386310632431 2.3396436066659554
