# .PCD v0.7 - Point Cloud Data file format
VERSION 0.7
FIELDS x y
SIZE 4 4
TYPE F F
COUNT 1 1
WIDTH 180
HEIGHT 1
VIEWPOINT 0 0 0 1 0 0 0
POINTS 180
DATA ascii
1.0838124172454077e-16 -1.77
0.030890759393991968 -1.7697304204268125
0.06177210916342691 -1.7689217638237995
0.09263464255001082 -1.7675742765155957
0.12695678221430834 -1.8155665714728801
0.1542656646633549 -1.7632646156223897
0.18501537998374662 -1.7603037548018436
0.21570873782711106 -1.7568066884051399
0.25329504374731915 -1.8022878851096582
0.2847107263732203 -1.7975927798831508
0.3160396833538134 -1.7923501104822186
0.3415481017240154 -1.7571126583713186
0.37216192656378944 -1.750884205313512
0.42065847162302783 -1.82207202114839
0.45239394477137856 -1.8144530081361134
0.47622704298863816 -1.7773035203718859
0.5071727347032785 -1.7687215205265068
0.5379639366898357 -1.7596007509719853
0.5840421193686507 -1.7974968157978402
0.6153238119240262 -1.7870301078827084
0.6635190780517976 -1.823003684324662
0.6952338221178828 -1.8111460274045714
0.7080064615560739 -1.752377485131228
0.758018389269191 -1.7857794156977342
0.8094059197208427 -1.8179554607087756
0.8410103408639918 -1.8035524962029335
0.8723585821102642 -1.788600152135342
0.9261406194686757 -1.8176533093442706
0.9577219880832174 -1.801213089432211
1.0132521063148445 -1.827955187921337
1.0449999999999997 -1.8099930939094768
1.1021814803075163 -1.8343380235025202
1.1340272254590587 -1.8148229257747517
1.1927594866829092 -1.8366885438004783
1.2525921037744732 -1.8570441625232934
1.2848112174263433 -1.8349005792073418
1.3460282277497635 -1.8526489171186298
1.3781564030181905 -1.8288753180083006
1.4406478522620405 -1.8439451634397293
1.5040757346091114 -1.8573788478821605
1.5812575198288867 -1.8844693300726858
1.6335869821863633 -1.8792268547547024
1.6995917401515 -1.8875878567125814
1.7322758345587463 -1.8576384021126928
1.8338980980117527 -1.899057072894039
1.8809040379562167 -1.8809040379562163
1.9494108589177448 -1.8825241839438824
2.0551039015498693 -1.9164153917756208
2.125394200865348 -1.913713534186334
2.2339403574594052 -1.9419347258119015
2.2674915516321748 -1.9026513246721561
2.378066642058331 -1.9257203966125025
2.4901139813972417 -1.94549026202908
2.6035517627541744 -1.9619169754756771
2.7182971010998234 -1.9749584477027096
2.7933084710254623 -1.955895647957067
2.9099218796681963 -1.9627670911823212
3.0276007502829807 -1.9661469164042473
3.2310632463559834 -2.018992396728511
1.6371895443410345 -0.9837227230782032
1.636788013152589 -0.945
1.6530312464934578 -0.916290182265577
1.6864299023605505 -0.8966906849210514
1.9245740922468748 -0.9806194794374211
1.986334842321159 -0.9688002344038611
5.039071295923773 -2.3497575352782882
5.170667290257121 -2.302129399809029
5.2100574705408125 -2.211538187249289
5.433297387761375 -2.1951946374172437
4.957312064700141 -1.9029338120855446
5.036752447412469 -1.8332279682255848
5.0679795652123385 -1.74504530789036
5.097662927342023 -1.656331089849718
11.102698216730841 -3.394435491830973
11.112185205046966 -3.18636783324451
11.069509969272724 -2.9660662568748872
11.07107423680912 -2.7603288287922076
11.604747471592152 -2.6791670572354307
13.116959325840332 -2.7880957738661536
15.028712178583737 -2.921285719214902
17.736387631749867 -3.127403679781416
25.44285165373075 -4.029751819436347
25.608332257657008 -3.5990163908272916
42.987173827585664 -5.278161262876936
43.0230171936315 -4.521901320958685
42.846333964925975 -3.7485684955767735
43.05486440921401 -3.0106894067964425
25.82455976875328 -1.3534078284425293
16.150155764628586 -0.5639758667124165
12.558087051164275 -0.21920222485228122
10.06 0.0
8.308734346749612 0.14502949749382618
7.105668780105772 0.24813542155478224
6.2014894108259035 0.32500628826868166
5.546456119444622 0.3878459940173372
5.0407451723442325 0.44100805830315093
4.485293748110912 0.47142336933711776
4.1289919908279 0.5069764685654133
3.8719481487795404 0.5441668247538558
3.5655549095484473 0.5647284187952334
3.308954050121019 0.583457876960886
3.052860540522235 0.5934159756210545
2.8953168981720645 0.6154186048205678
2.6892613788072492 0.6208649099890676
2.5324718455803508 0.6314161475151331
2.424473823985561 0.6496358032073274
2.2685776024144326 0.6505041597281178
2.16124874847646 0.6607600526733849
2.054282075197532 0.6674767078498864
1.9950441945145585 0.6869488059046006
1.8699883153639576 0.6806200852180808
1.8298176359345153 0.7024011811087886
1.752377485131228 0.7080064615560738
1.69372893035249 0.718945276420264
1.5895690962981255 0.7077217589518926
1.5316601600919384 0.714224862341782
1.4740222359306336 0.7189286807340872
1.416700373459505 0.7218448945858794
1.4038866726456938 0.7464597848295667
1.3031833636376997 0.7223663341670422
1.2903778516388136 0.7449999999999998
1.2343209130110415 0.7416548278704781
1.1787868536574322 0.7365877772841548
1.123818561046868 0.7298163069201364
1.110910347223756 0.7493184906508007
1.0567061371327993 0.7399136028928497
1.0436319227436823 0.7582429754572904
0.990308032458643 0.7462506287085401
0.9771333344723352 0.7634202294038163
0.9248036941337955 0.7488912653493063
0.9115928873115838 0.7649172555269818
0.8981044004650987 0.7807102444987035
0.8471851010442293 0.7628088912490985
0.8337432198458544 0.7774781304712481
0.8200473723860621 0.791910542323257
0.7707463914933369 0.7707463914933368
0.722444705277357 0.7481133923521974
0.7433782124681234 0.7971755347648959
0.6958958306132127 0.77287061849649
0.6823013901501276 0.7848979634316829
0.6363597335896741 0.7583839986877883
0.623027187139339 0.7693745018424012
0.6095048605724018 0.7801306460706546
0.5957968729205276 0.79064915494682
0.5819073997695484 0.800926824431198
0.550633378897004 0.7863859625174322
0.5088655421583796 0.754424191025088
0.5228534736144261 0.805123745227607
0.5246200715908729 0.8395676151948617
0.4944365519136521 0.8228806086740277
0.5049999999999999 0.8746856578222831
0.5042020050561906 0.9096044954249716
0.48825042529732626 0.918265496573284
0.4494505947421514 0.8820964589464843
0.43398743532118644 0.8898061058361754
0.41839207912329246 0.8972447091662834
0.4026692766450424 0.9044100030661747
0.38682381720438097 0.911299804917916
0.3708605274817531 0.9179120160211194
0.3368658725725821 0.8775656009073696
0.32149893472612867 0.8833110635387538
0.30603406518972714 0.8887874610633578
0.30592682443119795 0.941545951132202
0.2748294024393723 0.8989264706052533
0.2590991144679792 0.9035859941820197
0.2432899023963697 0.907970276711724
0.2274065818636876 0.9120779826994366
0.21820252271354917 0.9451389628416782
0.20167434009322646 0.9488031727117915
0.18508472551524857 0.952178367944234
0.1684387323369223 0.9552635204218418
0.151741431089024 0.9580576903772836
0.1349979079312633 0.9605600266793233
0.11821326310299306 0.9627697670920823
0.10139260936962406 0.964686238507225
0.0801832833278455 0.916499122244406
0.06417595584459543 0.9177589262390383
0.05076587755565543 0.9686706487119366
0.033852511801426045 0.9694091022085228
0.016928834244164876 0.9698522643016995
