# .PCD v0.7 - Point Cloud Data file format
VERSION 0.7
FIELDS x y
SIZE 4 4
TYPE F F
COUNT 1 1
WIDTH 180
HEIGHT 1
VIEWPOINT 0 0 0 1 0 0 0
POINTS 180
DATA ascii
3.91886975727153e-17 -0.64
0.011169540119861503 -0.6399025249000905
0.02163768795555067 -0.6196223127518393
0.030878214183336937 -0.5891914255051985
0.04464414319624029 -0.6384409921662875
0.05403656050354805 -0.6176407128168823
0.06689821649129822 -0.636494013035695
0.07555899291119145 -0.6153786140176196
0.09324597764324387 -0.6634796060568522
0.09229633437373624 -0.5827361209511313
0.10766187015349686 -0.610580806867569
0.12211775704098875 -0.628241397406505
0.13306348212336605 -0.6260144644696356
0.1439686747800737 -0.6235968414625506
0.14273391840380392 -0.5724744785028378
0.16564418886561327 -0.6181925288250038
0.17640790772287948 -0.6152074854005241
0.17249930578641468 -0.5642198060181909
0.19777087639996638 -0.6086761704288983
0.20836361885258034 -0.6051318883835627
0.21889289172842805 -0.6014032773029814
0.24727388518625723 -0.6441704942830692
0.2397482197861838 -0.5933976669227439
0.26960447865759885 -0.6351483488821839
0.26031145156851226 -0.5846690928912645
0.29160660060108257 -0.6253523730552885
0.2805575339450096 -0.5752281896314668
0.29055391983330997 -0.5702441754805555
0.32393537832226466 -0.6092338390726595
0.3345186379699726 -0.603487597926183
0.3449999999999999 -0.5975575286112627
0.3553762716879374 -0.5914454374844574
0.34974671439391525 -0.5597117434632412
0.45749678941262273 -0.704483277074156
1.4483096199892345 -2.1472073129175575
1.456884148331657 -2.080646192494039
1.5517530660521293 -2.1358048651498613
1.5887916611214075 -2.108397746524853
1.5760933768336856 -2.017307529233208
1.5795941815350918 -1.9506363632569967
1.5812575198288867 -1.8844693300726858
1.5679810792873126 -1.8037558967324252
1.4319394976079567 -1.5903299265216237
1.391276654527497 -1.4919615513031075
1.3823701572134046 -1.4314862026739157
1.3717871555019023 -1.3717871555019021
1.3595522226400507 -1.3129043201675048
1.345690810979274 -1.2548769825149972
1.330229237604536 -1.197743785382356
1.3131946695876233 -1.1415427104434825
1.294615108871073 -1.0863110603702513
1.3133766748622808 -1.0635514608742251
1.292337635915024 -1.0096848195340793
1.2698304609751956 -0.9568858868117568
1.2863370210561664 -0.9345785511450323
1.2614941482050475 -0.883307711980611
1.2767178617347643 -0.8611570713449501
1.2915526746359531 -0.8387441139231415
1.2211892584652535 -0.7630837404958151
1.2343209130110417 -0.7416548278704778
1.2470765814495914 -0.72
1.2594523782807299 -0.6981258531547253
1.244956105931087 -0.661954903528106
1.3097795905569007 -0.6673660346171338
1.3122393075967838 -0.640021874312053
1.3050832133327759 -0.6085702969066071
1.2698281861232152 -0.5653639338753622
1.2979118433679409 -0.5509308911698758
1.260970042210831 -0.5094649670456403
1.3443558141559704 -0.5160498473452324
1.353157373931708 -0.492509006388963
1.456098606422948 -0.5013749578640213
1.5597326867240517 -0.5067878707749137
1.61615503757753 -0.494108180981425
1.6437575000545253 -0.4713398784470685
1.7483257455832137 -0.4684624716355624
1.8047500508733536 -0.4499747258153818
1.909765326979061 -0.4409040665139751
2.0638914375483295 -0.4386936676254723
2.2184774345917204 -0.43122832955099133
2.3733866847594216 -0.4184921081773022
2.4790977348937955 -0.39265050725097944
2.6836264662896556 -0.37715910360177723
2.8883093012762475 -0.35463978930897905
3.1924152841321574 -0.3355363670891674
3.3970239204928525 -0.297201082769514
3.8007190314899306 -0.2657721649651169
4.2541618180544845 -0.22295117359494102
4.707130795259941 -0.1643766294687798
5.359183646038257 -0.09354489850383976
6.36 0.0
7.608840960140138 0.1328128129877277
9.654115389004465 0.33712913814615986
12.243198096091074 0.6416388235384922
18.464910570309346 1.2911923290037612
16.397364730590134 1.4345835256264556
16.369830397761778 1.7205385053855784
18.421656574462936 2.261895013599536
16.34932581492333 2.29774789685068
16.25735008619597 2.5749112945622
14.585002822110802 2.5717295112472387
12.03474926906836 2.33931828331644
9.986887003492155 2.122778363249324
8.730355780475708 2.0155614469210312
7.675039194843132 1.9136021941933727
7.109214081487543 1.904908171954554
6.2097505557615404 1.7806173185778142
5.603945869943389 1.7132981896752373
5.145215753156781 1.6717819395684654
4.784323992532543 1.6473748615532127
4.378967612862333 1.5938138678976166
4.11708968085266 1.5804026574947745
3.8570848349978353 1.5583634286101944
3.5531487343264194 1.508222155968597
3.5262854665004393 1.5700034422725893
3.4530326686096364 1.6101755772320647
3.469345018714784 1.6921126266058393
3.305634204738845 1.6843047540337186
3.054998671291887 1.6243716072391827
2.8949912306314 1.6047198430153757
2.7366402759588264 1.5799999999999996
2.5800735751133574 1.5502646054792633
2.5102223646230213 1.5685610221302866
2.3566642959266413 1.5304356883922265
2.1637880643686587 1.459493478058649
2.137986835594268 1.4970344988762307
2.030632655881118 1.4753409832541073
1.96464335471634 1.4804649569540393
1.8991059161922 1.4837441555348365
1.795207170965603 1.4537301033251242
1.7695626636048392 1.484839378375906
1.6679081722923261 1.4498904540690207
1.5680355817573015 1.411865579417191
1.5431563104164499 1.4390165397318717
1.481839988697621 1.4309962431455345
1.3859292911256331 1.385929291125633
1.3615304060996343 1.4099060086637565
1.3026168677193721 1.3968855700926155
1.2445829278274767 1.3822493753879532
1.2530727453718689 1.4414952982254945
1.1634455735326366 1.3865404420453502
1.1390699078002058 1.4066341902371173
1.0835641965731588 1.3868989263478306
1.0591944407476048 1.4055984976832356
1.005112781420129 1.38341906038116
0.9521368843427362 1.3597923935197265
0.9003005745879024 1.3347504918136173
0.8768688463741938 1.3502596143921326
0.8531700154154599 1.3653574348118458
0.8292113006051874 1.3800393541304008
0.7799999999999998 1.3509996299037244
0.732062526571969 1.3206757577804875
0.7089020598066949 1.3332508652169797
0.6855256546067158 1.3454198515244356
0.6619404316515066 1.3571790099117422
0.6592844883154911 1.413840147777174
0.5938354988906686 1.3337763681581971
0.5704674475943396 1.3439370860405628
0.5469256263872317 1.3536884276675094
0.5232172063361382 1.3630274226859145
0.482248402089193 1.3249665953081307
0.4590510977845907 1.3331811915950367
0.4357139620686759 1.3409896879761665
0.3976255184229217 1.3005744681097284
0.3748668039111189 1.3073159064761137
0.35199390133942854 1.3136591237531328
0.32901377801554804 1.3196021877353552
0.29468588119046335 1.2764247848686583
0.2827598995121526 1.3302807369979759
0.2595002337121011 1.335012969488823
0.2361615216270251 1.3393385440966032
0.20492914920270253 1.2938717261796304
0.18231676225768548 1.2972511700514573
0.1596488398607432 1.300235458650132
0.13693228688062634 1.302823682932438
0.11417402299943216 1.3050150545001866
0.09138098060480435 1.3068089058403698
0.06594330486610912 1.258273213790763
0.04397336584515136 1.2592324420440606
0.021990032110977054 1.259808095897053
