# .PCD v0.7 - Point Cloud Data file format
VERSION 0.7
FIELDS x y
SIZE 4 4
TYPE F F
COUNT 1 1
WIDTH 179
HEIGHT 1
VIEWPOINT 0 0 0 1 0 0 0
POINTS 179
DATA ascii
2.0574066225675533e-16 -3.36
0.05340436369808781 -3.0595339471785574
0.09911457063510307 -2.838269948734232
0.13659684579408374 -2.6064230857094377
0.17718144331007865 -2.5338126876599536
0.2187609142966219 -2.500448692210281
0.24668717331166215 -2.347071673069125
0.29126773073830253 -2.3721853024227597
0.3326237112945565 -2.366740684292353
0.37387837144615194 -2.3605751340223793
0.4184921081773023 -2.3733866847594216
0.4598496788574733 -2.36572151210887
0.5010671748708003 -2.3573357177684717
0.542132040968715 -2.348231856132417
0.5951278631751825 -2.3869274866389514
0.6496358032073271 -2.4244738239855614
0.6918497631006678 -2.41276685680518
0.7484715640902061 -2.4481401752653706
0.7910835055998655 -2.4347046817155933
1.2404146684817672 -3.6024257730333966
1.3201977532370817 -3.627213516233606
1.3474634902903293 -3.5102624036294783
1.8955093626845154 -4.691550304107944
2.0552457358535796 -4.841855529159836
2.18010840688629 -4.89660365296434
2.286364796017184 -4.903125127868276
2.4154250188078166 -4.952355195108409
2.5241871785518804 -4.953996274487325
2.6337354672288478 -4.95333599593858
2.7682629316065848 -4.99407852776595
2.8799999999999994 -4.988306325798367
3.0181231189729183 -5.023000382114378
3.1583188148299013 -5.054366653092298
2.510785951419275 -3.8662713182284048
2.5778792850001433 -3.8218632094787424
2.672866193395875 -3.817248526386702
2.7096900130683013 -3.729568344068508
1.570737210426846 -2.084438681223434
1.5760933768336856 -2.017307529233208
1.6739922401925675 -2.0672082574755426
1.7419544222505217 -2.0759804408524305
1.8107229200138 -2.082998441414851
1.9137135341863345 -2.1253942008653475
1.984615227781871 -2.1282392717117857
2.0561887765586317 -2.1292458090024073
2.1637467504308354 -2.1637467504308354
2.237146779053205 -2.1603875321274812
2.3476453821975376 -2.18921473580062
2.4598093723301755 -2.2148223070478203
2.5735596685596525 -2.2371612888576298
2.6888159953476127 -2.256184509999753
2.7666396227868164 -2.2403805921374214
3.632729574126989 -2.8381994012512846
3.6817097013180202 -2.7743672567309425
3.770019193787255 -2.7390792756829248
3.9810789352445 -2.787581480666084
4.194930117128511 -2.8295160915619784
4.201739545406574 -2.728641565425285
4.375928176167158 -2.734383403443337
4.551558366728216 -2.7348521777723866
4.555293623906147 -2.63
4.556768674196252 -2.525858121483416
4.60015695879501 -2.445946842114491
4.597593664811979 -2.3425909786560615
4.637777278903702 -2.2619951174316393
4.676548181109114 -2.180710230582009
4.6682172885536914 -2.078424246117339
4.657754558469348 -1.9770995101557245
4.691550304107944 -1.895509362684514
4.723916958075841 -1.8133418246992195
4.7078600301374 -1.7135209180616005
4.737048063752577 -1.631096453830355
4.764793146638719 -1.5481751418184864
4.743271589576656 -1.450163655424774
4.767858011854062 -1.3671612848523156
4.790992098393779 -1.2837424637085026
6.753258254880936 -1.6837763933736867
6.781615650905238 -1.5656593382332995
6.758999921070597 -1.4366697835507174
6.783043837623358 -1.318490158051925
6.755781185663747 -1.1912264987951424
6.8249264335124025 -1.0809621534279954
29.717944742934527 -4.176584759811563
24.327306176728808 -2.9870176068601637
19.800930936782322 -2.081161703658979
17.14451075415894 -1.4999503326871955
17.16807730497158 -1.2005089131363944
17.236345769863945 -0.9033186047532119
17.299455215700547 -0.6041102879202925
14.31 0.0
12.458102281648635 0.21745698420855286
12.452409704657933 0.4348477289131627
10.8950482241724 0.570985282610518
10.135250750639814 0.708725773240314
9.4738115788525 0.8288511135302303
8.960642277268143 0.941801454041559
8.496195058049718 1.043201579548062
6.050537900010995 0.8503476468659997
5.73846925885775 0.9088842418837413
5.524771494398487 0.9741662767114794
5.408765780796628 1.0513575645247621
5.438500660079959 1.1559890009467422
5.514934566684432 1.2732229675862765
5.54038859703594 1.3813740238741035
4.211436602620338 1.1284510366469913
4.046911739900323 1.1604332679895661
3.882597309209924 1.187029121174311
3.6710781528992924 1.192805598287297
3.6307913303013764 1.2501817131154818
3.627213516233606 1.3201977532370814
3.650299467604059 1.4012186827221242
3.6716480640844775 1.483442109927012
3.691224462344285 1.5668318252419882
2.886803646150619 1.2852877921195291
2.7733018283321487 1.29321188092654
2.660430377045534 1.2975785944956697
2.5928289853881505 1.3211123542420813
2.436935356290638 1.295741513289059
2.326488420990793 1.2895935898552566
2.260326303877385 1.3049999999999995
2.194348289797407 1.3184974717697389
2.1286007213526292 1.3300973532253442
2.021196068748472 1.3125800743862157
1.9565286712298984 1.3196952521909624
1.8922412223075709 1.324961567970917
1.828378407287381 1.3283946701809892
1.764984477204517 1.3300112011660272
1.7021032277905195 1.329828786703422
1.717492574819906 1.3907980642201403
3.301651549842795 2.7704145977489842
3.9320369129606423 3.4180675410405423
3.834627299463354 3.452713928811709
3.7372174152739617 3.4850116199193675
3.603892399696641 3.480238435999577
3.5072496346852757 3.5072496346852753
3.410772598953676 3.531958419662778
3.3486119479068677 3.590946674950127
3.2185182165861086 3.5745266105462656
3.1228409779948145 3.5924176018603946
2.995390261139274 3.5697671049344377
2.806768944082275 3.46607098809809
2.7458501799524364 3.51452796108598
1.1795574453780144 1.565325599692694
1.0932805692640002 1.5047716095374024
1.038173349795393 1.4826652001630753
0.9003005745879024 1.3347504918136173
0.8496368946234425 1.3083260859948613
0.8001780889921394 1.2805526251962032
0.8034593968596847 1.337180989095295
0.7549999999999998 1.3076983597145024
0.732062526571969 1.3206757577804875
0.7323756379459895 1.3773982448599262
0.6855256546067158 1.3454198515244356
0.6619404316515066 1.3571790099117422
0.6381535752284562 1.3685247584253415
0.5938354988906686 1.3337763681581971
0.5704674475943396 1.3439370860405628
0.5656559560580274 1.400047620395849
0.5590540012906683 1.4563854653356347
0.5609130350540968 1.5410958980888896
0.5502101810325946 1.5979263927628453
0.5160583806061623 1.5882643822129063
0.5028793321231069 1.644844180256421
0.4603143842143886 1.6053070322169924
0.43222780532120997 1.6130961299027438
0.39191347087146167 1.5718790765671145
0.37566826075425475 1.6271980081913429
0.33681693912476995 1.5845991131887653
0.3091105725100028 1.5902360371852158
0.28131004782042696 1.5953885598797772
0.2612455566171856 1.6494395287938801
0.23241907860330896 1.6537476747984223
0.19742833631633894 1.6079247656589417
0.17456253365698163 1.6608515652650164
0.14555009038858907 1.663645145813215
0.1164933111526895 1.6659319639339063
0.08740104692571606 1.6677113230401381
0.0582821594931768 1.6689826811218897
0.028621946557144735 1.6397502200564815
