# .PCD v0.7 - Point Cloud Data file format
VERSION 0.7
FIELDS x y
SIZE 4 4
TYPE F F
COUNT 1 1
WIDTH 179
HEIGHT 1
VIEWPOINT 0 0 0 1 0 0 0
POINTS 179
DATA ascii
2.3941844923330755e-16 -3.91
0.06562104820418632 -3.759427333788031
0.129477132766279 -3.7077399682408454
0.18893280203702773 -3.6050526204640114
0.24484522284188034 -3.501449816411983
0.27541214708259976 -3.147975245969916
0.3198570975990196 -3.043236999826916
0.17305446763530943 -1.4094155353306772
0.1962340723536923 -1.3962779769256142
0.22057259570672558 -1.3926405602391443
0.22747911274367885 -1.2900981564459926
0.2404193341744466 -1.2368502511440567
0.26196873043037694 -1.2324659769245951
0.2721907757560768 -1.1789877783901346
0.29272549367559786 -1.1740578287939556
0.30023009231892406 -1.1204739584953192
0.319739332747719 -1.11506356728845
0.32453259224223785 -1.0614982791189693
0.3430088637561917 -1.0556727330876206
0.3451022437245862 -1.0022496901352758
0.362541351925209 -0.9960741780330629
0.39778842399528347 -1.036274273411894
0.3783526593500713 -0.9364556931124552
0.39463843977416646 -0.9297099019869648
0.39046717735276837 -0.8770036393368967
0.44797535744514144 -0.960686254258849
0.4646734155964221 -0.952721689077117
0.4812299297239197 -0.94446691563967
0.521113434692339 -0.9800718280734089
0.562379159485751 -1.014558860281699
0.5799999999999998 -1.0045894683899488
0.6231960706411657 -1.0371724338495558
0.6147063465105176 -0.9837357915414541
0.6590132323681828 -1.014791387213963
0.6766234131996037 -1.0031354627916003
0.722706309802318 -1.0321315758041296
0.7699986805031398 -1.0598122626311812
0.8184684314867857 -1.0861442936643184
0.8988657539754612 -1.150495700265814
0.8873417513802707 -1.095775805654329
1.0027486711110014 -1.1950293312656057
1.0562550366747168 -1.215082424158663
1.1107568065557045 -1.2336204102924744
1.1662171957068725 -1.2506148297687814
1.292064569053735 -1.337972028629891
1.3859292911256331 -1.385929291125633
1.4458729986806886 -1.3962633246225844
1.5797239954974085 -1.4731164577349969
1.7538217881266507 -1.5791482310069052
1.8943210463591575 -1.646708162766173
2.0376782186964815 -1.7098150417661946
2.222637449766937 -1.799856318402535
2.371912368356233 -1.853141040730231
2.683415313758904 -2.022098477790882
2.9610021994123077 -2.151294023390452
3.2438420953844074 -2.2713626879501425
3.5731519377122294 -2.4101214139589184
4.034005431817489 -2.6197137584222796
5.09676905790012 -3.184814778041561
6.094459507992019 -3.6619207126104842
6.070838080528914 -3.505
6.131084147047164 -3.3985154379268225
32.9761514602115 -16.802188395360627
33.21942795121721 -16.202197585324303
21.579188409342635 -10.062540812046052
16.681340056553896 -7.427011102564111
12.574096298160336 -5.337387215163479
10.20829423878033 -4.12441859350919
10.278720495734191 -3.9456311244937563
10.34601575485285 -3.7656417780156133
10.457435446128445 -3.600783788296153
10.376026592780125 -3.371375408630676
10.385469649758566 -3.1751567132889207
9.28578798276416 -2.6626568571922116
8.558102820921144 -2.2931367396083333
7.772068767470731 -1.9377943837533376
7.268800683297855 -1.678134865405232
6.758999921070597 -1.4366697835507174
6.390392964244293 -1.242166559901307
6.164896533856422 -1.087037592194984
6.133544595095805 -0.9714580278998337
6.248591513759308 -0.8781822670580127
6.262966216856742 -0.7689955568864802
4.982554695795049 -0.5236876009709435
4.7418867629167085 -0.4148613354788524
4.548892069184799 -0.3180895202732108
4.40395624826767 -0.23080156703138263
4.2574049231013475 -0.14867185595265434
4.059381642334948 -0.07085677013537114
4.01 0.0
3.8594121033036703 0.06736628884791444
3.7077399682408454 0.12947713276627879
3.6050526204640114 0.18893280203702748
3.501449816411983 0.24484522284188015
3.347214185588265 0.29284329563213185
3.2421413789005706 0.34076279025255074
3.186073146768644 0.39120059233052323
3.0797336937862836 0.4328283439858034
3.0223263222211214 0.47868946302310644
2.9150309489161357 0.5139986058941138
2.807453744660319 0.5457137267769183
2.748594758061994 0.5842318511979039
2.6892613788072492 0.6208649099890676
2.67801620452175 0.6677044318550832
2.617658989243375 0.7013996122278316
2.5569561111959285 0.7331953664732177
2.448140175265371 0.748471564090206
2.3871518559008353 0.7756326558811178
2.373251624754285 0.8171760676874632
2.3116438471333343 0.8413695525811452
2.2499288278582563 0.8636667584041738
2.1881538967776177 0.8840715604615526
2.126366211475137 0.9025889068102226
2.064612734272278 0.9192248133513087
2.048255598702829 0.9551172715339805
1.9863348423211589 0.9688002344038614
1.969124418456293 1.0033190044243985
1.9071668005752822 1.0140585756175247
1.845447582064125 1.022948298719771
1.8273136019851655 1.0549999999999995
1.7657646394463513 1.0609784343147117
1.7469790780822378 1.0916336843204022
1.6857278415703019 1.0947244603802047
1.7492692780911379 1.1798970263232758
1.7693684156642222 1.23892510251826
1.7879275575686338 1.2990054075663655
1.8448480282092463 1.390192703481232
1.8597053785118636 1.4529610817685534
1.8962361459550092 1.535541754161603
1.8691484412103063 1.568401767635156
1.8188500883368806 1.5811022598671223
1.8652935119482592 1.6795178219607343
2.1282392717117866 1.9846152277818707
2.165212799019339 2.090921695081582
2.6587214972614186 2.658721497261418
2.820312984063528 2.920519589374924
2.9735128498724936 3.1887021390595836
3.787279231991138 4.206199712202051
3.680491152636746 4.233920745049751
3.059669022107928 3.6463715492463353
3.184361178712177 3.9323585649722723
3.4538608765769436 4.42074032773371
3.7673620449318213 4.999458292896054
3.6501464167362583 5.023995535068424
3.533230847922443 5.04597659282019
3.4446282853798005 5.106871446939057
3.3277445039418163 5.124277170146541
3.2643026676765423 5.223976272323584
1.7562798354432851 2.9229404953942026
1.6449999999999996 2.8492235784508035
1.5950236506104492 2.877498836488612
1.5680350197048747 2.9490449601488162
1.5163282691300863 2.9759617907891487
1.4422410729360642 2.9570324123242595
1.411544994213936 3.0270680087024107
1.3585003878731732 3.0512418285262863
1.324578525578638 3.1205114532037728
1.2511860220091466 3.0967940742530695
1.1503611180404134 2.9967931690560174
1.0123796242439798 2.7814901575262887
0.8334544754103207 2.420527553534251
0.6829275575686339 2.1018349010122894
0.5730485412565636 1.8743573216875495
0.5126854818196185 1.7879467544452732
0.44258056712531085 1.6517331629543066
0.3773981571354816 1.5136613329905546
0.31718098662484984 1.3738617913471816
0.2827598995121526 1.3302807369979759
0.2690406834809283 1.3840943286612062
0.2361615216270251 1.3393385440966032
0.19710742595069097 1.2444873091498736
0.16839945216167895 1.1982243631773002
0.14136843834997107 1.1513535359039335
0.12438887128850787 1.1834810554882451
0.10371533386971318 1.1854716907291771
0.08091750954318552 1.157174298301396
0.062279787929103055 1.1883691463579429
0.04048341617490125 1.159293359342151
0.021117411789112885 1.2098157111392334
