# .PCD v0.7 - Point Cloud Data file format
VERSION 0.7
FIELDS x y
SIZE 4 4
TYPE F F
COUNT 1 1
WIDTH 176
HEIGHT 1
VIEWPOINT 0 0 0 1 0 0 0
POINTS 176
DATA ascii
4.4087284769304716e-17 -0.72
0.013089304827962698 -0.7498857713672935
0.02617462252687581 -0.7495431202643218
0.03925196718220798 -0.7489721510659304
0.053712484782976605 -0.7681243187000647
0.07146770905307967 -0.8168796524352313
0.08571333987947583 -0.8155079542019841
0.09993286159222094 -0.813887844345884
0.11412194278725367 -0.8120198163680876
0.12827626133298936 -0.8099044392880129
0.14239150568688294 -0.8075423574700106
0.15073910634747048 -0.7754854749236546
0.16425023574602998 -0.7727366045797064
0.17771133293165348 -0.7697523511803359
0.19111829752373746 -0.7665336237580372
0.20446704563099138 -0.763081402768364
0.23153537888627929 -0.8074598245881879
0.24559223196709887 -0.8032959950089498
0.25957427527495586 -0.7988874736879289
0.27347724974401166 -0.794235603503426
0.2872969203935618 -0.789341801460163
0.3010290776180523 -0.7842075582576494
0.31466953846936624 -0.7788344378361013
0.3282141479309899 -0.7732240769000499
0.3416587801836723 -0.7673781844197846
0.37613025294922253 -0.8066139304626184
0.39015032064227895 -0.7999267012062585
0.38135201978121935 -0.748445480318229
0.4178296908794429 -0.7858233576444449
0.43148056201924 -0.7784115393540623
0.4449999999999999 -0.7707626093681504
0.4583838866699483 -0.7628788976248799
0.49812410837921256 -0.7971652103870404
0.5119606929141254 -0.7883503338686985
0.5256413292625021 -0.779295318201739
0.5391618501699833 -0.7700029216316523
0.5819073997695484 -0.800926824431198
0.5657061217629253 -0.7507173794444553
0.6095048605724018 -0.7801306460706546
0.623027187139339 -0.7693745018424012
0.668499114074001 -0.7966862208437372
0.6494984387006022 -0.7471624844205443
0.6958958306132126 -0.7728706184964901
0.7092782944649986 -0.7606078496839372
0.7571776238003071 -0.7840803823691297
0.7707463914933369 -0.7707463914933368
0.7840803823691298 -0.7571776238003071
0.8337432198458544 -0.7774781304712481
0.8471851010442295 -0.7628088912490982
0.86036892145396 -0.7479072930491782
0.9115928873115838 -0.7649172555269816
0.9248036941337954 -0.7488912653493065
0.9140924741837975 -0.7141673113777635
0.9264171916548596 -0.6981054268563759
0.938459713474939 -0.6818308926592688
0.9911739735896801 -0.6940274879847657
1.0280065899682518 -0.693399200303726
1.0399515042523257 -0.6753524034186335
1.0515796392339682 -0.657099887649174
1.105745817905725 -0.6643991166339698
1.1604740410711478 -0.67
1.21572139292376 -0.6738853721424085
1.2714445337168547 -0.6760390504116828
1.2830493948312498 -0.6537463196249473
1.3392031289857589 -0.6531730087157254
1.4410293813882735 -0.671963036167712
1.4982145505338655 -0.6670480946443123
1.6016784450072463 -0.6798721635713362
1.6132999069462102 -0.6518154725436867
1.6711089634299912 -0.6414786296860876
1.7478282746617895 -0.6361574665857439
1.853216408174661 -0.6381135827360271
1.9591764235680162 -0.6365750084123917
2.065618272880157 -0.6315228822011113
2.1724514328206004 -0.6229404241464179
2.279584950042201 -0.6108129464419488
2.483957059266551 -0.6193200527351491
2.6405428755679874 -0.6096173572718738
2.8464095181353746 -0.6050230202796799
3.052860540522235 -0.5934159756210545
3.308954050121019 -0.583457876960886
3.5655549095484473 -0.5647284187952334
3.970974955653697 -0.5580841348498623
4.377128528738231 -0.5374438044167003
4.833376411489809 -0.5080083314807955
5.439223051580931 -0.47587035540221306
6.144994549600518 -0.4296998782638111
7.250050422318206 -0.37995904232377276
8.55478547928346 -0.29873969177340876
11.108307893187506 -0.19389623551822008
14.71 0.0
22.356594463696908 0.39023580793765983
37.63705854553914 1.3143150458161883
43.400439580433776 2.274520658318342
43.45389002931795 3.0385919962941026
23.071869207804827 2.018527002035766
17.264900103593224 1.8146141223264667
14.600353890643849 1.792698041489719
10.655284419659298 1.4975025663303039
10.528757710744168 1.6675913973288612
8.08527165223023 1.4256515386454984
7.077531992657657 1.3757328566648885
6.856814681143977 1.4574609526324933
5.904682592598525 1.3632033893238222
5.977021673860138 1.4902388768939538
4.767858011854062 1.3671612848523156
3.392290361037129 1.234692717405664
3.230188275680318 1.2399531054267392
3.2080561368010843 1.2961388132190559
3.2769972782906875 1.391002817421815
3.297899102089789 1.468319281503639
3.2717711112023062 1.5256519248839246
3.064887697880159 1.4948456105507546
2.860130942644661 1.4573095041639452
2.7018196341483165 1.4365829821248264
2.632605318489581 1.4592769569414745
2.5634351952019387 1.4799999999999995
2.1514899247623016 1.2927455680242361
2.3406127453917356 1.4625771692836453
2.5663319379129974 1.6665954471459832
2.536854972018428 1.7111302846204852
2.5885204599532137 1.8125015388693062
2.556493702224834 1.8574013972442152
2.5636199872518097 1.9318262243180757
2.529514519077577 1.976273335795363
2.6112104304954227 2.114516513927453
2.612211551035715 2.191905749031099
2.6112951475707913 2.269964240307155
1.493721099209562 1.3449525187813052
1.3968855700926157 1.3026168677193721
1.3739390186468232 1.3267974875766848
1.3505739520663058 1.3505739520663056
1.2920645690537347 1.3379720286298915
1.2685169497162472 1.360317885011657
1.2111263975095337 1.3450921341140833
1.2530727453718689 1.4414952982254945
1.1955849540169634 1.4248426642012992
1.04467184914273 1.2900622960185717
1.0219980490405929 1.3080978509871584
2.1725522335788936 2.8830741912707274
0.8287772057323871 1.140713962068676
0.7513851316198702 1.0730891780185794
0.7884619938937529 1.1689429773026088
0.7570482586708878 1.165752089444139
0.7736821257804791 1.2381502203883819
0.777707493114182 1.2943226240601895
1.9549999999999996 3.3861593287971554
1.9683270582001284 3.550956010985946
1.9295281230500108 3.62891460665019
1.8659009539295377 3.662036814414192
1.7797868559636534 3.649103827974618
1.6735683164931698 3.5889788366651336
1.6106771065801695 3.617640012264699
1.4105393738462781 3.3230225209633097
1.4272511209146255 3.5325704858994595
1.3474634902903284 3.5102624036294783
1.2859957389045147 3.533244254155015
1.1427442221446193 3.318770200353602
1.0382971010998234 3.1955498947517156
1.9325769682172886 6.3211744369156655
1.0501783256627668 3.662407061524995
1.7237348403827897 6.4330660030851945
1.5991037299138033 6.413654750684337
1.4869264692129487 6.4405861282304055
0.7609567883929989 3.580020218685729
1.032276664987108 5.310603062451862
1.1217672277283692 6.361858084458865
1.0105666441598917 6.38046668024459
0.8990582322020215 6.397131724070545
0.7872759583972527 6.41184813960294
0.6700274495456601 6.374885349310632
0.5368793753255742 6.136559340245153
0.4331877019510191 6.1948727521135085
0.24650235390426503 4.703545108694042
0.06875200850392713 1.9687999292276186
0.03385766848832975 1.939704528603399
