# .PCD v0.7 - Point Cloud Data file format
VERSION 0.7
FIELDS x y
SIZE 4 4
TYPE F F
COUNT 1 1
WIDTH 180
HEIGHT 1
VIEWPOINT 0 0 0 1 0 0 0
POINTS 180
DATA ascii
5.143516556418883e-17 -0.84
0.013787401085454043 -0.7898796791735492
0.029315577230100906 -0.8394882946960404
0.04396220324407293 -0.838848809193842
0.05859543794506538 -0.8379538022182523
0.07321082390803284 -0.8368035463970662
0.0878039091448289 -0.8353983921093495
0.10237024846032389 -0.8337387673787104
0.12386405985445827 -0.8813385811799976
0.13922667388580554 -0.8790426231296726
0.15454687812356807 -0.8764789001808652
0.16982000588512497 -0.8736481932684209
0.18504140482780593 -0.870551364653087
0.20020643836604 -0.8671893576588594
0.2274065818636876 -0.9120779826994366
0.2432899023963695 -0.9079702767117241
0.2590991144679792 -0.9035859941820197
0.27482940243937254 -0.8989264706052532
0.29047597471245057 -0.8939931253174442
0.3060340651897273 -0.8887874610633577
0.33859994189241216 -0.9302956945780492
0.35478427004984736 -0.9242446222322297
0.3895908571525487 -0.9642712087494588
0.38682381720438097 -0.911299804917916
0.4230061087988324 -0.9500872759483048
0.46065390529736244 -0.9878754878699485
0.47782455000009444 -0.979685510466092
0.4948496447161061 -0.971197111365321
0.5351975815759156 -1.0065602558591766
0.5284424860685075 -0.9533354807819414
0.5949999999999999 -1.030570230503482
0.6128953091429645 -1.0200290878355136
0.657099887649174 -1.0515796392339682
0.6753524034186336 -1.0399515042523257
0.6933992003037261 -1.0280065899682516
0.7399136028928495 -1.0567061371327995
0.7582429754572904 -1.0436319227436823
0.8064321310237448 -1.0701715834633725
0.8557694507026651 -1.0953349475133434
0.9062213631117658 -1.119090184498038
0.9256141579486167 -1.1031039980913282
0.9775279531958558 -1.1245172745319303
0.9970046034746988 -1.1072857899613173
1.0843773924993727 -1.162852385574481
1.1392397275527555 -1.1797172725553877
1.159655121145938 -1.1596551211459378
1.2516512525892531 -1.2087055645986553
1.3091231258983154 -1.2207770645118723
1.4045437201522752 -1.2646568460182417
1.4641365856321777 -1.272754516241584
1.5397493306691457 -1.2920030954699437
1.60092068060136 -1.296400005562665
1.7021032277905197 -1.3298287867034218
1.8448480282092465 -1.3901927034812316
1.9497309564436234 -1.4165624580248604
2.056071631165369 -1.4396768552411254
2.1637880643686587 -1.459493478058649
5.250077755338355 -3.4094403591940687
5.351183486747048 -3.3437905573115225
5.323008937360117 -3.1983864451914354
5.378017757501364 -3.105
5.387657395978678 -2.9864272607174365
5.438957172010991 -2.891944826761087
5.444049862790928 -2.773881953408631
5.491631622887911 -2.678447706881263
5.519414423053198 -2.573745214000859
5.545220927890588 -2.468891423470107
6.314663294683741 -2.6804155414364175
7.334024289623288 -2.9631381539198633
8.878349855988388 -3.408079200175806
10.909831327324396 -3.9708538640110143
12.77395595634677 -4.398425766716187
17.699161768252807 -5.750806265317771
25.87760669635974 -7.911578329797255
23.84890267622969 -6.838562797819748
26.186249150696643 -7.016584312729336
12.963150903047312 -3.2320765252115593
11.31243645215658 -2.611681740932271
11.356293644519482 -2.4138547303941866
11.396691599827378 -2.2152924363216857
8.873117854639995 -1.5645700807790426
8.899071948762192 -1.40947453001248
6.743725548130094 -0.9477688175380454
6.064456986528478 -0.7446216882054508
4.634472032416154 -0.4871026388272648
4.343408883680011 -0.3799990383797892
4.299501056619842 -0.3006504018371795
4.503819201743128 -0.236035162655677
4.457283088505167 -0.15565175529315453
6.20905418692119 -0.10837944397553076
6.26 0.0
6.3090389564368285 0.1101246846192591
6.3061561184904935 0.2202158241927814
6.401215317776819 0.3354734795172704
6.29462915713949 0.4401633493254312
6.086749605340565 0.5325215881881922
2.595702146911193 0.2728192891285759
2.491290840619718 0.30589205194692004
2.436059449104263 0.3423658283617609
2.281560066774768 0.36136361424293334
2.22566552180759 0.3924448815272626
2.1203147162469542 0.4121474300133369
2.0932358655703442 0.44493101835000515
2.0364334354011415 0.470147703578678
1.979403281603033 0.4935206670233224
1.8255998116863388 0.4891679952437645
1.8167846053234227 0.5209546024941283
1.7596007509719855 0.5379639366898356
1.702391164168325 0.5531404199311558
1.6452023215428113 0.5664885887554526
1.6350651601674804 0.5951150493866637
1.6711089634299912 0.6414786296860876
1.6596590996745493 0.6705458022144827
2.2184166968203813 0.9416620196591501
2.2473218258007983 1.0005721419664688
2.274832545461991 1.0607718369691554
2.255973056210909 1.1003115784405846
2.280976701922222 1.1622156793332399
2.304493217361799 1.2253207788711753
2.282757435633823 1.2653531088429397
2.346928844255829 1.3549999999999995
2.3657817499378297 1.4215050867517496
2.383015150199557 1.4890731324953057
2.440531352721184 1.5848995918937292
2.4539512147629234 1.6552109942734106
2.4246900510954155 1.697786251599097
2.5160428525060863 1.8280121346295914
2.523688211749445 1.9017354731604734
2.568915056757913 2.007056409561646
2.572353132422574 2.0830504943749615
2.573909328879766 2.159766368546772
2.6490306265819297 2.30276719175668
2.645595578699523 2.3821049586375356
2.7133222330071227 2.5302139158318693
2.7047176492733276 2.61191547292583
2.764787514439401 2.7647875144394005
2.820312984063528 2.920519589374924
2.8712130958631183 3.0789990838167074
2.817039852770794 3.1286397152598293
2.7292055606005103 3.1395918537267318
2.6739964562960044 3.1867448833749488
2.586506807214832 3.1940699015881506
2.499585589822173 3.199323659643291
2.413278242839713 3.2025283952896446
2.357018861692817 3.2441581474435393
2.300041509767694 3.2847996975988574
2.214403897744157 3.282988787317965
2.1567705786595077 3.321135449063879
2.071984323151831 3.3158680559716256
2.0137988728983123 3.351524145745259
1.9549999999999996 3.3861593287971554
1.8713651341508613 3.3760320695580677
1.8121602323535377 3.408177708435458
1.7660230439868374 3.466015379092751
1.6921126266058382 3.4693450187147845
1.6228541250842858 3.4802219022207357
1.5618687094110735 3.508014557347587
1.500407533398811 3.534738637257371
1.4197589890463072 3.514026808808124
1.3582145287766876 3.5382698164243944
1.2962563432042848 3.5614350327785926
1.2241362607589086 3.5551498442534313
1.1866252583997983 3.6520570225733895
1.1080887608991716 3.6243950250999046
1.044665578546427 3.6431818276062287
0.8696319915444704 3.245510776331269
0.9168839843227405 3.6774208025860267
0.8458159643329329 3.663631443592484
0.7879853081993075 3.7071794067811235
0.7327065422459325 3.7694483844390296
0.6581265933576655 3.732421383916269
0.6007083457544867 3.792723227885329
0.5344247076866505 3.80262938396763
0.47407174584602374 3.8610045298847426
0.25714001963842803 2.4465238626059524
0.09238508731251763 1.0559663799772503
0.0690589090066842 0.987588409757226
0.05181259668051431 0.9886432394070281
0.0355974866365511 1.0193786435594776
0.017801454566029044 1.0198446490595192
