# .PCD v0.7 - Point Cloud Data file format
VERSION 0.7
FIELDS x y
SIZE 4 4
TYPE F F
COUNT 1 1
WIDTH 179
HEIGHT 1
VIEWPOINT 0 0 0 1 0 0 0
POINTS 179
DATA ascii
4.531193156845207e-17 -0.74
0.013438352956708371 -0.7698827252704213
0.026872612460925833 -0.7695309368047037
0.04291548411921405 -0.8188762184987505
0.05720030847018287 -0.8180025212130558
0.06710992191569677 -0.7670699175306441
0.08257748598144624 -0.7856722973409359
0.09018331411980914 -0.7344841522145783
0.10298809471044844 -0.7327983708687621
0.12358322738178244 -0.7802737890701589
0.12849965147352851 -0.7287577372290339
0.14119865657864322 -0.7264041157512713
0.16425023574602998 -0.7727366045797064
0.17771133293165348 -0.7697523511803359
0.19111829752373746 -0.7665336237580372
0.20446704563099138 -0.763081402768364
0.20397164330457937 -0.711333654994356
0.23097364673096205 -0.755480757210798
0.2441234255562085 -0.7513346478731713
0.25719884202115384 -0.7469596747234603
0.2701959132272784 -0.7423571704208676
0.28311068014078733 -0.7375285369327894
0.29593920879857066 -0.732475245107762
0.30867759150652624 -0.7271988342274279
0.3213219480298823 -0.7217009115376546
0.3549993398621875 -0.7612985411107859
0.34631320596337123 -0.7100472965763419
0.38135201978121935 -0.748445480318229
0.3943561127401483 -0.7416759780014985
0.40724008100692316 -0.7346805539970924
0.4199999999999999 -0.7274613391789285
0.4583838866699483 -0.7628788976248799
0.47162814516755236 -0.7547628055792192
0.4847287411633741 -0.7464168054714273
0.49768168408896474 -0.737843439573987
0.510483028352431 -0.7290453194172027
0.5525181371549247 -0.7604759747124505
0.5657061217629253 -0.7507173794444553
0.5787217868061189 -0.7407301083903185
0.5915611675868471 -0.7305172037695526
0.636359733589674 -0.7583839986877883
0.6823013901501276 -0.7848979634316829
0.6958958306132126 -0.7728706184964901
0.6751783764618736 -0.7240401646029786
0.7571776238003071 -0.7840803823691297
0.7495331880577405 -0.7495331880577404
0.8919813524199275 -0.8613763793691566
0.870310904926813 -0.8115780484743732
0.9586568248658387 -0.863178482202927
0.973575358487376 -0.8463161473977544
1.0264995537794306 -0.8613353969799626
1.041375588352341 -0.8432893240067821
1.0953349475133436 -0.8557694507026649
1.1500351344681017 -0.8666136333389495
1.1649844718999243 -0.8464107633011613
1.2205365459905977 -0.8546288901630587
1.2767178617347643 -0.8611570713449501
1.2915526746359531 -0.8387441139231415
1.3483964728887174 -0.8425716301307958
1.4057543731514641 -0.8446624428524886
1.4635829323957013 -0.845
1.5218382904225485 -0.8435687392286265
1.6246235708604257 -0.8638276755260391
1.639452004506597 -0.8353425195207661
1.6537810451904673 -0.8066029100919024
1.6404170945363363 -0.764939053750666
1.699194551215238 -0.7565301561209883
1.758164270094161 -0.7462964554145126
1.8636395476792424 -0.7529592527659829
1.9231756785842355 -0.7382379760633186
2.0297360608975623 -0.7387635095834446
2.325975695974319 -0.8008976599646055
2.5773631591598662 -0.8374360547561074
2.7350316020542818 -0.836183075507027
2.8933977047743396 -0.8296684410091673
3.0040293197590024 -0.8049272302688393
3.046728580506629 -0.7596347521829564
3.1764464111998665 -0.7333404371609994
3.482205458612348 -0.7401656193112235
3.7399995689355996 -0.726982272384636
4.096800252530786 -0.7223764190944303
4.553243250143585 -0.7211628838354643
5.010756427832345 -0.7042158908579309
5.617811218289884 -0.6897804836731345
9.308724940647037 -0.9783864161852357
9.324382374138738 -0.8157777521180795
9.337199510431955 -0.6529205942450116
11.444294468287417 -0.5997700585441372
14.800978148152808 -0.5168615461640401
22.006647770392174 -0.38412746568461065
32.31 0.0
37.95421850813661 0.6624933483592831
37.93687579364487 1.3247848948269387
9.996281642893283 0.5238829219918685
10.035494345613833 0.7017501258659016
9.971908927898372 0.8724289849040595
11.944207963372962 1.25538684384452
9.339859286944842 1.1467905214424374
9.318422526858177 1.3096188800342154
9.343531702030004 1.4798700392805841
9.316281343495488 1.6427117607291613
5.605091217486161 1.089519363600071
5.242871139933198 1.1144066627831903
5.320060553727385 1.2282327567175033
5.297814665466941 1.3208935499741865
4.094974824697238 1.174215135780416
4.599825876182201 1.4063078997163634
4.6221346691944465 1.5018225926622444
4.642496206192646 1.5985396383846395
4.61389076805881 1.6793189037290337
2.763398062431717 1.060769130654089
2.7444642095176905 1.1088355165111
2.7246943662192233 1.1565641403282507
2.6127400088578385 1.1632667991967889
2.7733018283321487 1.29321188092654
4.637777278903702 2.26199511743164
4.642143991021396 2.3652905036430387
5.218220273796258 2.7745769360646158
5.256464439907768 2.9137058176804858
1.8099930939094768 1.0449999999999995
1.7486212934323089 1.0506776728165108
1.687615711351288 1.0545393358240778
1.6018607847757595 1.040260556878702
1.6083328907567809 1.0848342327332487
1.564580404591974 1.0955309934304984
1.585673308974897 1.1520590944932474
1.525393824190329 1.1494666942204126
1.4262994640281668 1.1143472703394415
1.445491488309966 1.1705359273526974
1.463144886357248 1.22772433450129
1.4414952982254945 1.2530727453718686
1.3822493753879532 1.2445829278274767
1.3237501999306989 1.2344170317131222
1.2660380485960256 1.2225987320078353
1.2091525958289964 1.2091525958289961
1.1878658134848852 1.2300710585790937
1.1662171957068723 1.2506148297687814
1.1107568065557047 1.2336204102924742
1.0562550366747168 1.215082424158663
1.0027486711110016 1.1950293312656057
0.9817398100377464 1.2123476998728746
0.9604319015080272 1.2292967756264863
0.9087406849595927 1.2059396201714123
0.8287772057323871 1.140713962068676
0.7800639534374225 1.1140467802330292
0.704583058373141 1.0445873414193525
0.6590132323681829 1.014791387213963
0.6306039244375138 1.009177234426147
0.6489479743866684 1.0800307988846614
0.6549999999999999 1.1344932789576148
0.6593410835350185 1.1894828017095782
0.6384813253888113 1.2008087262881408
0.6174270796457838 1.2117688728961804
0.5742662022936912 1.1774202006519088
0.5324990097932814 1.141947811666179
0.5124881702755085 1.151067276629677
0.49232122189648486 1.159836115350075
0.4532739780332537 1.1218924640258126
0.4515436164270782 1.1763113373864742
0.4309453805903427 1.1840127021902445
0.3939374668931594 1.1440774764751733
0.3893614129124338 1.1983312105318935
0.3537697627145112 1.1571287547152729
0.333521200538569 1.1631266520853658
0.3131710445740504 1.1687702498097725
0.29272549367559786 1.1740578287939556
0.2721907757560768 1.1789877783901346
0.25157314588948865 1.1835585968879048
0.23087888440561935 1.1877688919716733
0.20143188609363905 1.1423769934941614
0.17364225619465634 1.096334058060603
0.16144079711367568 1.1487109597402216
0.13527497117971374 1.1017262283218674
0.11602659422709559 1.1039193038587833
0.10110066158728344 1.1555858497864246
0.07742968585597926 1.107296095788405
0.05966299011695586 1.138437669620214
0.03978542624085123 1.139305542801769
0.01902312301663888 1.0898339877204666
