# .PCD v0.7 - Point Cloud Data file format
VERSION 0.7
FIELDS x y
SIZE 4 4
TYPE F F
COUNT 1 1
WIDTH 180
HEIGHT 1
VIEWPOINT 0 0 0 1 0 0 0
POINTS 180
DATA ascii
2.694222958124177e-17 -0.44
0.008551679154268963 -0.4899253706266317
0.015355778549100476 -0.43973196388840213
0.025644618559042542 -0.48932847202974117
0.032087977922297714 -0.45887946311951916
0.03834852680896958 -0.438325667160368
0.048083093103120596 -0.45748007186940576
0.05605989796636785 -0.45657122975500813
0.0709782814896334 -0.5050367150582009
0.07195985391850623 -0.4543366366737634
0.08856057061013452 -0.5022519540362261
0.09731258764203791 -0.5006298635583086
0.10603496231705732 -0.4988552763742409
0.11472503771537122 -0.49692873304046997
0.12338016675583052 -0.49485082040075823
0.14493866525741161 -0.5409184627218783
0.15435691925751954 -0.5383065497254587
0.14910956940859577 -0.4877154255411481
0.1575986671312232 -0.48503882331052833
0.16603975877314994 -0.48221447355565156
0.19153128026237456 -0.5262278676401088
0.20068605174536824 -0.522805038838433
0.20977969231291085 -0.519222958557401
0.2188094319539933 -0.5154827179333666
0.22777252012244822 -0.5115854562798565
0.23666622657479172 -0.507532360740524
0.2454878422018834 -0.5033246659275336
0.2542346798541463 -0.49896365354548605
0.2629040751600989 -0.4944506520009991
0.29573386835026566 -0.5335180213550313
0.30499999999999994 -0.5282754963085076
0.33992512944063585 -0.5657304184633941
0.2967547879705948 -0.4749069338475986
0.3049978596084152 -0.46965551804943745
0.3131480259436183 -0.46426104063082335
0.3498816261741381 -0.499682747016285
0.3585490038984086 -0.49350036656871793
0.33701641296514706 -0.44723588562648403
0.34477042618236875 -0.4412860220197643
0.35241941898790896 -0.43520173841590376
0.3599610614244621 -0.4289848881466277
0.40019600768420943 -0.4603728439358909
0.4081696698789035 -0.4533183435412105
0.4501189176412491 -0.4826934430686525
0.42374160597998833 -0.43879727820657716
0.46669047558312143 -0.4666904755831213
0.4747642682235098 -0.4584745245029382
0.5192611281496111 -0.4842188356443739
0.5647900673628197 -0.5085392608327322
0.6113147599804454 -0.5314078134823109
0.6204959989263722 -0.5206579638460969
0.6294882287801464 -0.5097495167503683
0.6382887104214449 -0.4986857950137832
0.6868265386406718 -0.5175609199107615
0.7362054648812022 -0.5348845795861505
0.7863859625174321 -0.5506333788970041
0.7958760696528401 -0.5368251873319169
0.7631902168303359 -0.4956215218636746
0.814126172310169 -0.5087224936638767
0.9085973387442391 -0.5459403594046573
0.9179869280115049 -0.53
0.9270968895677595 -0.5138981974611173
1.0242192077163552 -0.5445870128316332
1.078117894267925 -0.5493285046848516
1.087540796021992 -0.5304290876147837
1.141947811666179 -0.5324990097932812
1.1967445495118074 -0.5328250024292982
1.2979118433679409 -0.5509308911698758
1.400047620395849 -0.565655956058027
1.4097064440107747 -0.5411356038134035
1.5598897505046077 -0.5677534379206102
1.6641126930547976 -0.5729999518445958
1.7689651203089856 -0.5747716095374021
1.9221725594857013 -0.5876671264927007
2.076325263226769 -0.5953766885647181
2.279584950042201 -0.6108129464419488
2.3869274866389514 -0.5951278631751823
3.64414404229678 -0.8413169432460547
3.6093646467077427 -0.7671941391175322
3.6712856660942634 -0.7136256427082778
3.683180996265658 -0.6494441844743196
3.763092577667475 -0.5960153118032796
5.109783234706503 -0.7181332009539375
6.659984677513271 -0.8177432942485393
11.546399205225653 -1.2135754585374559
9.971908927898372 -0.8724289849040573
9.786103333048876 -0.6843110074298681
9.79655573594237 -0.5134157307432797
12.20256199790316 -0.42612285473753747
12.258132742617358 -0.21396650292109615
12.26 0.0
12.258132742617358 0.21396650292109615
11.0532625468312 0.3859884335296613
9.79655573594237 0.5134157307432797
5.396821511905649 0.37738252295571845
4.7418867629167085 0.41486133547885345
4.286389369037257 0.450517676683587
3.9304827604996353 0.4826025998843838
3.5253543247199906 0.49545623941783284
3.318632824399663 0.5256198025351757
3.062752111867967 0.5400458325441534
2.8565351038327025 0.5552541765457456
2.601872617951923 0.55304509757524
2.4456688626109404 0.5646271464031013
2.3384127003251516 0.5830317683951995
2.182992367413294 0.5849310419316972
2.028262178429853 0.581594820773868
1.9221725594857013 0.5876671264927007
1.816517946123743 0.5902224592561495
1.7113886218347636 0.5892783595674537
1.700843643622494 0.6190564594194605
1.596422529310215 0.6128091937224636
1.4927660058525276 0.6031166153996186
1.4359875713858068 0.6095405604432673
1.4251309139224575 0.6345091631982486
1.504470926480839 0.701546314489561
1.5369378191715755 0.7496146610093226
1.5681714825715276 0.7990232795416023
1.5539877634317114 0.8262699505031681
1.5393306845653365 0.8532649316335532
1.5675059808498342 0.9049999999999997
1.5514728142708232 0.9322189155871983
1.5349670540431313 0.9591538682621009
1.5599272563784885 1.0130286051279507
1.5834617635801296 1.0680584456291264
1.564580404591974 1.0955309934304984
1.585673308974897 1.1520590944932474
1.5493528894917479 1.167521144914974
2.7265172074792576 2.130188704626778
2.727782324713968 2.208914572584929
2.6888159953476127 2.256184509999753
2.9509144586710385 2.565190803352883
2.868539026342741 2.582844140545193
2.78645760316904 2.598413751838119
2.776651629307193 2.6813813099717296
2.764787514439401 2.7647875144394005
2.820312984063528 2.920519589374924
3.041712685878743 3.2618375092215004
3.1850616862681655 3.5373693692723958
3.0900380265452894 3.554682122849256
3.059669022107928 3.6463715492463353
2.586506807214832 3.1940699015881506
2.499585589822173 3.199323659643291
0.487470168753159 0.6468947631383073
0.4643503493110538 0.6391234255562085
0.4645969134443472 0.6635131558740834
0.45294625181130493 0.6715204337695838
0.44115761836217204 0.6793231600357934
0.429234604028896 0.6869189578867051
0.417180840677144 0.694305513568711
0.4049999999999999 0.7014805770653953
0.39269579239953306 0.7084419627829106
0.3567983877172769 0.6710401705727845
0.36773230478903296 0.721715284592578
0.3331620715596987 0.683083475187367
0.3211898789229316 0.688793918147854
0.2887830165838183 0.6486172749262465
0.296955657651848 0.6995836886238547
0.2659706813252976 0.658300536742419
0.2544412441771631 0.6628421028130133
0.24283430176122486 0.6671817607579948
0.23115338966458113 0.671318188675515
0.21940206600621268 0.675250126569559
0.19296532511700612 0.6311611389356034
0.1957025226300694 0.6824958041162064
0.1863497124738151 0.6954665949281291
0.1669261079637707 0.6695040511304375
0.15521622749726693 0.6723153447018123
0.1330634821233659 0.6260144644696356
0.13738247667111234 0.706771572082318
0.12502668792018976 0.7090615821687898
0.11263281482896625 0.7111356052284992
0.09324597764324372 0.6634796060568522
0.08165246008144883 0.6650059215996857
0.07003407038932796 0.6663296698967431
0.06275213477831386 0.7172601826260567
0.04673683740856406 0.6683679136740822
0.0376818884949195 0.7190132650232931
0.025127637625800777 0.719561395453749
0.011693112312979863 0.6698979557547822
