# .PCD v0.7 - Point Cloud Data file format
VERSION 0.7
FIELDS x y
SIZE 4 4
TYPE F F
COUNT 1 1
WIDTH 180
HEIGHT 1
VIEWPOINT 0 0 0 1 0 0 0
POINTS 180
DATA ascii
9.919639073093561e-17 -1.62
0.02827289842839943 -1.619753266153354
0.056537184658051756 -1.6190131397709353
0.08478424911356923 -1.6177798463024098
0.11300548746548325 -1.6160537614209154
0.14119230325120619 -1.613835410908628
0.16933611049359862 -1.611125470496603
0.2035218034865963 -1.6575520732410076
0.23241907860330932 -1.6537476747984223
0.2534238333651741 -1.6000551117641233
0.28999245670377377 -1.6446289475303872
0.31865102227883 -1.6393173963575989
0.34721252366565825 -1.6335064932254553
0.37566826075425475 -1.6271980081913429
0.404009565651445 -1.620393862880914
0.43222780532120963 -1.613096129902744
0.46582713133072856 -1.6245322661357589
0.5028793321231072 -1.6448441802564209
0.5315092303249096 -1.635817208027664
0.5664885887554527 -1.645202321542811
0.5780140422203803 -1.588080529128185
0.6343112706951817 -1.652437354900047
0.6630536703461646 -1.6411154225832136
0.6798721635713363 -1.6016784450072463
0.7077217589518926 -1.5895690962981253
0.756486688515852 -1.6222909387956035
0.7846843527524486 -1.6088413428755088
0.8353425195207662 -1.639452004506597
0.8873012536653336 -1.6687709505033717
0.9162901822655771 -1.6530312464934578
0.9449999999999997 -1.6367880131525891
0.9734219615800025 -1.620046198326992
1.0280433726124174 -1.6452133065434662
1.083831679679904 -1.6689544302113937
1.1127938779067863 -1.649784769384533
1.170095930156134 -1.6710701703495432
1.1990819146766452 -1.650394668524893
1.2577933983877807 -1.669148215998842
1.286732483430626 -1.6469424750380486
1.3467456368466522 -1.6630923575179177
1.4077048652135211 -1.6776373304305618
1.4695722249387364 -1.6905494596990094
1.5323090885617854 -1.701801650343233
1.5617762445431218 -1.6747999767079
1.6255005868740535 -1.6832551327924434
1.6899852070358488 -1.6899852070358485
1.7192221228093765 -1.6602335053970034
1.8210707170317348 -1.6981759165556214
1.850430615438712 -1.666135209833557
1.916962333765841 -1.6663899336358885
1.984055107678153 -1.6648199090881366
2.106065555548391 -1.7054582597450594
2.1985500025627545 -1.7176955161585863
2.228193073031947 -1.6790639145942148
4.134076841255982 -3.003582639214538
4.0629941396734 -2.8449391243011886
4.194930117128511 -2.8295160915619784
4.285606602201117 -2.783105468926788
4.248720961743694 -2.6548955138083565
4.2515498114824775 -2.554588851553868
4.252184732581593 -2.455
4.250651776697463 -2.3561747543971983
4.202830542008492 -2.2346846388608403
4.241191055136631 -2.1609947787602426
4.278259660384035 -2.0866466587160084
4.132763508887123 -1.927139273537589
4.12009001396813 -1.8343822602718587
4.151476889070506 -1.762197389486624
4.598831918651266 -1.858048703342923
4.63055891542612 -1.7775050297446895
4.754844661176696 -1.7306219252278838
4.737048063752577 -1.631096453830355
4.8123459724534765 -1.5636259915372337
4.791086827374808 -1.4647822406609108
4.767858011854062 -1.3671612848523156
4.790992098393779 -1.2837424637085026
4.764152016015143 -1.187836507394368
4.784157018095505 -1.1045096768283764
4.8027047196029855 -1.0208464019151986
4.81978947072803 -0.9368721672988353
4.786165679639331 -0.8439301434612816
4.80016533529237 -0.760271500095522
4.812702814084032 -0.6763812706659179
4.774146989394759 -0.5861915417787591
4.7339242219529805 -0.4975554851540301
4.7418867629167085 -0.4148613354788524
4.748404879236763 -0.3320408150220358
4.7534765854317715 -0.24911915171641297
4.737112520070514 -0.16542361436985484
4.659290259428784 -0.08132821399774127
4.67 0.0
4.799268936750678 0.08377155089896098
4.857039419312806 0.16961155397415495
4.853339538907229 0.2543527473407074
4.898039486775737 0.34250428608365574
4.8913159676304705 0.4279346968910022
4.883102506258222 0.5132347546441792
4.873401604558891 0.598378476119274
4.8622162175211106 0.6833399257139212
4.780411568480467 0.7571428107947173
4.786165679639331 0.8439301434612816
4.67254539321088 0.9082508179923535
4.851612099639675 1.0312419864560867
4.881594024574029 1.127004782262764
4.861181588642742 1.212028696954336
4.887584681022685 1.3096243682187556
4.91204726624481 1.4085068882248655
4.886717302971112 1.4940194111331846
4.907451624082992 1.5945276909747286
4.926151778872441 1.6962100847217865
4.895798554294582 1.7819249467267342
2.3246152619780327 0.8923361943677979
2.1881538967776177 0.8840715604615526
2.126366211475137 0.9025889068102226
2.064612734272278 0.9192248133513087
1.957624819999164 0.9128554453599107
1.9683589613951755 0.9600328114680798
1.969124418456293 1.0033190044243985
1.9071668005752822 1.0140585756175247
1.845447582064125 1.022948298719771
1.7840123317959438 1.0299999999999996
1.7229062744112453 1.035226530569209
1.687615711351288 1.0545393358240778
1.5850873734168511 1.0293677761784013
1.5254291335012768 1.028914942386174
1.4662821592772952 1.026701821068373
1.4076895702124086 1.0227463389889033
1.3896257874822893 1.0471581402845644
1.33173817359536 1.0404678933003624
1.313376674862281 1.063551460874225
1.2563128867151239 1.0541716798859244
1.101875987125247 0.9578461823261404
1.0329713074135778 0.930091542838813
1.016581645250647 0.9479777204868728
0.9639153324537924 0.9308422164150565
0.9121677477306463 0.9121677477306462
0.8961092978921064 0.9279483424368602
0.8797778844806231 0.9434462750887299
0.8631784822029273 0.9586568248658385
0.813513195948229 0.9358398794762373
0.7970566360113089 0.9498951094675328
0.7488912653493065 0.9248036941337954
0.7326371556375335 0.9377327967919991
0.6860691263933348 0.9104444814539139
0.6700751876134193 0.92227937358744
0.6825559592577446 0.9747909327039004
0.6374799099566513 0.9451028327127475
0.5936565481663797 0.9141509190605122
0.5776119980141934 0.9243724248105044
0.5613915016519592 0.9343123577653024
0.5449999999999999 0.9439676901250382
0.5042020050561906 0.9096044954249716
0.48825042529732626 0.918265496573284
0.47215011972912874 0.9266467851559026
0.45590599266064036 0.9347458081511337
0.41839207912329246 0.8972447091662834
0.4026692766450424 0.9044100030661747
0.38682381720438097 0.911299804917916
0.3895908571525487 0.9642712087494588
0.3727026675271122 0.9709236435570898
0.33859994189241216 0.9302956945780492
0.32231247291258497 0.9360633898433237
0.29047597471245057 0.8939931253174442
0.2748294024393723 0.8989264706052533
0.2728809822588292 0.9516490789789357
0.25623085465149575 0.9562665680261775
0.2274065818636876 0.9120779826994366
0.22270154380042648 0.9646263641373829
0.19543698936869366 0.9194587446897773
0.18508472551524857 0.952178367944234
0.17191169589026092 0.9749596754820861
0.14704839713781706 0.9284270401594295
0.13082271490246133 0.9308519846170761
0.11455718280083864 0.9329933825428426
0.09825675547159446 0.9348505816461768
0.0801832833278455 0.916499122244406
0.07115160321900797 1.0175153312650207
0.05076587755565543 0.9686706487119366
0.033852511801426045 0.9694091022085228
0.016405262051046372 0.9398568334470078
