# .PCD v0.7 - Point Cloud Data file format
VERSION 0.7
FIELDS x y
SIZE 4 4
TYPE F F
COUNT 1 1
WIDTH 177
HEIGHT 1
VIEWPOINT 0 0 0 1 0 0 0
POINTS 177
DATA ascii
2.1798713024822888e-16 -3.56
0.06265413910984811 -3.5894532256114444
0.12703416799710393 -3.637782610349509
0.18788608291216882 -3.58508002976892
0.2504257407414104 -3.581254940432769
0.3172469036014756 -3.6261487010539537
0.3804836062942586 -3.6200596991405147
0.4375109428244795 -3.563240684392346
0.499631432446635 -3.5550623667822374
0.561599729494429 -3.5458011427365443
0.6233969578242802 -3.5354598333138267
0.6850042934017962 -3.5240415885771137
0.7567985545766445 -3.5604572666710523
0.8188218378116692 -3.5467070358182564
0.8805956999827904 -3.5318764436446273
0.9421013241731755 -3.515970007692209
1.003319975173877 -3.4989925732154807
1.0642330051907618 -3.4809493117054493
1.140272709243556 -3.5093985451291165
1.2013464899469084 -3.4889635439614786
1.2620543288717179 -3.467465770700002
1.3223777338221583 -3.4449117737746744
1.3635680000339203 -3.374949230623106
1.4417978641254199 -3.396662909239505
1.5008582129497035 -3.370982738701197
1.559461385823181 -3.344275734165238
1.6175895316516957 -3.316550030843926
1.675224944038928 -3.2878140742550777
1.7323500666799372 -3.25807661764944
1.788947498708984 -3.22734671934437
1.8449999999999995 -3.195633739964579
1.9004904964181002 -3.162947339590794
1.93950450709353 -3.1038560319325192
2.00971803920545 -3.0946943957186144
2.0913814589805937 -3.100600521355856
2.145175871952912 -3.0636286456408297
2.1806832860050753 -3.001453049131055
2.2507881865886605 -2.9868968075768754
2.3025739177179627 -2.94716021848914
2.353658262526392 -2.906525895849071
2.384742031937061 -2.8420248839714084
2.4536607684244975 -2.8226138300331676
2.449018019273421 -2.719910061247263
2.4483741126243697 -2.6255597888128213
2.47298379883403 -2.560849689205598
2.5385133444597057 -2.5385133444597052
2.5824298832157577 -2.4938235499478
2.5889921037318637 -2.4142741946212447
2.630732682189976 -2.3687223465103577
2.6339364349774743 -2.2896460111768704
2.8420248839714084 -2.3847420319370607
3.0774980073696048 -2.492108748557356
3.4751274234056444 -2.7150671061861527
3.921300354332208 -2.954911763676557
4.417232789287213 -3.2093074775169033
4.472570161817895 -3.1317273424767116
5.023967689683553 -3.3887089950327254
5.0404101133519985 -3.273280600440312
4.799952224245372 -2.99934303555994
20.706667404485927 -11.955
20.86842621234598 -11.567557539077601
18.815613203823734 -10.004439002967333
19.494680499158342 -9.090518810042445
19.741717339656606 -8.78957885686804
18.5573778456012 -7.877139550343757
18.599308122609756 -7.514608263923193
16.300314246641143 -6.257104399060944
14.386694024232257 -5.236328394315989
12.821231885126737 -4.414704174439045
11.612400063963825 -3.773097501318108
10.672361076547476 -3.2628682247057417
10.24704967870248 -2.9382942130092107
10.345065599555923 -2.771951973047997
10.149293296846924 -2.5305030279725234
6.050838102316311 -1.3969460474754007
5.389593280043268 -1.1455934164058543
5.1142776257623295 -0.9941148659117988
4.786165679639331 -0.8439301434612816
4.602627667173342 -0.7289846070874759
4.367082183150325 -0.6137533752338885
4.178619298409966 -0.5130699357356707
3.9880328004267755 -0.41915913770329005
3.895121269538725 -0.3407789541433431
3.7009626264639484 -0.25879651759070443
3.704915573939469 -0.19416639766132188
3.8076790509427547 -0.13296708243652888
3.809419718545851 -0.06649366852605028
3.86 0.0
3.8594121033036703 0.06736628884791444
3.957587674995619 0.13820200694190402
4.054435911103569 0.21248398234635224
4.050110044054886 0.2832112834011491
4.044550474252486 0.3538523155554926
4.087484989963603 0.42961198403005635
4.0297373756637676 0.4947895342248985
4.020488359090775 0.5650427898978655
4.010014662816259 0.6351239280633373
3.9983194772295643 0.7050116013277372
4.014855180300946 0.7804087910900684
4.020186639015941 0.8545170492609911
3.955942463028055 0.9133012806360922
3.9394006486805453 0.9822028961346514
3.9699551460480706 1.063746275371361
3.950785570306491 1.1328695324078664
3.930412547008076 1.201647706410448
3.9088422819730813 1.2700598468810338
3.9333572744931584 1.3543635225417718
3.8621366714300835 1.4057027890684988
3.8836945742283593 1.4908106701084494
3.8570848349978353 1.5583634286101944
3.8293001903621517 1.6254414945153794
3.8003491037932196 1.6920244351953293
3.770240394072464 1.7580919688413095
3.7389832326045345 1.8236239706425628
3.7511374668330286 1.911300003903492
3.6730619862931357 1.9530017011893066
3.6384179816998863 2.016808020224762
3.6026656797432652 2.079999999999999
3.565815970920787 2.1425583916258257
3.570282484818554 2.2309601024217924
3.4888695626529636 2.265698385662513
3.490248180456726 2.3542021236118438
3.448630106456655 2.4147567970379047
3.4059615463185287 2.474575912151312
3.362255497299102 2.533641247470124
3.317525272684299 2.591934811121021
3.3106417958066965 2.6809048658723067
3.2250471055308974 2.7061358367803305
3.17732733273787 2.762008512050035
3.1657969565336987 2.8504963830887364
3.0789990838167083 2.8712130958631183
3.0284205594257205 2.9245117396323788
3.0122748878546926 3.012274887854692
2.9592446581553276 3.0643875494426545
2.8712130958631183 3.0789990838167074
2.8504963830887364 3.1657969565336987
3.0244321236462386 3.479211164826979
3.7345960122787942 4.450718214521262
3.9710116675244738 4.903791016793486
4.254220794500299 5.445154307422449
4.579812326187087 6.077616231459899
5.002052497008946 6.884734622130803
5.426033087880895 7.749178338973864
6.268552447907072 9.293511188342018
7.112985797296256 10.953037617367237
8.801958978913532 14.086078877158235
10.743694242623732 17.88050989264606
10.704999999999998 18.54160389502483
10.355533488461761 18.681876944497493
10.00443900296733 18.815613203823734
9.697237074436721 19.031899356663537
9.341689138075235 19.15330112663525
9.090518810042445 19.494680499158342
7.569368927640645 17.0010809667288
5.903947351472926 13.908828335666373
4.686328483633061 11.59907002063051
3.8918759320619594 10.13868343175961
3.269712570193394 8.983461454713284
2.770584994430402 8.046363078350186
2.4134227260683394 7.427751392265149
2.06414423534252 6.751511577099031
1.7943991863686646 6.257813640558456
1.542561508811025 5.756917924682846
1.3571818343141357 5.44335902440834
1.025776807808025 4.443127495420672
0.8919411536081872 4.196253207148026
0.8281110399342049 4.2602619761628615
0.7397412368611227 4.1952810278320065
0.6742325443233952 4.256936747965043
0.5928774100898779 4.218541972839089
0.5252568700761856 4.277873913574098
0.44529125352020466 4.236663274268844
0.37564125124240655 4.293599148775423
0.30065040183718067 4.2995010566198415
0.22295117359494035 4.2541618180544845
0.14867185595265459 4.2574049231013475
0.07487082361594569 4.2893466122209185
