# .PCD v0.7 - Point Cloud Data file format
VERSION 0.7
FIELDS x y
SIZE 4 4
TYPE F F
COUNT 1 1
WIDTH 180
HEIGHT 1
VIEWPOINT 0 0 0 1 0 0 0
POINTS 180
DATA ascii
9.613477373306724e-17 -1.57
0.02740027810653525 -1.5697608813955344
0.053047234987801645 -1.5190740570690255
0.08216745130142203 -1.567848369564681
0.10951766377827697 -1.566175558907924
0.13683451611382327 -1.5640256760040405
0.16410968733021594 -1.5613993757281892
0.19133486914608155 -1.5582974580768756
0.22546042355530607 -1.604234271361344
0.24560211011316258 -1.5506706947343663
0.27262763893708075 -1.5461481722291666
0.3091105725100028 -1.5902360371852158
0.33681693912477034 -1.5845991131887651
0.36442070803706156 -1.5784795049520812
0.39191347087146167 -1.5718790765671145
0.411522281713008 -1.5358220637996187
0.4603143842143886 -1.6053070322169924
0.4882607468869704 -1.597028942458269
0.5160583806061623 -1.5882643822129063
0.5436988179434518 -1.5790160212508588
0.5882746465201504 -1.6162713077517623
0.6056418347315576 -1.577750920780271
0.6443233406753689 -1.594756229854874
0.6798721635713363 -1.6016784450072463
0.7077217589518926 -1.5895690962981253
0.735355775428817 -1.576975549443771
0.7846843527524486 -1.6088413428755088
0.8126429945337889 -1.5949016782971785
0.8638276755260392 -1.6246235708604255
0.8920497012532603 -1.6093002611364882
0.9449999999999997 -1.6367880131525891
0.9734219615800025 -1.620046198326992
1.0015474094007573 -1.6028109017356449
1.0565997279291526 -1.6270209018141224
1.1127938779067863 -1.649784769384533
1.1414171083385816 -1.6301125681350936
1.1990819146766452 -1.650394668524893
1.2277026472301784 -1.6292164404964773
1.317515557196909 -1.686343012718385
1.3782116563991438 -1.7019496555907663
1.4077048652135211 -1.6776373304305618
1.4367692734892108 -1.6528139806878708
1.4988525582438426 -1.6646444090693633
1.5617762445431218 -1.6747999767079
1.6255005868740535 -1.6832551327924434
1.6899852070358488 -1.6899852070358485
1.7551891128263089 -1.6949664239199533
1.8210707170317348 -1.6981759165556214
1.850430615438712 -1.666135209833557
1.9924332917881182 -1.7319958365349393
2.0376782186964815 -1.7098150417661946
2.106065555548391 -1.7054582597450594
2.214310217634889 -1.7300087456650994
2.244165783232893 -1.6911002150572556
2.3946903033498446 -1.7398443467857205
2.506605255524315 -1.755143895234201
2.619758729273932 -1.7670495749675599
2.692132523104811 -1.7482913023982365
2.8494416030855914 -1.7805287278235684
3.008657225464414 -1.8077836429342895
3.126351707661823 -1.805
3.288570098844128 -1.8228841721262272
3.4523250880784047 -1.8356338104928331
3.599666357721006 -1.8341216189477692
3.8288626372344514 -1.8674610853214697
4.087448119535291 -1.9060083604505542
4.302799105496651 -1.9157295888870187
4.565704073124104 -1.9380263973067973
4.830627882292962 -1.951700351696901
5.1907071713244415 -1.9925257994718697
5.6005680198840135 -2.038440054220986
5.966222212031689 -2.0543350546246586
6.334036398525723 -2.0580531825371495
6.368989674713817 -1.9471955534534267
6.6903814037307 -1.9184359964863138
13.677509700253207 -3.664877678651693
13.787902270381911 -3.437710136471277
13.943235627076717 -3.2190495876607064
14.095106926574138 -2.9960074646839128
14.194329072653222 -2.759098073144839
14.388041271508358 -2.5369998757138523
23.072399636302418 -3.654309103339793
30.856753021987334 -4.336633825915638
31.572893083710454 -3.8766638137177396
31.536289302127948 -3.314597570217289
31.400056883851818 -2.7471490114061825
31.58287783122604 -2.208489958739003
28.820448373017 -1.5104156971713611
22.24643980944507 -0.7768627965976727
14.45779767196142 -0.25236179708311995
14.31 0.0
14.25782813293014 0.2488713157956632
6.805851532000042 0.23766557254403192
6.501078271252275 0.3407070751415648
6.544020169704447 0.4576024677614626
5.98713013553139 0.5238060139134263
5.479815643479186 0.5759518326047713
5.022283527305089 0.616658877630046
4.614649200335718 0.6485466504739048
4.3063211649948006 0.6820542675754067
3.9983194772295643 0.7050116013277372
3.7399995689355996 0.726982272384636
3.482205458612348 0.7401656193112235
3.3226019209176525 0.76708309531258
3.163164067659748 0.7886653796549171
2.9847108032332206 0.7997508493667895
2.797271535180508 0.8021047054274675
2.68721636425613 0.8215644902708902
2.5773631591598662 0.8374360547561074
2.420527553534251 0.8334544754103211
2.3116438471333343 0.8413695525811452
2.203249806533396 0.8457483609269087
2.141794704049279 0.865341230790757
2.034315726129893 0.8635157939612953
2.000664552237296 0.8907532483360027
1.9394986642584309 0.9044030801250967
1.8784795567652588 0.916195696789172
1.7731029831348522 0.9034410944816982
1.712918330146318 0.9107748318046285
1.6530312464934578 0.916290182265577
1.5501854727741453 0.8949999999999997
1.534329468256781 0.9219181540889971
1.4756036873121814 0.9220595197657765
1.4173532598277665 0.920439969175396
1.3596216189902683 0.9170763616920247
1.3434093526339463 0.9406653556157158
1.2863370210561664 0.9345785511450323
1.2298986854728309 0.9267951356541547
1.1741360228740156 0.9173355982352308
1.1579474825708869 0.9376873826642576
1.1031039980913282 0.9256141579486167
1.0867817955207917 0.9447250017463302
1.0701285486874474 0.963548073156756
1.016581645250647 0.9479777204868728
0.9998823224707247 0.9655751349380063
0.9828784258493011 0.9828784258493009
0.9308422164150563 0.9639153324537928
0.8797778844806231 0.9434462750887299
0.8631784822029273 0.9586568248658385
0.8463161473977544 0.973575358487376
0.8291960164956359 0.9881973316234817
0.7803572849017983 0.9636609922066439
0.7634202294038164 0.9771333344723352
0.7462506287085398 0.9903080324586432
0.699464450228043 0.9627302233061874
0.6825559592577446 0.9747909327039004
0.6654395551301887 0.9865547113404997
0.6208884999171309 0.9560844474577832
0.6041079612258535 0.9667748296183255
0.5871434053974618 0.9771707228004078
0.5699999999999998 0.98726896031426
0.5526829670808243 0.997066466138911
0.5351975815759152 1.0065602558591766
0.4948496447161061 0.971197111365321
0.4778245500000942 0.9796855104660921
0.46065390529736244 0.9878754878699485
0.44334294095262244 0.9957645488304349
0.42589693005330836 1.0033502902631601
0.4083211868233443 1.0106304014777983
0.3727026675271122 0.9709236435570898
0.372801956224979 1.0242649566566402
0.35486928835830067 1.0306152474032555
0.3306481839811938 1.0176304724358143
0.3128377240533281 1.023246088880448
0.29493197072418914 1.0285500146540012
0.27693637825969747 1.033540634129303
0.2588564282916444 1.0382164271153163
0.22945007543074245 0.9938574660809399
0.22246550917500238 1.0466179327851721
0.20416562505290306 1.0503410862890006
0.18059410477360743 1.0242000631326964
0.1548701203898286 0.9778114571891864
0.1489152180272698 1.0595868335534804
0.1304001974435078 1.0620243822562145
0.11184545569638944 1.0641384280440525
0.09325664473999422 1.0659283269581679
0.07463942690621424 1.067393533778012
0.05338267536780262 1.0186021254496653
0.03734246147167616 1.0693481849104325
0.018674074887893213 1.0698370338173386
