# .PCD v0.7 - Point Cloud Data file format
VERSION 0.7
FIELDS x y
SIZE 4 4
TYPE F F
COUNT 1 1
WIDTH 180
HEIGHT 1
VIEWPOINT 0 0 0 1 0 0 0
POINTS 180
DATA ascii
5.3272135762909864e-17 -0.87
0.01518359360043673 -0.8698674947860604
0.03036256213117594 -0.8694700195066133
0.04553228193136125 -0.8688076952364793
0.06208326163227166 -0.8878320047312436
0.07582549619046258 -0.8666893873398186
0.0878039091448289 -0.8353983921093495
0.10237024846032389 -0.8337387673787104
0.12386405985445827 -0.8813385811799976
0.13140495063379398 -0.8296582060999157
0.15454687812356807 -0.8764789001808652
0.1602795561162977 -0.8245668340960377
0.18504140482780593 -0.870551364653087
0.19570741727916266 -0.8477019563631547
0.21047204917171086 -0.844157281860117
0.21740799788611742 -0.8113776940828173
0.23153537888627929 -0.8074598245881879
0.26021081720323574 -0.8511112328071015
0.27502512499370324 -0.8464402995026866
0.28975565746686954 -0.8415115322833919
0.32149893472612867 -0.8833110635387538
0.3368658725725823 -0.8775656009073696
0.33339986814016187 -0.8251936305644407
0.34775070435545363 -0.819249319572672
0.36199561233746236 -0.8130554573019146
0.39726116603625744 -0.8519293198144509
0.4120688779817328 -0.8448664035212169
0.426751069755174 -0.8375461327370658
0.46477684715803197 -0.8741181169303376
0.45572104303155686 -0.822142524711032
0.4949999999999999 -0.8573651497465943
0.5098876941609537 -0.8485956276950911
0.5246200715908729 -0.8395676151948617
0.5664245964156281 -0.8722173906632409
0.5536009744360394 -0.8207471968294912
0.596519493805088 -0.8519181260605515
0.6112966623841721 -0.8413776741499454
0.6258876240781303 -0.8305809304491846
0.6402879343386848 -0.8195311837509908
0.6859592262443228 -0.8470890979880984
0.7006384945583279 -0.8349884429996861
0.715104341599653 -0.8226334424428215
0.7628088912490983 -0.8471851010442294
0.7774781304712484 -0.8337432198458541
0.7919105423232567 -0.8200473723860622
0.8768124086713189 -0.8768124086713188
0.8919813524199275 -0.8613763793691566
0.9068785900077715 -0.8456779664774982
0.921499583591969 -0.8297219518849841
0.973575358487376 -0.8463161473977544
0.9881973316234817 -0.8291960164956357
1.041375588352341 -0.8432893240067821
1.0953349475133436 -0.8557694507026649
1.1500351344681017 -0.8666136333389495
1.1649844718999243 -0.8464107633011613
1.2205365459905977 -0.8546288901630587
1.2767178617347643 -0.8611570713449501
1.3334862030332244 -0.865976065673893
1.3907988776965388 -0.869067593342456
1.4486127381865699 -0.8704143465979913
1.5068842025849232 -0.87
1.5655692757795183 -0.8678092202409433
1.6246235708604257 -0.8638276755260391
1.6840023307160152 -0.8580420445077435
1.7886001521353423 -0.8723585821102641
1.8941832749065983 -0.8832721670380617
1.9275809156258878 -0.8582143168899383
2.080340968802515 -0.8830523503857584
2.0954355113209395 -0.8466109011199608
2.2499288278582563 -0.8636667584041738
2.4056131092119255 -0.8755715669137121
2.5150794110941828 -0.8660112908560369
2.6724688107893813 -0.8683377541936022
2.8306620776505853 -0.8654202459793007
3.037586959165088 -0.8710140443817173
3.293807067645723 -0.8825729437995956
3.502767571856347 -0.8733380431148001
3.8097869533102697 -0.8795586224845117
4.118001399089321 -0.8753082183427671
4.230813160659431 -0.8223867700729083
4.372546423374204 -0.7709979088411708
5.195240671530424 -0.8228452861116143
5.406863655328974 -0.7598851312419571
8.84358621112418 -1.0858558497398636
8.791573555055535 -0.9240316152860559
9.772669988280024 -0.8549978363545256
10.68391097828272 -0.7470918337995807
22.7288082110141 -1.1911663640894032
22.696165681603667 -0.7925675701137982
29.85545217736984 -0.5211288562172863
28.86 0.0
4.309343566124046 0.07521987174469204
4.267398831371539 0.14902085091967934
4.354024771529942 0.22818476921923544
4.399257461645825 0.30762604921159303
4.542647823298359 0.39743018692932175
4.58474593764774 0.48187621566388317
5.865947756200214 0.7202478195244214
6.001024496573916 0.8433889918179963
5.8866225099470215 0.932349411639776
5.91869459560337 1.0436255477782515
4.770708111555647 0.9273317175300081
4.264723539199393 0.906494971965431
4.053379469506579 0.9357963860704788
3.7938562897391463 0.9459146117947013
3.4386959415890828 0.9213958005649744
3.2779023831496676 0.939923383335967
3.069738266641344 0.9385131721599849
2.9102329398631697 0.945592002787339
2.704183126214046 0.9311249217474681
2.5935516333691067 0.9439755955788457
2.4366449131576964 0.9353403483132338
2.280872282234297 0.9215322198031438
2.2184166968203813 0.9416620196591501
2.064612734272278 0.9192248133513087
2.0029402093509963 0.9339863584469457
1.8964554376912421 0.9249631197249536
1.7909231136186192 0.9125209044764889
1.7570657097892646 0.934248409943923
1.6705236406362458 0.9259863746705037
1.6541085212282778 0.9549999999999996
1.68004790937614 1.0094746268237063
1.6452133065434664 1.0280433726124174
1.5850873734168511 1.0293677761784013
1.5254291335012768 1.028914942386174
1.4662821592772952 1.026701821068373
1.4076895702124086 1.0227463389889033
1.3496940119799246 1.017067389126962
1.33173817359536 1.0404678933003624
1.235662078716584 1.0006194217692412
1.218010664559175 1.0220322994015976
1.1999882325542075 1.0431338560949064
1.144443031235187 1.030461133792642
1.0897170154125642 1.0161775564931228
1.07181630250459 1.035040971983906
1.0182337649086284 1.0182337649086284
1.0003080534609559 1.0358493124876578
0.9479777204868728 1.0165816452506469
0.8966350125208702 0.9958140661397082
0.8791190988472798 1.0113108374985145
0.8291960164956359 0.9881973316234817
0.7614776731703032 0.9403466133629348
0.7141673113777637 0.9140924741837974
0.7161598775509372 0.9503762569562786
0.6700751876134193 0.92227937358744
0.6538771374401923 0.9338333304894507
0.609520264783114 0.9036509540849955
0.5936565481663797 0.9141509190605122
0.5776119980141934 0.9243724248105044
0.5613915016519592 0.9343123577653024
0.5299999999999999 0.917986928011505
0.5138981974611173 0.9270968895677595
0.5211134346923386 0.9800718280734091
0.4948496447161061 0.971197111365321
0.499743107339548 1.0246252127810502
0.46065390529736244 0.9878754878699485
0.44334294095262244 0.9957645488304349
0.4063603736288447 0.957325047590538
0.4083211868233443 1.0106304014777983
0.3906210650043772 1.01760266488195
0.3557009490586956 0.9772803256173447
0.3385908806354428 0.9833393186232896
0.3368285238686927 1.0366516027617174
0.31868515814778287 1.0423721839997089
0.2866628500496791 0.9997121637758517
0.2691718069066218 1.004562859340631
0.2515987714236544 1.0091075553270363
0.23394909651761975 1.0133448673766448
0.20583257390958165 0.9683661247264677
0.19462517528407583 1.0012597271166173
0.17712114122026884 1.0045039080724523
0.1548701203898286 0.9778114571891864
0.14195656297926654 1.0100734301164018
0.12430673027325044 1.0123970746741484
0.10661903253300675 1.0144123332756387
0.0888988576026113 1.0161185920535805
0.07115160321900797 1.0175153312650207
0.05338267536780262 1.0186021254496653
0.0355974866365511 1.0193786435594776
0.016928834244164876 0.9698522643016995
