# .PCD v0.7 - Point Cloud Data file format
VERSION 0.7
FIELDS x y
SIZE 4 4
TYPE F F
COUNT 1 1
WIDTH 175
HEIGHT 1
VIEWPOINT 0 0 0 1 0 0 0
POINTS 175
DATA ascii
2.0818995585505005e-17 -0.34
0.0068064385105406034 -0.3899406011109926
0.013610803713975422 -0.38976242253744736
0.020411022934748148 -0.3894655185542838
0.02720502476020893 -0.3890499796013315
0.033990739671586674 -0.3885159322557808
0.04076610067438485 -0.3878635391936266
0.047529043928007525 -0.3870929991401156
0.054277509374425534 -0.38620454680921246
0.061009441365690066 -0.38519845283210374
0.06251334396009495 -0.3545307910843949
0.06869123833555617 -0.353385786041159
0.0748482086943934 -0.35213313626417
0.09222993228098471 -0.3994917265619464
0.09918797719586374 -0.3978212477731585
0.1061158084920335 -0.39602958877851796
0.12679318367581963 -0.4421803801316267
0.17834673988086944 -0.5833459011374516
0.17304951684997058 -0.532591649125286
0.19859657421886562 -0.5767663311155832
0.19153128026237456 -0.5262278676401088
0.23652284669989826 -0.6161630814881531
0.22851002198370643 -0.5655821512857403
0.23834598837845697 -0.5615079606059886
0.26844618443002827 -0.6029400020441166
0.25779713966182666 -0.5528477500923564
0.28932495688079113 -0.5932040705574502
0.29963372982810094 -0.5880643059643228
0.309851231438688 -0.5827454112868917
0.3199743493625825 -0.5772490067120012
0.32999999999999996 -0.5715767664977296
0.36567703318613853 -0.6085887834984997
0.37624267760557545 -0.6021141482710624
0.4139256666114206 -0.6373896316385222
0.42498660663776766 -0.6300685551418317
0.435918091626795 -0.6225555536596338
0.4467167917422796 -0.61485291572496
0.4874701687531591 -0.6468947631383072
0.49868579501378335 -0.6382887104214447
0.5097495167503683 -0.6294882287801464
0.520657963846097 -0.6204959989263722
0.5642107649318362 -0.6490502389915839
0.6089088517865611 -0.6762617911844288
0.6206185076568738 -0.665531868473445
0.6321391171176876 -0.6545992183081725
0.6788225099390857 -0.6788225099390855
0.6905662083251051 -0.6668720356406374
0.7386672386353623 -0.6888183436631234
0.7505762737321683 -0.6758219124224467
0.7999921550361384 -0.6954225707299377
0.69710044323827 -0.5849367248147508
0.6916599056967041 -0.5600951480343553
0.7013295707099826 -0.5479387130398358
0.7666900896454011 -0.5777424222259663
0.8575580140374444 -0.6230523674300216
0.909258769160781 -0.6366698443496611
1.1523622258515078 -0.777278135824338
1.2076856178414106 -0.7842802104216388
1.3059940680808961 -0.8160756669191356
1.3371809890952953 -0.8034593968596844
1.437602170282168 -0.83
1.5393306845653365 -0.8532649316335532
1.6422825227176043 -0.8732171067817569
1.7909231136186192 -0.9125209044764889
1.8964554376912424 -0.9249631197249533
2.0935709880546614 -0.9762481846210156
2.2473218258007983 -1.0005721419664684
2.4485429101834915 -1.039344801781468
2.6981050167893517 -1.0901051868403038
5.237386192649302 -2.010444196949135
5.271675602608946 -1.9187330040570019
5.257083280332202 -1.8101589387817911
5.287874230601053 -1.7181344887247074
5.326617490714108 -1.6285103953056437
5.546479985564099 -1.5904275430640846
6.191584546512928 -1.6590300791071577
11.798796031516117 -2.9417702504919583
19.00995996395994 -4.388795070248804
23.15275370936918 -4.9212697216563654
23.323461878716497 -4.533621730146706
23.448272599220672 -4.134563110249611
23.36870613848096 -3.7012394428518625
6.595185337818859 -0.9268928523940356
6.659984677513271 -0.8177432942485393
11.11753283070388 -0.9726580890638641
6.758970419257205 -0.1179782675160367
6.76 0.0
5.759122724100814 0.10052586107875316
5.706521622279037 0.19927612617128082
5.7021746434486165 0.2988383101472097
5.945481739548552 0.4157485835149874
5.887510665722217 0.5150904396386605
5.778172212089667 0.6073103715850674
5.816320448618148 0.714154352354164
5.852484286262681 0.8225130266739866
5.294009505589939 0.8384887326156375
5.032367617892383 0.8873421878780142
4.8688708299004135 0.9464126170676624
4.394408992181411 1.0145292550908316
4.036430221308145 1.0063950856946182
4.066547728676977 1.089628179881613
3.950785570306491 1.1328695324078664
4.026043022604379 1.2308848768827216
3.861289456158323 1.2546089971622862
3.649701701813363 1.256693076204625
3.2513364679192427 1.183389695906814
3.1368302330305977 1.204116310472209
3.161696944072745 1.2774084835482604
3.184946792945443 1.3519297045728875
3.023835464797009 1.3462982885808992
2.9545633857394784 1.37773553327468
2.8401891863053677 1.3852528238534851
2.771030290225824 1.4119104541899905
2.65767225450537 1.4131094039855316
2.5888743331326114 1.4350364759291576
2.5634351952019387 1.4799999999999995
2.3657817499378297 1.4215050867517496
2.383015150199557 1.4890731324953057
2.31473076752937 1.503203736641475
2.288143700251915 1.543372413579261
2.2199020400231673 1.5543921425113354
2.1519852050373602 1.5635087710979787
1.4055984976832352 1.0591944407476053
1.3080978509871584 1.0219980490405927
1.290062296018572 1.0446718491427298
1.2333315534215548 1.0348880515953285
1.1773469451475245 1.0234520852251912
1.1964631690186047 1.077300276237762
1.1774794596068647 1.0980173597006226
1.230071058579093 1.1878658134848854
1.1737972567696688 1.1737972567696688
1.1183999764389854 1.1581370785452287
1.0980173597006226 1.1774794596068645
1.1107568065557047 1.2336204102924742
1.0562550366747168 1.215082424158663
1.0670274320796556 1.2716337755775033
0.9817398100377464 1.2123476998728746
0.9604319015080272 1.2292967756264863
0.9388314361171951 1.245871395673777
0.9169449935762581 1.262066511224918
0.8661004188900794 1.2369195868763778
0.8164216390672903 1.210394855930361
0.7951729911219397 1.224459029200319
0.7736821257804791 1.2381502203883819
0.777707493114182 1.2943226240601895
0.7299999999999999 1.2643970895252805
0.7078220455596522 1.2769447724235177
0.6854284816674003 1.2891034855740333
0.640126604632761 1.2563191991055986
0.6181033169725989 1.2672996052818255
0.6170226621414212 1.323209369073509
0.5734986667368785 1.288099095276067
0.5509308911698759 1.2979118433679409
0.5281952967164362 1.30732923493917
0.48738041138160826 1.2696693800361945
0.46514739492290963 1.2779819642688355
0.3125454282788703 0.9076978325753441
0.13596747752497687 0.4184648671698676
0.14618585236136827 0.4781523779815178
0.13781867790849958 0.48063084796915945
0.11646857029613443 0.4346666218300807
0.12096094779983384 0.48514786313799824
0.10122797445473931 0.4384665291533559
0.08732291014345887 0.4108219923081984
0.08586404791944521 0.4417322325514488
0.0781416799501186 0.44316348885549367
0.07039550926810392 0.444459753267812
0.06958655048003262 0.4951340343707852
0.060934671702573745 0.496273075820661
0.05226423163382684 0.49726094768413664
0.040963199091399324 0.4682115081031204
0.03278554265973896 0.46885510362211735
0.02459789943418356 0.46935588133464967
0.016402763450175505 0.469713688698975
0.008028106961150354 0.45992993977194
