# .PCD v0.7 - Point Cloud Data file format
VERSION 0.7
FIELDS x y
SIZE 4 4
TYPE F F
COUNT 1 1
WIDTH 180
HEIGHT 1
VIEWPOINT 0 0 0 1 0 0 0
POINTS 180
DATA ascii
1.1205518212198283e-16 -1.83
0.03193790378022899 -1.8297212821361961
0.06386607896557699 -1.8288852134449454
0.09577479992458746 -1.8274920486008701
0.13114217063895584 -1.8754204144884694
0.1638527963655973 -1.8728460324124816
0.19651351094318847 -1.8697011632923537
0.22911436560167728 -1.8659867650856852
0.26164542980492306 -1.8617039692341522
0.2940967942756341 -1.856854080318859
0.32645857401382916 -1.851438575662951
0.3682613610767317 -1.8945404640539913
0.40126956327827573 -1.8878248694162447
0.42740700325334374 -1.8513031230919468
0.4596516016393686 -1.8435618799243931
0.4917561856947894 -1.8352590699492297
0.5374928438431483 -1.8744603070797219
0.5701248242093366 -1.864794274127919
0.6025831390311475 -1.8545602067755493
0.6348579011914557 -1.8437612224186677
0.6840402866513376 -1.8793852415718166
0.7167358990906008 -1.8671608529944035
0.7492131868318244 -1.8543677091335746
0.800998813403011 -1.8870349495775025
0.8338101183053906 -1.8727681881673315
0.8874983496554688 -1.903246352776965
0.9205794082570627 -1.8874674972282506
0.9760795744400257 -1.915664027004991
1.0093638599896653 -1.8983373246466928
1.0665811645419416 -1.9241633557066709
1.0749999999999997 -1.8619546181365432
1.158835668547622 -1.9286264265797526
1.192318344524711 -1.9081082163519585
1.225437828783811 -1.8870087778772038
1.2861436779827178 -1.9067864168765956
1.3479046254249583 -1.925007304079131
1.4106846055019355 -1.9416407864998737
1.4443560555649158 -1.9167252241135027
1.5083706145478633 -1.9306263463364688
1.5733009776245934 -1.9428649036424273
1.6391084047006752 -1.9534133299533938
1.705753475375319 -1.9622449085792073
1.7731961068509743 -1.9693337875150947
1.8413955721687463 -1.9746549943717602
1.9103105187622424 -1.9781844509312905
1.9798989873223332 -1.9798989873223327
2.0141514409482233 -1.9450434372851921
2.0989851236470196 -1.9573352933793706
2.1699828903939915 -1.9538613705678656
2.2792229322727713 -1.981298267551332
2.3900586625312115 -2.0054973422220024
2.4635526978185975 -1.9949456396279845
2.537394626613645 -1.9824299505486194
2.6115381178546477 -1.9679351257071978
2.76683812076232 -2.010225562840258
2.9243727981117007 -2.0476678777732342
3.001116012649251 -2.0242783105641036
3.1198545127569774 -2.0260572102559005
3.281946132125369 -2.050787552582503
3.402954183787386 -2.0447011573929146
3.568024663591887 -2.06
3.77835713484219 -2.094377559464176
3.9467757400794032 -2.0985378856529318
4.11645014175026 -2.0974361087967064
4.377127005476944 -2.134867484862807
4.594980480275815 -2.142674587025346
4.860061834658637 -2.163838941163257
5.173237276402715 -2.195908942109718
5.442569226307042 -2.198940703351403
5.760191231487735 -2.211130248694503
6.126795887524122 -2.22997133448336
6.590264471927238 -2.269210036566382
7.056839350910039 -2.2929060982621094
7.669564142823544 -2.3448210718763485
8.286075818988309 -2.3759940071425323
9.002428701014116 -2.412193500355493
9.916422322540685 -2.4724417730286032
10.981150630129601 -2.535198382455357
12.295315341223937 -2.6134499535792357
14.302308062832465 -2.780087062636259
15.53041826500252 -2.7384317618074916
15.526460714155567 -2.4591497904324293
21.607649259941066 -3.0367570629486274
21.558102413649515 -2.647002138759802
18.21964112314677 -1.91496144706341
18.349906338849955 -1.6054087814118618
21.81672577918236 -1.5255740807840177
21.84002792508253 -1.1445873630331833
21.406951514749032 -0.7475472193675718
21.666699554039 -0.37819364749593426
13.57 0.0
13.617925608030049 0.23770177567580175
15.910301966144004 0.5555999875038162
14.550032321374141 0.7625348824596927
12.190232694175052 0.8524241091532124
10.828636368257273 0.9473829236670456
9.766205012516444 1.0264695092883585
8.853511672640593 1.087074543173915
8.14000352505571 1.1440028898917378
7.476800738305193 1.1842089003545477
6.962590813796311 1.2276926161051978
6.449290595251153 1.2536150996238997
6.13298545660096 1.3036063014273513
5.67083377705007 1.309215136281295
5.3560324090435 1.3354088637101664
5.090429104543389 1.363976367690285
4.729407544016529 1.3561357906196356
4.561573685943679 1.394613031527454
4.298775453654094 1.3967568145747622
4.131916175369015 1.4227328349777748
3.8715335976379426 1.4091229905017553
3.7529933145187506 1.440639157172107
3.5418423244451276 1.4309971868487843
3.424278054843078 1.453519797980099
3.307034556666215 1.4723866479343972
3.1448880210171755 1.466485368240227
3.0289359360281924 1.4773107646791914
2.913591334095963 1.484548934148318
2.798943869362798 1.4882248540312744
2.7288134862749147 1.5126060151685716
2.615396719429005 1.5099999999999996
2.5457868830852735 1.5296630824828612
2.433898035968943 1.520868288349298
2.3650510016060955 1.5358820787423766
2.2798533245263646 1.5377804845445537
2.2117105195802775 1.548656378147825
2.143895035093611 1.5576309185750539
2.036520550620596 1.5346283090377235
2.009427421697141 1.5699367620804285
1.9040076055695792 1.5418349580721014
1.8768088856414962 1.5748296437320215
1.8113029925346527 1.5745416695772172
1.7463903398718763 1.5724569249433171
1.6821135137240921 1.5685962281437464
1.654481540778897 1.5977142520556937
1.5909902576697321 1.590990257669732
1.528248415009794 1.582547560745033
1.4662964741343716 1.5724104584812164
1.4051742733536026 1.5606041335025278
1.4105269123295905 1.6226255974789598
1.3177145998574058 1.5703911083939048
1.2901068016521666 1.5931492209867901
1.2313229506513168 1.5760215072134438
1.2036300463040963 1.5972710200945859
1.1755705045849463 1.618033988749895
1.1184740508845397 1.5973464863635343
1.0904261617679563 1.6166232664823315
1.0348141665285515 1.5934740790963053
1.0068466020430893 1.6112913826972093
0.9785723423291031 1.6286178713340131
0.9249999999999998 1.6021469970012117
0.8968977974557237 1.6180464582078822
0.8450488130146032 1.5893056671460686
0.8398824245181618 1.6483620697484807
0.789068064220339 1.6178292833385006
0.781843784220294 1.6766694060178025
0.7117891253826507 1.5987045508745514
0.7033160312806928 1.6569087362143926
0.6555615384778464 1.6225717454918778
0.6271439117042753 1.633765746370103
0.6087958551196905 1.6726528649989167
0.5795113149337386 1.683023064566784
0.5500502499874065 1.6928805990053732
0.5058030491703343 1.6544072278160515
0.4906344933542585 1.7110458187702076
0.44775694802736127 1.671051679480088
0.41852487938742505 1.6786116064574739
0.37791777129769344 1.636941708839195
0.3492916405738355 1.6432879692327935
0.3205591122325954 1.6491336681920754
0.30041134736378927 1.70371741271112
0.26280990126758796 1.6593164121998314
0.2338108096129096 1.6636503554858382
0.20474049692064777 1.6674775347574209
0.17560781828965819 1.670796784218699
0.14642164781606568 1.6736070927941324
0.11719087589013076 1.6759076044365047
0.08792440648814549 1.677697618387684
0.06037612929532687 1.7289461307430356
0.03019266313650024 1.7297365126205568
