# .PCD v0.7 - Point Cloud Data file format
VERSION 0.7
FIELDS x y
SIZE 4 4
TYPE F F
COUNT 1 1
WIDTH 180
HEIGHT 1
VIEWPOINT 0 0 0 1 0 0 0
POINTS 180
DATA ascii
8.694992273946207e-17 -1.42
0.02478241714094271 -1.4197837271220755
0.04955728531755153 -1.419134974367116
0.07431705786498043 -1.4180539393514948
0.10254201640386441 -1.4664191538819416
0.12811894183905745 -1.464406206194866
0.1536568410034506 -1.4619471861913618
0.17914793480556682 -1.4590428429127433
0.20458445841129624 -1.4556940610501083
0.22995866360913944 -1.4519018606748526
0.2552628211703877 -1.4476673969279457
0.28048922320352104 -1.442991959668066
0.3056301855021064 -1.4378769730786942
0.3306780498854818 -1.4323239952342959
0.3677212813114949 -1.4748495039395146
0.3934049485558315 -1.468207255959384
0.40518691305098875 -1.4130546930293288
0.4444049911785599 -1.453583229063814
0.4697058314499201 -1.4456059047686334
0.4948635947748783 -1.4371882349109615
0.52671102072153 -1.4471266360102988
0.5626376807861216 -1.4657212696006068
0.5881323516629822 -1.455678651669856
0.6212624942979452 -1.4636027169893802
0.6467112624905226 -1.4525372776517353
0.693093949254747 -1.4863447707401058
0.7101612577983055 -1.4560463550046505
0.7354646095780659 -1.443430569185156
0.7840175098524377 -1.474522480074408
0.7950877772039928 -1.434376319708609
0.8449999999999998 -1.4635829323957015
0.8961662503434944 -1.4914711032216752
0.9220595197657765 -1.4756036873121812
0.9476719209261472 -1.4592867882250375
1.000955297212637 -1.4839772548735246
1.0267018210683725 -1.4662821592772954
1.0815248642181505 -1.4885912696499033
1.1073396425997688 -1.469489338487019
1.1636001883654943 -1.4893403243167043
1.1894155390841925 -1.468805867153675
1.2470079627918864 -1.4861262196508174
1.3055574676911095 -1.5018720646433164
1.3315699066541278 -1.4788582027000146
1.391276654527497 -1.4919615513031075
1.4171030757363545 -1.4674531926908483
1.4778531726798843 -1.477853172679884
1.575354162741646 -1.521301831305204
1.6016646065459834 -1.4935764085368717
1.6646444090693635 -1.4988525582438423
1.728284938710148 -1.5023751763882618
1.8308462190543575 -1.536262387150829
1.8729217671112999 -1.516662142430108
1.938506453872536 -1.5145272293011192
2.0285341955201237 -1.5286101588062027
2.1115343553186126 -1.5341195084833548
2.178944437808718 -1.5257133206937825
2.288143700251915 -1.543372413579261
2.3566642959266417 -1.5304356883922259
2.4678199598152 -1.5420650589186264
2.580073575113358 -1.5502646054792626
2.736640275958826 -1.58
2.85126024527443 -1.5804793620030586
2.9667039120059946 -1.577424450960593
3.127432899901171 -1.5935066540858092
3.2895862094549515 -1.6044383972480234
3.4530326686096364 -1.6101755772320647
3.6176400122646997 -1.6106771065801686
3.829300190362152 -1.6254414945153786
4.042521605911193 -1.633284747293376
4.3038057661521005 -1.6520762474038346
4.566906137019514 -1.6622178965627503
4.878875850092475 -1.6799316769989285
5.192768578971538 -1.6872327892872128
5.603945869943389 -1.7132981896752373
6.017498216573876 -1.7254898474144142
6.4813622943996485 -1.7366757926379137
7.141376545391334 -1.7805451516135538
9.509851832303896 -2.195522290396121
9.351091063015183 -1.98763576421778
9.8751694654835 -1.9195384934880413
10.104127545905254 -1.7816303028627054
10.084297957476357 -1.5971958880607573
10.011610174977276 -1.4070400507062613
10.1338962082579 -1.2442859961665553
10.104342456941657 -1.0620091867993584
10.121338132612134 -0.885502346316206
10.085372548126823 -0.7052379495531055
10.046213119631012 -0.5264997198040157
10.103841261163058 -0.3528339116622853
10.038470859370168 -0.1752221606303267
10.09 0.0
10.208444967546756 0.17818906972466492
10.203780343864969 0.3563238613325354
10.1960075498442 0.5343501132404573
10.085372548126822 0.7052379495531077
10.22095760242131 0.894217920590974
7.369407244678905 0.7745559128133133
7.2555123684980645 0.8908649002916277
6.050537900010995 0.8503476468659997
5.540931590738723 0.8775973488756952
5.081608005542994 0.8960245967613607
4.721626752383263 0.9177912677611807
4.4114456793094625 0.9376817255880948
4.10209797274584 0.947043938787672
3.842371076052946 0.9580107065746847
3.6801773981613497 0.9861005618406047
3.422091637540415 0.9812689867085168
3.2609992178339513 0.9969875131045323
3.0528914173074426 0.9919445519435811
2.9405627701138752 1.0125169603617572
2.7345055264869935 0.9952786170776962
2.623360998457137 1.007013938222294
2.5126682458759935 1.015183868157122
2.448542910183491 1.0393448017814686
2.292999098682928 1.0209089741202586
2.229517156110159 1.0396409238821205
2.1660936515809923 1.056474463761677
2.05822507087513 1.0487180543983532
1.9778026080039963 1.0516163006403958
1.9154171586352766 1.0617330683394781
1.8099930939094768 1.0449999999999995
1.7914796584674144 1.0764295765620133
1.687615711351288 1.0545393358240778
1.6270209018141224 1.0565997279291528
1.5668810121290289 1.0568745875597114
1.5072397614917448 1.0553806428859251
1.448140419931156 1.052135601603527
1.4694893384870187 1.1073396425997692
1.371138711275696 1.0712509670666455
1.3522339729351296 1.0950174804267168
1.294615108871073 1.0863110603702515
1.237723711565346 1.0759368075444318
1.1816002725090566 1.0639176641105847
1.1628523855744812 1.0843773924993727
1.1077832925215225 1.069773890506856
1.053589103967956 1.0535891039679557
1.0350409719839058 1.0718163025045904
1.0161775564931228 1.089717015412564
0.963548073156756 1.0701285486874474
0.9447250017463305 1.0867817955207917
0.9256141579486168 1.1031039980913282
0.8747553435592739 1.0802328864251896
0.8557694507026651 1.0953349475133434
0.8365228821813468 1.1101033589657372
0.7876322380719141 1.0840827724624296
0.7800639534374225 1.1140467802330292
0.7605023487202157 1.1274910986748568
0.7570482586708878 1.165752089444139
0.7206901993571587 1.1533454107727394
0.7159029241249754 1.191462547975936
0.6699999999999999 1.160474041071148
0.6641891797374819 1.1982289987809722
0.6290918941330935 1.1831497744309623
0.6219669846431792 1.220678938138064
0.5874173366973635 1.204384022040884
0.5578561054977232 1.196326278888378
0.5368923688600565 1.2058800040882331
0.39463843977416646 0.9297099019869648
0.3895908571525487 0.9642712087494588
0.3727026675271122 0.9709236435570898
0.33859994189241216 0.9302956945780492
0.3385908806354428 0.9833393186232896
0.32137767414994534 0.9890987769469597
0.29529542176996393 0.9658678035226659
0.2866628500496791 0.9997121637758517
0.209643426533042 0.7823999192941453
0.20321439230372085 0.815048410071837
0.17771133293165348 0.7697523511803359
0.1642502357460298 0.7727366045797065
0.15073910634747048 0.7754854749236546
0.13718206035687489 0.7779981248796445
0.12671191668258705 0.8000275558820616
0.1196888668256561 0.8516305391177506
0.14868059895427993 1.2109063050024127
0.12752472518653749 1.2133167123492934
0.10633000615214293 1.2153575316719296
0.08719559218015682 1.2469550628247803
0.06541994530367969 1.2482869184432173
0.04362437087812635 1.2492385337738696
0.021291935853485718 1.2198141880907973
