# .PCD v0.7 - Point Cloud Data file format
VERSION 0.7
FIELDS x y
SIZE 4 4
TYPE F F
COUNT 1 1
WIDTH 180
HEIGHT 1
VIEWPOINT 0 0 0 1 0 0 0
POINTS 180
DATA ascii
1.2613862031217737e-16 -2.06
0.037348149775786904 -2.1396740676346773
0.07817487261360243 -2.2386354525227747
0.11984933979634169 -2.286861634587974
0.1702057959356661 -2.434056282633971
0.2187609142966219 -2.500448692210281
0.2728192891285755 -2.595702146911193
0.32417245345769236 -2.6401727633659164
0.39107641369778395 -2.7826532731638127
0.45522429326707203 -2.874173071131851
0.5226810147774605 -2.964271336566746
0.5934159756210546 -3.052860540522235
0.6673965275250079 -3.139853798355516
0.7445879898781936 -3.225164914439129
0.8249536639948668 -3.308708426601148
0.8955138960547218 -3.3421033589601765
0.9950508544993669 -3.4701547223373312
1.0846990245213535 -3.5478906446228615
1.1928055982872972 -3.6710781528992924
1.2566930762046251 -3.6497017018133624
1.371500774735932 -3.7681674093514923
1.4728922726311846 -3.8370155529034995
1.5770937582809903 -3.9034440277261746
1.7035877202132335 -4.0134011610526406
1.7530349316566995 -3.937380922439609
1.8214847081024144 -3.906186562127961
1.9112982000003778 -3.918742041864368
2.002098103851402 -3.9293387716707024
2.0938431700250733 -3.937946264150814
2.1864913873109804 -3.9445348791986747
4.804999999999999 -8.322504130368456
4.846508284903611 -8.065944299606876
4.854060460376157 -7.768120560792862
4.879965753734643 -7.514488288790999
4.8985298344037425 -7.262369135582165
4.594347255171879 -6.561407874754824
4.531824295174967 -6.237521026630845
4.429358570399075 -5.877957353948076
4.438919237097997 -5.681557533504465
4.443001960811852 -5.486650487886214
4.441662382933987 -5.293367101952138
4.467761987425354 -5.139572241317077
4.489866368667939 -4.986501778953316
4.473909242009991 -4.797680282621757
4.487493073165123 -4.646935110187686
4.497199128346443 -4.497199128346442
4.539034140136889 -4.383294317596272
4.541706487055049 -4.2352098159881155
4.614929366214619 -4.1553010654885085
4.79995293021683 -4.172535424379626
4.948647102548598 -4.1524079585750435
5.214649401376275 -4.2227398239444085
5.287552156701104 -4.131088499435166
5.438707823422064 -4.098360307665448
5.54985658141214 -4.032206830726366
5.660340626036933 -3.963413175185728
5.77010150498309 -3.8919826081563977
5.879080681297422 -3.817919635455339
6.02962196367219 -3.767725968698087
6.094459507992019 -3.6619207126104842
6.20074189109658 -3.58
6.306008088475044 -3.49547736197609
6.454346903798756 -3.4318371239648617
6.513257691816969 -3.318670553096087
6.570184478446911 -3.2044930830281557
6.670425312589744 -3.110470406411548
6.769371841131673 -3.0139185251916794
6.8669662067552055 -2.9148542185299813
6.963150747796574 -2.8132955165534983
6.964509981669125 -2.6734249036079403
7.057091582102172 -2.5685712763757724
7.100844502750869 -2.445016839973247
7.189987263191361 -2.3361684774746023
7.229663955080548 -2.2103300877038894
7.267138421293691 -2.083818409976513
7.302399246745356 -1.9566719809750563
7.675039194843132 -1.913602194193371
9.850881354978728 -2.2742551594164735
11.209571504409412 -2.382667976771523
12.770969656654108 -2.4824250298488484
15.028166310966293 -2.649871191197357
18.47964885253503 -2.92688884090272
25.360765240471615 -3.564223115587275
27.900472322637565 -3.4257472431186944
27.956010478802163 -2.9382951024537367
28.003032963358965 -2.4499479286366683
27.99164725029067 -1.9573666532601524
28.07147622195107 -1.4711637299891531
23.145891553762258 -0.8082723436299236
18.107241759282246 -0.31606308057920485
13.36 0.0
10.608384045609311 0.18517003229957832
7.555394652264363 0.26384019507090767
7.49970780600685 0.3930430313845087
7.491706017451279 0.5238711178183817
7.431612447764421 0.6501818408975308
7.419133339447319 0.7797823359766959
7.354766983662197 0.9030518346321426
7.337886389375036 1.0312726781140846
7.269386186780214 1.1513576626960993
7.14970428686863 1.2606857698619143
7.1266133518300405 1.3852733064337157
7.052444201290738 1.4990432907960451
6.976489663862284 1.610649549102074
6.898802613822335 1.7200646777136384
6.819436333600821 1.8272624584237975
6.738444488527615 1.9322178642771637
6.655881101502727 2.0349070648702474
6.571800527599511 2.1353074311308866
6.438981499831347 2.217119131853237
6.35232211651274 2.312056168881521
6.311003683121084 2.42256733892623
6.175044471414804 2.4948799121499747
6.08453708132063 2.5827327593141005
5.992858202135461 2.66819237857725
5.854748304256758 2.730113970844918
5.76126983677766 2.8099590509179873
5.577700841419182 2.8419805283695627
5.3065150330821504 2.821524092343205
5.1690024691938286 2.865224855655852
5.074908866176811 2.9299999999999993
5.065858747149483 3.043875022718421
5.09676905790012 3.184814778041561
5.082343641749269 3.3005125521910648
5.065419568311305 3.416668640206263
5.0869341950346385 3.5619096697399972
5.104897234505918 3.7089249419655053
5.119253619403146 3.857634298404631
5.12995000597976 4.007956204370036
5.136934805230578 4.159807784839424
5.140158213328342 4.313104860996679
5.2150431993393545 4.533367890324405
5.209445226596532 4.690605550575597
5.163357133431344 4.814908422041239
5.2224069504586055 5.043219769532321
5.310371926710972 5.310371926710971
4.90428809544052 5.078538990390878
4.814908422041239 5.163357133431343
2.750126792134908 3.05432523271209
2.630796706251934 3.0263854166933157
2.5454389343586965 3.033535994751153
2.4606427290048645 3.0386407092967564
2.376453294757041 3.0417215089219463
2.2929152382093037 3.0428012932801862
2.2394618112343228 3.08235474856855
2.214005044315037 3.1619268909555087
2.0746056718764705 3.0757293941792048
1.9661469164042482 3.0276007502829803
1.860016617458549 2.976648817509055
1.7562798354432851 2.9229404953942026
1.6549999999999996 2.866544086526492
1.5319983999784252 2.7637982745604908
1.4365829821248255 2.7018196341483165
1.366511404216036 2.681929637806987
1.2756600371562148 2.615490674730576
1.1875573154913655 2.5467248815729864
1.081919470581629 2.430030917329318
1.0198082453570043 2.4025176675108693
0.9215322198031439 2.280872282234297
0.8636667584041734 2.2499288278582563
0.7729655239160115 2.1237053229761527
0.7357840290731738 2.136871980854456
0.6674767078498866 2.054282075197532
0.5876671264927004 1.9221725594857013
0.5402492174013184 1.884072924039105
0.4891679952437646 1.8255998116863388
0.44513628790338855 1.7853441363478335
0.3914148345583253 1.6954039127263094
0.3513707574820131 1.6530694452401316
0.3033863026487064 1.5607872216817857
0.26741819360707253 1.5166039396388005
0.2252656296579325 1.4222712104569983
0.20040926538249396 1.4259860189878613
0.16330492016289766 1.3300118431993715
0.13484171761527325 1.2829332450250726
0.1080731210070961 1.2352814256337645
0.08301020375550928 1.1871012198091908
0.05966299011695586 1.138437669620214
0.034550501735476066 0.9893969187489048
0.016405262051046372 0.9398568334470078
