# .PCD v0.7 - Point Cloud Data file format
VERSION 0.7
FIELDS x y
SIZE 4 4
TYPE F F
COUNT 1 1
WIDTH 180
HEIGHT 1
VIEWPOINT 0 0 0 1 0 0 0
POINTS 180
DATA ascii
9.919639073093561e-17 -1.62
0.029145518750263607 -1.6697456509111734
0.056537184658051756 -1.6190131397709353
0.08478424911356923 -1.6177798463024098
0.1164933111526895 -1.6659319639339063
0.14119230325120619 -1.613835410908628
0.16933611049359862 -1.611125470496603
0.2035218034865963 -1.6575520732410076
0.23241907860330932 -1.6537476747984223
0.2612455566171856 -1.6494395287938801
0.2813100478204273 -1.595388559879777
0.31865102227883 -1.6393173963575989
0.34721252366565825 -1.6335064932254553
0.37566826075425475 -1.6271980081913429
0.4161056604314284 -1.6689086491947138
0.44516875757633567 -1.6613924212171975
0.4878781197960885 -1.7014332018108245
0.4941081809814251 -1.6161550375775298
0.546960080043657 -1.6833700338424218
0.5599772256663096 -1.6262919500308248
0.5951150493866637 -1.6350651601674804
0.6235602322088226 -1.624429942105131
0.6518154725436872 -1.61329990694621
0.6994087199958 -1.6477036876798683
0.7280585911056827 -1.6352463691802555
0.777617601602887 -1.667606328147436
0.8066029100919025 -1.6537810451904673
0.8353425195207662 -1.639452004506597
0.8873012536653336 -1.6687709505033717
0.9162901822655771 -1.6530312464934578
0.9449999999999997 -1.6367880131525891
0.9991738653255052 -1.6629045633620976
1.0280433726124174 -1.6452133065434662
1.083831679679904 -1.6689544302113937
1.1407535230803236 -1.691236648012285
1.1987747519736862 -1.7120277725639927
1.1990819146766452 -1.650394668524893
1.2577933983877807 -1.669148215998842
1.317515557196909 -1.686343012718385
1.3782116563991438 -1.7019496555907663
1.4077048652135211 -1.6776373304305618
1.4695722249387364 -1.6905494596990094
1.5323090885617854 -1.701801650343233
1.5958761625462465 -1.7113676617888585
1.6602335053970034 -1.7192221228093763
1.725340546095176 -1.7253405460951758
1.7911561028432417 -1.7296993424429032
1.8210707170317348 -1.6981759165556214
1.9619023392603212 -1.7665048007873856
1.9924332917881182 -1.7319958365349393
2.060659551990051 -1.7290986700567905
2.1449228536212397 -1.736924279297551
2.214310217634889 -1.7300087456650994
2.3240293342376224 -1.7512817173724606
2.3946903033498446 -1.7398443467857205
2.506605255524315 -1.755143895234201
2.6612106079016837 -1.7950092201410972
2.734066051502082 -1.7755232541489878
2.891844007893413 -1.8070246910352288
3.008657225464414 -1.8077836429342895
3.126351707661823 -1.805
3.288570098844128 -1.8228841721262272
3.4523250880784047 -1.8356338104928331
3.6174864882047735 -1.8432014289425598
3.8288626372344514 -1.8674610853214697
3.9968173408316265 -1.8637465342764843
5.992858202135462 -2.668192378577249
5.946461353302765 -2.5241230900407077
5.9896077005014465 -2.419958593466791
5.984250533847064 -2.297138556585375
5.8824758061197855 -2.141046097218686
5.871670354471758 -2.021778239178943
6.334036398525723 -2.0580531825371495
6.512435388108272 -1.991051309161837
6.5461921493399515 -1.877090393113764
6.529658585714102 -1.7496167448930398
6.559199109625736 -1.635392014253753
6.538023134708928 -1.5094215746473332
6.5144630208871455 -1.3846918608462777
6.5376370417614424 -1.2707879092077887
6.5588196350613055 -1.1564968632617563
6.578004348363618 -1.0418535371679376
6.595185337818859 -0.9268928523940356
6.56073006234914 -0.8055563599080245
6.573789728384287 -0.6909331421991889
6.584846954386438 -0.5760994595620199
6.593898372217439 -0.4610902914486674
6.451146794514547 -0.3380902773294176
6.565997733515459 -0.2292896933354317
6.61899174193531 -0.11553493061481701
6.71 0.0
6.708978034499386 0.11710564719417253
6.705912449298133 0.23417562287378182
6.700804178203191 0.3511742663901536
6.643776574730429 0.46457811513587516
6.584846954386438 0.5760994595620214
6.524063633615873 0.6857067190358076
6.7096119850953375 0.8238367614187966
6.743725548130094 0.9477688175380454
6.726157599452888 1.0653187069239722
4.047559864880175 0.7136940102110838
3.7890809281079827 0.7365227221534631
3.7756497388324894 0.8025391265565512
3.761068450071008 0.8683110697673192
3.5512823581701474 0.8854341378947843
3.245510776331269 0.8696319915444702
2.797271535180508 0.8021047054274675
2.6394011264579778 0.8069459050347533
2.482257507530351 0.8065343553186126
2.420527553534251 0.8334544754103211
2.264659216094039 0.8242685454148618
2.1565707852085363 0.8278299634496438
2.095435511320939 0.8466109011199613
2.034315726129893 0.8635157939612953
1.9275809156258876 0.8582143168899387
1.8941832749065983 0.8832721670380617
1.788600152135342 0.8723585821102644
1.7285526569254337 0.8807415694947208
1.6246235708604255 0.8638276755260395
1.6093002611364882 0.8920497012532602
1.5068842025849234 0.8699999999999997
1.4914711032216752 0.8961662503434944
1.43320128250436 0.8955635565541162
1.3754197314304952 0.8932080174246445
1.3596216189902683 0.9170763616920247
1.2614941482050472 0.8833077119806113
1.2054353216186717 0.875800025915785
1.1899669099704662 0.8967043844965522
1.1741360228740156 0.9173355982352308
1.1190901844980383 0.9062213631117656
1.0648017759353794 0.8934747774642896
1.049046316509653 0.9119220502968048
1.0329713074135778 0.930091542838813
0.9800139601696887 0.9138778024837481
0.9279483424368598 0.8961092978921066
0.9121677477306463 0.9121677477306462
0.8613763793691565 0.8919813524199276
0.8456779664774982 0.9068785900077714
0.8297219518849843 0.9214995835919687
0.813513195948229 0.9358398794762373
0.764917255526982 0.9115928873115838
0.7803572849017983 0.9636609922066439
0.7018540818712505 0.8983322591116629
0.6860691263933348 0.9104444814539139
0.6700751876134193 0.92227937358744
0.6538771374401923 0.9338333304894507
0.609520264783114 0.9036509540849955
0.5936565481663797 0.9141509190605122
0.5776119980141934 0.9243724248105044
0.5613915016519592 0.9343123577653024
0.5449999999999999 0.9439676901250382
0.5284424860685075 0.9533354807819414
0.48825042529732626 0.918265496573284
0.47215011972912874 0.9266467851559026
0.45590599266064036 0.9347458081511337
0.4395229922103274 0.942560098518116
0.4026692766450424 0.9044100030661747
0.4063603736288447 0.957325047590538
0.3895908571525487 0.9642712087494588
0.35478427004984714 0.9242446222322297
0.33859994189241216 0.9302956945780492
0.32231247291258497 0.9360633898433237
0.29047597471245057 0.8939931253174442
0.2748294024393723 0.8989264706052533
0.2728809822588292 0.9516490789789357
0.2432899023963697 0.907970276711724
0.239502676643671 0.9605927690132365
0.21145399108323323 0.915907860898121
0.21206992463411442 0.9977105527484819
0.1793604556539522 0.9227295524408041
0.1632292870069144 0.9257192878314756
0.151741431089024 0.9580576903772836
0.14195656297926654 1.0100734301164018
0.11821326310299306 0.9627697670920823
0.10139260936962406 0.964686238507225
0.0845410704652284 0.9663088571489932
0.0676637795318017 0.9676371287520295
0.05076587755565543 0.9686706487119366
0.03280552690035101 0.93942737739795
0.016928834244164876 0.9698522643016995
