# .PCD v0.7 - Point Cloud Data file format
VERSION 0.7
FIELDS x y
SIZE 4 4
TYPE F F
COUNT 1 1
WIDTH 180
HEIGHT 1
VIEWPOINT 0 0 0 1 0 0 0
POINTS 180
DATA ascii
3.91886975727153e-17 -0.64
0.011693112312980012 -0.6698979557547822
0.025127637625800777 -0.719561395453749
0.03768188849491966 -0.7190132650232931
0.04673683740856406 -0.6683679136740822
0.05839434764093095 -0.6674504477214696
0.07212463965468088 -0.6862201078041085
0.08408984694955177 -0.6848568446325121
0.0890707846144419 -0.633771563994605
0.10793978087775932 -0.681504955010645
0.11113483370683547 -0.6302769619278131
0.12211775704098875 -0.628241397406505
0.143459066664254 -0.6749218445063258
0.15521622749726693 -0.6723153447018123
0.1669261079637707 -0.6695040511304375
0.1785851411207393 -0.6664888201394571
0.1901897755137294 -0.66327057019744
0.20173647625868835 -0.6598502816144944
0.21322172611871373 -0.6562289962436559
0.240920434298296 -0.6996837459434944
0.23599389889471148 -0.6483879083422767
0.24727388518625723 -0.6441704942830692
0.2584785494569794 -0.6397568596510832
0.26960447865759885 -0.6351483488821839
0.3009851158760923 -0.6760236386555245
0.3127375136881176 -0.6706677624071209
0.3243946486239173 -0.6651075942613836
0.35865249479424205 -0.7038951541088107
0.3708825346008538 -0.6975285983585523
0.3829995999946063 -0.6909495686401227
0.3949999999999999 -0.6841600689897066
0.40688007917894287 -0.6771621675546687
0.4186362187442319 -0.6699579959635765
0.4302648376618714 -0.662549748676885
0.4697220389154274 -0.6963915609462349
0.4531253847173264 -0.6471301149883035
0.4937396119256774 -0.6795742752749558
0.5356153706053229 -0.7107856039420907
0.517155639273553 -0.6619290330296463
0.5286291284818634 -0.6528026076238556
0.5720809726210201 -0.6817795543758904
0.5838925358015515 -0.6716915263982671
0.6289827699773267 -0.6985561359487505
0.6410784584587487 -0.6874724795220201
0.6877117867544073 -0.7121464023352646
0.6646803743153546 -0.6646803743153545
0.6761794123183321 -0.6529788682314573
0.7606078496839375 -0.7092782944649985
0.7728706184964902 -0.6958958306132125
0.7848979634316829 -0.6823013901501276
0.8349884429996861 -0.7006384945583278
0.8470890979880984 -0.6859592262443228
0.898332259111663 -0.7018540818712503
0.9104444814539138 -0.686069126393335
0.9627302233061874 -0.699464450228043
0.9747909327039002 -0.6825559592577448
1.0694584685960038 -0.7213588454772634
1.081885032649597 -0.7025843551693848
1.0939820440417896 -0.6835958508608343
1.191462547975936 -0.715902924124975
1.2037753112603695 -0.695
1.2594523782807299 -0.6981258531547253
1.3597392930027477 -0.7229862066902718
1.416700373459505 -0.7218448945858794
1.4740222359306339 -0.7189286807340869
1.576975549443771 -0.7353557754288169
1.6078400054509778 -0.7158564918134083
3.369047763635932 -1.4300759302707418
3.53257048589946 -1.4272511209146244
6.637756832395104 -2.5479961212670856
7.010106951062876 -2.551470269209489
7.3845000754306644 -2.5426872863103935
7.903279650412727 -2.567931223255813
8.32941442443804 -2.546557548135037
8.324526286825842 -2.3870195013752125
8.364917655663332 -2.241372930587829
8.354246203236329 -2.082947521113138
8.389326257800874 -1.9368285779006764
3.92237187894256 -0.8337258801792151
3.9363250056251324 -0.7651440714599449
3.8505983142777334 -0.6789643746776978
3.8618614117269887 -0.6116587583073028
3.7729213419053833 -0.5302495146578492
3.7816008377534374 -0.4643221983736117
3.7394023265847074 -0.3930270218863767
3.646072595015789 -0.31899001845642855
3.501449816411983 -0.24484522284187935
3.6050526204640114 -0.18893280203702748
3.517855711107217 -0.12284622839280358
3.509465409998933 -0.061257946594865206
3.66 0.0
3.6094501795145724 0.06300318723859356
3.557831344187981 0.12424220826090362
3.7548470506771974 0.19678319547346906
3.850597234002921 0.26925998865232403
3.9449310044433124 0.34513674128072686
3.7394023265847074 0.39302702188637756
3.7816008377534374 0.4643221983736117
3.6243811315941477 0.5093735495138394
3.614939326578204 0.572550142047245
3.6536367636752916 0.6442347391443116
3.6418368505908334 0.7079013728469814
3.6289275987224188 0.7713523729338874
3.6149129403532227 0.8345684116157395
3.6483119307977465 0.909626327454751
3.486992232903536 0.9343367528201004
3.4701547223373312 0.9950508544993667
3.4809493117054493 1.0642330051907616
3.480866849640262 1.1310021994123076
3.5078739154734655 1.2078578530360513
3.48625962311572 1.268894731738231
3.4635833823046185 1.329545092813064
3.5325704858994595 1.4272511209146252
5.532234169249166 2.348294082220536
5.490408200432031 2.44448722488556
5.401594410738434 2.5188048399745684
2.3009127585258673 1.1222301357800386
2.084955266600781 1.0623377693905394
2.0219499876469427 1.0750898787796903
1.9154171586352766 1.0617330683394781
1.853294364098699 1.0699999999999996
1.7914796584674144 1.0764295765620133
1.7300181161591093 1.081035299035738
1.6270209018141224 1.0565997279291528
1.5668810121290289 1.0568745875597114
1.5481973637061943 1.0840594647034774
1.4885912696499033 1.0815248642181505
1.429557562984654 1.0772488914421667
1.371138711275696 1.0712509670666455
1.3522339729351296 1.0950174804267168
1.294615108871073 1.0863110603702515
1.237723711565346 1.0759368075444318
1.1816002725090566 1.0639176641105847
1.1628523855744812 1.0843773924993727
1.1077832925215225 1.069773890506856
1.0889444430272832 1.0889444430272832
1.0697738905068557 1.107783292521523
0.9820776384899977 1.0531493303316055
0.963548073156756 1.0701285486874474
0.9447250017463305 1.0867817955207917
0.8934747774642898 1.0648017759353794
0.8747553435592739 1.0802328864251896
0.8557694507026651 1.0953349475133434
0.8064321310237446 1.0701715834633727
0.7876322380719141 1.0840827724624296
0.7399136028928492 1.0567061371327995
0.7493184906508007 1.110910347223756
0.7025843551693851 1.081885032649597
0.6835958508608343 1.0939820440417896
0.66439911663397 1.105745817905725
0.6199999999999999 1.073871500692704
0.601163929105458 1.0845284368528507
0.5821447378545044 1.0948550151450696
0.5402486946900608 1.0602977637841577
0.5216616646790019 1.0695649150960087
0.5029157314714323 1.0785062665736134
0.4840166052602024 1.087119094594695
0.4649700429022357 1.095400775608404
0.4457818461649355 1.103348786934477
0.42645785995890717 1.11096070753167
0.3899029633912624 1.0712495876959354
0.37114769608115844 1.077891176183221
0.35227937358744005 1.084204428576475
0.3566934797617386 1.1666918022749033
0.322495706305889 1.124676184247833
0.3028182827699495 1.1301332167582097
0.2830486178516112 1.1352459997429158
0.25194518086512896 1.0912944725594635
0.23286109371589037 1.0955253128218625
0.21370607482173032 1.0994224454613837
0.20316836787030834 1.1522250710242834
0.17520660084505865 1.1062109414665544
0.1558738730752731 1.109100236990559
0.1364936646137652 1.1116516898382807
0.11707187885977213 1.1138645228124662
0.09761443187737713 1.115738061862755
0.07812725059342052 1.1172717362910032
0.058616270992097 1.1184650789251227
0.03908743630680121 1.1193177262613874
0.019546695209757384 1.1198294185751583
