# .PCD v0.7 - Point Cloud Data file format
VERSION 0.7
FIELDS x y
SIZE 4 4
TYPE F F
COUNT 1 1
WIDTH 176
HEIGHT 1
VIEWPOINT 0 0 0 1 0 0 0
POINTS 176
DATA ascii
1.6165337748745064e-16 -2.64
0.04694697331629288 -2.6895902999706927
0.09736959579997802 -2.7883004073832773
0.14863411572996085 -2.8361078787029896
0.20159620912052256 -2.882960105250892
0.2579809985330681 -2.9487363063515666
0.30940425127225424 -2.9437848102900888
0.34854632213872183 -2.838681993694181
0.39107641369778395 -2.7826532731638127
0.4474025700150604 -2.824788654102094
0.5053161970107676 -2.8657905612655257
0.5743350760834002 -2.9546978221774682
0.6362097739023439 -2.9931316582454452
0.7108453317266139 -3.0790094047213437
0.9096263274547504 -3.6483119307977465
1.2319786546879987 -4.597806933135965
2.0735040322558973 -6.38158922434048
2.1845623164075216 -6.3444296422714155
2.260753147382671 -6.211368223394854
2.35089374901717 -6.124287597821643
2.419958593466793 -5.989607700501446
2.524123090040708 -5.946461353302765
2.6275187142696703 -5.901503656371201
2.7089830577578833 -5.809432914904926
2.788040493578533 -5.7163301344627016
2.8646800533565404 -5.622251167628601
2.962365561178971 -5.571399310939828
3.0349082227420703 -5.475119366692617
3.104999999999999 -5.378017757501365
1.9622950654073068 -3.2658074156750474
3.2113107412532216 -5.139171462707941
3.327744503941816 -5.124277170146541
3.388708995032726 -5.023967689683552
3.475873204287339 -4.96406138839129
3.561978628892387 -4.902642985912181
2.4433689939973156 -3.2424601707920084
3.761691614239773 -4.814745704537071
4.441662382933987 -5.293367101952138
4.50056493887488 -5.1773077203282165
2.850496383088736 -3.165796956533699
4.66486878282749 -5.002459319075125
4.279095562027424 -4.431133170086091
4.0729350596345135 -4.0729350596345135
4.143397249950631 -4.001232213843824
4.212597321326422 -3.928310553959991
3.1657969565336996 -2.8504963830887355
3.290533769771286 -2.860417366398612
4.450718214521262 -3.734596012278793
4.55407533413785 -3.6878174915520474
7.06057635231623 -5.516326818917898
4.041095680839302 -3.045184017149364
4.336331089849718 -3.1505289522876563
3.4486301064566556 -2.414756797037904
3.9876707239897504 -2.6897178656942917
5.41781186892744 -3.518368166197074
7.7681205607928625 -4.854060460376157
6.308751333167547 -3.790680231337998
4.295486002770815 -2.48
3.988265864555644 -2.210731868323297
5.483104551653937 -2.915418404900382
4.107540076508377 -2.092896203799311
5.042234599738327 -2.459262133486724
4.903125127868276 -2.2863647960171836
4.759571834317951 -2.1190979104249186
4.5196788304514826 -1.9184898408823337
4.413395147737908 -1.7831273846597406
4.3038057661521005 -1.6520762474038346
4.1440444576658555 -1.5083088320661993
3.366046129133568 -1.159022629867478
3.290655546381231 -1.069198800537318
3.2609992178339513 -0.9969875131045323
3.0856500439620036 -0.8847959121725671
2.598340472717594 -0.6962232313257807
2.561580717368631 -0.6386738043831225
2.572336971033021 -0.5938707834678033
2.4551504778418516 -0.521858343952576
2.4148028712812533 -0.46939012862630036
2.3733866847594216 -0.4184921081773022
2.3803289008342823 -0.3770070607469564
2.6638211049148244 -0.37437564158257597
2.570694532751024 -0.31564159941933184
2.5758117090038275 -0.2707287198632223
1.5341398350612883 -0.13421984383139343
1.5362486374001294 -0.10742496956595278
1.5378894835220438 -0.08059737261413362
1.5390618736094075 -0.05374522492185157
1.5597624044439704 -0.027225754042162317
1.69 0.0
1.4097852501705117 0.024607893076569784
1.4591106074478797 0.050953265185651485
1.4380265300465862 0.07536377698983922
1.4364922323741467 0.10044932219154057
1.4544442592139484 0.1272473844115811
2.2277290456249323 0.2341437577195441
2.2729306872586275 0.27908079639778766
2.3172272808552745 0.32566505624655306
2.3605751340223793 0.37387837144615177
2.452171305000398 0.43238396239065663
2.4933330459570664 0.48465484825642396
2.699687378025303 0.5738362666570159
3.127727907960605 0.7220928844438069
6.316625178056737 1.5749115403538376
6.23988083782738 1.671971031362285
6.161687470964624 1.7668354507869644
6.034283010126754 1.8448654568004685
5.953613792007661 1.9344463847871707
5.9189462832517235 2.0380566469018007
5.788506544041195 2.1068440828861195
3.5102624036294783 1.347463490290329
5.665093351403071 2.288846285771223
5.578259411921787 2.3678306386449997
5.490408200432031 2.44448722488556
4.540602013053616 2.117317491320904
4.278259660384034 2.0866466587160093
4.330291707555468 2.2063938287341975
4.997483375581527 2.657209045368143
4.99407852776595 2.7682629316065848
5.118210136366033 2.954999999999999
5.794450952746279 3.4816573863919666
5.8600123444409045 3.661742115851446
7.801243557742943 5.262005221659727
7.7082207367594116 5.397354266063346
9.797195801880614 7.11807940526185
9.63154425117035 7.257889179213705
11.158232271071181 8.717766490611321
13.296967400528773 10.767671890862715
20.001420409836516 16.78318448891554
19.667731660605437 17.096898295492615
19.40351139321476 17.47100013202979
14.853793679885353 13.851386692869344
1.0862030985113629 1.048934139393086
1.053589103967956 1.0535891039679557
1.0350409719839058 1.0718163025045904
1.0161775564931228 1.089717015412564
0.9970046034746989 1.1072857899613173
1.351481599720445 1.5547017352589103
2.416881412421388 2.880327106127357
0.8873417513802707 1.095775805654329
0.8557694507026651 1.0953349475133434
0.8365228821813468 1.1101033589657372
0.8464107633011613 1.1649844718999243
0.8259500683455061 1.1795789437761484
0.9003005745879024 1.3347504918136173
1.0130286051279507 1.5599272563784885
0.9273587124081086 1.4840841682737453
0.9373692963362988 1.5600444872778443
0.8749999999999998 1.5155444566227678
0.8435687392286266 1.5218382904225485
0.8168805192474498 1.536328811574533
0.8126429945337889 1.5949016782971785
0.7846843527524483 1.608841342875509
0.756486688515852 1.6222909387956035
0.7280585911056827 1.6352463691802555
0.6994087199958 1.6477036876798683
0.6705458022144828 1.6596590996745493
0.6593970271633524 1.7177879847548512
0.6293170637192307 1.7290344222460714
0.6153238119240259 1.7870301078827087
0.5840421193686507 1.7974968157978402
0.5672011071621089 1.8552312265682889
0.5347364702849784 1.8648476901203386
0.5021089474988907 1.8738961030007923
0.4814245722433387 1.930888495289233
0.44765259814429165 1.938996428922618
0.42413984926822884 1.9954211054969637
0.38925035056815166 2.0025194542332345
0.36292469132388416 2.058248203795515
0.3347697551860942 2.1136530488735947
0.2978304360545396 2.1191736671069608
0.2608003948870156 2.124048764512429
0.22891733455616156 2.1780029508565186
0.19522886375475426 2.23147612372551
0.1597423248740473 2.2844216750949973
0.12246613760848836 2.3367931113257026
0.08166482228385252 2.338574535224684
0.04171125138510727 2.3896359914237753
