# .PCD v0.7 - Point Cloud Data file format
VERSION 0.7
FIELDS x y
SIZE 4 4
TYPE F F
COUNT 1 1
WIDTH 180
HEIGHT 1
VIEWPOINT 0 0 0 1 0 0 0
POINTS 180
DATA ascii
9.613477373306724e-17 -1.57
0.02740027810653525 -1.5697608813955344
0.056537184658051756 -1.6190131397709353
0.08216745130142203 -1.567848369564681
0.10951766377827697 -1.566175558907924
0.14119230325120619 -1.613835410908628
0.16933611049359862 -1.611125470496603
0.19742833631633894 -1.6079247656589417
0.22546042355530607 -1.604234271361344
0.2534238333651741 -1.6000551117641233
0.2813100478204273 -1.595388559879777
0.3091105725100028 -1.5902360371852158
0.34721252366565825 -1.6335064932254553
0.37566826075425475 -1.6271980081913429
0.404009565651445 -1.620393862880914
0.43222780532120963 -1.613096129902744
0.4603143842143886 -1.6053070322169924
0.4882607468869704 -1.597028942458269
0.5160583806061623 -1.5882643822129063
0.5599772256663096 -1.6262919500308248
0.5780140422203803 -1.588080529128185
0.6056418347315576 -1.577750920780271
0.6518154725436872 -1.61329990694621
0.6603356071468726 -1.5556532023346241
0.7077217589518926 -1.5895690962981253
0.735355775428817 -1.576975549443771
0.7759169298166672 -1.5908654619495255
0.7899434695468115 -1.55035135208776
0.8403540973867447 -1.5804761912174792
0.8920497012532603 -1.6093002611364882
0.9199999999999998 -1.5934867429633672
0.9476700578344999 -1.5771878332918865
1.0015474094007573 -1.6028109017356449
1.029367776178401 -1.5850873734168511
1.0568745875597116 -1.5668810121290286
1.1127382865210294 -1.589154965920644
1.1696926520620214 -1.6099438188061455
1.1976118960725761 -1.5892846649941128
1.2251663358980602 -1.5681413996773765
1.2838135977416683 -1.5853777613722206
1.3434261042448672 -1.601032886118664
1.4039663220396856 -1.6150785016767322
1.4319394976079567 -1.5903299265216237
1.493576408536872 -1.601664606545983
1.556034749828154 -1.6113211527585787
1.5839191898578666 -1.5839191898578664
1.179717272555388 -1.1392397275527555
1.1262847004935228 -1.0502774744962478
1.1444430312351874 -1.0304611337926415
1.1245172745319303 -0.9775279531958558
1.218010664559175 -1.0220322994015976
1.391091271007978 -1.126483499979209
2.04094785184141 -1.5945632210934546
2.084438681223434 -1.570737210426846
2.2167065645873563 -1.6105315912813765
2.2608596422376173 -1.583070964328887
2.329595578879667 -1.5713320587527986
2.4405313527211843 -1.5848995918937285
2.5526247694308424 -1.5950569853419467
2.708648670218675 -1.6275203167157708
2.736640275958826 -1.58
2.8949912306314 -1.6047198430153757
3.010851291648941 -1.6008980290998878
3.127432899901171 -1.5935066540858092
3.2895862094549515 -1.6044383972480234
2.4560941028693213 -1.1452954893172953
2.4300309173293186 -1.0819194705816284
2.4485429101834915 -1.039344801781468
2.4663090531476546 -0.9964535384863257
4.16376870217752 -1.5983210549720395
2.4995823712905163 -0.9097735812462789
2.420527553534251 -0.8334544754103211
2.482257507530351 -0.8065343553186126
2.5437706508616746 -0.7777087345624797
6.161687470964624 -1.7668354507869644
6.191584546512928 -1.6590300791071577
6.365139964370536 -1.5870076351338196
6.927771160623023 -1.5994019963848793
7.3947958615475695 -1.571812382582261
7.3720201476919565 -1.4329755552778518
7.395906225121682 -1.304097814278647
7.516308271928999 -1.1904662789561569
9.863069964666042 -1.3861640855622517
10.87830582198889 -1.335688003720416
11.397220920920413 -1.1978961890473079
13.358970901410308 -1.1687585102460947
10.035494345613833 -0.7017501258658994
10.046213119631012 -0.5264997198040157
10.103841261163058 -0.3528339116622853
10.158452582788936 -0.17731644940280072
12.06 0.0
13.607927131078485 0.2375272516114289
13.601709155729893 0.47498215012103884
13.59134796800975 0.7122923644664665
5.696090726983596 0.39830946507895604
5.6384619911992795 0.49330150395174593
5.827898306858081 0.6125367947484501
5.865947756200214 0.7202478195244214
13.626088625884009 1.9150218692105
12.8992097281725 2.0430341134254153
7.937550489278397 1.3996043119954589
7.519264225209106 1.4615969045843336
7.639332761731021 1.6237903052867009
7.561111702733426 1.745620181708393
7.626524408529333 1.9015060994133892
7.109214081487543 1.904908171954554
6.642318318933784 1.904654128695464
6.225543961319361 1.903339797745016
6.1913779210814495 2.0117006333809075
6.202601855931518 2.135727093238948
6.211368223394854 2.2607531473826707
6.217645640471364 2.3867305439717
6.221403664143143 2.5136102418207704
6.176587566665874 2.6218058721630277
4.25712183261452 1.8953927567332296
4.087448119535291 1.9060083604505542
3.918742041864368 1.9112982000003784
3.7065871406236104 1.8886004789165147
3.6289146066501896 1.929528123050012
3.4197630549150375 1.895605615163178
3.3428580586079333 1.9299999999999993
3.1800906856048363 1.9107912579163013
3.061453627124698 1.9130085438818696
2.9437336934884377 1.9116830129027453
2.8270181224126922 1.9068478008352467
2.7113932665965623 1.8985380043219633
2.6373954016623284 1.9161799224734624
2.523688211749445 1.9017354731604734
2.411312906036569 1.8839241144965144
2.3392093439854826 1.89425437706001
2.2674915516321748 1.9026513246721566
2.196204878448267 1.909131774362376
2.110531304355799 1.9003309220591575
2.040476827517486 1.9027754245743709
2.006958042944836 1.9380968535806027
1.902117241391813 1.9021172413918126
1.8338980980117525 1.8990570728940395
1.7663757525618708 1.8942060871936515
1.6995917401515002 1.8875878567125812
1.6663899336358885 1.916962333765841
1.6005411481194833 1.9074506633662554
1.5670077737140953 1.9350934440278578
1.4714309260283236 1.8833457011200654
1.4383379053333951 1.9087388690130302
1.404806752979011 1.9335506165561245
1.3421688610614475 1.916815783636241
1.2805517489480103 1.8984960411510456
1.219991438433661 1.8786220721977498
1.1870191518823792 1.8996277353903943
1.1279333840530188 1.8771963885376257
1.0949999999999998 1.8965956342879207
1.0617330683394783 1.9154171586352766
1.004669144361806 1.8895078487181038
0.9488401444556529 1.8622036355536888
0.9381142541286254 1.9234192590802175
0.8832721670380618 1.8941832749065983
0.8500795840284228 1.9093100064730355
0.7970915021181184 1.8778299010429784
0.7641974505684609 1.8914550633162461
0.7310706170724124 1.9045040700542917
0.6806200852180809 1.8699883153639576
0.6478806273697415 1.8815819654426404
0.6303946685248928 1.9401552932421133
0.5818196923982457 1.9030464643664406
0.5347364702849784 1.8648476901203386
0.5021089474988907 1.8738961030007923
0.46932847746335526 1.882373708975433
0.4431535770574143 1.9195090276269133
0.4033486801864529 1.897606345423583
0.37589372089179346 1.933805551391898
0.333404501120506 1.8908308857834395
0.3081758961292549 1.9457460309724215
0.2741710088913285 1.9508280954208936
0.23398913933788318 1.905688611151338
0.20069464947389506 1.9094820391070846
0.1673390260755036 1.9126938203361514
0.1304446059015146 1.8654447739858713
0.10048503598645199 1.9173687067287817
0.06700703366880208 1.9188303878766637
0.03350862035958408 1.9197075747002712
