# .PCD v0.7 - Point Cloud Data file format
VERSION 0.7
FIELDS x y
SIZE 4 4
TYPE F F
COUNT 1 1
WIDTH 176
HEIGHT 1
VIEWPOINT 0 0 0 1 0 0 0
POINTS 176
DATA ascii
2.3825503477411757e-15 -38.91
0.40768821437494485 -23.356442158853298
0.5395462190206667 -15.450582185715222
0.7620115228972641 -14.540046026026596
0.8447508970413592 -12.08050064864647
0.8985757077283555 -10.270767337325896
0.9418014540415576 -8.960642277268143
0.970079973504974 -7.900667367064923
0.9686447826820557 -6.892265758441329
1.0183883674119032 -6.429851097274347
1.0349431388949053 -5.86945420795276
1.0513575645247624 -5.408765780796628
1.0624287400787509 -4.998334239749747
1.0820145713939913 -4.686720011616981
1.091067749154501 -4.376033725504744
1.0896281798816123 -4.066547728676977
1.0915239290353167 -3.8065963159157428
1.0993176097574902 -3.595705882421013
1.100100499974813 -3.3857611980107465
1.1101874066989046 -3.2242183427936704
1.1149856672416802 -3.063397943762061
1.1145243230858841 -2.9034351264062974
1.1275658461818956 -2.7908234022460294
1.1174910274793228 -2.6326438808739794
1.1225931348892089 -2.5213854630935777
1.1030336631432256 -2.365463324165656
1.1222301357800384 -2.3009127585258673
1.1168166293592852 -2.191876049503385
1.131426466313997 -2.1279036987900137
1.1586949923887457 -2.090341100063156
1.1199999999999999 -1.9398969044771428
1.1279333840530188 -1.8771963885376257
1.1605231886707188 -1.8572253305825728
1.165527534932158 -1.7947550154032073
1.1407535230803236 -1.691236648012285
1.1414171083385816 -1.6301125681350936
1.140303389447398 -1.569492969087398
1.1675211449149736 -1.549352889491748
1.1636001883654943 -1.4893403243167043
1.1579495195317009 -1.4299485690808265
1.1505898213389054 -1.3712195531829707
1.1415427104434825 -1.3131946695876233
1.1642872550644132 -1.293071996330666
1.1525772285056226 -1.2359877557363979
1.1392397275527555 -1.1797172725553877
1.159655121145938 -1.1596551211459378
1.1437502825384553 -1.1045068090298056
1.1262847004935228 -1.0502774744962478
1.1444430312351874 -1.0304611337926415
1.162252753543069 -1.0103309046453812
1.1414062202472772 -0.9577535384329435
1.1968047806437352 -0.9691534022167496
1.213536560554352 -0.9481186720015137
1.2698304609751956 -0.9568858868117568
1.3267878707749137 -0.9639678137596559
1.3434093526339466 -0.9406653556157155
1.2932986131858653 -0.872340929414365
1.3083260859948616 -0.8496368946234422
1.365357434811846 -0.8531700154154599
1.4228977191655063 -0.8549632043506896
1.4809034404713899 -0.855
1.7579856113501853 -0.9744673366951374
1.8188720412893897 -0.9671114193389351
1.9245740922468748 -0.9806194794374211
2.0312745446361173 -0.9907187917433148
2.0935709880546614 -0.9762481846210156
2.2016445529186686 -0.9802353098126785
2.1263662114751374 -0.9025889068102222
2.076891834229604 -0.8391187692516427
2.2499288278582563 -0.8636667584041738
2.6875208954476975 -0.9781776099114127
2.8932868413339095 -0.9962385526388995
3.0528914173074426 -0.9919445519435811
3.2131839800357995 -0.9823689278683954
4.094974824697238 -1.174215135780416
4.1148440199914305 -1.1025691321367381
4.162568665724025 -1.037844932122574
4.394408992181411 -1.0145292550908305
4.851612099639675 -1.0312419864560867
5.261521703279479 -1.0227362152182806
5.86945420795276 -1.0349431388949049
6.627388765393374 -1.049675260419949
7.634966809997508 -1.0730246084021042
8.84358621112418 -1.0858558497398636
10.40269902555214 -1.0933677257796546
12.811063817459846 -1.1208228517348826
21.53045276930861 -1.1283632165978705
21.89665301998839 -0.7646479727517973
19.457036147743374 -0.3396238292695376
2.31 0.0
2.269654268005008 0.03961696261263363
2.358562351765066 0.0823628122179024
2.356765702020794 0.12351285673334761
2.4540075636391676 0.17160092541054847
2.4008292224011067 0.21004534002185649
2.3967977678375387 0.2519135964750452
2.5409181482017846 0.3119855191171774
2.4855728525413414 0.34932448340976413
2.5284821519235527 0.400472230502991
2.570348235361863 0.45322174371068824
2.562046948798403 0.49801147793278205
3.955942463028055 0.9133012806360922
3.6968267171115468 0.9217224222347344
3.631881106846896 0.9731596095854785
3.3259654679465833 0.9537052511268169
2.373251624754285 0.8171760676874632
2.245865363678321 0.8174281425483484
2.203249806533396 0.8457483609269087
2.215969412414622 0.89530975826403
2.2184166968203813 0.9416620196591501
2.110290007154408 0.9395616455050988
2.0935709880546614 0.9762481846210156
1.9863348423211589 0.9688002344038614
1.9245740922468748 0.9806194794374211
1.8188720412893895 0.9671114193389354
1.7579856113501853 0.9744673366951374
1.6541085212282778 0.9549999999999996
1.5943311793059287 0.957970819332701
1.49256464923531 0.9326579050504407
1.3502596143921326 0.8768688463741938
1.2932986131858653 0.872340929414365
1.2369195868763774 0.8661004188900798
1.1811648117874232 0.8581664683470107
1.205939620171412 0.9087406849595933
1.1898962379461502 0.9296488277417441
1.1734904018000263 0.9502737904852543
1.1950293312656057 1.0027486711110014
1.29055338218094 1.1218609395737673
1.3450921341140833 1.2111263975095337
1.3237501999306989 1.2344170317131222
1.3020050386129582 1.2573316505307852
1.3152186130069785 1.3152186130069783
1.3267974875766846 1.3739390186468239
1.2344170317131222 1.3237501999306986
1.2312003157002993 1.3673864788784054
1.1874668424728183 1.3660243402032173
1.1634455735326366 1.3865404420453502
1.2020019469051895 1.4843487863828144
1.1759134178720074 1.5051005393888388
1.1193759430628096 1.485462048687965
1.0638913066493765 1.464320759818655
1.0955309934304978 1.5645804045919744
1.0121391552820518 1.5005580063246255
0.9857966533771992 1.5179937279812175
0.9326579050504407 1.4925646492353097
0.9064670118416955 1.5086144492357174
0.8549999999999998 1.48090344047139
0.8290244506212364 1.4955996992083667
0.802796372363873 1.509840383788765
0.7536242295676477 1.4790708301526907
0.7276961036698681 1.4919981168566172
0.7015463144895611 1.504470926480839
0.6548459953520387 1.4708081868045872
0.609540560443267 1.435987571385807
0.6031166153996187 1.4927660058525276
0.5769723987679333 1.503064486660495
0.5506524307543268 1.5129051194653125
0.524164728676022 1.5222849067149002
0.49751736094366544 1.5312009912351974
0.45609985936746905 1.4918354193023355
0.4299942750745187 1.4995682456637776
0.4037577103599327 1.5068442890109464
0.36530206235549817 1.4651465466767546
0.3284285393420431 1.4225802945864434
0.31394665313481646 1.4770028771080466
0.2881215830185828 1.4822570470059726
0.26220874827706464 1.4870597070484344
0.2362160422107487 1.491409394298658
0.20319272740169525 1.4457913803626927
0.18158532167366975 1.4788937659455696
0.1505209871054213 1.4321115293303135
0.12986205669401063 1.4843301001567009
0.10044932219154065 1.4364922323741467
0.075363776989839 1.4380265300465862
0.050255275251601554 1.439122790907498
0.025305989334060894 1.4497791579767674
