# .PCD v0.7 - Point Cloud Data file format
VERSION 0.7
FIELDS x y
SIZE 4 4
TYPE F F
COUNT 1 1
WIDTH 180
HEIGHT 1
VIEWPOINT 0 0 0 1 0 0 0
POINTS 180
DATA ascii
1.4022205850237194e-16 -2.29
0.03996601074137944 -2.289651221908136
0.07817487261360243 -2.2386354525227747
0.1119989463599001 -2.1370672043747883
0.14927885381242847 -2.134787067556024
0.1821555023426055 -2.082046919011748
0.21323806506601306 -2.0288246665512775
0.24861346054650088 -2.024794149348297
0.27695447091053027 -1.970633456795725
0.2956611389260364 -1.8667309637248104
0.336877464673845 -1.9105270408436834
0.36062900126166986 -1.8552753767160848
0.3825575111046774 -1.7997915853502024
0.41390993999271186 -1.792840919204833
0.43304019312340514 -1.7368293500340337
0.4503451384783861 -1.6807109377429788
0.47960899912157856 -1.672595350932675
0.4941081809814251 -1.6161550375775298
0.5222387204936612 -1.6072855125388095
0.5339317733097371 -1.5506504639828793
0.5609130350540968 -1.5410958980888896
0.5698050397770277 -1.4843928781305509
0.5956244835313004 -1.474222328761192
0.6212624942979452 -1.4636027169893802
0.6263744303367326 -1.4068600047696052
0.6508321230806772 -1.395713992036441
0.6444055857799439 -1.3212272480597753
0.6764458446119248 -1.3275997210406683
0.6760390504116828 -1.2714445337168547
0.6981258531547254 -1.2594523782807299
0.7199999999999999 -1.2470765814495917
0.7159029241249754 -1.191462547975936
0.7100918140724947 -1.1363844488496109
0.7570482586708875 -1.165752089444139
0.8052377809978755 -1.1938141044792598
0.8259500683455063 -1.1795789437761481
0.875800025915785 -1.2054353216186717
0.8967043844965519 -1.1899669099704664
0.948118672001514 -1.2135365605543518
0.9691534022167496 -1.1968047806437352
1.0220322994015976 -1.218010664559175
1.0431338560949066 -1.1999882325542075
1.1642872550644132 -1.293071996330666
1.357176736524372 -1.455393866222149
1.4171030757363545 -1.4674531926908483
1.4778531726798843 -1.477853172679884
1.5393871727247137 -1.4865689127822541
1.6016646065459834 -1.4935764085368717
1.6646444090693635 -1.4988525582438423
1.728284938710148 -1.5023751763882618
1.7925439968984085 -1.5041230066665017
1.8729217671112999 -1.516662142430108
1.938506453872536 -1.5145272293011192
2.04450690572107 -1.5406464592692437
2.1519852050373602 -1.5635087710979787
2.2199020400231677 -1.5543921425113347
2.329595578879667 -1.5713320587527986
2.4824648811184553 -1.6121315436444799
2.595027174238664 -1.621552948553607
2.708648670218675 -1.6275203167157708
2.866544086526492 -1.655
3.0261841867023094 -1.6774412860523262
3.2315881898636727 -1.7182659197963603
3.4392851833671 -1.7524033289946506
3.6041641256596595 -1.7578682986242002
3.8608711727761285 -1.8003537950153794
3.9830581953217408 -1.7733717638104889
4.381603102433616 -1.8598801716089426
4.737909496836284 -1.91423969235531
5.097349128674722 -1.9566890045173397
5.553583388844718 -2.0213390470547026
6.060774069591621 -2.0868918700703745
6.714459005043784 -2.1816599802871286
7.51655538186946 -2.298041599120711
8.372589371622759 -2.4008013691660626
9.47573235589576 -2.5390148324557282
11.07107423680912 -2.7603288287922076
13.163739575248528 -3.0390887441856145
17.176271868885625 -3.650929290759855
17.82634965140958 -3.4650913560380547
17.834868407051086 -3.1447684975481085
17.9364202652077 -2.8408498851305928
17.983268128346918 -2.527383513434788
17.975010806224343 -2.20705380906722
17.911339335582603 -1.8825576234504378
18.14070545225069 -1.5871060754348536
18.115763152718408 -1.2667775631933131
15.289018177092526 -0.8012634900794712
12.752226952763662 -0.44531757792391297
10.958330738914048 -0.19127837455262756
9.56 0.0
8.808658194327808 0.15375570071246797
7.7053032763172284 0.26907511957628283
7.0003930386295625 0.36687505326303677
6.444263764678464 0.4506268203870501
5.887510665722217 0.5150904396386605
5.529541738247599 0.5811782557681541
5.171165450051288 0.6349392791408182
4.812702814084032 0.6763812706659179
4.553243250143585 0.7211628838354643
4.293761803133227 0.7571060546278164
4.083569083142282 0.7937654207664266
3.82455711886918 0.8129347110974393
3.6149129403532227 0.8345684116157395
3.502767571856347 0.8733380431148009
3.342103358960176 0.8955138960547223
3.1337131287589193 0.898577779963417
2.9741077910450406 0.9092760016877112
2.8626801140484117 0.9301411530685916
2.751459054994012 0.947403329470326
2.6405362644084023 0.9610766027451293
2.530002955807417 0.9711771432677638
2.5126682458759935 1.015183868157122
2.402517667510869 1.0198082453570048
2.292999098682928 1.0209089741202586
2.229517156110159 1.0396409238821205
2.148117770655009 1.0477070408258955
2.084955266600781 1.0623377693905394
2.0219499876469427 1.0750898787796903
1.9591481439922467 1.085973549351795
1.8965956342879207 1.0949999999999995
1.8343380235025202 1.1021814803075163
1.7724205209669304 1.107531262247398
1.710887958608665 1.1110636314306555
1.6497847693845331 1.112793877906786
1.384366954848396 0.9693441774332682
1.3672387204936611 0.9933570763742796
1.2698304609751956 0.9568858868117571
1.252937098234688 0.9789017457677968
1.235662078716584 1.0006194217692412
1.1797084424032263 0.9898929189172706
1.1245172745319303 0.9775279531958556
1.1072857899613173 0.9970046034746989
1.0897170154125642 1.0161775564931228
1.057429506497817 1.0211478045747262
1.0182337649086284 1.0182337649086284
1.0003080534609559 1.0358493124876578
0.9820776384899977 1.0531493303316055
0.9970046034746989 1.1072857899613173
0.9775279531958558 1.1245172745319303
0.9898929189172708 1.1797084424032263
1.0006194217692415 1.2356620787165837
1.0096848195340797 1.2923376359150238
0.9568858868117566 1.2698304609751958
0.9639678137596559 1.3267878707749137
0.9406653556157153 1.3434093526339466
0.9450360068655621 1.4010734976180206
0.9476719209261473 1.4592867882250375
0.9220595197657765 1.4756036873121812
0.9219181540889971 1.534329468256781
0.9199999999999998 1.5934867429633672
0.8920497012532603 1.6093002611364882
0.8638276755260388 1.6246235708604257
0.8580420445077436 1.6840023307160152
0.8504400247708098 1.743660449820384
0.8198794277769569 1.758237106851101
0.8094059197208427 1.8179554607087756
0.7970915021181184 1.8778299010429784
0.7829277802392564 1.9378142560445855
0.7669074120269423 1.997862112704012
0.7319231067169313 2.010942208481844
0.7129942582611728 2.070685680562504
0.6767472176811349 2.082813770686386
0.6549126185789299 2.1421226533572
0.644991412611778 2.249352368495666
0.6185775177950251 2.3085627248308733
0.5781933304832058 2.3190067857996315
0.5488805725990309 2.377462958075974
0.5177001101362205 2.4355875258271764
0.4941952980252513 2.5424144051294495
0.4410663712740028 2.5014116926510086
0.4129869877062097 2.607497219171164
0.3743756415825755 2.6638211049148244
0.14136843834997107 1.1513535359039335
0.11916244812512518 1.1337549607198314
0.09935754673233027 1.1356619558245897
0.079522380068303 1.1372230172961995
0.05966299011695586 1.138437669620214
0.03978542624085123 1.139305542801769
0.021990032110977054 1.259808095897053
