# .PCD v0.7 - Point Cloud Data file format
VERSION 0.7
FIELDS x y
SIZE 4 4
TYPE F F
COUNT 1 1
WIDTH 180
HEIGHT 1
VIEWPOINT 0 0 0 1 0 0 0
POINTS 180
DATA ascii
5.939536975864663e-17 -0.97
0.01692883424416509 -0.9698522643016995
0.033852511801426045 -0.9694091022085228
0.05076587755565565 -0.9686706487119366
0.0676637795318017 -0.9676371287520295
0.08628418532018156 -0.9862327511108281
0.09825675547159424 -0.9348505816461768
0.11455718280083864 -0.9329933825428426
0.1377813699504648 -0.9803653880541546
0.1548701203898286 -0.9778114571891864
0.16322928700691458 -0.9257192878314755
0.18890090542277946 -0.9718109116131873
0.20583257390958185 -0.9683661247264675
0.22270154380042648 -0.9646263641373829
0.239502676643671 -0.9605927690132365
0.25623085465149553 -0.9562665680261776
0.2728809822588292 -0.9516490789789357
0.2894479876755094 -0.9467417084034051
0.32137767414994534 -0.9890987769469597
0.338590880635443 -0.9833393186232895
0.3557009490586956 -0.9772803256173447
0.39062106500437743 -1.01760266488195
0.3895908571525487 -0.9642712087494588
0.4063603736288447 -0.957325047590538
0.4230061087988324 -0.9500872759483048
0.46065390529736244 -0.9878754878699485
0.47782455000009444 -0.979685510466092
0.4948496447161061 -0.971197111365321
0.5351975815759156 -1.0065602558591766
0.5284424860685075 -0.9533354807819414
0.5949999999999999 -1.030570230503482
0.5871434053974618 -0.9771707228004078
0.6306039244375138 -1.009177234426147
0.6481204516678822 -0.9980179758550545
0.6654395551301888 -0.9865547113404994
0.6825559592577448 -0.9747909327039002
0.7288537128426666 -1.0031810730249349
0.7462506287085399 -0.9903080324586431
0.8249863769363823 -1.0559344098330075
0.8432893240067821 -1.041375588352341
0.8613353969799628 -1.0264995537794306
0.8791190988472798 -1.0113108374985145
0.9300915428388129 -1.032971307413578
0.947977720486873 -1.0165816452506466
1.000308053460956 -1.0358493124876575
1.053589103967956 -1.0535891039679557
1.107783292521523 -1.069773890506856
1.1262847004935228 -1.0502774744962478
1.181600272509057 -1.0639176641105845
1.1999882325542075 -1.0431338560949066
1.2563128867151239 -1.0541716798859244
1.3522339729351294 -1.095017480426717
1.3711387112756963 -1.0712509670666452
1.469489338487019 -1.1073396425997688
1.5290421193686505 -1.1109141268327742
1.589154965920644 -1.1127382865210294
1.6083328907567809 -1.0848342327332487
1.7108879586086652 -1.111063631430655
1.7724205209669304 -1.107531262247398
2.022914829656985 -1.2154898567877275
2.130422493309719 -1.23
2.282757435633823 -1.2653531088429397
2.3486405970047457 -1.2487943570104696
2.4591780067598954 -1.253013779281149
2.615490674730576 -1.2756600371562152
2.7098602832395837 -1.2636286026046912
2.658417281739969 -1.1836036313505784
2.9087953369097117 -1.2347103660261047
3.0689785586160663 -1.2399478242066684
4.770595979400701 -1.8312602221764849
4.8018292922159915 -1.7477229323941674
4.737048063752577 -1.631096453830355
4.8123459724534765 -1.5636259915372337
4.791086827374808 -1.4647822406609108
4.815921096650977 -1.3809431526431655
4.839288389708232 -1.2966834159636285
4.812666802328942 -1.1999326021743515
4.832875521334767 -1.1157572295455698
4.851612099639675 -1.0312419864560867
4.8688708299004135 -0.9464126170676624
5.770973432651539 -1.017578321128212
7.269386186780214 -1.1513576626960993
9.714529754354805 -1.3652881204182417
10.580541976496495 -1.2991272006988717
10.601603404625793 -1.114273418433185
10.619435481658007 -0.929080217690035
10.634032775769727 -0.7436040101123744
10.645390840483758 -0.557901293549782
10.703475757374516 -0.3737736096837859
10.658376430367131 -0.18604265262144248
10.71 0.0
10.75836119988277 0.18778789326517084
10.75344529872547 0.37551858451891096
9.79655573594237 0.5134157307432797
9.187564902892982 0.642457123183395
6.933515098718549 0.6066039695237017
6.971598486531596 0.7327445275062517
5.965202371364345 0.7324347538649361
4.614649200335718 0.6485466504739048
4.207552330935287 0.6664108210713835
3.899838701928344 0.6876467835610443
3.6418368505908334 0.7079013728469814
3.6289275987224188 0.7713523729338874
5.320060553727385 1.2282327567175033
5.39484423809454 1.3450857395341531
5.370547594167219 1.4390338907700162
5.5368673686047165 1.5876711695059147
5.460500156548933 1.6694424339668266
4.241712062676385 1.3782157949122653
4.075185060833055 1.4031987457103452
3.956105933508674 1.4399048034010655
2.9034351264062974 1.114524323085884
2.7908234022460294 1.1275658461818954
2.678669123546601 1.137027583903787
2.6127400088578385 1.1632667991967889
2.365463324165656 1.1030336631432254
2.3458524608408258 1.1441486931194924
2.370077354341059 1.2076147293071946
2.3486405970047457 1.24879435701047
2.3702194063477626 1.3138340708675733
2.3902301144450506 1.3799999999999994
2.3486384039237875 1.4112043252535489
2.383015150199557 1.4890731324953057
2.3985978243239123 1.5576676401429776
2.4124993361351716 1.6272513490998732
2.383732448880966 1.6691074297815447
2.3542394536310973 1.7104550841710968
2.3639611097399866 1.7813724685300636
2.3719123683562326 1.8531410407302313
2.4169239401311797 1.957186416164994
2.3823982181000214 1.9990694661251374
2.422617752515098 2.105949483059528
2.3854948897824353 2.147909246411935
2.384213067278496 2.2233146538037447
2.4169817291378672 2.334052124742231
2.4112341238461275 2.411234123846127
2.40351796178813 2.4889157091717333
2.4279141618224944 2.603619177764247
2.4155614889554786 2.6827528199733925
2.433978997554782 2.799972542626484
2.4490207929057153 2.9186293282833065
2.3977106898998803 2.9609261131510594
0.6095048605724018 0.7801306460706546
0.5657061217629252 0.7507173794444553
0.5525181371549247 0.7604759747124505
0.5391618501699832 0.7700029216316524
0.4976816840889646 0.7378434395739871
0.5119606929141255 0.7883503338686985
0.49812410837921256 0.7971652103870404
0.4583838866699483 0.7628788976248799
0.4449999999999999 0.7707626093681504
0.43148056201924 0.7784115393540623
0.41782969087944266 0.785823357644445
0.4040515447681967 0.7929958065276475
0.3901503206422787 0.7999267012062586
0.3549993398621875 0.7612985411107859
0.3416587801836723 0.7673781844197846
0.3282141479309899 0.7732240769000499
0.31466953846936624 0.7788344378361013
0.30102907761805214 0.7842075582576494
0.2872969203935618 0.789341801460163
0.2734772497440115 0.7942356035034261
0.25957427527495586 0.7988874736879289
0.2455922319670987 0.8032959950089499
0.23153537888627929 0.8074598245881879
0.2174079978861176 0.8113776940828172
0.20321439230372085 0.815048410071837
0.18895888564884672 0.8184708544195975
0.17464582028691775 0.8216439846163968
0.1602795561162977 0.8245668340960377
0.14586446924022137 0.8272385125302548
0.13140495063379398 0.8296582060999157
0.12108059783525676 0.8615332198051662
0.10602632876247832 0.8635151519279501
0.08780390914482909 0.8353983921093495
0.07321082390803284 0.8368035463970662
0.05859543794506538 0.8379538022182523
0.043962203244072746 0.838848809193842
0.03036256213117594 0.8694700195066133
0.014660021407318036 0.8398720639313686
