# .PCD v0.7 - Point Cloud Data file format
VERSION 0.7
FIELDS x y
SIZE 4 4
TYPE F F
COUNT 1 1
WIDTH 180
HEIGHT 1
VIEWPOINT 0 0 0 1 0 0 0
POINTS 180
DATA ascii
7.776507174585693e-17 -1.27
0.02216455617535017 -1.269806572848617
0.04606733564730143 -1.3191958916652065
0.06646666442853884 -1.2682595091383089
0.08859072165503933 -1.2669063438299768
0.11068779328952584 -1.2651672665765168
0.13275114834991988 -1.2630428071177071
0.1547740661245373 -1.260533612584479
0.17674983821928314 -1.2576404473017944
0.19867177060109328 -1.2543641925558249
0.22053318563700164 -1.2507058463255043
0.23278697435938478 -1.19758516380615
0.2640478473385545 -1.2422474529319332
0.28568783901670874 -1.2374499822772487
0.30724080741157794 -1.2322755723705154
0.3105828541230249 -1.159110991546882
0.330764826980399 -1.1535140351259827
0.3566934797617389 -1.166691802274903
0.3615498834186885 -1.1127361240653295
0.38091474071487336 -1.1062567334512006
0.4001635676910325 -1.0994403663195127
0.4192905009680014 -1.092289099001726
0.4457818461649355 -1.103348786934477
0.4649700429022357 -1.095400775608404
0.49621870455247646 -1.114525458323973
0.5155942793236533 -1.1056955001847129
0.5216616646790021 -1.0695649150960085
0.5629482196770381 -1.1048480899935762
0.661954903528106 -1.2449561059310867
3.228832070840605 -5.824967249548376
3.1799999999999993 -5.5079215680690305
3.121130733954929 -5.194433842254799
3.1583188148299013 -5.054366653092298
3.164352793437307 -4.8726759997629125
3.1091125432973525 -4.609448903406031
3.074369698841607 -4.390654957388996
2.9154148513706666 -4.0127242920997395
2.954911763676557 -3.921300354332208
2.9613316963164165 -3.790331724848332
2.9326330222922423 -3.6215001803894844
2.8989721196862925 -3.4548604384665906
2.893220317848137 -3.3282692487824246
2.850496383088736 -3.165796956533699
2.734813423850619 -2.932728343492873
2.7161142284946793 -2.812618619324126
2.6940768363207463 -2.694076836320746
2.668750659256396 -2.5771825544028797
2.640186862845206 -2.4620140798256194
2.608438337425654 -2.348648428319592
2.5735596685596525 -2.2371612888576298
2.612211551035715 -2.191905749031099
2.572353132422574 -2.083050494374962
2.5689150567579135 -2.0070564095616454
2.5236882117494455 -1.9017354731604725
2.5160428525060863 -1.8280121346295914
2.506605255524315 -1.755143895234201
2.5202742205673268 -1.6999464265510702
2.4824648811184553 -1.6121315436444799
2.4932614026998925 -1.5579626368456223
2.4772134990291046 -1.4884600364900562
2.4595121467478056 -1.42
2.4401889829189143 -1.3526188404872803
2.41927640443346 -1.286352082033341
2.441357876276128 -1.2439339692863582
2.417755984544759 -1.179218384862618
2.392652557776756 -1.1157122109954465
2.4117600081764667 -1.0737847377201124
2.3841075704418206 -1.0119936227872188
2.3550469905996403 -0.9515007472764162
2.3712942833028925 -0.9102545918450629
2.386819256796207 -0.8687311640471986
2.3543412532422994 -0.8106647045983203
2.3205778997601745 -0.7540014662748716
2.3333836045498066 -0.7133869595234775
2.297415453292582 -0.658773280402628
2.3085627248308733 -0.6185775177950245
2.3190067857996315 -0.5781933304832056
2.2800259515974504 -0.5263854671646437
2.3377727657537957 -0.496908941054445
2.2970076092675336 -0.44649304918111493
2.304450142048567 -0.406336735740617
2.2618062999628656 -0.3582349249421287
2.3370326422301058 -0.32844851826575433
2.4416635330376524 -0.29979858477666266
2.595702146911193 -0.27281928912857534
2.799307101637805 -0.24490763712091917
3.002667791282071 -0.20996698596981678
3.2555322832999103 -0.1706152173519971
3.457892261486071 -0.12075225859065351
3.759427333788031 -0.06562104820418609
4.21 0.0
4.659290259428784 0.08132821399774127
5.156856667418534 0.18008140298490527
5.901900550399532 0.3093055013957985
6.843289384782394 0.4785294098847003
7.879900061905707 0.6894019251339771
7.866668192363042 0.82682014444714
7.851040059482858 0.9639865063347163
7.833020423745822 1.1008592285941174
7.81261477410754 1.2373966184682261
7.740588938675955 1.3648746764620727
7.7155896618986395 1.4997587036596427
7.688240141767712 1.634185889827589
7.707267212451211 1.7793628398599728
7.675039194843132 1.9136021941933727
7.64047328594653 2.0472586467609406
7.651643099669019 2.1940733523033127
7.612185857465763 2.327278769592984
7.570409869709422 2.4597752752245814
6.675361143731177 2.2985111704675263
6.5402606406699215 2.380460197546655
6.030929555171923 2.3150569540626402
5.943248507773107 2.4012282637959967
5.946461353302764 2.5241230900407094
4.02873546820387 1.7937085959642796
3.951501951479794 1.8426156211894495
3.918742041864368 1.9112982000003784
3.840238119251865 1.9566990538774465
3.0108512916489407 1.6008980290998882
2.8949912306314 1.6047198430153757
2.866544086526492 1.6549999999999996
2.8372237653239916 1.7047760279522797
2.7222343886621276 1.7010408381885878
2.021196068748472 1.3125800743862157
1.7907211567188903 1.207856671496813
1.646495609020873 1.1528886370656029
1.585673308974897 1.1520590944932474
1.4854620486879646 1.1193759430628103
1.465700001708503 1.1451303441057246
1.367776892164269 1.1076038882477137
1.2716337755775033 1.0670274320796553
1.215082424158663 1.0562550366747165
1.1593059277447348 1.043843745919819
1.140911774525906 1.0639174416974977
1.0862030985113629 1.048934139393086
0.997020561473032 0.9970205614730319
0.9447353838242362 0.9783021284605659
0.927517769684998 0.994641034202072
0.8765610943301044 0.9735197213753863
0.8594373279775646 0.9886695500918313
0.8420517686893667 1.0035182204858613
0.7929436927227951 0.9792039114357833
0.7757334589103296 0.9928935495444696
0.6981054268563758 0.9264171916548597
0.6818308926592688 0.938459713474939
0.6653486661672132 0.9502163713752305
0.6486637680260663 0.9616835841638484
0.6045493288666802 0.9309243304194207
0.6147063465105176 0.9837357915414541
1.0506776728165108 1.7486212934323089
0.9949999999999998 1.723390553531033
0.9647711442902108 1.7404932172073975
0.9342484099439223 1.7570657097892648
0.8807415694947209 1.7285526569254337
0.8504400247708098 1.743660449820384
0.8198794277769569 1.758237106851101
0.7890690875670527 1.7722781878266454
0.7384818328447272 1.7397541730251123
0.7080064615560739 1.752377485131228
0.7024011811087882 1.8298176359345153
0.7216625024171611 1.9827514298582665
0.7683408445188894 2.2314238384143876
0.9301411530685918 2.8626801140484117
0.8946574164515738 2.926292553246889
0.8517194294745274 2.970298640449405
0.6884586599727058 2.5693626979289217
0.6314161475151326 2.5324718455803508
0.587122251837488 2.5431058690894637
0.5322539284934636 2.5040578578785424
0.488471028163955 2.51296558962602
0.44453933482734137 2.521107847711253
0.3926505072509796 2.4790977348937955
0.34932448340976374 2.4855728525413414
0.3180789862874349 2.5905454557838503
0.2937249817821068 2.794606525984848
0.2536232113956852 2.89892657144698
0.20647916228261134 2.9527895887690794
0.1549144304791135 2.9559434228735384
0.10155753540427814 2.9082273066255686
0.050786502732494625 2.9095567929050987
