# .PCD v0.7 - Point Cloud Data file format
VERSION 0.7
FIELDS x y
SIZE 4 4
TYPE F F
COUNT 1 1
WIDTH 177
HEIGHT 1
VIEWPOINT 0 0 0 1 0 0 0
POINTS 177
DATA ascii
1.4756993929725607e-16 -2.41
0.042060299513853476 -2.409632945326903
0.08515477195410263 -2.438513617926594
0.1250829354206361 -2.386724588063432
0.16323014856125356 -2.3342998776079886
0.20830222516690297 -2.380905328439272
0.25295888110772136 -2.406742986791221
0.2949238110404569 -2.4019616869719993
0.3367989043233584 -2.3964487263546004
0.38170009469816346 -2.409959551052136
0.4184921081773023 -2.3733866847594216
0.4598496788574733 -2.36572151210887
0.5010671748708003 -2.3573357177684717
0.542132040968715 -2.348231856132417
0.5951278631751825 -2.3869274866389514
0.636694850952201 -2.376177532671108
0.6780678953098179 -2.3647037720082644
0.7192343936179324 -2.352509699669067
0.7601818061623707 -2.339599030086078
0.8171760676874634 -2.373251624754285
0.8584705597474287 -2.35862847817263
0.8815851558814389 -2.296607849183116
0.9402625494739395 -2.327231474962636
0.980735132508077 -2.3104671821656253
1.041245806274049 -2.338676371565058
1.0819027500561906 -2.320147934813824
1.341415709174577 -2.7503097816754507
1.3892109292030135 -2.7264799640164057
1.4600565602641205 -2.7459670137912626
1.5077579189661083 -2.7200672892035205
1.5799999999999996 -2.7366402759588264
1.6275203167157715 -2.708648670218675
1.7010408381885878 -2.722234388662127
1.7755232541489883 -2.734066051502082
1.8509285104881723 -2.7441143651571878
1.8985380043219624 -2.7113932665965628
1.945569185088086 -2.677846251381076
1.2999204500084243 -1.7250527017021526
1.299045712937139 -1.6627026901101831
1.359332044667649 -1.6786352767470571
1.3562818564385979 -1.6163537749810435
1.3842845511699702 -1.592437214270049
1.4118655794171908 -1.5680355817573017
1.439016539731872 -1.5431563104164494
1.4657291616684842 -1.5178069787145536
1.4778531726798843 -1.477853172679884
1.5034201827077809 -1.4518359942593042
1.5285292363840663 -1.4253765725306218
1.568035581757302 -1.4118655794171906
2.8377080216376225 -2.4667819490043073
2.956931550439255 -2.4811601733900415
2.9609261131510594 -2.3977106898998803
2.8841193582006026 -2.2533209996919092
2.883074191270727 -2.172552233578894
2.92055134969356 -2.121904760775828
2.916181277668811 -2.041932113409724
2.288143700251915 -1.543372413579261
2.230863710734828 -1.448739833139972
2.2558079357760934 -1.409585242860325
2.280065019867619 -1.3700012792607439
2.2603263038773846 -1.305
2.239026450276853 -1.2411126278306228
2.2161984580759064 -1.1783736225925858
2.191876049503385 -1.1168166293592852
2.211033353895951 -1.0783930211011303
1.6857324838881689 -0.7860699668377009
1.6535172783331078 -0.7361933239671983
1.758164270094161 -0.7462964554145126
1.770921162222564 -0.7154985934243917
1.8764966572593753 -0.7203195785860536
1.9357667988189713 -0.7045614952508776
1.9950441945145585 -0.6869488059046006
2.1018349010122894 -0.6829275575686338
2.256879224072764 -0.6899972231456586
2.3166406872113487 -0.6642860275189679
2.472770115300015 -0.662576755462453
2.5324718455803508 -0.6314161475151324
2.737979882046511 -0.6321124627062603
2.8464095181353746 -0.6050230202796799
2.836902560163749 -0.5514379966382147
2.8460944062052813 -0.5018432334574288
2.8544193043199484 -0.45209560396626725
2.8618747186631386 -0.4022102617745891
2.8188310706613544 -0.3461089352706187
2.794606525984848 -0.29372498178210604
2.9985460412561538 -0.26233878567045077
3.9004754365159133 -0.27274781233952944
3.934600366933021 -0.206203667597199
4.107496299048484 -0.1434369314472792
4.609297874670964 -0.08045559367587711
5.26 0.0
6.109069417405551 0.10663420333180242
7.255577404158635 0.2533703460601574
9.04758358487644 0.4741637635610718
10.434519965717762 0.7296527153635517
16.198125790971783 1.4171523770769239
34.10388577039583 4.187430639400866
16.993000059605347 2.3882104124747223
10.331220042625143 1.636304504320815
15.86309528451425 3.083473365284965
10.240629380892821 2.364235581154022
8.790879280060528 2.191812374132991
7.737065868575436 2.0731405512711922
7.50745384527827 2.152727748930763
6.273359199117513 1.9179583829811526
5.668296837119115 1.8417412864746865
5.257083280332202 1.8101589387817911
4.8018292922159915 1.7477229323941674
4.44384283012668 1.7058314398356296
4.135239991367872 1.670745406634968
3.8753254330347735 1.644978050939843
3.6176400122646992 1.6106771065801693
3.4077172792578034 1.5890446641450295
3.199706804825034 1.5606012825691162
2.993781921272916 1.5254080791248772
2.8342617730771553 1.50700371654271
2.676336303846551 1.4835174379537914
2.5201339250127166 1.4549999999999996
2.4086401149729353 1.4472569904972525
2.3406127453917356 1.4625771692836453
2.188930182337556 1.421507881389221
2.122336185740907 1.4315338328851117
2.0151140289509195 1.4109980334235739
1.9497309564436234 1.4165624580248604
1.8448480282092463 1.390192703481232
1.7651440880790572 1.3790817047294748
1.7019496555907665 1.3782116563991436
1.639335108274613 1.3755654847291943
1.539607543654455 1.3383604191406346
1.4788582027000143 1.331569906654128
1.4334532551735744 1.336716785722497
1.4314862026739155 1.3823701572134048
1.4212846301849604 1.4212846301849602
1.3823701572134044 1.4314862026739161
1.323076818521247 1.4188261811411906
1.2981133763361852 1.4417009614261447
1.2071486133425335 1.3886656276099005
1.1827292018232327 1.4095217753389195
1.126483499979209 1.391091271007978
1.0712509670666457 1.371138711275696
1.0170673891269613 1.349694011979925
1.0227463389889033 1.4076895702124086
0.9693441774332676 1.3843669548483963
0.9170763616920247 1.3596216189902683
0.8659760656738933 1.3334862030332242
0.8425716301307958 1.3483964728887174
0.8189105391069863 1.3628960081163586
0.7699999999999998 1.3336791218280357
0.7466068151793591 1.3469143489946696
0.6995126285509771 1.3155919133598013
0.6764458446119248 1.3275997210406683
0.6312544513762712 1.2942634266708004
0.6297012099936422 1.3503986026846084
0.5653639338753624 1.269828186123215
0.5118577783209486 1.205861358022697
0.48324250550652675 1.1960671723911556
0.46229465491343724 1.2043187501813903
0.4412059848901128 1.2122034808138218
0.4199829192497319 1.2197189625231188
0.3831810730249348 1.1793100802059904
0.3625409138561933 1.185817897394164
0.3500594418875889 1.220802353841665
0.3287001872802016 1.2267257993871166
0.29998315054358793 1.2031667005822355
0.2721907757560768 1.1789877783901346
0.26404784733855424 1.2422474529319332
0.2518678738970393 1.2957478821509165
0.2292155945203479 1.2999462339761148
0.2018004599018979 1.2741179593677276
0.18370849326728614 1.307153850738873
0.1547740661245373 1.260533612584479
0.13797757151330287 1.3127689018861208
0.11504558042690875 1.3149770014811042
0.08859072165503933 1.2669063438299768
0.06646666442853856 1.2682595091383089
0.04432236081217637 1.2692263503142516
0.02216455617534989 1.269806572848617
