# .PCD v0.7 - Point Cloud Data file format
VERSION 0.7
FIELDS x y
SIZE 4 4
TYPE F F
COUNT 1 1
WIDTH 180
HEIGHT 1
VIEWPOINT 0 0 0 1 0 0 0
POINTS 180
DATA ascii
3.91886975727153e-17 -0.64
0.011693112312980012 -0.6698979557547822
0.025127637625800777 -0.719561395453749
0.03506509068277246 -0.6690817882855645
0.04464414319624029 -0.6384409921662875
0.06013746249588411 -0.6873743416833044
0.06689821649129822 -0.636494013035695
0.0779963797792944 -0.635229537050446
0.0890707846144419 -0.633771563994605
0.10793978087775932 -0.681504955010645
0.11981724259018198 -0.6795173495784235
0.131658206809816 -0.6773227565788881
0.143459066664254 -0.6749218445063258
0.15521622749726693 -0.6723153447018123
0.1669261079637707 -0.6695040511304375
0.1785851411207393 -0.6664888201394571
0.20397164330457937 -0.711333654994356
0.2163550614948252 -0.7076655194126462
0.21322172611871373 -0.6562289962436559
0.240920434298296 -0.6996837459434944
0.23599389889471148 -0.6483879083422767
0.2651922826635223 -0.6908495156079293
0.27720887912777503 -0.6861160523794226
0.28914103508206257 -0.6811735915548058
0.3009851158760923 -0.6760236386555245
0.33386842677515255 -0.7159831517589534
0.34631320596337123 -0.7100472965763419
0.3359529698072647 -0.6593448278993922
0.3708825346008538 -0.6975285983585523
0.3829995999946063 -0.6909495686401227
0.3949999999999999 -0.6841600689897066
0.40688007917894287 -0.6771621675546687
0.4451321819558921 -0.7123604007713977
0.4847287411633741 -0.7464168054714273
0.49768168408896474 -0.737843439573987
0.48180420653487865 -0.6880877172027531
0.5231288745403011 -0.7200251249937032
0.5356153706053229 -0.7107856039420907
0.5787217868061189 -0.7407301083903185
0.5915611675868471 -0.7305172037695526
0.5720809726210201 -0.6817795543758904
0.6166954872510768 -0.7094270054094056
0.6624393002952697 -0.7357133772226203
0.6751783764618736 -0.7240401646029786
0.6877117867544073 -0.7121464023352646
0.7353910524340095 -0.7353910524340094
0.7481133923521973 -0.7224447052773572
0.797175534764896 -0.7433782124681234
0.81002785977036 -0.7293523609311554
0.8226334424428215 -0.715104341599653
0.8732906651556349 -0.7327778750426547
0.8470890979880984 -0.6859592262443228
0.7958908611427893 -0.6218180900789148
0.8465536406501304 -0.6379239245411712
0.8575580140374444 -0.6230523674300216
0.909258769160781 -0.6366698443496611
0.9616835841638484 -0.6486637680260663
1.0147913872139631 -0.6590132323681827
1.238150220388382 -0.7736821257804791
1.2943226240601897 -0.7777074931141816
1.3509996299037244 -0.78
1.4081377284944272 -0.7805434885966027
1.4656930041458187 -0.7793227942245787
1.5681714825715276 -0.7990232795416023
1.6268172238014924 -0.7934517756882301
1.7310478732400012 -0.8072008799247358
1.699194551215238 -0.7565301561209883
1.6016784450072463 -0.6798721635713362
1.6318435840375458 -0.659307604412005
1.7364595932847953 -0.6665643861542586
2.3116438471333343 -0.8413695525811452
2.704183126214046 -0.9311249217474681
3.6710781528992924 -1.192805598287297
3.6913363580173173 -1.1285547802297637
3.6912449124031443 -1.0584474463372766
3.921658854733617 -1.050805323116234
4.327518939190944 -1.0789716543745176
7.902141225408258 -1.824353050728744
8.86201726264828 -1.8836799188089002
10.709552571414013 -2.0817261395581044
12.713868091387607 -2.241797973680071
12.751056477083228 -2.0195689436693804
12.784360767453673 -1.7967247333944445
12.813770817689468 -1.5733332233604533
18.756682946645633 -1.9714068172279429
21.129289546525925 -1.8485733036778278
18.963692595439262 -1.3260705658758198
18.98394745568445 -0.9949065281783637
18.948450080282058 -0.6616944574794194
19.007104684923 -0.33177024637276004
10.76 0.0
8.008780038202694 0.1397937755626411
5.606582539577127 0.19578617650103072
4.703545108694042 0.24650235390426578
4.050110044054886 0.2832112834011491
1.852922138450647 0.16210968151064442
1.829920287477623 0.19233237241248266
1.8064339959872062 0.22180220499736833
2.1884924319188706 0.30757255312174453
2.281560066774768 0.36136361424293334
2.2749059094582007 0.4011272904106091
2.267558793764104 0.4407687793198186
2.308428337731781 0.49067159032991214
2.2507948496538934 0.5196369355343283
3.745341503425346 0.9338185170147179
2.2795849500422007 0.6108129464419493
2.2685776024144326 0.6505041597281178
2.256879224072764 0.6899972231456586
2.482257507530351 0.8065343553186126
5.209807351552236 1.7938805310589334
5.459614126766127 1.9871370327221354
5.704176405897903 2.189628171721785
5.526015773218052 2.2326552967588364
1.8502147554394048 0.7853695682634404
1.7448718240973675 0.7768669882747786
1.6857324838881689 0.7860699668377009
1.6268172238014922 0.7934517756882304
1.6572721349903643 0.8444223295155571
1.5539877634317114 0.8262699505031681
1.5830616699223063 0.8775054126458701
1.5675059808498342 0.9049999999999997
1.5514728142708232 0.9322189155871983
1.5773694588509526 0.9856498314737612
1.7276613699675734 1.121956412130956
1.6663655208356336 1.1239777359762009
1.6055380068064238 1.1242098152480506
1.5452224592561496 1.1226698318786237
1.5094211139893832 1.1374303937573715
1.5051005393888388 1.1759134178720072
1.5232060844556632 1.233467966457681
1.5014471085131968 1.2598637149856171
1.479230777236633 1.285875696821394
1.5308783404834319 1.3784090490992482
1.5065886253354914 1.404916621728747
1.5537739687314862 1.5004620801914343
1.4919953083036153 1.491995308303615
1.430996243145534 1.4818399886976217
1.404916621728747 1.5065886253354912
1.411865579417191 1.5680355817573015
1.4170875026194958 1.6301726932811877
1.4205606174072523 1.6929582192929413
1.4537301033251244 1.7952071709656028
1.4529610817685537 1.8597053785118636
1.4503742057964362 1.9247115792139762
1.4753409832541073 2.030632655881118
1.4683556770586776 2.0970292333798195
1.4874531232321866 2.2052399429964114
1.503203736641475 2.31473076752937
1.5155690957069659 2.425417555007378
1.5245127017337605 2.5372152100782523
1.5299999999999996 2.6500377355803826
1.5562388809907421 2.80752925991746
1.5304772946820033 2.878409152720102
1.5481076041118549 3.0383322474823347
1.560601282569115 3.1997068048250346
1.5890446641450298 3.4077172792578034
1.5903402744263795 3.571962739382569
1.6059049380909152 3.7832749476895304
1.6145544176225815 3.996162413182853
1.6520762474038337 4.3038057661521005
1.645116889396467 4.519921505980219
1.66365326927607 4.83159992131251
1.687232789287213 5.192768578971538
1.6986796044390993 5.556130632145236
1.7392717152052646 6.065561301370792
1.7107938881276636 6.384769711770741
1.5991037299138033 6.413654750684337
1.4869264692129487 6.4405861282304055
1.3639006917645005 6.416648260813765
1.2517070096701346 6.439474323416675
1.1391320454950622 6.460338859760085
1.0262100906639149 6.479235514304103
0.9129755422980279 6.496158530944701
0.7933694255675101 6.4614754471850055
0.6804802958724254 6.474337538847459
0.5063748653638938 5.7878911959130415
0.18764491437169747 2.683447295198927
0.14078372229351868 2.6863134484898037
0.0938796461297279 2.6883613246813676
0.04694697331629228 2.6895902999706927
