# .PCD v0.7 - Point Cloud Data file format
VERSION 0.7
FIELDS x y
SIZE 4 4
TYPE F F
COUNT 1 1
WIDTH 180
HEIGHT 1
VIEWPOINT 0 0 0 1 0 0 0
POINTS 180
DATA ascii
1.3630318874510043e-15 -22.26
0.3666750592473284 -21.00680007523578
0.5116266216586658 -14.651069524099944
0.6494892169749347 -12.392992526304262
0.8796291339134219 -12.579282673776383
0.8419244749423777 -9.623240783566262
1.0358770709824459 -9.855711983099589
0.8786779659511134 -7.156257753333931
0.878182267058013 -6.248591513759308
0.9479928581437993 -5.985391344006534
1.0349431388949053 -5.86945420795276
0.9654935166053172 -4.96703354824518
1.0832199091605268 -5.096148999823127
1.4081936001925957 -6.0995566055555726
1.5144310664539196 -6.074051246487738
1.6331481745969059 -6.094991963884021
1.7530535829961147 -6.113624386167708
1.8741026272727428 -6.1299134857230575
1.9962497836621604 -6.143825095266692
2.103170277793233 -6.108049998371586
2.226551133050104 -6.117398961316263
2.368812146494436 -6.170966619146504
1.015183868157122 -2.5126682458759935
1.0198082453570043 -2.4025176675108693
1.041245806274049 -2.338676371565058
1.0396409238821207 -2.229517156110159
1.1003115784405844 -2.255973056210909
1.1395161543462624 -2.2364263757128033
1.131426466313997 -2.1279036987900137
1.1683911847936725 -2.107833494205944
1.2049999999999998 -2.0871212231204974
1.1897379530422254 -1.9800564646218792
1.197617537167043 -1.9165886973135224
1.2036522673832097 -1.853461955159387
1.2078566714968133 -1.79072115671889
1.2389251025182595 -1.7693684156642224
1.2108376197224946 -1.6665750084123918
1.2397389476932195 -1.6451891506974232
1.0835641965731588 -1.3868989263478306
1.0761378686952219 -1.3289195940914202
1.0670274320796553 -1.2716337755775033
1.1218609395737673 -1.29055338218094
1.2111263975095334 -1.3450921341140836
2.223314653803745 -2.384213067278495
2.299319206219281 -2.381014739120935
2.3758787847867997 -2.3758787847867993
2.488915709171733 -2.4035179617881304
2.5670514926832886 -2.3938142438193695
2.6827528199733934 -2.4155614889554777
2.7622370636153457 -2.401176046105257
2.8420248839714084 -2.3847420319370607
2.9609261131510594 -2.3977106898998803
1.6233021524298474 -1.2682626391708558
1.565325599692694 -1.1795574453780147
1.4238699100999075 -1.0345020440347528
1.5645804045919742 -1.095530993430498
1.4176542490691213 -0.956219864934977
1.3921931427894039 -0.9041007981249447
1.4501622444274886 -0.9061619418387804
1.4228977191655063 -0.8549632043506896
1.3943009000929463 -0.805
1.4955996992083667 -0.8290244506212363
1.4656930041458187 -0.7793227942245787
1.4790708301526907 -0.7536242295676476
1.3571790099117422 -0.6619404316515068
1.504470926480839 -0.701546314489561
1.3794536410403275 -0.6141723310444582
1.435987571385807 -0.6095405604432669
1.3073292349391703 -0.5281952967164357
1.4097064440107747 -0.5411356038134035
1.465920488426017 -0.5335514235880433
1.4277330491549685 -0.4916079132303066
1.5787538170499549 -0.5129682106624126
1.6352811326967907 -0.49995561507587977
1.3073159064761137 -0.3748668039111188
1.3619554150675863 -0.36493485359455413
1.368116974049155 -0.34110987279553134
1.32514328810792 -0.30593343390765626
1.3791881170346658 -0.29315548405304076
1.3840943286612062 -0.26904068348092824
1.339338544096603 -0.2361615216270253
1.3432561432093875 -0.212750872454714
1.2972511700514573 -0.1823167622576857
1.300235458650132 -0.15964883986074316
1.1834810554882451 -0.12438887128850752
1.2552053195955994 -0.10981623586204917
1.2569307033273787 -0.08789315691759772
1.2383006230956715 -0.06489658574125044
1.199268992422915 -0.04187939604300122
1.139826372478286 -0.01989574333850323
1.29 0.0
1.3098004806548726 0.022862652432841434
1.3092019833950155 0.04571834068027634
1.3082046905284919 0.06856010267825652
1.2569307033273784 0.087893156917598
1.2552053195955994 0.10981623586204944
1.2530975881640243 0.13170586371724355
1.3994900738142642 0.17183577420125787
1.4953047837997713 0.21015138244969878
1.491409394298658 0.2362160422107486
1.4870597070484342 0.26220874827706486
1.531338406178356 0.29766203278741
1.574817637181427 0.33473782221659265
1.5687358043042288 0.3621711974936228
1.5621761193043544 0.3894942519154653
1.5551405803254 0.41669866261505867
1.6437575000545253 0.4713398784470685
2.5915858886598264 0.7923273197986165
2.6249159849746238 0.8528869044748547
1.5222849067149002 0.5241647286760224
1.6068743815439033 0.5848544450868935
1.503064486660495 0.5769723987679336
1.4464068131241883 0.5843862857288229
1.3899623287131848 0.5900040040188036
1.3337763681581973 0.5938354988906684
1.2778939797216764 0.5958917490543861
1.2672996052818253 0.6181033169725993
1.2563191991055986 0.6401266046327609
1.2449561059310867 0.6619549035281063
1.3206757577804875 0.7320625265719689
1.2643970895252805 0.7299999999999998
1.2514642590250837 0.7519555893686792
1.2805526251962034 0.8001780889921394
1.3083260859948613 0.8496368946234425
1.2932986131858653 0.872340929414365
1.2778771890908271 0.8947792407076323
1.3025173609436655 0.9463342561908819
1.2858031711761413 0.9689221872747982
1.2686973133068224 0.9912149752743099
1.290062296018572 1.0446718491427298
1.2716337755775033 1.0670274320796553
1.215082424158663 1.0562550366747165
1.1593059277447348 1.043843745919819
1.1774794596068647 1.0980173597006226
1.1077832925215225 1.069773890506856
1.1242997820866107 1.1242997820866105
1.1392397275527553 1.1797172725553882
1.1525772285056224 1.235987755736398
1.1642872550644134 1.2930719963306658
1.1218609395737673 1.29055338218094
1.1313061930483095 1.3482382198894014
1.1390699078002058 1.4066341902371173
1.1759134178720074 1.5051005393888388
3.436363782198195 4.560208762370043
4.9138847091650755 6.763382072974561
4.737741364259639 6.766195885827073
4.563014092321294 6.7649465920491405
4.41702257397187 6.801618306037388
2.071984323151831 3.3158680559716256
2.0137988728983123 3.351524145745259
1.6549999999999996 2.866544086526492
1.5319983999784252 2.7637982745604908
1.4365829821248255 2.7018196341483165
1.3438118792290588 2.6373793115975688
1.2756600371562148 2.615490674730576
1.2509500547524703 2.6826710496284836
1.2242772956581591 2.749771827504228
1.1956372531771775 2.8167448515644677
1.1650265055234867 2.8835417877027085
1.1145243230858835 2.9034351264062974
1.0978846600753969 3.0164133127227655
1.0450737758074724 3.0351146276738072
1.100100499974813 3.3857611980107465
1.040843268812942 3.4044449312284066
0.9537052511268171 3.3259654679465833
0.8825729437995965 3.2938070676457225
0.8491458535548335 3.4057379992287475
0.80082575346416 3.4687574306354376
0.7505612038521108 3.5311128386490385
0.7079013728469816 3.6418368505908334
0.6702819657943506 3.8013579266271234
1.0887838766800073 6.874310850542159
0.9616861276340508 6.842752355004252
0.8421171629295692 6.8584939078415355
0.7222916811794869 6.872146296994768
0.6022461823863178 6.883705363813962
0.4471389966998442 6.394385562165473
0.3433238729537109 6.551009747990004
0.23941054737915743 6.855821073350997
0.11710564719417145 6.708978034499386
