# .PCD v0.7 - Point Cloud Data file format
VERSION 0.7
FIELDS x y
SIZE 4 4
TYPE F F
COUNT 1 1
WIDTH 180
HEIGHT 1
VIEWPOINT 0 0 0 1 0 0 0
POINTS 180
DATA ascii
4.1025667771436334e-17 -0.67
0.011693112312980012 -0.6698979557547822
0.023382662790675725 -0.6695918541027942
0.03506509068277246 -0.6690817882855645
0.04673683740856406 -0.6683679136740822
0.05839434764093095 -0.6674504477214696
0.07003407038932782 -0.6663296698967431
0.08165246008144883 -0.6650059215996857
0.09324597764324387 -0.6634796060568522
0.10793978087775932 -0.681504955010645
0.11981724259018198 -0.6795173495784235
0.12211775704098875 -0.628241397406505
0.13306348212336605 -0.6260144644696356
0.1439686747800737 -0.6235968414625506
0.1548300131837873 -0.6209892648166377
0.1785851411207393 -0.6664888201394571
0.1901897755137294 -0.66327057019744
0.20173647625868835 -0.6598502816144944
0.21322172611871373 -0.6562289962436559
0.22464202657543814 -0.6524078171635285
0.23599389889471148 -0.6483879083422767
0.24727388518625723 -0.6441704942830692
0.27720887912777503 -0.6861160523794226
0.28914103508206257 -0.6811735915548058
0.26844618443002827 -0.6029400020441166
0.3000589658358966 -0.6434785287960214
0.3243946486239173 -0.6651075942613836
0.3359529698072647 -0.6593448278993922
0.3708825346008538 -0.6975285983585523
0.3829995999946063 -0.6909495686401227
0.36999999999999994 -0.6408587988004847
0.40688007917894287 -0.6771621675546687
0.39214025553257165 -0.6275555911557552
0.4302648376618714 -0.662549748676885
0.4417623937418901 -0.6549396823184829
0.4531253847173264 -0.6471301149883035
0.5231288745403011 -0.7200251249937032
0.5356153706053229 -0.7107856039420907
0.547938713039836 -0.7013295707099825
0.5286291284818634 -0.6528026076238556
0.5720809726210201 -0.6817795543758904
0.5838925358015515 -0.6716915263982671
0.5955262396593839 -0.6613988946748809
0.6206185076568738 -0.665531868473445
0.6529788682314573 -0.676179412318332
0.6646803743153546 -0.6646803743153545
0.6761794123183321 -0.6529788682314573
0.7240401646029788 -0.6751783764618735
0.7357133772226204 -0.6624393002952695
0.7848979634316829 -0.6823013901501276
0.8349884429996861 -0.7006384945583278
0.8470890979880984 -0.6859592262443228
0.858931721431327 -0.6710710081049674
0.9104444814539138 -0.686069126393335
0.92227937358744 -0.6700751876134193
0.9747909327039002 -0.6825559592577448
0.9865547113404997 -0.6654395551301887
1.0399515042523257 -0.6753524034186335
1.0939820440417896 -0.6835958508608343
1.1486041829408307 -0.6901510203794725
1.2037753112603695 -0.695
1.21572139292376 -0.6738853721424085
1.2714445337168547 -0.6760390504116828
1.3275997210406683 -0.6764458446119247
1.4290825336156756 -0.6970101233946331
1.4863447707401058 -0.693093949254747
1.5438918234159955 -0.6873849267981023
1.574063299403673 -0.6681502297166579
1.6596590996745495 -0.6705458022144823
1.7831386146096553 -0.6844827836315236
1.8887821677796754 -0.6874604880845941
1.9950441945145585 -0.6869488059046006
2.1018349010122894 -0.6829275575686338
2.256879224072764 -0.6899972231456586
2.41276685680518 -0.6918497631006677
2.5693626979289217 -0.6884586599727051
2.72653099083555 -0.6798005266350661
2.98157239824282 -0.6883502262922265
3.2376685584288967 -0.6881876966067836
3.5436741322460668 -0.6888204733093269
3.949079089578954 -0.6963291924443907
4.405089999054314 -0.6976977140794297
4.8622162175211106 -0.6833399257139212
5.717065833454015 -0.7019674180136491
6.673241917921113 -0.7013859885259542
8.05921510756222 -0.7050899588285537
9.835981535561867 -0.6877988311170742
14.34032011907568 -0.7515443316486744
14.351252275994215 -0.5011567726479146
12.308125127375177 -0.21483912324296034
12.31 0.0
12.408109896890815 0.2165843638866887
14.051435027888488 0.4906869236371643
12.343061049566533 0.6468724191627866
12.42964806623741 0.8691656628518025
12.2133469986048 1.0685294060862907
9.955164172636415 1.0463299173092127
8.59544967321385 1.0553885138885768
8.130100844368293 1.142611158882137
6.9730796846016725 1.1044273231840298
6.066415758555202 1.069672774428291
5.556009858313778 1.079978913831244
5.145056379859817 1.0936154937014144
4.735438514856243 1.0932621241111844
4.424548511818544 1.1031638439344853
4.1148440199914305 1.102569132136739
3.8546594007126584 1.1053057968261664
3.5957058824210133 1.09931760975749
3.3857611980107465 1.1001004999748127
3.271494271573636 1.126465814421762
3.2513364679192427 1.183389695906814
3.090151211705738 1.186197912994944
2.929900980431048 1.1837568351942824
2.8167448515644673 1.1956372531771782
2.7040945546220985 1.203940463504369
2.592040270924819 1.2086882285784002
2.255973056210909 1.1003115784405846
2.147325723293967 1.094117104372308
2.083756319147067 1.1079528881747027
2.0028791293492163 1.110214030364112
1.9139161423636095 1.1049999999999995
1.8343380235025202 1.1021814803075163
1.7724205209669304 1.107531262247398
1.752821487005936 1.1382955831814068
1.6497847693845331 1.112793877906786
1.6301125681350934 1.141417108338582
1.5290421193686505 1.1109141268327742
1.5094211139893832 1.1374303937573715
1.4105392489560322 1.1020340408329283
1.3522339729351296 1.0950174804267168
1.3329173310270217 1.1184504408545786
1.2754591905764847 1.1087397589939572
1.2187575137829263 1.0973741944285276
1.1994200706554397 1.1184773105024974
1.1437502825384551 1.1045068090298058
1.0889444430272832 1.0889444430272832
1.0697738905068557 1.107783292521523
1.0502774744962478 1.1262847004935226
0.9970046034746989 1.1072857899613173
0.9775279531958558 1.1245172745319303
0.9256141579486168 1.1031039980913282
0.8747553435592739 1.0802328864251896
0.8557694507026651 1.0953349475133434
0.8064321310237446 1.0701715834633727
0.7876322380719141 1.0840827724624296
0.7685924247104016 1.0976637393472493
0.7493184906508007 1.110910347223756
0.7025843551693851 1.081885032649597
0.6835958508608343 1.0939820440417896
0.66439911663397 1.105745817905725
0.6199999999999999 1.073871500692704
0.6254044101177749 1.1282594222098206
0.5821447378545044 1.0948550151450696
0.5629482196770381 1.1048480899935762
0.5216616646790019 1.0695649150960087
0.5029157314714323 1.0785062665736134
0.4840166052602024 1.087119094594695
0.4649700429022357 1.095400775608404
0.4457818461649355 1.103348786934477
0.42645785995890717 1.11096070753167
0.41726457485731594 1.146424997358808
0.37114769608115844 1.077891176183221
0.35227937358744005 1.084204428576475
0.33330374338391966 1.0901874217978604
0.322495706305889 1.124676184247833
0.29505371141687387 1.1011554419695377
0.2709525230716278 1.086731213429116
0.2631927335823222 1.1400129757987252
0.2370193275322455 1.1150882648365383
0.20798180496043397 1.0699736299579539
0.19448595898696186 1.1029846833736732
0.17520660084505865 1.1062109414665544
0.16283252812327634 1.1586136404276373
0.14258713178402255 1.1612789974203466
0.11707187885977213 1.1138645228124662
0.09761443187737713 1.115738061862755
0.07812725059342052 1.1172717362910032
0.058616270992097 1.1184650789251227
0.03908743630680121 1.1193177262613874
0.018674074887893213 1.0698370338173386
