# .PCD v0.7 - Point Cloud Data file format
VERSION 0.7
FIELDS x y
SIZE 4 4
TYPE F F
COUNT 1 1
WIDTH 174
HEIGHT 1
VIEWPOINT 0 0 0 1 0 0 0
POINTS 174
DATA ascii
1.64714994485319e-16 -2.69
0.04869221396002124 -2.7895750694863315
0.09736959579997802 -2.7883004073832773
0.14863411572996085 -2.8361078787029896
0.20159620912052256 -2.882960105250892
0.2562378836781149 -2.928812412389732
0.3073136820069012 -2.9238943723827235
0.3704828039516484 -3.017340300989619
0.4300448819666023 -3.0599283324114523
0.49433290952712977 -3.1210951562806355
0.5487282414275001 -3.1119924995185775
0.6220373249275364 -3.200104618039384
0.6881876966067838 -3.2376685584288967
0.7670830953125801 -3.3226019209176525
0.8370497587748501 -3.3572232129149477
0.9213958005649738 -3.438695941589083
0.9950508544993669 -3.4701547223373312
1.0993176097574902 -3.595705882421013
1.1928055982872972 -3.6710781528992924
0.8822896985788948 -2.562355339874148
0.9097735812462792 -2.4995823712905163
0.971177143267764 -2.530002955807417
1.6145544176225815 -3.996162413182853
1.7426608330621607 -4.105451646397884
1.8750559245794398 -4.2114445597323895
1.1664264024043303 -2.501409492221154
1.1879858077983998 -2.4357318654707423
1.230314254294172 -2.414627680550477
1.5539508728212987 -2.922556532363048
2.695541488569634 -4.86288557169504
2.8799999999999994 -4.988306325798367
3.121130733954929 -5.194433842254799
3.3437905573115225 -5.351183486747048
3.5728320696985776 -5.501678925721981
3.8919826081563986 -5.7701015049830895
4.221522571543699 -6.02895904596698
4.590602820404215 -6.31842272606834
5.001082842393521 -6.636661088493004
5.485543745151617 -7.0211758146358925
6.0163029384364455 -7.429515391528642
6.562861494899567 -7.821313764244766
7.2560128606350105 -8.34708795726386
8.270454294595487 -9.185270042900592
9.31609759845373 -9.990291564117866
10.531020896158399 -10.90519137313395
10.507606768432096 -10.507606768432096
10.941158363150885 -10.565753814681349
17.523234690795327 -16.340680707097466
17.84290725971224 -16.065825858676185
34.17324260753761 -28.674755268116517
26.35301955300588 -21.340254460499985
33.79026843010096 -25.462793629563162
19.384047185223743 -14.083334644927657
11.722065753775473 -8.20787880418347
11.780623906007143 -7.946131158319313
12.211043469285375 -7.929944349818793
10.651484087724711 -6.655785958769054
9.351695250660045 -5.61906539726869
8.23590158999001 -4.755
7.486744693113228 -4.149970349308646
6.851673320585273 -3.6430993272185126
6.290506060769877 -3.2051729281612005
5.851149241407577 -2.853796165596894
5.446909800090266 -2.539935753061603
5.170667290257121 -2.302129399809029
4.841855529159836 -2.055245735853579
4.598831918651266 -1.858048703342923
4.39716380880182 -1.6879130423583646
4.1440444576658555 -1.5083088320661993
3.9333572744931584 -1.3543635225417718
3.8137366303435654 -1.239158147443539
3.6435211202191655 -1.1139361949936268
3.5182178071342474 -1.0088327222902167
3.3421033589601765 -0.8955138960547215
3.260193640287348 -0.8128575692148832
3.127727907960605 -0.7220928844438063
2.9931316582454452 -0.6362097739023438
2.9546978221774682 -0.5743350760834
2.8657905612655257 -0.5053161970107674
2.824788654102094 -0.4474025700150603
2.6836264662896556 -0.37715910360177723
2.640172763365917 -0.3241724534576922
2.54597605214278 -0.26759286596519266
2.500448692210281 -0.21876091429662173
2.4340562826339713 -0.17020579593566543
2.007245364856693 -0.10519527204831723
1.8888486630660908 -0.06596004876772692
1.8897121438455795 -0.03298504816646588
1.76 0.0
1.7397349895721208 0.030367187200873353
1.7889095803641815 0.062470099097476826
1.7875468672106871 0.0936813616748696
2.0350306625300414 0.1423032064380158
1.9824274492025735 0.17343992806784
1.9790985717828637 0.2080116419026307
1.975166841766231 0.2425199933762434
1.8716066499215678 0.2630371608145236
1.8667309637248104 0.29566113892603635
1.8120462655424627 0.31951264690715186
1.7571126583713186 0.3415481017240153
1.750884205313512 0.3721619265637893
1.7246350146698664 0.39816336618864123
1.688314563720234 0.42094409834342206
1.6807109377429788 0.45034513847838636
1.7206584357295909 0.4933908669124284
1.7596007509719855 0.5379639366898356
1.8450496416125979 0.5994929690873979
1.8343060366626747 0.631602219646884
1.8699883153639576 0.6806200852180808
1.9511830913791515 0.7489890145496776
1.984173448772925 0.801658109910052
2.015905629060844 0.8557011713915098
2.046341825119426 0.9110900804897928
2.0935709880546614 0.9762481846210156
2.1660936515809923 1.056474463761677
2.191876049503385 1.1168166293592852
2.260345837718853 1.201847200731881
2.3702194063477626 1.3138340708675733
2.4335313846342728 1.4049999999999996
2.494356845043147 1.498760797988258
2.595027174238664 1.621552948553607
2.692132523104811 1.7482913023982374
2.78556624378494 1.8788881556617092
2.9161812776688105 2.041932113409725
3.001453049131055 2.1806832860050753
3.2025283952896437 2.413278242839714
3.3569258103646353 2.622717884887304
3.5826428823166365 2.9011670027397503
3.761278215714182 3.1560871635609082
4.007507870982919 3.4836734439395927
4.31767143602366 3.887648822944967
5.090221763269427 4.746708586034989
5.078538990390876 4.9042880954405215
6.300321420372139 6.300321420372138
6.189406080789665 6.409317621017383
7.13293226378543 7.921923839589022
9.158584044707482 10.535745739909897
14.17989466968506 16.898940415204653
14.16600200253184 17.493555592396415
12.442518416331557 15.92569733039185
12.132590866745291 16.100491882553428
7.059300880032602 9.716294102443118
3.9634131751857273 5.660340626036934
3.836063317809323 5.687197747727587
3.763455731953838 5.795213624502879
3.661742115851446 5.860012344440904
3.558913097628475 5.923026047851596
3.479999999999999 6.027536810339694
2.404655716421832 4.338113747411403
2.1173167481643667 3.9820936437937604
1.9566990538774467 3.840238119251865
1.8893796426609226 3.8738023395494094
1.8205880440013333 4.506113533194586
0.9353403483132333 2.4366449131576964
0.8413695525811453 2.3116438471333343
0.7520624367960316 2.184147909634422
0.6829275575686339 2.1018349010122894
0.6022857117288373 1.9699877972838533
0.5402492174013184 1.884072924039105
0.5021089474988907 1.8738961030007923
0.44513628790338855 1.7853441363478335
0.4026623872755186 1.744122415965571
0.3513707574820131 1.6530694452401316
0.31292675241753365 1.6098685808541688
0.27610060249041907 1.565844327289411
0.24090907616195564 1.5210400445165122
0.21432657547850048 1.5250128258620184
0.19133486914608155 1.5582974580768756
0.16097383343218666 1.531563718867141
0.13857763096877646 1.5839495699658754
0.11440061694036574 1.6360050424261117
0.08583096823842773 1.637752436997501
0.060027134328301854 1.7189522224728446
0.029145518750263236 1.6697456509111734
