# .PCD v0.7 - Point Cloud Data file format
VERSION 0.7
FIELDS x y
SIZE 4 4
TYPE F F
COUNT 1 1
WIDTH 171
HEIGHT 1
VIEWPOINT 0 0 0 1 0 0 0
POINTS 171
DATA ascii
4.1025667771436334e-17 -0.67
0.011693112312980012 -0.6698979557547822
0.023382662790675725 -0.6695918541027942
0.03506509068277246 -0.6690817882855645
0.050224661095770326 -0.7182461161870733
0.06013746249588411 -0.6873743416833044
0.06689821649129822 -0.636494013035695
0.0779963797792944 -0.635229537050446
0.0890707846144419 -0.633771563994605
0.10793978087775932 -0.681504955010645
0.11981724259018198 -0.6795173495784235
0.131658206809816 -0.6773227565788881
0.143459066664254 -0.6749218445063258
0.15521622749726693 -0.6723153447018123
0.1669261079637707 -0.6695040511304375
0.1785851411207393 -0.6664888201394571
0.1901897755137294 -0.66327057019744
0.20173647625868835 -0.6598502816144944
0.21322172611871373 -0.6562289962436559
0.22464202657543814 -0.6524078171635285
0.25309490606099494 -0.6953725393815722
0.2651922826635223 -0.6908495156079293
0.27720887912777503 -0.6861160523794226
0.28914103508206257 -0.6811735915548058
0.3009851158760923 -0.6760236386555245
0.3127375136881176 -0.6706677624071209
0.3243946486239173 -0.6651075942613836
0.35865249479424205 -0.7038951541088107
0.3474089564615592 -0.6533812187156058
0.3829995999946063 -0.6909495686401227
0.3949999999999999 -0.6841600689897066
0.40688007917894287 -0.6771621675546687
0.4186362187442319 -0.6699579959635765
0.4302648376618714 -0.662549748676885
0.4697220389154274 -0.6963915609462349
0.48180420653487865 -0.6880877172027531
0.4937396119256774 -0.6795742752749558
0.5055246194477205 -0.670853828439726
0.517155639273553 -0.6619290330296463
0.5600951480343553 -0.6916599056967041
0.5720809726210201 -0.6817795543758904
0.6166954872510768 -0.7094270054094056
0.6289827699773267 -0.6985561359487505
0.6410784584587487 -0.6874724795220201
0.6529788682314573 -0.676179412318332
0.6646803743153546 -0.6646803743153545
0.7121464023352647 -0.6877117867544073
0.7240401646029788 -0.6751783764618735
0.7728706184964902 -0.6958958306132125
0.8226334424428215 -0.715104341599653
0.7966862208437372 -0.6684991140740009
0.8470890979880984 -0.6859592262443228
0.898332259111663 -0.7018540818712503
0.9104444814539138 -0.686069126393335
0.92227937358744 -0.6700751876134193
1.01574853491835 -0.7112347810752971
1.0694584685960038 -0.7213588454772634
1.081885032649597 -0.7025843551693848
1.136384448849611 -0.7100918140724947
1.191462547975936 -0.715902924124975
1.2037753112603695 -0.695
1.2594523782807299 -0.6981258531547253
1.3155919133598013 -0.6995126285509773
1.3721500472500865 -0.6991453695989021
1.4290825336156756 -0.6970101233946331
1.5316601600919384 -0.714224862341782
1.5895690962981257 -0.7077217589518923
1.6937289303524903 -0.7189452764202635
1.770921162222564 -0.7154985934243917
1.8298176359345153 -0.7024011811087886
1.916972946403253 -0.6977210923843643
1.8815819654426404 -0.6478806273697418
1.9401552932421133 -0.6303946685248927
2.0943074155590478 -0.6402940333427933
2.085937880186152 -0.5981330621228881
2.134696076098841 -0.5719900896765707
2.82356056346315 -0.7039927161950328
2.835416888525035 -0.6546075681406468
2.8561909941427124 -0.6071021371878574
3.7890809281079827 -0.7365227221534631
4.146040640181396 -0.7310588279777768
4.652012084203099 -0.7368063303394874
7.5359400031233506 -1.0591072983060978
7.602903521572528 -0.9335191704834294
7.56831162375256 -0.7954616054668423
7.680661122287358 -0.6719707765844437
8.539148270224096 -0.5971154152497116
19.133741885897635 -1.0027569216148051
8.708673424812169 0.1520104600687396
8.704694103336324 0.3039746162787839
16.73703100248666 0.8771506266317399
13.177821103932278 0.9214830181598966
13.109922226887372 1.146969574559183
8.645076980795917 1.0614819810588343
1.9508280954208936 0.27417100889132884
1.9457460309724215 0.30817589612925483
2.077944358855759 0.36639765487722303
7.764671021071022 1.5092991534284699
7.590425381694331 1.6133947207458128
5.901806798626207 1.5813843655764028
5.777182792589296 1.6565805084601646
5.747391583337843 1.7571539453836476
4.907451624082992 1.5945276909747286
3.129666485233739 1.0776305912531887
3.0164133127227655 1.0978846600753966
2.9967931690560174 1.150361118040414
3.161696944072745 1.2774084835482604
2.954820579582333 1.2542469224505692
2.191876049503385 1.1168166293592852
1.9954615598611745 1.0610057318961135
1.9154171586352766 1.0617330683394781
1.9572174125528312 1.1299999999999994
1.894339734551668 1.13823414555122
1.9589911021213442 1.2241135003787034
1.895395483556658 1.2308842191339613
1.7492692780911379 1.1798970263232758
1.6874532112353229 1.1815674588831553
1.6665750084123918 1.2108376197224946
1.6052573751950583 1.2096481965356174
1.544501077069175 1.2066964916382903
1.5232060844556632 1.233467966457681
1.4248426642012992 1.1955849540169632
1.403759819214356 1.2202697939223435
1.3450921341140833 1.2111263975095337
1.3237501999306989 1.2344170317131222
1.2660380485960256 1.2225987320078353
1.2091525958289964 1.2091525958289961
1.1531328949619353 1.1941040685621611
1.1321172777037474 1.214047144687823
1.1107568065557047 1.2336204102924742
1.0562550366747168 1.215082424158663
1.0348880515953287 1.2333315534215548
0.9817398100377464 1.2123476998728746
0.9296488277417442 1.1898962379461502
0.9388314361171951 1.245871395673777
0.9169449935762581 1.262066511224918
0.8661004188900794 1.2369195868763778
0.8443812842408277 1.251846734558113
0.7951729911219397 1.224459029200319
0.7736821257804791 1.2381502203883819
0.7262036856231765 1.2086058939899782
0.7049999999999998 1.2210958193360586
0.6835815645473353 1.2332137870665478
0.6384813253888113 1.2008087262881408
0.6174270796457838 1.2117688728961804
0.5961847596331451 1.2223599029668673
0.5029157314714323 1.0785062665736134
0.4840166052602024 1.087119094594695
0.4727846654720212 1.1138108726774527
0.4645121758357311 1.1497079796628162
0.46229465491343724 1.2043187501813903
0.4241049777238293 1.1652188497745264
0.38742610380401626 1.125167104963187
0.3831810730249348 1.1793100802059904
0.34792232862005645 1.1380026595960122
0.34179032121307895 1.1919645029635155
0.3261119968291764 1.2170665411242259
0.3169176832355647 1.2710874014215554
0.29468588119046335 1.2764247848686583
0.2619687304303766 1.2324659769245951
0.2404193341744466 1.2368502511440567
0.2187967038603321 1.2408577687953823
0.19710742595069097 1.2444873091498736
0.16839945216167895 1.1982243631773002
0.15355537269048583 1.2506081510680658
0.13170586371724363 1.2530975881640243
0.1080731210070961 1.2352814256337645
0.08649802744271556 1.236979422322182
0.06489658574125025 1.2383006230956715
0.04153040107597628 1.189275084152724
0.021291935853485718 1.2198141880907973
