# .PCD v0.7 - Point Cloud Data file format
VERSION 0.7
FIELDS x y
SIZE 4 4
TYPE F F
COUNT 1 1
WIDTH 179
HEIGHT 1
VIEWPOINT 0 0 0 1 0 0 0
POINTS 179
DATA ascii
1.2675094371175104e-16 -2.07
0.03612648132517705 -2.06968472897373
0.07224195817417724 -2.068739011929528
0.10833542942289401 -2.067163136941968
0.14788372433754599 -2.1148357865508274
0.18041238748765234 -2.062123025049913
0.21637391896404265 -2.0586603234123255
0.25226954084865527 -2.0545705338975364
0.2880883189873355 -2.0498549022950505
0.323819342633278 -2.044514865031935
0.3681341366538925 -2.087792436385881
0.39879080033697883 -2.0516008134056176
0.43453543380911724 -2.0443284855336534
0.47014770357867813 -2.0364334354011415
0.5056167618033054 -2.0279180679168327
0.5409318042642683 -2.018784976944153
0.5898639414483783 -2.0571000293080024
0.6110568628705199 -1.998676939962744
0.6612963679623876 -2.0352609448716286
0.7129942582611732 -2.070685680562504
0.7319231067169313 -2.010942208481844
0.7848258095042078 -2.0445411340288717
0.8203884395808476 -2.030532641501264
0.8752377278159732 -2.0619308717334666
0.9110900804897929 -2.046341825119426
0.9466649062991669 -2.030129442962096
1.0038699261469874 -2.0582383660250922
1.0396382444035623 -2.0404049403913627
1.0985634569189846 -2.066097367289889
1.1344545113764288 -2.0466101147061857
1.1949999999999998 -2.0698007150448086
1.2309409990350297 -2.0486298486780483
1.29300300472902 -2.0692373546216793
1.328919245436666 -2.046356185786834
1.3923903296421598 -2.064303555662054
1.4282053265141048 -2.0396885902795896
1.4929745408228818 -2.0549031657123664
1.558700909963805 -2.0684659710224884
1.5945632210934553 -2.0409478518414095
1.6614058323715708 -2.051665338246403
1.7290986700567907 -2.060659551990051
1.79760173943399 -2.0679042498103954
1.8668743917412145 -2.07337406308193
1.9368753425774958 -2.0770445125984436
1.9728297721035521 -2.0429250329617687
2.0435385976291225 -2.043538597629122
2.1148590129956344 -2.042295609149452
2.164806956792745 -2.0187151457849954
2.2368659246869567 -2.014083125140163
2.347146794492821 -2.0403435801604775
2.4207004402559704 -2.031208846609464
2.533495834349725 -2.05158447482247
2.60831559443825 -2.0378394833279287
2.7233470892612686 -2.052189228948485
2.7991988005373183 -2.033736972931957
2.916181277668811 -2.041932113409724
2.9928256369237007 -2.018686381529396
3.1534013354747943 -2.047842771656501
3.2310632463559834 -2.018992396728511
3.4372408758154704 -2.0653026803893164
3.5160631393648205 -2.03
3.682148967056856 -2.041048501237079
3.805504125221975 -2.023422435607189
3.9738890978801207 -2.0247976288383787
4.188380255754119 -2.042809544037101
4.404655844998119 -2.053924752059799
4.622540015671561 -2.0580874139635488
4.841855529159836 -2.055245735853579
5.062423845934659 -2.045352000050879
5.330744235299022 -2.046280991903665
5.6005680198840135 -2.038440054220986
5.9189462832517235 -2.0380566469018007
6.238930746896207 -2.027151483099655
6.608065863704576 -2.0202884796341105
7.074886082106027 -2.0286909388131136
7.543880703317623 -2.0213767422506863
8.063157485353532 -2.010370952433238
8.730355780475708 -2.0155614469210295
9.448905823088563 -2.008426933299556
10.267820338862567 -1.9958620916386594
11.335137237170514 -1.9986905249463685
11.121370715101252 -1.7614520763529995
11.298958664341319 -1.5879650819543463
11.424206205391616 -1.4027161425932468
12.938729858741235 -1.3599153071121706
20.282524053147938 -1.7744909223423182
20.310404063290022 -1.4202418054303885
22.7288082110141 -1.1911663640894032
40.83510919200025 -1.4259934352641916
29.56 0.0
38.55412712523045 0.6729647922216532
31.540774500722662 1.101428115930932
11.044842654385587 0.5788356760469596
10.983180193360663 0.7680187759228206
10.56962574675342 0.9247224305526545
10.55187730985738 1.1090469952698048
10.828678514406825 1.3295945365501585
10.457230805910983 1.4696679461382909
9.294147285000246 1.4720483160285724
8.33147359048328 1.469063583062231
7.617426943553872 1.4806778041219881
6.954629441217358 1.4782521217142695
6.29443061851262 1.4531838110613684
5.8799921012325385 1.466046687333987
5.418843885481673 1.4519748430251425
5.152362690229389 1.4774162271791154
4.8389020651729595 1.4794008258970477
4.574581843379688 1.4863717429434968
4.311564704732884 1.4845907843246344
4.050075195587264 1.4741068177336323
3.8370155529034995 1.4728922726311844
3.6716480640844775 1.483442109927012
3.461098248981175 1.4691490431196697
3.252221829207659 1.4479824493498492
3.1358249431468086 1.4622591856228198
3.0199479955652007 1.4729270532113006
2.860130942644661 1.4573095041639452
2.7459670137912626 1.460056560264121
2.632605318489581 1.4592769569414745
2.5201339250127166 1.4549999999999996
2.4086401149729353 1.4472569904972525
2.3406127453917356 1.4625771692836453
1.6018607847757595 1.040260556878702
1.5254291335012768 1.028914942386174
1.5481973637061943 1.0840594647034774
1.5290421193686505 1.1109141268327742
1.9486706445153943 1.4684286564909983
1.8833457011200654 1.4714309260283234
1.7796642517364636 1.4411436955041275
1.7542417747424597 1.4719836261821753
1.3660243402032173 1.187466842472818
1.270777651566344 1.1442133368736478
1.2725554408173567 1.1866771465087473
1.2516512525892527 1.2087055645986553
1.2445079348883237 1.2445079348883235
1.3823701572134044 1.4314862026739161
1.3571767365243719 1.4553938662221493
1.2981133763361852 1.4417009614261447
1.2399515647920587 1.4264011066210391
1.2148685823075596 1.4478239974948683
1.1579495195317009 1.4299485690808265
1.1020340408329286 1.4105392489560322
1.0772488914421663 1.4295575629846544
1.0227463389889033 1.4076895702124086
0.9980229992508199 1.4253245570628459
0.9729956520390994 1.4425253762457726
0.9476719209261473 1.4592867882250375
0.8955635565541162 1.4332012825043599
0.8446624428524889 1.405754373151464
0.8199999999999997 1.4202816622064793
0.7950877772039928 1.434376319708609
0.7699333629688606 1.4480340522886401
0.7218448945858795 1.416700373459505
0.6970101233946329 1.4290825336156756
0.6719630361677121 1.4410293813882735
0.6467112624905226 1.4525372776517353
0.6017259378734815 1.4175774743167582
0.5768941538605048 1.4278631360328524
0.5518866422997623 1.4377138568056906
0.52671102072153 1.4471266360102988
0.49486359477487796 1.4371882349109617
0.4697058314499201 1.4456059047686334
0.4444049911785596 1.453583229063814
0.41896878084183875 1.4611177778262447
0.39340494855583186 1.4682072559593837
0.3677212813114949 1.4748495039395146
0.341925602602675 1.4810424984735575
0.3056301855021061 1.4378769730786944
0.2900296729723483 1.4920733188404494
0.2552628211703874 1.4476673969279459
0.22995866360913944 1.4519018606748526
0.2045844584112959 1.4556940610501083
0.17914793480556682 1.4590428429127433
0.1536568410034509 1.4619471861913618
0.12811894183905745 1.464406206194866
0.10254201640386441 1.4664191538819416
0.07431705786498011 1.4180539393514948
0.05130226015267659 1.4691045157180707
0.024782417140942394 1.4197837271220755
