# .PCD v0.7 - Point Cloud Data file format
VERSION 0.7
FIELDS x y
SIZE 4 4
TYPE F F
COUNT 1 1
WIDTH 180
HEIGHT 1
VIEWPOINT 0 0 0 1 0 0 0
POINTS 180
DATA ascii
9.613477373306724e-17 -1.57
0.02740027810653525 -1.5697608813955344
0.0547922098229267 -1.5690435984199804
0.08216745130142203 -1.567848369564681
0.10951766377827697 -1.566175558907924
0.13683451611382327 -1.5640256760040405
0.16410968733021594 -1.5613993757281892
0.19133486914608155 -1.5582974580768756
0.2185017685073028 -1.5547208679242654
0.24560211011316258 -1.5506706947343663
0.27262763893708075 -1.5461481722291666
0.2995701227411755 -1.5411546780128325
0.32642135458388233 -1.5356917331520747
0.3531731553198683 -1.5297610017128194
0.37981737609147825 -1.5233642902533144
0.40634590081095756 -1.5165035472738373
0.4327506486326887 -1.5091808626231606
0.4736421616508336 -1.5492137046601175
0.5006075308874149 -1.5407115563981488
0.5176533655868792 -1.5033745352029138
0.7387635095834447 -2.0297360608975623
1.2507041439130984 -3.2581956884752343
1.296138813219056 -3.2080561368010843
1.351929704572887 -3.1849467929454436
1.4276456171960592 -3.2065445563255284
1.483390098709855 -3.181140332498641
1.5606012825691158 -3.199706804825034
1.638905704059764 -3.216533552320008
1.694792341657066 -3.187440810220726
1.750162729089277 -3.1573771427732185
1.7799999999999996 -3.0830504374726018
1.8592874504252959 -3.094373955534625
1.9130085438818696 -3.0614536271246977
1.993378868154999 -3.0695342786802517
1.990726736355859 -2.951373758295948
2.041932113409724 -2.916181277668811
2.121904760775828 -2.92055134969356
2.202642984736497 -2.9230059667730917
2.2841040734581926 -2.923519895880938
2.3347786507948967 -2.883211517005362
2.4168814124213878 -2.880327106127357
2.630796706251934 -3.0263854166933157
2.7166702618169642 -3.01716799143822
2.768913341853744 -2.9692960285738312
2.8897788211094286 -2.992453569408789
2.941564209736038 -2.9415642097360375
3.064387549442654 -2.959244658155328
3.1521344539786247 -2.9394129318693683
3.2772686803553093 -2.9508659740425642
3.403740206804702 -2.958826220747188
3.4931626606225397 -2.9311115001706187
3.6215001803894844 -2.9326330222922423
3.7509311871679967 -2.9305486225501327
3.8813685788298433 -2.924821012518955
4.0127242920997395 -2.9154148513706666
4.103951741887848 -2.8736179461187406
4.1534782385007585 -2.8015564463884415
4.117872488612032 -2.6741776619237827
4.121513747320231 -2.575407624173376
4.12297471637716 -2.4773331403173597
4.165582192203149 -2.405
4.206920791340493 -2.331934273384881
4.158683162365546 -2.2112110607215456
4.1520904027177945 -2.115595728786288
4.14344055343916 -2.0208909866976468
4.178078898238956 -1.9482701866246244
4.16576728685026 -1.8547190924256485
4.105451646397884 -1.7426608330621605
4.135239991367872 -1.6707454066349672
4.11708968085266 -1.5804026574947745
4.050075195587264 -1.4741068177336323
4.0279091320530895 -1.3869203379874875
4.003947933602596 -1.3009615463185285
3.978227784806228 -1.2162662916465847
4.143037909494154 -1.1879970035712661
4.308029185249245 -1.1543329411572423
4.570092870759943 -1.1394521282744345
4.832875521334767 -1.1157572295455698
5.096148999823127 -1.0832199091605264
5.408765780796628 -1.0513575645247621
5.82021382030215 -1.0262607300115585
6.1829290121255625 -0.9792797511518452
6.595185337818859 -0.9268928523940356
7.057003138169801 -0.8664910316105983
7.767216002826214 -0.8163672981203729
5.4890327864855175 -0.48022814253959595
5.44669971441864 -0.38087034664292346
10.445664933532843 -0.5474341023011933
5.606582539577127 -0.19578617650103072
18.307211298313522 -0.3195535618666615
18.46 0.0
18.507180837344805 0.3230440431541183
23.745526049973716 0.8292120416514243
35.261608872184006 1.8479826149383494
35.822525044830286 2.504954972151543
35.57411266885624 3.1123315735188775
35.41492469406421 3.722258576961145
35.49345038269367 4.358047720168072
18.379375355843546 2.583052753818814
18.183342350356487 2.87995850139065
10.498050647110137 1.8510895739294777
10.267820338862567 1.9958620916386594
8.617480362464828 1.8317019961044605
7.658548709211949 1.7681152871427797
6.704743468567136 1.6716802985937047
5.950103089940661 1.5943253178315289
5.392678114213969 1.546325566133365
4.934532540769264 1.5086379963693215
4.527029017564931 1.4709208932247495
4.169736918392988 1.435755561156061
3.9091213024693787 1.4228037962347821
3.6036204462791988 1.3833002852448593
3.3471337149861022 1.3523298022314427
3.1389215502728214 1.332393148148424
2.9781581919148787 1.325961456427109
2.7733018283321487 1.29321188092654
2.6154906747305757 1.275660037156216
2.5037283329693136 1.2757133042681266
2.392787976647692 1.2722679351497646
2.282757435633823 1.2653531088429397
2.130422493309719 1.2299999999999995
2.0229148296569845 1.215489856787728
1.9165886973135227 1.197617537167043
1.811528426762116 1.1764203156324589
1.7492692780911379 1.1798970263232758
1.671070170349543 1.1700959301561344
1.650394668524893 1.1990819146766452
1.5892846649941126 1.1976118960725766
1.4893403243167043 1.163600188365494
1.4688058671536752 1.1894155390841925
1.3712195531829707 1.1505898213389054
1.350930148598762 1.174345661893008
1.2930719963306658 1.1642872550644134
1.2359877557363983 1.1525772285056224
1.1797172725553875 1.1392397275527557
1.1242997820866107 1.1242997820866105
1.1045068090298056 1.1437502825384556
1.0502774744962478 1.1262847004935226
0.9970046034746989 1.1072857899613173
0.9447250017463305 1.0867817955207917
0.9256141579486168 1.1031039980913282
0.9062213631117658 1.119090184498038
0.8865525244689481 1.1347354851936795
0.8365228821813468 1.1101033589657372
0.7876322380719141 1.0840827724624296
0.7685924247104016 1.0976637393472493
0.7213588454772634 1.0694584685960038
0.7025843551693851 1.081885032649597
0.6835958508608343 1.0939820440417896
0.66439911663397 1.105745817905725
0.6449999999999999 1.117172770881926
0.5769234480931411 1.0407974514958809
0.5586711597152099 1.050707635502123
0.5402486946900608 1.0602977637841577
0.5216616646790019 1.0695649150960087
0.5029157314714323 1.0785062665736134
0.4636797731064124 1.0414418217125647
0.4649700429022357 1.095400775608404
0.42705151649413986 1.0569895942061374
0.3906210650043772 1.01760266488195
0.372801956224979 1.0242649566566402
0.35486928835830067 1.0306152474032555
0.3368285238686927 1.0366516027617174
0.304066572911646 0.994556946201557
0.3004447178405291 1.0477752485727676
0.2691718069066218 1.004562859340631
0.2515987714236544 1.0091075553270363
0.24519664923481302 1.0620633706159064
0.22662374299135757 1.0661808847998482
0.19844135519160672 1.0208922707855705
0.18059410477360743 1.0242000631326964
0.16269184364184017 1.0271958742189433
0.14474002499846786 1.0298787914912333
0.1267441171413534 1.032247997706975
0.10348317863497714 0.9845766764145906
0.09325664473999422 1.0659283269581679
0.07254673269389048 1.0374666122702172
0.05338267536780262 1.0186021254496653
0.0355974866365511 1.0193786435594776
0.017801454566029044 1.0198446490595192
