# .PCD v0.7 - Point Cloud Data file format
VERSION 0.7
FIELDS x y
SIZE 4 4
TYPE F F
COUNT 1 1
WIDTH 180
HEIGHT 1
VIEWPOINT 0 0 0 1 0 0 0
POINTS 180
DATA ascii
1.126675055215565e-16 -1.84
0.032112427844601825 -1.83971975908776
0.064215073932602 -1.8388791217151363
0.09629815948701691 -1.837478343948416
0.12835191168919086 -1.8355178524780766
0.160366566655691 -1.832998244488812
0.19233237241248238 -1.829920287477623
0.23033305903572873 -1.8759122266020984
0.2630371608145237 -1.8716066499215678
0.2956611389260364 -1.8667309637248104
0.32819505579049846 -1.861286653193073
0.36062900126166986 -1.8552753767160848
0.4033486801864533 -1.8976063454235828
0.4251574927099051 -1.8415594224440945
0.46932847746335526 -1.882373708975433
0.5150498997540163 -1.922192394315246
0.5347364702849784 -1.8648476901203386
0.5818196923982462 -1.9030464643664404
1.146453049131055 -3.5284196754550194
1.1264658144217623 -3.2714942715736357
1.1662886887405308 -3.2043518368799475
2.3867305439717006 -6.217645640471364
5.435541670464886 -13.453437729764083
5.669508674379362 -13.35652542359491
5.291643726416162 -11.885226403930236
5.28695445437615 -11.33791041582849
5.3086745876157275 -10.884395900682911
5.316228751950094 -10.433686398245788
5.33319695324772 -10.03028465487741
5.337753918912171 -9.629562975604747
5.3549999999999995 -9.275132074531339
5.361546359813665 -8.923111600308989
5.383979724609362 -8.616168656949288
5.533532595752675 -8.520892970325507
4.730771963362519 -7.013657863815653
4.795099007894745 -6.848111090255971
4.766938396091957 -6.561127824380823
4.880719837763111 -6.4769339864835445
5.054580712423656 -6.469568287111188
5.229652449624149 -6.458082939707428
5.598680080369759 -6.672247099566299
6.0751066084520975 -6.988610712862869
4.690605550575596 -5.209445226596533
4.712608668031866 -5.053654078188467
4.730623502825771 -4.898704040306214
4.6739758236430795 -4.673975823643079
4.790803070255417 -4.626424747256922
4.943951022945593 -4.6103089140224895
5.097973502774925 -4.590235959621767
5.32824963637277 -4.631776744672981
4.642229325301006 -3.895292914700428
4.631789930283547 -3.7507495306570307
4.617743016135392 -3.607776245408357
4.600140537872407 -3.466454533355798
4.538585338443456 -3.2974752653607746
4.595442968461244 -3.2177638079293684
4.56799702477828 -3.0811528981238148
4.579141300982015 -2.973729131182047
4.5879402002062655 -2.8668632195016386
4.508700001693111 -2.709100274026884
6.936863484313353 -4.005
6.9182418834726205 -3.8348440961485264
6.939968079871166 -3.690046483497102
6.78055964907348 -3.4548677030179515
6.794882990021702 -3.314085869725425
4.631232791757282 -2.159579317494974
4.5311854699073 -2.0174137496559688
4.565704073124104 -1.9380263973067973
4.552472725922926 -1.8393183736721275
4.537200872776401 -1.7416682347901598
4.566906137019514 -1.6622178965627503
4.547944348632714 -1.5659828229389237
4.574581843379688 -1.4863717429434968
4.552010638384049 -1.3916893144802267
4.527542587869482 -1.2982519458980657
4.549510641821512 -1.2190377024328725
4.570092870759943 -1.1394521282744345
4.540564501899197 -1.0482719132424103
4.558167819419534 -0.9688684792107588
4.623464034038498 -0.8987103682235262
4.983127230241772 -0.8786597789946675
5.787853675887508 -0.916705965135753
5.753457479388524 -0.80859571657798
5.667438525871949 -0.6958739508433919
5.6289939277844265 -0.5916311020949182
5.538842521390105 -0.48458592967697883
5.646212524470606 -0.3948216413917485
4.8034080621695 -0.25173594952856015
4.657161253908987 -0.16263165463365475
4.709282644186603 -0.08220083431960545
4.69 0.0
4.059381642334948 0.07085677013537114
4.057526757697528 0.1416919566121541
4.304093294792213 0.2255679714070882
3.850597234002921 0.26925998865232403
3.895121269538725 0.3407789541433439
4.7339242219529805 0.49755548515403114
4.674892374230627 0.5740046074382444
3.0797336937862836 0.4328283439858034
3.0717107392508782 0.48651118627511797
3.1612328871691875 0.5574106503108465
4.721626752383263 0.9177912677611807
2.7975021380986838 0.5946274357387918
2.6892613788072492 0.6208649099890676
2.82356056346315 0.7039927161950335
3.0523256110734556 0.8178681825239661
2.8933977047743396 0.8296684410091673
2.68721636425613 0.8215644902708902
2.5298103333451087 0.8219852050373602
2.420527553534251 0.8334544754103211
2.264659216094039 0.8242685454148618
2.1565707852085363 0.8278299634496438
2.0490763185925998 0.8278805714491658
1.9422652407846488 0.8244426811123678
1.8362263698616275 0.8175406525823585
1.821678651943666 0.8494627060988057
1.7166966284314087 0.8372888903671382
1.6127218087809458 0.8217228045285797
1.5539877634317114 0.8262699505031681
1.4518687138513968 0.8047839696089195
1.3943009000929465 0.8049999999999998
1.3800393541304008 0.8292113006051874
1.365357434811846 0.8531700154154599
1.3083260859948613 0.8496368946234425
1.251846734558113 0.8443812842408277
1.2778771890908271 0.8947792407076323
1.1811648117874232 0.8581664683470107
1.1260760691666827 0.8485591826443883
1.0716946249051418 0.8372996064428954
1.018061209508632 0.8244097122752869
1.04182044264181 0.8741911491736936
0.9886695500918313 0.8594373279775644
0.9735197213753863 0.8765610943301044
0.9215056640401549 0.8593179336787481
0.9063681484267002 0.8752695467783367
0.8555992052357225 0.8555992052357224
0.8752695467783365 0.9063681484267007
0.7911180976724982 0.8483702938782377
0.7427349730583328 0.8248907562799076
0.715104341599653 0.8226334424428215
0.7456336272363857 0.8886115540180144
0.6985456340653196 0.8626320172172378
0.6833842376114809 0.8746919365034614
0.6680146756987735 0.8864854161524952
0.6524416300446453 0.8980088637561917
0.636669844349661 0.9092587691607811
0.5647848325054543 0.8373279482805922
0.5773173771159289 0.8889908020221494
0.5352184568755369 0.8565285771179902
0.5201884556591548 0.8657389737091333
0.5049999999999999 0.8746856578222831
0.4654172354364836 0.8396349188538199
0.4413032690187372 0.8299707372873913
0.4131313547629877 0.8108159370114149
0.4208363009175141 0.8628422844472003
0.40571353127107146 0.8700554755551839
0.39046717735276837 0.8770036393368967
0.37510188334970274 0.8836846593143427
0.35962232967927565 0.8900965003841158
0.32611483408622316 0.8495581881124536
0.3112383304263586 0.8551202849151766
0.2799886128331546 0.8131459750154125
0.2812054648812022 0.8654614298285898
0.25143966606155344 0.8224220901282105
0.23704812600261926 0.8266850585069543
0.209643426533042 0.7823999192941453
0.2080528302157142 0.8344543245973569
0.18221035401853078 0.7892397524760406
0.16840846956238498 0.7922995565943827
0.1545552862550014 0.7951180185926079
0.13718206035687489 0.7779981248796445
0.13140495063379398 0.8296582060999157
0.1169054048064548 0.8318251777429191
0.09627678129006652 0.7841114597966444
0.08780390914482909 0.8353983921093495
0.06885303677064994 0.786993811492479
0.055107614257859115 0.7880755997052612
0.042915484119213865 0.8188762184987505
0.028617587296050885 0.8195004781556585
0.0134383529567082 0.7698827252704213
