# .PCD v0.7 - Point Cloud Data file format
VERSION 0.7
FIELDS x y
SIZE 4 4
TYPE F F
COUNT 1 1
WIDTH 175
HEIGHT 1
VIEWPOINT 0 0 0 1 0 0 0
POINTS 175
DATA ascii
1.0287033112837766e-16 -1.68
0.028447422492772264 -1.6297517431049178
0.05863115446020181 -1.6789765893920807
0.08792440648814585 -1.677697618387684
0.11719087589013076 -1.6759076044365047
0.14642164781606568 -1.6736070927941324
0.1756078182896578 -1.670796784218699
0.20474049692064777 -1.6674775347574209
0.23381080961290998 -1.6636503554858382
0.26280990126758796 -1.6593164121998314
0.29172893848044307 -1.6544770250605094
0.3205591122325954 -1.6491336681920754
0.3492916405738359 -1.6432879692327933
0.3891653240148867 -1.685660212078457
0.41852487938742505 -1.6786116064574739
0.4477569480273609 -1.6710516794800883
0.47685262556340857 -1.6629827339732917
0.5058030491703346 -1.6544072278160513
0.534599400268659 -1.6453277731906155
0.5795113149337391 -1.6830230645667839
0.5985352508199204 -1.6444620863753396
0.6450623091815407 -1.6804447676949632
0.6555615384778464 -1.6225717454918778
0.7033160312806928 -1.6569087362143926
0.7321259575364407 -1.6443818237566814
0.760712871133259 -1.63135401666597
0.7890680642203395 -1.6178292833385004
0.8171828995311844 -1.6038117435390622
0.8685223911538982 -1.6334530467890147
0.8968977974557237 -1.6180464582078822
0.9499999999999997 -1.6454482671904336
0.9785723423291031 -1.6286178713340131
1.0333425652547494 -1.6536937875050306
1.0620461182793028 -1.6354076074935766
1.1183858069414938 -1.6580751451100832
1.147152872702092 -1.6383040885779836
1.2049597671995698 -1.6584848384686421
1.2337207974616988 -1.6372027955969501
1.2805758686773696 -1.6390623675019815
1.2901068016521666 -1.5931492209867901
2.3911699080339264 -2.8496853284025985
2.3749336849456366 -2.7320486804064346
2.4557093253370095 -2.727341509502037
3.284700128610083 -2.957557280106153
3.184874428540098 -2.7685691023399404
3.1944053278061384 -2.6804243323928687
3.279555957348417 -2.6557320502303137
3.3648059179007026 -2.62887449964056
3.3702418523995754 -2.5396593977016435
3.373600866543531 -2.451064502059613
3.3339488202561967 -2.3344560959487577
3.37418292029902 -2.2759151171259395
3.3295221547433336 -2.1622169690096573
3.32434853693319 -2.0772835157941634
3.317237453717175 -1.993197349901909
3.3515183126457773 -1.935
3.209854325201582 -1.779251306304057
3.196270286149316 -1.6994870572849248
3.1808932913524735 -1.620746084070182
3.298574149917943 -1.608822108715914
3.6886726932391656 -1.7200563252846466
3.6724527397232554 -1.6350813051647164
3.7924799962240545 -1.6098122493758076
3.8199974808151644 -1.543379164873557
3.7996723358436113 -1.4585575546493723
3.824548966598647 -1.392021983335472
3.8482606026892197 -1.3250623886406279
3.8232471955065166 -1.2422483173872885
3.7965298811732513 -1.1607156677492647
3.816208932875126 -1.0942803025934864
3.7864292390531475 -1.014570656801881
3.803559247001906 -0.9483338307506971
3.7708121507188603 -0.870560580310757
3.7854312148398277 -0.8046182434647289
3.749815840770076 -0.7288903623384013
3.7619656165066346 -0.663336038687674
3.7729694610734263 -0.5975796564536819
3.7828240225927985 -0.5316412456674499
3.7915262992698504 -0.46554089180766317
3.7493475455383902 -0.3940723065190533
3.7556540118058805 -0.3285771501586709
3.7608164694795376 -0.26298190601535193
3.7648333460247434 -0.19730655503589853
3.7177338765110366 -0.1298261277333038
3.7194334259817756 -0.06492295194669476
3.72 0.0
3.7194334259817756 0.06492295194669476
3.6277887020793176 0.1266851730300787
3.7548470506771974 0.19678319547346906
3.750840828976939 0.2622843412779115
3.7158062238822107 0.3250909204487654
3.799073640306804 0.3992987296824368
3.7915262992698504 0.46554089180766317
3.7828240225927985 0.5316412456674499
3.822353878103183 0.6054013797056935
3.811206004157245 0.6720184475710205
3.7988971999424597 0.7384308121072286
3.8343385948765176 0.8150138280056168
3.819530653958122 0.8818081330279511
3.7356385461625865 0.9313992980587212
3.6898366564242404 0.9886887522916298
3.7008575293625277 1.0612038198954465
3.605268929980644 1.1022413268047173
3.8232471955065166 1.2422483173872885
3.8009846739092534 1.3087839809177697
3.730579704520056 1.3578199690029051
3.7996723358436113 1.4585575546493723
3.819997480815164 1.543379164873558
3.792479996224054 1.6098122493758085
3.8094845583696455 1.6960918016260873
3.8246188612946623 1.7834490645457513
3.8378505776974423 1.871844796789361
3.8045978582843305 1.9385394338878648
3.7701862215076174 2.004643573095754
3.77835713484219 2.094377559464176
3.7845310145379973 2.184999999999999
3.788679469103336 2.27646829110244
3.7907749898192242 2.3687391111224256
3.790790967113316 2.4617684382679226
3.7472498279487882 2.5275519236877755
3.743524842400692 2.6212443141242816
1.2701566811686675 0.9228228460991829
1.2378850405733037 0.9328132858856751
1.182016130410083 0.9234922129884875
1.1657189421854566 0.9439805865747559
1.149066664678467 0.9641814145298091
1.0943288913230194 0.9512855920362353
1.0775599969422214 0.9702393792203445
1.0238951822668387 0.9547977040874978
1.0070757204741112 0.9725217186425963
0.9333809511662429 0.9333809511662426
0.9169490490058763 0.9495285364470197
0.900237835282498 0.9653868861373051
0.9033263185844588 1.003245514394482
0.898800869716995 1.0339521249051977
0.8999026535611552 1.0724622203665692
0.8810485474697722 1.0880043460397593
0.8311429916896389 1.0638145173690747
0.7823595300976627 1.0382261630614809
0.7641208279802151 1.0517220926874318
0.7456493672563598 1.0648976575756894
0.6989911293384334 1.0362969656938021
0.680798793768784 1.04833820993178
0.6623990802915061 1.0600601201955324
0.6180456898920651 1.0286007608425347
0.5999999999999999 1.0392304845413265
0.5817715442956045 1.049543648567275
0.5633658753430687 1.0595371114307124
0.5447885996874562 1.0692078290260414
0.5041268188074388 1.033613153244042
0.48601100100180433 1.0422539550921472
0.4677471395371704 1.050577276288991
0.4298042413382011 1.0125553387976844
0.41206725275750344 1.019902240023466
0.41212314197709515 1.073617490471782
0.37622215765823575 1.0336618828644992
0.35812496990287224 1.0400704331592485
0.3399186938124422 1.0461621679246689
0.32160887519501025 1.051935231559339
0.3032010913986991 1.057387865532151
0.2847009496127731 1.062518408917975
0.2661140851596345 1.0673252989035962
0.24744615977825168 1.0718070712637588
0.22870285989953518 1.0759623608071864
0.20034944514537217 1.0307085426200473
0.18233058655027673 1.0340481406628186
0.16425618829224248 1.0370727576248946
0.15030694903687047 1.069489514240896
0.12796281057540487 1.0421734592233882
0.11289074032906599 1.0740836469977353
0.08977041503008788 1.026080539034498
0.0753369916436555 1.0773691742806102
0.05652283274237925 1.0785198975349397
0.03769145643870117 1.0793420931806235
0.01762693050165621 1.0098461721079552
