# .PCD v0.7 - Point Cloud Data file format
VERSION 0.7
FIELDS x y
SIZE 4 4
TYPE F F
COUNT 1 1
WIDTH 179
HEIGHT 1
VIEWPOINT 0 0 0 1 0 0 0
POINTS 179
DATA ascii
7.164183775012016e-17 -1.17
0.02041931553162181 -1.1698218033329777
0.04083241114192626 -1.169287267612342
0.06123306880424444 -1.1683965556628513
0.08510289796783305 -1.2170281413169854
0.10197221901476002 -1.1655477967673422
0.12229830202315453 -1.1635906175808797
0.14258713178402255 -1.1612789974203466
0.1628325281232766 -1.1586136404276373
0.17833529014586325 -1.125964708278457
0.20316836787030856 -1.1522250710242834
0.22324652459055755 -1.1485038046337668
0.2536522627976665 -1.1933400728952428
0.25644420195200623 -1.110781873855168
0.2757909609836211 -1.106137127954636
0.3157592350250753 -1.1784295080726632
0.336277574096739 -1.1727392690447491
0.34792232862005673 -1.1380026595960122
0.3770007331374359 -1.1602889498800872
0.40370451152687437 -1.1724430337431528
0.4241049777238293 -1.1652188497745264
0.4551272959225315 -1.1856471416514462
0.4645121758357311 -1.1497079796628162
0.4845065993266994 -1.141426018281026
0.5043534374139924 -1.1327963674768249
0.5451775576455022 -1.1691370452772785
0.5654987793579099 -1.1594443197259254
0.5856477446640155 -1.1493984162029947
0.6056183159937992 -1.1390023947880157
0.6496448911300917 -1.1719904075667904
0.6949999999999998 -1.2037753112603697
0.7159029241249754 -1.191462547975936
0.7365877772841548 -1.178786853657432
0.784280210421639 -1.2076856178414104
0.8052377809978755 -1.1938141044792598
0.8259500683455063 -1.1795789437761481
0.875800025915785 -1.2054353216186717
0.8666136333389495 -1.1500351344681017
0.917335598235231 -1.1741360228740156
0.9376873826642577 -1.1579474825708866
0.9898929189172706 -1.1797084424032263
1.0431338560949066 -1.1999882325542075
1.0639176641105847 -1.1816002725090569
1.1184773105024977 -1.1994200706554392
1.1392397275527555 -1.1797172725553877
1.2303657992645927 -1.2303657992645927
1.2516512525892531 -1.2087055645986553
1.3091231258983154 -1.2207770645118723
1.330229237604536 -1.197743785382356
1.403759819214356 -1.2202697939223437
1.4248426642012992 -1.195584954016963
1.5076631652265235 -1.2208815586366846
1.5681413996773768 -1.2251663358980598
1.6292164404964773 -1.2277026472301784
1.6908455182436402 -1.2284711772912689
1.7529853747784425 -1.2274535737912387
1.7907211567188903 -1.207856671496813
1.8953954835566582 -1.2308842191339608
1.9589911021213442 -1.2241135003787034
2.022914829656985 -1.2154898567877275
2.130422493309719 -1.23
2.1952954649198833 -1.216872146818306
2.357470072933335 -1.2534890726383283
2.4591780067598954 -1.253013779281149
2.5705509724156177 -1.2537414798167614
2.6826710496284836 -1.2509500547524701
2.795449100386359 -1.2446141278119485
3.000845822254955 -1.273783478875032
3.1153377513444056 -1.2586781538774638
3.2581956884752343 -1.2507041439130981
3.48625962311572 -1.268894731738231
3.744253559373295 -1.2892498916503405
4.003947933602596 -1.3009615463185285
4.31293444939329 -1.3185963882995426
4.623668757463314 -1.3258156814797657
4.93588097233714 -1.3225653204738808
5.39484423809454 -1.3450857395341518
5.855964089359263 -1.3519558366066278
6.416648260813764 -1.3639006917645016
7.1266133518300405 -1.3852733064337157
7.986790876929007 -1.408286720878805
9.145994033910975 -1.4485831462725378
10.457230805910983 -1.4696679461382909
12.51600697219707 -1.536772420338909
15.474760691930333 -1.6264628884446868
19.88404617391124 -1.7396286252432551
19.961256645699088 -1.3958270396199448
19.932645513701296 -1.0446256866091603
19.8978713659502 -0.6948489793467952
20.00695238007939 -0.34922265281004355
19.96 0.0
19.956959995321572 0.3483500324881794
19.997810448652107 0.6983389290170454
14.374897964244067 1.0051907866528471
11.66543991465434 1.0205937475750786
10.203794646478483 1.072462033126126
9.985014285511701 1.2260055946557833
9.962096771540198 1.400081395658258
10.034913540446599 1.5893741648087456
10.054887158254644 1.772947893979359
6.243148886727143 1.2135452105948255
5.878667080410171 1.249549261814734
5.4174975602059074 1.2507278621518898
5.103755520211741 1.2725091708542529
4.790992098393779 1.2837424637085038
4.479479503072566 1.2844700781072158
4.217303973796987 1.289359217827269
3.9563951077878388 1.2855106965997811
3.79152948815326 1.3055282993731983
3.5802288851943107 1.303096746070798
3.4169043609797587 1.3116266953357993
3.2080561368010843 1.2961388132190559
3.092896307600199 1.3128565917239603
2.9781581919148787 1.325961456427109
2.818617217683981 1.314342794013575
2.7503097816754507 1.3414157091745773
2.5928289853881505 1.3211123542420813
2.5252301155765307 1.342688669567648
2.4401889829189143 1.3526188404872803
2.346928844255829 1.3549999999999995
2.2372066548325127 1.3442493755152416
2.1710031261604508 1.3565933164370045
2.063129597145743 1.3398120261369668
1.9979805498576506 1.3476548973645
1.9577733858506903 1.3708476828790006
1.8526489171186298 1.3460282277497635
1.8288753180083004 1.378156403018191
1.7651440880790572 1.3790817047294748
1.7019496555907665 1.3782116563991436
1.639335108274613 1.3755654847291943
1.5773430226655933 1.3711633705901598
1.4565638579356925 1.3114959884633623
1.491961551303108 1.3912766545274968
1.4314862026739155 1.3823701572134048
1.3717871555019023 1.3717871555019021
1.3476372386904545 1.3955192126569835
1.288976900518122 1.382258496060232
1.2646568460182421 1.4045437201522748
1.2071486133425335 1.3886656276099005
1.1505898213389056 1.3712195531829707
1.126483499979209 1.391091271007978
1.1020340408329286 1.4105392489560322
1.0471581402845638 1.3896257874822897
0.9933570763742796 1.3672387204936611
0.9693441774332676 1.3843669548483963
0.9450360068655621 1.4010734976180206
0.8932080174246445 1.3754197314304952
0.869067593342456 1.3907988776965385
0.8189105391069863 1.3628960081163586
0.7949999999999998 1.3769803920172576
0.770847296191676 1.3906453343516394
0.7464597848295662 1.403886672645694
0.6991453695989022 1.3721500472500865
0.653173008715725 1.3392031289857589
0.6423797578458632 1.377587836295708
0.6263744303367326 1.4068600047696052
0.593911315303696 1.3991673772477093
0.5694020219921865 1.4093194589415168
0.5447192833088562 1.4190422482757468
0.5027696106887332 1.381348152555285
0.4785851870520201 1.3899123061309957
0.45425498173117274 1.3980530789538756
0.42978640594242273 1.4057679912656622
0.40518691305098875 1.4130546930293288
0.3804639963007058 1.4199109646449302
0.3556251865315115 1.4263347176257148
0.3194304971682885 1.383605491995034
0.2952346009612181 1.388969593042004
0.28048922320352104 1.442991959668066
0.2465804122870409 1.3984270092773354
0.2221369403571279 1.4025174436450956
0.19762580336329263 1.4061806576130298
0.17305446763530943 1.4094155353306772
0.1536568410034509 1.4619471861913618
0.12376115470167455 1.4145964712902785
0.09905419271665813 1.4165409513689502
0.07431705786498011 1.4180539393514948
0.04955728531755153 1.419134974367116
0.024782417140942394 1.4197837271220755
