# .PCD v0.7 - Point Cloud Data file format
VERSION 0.7
FIELDS x y
SIZE 4 4
TYPE F F
COUNT 1 1
WIDTH 178
HEIGHT 1
VIEWPOINT 0 0 0 1 0 0 0
POINTS 178
DATA ascii
4.469960816887839e-17 -0.73
0.012740256699217026 -0.7298888174641656
0.027221607427950843 -0.7795248450748947
0.040822045869496296 -0.7789310371085676
0.05441004952041786 -0.778099959202663
0.06798147934317335 -0.7770318645115616
0.07839634745074009 -0.7458914215262049
0.09140200755386062 -0.7444096137309915
0.11133848076805238 -0.7922144549932564
0.11732584878017319 -0.7407662554463533
0.1302361332501978 -0.738605814759156
0.14310674653240868 -0.736220387585748
0.1559337681133196 -0.7336107005503542
0.1799608434750921 -0.7794960518281883
0.19353751647973416 -0.7762365810207972
0.2070552360820166 -0.7727406610312547
0.22050988465359933 -0.7690093567506552
0.21927877854205258 -0.7172285669722765
0.2317627457812106 -0.7132923872213651
0.2604545235657254 -0.7564148604794534
0.2736161146605351 -0.7517540966287267
0.2866943596362403 -0.7468643411977615
0.29968527473272977 -0.7417470836534299
0.312584902791419 -0.7364038827619523
0.32538931446064034 -0.7308363661140806
0.3380946093925596 -0.72504622962932
0.3726154747707158 -0.7639749393542918
0.38589192477861484 -0.7573555455601126
0.3990508283680072 -0.7505054539300878
0.41208817720938656 -0.7434267510684863
0.4499999999999999 -0.7794228634059949
0.4377823636735461 -0.7285922055967954
0.47692733780988444 -0.7632432865407833
0.4901751315135244 -0.7548035111508815
0.5032736131236722 -0.7461338152995375
0.5448976145334937 -0.7781944420745421
0.5583959896778494 -0.7685661446562
0.5717242719944459 -0.7587037345449281
0.5848784015593754 -0.7486102159263858
0.6293203910498374 -0.7771459614569709
0.6106482292022124 -0.7277422209630291
0.6560590289905073 -0.754709580222772
0.7025871366768012 -0.780302066751264
0.7160982780656235 -0.7679213867001289
0.7293912889819472 -0.7553067903555837
0.7778174593052024 -0.7778174593052023
0.7553067903555838 -0.7293912889819472
0.8044890717810876 -0.7501981960687484
0.8546165492990034 -0.7695001973126868
0.8679160172561877 -0.7544678833390833
0.9192533317427736 -0.7713451316238471
0.9325751537483651 -0.7551844692598049
0.9850134420084025 -0.7695768441570727
1.0382261630614806 -0.7823595300976628
1.0517220926874318 -0.7641208279802151
1.105855259790139 -0.7743281890739122
1.1606526015770584 -0.7828700648590454
1.1741387951235935 -0.7624946490210377
1.2296697394268177 -0.7683829331381471
1.2857509510531684 -0.7725571123650811
1.34233937586588 -0.775
1.3993915314230332 -0.7756953923941393
1.4568635282172295 -0.7746280785967198
1.5147110911202253 -0.7717838495572296
1.5728895810235424 -0.7671495068808855
1.6766694060178025 -0.7818437842202939
1.7357363695209418 -0.7727996218440203
1.7673693186286854 -0.7502037666994054
1.8729113862249107 -0.756705318700142
1.9791905041740678 -0.7597400530360368
2.0861176181447165 -0.7592847181829847
2.193603095390415 -0.7553181183406035
2.3491095952490295 -0.7632719761061201
2.5055184606231533 -0.7660138663735703
2.7107579825460593 -0.7772973434039374
2.868799704078533 -0.7686925639544865
3.0758374522949086 -0.7668924090509464
3.7220936474795985 -0.8593130275935638
4.029968115023279 -0.8565961661691688
4.044303995804376 -0.7861330609513648
4.35285026831396 -0.7675249452878322
4.859426635728078 -0.7696575679979358
5.466279739453468 -0.768235517299561
6.223264370791089 -0.7641207831502743
7.1804480845589325 -0.7546955047924574
8.637008032455434 -0.7556402896221954
10.44449560622036 -0.7303502801009907
14.20051198421004 -0.7442172977746624
24.255215371753454 -0.8470107849696997
35.91452921001758 -0.6268904392272246
46.57 0.0
25.304575740123504 0.8836552565073258
17.895441262801963 0.9378603358735549
13.786335174590771 0.964034467143813
11.326733717303146 0.9909607950408748
10.064561581126926 1.0578280482686544
9.101648210550923 1.1175418790252019
6.390343563650541 1.0121309888102936
6.371706161988985 1.1235037095050393
6.547453313595919 1.2726959991615543
5.937355936454201 1.2620239632637995
5.865707790007116 1.3542053471500677
5.7926654858676985 1.444273716730017
3.931318112996508 1.05339351356726
3.960398187265874 1.1356259059660363
4.03560607016401 1.2338085939299488
5.868018705541097 1.9066348552934254
2.9972938846498343 1.0320510496291868
2.8378717147734434 1.0329008328435196
2.772733866696689 1.064352810149542
2.7537360480633586 1.1125815824452592
2.6418489294085035 1.1213983387642161
2.6218754634342645 1.1673341656275469
2.6011033487951853 1.2129144111958072
2.4896595082486925 1.214288076605745
2.423537745792361 1.2348541592915674
2.3133226932903885 1.2300154944990345
1.8979247644924886 1.0520368759345513
1.83597385602301 1.0599999999999996
1.817194677488478 1.0918807188093151
1.8402643686594444 1.1499248033860545
1.8199151324415699 1.181866705982609
2.876760376765995 1.9403993750434916
2.8834151958972507 2.0189890559556827
2.888190669918562 2.098393350684129
2.8910605463712 2.1785703838104156
2.8919994657366694 2.259477614445166
2.890982976619932 2.341071854705395
2.887987550558547 2.4233092885182534
2.882990596450989 2.5061454907437373
2.875970474597515 2.589535446608782
2.8669065103471487 2.673433571444994
2.8917459973613764 2.7925266492451692
2.8779245994292486 2.877924599429248
2.896725404814018 2.999646967412176
2.8780330794637434 3.0863126208328993
2.8571876891523247 3.1732284047884725
2.8341750052389916 3.2603453865623755
2.8089818543301774 3.347614216429934
2.813062147992773 3.4738424477126597
2.844356016004542 3.6406096816630553
2.8706576604352696 3.809491382925587
2.862514178664344 3.939912762605994
2.850674888664698 4.0711856601162895
2.8630676657702234 4.244672371481814
2.870247714529193 4.4197938930723835
2.8456664489323105 4.554018276360008
2.8687620772490026 4.7744218649107655
1.3099999999999998 2.2689865579152295
1.318682167070037 2.3789656034191564
1.9342228386778695 3.6377440825787795
0.5765679346692245 1.1315782857192271
0.5348127990826742 1.0965287364849838
1.2340453242828424 2.646418738147018
1.1876709977813371 2.6675527363163942
1.0627886694908246 2.503773201390638
1.0001996044204855 2.475580891693322
1.0105976177177465 2.632696802722109
1.118405868674937 3.07279486996992
1.1785567191349067 3.422777243669527
0.5160583806061623 1.5882643822129063
1.0437669858601695 3.4140079787880366
0.9702434924758371 3.3836411697028823
0.9369249432711259 3.496651491166427
0.8515650725108302 3.4154409564915076
0.7805801585732121 3.3810641248047664
0.326421354583882 1.535691733152075
0.3091105725100028 1.5902360371852158
0.28131004782042696 1.5953885598797772
0.22995866360913944 1.4519018606748526
0.2045844584112959 1.4556940610501083
0.17305446763530943 1.4094155353306772
0.14320399467668554 1.3624949966545346
0.11504558042690875 1.3149770014811042
0.0920785453422456 1.316784546342968
0.06123306880424418 1.1683965556628513
0.04083241114192626 1.169287267612342
0.018674074887893213 1.0698370338173386
