# .PCD v0.7 - Point Cloud Data file format
VERSION 0.7
FIELDS x y
SIZE 4 4
TYPE F F
COUNT 1 1
WIDTH 179
HEIGHT 1
VIEWPOINT 0 0 0 1 0 0 0
POINTS 179
DATA ascii
2.247226876435393e-16 -3.67
0.06370128349608513 -3.6494440873208283
0.129128137799254 -3.6977460599706546
0.19102624028674547 -3.644997801854194
0.2546111291660579 -3.641108783448358
0.3137606738915693 -3.586300913130284
0.3763024677635525 -3.580278823325784
0.44482310342878834 -3.622793453490825
0.507981818504239 -3.6144784509067316
0.5709857973968429 -3.605062443172253
0.6251334396009495 -3.545307910843949
0.6869123833555617 -3.5338578604115902
0.748482086943934 -3.5213313626417
0.8098237956379145 -3.507732233226847
0.8709188241588036 -3.4930646145935875
0.9188076101139486 -3.4290366833261925
0.978512613150347 -3.412479020581032
1.0379195517657154 -3.3948818836687757
1.0970103300310634 -3.376250632847795
1.1557669483229065 -3.356590943377574
1.2141715088061242 -3.3359088037899745
1.2722062208858163 -3.314210514065066
1.3298534066264882 -3.291502683712095
1.367558949712458 -3.2217669870835413
1.4439150829190912 -3.2430863746312326
1.5002948291794829 -3.2173926439801073
1.5342990137617711 -3.1457791620470843
1.588966749088414 -3.1185228346592875
1.643150469750618 -3.090316575006244
1.6968336708621798 -3.061168974987885
1.7499999999999996 -3.0310889132455356
1.80263326218519 -3.0000855524573926
1.8547174248162173 -2.9681683365474907
1.7809696444991385 -2.7424527571815362
1.8285607943493425 -2.7109528622549863
1.8928022399584519 -2.7032017461536726
1.9396913325651612 -2.6697560814373262
1.955898825244157 -2.5955654076537016
1.9701167210421069 -2.5216344115415104
2.0138252513594797 -2.486867076662307
2.024780970512599 -2.413039995824781
2.178115976248484 -2.505635806339603
2.321883204065238 -2.5787125444065584
2.400634227419995 -2.5743650296994796
2.58412913810747 -2.675944057259782
2.807213921310594 -2.8072139213105936
3.0356139574291077 -2.9314583233369684
3.3057187313186507 -3.0826325874824927
3.581958058801041 -3.2252095226496964
3.901848529751731 -3.3918251798809225
3.9604497709251163 -3.323211942079408
7.048713870414726 -5.707935946822025
4.231617746868097 -3.3061021224987845
8.721099769716437 -6.571820052820367
10.088441919855596 -7.32968209608714
11.648342069789464 -8.156256924911876
13.69570069860929 -9.237866765336737
17.377254167829186 -11.284920805511359
18.546811862941038 -11.589334308780192
23.93211103560298 -14.37986305148871
21.148340360415993 -12.21
21.358213248344047 -11.839050926415553
24.696044172264187 -13.131119611121365
23.80769432631319 -12.13062615304069
23.83601810785391 -11.625602812846333
20.364735974713522 -9.496232341313515
20.298980068818594 -9.037688209144278
19.072860563534565 -8.09594898229775
15.363436470171667 -6.207231252901661
13.22883464346535 -5.078073845056905
11.670982350160982 -4.247890180104806
10.372338774324506 -3.5714826543950093
9.529586293277438 -3.0963502836369727
8.673684136584733 -2.651811361835222
8.093823479800646 -2.3208665359791323
7.5052436702660605 -2.0110239804465855
4.676825400650303 -1.166063536790398
4.306715686350739 -0.9942836601998827
4.078875495059969 -0.8669917507100566
3.7988971999424597 -0.7384308121072286
3.663484841205414 -0.6459712209209809
3.427278541865128 -0.5428275936896011
3.3372033916590924 -0.46901335023542046
3.1463713007029908 -0.38632581859431736
3.1824700651784745 -0.33449108245649084
3.187823033893586 -0.27889837679250584
3.2121562418366345 -0.2246158454560831
3.245545987952365 -0.1700918577895677
3.297989729163016 -0.11516833911825335
3.299497394016091 -0.05759294124303566
3.27 0.0
3.349489778773911 0.05846556156489985
3.497867894566835 0.12214823845875356
3.4952033716410082 0.18317584685030366
3.4415959733963937 0.24065983441723265
3.4866814433211095 0.30504509961680404
3.4808266337889564 0.3658496214367876
3.4242842231625614 0.4204492347477587
3.4659382405954964 0.48710585336022894
3.456909192082982 0.547520627640808
3.446827135542728 0.6077686218342563
3.484776501239207 0.6773719335867342
3.4235166025683195 0.7276909178621579
3.4102952267483233 0.7873286902035278
3.4445498282797873 0.8588227293788208
3.380740392011739 0.9058666578588231
3.412479020581032 0.9785126131503468
3.3470666458706244 1.0233009665295785
3.376250632847795 1.0970103300310632
3.3565909433775745 1.1557669483229063
3.3359088037899745 1.214171508806124
3.314210514065066 1.272206220885816
3.291502683712095 1.329853406626488
3.313817472428785 1.406632062561386
3.2887636475133633 1.4642519150728812
3.2173926439801073 1.5002948291794826
3.235658566677001 1.5781361284406792
3.2076234870781244 1.6343657990623686
3.1786113342921367 1.6900976260292075
3.1486309457018247 1.7453146328868134
3.1176914536239795 1.7999999999999994
3.1286606475627097 1.879888973421698
3.0953755509709553 1.934205314451198
3.061147573000797 1.9879324778048493
2.9845352611981504 2.0130944524946885
2.9899049616548194 2.093553992681319
2.9529120294685582 2.145416170867527
2.954951387174983 2.2267155856625793
2.9156397883448713 2.277947458704936
2.875440057390793 2.328485446884398
2.8343644395402188 2.378314155840196
2.7924254468242564 2.427418407264877
2.7496358542663586 2.475783243527776
2.7425763810718897 2.557493850234369
2.6975242512699413 2.60496888922124
2.6516504294495533 2.651650429449553
2.6049688892212393 2.697524251269942
2.557493850234369 2.7425763810718893
2.5092397738457186 2.786793095540228
2.4930243101639276 2.8678964048465336
2.423309288518254 2.887987550558547
2.372537874257887 2.9298402746927805
2.321043761977732 2.9708005410973417
2.2387518861256193 2.97092409737593
2.2335839587113977 3.0742645786248
2.1910619868609955 3.129160809183949
3.282462343373284 4.866450550898095
3.905061881057745 6.0132679721686895
4.514912131266906 7.225369779252749
5.469704355544776 9.103116733456432
10.530064951750441 18.996740039067674
11.441021985092155 21.517432837972052
11.063748478652757 21.713828994470525
10.683104847249814 21.9036109083107
10.32033795170788 22.132036159434993
9.932508823911046 22.308780075632313
9.561190714132527 22.524753763981217
7.29359037380781 18.052269648415347
6.583219233147164 17.149872434753597
4.931930466756144 13.550367591732797
4.7109711949950555 13.681653788922116
4.502377608042984 13.856893442420388
3.0465131632109146 9.96469555713483
2.624067627377832 9.151211345332795
2.269843025549109 8.471169496555127
1.9281175079293513 7.733256938419692
1.6916319286658659 7.327262887184968
1.4595400695406697 6.866596157151315
1.2726959991615545 6.547453313595919
1.080091665088306 6.125504223735934
0.9417354795421901 5.945883810382729
0.7891114824435699 5.614819949764704
0.6605318412558994 5.379600141895965
0.5404121550937695 5.141678199053973
0.38958617008203184 4.452990300470102
0.2978601428874157 4.259598494609449
0.21457742059606932 4.0943810924937525
0.1420409515791794 4.06752066596772
0.0719039145216075 4.119372504044332
