# .PCD v0.7 - Point Cloud Data file format
VERSION 0.7
FIELDS x y
SIZE 4 4
TYPE F F
COUNT 1 1
WIDTH 180
HEIGHT 1
VIEWPOINT 0 0 0 1 0 0 0
POINTS 180
DATA ascii
4.469960816887839e-17 -0.73
0.012740256699217026 -0.7298888174641656
0.02617462252687581 -0.7495431202643218
0.038205248057349095 -0.7289995603708389
0.05441004952041786 -0.778099959202663
0.0653668070607436 -0.7471460235688092
0.07839634745074009 -0.7458914215262049
0.09140200755386062 -0.7444096137309915
0.09742117067204582 -0.6931876481190992
0.11732584878017319 -0.7407662554463533
0.1302361332501978 -0.738605814759156
0.14310674653240868 -0.736220387585748
0.1559337681133196 -0.7336107005503542
0.16871329075789887 -0.7307775485889264
0.18144142169975075 -0.7277217947069974
0.19411428382689055 -0.7244443697168013
0.22050988465359933 -0.7690093567506552
0.23389736377818943 -0.7650438047704284
0.2317627457812106 -0.7132923872213651
0.2604545235657254 -0.7564148604794534
0.2565151074942516 -0.7047694655894312
0.2866943596362403 -0.7468643411977615
0.29968527473272977 -0.7417470836534299
0.312584902791419 -0.7364038827619523
0.32538931446064034 -0.7308363661140806
0.3380946093925596 -0.72504622962932
0.3726154747707158 -0.7639749393542918
0.36319239979163753 -0.7128052193506944
0.3990508283680072 -0.7505054539300878
0.41208817720938656 -0.7434267510684863
0.4249999999999999 -0.7361215932167728
0.4377823636735461 -0.7285922055967954
0.47692733780988444 -0.7632432865407833
0.462943179762773 -0.7128699827536104
0.5032736131236722 -0.7461338152995375
0.5162187927159415 -0.7372368398600926
0.5290067270632258 -0.7281152949374528
0.6018150231520483 -0.7986355100472928
0.5540953277930926 -0.7092096782460497
0.5978543714973454 -0.7382886633841224
0.6106482292022124 -0.7277422209630291
0.6560590289905073 -0.754709580222772
0.6691306063588582 -0.7431448254773942
0.7160982780656235 -0.7679213867001289
0.7293912889819472 -0.7553067903555837
0.742462120245875 -0.7424621202458749
0.7912737803725164 -0.7641242075048971
0.8044890717810876 -0.7501981960687484
0.8546165492990034 -0.7695001973126868
0.8679160172561877 -0.7544678833390833
0.9192533317427736 -0.7713451316238471
0.9325751537483651 -0.7551844692598049
0.9850134420084025 -0.7695768441570727
0.998294387559116 -0.7522687789400604
1.0517220926874318 -0.7641208279802151
1.105855259790139 -0.7743281890739122
1.1192007229493064 -0.7549104196855082
1.1741387951235935 -0.7624946490210377
1.2296697394268177 -0.7683829331381471
1.3028942970672108 -0.7828578738632822
1.5155444566227676 -0.875
1.5480768816367305 -0.8581130278360166
1.5893056671460686 -0.8450488130146034
1.6661822002322482 -0.8489622345129526
1.7256845688944007 -0.8416726018350286
1.8760571191658653 -0.8748198018032477
1.9367163702023142 -0.8622816833206963
2.043520774664418 -0.8674231052461876
2.151066542594947 -0.8690872967249156
2.193914002268424 -0.8421646814314558
2.2082776588468844 -0.8037473368153216
2.2881549529503467 -0.7878749337863192
2.396662421063787 -0.7787228258248674
2.6489641740176086 -0.8098696220819807
2.806884152139891 -0.8048610789856374
3.1102811606508003 -0.8333973252301167
4.191677537512305 -1.045102588990564
4.209278679872217 -0.9717885547654963
4.225597635170041 -0.8981785043327206
4.2406294324939084 -0.8242948600266738
4.205129105362128 -0.7414777186377925
4.1186603802817245 -0.6523317192177627
4.525525074148977 -0.636021071387499
5.280345526731834 -0.6483449069153844
5.937295715348592 -0.6240349257078907
9.284534586215068 -0.8122915224081733
9.297296948421563 -0.6501303352952467
11.254554856684047 -0.5898262268579778
17.209510041268828 -0.6009693332170675
15.567628613585013 -0.27173396822850465
15.72 0.0
17.76729354292907 0.3101292623905284
17.809144537480286 0.6219090312385681
8.857843973273068 0.4642199318749124
7.102656037849949 0.49666609305817283
5.6982336730847845 0.4985308485166054
4.9924999147487314 0.5247328856036211
4.436681297836709 0.544755965021009
4.030391039778191 0.5664345209074663
3.6248162099841554 0.5741144866976473
3.2695617400005306 0.5765119498542087
2.964514094011945 0.5762431660371655
2.807283614106022 0.5967065526469695
2.5528495697373166 0.5893717623809266
2.348115657587911 0.5854509873511962
2.1926516256761848 0.5875192323827224
2.2301271345769 0.6394786654954379
2.218627033834242 0.6783023549567492
2.206451117804756 0.7169194269498779
2.193603095390415 0.7553181183406035
2.227071511262603 0.8105877396818351
2.2592646321232284 0.8672504378996267
2.243784928051625 0.9065479560665073
2.2276217453549054 0.9455693309440427
2.2564572803772243 1.0046395083972268
2.283895623332358 1.0649980195865625
2.2649609966739006 1.1046952899084754
2.245336440954687 1.144056059343658
2.269175313647442 1.2065419163597397
2.947468413059764 1.633808420230156
2.9185056107535585 1.6849999999999994
3.017228898471435 1.812934023683391
3.027531703278441 1.8918117733125415
3.2456550979487906 2.107753065508155
3.2083754057880114 2.16407653643179
3.2110760136128476 2.2484196304961013
3.2522483173872883 2.3628967142157418
3.529968954409034 2.6600224023320544
3.5618086063023826 2.7827898684719754
3.5515570438583577 2.8759941870977563
4.113658659548912 3.4517694640167162
4.090525924807424 3.5558399371285487
3.7677442651703883 3.392492174239412
1.3676314220278492 1.2753369333168723
1.3091984366163447 1.2642782342353753
1.2162236636408619 1.2162236636408617
1.194812397189475 1.2372644565824802
1.1730371793074974 1.2579283667849732
1.1174481126192934 1.241051858547248
1.0628156269646218 1.2226295199608908
1.041315927692194 1.2409919978527444
0.9880330139482447 1.2201191594874443
0.9973715900275667 1.2765774208428895
0.7823595300976627 1.0382261630614809
0.7641208279802151 1.0517220926874318
0.7169705454388074 1.0239400553612399
0.6989911293384334 1.0362969656938021
0.680798793768784 1.04833820993178
0.6359031170798458 1.017657715387711
0.6180456898920651 1.0286007608425347
0.5999999999999999 1.0392304845413265
0.5817715442956045 1.049543648567275
0.5398922972037742 1.015389731787766
0.5220890747004788 1.024657502816623
0.5041268188074388 1.033613153244042
0.4648800879147694 0.996938565740315
0.4677471395371704 1.050577276288991
0.4493407977626647 1.0585805814703064
0.43079758242829896 1.0662614327518054
0.39420474449983023 1.026938469146922
0.37622215765823575 1.0336618828644992
0.3678920145365869 1.068435990427228
0.3399186938124422 1.0461621679246689
0.32160887519501025 1.051935231559339
0.3032010913986991 1.057387865532151
0.2795245687107227 1.0431998923921937
0.2661140851596345 1.0673252989035962
0.24744615977825168 1.0718070712637588
0.22454462608318 1.0563994087925102
0.20607371500666852 1.0601573581234771
0.18754003188028465 1.063592373253185
0.1689492222434494 1.0667034078427489
0.15030694903687047 1.069489514240896
0.1316188908775593 1.0719498437726278
0.11289074032906599 1.0740836469977353
0.0941282021674708 1.0758902739390852
0.06975647374412546 0.9975640502598242
0.05652283274237925 1.0785198975349397
0.03769145643870117 1.0793420931806235
0.017975978630401877 1.029843126011083
