# .PCD v0.7 - Point Cloud Data file format
VERSION 0.7
FIELDS x y
SIZE 4 4
TYPE F F
COUNT 1 1
WIDTH 180
HEIGHT 1
VIEWPOINT 0 0 0 1 0 0 0
POINTS 180
DATA ascii
5.633375276077825e-17 -0.92
0.016056213922300912 -0.91985987954388
0.033852511801426045 -0.9694091022085228
0.05076587755565565 -0.9686706487119366
0.06208326163227166 -0.8878320047312436
0.0845410704652284 -0.9663088571489932
0.09303033230821157 -0.8851244868777632
0.11455718280083864 -0.9329933825428426
0.13082271490246153 -0.9308519846170761
0.14704839713781706 -0.9284270401594295
0.16322928700691458 -0.9257192878314755
0.18890090542277946 -0.9718109116131873
0.20583257390958185 -0.9683661247264675
0.22270154380042648 -0.9646263641373829
0.2274065818636876 -0.9120779826994366
0.25623085465149553 -0.9562665680261776
0.2728809822588292 -0.9516490789789357
0.2894479876755094 -0.9467417084034051
0.30592682443119795 -0.941545951132202
0.3223124729125852 -0.9360633898433236
0.3557009490586956 -0.9772803256173447
0.3727026675271124 -0.9709236435570898
0.3895908571525487 -0.9642712087494588
0.4063603736288447 -0.957325047590538
0.44334294095262244 -0.9957645488304349
0.46065390529736244 -0.9878754878699485
0.47782455000009444 -0.979685510466092
0.4948496447161061 -0.971197111365321
0.511724003436621 -0.9624128762162304
0.5526829670808243 -0.997066466138911
0.5449999999999999 -0.9439676901250382
0.5871434053974618 -0.9771707228004078
0.6041079612258535 -0.9667748296183255
0.6481204516678822 -0.9980179758550545
0.6654395551301888 -0.9865547113404994
0.7112347810752971 -1.01574853491835
0.7288537128426666 -1.0031810730249349
0.7462506287085399 -0.9903080324586431
0.7942033031700994 -1.0165338721526713
0.8118233044542903 -1.0025182902794925
0.8613353969799628 -1.0264995537794306
0.8594373279775646 -0.9886695500918313
0.8966350125208701 -0.9958140661397084
0.947977720486873 -1.0165816452506466
1.000308053460956 -1.0358493124876575
1.0182337649086284 -1.0182337649086284
1.0358493124876578 -1.000308053460956
1.0897170154125642 -1.0161775564931228
1.181600272509057 -1.0639176641105845
1.1999882325542075 -1.0431338560949066
1.2563128867151239 -1.0541716798859244
1.2745193767894323 -1.0320854413217333
1.3711387112756963 -1.0712509670666452
1.3896257874822895 -1.047158140284564
1.4885912696499033 -1.0815248642181505
1.507239761491745 -1.0553806428859247
1.5668810121290289 -1.0568745875597114
1.668954430211394 -1.0838316796799037
1.7300181161591093 -1.081035299035738
1.7914796584674146 -1.0764295765620129
1.8706148721743876 -1.08
1.9766405381350343 -1.0956697417567216
2.0837563191470676 -1.1079528881747023
2.191876049503385 -1.1168166293592852
2.5256112701006592 -1.2318229224773076
2.6826710496284836 -1.2509500547524701
2.795449100386359 -1.2446141278119485
3.000845822254955 -1.273783478875032
3.1153377513444056 -1.2586781538774638
3.164837645825514 -1.2148673489585682
3.298321098958538 -1.2004907030730974
3.5078739154734655 -1.2078578530360513
3.861289456158323 -1.2546089971622862
4.121673498200683 -1.2601220473549952
4.527542587869482 -1.2982519458980657
4.93588097233714 -1.3225653204738808
5.39484423809454 -1.3450857395341518
6.050838102316311 -1.3969460474754007
6.807907301107287 -1.4470653680916055
7.9609964577605545 -1.5474609525037788
9.168560180543658 -1.6166645340791217
10.923833046982224 -1.7301651833449534
13.428035012135695 -1.8871872490184871
18.421656574462936 -2.261895013599536
18.45832637803515 -1.9400482782476467
24.16768337570575 -2.1143983190581848
24.15102565679035 -1.6888042293452705
24.176821036408235 -1.2670535006416719
24.245221463483265 -0.8466617900026747
14.057858593898862 -0.24538083450820652
11.36 0.0
9.208597272390364 0.16073666328738137
7.7053032763172284 0.26907511957628283
6.750735654940919 0.3537910642023008
5.945481739548552 0.4157485835149874
5.289793846867169 0.46279699399006546
4.833376411489809 0.5080083314807966
4.377128528738231 0.5374438044167003
4.0501964011530225 0.5692179829266675
4.0396453130341134 0.6398169620145442
3.8505983142777334 0.6789643746776978
3.5436741322460668 0.6888204733093269
3.042039038282135 0.6466053584432317
2.8646479904685918 0.6613560997709633
2.80415464893763 0.6991542782830401
2.762547863186735 0.7402224689932098
2.605019195992844 0.7469772342640676
2.495955413063523 0.7630901493263428
2.3871518559008353 0.7756326558811178
2.2314238384143876 0.7683408445188897
2.1706899540154483 0.7900665310822949
1.9045040700542917 0.7310706170724127
1.8172803549509031 0.7342289230951877
1.739754173025112 0.7384818328447276
1.6352463691802557 0.7280585911056826
1.576975549443771 0.7353557754288169
1.5639016405605504 0.7627657954129949
1.4612506996689232 0.7445444195728567
1.4038866726456938 0.7464597848295667
1.3906453343516394 0.7708472961916759
1.3336791218280357 0.7699999999999998
1.2771792780461473 0.7674067316159808
1.2635916632730748 0.7895797037074753
1.165752089444139 0.7570482586708878
1.1523622258515078 0.777278135824338
1.097663739347249 0.768592424710402
1.0840827724624296 0.7876322380719141
1.0302398079610076 0.7763413798661426
0.9771333344723352 0.7634202294038163
0.963660992206644 0.7803572849017982
0.9498951094675328 0.7970566360113088
0.8981044004650987 0.7807102444987035
0.8471851010442293 0.7628088912490985
0.8337432198458544 0.7774781304712481
0.8200473723860621 0.791910542323257
0.8061017305526642 0.806101730552664
0.757177623800307 0.78408038236913
0.7433782124681234 0.7971755347648959
0.6958958306132127 0.77287061849649
0.6823013901501276 0.7848979634316829
0.6684991140740011 0.7966862208437372
0.623027187139339 0.7693745018424012
0.6095048605724018 0.7801306460706546
0.5957968729205276 0.79064915494682
0.5819073997695484 0.800926824431198
0.5678406719875355 0.810960523846102
0.5536009744360393 0.8207471968294913
0.5391926446648769 0.8302838622659697
0.49812410837921256 0.7971652103870404
0.48413579041545096 0.8057372626599855
0.46999999999999986 0.8140638795573724
0.45572104303155686 0.822142524711032
0.41782969087944266 0.785823357644445
0.4040515447681967 0.7929958065276475
0.3901503206422787 0.7999267012062586
0.37613025294922253 0.8066139304626184
0.36199561233746236 0.8130554573019146
0.34775070435545363 0.819249319572672
0.33339986814016187 0.8251936305644407
0.3189474750953171 0.8308865795825096
0.2872969203935618 0.789341801460163
0.2734772497440115 0.7942356035034261
0.25957427527495586 0.7988874736879289
0.2455922319670987 0.8032959950089499
0.23153537888627929 0.8074598245881879
0.23034895014124365 0.8596739853972707
0.20321439230372085 0.815048410071837
0.18895888564884672 0.8184708544195975
0.17464582028691775 0.8216439846163968
0.1602795561162977 0.8245668340960377
0.14586446924022137 0.8272385125302548
0.13140495063379398 0.8296582060999157
0.1169054048064548 0.8318251777429191
0.10237024846032389 0.8337387673787104
0.08780390914482909 0.8353983921093495
0.07582549619046258 0.8666893873398186
0.05859543794506538 0.8379538022182523
0.043962203244072746 0.838848809193842
0.03036256213117594 0.8694700195066133
0.014660021407318036 0.8398720639313686
