# .PCD v0.7 - Point Cloud Data file format
VERSION 0.7
FIELDS x y
SIZE 4 4
TYPE F F
COUNT 1 1
WIDTH 180
HEIGHT 1
VIEWPOINT 0 0 0 1 0 0 0
POINTS 180
DATA ascii
4.8373548566320456e-17 -0.79
0.012914780763589862 -0.7398872944157295
0.028617587296050885 -0.8195004781556585
0.04029868630706686 -0.7689447417610219
0.05720030847018287 -0.8180025212130558
0.07146770905307967 -0.8168796524352313
0.08257748598144624 -0.7856722973409359
0.09627678129006652 -0.7841114597966444
0.10994674975845173 -0.7823117743058406
0.12358322738178244 -0.7802737890701589
0.13718206035687502 -0.7779981248796444
0.15073910634747048 -0.7754854749236546
0.16425023574602998 -0.7727366045797064
0.18895888564884672 -0.8184708544195975
0.19111829752373746 -0.7665336237580372
0.20446704563099138 -0.763081402768364
0.21775351109542934 -0.759396739791272
0.23097364673096205 -0.755480757210798
0.25957427527495586 -0.7988874736879289
0.27347724974401166 -0.794235603503426
0.2804565175270484 -0.7705479490444448
0.32253115459077036 -0.8402223838474816
0.3259077362718436 -0.806649953473105
0.33993608178566814 -0.8008392225036232
0.3457261466144303 -0.7765136389962106
0.37613025294922253 -0.8066139304626184
3.774375573853957 -7.738616738635827
3.7953605778226116 -7.448814542214755
3.7839407960542806 -7.116557598442951
3.81060361513621 -6.874510898115651
3.829999999999999 -6.633754592988801
3.816432135083502 -6.351609698202652
3.8207178951214074 -6.114426773287831
3.8179196354553397 -5.879080681297421
3.836063317809324 -5.687197747727586
3.820019066097967 -5.455552614964685
3.826481992424 -5.266700633380908
3.827543547247027 -5.079321843900782
3.8540408355386213 -4.932947317578079
3.845147589314507 -4.748361824502092
3.8310141537317746 -4.565624880989109
3.844505909884373 -4.422598140105444
3.8541922926270233 -4.280514194749791
3.860110717953742 -4.139461951164504
3.8275676212290746 -3.963562299865967
3.8608030252785497 -3.8608030252785492
3.8556613298151707 -3.7233688656602255
3.846920470516837 -3.587311373928742
3.834627299463355 -3.452713928811708
3.856565954938365 -3.3524616381414925
3.8378826600260796 -3.2203659245295615
3.8546439688265757 -3.1214291396071934
3.8691328002090053 -3.0228978438489817
3.8813685788298433 -2.924821012518955
3.8509208932247496 -2.797857800912172
3.8582061286011515 -2.701545015213427
3.8633150881064946 -2.60583893017368
3.866271318228405 -2.5107859514192747
3.8670993184733025 -2.416431844903414
3.8658245261665263 -2.3228217178443438
3.8624733008785963 -2.23
3.8570729084847355 -2.1380104252863465
3.849651504864922 -2.046896013746484
3.840238119251865 -1.9566990538774465
3.8738023395494094 -1.8893796426609235
3.906186562127961 -1.8214847081024141
3.84602637667535 -1.7123612673491186
3.875325433034774 -1.6449780509398422
3.8570848349978357 -1.5583634286101935
3.8370155529034995 -1.4728922726311844
3.8621366714300835 -1.4057027890684988
3.8860813457131926 -1.3380851148189141
3.861289456158323 -1.2546089971622862
3.834782071411772 -1.1724105359381742
3.8546594007126584 -1.1053057968261664
3.8733625634191635 -1.037864370861108
3.8908858623667455 -0.9701068013546671
3.9169676604366455 -0.9043032384623366
3.87346449890587 -0.8233302956383272
4.378057238176582 -0.85100811937939
4.8354060672899415 -0.8526125523446281
5.392778339649452 -0.8541321791196606
6.149564706885152 -0.8642649569620062
7.1066304457518665 -0.8725844987808556
8.363929140047178 -0.879084376080965
10.22095760242131 -0.8942179205909717
13.17782110393228 -0.9214830181598936
21.87997310647271 -1.1466808012829008
26.843637613732913 -0.9374004814291773
32.5550409542921 -0.568250353597952
32.56 0.0
32.60503333904992 0.5691229739198161
19.09835870433492 0.6669293819847945
17.585866107028046 0.9216361894382421
12.329891661211427 0.8621900154773899
5.289793846867169 0.46279699399006546
5.231185169637118 0.549819716787858
5.320047372797487 0.6532196806515903
5.406863655328974 0.7598851312419571
6.578004348363618 1.0418535371679376
6.903502348615578 1.2172737254451818
4.8688708299004135 0.9464126170676624
4.509260439382844 0.9584728946698708
4.150816475985102 0.9582914915048653
3.9394006486805453 0.9822028961346514
3.873362563419163 1.0378643708611088
3.902722485509574 1.1190876646170163
3.930412547008076 1.201647706410448
3.9088422819730813 1.2700598468810338
3.8860813457131926 1.3380851148189141
3.8621366714300835 1.4057027890684988
3.9303735955532195 1.5087290675857143
3.9034440277261746 1.57709375828099
3.8753254330347735 1.644978050939843
3.9373809224396092 1.7530349316566993
3.951501951479794 1.8426156211894495
3.918742041864368 1.9112982000003784
3.795687793042447 1.9339995288904692
3.7172093659360823 1.976475279328601
3.682148967056856 2.041048501237079
3.6892682201217086 2.129999999999999
3.6515327009909977 2.194062199116831
3.9519041280889455 2.469423771326735
3.950138375022947 2.5652498549207783
3.9462188453619986 2.661758220520755
3.8991637308156 2.73022383703098
3.931822592662245 2.8566363261414196
5.518571374426792 4.1585418099806555
4.263138177012365 3.3307285815118113
6.885513218508763 5.575778664701558
6.8637582103460435 5.759376982791394
4.422598140105444 3.844505909884372
6.2498479822648845 5.627388399477999
6.077549260455307 5.667406372119363
5.833845780746459 5.633679384422468
5.805346673541556 5.805346673541555
5.772611058514267 5.977713740814193
5.7356062081256125 6.150684630617223
2.5560789162908386 2.8388132333236453
2.893220317848137 3.3282692487824246
4.7630561877772575 5.676389323511628
4.6003320585743115 5.680936978250457
4.438919237097997 5.681557533504465
4.308995565768665 5.718230251938618
4.120374618570237 5.671209130568381
3.9634131751857273 5.660340626036934
3.836063317809323 5.687197747727587
3.708991828452335 5.711346567708337
3.555758263004805 5.690402725209618
3.352897867664453 5.5801591275707505
2.2299999999999995 3.8624733008785967
3.107629665779021 5.606312322763527
2.9623655611789697 5.571399310939829
1.9566990538774467 3.840238119251865
2.766121936239077 5.671390432147744
2.0539247520597996 4.404655844998119
0.6751828275058286 1.5164854596867172
0.668150229716658 1.574063299403673
0.5956244835313004 1.474222328761192
0.3727026675271122 0.9709236435570898
0.3557009490586956 0.9772803256173447
0.3385908806354428 0.9833393186232896
0.30592682443119795 0.941545951132202
0.304066572911646 0.994556946201557
0.28115010293333914 0.9804869298570853
0.25623085465149575 0.9562665680261775
0.239502676643671 0.9605927690132365
0.22270154380042648 0.9646263641373829
0.20583257390958165 0.9683661247264677
0.18890090542277946 0.9718109116131873
0.17191169589026092 0.9749596754820861
0.15956315434103555 1.0074421074070405
0.14195656297926654 1.0100734301164018
0.12430673027325044 1.0123970746741484
0.10139260936962406 0.964686238507225
0.0845410704652284 0.9663088571489932
0.0690589090066842 0.987588409757226
0.05338267536780262 1.0186021254496653
0.034550501735476066 0.9893969187489048
0.016928834244164876 0.9698522643016995
