# .PCD v0.7 - Point Cloud Data file format
VERSION 0.7
FIELDS x y
SIZE 4 4
TYPE F F
COUNT 1 1
WIDTH 180
HEIGHT 1
VIEWPOINT 0 0 0 1 0 0 0
POINTS 180
DATA ascii
3.91886975727153e-17 -0.64
0.011693112312980012 -0.6698979557547822
0.023382662790675725 -0.6695918541027942
0.03611180980763133 -0.6890543789806559
0.050224661095770326 -0.7182461161870733
0.05577967535850121 -0.6375646067787172
0.07003407038932782 -0.6663296698967431
0.0779963797792944 -0.635229537050446
0.0890707846144419 -0.633771563994605
0.11263281482896625 -0.7111356052284992
0.11113483370683547 -0.6302769619278131
0.131658206809816 -0.6773227565788881
0.13306348212336605 -0.6260144644696356
0.1439686747800737 -0.6235968414625506
0.1548300131837873 -0.6209892648166377
0.18634971247381493 -0.6954665949281291
0.1984588961882394 -0.6921084210755896
0.21050762740037046 -0.6885394242933854
0.22249223594996215 -0.6847606917325105
0.23440907120915286 -0.680773374431508
0.24625450319448156 -0.676578686965854
0.25802492367261626 -0.6721779070779852
0.2584785494569794 -0.6397568596510832
3.54002402411282 -8.33977397227911
3.522339329036431 -7.911303663184922
3.4063031896300378 -7.304840763515399
3.3579229844043335 -6.884762394651619
3.341370078083065 -6.557808018026388
3.337942811407684 -6.277757385226971
3.3257939948898727 -5.999891190976255
3.279999999999999 -5.681126648825917
3.275642156427945 -5.451584032465434
3.237806704464882 -5.1815738675157625
3.21881669693881 -4.9565430565574555
3.220951123991502 -4.775256417917039
3.1604061642942636 -4.513527764032345
3.1799182149022798 -4.376781939568466
3.1354562706221714 -4.160891007346396
3.1460301389141145 -4.026734950930349
3.152895159159685 -3.893501266899424
3.1239477830765816 -3.7229759935582334
3.0900380265452894 -3.554682122849256
3.084692095314337 -3.425897645450788
3.0758126038818685 -3.298405194302458
3.063443413724178 -3.1722885194934514
3.04763022691402 -3.0476302269140194
3.064387549442654 -2.959244658155328
3.04243139873575 -2.837113177859994
3.017167991438221 -2.716670261816964
2.9886499376821773 -2.597993754802409
2.995233772595204 -2.5132995538743685
2.9997834112239077 -2.4291767094523724
2.9629204335612744 -2.3148871472244745
2.9629377422754564 -2.232733735894099
3.001453049131055 -2.1806832860050753
2.99809648209771 -2.099289757044829
2.9513737582959485 -1.9907267363558585
2.943733693488438 -1.9116830129027444
2.9766488175090555 -1.860016617458549
2.9657988604293086 -1.782031739188787
2.9964478970941575 -1.73
3.0261841867023094 -1.6774412860523262
3.010851291648941 -1.6008980290998878
2.993781921272916 -1.5254080791248772
3.019947995565201 -1.4729270532113001
2.9998787750913114 -1.398866446361715
3.0238354647970094 -1.3462982885808985
3.028460967858529 -1.2855054127297103
2.9762601731593876 -1.2024871648650772
2.9967931690560174 -1.150361118040414
3.044604091346343 -1.1081452643751668
3.0162042561618208 -1.03856241271833
3.0338702869815397 -0.9857642120560822
3.0027969337239315 -0.9180471528293933
2.874172470855574 -0.8241556938928274
2.8881182206043143 -0.7738689448565369
2.8526694352514297 -0.7112503730630227
2.8646479904685918 -0.6613560997709627
2.826846566120698 -0.6008647864633246
2.836902560163749 -0.5514379966382147
2.8460944062052813 -0.5018432334574288
2.884049954537802 -0.45678863791747415
3.0797336937862836 -0.4328283439858034
3.334955069514842 -0.4094809938412954
3.6399501370478804 -0.38257417555961143
3.9449310044433124 -0.34513674128072597
4.449135664158816 -0.31111387289879827
4.633641041261222 -0.2428388369672597
4.657161253908987 -0.16263165463365475
5.409176030796077 -0.09441751882570393
14.71 0.0
16.7074549860633 0.2916297115670079
16.649851178138135 0.581425615063667
22.579013780800913 1.1833159706529617
24.50017307438128 1.7132189951557197
22.67339132856813 1.9836647049367029
22.6353183385819 2.379067823971796
22.590350411356493 2.773746255901156
5.4860851008283 0.7710189793187624
5.73846925885775 0.9088842418837413
7.494387000422903 1.32146263204534
7.4701828660367235 1.4520564548155064
7.44370324158426 1.582207967123149
7.463674696254902 1.7231250762740067
7.578009622215532 1.8894100046334057
8.268325073034424 2.215491026077579
5.392678114213969 1.546325566133365
3.547890644622862 1.0846990245213532
3.3382083721959885 1.0846496502560652
3.129666485233739 1.0776305912531887
2.9224440506441747 1.06368264574283
2.623360998457137 1.007013938222294
2.559027438604333 1.0339141978279174
2.402517667510869 1.0198082453570048
2.3386763715650583 1.0412458062740488
2.138886377406494 0.9973790977080504
2.031274544636117 0.9907187917433152
1.9245740922468748 0.9806194794374211
1.8188720412893895 0.9671114193389354
1.7142546259932157 0.9502268556828206
1.6541085212282778 0.9549999999999996
1.5514728142708232 0.9322189155871983
1.4756036873121814 0.9220595197657765
1.434126671186675 0.9313327498756965
1.4176542490691213 0.956219864934977
1.4007499957341758 0.9808157061602891
1.3025173609436655 0.9463342561908819
1.2458713956737766 0.9388314361171957
1.1898962379461502 0.9296488277417441
1.1734904018000263 0.9502737904852543
1.118424886953708 0.9384699101423475
1.101875987125247 0.9578461823261404
1.010676962649256 0.9100176246480475
0.9946410342020721 0.927517769684998
0.9279483424368598 0.8961092978921066
0.9263098833543774 0.9263098833543773
0.9100024653012863 0.9423351384436333
0.893417851681873 0.9580733491211133
0.8431045640121615 0.9363624801015166
0.7938314250785138 0.9131985920695541
0.7777730077207128 0.9269137761739634
0.7614776731703032 0.9403466133629348
0.7141673113777637 0.9140924741837974
0.6379239245411711 0.8465536406501306
0.5936631048153979 0.8171071643186969
0.5793122007145564 0.8273435647318819
0.5815606196095767 0.8621990754572434
0.5664245964156283 0.8722173906632409
0.5511160348025331 0.881970020002683
0.5459403594046576 0.908597338744239
0.5299999999999999 0.917986928011505
0.5138981974611173 0.9270968895677595
0.47416627841374953 0.8917770687875163
0.4812299297239197 0.94446691563967
0.44275485825696803 0.9077819867621587
0.40571353127107146 0.8700554755551839
0.39046717735276837 0.8770036393368967
0.39463843977416646 0.9297099019869648
0.3783526593500713 0.9364556931124552
0.34403323156348814 0.8962372094373137
0.3112383304263586 0.8551202849151766
0.29626702055601245 0.8604219037953783
0.2657546151624548 0.817908604013832
0.2660582512976903 0.8702373279263623
0.25082999379346926 0.8747481433038702
0.22258437878816803 0.8306962106085987
0.2080528302157142 0.8344543245973569
0.19345790673572402 0.8379582557153022
0.17880405410327294 0.8412069366310729
0.16409573602382863 0.844199377764991
0.14933743279356 0.846934667590499
0.1345336399345986 0.8494119729118185
0.11273021177765286 0.802117135680672
0.10237024846032389 0.8337387673787104
0.08780390914482909 0.8353983921093495
0.07321082390803284 0.8368035463970662
0.05859543794506538 0.8379538022182523
0.043962203244072746 0.838848809193842
0.027570602394975854 0.7895187533450857
0.013787401085453867 0.7898796791735492
