# .PCD v0.7 - Point Cloud Data file format
VERSION 0.7
FIELDS x y
SIZE 4 4
TYPE F F
COUNT 1 1
WIDTH 177
HEIGHT 1
VIEWPOINT 0 0 0 1 0 0 0
POINTS 177
DATA ascii
4.4087284769304716e-17 -0.72
0.013438352956708371 -0.7698827252704213
0.026872612460925833 -0.7695309368047037
0.04029868630706686 -0.7689447417610219
0.053712484782976605 -0.7681243187000647
0.06449524963326703 -0.7371840765878916
0.08048691671609316 -0.7657818594335705
0.09018331411980914 -0.7344841522145783
0.10298809471044844 -0.7327983708687621
0.11576150412977088 -0.7308893720404019
0.12849965147352851 -0.7287577372290339
0.14119865657864322 -0.7264041157512713
0.153854651205142 -0.7238292245430161
0.1664637802144602 -0.7210338479410741
0.17902220274375408 -0.7180188374442373
0.19152609337586535 -0.7147851114539105
0.20397164330457937 -0.711333654994356
0.23097364673096205 -0.755480757210798
0.22867257583746112 -0.7037818220584136
0.25719884202115384 -0.7469596747234603
0.2701959132272784 -0.7423571704208676
0.28311068014078733 -0.7375285369327894
0.29593920879857066 -0.732475245107762
0.3282141479309899 -0.7732240769000499
0.3416587801836723 -0.7673781844197846
0.33386842677515255 -0.7159831517589534
0.34631320596337123 -0.7100472965763419
0.38135201978121935 -0.748445480318229
0.3943561127401483 -0.7416759780014985
0.3829995999946063 -0.6909495686401227
0.4199999999999999 -0.7274613391789285
0.43263198292444555 -0.7200205325897743
0.4451321819558921 -0.7123604007713977
0.4847287411633741 -0.7464168054714273
0.4697220389154274 -0.6963915609462349
0.510483028352431 -0.7290453194172027
0.5231288745403011 -0.7200251249937032
0.5356153706053229 -0.7107856039420907
0.5787217868061189 -0.7407301083903185
0.5915611675868471 -0.7305172037695526
0.6042203531053469 -0.7200817765318392
0.6166954872510768 -0.7094270054094056
0.6958958306132126 -0.7728706184964901
0.6751783764618736 -0.7240401646029786
0.6877117867544073 -0.7121464023352646
0.7353910524340095 -0.7353910524340094
0.7481133923521973 -0.7224447052773572
0.797175534764896 -0.7433782124681234
0.81002785977036 -0.7293523609311554
0.86036892145396 -0.7479072930491782
0.8732906651556349 -0.7327778750426547
0.9248036941337954 -0.7488912653493065
0.9377327967919992 -0.7326371556375332
0.9903080324586431 -0.7462506287085399
1.0031810730249349 -0.7288537128426666
1.0567061371327995 -0.7399136028928495
1.0694584685960038 -0.7213588454772634
1.1657520894441393 -0.7570482586708874
1.1787868536574322 -0.7365877772841548
1.2343209130110417 -0.7416548278704778
1.2470765814495914 -0.72
1.3031833636376997 -0.7223663341670422
1.403886672645694 -0.7464597848295664
1.416700373459505 -0.7218448945858794
1.5189619382455923 -0.7408472380735408
1.576975549443771 -0.7353557754288169
1.6352463691802557 -0.7280585911056823
1.7397541730251123 -0.7384818328447271
1.7987366778595675 -0.7267367912268691
1.8764966572593753 -0.7203195785860536
1.9827514298582665 -0.721662502417161
2.136871980854456 -0.7357840290731741
2.196940552641805 -0.7138292570061285
2.3525096996690675 -0.7192343936179323
2.4608299416020962 -0.7056316308915177
2.6659552805578284 -0.714340564482957
2.8720753497769493 -0.7160888109750162
3.0790094047213437 -0.710845331726613
3.3843906985389673 -0.7193744502294475
3.5927554914184503 -0.6983609230781542
3.9983194772295643 -0.7050116013277372
4.3063211649948006 -0.6820542675754067
5.2088100415806595 -0.732050511049944
5.468929295543685 -0.6715000821623623
6.573789728384287 -0.6909331421991889
7.2821832430506594 -0.6371084794853804
8.73866108027606 -0.6110667099985365
12.892307293681549 -0.6756571950964058
17.399394298402456 -0.6076002375905427
20.606860997173225 -0.35969409667241364
35.86 0.0
41.60366259545744 0.7261946318553679
41.93443910172126 1.4643828816369426
20.21064765826404 1.4132661580559807
13.707639045742418 1.199263020207778
12.839277669204408 1.3494624607854082
9.488741209691039 1.1650709229532095
8.773775089050313 1.2330736745061794
8.997840782821704 1.4251179765165032
6.312617696808253 1.1130848188450235
6.243148886727143 1.2135452105948255
5.193963759896508 1.1040110782423023
5.125186540770337 1.1832425458487303
5.006725947584142 1.248316981294286
4.163140311305884 1.115510084391865
4.2391640790879865 1.2155607391529661
4.121673498200683 1.2601220473549952
3.5551498442534313 1.224136260758909
2.9967931690560174 1.150361118040414
3.0226193658877265 1.2212174945358734
3.000845822254955 1.2737834788750328
2.8411263732684886 1.264950959965739
2.727986438980316 1.272080967839505
2.5256112701006592 1.231822922477308
2.414627680550477 1.2303142542941718
2.304493217361799 1.2253207788711753
2.1952954649198833 1.216872146818306
2.0871212231204974 1.2049999999999996
1.9800564646218792 1.1897379530422254
1.7469790780822378 1.0916336843204022
1.6689544302113937 1.0838316796799041
1.5668810121290289 1.0568745875597114
1.482665200163075 1.0381733497953938
1.464320759818655 1.0638913066493765
1.4455302731856 1.0892851919052078
1.5051005393888388 1.1759134178720072
1.4843487863828146 1.2020019469051892
1.5397493306691457 1.292003095469944
1.5169662562477715 1.3186786482709192
1.5308783404834319 1.3784090490992482
1.4334532551735744 1.336716785722497
1.4099060086637558 1.3615304060996347
1.3152186130069785 1.3152186130069783
1.2573316505307848 1.302005038612959
1.2685169497162472 1.360317885011657
1.2445829278274767 1.3822493753879532
1.154663891023293 1.3282888611920787
1.1313061930483095 1.3482382198894014
1.1076038882477137 1.3677768921642688
1.0835641965731588 1.3868989263478306
0.9990129384323999 1.3257349466785062
0.9757235188055053 1.3429682106624128
0.8947792407076317 1.2778771890908274
0.872340929414365 1.2932986131858653
0.8768688463741938 1.3502596143921326
0.8531700154154599 1.3653574348118458
0.8292113006051874 1.3800393541304008
0.8049999999999998 1.3943009000929465
0.8290244506212364 1.4955996992083667
0.8262699505031675 1.5539877634317114
0.8217228045285798 1.6127218087809458
0.8153703330276837 1.6717569261164509
0.8072008799247359 1.7310478732400012
0.7972038204285687 1.7905490969794975
0.8830523503857585 2.080340968802515
0.8840715604615527 2.1881538967776177
0.8815851558814384 2.296607849183116
0.8926725740799956 2.4525977402512207
0.8334544754103207 2.420527553534251
0.5129682106624127 1.5787538170499549
0.47071844460360585 1.5396506571004873
0.40243053949281876 1.4034420760699455
0.3261119968291764 1.2170665411242259
0.26853330411563114 1.0770282561663562
0.29468588119046335 1.2764247848686583
0.2931554840530405 1.379188117034666
0.2785811332497556 1.4331756878335893
0.2361615216270251 1.3393385440966032
0.21275087245471408 1.3432561432093875
0.18927541730568875 1.3467645734885358
0.1596488398607432 1.300235458650132
0.12647944055386096 1.2033714933956106
0.10981623586204925 1.2552053195955994
0.08091750954318552 1.157174298301396
0.05809291142966756 1.1084787835775771
0.0422283910100263 1.209262900693106
0.01937217114538455 1.1098309416235943
