# .PCD v0.7 - Point Cloud Data file format
VERSION 0.7
FIELDS x y
SIZE 4 4
TYPE F F
COUNT 1 1
WIDTH 180
HEIGHT 1
VIEWPOINT 0 0 0 1 0 0 0
POINTS 180
DATA ascii
5.75583995599256e-17 -0.94
0.01640526205104658 -0.9398568334470078
0.034550501735476066 -0.9893969187489048
0.05181259668051453 -0.9886432394070281
0.0690589090066842 -0.987588409757226
0.08628418532018156 -0.9862327511108281
0.10348317863497693 -0.9845766764145906
0.12065064997109601 -0.9826206901249087
0.1377813699504648 -0.9803653880541546
0.1548701203898286 -0.9778114571891864
0.18059410477360763 -1.0242000631326964
0.20798180496043397 -1.0699736299579539
0.22662374299135782 -1.0661808847998482
0.24519664923481302 -1.0620633706159064
0.2757909609836211 -1.106137127954636
0.2821127591617476 -1.0528591506550846
0.314226585631379 -1.0958383333696835
0.3333037433839199 -1.0901874217978602
0.35227937358744005 -1.084204428576475
0.40370451152687437 -1.1724430337431528
0.4070039705575459 -1.1182342187352308
0.4443762574361725 -1.15763972885653
0.4645121758357311 -1.1497079796628162
0.4845065993266994 -1.141426018281026
0.5450271017215725 -1.224150913241085
0.5663084707325373 -1.214452434629111
0.6093358940368176 -1.249323724355842
0.6310467946379701 -1.2384990686218313
0.6525654722723883 -1.2272971540739084
0.6981258531547254 -1.2594523782807299
0.7449999999999999 -1.2903778516388136
0.7674067316159808 -1.2771792780461473
0.8160756669191356 -1.305994068080896
0.8659760656738931 -1.3334862030332242
0.9170763616920249 -1.3596216189902681
0.9693441774332678 -1.3843669548483961
0.9933570763742796 -1.3672387204936611
1.0772488914421665 -1.4295575629846542
1.1328171145992114 -1.4499397866363684
1.1894155390841925 -1.468805867153675
1.2791473432762133 -1.5244284418067662
1.3186786482709194 -1.5169662562477715
1.4118655794171908 -1.5680355817573017
1.473116457734997 -1.579723995497408
1.5699279172373337 -1.6257079487653512
1.7041273426595798 -1.7041273426595795
1.8055428988500144 -1.743592509852083
1.9088331612260352 -1.780015719763121
2.051079718317608 -1.8468004735504482
2.196204878448267 -1.9091317743623764
2.344095995944073 -1.96693008564081
2.533495834349725 -2.05158447482247
2.765917745159594 -2.16097177839306
3.042801293280186 -2.292915238209304
3.2846089971622865 -2.3864081243074406
3.612460515314454 -2.529472084308113
3.9462188453619986 -2.661758220520755
4.285606602201117 -2.783105468926788
5.478390701170512 -3.4232784469465036
5.537300762535645 -3.327145963918949
6.460549512231912 -3.73
7.705399619898077 -4.271172754370229
9.19148444166143 -4.8871989686011235
11.859296836947177 -6.0426135515333685
19.512818745154917 -9.517037596790871
19.63062666721384 -9.15391154930355
24.994603721101562 -11.128314554553892
25.185012790458767 -10.690403675466527
25.367750260947304 -10.249236395859349
25.5894394902883 -9.822865497036682
13.681924558642825 -4.979813286821737
11.119298449047966 -3.828681496416163
9.187205947411183 -2.985104165661992
7.899077284254673 -2.414990281009805
6.93069682771528 -1.9873453354405635
6.046695672569568 -1.6202072223417794
5.831477314918739 -1.4539505925540024
4.93031252781329 -1.138252334979956
4.558167819419534 -0.9688684792107588
4.230813160659431 -0.8223867700729083
3.899838701928344 -0.6876467835610443
3.664323743607961 -0.5803718652992566
3.4263275178458334 -0.4815389293218263
3.23570045435071 -0.3972940595007806
3.043236999826916 -0.31985709759901937
2.9487363063515666 -0.2579809985330679
2.753276778717115 -0.19252786753378548
2.6064230857094377 -0.13659684579408357
2.50847097581793 -0.08759773672327754
2.409632945326903 -0.04206029951385332
2.31 0.0
2.2096634062956246 0.038569818226396616
2.108714645010292 0.07363793804227714
2.087135727637059 0.10938214854775276
1.98515246001705 0.13881538275080954
1.9326177142979863 0.1690821409304571
1.829920287477623 0.19233237241248266
1.8262849190200328 0.2242395918654713
1.772579843047411 0.24911985071851708
1.669193295605783 0.26437424591799014
1.6150847149400211 0.28478301137376577
1.6098685808541688 0.31292675241753354
1.604162065203441 0.3409751729411254
1.6954039127263094 0.39141483455832526
1.688314563720234 0.42094409834342206
2.0187849769441524 0.5409318042642687
2.0571000293080024 0.5898639414483782
2.0943074155590478 0.6402940333427933
2.196940552641805 0.7138292570061285
2.325975695974319 0.8008976599646055
2.35862847817263 0.8584705597474286
2.3899658918328366 0.9174219508359689
2.3735906676909755 0.9589928791447351
2.448542910183491 1.0393448017814686
2.3386763715650583 1.0412458062740488
2.320147934813824 1.0819027500561904
2.3907921631557842 1.1660672504589464
2.3255270281316403 1.1849152043202171
2.330981645147567 1.2394049257547521
2.1515644795629134 1.1926316658059892
2.0871212231204974 1.2049999999999996
2.108631559727196 1.2669936642787334
2.086198316544808 1.303601390013684
2.021196068748472 1.3125800743862157
1.9979805498576506 1.3476548973645
1.9331988245220202 1.3536403897884692
1.9740014662748717 1.4341960155936344
1.8847798037116108 1.4202834546388343
1.7809043031511913 1.3913949342359877
1.8340644690384516 1.4851961228776158
1.8844693300726858 1.5812575198288867
1.8943210463591575 1.6467081627661728
1.8652935119482592 1.6795178219607343
1.835697791064118 1.711815883756871
1.7695759088330814 1.7088595913291336
1.739482681718907 1.7394826817189066
1.708859591329133 1.7695759088330822
1.6436160477506214 1.7625624209022008
1.6126047613248486 1.79097902940052
1.5811022598671227 1.8188500883368806
1.516978758860233 1.807864885760788
1.4851961228776163 1.8340644690384513
1.4529610817685537 1.8597053785118636
1.4202834546388337 1.8847798037116112
1.357783932795613 1.8688292570061287
1.3536403897884683 1.9331988245220209
1.291735607017425 1.9150767926021464
1.0674925086294533 1.6437943131730308
1.0386417578970817 1.6621742684665948
1.0094746268237063 1.68004790937614
0.9699999999999998 1.680089283341811
0.9647711442902108 1.7404932172073975
0.9107748318046278 1.7129183301463182
0.8807415694947209 1.7285526569254337
0.8504400247708098 1.743660449820384
0.8198794277769569 1.758237106851101
0.8094059197208427 1.8179554607087756
0.7775549456936547 1.8318046583703564
0.7267367912268696 1.7987366778595673
0.7131522195951473 1.8578250487294314
0.6635190780517976 1.823003684324662
0.6316022196468837 1.8343060366626747
0.6149438188061455 1.8926024674273556
0.5818196923982457 1.9030464643664406
0.5402492174013184 1.884072924039105
0.5072853284009411 1.8932146195265735
0.4741669153753486 1.901779623500953
0.4409040665139757 1.909765326979061
0.2203863922668248 1.036836456777834
0.17363618579265588 0.8932807369373742
0.1632292870069144 0.9257192878314756
0.13922667388580554 0.8790426231296726
0.13082271490246133 0.9308519846170761
0.10846371563058127 0.8833660749607766
0.09825675547159446 0.9348505816461768
0.08192639818279865 0.9364230162062408
0.06557108531947792 0.9377102072442347
0.04657900105621993 0.8887802859315708
0.03280552690035101 0.93942737739795
0.016405262051046372 0.9398568334470078
