# .PCD v0.7 - Point Cloud Data file format
VERSION 0.7
FIELDS x y
SIZE 4 4
TYPE F F
COUNT 1 1
WIDTH 180
HEIGHT 1
VIEWPOINT 0 0 0 1 0 0 0
POINTS 180
DATA ascii
5.021051876504148e-17 -0.82
0.01431097327857255 -0.8198751100282408
0.027570602394975854 -0.7895187533450857
0.04029868630706686 -0.7689447417610219
0.05720030847018287 -0.8180025212130558
0.06885303677064994 -0.786993811492479
0.08571333987947583 -0.8155079542019841
0.09993286159222094 -0.813887844345884
0.10994674975845173 -0.7823117743058406
0.11576150412977088 -0.7308893720404019
0.12849965147352851 -0.7287577372290339
0.14119865657864322 -0.7264041157512713
0.16425023574602998 -0.7727366045797064
0.17771133293165348 -0.7697523511803359
0.19111829752373746 -0.7665336237580372
0.20446704563099138 -0.763081402768364
0.21775351109542934 -0.759396739791272
0.23097364673096205 -0.755480757210798
0.2441234255562085 -0.7513346478731713
0.25719884202115384 -0.7469596747234603
0.2701959132272784 -0.7423571704208676
0.3010290776180523 -0.7842075582576494
0.31466953846936624 -0.7788344378361013
0.3282141479309899 -0.7732240769000499
0.3416587801836723 -0.7673781844197846
0.3549993398621875 -0.7612985411107859
0.36823176330282503 -0.7549869988913002
0.38135201978121935 -0.748445480318229
0.4178296908794429 -0.7858233576444449
0.39269579239953306 -0.7084419627829106
0.4299999999999999 -0.7447818472546173
0.4583838866699483 -0.7628788976248799
0.5246200715908729 -0.8395676151948617
0.5391926446648768 -0.8302838622659697
0.5536009744360394 -0.8207471968294912
0.5678406719875356 -0.8109605238461018
0.6112966623841721 -0.8413776741499454
0.6258876240781303 -0.8305809304491846
0.6402879343386848 -0.8195311837509908
0.6544932066918309 -0.8082317999152497
0.7006384945583279 -0.8349884429996861
0.715104341599653 -0.8226334424428215
0.7293523609311555 -0.8100278597703597
0.7433782124681235 -0.7971755347648958
0.7919105423232567 -0.8200473723860622
0.8061017305526642 -0.806101730552664
0.8200473723860623 -0.7919105423232567
0.870310904926813 -0.8115780484743732
0.8843423423180993 -0.7962654215670412
0.9358398794762373 -0.813513195948229
0.9881973316234817 -0.8291960164956357
1.041375588352341 -0.8432893240067821
1.0559344098330075 -0.824986376936382
1.0701715834633725 -0.8064321310237448
1.0840827724624296 -0.7876322380719141
1.097663739347249 -0.7685924247104018
1.19381410447926 -0.8052377809978754
1.2076856178414106 -0.7842802104216388
1.2635916632730748 -0.7895797037074753
1.320037643081253 -0.7931586353614832
1.3336791218280355 -0.77
1.3031833636376997 -0.7223663341670422
1.3332508652169797 -0.7089020598066951
1.3454198515244356 -0.6855256546067157
1.4290825336156756 -0.6970101233946331
1.4863447707401058 -0.693093949254747
1.5438918234159955 -0.6873849267981023
1.6016784450072463 -0.6798721635713362
1.7060182924028888 -0.6892761318852779
1.7644670060797112 -0.6773154246406176
1.823003684324662 -0.6635190780517974
1.9004923369546267 -0.6543919904588849
2.006729249382774 -0.652025858131139
2.1134335106783086 -0.6461414674372481
2.2205145176175165 -0.6367222919372679
2.3278812413566548 -0.6237538986970749
2.483957059266551 -0.6193200527351491
2.6405428755679874 -0.6096173572718738
2.8464095181353746 -0.6050230202796799
3.003779181349852 -0.5838755258522272
3.210473274819798 -0.566093059194193
3.4667860754889332 -0.5490849722912103
3.7234079384683043 -0.5232908596098459
4.079364683245834 -0.500883001395156
4.435567653342499 -0.4661969461737341
4.941125702535058 -0.432292484028384
5.546456119444623 -0.38784599401733594
6.30135236430136 -0.33023988389297604
7.305546945509589 -0.25511532089528244
8.708673424812169 -0.1520104600687396
8.94 0.0
13.407957592047207 0.23403677032397222
15.900308057873813 0.5552509925367912
33.1644868491994 1.738077106828167
33.32861491918072 2.3305637877912293
8.826285025092865 0.7721998807442524
8.761737898194488 0.9208957613880283
18.173520036552606 2.2314276777482496
10.259177192162669 1.4418333259462777
10.380604459654897 1.6441262275728263
10.399569871808918 1.8337247561627847
8.108240535277703 1.5760823018102605
7.150258961364118 1.519834459877821
6.343149121751881 1.4644313637785618
6.074051246487738 1.5144310664539207
5.129066137594951 1.374329129494386
4.91204726624481 1.4085068882248655
4.743271589576656 1.450163655424774
4.003947933602596 1.3009615463185285
3.744253559373295 1.2892498916503405
3.48625962311572 1.268894731738231
3.230188275680318 1.2399531054267392
3.0689785586160663 1.239947824206669
2.862770094237089 1.2151738096016418
2.7040945546220985 1.203940463504369
2.592040270924819 1.2086882285784002
2.3907921631557842 1.1660672504589464
2.280976701922222 1.1622156793332399
2.1720510784329603 1.1549000444532918
2.0641025088489737 1.1441507037813554
1.9572174125528312 1.1299999999999994
1.9371980995867735 1.1639860492967224
1.789381482890059 1.1181296475320623
1.752821487005936 1.1382955831814068
1.6912366480122851 1.1407535230803234
1.6301125681350934 1.141417108338582
1.569492969087398 1.140303389447398
1.4694893384870187 1.1073396425997692
1.4105392489560322 1.1020340408329283
1.3522339729351296 1.0950174804267168
1.294615108871073 1.0863110603702515
1.2754591905764847 1.1087397589939572
1.2187575137829263 1.0973741944285276
1.1262847004935228 1.0502774744962478
1.1077832925215225 1.069773890506856
1.0889444430272832 1.0889444430272832
1.0350409719839058 1.0718163025045904
0.9820776384899977 1.0531493303316055
0.963548073156756 1.0701285486874474
0.9119220502968051 1.049046316509653
0.8934747774642898 1.0648017759353794
0.8432893240067821 1.041375588352341
0.8249863769363823 1.0559344098330075
0.8064321310237446 1.0701715834633727
0.7582429754572904 1.0436319227436823
0.7399136028928492 1.0567061371327995
0.693399200303726 1.0280065899682518
0.6753524034186337 1.0399515042523257
0.657099887649174 1.0515796392339682
0.6386472128884673 1.0628874528706191
0.5699999999999998 0.98726896031426
0.5769234480931411 1.0407974514958809
0.5586711597152099 1.050707635502123
0.5175491697030834 1.0157474375747393
0.499743107339548 1.0246252127810502
0.4817848183843973 1.0331908772217808
0.4636797731064124 1.0414418217125647
0.445433486477772 1.049375532935782
0.4083211868233443 1.0106304014777983
0.3906210650043772 1.01760266488195
0.3557009490586956 0.9772803256173447
0.35486928835830067 1.0306152474032555
0.3368285238686927 1.0366516027617174
0.304066572911646 0.994556946201557
0.2866628500496791 0.9997121637758517
0.2691718069066218 1.004562859340631
0.2515987714236544 1.0091075553270363
0.22270154380042648 0.9646263641373829
0.20583257390958165 0.9683661247264677
0.18890090542277946 0.9718109116131873
0.17191169589026092 0.9749596754820861
0.16269184364184017 1.0271958742189433
0.13778136995046458 0.9803653880541546
0.12065064997109601 0.9826206901249087
0.10661903253300675 1.0144123332756387
0.0888988576026113 1.0161185920535805
0.0690589090066842 0.987588409757226
0.05181259668051431 0.9886432394070281
0.0355974866365511 1.0193786435594776
0.017801454566029044 1.0198446490595192
