# .PCD v0.7 - Point Cloud Data file format
VERSION 0.7
FIELDS x y
SIZE 4 4
TYPE F F
COUNT 1 1
WIDTH 178
HEIGHT 1
VIEWPOINT 0 0 0 1 0 0 0
POINTS 178
DATA ascii
3.612708057484692e-17 -0.59
0.010296919797997323 -0.5899101401422708
0.020590703054475638 -0.5896405879412665
0.030878214183336937 -0.5891914255051985
0.04115631950903401 -0.5885627896532962
0.051421888221118296 -0.5877548718741299
0.06167179332791554 -0.5867679182672813
0.07190291260903701 -0.5856022294683799
0.08211212956643862 -0.5842581605575264
0.1001180576257478 -0.6321205379808882
0.10245242482348894 -0.5810365742772027
0.12211775704098875 -0.628241397406505
0.13306348212336605 -0.6260144644696356
0.1439686747800737 -0.6235968414625506
0.1548300131837873 -0.6209892648166377
0.16564418886561327 -0.6181925288250038
0.17640790772287948 -0.6152074854005241
0.20173647625868835 -0.6598502816144944
0.19777087639996638 -0.6086761704288983
0.22464202657543814 -0.6524078171635285
0.23599389889471148 -0.6483879083422767
0.24727388518625723 -0.6441704942830692
0.2584785494569794 -0.6397568596510832
0.26960447865759885 -0.6351483488821839
0.3009851158760923 -0.6760236386555245
0.3127375136881176 -0.6706677624071209
0.3243946486239173 -0.6651075942613836
0.3359529698072647 -0.6593448278993922
0.3474089564615592 -0.6533812187156058
0.3829995999946063 -0.6909495686401227
0.3949999999999999 -0.6841600689897066
0.40688007917894287 -0.6771621675546687
0.4451321819558921 -0.7123604007713977
0.45749678941262273 -0.704483277074156
0.49768168408896474 -0.737843439573987
0.510483028352431 -0.7290453194172027
0.5231288745403011 -0.7200251249937032
0.5356153706053229 -0.7107856039420907
0.5787217868061189 -0.7407301083903185
0.6041475754078439 -0.7460601229986921
1.3112867237605403 -1.5627306639627152
1.3383604191406349 -1.539607543654455
1.3315699066541278 -1.4788582027000146
1.357176736524372 -1.455393866222149
1.3476372386904547 -1.395519212656983
1.3717871555019023 -1.3717871555019021
1.3595522226400507 -1.3129043201675048
1.345690810979274 -1.2548769825149972
1.3673864788784056 -1.231200315700299
1.350930148598762 -1.1743456618930082
1.4095217753389195 -1.1827292018232323
1.391091271007978 -1.126483499979209
1.4105392489560324 -1.102034040832928
1.4295575629846542 -1.0772488914421665
1.4724109297624044 -1.069769159172301
1.4662821592772954 -1.0267018210683725
1.4839772548735248 -1.0009552972126368
1.501220316622309 -0.9749038726768983
1.49256464923531 -0.9326579050504407
1.594331179305929 -0.9579708193327006
1.7840123317959435 -1.03
1.889178567421095 -1.047188779732088
2.0396089395041215 -1.0844793100354078
2.191876049503385 -1.1168166293592852
2.3458524608408258 -1.144148693119492
2.592040270924819 -1.2086882285784002
2.841126373268489 -1.2649509599657385
3.1849467929454436 -1.3519297045728869
3.5789296786277993 -1.4459814505854198
3.9770526168780793 -1.5266474650629793
4.61389076805881 -1.6793189037290337
5.351635137892133 -1.842715754227507
6.429142050155238 -2.088954881974644
7.994707759850977 -2.444227451482079
10.775743611468556 -3.08989475870856
18.36224995775519 -4.920150047398919
16.3106711586995 -4.066707065030412
16.379160789039805 -3.7814272235203683
16.540475928408654 -3.5157866917283114
16.64839703127238 -3.236120561586201
16.65309910343644 -2.9363906843477925
16.603041005404265 -2.629663357326281
12.685333960579516 -1.7828074232984379
10.927933129570956 -1.3417814708906732
9.507629319720694 -0.9992921088387664
8.328187676046992 -0.7286220093704214
7.840853435042219 -0.5482858836288239
6.800667131678647 -0.35640786201444796
6.206217035788585 -0.2167258745225313
5.709130339342994 -0.09965324075688899
5.31 0.0
4.9592445679757 0.08656393592892633
4.657161253908987 0.16263165463365475
4.304093294792213 0.2255679714070882
4.2995010566198415 0.30065040183718045
4.293599148775423 0.3756412512424072
3.673894535031226 0.5163322045618427
3.614939326578204 0.572550142047245
3.4074348254222397 0.600822694727579
3.200104618039384 0.6220373249275362
3.042039038282135 0.6466053584432317
2.932853895003558 0.6771026735750338
2.82356056346315 0.7039927161950335
2.762547863186735 0.7402224689932098
2.65308228078976 0.7607591020549175
2.495955413063523 0.7630901493263428
2.4347046817155933 0.7910835055998654
2.325975695974319 0.8008976599646055
2.264659216094039 0.8242685454148618
2.203249806533396 0.8457483609269087
2.1881538967776177 0.8840715604615526
2.0803409688025147 0.8830523503857589
2.018935461390148 0.8988879811975187
1.957624819999164 0.9128554453599107
1.8515157353762839 0.9030445623854998
1.835473439828038 0.9352204294634664
1.774724661646443 0.9436378411996408
1.7579856113501853 0.9744673366951374
1.6974097914175 0.9799999999999996
1.5514728142708232 0.9322189155871983
1.662174268466595 1.0386417578970817
1.5599272563784885 1.0130286051279507
1.5005580063246255 1.0121391552820518
1.482665200163075 1.0381733497953938
1.4238699100999075 1.0345020440347528
1.4055984976832352 1.0591944407476053
1.3474983886674945 1.0527811228068757
1.3289195940914205 1.0761378686952217
1.3099359977334524 1.0991668125639822
1.2528179031698015 1.089057988124242
1.1964631690186047 1.077300276237762
1.1774794596068647 1.0980173597006226
1.158137078545228 1.1183999764389858
1.1030865786510142 1.103086578651014
1.0836670579160357 1.1221700885282961
1.0639174416974977 1.1409117745259059
1.043843745919819 1.1593059277447348
0.990649133775666 1.1396114661363856
0.9706092906266746 1.1567271091096567
0.9502737904852545 1.173490401800026
0.8988657539754612 1.150495700265814
0.9087406849595927 1.2059396201714123
0.8581664683470107 1.1811648117874232
0.8374215970725271 1.1959619846619283
0.7884619938937529 1.1689429773026088
0.7679410393711883 1.1825255008030477
0.7206901993571587 1.1533454107727394
0.7262036856231765 1.2086058939899782
0.6799999999999999 1.1777945491468367
0.6835815645473353 1.2332137870665478
0.6619549035281057 1.244956105931087
0.640126604632761 1.2563191991055986
0.5961847596331451 1.2223599029668673
0.5747608359673513 1.232578590369844
0.5531618345830885 1.2424218223939372
0.5118577783209486 1.205861358022697
0.49073463737484496 1.2146108494824914
0.4694620139043432 1.2229903587113344
0.4480463877566262 1.2309973332295399
0.4102158746160172 1.1913534052551393
0.4048122626311812 1.2458840363466512
0.37715949909233015 1.233633135192316
0.35557218900392895 1.2400275877604314
0.3468175204373781 1.2943406072273516
0.3120792453235713 1.2516814868960355
0.28568783901670874 1.2374499822772487
0.26404784733855424 1.2422474529319332
0.24614360403574295 1.2662990666474865
0.22400614919033998 1.2704020013857484
0.2018004599018979 1.2741179593677276
0.17674983821928286 1.2576404473017944
0.146243212086177 1.1910553819695864
0.1254341559211844 1.193426274441928
0.10458689129718976 1.1954336377100947
0.08161507428062678 1.1671499388039943
0.062279787929103055 1.1883691463579429
0.04048341617490125 1.159293359342151
0.01937217114538455 1.1098309416235943
