# .PCD v0.7 - Point Cloud Data file format
VERSION 0.7
FIELDS x y
SIZE 4 4
TYPE F F
COUNT 1 1
WIDTH 180
HEIGHT 1
VIEWPOINT 0 0 0 1 0 0 0
POINTS 180
DATA ascii
2.0574066225675533e-16 -3.36
0.06265413910984811 -3.5894532256114444
0.13645703210677923 -3.9076181336446645
0.2308015670313829 -4.40395624826767
0.3634312282068936 -5.197308701853684
0.4627969939900647 -5.289793846867169
0.5654989862780052 -5.380363453942358
1.9206608520651245 -15.642527349867235
2.917068196122972 -20.756018720823317
3.4665877452915175 -21.887173627588254
4.794426185383949 -27.190542060667063
4.772132974367389 -24.55049585802608
5.875584382509882 -27.642451196737348
6.368364348474822 -27.58441653407001
6.5343104001470245 -26.207687566714664
7.184816692045976 -26.814100937784538
6.204596879440651 -21.63800077557156
6.5666684880726685 -21.478604818929778
5.920765612223994 -18.222242852215143
5.4565222687019475 -15.84689132704455
5.0482173154868715 -13.869863082800007
4.751959010970683 -12.379276455352896
4.499025186925105 -11.135478093347116
4.301949724666904 -10.134758436511369
4.1121074614963415 -9.235944576766693
3.997968756067017 -8.573671665366708
3.883968360551226 -7.963315250210618
3.772661052835635 -7.404264216005338
3.6665729053578073 -6.895820700228218
3.5924392860253582 -6.480932029902923
2.5799999999999996 -4.468691083527704
2.503085044062864 -4.1658330814122655
2.442927808115075 -3.909501723281124
2.4018581444162694 -3.6985372046393197
2.3542021236118447 -3.4902481804567254
2.328720331585247 -3.3257572998133065
2.29824033646357 -3.1632564480060448
2.2628244870517014 -3.002869517777821
2.222537925925627 -2.844718820520266
2.271846611689913 -2.8054969208596647
2.352602651452734 -2.80372266181546
2.433978997554782 -2.799972542626484
2.482474549591364 -2.7570673025211327
2.5984137518381196 -2.786457603169039
2.681381309971729 -2.7766516293071932
2.821356056934325 -2.8213560569343246
2.884552599357991 -2.7855800655405787
2.9327283434928737 -2.7348134238506185
2.9428535088904817 -2.649757201181078
2.9886499376821773 -2.597993754802409
3.0718382169071017 -2.5775783148430222
3.116355305442453 -2.5235747681098477
3.1599231219629553 -2.4688025160558893
3.202528395289644 -2.4132782428397133
3.2846089971622865 -2.3864081243074406
3.3257572998133065 -2.328720331585247
3.365892544573469 -2.270323188091232
3.4050025058584215 -2.2112344821610095
3.4430752703950893 -2.1514722127868118
3.4800992408505755 -2.0910545841348194
3.559364409554043 -2.055
3.594686996342917 -1.9925675392124456
3.584767227007243 -1.9060545449107165
3.662036814414192 -1.8659009539295375
3.694043530289577 -1.8017054133031083
3.770240394072464 -1.7580919688413095
3.80034910379322 -1.6920244351953286
3.829300190362152 -1.6254414945153786
3.8570848349978357 -1.5583634286101935
3.8836945742283593 -1.4908106701084494
3.9091213024693787 -1.4228037962347821
3.9806332032731238 -1.3706419302646298
3.9563951077878388 -1.2855106965997811
4.026043022604379 -1.2308848768827216
4.046911739900323 -1.1604332679895661
4.066547728676977 -1.089628179881612
4.084945007621945 -1.0184911804746006
4.150816475985102 -0.9582914915048643
4.166908779126012 -0.885703802883655
4.181731801487048 -0.8128463203040811
4.195281027832006 -0.7397412368611233
4.256936747965043 -0.674232544323395
4.218541972839089 -0.5928774100898786
4.277873913574098 -0.5252568700761854
4.286389369037257 -0.45051767668358605
4.293599148775423 -0.3756412512424062
4.299501056619842 -0.3006504018371795
4.354024771529942 -0.22818476921923544
4.307374464452303 -0.15041683078777937
4.2893466122209185 -0.07487082361594637
4.31 0.0
4.409328335639685 0.0769651123884204
6.15624749443763 0.21498089968740627
6.850598608416377 0.3590246598265952
7.741097030016236 0.5413102362544131
8.826285025092865 0.7721998807442524
10.352972930783725 1.088141302616274
12.66488889494327 1.5550528218496813
15.507597956492992 2.1794507610346243
21.985942461647767 3.4822311917955395
21.577137868497477 3.8046315726824442
24.403251780508924 4.743511625060905
24.316749354242408 5.168684633729499
24.22283981056095 5.592283210988486
24.17006654153507 6.026274419387726
24.10950862417514 6.460123365758922
18.561963348568938 5.322557340826252
15.119178191775593 4.622396651666468
14.18025265796074 4.607443386130465
14.144957890965781 4.8704995906790645
9.782200182381306 3.560429692020212
8.784991813338669 3.372242405221276
7.751257024178342 3.131711120957025
7.143117662790936 3.032073557076765
6.5866627496031525 2.93257119657652
5.990694472312256 2.793506710106023
5.581511027517827 2.7222848215601716
5.221298231743837 2.6603843284737443
4.335272680937331 2.3051053732787246
4.031996849912614 2.234972349335614
3.8451527928029083 2.2199999999999993
3.8058228151173785 2.2867690526006412
3.739892104049839 2.336943955268434
3.7824042614338618 2.4563220479177725
3.697507573595486 2.494000349479531
3.653418117528903 2.5581509061256664
3.6082157949122657 2.6215222252244303
3.5619143748109257 2.684095003258136
3.51452796108598 2.745850179952436
3.504928286170939 2.838234963634766
3.416558216310642 2.8668327392019655
3.403740206804702 2.9588262207471874
3.3515831629030473 3.017779034678451
3.261837509221501 3.041712685878743
3.2082555095103835 3.098176332247128
3.153696244092002 3.1536962440920018
3.132909250770077 3.244222499527317
3.041712685878743 3.2618375092215004
2.984322504360508 3.314425921629178
2.926023269297662 3.366004727793563
2.898972119686293 3.4548604384665906
2.806768944082275 3.46607098809809
2.7458501799524364 3.51452796108598
2.6840950032581348 3.5619143748109265
2.6215222252244303 3.6082157949122657
2.5581509061256646 3.6534181175289038
2.4660407043059935 3.6560556949677343
2.4290900961670214 3.7404707330365907
2.363439918480094 3.78229450885766
2.271317910353339 3.780107796096315
2.2299999999999995 3.8624733008785967
2.1380104252863465 3.8570729084847355
2.0938431700250724 3.9379462641508143
2.024797628838379 3.9738890978801207
1.9332167573398307 3.963681744179327
1.8426156211894498 3.951501951479794
1.8140454281180696 4.074412741085999
1.723124276637697 4.059426403725262
1.6520150769641728 4.088880798639532
1.5804026574947738 4.11708968085266
1.5083088320661995 4.1440444576658555
1.4357555611560604 4.169736918392988
1.3473140954747709 4.14660641104687
1.2455034621188577 4.073858260402531
1.1604332679895664 4.046911739900323
1.0766872276264872 4.018251437362524
1.0063950856946176 4.036430221308145
0.9245488333532859 4.004660966267317
0.8441214647201024 3.9712792589792505
0.803305870535254 4.132650442314666
0.7571060546278158 4.293761803133227
0.7211628838354646 4.553243250143585
0.6694226156179137 4.7631894106469534
0.6227523448003037 5.071910834887156
0.5602725631146237 5.330637359173945
0.497659291089128 5.688271726103867
0.41226075982778143 5.895603537035561
0.3537910642022997 6.750735654940919
0.22719572353328202 6.506034283894313
0.10663420333180143 6.109069417405551
