# .PCD v0.7 - Point Cloud Data file format
VERSION 0.7
FIELDS x y
SIZE 4 4
TYPE F F
COUNT 1 1
WIDTH 178
HEIGHT 1
VIEWPOINT 0 0 0 1 0 0 0
POINTS 178
DATA ascii
8.327598234202002e-17 -1.36
0.022862652432841513 -1.3098004806548726
0.045718340680276415 -1.3092019833950155
0.0685601026782566 -1.3082046905284919
0.08789315691759808 -1.2569307033273784
0.10110066158728344 -1.1555858497864246
0.11916244812512493 -1.1337549607198314
0.13893105148186813 -1.131502612871107
0.16144079711367593 -1.1487109597402216
0.17833529014586325 -1.125964708278457
0.20143188609363927 -1.1423769934941612
0.2213384346367921 -1.13868753279929
0.24117756134860094 -1.1346512168512144
0.26094322303888356 -1.1302692751508727
0.2806293988956145 -1.1255430424801558
0.287289140063798 -1.0721776671808658
0.319739332747719 -1.11506356728845
0.32453259224223785 -1.0614982791189693
0.32755801403744433 -1.0081199072728628
0.3451022437245862 -1.0022496901352758
0.3454403447589255 -0.9490895469937675
0.35478427004984736 -0.9242446222322297
0.3783526593500713 -0.9364556931124552
0.39463843977416646 -0.9297099019869648
0.4108040095065584 -0.9226809122190268
0.4268444443581064 -0.9153708649070165
0.44275485825696825 -0.9077819867621586
0.435830879749965 -0.8553662632208332
0.4506927002744552 -0.8476296891445698
0.4654172354364836 -0.8396349188538199
0.47999999999999987 -0.8313843876330611
0.4686846481681494 -0.7800222436389221
0.5087224936638767 -0.8141261723101689
0.49562152186367464 -0.7631902168303358
0.5088655421583796 -0.754424191025088
0.5219545570794519 -0.7454283603029825
0.5231288745403011 -0.7200251249937032
0.5356153706053229 -0.7107856039420907
0.5787217868061189 -0.7407301083903185
0.5600951480343553 -0.6916599056967041
0.6042203531053469 -0.7200817765318392
0.5838925358015515 -0.6716915263982671
0.6156001578501497 -0.6836932394392027
0.6274384912574987 -0.6728454054896368
0.6390857008222774 -0.6617926163115591
0.6505382386916237 -0.6505382386916236
0.6617926163115592 -0.6390857008222774
0.672845405489637 -0.6274384912574986
0.6836932394392028 -0.6156001578501495
0.6716915263982671 -0.5838925358015515
0.6817795543758904 -0.57208097262102
0.6916599056967041 -0.5600951480343553
0.7013295707099826 -0.5479387130398358
0.6868265386406718 -0.5175609199107615
0.7200251249937032 -0.5231288745403011
0.7290453194172027 -0.510483028352431
0.754424191025088 -0.5088655421583796
0.7212566884330647 -0.4683895701129232
0.7717237675023477 -0.4822265304522165
0.7371638786038166 -0.44293274442264646
0.7880831174438392 -0.455
0.7959039334968502 -0.44117675442416676
0.8034823095016236 -0.42721912213516067
0.8108159370114149 -0.4131313547629876
0.817902582132242 -0.3989177435780604
0.8700554755551839 -0.4057135312710714
0.8313263664547669 -0.37013034519897814
0.8836846593143427 -0.3751018833497027
0.9828148858407947 -0.39708298902086664
0.9895952520870339 -0.3798700265180184
0.9960741780330629 -0.3625413519252089
1.002249690135276 -0.34510224372458614
1.0556727330876206 -0.34300886375619166
1.0614982791189695 -0.3245325922422378
1.067000482491534 -0.30595746495686904
1.0721776671808658 -0.28728914006379797
1.0770282561663562 -0.2685333041156311
1.1302692751508727 -0.26094322303888323
1.1346512168512144 -0.24117756134860088
1.13868753279929 -0.221338434636792
1.122680838433917 -0.1979589225403006
1.1951028921201168 -0.18928570269867934
1.2477377666143787 -0.17535810720968242
1.2009808434859996 -0.1474619055202284
1.2530975881640243 -0.13170586371724327
1.2552053195955994 -0.10981623586204917
1.3068089058403698 -0.09138098060480399
1.3082046905284919 -0.06856010267825652
1.3092019833950155 -0.04571834068027634
1.3397959115095643 -0.02338622462595994
1.36 0.0
1.3597928654126923 0.023735272754705612
1.409141066096925 0.04920829035052643
1.4579991207416778 0.07641049611469809
1.4564435133793432 0.10184445166642309
1.5042539941185358 0.131605171548964
1.5017280620060927 0.15783797953415696
1.4987446889783964 0.18402270854177263
1.4953047837997713 0.21015138244969878
1.540793811328415 0.24403776546276015
1.6347808700002653 0.28825597492710436
1.6785824836955054 0.3262833820938917
1.7704471573281881 0.37632016038014454
1.8123283205005376 0.4184089610795891
1.7562352645595536 0.4378786310353988
1.8449183282121202 0.4943443761458149
1.9321360088360209 0.5540310851921681
1.9699877972838533 0.6022857117288376
2.054282075197532 0.6674767078498864
2.0895960520744903 0.7195056213503163
2.1237053229761527 0.7729655239160114
2.1565707852085363 0.8278299634496438
2.2345130895059575 0.9028018901323482
3.5531487343264194 1.508222155968597
3.4806081936183095 1.5496666101187992
3.4077172792578034 1.5890446641450295
3.424405316399826 1.6701940692663855
3.4838355095765188 1.775102853981628
3.7613567455790284 1.9999488574678954
3.988265864555644 2.210731868323297
4.252184732581594 2.454999999999999
4.380124906587794 2.6318445627903775
4.757549819437551 2.9728470723482796
5.082343641749269 3.3005125521910648
5.853005262238594 3.947901898503472
6.028959045966979 4.221522571543701
3.325059846881034 2.4157973869220646
3.0028695177778206 2.2628244870517022
2.8289586054481317 2.2102246964191132
9.255808400952525 7.495205857403562
11.191909313968269 9.39112697752034
16.724364297736628 14.538268082429639
14.944642440350396 13.45621649387664
14.67095525448056 13.680887102853719
14.393989404776407 13.900113992884538
14.149206691542817 14.149206691542815
6.062323293611257 6.732892118825191
4.795791501920608 5.516927031428463
3.9274322951847562 4.6805315474569555
3.215827198264669 3.9712158630451215
2.117875475120265 2.710756992407123
2.1725522335788936 2.8830741912707274
1.6222872963272257 2.2328869044748547
1.5314490850572926 2.1871359582516083
1.6272513490998732 2.4124993361351716
1.421507881389221 2.188930182337556
1.303601390013684 2.0861983165448077
1.1897379530422254 1.9800564646218792
1.0549999999999997 1.8273136019851655
0.9502268556828207 1.7142546259932157
0.8873012536653333 1.6687709505033719
0.8262627095259754 1.6216318740228297
0.8197540444955744 1.6807448665794424
0.781843784220294 1.6766694060178025
0.7483954232594727 1.6809236420623854
0.7189452764202636 1.6937289303524903
0.7080064615560739 1.752377485131228
0.6773154246406172 1.7644670060797112
0.6635190780517976 1.823003684324662
0.6316022196468837 1.8343060366626747
0.599492969087398 1.8450496416125979
0.5818196923982457 1.9030464643664406
0.5485183380758283 1.9129107749172547
0.5150498997540167 1.9221923943152457
0.4935206670233221 1.979403281603033
0.4589001508614849 1.9877149321618799
0.43453543380911674 2.044328485533654
0.39879080033697883 2.0516008134056176
0.3716071002072307 2.1074885914461254
0.3347697551860942 2.1136530488735947
0.3047890911025429 2.168687070544039
0.2729873292275304 2.2233033796765613
0.23937018088292694 2.277455140393346
0.19958665089213715 2.2812858586300973
0.1597423248740473 2.2844216750949973
0.12246613760848836 2.3367931113257026
0.08340979711897759 2.388544076575639
0.042583871706971435 2.4396283761815947
