# .PCD v0.7 - Point Cloud Data file format
VERSION 0.7
FIELDS x y
SIZE 4 4
TYPE F F
COUNT 1 1
WIDTH 176
HEIGHT 1
VIEWPOINT 0 0 0 1 0 0 0
POINTS 176
DATA ascii
1.1205518212198283e-16 -1.83
0.03281052410209316 -1.8797136668940155
0.06561105380070202 -1.8788547547959
0.09577479992458746 -1.8274920486008701
0.13114217063895584 -1.8754204144884694
0.1638527963655973 -1.8728460324124816
0.19651351094318847 -1.8697011632923537
0.22911436560167728 -1.8659867650856852
0.26164542980492306 -1.8617039692341522
0.2940967942756341 -1.856854080318859
0.32645857401382916 -1.851438575662951
0.3587209113079044 -1.8454591048816082
0.3908739787373878 -1.8389174893795543
0.42290798216646647 -1.831815721796242
0.4548131637273752 -1.8241559653988733
0.499520757047865 -1.8642368447379019
0.5181982289359583 -1.8071719883640394
0.5555062389731998 -1.8169790363297673
0.5964027991436486 -1.8355390764496462
0.6185794934685978 -1.7964852936387017
0.6498382723187708 -1.7854159794932256
0.6916501426224297 -1.8018102231395994
0.7117525274902331 -1.7616493236768958
0.7619257005540837 -1.7949844642322588
0.7931364539978107 -1.7814136424030715
0.8241056103943639 -1.7673001847214673
0.854823736238701 -1.7526483902833754
0.9079809994790937 -1.7820130483767358
0.9389431255717817 -1.7658951857178538
0.993859721504991 -1.792970399635761
1.0249999999999997 -1.7753520777580991
1.055828053565611 -1.75719296643933
1.08633449167807 -1.738498597120673
1.127402802481106 -1.7360480756470273
1.157529310184446 -1.716107775188936
1.233189338154749 -1.7611768952213323
1.2637382924288172 -1.7393865379061368
1.2939022997769036 -1.7170663466016796
1.3544552457164485 -1.7336236579347883
1.3845048603096424 -1.7097211152053362
1.4462721217947136 -1.7235999970177005
1.4761328152286413 -1.698096555501237
1.5390003946253739 -1.7092330985980067
1.6026961461468718 -1.7186811988050503
1.6324471705786436 -1.6904485307958301
1.697056274847714 -1.6970562748477138
1.7623825108296955 -1.7019130076245435
1.791816568966968 -1.6708959821531213
1.857862063693486 -1.6728265158971454
1.88677395055693 -1.6401475724762682
1.9917155521093428 -1.671247785185002
2.0205794997881243 -1.6362330167295773
2.1039887121299476 -1.6438161391195072
2.172288587328637 -1.6369368629735714
2.2409770744186046 -1.6281651488501505
2.3100087648949565 -1.6174855505099497
2.3793378332329698 -1.6048836329610434
2.4908515867979095 -1.6175779339946301
2.5611052503924068 -1.6003561779842788
2.6315036131554845 -1.5811668899738658
2.7453005299966704 -1.585
2.8162754569888544 -1.5610869771932054
2.9313860082916374 -1.5586455884491575
3.091792638933637 -1.5753470340962274
3.11881534065811 -1.5211478793580986
3.326149578424505 -1.5510090205883666
3.398389102430476 -1.5130603122419766
3.5623537828609444 -1.512129467253489
3.6809199026301465 -1.4871881758611702
3.8930303784933313 -1.4943943496039023
4.012487490755828 -1.4604260120006054
4.179192104148981 -1.4390112427006325
4.39388110528361 -1.427658514012257
4.6093889237418315 -1.409231616763591
4.82553371361036 -1.3836995262013354
5.090429104543389 -1.3639763676902839
5.3075176227297005 -1.3233127689301818
5.622115273810807 -1.2979675835641002
5.9862633164908905 -1.2724195478046876
6.351127876906386 -1.2345342000862451
6.667148487892648 -1.1755981628051184
7.131109819096895 -1.1294568375904668
6.654601421943353 -0.9352432384516395
6.818792061775883 -0.8372423891933629
6.9815437054852785 -0.7337898121389267
7.142715985317816 -0.6249066755007083
7.401925252927897 -0.5175930351814089
8.009008868731682 -0.4197343690684101
15.910301966144004 -0.5555999875038162
16.067552461163206 -0.2804601714471464
15.97 0.0
15.967567691647568 0.2787149308034181
31.95052473980049 1.1157369095789575
25.124030285873822 2.198067832095942
25.72828143317723 2.704151344734199
26.687338962880624 4.226859245387038
15.727379815604962 2.773161397340878
15.676586119659195 3.0472196561634215
15.718831943792257 3.3411408714413935
6.304174319160472 1.455433321604807
6.520387280574696 1.625715138429768
6.249540096090271 1.6745592218133103
6.075173918330176 1.7420280887634345
6.091661295484537 1.8624077590838328
5.963124357170612 1.93753655473092
6.117505184127579 2.1064259593378036
6.314734411681304 2.298375363148494
5.900228295462315 2.264885441126298
5.53528761176372 2.2364013626929955
5.219262519075336 2.2154454985341827
4.860061834658637 2.1638389411632577
4.594980480275815 2.142674587025346
4.332187303161985 2.112948927523354
4.071899815540841 2.074736583809729
3.8584809807935105 2.0515907293743436
3.69089516412825 2.045896597439542
3.524723393402666 2.0349999999999993
3.36009581875228 2.0189492536474125
3.1971413225097263 1.9977956261591825
3.035987455962435 1.9715933067543985
2.876760376765995 1.9403993750434916
2.8014999914683516 1.9616314123205782
2.6859364213248256 1.9514470376110107
2.531674566849918 1.9077536233919936
2.4191930135726363 1.8900807292497708
2.3469808036000526 1.9005475809705086
2.236849773907416 1.876939820284695
2.1660164952393557 1.8828894132027556
2.058511166572382 1.8534917796140375
1.9892820684041441 1.855035539369996
1.920637266904198 1.8547378491255229
1.8526197667087547 1.8526197667087545
1.7852720120796226 1.8487032868703337
1.7049959001562462 1.828384254047926
1.6728265158971458 1.8578620636934853
1.5745416695772174 1.8113029925346527
1.5426902632476946 1.8385066634855471
1.478902918967118 1.8262930094238816
1.4160213932490142 1.8124247332954602
0.8545773328759083 1.134062424267156
0.7464872704114409 1.0274515828561832
0.7456493672563598 1.0648976575756894
0.7269507745119709 1.0777488443215544
0.7080307455195354 1.0902717383290512
0.6729974655761702 1.077021082118661
0.7056021626267744 1.1743192019618938
1.0249999999999997 1.7753520777580991
0.9696192404926742 1.7492394142787915
0.9389431255717813 1.765895185717854
0.87166175949993 1.7107325264416664
0.8416726018350282 1.7256845688944007
0.8241056103943639 1.7673001847214673
0.7727996218440206 1.7357363695209413
0.74238914412962 1.7489592215596366
0.6930221978194375 1.7152901309485566
0.6629807066588054 1.7271237890198232
0.6327372651524874 1.7384313484539304
0.6023010857457396 1.7492093648587363
0.5562305898749055 1.7119017293312764
0.535040219642608 1.750037703412355
0.5044163611451085 1.7591089035671237
0.4736388525376134 1.767644262108995
0.42336331729941845 1.6980175209829937
0.40041287673208 1.7343787153177188
0.3700828096556114 1.741102729306174
0.3300995620014227 1.6982150273644587
0.30041134736378927 1.70371741271112
0.2706316245195995 1.7087008292295884
0.24076946466091287 1.7131637589229167
0.21083396409090516 1.717104842339487
0.18083424145304086 1.7205228789871128
0.14642164781606568 1.6736070927941324
0.11719087589013076 1.6759076044365047
0.09054120430029268 1.7276290951254127
0.05863115446020181 1.6789765893920807
0.02932004281463607 1.6797441278627372
