# .PCD v0.7 - Point Cloud Data file format
VERSION 0.7
FIELDS x y
SIZE 4 4
TYPE F F
COUNT 1 1
WIDTH 179
HEIGHT 1
VIEWPOINT 0 0 0 1 0 0 0
POINTS 179
DATA ascii
2.5717582782094416e-17 -0.42
0.007330010703659111 -0.4199360319656843
0.014657788615050453 -0.4197441473480202
0.02093438249717759 -0.39945181390182954
0.02929771897253269 -0.41897690110912617
0.03660541195401642 -0.4184017731985331
0.048083093103120596 -0.45748007186940576
0.05727859140041932 -0.4664966912714213
0.06958655048003273 -0.4951340343707852
0.07821723252011546 -0.4938441702975689
0.07814167995011868 -0.4431634888554936
0.08586404791944521 -0.4417322325514488
0.09356026086799175 -0.4401664203302125
0.09897846391130066 -0.42872282850550353
0.10160719615186042 -0.4075242050359185
0.10870399894305871 -0.4056888470414087
0.1295495572339896 -0.45179299709100984
0.13741470121968627 -0.4494632353026266
0.14523798735622528 -0.4469965626587221
0.15301703259486366 -0.44439373053167885
0.1778504745293478 -0.48864016280867234
0.15768189779993216 -0.41077538765876875
0.16482690110300136 -0.4079608960093864
0.17192169653528044 -0.4050221355190738
0.21963778726093222 -0.49331454712700445
0.2282138613399777 -0.489406204999791
0.2586389766055557 -0.5302884873165085
0.2678543948463326 -0.525693849271137
0.27698822204367557 -0.5209390797867668
0.2860376759453389 -0.5160256272122434
0.29499999999999993 -0.5109549882328188
0.3296243679424347 -0.5485870724493518
0.33914832910925113 -0.5427507815401126
0.321337030658866 -0.4948156350878001
0.35788345822127804 -0.5305840464352266
0.33841009744711714 -0.48329970613050516
0.3467932988525591 -0.477320026681219
0.3851616148173109 -0.5111267264302675
0.3940233442084214 -0.504326882308302
0.40276505027189596 -0.4973734153324614
0.4113840701993852 -0.49026844359614596
0.45268073000345 -0.5207496103537127
0.46170011838761216 -0.512769929579402
0.4364789504399991 -0.468066369036269
0.4793142756167081 -0.4963444622336692
0.4879036790187178 -0.48790367901871773
0.4963444622336693 -0.4793142756167081
0.5046340541172276 -0.4705788684431239
0.512769929579402 -0.46170011838761205
0.5962205683759899 -0.5182866329025008
0.5668728879080437 -0.47566283116803904
0.5750880114781585 -0.46569708937687965
0.5831279576689743 -0.45558949174098706
0.670853828439726 -0.5055246194477205
0.7362054648812022 -0.5348845795861505
0.7454283603029825 -0.5219545570794519
0.7958760696528401 -0.5368251873319169
0.8051237452276071 -0.5228534736144259
0.8565285771179904 -0.5352184568755369
0.8657389737091334 -0.5201884556591546
0.874685657822283 -0.505
0.9270968895677595 -0.5138981974611173
0.9800718280734091 -0.5211134346923388
0.9890172418490885 -0.503929454710897
1.0426010937070338 -0.5085105302753298
1.0513170329625139 -0.49023718361921126
1.1053900037475473 -0.4921513381217182
2.1079561144060883 -0.8947742842404367
2.123251026957943 -0.8578490989224383
2.0445411340288717 -0.7848258095042077
2.057926839521139 -0.7490241138832145
2.070685680562504 -0.7129942582611731
2.082813770686386 -0.6767472176811348
2.046492177760896 -0.6256754481066567
2.0571000293080024 -0.5898639414483782
2.0670812682586064 -0.5538727565193943
2.0279180679168327 -0.5056167618033053
1.9877149321618799 -0.45890015086148433
1.9954211054969635 -0.4241398492682292
2.0712333570745707 -0.40260698024450964
2.22566552180759 -0.3924448815272626
2.330944483804525 -0.3691853374949448
2.4855728525413414 -0.34932448340976413
2.640172763365917 -0.3241724534576922
4.932828601026635 -0.5184611778075608
5.4890327864855175 -0.48022814253959595
5.84572533452257 -0.4087729361405736
6.501078271252275 -0.3407070751415648
7.105668780105772 -0.24813542155478224
7.958787653444874 -0.13892115524077694
9.16 0.0
11.008323123671868 0.19215099487449172
11.15320162953311 0.38947838319991135
11.094774131123314 0.5814524738591067
11.082936598386647 0.7749944232972331
16.995081549445178 1.4868769712750503
19.3533960838666 2.0341238951885394
19.265320803358062 2.3654839554939118
17.042513463042425 2.3951690675227257
16.948731924612563 2.6844154200903616
16.9485414293401 2.9884851376478716
16.942885186306682 3.2933632601991647
8.77907428371497 2.0268089996382246
6.025536460173938 1.5023349716739374
5.225658720223859 1.400211034004638
4.575605672666398 1.3120338136889156
3.930412547008076 1.201647706410448
3.575972501269777 1.161903898849802
3.271494271573636 1.126465814421762
3.0164133127227655 1.0978846600753966
2.763398062431717 1.060769130654089
2.559027438604333 1.0339141978279174
2.402517667510869 1.0198082453570048
2.201644552918668 0.9802353098126788
2.048255598702829 0.9551172715339805
2.031274544636117 0.9907187917433152
1.8800237660374561 0.9579199544504438
1.8630194209323356 0.9905849974782299
1.889178567421095 1.047188779732088
1.8706148721743878 1.0799999999999996
1.8514813695165626 1.1124822418057172
1.8741862925057016 1.1711215739553829
1.853461955159387 1.2036522673832102
1.707817399463386 1.1519373811497384
1.6301125681350934 1.141417108338582
1.6099438188061455 1.1696926520620214
1.5892846649941126 1.1976118960725766
1.6233021524298472 1.268262639170856
1.6242350594450694 1.3152796172941599
1.601032886118664 1.3434261042448672
1.5773430226655933 1.3711633705901598
1.5903299265216235 1.431939497607957
2.969296028573832 2.7689133418537435
3.2801894895442483 3.167642169293028
3.118340905032675 3.1183409050326745
3.0634434137241775 3.1722885194934523
2.9053130138662433 3.115566768897666
2.783583322452851 3.09148247398596
2.663599657701459 3.064120895704454
2.577578314843023 3.0718382169071017
2.4606427290048645 3.0386407092967564
2.4072363685233245 3.0811220466022826
2.262824487051701 3.002869517777821
2.210072548619699 3.041903898849802
2.1279685788623803 3.03905408431216
2.046646026702933 3.034277515551453
1.9389149646534969 2.985667221885709
1.197617537167043 1.9165886973135224
1.1279333840530188 1.8771963885376257
1.0449999999999997 1.8099930939094768
1.0374925873271614 1.871686173278307
1.004669144361806 1.8895078487181038
2.0928962037993113 4.107540076508377
1.998972429358192 4.098500851124201
0.8832721670380618 1.8941832749065983
0.8297427518746328 1.8636327335909055
0.7970915021181184 1.8778299010429784
0.7641974505684609 1.8914550633162461
0.7489890145496773 1.9511830913791515
1.5596118535650496 4.2849983507837415
1.5334260074932073 4.4533924910727825
1.5018225926622446 4.6221346691944465
1.4794008258970468 4.8389020651729595
1.4636343593882655 5.104299605432473
1.5166796043007729 5.66032534205394
1.4418544977740193 5.782962528604939
0.4071614083623959 1.7636098172612757
0.3763201603801442 1.7704471573281884
0.07441550819685253 0.382834601544589
0.0764051981734493 0.4333154113253716
0.061009441365690066 0.38519845283210374
0.061236164422428706 0.43571795024629095
0.047529043928007525 0.3870929991401156
0.043901954572414546 0.41769919605467476
0.03660541195401642 0.4184017731985331
0.02929771897253269 0.41897690110912617
0.019364303809889186 0.3694929278591923
0.014657788615050453 0.4197441473480202
0.0064573903817948496 0.36994364720786477
