# .PCD v0.7 - Point Cloud Data file format
VERSION 0.7
FIELDS x y
SIZE 4 4
TYPE F F
COUNT 1 1
WIDTH 179
HEIGHT 1
VIEWPOINT 0 0 0 1 0 0 0
POINTS 179
DATA ascii
4.8373548566320456e-17 -0.79
0.01431097327857255 -0.8198751100282408
0.026872612460925833 -0.7695309368047037
0.04291548411921405 -0.8188762184987505
0.055107614257859115 -0.7880755997052612
0.06710992191569677 -0.7670699175306441
0.08257748598144624 -0.7856722973409359
0.09627678129006652 -0.7841114597966444
0.10994674975845173 -0.7823117743058406
0.12358322738178244 -0.7802737890701589
0.13718206035687502 -0.7779981248796444
0.15073910634747048 -0.7754854749236546
0.16425023574602998 -0.7727366045797064
0.17771133293165348 -0.7697523511803359
0.19111829752373746 -0.7665336237580372
0.21999618833714263 -0.8210369523457081
0.23429175244444927 -0.8170724415475711
0.23389736377818943 -0.7650438047704284
0.2626644452187053 -0.8083980388508805
0.2930113390114411 -0.8509667180393851
0.2941373232600752 -0.8081356538758812
0.45154361642707846 -1.1763113373864742
3.6748906814100986 -9.095673613300184
3.6767799190840655 -8.661950670987464
3.6850339862667516 -8.276721846241964
3.702135972848527 -7.939256214441054
3.664782787156687 -7.513918227061035
3.7045624778747026 -7.270613237377082
3.713520061636397 -6.984115459514112
3.737882172099259 -6.743317942044741
3.704999999999999 -6.417248242042691
3.739176423846994 -6.223034603097335
3.7412300054864263 -5.987219558864367
3.736223780203086 -5.753280096105608
3.7242247371151747 -5.521390233216577
3.762661422462862 -5.373637410535786
3.738314204580129 -5.145348084224666
3.73727129377422 -4.959526517393688
3.761691614239773 -4.814745704537071
3.7507495306570307 -4.631789930283547
3.766735392763121 -4.489020436677212
3.778900006985322 -4.347127182083167
3.753822701673195 -4.169042470928182
3.757810963944367 -4.029758895921629
3.758101784183175 -3.8916283198321024
3.7547370081005673 -3.754737008100567
3.7477603597643725 -3.6191701100913756
3.77378510035492 -3.5191115379224924
3.7974700581894854 -3.419257398493765
3.7810949969160874 -3.2868557352424412
3.761278215714182 -3.156087163560908
3.776929372680879 -3.05849710050221
3.7509311871679967 -2.9305486225501327
3.761573252322749 -2.834548759046147
3.770019193787255 -2.7390792756829248
3.7762909241722524 -2.6441873715783224
3.738959452223238 -2.5219599946530677
3.740470733036591 -2.42909009616702
3.7822945088576603 -2.363439918480094
3.7801077960963156 -2.2713179103533383
3.7758707605001525 -2.18
3.7696109377707954 -2.0895294632617127
3.761356745579029 -1.9999488574678947
3.795687793042447 -1.9339995288904692
3.738983232604535 -1.823623970642562
3.8155557834242964 -1.7792228819283444
3.80034910379322 -1.6920244351953286
3.7832749476895304 -1.605904938090915
3.8107256422694964 -1.539633098939398
3.7436575102537786 -1.4370554776766542
3.7681674093514923 -1.3715007747359318
3.79152948815326 -1.3055282993731983
3.766183804528808 -1.2237072977247916
3.786966833613621 -1.1577919507020373
3.8065963159157428 -1.0915239290353165
3.7284736894758037 -0.9990415140957298
3.7744503752136263 -0.941076173882707
3.7902995520145653 -0.8750596013976344
3.92237187894256 -0.8337258801792151
4.378057238176582 -0.85100811937939
4.933886842591162 -0.869977370111321
5.392778339649452 -0.8541321791196606
6.149564706885152 -0.8642649569620062
7.1066304457518665 -0.8725844987808556
8.264476950510351 -0.8686315297541997
10.171147867516723 -0.8898601334535889
13.377333913984245 -0.9354343129087186
23.92716365271959 -1.253969511580936
26.793668072381955 -0.9356555065940523
32.5550409542921 -0.568250353597952
32.56 0.0
32.50504856953428 0.5673777332760878
18.79854145622919 0.6564595329740441
12.230135256185445 0.8552143681029774
5.289793846867169 0.46279699399006546
5.1814590748687035 0.5445932936244753
5.171165450051288 0.6349392791408182
5.3078368484548175 0.7459678211459506
6.479235514304103 1.0262100906639144
6.755781185663747 1.1912264987951424
4.8688708299004135 0.9464126170676624
4.460353059346153 0.9480773101289828
4.10209797274584 0.947043938787672
3.842371076052946 0.9580107065746847
3.82506627210471 1.0249234186059828
3.8065963159157428 1.0915239290353165
3.834782071411772 1.1724105359381742
3.8137366303435654 1.239158147443539
3.79152948815326 1.3055282993731983
3.8151520403907875 1.3886017819022152
3.8370155529034995 1.4728922726311844
3.810725642269496 1.539633098939399
3.8293001903621517 1.6254414945153794
3.8460263766753497 1.7123612673491193
3.8155557834242964 1.7792228819283444
3.783922934919493 1.8455425279820166
3.840238119251865 1.9566990538774465
3.6289146066501896 1.929528123050012
3.6384179816998863 2.016808020224762
3.6026656797432652 2.079999999999999
3.6515327009909977 2.194062199116831
3.570282484818554 2.2309601024217924
3.824337789831133 2.4835539996685236
3.821863209478743 2.577879285000143
3.8582061286011506 2.7015450152134277
3.8509208932247496 2.797857800912172
3.921300354332207 2.954911763676558
4.3813397900533735 3.42307780281066
4.515218036065002 3.6563514719995545
5.5231804348878315 4.634498665839949
5.403720594395048 4.697382647572032
4.31767143602366 3.887648822944967
6.0409815753743485 5.633306454116237
5.833845780746459 5.633679384422468
5.663925317304246 5.663925317304245
5.703145221468367 5.9057797607803275
5.633306454116237 6.040981575374348
5.627388399477999 6.2498479822648845
2.433978997554782 2.799972542626484
4.7630561877772575 5.676389323511628
2.4606427290048645 3.0386407092967564
4.408136163331714 5.642156995824129
4.278904814611063 5.678298476436253
4.120374618570237 5.671209130568381
2.3860779752203514 3.4076725042422065
3.836063317809323 5.687197747727587
3.681759876701584 5.669413039311066
2.7078874402316773 4.333525771359337
3.3786497714099557 5.623017492605856
2.5299999999999994 4.382088543149259
2.1380104252863465 3.8570729084847355
2.985839139318265 5.615546690582776
2.4106895536169937 4.731244643440233
1.8017054133031076 3.694043530289577
2.6455903184967786 5.673486746849428
1.9564032531945996 4.394153651260909
2.6608789850119536 6.268638052011118
1.5958240879517858 3.949803220454514
0.5948907962451983 1.5497435079853548
0.5677534379206102 1.5598897505046077
0.5339317733097367 1.5506504639828795
0.49751736094366544 1.5312009912351974
0.304066572911646 0.994556946201557
0.2866628500496791 0.9997121637758517
0.25623085465149575 0.9562665680261775
0.239502676643671 0.9605927690132365
0.22270154380042648 0.9646263641373829
0.20583257390958165 0.9683661247264677
0.18890090542277946 0.9718109116131873
0.17191169589026092 0.9749596754820861
0.1548701203898286 0.9778114571891864
0.14195656297926654 1.0100734301164018
0.12430673027325044 1.0123970746741484
0.10139260936962406 0.964686238507225
0.0888988576026113 1.0161185920535805
0.07115160321900797 1.0175153312650207
0.05338267536780262 1.0186021254496653
0.0355974866365511 1.0193786435594776
0.017801454566029044 1.0198446490595192
