# .PCD v0.7 - Point Cloud Data file format
VERSION 0.7
FIELDS x y
SIZE 4 4
TYPE F F
COUNT 1 1
WIDTH 178
HEIGHT 1
VIEWPOINT 0 0 0 1 0 0 0
POINTS 178
DATA ascii
8.205133554287267e-17 -1.34
0.023386224625960024 -1.3397959115095643
0.047812310482426484 -1.3691654330161613
0.07431705786498043 -1.4180539393514948
0.09556636902945188 -1.3666627488559593
0.11940336756429167 -1.3647867363856916
0.14320399467668524 -1.3624949966545346
0.16696100046505208 -1.3597882277486113
0.1906671483152897 -1.3566672541759515
0.2143152171051164 -1.3531330266153387
0.23789800340369469 -1.3491866216267252
0.2614083236658666 -1.3448292413232998
0.2786016656957977 -1.3107177849832996
0.3014344128207793 -1.3056558868122152
0.33627143488353806 -1.348711059523635
0.35975847269250383 -1.342636898541805
0.3831359245856288 -1.3361537573542632
0.39762551842292204 -1.3005744681097282
0.4202631123499286 -1.293436862161409
0.47532950550744885 -1.3804571203750025
0.46514739492290963 -1.2779819642688355
0.5232172063361386 -1.3630274226859145
0.5469256263872317 -1.3536884276675094
0.5704674475943396 -1.3439370860405628
0.5938354988906686 -1.3337763681581971
0.6170226621414212 -1.323209369073509
0.640021874312053 -1.3122393075967838
0.6673660346171338 -1.3097795905569007
0.7089020598066952 -1.3332508652169797
0.732062526571969 -1.3206757577804875
0.7549999999999998 -1.3076983597145024
0.8034593968596847 -1.337180989095295
0.8266740522037996 -1.3229550300040245
0.8768688463741937 -1.3502596143921326
0.9003005745879026 -1.334750491813617
0.9234580625251841 -1.318834791305277
0.9463342561908819 -1.3025173609436655
0.9869766379693591 -1.30976223647756
1.0219980490405929 -1.3080978509871584
2.1774485530324372 -2.6889250266411193
2.256184509999753 -2.6888159953476127
2.3027671917566805 -2.6490306265819297
2.014083125140163 -2.2368659246869567
1.9505153097787458 -2.0916715866308273
1.9519900209897822 -2.0213448389516095
2.0223253941935257 -2.0223253941935257
2.740684639290261 -2.6466483914487795
1.9454008463069938 -1.814115637766246
1.9024507532221295 -1.712974352278677
1.9320565253702964 -1.6795111142156987
3.033535994751153 -2.5454389343586956
3.1552126035153014 -2.5550407876623398
3.2781247350039635 -2.5611517373547383
3.362255497299103 -2.5336412474701233
3.486863245756023 -2.533354437380559
3.612460515314454 -2.529472084308113
3.738959452223238 -2.5219599946530677
2.549558526554089 -1.655702666445682
2.578066212315535 -1.6109545632689428
2.562930229099316 -1.5399638439810617
2.5894159573154716 -1.495
2.527650953632854 -1.4010998025119141
2.5517185433622993 -1.3567728164512245
2.5304585286949646 -1.289333019260313
2.507635389174676 -1.223055499541526
2.5285987258322535 -1.1791049502565514
2.548791826822857 -1.1347952341814824
2.522183298459687 -1.07060329206061
2.4941245687846583 -1.007691736288803
2.5113313472774728 -0.9640097842768579
2.5277731499140934 -0.920034185546049
2.4961690395821967 -0.8594999277668938
2.5107892030192054 -0.8158048651498612
2.495955413063523 -0.7630901493263428
2.65308228078976 -0.7607591020549175
2.810844154501189 -0.7531634212483352
2.9691049224045494 -0.7402810005349829
3.127727907960605 -0.7220928844438063
3.2865759384655866 -0.6985832811476715
5.89957937252046 -1.1467620622130346
6.164896533856422 -1.087037592194984
5.392778339649452 -0.8541321791196606
5.753457479388524 -0.80859571657798
6.3125935244388085 -0.7750890240567377
6.524063633615873 -0.6857067190358062
6.5350372194818505 -0.5717416724246369
6.544020169704447 -0.45760246776146113
7.599570759482307 -0.3982766270088031
8.105059607124867 -0.2830349182572832
9.358574426663822 -0.1633545242529739
11.06 0.0
13.907881439625402 0.24276297354261397
19.84790182459924 0.6931040045116702
32.4654461748712 1.7014419374581062
14.155926659883706 1.2384831044442244
20.754140030820047 2.548287970601633
13.972682449943557 1.963732454546523
10.528757710744168 1.6675913973288612
8.626915916386942 1.5211580363623098
7.224776070174808 1.4043542059713703
6.221018740667004 1.3223183536009497
5.46621606344517 1.2619754148690832
5.152270306525541 1.2846052656342362
4.308029185249244 1.1543329411572432
4.027686505981556 1.1549205208732263
3.978227784806228 1.2162662916465847
3.766183804528808 1.2237072977247916
3.0351146276738072 1.045073775807473
2.8754594196048795 1.0465816385765465
2.623360998457137 1.007013938222294
2.4663090531476546 0.9964535384863263
2.356492424838247 1.0002716889325411
2.201644552918668 0.9802353098126788
2.0935709880546614 0.9762481846210156
1.9413951400062006 0.9468816770644076
1.8800237660374561 0.9579199544504438
1.774724661646443 0.9436378411996408
1.6705236406362458 0.9259863746705037
1.5675059808498342 0.9049999999999997
1.534329468256781 0.9219181540889971
1.4756036873121814 0.9220595197657765
1.4173532598277665 0.920439969175396
1.3596216189902683 0.9170763616920247
1.2614941482050472 0.8833077119806113
1.2458861713374192 0.9051892885304087
1.1899669099704662 0.8967043844965522
1.1347354851936795 0.886552524468948
1.0802328864251896 0.8747553435592738
1.0648017759353794 0.8934747774642896
1.0113108374985145 0.8791190988472797
0.9586568248658385 0.8631784822029273
0.94344627508873 0.8797778844806231
0.8919813524199272 0.8613763793691567
0.8414570696119916 0.8414570696119914
0.8266434608462065 0.856014362402995
0.7774781304712481 0.8337432198458542
0.7628088912490985 0.8471851010442293
0.7479072930491782 0.86036892145396
0.700638494558328 0.8349884429996861
0.6859592262443228 0.8470890979880984
0.6402879343386848 0.8195311837509908
0.6258876240781301 0.8305809304491847
0.5819073997695484 0.800926824431198
0.5965194938050878 0.8519181260605516
0.5536009744360393 0.8207471968294913
0.5119606929141255 0.7883503338686985
0.5246200715908729 0.8395676151948617
0.48413579041545096 0.8057372626599855
0.46999999999999986 0.8140638795573724
0.45572104303155686 0.822142524711032
0.41782969087944266 0.785823357644445
0.4131313547629877 0.8108159370114149
0.3769991862386064 0.7729628798172836
0.3845826181840365 0.8247400862033515
0.3823324444912523 0.8587327301840446
0.37510188334970274 0.8836846593143427
0.3708605274817531 0.9179120160211194
0.32611483408622316 0.8495581881124536
0.3112383304263586 0.8551202849151766
0.29626702055601245 0.8604219037953783
0.29047597471245057 0.8939931253174442
0.2748294024393723 0.8989264706052533
0.2590991144679792 0.9035859941820197
0.23034895014124365 0.8596739853972707
0.24434111455566435 0.9799986835387564
0.3734187502108161 1.6174543075434904
0.36592457583925625 1.721539777291498
0.36444518116920077 1.874907920385038
0.3577152459938763 2.028703971205149
0.34572016773891034 2.1827912327152545
0.3214898632177507 2.2875192387930277
0.1596488398607432 1.300235458650132
0.13693228688062634 1.302823682932438
0.08802730017513472 1.0061566450726631
0.06696621479436043 0.9576614882494312
0.06070970924181474 1.1584102603153055
0.03699346650465115 1.0593542766402415
0.01675431017979204 0.9598537873501356
