# .PCD v0.7 - Point Cloud Data file format
VERSION 0.7
FIELDS x y
SIZE 4 4
TYPE F F
COUNT 1 1
WIDTH 179
HEIGHT 1
VIEWPOINT 0 0 0 1 0 0 0
POINTS 179
DATA ascii
1.2062770971601428e-16 -1.97
0.03438124068144869 -1.9696999594580908
0.07049698333905219 -2.0187694705785733
0.10310183379859961 -1.9673001834665105
0.14090807696313343 -2.015079381524845
0.17169681321288652 -1.9625035552407386
0.21114749580065997 -2.0089342286439122
0.24617607367839794 -2.0049432263154703
0.27695447091053027 -1.970633456795725
0.3191263086820711 -2.014884214814081
0.3594517277705459 -2.0385520487352706
0.3797099007993244 -1.9534380950608512
0.4241398492682293 -1.9954211054969635
0.4589001508614849 -1.9877149321618799
0.5056167618033054 -2.0279180679168327
0.5409318042642683 -2.018784976944153
0.5898639414483783 -2.0571000293080024
0.6110568628705199 -1.998676939962744
0.6612963679623876 -2.0352609448716286
0.7129942582611732 -2.070685680562504
0.6532584737520274 -1.7948129057010849
0.6486459886769937 -1.6897805719599353
0.6780379340828011 -1.6782027767658851
0.6876867861411218 -1.6200885420762952
0.7158564918134087 -1.6078400054509774
0.743808140663631 -1.595101705184504
0.7496146610093224 -1.5369378191715755
0.7990232795416025 -1.5681714825715276
0.8262699505031679 -1.5539877634317114
0.8775054126458702 -1.5830616699223063
0.9299999999999998 -1.610807251039056
0.9837227230782036 -1.6371895443410343
1.081035299035738 -1.730018116159109
1.1110636314306552 -1.710887958608665
1.1127938779067863 -1.649784769384533
1.084059464703477 -1.5481973637061943
1.1109141268327742 -1.5290421193686505
1.1073396425997688 -1.469489338487019
1.1328171145992114 -1.4499397866363684
1.1894155390841925 -1.468805867153675
1.2470079627918864 -1.4861262196508174
1.3055574676911095 -1.5018720646433164
1.3650264369720708 -1.5160154439738842
1.4049166217287472 -1.506588625335491
1.4309962431455343 -1.4818399886976212
1.4778531726798843 -1.477853172679884
1.5393871727247137 -1.4865689127822541
1.6016646065459834 -1.4935764085368717
1.7018016503432332 -1.5323090885617852
1.728284938710148 -1.5023751763882618
1.7925439968984085 -1.5041230066665017
1.896236145955009 -1.5355417541616032
1.9621467764807379 -1.532997073560889
2.0045751302187047 -1.510555708111641
2.1115343553186126 -1.5341195084833548
2.178944437808718 -1.5257133206937825
2.246691821624163 -1.5154127684057237
2.3566642959266417 -1.5304356883922259
2.4678199598152 -1.5420650589186264
2.5372152100782523 -1.5245127017337599
2.693339005769604 -1.555
2.8949912306314 -1.6047198430153757
8.131947330230718 -4.323833093258055
8.339821066403124 -4.2493510775621575
8.502591677990122 -4.146991048624673
8.754933222774039 -4.082492408415156
8.870526393709657 -3.9494128042660197
9.03015261236844 -3.833072370479775
9.188391998756863 -3.712351340751687
2.6700400197819967 -1.0249323356995588
2.3116438471333343 -0.8413695525811452
2.2314238384143876 -0.7683408445188897
2.196940552641805 -0.7138292570061285
2.3046944618709158 -0.7046158083817955
9.910608085124068 -2.841821138473261
10.006991560354747 -2.681365307262114
9.955234151591723 -2.4821186488525897
9.948318361457252 -2.2967502648508606
9.937979623455465 -2.1123827787084357
11.200366163137845 -2.177130637246377
11.975262276628449 -2.1115618404298733
12.454749974904686 -1.9726386041573112
30.411132391053627 -4.274005930483609
20.15861233983525 -2.4751663645585444
20.099287505392805 -2.112520242639275
19.93385590881583 -1.7439864123806381
30.38580097091425 -2.124782190246053
28.07147622195107 -1.4711637299891531
17.899089711912005 -0.6250499859417933
18.107241759282246 -0.31606308057920485
10.158452582788936 0.17731644940280072
10.153810802514013 0.3545788864974104
10.1960075498442 0.5343501132404573
10.185128953152805 0.7122135969275204
10.22095760242131 0.894217920590974
10.104342456941657 1.0620091867993606
10.034641593093767 1.2320990618260406
9.962096771540198 1.400081395658258
9.837375872327573 1.5580872718006995
1.5363000946990446 0.27089115716041134
1.4626245033370193 0.28430540311105185
1.4574399250933703 0.3097884193184615
1.4518113965300006 0.335177070972359
1.4942554184650345 0.37255971922348846
2.665955280557828 0.7143405644829577
2.5088930263990123 0.7194134986823676
2.400324937467219 0.7338529788540691
2.2920462042713203 0.7447309564436233
1.2386293340351051 0.4264942823388753
1.1652188497745264 0.42410497772382927
1.15763972885653 0.4443762574361724
1.1497079796628162 0.464512175835731
1.1414260182810259 0.4845065993266996
1.151067276629677 0.5124881702755084
1.6404170945363363 0.764939053750666
1.6537810451904673 0.8066029100919028
1.639452004506597 0.8353425195207661
1.5804761912174792 0.8403540973867448
1.5218382904225485 0.8435687392286265
1.4202816622064793 0.8199999999999997
1.405754373151464 0.8446624428524889
1.3483964728887174 0.8425716301307958
1.291552674635953 0.8387441139231419
1.1523622258515078 0.777278135824338
0.99117397358968 0.694027487984766
1.0031810730249349 0.7288537128426666
0.9663489671572242 0.7281961780139786
1.252937098234688 0.9789017457677968
1.313376674862281 1.063551460874225
1.3329173310270217 1.1184504408545786
1.101875987125247 0.9578461823261404
1.144443031235187 1.030461133792642
1.3091231258983154 1.2207770645118723
0.8704011584097676 0.8405366282553868
0.8202438661763951 0.820243866176395
0.7710707912094868 0.798467178375903
0.7433782124681234 0.7971755347648959
0.7293523609311556 0.8100278597703596
0.6823013901501276 0.7848979634316829
0.6684991140740011 0.7966862208437372
0.7174252457968145 0.8859463960609467
0.7018540818712505 0.8983322591116629
0.7161598775509372 0.9503762569562786
0.699464450228043 0.9627302233061874
0.6825559592577446 0.9747909327039004
0.6654395551301887 0.9865547113404997
0.6753524034186337 1.0399515042523257
0.6147063465105176 0.9837357915414541
0.6231960706411657 1.0371724338495558
0.6299999999999999 1.0911920087683928
0.7805434885966028 1.4081377284944272
0.7464597848295662 1.403886672645694
0.7218448945858795 1.416700373459505
0.6400218743120527 1.3122393075967838
0.4395229922103274 0.942560098518116
0.4026692766450424 0.9044100030661747
0.4063603736288447 0.957325047590538
0.3895908571525487 0.9642712087494588
0.3798700265180182 0.9895952520870339
0.372801956224979 1.0242649566566402
0.3451022437245859 1.002249690135276
0.35845971347493905 1.103225558902378
0.4590235764146964 1.5013984668619658
0.4327506486326887 1.5091808626231606
0.40634590081095795 1.516503547273837
0.3677212813114949 1.4748495039395146
0.341925602602675 1.4810424984735575
0.31602577004299404 1.4867843531153846
0.2900296729723483 1.4920733188404494
0.26394523005373394 1.4969077845785563
0.23778038686115102 1.5012862777046094
0.21850176850730244 1.5547208679242654
0.1852414019758242 1.5086701504948095
0.1588832641668336 1.5116732809597755
0.13247672897644036 1.5142159410994533
0.10951766377827697 1.566175558907924
0.0795506534892745 1.5179168928269522
0.0547922098229267 1.5690435984199804
0.02652765778467073 1.5197684966377147
