# .PCD v0.7 - Point Cloud Data file format
VERSION 0.7
FIELDS x y
SIZE 4 4
TYPE F F
COUNT 1 1
WIDTH 180
HEIGHT 1
VIEWPOINT 0 0 0 1 0 0 0
POINTS 180
DATA ascii
2.694222958124177e-17 -0.44
0.007679058832404783 -0.4399329858688122
0.01710075338422553 -0.4897015052393569
0.024074539871754227 -0.459369585987104
0.032087977922297714 -0.45887946311951916
0.04009164166392275 -0.458249561122203
0.048083093103120596 -0.45748007186940576
0.05605989796636785 -0.45657122975500813
0.0709782814896334 -0.5050367150582009
0.07195985391850623 -0.4543366366737634
0.079878161726788 -0.4530115663856157
0.093496407734507 -0.48099731988935535
0.10603496231705732 -0.4988552763742409
0.12597259043256448 -0.5456472362797318
0.12338016675583052 -0.49485082040075823
0.14493866525741161 -0.5409184627218783
0.15435691925751954 -0.5383065497254587
0.16372815464473262 -0.5355306633392999
0.17304951684997058 -0.532591649125286
0.1823181664960078 -0.5294904023356174
0.19153128026237456 -0.5262278676401088
0.21860444922263322 -0.569484060163293
0.20977969231291085 -0.519222958557401
0.2188094319539933 -0.5154827179333666
0.24810935227623823 -0.5572627291619865
0.25779713966182666 -0.5528477500923564
0.28932495688079113 -0.5932040705574502
0.2769342048411236 -0.5435139797549045
0.2863776532993934 -0.5385980316439454
0.3199743493625825 -0.5772490067120012
0.32999999999999996 -0.5715767664977296
0.3141732256951331 -0.5228720534282885
0.323250751182255 -0.5173093386554198
0.3322298113591665 -0.5115890464467086
0.36906731629069295 -0.5471647978863275
0.36708891926466947 -0.5242573083449548
0.3761825614671828 -0.5177708763999663
0.39719791528035187 -0.5270994366312133
0.4063365737149346 -0.5200870973804365
0.3838854385404008 -0.47405903648875225
0.424239822393116 -0.5055893324585256
0.40019600768420943 -0.4603728439358909
0.44162620019684645 -0.49047558481508025
0.4501189176412491 -0.4826934430686525
0.49320744302588804 -0.5107312582404422
0.46669047558312143 -0.4666904755831213
0.5107312582404423 -0.49320744302588804
0.5192611281496111 -0.4842188356443739
0.52763282608895 -0.4750827305147892
0.5735792809693068 -0.49860486203278553
0.6587982210823211 -0.5527973443304237
0.668345526852995 -0.5412155363028601
0.6776892481017809 -0.529468868780066
0.7267583141430365 -0.547651671068364
0.7766563145999495 -0.5642738422007741
0.7863859625174321 -0.5506333788970041
0.7958760696528401 -0.5368251873319169
0.8470572736248783 -0.5500854253651772
0.8565285771179904 -0.5352184568755369
0.9085973387442391 -0.5459403594046573
0.961288198200727 -0.555
1.014558860281699 -0.5623791594857509
1.112513967002248 -0.5915341691102224
1.167218546686762 -0.5947275546588063
1.1774202006519088 -0.5742662022936914
1.1872632010180115 -0.5536299228803162
1.3337763681581973 -0.5938354988906682
1.3439370860405628 -0.5704674475943395
1.4464068131241885 -0.5843862857288226
1.4563854653356347 -0.5590540012906685
1.5598897505046077 -0.5677534379206102
1.7586645506147294 -0.6055567672903115
1.816517946123743 -0.5902224592561495
1.9699877972838533 -0.6022857117288376
2.076325263226769 -0.5953766885647181
2.279584950042201 -0.6108129464419488
4.861181588642742 -1.2120286969543348
9.266259316107586 -2.139284526810155
9.253276302941801 -1.966844595136004
9.286193155414901 -1.8050530962621145
6.361858084458864 -1.1217672277283701
5.195240671530424 -0.8228452861116143
5.109783234706503 -0.7181332009539375
5.022283527305089 -0.616658877630046
4.932828601026635 -0.5184611778075608
4.941125702535058 -0.432292484028384
4.848161284262747 -0.3390164623964484
4.703545108694042 -0.24650235390426578
4.90700896066376 -0.17135652880928
5.00923695273352 -0.08743655625079051
5.01 0.0
5.10922172224916 0.08918179689451887
5.10688712606758 0.1783364281497802
5.152928399333601 0.2700535342135906
5.247186904366675 0.36691905189409957
7.033134568527723 0.6153195437984675
6.921872391763182 0.7275181043428691
5.071910834887157 0.6227523448003034
5.060269831269425 0.7111745459059343
5.047087420441154 0.7993801163555798
4.68768490433811 0.8265653256945885
4.721626752383263 0.9177912677611807
4.753797339566296 1.0104508173743108
4.832875521334767 1.1157572295455709
4.084945007621945 1.0184911804746015
4.839288389708232 1.2966834159636298
3.5182178071342474 1.0088327222902167
4.886717302971112 1.4940194111331846
4.907451624082992 1.5945276909747286
3.0351146276738072 1.045073775807473
3.063397943762061 1.11498566724168
2.856756105081437 1.096605925608619
2.7444642095176905 1.1088355165111
2.402517667510869 1.0198082453570048
2.201644552918668 0.9802353098126788
2.229517156110159 1.0396409238821205
2.255973056210909 1.1003115784405846
2.102775397084548 1.0714175793853304
2.083756319147067 1.1079528881747027
2.1515644795629134 1.1926316658059892
2.0438199529312753 1.1799999999999995
1.9800564646218792 1.1897379530422254
1.9165886973135227 1.197617537167043
1.811528426762116 1.1764203156324589
1.7907211567188903 1.207856671496813
1.6874532112353229 1.1815674588831553
1.6261241586936441 1.1814483571078709
1.4854620486879646 1.1193759430628103
1.3474983886674945 1.0527811228068757
1.2745193767894323 1.032085441321733
1.2563128867151239 1.0541716798859244
1.1999882325542075 1.0431338560949064
1.144443031235187 1.030461133792642
1.0897170154125642 1.0161775564931228
1.1077832925215225 1.069773890506856
1.1242997820866107 1.1242997820866105
1.1045068090298056 1.1437502825384556
1.1184773105024974 1.1994200706554394
1.1308307247464706 1.255914755056796
1.1415427104434825 1.3131946695876233
1.1184504408545788 1.3329173310270217
1.126483499979209 1.391091271007978
1.1328171145992114 1.4499397866363684
1.1374303937573709 1.5094211139893836
1.140303389447398 1.569492969087398
1.1414171083385813 1.6301125681350939
1.1687131682538607 1.7326885266400371
1.1655275349321583 1.7947550154032073
1.1605231886707188 1.8572253305825728
1.1124822418057172 1.8514813695165626
1.0549999999999997 1.8273136019851655
1.0229482987197713 1.845447582064125
0.9905849974782291 1.8630194209323359
0.9579199544504439 1.8800237660374561
0.9249631197249529 1.8964554376912424
0.9128554453599108 1.957624819999164
0.9598984776588888 2.1559672800365375
0.9924570663627552 2.3380823277691984
0.9589928791447352 2.3735906676909755
0.9711771432677634 2.530002955807417
0.9610766027451294 2.6405362644084023
1.2566930762046242 3.649701701813363
1.270059846881034 3.9088422819730813
1.2893592178272681 4.217303973796987
1.312033813688916 4.575605672666398
1.3355062727290081 4.984177263651592
0.14757235631579727 0.5918803930283578
0.13722014314975772 0.5943657395189935
0.1330634821233659 0.6260144644696356
0.11257730727216149 0.5791600382341218
0.11113483370683534 0.6302769619278132
0.1001180576257478 0.6321205379808882
0.08211212956643849 0.5842581605575264
0.07555899291119145 0.6153786140176196
0.06480764722594529 0.6166035751283294
0.05403656050354805 0.6176407128168823
0.04324901372135778 0.618489711161091
0.032448292870625124 0.6191503115478357
0.02163768795555067 0.6196223127518393
0.010820491991115693 0.6199055709969625
