# .PCD v0.7 - Point Cloud Data file format
VERSION 0.7
FIELDS x y
SIZE 4 4
TYPE F F
COUNT 1 1
WIDTH 179
HEIGHT 1
VIEWPOINT 0 0 0 1 0 0 0
POINTS 179
DATA ascii
4.531193156845207e-17 -0.74
0.012914780763589862 -0.7398872944157295
0.028617587296050885 -0.8195004781556585
0.04029868630706686 -0.7689447417610219
0.053712484782976605 -0.7681243187000647
0.06885303677064994 -0.786993811492479
0.07735106281806356 -0.7359462025725222
0.09627678129006652 -0.7841114597966444
0.10298809471044844 -0.7327983708687621
0.12358322738178244 -0.7802737890701589
0.13718206035687502 -0.7779981248796444
0.14119865657864322 -0.7264041157512713
0.16425023574602998 -0.7727366045797064
0.17771133293165348 -0.7697523511803359
0.19111829752373746 -0.7665336237580372
0.20446704563099138 -0.763081402768364
0.23153537888627929 -0.8074598245881879
0.23097364673096205 -0.755480757210798
0.25957427527495586 -0.7988874736879289
0.25719884202115384 -0.7469596747234603
0.2701959132272784 -0.7423571704208676
0.28311068014078733 -0.7375285369327894
0.31466953846936624 -0.7788344378361013
0.3282141479309899 -0.7732240769000499
0.3416587801836723 -0.7673781844197846
0.3549993398621875 -0.7612985411107859
0.39015032064227895 -0.7999267012062585
0.4040515447681967 -0.7929958065276475
0.4178296908794429 -0.7858233576444449
0.43148056201924 -0.7784115393540623
0.4449999999999999 -0.7707626093681504
0.4583838866699483 -0.7628788976248799
0.47162814516755236 -0.7547628055792192
0.4847287411633741 -0.7464168054714273
0.49768168408896474 -0.737843439573987
0.5391618501699833 -0.7700029216316523
0.5525181371549247 -0.7604759747124505
0.5957968729205277 -0.7906491549468199
0.5787217868061189 -0.7407301083903185
0.6544932066918309 -0.8082317999152497
0.636359733589674 -0.7583839986877883
0.6823013901501276 -0.7848979634316829
0.6624393002952697 -0.7357133772226203
0.7092782944649986 -0.7606078496839372
0.7571776238003071 -0.7840803823691297
0.7707463914933369 -0.7707463914933368
0.7840803823691298 -0.7571776238003071
0.797175534764896 -0.7433782124681234
0.8471851010442295 -0.7628088912490982
0.8981044004650987 -0.7807102444987036
0.9115928873115838 -0.7649172555269816
0.9636609922066439 -0.7803572849017983
1.0165338721526713 -0.7942033031700991
1.0302398079610078 -0.7763413798661423
1.0840827724624296 -0.7876322380719141
1.097663739347249 -0.7685924247104018
1.1523622258515078 -0.777278135824338
1.2076856178414106 -0.7842802104216388
1.2211892584652535 -0.7630837404958151
1.2771792780461473 -0.7674067316159805
1.3336791218280355 -0.77
1.3906453343516394 -0.7708472961916759
4.9091886162956335 -2.6102618890895526
4.953996274487325 -2.52418717855188
4.907415492793452 -2.3935064614683625
4.857809738516444 -2.265233882930149
4.942280925846472 -2.200445239040079
4.933906014505081 -2.094318848702507
4.9697054604779805 -2.0078913407092878
4.910633043375281 -1.8850154146082796
4.895798554294582 -1.7819249467267342
4.926151778872441 -1.6962100847217865
4.907451624082992 -1.5945276909747286
4.886717302971112 -1.4940194111331846
4.91204726624481 -1.4085068882248655
4.887584681022685 -1.3096243682187545
4.909696374956542 -1.224124791734318
4.881594024574029 -1.127004782262763
4.900519479676365 -1.0416375709969745
4.917952189072796 -0.9559530668364897
4.914190687530918 -0.8665044065579826
4.928564819569738 -0.7806079805507521
5.3078368484548175 -0.7459678211459506
6.014829678946412 -0.7385282210351934
6.971598486531596 -0.7327445275062502
8.128948736428644 -0.7111908608208899
9.436955915457938 -0.6598962416194243
12.692581386730634 -0.665190003847817
17.449363839753413 -0.6093452124256677
27.85575678705706 -0.4862240433427193
33.61 0.0
33.55488864944849 0.5857027600352355
33.58952569611181 1.1729720841710591
19.782851083488108 1.0367752931727188
12.163537263700213 1.0641716189489079
6.2754331597738044 0.6595746032188943
6.262966216856742 0.7689955568864802
6.397131724070545 0.8990582322020225
7.6150771059885125 1.20610972546018
5.91869459560337 1.0436255477782515
5.408765780796628 1.0513575645247621
4.949426859713056 1.0520331555378624
4.881594024574029 1.127004782262764
4.909696374956542 1.2241247917343192
4.887584681022685 1.3096243682187556
4.91204726624481 1.4085068882248655
4.934532540769264 1.5086379963693215
4.907451624082992 1.5945276909747286
4.878875850092475 1.6799316769989285
4.895798554294582 1.7819249467267342
4.910633043375281 1.8850154146082796
4.923346267749641 1.9891610110384932
4.7037798011419705 1.9966360665801897
4.668217288553691 2.07842424611734
4.721863570460946 2.2018411436690437
4.727656683533618 2.3058322321105478
4.775794969649652 2.433389078603971
4.9091886162956335 2.6102618890895535
4.90661655705201 2.719781969581951
4.901703785419923 2.829999999999999
4.894425287009061 2.94086740773641
5.520793105978334 3.449774410158164
5.501678925721981 3.572832069698578
5.4799383545888265 3.6962650919416364
5.291722206106886 3.705303778827759
6.399324425505834 4.649381345633462
1.3496940119799246 1.017067389126962
1.2923376359150238 1.0096848195340795
1.2745193767894323 1.032085441321733
1.1797084424032263 0.9898929189172706
1.162252753543069 1.010330904645381
1.1072857899613173 0.9970046034746989
1.0531493303316055 0.9820776384899977
1.0358493124876573 1.000308053460956
1.0182337649086284 1.0182337649086284
1.0003080534609559 1.0358493124876578
0.9479777204868728 1.0165816452506469
0.8966350125208702 0.9958140661397082
0.8922402794270899 1.02640502910297
0.8741911491736938 1.04182044264181
0.8558757318277789 1.0569185075814804
0.8988657539754612 1.150495700265814
0.9087406849595927 1.2059396201714123
0.9169449935762581 1.262066511224918
0.8947792407076317 1.2778771890908274
0.9003005745879024 1.3347504918136173
0.8224049428726911 1.26639255759759
0.8001780889921394 1.2805526251962032
0.777707493114182 1.2943226240601895
0.7549999999999998 1.3076983597145024
0.732062526571969 1.3206757577804875
0.6854284816674003 1.2891034855740333
0.6628261296197384 1.300869525315017
0.6400218743120527 1.3122393075967838
0.6170226621414212 1.323209369073509
0.5734986667368785 1.288099095276067
0.5509308911698759 1.2979118433679409
0.5281952967164362 1.30732923493917
0.5052988088588732 1.3163484013610545
0.46514739492290963 1.2779819642688355
0.4427726900617329 1.285905262815071
0.4048122626311812 1.2458840363466512
0.3830069331867849 1.2527592303115767
0.36108493612026893 1.2592528216791978
0.35199390133942854 1.3136591237531328
0.3169176832355647 1.2710874014215554
0.2834383284732701 1.2277062816293964
0.2619687304303766 1.2324659769245951
0.24995978394327384 1.2859316103164398
0.2274791127436786 1.2900981564459928
0.20492914920270253 1.2938717261796304
0.18231676225768548 1.2972511700514573
0.14136843834997107 1.1513535359039335
0.12647944055386096 1.2033714933956106
0.10545844872466634 1.205395584691012
0.0844053332303918 1.2070525008143873
0.05809291142966756 1.1084787835775771
0.04048341617490125 1.159293359342151
0.01849955082352038 1.0598385568657749
