# .PCD v0.7 - Point Cloud Data file format
VERSION 0.7
FIELDS x y
SIZE 4 4
TYPE F F
COUNT 1 1
WIDTH 180
HEIGHT 1
VIEWPOINT 0 0 0 1 0 0 0
POINTS 180
DATA ascii
2.87791997799628e-17 -0.47
0.0068064385105406034 -0.3899406011109926
0.015355778549100476 -0.43973196388840213
0.020411022934748148 -0.3894655185542838
0.0306928484474152 -0.43892818211432266
0.03834852680896958 -0.438325667160368
0.04599252383776752 -0.43758963396204026
0.053622511098264894 -0.43672030672218165
0.057060971393626835 -0.4060099081840438
0.07195985391850623 -0.4543366366737634
0.079878161726788 -0.4530115663856157
0.08777213787321067 -0.4515485043859255
0.09563937777616935 -0.4499478963375506
0.10347748499817797 -0.4482102298012082
0.11128407197584714 -0.4463360340869584
0.11905676074715954 -0.44432588009297147
0.1295495572339896 -0.45179299709100984
0.143262135314141 -0.46858933042188733
0.14214781741247584 -0.43748599749577066
0.16603975877314994 -0.48221447355565156
0.15732926592980767 -0.43225860556151785
0.1827676542681032 -0.4761260175135729
0.20977969231291085 -0.519222958557401
0.1992728755295296 -0.4694574752607446
0.22777252012244822 -0.5115854562798565
0.23666622657479172 -0.507532360740524
0.2454878422018834 -0.5033246659275336
0.2315351548671689 -0.45441332733606765
0.2629040751600989 -0.4944506520009991
0.24725290632563193 -0.44605605064109183
0.25499999999999995 -0.4416729559300637
0.28842132194963044 -0.48001368839318287
0.2967547879705948 -0.4749069338475986
0.3049978596084152 -0.46965551804943745
0.3131480259436183 -0.46426104063082335
0.3212028043565858 -0.45872514480183546
0.329159741283785 -0.45304951684997063
0.3671071641227494 -0.48716766112884863
0.3755534999486516 -0.4806865597001003
0.3838854385404008 -0.47405903648875225
0.424239822393116 -0.5055893324585256
0.4329989591337348 -0.49810832294702956
0.4081696698789035 -0.4533183435412105
0.4364789504399991 -0.468066369036269
0.4584745245029382 -0.47476426822350976
0.46669047558312143 -0.4666904755831213
0.4747642682235098 -0.4584745245029382
0.5558288132305697 -0.5183187536474988
0.4904755848150803 -0.4416262001968464
0.5735792809693068 -0.49860486203278553
0.5438915546144744 -0.4563792028774428
0.5906309307072979 -0.47828349719787644
0.5594876350607726 -0.4371196474812173
0.6468947631383072 -0.4874701687531591
0.6957546151624548 -0.5054953169715269
0.704470758088533 -0.4932757352618996
0.7129723123973358 -0.48090589698484226
0.7212566884330647 -0.4683895701129232
0.7717237675023477 -0.4822265304522165
0.7800222436389223 -0.4686846481681492
0.874685657822283 -0.505
0.8833659042107898 -0.4896577164488004
0.9359244484304626 -0.49763985655304427
0.9890172418490885 -0.503929454710897
0.9976613913920755 -0.48659197293587597
1.0060016436106816 -0.46910627053217635
1.059712730865417 -0.4718145059679281
1.0033502902631601 -0.4258969300533083
1.1218924640258128 -0.45327397803325337
1.1296323160616142 -0.4336252189498134
1.2309973332295399 -0.4480463877566261
1.3804571203750025 -0.4753295055074488
1.3885425137909242 -0.4511648117874232
1.5396506571004873 -0.4707184446036061
1.5476313304606935 -0.4437761428653686
1.6517331629543068 -0.44258056712531035
1.8047500508733536 -0.4499747258153818
1.909765326979061 -0.4409040665139751
2.1127988175850203 -0.4490892521663603
2.2184774345917204 -0.43122832955099133
2.471867460060642 -0.43585692594399517
2.72601982004258 -0.4317591235110372
3.0302202903492055 -0.42586968893780014
9.985014285511701 -1.2260055946557833
10.054616362173242 -1.0567827636359757
5.837700930817629 -0.5107326525012763
5.84572533452257 -0.4087729361405736
5.7021746434486165 -0.2988383101472097
5.6565520809280825 -0.19753115133615576
5.609145569827355 -0.09790800011316064
5.51 0.0
5.409176030796077 0.09441751882570393
5.506643456875217 0.1922962268307806
5.652243166710888 0.2962215123350625
5.646212524470605 0.39482164139174974
5.738081461008454 0.5020170782265118
5.529541738247599 0.5811782557681541
5.865947756200214 0.7202478195244214
7.733993616871664 1.0869419184981108
7.516308271928999 1.1904662789561569
6.509579247410695 1.1478144543784097
5.605091217486161 1.089519363600071
5.58522280019003 1.1871757545694062
5.222623547248861 1.2057376512831168
5.249299879153141 1.308797455194203
5.2739550115383125 1.4131519862597641
5.296551944620137 1.518761830551665
4.121673498200683 1.2601220473549952
5.525638359674842 1.7953887373184443
5.446186995452065 1.8752725696732224
3.627213516233606 1.3201977532370814
5.3774232566238815 2.0641993893809296
5.4796565804897135 2.2139249670880408
2.770719608891845 1.1761006967527143
2.749771827504228 1.224277295658159
2.6826710496284836 1.2509500547524701
2.6154906747305757 1.275660037156216
2.681929637806987 1.3665114042160358
2.4810827359335845 1.3192150914283536
2.5014123624186717 1.386555513904524
2.3036275740666072 1.3299999999999996
2.194348289797407 1.3184974717697389
1.857225330582573 1.1605231886707188
1.752821487005936 1.1382955831814068
1.6497847693845331 1.112793877906786
1.671070170349543 1.1700959301561344
1.650394668524893 1.1990819146766452
1.629216440496477 1.2277026472301789
1.6469424750380486 1.2867324834306257
1.6242350594450694 1.3152796172941599
1.639335108274613 1.3755654847291943
1.6528139806878708 1.4367692734892106
0.7877335150060378 0.7092784427403899
0.7020995535544037 0.6547184256599985
0.7121464023352645 0.6877117867544074
0.7141778489984131 0.714177848998413
0.6668720356406372 0.6905662083251052
0.6206185076568737 0.6655318684734451
0.6089088517865611 0.6762617911844286
0.5642107649318362 0.6490502389915839
0.5527973443304239 0.6587982210823211
0.5726815558553521 0.7072028249258435
0.5602519425463491 0.7170897857821169
0.5175609199107614 0.6868265386406719
0.5054953169715269 0.6957546151624548
0.4932757352618995 0.704470758088533
0.45294625181130493 0.6715204337695838
0.44115761836217204 0.6793231600357934
0.4027386408172357 0.6445165530788838
0.38112817543344013 0.6343038025195631
0.4049999999999999 0.7014805770653953
0.39269579239953306 0.7084419627829106
0.38027196585657147 0.7151875502157309
0.3450327798020556 0.6771649583831596
0.3331620715596987 0.683083475187367
0.3211898789229316 0.688793918147854
0.3091198487376083 0.6942945478083766
0.27741910122738433 0.6535584459512326
0.28470101099609324 0.7046597294707584
0.2544412441771631 0.6628421028130133
0.24283430176122486 0.6671817607579948
0.23115338966458113 0.671318188675515
0.21940206600621268 0.675250126569559
0.20758391035314294 0.6789763767337552
0.1957025226300694 0.6824958041162064
0.17082056976766385 0.6375110453507851
0.15966845109578068 0.6403951793421577
0.148467695866951 0.6430842427582553
0.1372217159397211 0.6455774164843118
0.12593393694851965 0.6478739410754583
0.11634427903684326 0.6598211945181794
0.1001180576257478 0.6321205379808882
0.09602943966244501 0.6832849674316835
0.0779963797792944 0.635229537050446
0.06689821649129836 0.636494013035695
0.05577967535850121 0.6375646067787172
0.04115631950903401 0.5885627896532962
0.03087821418333681 0.5891914255051985
0.02163768795555067 0.6196223127518393
0.010820491991115693 0.6199055709969625
