# .PCD v0.7 - Point Cloud Data file format
VERSION 0.7
FIELDS x y
SIZE 4 4
TYPE F F
COUNT 1 1
WIDTH 178
HEIGHT 1
VIEWPOINT 0 0 0 1 0 0 0
POINTS 178
DATA ascii
1.8737096026954504e-16 -3.06
0.05427698401995199 -3.109526331936377
0.09806758573402803 -2.8082882239236593
0.13398004798193655 -2.556491608971709
0.17718144331007865 -2.5338126876599536
0.22573337371643457 -2.5801442680576208
0.26550229669983977 -2.5260856142354142
0.315641599419332 -2.5706945327510238
0.3604583314865695 -2.5647942980406673
0.4082939537550027 -2.5778665689533096
0.4358569259439953 -2.471867460060642
0.4598496788574733 -2.36572151210887
0.48027600578902435 -2.259520957695091
0.48589427738274876 -2.1046393399361083
0.5104551997152987 -2.0473239824423524
0.5202262806560667 -1.9415109108410271
0.5264673496104684 -1.836009839242189
0.5438113707842904 -1.778726846091246
0.5593207598186549 -1.7214122944942278
0.5729999518445958 -1.6641126930547974
0.5677534379206102 -1.5598897505046077
0.5948907962451986 -1.5497435079853548
0.584386285728823 -1.4464068131241883
0.609540560443267 -1.435987571385807
0.6141723310444586 -1.379453641040327
0.6170226621414212 -1.323209369073509
0.640021874312053 -1.3122393075967838
0.640126604632761 -1.2563191991055986
0.6384813253888116 -1.2008087262881406
0.6593410835350185 -1.1894828017095782
0.6549999999999999 -1.1344932789576148
0.6489479743866684 -1.0800307988846614
0.6941942361454985 -1.1109430059649181
0.7134771358696855 -1.0986584440085054
0.7605023487202158 -1.1274910986748568
0.7800639534374226 -1.114046780233029
0.7993879431177635 -1.1002631123499287
0.848559182644388 -1.126076069166683
0.8988657539754612 -1.150495700265814
0.9188077709327626 -1.1346331037271775
0.9706092906266744 -1.1567271091096567
1.0234520852251914 -1.1773469451475245
1.0438437459198189 -1.159305927744735
1.0980173597006229 -1.1774794596068643
1.1531328949619355 -1.1941040685621607
1.1737972567696688 -1.1737972567696688
1.2300710585790935 -1.1878658134848852
1.2871825148497402 -1.2003171137099973
1.3450921341140838 -1.2111263975095332
1.4414952982254945 -1.2530727453718689
1.463144886357248 -1.2277243345012898
1.5620633825285113 -1.264933986010173
3.5145279610859803 -2.7458501799524355
3.761573252322749 -2.834548759046147
4.214978540693476 -3.062361164443785
3.5305453108855542 -2.4721144406730082
3.490248180456726 -2.3542021236118438
3.488869562652964 -2.265698385662512
3.5278800800107324 -2.2044641392101325
3.4800992408505755 -2.0910545841348194
2.60673646539116 -1.505
2.5888743331326114 -1.4350364759291576
2.5693774952194777 -1.3661622477069424
2.5928289853881505 -1.3211123542420813
2.615490674730576 -1.2756600371562152
2.6373556602766515 -1.2298191416654354
2.658417281739969 -1.1836036313505784
2.6326438808739794 -1.1174910274793226
2.6795613396980156 -1.0826130549719855
2.6980474325769133 -1.035683374185918
2.6687270430319794 -0.9713372070448992
2.68527275470206 -0.924613558658325
2.957785765677927 -0.9610428525060863
2.9741077910450406 -0.9092760016877112
3.5182178071342474 -1.0088327222902167
4.356325476563698 -1.1672738934123683
5.346329451780741 -1.3329896447541685
6.391867624991143 -1.4756789164957533
8.86201726264828 -1.8836799188089002
9.040786359552985 -1.7573508474179784
25.55881885421993 -3.592057735779288
20.15861233983525 -2.4751663645585444
15.673665071003986 -1.6473685810982173
12.96049302217361 -1.1338962131470314
12.978308293880314 -0.9075317234110686
13.042101723894735 -0.6835075885328474
13.102013742220345 -0.4575324017697883
13.15799566825811 -0.22967366871465134
13.16 0.0
10.458406891335853 0.1825521713339858
9.5042067649516 0.3318942136407847
8.747994724450066 0.4584629766881886
8.28975725765914 0.5796762968136822
8.278377941142406 0.7242642222330404
8.314203045278765 0.8738579529175842
6.7096119850953375 0.8238367614187966
6.347618320633466 0.8920995771540193
6.034775761036292 0.9558145813958107
5.721733045000928 1.0088959122448653
5.457847139969012 1.0608980142935893
5.193963759896508 1.1040110782423023
4.93031252781329 1.1382523349799571
4.715637229701343 1.1757404126143858
4.549510641821511 1.2190377024328733
4.383353333478734 1.2569063425255158
4.1694887359988355 1.2747406325911321
4.003947933602596 1.3009615463185285
3.8860813457131926 1.3380851148189141
3.7681674093514923 1.3715007747359318
3.6036204462791988 1.3833002852448593
3.48621129317112 1.4085207912438296
3.4150730063085533 1.449612486695206
3.3435763749719194 1.4886561136574292
3.3624018899059713 1.5679137510579948
3.424405316399826 1.6701940692663855
3.4392851833671 1.7524033289946506
3.452325088078404 1.8356338104928338
1.845447582064125 1.022948298719771
1.7840123317959438 1.0299999999999996
1.7229062744112453 1.035226530569209
1.7045766732744163 1.0651377211087418
1.6437943131730308 1.0674925086294533
1.5834617635801296 1.0680584456291264
1.5236228023775247 1.0668521716129462
1.5047716095374024 1.0932805692640002
1.4854620486879646 1.1193759430628103
1.4262994640281668 1.1143472703394415
1.367776892164269 1.1076038882477137
1.294615108871073 1.0863110603702515
1.2754591905764847 1.1087397589939572
1.255914755056796 1.1308307247464706
1.2871825148497402 1.2003171137099973
1.230071058579093 1.1878658134848854
1.2798632739476512 1.279863273947651
1.2920645690537347 1.3379720286298915
1.2685169497162472 1.360317885011657
1.3114959884633623 1.4565638579356925
1.3186786482709194 1.5169662562477715
1.356281856438598 1.6163537749810435
1.359332044667649 1.6786352767470571
1.6684425981325341 2.1355091422742163
1.8415539708452673 2.4438246607447165
1.8280121346295914 2.5160428525060863
2.070610935227276 2.9571388798832605
2.018686381529396 2.9928256369237007
1.9933788681549995 3.0695342786802517
1.93950450709353 3.1038560319325192
1.8850393541707986 3.137232320569731
1.8049999999999995 3.1263517076618235
1.750162729089277 3.1573771427732185
1.6713187635177706 3.14329343057778
1.5935066540858094 3.127432899901171
0.9249631197249529 1.8964554376912424
0.8198794277769569 1.758237106851101
0.7687322554132626 1.7266009149445154
0.758018389269191 1.7857794156977342
0.7267367912268696 1.7987366778595673
0.6952338221178823 1.8111460274045714
0.6464180708855141 1.7760190532853666
0.6381135827360268 1.853216408174661
0.605673308974897 1.8640707719385008
0.5672011071621089 1.8552312265682889
0.5485183380758283 1.9129107749172547
0.5021089474988907 1.8738961030007923
0.46932847746335526 1.882373708975433
0.45215161923116887 1.9584838302183227
0.42413984926822884 1.9954211054969637
0.39879080033697883 2.0516008134056176
0.5851943587375549 3.3188021276511415
0.5099763560311528 3.219863990340149
0.4439621920626081 3.1589551392856094
0.3180789862874349 2.5905454557838503
0.1588832641668336 1.5116732809597755
0.13683451611382327 1.5640256760040405
0.10602984009107069 1.516297356394933
0.0711769004904035 1.3581361672662204
0.04257738597705132 1.219256808963297
0.02216455617534989 1.269806572848617
