# .PCD v0.7 - Point Cloud Data file format
VERSION 0.7
FIELDS x y
SIZE 4 4
TYPE F F
COUNT 1 1
WIDTH 179
HEIGHT 1
VIEWPOINT 0 0 0 1 0 0 0
POINTS 179
DATA ascii
1.2185235651516163e-16 -1.99
0.03612648132517705 -2.06968472897373
0.07049698333905219 -2.0187694705785733
0.10571863161074681 -2.017231660204239
0.14090807696313343 -2.015079381524845
0.17605460035026943 -2.0123132901453262
0.21637391896404265 -2.0586603234123255
0.25226954084865527 -2.0545705338975364
0.2880883189873355 -2.0498549022950505
0.323819342633278 -2.044514865031935
0.3594517277705459 -2.0385520487352706
0.38925035056815166 -2.0025194542332345
0.43453543380911724 -2.0443284855336534
0.47014770357867813 -2.0364334354011415
0.5056167618033054 -2.0279180679168327
0.5409318042642683 -2.018784976944153
0.5898639414483783 -2.0571000293080024
0.6256754481066568 -2.046492177760896
0.6612963679623876 -2.0352609448716286
0.6967158505383155 -2.023409751782538
0.7490241138832147 -2.057926839521139
0.7848258095042078 -2.0445411340288717
0.8391187692516434 -2.076891834229604
0.8947742842404368 -2.1079561144060883
0.9110900804897929 -2.046341825119426
0.9677958193862017 -2.0754448323139285
1.0038699261469874 -2.0582383660250922
1.0396382444035623 -2.0404049403913627
1.0985634569189846 -2.066097367289889
1.1586949923887457 -2.090341100063156
1.2199999999999998 -2.1131019852340303
1.2566929027805325 -2.091488213713154
1.3194989679406803 -2.111639759429501
1.3561511971874176 -2.0882897141841057
1.4203499748156971 -2.1057554342898057
1.4855629701492092 -2.1216037947084887
1.5223638034375053 -2.0953540154311137
1.6188824122790098 -2.148329522027218
1.656129368626021 -2.1197489272020817
1.7243378714765545 -2.1293799343921003
1.793377431025445 -2.137263996301949
1.8632076423330406 -2.143375207832672
1.9003309220591573 -2.1105313043557996
1.984615227781871 -2.1282392717117857
2.077028527672402 -2.150826003012567
2.128391411371508 -2.1283914113715077
2.2011797890362725 -2.1256546136045316
2.311077697116579 -2.1551148177974953
2.3854948897824357 -2.1479092464119347
2.4603532315262364 -2.1387524345090534
2.573909328879766 -2.1597663685467716
2.6889250266411193 -2.1774485530324372
2.8053182828399303 -2.191754852159343
2.883074191270727 -2.172552233578894
3.001453049131055 -2.1806832860050753
3.1209692887410587 -2.1853262224974856
3.282988787317965 -2.214403897744157
3.4050025058584215 -2.2112344821610095
3.570282484818554 -2.2309601024217924
3.73724943106121 -2.245566006607836
3.905774571067818 -2.255
4.075727835269585 -2.2592128303479306
4.291125301294385 -2.2816317951394294
4.463942686183723 -2.2744924036951293
4.727656683533619 -2.305832232110547
4.948440517220108 -2.3074957091042188
5.216344563139252 -2.3224662319628187
5.5322341692491666 -2.3482940822205345
5.7578117368597495 -2.326306945112813
6.170966619146504 -2.3688121464944354
6.634229902748513 -2.4146622118792216
7.053568573970904 -2.428738432250389
7.522857043894665 -2.444324425505834
8.138153473245433 -2.4880832071904893
8.757094049998084 -2.5110563114928617
9.572324938524668 -2.56489673696598
9.664145433708926 -2.40954208017269
9.656007342021681 -2.229264948547701
9.986887003492155 -2.122778363249324
10.316901698034949 -2.0054025414074865
11.630579563074177 -2.0507849782464476
18.973493022832596 -3.005106073422835
18.97353619708849 -2.666556614394853
21.002276568730377 -2.5787553064529196
21.44189206413997 -2.253633668050607
39.55889146122322 -3.460954544509502
28.440551072907592 -1.988757066445009
28.321133605639712 -1.484247719049889
19.457036147743374 -0.3396238292695376
19.16 0.0
10.008475428515476 0.1746985884372082
9.704084930355421 0.3388741129812849
9.34717244530281 0.48986455043395494
9.636468725509902 0.6738475363682513
9.67305051847085 0.8462822620797621
9.06009446680497 0.9522543003683244
8.19843121255732 1.0066407765265177
7.486426599686271 1.0521486432580944
6.874310850542159 1.0887838766800069
6.263377309157644 1.1044024099616772
5.850498013348077 1.1372216124442074
5.48740804011665 1.1663845854876302
5.222623547248861 1.2057376512831168
4.861181588642742 1.212028696954336
4.597806933135964 1.2319786546879994
4.335290248681818 1.243124474734666
4.121673498200683 1.2601220473549952
3.861289456158323 1.2546089971622862
3.696977630593329 1.2729714839274828
3.533244254155015 1.2859957389045145
3.370225339654898 1.2937082978585341
3.254415329529423 1.3148691428898516
3.092896307600199 1.3128565917239603
2.9324809190327485 1.305624624273319
2.8639326070358138 1.3354737071006102
2.7053700793604922 1.3194971518351233
2.6373793115975688 1.3438118792290585
1.7305772820034966 0.9201642630603463
1.6530312464934578 0.916290182265577
1.6367880131525891 0.9449999999999996
1.5943311793059287 0.957970819332701
1.662174268466595 1.0386417578970817
2.1302232425813767 1.3833831489381692
2.064303555662054 1.3923903296421596
1.9987309880651396 1.3995265046965528
1.893099766837377 1.375417490364387
1.8288753180083004 1.378156403018191
1.7651440880790572 1.3790817047294748
1.7019496555907665 1.3782116563991436
1.6776373304305618 1.4077048652135211
1.6150785016767322 1.4039663220396854
1.5531726852477536 1.3984829672900139
1.491961551303108 1.3912766545274968
1.4314862026739155 1.3823701572134048
1.4071424945612296 1.4071424945612294
1.3823701572134044 1.4314862026739161
1.323076818521247 1.4188261811411906
1.2646568460182421 1.4045437201522748
1.2071486133425335 1.3886656276099005
1.1827292018232327 1.4095217753389195
1.126483499979209 1.391091271007978
1.1328171145992114 1.4499397866363684
1.0772488914421663 1.4295575629846544
1.0227463389889033 1.4076895702124086
0.9980229992508199 1.4253245570628459
0.9450360068655621 1.4010734976180206
0.920439969175396 1.4173532598277665
0.8955635565541162 1.4332012825043599
0.8704143465979917 1.4486127381865697
0.8199999999999997 1.4202816622064793
0.7950877772039928 1.434376319708609
0.7464597848295662 1.403886672645694
0.7218448945858795 1.416700373459505
0.6970101233946329 1.4290825336156756
0.6719630361677121 1.4410293813882735
0.6467112624905226 1.4525372776517353
0.6134478717281597 1.4451926199203315
0.5881323516629822 1.455678651669856
0.5626376807861213 1.4657212696006068
0.5198706178550166 1.4283327835945807
0.5111420024977358 1.4844641636909275
0.4697058314499201 1.4456059047686334
0.4444049911785596 1.453583229063814
0.41896878084183875 1.4611177778262447
0.39340494855583186 1.4682072559593837
0.3677212813114949 1.4748495039395146
0.341925602602675 1.4810424984735575
0.31602577004299404 1.4867843531153846
0.2900296729723483 1.4920733188404494
0.26394523005373394 1.4969077845785563
0.23778038686115102 1.5012862777046094
0.2045844584112959 1.4556940610501083
0.1852414019758242 1.5086701504948095
0.1536568410034509 1.4619471861913618
0.12811894183905745 1.464406206194866
0.10602984009107069 1.516297356394933
0.0795506534892745 1.5179168928269522
0.05130226015267659 1.4691045157180707
0.025655037462806562 1.469776111879895
