# .PCD v0.7 - Point Cloud Data file format
VERSION 0.7
FIELDS x y
SIZE 4 4
TYPE F F
COUNT 1 1
WIDTH 180
HEIGHT 1
VIEWPOINT 0 0 0 1 0 0 0
POINTS 180
DATA ascii
9.919639073093561e-17 -1.62
0.02827289842839943 -1.619753266153354
0.056537184658051756 -1.6190131397709353
0.08478424911356923 -1.6177798463024098
0.11300548746548325 -1.6160537614209154
0.14119230325120619 -1.613835410908628
0.16933611049359862 -1.611125470496603
0.19742833631633894 -1.6079247656589417
0.22546042355530607 -1.604234271361344
0.2534238333651741 -1.6000551117641233
0.2813100478204273 -1.595388559879777
0.3091105725100028 -1.5902360371852158
0.34721252366565825 -1.6335064932254553
0.37566826075425475 -1.6271980081913429
0.404009565651445 -1.620393862880914
0.43222780532120963 -1.613096129902744
0.4603143842143886 -1.6053070322169924
0.4882607468869704 -1.597028942458269
0.5160583806061623 -1.5882643822129063
0.5502101810325949 -1.5979263927628453
0.5780140422203803 -1.588080529128185
0.6163928732179167 -1.605758333575187
0.6630536703461646 -1.6411154225832136
0.6798721635713363 -1.6016784450072463
0.7077217589518926 -1.5895690962981253
0.735355775428817 -1.576975549443771
0.797835487156121 -1.635805164264484
0.8262627095259754 -1.6216318740228297
0.8403540973867447 -1.5804761912174792
0.8920497012532603 -1.6093002611364882
0.9199999999999998 -1.5934867429633672
0.9476700578344999 -1.5771878332918865
0.9750514461890971 -1.5604084969278238
1.029367776178401 -1.5850873734168511
1.084834232733249 -1.6083328907567807
1.1127382865210294 -1.589154965920644
1.1696926520620214 -1.6099438188061455
1.1976118960725761 -1.5892846649941128
1.2251663358980602 -1.5681413996773765
1.2838135977416683 -1.5853777613722206
1.3434261042448672 -1.601032886118664
1.37116337059016 -1.5773430226655933
1.4319394976079567 -1.5903299265216237
1.4594764905337472 -1.5650969214650245
1.556034749828154 -1.6113211527585787
1.5839191898578666 -1.5839191898578664
1.6472881427755113 -1.5907676683511038
1.7113676617888591 -1.5958761625462463
1.7761161328909727 -1.599222149197671
1.8414913757435636 -1.6007840307368377
1.9074506633662554 -1.600541148119483
1.973950742100706 -1.598473793266587
2.04094785184141 -1.5945632210934546
2.0684659710224884 -1.558700909963805
2.1762557148686086 -1.5811423286667527
2.2199020400231677 -1.5543921425113347
2.329595578879667 -1.5713320587527986
2.3985978243239128 -1.557667640142977
2.5102223646230213 -1.5685610221302866
2.622931940148464 -1.5760165092247653
2.693339005769604 -1.555
2.85126024527443 -1.5804793620030586
2.9225565323630485 -1.5539508728212985
3.082882573691753 -1.570807129098832
3.1997068048250346 -1.5606012825691156
3.3624018899059713 -1.5679137510579948
5.399053654667772 -2.403813560577979
5.394158441231301 -2.289684412947144
5.386938195033035 -2.176464307746448
5.330744235299022 -2.046280991903665
5.365644864687536 -1.9529350183895686
5.398911066672099 -1.8589941619503647
5.192768578971538 -1.6872327892872128
5.173608729760023 -1.5817309225500056
5.344615029417053 -1.532543698342515
5.708621633368394 -1.5296205565558973
5.831477314918739 -1.4539505925540024
5.855964089359263 -1.3519558366066278
5.878667080410171 -1.249549261814734
5.850498013348077 -1.1372216124442074
5.86945420795276 -1.0349431388949049
5.837238092917264 -0.9245276883877644
5.802970882825603 -0.8155543716259833
5.816320448618148 -0.714154352354164
5.827898306858081 -0.6125367947484489
5.837700930817629 -0.5107326525012763
5.84572533452257 -0.4087729361405736
5.802037596924073 -0.30407190577150406
5.806460704980946 -0.2027660758415309
5.809115108858633 -0.10139848140061734
5.81 0.0
5.809115108858633 0.10139848140061734
5.686533805738655 0.1985781362372308
5.762092415533891 0.3019784675217863
5.775895851004382 0.40388998297848605
5.887510665722217 0.5150904396386605
5.877624401626496 0.6177632179118329
5.865947756200214 0.7202478195244214
5.852484286262681 0.8225130266739866
5.837238092917264 0.9245276883877644
5.770973432651539 1.017578321128212
5.752335295003311 1.118140712906553
5.63413018022672 1.197571339110294
5.807245586120002 1.340708283889436
5.831477314918739 1.4539505925540037
5.8052142159972995 1.5555024610661505
5.825245877386212 1.6703623762510145
3.2609992178339513 0.9969875131045323
3.147997068936958 1.0228462513810759
2.9405627701138752 1.0125169603617572
2.8754594196048795 1.0465816385765465
2.9034351264062974 1.114524323085884
2.837182594974369 1.146296175852691
2.678669123546601 1.137027583903787
2.521385463093578 1.1225931348892089
2.4560941028693213 1.1452954893172953
2.3009127585258673 1.1222301357800386
1.969124418456293 1.0033190044243985
1.8895078487181036 1.0046691443618068
1.7579856113501853 0.9744673366951374
1.723390553531033 0.9949999999999997
1.6629045633620976 0.9991738653255052
1.602810901735645 1.0015474094007573
1.54315384501958 1.0021358244276501
1.4839772548735248 1.0009552972126368
1.4253245570628454 0.9980229992508205
1.3672387204936611 0.9933570763742796
1.3496940119799246 1.017067389126962
1.252937098234688 0.9789017457677968
1.1968047806437354 0.9691534022167494
1.1797084424032263 0.9898929189172706
1.162252753543069 1.010330904645381
1.1072857899613173 0.9970046034746989
1.0531493303316055 0.9820776384899977
1.0358493124876573 1.000308053460956
0.9475230867899738 0.9475230867899737
0.9308422164150563 0.9639153324537928
0.9138778024837481 0.9800139601696884
0.8966350125208702 0.9958140661397082
0.813513195948229 0.9358398794762373
0.8291960164956359 0.9881973316234817
0.7803572849017983 0.9636609922066439
0.7634202294038164 0.9771333344723352
0.7161598775509372 0.9503762569562786
0.699464450228043 0.9627302233061874
0.6538771374401923 0.9338333304894507
0.6374799099566513 0.9451028327127475
0.6208884999171309 0.9560844474577832
0.6041079612258535 0.9667748296183255
0.5871434053974618 0.9771707228004078
0.5699999999999998 0.98726896031426
0.5284424860685075 0.9533354807819414
0.5117240034366208 0.9624128762162305
0.4948496447161061 0.971197111365321
0.45590599266064036 0.9347458081511337
0.4395229922103274 0.942560098518116
0.4026692766450424 0.9044100030661747
0.4063603736288447 0.957325047590538
0.3895908571525487 0.9642712087494588
0.3727026675271122 0.9709236435570898
0.33859994189241216 0.9302956945780492
0.32231247291258497 0.9360633898433237
0.30592682443119795 0.941545951132202
0.28944798767550917 0.9467417084034052
0.2728809822588292 0.9516490789789357
0.25623085465149575 0.9562665680261775
0.239502676643671 0.9605927690132365
0.21145399108323323 0.915907860898121
0.19543698936869366 0.9194587446897773
0.19462517528407583 1.0012597271166173
0.1632292870069144 0.9257192878314756
0.14704839713781706 0.9284270401594295
0.1349979079312633 0.9605600266793233
0.11455718280083864 0.9329933825428426
0.10139260936962406 0.964686238507225
0.0845410704652284 0.9663088571489932
0.0676637795318017 0.9676371287520295
0.05076587755565543 0.9686706487119366
0.033852511801426045 0.9694091022085228
0.016928834244164876 0.9698522643016995
