# .PCD v0.7 - Point Cloud Data file format
VERSION 0.7
FIELDS x y
SIZE 4 4
TYPE F F
COUNT 1 1
WIDTH 180
HEIGHT 1
VIEWPOINT 0 0 0 1 0 0 0
POINTS 180
DATA ascii
8.327598234202002e-17 -1.36
0.026353133720298235 -1.5097700196861508
0.05793316452615179 -1.658988772851699
0.09734487861187578 -1.8574509346435075
0.150673983287311 -2.1547383485612204
0.2187609142966219 -2.500448692210281
0.42229499160131995 -4.0178684572878245
0.4886960670546414 -3.980110068081701
0.5622593278786645 -4.000682997715944
0.6273022048113259 -3.9606302457865024
0.7015386377743988 -3.9786233221693204
0.7651440714599451 -3.9363250056251324
0.8399632309037482 -3.9517163069645744
5.108638444149178 -22.127944171272695
3.824785169430746 -15.340375432423505
5.580138612410347 -20.82536081479231
4.674809554656306 -16.30299836311389
4.637015236902605 -15.166993429573742
4.0975653454118035 -12.611009406073736
3.8286814964161633 -11.119298449047964
3.6459347278516296 -10.017123337577782
3.479752790084867 -9.06506594128783
3.3564750770065737 -8.307567336918416
3.266512234170328 -7.695420574862401
3.156276350268211 -7.0891127513065815
3.0893394933245126 -6.62510992323791
3.1387374110097945 -6.435365371502035
3.0689757782393365 -6.0232041035133665
2.8684712486217934 -5.394809792368044
2.9379462986928027 -5.300195425264738
2.9049999999999994 -5.031607595987588
2.8636116964999014 -4.765850191903744
2.7078874402316773 -4.333525771359337
2.674177661923783 -4.117872488612032
2.633798575347218 -3.904766966734246
2.5868297279432175 -3.694375719743353
2.562743699995183 -3.5273140954747713
2.5336412474701233 -3.362255497299103
2.499585589822173 -3.199323659643291
2.492108748557356 -3.0774980073696048
2.481160173390042 -2.956931550439255
2.433978997554782 -2.799972542626484
2.3821049586375356 -2.6455955786995236
2.39381424381937 -2.5670514926832877
2.3687850432651807 -2.4529487191548003
2.3405234457274724 -2.340523445727472
2.345047749104003 -2.2645862876963307
2.311077697116579 -2.1551148177974953
2.3111804072346964 -2.0809961857760486
2.3094113154816824 -2.0075406287109523
2.2674915516321748 -1.9026513246721561
2.2614947478397855 -1.831322337955027
2.253710755315225 -1.7607918194313823
2.284097558735257 -1.721190966214858
2.3137886039123496 -1.681065821556473
2.3427748466665164 -1.6404286079639916
2.3710474575074194 -1.5992917039263357
2.4405313527211843 -1.5848995918937285
2.595027174238664 -1.621552948553607
2.3657817499378297 -1.4215050867517491
2.5201339250127166 -1.455
2.5014123624186717 -1.386555513904524
2.481082735933585 -1.3192150914283531
2.4591780067598954 -1.253013779281149
2.3009127585258677 -1.1222301357800382
2.410778713517489 -1.1241645762302603
2.3843536444471884 -1.0615826384278384
2.264441939493003 -0.9611985760836131
2.234513089505958 -0.9028018901323478
2.1098917638836756 -0.8099115659723787
2.1237053229761527 -0.7729655239160114
2.2314238384143876 -0.7683408445188897
2.482257507530351 -0.8065343553186126
2.400324937467219 -0.7338529788540691
2.41276685680518 -0.6918497631006677
2.231288658727748 -0.5978719941868228
2.3869274866389514 -0.5951278631751823
2.3969503593716786 -0.5533795936859076
2.308428337731781 -0.49067159032991214
2.267558793764104 -0.4407687793198186
2.2749059094582007 -0.4011272904106091
2.281560066774768 -0.36136361424293334
2.2875192387930277 -0.3214898632177511
2.292781610291454 -0.28151818326589056
2.3967977678375387 -0.2519135964750447
2.3510194874965196 -0.20568755288447302
2.104860146048229 -0.14718615960010412
2.1570397950698794 -0.11304566548475883
2.2086537277122016 -0.07712788771252725
2.259655791053444 -0.03944243854826079
2.21 0.0
2.259655791053444 0.03944243854826079
2.2086537277122016 0.07712788771252725
2.1570397950698794 0.11304566548475883
2.104860146048229 0.1471861596001046
2.101970812973583 0.18389861719755898
2.0984411992270564 0.2205550574947491
2.143899687545256 0.26323778175511847
2.0201468602328037 0.28391312595853346
1.9852535645962268 0.314433274730864
1.969615506024416 0.3472963553338607
2.022151997902188 0.3930665304756824
2.0638914375483295 0.4386936676254723
2.1533578431753697 0.49714183009994184
2.144353555069952 0.5346473892752659
2.1346960760988405 0.5719900896765712
2.076325263226769 0.5953766885647181
2.1134335106783086 0.6461414674372481
2.196940552641805 0.7138292570061285
2.184147909634422 0.752062436796032
2.1706899540154483 0.7900665310822949
2.1565707852085363 0.8278299634496438
1.956357933135921 0.7904199121075746
2.0803409688025147 0.8830523503857589
2.064612734272278 0.9192248133513087
2.048255598702829 0.9551172715339805
2.031274544636117 0.9907187917433152
2.147325723293967 1.094117104372308
2.1279036987900137 1.1314264663139972
2.1515644795629134 1.1926316658059892
2.130422493309719 1.2299999999999995
2.1514899247623016 1.2927455680242361
1.9589911021213442 1.2241135003787034
2.063129597145743 1.3398120261369668
2.039432428485403 1.375614542538037
2.0151140289509195 1.4109980334235739
1.909280106724876 1.3871731954102364
1.764984477204517 1.3300112011660272
1.7415037654708554 1.3606118604697048
1.717492574819906 1.3907980642201403
1.6546559971369925 1.3884212369229252
1.7056436513034645 1.4826934055185461
1.7166645468527806 1.5456917006889628
1.7259947358212424 1.6095161297474962
1.625707948765351 1.569927917237334
1.6687720036002522 1.668772003600252
1.6741266728061832 1.7336089188161496
1.6436160477506214 1.7625624209022008
1.478778640053077 1.642350064305041
1.515496356968072 1.7433791303146033
1.1634455735326366 1.3865404420453502
1.3907980642201405 1.7174925748199057
1.299045712937139 1.6627026901101831
1.0291036895900023 1.365666722180871
1.005112781420129 1.38341906038116
1.0955309934304978 1.5645804045919744
1.0400988004555891 1.5420098849523778
1.0130286051279507 1.5599272563784885
0.9326579050504407 1.4925646492353097
0.8807151080961928 1.4657560842006119
0.8299999999999997 1.4376021702821682
0.7563030075842859 1.3644067431374574
0.7089020598066949 1.3332508652169797
0.6628261296197384 1.300869525315017
0.6838589889909605 1.4021187122267007
0.6170226621414212 1.323209369073509
0.5734986667368785 1.288099095276067
0.5235797121756268 1.2334765036262703
0.5281952967164362 1.30732923493917
0.5052988088588732 1.3163484013610545
0.482248402089193 1.3249665953081307
0.4590510977845907 1.3331811915950367
0.4202631123499286 1.293436862161409
0.3976255184229217 1.3005744681097284
0.36108493612026893 1.2592528216791978
0.35199390133942854 1.3136591237531328
0.32901377801554804 1.3196021877353552
0.29468588119046335 1.2764247848686583
0.2723643149712646 1.2813733569612855
0.24995978394327384 1.2859316103164398
0.2274791127436786 1.2900981564459928
0.19710742595069097 1.2444873091498736
0.1753581072096822 1.2477377666143787
0.15355537269048583 1.2506081510680658
0.13170586371724363 1.2530975881640243
0.10545844872466634 1.205395584691012
0.0844053332303918 1.2070525008143873
0.06332650705396192 1.2083417370530343
0.0422283910100263 1.209262900693106
0.021117411789112885 1.2098157111392334
