# .PCD v0.7 - Point Cloud Data file format
VERSION 0.7
FIELDS x y
SIZE 4 4
TYPE F F
COUNT 1 1
WIDTH 179
HEIGHT 1
VIEWPOINT 0 0 0 1 0 0 0
POINTS 179
DATA ascii
5.143516556418883e-17 -0.84
0.01518359360043673 -0.8698674947860604
0.03036256213117594 -0.8694700195066133
0.04553228193136125 -0.8688076952364793
0.06068813215738914 -0.8678807237260471
0.07146770905307967 -0.8168796524352313
0.0878039091448289 -0.8353983921093495
0.10602632876247832 -0.8635151519279501
0.11690540480645499 -0.8318251777429191
0.13140495063379398 -0.8296582060999157
0.14586446924022153 -0.8272385125302547
0.1602795561162977 -0.8245668340960377
0.18504140482780593 -0.870551364653087
0.18895888564884672 -0.8184708544195975
0.20321439230372085 -0.815048410071837
0.21740799788611742 -0.8113776940828173
0.24531724667712926 -0.8555229093851038
0.24559223196709887 -0.8032959950089498
0.25957427527495586 -0.7988874736879289
0.28975565746686954 -0.8415115322833919
0.30439792755984524 -0.8363264324994584
0.3010290776180523 -0.7842075582576494
0.33339986814016187 -0.8251936305644407
0.34775070435545363 -0.819249319572672
0.36199561233746236 -0.8130554573019146
0.39726116603625744 -0.8519293198144509
0.4120688779817328 -0.8448664035212169
0.426751069755174 -0.8375461327370658
0.4413032690187374 -0.8299707372873912
0.45572104303155686 -0.822142524711032
0.46999999999999986 -0.8140638795573724
0.48413579041545096 -0.8057372626599855
0.49812410837921256 -0.7971652103870404
0.5119606929141254 -0.7883503338686985
0.5536009744360394 -0.8207471968294912
0.5678406719875356 -0.8109605238461018
0.5819073997695484 -0.800926824431198
0.6258876240781303 -0.8305809304491846
0.6095048605724018 -0.7801306460706546
0.6544932066918309 -0.8082317999152497
0.636359733589674 -0.7583839986877883
0.6823013901501276 -0.7848979634316829
0.7293523609311555 -0.8100278597703597
0.7433782124681235 -0.7971755347648958
0.7571776238003071 -0.7840803823691297
0.8061017305526642 -0.806101730552664
0.8200473723860623 -0.7919105423232567
0.8337432198458544 -0.7774781304712481
0.8471851010442295 -0.7628088912490982
0.8981044004650987 -0.7807102444987036
0.9498951094675328 -0.7970566360113087
0.9636609922066439 -0.7803572849017983
0.9771333344723353 -0.7634202294038162
1.0302398079610078 -0.7763413798661423
1.0436319227436823 -0.7582429754572904
1.097663739347249 -0.7685924247104018
1.1523622258515078 -0.777278135824338
1.1657520894441393 -0.7570482586708874
1.1957478155805608 -0.7471861625688189
1.3628960081163586 -0.818910539106986
1.4202816622064791 -0.82
1.434376319708609 -0.7950877772039927
1.4921814319315865 -0.7934069411081555
1.5949016782971785 -0.8126429945337887
1.608841342875509 -0.7846843527524485
1.7129217174992684 -0.7987485146899218
1.790549096979498 -0.7972038204285683
1.850214755439405 -0.78536956826344
1.9099987404075822 -0.7716895824367785
1.9698546999090956 -0.7561563735405836
2.0767206919368575 -0.755864516749728
2.136871980854456 -0.7357840290731741
2.149387726827047 -0.6983784072873811
2.16124874847646 -0.6607600526733849
2.2685776024144326 -0.6505041597281178
2.4244738239855614 -0.6496358032073268
2.5324718455803508 -0.6314161475151324
2.6892613788072492 -0.620864909989067
2.8464095181353746 -0.6050230202796799
3.052860540522235 -0.5934159756210545
3.210473274819798 -0.566093059194193
3.4667860754889332 -0.5490849722912103
3.7729213419053833 -0.5302495146578492
4.0297373756637676 -0.4947895342248985
4.286389369037257 -0.45051767668358605
4.791696497821295 -0.4192191226162353
5.297065106879667 -0.37040687558130464
5.95183202713726 -0.3119222992079457
6.705912449298133 -0.23417562287378182
7.758818114413596 -0.13543067395332023
9.16 0.0
9.658528735210739 0.16859024618415897
14.151374110590396 0.49417687330741444
16.68709952574893 0.8745338288195926
33.87727514682363 2.368929848350499
34.030010886814026 2.977240172260007
9.507629319720694 0.9992921088387685
9.73687774760137 1.1955382588044965
11.022601881041737 1.7458086298489766
11.088935298917463 1.9552784805296357
9.040786359552985 1.7573508474179784
7.737147521804403 1.6445814743684768
6.830334154144499 1.5769068909504942
5.928506887546339 1.4781427821139705
5.66032534205394 1.5166796043007726
4.767858011854062 1.3671612848523156
4.456380162787746 1.3624521440079531
4.051500759417354 1.3164123960372758
3.79152948815326 1.3055282993731983
3.48625962311572 1.268894731738231
3.276867297005178 1.257871502904004
3.0226193658877265 1.2212174945358734
2.8167448515644673 1.1956372531771782
2.6584172817399687 1.1836036313505789
2.501409492221154 1.1664264024043303
2.3907921631557842 1.1660672504589464
2.2364263757128033 1.1395161543462624
2.1279036987900137 1.1314264663139972
2.0203715234920043 1.1199102227690387
1.9139161423636095 1.1049999999999995
1.8086230044814566 1.0867303380602145
1.7724205209669304 1.107531262247398
1.710887958608665 1.1110636314306555
1.6497847693845331 1.112793877906786
1.5481973637061943 1.0840594647034774
1.4885912696499033 1.0815248642181505
1.429557562984654 1.0772488914421667
1.33173817359536 1.0404678933003624
1.3522339729351296 1.0950174804267168
1.2563128867151239 1.0541716798859244
1.1999882325542075 1.0431338560949064
1.144443031235187 1.030461133792642
1.1262847004935228 1.0502774744962478
1.07181630250459 1.035040971983906
1.053589103967956 1.0535891039679557
1.0003080534609559 1.0358493124876578
0.9479777204868728 1.0165816452506469
0.8966350125208702 0.9958140661397082
0.8791190988472798 1.0113108374985145
0.861335396979963 1.0264995537794306
0.8118233044542903 1.0025182902794925
0.7942033031700994 1.0165338721526713
0.7462506287085398 0.9903080324586432
0.7288537128426666 1.0031810730249349
0.7112347810752969 1.01574853491835
0.6654395551301887 0.9865547113404997
0.6481204516678823 0.9980179758550545
0.6306039244375138 1.009177234426147
0.5871434053974618 0.9771707228004078
0.5699999999999998 0.98726896031426
0.5526829670808243 0.997066466138911
0.5351975815759152 1.0065602558591766
0.4948496447161061 0.971197111365321
0.45590599266064036 0.9347458081511337
0.46065390529736244 0.9878754878699485
0.44334294095262244 0.9957645488304349
0.4063603736288447 0.957325047590538
0.3895908571525487 0.9642712087494588
0.3727026675271122 0.9709236435570898
0.3557009490586956 0.9772803256173447
0.3385908806354428 0.9833393186232896
0.30592682443119795 0.941545951132202
0.2748294024393723 0.8989264706052533
0.2728809822588292 0.9516490789789357
0.25623085465149575 0.9562665680261775
0.239502676643671 0.9605927690132365
0.22270154380042648 0.9646263641373829
0.19543698936869366 0.9194587446897773
0.1793604556539522 0.9227295524408041
0.1632292870069144 0.9257192878314756
0.14704839713781706 0.9284270401594295
0.13082271490246133 0.9308519846170761
0.11455718280083864 0.9329933825428426
0.10139260936962406 0.964686238507225
0.0801832833278455 0.916499122244406
0.06557108531947792 0.9377102072442347
0.04919579886836712 0.9387117626692993
0.03280552690035101 0.93942737739795
0.016056213922300708 0.91985987954388
