# .PCD v0.7 - Point Cloud Data file format
VERSION 0.7
FIELDS x y
SIZE 4 4
TYPE F F
COUNT 1 1
WIDTH 180
HEIGHT 1
VIEWPOINT 0 0 0 1 0 0 0
POINTS 180
DATA ascii
4.2250314570583685e-17 -0.69
0.013438352956708371 -0.7698827252704213
0.024080652724725742 -0.689579670643176
0.03768188849491966 -0.7190132650232931
0.04813196688344656 -0.6883191946792786
0.06275213477831386 -0.7172601826260567
0.07735106281806356 -0.7359462025725222
0.09018331411980914 -0.7344841522145783
0.10298809471044844 -0.7327983708687621
0.11576150412977088 -0.7308893720404019
0.12849965147352851 -0.7287577372290339
0.14119865657864322 -0.7264041157512713
0.143459066664254 -0.6749218445063258
0.15521622749726693 -0.6723153447018123
0.1669261079637707 -0.6695040511304375
0.1785851411207393 -0.6664888201394571
0.20397164330457937 -0.711333654994356
0.20173647625868835 -0.6598502816144944
0.22867257583746112 -0.7037818220584136
0.240920434298296 -0.6996837459434944
0.25309490606099494 -0.6953725393815722
0.2651922826635223 -0.6908495156079293
0.27720887912777503 -0.6861160523794226
0.28914103508206257 -0.6811735915548058
0.3009851158760923 -0.6760236386555245
0.3127375136881176 -0.6706677624071209
0.34631320596337123 -0.7100472965763419
0.35865249479424205 -0.7038951541088107
0.3708825346008538 -0.6975285983585523
0.3829995999946063 -0.6909495686401227
0.4199999999999999 -0.7274613391789285
0.43263198292444555 -0.7200205325897743
0.4451321819558921 -0.7123604007713977
0.45749678941262273 -0.704483277074156
0.4697220389154274 -0.6963915609462349
0.48180420653487865 -0.6880877172027531
0.5231288745403011 -0.7200251249937032
0.5356153706053229 -0.7107856039420907
0.547938713039836 -0.7013295707099825
0.5600951480343553 -0.6916599056967041
0.6042203531053469 -0.7200817765318392
0.6166954872510768 -0.7094270054094056
0.6289827699773267 -0.6985561359487505
0.6410784584587487 -0.6874724795220201
0.6877117867544073 -0.7121464023352646
0.7000357133746821 -0.700035713374682
0.7121464023352647 -0.6877117867544073
0.7606078496839375 -0.7092782944649985
0.81002785977036 -0.7293523609311554
0.8226334424428215 -0.715104341599653
0.8349884429996861 -0.7006384945583278
0.8859463960609467 -0.7174252457968145
0.898332259111663 -0.7018540818712503
0.9104444814539138 -0.686069126393335
0.938459713474939 -0.6818308926592688
0.9747909327039002 -0.6825559592577448
1.0280065899682518 -0.693399200303726
1.081885032649597 -0.7025843551693848
1.0939820440417896 -0.6835958508608343
1.191462547975936 -0.715902924124975
1.2037753112603695 -0.695
1.2594523782807299 -0.6981258531547253
1.3155919133598013 -0.6995126285509773
1.416700373459505 -0.7218448945858794
1.4290825336156756 -0.6970101233946331
1.4863447707401058 -0.693093949254747
1.5895690962981257 -0.7077217589518923
1.6661137847489171 -0.7072233425655854
1.7987366778595675 -0.7267367912268691
2.016533721233956 -0.7740747710178487
2.1706899540154483 -0.7900665310822949
2.278699767194354 -0.7846192522417477
2.3871518559008353 -0.7756326558811178
2.5437706508616746 -0.7777087345624797
2.6819201316679098 -0.7690282227294275
2.743229346660954 -0.7350460880911587
2.7750457771493497 -0.6918966214150494
2.98157239824282 -0.6883502262922265
3.188761178392206 -0.6777921120658956
3.9363250056251324 -0.7651440714599449
4.126344485121152 -0.7275858644244383
4.207552330935287 -0.6664108210713835
4.7631894106469534 -0.6694226156179146
5.27042006521542 -0.6471262134813328
6.0765287807001505 -0.6386689105653622
13.209541696696546 -1.155685148833946
13.17782110393228 -0.9214830181598936
9.896418689417827 -0.5186493263675741
9.90396309575924 -0.3458540123217851
8.408719116265251 -0.14677473813755454
8.31 0.0
8.308734346749612 0.14502949749382618
8.35490731387964 0.2917597924329085
8.59820029423688 0.45061258325174697
10.933301990847674 0.7645309522356144
8.377997410951581 0.7329797965078062
8.363929140047178 0.8790843760809669
8.396940442885585 1.0310146452075475
8.179614247805372 1.1495698139301402
8.257074527375352 1.30779212773633
6.509579247410695 1.1478144543784097
5.89957937252046 1.1467620622130346
5.291778519969888 1.1248022473240784
4.93031252781329 1.1382523349799571
4.570092870759943 1.1394521282744354
4.163140311305884 1.115510084391865
4.143037909494154 1.1879970035712661
3.978227784806228 1.2162662916465847
3.7186309787140504 1.2082564480060443
3.1769424140137046 1.0939089989760464
3.1103825748013567 1.1320866744079636
2.9967931690560174 1.150361118040414
2.929900980431048 1.1837568351942824
2.8167448515644673 1.1956372531771782
2.7040945546220985 1.203940463504369
2.5467248815729864 1.1875573154913652
2.3907921631557842 1.1660672504589464
2.3255270281316403 1.1849152043202171
2.066097367289889 1.0985634569189848
1.9591481439922467 1.085973549351795
1.8965956342879207 1.0949999999999995
1.8086230044814566 1.0867303380602145
1.7300181161591093 1.081035299035738
1.710887958608665 1.1110636314306555
1.6497847693845331 1.112793877906786
1.5481973637061943 1.0840594647034774
1.4885912696499033 1.0815248642181505
1.4694893384870187 1.1073396425997692
1.371138711275696 1.0712509670666455
1.313376674862281 1.063551460874225
1.294615108871073 1.0863110603702515
1.2754591905764847 1.1087397589939572
1.1816002725090566 1.0639176641105847
1.1628523855744812 1.0843773924993727
1.1077832925215225 1.069773890506856
1.053589103967956 1.0535891039679557
1.0350409719839058 1.0718163025045904
0.9820776384899977 1.0531493303316055
0.9970046034746989 1.1072857899613173
0.9119220502968051 1.049046316509653
0.8934747774642898 1.0648017759353794
0.8747553435592739 1.0802328864251896
0.8249863769363823 1.0559344098330075
0.8064321310237446 1.0701715834633727
0.7876322380719141 1.0840827724624296
0.7685924247104016 1.0976637393472493
0.7213588454772634 1.0694584685960038
0.7025843551693851 1.081885032649597
0.657099887649174 1.0515796392339682
0.6386472128884673 1.0628874528706191
0.5949999999999999 1.030570230503482
0.601163929105458 1.0845284368528507
0.5821447378545044 1.0948550151450696
0.5402486946900608 1.0602977637841577
0.5216616646790019 1.0695649150960087
0.5029157314714323 1.0785062665736134
0.4636797731064124 1.0414418217125647
0.445433486477772 1.049375532935782
0.42705151649413986 1.0569895942061374
0.3906210650043772 1.01760266488195
0.372801956224979 1.0242649566566402
0.35486928835830067 1.0306152474032555
0.35227937358744005 1.084204428576475
0.31868515814778287 1.0423721839997089
0.3004447178405291 1.0477752485727676
0.2821127591617479 1.0528591506550844
0.2709525230716278 1.086731213429116
0.23394909651761975 1.0133448673766448
0.23286109371589037 1.0955253128218625
0.20798180496043397 1.0699736299579539
0.18580355010361535 1.0537442957230627
0.16269184364184017 1.0271958742189433
0.1489152180272698 1.0595868335534804
0.1364936646137652 1.1116516898382807
0.11184545569638944 1.0641384280440525
0.09325664473999422 1.0659283269581679
0.07463942690621424 1.067393533778012
0.05599947317994981 1.0685336021873941
0.03734246147167616 1.0693481849104325
0.018674074887893213 1.0698370338173386
