# .PCD v0.7 - Point Cloud Data file format
VERSION 0.7
FIELDS x y
SIZE 4 4
TYPE F F
COUNT 1 1
WIDTH 180
HEIGHT 1
VIEWPOINT 0 0 0 1 0 0 0
POINTS 180
DATA ascii
5.694607616035192e-17 -0.93
0.016230737986673748 -0.9298583564954439
0.03071155709820095 -0.8794639277768043
0.04867243930593789 -0.9287254673217538
0.06278082636971291 -0.8978076452338418
0.07669705361793916 -0.876651334320736
0.09198504767553504 -0.8751792679240805
0.10358894189437537 -0.8436642288951237
0.1252557908640589 -0.8912412618674134
0.14079101853620785 -0.888919506535624
0.15628335990023737 -0.8863269777109872
0.17172809583889043 -0.8834644651028976
0.1871205217359835 -0.880332840660425
0.20245594890947863 -0.8769330583067118
0.2177297060397009 -0.8732661536483969
0.23293714059226867 -0.8693332436601615
0.24807362023529925 -0.865135526344487
0.2777531194865999 -0.9084895181648837
0.29356614465620007 -0.9035036904803958
0.3092897467342989 -0.8982426468193508
0.3249191361593854 -0.8927079897466128
0.34044955206803534 -0.8869014051723416
0.3746065934159122 -0.9271838545667873
0.37119457206481 -0.8744796107798183
0.4067366430758004 -0.9135454576426008
0.42261826174069944 -0.9063077870366499
0.43837114678907746 -0.8987940462991669
0.45399049973954686 -0.8910065241883679
0.46947156278589086 -0.8829475928589269
0.4848096202463371 -0.8746197071393957
0.5249999999999999 -0.9093266739736606
0.540789978655557 -0.9000256657372179
0.5564152274448652 -0.8904505009642473
0.5718709867657784 -0.8806040963426952
0.6151121938178217 -0.9119413298105459
0.6309340799861507 -0.901067248717891
0.6465637775217205 -0.8899186938124423
0.6619965254672532 -0.8784990610520221
0.7080106966245071 -0.9062123666477301
0.7237184497073129 -0.8937178556755164
0.7392057511395203 -0.8809511095868247
0.7872708347886087 -0.9056514962673263
0.8364132579485728 -0.9289310318467427
0.8183980320749983 -0.8776244419430044
0.8683229630737466 -0.8991747504233139
0.8838834764831844 -0.8838834764831843
0.9351417404402466 -0.9030558815966965
0.9873274971858803 -0.920697786084373
0.9660882731206127 -0.8698697882665156
1.0565934123118808 -0.9184826405867101
1.0724622203665692 -0.8999026535611548
1.1268616441126078 -0.9125145670222642
1.1426155927297468 -0.8927091392222043
1.1979532650709392 -0.9027225347280724
1.2135254915624212 -0.8816778784387097
1.2696856686479374 -0.8890434763441214
1.326460116088067 -0.894708645553195
1.3838064371099497 -0.8986544077747944
1.4416817634659242 -0.9008627491964483
1.5000427762286965 -0.9013166310925946
1.5588457268119895 -0.9
1.6180464582078822 -0.8968977974557236
1.6776004264319613 -0.8919959692931925
1.7820130483767358 -0.9079809994790936
1.995322782784151 -0.9731839458717519
2.0573186765731952 -0.9593434541513877
2.2107800074950945 -0.9843026762434364
2.31967223070015 -0.9846424437929696
2.4292216989649833 -0.9814692747496893
2.539338760072389 -0.974760822763217
2.6499331906162613 -0.9644968041783859
2.742003869238019 -0.9441476479257545
2.758063897255945 -0.8961492836873475
2.8880403630083675 -0.8829625482626648
3.047199576124471 -0.8737704179398872
3.25517003459416 -0.8722201819954948
3.560985315432907 -0.8878533568507802
3.7708121507188603 -0.870560580310757
4.127782875096659 -0.8773873352509446
4.486036228355824 -0.8719971088708101
5.288417633675557 -0.932490714071416
5.649577308204188 -0.8948051400301206
6.010927177261332 -0.8447807228275971
7.761710905835139 -0.953018265428253
7.777161221779897 -0.8174125827530495
7.79024253907745 -0.6815579082866862
7.800950873031827 -0.5454956246790589
7.8092829617807675 -0.40926717781982136
9.514200673221792 -0.33224320860780965
13.467948453756591 -0.23508391471020923
13.47 0.0
13.467948453756591 0.23508391471020923
13.511763981298174 0.4718411954178137
13.501471309881838 0.7075821284046016
13.437187756999833 0.9396197013333691
13.4685523182004 1.17834564194834
13.445936025379055 1.4132248233786768
12.575559741295551 1.544084580943218
9.674919031605143 1.359721196379839
7.723722823453977 1.2233175166146055
6.322465774338375 1.114821300621693
8.11805680711218 1.577990391764026
8.040373278031883 1.7090340985219823
8.058040435773895 1.8603452194237642
8.07286044261629 2.0127901713892364
5.52509572637347 1.4804449379864195
3.1913888305152187 0.915116021312437
2.983670838604671 0.9121997187349385
2.8246378533966063 0.9177804732935938
2.6663623831900733 0.9181021955691818
2.5089792974983753 0.9131937826795355
2.3526226747729484 0.9030872328541568
2.290144120779965 0.925278285737303
2.1355712600096615 0.9064962180951154
2.073748188848704 0.9232921797820667
1.921372508517698 0.8959507148902828
1.8605036758392755 0.9074282738533905
1.826563374586154 0.9306805244660709
1.739406757932086 0.9248589786882052
1.6617774435648518 0.9211382784680404
1.6021469970012117 0.9249999999999997
1.5000427762286963 0.901316631092595
1.4840841682737456 0.9273587124081086
1.4257399655072207 0.9258863595255462
1.3679119947158187 0.9226682907267322
1.3106432708623867 0.917722298161674
1.294427190999916 0.940456403667957
1.2378850405733037 0.9328132858856751
1.1426155927297468 0.8927091392222045
1.0880043460397593 0.8810485474697721
1.110764442522518 0.932042034045482
1.0188579333007424 0.8856796891371848
1.003245514394482 0.9033263185844588
0.9507598121049218 0.8865978680812481
0.9711087304571788 0.9377888001196465
0.8838834764831844 0.8838834764831843
0.9030558815966964 0.9351417404402467
0.8524979500781231 0.914192127023963
0.80295672763063 0.891773790572873
0.7872708347886087 0.9056514962673263
0.7713451316238473 0.9192533317427736
0.7551844692598049 0.9325751537483651
0.7080106966245071 0.9062123666477301
0.6920872766248554 0.9184308365543868
0.6465637775217205 0.8899186938124423
0.6424056087131715 0.917450289603671
0.5983364067136991 0.8870702026338947
0.59910293851653 0.9225376247399664
0.5829111906565254 0.9328529057720686
0.6025945476447635 1.0028857418214712
0.6099999999999999 1.0565509926170151
0.5817715442956045 1.049543648567275
0.5633658753430687 1.0595371114307124
0.5447885996874562 1.0692078290260414
0.5041268188074388 1.033613153244042
0.48601100100180433 1.0422539550921472
0.4677471395371704 1.050577276288991
0.4493407977626647 1.0585805814703064
0.43079758242829896 1.0662614327518054
0.4049557829861891 1.0549458819418378
0.37622215765823575 1.0336618828644992
0.35812496990287224 1.0400704331592485
0.32446784409369483 0.9986093421099113
0.3157614411005555 1.0328091364400784
0.2894192236078491 1.0093247807352348
0.271759997357647 1.0142221176035215
0.25401799037965106 1.0188105125897964
0.2361986070610584 1.023088568024497
0.2183072753586472 1.027054980770496
0.20034944514537217 1.0307085426200473
0.18754003188028465 1.063592373253185
0.16425618829224248 1.0370727576248946
0.1433482939888672 1.0199761108038174
0.1255254237073019 1.0223225361905617
0.1076643171656833 1.0243575522293216
0.08977041503008788 1.026080539034498
0.07184916795644922 1.027490971767619
0.05390603493023206 1.0285884207972111
0.03420150676845106 0.9794030104787138
0.017975978630401877 1.029843126011083
