# .PCD v0.7 - Point Cloud Data file format
VERSION 0.7
FIELDS x y
SIZE 4 4
TYPE F F
COUNT 1 1
WIDTH 180
HEIGHT 1
VIEWPOINT 0 0 0 1 0 0 0
POINTS 180
DATA ascii
1.8002307947466092e-16 -2.94
0.05131007492561378 -2.93955222375979
0.10260452030535318 -2.9382090314361413
0.15125091354210807 -2.8860393554407184
0.20159620912052256 -2.882960105250892
0.251880096540732 -2.8790026774851447
0.2968608356801358 -2.824442182845896
0.34610893527061887 -2.8188310706613544
0.38829295167858263 -2.7628479117889815
0.4442738807142558 -2.805034887290191
0.49316082457408233 -2.7968540185546704
0.5323570971005603 -2.7387398418189823
0.5800736173815488 -2.7290318060473178
0.6163658889021906 -2.6697739775115448
0.6628659939430894 -2.6586102899962305
0.7091641835809068 -2.6466367640320474
0.7552463549385777 -2.633857046870994
0.7864798857041619 -2.572459793540565
0.8312557148686086 -2.558342028833963
0.8757783354897517 -2.543444968362162
0.9200341855460491 -2.5277731499140934
0.964009784276858 -2.5113313472774728
0.9889614066180082 -2.4477653760563185
1.0315301792116827 -2.430132813114443
1.0534479055663228 -2.3660827352943357
1.1157122109954465 -2.392652557776756
1.1353812701837105 -2.327876579914842
1.1985349193124037 -2.352257223857291
1.2159313476154572 -2.2868342655046203
1.2556569164380131 -2.265265041491035
1.2699999999999998 -2.1997045256124745
1.3339486140170405 -2.2200633088184705
1.3724908943640006 -2.196444569045143
1.3833831489381687 -2.1302232425813767
1.4203499748156971 -2.1057554342898057
1.456884148331657 -2.080646192494039
1.4929745408228818 -2.0549031657123664
1.4985194076486004 -1.9886024200177592
1.5329970735608895 -1.9621467764807377
1.5670077737140953 -1.9350934440278578
1.6005411481194831 -1.9074506633662554
1.6663899336358885 -1.916962333765841
1.6995917401515 -1.8875878567125814
1.6981759165556216 -1.8210707170317344
1.7296993424429032 -1.7911561028432414
1.7606958851545036 -1.7606958851545034
1.7911561028432417 -1.7296993424429032
1.8210707170317348 -1.6981759165556214
1.850430615438712 -1.666135209833557
1.8414913757435636 -1.6007840307368377
1.8691484412103063 -1.5684017676351558
1.9350934440278578 -1.5670077737140953
1.9621467764807379 -1.532997073560889
1.9886024200177592 -1.4985194076486004
1.9740014662748717 -1.4341960155936344
2.0396885902795896 -1.4282053265141048
2.047722804210953 -1.3812064715727448
2.0463561857868346 -1.3289192454366658
2.0692373546216793 -1.29300300472902
2.13434657874826 -1.2824448065260348
2.2603263038773846 -1.305
2.5451433477756416 -1.410795994916841
3.408177708435458 -1.8121602323535384
3.795687793042447 -1.9339995288904692
4.14344055343916 -2.0208909866976468
4.585917402405449 -2.1384484044079386
5.079312744492861 -2.261455735501449
5.762360382612276 -2.445976864342853
6.592277205969859 -2.6634528791871337
7.7580533441917465 -2.978037660721446
9.359338503027647 -3.406520627523661
11.54478180806766 -3.9751871659218834
18.174690026400384 -5.9053147625052445
18.80095150223328 -5.7480277148490035
18.850341857350433 -5.405248547571352
18.82589435437394 -5.044383189048128
19.02749919227229 -4.744088372709482
19.0586784671992 -4.400042622965996
19.181474450389928 -4.077148256936262
19.298790426581075 -3.7513048491028718
19.26283964891879 -3.3965583551651575
15.4178149966901 -2.441941999278004
13.279494801824459 -1.866311283874477
11.77159735846608 -1.4453704127850484
10.502151215088967 -1.1038205721064198
9.722860253375437 -0.8506400492171428
8.73866108027606 -0.6110667099985365
8.048954050121866 -0.4218278073181279
7.455455569562455 -0.2603502454006576
6.958939958288483 -0.12146874880349341
6.51 0.0
6.159061802163371 0.10750682365366658
5.806460704980946 0.2027660758415309
5.5523802132354305 0.29098791671076807
5.247186904366675 0.36691905189409957
4.941125702535058 0.4322924840283851
4.7339242219529805 0.49755548515403114
4.476383143902362 0.5496307387572149
4.317568779713247 0.6067947201858852
4.108783496875773 0.6507673745673604
3.949079089578954 0.6963291924443907
3.8381622872803662 0.7460631719222904
3.6778349787591087 0.7817479574747753
3.5661944371139613 0.8233208588985462
3.066134495032149 0.7644731900949504
2.907436737130095 0.7790453257585879
2.845334619977424 0.8158865732183174
2.7350316020542818 0.836183075507027
2.701000506278236 0.8776082640248506
2.637996825922094 0.9083351509354672
2.621742411992684 0.9542361998786159
2.651368411252053 1.017764976708653
2.6795613396980156 1.0826130549719861
2.6602590264775525 1.1292129613340016
2.640146372587117 1.1754688984890629
2.6645448938877507 1.2424976895176563
2.6424544961195506 1.288811171559888
2.6195591811138015 1.3347320692342677
2.6400133026481916 1.4037199727298142
2.658843909703763 1.4738212455488646
2.6327172275046937 1.5199999999999996
2.6486469591695267 1.5914676514720676
2.620468617123356 1.637450526480603
2.59149205495136 1.682934618196434
2.561726099195079 1.7279060717246075
2.531179816852984 1.772351188324733
2.540313362337335 1.8456456921983657
2.5077155015484993 1.8896991726974324
2.5137543040054426 1.9639601062888499
2.517952915120586 2.038998067001473
2.4819839957054888 2.082631855384388
2.4452590399217815 2.1256312539292432
2.4077892345467573 2.1679831646027012
2.406153678327071 2.24377460460562
2.3666279431141617 2.2854260388101015
2.3617366491630687 2.3617366491630682
2.3548918758560005 2.438561923148028
2.31197444061187 2.479289048488988
2.26835275555653 2.519260958368366
1.3842845511699702 1.592437214270049
1.3241424759542713 1.5780515528250947
1.296400005562665 1.60092068060136
1.299045712937139 1.6627026901101831
1.1795574453780144 1.565325599692694
1.1109141268327742 1.5290421193686505
1.0840594647034767 1.5481973637061945
1.0400988004555891 1.5420098849523778
1.9661469164042482 3.0276007502829803
1.9130085438818696 3.0614536271246977
1.8850393541707986 3.137232320569731
1.8299999999999996 3.1696529778510456
1.7986436911139108 3.244839113487158
1.7417394979356542 3.2757355695066193
1.707004279020696 3.350184530948263
1.6482755119269303 3.379465614084868
1.610175577232065 3.4530326686096364
1.5700034422725895 3.526285466500439
1.5082221559685964 3.55314873432642
1.4647117802562166 3.6252888713561386
1.4012186827221236 3.650299467604059
1.3543997675696486 3.7211827783121967
1.2892498916503399 3.744253559373295
1.217526957837293 3.747162674202905
1.1373259313714452 3.720025500696208
1.0722293141281267 3.7393079972000605
1.0197470377039326 3.8057477555789285
0.9410761738827073 3.7744503752136263
0.8750596013976354 3.7902995520145653
0.8087764772810835 3.804994166854504
0.7460631719222907 3.8381622872803662
4.924662318634141 27.92914787542622
4.5538072773211224 28.75160759472446
2.951861471362984 21.00358573800871
2.566568372112406 20.90302195356624
2.09161454998575 19.90038312631915
1.5783905011600887 18.041085982441512
1.148191557828305 16.419904267276706
0.79079629883088 15.08929227014161
0.4889419488020401 14.001465486537532
0.22007484517414336 12.608079435922093
