# .PCD v0.7 - Point Cloud Data file format
VERSION 0.7
FIELDS x y
SIZE 4 4
TYPE F F
COUNT 1 1
WIDTH 179
HEIGHT 1
VIEWPOINT 0 0 0 1 0 0 0
POINTS 179
DATA ascii
9.001153973733046e-17 -1.47
0.02565503746280689 -1.469776111879895
0.05130226015267659 -1.4691045157180707
0.07955065348927483 -1.5179168928269522
0.10254201640386441 -1.4664191538819416
0.12811894183905745 -1.464406206194866
0.15888326416683327 -1.5116732809597755
0.17914793480556682 -1.4590428429127433
0.20458445841129624 -1.4556940610501083
0.23778038686115102 -1.5012862777046094
0.2639452300537342 -1.496907784578556
0.2900296729723483 -1.4920733188404494
0.31602577004299437 -1.4867843531153846
0.341925602602675 -1.4810424984735575
0.3677212813114949 -1.4748495039395146
0.3934049485558315 -1.468207255959384
0.41896878084183875 -1.4611177778262447
0.45902357641469677 -1.5013984668619658
0.5006075308874149 -1.5407115563981488
0.4948635947748783 -1.4371882349109615
0.52671102072153 -1.4471266360102988
0.5626376807861216 -1.4657212696006068
0.5956244835313004 -1.474222328761192
0.6329844281526235 -1.4912178625929535
0.6589133617827967 -1.4799436413810134
0.6846415840199331 -1.468218614999373
0.718928680734087 -1.4740222359306336
0.7445444195728568 -1.4612506996689232
0.7934069411081556 -1.4921814319315865
0.8338725468236998 -1.5043458962797607
0.8699999999999998 -1.5068842025849234
0.8704143465979917 -1.4486127381865697
0.9220595197657765 -1.4756036873121812
0.9749038726768985 -1.5012203166223088
1.000955297212637 -1.4839772548735246
1.0553806428859247 -1.507239761491745
1.0815248642181505 -1.4885912696499033
1.137430393757371 -1.5094211139893834
1.1636001883654943 -1.4893403243167043
1.1894155390841925 -1.468805867153675
1.2470079627918864 -1.4861262196508174
1.272754516241584 -1.4641365856321777
1.3315699066541278 -1.4788582027000146
1.425376572530622 -1.528529236384066
1.4518359942593042 -1.5034201827077807
1.4778531726798843 -1.477853172679884
1.5393871727247137 -1.4865689127822541
1.6016646065459834 -1.4935764085368717
1.6646444090693635 -1.4988525582438423
1.728284938710148 -1.5023751763882618
1.7925439968984085 -1.5041230066665017
1.8573788478821605 -1.5040757346091114
1.9621467764807379 -1.532997073560889
1.9886024200177592 -1.4985194076486004
2.0953540154311137 -1.5223638034375053
2.1379868355942686 -1.49703449887623
2.2052399429964114 -1.4874531232321866
2.272797239132099 -1.475971784890723
2.383015150199557 -1.4890731324953057
2.5372152100782523 -1.5245127017337599
2.60673646539116 -1.505
2.7200672892035205 -1.5077579189661081
2.878409152720102 -1.530477294682004
2.993781921272916 -1.5254080791248772
3.0648876978801596 -1.494845610550754
3.2717711112023062 -1.5256519248839246
3.4349309207361793 -1.5293297779650086
3.55314873432642 -1.5082221559685962
3.53257048589946 -1.4272511209146244
3.5102624036294783 -1.347463490290329
3.7211827783121967 -1.3543997675696484
3.9333572744931584 -1.3543635225417718
10.376026592780125 -3.371375408630676
10.481100125354871 -3.2043938837611945
10.631554357077807 -3.0485491553360102
10.779732221386002 -2.888420543344131
10.828500305240121 -2.6998483548922905
11.068843935960272 -2.5554439773463047
11.160664124372722 -2.372272392230635
11.24944752231023 -2.1866710870152044
11.384377624821125 -2.007372933829715
11.467061634309548 -1.8162041391170802
11.447498874652554 -1.6088410470983563
11.573088128137815 -1.420996544104019
15.524486786698745 -1.6316893116080693
23.652243631660436 -1.653925992473208
32.11592583770709 -1.6831243527730757
32.14040899693411 -1.1223678139524327
32.15510187622954 -0.5612693910230384
32.16 0.0
32.15510187622954 0.5612693910230384
22.146500726743163 0.7733728469274226
15.538675560781169 0.8143474791402072
11.531840421003569 0.8063848364820897
11.516010709940579 1.0075203861629298
11.446947015688826 1.203122612210693
11.424206205391616 1.4027161425932468
11.298958664341319 1.5879650819543463
11.170755132131008 1.7692737996050112
10.990454523616242 1.9379136627629427
10.856796648931164 2.110347488864586
10.72049770404251 2.278712131362643
3.761068450071008 0.8683110697673192
3.5512823581701474 0.8854341378947843
3.583584815532443 0.9602186573303525
3.6143439767280787 1.0363964578719165
3.4522601690265584 1.0554618540490794
3.2431027205664735 1.0537479508185708
3.0823905564537726 1.0613521835303308
2.9224440506441747 1.06368264574283
2.763398062431717 1.060769130654089
2.6517458240610114 1.0713748571695085
2.540593395528735 1.0784179146303958
2.384353644447188 1.0615826384278388
2.274832545461991 1.0607718369691554
2.211033353895951 1.0783930211011308
2.102775397084548 1.0714175793853304
2.039608939504121 1.0844793100354082
1.9591481439922467 1.085973549351795
1.8965956342879207 1.0949999999999995
1.8343380235025202 1.1021814803075163
1.7300181161591093 1.081035299035738
1.710887958608665 1.1110636314306555
1.6083328907567809 1.0848342327332487
1.5481973637061943 1.0840594647034774
1.5290421193686505 1.1109141268327742
1.4694893384870187 1.1073396425997692
1.371138711275696 1.0712509670666455
1.313376674862281 1.063551460874225
1.294615108871073 1.0863110603702515
1.2754591905764847 1.1087397589939572
1.1816002725090566 1.0639176641105847
1.1628523855744812 1.0843773924993727
1.1437502825384551 1.1045068090298058
1.0889444430272832 1.0889444430272832
1.0350409719839058 1.0718163025045904
1.0161775564931228 1.089717015412564
0.9970046034746989 1.1072857899613173
0.9447250017463305 1.0867817955207917
0.9256141579486168 1.1031039980913282
0.8747553435592739 1.0802328864251896
0.8557694507026651 1.0953349475133434
0.8064321310237446 1.0701715834633727
0.7582429754572904 1.0436319227436823
0.7399136028928492 1.0567061371327995
0.7213588454772634 1.0694584685960038
0.7025843551693851 1.081885032649597
0.6835958508608343 1.0939820440417896
0.66439911663397 1.105745817905725
0.6199999999999999 1.073871500692704
0.5866196404980679 1.058289845638669
0.5821447378545044 1.0948550151450696
0.5402486946900608 1.0602977637841577
0.5216616646790019 1.0695649150960087
0.4817848183843973 1.0331908772217808
0.4840166052602024 1.087119094594695
0.4649700429022357 1.095400775608404
0.42705151649413986 1.0569895942061374
0.40853946248164213 1.0642816862068099
0.3899029633912624 1.0712495876959354
0.37114769608115844 1.077891176183221
0.35227937358744005 1.084204428576475
0.34207489452560175 1.1188765644767515
0.3087138385150391 1.0766130994509173
0.29505371141687387 1.1011554419695377
0.2636948662036378 1.0576223416408361
0.24519664923481302 1.0620633706159064
0.23286109371589037 1.0955253128218625
0.21370607482173032 1.0994224454613837
0.19448595898696186 1.1029846833736732
0.17520660084505865 1.1062109414665544
0.1558738730752731 1.109100236990559
0.1304001974435078 1.0620243822562145
0.11707187885977213 1.1138645228124662
0.09761443187737713 1.115738061862755
0.07463942690621424 1.067393533778012
0.05599947317994981 1.0685336021873941
0.03734246147167616 1.0693481849104325
0.018674074887893213 1.0698370338173386
