# .PCD v0.7 - Point Cloud Data file format
VERSION 0.7
FIELDS x y
SIZE 4 4
TYPE F F
COUNT 1 1
WIDTH 178
HEIGHT 1
VIEWPOINT 0 0 0 1 0 0 0
POINTS 178
DATA ascii
1.071565949253934e-16 -1.75
0.03315957223083883 -1.8997106207971433
0.06630904373475205 -1.8988425713362818
0.10205511467374073 -1.9473275927714189
0.13602512380104465 -1.945249898006657
0.16995369835793336 -1.9425796612789037
0.2059210726372773 -1.9592081338754983
0.24008260650814056 -1.9553159187334044
0.27417100889132895 -1.9508280954208936
0.3081758961292549 -1.9457460309724215
0.3507693188871994 -1.9893116610846602
0.38543417066062075 -1.9828869105642812
0.4199816154518741 -1.9758581534822872
0.4656486824918008 -2.0169460341054366
0.5128744186712955 -2.0570269397051124
0.548696375617344 -2.047762751732825
0.5760820736575282 -2.0090369445110863
0.6110568628705199 -1.998676939962744
0.6612963679623876 -2.0352609448716286
0.7129942582611732 -2.070685680562504
0.7490241138832147 -2.057926839521139
0.802744206981473 -2.091220155353732
0.8391187692516434 -2.076891834229604
0.8830523503857585 -2.080340968802515
0.9395616455050989 -2.1102900071544077
0.9762481846210157 -2.0935709880546614
1.0564744637616768 -2.1660936515809923
1.094117104372308 -2.147325723293967
1.1455106131975736 -2.1543921265757815
1.1926316658059892 -2.1515644795629134
1.2049999999999998 -2.0871212231204974
1.205189095289527 -2.0057714836429423
1.2506094635903635 -2.001393506929165
1.328919245436666 -2.046356185786834
1.4203499748156971 -2.1057554342898057
1.456884148331657 -2.080646192494039
1.5223638034375053 -2.0953540154311137
1.6008279615844485 -2.124370456725799
1.686912442392304 -2.159149464882418
1.7243378714765545 -2.1293799343921003
1.8062331832191756 -2.152584885164328
1.9091317743623764 -2.196204878448267
1.9471700645042775 -2.1625514421392174
2.086914981791246 -2.2379423269546614
2.1603875321274812 -2.2371467790532047
2.269812767608818 -2.2698127676088173
2.3810147391209355 -2.299319206219281
2.4939161225213717 -2.32561440781312
2.5712810961517842 -2.315191898001649
2.724501584604207 -2.3683730946557313
2.8420248839714084 -2.3847420319370607
3.310641795806696 -2.680904865872307
3.435726885725308 -2.68428403241987
3.6817097013180202 -2.7743672567309425
3.931822592662245 -2.8566363261414196
4.00565349657317 -2.804788773756615
4.029122602617503 -2.7176775108678295
4.117872488612032 -2.6741776619237827
4.333525771359337 -2.7078874402316773
4.3801249065877945 -2.631844562790376
4.382088543149259 -2.53
4.469306703482313 -2.4773771594587823
4.688451718080902 -2.49289399839308
4.597593664811979 -2.3425909786560615
4.502958171958826 -2.1962394454132776
4.540602013053616 -2.117317491320904
4.576862742789431 -2.0377505818097585
4.795830286487214 -2.035709179429116
4.876987075021302 -1.9704306813676966
5.097349128674722 -1.9566890045173397
5.7415219130019 -2.089743075719836
6.628085214951211 -2.2822327627446684
13.419407444924616 -4.360229790630507
13.49346010663843 -4.125364753637815
13.563402529689679 -3.889243090577857
16.237213139919238 -4.3507481481733725
31.980947138056845 -7.973745678965045
38.35120574994686 -8.854073498974522
38.59770432495597 -8.204195319668786
31.375975010968947 -5.532430940468402
31.467750531361087 -4.9840020561817555
14.401844660315584 -1.7683241728086891
14.08243003841475 -1.480123039869972
14.155926659883706 -1.2384831044442213
14.325019761731076 -1.0017029629656375
14.140594212124766 -0.7410771404000857
14.051435027888488 -0.4906869236371643
13.957873824383222 -0.24363559386447817
6.76 0.0
4.9592445679757 0.08656393592892633
4.757100336610896 0.16612160430390482
4.703545108694042 0.24650235390426578
4.748404879236763 0.33204081502203686
4.692077028012122 0.41050354834147057
4.7339242219529805 0.49755548515403114
4.674892374230627 0.5740046074382444
4.565135796898639 0.6415879954259016
4.503858833113828 0.7133411605834526
4.53996374138628 0.800518099044549
4.67254539321088 0.9082508179923535
4.704889959529605 1.0000552328334227
4.735438514856243 1.0932621241111844
4.570092870759943 1.1394521282744354
4.404621767878151 1.1802148456674952
4.19110099429107 1.2017788713621163
4.073858260402531 1.2455034621188583
3.9088422819730813 1.2700598468810338
3.79152948815326 1.3055282993731983
3.6741981472729015 1.337298760403365
3.5569414249543385 1.3653818877675943
3.439852100442781 1.3897904615730339
3.3230225209633093 1.4105393738462786
3.252221829207659 1.4479824493498492
3.0905095537949765 1.441128272535785
3.0199479955652007 1.4729270532113006
2.904681268854079 1.4800090291509225
2.8342617730771553 1.50700371654271
2.7200672892035205 1.5077579189661081
2.6500377355803826 1.5299999999999996
2.6229319401484634 1.576016509224766
2.535663807507714 1.5844586000572827
2.4656914697595465 1.60123876294418
2.3544667060563182 1.5881078458569209
2.3263918057807365 1.6289570792369714
2.2571574143061035 1.6399208538960002
2.228193073031947 1.6790639145942152
2.159149464882418 1.6869124423923039
2.090522636319252 1.6928718519240622
2.022357329834102 1.696959289572464
1.9924332917881182 1.731995836534939
1.9247450979864507 1.733048270469443
1.8576384021126933 1.7322758345587461
1.791156102843241 1.7296993424429037
1.7606958851545036 1.7606958851545034
1.694966423919953 1.755189112826309
1.6640759985524962 1.784503031950776
1.5992221491976715 1.776116132890972
1.5679810792873126 1.8037558967324252
1.5041230066665023 1.7925439968984085
1.4726097150566193 1.818521549809312
1.4406478522620405 1.8439451634397293
1.3781564030181903 1.8288753180083008
1.3460282277497635 1.8526489171186298
1.3134900392438953 1.8758581814217914
1.252592103774473 1.8570441625232936
1.219991438433661 1.8786220721977498
1.1605231886707188 1.8572253305825728
1.1536852877985218 1.9200547535727315
1.0949999999999998 1.8965956342879207
1.0617330683394783 1.9154171586352766
1.0281427225011004 1.93365522836105
0.9942391944296076 1.9513042879725258
0.9381142541286254 1.9234192590802175
0.9044030801250968 1.9394986642584309
0.8704164161822129 1.9549872793551657
0.8361646149670457 1.9698803863882226
0.7829277802392564 1.9378142560445855
0.7489890145496773 1.9511830913791515
0.7148220995506478 1.9639575774425482
0.6804374428154571 1.976133823002572
0.6458455182436401 1.9877081190568708
0.6110568628705193 1.9986769399627442
0.5760820736575282 2.0090369445110863
0.5409318042642688 2.0187849769441524
0.5249705134512789 2.105541726018912
0.48139525629587143 2.0851519386404034
0.43453543380911674 2.044328485533654
0.40451507019827526 2.0810496289090477
0.36292469132388416 2.058248203795515
0.3347697551860942 2.1136530488735947
0.2908717810065363 2.0696602636698818
0.2583630080189127 2.1041978414796025
0.22682676529080847 2.158112512949153
0.1821555023426055 2.082046919011748
0.14927885381242847 2.134787067556024
0.11199894635989963 2.1370672043747883
0.0739869330093023 2.118708553280483
0.037871721968904926 2.169669498489369
