# .PCD v0.7 - Point Cloud Data file format
VERSION 0.7
FIELDS x y
SIZE 4 4
TYPE F F
COUNT 1 1
WIDTH 180
HEIGHT 1
VIEWPOINT 0 0 0 1 0 0 0
POINTS 180
DATA ascii
1.0225800772880399e-16 -1.67
0.029145518750263607 -1.6697456509111734
0.0582821594931768 -1.6689826811218897
0.08740104692571642 -1.6677113230401381
0.1164933111526895 -1.6659319639339063
0.14555009038858907 -1.663645145813215
0.17456253365698127 -1.6608515652650164
0.2035218034865963 -1.6575520732410076
0.23241907860330932 -1.6537476747984223
0.2612455566171856 -1.6494395287938801
0.2986748655871203 -1.6938693351809977
0.31865102227883 -1.6393173963575989
0.34721252366565825 -1.6335064932254553
0.37566826075425475 -1.6271980081913429
0.4161056604314284 -1.6689086491947138
0.44516875757633567 -1.6613924212171975
0.4740962520052385 -1.6533701170139086
0.4941081809814251 -1.6161550375775298
0.5315092303249096 -1.635817208027664
0.5762556333891674 -1.6735678788107906
0.6053756536864339 -1.6632559387910577
0.6343112706951817 -1.652437354900047
0.6518154725436872 -1.61329990694621
0.6798721635713363 -1.6016784450072463
0.7280585911056827 -1.6352463691802555
0.756486688515852 -1.6222909387956035
0.7846843527524486 -1.6088413428755088
0.8126429945337889 -1.5949016782971785
0.8638276755260392 -1.6246235708604255
0.8920497012532603 -1.6093002611364882
0.9199999999999998 -1.5934867429633672
0.9734219615800025 -1.620046198326992
0.9750514461890971 -1.5604084969278238
1.029367776178401 -1.5850873734168511
1.084834232733249 -1.6083328907567807
1.1127382865210294 -1.589154965920644
1.140303389447398 -1.569492969087398
1.1675211449149736 -1.549352889491748
1.255949409664343 -1.6075419373577127
1.2838135977416683 -1.5853777613722206
1.3112867237605403 -1.5627306639627152
1.37116337059016 -1.5773430226655933
1.4319394976079567 -1.5903299265216237
1.4594764905337472 -1.5650969214650245
1.521301831305204 -1.5753541627416459
1.548563850798539 -1.5485638507985389
1.6472881427755113 -1.5907676683511038
1.6747999767079007 -1.5617762445431216
1.7018016503432332 -1.5323090885617852
1.7660204177212864 -1.535178127837787
1.8308462190543575 -1.536262387150829
1.896236145955009 -1.5355417541616032
1.9621467764807379 -1.532997073560889
2.0285341955201237 -1.5286101588062027
2.1358048651498613 -1.5517530660521293
2.203518999137388 -1.5429206137843139
2.2715629488008147 -1.5321885555098462
2.3398908845677333 -1.5195429076919253
2.383015150199557 -1.4890731324953057
2.494356845043147 -1.4987607979882573
2.60673646539116 -1.505
2.676336303846551 -1.4835174379537914
2.790114393434209 -1.483530138403415
2.860130942644661 -1.4573095041639452
3.019947995565201 -1.4729270532113001
3.1358249431468086 -1.4622591856228198
3.2522218292076595 -1.4479824493498485
3.369047763635932 -1.4300759302707418
3.53257048589946 -1.4272511209146244
3.696978488928919 -1.4191370801993892
4.191029088705151 -1.5254098392324826
4.311564704732884 -1.4845907843246344
4.574581843379688 -1.4863717429434968
4.647641113980353 -1.4209264849525005
4.67173184226023 -1.3395975492706158
4.93588097233714 -1.3225653204738808
6.607713895939535 -1.6474881090337363
6.58674163794819 -1.5206691273645265
6.563370400923835 -1.3950874453871656
6.5376370417614424 -1.2707879092077887
6.509579247410695 -1.1478144543784097
6.578004348363618 -1.0418535371679376
6.54567193438178 -0.9199341973460324
6.511102754767072 -0.7994628927377672
6.524063633615873 -0.6857067190358062
6.5350372194818505 -0.5717416724246369
6.494141967191456 -0.4541146440742549
6.451146794514547 -0.3380902773294176
6.456064742543359 -0.22545074869815657
6.409023725952468 -0.11186992526298747
6.46 0.0
6.409023725952468 0.11186992526298747
6.406095201192404 0.22370577386303153
6.401215317776819 0.3354734795172704
6.394385562165473 0.4471389966998438
6.385608014768089 0.5586683110124897
6.374885349310632 0.6700274495456596
6.411848139602941 0.7872759583972524
6.397131724070545 0.8990582322020225
6.38046668024459 1.0105666441598915
6.411098472109474 1.1304496366117165
6.390392964244293 1.242166559901307
6.416648260813764 1.3639006917645016
6.391867624991143 1.4756789164957549
6.413654750684337 1.5991037299138045
4.6461032244504175 1.2449196069431254
4.287227163884903 1.229342606943816
3.930412547008076 1.201647706410448
3.575972501269777 1.161903898849802
3.366046129133568 1.159022629867478
3.1103825748013567 1.1320866744079636
2.9034351264062974 1.114524323085884
2.7444642095176905 1.1088355165111
2.586618638201357 1.0979544710548597
2.4300309173293186 1.0819194705816289
2.365463324165656 1.1030336631432254
2.1660936515809923 1.056474463761677
2.05822507087513 1.0487180543983532
1.9513141802182283 1.037532153756819
1.889178567421095 1.047188779732088
1.8273136019851655 1.0549999999999995
1.68004790937614 1.0094746268237063
1.6197718636587737 1.0121457946854213
1.5599272563784885 1.0130286051279507
1.5005580063246255 1.0121391552820518
1.4662821592772952 1.026701821068373
1.3429682106624128 0.9757235188055053
1.3496940119799246 1.017067389126962
1.2923376359150238 1.0096848195340795
1.235662078716584 1.0006194217692412
1.1797084424032263 0.9898929189172706
1.1245172745319303 0.9775279531958556
1.1072857899613173 0.9970046034746989
1.0531493303316055 0.9820776384899977
0.9998823224707247 0.9655751349380063
0.9475230867899738 0.9475230867899737
0.9308422164150563 0.9639153324537928
0.8797778844806231 0.9434462750887299
0.8631784822029273 0.9586568248658385
0.813513195948229 0.9358398794762373
0.7970566360113089 0.9498951094675328
0.7488912653493065 0.9248036941337954
0.7326371556375335 0.9377327967919991
0.7161598775509372 0.9503762569562786
0.6700751876134193 0.92227937358744
0.6825559592577446 0.9747909327039004
0.693399200303726 1.0280065899682518
0.6753524034186337 1.0399515042523257
0.657099887649174 1.0515796392339682
0.66439911663397 1.105745817905725
0.6699999999999999 1.160474041071148
0.6254044101177749 1.1282594222098206
0.6056183159937989 1.139002394788016
0.5629482196770381 1.1048480899935762
0.5435802220184558 1.1145046174109672
0.5240466445584673 1.123821655925446
0.5043534374139924 1.1327963674768249
0.4845065993266994 1.141426018281026
0.4457818461649355 1.103348786934477
0.42645785995890717 1.11096070753167
0.4070039705575459 1.1182342187352308
0.37765905917030157 1.0968015476952075
0.35845971347493905 1.103225558902378
0.32453259224223757 1.0614982791189695
0.314226585631379 1.0958383333696835
0.3028182827699495 1.1301332167582097
0.2709525230716278 1.086731213429116
0.28568783901670874 1.2374499822772487
0.2744434318794422 1.2911548329686235
0.2518678738970393 1.2957478821509165
0.2205331856370014 1.2507058463255043
0.19867177060109328 1.2543641925558249
0.17674983821928286 1.2576404473017944
0.1608675332947947 1.3101609201665452
0.13275114834992016 1.2630428071177071
0.11068779328952584 1.2651672665765168
0.08859072165503933 1.2669063438299768
0.06803674311582687 1.298218395180946
0.04536934571325141 1.2992080751248245
0.02181550804660422 1.249809618945489
