# .PCD v0.7 - Point Cloud Data file format
VERSION 0.7
FIELDS x y
SIZE 4 4
TYPE F F
COUNT 1 1
WIDTH 180
HEIGHT 1
VIEWPOINT 0 0 0 1 0 0 0
POINTS 180
DATA ascii
5.75583995599256e-17 -0.94
0.01640526205104658 -0.9398568334470078
0.03175854199927598 -0.9094456525873772
0.0502425179932262 -0.9586843533643908
0.07603455638109675 -1.0873448147832085
0.09499975959494737 -1.0858522209200028
0.11393602496174228 -1.084028865951418
0.13283758431161077 -1.081875305289041
0.15448214206567268 -1.0991975563031433
0.2252656296579325 -1.4222712104569983
0.24484393051037187 -1.3885789317472133
0.2690406834809283 -1.3840943286612062
0.3035510685939288 -1.4280954970713562
0.3284285393420431 -1.4225802945864434
0.3532059675755148 -1.4166317603629548
0.3778758058496803 -1.4102517063820397
0.40243053949281876 -1.4034420760699455
0.44148127413133254 -1.4440201815041835
0.48206651122491806 -1.4836481654204396
0.5013749578640214 -1.4560986064229477
0.52671102072153 -1.4471266360102988
0.5769723987679336 -1.503064486660495
0.6031166153996187 -1.4927660058525276
0.6486136732921943 -1.528038056731051
0.6751828275058286 -1.5164854596867172
0.7015463144895611 -1.504470926480839
0.7276961036698686 -1.491998116856617
0.7763237545546251 -1.5236211563621092
0.8168805192474501 -1.5363288115745328
0.8290244506212364 -1.4955996992083667
0.8799999999999998 -1.524204710660612
0.9322189155871983 -1.5514728142708232
0.9591538682621009 -1.534967054043131
1.0130286051279505 -1.5599272563784885
1.0400988004555893 -1.5420098849523776
1.095530993430498 -1.5645804045919742
1.1226698318786237 -1.5452224592561496
1.1494666942204121 -1.5253938241903293
1.2066964916382905 -1.544501077069175
1.296400005562665 -1.60092068060136
1.324142475954271 -1.5780515528250947
1.4170875026194958 -1.6301726932811877
1.378409049099248 -1.530878340483432
1.5072163757381218 -1.6162916805783665
1.5351949987143838 -1.5897409587484188
1.633416664540925 -1.6334166645409247
1.6976419287992168 -1.6393937542832335
1.7259947358212424 -1.6095161297474962
1.82813627067439 -1.646061291642791
1.9320565253702964 -1.6795111142156987
1.9993759965405324 -1.6776756612818673
2.028350959402694 -1.6425262206400755
2.1355091422742167 -1.6684425981325337
2.244165783232893 -1.6911002150572556
2.3946903033498446 -1.7398443467857205
2.465647653309865 -1.7264650734166485
2.5783068506461797 -1.7390899297940225
2.692132523104811 -1.7482913023982365
2.8070391982777703 -1.7540327646119083
2.9657988604293086 -1.782031739188787
3.126351707661823 -1.805
3.244839113487158 -1.7986436911139105
3.408177708435458 -1.8121602323535384
3.5729361619953552 -1.8205019039555825
3.7839229349194934 -1.845542527982016
3.9968173408316265 -1.8637465342764843
5.170667290257121 -2.302129399809029
5.2100574705408125 -2.211538187249289
5.108783038662999 -2.0640823297216744
5.424102277948742 -2.082117786858195
5.929460437159081 -2.1581471043849696
6.202601855931518 -2.135727093238948
6.1913779210814495 -2.0117006333809075
6.225543961319361 -1.903339797745016
8.997409473982664 -2.5799656504471113
12.276917252134059 -3.289590063253038
17.280966884975495 -4.30862896063008
17.256093847346516 -3.983883172429847
22.75171319306832 -4.836025928421084
24.74682129471561 -4.810294773442696
29.800282606149416 -5.254593856201313
38.3321844984973 -6.07122158821136
22.984121875491848 -3.230207673283118
10.282778131004097 -1.2625663976773274
10.30324683601531 -1.0829148794528891
10.320577072230483 -0.9029334948657376
10.33476356069178 -0.7226770679891368
10.1960075498442 -0.5343501132404573
10.153810802514013 -0.3545788864974104
9.058620118116906 -0.15811880232178885
7.71 0.0
6.8089628040150245 0.11885088783790088
6.05630841173572 0.21149095001715615
5.502448736497701 0.2883711188986209
5.496577916931631 0.3843581703301309
5.4890327864855175 0.48022814253959717
5.479815643479186 0.5759518326047713
4.0297373756637676 0.4947895342248985
3.7234079384683043 0.5232908596098459
3.5161704925186905 0.5569066955432219
3.2597136624704084 0.5747754680775395
3.1510232588670015 0.612496875158709
2.9931316582454452 0.6362097739023438
2.835416888525035 0.6546075681406475
2.67801620452175 0.6677044318550832
2.617658989243375 0.7013996122278316
2.4608299416020962 0.7056316308915177
2.3525096996690675 0.7192343936179323
2.2444933784565624 0.7292801067248759
2.184147909634422 0.752062436796032
2.0767206919368575 0.755864516749728
1.9698546999090956 0.7561563735405836
1.8636395476792422 0.7529592527659833
1.8041895127667829 0.7658330118389768
1.7448718240973675 0.7768669882747786
1.7310478732400012 0.8072008799247358
1.6268172238014922 0.7934517756882304
1.5681714825715276 0.7990232795416023
1.5539877634317114 0.8262699505031681
1.4955996992083667 0.8290244506212363
1.3943009000929465 0.8049999999999998
1.3800393541304008 0.8292113006051874
1.3229550300040247 0.8266740522037996
1.26639255759759 0.8224049428726911
1.2932986131858653 0.872340929414365
1.1959619846619278 0.8374215970725275
1.1811648117874232 0.8581664683470107
1.1260760691666827 0.8485591826443883
1.111095162585478 0.8680826802091781
1.0569185075814806 0.8558757318277788
1.04182044264181 0.8741911491736936
1.02640502910297 0.8922402794270898
0.9735197213753863 0.8765610943301044
0.9580733491211135 0.893417851681873
0.9063681484267002 0.8752695467783367
0.8909545442950499 0.8909545442950498
0.8752695467783365 0.9063681484267007
0.8252180156756231 0.8849379789591962
0.8096480336942186 0.8992052388276469
0.7938314250785138 0.9131985920695541
0.7777730077207128 0.9269137761739634
0.7300116536178113 0.9014893152900861
0.7141673113777637 0.9140924741837974
0.6981054268563758 0.9264171916548597
0.6524416300446453 0.8980088637561917
0.636669844349661 0.9092587691607811
0.5927444776789916 0.8787798269083443
0.5773173771159289 0.8889908020221494
0.5617144200871972 0.8989309819258116
0.5459403594046576 0.908597338744239
0.5299999999999999 0.917986928011505
0.562379159485751 1.014558860281699
0.5680605909709276 1.0683665873593016
0.5720280296718291 1.1226682204773435
0.5961847596331451 1.2223599029668673
0.5958917490543861 1.2778939797216764
0.5938354988906686 1.3337763681581971
0.5821893814490179 1.3715522316441362
0.5581638241897091 1.381503943304513
0.5339682448224973 1.3910348354808306
0.5096100135552466 1.4001420049710034
0.4850965501411632 1.4088226776429822
0.6674767078498866 2.054282075197532
1.3770707292440891 4.504195400585897
1.408506888224866 4.91204726624481
0.8049272302688402 3.004029319759002
1.0063950856946176 4.036430221308145
1.1719949931315374 5.076468037531075
1.1040110782423014 5.193963759896508
1.0227362152182808 5.261521703279479
0.9307542322947461 5.2785695561454355
0.8306670093636261 5.2446250885601815
0.7459678211459497 5.3078368484548175
0.6471262134813331 5.270420065215419
0.5602725631146237 5.330637359173945
0.4671547811274476 5.339603581771756
0.37040687558130614 5.297065106879666
0.2805207254621785 5.352654306284516
0.1067924599096533 3.058135930678433
0.04729602144503795 2.70958725387382
