# .PCD v0.7 - Point Cloud Data file format
VERSION 0.7
FIELDS x y
SIZE 4 4
TYPE F F
COUNT 1 1
WIDTH 180
HEIGHT 1
VIEWPOINT 0 0 0 1 0 0 0
POINTS 180
DATA ascii
2.510525938252074e-17 -0.41
0.008551679154268963 -0.4899253706266317
0.0160537684831505 -0.4597197804287841
0.024074539871754227 -0.459369585987104
0.032087977922297714 -0.45887946311951916
0.04009164166392275 -0.458249561122203
0.048083093103120596 -0.45748007186940576
0.05605989796636785 -0.45657122975500813
0.0709782814896334 -0.5050367150582009
0.07195985391850623 -0.4543366366737634
0.08856057061013452 -0.5022519540362261
0.09731258764203791 -0.5006298635583086
0.10603496231705732 -0.4988552763742409
0.11022601662849392 -0.4774413317447653
0.12338016675583052 -0.49485082040075823
0.13199771300228558 -0.49262217140742487
0.14057505146666957 -0.49024346492854265
0.14910956940859577 -0.4877154255411481
0.14214781741247584 -0.43748599749577066
0.16603975877314994 -0.48221447355565156
0.1744302730960911 -0.47924323660081325
0.1827676542681032 -0.4761260175135729
0.19104936264211522 -0.47286376582906153
0.1992728755295296 -0.4694574752607446
0.22777252012244822 -0.5115854562798565
0.23666622657479172 -0.507532360740524
0.2235692848624295 -0.45838496361257514
0.2315351548671689 -0.45441332733606765
0.23943049702080435 -0.45030327235805273
0.24725290632563193 -0.44605605064109183
0.27999999999999997 -0.4849742261192857
0.28842132194963044 -0.48001368839318287
0.323250751182255 -0.5173093386554198
0.3322298113591665 -0.5115890464467086
0.3411076711171556 -0.5057129192585754
0.3785604479916904 -0.5406403492307346
0.3879382665130323 -0.5339512162874653
0.39719791528035187 -0.5270994366312133
0.43711964748121745 -0.5594876350607725
0.4153514580928927 -0.5129163345616008
0.4885185833617699 -0.5821937767704233
0.46580191058326015 -0.535843801958168
0.5085392608327323 -0.5647900673628197
0.5183187536474989 -0.5558288132305694
0.5626732800717879 -0.5826652382743074
0.5727564927611035 -0.5727564927611035
0.5826652382743075 -0.5626732800717879
0.5558288132305697 -0.5183187536474988
0.6019473086366894 -0.5419957911506751
0.6490502389915839 -0.5642107649318362
0.6587982210823211 -0.5527973443304237
0.7072028249258435 -0.5726815558553521
0.7564903234624532 -0.5910350163126318
0.7267583141430365 -0.547651671068364
0.8171071643186969 -0.5936631048153979
0.8683011669463313 -0.6079910225321088
0.8787798269083443 -0.5927444776789916
0.8889908020221495 -0.5773173771159287
0.941333386733633 -0.5882103832988574
0.9943140688144503 -0.5974441668956626
1.0478907385791707 -0.605
1.1457518163526084 -0.6351006025227016
1.1566613466451945 -0.615007747249517
1.167218546686762 -0.5947275546588063
1.2672996052818255 -0.6181033169725991
1.323209369073509 -0.6170226621414211
1.4708081868045877 -0.6548459953520382
1.482012814058429 -0.6290771168677306
1.6318435840375458 -0.659307604412005
1.8298176359345153 -0.7024011811087886
1.9357667988189713 -0.7045614952508776
2.0895960520744903 -0.7195056213503163
3.3667400676848436 -1.0939201600873139
3.3853188361091457 -1.034995834718488
3.402866403621649 -0.9757562395921768
3.419377425063302 -0.9162194196629232
3.4348468710170277 -0.8564035104228234
3.4687574306354376 -0.800825753464159
4.069094019052631 -0.8649126338018791
5.212440344107096 -1.0131957654494532
11.236656461869293 -1.9813257071796755
11.220139549160765 -1.7770955228570227
11.249445260904238 -1.581006426906343
9.985014285511701 -1.2260055946557833
9.656807604025934 -1.0149713783289145
12.014108058986452 -1.0510982575367565
12.030622446133481 -0.8412630733541496
12.04347218914016 -0.6311716322899035
12.052653373850296 -0.4208879302321623
10.908338354156228 -0.1904057542307634
9.66 0.0
9.658528735210739 0.16859024618415897
4.657161253908987 0.16263165463365475
4.204230341316756 0.22033437578279383
3.850597234002921 0.26925998865232403
3.546453125206614 0.3102744441816635
3.1426891893637436 0.33030994392578544
2.9875639164403793 0.36682672364949376
2.7826532731638127 0.3910764136977838
2.5778665689533096 0.40829395375500255
2.3733866847594216 0.4184921081773022
2.267558793764104 0.4407687793198186
2.2106135776584006 0.46988042124813617
2.0559208366968464 0.4746467246655553
1.901779623500953 0.47416691537534894
1.8932146195265735 0.507285328400941
1.6918205848514412 0.4851217462379184
1.6352811326967907 0.49995561507587977
1.5312009912351974 0.49751736094366533
1.5222849067149002 0.5241647286760224
1.465920488426017 0.5335514235880433
1.4097064440107747 0.5411356038134035
1.30732923493917 0.5281952967164361
1.2518866006953189 0.5313943347454125
1.2424218223939372 0.5531618345830884
1.3685247584253415 0.6381535752284561
1.357179009911742 0.6619404316515072
1.4345205039432725 0.7309247045806704
1.4215456245028724 0.7558492160852845
1.4081377284944272 0.7805434885966027
1.4376021702821682 0.8299999999999997
1.4228977191655061 0.8549632043506901
1.4501622444274886 0.9061619418387804
1.434126671186675 0.9313327498756965
1.4176542490691213 0.956219864934977
1.4417075979486254 1.0094945279778413
1.464320759818655 1.0638913066493765
1.4455302731856 1.0892851919052078
2.6083155944382495 2.037839483327929
2.6112104304954227 2.114516513927453
2.9186293282833065 2.449020792905715
2.799972542626484 2.4339789975547816
2.7199100612472624 2.4490180192734217
2.749889918088081 2.5643138338349942
2.74068463929026 2.64664839144878
2.764787514439401 2.7647875144394005
3.341306761907776 3.4600244396289126
3.178112357891243 3.4081082495453345
3.0846920953143373 3.425897645450787
3.057235075095764 3.516946643838118
2.577578314843023 3.0718382169071017
2.4606427290048645 3.0386407092967564
2.4072363685233245 3.0811220466022826
2.3530967405245082 3.1226648442849156
2.2394618112343228 3.08235474856855
2.1566474006799328 3.0800116865266096
2.130524962223545 3.1586331514347092
2.1567705786595077 3.321135449063879
2.177968175998472 3.485477675202911
2.1425583916258257 3.565815970920787
2.0549999999999997 3.5593644095540435
1.9925675392124458 3.594686996342917
0.33332480957798233 0.6268927909298382
0.3359529698072647 0.6593448278993922
0.3112435142202448 0.6381437728724085
0.3000589658358966 0.6434785287960214
0.2887830165838183 0.6486172749262465
0.27741910122738433 0.6535584459512326
0.2659706813252976 0.658300536742419
0.23652284669989812 0.6161630814881531
0.22573329459494143 0.6201971297186996
0.21487498194172333 0.6240422598955492
0.22867257583746112 0.7037818220584136
0.2017364762586882 0.6598502816144944
0.1901897755137294 0.66327057019744
0.17858514112073945 0.666488820139457
0.1669261079637707 0.6695040511304375
0.15071720641038966 0.6528279434061076
0.13930083284789868 0.6553588924916498
0.1278420269022851 0.6576902129099349
0.11634427903684326 0.6598211945181794
0.10481109157695473 0.6617511881987423
0.09324597764324372 0.6634796060568522
0.08165246008144883 0.6650059215996857
0.07003407038932796 0.6663296698967431
0.05839434764093095 0.6674504477214696
0.04464414319624029 0.6384409921662875
0.033495011995484 0.6391229022429272
0.024080652724725742 0.689579670643176
0.012042160441725529 0.6898949096579099
