# .PCD v0.7 - Point Cloud Data file format
VERSION 0.7
FIELDS x y
SIZE 4 4
TYPE F F
COUNT 1 1
WIDTH 179
HEIGHT 1
VIEWPOINT 0 0 0 1 0 0 0
POINTS 179
DATA ascii
1.1205518212198283e-16 -1.83
0.03193790378022899 -1.8297212821361961
0.06386607896557699 -1.8288852134449454
0.09577479992458746 -1.8274920486008701
0.0920785453422456 -1.316784546342968
0.10894467843457267 -1.2452433726146819
0.13066057908456682 -1.2431523692103417
0.15233667925643435 -1.2406826895516525
0.18092503124808512 -1.2873484893640414
0.19867177060109328 -1.2543641925558249
0.22053318563700164 -1.2507058463255043
0.3587209113079044 -1.8454591048816082
0.40126956327827573 -1.8878248694162447
0.42290798216646647 -1.831815721796242
0.4596516016393686 -1.8435618799243931
0.4917561856947894 -1.8352590699492297
0.5374928438431483 -1.8744603070797219
0.5701248242093366 -1.864794274127919
0.34609903369994116 -1.065183298250572
0.3744033776257302 -1.087346361939214
0.3933231648245191 -1.0806465139037944
0.41212314197709543 -1.073617490471782
0.4495279120990946 -1.1126206254801447
0.4571554203324502 -1.0769906785393553
0.5165555367062665 -1.160202731206103
0.8874983496554688 -1.903246352776965
0.9205794082570627 -1.8874674972282506
0.9760795744400257 -1.915664027004991
1.0093638599896653 -1.8983373246466928
1.0665811645419416 -1.9241633557066709
1.1249999999999998 -1.948557158514987
1.158835668547622 -1.9286264265797526
1.2188143077363711 -1.9505106211597796
1.225437828783811 -1.8870087778772038
1.3141033231562553 -1.9482382955043478
1.3479046254249583 -1.925007304079131
1.4106846055019355 -1.9416407864998737
1.4443560555649158 -1.9167252241135027
1.5083706145478633 -1.9306263463364688
1.5733009776245934 -1.9428649036424273
1.6069690242163484 -1.915111107797445
1.705753475375319 -1.9622449085792073
1.7731961068509743 -1.9693337875150947
1.8413955721687463 -1.9746549943717602
1.9450434372851921 -2.014151440948223
1.9798989873223332 -1.9798989873223327
2.0285382369549962 -1.9589366046943721
2.0989851236470196 -1.9573352933793706
2.1699828903939915 -1.9538613705678656
2.2792229322727713 -1.981298267551332
2.3517564403752624 -1.9733579617376753
2.4635526978185975 -1.9949456396279845
2.576795164293981 -2.0132130243149025
2.6914016688593767 -2.028116628022403
2.8072889704810677 -2.039614825454882
2.9243727981117007 -2.0476678777732342
3.042567891277003 -2.052237955737641
3.1617880411542485 -2.0532891620066516
3.32434853693319 -2.0772835157941634
3.4886709138575975 -2.09620496488392
3.6546272039703305 -2.11
3.8220881201991594 -2.118618040476493
3.6377440825787795 -1.9342228386778701
3.5818462272372384 -1.8250418089529779
3.5682123638076932 -1.7403334527526373
3.643357303887332 -1.6989254121976114
3.7181300126053864 -1.6554181373185068
3.8385052388966763 -1.6293488058002712
4.0517934444568615 -1.637030813227535
4.079746463792771 -1.5660679395129624
4.294395276991601 -1.5630320549983063
4.557399534388708 -1.5692385044834953
4.869409363431187 -1.5821670111997308
5.230987015117805 -1.5992732248333696
5.690669239954848 -1.6317731464366347
12.479761675654762 -3.343942062724567
12.633250356113473 -3.149823080707672
12.783735249982286 -2.9513578329915067
12.88220390166422 -2.738196968069891
12.829867287660969 -2.4938735695714414
12.87143733186956 -2.26958168210678
14.98323212682824 -2.3731108346603023
15.368960426869172 -2.1599665269002153
33.51828354092745 -4.1155277267918295
22.496085273230342 -2.36443383911432
22.733163010453634 -1.9888940495015572
23.063680842007138 -1.6127696729641743
31.077351121562337 -1.6286949582804144
24.016341637656517 -0.41920680262355053
24.07 0.0
13.118001760451852 0.22897557245715996
13.062038109139582 0.4561364219016883
13.151950972717737 0.6892645437195712
13.088040339408893 0.9152049355229251
12.970454969154527 1.134767770574511
6.036747904885419 0.6344877720346574
5.429227449478032 0.6666253084261564
3.9808776363411122 0.5594758658594629
4.711273384638806 0.7461923982419012
3.958927167109076 0.6980656742210599
3.9952226366319925 0.7765926111825376
3.7365238348031373 0.7942226589238409
3.7220936474795985 0.8593130275935646
3.609500101746707 0.8999494516307645
3.40005890853752 0.9110430387608736
3.2875150001090505 0.942679756894137
3.2705622653935813 0.9999112301517595
3.300166111544183 1.0722889704810674
4.084640246589049 1.406454427254917
3.6366104424414654 1.3236179546703382
3.6596352718690306 1.4048023622175771
3.5418423244451276 1.4309971868487843
3.424278054843078 1.453519797980099
3.307034556666215 1.4723866479343972
3.1448880210171755 1.466485368240227
3.0289359360281924 1.4773107646791914
2.913591334095963 1.484548934148318
2.754796489719852 1.4647512758919798
2.685082500917945 1.4883655341562547
2.572095449239783 1.4849999999999997
2.5029285180501675 1.5039111787373585
2.3914956311611215 1.4943723251376377
2.348277590247187 1.524989298042076
2.2798533245263646 1.5377804845445537
2.170752917365828 1.5199775563302726
2.1034441853748636 1.5282416559604302
2.0764523261229613 1.564719060195326
2.009427421697141 1.5699367620804285
1.9428649036424275 1.5733009776245932
1.8385066634855471 1.5426902632476944
1.8113029925346527 1.5745416695772172
1.7463903398718763 1.5724569249433171
1.6821135137240921 1.5685962281437464
1.6185145507619647 1.562981333532744
1.5556349186104048 1.5556349186104046
1.4935154964868438 1.5465805707281002
1.5003963921374968 1.608978143562175
1.4386308036715454 1.5977613747763972
1.3777239608800653 1.5848901184678212
1.3177145998574058 1.5703911083939048
1.2901068016521666 1.5931492209867901
0.6279747048321715 0.8037709686788563
0.6319057743096506 0.8385672855496576
0.6171745149070968 0.8494678440936949
0.5735764363510459 0.8191520442889919
0.5591929034707468 0.8290375725550417
0.5446390350150272 0.8386705679454239
0.540517649517869 0.8650090580795545
0.6180456898920651 1.0286007608425347
0.9249999999999998 1.6021469970012117
0.8968977974557237 1.6180464582078822
0.8685223911538977 1.633453046789015
0.8171828995311844 1.6038117435390622
0.789068064220339 1.6178292833385006
0.7395819580462241 1.5860386273141374
0.7117891253826507 1.5987045508745514
0.7033160312806928 1.6569087362143926
0.6555615384778464 1.6225717454918778
0.6199765527133693 1.615094137840159
0.6087958551196905 1.6726528649989167
0.35812496990287224 1.0400704331592485
0.29356614465620007 0.9035036904803958
0.2631345342504629 0.860674280366732
0.24807362023529925 0.865135526344487
0.23293714059226886 0.8693332436601614
0.2298258008196843 0.9217809399621966
0.20695496999635593 0.8964204596024165
0.20167434009322646 0.9488031727117915
0.3205591122325954 1.6491336681920754
0.30041134736378927 1.70371741271112
0.26280990126758796 1.6593164121998314
0.2338108096129096 1.6636503554858382
0.20474049692064777 1.6674775347574209
0.17560781828965819 1.670796784218699
0.1507794349534486 1.7234168276987198
0.11719087589013076 1.6759076044365047
0.08792440648814549 1.677697618387684
0.05863115446020181 1.6789765893920807
0.02932004281463607 1.6797441278627372
