# .PCD v0.7 - Point Cloud Data file format
VERSION 0.7
FIELDS x y
SIZE 4 4
TYPE F F
COUNT 1 1
WIDTH 180
HEIGHT 1
VIEWPOINT 0 0 0 1 0 0 0
POINTS 180
DATA ascii
5.021051876504148e-17 -0.82
0.013787401085454043 -0.7898796791735492
0.028617587296050885 -0.8195004781556585
0.04291548411921405 -0.8188762184987505
0.06068813215738914 -0.8678807237260471
0.07321082390803284 -0.8368035463970662
0.08571333987947583 -0.8155079542019841
0.09627678129006652 -0.7841114597966444
0.11690540480645499 -0.8318251777429191
0.13140495063379398 -0.8296582060999157
0.13718206035687502 -0.7779981248796444
0.1602795561162977 -0.8245668340960377
0.16425023574602998 -0.7727366045797064
0.18895888564884672 -0.8184708544195975
0.19111829752373746 -0.7665336237580372
0.21740799788611742 -0.8113776940828173
0.23153537888627929 -0.8074598245881879
0.26021081720323574 -0.8511112328071015
0.25957427527495586 -0.7988874736879289
0.27347724974401166 -0.794235603503426
0.2872969203935618 -0.789341801460163
0.3010290776180523 -0.7842075582576494
0.33339986814016187 -0.8251936305644407
0.34775070435545363 -0.819249319572672
0.3416587801836723 -0.7673781844197846
0.37613025294922253 -0.8066139304626184
0.39015032064227895 -0.7999267012062585
0.4040515447681967 -0.7929958065276475
0.4178296908794429 -0.7858233576444449
0.45572104303155686 -0.822142524711032
0.46999999999999986 -0.8140638795573724
0.4583838866699483 -0.7628788976248799
0.49812410837921256 -0.7971652103870404
0.5119606929141254 -0.7883503338686985
0.5256413292625021 -0.779295318201739
0.5678406719875356 -0.8109605238461018
0.5525181371549247 -0.7604759747124505
0.5657061217629253 -0.7507173794444553
0.6095048605724018 -0.7801306460706546
0.623027187139339 -0.7693745018424012
0.668499114074001 -0.7966862208437372
0.6823013901501276 -0.7848979634316829
0.6958958306132126 -0.7728706184964901
0.7433782124681235 -0.7971755347648958
0.7571776238003071 -0.7840803823691297
0.7707463914933369 -0.7707463914933368
0.8200473723860623 -0.7919105423232567
0.8337432198458544 -0.7774781304712481
0.8471851010442295 -0.7628088912490982
0.86036892145396 -0.7479072930491782
0.9115928873115838 -0.7649172555269816
0.9636609922066439 -0.7803572849017983
0.9771333344723353 -0.7634202294038162
1.0302398079610078 -0.7763413798661423
1.0436319227436823 -0.7582429754572904
1.097663739347249 -0.7685924247104018
1.110910347223756 -0.7493184906508007
1.1657520894441393 -0.7570482586708874
1.2211892584652535 -0.7630837404958151
1.2771792780461473 -0.7674067316159805
1.2903778516388136 -0.745
1.3469143489946696 -0.7466068151793591
1.403886672645694 -0.7464597848295664
1.4612506996689232 -0.7445444195728567
1.5639016405605506 -0.7627657954129947
1.576975549443771 -0.7353557754288169
1.6352463691802557 -0.7280585911056823
1.7397541730251123 -0.7384818328447271
1.7987366778595675 -0.7267367912268691
1.8298176359345153 -0.7024011811087886
1.9639575774425482 -0.7148220995506477
1.9288578942226065 -0.6641590350925997
1.9401552932421133 -0.6303946685248927
1.9699877972838533 -0.6022857117288376
2.0571000293080024 -0.5898639414483782
2.096059043047278 -0.5616373278724699
2.241383127697552 -0.5588395788352322
2.835416888525035 -0.6546075681406468
2.9931316582454452 -0.6362097739023438
2.8565351038327025 -0.5552541765457456
3.0135117242173566 -0.5313634236608069
3.713708160637718 -0.588193588551268
6.793238951567173 -0.9547274725860487
6.511102754767072 -0.7994628927377672
6.524063633615873 -0.6857067190358062
6.5350372194818505 -0.5717416724246369
6.524068888699251 -0.45620733828657867
6.900530085154105 -0.3616414576387424
7.955150983072002 -0.2777999937519081
8.308734346749612 -0.14502949749382618
20.26 0.0
20.356899073384124 0.3553309950630928
26.343942200223363 0.9199507330779269
28.57079098932836 1.497331708110625
26.39554476987495 1.845756295269558
9.224762904329564 0.8070621778433158
9.457903224952279 0.9940656856753858
11.225696975063354 1.3783422739122175
1.9409254147334778 0.2727792778817282
1.8766078471307617 0.29722548357643863
1.979463583554538 0.34903283711052996
2.022151997902188 0.3930665304756824
2.0638914375483295 0.4386936676254723
2.0559208366968464 0.4746467246655553
2.0473239824423524 0.5104551997152991
2.2795849500422007 0.6108129464419493
2.2685776024144326 0.6505041597281178
2.3525096996690675 0.7192343936179323
2.4347046817155933 0.7910835055998654
2.373251624754285 0.8171760676874632
3.48625962311572 1.268894731738231
2.3899658918328366 0.9174219508359689
2.327231474962636 0.9402625494739394
2.448542910183491 1.0393448017814686
3.5262854665004393 1.5700034422725893
5.175017463979271 2.4131502745393933
4.997294897423368 2.437343576147271
2.370077354341059 1.2076147293071946
2.2161984580759064 1.1783736225925863
1.889178567421095 1.047188779732088
1.7840123317959438 1.0299999999999996
1.8086230044814566 1.0867303380602145
1.7724205209669304 1.107531262247398
1.6689544302113937 1.0838316796799041
1.6083328907567809 1.0848342327332487
1.5481973637061943 1.0840594647034774
1.448140419931156 1.052135601603527
1.3896257874822893 1.0471581402845644
1.33173817359536 1.0404678933003624
1.313376674862281 1.063551460874225
1.2563128867151239 1.0541716798859244
1.1999882325542075 1.0431338560949064
1.1816002725090566 1.0639176641105847
1.0897170154125642 1.0161775564931228
1.07181630250459 1.035040971983906
1.053589103967956 1.0535891039679557
1.0003080534609559 1.0358493124876578
0.9479777204868728 1.0165816452506469
0.930091542838813 1.0329713074135778
0.9119220502968051 1.049046316509653
0.8291960164956359 0.9881973316234817
0.8118233044542903 1.0025182902794925
0.7942033031700994 1.0165338721526713
0.7462506287085398 0.9903080324586432
0.7288537128426666 1.0031810730249349
0.7112347810752969 1.01574853491835
0.6654395551301887 0.9865547113404997
0.6481204516678823 0.9980179758550545
0.6041079612258535 0.9667748296183255
0.5871434053974618 0.9771707228004078
0.5699999999999998 0.98726896031426
0.5284424860685075 0.9533354807819414
0.5117240034366208 0.9624128762162305
0.4948496447161061 0.971197111365321
0.4778245500000942 0.9796855104660921
0.46065390529736244 0.9878754878699485
0.44334294095262244 0.9957645488304349
0.4063603736288447 0.957325047590538
0.3895908571525487 0.9642712087494588
0.3727026675271122 0.9709236435570898
0.3557009490586956 0.9772803256173447
0.3385908806354428 0.9833393186232896
0.30592682443119795 0.941545951132202
0.304066572911646 0.994556946201557
0.2728809822588292 0.9516490789789357
0.25623085465149575 0.9562665680261775
0.239502676643671 0.9605927690132365
0.23394909651761975 1.0133448673766448
0.20583257390958165 0.9683661247264677
0.18890090542277946 0.9718109116131873
0.17191169589026092 0.9749596754820861
0.14704839713781706 0.9284270401594295
0.13082271490246133 0.9308519846170761
0.11455718280083864 0.9329933825428426
0.10139260936962406 0.964686238507225
0.0845410704652284 0.9663088571489932
0.06557108531947792 0.9377102072442347
0.05338267536780262 1.0186021254496653
0.033852511801426045 0.9694091022085228
0.016928834244164876 0.9698522643016995
