# .PCD v0.7 - Point Cloud Data file format
VERSION 0.7
FIELDS x y
SIZE 4 4
TYPE F F
COUNT 1 1
WIDTH 180
HEIGHT 1
VIEWPOINT 0 0 0 1 0 0 0
POINTS 180
DATA ascii
5.939536975864663e-17 -0.97
0.01692883424416509 -0.9698522643016995
0.033852511801426045 -0.9694091022085228
0.05076587755565565 -0.9686706487119366
0.07115160321900797 -1.0175153312650207
0.0888988576026113 -1.0161185920535805
0.10661903253300653 -1.0144123332756387
0.11821326310299306 -0.9627697670920823
0.1419565629792668 -1.0100734301164018
0.1548701203898286 -0.9778114571891864
0.17191169589026112 -0.974959675482086
0.18890090542277946 -0.9718109116131873
0.20583257390958185 -0.9683661247264675
0.22270154380042648 -0.9646263641373829
0.239502676643671 -0.9605927690132365
0.25623085465149553 -0.9562665680261776
0.2866628500496791 -0.9997121637758517
0.2894479876755094 -0.9467417084034051
0.30592682443119795 -0.941545951132202
0.338590880635443 -0.9833393186232895
0.3557009490586956 -0.9772803256173447
0.3727026675271124 -0.9709236435570898
0.3895908571525487 -0.9642712087494588
0.4063603736288447 -0.957325047590538
0.43114084166034844 -0.9683581851011569
0.41839207912329246 -0.8972447091662834
0.44275485825696825 -0.9077819867621586
0.435830879749965 -0.8553662632208332
0.4506927002744552 -0.8476296891445698
0.47996152404387377 -0.8658735100680017
0.4949999999999999 -0.8573651497465943
0.5098876941609537 -0.8485956276950911
0.5511160348025331 -0.881970020002683
0.5664245964156281 -0.8722173906632409
0.5815606196095768 -0.8621990754572433
0.596519493805088 -0.8519181260605515
0.6112966623841721 -0.8413776741499454
0.6258876240781303 -0.8305809304491846
0.6710710081049677 -0.8589317214313269
0.6859592262443228 -0.8470890979880984
0.7327778750426548 -0.8732906651556349
0.7479072930491782 -0.86036892145396
0.7628088912490983 -0.8471851010442294
0.8115780484743733 -0.8703109049268126
0.8266434608462067 -0.8560143624029948
0.8768124086713189 -0.8768124086713188
0.8919813524199275 -0.8613763793691566
0.9068785900077715 -0.8456779664774982
0.9586568248658387 -0.863178482202927
0.973575358487376 -0.8463161473977544
1.0264995537794306 -0.8613353969799626
1.0802328864251896 -0.8747553435592739
1.0953349475133436 -0.8557694507026649
1.1500351344681017 -0.8666136333389495
1.2054353216186717 -0.875800025915785
1.2205365459905977 -0.8546288901630587
1.3181697403625163 -0.8891167165184874
1.3334862030332244 -0.865976065673893
1.3907988776965388 -0.869067593342456
1.4057543731514641 -0.8446624428524886
1.5068842025849232 -0.87
1.5655692757795183 -0.8678092202409433
1.6246235708604257 -0.8638276755260391
1.6840023307160152 -0.8580420445077435
1.7886001521353423 -0.8723585821102641
1.848867885554766 -0.8621412539510268
1.9275809156258878 -0.8582143168899383
1.9882904834572714 -0.8439792375368311
2.141794704049279 -0.8653412307907565
2.203249806533396 -0.8457483609269087
2.3116438471333343 -0.8413695525811452
2.467803482314217 -0.849732883133179
2.5773631591598662 -0.8374360547561074
2.7828468398524335 -0.8508016607431639
2.9414607895712557 -0.8434503088000173
3.100621902387909 -0.8308091347790914
3.3572232129149477 -0.83704975877485
3.6149129403532227 -0.8345684116157387
3.92237187894256 -0.8337258801792151
4.230813160659431 -0.8223867700729083
4.6384445166875 -0.817882916811242
5.59031600776848 -0.8854190721277068
5.802970882825603 -0.8155543716259833
6.362220832020875 -0.7811824912269951
7.220228960373664 -0.7588766433231636
8.726665555283692 -0.7634843064694846
10.933301990847676 -0.764530952235612
10.8950482241724 -0.570985282610518
10.903353922778335 -0.3807535090242861
10.958330738914048 -0.19127837455262756
16.61 0.0
16.55747783178984 0.2890118506014153
16.549912095436223 0.5779356653934168
16.537305095535743 0.866683435383151
16.519660672302688 1.1551672052027164
16.546793935303892 1.4476568870386042
15.673665071003986 1.6473685810982208
12.813770817689468 1.5733332233604533
9.466962737169412 1.3304948451782255
6.281697846185076 0.9949231976558683
5.672492657350318 1.000213503361519
5.065196266589946 0.9845744161429715
4.655982579492914 0.9896596482925347
4.2482534824636256 0.9807865969392519
3.9394006486805453 0.9822028961346514
3.709155172950022 0.9938651331936802
3.6431818276062287 1.0446655785464267
3.6722102628980564 1.122707346135309
3.433314023825504 1.11555134969356
2.9405627701138752 1.0125169603617572
2.5935516333691067 0.9439755955788457
2.4833239344825566 0.953258745790499
2.494124568784658 1.0076917362888036
2.448542910183491 1.0393448017814686
2.3386763715650583 1.0412458062740488
2.229517156110159 1.0396409238821205
2.121153949266034 1.034555906422223
2.05822507087513 1.0487180543983532
1.9513141802182283 1.037532153756819
1.845447582064125 1.022948298719771
1.7840123317959438 1.0299999999999996
1.5771878332918865 0.9476700578344999
1.4756036873121814 0.9220595197657765
1.4592867882250375 0.9476719209261473
1.3596216189902683 0.9170763616920247
1.3434093526339463 0.9406653556157158
1.2863370210561664 0.9345785511450323
1.2298986854728309 0.9267951356541547
1.1741360228740156 0.9173355982352308
1.1579474825708869 0.9376873826642576
1.1031039980913282 0.9256141579486167
1.0867817955207917 0.9447250017463302
1.0329713074135778 0.930091542838813
0.9800139601696887 0.9138778024837481
0.9639153324537924 0.9308422164150565
0.9121677477306463 0.9121677477306462
0.8961092978921064 0.9279483424368602
0.8797778844806231 0.9434462750887299
0.8297219518849843 0.9214995835919687
0.7807102444987036 0.8981044004650987
0.7970566360113089 0.9498951094675328
0.7488912653493065 0.9248036941337954
0.7326371556375335 0.9377327967919991
0.6860691263933348 0.9104444814539139
0.6700751876134193 0.92227937358744
0.6251983156226402 0.8928757282750013
0.609520264783114 0.9036509540849955
0.5936565481663797 0.9141509190605122
0.5776119980141934 0.9243724248105044
0.5613915016519592 0.9343123577653024
0.5449999999999999 0.9439676901250382
0.5042020050561906 0.9096044954249716
0.48825042529732626 0.918265496573284
0.47215011972912874 0.9266467851559026
0.45590599266064036 0.9347458081511337
0.41839207912329246 0.8972447091662834
0.4026692766450424 0.9044100030661747
0.36728726077991725 0.8652745622452939
0.3708605274817531 0.9179120160211194
0.35478427004984714 0.9242446222322297
0.32149893472612867 0.8833110635387538
0.30603406518972714 0.8887874610633578
0.29047597471245057 0.8939931253174442
0.2748294024393723 0.8989264706052533
0.2590991144679792 0.9035859941820197
0.2432899023963697 0.907970276711724
0.21531048708370423 0.8635631963856368
0.21145399108323323 0.915907860898121
0.1850414048278057 0.870551364653087
0.1793604556539522 0.9227295524408041
0.15975632345357582 0.9060231327712315
0.13922667388580554 0.8790426231296726
0.12386405985445807 0.8813385811799976
0.1121197959327357 0.9131424595100163
0.09825675547159446 0.9348505816461768
0.0801832833278455 0.916499122244406
0.06417595584459543 0.9177589262390383
0.048149079743508245 0.918739171974208
0.031060552065225962 0.8894578360469952
0.015532641729182206 0.8898644486891882
