# .PCD v0.7 - Point Cloud Data file format
VERSION 0.7
FIELDS x y
SIZE 4 4
TYPE F F
COUNT 1 1
WIDTH 180
HEIGHT 1
VIEWPOINT 0 0 0 1 0 0 0
POINTS 180
DATA ascii
9.919639073093561e-17 -1.62
0.02827289842839943 -1.619753266153354
0.056537184658051756 -1.6190131397709353
0.08478424911356923 -1.6177798463024098
0.11300548746548325 -1.6160537614209154
0.14119230325120619 -1.613835410908628
0.16933611049359862 -1.611125470496603
0.19742833631633894 -1.6079247656589417
0.22546042355530607 -1.604234271361344
0.2612455566171856 -1.6494395287938801
0.2813100478204273 -1.595388559879777
0.31865102227883 -1.6393173963575989
0.34721252366565825 -1.6335064932254553
0.37566826075425475 -1.6271980081913429
0.404009565651445 -1.620393862880914
0.43222780532120963 -1.613096129902744
0.4740962520052385 -1.6533701170139086
0.4882607468869704 -1.597028942458269
0.5160583806061623 -1.5882643822129063
0.5502101810325949 -1.5979263927628453
0.5780140422203803 -1.588080529128185
0.6163928732179167 -1.605758333575187
0.6518154725436872 -1.61329990694621
0.6798721635713363 -1.6016784450072463
0.7077217589518926 -1.5895690962981253
0.735355775428817 -1.576975549443771
0.7846843527524486 -1.6088413428755088
0.8353425195207662 -1.639452004506597
0.8638276755260392 -1.6246235708604255
0.8920497012532603 -1.6093002611364882
0.9199999999999998 -1.5934867429633672
0.9734219615800025 -1.620046198326992
1.0280433726124174 -1.6452133065434662
1.0565997279291526 -1.6270209018141224
1.084834232733249 -1.6083328907567807
1.1414171083385816 -1.6301125681350936
1.1990819146766452 -1.650394668524893
1.2577933983877807 -1.669148215998842
1.255949409664343 -1.6075419373577127
1.31527961729416 -1.6242350594450692
1.3755654847291943 -1.639335108274613
1.4367692734892108 -1.6528139806878708
1.4653960279258995 -1.6274871677954934
1.527676326539997 -1.6382322916269418
1.5907676683511038 -1.647288142775511
1.619274528917194 -1.6192745289171937
1.6832551327924437 -1.6255005868740535
1.7845030319507762 -1.6640759985524962
1.850430615438712 -1.666135209833557
1.916962333765841 -1.6663899336358885
1.984055107678153 -1.6648199090881366
2.051665338246403 -1.6614058323715708
2.119748927202082 -1.6561293686260206
2.1643022322281635 -1.6309187127420508
2.2733377541936024 -1.6516765589418496
2.3837324488809664 -1.669107429781544
2.4539512147629234 -1.6552109942734106
2.566331937912998 -1.6665954471459825
2.637429579046485 -1.6480489117652672
2.794365400288886 -1.679024124206776
2.9098453567157136 -1.68
3.0261841867023094 -1.6774412860523262
3.187440810220726 -1.6947923416570658
3.305634204738845 -1.6843047540337186
3.4693450187147845 -1.6921126266058388
3.634294226016966 -1.6946992295802044
3.84602637667535 -1.7123612673491186
4.0134011610526406 -1.7035877202132332
4.27431756955289 -1.726936395647354
4.49052185145154 -1.7237498373128943
4.754844661176696 -1.7306219252278838
5.0679795652123385 -1.74504530789036
5.335427056415812 -1.733585338443455
5.651761107741541 -1.727916774911374
6.5461921493399515 -1.877090393113764
6.626251168343009 -1.775498649403292
7.189891331705134 -1.792641246393537
8.535481767518661 -1.9705712360522563
8.519665602391447 -1.8109108270226846
8.451810049484386 -1.6428654501920512
8.479194753435111 -1.4951108097122703
8.503996612524135 -1.3469007439963876
8.52620807186492 -1.198280399266163
8.496195058049718 -1.043201579548062
8.51310742435242 -0.8947636455711131
8.477616880760754 -0.7416953707825702
8.489270067711105 -0.5936275915625052
8.498337340761424 -0.4453789876274526
8.504815937932504 -0.29699471693828366
8.50870388578089 -0.1485199787812829
8.51 0.0
8.558696270538709 0.1493925991031471
8.504815937932504 0.29699471693828366
8.59820029423688 0.45061258325174697
8.539148270224096 0.5971154152497135
8.627046085474516 0.7547687321947208
8.612559613889246 0.9052164918978802
6.659984677513271 0.8177432942485393
5.951511093136838 0.8364303367699931
5.343393922619695 0.846310455867649
4.933886842591162 0.869977370111321
4.476219956521347 0.8700890189170445
4.166908779126012 0.885703802883655
3.8585054565495316 0.8908061752017057
3.5997971444839467 0.8975302326747677
3.390399650274629 0.9084548483098484
3.1337131287589193 0.898577779963417
2.9741077910450406 0.9092760016877112
2.8436589837225092 0.9239608131810928
2.8743764698219234 0.9897271895497564
2.8566655671891614 1.039741235710033
2.856756105081437 1.096605925608619
2.7444642095176905 1.1088355165111
2.586618638201357 1.0979544710548597
2.5031145539407267 1.1144584020276929
2.4560941028693213 1.1452954893172953
2.4806715677857003 1.209904365137854
2.4859082024855463 1.2666334942733355
2.436935356290638 1.295741513289059
2.326488420990793 1.2895935898552566
2.260326303877385 1.3049999999999995
2.1514899247623016 1.2927455680242361
2.043795911736987 1.2771054268020239
1.9792625403512003 1.2853481226354642
1.9150767926021464 1.291735607017425
1.851283620093121 1.2962827461533644
1.7474767078498865 1.269616144951742
1.6851209261997875 1.2698296988508222
1.6627026901101831 1.2990457129371389
1.5620633825285115 1.2649339860101727
1.5397493306691457 1.292003095469944
1.479230777236633 1.285875696821394
1.3079348928402137 1.1776698671915906
1.1994200706554397 1.1184773105024974
1.158137078545228 1.1183999764389858
1.1030865786510142 1.103086578651014
1.1045068090298056 1.1437502825384556
1.0843773924993727 1.162852385574481
1.030461133792642 1.144443031235187
0.8463161473977544 0.973575358487376
0.7970566360113089 0.9498951094675328
0.7803572849017983 0.9636609922066439
0.7326371556375335 0.9377327967919991
0.7161598775509372 0.9503762569562786
0.699464450228043 0.9627302233061874
0.6538771374401923 0.9338333304894507
0.6374799099566513 0.9451028327127475
0.6208884999171309 0.9560844474577832
0.6041079612258535 0.9667748296183255
0.5871434053974618 0.9771707228004078
0.5699999999999998 0.98726896031426
0.5526829670808243 0.997066466138911
0.5117240034366208 0.9624128762162305
0.4948496447161061 0.971197111365321
0.45590599266064036 0.9347458081511337
0.4395229922103274 0.942560098518116
0.4230061087988324 0.9500872759483048
0.4063603736288447 0.957325047590538
0.3708605274817531 0.9179120160211194
0.3727026675271122 0.9709236435570898
0.33859994189241216 0.9302956945780492
0.3385908806354428 0.9833393186232896
0.30592682443119795 0.941545951132202
0.28944798767550917 0.9467417084034052
0.2728809822588292 0.9516490789789357
0.25623085465149575 0.9562665680261775
0.239502676643671 0.9605927690132365
0.22270154380042648 0.9646263641373829
0.20583257390958165 0.9683661247264677
0.18890090542277946 0.9718109116131873
0.17712114122026884 1.0045039080724523
0.1548701203898286 0.9778114571891864
0.13082271490246133 0.9308519846170761
0.11821326310299306 0.9627697670920823
0.10139260936962406 0.964686238507225
0.0845410704652284 0.9663088571489932
0.0676637795318017 0.9676371287520295
0.05076587755565543 0.9686706487119366
0.033852511801426045 0.9694091022085228
0.016928834244164876 0.9698522643016995
