# .PCD v0.7 - Point Cloud Data file format
VERSION 0.7
FIELDS x y
SIZE 4 4
TYPE F F
COUNT 1 1
WIDTH 179
HEIGHT 1
VIEWPOINT 0 0 0 1 0 0 0
POINTS 179
DATA ascii
3.0738634658598564e-16 -5.02
0.07801225677465769 -4.469319197349069
0.14378592641430446 -4.117490207318674
0.19730655503589875 -3.7648333460247434
0.24205496389211534 -3.46154725440159
0.2806414916474592 -3.2077469278554207
0.1933776570451589 -1.8398655064313056
0.22545828529952286 -1.8362103805364458
0.2644288918241244 -1.8815093306089836
0.30035417287724336 -1.8963616139426644
0.4948973063507517 -2.806702096084793
0.36635327112296623 -1.8847241922195148
0.39503221255374293 -1.8584804413942304
0.41615945053615055 -1.8025846198526854
0.4644900395513619 -1.8629677944499132
0.7635161830524362 -2.8494811875527515
0.8131301996601475 -2.835722003018041
0.8771151141682103 -2.868914267889106
0.9425018328435897 -2.900722374700218
0.992982871094328 -2.8838316555779158
1.0602624443095734 -2.913047124436316
1.1288590410676962 -2.9407783434661856
1.1612804395893277 -2.874269949157041
1.250339611165676 -2.9456155310478094
1.3015572578425614 -2.9233454644563226
1.3608308028050522 -2.918311074258013
1.4334736500002834 -2.939056531398276
1.4845489341483182 -2.913591334095963
1.5821191665884522 -2.9755333879345836
1.6338084202301562 -2.947468413059764
1.7349999999999997 -3.0051081511320024
1.7871821199378883 -2.9743705334363297
1.8653158101008813 -2.9851292984706195
1.971593306754398 -3.035987455962435
2.052237955737641 -3.042567891277003
2.1623831650434435 -3.088203206969499
2.2453396637572474 -3.0904449185122993
2.329024139598427 -3.0907194238830233
2.413392983276581 -3.08900215413835
2.4984019524678547 -3.0852694669841747
2.6161455714242154 -3.117800883494241
2.735766150890415 -3.1471389495289595
2.8571876891523242 -3.173228404788473
2.9803328334731187 -3.1960156760757745
3.0703899974287676 -3.1794819174968376
3.2314779900225226 -3.231477990022522
3.359316867581501 -3.244054590043517
3.4885571567234432 -3.2531321774981174
3.65627254134878 -3.292122583285582
3.788642092718315 -3.293416325532346
3.998751993081065 -3.3553513225637346
4.134416514951085 -3.347984480385135
4.349819359909105 -3.3984513437976327
4.528263341968151 -3.4122911812721135
4.748929756980941 -3.4502994309568176
5.01321051104863 -3.510287790468402
5.198065579920112 -3.506139504761582
5.468132103004164 -3.5510465082979756
5.783688015786826 -3.6140493820704576
6.060172815963934 -3.6413191896140824
6.339305955702091 -3.66
6.708333153759165 -3.718489787289405
7.169534454014486 -3.812109089821433
8.731863937046006 -4.449106897447559
8.960976641602697 -4.370560333487102
9.534357919625556 -4.445944113512158
10.249980034749983 -4.563585135310478
11.64438639617337 -4.942748775389312
11.747419437361197 -4.746265538579604
12.015180089018985 -4.612195510648015
12.375751815750412 -4.504405287599058
12.168824067963207 -4.190062147863607
12.477861493792414 -4.05430296619931
12.977055538418393 -3.9674840330875374
21.070856374967953 -6.041970839508621
21.22139040357083 -5.6862544209023795
21.268882319969844 -5.3029279515447145
23.745398478816185 -5.482057194359987
39.830170301880564 -8.466164050099163
42.9080737987419 -7.565851100948156
12.168320356132098 -1.9272726092956443
12.10107580002199 -1.7006952937319995
11.93040474272869 -1.4648695077298721
11.904427087558233 -1.251205705313811
12.024070005967369 -1.051969814964233
10.344739201194377 -0.723374632726578
8.458392159371241 -0.4432855493777349
7.215601771077871 -0.2519743661920573
6.269045048630573 -0.10942658836176776
5.52 0.0
5.019235429685084 0.08761108031516335
4.5172465381263125 0.15774572509530457
4.1143536831888445 0.2156241397209289
3.810694671992528 0.266469729702559
3.5564150721875314 0.3111460016091401
3.2520865978542535 0.3418080748852273
3.0471166855388585 0.3741388842538026
2.8915827607253854 0.406385454803391
2.686512286418775 0.425501744909428
2.5309559252413742 0.446275816604011
2.4246191431157302 0.4712982185800658
2.269302433702429 0.48235512269720177
2.1143830405839603 0.48814378792618723
2.0570269397051124 0.5128744186712958
1.9511701691039178 0.5228144711070922
1.8936855409984883 0.5430055909594882
1.8169790363297675 0.5555062389731997
1.759454555146034 0.5716814395936527
1.7019334360787703 0.5860226780228821
1.6444620863753396 0.5985352508199203
1.587086725045243 0.6092255142270105
1.4834941673068598 0.5993705494654594
1.4728077655239045 0.6251698055828383
1.4159954593460313 0.6304417967674905
1.3594616805549748 0.6339273926110491
1.303251367133792 0.6356381628441624
1.2919594600731334 0.6582862246223429
1.1919792503595514 0.6337866097609528
1.1807366046381844 0.6544929873325551
1.1691342951089922 0.6749999999999998
1.114317490912746 0.6695494973830706
1.0600601201955326 0.6623990802915061
1.04833820993178 0.680798793768784
0.99484508706605 0.6710314841648961
0.9420248509323403 0.6596129018037031
0.938459713474939 0.6818308926592688
0.9264171916548595 0.6981054268563762
0.9140924741837974 0.7141673113777636
0.8626320172172379 0.6985456340653194
0.8886115540180144 0.7456336272363856
0.8754631130584155 0.7610284736289883
0.891773790572873 0.80295672763063
0.8776244419430047 0.8183980320749982
0.8632077604063811 0.8335900445507968
0.8838834764831844 0.8838834764831843
0.9030558815966964 0.9351417404402467
0.8865978680812481 0.9507598121049217
0.9033263185844588 1.003245514394482
0.9184826405867101 1.0565934123118808
0.9320420340454822 1.110764442522518
0.9125145670222642 1.1268616441126078
0.9234922129884876 1.182016130410083
0.9328132858856747 1.2378850405733042
0.9698456662825806 1.3348780407186631
0.9464011199792257 1.3516008730768365
0.978587581073807 1.450815751971323
0.980350263027049 1.509607022301763
0.9909490241160932 1.5858499398125165
0.9785723423291031 1.6286178713340131
1.0099999999999998 1.7493713156445663
1.0035559139099177 1.8104627937785491
1.0187532912453827 1.9159962765038716
1.0532579593957487 2.067135136117013
1.082776732569021 2.2200212943589426
1.0861289326735974 2.32921101268419
1.106323669166177 2.4848436447878743
1.1409348951886793 2.6878741720811257
1.168772571457646 2.8928136262483766
1.1897815924903965 3.0994870159707095
1.2381129188389213 3.401687287244988
1.259948757749196 3.659156887569356
1.3195025659810256 4.0610113245803054
1.3799944462913165 4.513758448145528
1.4663907329464356 5.113912222391857
1.5451496992620501 5.766577182945737
1.6740995175497002 6.7144464258298955
1.916582983009731 8.301632951970204
2.0520883883712835 9.654316819242661
2.388928622114342 12.289972336764752
3.120457752674736 17.69699532162938
3.718447234006289 23.477351855946424
4.108389940341126 29.232713389251156
3.591489550149696 29.250335088869758
3.080453812497754 29.308560256503014
2.498755144575359 28.560901994290347
1.0791326488216209 15.43231585751948
0.644778980913067 12.30311586817635
0.35841783113468606 10.263743793486112
0.141713540270741 8.118763284669896
