# .PCD v0.7 - Point Cloud Data file format
VERSION 0.7
FIELDS x y
SIZE 4 4
TYPE F F
COUNT 1 1
WIDTH 180
HEIGHT 1
VIEWPOINT 0 0 0 1 0 0 0
POINTS 180
DATA ascii
4.2250314570583685e-17 -0.69
0.01256573263484419 -0.7198903405126017
0.025127637625800777 -0.719561395453749
0.03768188849491966 -0.7190132650232931
0.050224661095770326 -0.7182461161870733
0.06013746249588411 -0.6873743416833044
0.07526049355271049 -0.7160557646651567
0.08408984694955177 -0.6848568446325121
0.09602943966244516 -0.6832849674316835
0.10793978087775932 -0.681504955010645
0.11981724259018198 -0.6795173495784235
0.14119865657864322 -0.7264041157512713
0.153854651205142 -0.7238292245430161
0.15521622749726693 -0.6723153447018123
0.1669261079637707 -0.6695040511304375
0.19152609337586535 -0.7147851114539105
0.20397164330457937 -0.711333654994356
0.2163550614948252 -0.7076655194126462
0.22867257583746112 -0.7037818220584136
0.240920434298296 -0.6996837459434944
0.25309490606099494 -0.6953725393815722
0.2651922826635223 -0.6908495156079293
0.27720887912777503 -0.6861160523794226
0.30867759150652624 -0.7271988342274279
0.3213219480298823 -0.7217009115376546
0.33386842677515255 -0.7159831517589534
0.3243946486239173 -0.6651075942613836
0.35865249479424205 -0.7038951541088107
0.3708825346008538 -0.6975285983585523
0.40724008100692316 -0.7346805539970924
0.4199999999999999 -0.7274613391789285
0.43263198292444555 -0.7200205325897743
0.4451321819558921 -0.7123604007713977
0.45749678941262273 -0.704483277074156
0.49768168408896474 -0.737843439573987
0.510483028352431 -0.7290453194172027
0.5231288745403011 -0.7200251249937032
0.5356153706053229 -0.7107856039420907
0.5787217868061189 -0.7407301083903185
0.5600951480343553 -0.6916599056967041
0.6042203531053469 -0.7200817765318392
0.6166954872510768 -0.7094270054094056
0.6289827699773267 -0.6985561359487505
0.6751783764618736 -0.7240401646029786
0.6877117867544073 -0.7121464023352646
0.7353910524340095 -0.7353910524340094
0.7840803823691298 -0.7571776238003071
0.7606078496839375 -0.7092782944649985
0.81002785977036 -0.7293523609311554
0.86036892145396 -0.7479072930491782
0.8732906651556349 -0.7327778750426547
0.8859463960609467 -0.7174252457968145
0.9771333344723353 -0.7634202294038162
0.9903080324586431 -0.7462506287085399
1.0031810730249349 -0.7288537128426666
1.0567061371327995 -0.7399136028928495
1.1523622258515078 -0.777278135824338
1.1657520894441393 -0.7570482586708874
1.2211892584652535 -0.7630837404958151
1.2771792780461473 -0.7674067316159805
1.2903778516388136 -0.745
1.3906453343516394 -0.7708472961916759
1.4480340522886401 -0.7699333629688608
1.5058010258783416 -0.767243944559834
1.5639016405605506 -0.7627657954129947
1.667606328147436 -0.777617601602887
1.699194551215238 -0.7565301561209883
1.804189512766783 -0.7658330118389763
1.8636395476792424 -0.7529592527659829
2.016533721233956 -0.7740747710178487
2.1706899540154483 -0.7900665310822949
2.278699767194354 -0.7846192522417477
2.4347046817155933 -0.7910835055998654
2.5915858886598264 -0.7923273197986165
2.845334619977424 -0.8158865732183174
3.0330070945476746 -0.812691801621915
3.745341503425346 -0.933818517014717
3.9851735649716122 -0.9200498122664073
4.000623687001265 -0.8503588154446359
4.378057238176582 -0.85100811937939
5.357354176386412 -0.9446460865081012
5.639700424798237 -0.8932407953797182
6.54567193438178 -0.9199341973460324
7.602903521572528 -0.9335191704834294
14.430512701793646 -1.5167080020136505
11.66543991465434 -1.0205937475750761
9.93573794058785 -0.6947744784914869
9.646761305729184 -0.5055653373068382
9.704084930355421 -0.3388741129812849
9.808505889484199 -0.1712081071497515
9.96 0.0
12.158147973101718 0.2122212622773678
9.704084930355421 0.3388741129812849
9.74662425920464 0.5107989329311325
9.58659052299691 0.6703597126810451
9.573431048661675 0.8375666878049961
7.767216002826214 0.8163672981203747
6.908121215423602 0.8482106300998261
6.1990781103222306 0.8712236120100094
5.59031600776848 0.8854190721277068
5.524771494398487 0.9741662767114794
5.1142776257623295 0.9941148659117988
4.362538299272773 0.9272861410472069
4.345690488942149 1.0032817023736382
4.181974580249545 1.0426833700345683
3.9216588547336166 1.0508053231162349
3.374028552743499 0.9674871189176668
3.1653687422376477 0.9677503426322586
3.005338591492685 0.9764937022248338
2.8932868413339095 0.9962385526388995
2.7345055264869935 0.9952786170776962
2.5766819771322766 0.9890955407450288
2.5126682458759935 1.015183868157122
2.356492424838247 1.0002716889325411
2.2473218258007983 1.0005721419664688
2.1842017667583264 1.0185100107950855
2.076214246951076 1.0126373490827691
1.969124418456293 1.0033190044243985
1.9336552283610497 1.0281427225011013
1.871686173278307 1.0374925873271614
1.766691823720255 1.0199999999999996
1.7057629283972033 1.024925769071008
1.687615711351288 1.0545393358240778
1.5850873734168511 1.0293677761784013
1.5254291335012768 1.028914942386174
1.4662821592772952 1.026701821068373
1.4076895702124086 1.0227463389889033
1.3896257874822893 1.0471581402845644
1.33173817359536 1.0404678933003624
1.2745193767894323 1.032085441321733
1.218010664559175 1.0220322994015976
1.162252753543069 1.010330904645381
1.144443031235187 1.030461133792642
1.1262847004935228 1.0502774744962478
1.07181630250459 1.035040971983906
1.053589103967956 1.0535891039679557
1.0350409719839058 1.0718163025045904
0.9820776384899977 1.0531493303316055
0.930091542838813 1.0329713074135778
0.9119220502968051 1.049046316509653
0.861335396979963 1.0264995537794306
0.8432893240067821 1.041375588352341
0.7942033031700994 1.0165338721526713
0.8064321310237446 1.0701715834633727
0.7582429754572904 1.0436319227436823
0.7399136028928492 1.0567061371327995
0.693399200303726 1.0280065899682518
0.6753524034186337 1.0399515042523257
0.641202309722178 1.0261381963492753
0.6231960706411657 1.0371724338495558
0.6299999999999999 1.0911920087683928
0.5866196404980679 1.058289845638669
0.6197024628773756 1.1654908225737837
0.5629482196770381 1.1048480899935762
0.5654987793579096 1.1594443197259254
0.5367251924106883 1.1510108895365454
0.5043534374139924 1.1327963674768249
0.4845065993266994 1.141426018281026
0.4645121758357311 1.1497079796628162
0.42645785995890717 1.11096070753167
0.4070039705575459 1.1182342187352308
0.38742610380401626 1.125167104963187
0.3831810730249348 1.1793100802059904
0.34207489452560175 1.1188765644767515
0.336277574096739 1.1727392690447491
0.3028182827699495 1.1301332167582097
0.2878870557636045 1.1546519142684357
0.2631927335823222 1.1400129757987252
0.2432566782567783 1.1444326928585526
0.22324652459055755 1.1485038046337668
0.20316836787030834 1.1522250710242834
0.18302832409707018 1.1555953584963112
0.16283252812327634 1.1586136404276373
0.14258713178402255 1.1612789974203466
0.1222983020231548 1.1635906175808797
0.10197221901476002 1.1655477967673422
0.08161507428062678 1.1671499388039943
0.06123306880424418 1.1683965556628513
0.04083241114192626 1.169287267612342
0.02041931553162155 1.1698218033329777
