# .PCD v0.7 - Point Cloud Data file format
VERSION 0.7
FIELDS x y
SIZE 4 4
TYPE F F
COUNT 1 1
WIDTH 180
HEIGHT 1
VIEWPOINT 0 0 0 1 0 0 0
POINTS 180
DATA ascii
1.0225800772880399e-16 -1.67
0.029145518750263607 -1.6697456509111734
0.056537184658051756 -1.6190131397709353
0.08740104692571642 -1.6677113230401381
0.11300548746548325 -1.6160537614209154
0.14119230325120619 -1.613835410908628
0.16933611049359862 -1.611125470496603
0.19742833631633894 -1.6079247656589417
0.22546042355530607 -1.604234271361344
0.2502951440643695 -1.5803013449522205
0.2604722665003956 -1.477211629518312
0.28048922320352104 -1.442991959668066
0.31602577004299437 -1.4867843531153846
0.341925602602675 -1.4810424984735575
0.3677212813114949 -1.4748495039395146
0.3804639963007055 -1.4199109646449304
0.40518691305098875 -1.4130546930293288
0.42978640594242307 -1.405767991265662
0.4697058314499201 -1.4456059047686334
0.4948635947748783 -1.4371882349109615
0.5198706178550166 -1.4283327835945807
0.5626376807861216 -1.4657212696006068
0.5881323516629822 -1.455678651669856
0.593911315303696 -1.3991673772477093
0.6345091631982486 -1.4251309139224573
2.9202921886282334 -6.262586808423251
2.853796165596894 -5.851149241407576
2.95547815330445 -5.800452472466275
3.079733451875444 -5.79213620915456
2.1622509062986635 -3.900803893841705
3.329999999999999 -5.767729189204362
3.455905482646464 -5.751592587711173
4.08567752723801 -6.538450821366044
4.553182332725626 -7.011285948023744
4.702812318188982 -6.9722059851879
4.85245665152985 -6.930026294684871
5.26655586054056 -7.24879226959953
5.211718100496738 -6.916183517009556
2.8381994012512854 -3.632729574126988
2.995565061397226 -3.6992147765351815
3.0275296416236004 -3.6080693270903863
2.991629172196713 -3.44147568581584
3.0177790346784503 -3.3515831629030477
3.1099125218849935 -3.3349728793834164
3.2023750878159776 -3.3161564795611818
3.295117600329312 -3.2951176003293114
3.316156479561182 -3.2023750878159776
3.3715405644643766 -3.1440124398881184
3.500212127998527 -3.1516051559502216
2.2339403574594052 -1.9419347258119015
2.229189329476226 -1.8705119441878293
2.2614947478397855 -1.831322337955027
2.214310217634889 -1.7300087456650994
2.2042340077305282 -1.661009463899653
2.1924360547561075 -1.5928980337126022
2.2199020400231677 -1.5543921425113347
2.1637880643686587 -1.459493478058649
2.1469966539402856 -1.394275929638469
2.086198316544808 -1.303601390013684
2.1514899247623016 -1.2927455680242355
2.130422493309719 -1.23
2.1515644795629134 -1.1926316658059892
2.127903698790014 -1.131426466313997
2.05822507087513 -1.0487180543983532
2.0312745446361173 -0.9907187917433148
2.048255598702829 -0.9551172715339805
2.110290007154408 -0.9395616455050984
2.080340968802515 -0.8830523503857584
2.0954355113209395 -0.8466109011199608
2.063212742558816 -0.7919931684951137
2.0767206919368575 -0.755864516749728
1.976133823002572 -0.6804374428154575
2.054282075197532 -0.6674767078498864
2.017803035082005 -0.6169042969649744
2.028262178429853 -0.581594820773868
1.9898072021554807 -0.5331672329111926
1.9988091961285528 -0.4983591049353153
2.0072023334575846 -0.4633991719483616
1.966076677474949 -0.4179024985436963
1.9730706387298045 -0.3835260807068551
1.979463583554538 -0.34903283711052996
1.9852535645962268 -0.314433274730864
1.9409254147334778 -0.2727792778817282
1.9453904572169913 -0.23886391307408897
1.9492629149218157 -0.20487578800460063
1.9027318733552339 -0.16646746864802692
1.8554691334832734 -0.12974704116407285
1.8574509346435075 -0.09734487861187567
1.8088973969045634 -0.06316808903152685
1.8097243282330682 -0.0315888556514832
1.81 0.0
1.8097243282330682 0.0315888556514832
1.8088973969045634 0.06316808903152685
1.8075194579057787 0.09472808079972847
1.8355178524780766 0.12835191168919075
1.832998244488812 0.16036656665569127
1.829920287477623 0.19233237241248266
1.8262849190200328 0.2242395918654713
1.8220932464844894 0.25607850576652036
1.7975927798831508 0.2847107263732202
1.7923501104822186 0.31603968335381327
1.7865614738747484 0.34727237158531166
1.750884205313512 0.3721619265637893
1.82207202114839 0.4206584716230277
1.7659382218223136 0.4402978499913955
1.729007229057432 0.46328609073351246
1.7206584357295909 0.4933908669124284
1.7596007509719855 0.5379639366898356
1.7499439899830826 0.5685912696499033
1.7113886218347636 0.5892783595674537
1.700843643622494 0.6190564594194605
1.7364595932847953 0.6665643861542586
1.7245619694942245 0.6967682637535966
1.712139027421539 0.7267598989900494
1.6991945512152378 0.7565301561209886
1.7310478732400012 0.8072008799247358
1.7166966284314087 0.8372888903671382
1.7018224611997825 0.8671218545025343
1.6864299023605502 0.8966906849210518
1.6705236406362458 0.9259863746705037
1.610807251039056 0.9299999999999997
1.6371895443410343 0.9837227230782036
1.7045766732744163 1.0651377211087418
1.6857278415703019 1.0947244603802047
1.6663655208356336 1.1239777359762009
1.646495609020873 1.1528886370656029
1.6665750084123918 1.2108376197224946
1.645189150697423 1.23973894769322
1.6233021524298472 1.268262639170856
1.6009206806013603 1.2964000055626648
1.6546559971369925 1.3884212369229252
1.6301726932811877 1.4170875026194956
1.6051928230311714 1.445322109735134
1.616291680578367 1.5072163757381216
1.5897409587484186 1.5351949987143843
1.5839191898578666 1.5839191898578664
1.5699279172373335 1.6257079487653519
1.5754162117443715 1.6894270507402838
1.5456917006889628 1.7166645468527806
1.515496356968072 1.7433791303146033
1.5041230066665023 1.7925439968984085
1.4851961228776163 1.8340644690384513
1.4529610817685537 1.8597053785118636
2.5035504963125206 3.3223237217967387
2.4451866495366885 3.3655106965997814
2.4147567970379034 3.448630106456656
2.3542021236118438 3.490248180456726
2.238466433911762 3.4469360342556925
2.1514722127868118 3.443075270395089
2.0653026803893173 3.43724087581547
1.9549999999999996 3.3861593287971554
1.8956056151631782 3.4197630549150375
1.7886866542142434 3.364030328792512
1.707004279020696 3.350184530948263
1.6044383972480227 3.2895862094549515
1.54678283797096 3.317086500554139
1.4683192815036392 3.2978991020897888
1.4300759302707418 3.369047763635932
1.445981450585421 3.578929678627799
1.4012186827221236 3.650299467604059
1.3886017819022154 3.8151520403907875
1.3543635225417712 3.9333572744931584
1.3318632457560233 4.099053585232111
1.2893592178272681 4.217303973796987
1.2431244747346661 4.335290248681818
1.2190377024328738 4.549510641821511
1.1757404126143849 4.715637229701343
0.7445879898781936 3.225164914439129
0.6570009429841192 3.090946418318826
0.6315777746963637 3.2491859772117677
0.9828486855948251 5.574011882049098
0.9245276883877648 5.837238092917264
0.8920995771540182 6.347618320633466
0.8177432942485396 6.65998467751327
0.7222916811794869 6.872146296994768
0.10545844872466634 1.205395584691012
0.07812725059342052 1.1172717362910032
0.058616270992097 1.1184650789251227
0.04083241114192626 1.169287267612342
0.019546695209757384 1.1198294185751583
