# .PCD v0.7 - Point Cloud Data file format
VERSION 0.7
FIELDS x y
SIZE 4 4
TYPE F F
COUNT 1 1
WIDTH 173
HEIGHT 1
VIEWPOINT 0 0 0 1 0 0 0
POINTS 173
DATA ascii
3.0003846579110155e-17 -0.49
0.008551679154268963 -0.4899253706266317
0.016402763450175505 -0.469713688698975
0.024597899434183664 -0.46935588133464967
0.03418067213462147 -0.48880638462731385
0.042706313946352485 -0.4881354020649553
0.05121894700115019 -0.4873157287304539
0.05971597826852227 -0.4863476143042478
0.06819481947043207 -0.48523135368336945
0.07665288786971315 -0.4839672868916175
0.0850876070567959 -0.48255579897598194
0.08395595796567977 -0.43191596071697214
0.08732291014345897 -0.4108219923081983
0.09447944282442336 -0.4092354272097988
0.0943495392838704 -0.37841533324763865
0.10093942758998309 -0.37671107225273665
0.10749856876862968 -0.3748920614159444
0.12864355007800418 -0.4207740926237356
0.12051662780622951 -0.3709120413551099
0.12697158023829114 -0.36875224448373356
0.13338785589701085 -0.36648012210650427
0.15768189779993216 -0.41077538765876875
0.16482690110300136 -0.4079608960093864
0.1601997626806022 -0.37740698991550053
0.17896412295335218 -0.40196000136274435
0.17327348731368675 -0.37158619268502646
0.17973217018352175 -0.3685055589826584
0.1861361048932142 -0.3653126749172308
0.20656748762579197 -0.38849694085792785
0.21331623290838833 -0.3848326711413341
0.22999999999999995 -0.3983716857408418
0.23691751445862497 -0.3942969583229716
0.24376286154727428 -0.39010212423195595
0.2233020043561611 -0.3438549328576238
0.2180852323535913 -0.32332465329646626
0.23516633890392888 -0.33585233815848664
0.27038121605453763 -0.3721478174124758
0.24674415949233977 -0.32744055911939
0.28320427864980285 -0.3624849466590921
0.2894873798829252 -0.3574871422702066
0.2956823004558081 -0.3523804438347299
0.3017871533356334 -0.34716640690247513
0.3078000789250748 -0.34184661971960134
0.31371924562874937 -0.3364227027448184
0.35427576893408863 -0.36686329817271207
0.3606244584051393 -0.36062445840513924
0.3668632981727121 -0.35427576893408863
0.5558288132305697 -0.5183187536474988
0.52763282608895 -0.4750827305147892
0.5735792809693068 -0.49860486203278553
0.5821937767704233 -0.48851858336176984
0.5906309307072979 -0.47828349719787644
0.5988881727411087 -0.4679027212475002
0.6868265386406718 -0.5175609199107615
0.6553037654437075 -0.4761060543569033
0.704470758088533 -0.4932757352618996
0.7129723123973358 -0.48090589698484226
0.7212566884330647 -0.4683895701129232
0.7717237675023477 -0.4822265304522165
0.7800222436389223 -0.4686846481681492
0.831384387633061 -0.48
0.8833659042107898 -0.4896577164488004
0.8917770687875163 -0.4741662784137497
0.94446691563967 -0.48122992972391965
0.9976613913920755 -0.48659197293587597
1.0513170329625139 -0.49023718361921126
1.1053900037475473 -0.4921513381217182
1.1138108726774527 -0.47278466547202114
0.9828148858407947 -0.39708298902086664
0.9709236435570898 -0.37270266752711234
0.9772803256173447 -0.35570094905869554
1.0968015476952075 -0.37765905917030174
1.1983312105318935 -0.3893614129124337
1.5396506571004873 -0.4707184446036061
1.6437575000545253 -0.4713398784470685
1.7483257455832137 -0.4684624716355624
1.8532648371871532 -0.46207082059536514
1.9584838302183227 -0.4521516192311683
2.1127988175850203 -0.4490892521663603
2.36572151210887 -0.45984967885747313
2.5211078477112525 -0.4445393348273417
2.7754042370723373 -0.43958084676304876
3.0302202903492055 -0.42586968893780014
5.717065833454015 -0.7019674180136491
5.728446117321254 -0.6020839484216834
5.688271726103867 -0.49765929108912754
5.706066367486195 -0.399007029816396
5.861955369009348 -0.30721206314608074
6.655942907947178 -0.2324306480386568
10.908338354156228 -0.1904057542307634
17.46 0.0
23.806373621673675 0.41554179727172097
23.945404215377536 0.8361919409919244
23.977095129457318 1.2565863093930831
23.752000036686415 1.6609016398476257
7.033134568527723 0.6153195437984675
6.7229680126895275 0.7066124116893384
13.905571584494922 1.7073895011061155
11.199931857467162 1.5740477718583399
6.758999921070597 1.4366697835507174
6.684178644426714 1.5431642327989146
5.734447742291139 1.429758402994037
5.66032534205394 1.5166796043007726
5.729119707792381 1.6427986406693147
5.843022058934148 1.7863911158559214
5.8109553145633885 1.8880938356309287
5.682566639351894 1.9566646082875117
5.694537281962604 2.0726420685535527
4.62254001567156 2.0580874139635497
3.918742041864368 1.9112982000003784
3.884788445461284 1.9793985788644242
3.7613567455790284 1.9999488574678954
3.900803893841705 2.1622509062986635
3.645966949932487 2.104999999999999
3.5229576058856815 2.116806487880323
3.019051222316877 1.8865125806702094
2.9437336934884377 1.9116830129027453
2.9928256369237007 2.018686381529396
2.9161812776688105 2.041932113409725
2.8396496502560655 2.0631262355465805
2.723347089261268 2.0521892289484853
2.6477161321185854 2.0686225570942116
2.533495834349725 2.0515844748224694
2.3823982181000214 1.9990694661251374
2.347146794492821 2.040343580160477
2.199708683413087 1.9806265948222206
2.164806956792745 2.0187151457849954
2.0932788189854743 2.0214558580356825
2.0223253941935257 2.0223253941935257
1.9867229395127317 2.0573118289685426
1.2344170317131222 1.3237501999306986
1.2111263975095337 1.3450921341140833
1.154663891023293 1.3282888611920787
1.0991668125639824 1.3099359977334524
1.0761378686952219 1.3289195940914202
1.0527811228068757 1.3474983886674945
1.0892851919052071 1.4455302731856003
1.0345020440347528 1.4238699100999075
1.009494527977841 1.4417075979486258
0.956219864934977 1.4176542490691213
0.9313327498756965 1.434126671186675
0.9061619418387804 1.4501622444274884
0.8549632043506901 1.4228977191655061
0.8299999999999997 1.4376021702821682
0.8047839696089196 1.4518687138513968
0.7793227942245784 1.4656930041458187
0.7536242295676477 1.4790708301526907
0.7057775463304143 1.447058414541659
0.6804154014025261 1.4591555371290066
0.6345091631982486 1.4251309139224573
0.23834598837845697 0.5615079606059886
0.18355723077379696 0.4543200887377258
0.17560029527719706 0.4574544089836288
0.16758987022957772 0.46044938418509507
0.1595283956840067 0.46330410204366523
0.16686917696247164 0.513570518799383
0.1432621353141409 0.4685893304218874
0.1350623043503296 0.47101823100977624
0.11388037984510922 0.42500736356719
0.10644563406385378 0.42693011956143845
0.11022601662849392 0.4774413317447653
0.09771849468434683 0.45972937234488864
0.09922067759580336 0.5104461353927853
0.0816146435034572 0.4628596439157378
0.08134592182092008 0.5135979371094717
0.06541135745123067 0.46542599230853804
0.05971597826852227 0.4863476143042478
0.13275114834992016 1.2630428071177071
0.11068779328952584 1.2651672665765168
0.0906834158673631 1.2968332653377714
0.06803674311582687 1.298218395180946
0.047114320548376463 1.3491776164757794
0.023037176497214058 1.3197989576064366
