# .PCD v0.7 - Point Cloud Data file format
VERSION 0.7
FIELDS x y
SIZE 4 4
TYPE F F
COUNT 1 1
WIDTH 178
HEIGHT 1
VIEWPOINT 0 0 0 1 0 0 0
POINTS 178
DATA ascii
9.307315673519885e-17 -1.52
0.02740027810653525 -1.5697608813955344
0.0547922098229267 -1.5690435984199804
0.08216745130142203 -1.567848369564681
0.10951766377827697 -1.566175558907924
0.13683451611382327 -1.5640256760040405
0.16410968733021594 -1.5613993757281892
0.19133486914608155 -1.5582974580768756
0.2185017685073028 -1.5547208679242654
0.24560211011316258 -1.5506706947343663
0.27262763893708075 -1.5461481722291666
0.2995701227411755 -1.5411546780128325
0.32642135458388233 -1.5356917331520747
0.36442070803706156 -1.5784795049520812
0.39191347087146167 -1.5718790765671145
0.4192868530660836 -1.5647998385882909
0.4465325164235387 -1.5572439474200768
0.4736421616508336 -1.5492137046601175
0.49442719099991594 -1.5216904260722457
0.5274204102205939 -1.5317400924708933
0.5711736393538669 -1.569286676712467
0.5984744757406516 -1.5590793122503268
0.6068626813337777 -1.5020378443981957
0.6525209845770871 -1.5372431052655753
0.6792501939365866 -1.5256209142631432
0.705772497106968 -1.5135340043512053
0.7539983724772132 -1.545925759634567
0.7808636595520206 -1.5325312216039928
0.8309646661310268 -1.5628172393603006
0.8338725468236998 -1.5043458962797607
0.8699999999999998 -1.5068842025849234
0.8961662503434944 -1.4914711032216752
0.9485554829774367 -1.5180060921200025
1.00213582442765 -1.54315384501958
1.0289149423861743 -1.5254291335012766
1.0267018210683725 -1.4662821592772954
1.0815248642181505 -1.4885912696499033
1.137430393757371 -1.5094211139893834
1.1636001883654943 -1.4893403243167043
1.2208815586366846 -1.5076631652265235
1.2470079627918864 -1.4861262196508174
1.272754516241584 -1.4641365856321777
1.3315699066541278 -1.4788582027000146
1.370816703725622 -1.4700209402545323
1.4309962431455343 -1.4818399886976212
1.4778531726798843 -1.477853172679884
1.5393871727247137 -1.4865689127822541
1.6016646065459834 -1.4935764085368717
1.6274871677954936 -1.4653960279258993
1.728284938710148 -1.5023751763882618
1.7542417747424597 -1.4719836261821748
1.818521549809312 -1.4726097150566193
1.8833457011200656 -1.4714309260283231
1.9886024200177592 -1.4985194076486004
2.014452315993619 -1.4635852782082583
2.080646192494039 -1.456884148331657
2.147207312917558 -1.448309619989234
2.230863710734828 -1.448739833139972
2.3406127453917356 -1.4625771692836453
2.4086401149729357 -1.4472569904972519
2.4768326548234945 -1.43
2.5888743331326114 -1.4350364759291576
2.65767225450537 -1.4131094039855312
2.8155806164352426 -1.434609979176968
2.885128888620326 -1.4071713811929385
3.0451941644431435 -1.4199973594487498
3.1608672834433995 -1.4073087850422685
3.0928963076001996 -1.3128565917239594
3.1153377513444056 -1.2586781538774638
3.1368302330305977 -1.204116310472209
3.3453057299978335 -1.2175917102393807
3.5078739154734655 -1.2078578530360513
9.567628553929245 -3.108710963411971
9.763871558382593 -2.9851151052191423
9.910608085124068 -2.841821138473261
10.0552878516692 -2.6943062595172402
10.197808083160723 -2.5425991227525064
10.338066387371345 -2.386730686588406
10.475960803859058 -2.226734208658203
10.611389853069248 -2.06264524002045
10.74425258536319 -1.8945016183462102
10.775679795892954 -1.7067000135889188
10.853338033407612 -1.525337186522317
10.977560437153024 -1.3478749380609307
10.999412162773103 -1.1560848037402465
11.067723095799293 -0.9683003019264811
11.13281480089964 -0.778482246984437
14.440183072551138 -0.7567779272729689
27.81 0.0
28.305688249877434 0.49407762623949686
28.24278477155965 0.9862597768126788
28.171339175426528 1.4763973256134475
28.141281857829643 1.9678301243217775
25.41292674832043 2.223342997492763
17.961065430351013 1.887784046613824
11.225696975063354 1.3783422739122175
10.90285143684469 1.53229584157032
10.923833046982224 1.7301651833449534
10.84273336066441 1.9118664361129032
10.709552571414013 2.0817261395581044
10.573775563932438 2.2475253777399793
6.8790526573837605 1.5881544436676873
6.850287827508534 1.7079685829336548
7.060917790173088 1.8919672196994277
3.4701547223373312 0.9950508544993667
3.1653687422376477 0.9677503426322586
3.005338591492685 0.9764937022248338
2.9878386988938415 1.0287953680846151
2.9976194603070474 1.0910442572088834
3.0434721903808777 1.168279515517679
2.8835417877027085 1.1650265055234867
2.770719608891845 1.1761006967527143
2.5670627359757083 1.1429299670429989
2.4560941028693213 1.1452954893172953
2.3009127585258673 1.1222301357800386
2.191876049503385 1.1168166293592852
2.1279036987900137 1.1314264663139972
2.0203715234920043 1.1199102227690387
1.9139161423636095 1.1049999999999995
1.8343380235025202 1.1021814803075163
1.7724205209669304 1.107531262247398
1.710887958608665 1.1110636314306555
1.6497847693845331 1.112793877906786
1.5891549659206439 1.1127382865210298
1.4885912696499033 1.0815248642181505
1.4694893384870187 1.1073396425997692
1.4105392489560322 1.1020340408329283
1.3522339729351296 1.0950174804267168
1.294615108871073 1.0863110603702515
1.237723711565346 1.0759368075444318
1.1816002725090566 1.0639176641105847
1.1262847004935228 1.0502774744962478
1.1437502825384551 1.1045068090298058
1.0889444430272832 1.0889444430272832
1.0350409719839058 1.0718163025045904
0.9820776384899977 1.0531493303316055
0.930091542838813 1.0329713074135778
0.9119220502968051 1.049046316509653
0.861335396979963 1.0264995537794306
0.8432893240067821 1.041375588352341
0.8249863769363823 1.0559344098330075
0.7763413798661422 1.030239807961008
0.7582429754572904 1.0436319227436823
0.7399136028928492 1.0567061371327995
0.7213588454772634 1.0694584685960038
0.6753524034186337 1.0399515042523257
0.6306039244375138 1.009177234426147
0.6128953091429645 1.0200290878355136
0.5949999999999999 1.030570230503482
0.5769234480931411 1.0407974514958809
0.5586711597152099 1.050707635502123
0.5175491697030834 1.0157474375747393
0.499743107339548 1.0246252127810502
0.4817848183843973 1.0331908772217808
0.4636797731064124 1.0414418217125647
0.42589693005330836 1.0033502902631601
0.4083211868233443 1.0106304014777983
0.3906210650043772 1.01760266488195
0.372801956224979 1.0242649566566402
0.3385908806354428 0.9833393186232896
0.3306481839811938 1.0176304724358143
0.304066572911646 0.994556946201557
0.2866628500496791 0.9997121637758517
0.2691718069066218 1.004562859340631
0.2515987714236544 1.0091075553270363
0.23394909651761975 1.0133448673766448
0.20583257390958165 0.9683661247264677
0.19844135519160672 1.0208922707855705
0.17191169589026092 0.9749596754820861
0.15956315434103555 1.0074421074070405
0.13778136995046458 0.9803653880541546
0.1304001974435078 1.0620243822562145
0.10661903253300675 1.0144123332756387
0.0888988576026113 1.0161185920535805
0.07115160321900797 1.0175153312650207
0.05338267536780262 1.0186021254496653
0.0355974866365511 1.0193786435594776
0.017801454566029044 1.0198446490595192
