# .PCD v0.7 - Point Cloud Data file format
VERSION 0.7
FIELDS x y
SIZE 4 4
TYPE F F
COUNT 1 1
WIDTH 180
HEIGHT 1
VIEWPOINT 0 0 0 1 0 0 0
POINTS 180
DATA ascii
2.094146026541974e-16 -3.42
0.1013984814006177 -5.809115108858633
0.44357260308878876 -12.702257411412708
0.7567779272729698 -14.440183072551138
1.019142081401673 -14.57441077429603
1.2777031886806682 -14.60421427402499
2.1543316279463376 -20.49709626354011
2.7981201245821863 -22.788859641684752
2.882274920882956 -20.508451703637924
3.2397577709831826 -20.455025533725305
3.596253759482129 -20.39536856488283
3.9611947440170727 -20.378580328373506
2.590579667589283 -12.187719105143218
1.6668873126880408 -7.2200821800585935
0.8564035104228236 -3.4348468710170277
0.9084548483098478 -3.3903996502746296
1.1466514001987165 -3.998848655103407
1.1870291211743111 -3.8825973092099235
1.7490361881622025 -5.382979882230569
1.8589941619503652 -5.398911066672098
1.9358340112232857 -5.318660233648242
2.1179545818127252 -5.517460320598462
2.5698012308331575 -6.360481242328161
2.6413424285874902 -6.2226128093384965
1.4073087850422692 -3.1608672834433986
1.4411282725357852 -3.0905095537949765
1.4948456105507542 -3.064887697880159
1.5708071290988321 -3.082882573691753
1.6243716072391823 -3.054998671291887
1.750162729089277 -3.1573771427732185
1.7049999999999996 -2.9531466269049362
1.7562798354432851 -2.9229404953942026
1.833520654246889 -2.934246412701234
1.8844510611519938 -2.9018001650911667
1.9627670911823216 -2.909921879668196
2.041932113409724 -2.916181277668811
1.0638913066493765 -1.464320759818655
1.0772488914421665 -1.4295575629846542
1.0835641965731588 -1.3868989263478306
1.1076038882477137 -1.3677768921642688
1.0991668125639822 -1.3099359977334524
1.089057988124242 -1.2528179031698015
1.1107568065557045 -1.2336204102924744
1.0502774744962478 -1.1262847004935224
1.0836670579160357 -1.1221700885282957
1.067731239591687 -1.0677312395916867
1.0502361084944307 -1.0142012208701359
1.067776404363989 -0.9957176056912478
1.0478342039231259 -0.9434741549659899
1.0113108374985145 -0.8791190988472798
1.04182044264181 -0.8741911491736934
1.0569185075814804 -0.8558757318277789
1.0322940872248059 -0.8065165326766123
1.0462125181619537 -0.7883776803291833
1.0193614129124338 -0.7406094178885162
1.0321315758041296 -0.722706309802318
1.0445873414193525 -0.704583058373141
1.0567249156112344 -0.686245184118934
0.9837357915414542 -0.6147063465105176
0.9514557037793447 -0.5716922631501601
0.961288198200727 -0.555
0.9270968895677595 -0.5138981974611173
0.9800718280734091 -0.5211134346923388
0.9890172418490885 -0.503929454710897
1.0426010937070338 -0.5085105302753298
1.0060016436106816 -0.46910627053217635
0.9683581851011571 -0.43114084166034816
1.021760387332209 -0.4337115526230938
1.0291740785691341 -0.41581331869166227
0.9895952520870339 -0.3798700265180184
0.9960741780330629 -0.3625413519252089
1.002249690135276 -0.34510224372458614
0.9605670814581051 -0.3121071643186969
0.9658678035226659 -0.2952954217699641
0.9708743128977021 -0.2783937293751691
0.8789925019230522 -0.23552533104329382
0.9314838972249566 -0.2322450197756809
0.9353952621938258 -0.21595301217011026
0.9879290767411436 -0.209990807725937
0.9423620961097574 -0.18317663556148306
0.9454154428917196 -0.16670225056025315
0.9481808069713322 -0.15017708643862163
0.9506573459919075 -0.1336061769216628
0.9032169979936031 -0.11090110249868416
0.9050149247851287 -0.09512090157356459
0.9065371752634884 -0.07931172590036885
0.8579050832234489 -0.059990567419947655
0.9087528766266623 -0.047625720181078954
0.8894578360469952 -0.031060552065225906
0.8898644486891882 -0.015532641729182348
0.89 0.0
0.8898644486891882 0.015532641729182348
0.8394882946960404 0.029315577230100854
0.918739171974208 0.04814907974350839
0.8678807237260471 0.0606881321573891
0.916499122244406 0.08018328332784563
0.8652340489703978 0.09093976304285864
0.8635151519279503 0.10602632876247826
0.9110466232422447 0.12803925288326018
0.8592888563177699 0.13609798458500086
0.8764789001808652 0.15454687812356802
0.8736481932684209 0.16982000588512494
0.870551364653087 0.18504140482780587
0.8671893576588594 0.20020643836603993
0.8635631963856368 0.21531048708370437
0.8596739853972707 0.2303489501412436
0.8266850585069543 0.23704812600261924
0.8224220901282105 0.25143966606155355
0.8654614298285898 0.2812054648812021
0.8604219037953783 0.2962670205560126
0.8363264324994584 0.3043979275598452
0.8028791667875935 0.3081964366089583
0.797378114927437 0.32216167033768445
0.7916341739690986 0.3360287705007755
0.7856490935726367 0.34979351304518824
0.8247400862033515 0.38458261818403644
0.817902582132242 0.3989177435780606
0.8108159370114149 0.4131313547629876
0.8034823095016235 0.4272191221351608
0.7959039334968502 0.44117675442416676
0.7880831174438393 0.45499999999999985
0.7800222436389221 0.4686846481681494
0.7971652103870405 0.49812410837921256
0.805123745227607 0.5228534736144261
0.8373279482805922 0.5647848325054543
0.9092587691607809 0.6366698443496615
0.8575580140374444 0.6230523674300216
0.886485416152495 0.6680146756987739
0.8746919365034614 0.6833842376114808
0.8626320172172379 0.6985456340653194
0.8503093318620657 0.7134942467520587
0.8754631130584155 0.7610284736289883
0.8992052388276469 0.8096480336942186
0.8483702938782378 0.7911180976724982
0.834434168392835 0.8058037097324369
0.8414570696119916 0.8414570696119914
0.8405366282553866 0.8704011584097681
0.8593179336787481 0.9215056640401548
0.8431045640121615 0.9363624801015166
0.8266343765280392 0.9509340710806927
0.8099123882050397 0.9652159983299123
0.824409712275287 1.0180612095086319
0.8372996064428955 1.0716946249051418
0.7883776803291831 1.0462125181619537
0.7699986805031398 1.0598122626311812
0.7800639534374225 1.1140467802330292
0.8164216390672903 1.210394855930361
0.7951729911219397 1.224459029200319
0.8001780889921394 1.2805526251962032
0.777707493114182 1.2943226240601895
0.7799999999999998 1.3509996299037244
0.7563030075842859 1.3644067431374574
0.7464597848295662 1.403886672645694
0.7082251795936931 1.389970177733854
0.7496146610093221 1.5369378191715757
0.7649390537506661 1.6404170945363363
0.7565301561209887 1.6991945512152375
0.7072233425655855 1.6661137847489171
0.7154985934243923 1.7709211622225638
0.7203195785860532 1.8764966572593753
0.7216625024171611 1.9827514298582665
0.6869488059046003 1.9950441945145585
0.6829275575686339 2.1018349010122894
0.6607600526733846 2.16124874847646
0.650504159728118 2.2685776024144326
0.6237538986970755 2.3278812413566543
0.9338185170147172 3.745341503425346
0.8683110697673194 3.761068450071008
0.7921435420156627 3.7267423587957995
0.7365227221534634 3.7890809281079827
0.7223764190944297 4.096800252530786
0.6820542675754069 4.3063211649948006
0.648546650473904 4.614649200335718
0.6044719432895316 4.923028912140957
0.5602725631146237 5.330637359173945
0.5020170782265109 5.738081461008454
0.4401633493254316 6.29462915713949
0.38780943576021315 7.399844852531392
0.26558516990603326 7.605364193615319
0.06736628884791383 3.8594121033036703
