# .PCD v0.7 - Point Cloud Data file format
VERSION 0.7
FIELDS x y
SIZE 4 4
TYPE F F
COUNT 1 1
WIDTH 180
HEIGHT 1
VIEWPOINT 0 0 0 1 0 0 0
POINTS 180
DATA ascii
4.4087284769304716e-17 -0.72
0.013438352956708371 -0.7698827252704213
0.025825627559850798 -0.7395492119941308
0.04029868630706686 -0.7689447417610219
0.04813196688344656 -0.6883191946792786
0.06710992191569677 -0.7670699175306441
0.07212463965468088 -0.6862201078041085
0.09018331411980914 -0.7344841522145783
0.10298809471044844 -0.7327983708687621
0.11576150412977088 -0.7308893720404019
0.11981724259018198 -0.6795173495784235
0.131658206809816 -0.6773227565788881
0.153854651205142 -0.7238292245430161
0.1664637802144602 -0.7210338479410741
0.17902220274375408 -0.7180188374442373
0.19152609337586535 -0.7147851114539105
0.20397164330457937 -0.711333654994356
0.2163550614948252 -0.7076655194126462
0.22867257583746112 -0.7037818220584136
0.240920434298296 -0.6996837459434944
0.25309490606099494 -0.6953725393815722
0.28311068014078733 -0.7375285369327894
0.29593920879857066 -0.732475245107762
0.30867759150652624 -0.7271988342274279
0.3213219480298823 -0.7217009115376546
0.33386842677515255 -0.7159831517589534
0.34631320596337123 -0.7100472965763419
0.35865249479424205 -0.7038951541088107
0.3708825346008538 -0.6975285983585523
0.40724008100692316 -0.7346805539970924
0.4199999999999999 -0.7274613391789285
0.43263198292444555 -0.7200205325897743
0.4451321819558921 -0.7123604007713977
0.46838957011292326 -0.7212566884330646
0.4809058969848423 -0.7129723123973358
0.48180420653487865 -0.6880877172027531
0.5113731694944517 -0.7038447851062043
0.5356153706053229 -0.7107856039420907
0.5787217868061189 -0.7407301083903185
0.5600951480343553 -0.6916599056967041
0.6042203531053469 -0.7200817765318392
0.6166954872510768 -0.7094270054094056
0.6289827699773267 -0.6985561359487505
0.6751783764618736 -0.7240401646029786
0.6877117867544073 -0.7121464023352646
0.7353910524340095 -0.7353910524340094
0.7481133923521973 -0.7224447052773572
0.797175534764896 -0.7433782124681234
0.81002785977036 -0.7293523609311554
0.86036892145396 -0.7479072930491782
0.9115928873115838 -0.7649172555269816
0.8859463960609467 -0.7174252457968145
0.9377327967919992 -0.7326371556375332
0.9503762569562785 -0.7161598775509374
1.0436319227436823 -0.7582429754572904
1.0567061371327995 -0.7399136028928495
1.110910347223756 -0.7493184906508007
1.1238185610468683 -0.7298163069201362
1.1787868536574322 -0.7365877772841548
1.2343209130110417 -0.7416548278704778
1.2903778516388136 -0.745
1.3469143489946696 -0.7466068151793591
1.403886672645694 -0.7464597848295664
1.4612506996689232 -0.7445444195728567
1.5639016405605506 -0.7627657954129947
1.6222909387956035 -0.7564866885158519
1.7266009149445158 -0.7687322554132623
1.804189512766783 -0.7658330118389763
1.8636395476792424 -0.7529592527659829
1.9698546999090956 -0.7561563735405836
2.0767206919368575 -0.755864516749728
2.184147909634422 -0.752062436796032
2.339599030086078 -0.7601818061623706
2.400324937467219 -0.7338529788540691
2.605019195992844 -0.7469772342640676
2.859140445815642 -0.7661043735034612
3.066134495032149 -0.7644731900949497
3.27388341767839 -0.7558355425953859
3.5800202186857284 -0.7609567883929994
3.9363250056251324 -0.7651440714599449
4.343002190783838 -0.7657884635111629
4.80016533529237 -0.760271500095522
5.505890462203131 -0.7738024413379636
6.3125935244388085 -0.7750890240567377
7.816942097594628 -0.8215937212837556
9.224762904329564 -0.8070621778433137
11.432084015977587 -0.7994091891076746
15.538675560781169 -0.8143474791402072
13.651678697080849 -0.47672712495616393
13.457949976805027 -0.2349093906458364
13.46 0.0
15.157691058570892 0.26457848158921843
13.501770073027984 0.47149220045078877
13.59134796800975 0.7122923644664665
13.377333913984243 0.9354343129087216
10.669245216562596 0.9334380048274203
9.308724940647037 0.9783864161852377
8.19843121255732 1.0066407765265177
7.040805968752566 0.9895207478260651
6.331082263214833 1.0027449209078798
5.721733045000928 1.0088959122448653
5.261521703279479 1.0227362152182806
4.851612099639675 1.0312419864560867
4.394408992181411 1.0145292550908316
4.327518939190944 1.0789716543745185
4.163140311305884 1.115510084391865
3.902722485509574 1.1190876646170163
3.4044449312284066 1.0408432688129428
3.1955498947517156 1.0382971010998232
3.0351146276738072 1.045073775807473
2.828474788565584 1.029480631410263
2.7167190411068574 1.042850733176824
2.559027438604333 1.0339141978279174
2.448542910183491 1.0393448017814686
2.3386763715650583 1.0412458062740488
2.229517156110159 1.0396409238821205
2.121153949266034 1.034555906422223
2.05822507087513 1.0487180543983532
1.9778026080039963 1.0516163006403958
1.889178567421095 1.047188779732088
1.8099930939094768 1.0449999999999995
1.7486212934323089 1.0506776728165108
1.687615711351288 1.0545393358240778
1.6270209018141224 1.0565997279291528
1.5668810121290289 1.0568745875597114
1.5072397614917448 1.0553806428859251
1.448140419931156 1.052135601603527
1.429557562984654 1.0772488914421667
1.33173817359536 1.0404678933003624
1.2745193767894323 1.032085441321733
1.2563128867151239 1.0541716798859244
1.1999882325542075 1.0431338560949064
1.144443031235187 1.030461133792642
1.1262847004935228 1.0502774744962478
1.1077832925215225 1.069773890506856
1.0182337649086284 1.0182337649086284
1.0003080534609559 1.0358493124876578
0.9820776384899977 1.0531493303316055
0.930091542838813 1.0329713074135778
0.9119220502968051 1.049046316509653
0.8934747774642898 1.0648017759353794
0.8118233044542903 1.0025182902794925
0.8372996064428955 1.0716946249051418
0.7883776803291831 1.0462125181619537
0.7993879431177635 1.1002631123499287
0.8087427752549747 1.1550043824474785
0.7884619938937529 1.1689429773026088
0.7679410393711883 1.1825255008030477
0.7471861625688189 1.1957478155805605
0.7262036856231765 1.2086058939899782
0.6799999999999999 1.1777945491468367
0.6351006025227016 1.1457518163526084
0.6384813253888113 1.2008087262881408
0.5947275546588064 1.167218546686762
0.5742662022936912 1.1774202006519088
0.5324990097932814 1.141947811666179
0.5328250024292985 1.196744549511807
0.49232122189648486 1.159836115350075
0.47200430770404933 1.168251656754152
0.4515436164270782 1.1763113373864742
0.4309453805903427 1.1840127021902445
0.4102158746160172 1.1913534052551393
0.37391056319368643 1.1507783847171358
0.3537697627145112 1.1571287547152729
0.333521200538569 1.1631266520853658
0.3261119968291764 1.2170665411242259
0.29272549367559786 1.1740578287939556
0.2721907757560768 1.1789877783901346
0.25157314588948865 1.1835585968879048
0.2213384346367921 1.13868753279929
0.20143188609363905 1.1423769934941614
0.18146397944666787 1.1457184750903597
0.16144079711367568 1.1487109597402216
0.14136843834997107 1.1513535359039335
0.12125301739047827 1.1536453986271968
0.09674287444990054 1.1057761148818377
0.079522380068303 1.1372230172961995
0.05966299011695586 1.138437669620214
0.03978542624085123 1.139305542801769
0.019546695209757384 1.1198294185751583
