# .PCD v0.7 - Point Cloud Data file format
VERSION 0.7
FIELDS x y
SIZE 4 4
TYPE F F
COUNT 1 1
WIDTH 180
HEIGHT 1
VIEWPOINT 0 0 0 1 0 0 0
POINTS 180
DATA ascii
3.8576374173141627e-17 -0.63
0.010122395733624487 -0.5799116631907069
0.02198668292257568 -0.6296162210220303
0.0303548546209075 -0.5792051301576527
0.04045875477159276 -0.578587149150698
0.054908117931024625 -0.6276026597977997
0.06585293185862168 -0.6265487940820121
0.0731216060430885 -0.5955276909847932
0.07654520552803601 -0.5446474378078637
0.09386067902413855 -0.5926130043570826
0.10418890660015824 -0.5908846518073247
0.10876112736463059 -0.5595274945651684
0.11850966376612287 -0.5575441324182692
0.1394696536931964 -0.6041094401668459
0.14999157527179396 -0.6015833502911178
0.16046780796356286 -0.5988740122992223
0.17089516060653948 -0.5959822514817578
0.1812704569280968 -0.592908948697082
0.20086104634371585 -0.6181867355918498
0.20185225576343718 -0.5862215168715764
0.22915349602819812 -0.6295940559265586
0.24010652619535128 -0.6254988857531252
0.2509864175886612 -0.6212131825597476
0.2617898560878134 -0.6167382518131351
0.2928503830145763 -0.6577527295026725
0.28315423536626866 -0.6072262173145555
0.2937086683486819 -0.6021920110204418
0.3268731598124737 -0.6415246974156249
0.3380195252058414 -0.6357222668584274
0.3490629265773627 -0.6297261891403649
0.3849999999999999 -0.6668395609140179
0.37082741393523905 -0.6171604565055208
0.4080378334595678 -0.652997034040448
0.41937205696157087 -0.6457763373179765
0.4305785356724751 -0.638358930867382
0.4416538559903055 -0.6307470741025237
0.45259464426520435 -0.6229430856687096
0.4633975678270772 -0.6149493427364154
0.474059336000757 -0.6067682802771759
0.4845767011083748 -0.5984023903218676
0.4949464594586353 -0.5898542212016131
0.5051654523226906 -0.5811263767715344
0.5821436275322066 -0.646535998165333
0.5592386552512488 -0.5997100353277196
0.6043527822993277 -0.6258256262946265
0.6505382386916237 -0.6505382386916236
0.6258256262946266 -0.6043527822993277
0.672845405489637 -0.6274384912574986
0.6836932394392028 -0.6156001578501495
0.7320682928160889 -0.636377258120792
0.7430631098254087 -0.6235039813959431
0.7926888806861103 -0.6419067988708341
0.8037709686788564 -0.6279747048321713
0.774676444745874 -0.5837605724574868
0.784746484543699 -0.570151694723699
0.8355350851747716 -0.585047965078067
0.8870702026338947 -0.5983364067136991
0.939311036098875 -0.6099957192168303
0.9498138676951973 -0.5935095759411896
0.960027376786366 -0.5768426438992605
1.013249722427793 -0.585
1.0670360427100627 -0.5914677367005312
1.077196063287891 -0.5727553065987868
1.1315782857192271 -0.5765679346692244
1.5459257596345672 -0.7539983724772131
2.6011033487951853 -1.2129144111958072
2.484843644787875 -1.1063236691661764
2.4577479587180155 -1.0432521130663606
2.475580891693322 -1.0001996044204848
2.4926597387475287 -0.9568424252859519
2.4619946664590797 -0.8960927755132522
2.4772586680702102 -0.8529885646777506
2.4917680726933025 -0.8096245252623622
2.457703222825001 -0.7513952811374333
2.499280409439629 -0.7166571251241977
2.511407148351578 -0.6729295172665538
2.474254102003791 -0.6169008337791524
2.4066940600195315 -0.5556291042293463
2.4649319538491903 -0.5239374608607537
2.7191072981500293 -0.5285409171930293
3.0233598017474783 -0.5330999054374762
3.3778941248353713 -0.5350058704375895
3.8323374260298775 -0.5385999007154532
4.238172067508445 -0.5203820963399794
4.395786777527768 -0.46201580764302796
4.403180565565515 -0.3852283829446487
4.4092331021484235 -0.3083236139490333
4.413942543615216 -0.23132492659381204
4.417307455424403 -0.1542557754250545
4.419326812591249 -0.07713963645279323
4.37 0.0
4.769273505895986 0.08324797870584245
10.563561041591843 0.36888768014543577
11.454280763634962 0.6002934181065667
11.541816061506166 0.8070824012195309
12.870835499345352 1.1260521962997452
10.561822528811062 1.1100922799024813
10.54084013043084 1.2942524269626656
10.516646890035476 1.4780183321958946
10.53863459415012 1.6691557419792633
10.50789872464026 1.852826055706147
10.473962047386575 2.035931980667734
9.311965158985828 1.9793192965850694
2.357975556780269 0.5443815515121535
2.299600871274112 0.5733548925712129
2.289244208305092 0.6134011368929746
2.4704425585614795 0.7083880044496876
2.457703222825001 0.7513952811374333
2.4917680726933025 0.8096245252623622
2.855466098309937 0.9832158264606132
2.9788256078913293 1.08420385434237
3.0994870159707095 1.189781592490397
3.124609589890073 1.262424219811624
3.6083790255335657 1.5316660236779536
3.3983891024304755 1.5130603122419772
3.2808341890726727 1.529878107501332
3.1188153406581094 1.5211478793580993
2.9581416603053814 1.5072484591352953
2.887238628648691 1.5351720103098634
2.7725444716318846 1.5368464961808885
2.6586979896182266 1.5349999999999995
2.588645248120379 1.555414986228364
2.3914956311611215 1.4943723251376377
2.2811839448115534 1.4814181752408742
2.1720784400942095 1.4650854070933566
2.1461783560371583 1.5027702632397413
2.0791736755436148 1.5106080983916559
2.0125614853191776 1.5165738583431623
1.9463865614086033 1.5206838440543762
1.8418359286530215 1.4914893267881144
1.815525330191978 1.5234066349570983
1.750926226116831 1.5220569472579766
1.6869387538336846 1.5189264764346084
1.6236052175945588 1.5140363593387467
1.52500037671794 1.4726757453730746
1.499066376115481 1.4990663761154808
1.472675745373074 1.5250003767179408
1.377636687326247 1.4773344772707244
1.3516438248448939 1.5011525474643361
1.3252392385608247 1.5245133520499994
1.2662915910824828 1.5091075529443867
1.2397611703681797 1.5309775440702327
1.212853106391547 1.5523811846052422
1.1554848444519323 1.5333801792908024
1.0991584217869248 1.5128617794811519
1.072587935976456 1.5318143228204149
1.0177310843167593 1.508848382050176
0.9531183112762975 1.467673493904492
0.9379570976927727 1.501045130196874
0.9116173925907961 1.5171861222427387
0.8599999999999998 1.4895636945092345
0.8338725468236998 1.5043458962797607
0.8074910879917319 1.5186698597173545
0.7581641345650432 1.4879808953945743
0.732079815137759 1.500986057319609
0.6846415840199331 1.468218614999373
0.6711154610750706 1.5073500051102913
0.6329844281526235 1.4912178625929535
0.5881323516629822 1.455678651669856
0.5626376807861213 1.4657212696006068
0.5369716250213 1.4753174146338761
0.5111420024977358 1.4844641636909275
0.4851566811686675 1.493158730583391
0.4590235764146964 1.5013984668619658
0.4327506486326887 1.5091808626231606
0.39340494855583186 1.4682072559593837
0.3677212813114949 1.4748495039395146
0.37566826075425475 1.6271980081913429
0.3887948618292098 1.8291360133722168
0.36635327112296623 1.8847241922195148
0.3594517277705455 2.0385520487352706
0.7149055052338553 4.51373571651978
0.6360210713874982 4.525525074148977
0.5508494321912666 4.486308605418775
0.4724686539697946 4.495238967064595
0.3939439572194147 4.5028000353746895
0.32227490869785963 4.608745912200388
0.24440891565454728 4.66359992730386
0.16298064960068004 4.667155162179177
0.08237535838397753 4.719281121138167
