# .PCD v0.7 - Point Cloud Data file format
VERSION 0.7
FIELDS x y
SIZE 4 4
TYPE F F
COUNT 1 1
WIDTH 180
HEIGHT 1
VIEWPOINT 0 0 0 1 0 0 0
POINTS 180
DATA ascii
1.0838124172454077e-16 -1.77
0.030890759393991968 -1.7697304204268125
0.06177210916342691 -1.7689217638237995
0.09263464255001082 -1.7675742765155957
0.12346895852710206 -1.7656883689598888
0.14990787752597198 -1.7134548807178023
0.17978895682036394 -1.71057766003343
0.21570873782711106 -1.7568066884051399
0.24633638869931587 -1.7527744816725797
0.27688900312120873 -1.7482083628533938
0.30735727447046685 -1.7431097228316081
0.3377319218164845 -1.7374801147023653
0.3680036927474342 -1.7313212532988358
0.4094109189058346 -1.7733535179091282
0.4282017552114118 -1.7174234355085138
0.5228144711070919 -1.951170169103918
0.5485183380758283 -1.9129107749172547
0.5818196923982462 -1.9030464643664404
0.6149438188061455 -1.8926024674273556
0.647880627369742 -1.8815819654426402
0.6806200852180809 -1.8699883153639576
0.7203195785860537 -1.8764966572593753
0.7529592527659834 -1.8636395476792422
0.7970915021181184 -1.8778299010429784
0.8094059197208427 -1.8179554607087756
0.9508910889165737 -2.0391925208324624
0.9951025032112059 -2.040262485099109
1.0532579593957487 -2.067135136117013
1.0891740256632667 -2.0484384154327104
1.124758318971502 -2.029117720563398
1.1599999999999997 -2.0091789367798976
1.2206402375368286 -2.031486502664006
1.2559086562326958 -2.0098739878907295
0.6862451841189341 -1.0567249156112342
0.6933992003037261 -1.0280065899682516
0.6825559592577448 -0.9747909327039002
0.7288537128426666 -1.0031810730249349
0.7281961780139784 -0.9663489671572243
0.7757334589103296 -0.9928935495444696
0.9188077709327626 -1.1346331037271775
0.9706092906266744 -1.1567271091096567
1.7123140656652238 -1.9697920043814348
1.779887412914563 -1.9767652357698688
1.8482155557693711 -1.9819685313879516
1.9172571024668323 -1.9853778489346767
1.9869700551341987 -1.9869700551341984
2.064505226971929 -1.9936695232173223
2.0770445125984445 -1.9368753425774956
2.051079718317608 -1.8468004735504482
2.120733920425989 -1.8435258714633256
2.152584885164328 -1.8062331832191754
2.2070945305377974 -1.7872699105815382
2.2931112929955613 -1.7915748931976654
2.3639611097399866 -1.781372468530063
2.418960813181093 -1.7574779043544948
2.4492646124240856 -1.7149935446896278
2.4373704633118227 -1.6440271362039955
2.230863710734828 -1.448739833139972
2.238846973852965 -1.398986857575661
2.322923384902724 -1.3957531830062464
2.7799415461480477 -1.605
2.326488420990793 -1.2895935898552566
2.304493217361799 -1.2253207788711749
2.370077354341059 -1.2076147293071946
3.1997068048250346 -1.5606012825691156
3.3624018899059713 -1.5679137510579948
3.48060819361831 -1.5496666101187986
3.645199219671664 -1.5472952688175237
3.8107256422694964 -1.539633098939398
3.9770526168780793 -1.5266474650629793
4.1440444576658555 -1.5083088320661993
4.358840633512851 -1.5008691920474926
4.574581843379688 -1.4863717429434968
4.8389020651729595 -1.4794008258970477
8.420652456419674 -2.4145832369569122
8.461510238292238 -2.2672548350980812
8.45127577586393 -2.1071397106731053
8.4867632642794 -1.9593236833350631
8.421850842318065 -1.7901196579409082
8.402728690312005 -1.633325000423224
8.33147359048328 -1.469063583062231
8.355843361434866 -1.3234355742403532
8.773775089050313 -1.2330736745061794
9.538368517273105 -1.1711643901234667
10.55187730985738 -1.1090469952698023
11.565820444845166 -1.0118781733003102
13.17782110393228 -0.9214830181598936
14.989429316666152 -0.7855627032065879
22.696165681603667 -0.7925675701137982
22.856518311275103 -0.39896201115630164
26.36 0.0
39.4539900508712 0.6886719580152083
40.28544423713975 1.406798712077816
39.9551676855305 2.0939616092801856
39.912537650895565 2.790956514502457
22.82282053328189 1.9967380663488514
14.828321459940955 1.5585193873207153
12.168615819122609 1.4941181501471075
9.962096771540198 1.400081395658258
8.257074527375352 1.30779212773633
6.952742736266188 1.2259561343285283
6.095904809209993 1.1849238612883435
5.389593280043268 1.1455934164058543
4.881594024574029 1.127004782262764
4.376033725504744 1.091067749154502
3.998932920836742 1.0715108467244365
3.950785570306491 1.1328695324078664
3.739151595815469 1.1431733654659006
3.147997068936958 1.0228462513810759
2.8932868413339095 0.9962385526388995
2.6875208954476975 0.9781776099114127
2.530002955807417 0.9711771432677638
2.3735906676909755 0.9589928791447351
2.264441939493003 0.9611985760836137
2.155967280036538 0.9598984776588887
2.048255598702829 0.9551172715339805
1.8964554376912421 0.9249631197249536
1.835473439828038 0.9352204294634664
1.7305772820034966 0.9201642630603463
1.6967622318504276 0.9405306632778939
1.5934867429633672 0.9199999999999997
1.534329468256781 0.9219181540889971
1.4756036873121814 0.9220595197657765
1.4173532598277665 0.920439969175396
1.3596216189902683 0.9170763616920247
1.3024517504194968 0.9119865337981636
1.2458861713374192 0.9051892885304087
1.1899669099704662 0.8967043844965522
1.1347354851936795 0.886552524468948
1.1190901844980383 0.9062213631117656
1.0648017759353794 0.8934747774642896
1.0113108374985145 0.8791190988472797
0.9586568248658385 0.8631784822029273
0.94344627508873 0.8797778844806231
0.8919813524199272 0.8613763793691567
0.8768124086713189 0.8768124086713188
0.8266434608462065 0.856014362402995
0.8115780484743732 0.8703109049268128
0.7962654215670414 0.8843423423180989
0.7479072930491782 0.86036892145396
0.7327778750426549 0.8732906651556349
0.6859592262443228 0.8470890979880984
0.6710710081049677 0.8589317214313269
0.6559783752357325 0.8705127059515494
0.6112966623841721 0.8413776741499454
0.5965194938050878 0.8519181260605516
0.5536009744360393 0.8207471968294913
0.5391926446648769 0.8302838622659697
0.5246200715908729 0.8395676151948617
0.5356395979064564 0.8914539927301968
0.46999999999999986 0.8140638795573724
0.47996152404387377 0.8658735100680017
0.46477684715803175 0.8741181169303377
0.426751069755174 0.8375461327370658
0.3901503206422787 0.7999267012062586
0.39726116603625744 0.8519293198144509
0.3823324444912523 0.8587327301840446
0.34775070435545363 0.819249319572672
0.33339986814016187 0.8251936305644407
0.3189474750953171 0.8308865795825096
0.30439792755984524 0.8363264324994584
0.2897556574668693 0.841511532283392
0.27502512499370324 0.8464402995026866
0.2602108172032355 0.8511112328071017
0.23153537888627929 0.8074598245881879
0.2174079978861176 0.8113776940828172
0.20321439230372085 0.815048410071837
0.18895888564884672 0.8184708544195975
0.17464582028691775 0.8216439846163968
0.1602795561162977 0.8245668340960377
0.14586446924022137 0.8272385125302548
0.12358322738178244 0.7802737890701589
0.10994674975845155 0.7823117743058406
0.10237024846032389 0.8337387673787104
0.08257748598144642 0.7856722973409359
0.06885303677064994 0.786993811492479
0.05720030847018287 0.8180025212130558
0.042915484119213865 0.8188762184987505
0.028617587296050885 0.8195004781556585
0.014310973278572368 0.8198751100282408
