# .PCD v0.7 - Point Cloud Data file format
VERSION 0.7
FIELDS x y
SIZE 4 4
TYPE F F
COUNT 1 1
WIDTH 180
HEIGHT 1
VIEWPOINT 0 0 0 1 0 0 0
POINTS 180
DATA ascii
4.898587196589413e-17 -0.8
0.014485497342945386 -0.8298735869798047
0.028966582263075896 -0.8294943864258495
0.03925196718220798 -0.7489721510659304
0.05580517899530037 -0.7980512402078594
0.07233926648055625 -0.8268415994161488
0.0815322013487697 -0.7757270783872532
0.09505808785601505 -0.7741859982802312
0.1043798257200491 -0.7427010515561778
0.12514757203218474 -0.7901506724761103
0.13544557858020573 -0.7681500473495223
0.14310674653240868 -0.736220387585748
0.1559337681133196 -0.7336107005503542
0.1799608434750921 -0.7794960518281883
0.19353751647973416 -0.7762365810207972
0.2070552360820166 -0.7727406610312547
0.22050988465359933 -0.7690093567506552
0.21927877854205258 -0.7172285669722765
0.24721359549995797 -0.7608452130361228
0.2604545235657254 -0.7564148604794534
0.2736161146605351 -0.7517540966287267
0.2866943596362403 -0.7468643411977615
0.29968527473272977 -0.7417470836534299
0.312584902791419 -0.7364038827619523
0.32538931446064034 -0.7308363661140806
0.3380946093925596 -0.72504622962932
0.3726154747707158 -0.7639749393542918
0.38589192477861484 -0.7573555455601126
0.3990508283680072 -0.7505054539300878
0.3878476961970697 -0.6996957657115166
0.4249999999999999 -0.7361215932167728
0.4377823636735461 -0.7285922055967954
0.45043137459822413 -0.720840881732962
0.4901751315135244 -0.7548035111508815
0.5032736131236722 -0.7461338152995375
0.5162187927159415 -0.7372368398600926
0.49961746444860217 -0.6876644452187053
0.5416335208368435 -0.7187719590425635
0.5540953277930926 -0.7092096782460497
0.5978543714973454 -0.7382886633841224
0.5785088487178854 -0.6894399988070802
0.6232560775409819 -0.7169741012116334
0.6022175457229725 -0.6688303429296548
0.6478984420593736 -0.6947860165382118
0.6599254519360473 -0.6833728103217185
0.6717514421272202 -0.67175144212722
0.7193398003386512 -0.6946583704589973
0.7313537016191706 -0.6819983600624985
0.7803020667512641 -0.7025871366768011
0.754709580222772 -0.6560590289905073
0.8043466652749269 -0.6749269901708662
0.8548605576026681 -0.6922524301548212
0.8668118289673943 -0.677227622858224
0.8784990610520221 -0.6619965254672532
0.9303695435311895 -0.675953040136344
0.9420248509323405 -0.6596129018037029
0.99484508706605 -0.6710314841648961
0.9644711531372376 -0.626334890267281
1.0176577153877113 -0.6359031170798458
1.0714591258776405 -0.6437975936375675
1.0825317547305482 -0.625
1.1370056192812146 -0.6302525063202382
1.1919792503595514 -0.6337866097609526
1.2028588076542968 -0.6128871746483883
1.2133719625038757 -0.5918010481652546
1.3141462912031423 -0.6127964795240141
1.3703181864639014 -0.6101049646137002
1.4267825228512827 -0.6056332491583742
1.4371349745785205 -0.5806402197946635
1.493728682395523 -0.5733887192724806
1.5504928242967486 -0.5643332364873535
1.6546575072988046 -0.5697442703000242
1.7119017293312764 -0.5562305898749054
1.8169790363297675 -0.5555062389731997
1.8263972222828058 -0.5237109760522983
1.9318516525781366 -0.5176380902050414
1.9599973670775128 -0.4886822291113286
2.1143830405839603 -0.48814378792618673
2.220395053665739 -0.47195953815631386
2.3264564247709636 -0.45221731904241136
2.4817155375907642 -0.4375934077206645
2.6371278693890177 -0.4176800216574164
2.7925559538512283 -0.39246814470738445
2.9478620703747267 -0.3619519499132879
3.1526344083174265 -0.3313552285584612
3.40698586747377 -0.2980726401969906
3.6610600644535554 -0.2560062586409394
3.9146277762379293 -0.2051569484723401
4.8670333275829964 -0.16996054894117996
4.869258275411625 -0.08499321934957083
5.47 0.0
6.868953665724408 0.11989803222413789
6.815845440270233 0.23801456751105696
6.810653427026194 0.35693122157687746
8.549123910726694 0.5978129799871547
11.874640801253607 1.0388964535520868
11.904427087558233 1.2512057053138137
19.77151934069514 2.427637320630537
17.795117195286018 2.500940624252375
17.798143897524383 2.81894906002496
20.109774316509288 3.545895787958718
11.210182434972323 2.179038727200142
9.40977991905921 2.0001104656668454
6.499048332117519 1.5004235324735802
5.6471211269263 1.407985432390067
4.704058774027763 1.260448749649277
4.6332813744226975 1.3285720550379359
4.657204161539983 1.423850201999728
4.631645234357398 1.504912762605994
4.6046754631686735 1.5855169122063533
4.6232876942666685 1.6827391051622904
4.593215698366232 1.7631703117628776
4.6081037571969325 1.861794769277083
5.909641159164666 2.5084938449011385
5.408189109244197 2.407880927008738
5.320026709905135 2.4807691964179055
3.0289359360281924 1.4773107646791914
2.869041007886545 1.4618494091613408
2.6665017304339593 1.4178041196133908
2.5538895448470353 1.4156440911193042
2.398890368482895 1.3849999999999996
2.2886366928746398 1.3751516600098448
2.1794836071220147 1.3618925090793366
2.029582774427926 1.3180264647363658
1.9896901741321 1.3420629683297922
2.00692250850803 1.4052622690600636
2.0225424859373686 1.469463130731183
2.3719474648404595 1.7873906187615842
2.3797924758923004 1.8592976554834881
2.385838101672901 1.9320136005230004
2.3517564403752624 1.9733579617376757
2.31695841128391 2.0141012190008567
2.3186118554894697 2.087687491839638
2.281823549051812 2.1278348833949954
2.316274157090456 2.2367999528779716
2.2768838354206835 2.276883835420683
2.271532871400921 2.3522411471073896
2.2642345554074947 2.428094289375646
2.2549701434293525 2.504398061858818
2.2437218791475346 2.58110676436188
2.230473005612292 2.6581742176228538
2.2466737960479195 2.774411082401386
2.1671283931463177 2.7737978526956613
2.1785703838104142 2.8910605463712007
2.1865611385280004 3.009543219074805
2.162383165043443 3.0882032069694993
2.2759151171259395 3.37418292029902
2.1894489207604093 3.3714556831406037
2.156771405429144 3.4515557513566537
2.070453061138418 3.4458125488224907
2.0099999999999993 3.4814221232134432
1.9004537113656415 3.4285092519864313
1.816854947981397 3.4170071843640475
1.7342437090050689 3.403644922399565
1.6307406660553674 3.3435138522329018
1.572139933675402 3.3714649677763378
1.4927234800881874 3.352711829548345
1.4339832415556346 3.378252812170456
1.3373455384948065 3.3100463608034305
1.2793735798767214 3.3328821225950103
1.2552139260052046 3.4486719182842833
1.22739194230348 3.5646050300094245
0.3399186938124422 1.0461621679246689
0.32160887519501025 1.051935231559339
0.3032010913986991 1.057387865532151
0.2847009496127731 1.062518408917975
0.25401799037965106 1.0188105125897964
0.24744615977825168 1.0718070712637588
0.2183072753586472 1.027054980770496
0.20988989491419943 1.0797899017924304
0.18233058655027673 1.0340481406628186
0.15643446504023092 0.9876883405951378
0.1433482939888672 1.0199761108038174
0.12796281057540487 1.0421734592233882
0.10975488643103637 1.044247990136687
0.0941282021674708 1.0758902739390852
0.0753369916436555 1.0773691742806102
0.05390603493023206 1.0285884207972111
0.035946481603576115 1.0293725518296686
0.017975978630401877 1.029843126011083
