# .PCD v0.7 - Point Cloud Data file format
VERSION 0.7
FIELDS x y
SIZE 4 4
TYPE F F
COUNT 1 1
WIDTH 176
HEIGHT 1
VIEWPOINT 0 0 0 1 0 0 0
POINTS 176
DATA ascii
9.368548013477252e-17 -1.53
0.026702181849043907 -1.5297669735892787
0.051651255119701596 -1.4790984239882616
0.07745721523955706 -1.4779717114367692
0.10323958114130567 -1.4763947943845397
0.12899049926653405 -1.4743681531757833
0.14947570247274444 -1.4221663103766307
0.17427316106936092 -1.4193409968470905
0.1990175343728936 -1.4160833383004456
0.2237012850075302 -1.412394327051047
0.2483168940637105 -1.4082750868074574
0.263316413619632 -1.3546455131577761
0.29731371786939603 -1.3987510690493419
0.31043245499453387 -1.3446306894036246
0.3338522159275414 -1.339008102260875
0.3571702822414786 -1.3329776402789142
0.3803795510274588 -1.32654114039488
0.4034729525173767 -1.3197005632289889
0.41099260251868014 -1.2649051666725544
0.4492840531508763 -1.304815634327057
0.47198779778942296 -1.2967758166845533
0.47662937289524954 -1.2416619672412783
0.4982267692431632 -1.2331545265738273
0.5196724008907341 -1.2242714550917457
0.5409597352908145 -1.215015458664659
0.5409513750280953 -1.160073967406912
0.5830336252294731 -1.1953960815778921
0.6038073646535974 -1.1850386771705295
0.6243971785052349 -1.1743202985023729
0.6447967949276284 -1.1632442104953964
0.6649999999999999 -1.1518137870333036
0.6850006396303722 -1.1400325099338093
0.7047926214301625 -1.1279039678880465
0.7243699165699861 -1.1154318553674138
16.786970962191823 -24.887707928102348
17.2187646192584 -24.590944369555533
17.67470253643467 -24.32714102085467
10.109161424847311 -12.939136574222376
9.106266058491148 -11.24530206228237
8.17625839521278 -9.7440853164734
7.492194111071593 -8.618783406144056
6.93888438794136 -7.706411840200578
1.0366375072949978 -1.1116576264611389
1.0558807230976759 -1.0933964965147496
1.0253048327204939 -1.0253048327204939
1.0790097005079768 -1.0419875556884959
1.1116576264611393 -1.0366375072949976
4.95677598593422 -4.463101144413583
4.694293588985642 -4.080687160320955
4.5349831032643495 -3.8053026493443123
1.33669105370599 -1.0824310726057202
1.3396182811314274 -1.046624508053619
1.3576803670803979 -1.0230855393584821
1.3753288904374106 -0.9992349288972043
1.408941516177066 -0.9865514705237992
1.3844927461669196 -0.9338521487961471
3.7069239103187743 -2.407304534766419
3.705970180203582 -2.3157471846991053
4.088688024349075 -2.4567316173209575
4.130941176051771 -2.385
4.259397973768857 -2.3610228505996615
4.730926648331312 -2.2060673262864507
4.768707288894377 -2.123165276855677
4.712984849676495 -2.000543377865081
4.654462949925272 -1.8805250989478777
4.6398947196910925 -1.7810887092401426
2.7908870837341477 -1.0157998256772363
2.7136383119700396 -0.9343806032920398
2.7105110714411875 -0.8806984339686001
2.6776533166964995 -0.8186407732236628
2.643469663830377 -0.7580027284967475
2.6079997309804845 -0.6988114217768059
2.5712836746313905 -0.6410930233391192
2.5333621684416117 -0.5848727412940486
2.494276381871204 -0.5301748115852865
2.503149317791543 -0.48656293821018937
2.46201938253052 -0.43412044416732587
2.3704520174283306 -0.37544271609655405
2.3766433649797687 -0.334015442304157
2.332483456357107 -0.2863929570020965
2.2874003593470285 -0.24041546551560278
2.2912478056110146 -0.20045820831961353
2.2445191130846047 -0.15695206592428165
2.246916453197791 -0.11775590154662378
2.29859890214392 -0.08026884241575233
2.399634468375339 -0.04188577544948049
2.45 0.0
2.499619237890978 0.04363101609320884
2.618403966790031 0.09143668136055268
2.6164093810569837 0.13712020535651304
2.713374216706722 0.1897376085840211
2.8092690486187224 0.24577919454839636
2.953730029243772 0.31044953590493124
3.0471166855388585 0.3741388842538026
3.1391497779107778 0.44117873004340735
3.08158762265683 0.4880755309255203
2.9741194140968683 0.5244174965541297
2.964514094011945 0.5762431660371655
2.9540057542160927 0.6278933062696334
3.0887531053691957 0.7130948422700523
3.124352238608709 0.7789885038309305
6.635910426605899 1.7780868398543186
6.555804766299335 1.879846766671934
6.521998435667903 1.9939750262090645
6.438652615318189 2.0920450519183937
6.353884828027409 2.187817997952093
6.314734411681304 2.298375363148494
6.180302423411476 2.372395825989888
6.1379571172321326 2.479895648413338
6.093742129855155 2.586640070598993
6.047670929594018 2.6925965771617983
5.999757550182623 2.79773289272343
5.860137181870568 2.8581798770647855
5.809362537708158 2.960018058301845
5.712670925797257 3.0374810112247146
3.8658191055561293 2.14285852148881
5.64648563267454 3.259999999999999
5.545872435542666 3.332296344668051
3.8755797994348673 2.4217310375457464
6.122295146001594 3.9758649556096985
3.664346070693284 2.471632633340701
4.153100864545188 2.9080325322998046
4.384872109512215 3.1857960674252044
5.9658072600532766 4.495558222945802
3.6800102193433912 2.875139089770824
3.1629840631298722 2.561333991572838
3.998751993081065 3.3553513225637355
4.769764547007919 4.146293063220005
4.696675297017131 4.228905432187985
4.622155394233158 4.3102296355949905
3.251415897530702 3.139855834474668
4.504270196158308 4.504270196158307
6.6478806052926025 6.8840818892408935
5.571926601710612 5.975159742228622
6.537406024126046 7.26052494491414
6.3768937617877315 7.3357771197653445
3.4839088445010438 4.151960881704861
6.148460220556911 7.5927160434346055
2.9982713848359563 3.8376123700647358
2.960929913908077 3.9292867094326813
3.362131643112946 4.627577207824699
3.137463106840221 4.480761682260786
3.6179780854557317 5.36387309443112
3.387654797793469 5.216530932620537
3.163618007472233 5.062847134053863
2.971769692231013 4.945855325051187
2.7849999999999997 4.823761499079324
2.60342766072283 4.696707827338555
2.4271679796030545 4.564839055080652
2.3017318336795025 4.517403077635025
1.8718447967893597 3.8378505776974428
1.7623181514587167 3.7793034719428302
1.6350813051647173 3.6724527397232545
1.531666023677953 3.608379025533566
1.262424219811624 3.124609589890073
1.1897815924903965 3.0994870159707095
1.1355068758412203 3.1197795010092153
1.048329457352044 3.0445698134298005
0.9641330224498361 2.9672963308408793
0.8975811334988012 2.935855600806519
0.9288978891032872 3.239451915312135
0.8463382774852436 3.158577451965253
0.77898850383093 3.124352238608709
0.49939134064338064 2.1631015438232226
0.46780130433995826 2.200832101651063
0.42932023959722604 2.208661162757244
0.3941813633039316 2.2355135993377124
0.3394627891373011 2.143283699091449
0.2950469740353383 2.099368305732129
0.2583630080189127 2.1041978414796025
0.22682676529080847 2.158112512949153
0.25710944110559153 2.9387743593706497
0.20926942123237635 2.9926921507794724
0.16067138566583727 3.0657926716965416
0.10888642971180337 3.118099380299579
0.05619674872805248 3.21950957840358
