# .PCD v0.7 - Point Cloud Data file format
VERSION 0.7
FIELDS x y
SIZE 4 4
TYPE F F
COUNT 1 1
WIDTH 165
HEIGHT 1
VIEWPOINT 0 0 0 1 0 0 0
POINTS 165
DATA ascii
3.5575989515230607e-16 -5.81
0.10488896268807442 -6.009084647889911
0.2167258745225317 -6.206217035788585
0.33285668170512367 -6.3512838410390895
0.46109029144866925 -6.5938983722174385
0.6022461823863178 -6.883705363813962
0.7536502201597814 -7.1705028656052505
0.9152387689726577 -7.454021598826328
1.0869419184981113 -7.733993616871664
1.2765052347282844 -8.059536859256324
1.7121710317959338 -9.71020444470037
1.919538493488042 -9.8751694654835
2.216338624117316 -10.427053423822368
2.5329488719119215 -10.971406929481748
3.074827293071776 -12.332458680967916
3.2766491109979126 -12.228620960819605
3.5584782635974594 -12.409888494563697
3.8037558784428054 -12.441524875079091
3.9894093973805718 -12.278139625370432
4.268198504933325 -12.395748526107042
4.331470209993556 -7.208776998904764
4.271149269719632 -6.835267655020794
4.199166959965859 -6.4661500788592186
4.227498350238847 -6.2675240485161146
3.7913402442804145 -5.414595012750236
3.3562537905900216 -4.61948703788095
3.0150932659917618 -4.001163905336937
2.7766332537187193 -3.553928498766316
2.586506807214832 -3.1940699015881506
2.4168814124213878 -2.880327106127357
2.269964240307155 -2.6112951475707913
2.1479092464119347 -2.3854948897824353
2.0528150637881204 -2.2013746418737026
1.9519900209897822 -2.0213448389516095
1.810193359837562 -1.8101933598375615
1.7695759088330818 -1.7088595913291331
1.689427050740284 -1.5754162117443715
1.6423500643050415 -1.4787786400530765
1.592437214270049 -1.3842845511699702
1.5397493306691457 -1.2920030954699437
1.5076631652265235 -1.2208815586366846
1.4499397866363686 -1.1328171145992112
1.4295575629846542 -1.0772488914421665
1.3672387204936611 -0.9933570763742796
1.3434093526339466 -0.9406653556157155
1.3181697403625163 -0.8891167165184874
1.2915526746359531 -0.8387441139231415
1.2635916632730748 -0.7895797037074753
1.2343209130110417 -0.7416548278704778
1.2470765814495914 -0.72
1.21572139292376 -0.6738853721424085
1.1831497744309623 -0.6290918941330937
1.1493984162029947 -0.5856477446640154
1.1145046174109672 -0.543580222018456
1.123821655925446 -0.5240466445584673
1.132796367476825 -0.5043534374139922
1.095400775608404 -0.46497004290223565
1.0569895942061376 -0.4270515164941395
1.036274273411894 -0.3977884239952834
1.0430588090723583 -0.37964235909149235
1.002249690135276 -0.34510224372458614
0.9890987769469597 -0.3213776741499453
1.0136830413208178 -0.30991400700610094
1.067000482491534 -0.30595746495686904
1.0721776671808658 -0.28728914006379797
1.106137127954636 -0.27579096098362105
1.110781873855168 -0.2564442019520059
1.1150882648365383 -0.2370193275322457
1.16813634830272 -0.22706270449808838
1.1719212260845275 -0.20664133142364713
1.2247335423379708 -0.19397873664988627
1.2279324052395473 -0.1725746451904811
1.3300118431993717 -0.16330492016289758
1.3326593397934863 -0.14006814077865554
1.3847106303475263 -0.12114648241924471
1.436492232374147 -0.10044932219154025
1.4380265300465862 -0.07536377698983922
1.4890923322584526 -0.05200025008672651
1.5397654505408427 -0.026876705913416645
1.59 0.0
1.6397502200564815 0.028621946557144996
1.6889704976622717 0.058980149427226715
1.7875468672106871 0.0936813616748696
1.8355178524780766 0.12835191168919075
1.882807979393399 0.16472435379307415
1.9492629149218157 0.20487578800460107
2.0446450723811234 0.2510508474146037
2.0894656250447134 0.293655243025738
2.1827912327152545 0.34572016773891023
2.2749059094582007 0.4011272904106091
2.4638842304536364 0.47893057839512754
2.5529652379152323 0.542649513034352
2.6405428755679874 0.6096173572718744
2.8720753497769493 0.7160888109750168
3.004029319759002 0.8049272302688399
3.2779023831496676 0.939923383335967
3.547890644622862 1.0846990245213532
3.766183804528808 1.2237072977247916
4.217012847172953 1.4520339688789188
4.331982981823038 1.5767128607313332
4.677237936750981 1.7954234272219545
4.737909496836283 1.914239692355311
4.7037798011419705 1.9966360665801897
4.75957183431795 2.1190979104249195
4.721863570460946 2.2018411436690437
4.727656683533618 2.3058322321105478
4.731244643440233 2.410689553616993
4.688451718080901 2.4928939983930807
4.731692615624131 2.6228200455326838
4.641896164284592 2.6799999999999993
4.722991826868638 2.837859792754399
4.672745009821908 2.919855145924959
4.663008357776556 3.028193034683551
4.650900782033784 3.13707218847089
4.6364005706756934 3.2464426297469218
4.61948703788095 3.3562537905900216
4.6400723133747706 3.4965452845134015
4.657143553815726 3.6385593191746404
4.554075334137851 3.6878174915520465
4.642229325301006 3.8952929147004283
3.463054886724657 3.11814862563228
3.188702139059584 2.9735128498724936
2.9205195893749227 2.820312984063529
2.6940768363207463 2.694076836320746
2.4729837988340297 2.5608496892055985
2.448374112624369 2.6255597888128217
2.3821049586375356 2.645595578699523
2.5651908033528836 2.9509144586710385
2.5132995538743694 2.995233772595204
2.492108748557356 3.0774980073696048
2.46880251605589 3.159923121962955
2.5035504963125206 3.3223237217967387
2.3746261926655188 3.6566036762420486
2.3104479920567735 3.6974896992420176
1.0609784343147117 1.7657646394463513
1.0199999999999998 1.766691823720255
0.940530663277894 1.6967622318504276
0.8873012536653333 1.6687709505033719
0.8353425195207662 1.639452004506597
0.7846843527524483 1.608841342875509
0.756486688515852 1.6222909387956035
0.6873849267981026 1.5438918234159953
0.6407990507224088 1.5096279596620021
0.614354813202096 1.520581521489531
0.5698050397770272 1.4843928781305509
0.5438120278878135 1.4941112670495944
0.5013749578640211 1.456098606422948
0.4449844718999243 1.369521383465021
0.43563384003687744 1.4248940863849229
0.3969177923764788 1.3842168421511791
0.3726994249476302 1.3909331898562582
0.33627143488353806 1.348711059523635
0.3126819655379725 1.3543743900514769
0.27860166569579736 1.3107177849832996
0.24614360403574295 1.2662990666474865
0.22400614919033998 1.2704020013857484
0.2018004599018979 1.2741179593677276
0.17953330023848416 1.2774458086766258
0.1511179858223829 1.2307572280352392
0.12961529445189057 1.2332071502566588
0.11243090814447901 1.2850911605383517
0.08998585112992184 1.2868576248351733
0.07013018136554462 1.338163576571129
0.0485103004164765 1.389153249556543
0.025131465269688062 1.4397806810252034
