# .PCD v0.7 - Point Cloud Data file format
VERSION 0.7
FIELDS x y
SIZE 4 4
TYPE F F
COUNT 1 1
WIDTH 178
HEIGHT 1
VIEWPOINT 0 0 0 1 0 0 0
POINTS 178
DATA ascii
1.6655196468404004e-16 -2.72
0.04747054550941139 -2.7195857308253846
0.09597361593187798 -2.7483247743025134
0.14130708185594873 -2.6962997438373497
0.18834247910913873 -2.6934229357015256
0.23793517770110673 -2.7196115257904654
0.2801362815573113 -2.6653186795869726
0.33270330749605265 -2.709650993980809
0.3757673725921768 -2.67372378560224
0.42237305560862354 -2.666758519606872
0.4723230432540508 -2.678677088193206
0.5190004674242022 -2.670025938977646
0.5655197990243057 -2.6605614739959513
0.6118668678153132 -2.65028657621584
0.6580275560310961 -2.6392043754707104
0.7039878026788564 -2.627318247506266
0.7635154756130876 -2.662694897749143
0.8098696220819809 -2.648964174017608
0.8559770744186045 -2.6344265501375754
0.918102195569182 -2.666362383190073
0.964496804178386 -2.6499331906162613
0.8134952454678319 -2.119227568148648
0.7941659780417338 -1.9656297716815891
0.8596084826764022 -2.025110677595369
0.9029553476282769 -2.0280709159665737
0.790296149455108 -1.6947955617585355
0.8329051788992471 -1.7077086879684171
0.8398824245181618 -1.6483620697484807
0.877911822409616 -1.6511119986461933
1.4398845721316214 -2.5976205302040056
1.4849999999999999 -2.572095449239783
1.5296630824828612 -2.5457868830852735
1.6003561779842788 -2.5611052503924063
1.672041837496133 -2.574718643592451
1.7446818588287305 -2.58659722637173
1.7895584814152636 -2.5557543781816543
1.8338899871525163 -2.524133022449836
1.8776628722343907 -2.4917427913475536
1.9516468767823372 -2.4979940889333085
1.9949456396279845 -2.4635526978185975
2.1019154836749836 -2.504965328999058
1.4564510443589263 -1.675455268094554
1.4386308036715452 -1.5977613747763975
1.432196556131247 -1.5358427734002578
1.4240496594409442 -1.4746465906942345
1.4142135623730951 -1.414213562373095
1.4027126106603698 -1.3545838223950446
1.389572033076424 -1.295796884118747
1.4119751684070492 -1.2713481520818304
1.3962127234121282 -1.2137092036324386
1.3788799976141604 -1.1570176974357707
1.3988627306225476 -1.1327767038897074
1.3396182811314274 -1.046624508053619
1.3576803670803979 -1.0230855393584821
1.3753288904374106 -0.9992349288972043
1.3516008730768363 -0.9464011199792259
1.326460116088067 -0.894708645553195
1.3418729087126786 -0.8714224560240432
1.3144745490424605 -0.8213748595614676
1.3286093160882742 -0.7983090161105838
1.34233937586588 -0.775
1.3119295607090935 -0.7272144303695056
1.3685687689313368 -0.7276809223181308
1.4256104387013888 -0.726384799583275
1.4830101763936254 -0.7233123922019776
1.4954078486104723 -0.6973201318721539
1.5530272779924217 -0.6914522932288603
1.6569087362143926 -0.7033160312806926
1.7152901309485569 -0.6930221978194371
1.7738028103446832 -0.6808991041360706
1.8324006105325212 -0.666939279485054
1.90994752271062 -0.6576476720034565
1.9686869887309677 -0.639665178356141
2.0273660826416355 -0.6198280140122019
2.1820640497799837 -0.625696797704588
2.5307256648773593 -0.6781058981686042
4.773854973277903 -1.1902557263503646
4.745182215504096 -1.0955116346546219
4.695108483522267 -0.997976115925245
4.780524383390124 -0.9292398074837734
4.254369493012739 -0.7501601275211393
4.2668136313709955 -0.6757968889737974
4.575038477586055 -0.6429797264355022
4.833699758493239 -0.593503702383068
5.2411303885908 -0.5508650014205333
5.349565528752674 -0.4680263385549238
5.356918949895257 -0.3745922640059522
5.312709124894333 -0.27842728721246157
5.5666069064963635 -0.19439019663293067
6.469014587661851 -0.11291706964922447
7.12 0.0
8.168755669427716 0.14258616059260648
9.564170214572746 0.33398818344293474
11.604075193848146 0.6081438115430081
13.038162136895902 0.911717111835719
18.698574483182064 1.6359132913735461
32.39157813214466 3.404492048627478
12.843776851578168 1.8050751194520485
18.337120361087315 3.2333290681582434
12.731704569316202 2.474792670033787
10.094483239572874 2.145648649239277
8.496506964927251 1.9615731938785037
7.199594288967893 1.7950604653495355
6.3461326787191785 1.7004411263235624
5.594543070361016 1.604209410854935
4.991910826127046 1.5261802986526856
4.536539582727882 1.4740110631684988
4.131916175369015 1.4227328349777748
3.9185182286772378 1.4262239976680386
3.846351357168471 1.4764759521266373
3.5418423244451276 1.4309971868487843
2.964025628116858 1.2581542337354619
2.8959391007270447 1.289355158550287
2.809554139813615 1.3101166113961682
2.714358019823484 1.3238808633030144
2.601739050630034 1.3256522592394766
2.4016174525762812 1.2769626507776235
2.2915036327052167 1.2702012050454032
2.2256852877260074 1.2849999999999995
2.0743448676991116 1.2463921412823313
1.7978619638516233 1.1234288401743944
1.7360480756470273 1.1274028024811062
1.6580751451100835 1.1183858069414936
1.556388884149084 1.089795229066988
1.496681439593653 1.0874027167410754
1.4375439180851268 1.0832670416736874
1.3790188188117634 1.077407581819902
1.3211481344768508 1.0698446647847233
1.2639733311463137 1.0605995559827899
1.2075353283564354 1.0496944463848115
1.151874479489961 1.0371524398562304
1.1335982375097144 1.0570974580968726
1.0790097005079764 1.041987555688496
1.0253048327204939 1.0253048327204939
0.972521718642596 1.0070757204741119
0.9547977040874978 1.0238951822668385
0.9367828489024016 1.0404027556683517
0.8528767376876595 0.9811224542896037
0.8356238925925014 0.9958577760546714
0.7866504888122967 0.9714324518212136
0.8003599179233559 1.0244139796887386
0.7522687789400602 0.9982943875591161
0.7053423027509678 0.9708203932499369
0.6596129018037028 0.9420248509323407
0.6430718389913588 0.9533932084382979
0.6263348902672812 0.9644711531372374
0.6094071538681856 0.9752553105798898
0.5665418824010597 0.9428840307723235
0.5499999999999999 0.9526279441628827
0.509050101258654 0.9183506924963656
0.5164187190644798 0.9712423521448198
0.4766900247265242 0.9355568503977864
0.4602897041285311 0.9437337486141254
0.4437491748277344 0.9516231763884825
0.42707347522959044 0.9592227305247308
0.41026768491373744 0.9665300961250625
0.3746065934159122 0.9271838545667873
0.35836794954530016 0.9335804264972017
0.3249191361593854 0.8927079897466128
0.32556815445715653 0.9455185755993168
0.29356614465620007 0.9035036904803958
0.2777531194865997 0.9084895181648838
0.2618554880261492 0.9131986111414029
0.2458780928473949 0.9176295349746147
0.2177297060397009 0.8732661536483969
0.21370350162667187 0.9256515615459734
0.19751610627687127 0.9292402206971153
0.18126854560771766 0.9325458242752808
0.1649657687835837 0.9355673653615977
0.14079101853620785 0.888919506535624
0.12525579086405872 0.8912412618674134
0.10968240906463274 0.8932915364771898
0.09407561694088831 0.895069705831446
0.07844016847289233 0.896575228282571
0.06278082636971291 0.8978076452338418
0.04710236061864937 0.8987665812791165
0.029664572197125916 0.8494822029662313
0.01483454547169087 0.8498705408829326
