# .PCD v0.7 - Point Cloud Data file format
VERSION 0.7
FIELDS x y
SIZE 4 4
TYPE F F
COUNT 1 1
WIDTH 180
HEIGHT 1
VIEWPOINT 0 0 0 1 0 0 0
POINTS 180
DATA ascii
3.91886975727153e-17 -0.64
0.011693112312980012 -0.6698979557547822
0.023382662790675725 -0.6695918541027942
0.03768188849491966 -0.7190132650232931
0.04673683740856406 -0.6683679136740822
0.05577967535850121 -0.6375646067787172
0.07526049355271049 -0.7160557646651567
0.0779963797792944 -0.635229537050446
0.09324597764324387 -0.6634796060568522
0.1001180576257478 -0.6321205379808882
0.11981724259018198 -0.6795173495784235
0.131658206809816 -0.6773227565788881
0.143459066664254 -0.6749218445063258
0.15521622749726693 -0.6723153447018123
0.1669261079637707 -0.6695040511304375
0.1785851411207393 -0.6664888201394571
0.1901897755137294 -0.66327057019744
0.20173647625868835 -0.6598502816144944
0.21322172611871373 -0.6562289962436559
0.240920434298296 -0.6996837459434944
0.23599389889471148 -0.6483879083422767
0.2651922826635223 -0.6908495156079293
0.2584785494569794 -0.6397568596510832
0.28914103508206257 -0.6811735915548058
0.3009851158760923 -0.6760236386555245
0.3127375136881176 -0.6706677624071209
0.3243946486239173 -0.6651075942613836
0.3359529698072647 -0.6593448278993922
0.3708825346008538 -0.6975285983585523
0.3829995999946063 -0.6909495686401227
0.3949999999999999 -0.6841600689897066
0.40688007917894287 -0.6771621675546687
0.4186362187442319 -0.6699579959635765
0.4302648376618714 -0.662549748676885
0.4417623937418901 -0.6549396823184829
0.4531253847173264 -0.6471301149883035
0.5231288745403011 -0.7200251249937032
0.5055246194477205 -0.670853828439726
0.517155639273553 -0.6619290330296463
0.5600951480343553 -0.6916599056967041
0.5720809726210201 -0.6817795543758904
0.5838925358015515 -0.6716915263982671
0.6289827699773267 -0.6985561359487505
0.6410784584587487 -0.6874724795220201
0.6529788682314573 -0.676179412318332
0.7000357133746821 -0.700035713374682
0.7121464023352647 -0.6877117867544073
0.7606078496839375 -0.7092782944649985
0.7728706184964902 -0.6958958306132125
0.8226334424428215 -0.715104341599653
0.8349884429996861 -0.7006384945583278
0.8470890979880984 -0.6859592262443228
0.898332259111663 -0.7018540818712503
0.9104444814539138 -0.686069126393335
1.0031810730249349 -0.7288537128426666
1.01574853491835 -0.7112347810752971
1.0694584685960038 -0.7213588454772634
1.1238185610468683 -0.7298163069201362
1.136384448849611 -0.7100918140724947
1.1486041829408307 -0.6901510203794725
1.2470765814495914 -0.72
1.3031833636376997 -0.7223663341670422
1.403886672645694 -0.7464597848295664
1.4612506996689232 -0.7445444195728567
1.4740222359306339 -0.7189286807340869
1.576975549443771 -0.7353557754288169
1.6352463691802557 -0.7280585911056823
1.758164270094161 -0.7462964554145126
3.5789296786277993 -1.4459814505854198
6.731114875044825 -2.583832916221615
7.104076213141466 -2.585672283542056
7.526327861770562 -2.5915225094789673
8.093490953671756 -2.6297346221308024
8.472860137832495 -2.590413303843447
8.46871554121659 -2.4283651047477623
8.461510238292238 -2.2672548350980812
8.45127577586393 -2.1071397106731053
8.438044761040137 -1.9480761306178698
4.020186639015941 -0.8545170492609911
6.2922302458995265 -1.2230856603636526
3.9983194772295643 -0.7050116013277372
3.9606302457865024 -0.6273022048113257
3.8224347453424614 -0.5372081697058525
3.831228145335503 -0.4704156655438691
3.838854516121535 -0.4034798682131421
3.745692064824963 -0.3277055927311943
3.651084423950957 -0.25530869390349814
3.7548470506771974 -0.19678319547346906
3.637782610349509 -0.1270341679971037
3.7094349490302116 -0.06474842788232192
3.76 0.0
3.7094349490302116 0.06474842788232192
3.7077399682408454 0.12947713276627879
3.9046414808903838 0.20463358890991068
3.950353639028904 0.27623563602673656
4.094360209157075 0.3582101026928756
3.9383067056583623 0.41393271453990826
3.7816008377534374 0.4643221983736117
3.7729213419053833 0.5302495146578492
3.763092577667475 0.5960153118032796
3.801357926627123 0.6702819657943512
3.7399995689355996 0.726982272384636
3.7267423587957995 0.7921435420156633
3.761068450071008 0.8683110697673192
3.6968267171115468 0.9217224222347344
3.583584815532443 0.9602186573303525
3.566280891931163 1.0226145900810666
3.547890644622862 1.0846990245213532
3.623525327084535 1.1773547485685496
3.602425773033397 1.240414668481767
3.627213516233606 1.3201977532370814
3.650299467604059 1.4012186827221242
5.71145254413141 2.3075766154420188
5.62428465459441 2.3873671950694635
5.536085473314161 2.46482405703935
2.1842017667583264 1.0185100107950855
2.121153949266034 1.034555906422223
2.0404049403913627 1.0396382444035621
1.9778026080039963 1.0516163006403958
1.9154171586352766 1.0617330683394781
1.853294364098699 1.0699999999999996
1.7914796584674144 1.0764295765620133
1.687615711351288 1.0545393358240778
1.6270209018141224 1.0565997279291528
1.5668810121290289 1.0568745875597114
1.5072397614917448 1.0553806428859251
1.448140419931156 1.052135601603527
1.429557562984654 1.0772488914421667
1.371138711275696 1.0712509670666455
1.313376674862281 1.063551460874225
1.294615108871073 1.0863110603702515
1.2754591905764847 1.1087397589939572
1.2187575137829263 1.0973741944285276
1.1262847004935228 1.0502774744962478
1.1077832925215225 1.069773890506856
1.0889444430272832 1.0889444430272832
1.0350409719839058 1.0718163025045904
1.0161775564931228 1.089717015412564
0.963548073156756 1.0701285486874474
0.9447250017463305 1.0867817955207917
0.8934747774642898 1.0648017759353794
0.8747553435592739 1.0802328864251896
0.8249863769363823 1.0559344098330075
0.8064321310237446 1.0701715834633727
0.7876322380719141 1.0840827724624296
0.7399136028928492 1.0567061371327995
0.7493184906508007 1.110910347223756
0.7025843551693851 1.081885032649597
0.6835958508608343 1.0939820440417896
0.6386472128884673 1.0628874528706191
0.6199999999999999 1.073871500692704
0.601163929105458 1.0845284368528507
0.5962288847380811 1.1213434429308373
0.5402486946900608 1.0602977637841577
0.5216616646790019 1.0695649150960087
0.5155942793236533 1.1056955001847129
0.4840166052602024 1.087119094594695
0.4649700429022357 1.095400775608404
0.4457818461649355 1.103348786934477
0.41929050096800113 1.092289099001726
0.4001635676910325 1.0994403663195127
0.38091474071487313 1.1062567334512006
0.36773022330618743 1.1317572543912326
0.34207489452560175 1.1188765644767515
0.322495706305889 1.124676184247833
0.3028182827699495 1.1301332167582097
0.2830486178516112 1.1352459997429158
0.2631927335823222 1.1400129757987252
0.23286109371589037 1.0955253128218625
0.21370607482173032 1.0994224454613837
0.19448595898696186 1.1029846833736732
0.17520660084505865 1.1062109414665544
0.16283252812327634 1.1586136404276373
0.1364936646137652 1.1116516898382807
0.11707187885977213 1.1138645228124662
0.09761443187737713 1.115738061862755
0.07812725059342052 1.1172717362910032
0.058616270992097 1.1184650789251227
0.04083241114192626 1.169287267612342
0.019546695209757384 1.1198294185751583
