# .PCD v0.7 - Point Cloud Data file format
VERSION 0.7
FIELDS x y
SIZE 4 4
TYPE F F
COUNT 1 1
WIDTH 177
HEIGHT 1
VIEWPOINT 0 0 0 1 0 0 0
POINTS 177
DATA ascii
5.021051876504148e-17 -0.82
0.013438352956708371 -0.7698827252704213
0.026872612460925833 -0.7695309368047037
0.04291548411921405 -0.8188762184987505
0.05720030847018287 -0.8180025212130558
0.07146770905307967 -0.8168796524352313
0.08571333987947583 -0.8155079542019841
0.09993286159222094 -0.813887844345884
0.10994674975845173 -0.7823117743058406
0.12358322738178244 -0.7802737890701589
0.14586446924022153 -0.8272385125302547
0.15073910634747048 -0.7754854749236546
0.16425023574602998 -0.7727366045797064
0.18895888564884672 -0.8184708544195975
0.20321439230372085 -0.815048410071837
0.20446704563099138 -0.763081402768364
0.23153537888627929 -0.8074598245881879
0.24559223196709887 -0.8032959950089498
0.27502512499370324 -0.8464402995026866
0.28975565746686954 -0.8415115322833919
0.2872969203935618 -0.789341801460163
0.3010290776180523 -0.7842075582576494
0.33339986814016187 -0.8251936305644407
0.3282141479309899 -0.7732240769000499
0.32945668089139835 -0.7399718206905067
0.36345170509700153 -0.7794246968515189
0.33316207155969885 -0.6830834751873669
0.3450327798020556 -0.6771649583831596
0.38027196585657164 -0.7151875502157308
0.40724008100692316 -0.7346805539970924
0.3949999999999999 -0.6841600689897066
0.4583838866699483 -0.7628788976248799
0.4451321819558921 -0.7123604007713977
0.4847287411633741 -0.7464168054714273
0.49768168408896474 -0.737843439573987
0.510483028352431 -0.7290453194172027
0.5231288745403011 -0.7200251249937032
0.5657061217629253 -0.7507173794444553
0.5787217868061189 -0.7407301083903185
0.5915611675868471 -0.7305172037695526
0.6042203531053469 -0.7200817765318392
0.6494984387006022 -0.7471624844205443
0.6624393002952697 -0.7357133772226203
0.6751783764618736 -0.7240401646029786
0.6877117867544073 -0.7121464023352646
0.7353910524340095 -0.7353910524340094
0.7481133923521973 -0.7224447052773572
0.797175534764896 -0.7433782124681234
0.81002785977036 -0.7293523609311554
0.86036892145396 -0.7479072930491782
0.9115928873115838 -0.7649172555269816
0.9248036941337954 -0.7488912653493065
0.9377327967919992 -0.7326371556375332
0.9903080324586431 -0.7462506287085399
1.0436319227436823 -0.7582429754572904
1.0567061371327995 -0.7399136028928495
1.110910347223756 -0.7493184906508007
1.1657520894441393 -0.7570482586708874
1.1787868536574322 -0.7365877772841548
1.2343209130110417 -0.7416548278704778
1.2903778516388136 -0.745
1.3906453343516394 -0.7708472961916759
1.4480340522886401 -0.7699333629688608
1.5058010258783416 -0.767243944559834
1.608841342875509 -0.7846843527524485
1.667606328147436 -0.777617601602887
1.7448718240973677 -0.7768669882747783
1.804189512766783 -0.7658330118389763
1.9099987404075822 -0.7716895824367785
2.063212742558816 -0.7919931684951137
2.1237053229761527 -0.7729655239160114
2.278699767194354 -0.7846192522417477
2.482257507530351 -0.8065343553186126
2.5915858886598264 -0.7923273197986165
2.797271535180508 -0.8021047054274675
3.052325611073456 -0.8178681825239654
3.308708426601148 -0.8249536639948666
3.6149129403532227 -0.8345684116157387
3.92237187894256 -0.8337258801792151
4.378057238176582 -0.85100811937939
4.884646454940552 -0.8612949612279746
5.491547173708966 -0.8697756256236836
6.476353169569871 -0.9101920802788278
7.851040059482858 -0.9639865063347163
9.159546656341798 -0.9627071466950878
14.056307190074529 -1.2297675301694553
18.61454517784832 -1.3016558000653757
26.67339487329467 -1.3978933912490317
37.087393590678644 -1.2951203226298127
42.90346459916075 -0.7488827602238365
43.01 0.0
21.456731538056157 0.3745286421441047
16.849729343541956 0.5884055144041671
14.140594212124766 0.7410771404000857
10.634032775769725 0.7436040101123768
10.121338132612134 0.8855023463162083
22.08833129612935 2.321577169174587
7.602903521572528 0.9335191704834294
6.446645127507622 0.9060168872500258
6.281697846185076 0.9949231976558683
5.4755311067478765 0.9654838678281328
5.556009858313778 1.079978913831244
4.851612099639675 1.0312419864560867
4.327518939190944 1.0789716543745185
3.8546594007126584 1.1053057968261664
3.290655546381231 1.069198800537318
2.8460109125539437 0.9799601449160416
2.7814901575262887 1.0123796242439795
2.763398062431717 1.060769130654089
2.7908234022460294 1.1275658461818954
2.862770094237089 1.2151738096016418
2.8411263732684886 1.264950959965739
2.727986438980316 1.272080967839505
2.5705509724156173 1.2537414798167619
2.4591780067598954 1.253013779281149
2.2161984580759064 1.1783736225925863
2.239026450276853 1.2411126278306228
2.173723763498941 1.2549999999999994
2.1514899247623016 1.2927455680242361
2.086198316544808 1.303601390013684
2.146996653940285 1.3942759296384697
2.122336185740907 1.4315338328851117
1.646495609020873 1.1528886370656029
2.1519852050373602 1.5635087710979787
2.124370456725799 1.6008279615844492
2.1355091422742163 1.668442598132534
2.1449228536212397 1.7369242792975508
2.152584885164328 1.8062331832191756
2.196204878448267 1.909131774362376
2.199708683413087 1.9806265948222206
2.2013746418737035 2.0528150637881204
2.2371467790532042 2.1603875321274817
2.2344574285494905 2.23445742854949
2.2645862876963307 2.345047749104003
2.2233146538037447 2.3842130672784956
2.181365776729878 2.4226521310563047
2.1387524345090534 2.4603532315262364
1.0670274320796556 1.2716337755775033
1.0132058295902382 1.2512049979457232
0.9604319015080272 1.2292967756264863
0.9388314361171951 1.245871395673777
0.8875557309616344 1.2216156615061706
0.8661004188900794 1.2369195868763778
0.8443812842408277 1.251846734558113
0.8224049428726911 1.26639255759759
0.8266740522037996 1.3229550300040245
0.8034593968596847 1.337180989095295
0.7549999999999998 1.3076983597145024
0.732062526571969 1.3206757577804875
1.6478451853784761 3.0991460509348334
1.6616052290467416 3.2610838785294267
1.6921126266058382 3.4693450187147845
0.5536299228803163 1.1872632010180115
0.5328250024292985 1.196744549511807
1.4886855995441328 3.5071234916537977
1.4085207912438298 3.48621129317112
1.3295450928130637 3.4635833823046185
1.251793724571948 3.4392749920764247
0.4264942823388751 1.2386293340351051
0.3368285238686927 1.0366516027617174
0.31868515814778287 1.0423721839997089
0.314226585631379 1.0958383333696835
0.3028182827699495 1.1301332167582097
0.32901377801554804 1.3196021877353552
0.6883502262922273 2.98157239824282
0.7713523729338867 3.628927598722419
1.2326261101324802 6.341311605071909
0.9307542322947461 5.2785695561454355
0.9949231976558688 6.281697846185076
0.885140922106015 6.298104917196388
0.4521352640330972 3.6823462225893047
0.6648010263822774 6.325159254542219
0.5499527367377228 6.285988544958914
0.42621205457660655 6.095116347087526
0.32500628826868067 6.2014894108259035
0.2167258745225317 6.206217035788585
0.08132821399774054 4.659290259428784
