# .PCD v0.7 - Point Cloud Data file format
VERSION 0.7
FIELDS x y
SIZE 4 4
TYPE F F
COUNT 1 1
WIDTH 180
HEIGHT 1
VIEWPOINT 0 0 0 1 0 0 0
POINTS 180
DATA ascii
4.2250314570583685e-17 -0.69
0.01256573263484419 -0.7198903405126017
0.025127637625800777 -0.719561395453749
0.03768188849491966 -0.7190132650232931
0.04813196688344656 -0.6883191946792786
0.06013746249588411 -0.6873743416833044
0.07526049355271049 -0.7160557646651567
0.09018331411980914 -0.7344841522145783
0.09602943966244516 -0.6832849674316835
0.10793978087775932 -0.681504955010645
0.11981724259018198 -0.6795173495784235
0.14119865657864322 -0.7264041157512713
0.143459066664254 -0.6749218445063258
0.1664637802144602 -0.7210338479410741
0.17902220274375408 -0.7180188374442373
0.19152609337586535 -0.7147851114539105
0.20397164330457937 -0.711333654994356
0.23097364673096205 -0.755480757210798
0.22867257583746112 -0.7037818220584136
0.240920434298296 -0.6996837459434944
0.25309490606099494 -0.6953725393815722
0.28311068014078733 -0.7375285369327894
0.27720887912777503 -0.6861160523794226
0.3282141479309899 -0.7732240769000499
0.3213219480298823 -0.7217009115376546
0.33386842677515255 -0.7159831517589534
0.34631320596337123 -0.7100472965763419
0.38135201978121935 -0.748445480318229
0.3943561127401483 -0.7416759780014985
0.40724008100692316 -0.7346805539970924
0.4199999999999999 -0.7274613391789285
0.43263198292444555 -0.7200205325897743
0.47162814516755236 -0.7547628055792192
0.4847287411633741 -0.7464168054714273
0.49768168408896474 -0.737843439573987
0.5391618501699833 -0.7700029216316523
0.5231288745403011 -0.7200251249937032
0.5657061217629253 -0.7507173794444553
0.5787217868061189 -0.7407301083903185
0.623027187139339 -0.7693745018424012
0.636359733589674 -0.7583839986877883
0.6494984387006022 -0.7471624844205443
0.6958958306132126 -0.7728706184964901
0.7092782944649986 -0.7606078496839372
0.7224447052773572 -0.7481133923521972
0.8061017305526642 -0.806101730552664
0.7840803823691298 -0.7571776238003071
0.8337432198458544 -0.7774781304712481
0.8843423423180993 -0.7962654215670412
0.9358398794762373 -0.813513195948229
0.9115928873115838 -0.7649172555269816
1.0025182902794925 -0.8118233044542903
1.0165338721526713 -0.7942033031700991
1.0701715834633725 -0.8064321310237448
1.1245336221811768 -0.8170215006865376
1.1795789437761481 -0.8259500683455063
1.235265983107012 -0.8331974261714127
1.2496191462386819 -0.8115121621723902
1.3483964728887174 -0.8425716301307958
1.4057543731514641 -0.8446624428524886
1.4635829323957013 -0.845
1.4955996992083667 -0.8290244506212363
1.5804761912174794 -0.8403540973867446
1.6572721349903643 -0.8444223295155571
1.7616363307463674 -0.8592074477065917
1.8669940412954988 -0.8705936191858408
1.9732581885080183 -0.8785511490437284
2.1263662114751374 -0.9025889068102222
2.234513089505958 -0.9028018901323478
2.3899658918328366 -0.9174219508359689
2.5935516333691067 -0.9439755955788457
2.798734983773978 -0.9636817371931838
3.0528914173074426 -0.9919445519435811
3.2609992178339513 -0.9969875131045323
3.566280891931163 -1.0226145900810666
4.452918059192605 -1.1931557979226204
4.502172169920623 -1.1225175955824578
4.9790310310525525 -1.1494998876971496
5.6830375602634104 -1.207966923651182
6.635799760106209 -1.2898688087454433
7.937550489278397 -1.3996043119954589
9.936144706387086 -1.5737307183047227
11.992146312460417 -1.685386252626392
18.421656574462936 -2.261895013599536
23.928196802560652 -2.5149548262197405
36.4706878971388 -3.190771741991762
12.080500648646472 -0.8447508970413559
21.730178676259527 -1.1388304078464595
13.651678697080849 -0.47672712495616393
13.807896670109765 -0.24101773289888564
11.86 0.0
9.958483043757658 0.17382596811534404
8.504815937932504 0.29699471693828366
7.49970780600685 0.3930430313845087
6.793411182269402 0.4750415861974939
6.136559340245153 0.5368793753255751
5.579267833016013 0.5864046789315368
5.171165450051288 0.6349392791408182
4.7631894106469534 0.6694226156179146
4.405089999054314 0.6976977140794297
4.096800252530786 0.7223764190944303
3.8381622872803662 0.7460631719222904
3.6289275987224188 0.7713523729338874
3.4200389273961753 0.7895782007469664
3.2116788539735484 0.8007614744349005
3.0523256110734556 0.8178681825239661
2.8933977047743396 0.8296684410091673
2.7350316020542818 0.836183075507027
2.6249159849746238 0.8528869044748547
2.467803482314217 0.849732883133179
2.4056131092119255 0.8755715669137121
2.2499288278582563 0.8636667584041738
2.2345130895059575 0.9028018901323482
2.246031842423954 0.9533839535138282
2.155967280036538 0.9598984776588887
2.0935709880546614 0.9762481846210156
1.9863348423211589 0.9688002344038614
1.969124418456293 1.0033190044243985
1.9336552283610497 1.0281427225011013
1.827955187921337 1.0132521063148443
1.766691823720255 1.0199999999999996
1.7057629283972033 1.024925769071008
1.6452133065434664 1.0280433726124174
1.6270209018141224 1.0565997279291528
1.5254291335012768 1.028914942386174
1.5072397614917448 1.0553806428859251
1.38341906038116 1.005112781420129
1.30976223647756 0.9869766379693594
1.252937098234688 0.9789017457677968
1.235662078716584 1.0006194217692412
1.1797084424032263 0.9898929189172706
1.1245172745319303 0.9775279531958556
1.0849914451969953 0.9769306852839331
1.1043440894449477 1.0298175236943727
1.07181630250459 1.035040971983906
1.067731239591687 1.0677312395916867
1.0697738905068557 1.107783292521523
1.0161775564931228 1.089717015412564
0.963548073156756 1.0701285486874474
0.9447250017463305 1.0867817955207917
0.8934747774642898 1.0648017759353794
0.8747553435592739 1.0802328864251896
0.8557694507026651 1.0953349475133434
0.8365228821813468 1.1101033589657372
0.7876322380719141 1.0840827724624296
0.785799717800933 1.122238300675919
0.7660942777549231 1.1357814744004073
0.7461554779705873 1.148978678085231
0.6994934287878305 1.1194234869264823
0.6798502588812717 1.1314608369267882
0.6599999999999999 1.1431535329954592
0.6157082177128481 1.1107670280670325
0.5962288847380811 1.1213434429308373
0.5765679346692245 1.1315782857192271
0.5567313564221281 1.141468438799942
0.5367251924106883 1.1510108895365454
0.5165555367062665 1.160202731206103
0.4962285331813776 1.1690411638845992
0.45702004396741286 1.1311643025714806
0.43720889844526617 1.138968120326586
0.41726457485731594 1.146424997358808
0.39719314843773096 1.1535326622311666
0.3615498834186885 1.1127361240653295
0.3566934797617386 1.1666918022749033
0.322495706305889 1.124676184247833
0.3028182827699495 1.1301332167582097
0.29514471263159453 1.1837607860567156
0.27444028629951545 1.188731479037987
0.2536522627976663 1.193340072895243
0.22324652459055755 1.1485038046337668
0.19969540431696975 1.1325289159640393
0.17989963479626556 1.1358415916844085
0.15309041105607177 1.0892948756157275
0.1364936646137652 1.1116516898382807
0.11184545569638944 1.0641384280440525
0.09325664473999422 1.0659283269581679
0.07463942690621424 1.067393533778012
0.05599947317994981 1.0685336021873941
0.03734246147167616 1.0693481849104325
0.018674074887893213 1.0698370338173386
