# .PCD v0.7 - Point Cloud Data file format
VERSION 0.7
FIELDS x y
SIZE 4 4
TYPE F F
COUNT 1 1
WIDTH 180
HEIGHT 1
VIEWPOINT 0 0 0 1 0 0 0
POINTS 180
DATA ascii
4.531193156845207e-17 -0.74
0.013438352956708371 -0.7698827252704213
0.027570602394975854 -0.7895187533450857
0.04029868630706686 -0.7689447417610219
0.05720030847018287 -0.8180025212130558
0.06449524963326703 -0.7371840765878916
0.08257748598144624 -0.7856722973409359
0.09018331411980914 -0.7344841522145783
0.10298809471044844 -0.7327983708687621
0.11576150412977088 -0.7308893720404019
0.12849965147352851 -0.7287577372290339
0.14119865657864322 -0.7264041157512713
0.153854651205142 -0.7238292245430161
0.17771133293165348 -0.7697523511803359
0.19111829752373746 -0.7665336237580372
0.19152609337586535 -0.7147851114539105
0.20397164330457937 -0.711333654994356
0.2163550614948252 -0.7076655194126462
0.2441234255562085 -0.7513346478731713
0.27347724974401166 -0.794235603503426
0.2701959132272784 -0.7423571704208676
0.28311068014078733 -0.7375285369327894
0.29593920879857066 -0.732475245107762
0.3282141479309899 -0.7732240769000499
0.3416587801836723 -0.7673781844197846
0.33386842677515255 -0.7159831517589534
0.36823176330282503 -0.7549869988913002
0.35865249479424205 -0.7038951541088107
0.3943561127401483 -0.7416759780014985
0.40724008100692316 -0.7346805539970924
0.4449999999999999 -0.7707626093681504
0.43263198292444555 -0.7200205325897743
0.4451321819558921 -0.7123604007713977
0.45749678941262273 -0.704483277074156
0.49768168408896474 -0.737843439573987
0.510483028352431 -0.7290453194172027
0.5231288745403011 -0.7200251249937032
0.5356153706053229 -0.7107856039420907
0.5787217868061189 -0.7407301083903185
0.5915611675868471 -0.7305172037695526
0.6042203531053469 -0.7200817765318392
0.6166954872510768 -0.7094270054094056
0.6289827699773267 -0.6985561359487505
0.6751783764618736 -0.7240401646029786
0.6877117867544073 -0.7121464023352646
0.7000357133746821 -0.700035713374682
0.7481133923521973 -0.7224447052773572
0.797175534764896 -0.7433782124681234
0.81002785977036 -0.7293523609311554
0.8226334424428215 -0.715104341599653
0.8349884429996861 -0.7006384945583278
0.9248036941337954 -0.7488912653493065
0.9377327967919992 -0.7326371556375332
0.9503762569562785 -0.7161598775509374
0.9627302233061874 -0.699464450228043
1.01574853491835 -0.7112347810752971
1.0280065899682518 -0.693399200303726
1.081885032649597 -0.7025843551693848
1.136384448849611 -0.7100918140724947
1.2343209130110417 -0.7416548278704778
1.2037753112603695 -0.695
1.3031833636376997 -0.7223663341670422
1.3155919133598013 -0.6995126285509773
1.3721500472500865 -0.6991453695989021
1.4290825336156756 -0.6970101233946331
1.4863447707401058 -0.693093949254747
1.5438918234159955 -0.6873849267981023
1.6477036876798683 -0.6994087199957999
1.7060182924028888 -0.6892761318852779
1.7831386146096553 -0.6844827836315236
1.8417975367403803 -0.6703594809183108
1.9477682657345927 -0.6706703981817428
2.054282075197532 -0.6674767078498864
2.209063986274612 -0.6753786379095218
2.3166406872113487 -0.6642860275189679
2.4244738239855614 -0.6496358032073268
2.6295014182079504 -0.6556083370750992
2.737979882046511 -0.6321124627062603
2.9931316582454452 -0.6362097739023438
3.200104618039384 -0.6220373249275362
3.4074348254222397 -0.600822694727579
3.763092577667475 -0.5960153118032796
4.070001762527855 -0.5720014449458689
4.476383143902362 -0.5496307387572149
4.932828601026635 -0.5184611778075608
5.538842521390105 -0.48458592967697883
6.394385562165474 -0.4471389966998424
7.399844852531392 -0.3878094357602143
9.254359058196826 -0.3231693394651594
10.75836119988277 -0.18778789326517084
19.76 0.0
17.007409294610216 0.296865433498193
15.000856313556627 0.5238414455045403
14.889566363190696 0.7803291075822936
15.123071001938936 1.0575081419609411
14.903072683452514 1.3038499115049682
14.878047554709369 1.563745810484098
13.111534663181866 1.6098940263819976
10.754311226533453 1.5114198764263103
9.491684953119274 1.5033352090366185
7.888310101627786 1.390921903112112
7.028450633485274 1.3661924068960611
6.221018740667004 1.3223183536009497
5.7585270828807404 1.3294607311722426
5.54038859703594 1.3813740238741035
4.742695807079325 1.2708015114533777
4.383353333478734 1.2569063425255158
4.026043022604379 1.2308848768827216
3.7186309787140504 1.2082564480060443
3.5078739154734655 1.2078578530360513
3.2513364679192427 1.183389695906814
3.0434721903808777 1.168279515517679
2.8835417877027085 1.1650265055234867
2.7246943662192233 1.1565641403282507
2.6127400088578385 1.1632667991967889
2.4560941028693213 1.1452954893172953
2.3458524608408258 1.1441486931194924
2.2364263757128033 1.1395161543462624
2.1279036987900137 1.1314264663139972
2.1515644795629134 1.1926316658059892
2.173723763498941 1.2549999999999994
2.108631559727196 1.2669936642787334
2.0013935069291655 1.2506094635903635
1.895395483556658 1.2308842191339613
1.8736249139743941 1.2637759618438877
1.7693684156642222 1.23892510251826
1.707025858131139 1.2402268823371183
1.6052573751950583 1.2096481965356174
1.5839016147495109 1.237479565404573
1.4843487863828146 1.2020019469051892
1.463144886357248 1.22772433450129
1.403759819214356 1.2202697939223435
1.3822493753879532 1.2445829278274767
1.2871825148497402 1.2003171137099973
1.230071058579093 1.1878658134848854
1.1737972567696688 1.1737972567696688
1.1531328949619353 1.1941040685621611
1.1321172777037474 1.214047144687823
1.1107568065557047 1.2336204102924742
1.0562550366747168 1.215082424158663
1.0348880515953287 1.2333315534215548
0.9817398100377464 1.2123476998728746
0.9296488277417442 1.1898962379461502
0.9087406849595927 1.2059396201714123
0.8581664683470107 1.1811648117874232
0.8374215970725271 1.1959619846619283
0.777278135824338 1.1523622258515078
0.7951729911219397 1.224459029200319
0.7471861625688189 1.1957478155805605
0.7262036856231765 1.2086058939899782
0.6799999999999999 1.1777945491468367
0.6835815645473353 1.2332137870665478
0.6384813253888113 1.2008087262881408
0.6174270796457838 1.2117688728961804
0.5742662022936912 1.1774202006519088
0.5536299228803163 1.1872632010180115
0.5328250024292985 1.196744549511807
0.5118577783209486 1.205861358022697
0.47200430770404933 1.168251656754152
0.43362521894981315 1.1296323160616142
0.4138443734240593 1.137028071150949
0.4102158746160172 1.1913534052551393
0.37391056319368643 1.1507783847171358
0.3537697627145112 1.1571287547152729
0.333521200538569 1.1631266520853658
0.3131710445740504 1.1687702498097725
0.2806293988956145 1.1255430424801558
0.26094322303888356 1.1302692751508727
0.25157314588948865 1.1835585968879048
0.2213384346367921 1.13868753279929
0.20143188609363905 1.1423769934941614
0.18146397944666787 1.1457184750903597
0.15448214206567243 1.0991975563031433
0.13527497117971374 1.1017262283218674
0.11602659422709559 1.1039193038587833
0.09674287444990054 1.1057761148818377
0.07603455638109675 1.0873448147832085
0.05704619230480869 1.0885061928824855
0.03978542624085123 1.139305542801769
0.01902312301663888 1.0898339877204666
