# .PCD v0.7 - Point Cloud Data file format
VERSION 0.7
FIELDS x y
SIZE 4 4
TYPE F F
COUNT 1 1
WIDTH 180
HEIGHT 1
VIEWPOINT 0 0 0 1 0 0 0
POINTS 180
DATA ascii
1.0225800772880399e-16 -1.67
0.03001813907212779 -1.7197380356689929
0.060027134328301854 -1.7189522224728446
0.09001784473786362 -1.717642799777867
0.11998113483989578 -1.7158101664468977
0.14990787752597198 -1.7134548807178023
0.17978895682036394 -1.71057766003343
0.20961527065685367 -1.7071793808230737
0.2393777336513126 -1.703261078235501
0.27688900312120873 -1.7482083628533938
0.30735727447046685 -1.7431097228316081
0.32819147204765725 -1.688398755529982
0.35760810820654626 -1.6824138732621456
0.3981633661886413 -1.7246350146698664
0.4282017552114118 -1.7174234355085138
0.4581097098314617 -1.709688712531651
0.4878781197960885 -1.7014332018108245
0.508726766217562 -1.6639702753756815
0.5624109297624044 -1.7309228596571795
0.5925340411120253 -1.7208438075907566
0.6122160565529472 -1.682049791206776
0.6414786296860877 -1.6711089634299912
0.6817840000169602 -1.687474615311553
0.7189452764202636 -1.6937289303524903
0.7483954232594727 -1.6809236420623854
0.7987485146899219 -1.7129217174992684
0.8066029100919025 -1.6537810451904673
0.8580420445077436 -1.6840023307160152
0.9107748318046283 -1.712918330146318
0.940530663277894 -1.6967622318504276
0.9699999999999998 -1.680089283341811
1.024925769071008 -1.7057629283972033
1.0545393358240778 -1.6876157113512877
1.1110636314306552 -1.710887958608665
1.1127938779067863 -1.649784769384533
1.1987747519736862 -1.7120277725639927
1.2284711772912689 -1.6908455182436402
1.2577933983877807 -1.669148215998842
1.317515557196909 -1.686343012718385
1.3467456368466522 -1.6630923575179177
1.4077048652135211 -1.6776373304305618
1.4695722249387364 -1.6905494596990094
1.4988525582438426 -1.6646444090693633
1.5958761625462465 -1.7113676617888585
1.6255005868740535 -1.6832551327924434
1.6899852070358488 -1.6899852070358485
1.7551891128263089 -1.6949664239199533
1.8210707170317348 -1.6981759165556214
3.5745266105462665 -3.2185182165861073
3.856565954938365 -3.3524616381414925
3.9527893264939267 -3.3167840659825427
4.126645055336515 -3.3416912764746365
4.263138177012366 -3.330728581511811
4.440413435862948 -3.3460915287253883
4.61948703788095 -3.3562537905900216
4.759273377319042 -3.3324790951995773
4.941063932428048 -3.3327897046856507
5.1662106985438125 -3.354976455692566
5.308781081939227 -3.3172945940998626
5.323008937360117 -3.1983864451914354
5.334716487312142 -3.08
5.343926410621708 -2.9621867797051196
5.3948097923680445 -2.868471248621793
5.444049862790928 -2.773881953408631
5.401752218257994 -2.634610592202355
5.401594410738434 -2.5188048399745684
5.399053654667772 -2.403813560577979
5.394158441231301 -2.289684412947144
5.433297387761375 -2.1951946374172437
5.424102277948742 -2.082117786858195
5.318660233648242 -1.9358340112232852
5.304359209112167 -1.8264373465046493
5.335427056415812 -1.733585338443455
5.317054443154477 -1.625586678258416
5.681056622995465 -1.6290167728784648
6.046695672569568 -1.6202072223417794
6.413654750684337 -1.5991037299138031
6.927771160623023 -1.5994019963848793
7.44370324158426 -1.582207967123149
8.108240535277703 -1.5760823018102605
8.774637079338774 -1.5472052630123496
9.689222621238303 -1.5346221020446649
10.754311226533453 -1.5114198764263103
11.970106588794344 -1.4697442814660782
12.292290626751857 -1.2919718059881957
11.316771770322228 -0.9900892376133956
11.332327610951603 -0.792433541733262
11.094774131123314 -0.5814524738591067
36.53772863581814 -1.2759255994434373
37.25432512152714 -0.6502766638531845
37.21 0.0
37.154340352011495 0.6485314232094561
37.03742404932769 1.2933753477946879
19.882714036963566 1.0420088887970131
11.930866041107498 0.8342874259797398
11.914488589177278 1.0423826832619931
9.408177130183866 0.9888392625120033
8.049549289811122 0.9883603750157456
6.941779161878408 0.9756034377300585
6.133544595095805 0.9714580278998337
5.426290719097266 0.9568014589447862
4.917952189072796 0.9559530668364897
4.509260439382844 0.9584728946698708
4.10209797274584 0.947043938787672
3.7938562897391463 0.9459146117947013
3.486992232903536 0.9343367528201004
3.2298392983527515 0.9261415155451169
3.069738266641344 0.9385131721599849
2.8626801140484117 0.9301411530685916
2.6569071974340805 0.9148465140246104
2.4995823712905163 0.9097735812462789
2.3899658918328366 0.9174219508359689
2.2345130895059575 0.9028018901323482
2.126366211475137 0.9025889068102226
2.018935461390148 0.8988879811975187
1.9123094306473312 0.8917245322728756
1.8515157353762839 0.9030445623854998
1.746372787409201 0.8898213794895117
1.712918330146318 0.9107748318046285
1.6530312464934578 0.916290182265577
1.5501854727741453 0.8949999999999997
1.4914711032216752 0.8961662503434944
1.43320128250436 0.8955635565541162
1.3754197314304952 0.8932080174246445
1.3181697403625163 0.8891167165184874
1.2614941482050472 0.8833077119806113
1.2458861713374192 0.9051892885304087
1.1899669099704662 0.8967043844965522
1.150495700265814 0.8988657539754611
1.1346331037271777 0.9188077709327624
1.1031039980913282 0.9256141579486167
1.0867817955207917 0.9447250017463302
1.0701285486874474 0.963548073156756
1.0531493303316055 0.9820776384899977
0.9998823224707247 0.9655751349380063
0.9475230867899738 0.9475230867899737
0.9308422164150563 0.9639153324537928
0.8797778844806231 0.9434462750887299
0.8631784822029273 0.9586568248658385
0.8463161473977544 0.973575358487376
0.8291960164956359 0.9881973316234817
0.7803572849017983 0.9636609922066439
0.7634202294038164 0.9771333344723352
0.7161598775509372 0.9503762569562786
0.699464450228043 0.9627302233061874
0.6538771374401923 0.9338333304894507
0.6374799099566513 0.9451028327127475
0.5936565481663797 0.9141509190605122
0.5776119980141934 0.9243724248105044
0.5613915016519592 0.9343123577653024
0.5449999999999999 0.9439676901250382
0.5284424860685075 0.9533354807819414
0.5117240034366208 0.9624128762162305
0.47215011972912874 0.9266467851559026
0.4778245500000942 0.9796855104660921
0.4395229922103274 0.942560098518116
0.4230061087988324 0.9500872759483048
0.4063603736288447 0.957325047590538
0.3895908571525487 0.9642712087494588
0.35478427004984714 0.9242446222322297
0.33859994189241216 0.9302956945780492
0.32231247291258497 0.9360633898433237
0.30592682443119795 0.941545951132202
0.28944798767550917 0.9467417084034052
0.2728809822588292 0.9516490789789357
0.23034895014124365 0.8596739853972707
0.20321439230372085 0.815048410071837
0.18895888564884672 0.8184708544195975
0.1850414048278057 0.870551364653087
0.1602795561162977 0.8245668340960377
0.1545468781235679 0.8764789001808653
0.13922667388580554 0.8790426231296726
0.1169054048064548 0.8318251777429191
0.10237024846032389 0.8337387673787104
0.0909397630428587 0.8652340489703978
0.0801832833278455 0.916499122244406
0.06068813215738914 0.8678807237260471
0.04553228193136106 0.8688076952364793
0.03036256213117594 0.8694700195066133
0.014660021407318036 0.8398720639313686
