# .PCD v0.7 - Point Cloud Data file format
VERSION 0.7
FIELDS x y
SIZE 4 4
TYPE F F
COUNT 1 1
WIDTH 164
HEIGHT 1
VIEWPOINT 0 0 0 1 0 0 0
POINTS 164
DATA ascii
1.0531962472667238e-16 -1.72
0.03001813907212779 -1.7197380356689929
0.0582821594931768 -1.6689826811218897
0.09001784473786362 -1.717642799777867
0.1164933111526895 -1.6659319639339063
0.14555009038858907 -1.663645145813215
0.17456253365698127 -1.6608515652650164
0.2035218034865963 -1.6575520732410076
0.23241907860330932 -1.6537476747984223
0.2612455566171856 -1.6494395287938801
0.28999245670377377 -1.6446289475303872
0.31865102227883 -1.6393173963575989
0.34721252366565825 -1.6335064932254553
0.37566826075425475 -1.6271980081913429
0.44513628790338855 -1.7853441363478335
0.6134011368929742 -2.289244208305092
0.5099291082614484 -1.77833413748589
0.5438113707842904 -1.778726846091246
6.1525283580052035 -18.935535239436508
6.449505139796275 -18.730722982622463
5.886166666634761 -16.172110003725482
5.235755742856838 -13.639610031124118
4.798710461657835 -11.877225177000547
4.477778732487077 -10.548985620564968
4.417159943803192 -9.921103669998644
3.9557069298929464 -8.483040886663042
3.774375573853957 -7.738616738635827
3.613764377926793 -7.092411932539409
3.478784280243451 -6.542641663084648
3.5681988050130413 -6.437201044545953
3.2907986308882022 -5.266378677131405
1.61213154364448 -2.482464881118455
1.6272513490998737 -2.412499336135171
1.669107429781544 -2.3837324488809664
2.488915709171733 -2.4035179617881304
2.4207807523594544 -2.25741457180687
2.3854948897824357 -2.1479092464119347
2.4980887105373752 -2.171555385958579
2.573909328879766 -2.1597663685467716
2.4946385362768764 -2.020118455269978
2.4901139813972417 -1.94549026202908
2.5236882117494455 -1.9017354731604725
2.435141153068592 -1.769233609400344
2.424690051095416 -1.6977862515990962
2.4124993361351716 -1.6272513490998732
2.3566642959266417 -1.5304356883922259
2.383015150199557 -1.4890731324953057
2.237206654832513 -1.344249375515241
2.173723763498941 -1.255
2.1515644795629134 -1.1926316658059892
2.2161984580759064 -1.1783736225925858
2.2364263757128033 -1.1395161543462624
2.3009127585258677 -1.1222301357800382
2.592040270924819 -1.2086882285784002
2.6127400088578385 -1.1632667991967884
2.6326438808739794 -1.1174910274793226
2.6053866313326726 -1.0526445274987124
2.623360998457137 -1.007013938222294
2.7345055264869935 -0.9952786170776962
2.751459054994012 -0.947403329470326
2.7200216366041388 -0.8837886039123495
2.7350316020542818 -0.836183075507027
2.701145365586676 -0.7745409698457675
2.714251571872282 -0.7272815167380832
2.67801620452175 -0.6677044318550825
2.6892613788072492 -0.620864909989067
2.650779997988613 -0.563440682116128
2.611128307970786 -0.5075519277016094
2.6195886230124734 -0.4619041525940348
2.5284821519235527 -0.400472230502991
2.5845996594154985 -0.3632417935057707
2.5409181482017846 -0.3119855191171774
2.54597605214278 -0.26759286596519266
2.600068162019456 -0.22747648857138755
2.503885766152159 -0.17508874909775418
2.556491608971709 -0.13398004798193638
2.50847097581793 -0.08759773672327754
2.509617714842542 -0.043805540157581674
2.51 0.0
2.4596253300847226 0.042932919835717495
2.4585014344669753 0.0858527618881525
2.406697178758523 0.12612965454549482
2.4041293611261763 0.16811310172334223
2.3510194874965196 0.20568755288447355
2.3967977678375387 0.2519135964750452
2.3920362254555863 0.29370511760640533
2.3370326422301058 0.32844851826575433
2.330944483804525 0.3691853374949448
2.3241462971088107 0.4098096992939556
2.316640152936487 0.45030922908864585
2.308428337731781 0.49067159032991214
2.328744454836712 0.5376330198818375
2.2704919994858317 0.5660972357032227
2.2602664335164193 0.6056365655398989
2.2301271345769 0.6394786654954379
2.15168570091683 0.6578363356261576
2.3015567694342716 0.7478211263873726
2.2881549529503467 0.7878749337863192
2.25526228988618 0.820848343981605
2.2592646321232284 0.8672504378996267
2.327231474962636 0.9402625494739394
2.264441939493003 0.9611985760836137
2.2473218258007983 1.0005721419664688
2.274832545461991 1.0607718369691554
2.211033353895951 1.0783930211011308
2.2364263757128033 1.1395161543462624
2.2161984580759064 1.1783736225925863
2.1952954649198833 1.216872146818306
2.173723763498941 1.2549999999999994
2.194348289797407 1.3184974717697389
2.1710031261604508 1.3565933164370045
2.188930182337556 1.421507881389221
2.122336185740907 1.4315338328851117
2.056071631165369 1.439676855241126
2.030632655881118 1.4753409832541073
2.0045751302187047 1.5105557081116416
2.0015473141610736 1.5637801473271722
1.9506363632569972 1.5795941815350913
1.9993759965405324 1.6776756612818677
2.082998441414851 1.8107229200137995
2.0510797183176077 1.8468004735504489
2.0185362164689105 1.8823154737724956
2.021344838951609 1.9519900209897827
1.9869700551341987 1.9869700551341984
1.9867229395127317 2.0573118289685426
1.9505153097787455 2.0916715866308273
1.9806265948222206 2.199708683413087
1.9419347258119015 2.2339403574594052
1.9026513246721568 2.2674915516321748
1.8942543770600104 2.339209343985482
1.9147071882627975 2.450713443716905
1.8716447220028698 2.4837564362470808
1.8280121346295914 2.5160428525060863
1.8411803606868575 2.629478062167664
1.8229688653146345 2.702662486529436
1.80275520589974 2.775999579899353
1.7805287278235684 2.849441603085591
1.7562798354432851 2.9229404953942026
1.7299999999999995 2.996447897094158
1.7016817670646431 3.0699151720592788
1.6713187635177706 3.14329343057778
1.6616052290467416 3.2610838785294267
1.6044383972480227 3.2895862094549515
1.5256519248839249 3.2717711112023062
1.4479824493498494 3.2522218292076586
1.4300759302707418 3.369047763635932
1.352329802231443 3.3471337149861022
1.3116266953357987 3.4169043609797587
1.1662886887405308 3.2043518368799475
1.093908998976046 3.1769424140137046
1.022846251381076 3.147997068936958
0.967750342632258 3.1653687422376477
0.9399233833359671 3.2779023831496676
0.9990415140957308 3.7284736894758033
0.9701068013546673 3.8908858623667455
0.935796386070479 4.053379469506579
0.8753082183427664 4.118001399089322
0.8223867700729085 4.230813160659431
0.7310588279777762 4.146040640181396
0.6742325443233952 4.256936747965043
0.4017972887661626 5.745968929496587
0.301455107959356 5.752106120186345
0.22719572353328202 6.506034283894313
0.11536040655044312 6.608993264983747
