# .PCD v0.7 - Point Cloud Data file format
VERSION 0.7
FIELDS x y
SIZE 4 4
TYPE F F
COUNT 1 1
WIDTH 180
HEIGHT 1
VIEWPOINT 0 0 0 1 0 0 0
POINTS 180
DATA ascii
9.919639073093561e-17 -1.62
0.02827289842839943 -1.619753266153354
0.056537184658051756 -1.6190131397709353
0.08478424911356923 -1.6177798463024098
0.11300548746548325 -1.6160537614209154
0.14119230325120619 -1.613835410908628
0.16933611049359862 -1.611125470496603
0.19742833631633894 -1.6079247656589417
0.22546042355530607 -1.604234271361344
0.2534238333651741 -1.6000551117641233
0.2813100478204273 -1.595388559879777
0.3091105725100028 -1.5902360371852158
0.34721252366565825 -1.6335064932254553
0.37566826075425475 -1.6271980081913429
0.39191347087146167 -1.5718790765671145
0.43222780532120963 -1.613096129902744
0.4603143842143886 -1.6053070322169924
0.4882607468869704 -1.597028942458269
0.5315092303249096 -1.635817208027664
0.5599772256663096 -1.6262919500308248
0.5882746465201504 -1.6162713077517623
0.6235602322088226 -1.624429942105131
0.6518154725436872 -1.61329990694621
0.6798721635713363 -1.6016784450072463
0.7077217589518926 -1.5895690962981253
0.756486688515852 -1.6222909387956035
0.7846843527524486 -1.6088413428755088
0.8126429945337889 -1.5949016782971785
0.8403540973867447 -1.5804761912174792
0.8678092202409434 -1.5655692757795183
0.9199999999999998 -1.5934867429633672
0.9476700578344999 -1.5771878332918865
1.0015474094007573 -1.6028109017356449
1.029367776178401 -1.5850873734168511
1.084834232733249 -1.6083328907567807
1.1127382865210294 -1.589154965920644
1.1696926520620214 -1.6099438188061455
1.1976118960725761 -1.5892846649941128
1.255949409664343 -1.6075419373577127
1.31527961729416 -1.6242350594450692
1.3434261042448672 -1.601032886118664
1.37116337059016 -1.5773430226655933
1.4319394976079567 -1.5903299265216237
1.527676326539997 -1.6382322916269418
1.556034749828154 -1.6113211527585787
1.619274528917194 -1.6192745289171937
1.6832551327924437 -1.6255005868740535
1.7479353468698178 -1.6299760805493715
1.8132733741648421 -1.6326786795156139
1.8414913757435636 -1.6007840307368377
1.9074506633662554 -1.600541148119483
1.973950742100706 -1.598473793266587
2.0803483895217463 -1.6253462948597377
2.148329522027218 -1.6188824122790098
2.2328869044748547 -1.6222872963272257
2.301817244452067 -1.6117497861464394
2.3710474575074194 -1.5992917039263357
2.4405313527211843 -1.5848995918937285
2.5526247694308424 -1.5950569853419467
2.6657903051835694 -1.601768412970268
2.7799415461480477 -1.605
2.9387222159883697 -1.6289603240276924
3.037339719434709 -1.6149821759834644
4.998546600696744 -2.5468867035388576
5.042234599738327 -2.459262133486724
5.039071295923773 -2.3497575352782882
5.033635471610731 -2.2411189033476586
5.0259564998503246 -2.133391961551434
5.01606465320632 -2.0266216703800835
5.003991086025001 -1.9208522095628098
4.848813923255287 -1.7648239395604508
4.878875850092475 -1.6799316769989285
5.002557275712507 -1.6254293904122232
5.412684918750782 -1.6548238487306899
5.5368673686047165 -1.5876711695059147
5.51543646811058 -1.4778567475353932
5.54038859703594 -1.3813740238741021
5.514934566684432 -1.2732229675862752
5.53631542015334 -1.1767801700285183
5.556009858313778 -1.079978913831244
5.524771494398487 -0.9741662767114794
5.540931590738723 -0.8775973488756952
5.505890462203131 -0.7738024413379636
5.568183910707817 -0.6836870165028771
5.529541738247599 -0.5811782557681527
5.538842521390105 -0.48458592967697883
5.496577916931631 -0.3843581703301297
5.502448736497701 -0.2883711188986209
5.506643456875217 -0.1922962268307806
5.459168415553896 -0.0952901391475681
5.39 0.0
5.369182122989821 0.09371942256821258
5.496649548605027 0.1919472318637556
5.512435031845247 0.2888944784610503
5.596334321957614 0.3913338177045435
5.588652256294693 0.48894371681436305
5.579267833016013 0.5864046789315368
5.568183910707817 0.6836870165028771
5.55540386564021 0.780761096385967
5.540931590738723 0.8775973488756952
5.4755311067478765 0.9654838678281328
5.408765780796628 1.0513575645247621
5.53631542015334 1.1767801700285183
5.563653069923693 1.2844705203034696
5.54038859703594 1.3813740238741035
5.563732759425033 1.4907976997905203
5.584930453401633 1.6014530372967648
5.556130632145236 1.6986796044391002
2.9102329398631697 0.945592002787339
2.798734983773978 0.9636817371931838
2.6687270430319794 0.9713372070448992
2.623360998457137 1.007013938222294
2.6517458240610114 1.0713748571695085
2.540593395528735 1.0784179146303958
2.4300309173293186 1.0819194705816289
2.320147934813824 1.0819027500561904
2.255973056210909 1.1003115784405846
2.147325723293967 1.094117104372308
2.039608939504121 1.0844793100354082
1.8017165967071553 0.9987078177074543
1.680089283341811 0.9699999999999996
1.620046198326992 0.9734219615800025
1.5180060921200027 0.9485554829774367
1.5012203166223088 0.9749038726768987
1.4425253762457726 0.9729956520390994
1.384366954848396 0.9693441774332682
1.3672387204936611 0.9933570763742796
1.2698304609751956 0.9568858868117571
1.252937098234688 0.9789017457677968
1.235662078716584 1.0006194217692412
1.1414062202472772 0.9577535384329436
1.1245172745319303 0.9775279531958556
1.0701285486874474 0.963548073156756
1.0531493303316055 0.9820776384899977
0.9998823224707247 0.9655751349380063
0.9475230867899738 0.9475230867899737
0.9308422164150563 0.9639153324537928
0.9138778024837481 0.9800139601696884
0.8631784822029273 0.9586568248658385
0.8463161473977544 0.973575358487376
0.7970566360113089 0.9498951094675328
0.7803572849017983 0.9636609922066439
0.7326371556375335 0.9377327967919991
0.7462506287085398 0.9903080324586432
0.699464450228043 0.9627302233061874
0.6825559592577446 0.9747909327039004
0.6374799099566513 0.9451028327127475
0.6208884999171309 0.9560844474577832
0.6041079612258535 0.9667748296183255
0.5871434053974618 0.9771707228004078
0.5449999999999999 0.9439676901250382
0.5284424860685075 0.9533354807819414
0.5117240034366208 0.9624128762162305
0.4948496447161061 0.971197111365321
0.4778245500000942 0.9796855104660921
0.4395229922103274 0.942560098518116
0.4230061087988324 0.9500872759483048
0.4063603736288447 0.957325047590538
0.3895908571525487 0.9642712087494588
0.3727026675271122 0.9709236435570898
0.3557009490586956 0.9772803256173447
0.32231247291258497 0.9360633898433237
0.30592682443119795 0.941545951132202
0.28944798767550917 0.9467417084034052
0.2728809822588292 0.9516490789789357
0.25623085465149575 0.9562665680261775
0.239502676643671 0.9605927690132365
0.22270154380042648 0.9646263641373829
0.19543698936869366 0.9194587446897773
0.18890090542277946 0.9718109116131873
0.17191169589026092 0.9749596754820861
0.14704839713781706 0.9284270401594295
0.13082271490246133 0.9308519846170761
0.11821326310299306 0.9627697670920823
0.10139260936962406 0.964686238507225
0.0845410704652284 0.9663088571489932
0.06557108531947792 0.9377102072442347
0.05076587755565543 0.9686706487119366
0.033852511801426045 0.9694091022085228
0.016928834244164876 0.9698522643016995
