# .PCD v0.7 - Point Cloud Data file format
VERSION 0.7
FIELDS x y
SIZE 4 4
TYPE F F
COUNT 1 1
WIDTH 179
HEIGHT 1
VIEWPOINT 0 0 0 1 0 0 0
POINTS 179
DATA ascii
3.637200993467639e-16 -5.94
0.10366729423746458 -5.939095309228964
0.22894069836840708 -6.556003825245268
0.3433238729537124 -6.551009747990004
0.46109029144866925 -6.5938983722174385
0.5717416724246374 -6.5350372194818505
0.42961198403005574 -4.087484989963603
0.48260259988438403 -3.930482760499635
0.5511254798018592 -3.9214615522166185
0.6163517922585098 -3.891492061944843
0.678964374677698 -3.8505983142777334
0.7556036216911178 -3.8872436464527493
0.8233302956383274 -3.87346449890587
0.8908061752017059 -3.8585054565495316
0.958010706574684 -3.842371076052946
1.0766872276264863 -4.018251437362524
1.1604332679895664 -4.046911739900323
1.2308848768827219 -4.026043022604379
1.316412396037276 -4.051500759417354
1.4031987457103454 -4.075185060833054
1.217591710239381 -3.3453057299978335
1.2757899003812694 -3.323546318330038
1.3335994725606475 -3.300774522257763
1.3910028174218145 -3.276997278290688
1.4479824493498494 -3.2522218292076586
1.41999735944875 -3.0451941644431435
1.4729270532113001 -3.0199479955652007
0.6991453695989022 -1.3721500472500865
0.7323756379459898 -1.377398244859926
0.7078220455596522 -1.2769447724235177
0.7299999999999999 -1.2643970895252805
0.7262036856231765 -1.2086058939899782
0.7206901993571587 -1.1533454107727394
0.7134771358696855 -1.0986584440085054
0.5927444776789917 -0.8787798269083442
0.5506333788970041 -0.7863859625174321
0.5936631048153979 -0.8171071643186969
0.6379239245411712 -0.8465536406501304
0.652601163845198 -0.8352913988231253
0.6985456340653196 -0.8626320172172378
0.6813548662677318 -0.8120071097061168
0.7282255221794631 -0.837727634047277
0.7761915033762755 -0.8620479975537773
0.7911180976724983 -0.8483702938782376
0.8058037097324368 -0.8344341683928352
0.8202438661763951 -0.820243866176395
0.8560143624029949 -0.8266434608462067
0.8483702938782378 -0.7911180976724982
0.8992052388276471 -0.8096480336942183
0.9509340710806927 -0.8266343765280392
1.0035182204858613 -0.8420517686893665
1.0569185075814804 -0.8558757318277789
1.071694624905142 -0.8372996064428951
1.0861442936643184 -0.8184684314867857
1.140713962068676 -0.8287772057323871
1.114046780233029 -0.7800639534374226
1.1689429773026088 -0.7884619938937529
1.2663925575975903 -0.8224049428726907
1.3229550300040247 -0.8266740522037996
1.3371809890952953 -0.8034593968596844
1.437602170282168 -0.83
1.4518687138513968 -0.8047839696089195
1.4656930041458187 -0.7793227942245787
1.5681714825715276 -0.7990232795416023
1.6268172238014924 -0.7934517756882301
1.7310478732400012 -0.8072008799247358
1.7448718240973677 -0.7768669882747783
1.850214755439405 -0.78536956826344
1.9563579331359213 -0.7904199121075741
2.063212742558816 -0.7919931684951137
2.0767206919368575 -0.755864516749728
2.278699767194354 -0.7846192522417477
2.3871518559008353 -0.7756326558811178
2.448140175265371 -0.748471564090206
2.605019195992844 -0.7469772342640676
2.810844154501189 -0.7531634212483352
2.9691049224045494 -0.7402810005349829
3.127727907960605 -0.7220928844438063
3.3843906985389673 -0.7193744502294475
3.5436741322460668 -0.6888204733093269
3.801357926627123 -0.6702819657943512
4.108783496875773 -0.6507673745673604
4.466108990024482 -0.627670685329895
5.766693141036081 -0.7080608851839065
5.728446117321254 -0.6020839484216834
6.335798279863502 -0.5543105238751054
7.541584219964271 -0.5273589415055863
7.699433712957764 -0.4035102226330975
7.7053032763172284 -0.26907511957628283
7.708825729655777 -0.13455805363145606
7.71 0.0
13.657919515836305 0.2383998719332931
13.701648238431805 0.47847209979128896
14.689840456239782 0.7698619163337048
14.674167179322016 1.0261177287760848
13.807258515551593 1.2079785944825439
13.784073469804268 1.448764500889679
13.70706235416666 1.6830156324250862
13.725115432758164 1.9289391793065065
13.689360400648608 2.1681816854575997
10.365983057207332 2.014942991176314
6.856814681143977 1.4574609526324933
6.343149121751881 1.4644313637785618
5.8799921012325385 1.466046687333987
5.418843885481673 1.4519748430251425
4.960110351041726 1.4222887560157154
4.599825876182201 1.4063078997163634
4.289264888491142 1.3936666446310126
3.9806332032731238 1.3706419302646298
3.8621366714300835 1.4057027890684988
3.650299467604059 1.4012186827221242
3.578929678627799 1.4459814505854207
3.5991739769990416 1.527758712393061
3.6176400122646992 1.6106771065801693
2.5467248815729864 1.1875573154913652
2.3907921631557842 1.1660672504589464
2.2364263757128033 1.1395161543462624
2.1279036987900137 1.1314264663139972
2.0641025088489737 1.1441507037813554
1.9572174125528312 1.1299999999999994
1.894339734551668 1.13823414555122
1.789381482890059 1.1181296475320623
1.7276613699675734 1.121956412130956
1.6249136422078818 1.0960180908026638
1.6055380068064238 1.1242098152480506
1.5047716095374024 1.0932805692640002
1.4455302731856 1.0892851919052078
1.4262994640281668 1.1143472703394415
1.3289195940914205 1.0761378686952217
1.3099359977334524 1.0991668125639822
1.29055338218094 1.1218609395737673
1.1964631690186047 1.077300276237762
1.140911774525906 1.0639174416974977
1.1221700885282955 1.083667057916036
1.067731239591687 1.0677312395916867
1.0489341393930858 1.0862030985113635
1.0161775564931228 1.089717015412564
0.9769306852839331 1.0849914451969953
0.9250432308766152 1.0641405081141084
0.9063305296580206 1.0801226647977589
0.8558757318277789 1.0569185075814804
0.8372996064428955 1.0716946249051418
0.7883776803291831 1.0462125181619537
0.7993879431177635 1.1002631123499287
0.6940274879847655 0.9911739735896802
0.6766234131996036 1.0031354627916005
0.6590132323681829 1.014791387213963
0.6147063465105176 0.9837357915414541
0.6231960706411657 1.0371724338495558
0.5799999999999998 1.0045894683899488
0.562379159485751 1.014558860281699
0.5211134346923386 0.9800718280734091
0.5402486946900608 1.0602977637841577
0.5304290876147835 1.087540796021992
0.4902371836192113 1.0513170329625139
0.4718145059679284 1.0597127308654168
0.45324810904755747 1.0677856300048307
0.4345436483624581 1.0755332712974732
0.41570682147254817 1.082953294736754
0.3967433662577758 1.0900434401116537
0.3613806514474438 1.0495256189152418
0.3430088637561917 1.0556727330876206
0.32453259224223757 1.0614982791189695
0.3059574649568691 1.067000482491534
0.2872891400637983 1.0721776671808658
0.2515987714236544 1.0091075553270363
0.2272005648873038 0.9841137654330876
0.2203863922668248 1.036836456777834
0.19271708533031037 0.9914434552821406
0.10592538837682743 0.6007327293374469
0.08760330042252933 0.5531054707332772
0.07515347451843524 0.534744757120448
0.06580944543877965 0.5359749218863139
0.06167179332791567 0.5867679182672813
0.051421888221118296 0.5877548718741299
0.04115631950903401 0.5885627896532962
0.03087821418333681 0.5891914255051985
0.018845728219350585 0.5396710465903117
0.009424299476133024 0.5399177553844513
