# .PCD v0.7 - Point Cloud Data file format
VERSION 0.7
FIELDS x y
SIZE 4 4
TYPE F F
COUNT 1 1
WIDTH 179
HEIGHT 1
VIEWPOINT 0 0 0 1 0 0 0
POINTS 179
DATA ascii
1.2062770971601428e-16 -1.97
0.03438124068144869 -1.9696999594580908
0.06875200850392713 -1.9687999292276186
0.10310183379859961 -1.9673001834665105
0.13742025327592713 -1.9652011790118535
0.17169681321288652 -1.9625035552407386
0.20069464947389462 -1.9094820391070846
0.24008260650814056 -1.9553159187334044
0.27417100889132895 -1.9508280954208936
0.3081758961292549 -1.9457460309724215
0.34555987355719153 -1.9597674284942939
0.37016945103049714 -1.904356735888468
0.40750691400280853 -1.9171692974382588
0.4409040665139757 -1.909765326979061
0.48626301015533197 -1.9502944098147528
0.5202262806560667 -1.9415109108410271
0.5623002058666783 -1.9609738597141706
0.5876671264927008 -1.922172559485701
0.6211241586936443 -1.9116235977532583
0.654391990458885 -1.9004923369546265
0.7045614952508777 -1.9357667988189713
0.7382379760633188 -1.9231756785842355
0.7904199121075747 -1.956357933135921
0.8244426811123675 -1.942265240784649
0.8500795840284228 -1.9093100064730355
0.9128554453599108 -1.957624819999164
0.9468816770644074 -1.9413951400062006
0.9806194794374213 -1.9245740922468748
1.0375321537568187 -1.9513141802182283
1.071429260744405 -1.9329095527780646
1.1299999999999997 -1.9572174125528312
1.1279333840530188 -1.8771963885376257
1.197617537167043 -1.9165886973135224
1.2581161708847126 -1.9373290119539293
1.263775961843888 -1.873624913974394
1.3249615679709164 -1.892241222307571
1.357783932795613 -1.8688292570061287
1.4202834546388339 -1.884779803711611
1.4529610817685537 -1.8597053785118636
1.4851961228776163 -1.8340644690384513
1.5491181393445599 -1.8461671079167372
1.5811022598671227 -1.8188500883368806
1.679517821960734 -1.8652935119482594
1.7459158017599965 -1.872265476145076
1.8130583468979828 -1.8774768788838792
1.845548698896889 -1.8455486988968888
1.9134438689008122 -1.8477912654209327
1.9454008463069938 -1.814115637766246
2.051079718317608 -1.8468004735504482
2.120733920425989 -1.8435258714633256
2.190887107320277 -1.8383725637035022
2.2614947478397855 -1.831322337955027
2.332511830675897 -1.8223579669639483
2.3639611097399866 -1.781372468530063
2.475592002787339 -1.7986228720149677
2.5475628577387646 -1.783822717051753
2.619758729273932 -1.7670495749675599
2.734066051502082 -1.7755232541489878
2.8070391982777703 -1.7540327646119083
2.922940495394203 -1.7562798354432843
3.039749167283379 -1.755
3.1573771427732185 -1.7501627290892767
3.187440810220726 -1.6947923416570658
3.394734857157682 -1.7297038040076733
3.4693450187147845 -1.6921126266058388
3.6796096153687983 -1.7158301426672393
5.490408200432031 -2.4444872248855587
5.440183683903923 -2.3092209693716073
4.645191111379605 -1.8767790330137186
4.63055891542612 -1.7775050297446895
4.61389076805881 -1.6793189037290337
4.642496206192646 -1.5985396383846395
4.669687495009204 -1.5172734423809917
4.599825876182201 -1.4063078997163634
4.623668757463314 -1.3258156814797657
4.646103224450418 -1.2449196069431243
4.861181588642742 -1.2120286969543348
5.222623547248861 -1.2057376512831157
5.58522280019003 -1.1871757545694062
5.997742090865227 -1.1658429617506891
6.411098472109474 -1.1304496366117165
6.874310850542159 -1.0887838766800069
7.486426599686271 -1.0521486432580944
8.148803904975255 -1.0005473093562605
9.507629319720694 -0.9992921088387664
9.4738115788525 -0.8288511135302282
9.835981535561867 -0.6877988311170742
11.294500038074231 -0.5919196651076956
14.607774826234875 -0.2549796580487125
15.21 0.0
22.656548772243827 0.39547152986884493
3.2879958208928253 0.11481934415122835
3.285491169342548 0.17218529603928545
3.3318639278678126 0.23298662230537884
3.277480556721843 0.28674239363979576
3.271977035761619 0.34389864415058036
3.2654768388999496 0.4009501398029351
3.2579819461597666 0.4578795021586152
3.2494946405580034 0.5146693899823596
3.2400175074101645 0.5713025045242008
3.2295534335428147 0.6277615947888326
3.2670129864509105 0.6944250473313164
3.2543960163826857 0.7513365215085094
3.240787725761828 0.8080191313028906
3.2261922598054875 0.8644556106424198
3.258677149230901 0.934410636219627
3.2418731227146904 0.9911400790100775
3.1004442431222 1.0073954016623285
2.8460109125539437 0.9799601449160416
2.5465670023298115 0.9268745884125623
2.4179733046277523 0.9281729893223278
2.3086877978713005 0.9327704176056213
2.356492424838247 1.0002716889325411
2.110290007154408 0.9395616455050988
2.0935709880546614 0.9762481846210156
2.121153949266034 1.034555906422223
2.102775397084548 1.0714175793853304
2.1279036987900137 1.1314264663139972
2.0641025088489737 1.1441507037813554
2.0871212231204974 1.2049999999999996
2.0657731946920905 1.2412417605332309
2.086198316544808 1.303601390013684
2.063129597145743 1.3398120261369668
2.0808843071131546 1.4035741877115744
2.056071631165369 1.439676855241126
2.0710835055998653 1.5047302458687313
3.0827330687825496 2.3230059893669073
2.962920433561274 2.314887147224475
2.922068815078211 2.366244670347388
4.029393770805824 3.381062826951197
4.007507870982919 3.4836734439395927
3.983256264558833 3.5865400500834808
3.956623525759713 3.6896111279381167
3.9635622998659668 3.8275676212290755
3.966869042456532 3.9668690424565316
3.9664992953208738 4.1074302599336985
3.962410471963116 4.24916500640738
3.9211053532629103 4.3548286772975295
3.9101118127834233 4.498069098127721
3.895292914700429 4.642229325301006
2.9011670027397507 3.582642882316636
2.8689824750175683 3.672130111807324
2.864639510203749 3.8015050278251143
2.7096900130683013 3.729568344068508
1.4970344988762299 2.1379868355942686
1.459493478058649 2.1637880643686587
1.4487398331399723 2.2308637107348277
1.4360812060719852 2.2982103405839145
1.4215050867517496 2.3657817499378297
1.4049999999999998 2.4335313846342728
1.4107959949168412 2.5451433477756416
1.3896358258462362 2.613524874862424
1.4119104541899907 2.771030290225824
1.385252823853484 2.840189186305368
1.3777355332746801 2.9545633857394784
1.3666351207346892 3.0695127376791382
1.351929704572887 3.1849467929454436
1.3148691428898516 3.254415329529423
1.2937082978585335 3.370225339654898
1.5938138678976168 4.378967612862333
1.5008691920474917 4.358840633512851
1.4709208932247497 4.527029017564931
1.494019411133184 4.886717302971112
1.3947250204340156 4.8639841814478935
1.309624368218756 4.887584681022685
1.2967013604142188 5.200785092839341
1.194490098565924 5.173905044009599
1.1040110782423014 5.193963759896508
1.0036553156806263 5.163358984934712
0.9133894145280529 5.180088780844215
0.8150235628596031 5.145856254500668
0.7250918560019399 5.159296638143582
0.6288458119705611 5.1215381424692215
0.5341404472977104 5.082006885331877
0.4453658454405331 5.09055490724882
0.3564555808324811 5.097552296827702
0.26743673640144255 5.102996922595873
0.17659145331465545 5.056917584716624
0.08830917657265387 5.059229337491339
