# .PCD v0.7 - Point Cloud Data file format
VERSION 0.7
FIELDS x y
SIZE 4 4
TYPE F F
COUNT 1 1
WIDTH 180
HEIGHT 1
VIEWPOINT 0 0 0 1 0 0 0
POINTS 180
DATA ascii
4.2250314570583685e-17 -0.69
0.011693112312980012 -0.6698979557547822
0.023382662790675725 -0.6695918541027942
0.03768188849491966 -0.7190132650232931
0.050224661095770326 -0.7182461161870733
0.06275213477831386 -0.7172601826260567
0.07003407038932782 -0.6663296698967431
0.0779963797792944 -0.635229537050446
0.09602943966244516 -0.6832849674316835
0.1001180576257478 -0.6321205379808882
0.11113483370683547 -0.6302769619278131
0.131658206809816 -0.6773227565788881
0.13306348212336605 -0.6260144644696356
0.15521622749726693 -0.6723153447018123
0.1548300131837873 -0.6209892648166377
0.1785851411207393 -0.6664888201394571
0.1901897755137294 -0.66327057019744
0.20173647625868835 -0.6598502816144944
0.21322172611871373 -0.6562289962436559
0.22464202657543814 -0.6524078171635285
0.23599389889471148 -0.6483879083422767
0.24727388518625723 -0.6441704942830692
0.2584785494569794 -0.6397568596510832
0.28914103508206257 -0.6811735915548058
0.3009851158760923 -0.6760236386555245
0.3127375136881176 -0.6706677624071209
0.3243946486239173 -0.6651075942613836
0.3359529698072647 -0.6593448278993922
0.3474089564615592 -0.6533812187156058
0.35875911898228946 -0.6472185832831528
0.36999999999999994 -0.6408587988004847
0.38112817543344013 -0.6343038025195631
0.39214025553257165 -0.6275555911557552
0.4302648376618714 -0.662549748676885
0.4417623937418901 -0.6549396823184829
0.4531253847173264 -0.6471301149883035
0.4937396119256774 -0.6795742752749558
0.47543386829011813 -0.6309220529373614
0.517155639273553 -0.6619290330296463
0.5286291284818634 -0.6528026076238556
0.539941592136693 -0.6434773322199415
0.5838925358015515 -0.6716915263982671
0.5620697093414408 -0.6242416534010111
0.5728786224524988 -0.6143371093601031
0.6182459497085075 -0.6402124223013995
0.6293250352560273 -0.6293250352560272
0.6402124223013995 -0.6182459497085075
0.6874724795220203 -0.6410784584587486
0.6985561359487507 -0.6289827699773266
0.7471624844205443 -0.6494984387006022
0.7583839986877883 -0.6363597335896739
0.7693745018424012 -0.623027187139339
0.8195311837509909 -0.6402879343386846
0.8705127059515493 -0.6559783752357327
0.8818285238686928 -0.6406859249987957
0.8928757282750012 -0.6251983156226403
0.9451028327127475 -0.6374799099566513
0.9560844474577833 -0.6208884999171307
1.009177234426147 -0.6306039244375138
1.0628874528706194 -0.638647212888467
1.117172770881926 -0.645
1.1719904075667904 -0.6496448911300917
1.1831497744309623 -0.6290918941330937
1.2563191991055986 -0.6401266046327609
1.4290825336156756 -0.6970101233946331
1.5316601600919384 -0.714224862341782
1.5895690962981257 -0.7077217589518923
1.6937289303524903 -0.7189452764202635
1.7245619694942247 -0.6967682637535961
1.8298176359345153 -0.7024011811087886
1.8417975367403803 -0.6703594809183108
1.9950441945145585 -0.6869488059046006
2.054282075197532 -0.6674767078498864
2.1421226533572 -0.6549126185789304
2.1532261989018346 -0.6174276770300781
2.134696076098841 -0.5719900896765707
2.241383127697552 -0.5588395788352322
2.4456688626109404 -0.5646271464031007
2.601872617951923 -0.55304509757524
3.200104618039384 -0.6220373249275362
3.5059156007234606 -0.6181875124942721
3.4964167257067875 -0.5537780062424172
3.673894535031226 -0.5163322045618427
4.0297373756637676 -0.4947895342248985
4.535019842879326 -0.4766497925004994
5.0407451723442325 -0.4410080583031498
5.745968929496588 -0.401797288766161
12.642649909992905 -0.6625732060356698
9.953932637110194 -0.3475989871569102
9.758513504726379 -0.1703354868278873
8.01 0.0
7.858802883929235 0.1371759145970486
7.755272817668183 0.27082009441140786
7.699433712957764 0.4035102226330975
7.7909752325292265 0.5447980599416193
8.02932926661947 0.7024752865461259
9.507629319720694 0.9992921088387685
7.751785444318725 0.9517995719942014
7.783507020308743 1.0939005735461143
7.763230357077783 1.2295748952162147
7.740588938675955 1.3648746764620727
7.568345584381489 1.471137354353161
7.590425381694331 1.6133947207458128
6.002119599077049 1.385698494758209
5.44335902440834 1.3571818343141366
5.080769846280498 1.36138817723926
4.67173184226023 1.3395975492706158
4.31293444939329 1.3185963882995426
4.003947933602596 1.3009615463185285
3.744253559373295 1.2892498916503405
3.533244254155015 1.2859957389045145
3.5102624036294783 1.347463490290329
3.3934929077144416 1.3710601319022384
3.184946792945443 1.3519297045728875
3.023835464797009 1.3462982885808992
2.818617217683981 1.314342794013575
2.4806715677857003 1.209904365137854
2.414627680550477 1.2303142542941718
2.3486405970047457 1.24879435701047
2.326488420990793 1.2895935898552566
2.217025033688163 1.2799999999999996
2.1514899247623016 1.2927455680242361
2.086198316544808 1.303601390013684
1.9792625403512003 1.2853481226354642
1.9150767926021464 1.291735607017425
1.8103260178786715 1.2676039243358121
1.7474767078498865 1.269616144951742
1.6691482159988418 1.2577933983877811
1.6075419373577127 1.2559494096643429
1.4843487863828146 1.2020019469051892
1.3712195531829707 1.1505898213389054
1.350930148598762 1.174345661893008
1.2930719963306658 1.1642872550644134
1.2359877557363983 1.1525772285056224
1.21568426257232 1.1739726460757056
1.159655121145938 1.1596551211459378
1.1392397275527553 1.1797172725553882
1.0843773924993727 1.162852385574481
1.030461133792642 1.144443031235187
1.0103309046453812 1.162252753543069
0.9577535384329439 1.1414062202472772
0.9062213631117658 1.119090184498038
0.8865525244689481 1.1347354851936795
0.8666136333389494 1.1500351344681017
0.8170215006865376 1.1245336221811768
0.7972712465279538 1.1386213415616986
0.7493184906508007 1.110910347223756
0.7298163069201364 1.123818561046868
0.7100918140724947 1.1363844488496109
0.66439911663397 1.105745817905725
0.6699999999999999 1.160474041071148
0.601163929105458 1.0845284368528507
0.6056183159937989 1.139002394788016
0.5629482196770381 1.1048480899935762
0.5654987793579096 1.1594443197259254
0.5240466445584673 1.123821655925446
0.5043534374139924 1.1327963674768249
0.4649700429022357 1.095400775608404
0.4457818461649355 1.103348786934477
0.42645785995890717 1.11096070753167
0.4070039705575459 1.1182342187352308
0.37114769608115844 1.077891176183221
0.36773022330618743 1.1317572543912326
0.34207489452560175 1.1188765644767515
0.322495706305889 1.124676184247833
0.29505371141687387 1.1011554419695377
0.2757909609836211 1.106137127954636
0.2631927335823222 1.1400129757987252
0.22662374299135757 1.0661808847998482
0.21370607482173032 1.0994224454613837
0.19795892254030042 1.122680838433917
0.17833529014586325 1.125964708278457
0.1558738730752731 1.109100236990559
0.13283758431161077 1.081875305289041
0.11707187885977213 1.1138645228124662
0.09761443187737713 1.115738061862755
0.07812725059342052 1.1172717362910032
0.05599947317994981 1.0685336021873941
0.03908743630680121 1.1193177262613874
0.018674074887893213 1.0698370338173386
