# .PCD v0.7 - Point Cloud Data file format
VERSION 0.7
FIELDS x y
SIZE 4 4
TYPE F F
COUNT 1 1
WIDTH 179
HEIGHT 1
VIEWPOINT 0 0 0 1 0 0 0
POINTS 179
DATA ascii
6.062001655779399e-17 -0.99
0.01780145456602927 -1.0198446490595192
0.033852511801426045 -0.9694091022085228
0.05338267536780285 -1.0186021254496653
0.06557108531947792 -0.9377102072442347
0.0888988576026113 -1.0161185920535805
0.10139260936962385 -0.964686238507225
0.11455718280083864 -0.9329933825428426
0.1419565629792668 -1.0100734301164018
0.1548701203898286 -0.9778114571891864
0.16322928700691458 -0.9257192878314755
0.1793604556539522 -0.9227295524408041
0.20583257390958185 -0.9683661247264675
0.22270154380042648 -0.9646263641373829
0.239502676643671 -0.9605927690132365
0.2432899023963695 -0.9079702767117241
0.2728809822588292 -0.9516490789789357
0.2836005535810547 -0.9276156132841443
0.30592682443119795 -0.941545951132202
0.3223124729125852 -0.9360633898433236
0.32149893472612867 -0.8833110635387538
0.35478427004984736 -0.9242446222322297
0.3708605274817531 -0.9179120160211194
0.38682381720438097 -0.911299804917916
0.4026692766450424 -0.9044100030661747
0.41839207912329246 -0.8972447091662834
0.43398743532118667 -0.8898061058361753
0.47215011972912874 -0.9266467851559026
0.46477684715803197 -0.8741181169303376
0.47996152404387377 -0.8658735100680017
0.5199999999999999 -0.9006664199358163
0.5356395979064564 -0.8914539927301968
0.5511160348025331 -0.881970020002683
0.5664245964156281 -0.8722173906632409
0.6095202647831142 -0.9036509540849954
0.596519493805088 -0.8519181260605515
0.6406859249987957 -0.8818285238686928
0.6559783752357327 -0.8705127059515493
0.6710710081049677 -0.8589317214313269
0.6859592262443228 -0.8470890979880984
0.7327778750426548 -0.8732906651556349
0.7479072930491782 -0.86036892145396
0.7628088912490983 -0.8471851010442294
0.8115780484743733 -0.8703109049268126
0.8266434608462067 -0.8560143624029948
0.8414570696119916 -0.8414570696119914
0.8560143624029949 -0.8266434608462067
0.870310904926813 -0.8115780484743732
0.9586568248658387 -0.863178482202927
0.9358398794762373 -0.813513195948229
0.9498951094675328 -0.7970566360113087
1.0025182902794925 -0.8118233044542903
1.0559344098330075 -0.824986376936382
1.0701715834633725 -0.8064321310237448
1.1245336221811768 -0.8170215006865376
1.1386213415616986 -0.797271246527954
1.1523622258515078 -0.777278135824338
1.2076856178414106 -0.7842802104216388
1.2635916632730748 -0.7895797037074753
1.320037643081253 -0.7931586353614832
1.3769803920172574 -0.795
1.3906453343516394 -0.7708472961916759
1.4480340522886401 -0.7699333629688608
1.4612506996689232 -0.7445444195728567
1.5189619382455923 -0.7408472380735408
1.5316601600919384 -0.714224862341782
1.6352463691802557 -0.7280585911056823
1.6937289303524903 -0.7189452764202635
1.7523774851312282 -0.7080064615560735
1.8111460274045714 -0.6952338221178826
1.8699883153639576 -0.6806200852180808
1.9477682657345927 -0.6706703981817428
2.054282075197532 -0.6674767078498864
2.1134335106783086 -0.6461414674372481
2.1724514328206004 -0.6229404241464179
2.279584950042201 -0.6108129464419488
2.4354422729527507 -0.6072239579551657
2.4943873658502023 -0.5758746991202941
2.650779997988613 -0.563440682116128
2.758372385487936 -0.536173277008091
2.9150309489161357 -0.5139986058941138
3.0717107392508782 -0.48651118627511797
3.277787307534598 -0.4606629641778165
3.4342096846789745 -0.4216679281818101
3.6399501370478804 -0.38257417555961143
3.9449310044433124 -0.34513674128072597
4.199744651593861 -0.293674754462767
4.953202492382686 -0.25958634296500177
5.10688712606758 -0.1783364281497802
5.409176030796077 -0.09441751882570393
5.96 0.0
6.658985649741566 0.11623302687230835
7.505425110913409 0.26209522023578263
8.59820029423688 0.45061258325174697
9.885859738074858 0.6912866548042828
12.312966468413974 1.0772449803610564
15.226130218088265 1.600330772627777
20.15861233983525 2.4751663645585444
20.112344476141292 2.826605680498928
25.689773738879534 4.068860435696405
25.910291981751193 4.568683554416937
25.67936711899089 4.991563319050414
11.897058491027723 2.746652373538593
9.712660220022725 2.421638174952675
8.026843616462157 2.150786264801949
6.786507573324531 1.9459997320680136
5.93865253453045 1.815628286328195
5.525638359674842 1.7953887373184443
4.59522027741268 1.5822612306617816
4.331982981823038 1.5767128607313332
4.257126744827239 1.6341578499265694
3.439852100442781 1.3897904615730339
3.2769972782906875 1.391002817421815
3.023835464797009 1.3462982885808992
2.818617217683981 1.314342794013575
2.5705509724156173 1.2537414798167619
2.414627680550477 1.2303142542941718
2.260345837718853 1.201847200731881
2.1515644795629134 1.1926316658059892
2.0005186827420536 1.1549999999999996
1.894339734551668 1.13823414555122
1.789381482890059 1.1181296475320623
1.7276613699675734 1.121956412130956
1.6249136422078818 1.0960180908026638
1.5891549659206439 1.1127382865210298
1.4885912696499033 1.0815248642181505
1.429557562984654 1.0772488914421667
1.371138711275696 1.0712509670666455
1.313376674862281 1.063551460874225
1.2563128867151239 1.0541716798859244
1.1999882325542075 1.0431338560949064
1.144443031235187 1.030461133792642
1.0897170154125642 1.0161775564931228
1.0358493124876573 1.000308053460956
0.9828784258493011 0.9828784258493009
0.965575134938006 0.9998823224707253
0.9138778024837481 0.9800139601696884
0.8631784822029273 0.9586568248658385
0.8463161473977544 0.973575358487376
0.7970566360113089 0.9498951094675328
0.7488912653493065 0.9248036941337954
0.7326371556375335 0.9377327967919991
0.7161598775509372 0.9503762569562786
0.6700751876134193 0.92227937358744
0.6538771374401923 0.9338333304894507
0.6374799099566513 0.9451028327127475
0.5936565481663797 0.9141509190605122
0.5776119980141934 0.9243724248105044
0.5356395979064564 0.8914539927301968
0.5199999999999999 0.9006664199358163
0.5042020050561906 0.9096044954249716
0.48825042529732626 0.918265496573284
0.4494505947421514 0.8820964589464843
0.43398743532118644 0.8898061058361754
0.41839207912329246 0.8972447091662834
0.4026692766450424 0.9044100030661747
0.36728726077991725 0.8652745622452939
0.35213019781095745 0.87155282329278
0.3189474750953171 0.8308865795825096
0.32149893472612867 0.8833110635387538
0.2897556574668693 0.841511532283392
0.27502512499370324 0.8464402995026866
0.2602108172032355 0.8511112328071017
0.24531724667712926 0.8555229093851038
0.23034895014124365 0.8596739853972707
0.21531048708370423 0.8635631963856368
0.20020643836604 0.8671893576588594
0.17464582028691775 0.8216439846163968
0.1602795561162977 0.8245668340960377
0.14586446924022137 0.8272385125302548
0.13140495063379398 0.8296582060999157
0.1169054048064548 0.8318251777429191
0.09627678129006652 0.7841114597966444
0.08780390914482909 0.8353983921093495
0.07321082390803284 0.8368035463970662
0.055107614257859115 0.7880755997052612
0.04134540543192556 0.7889173324561134
0.027570602394975854 0.7895187533450857
0.014660021407318036 0.8398720639313686
