# .PCD v0.7 - Point Cloud Data file format
VERSION 0.7
FIELDS x y
SIZE 4 4
TYPE F F
COUNT 1 1
WIDTH 179
HEIGHT 1
VIEWPOINT 0 0 0 1 0 0 0
POINTS 179
DATA ascii
5.3272135762909864e-17 -0.87
0.01431097327857255 -0.8198751100282408
0.027919597362000864 -0.7995126616152767
0.04029868630706686 -0.7689447417610219
0.05231735530809409 -0.7481730376948681
0.06710992191569677 -0.7670699175306441
0.07735106281806356 -0.7359462025725222
0.09018331411980914 -0.7344841522145783
0.10298809471044844 -0.7327983708687621
0.12358322738178244 -0.7802737890701589
0.13718206035687502 -0.7779981248796444
0.14119865657864322 -0.7264041157512713
0.16425023574602998 -0.7727366045797064
0.17771133293165348 -0.7697523511803359
0.19111829752373746 -0.7665336237580372
0.20446704563099138 -0.763081402768364
0.21775351109542934 -0.759396739791272
0.23097364673096205 -0.755480757210798
0.2441234255562085 -0.7513346478731713
0.25719884202115384 -0.7469596747234603
0.2701959132272784 -0.7423571704208676
0.28311068014078733 -0.7375285369327894
0.31466953846936624 -0.7788344378361013
0.3282141479309899 -0.7732240769000499
0.3416587801836723 -0.7673781844197846
0.3549993398621875 -0.7612985411107859
0.36823176330282503 -0.7549869988913002
0.38135201978121935 -0.748445480318229
0.4178296908794429 -0.7858233576444449
0.43148056201924 -0.7784115393540623
0.4299999999999999 -0.7447818472546173
0.4429327444226467 -0.7371638786038165
0.49812410837921256 -0.7971652103870404
0.5664245964156281 -0.8722173906632409
0.5815606196095768 -0.8621990754572433
0.6251983156226403 -0.8928757282750012
0.6406859249987957 -0.8818285238686928
0.6258876240781303 -0.8305809304491846
0.7018540818712505 -0.8983322591116629
0.6859592262443228 -0.8470890979880984
0.7327778750426548 -0.8732906651556349
0.7479072930491782 -0.86036892145396
0.7962654215670413 -0.8843423423180992
0.8115780484743733 -0.8703109049268126
0.8613763793691566 -0.8919813524199274
0.8768124086713189 -0.8768124086713188
0.8919813524199275 -0.8613763793691566
0.94344627508873 -0.8797778844806231
0.9586568248658387 -0.863178482202927
0.973575358487376 -0.8463161473977544
1.0648017759353794 -0.8934747774642895
1.0802328864251896 -0.8747553435592739
1.1347354851936797 -0.8865525244689477
1.1500351344681017 -0.8666136333389495
1.2054353216186717 -0.875800025915785
1.2614941482050475 -0.883307711980611
1.3181697403625163 -0.8891167165184874
1.3334862030332244 -0.865976065673893
1.365357434811846 -0.8531700154154599
1.3628960081163586 -0.818910539106986
1.3943009000929463 -0.805
1.4518687138513968 -0.8047839696089195
1.4921814319315865 -0.7934069411081555
1.5949016782971785 -0.8126429945337887
1.6537810451904673 -0.8066029100919024
1.7129217174992684 -0.7987485146899218
1.817955460708776 -0.8094059197208423
1.850214755439405 -0.78536956826344
1.9563579331359213 -0.7904199121075741
2.1098917638836756 -0.8099115659723787
2.2176745850547435 -0.8071675382485782
2.325975695974319 -0.8008976599646055
2.482257507530351 -0.8065343553186126
2.6394011264579778 -0.8069459050347533
2.845334619977424 -0.8158865732183174
3.052325611073456 -0.8178681825239654
3.260193640287348 -0.8128575692148832
3.6149129403532227 -0.8345684116157387
3.92237187894256 -0.8337258801792151
7.617426943553872 -1.4806778041219881
7.642108163374734 -1.3475098586953795
7.6150771059885125 -1.20610972546018
7.634966809997508 -1.0730246084021042
7.602903521572528 -0.9335191704834294
8.165024760973525 -0.8581786834274344
9.922099192993786 -0.8680711977666744
12.180257053672456 -0.8517265444157684
27.892997982102962 -0.9740449529668034
36.30446981112857 -0.6336968777377653
36.36 0.0
36.354462195886384 0.6345694980596294
8.504815937932504 0.29699471693828366
8.747994724450066 0.4584629766881886
12.180257053672454 0.8517265444157712
10.320577072230483 0.9029334948657398
8.612559613889246 0.9052164918978802
7.6525308291545935 0.9396126376536867
7.634966809997508 1.0730246084021042
7.664461523018269 1.2139314487121915
7.691348551025344 1.3561922675787261
7.666508302726255 1.4902182538908153
7.688240141767712 1.634185889827589
7.707267212451211 1.7793628398599728
3.8908858623667455 0.970106801354668
3.631881106846896 0.9731596095854785
3.566280891931163 1.0226145900810666
3.6435211202191655 1.1139361949936268
3.7186309787140504 1.2082564480060443
3.696977630593329 1.2729714839274828
3.6741981472729015 1.337298760403365
3.4635833823046185 1.329545092813064
3.115337751344405 1.2586781538774647
3.000845822254955 1.2737834788750328
2.4300309173293186 1.0819194705816289
2.9545633857394784 1.37773553327468
2.9750082932502426 1.4510084958718468
2.993781921272916 1.5254080791248772
2.966703912005994 1.5774244509605937
2.282757435633823 1.2653531088429397
2.3036275740666072 1.3299999999999996
3.0086572254644137 1.8077836429342904
3.019051222316877 1.8865125806702094
3.0276007502829803 1.9661469164042482
3.034277515551453 2.046646026702933
3.039054084312159 2.1279685788623817
3.041903898849802 2.210072548619699
3.7615732523227488 2.8345487590461484
3.7509311871679962 2.930548622550133
3.699214776535182 2.995565061397225
1.5014471085131968 1.2598637149856171
1.1396114661363856 0.9906491337756659
1.1593059277447348 1.043843745919819
1.1043440894449477 1.0298175236943727
1.1077832925215225 1.069773890506856
1.1030865786510142 1.103086578651014
1.0489341393930858 1.0862030985113635
1.0298175236943727 1.1043440894449474
1.010387215601876 1.1221486864708652
0.990649133775666 1.1396114661363856
3.059669022107928 3.6463715492463353
2.775302924529783 3.427213690025242
2.46880251605589 3.159923121962955
2.413278242839713 3.2025283952896446
2.1806832860050753 3.001453049131055
2.185326222497485 3.120969288741059
2.102565317050008 3.1171812728069566
2.0750747234072535 3.1953348638720653
1.833520654246889 2.934246412701234
1.8335355466797931 3.0515155904995197
1.8049999999999995 3.1263517076618235
1.750162729089277 3.1573771427732185
1.6947923416570652 3.187440810220726
1.6843047540337188 3.305634204738845
2.8757147229363467 5.8960889437225354
0.6381535752284562 1.3685247584253415
2.5868450499620903 5.810149110606941
0.668150229716658 1.574063299403673
0.6405772747412098 1.5854843913092063
0.5769723987679333 1.503064486660495
0.482248402089193 1.3249665953081307
0.37765905917030157 1.0968015476952075
0.36773022330618743 1.1317572543912326
0.33330374338391966 1.0901874217978604
0.314226585631379 1.0958383333696835
0.29505371141687387 1.1011554419695377
0.2757909609836211 1.106137127954636
0.24069762814793572 1.0425759693202017
0.21206992463411442 0.9977105527484819
0.20416562505290306 1.0503410862890006
0.17712114122026884 1.0045039080724523
0.1548701203898286 0.9778114571891864
0.14195656297926654 1.0100734301164018
0.12430673027325044 1.0123970746741484
0.10661903253300675 1.0144123332756387
0.0888988576026113 1.0161185920535805
0.07115160321900797 1.0175153312650207
0.05338267536780262 1.0186021254496653
0.034550501735476066 0.9893969187489048
0.017452406437283376 0.9998476951563913
