# .PCD v0.7 - Point Cloud Data file format
VERSION 0.7
FIELDS x y
SIZE 4 4
TYPE F F
COUNT 1 1
WIDTH 179
HEIGHT 1
VIEWPOINT 0 0 0 1 0 0 0
POINTS 179
DATA ascii
7.470345474798854e-17 -1.22
0.02041931553162181 -1.1698218033329777
0.04083241114192626 -1.169287267612342
0.06384986661639164 -1.21832803240058
0.08161507428062678 -1.1671499388039943
0.10633000615214293 -1.2153575316719296
0.1275247251865372 -1.2133167123492934
0.14868059895427993 -1.2109063050024127
0.16979118317127986 -1.2081270438647158
0.19085004734908173 -1.204979775526068
0.2118507767536551 -1.2014654586748938
0.23278697435938478 -1.19758516380615
0.2536522627976665 -1.1933400728952428
0.2789393073863928 -1.2082188803336917
0.30724080741157794 -1.2322755723705154
0.3209356159271257 -1.1977480245984446
0.3500594418875889 -1.220802353841665
0.3713120649978757 -1.214507040073055
0.39245158285618326 -1.207841775694845
0.42974996388344694 -1.2480845197910981
0.4412059848901128 -1.2122034808138218
0.4730456933997965 -1.2323261629763063
0.4944807033090041 -1.2238826880281592
0.5157650896058413 -1.2150664065572214
0.5368923688600565 -1.2058800040882331
0.5451775576455022 -1.1691370452772785
0.6005684711010362 -1.2313478434298588
0.6219669846431792 -1.220678938138064
0.666649619155965 -1.2537855818596761
0.6738853721424085 -1.21572139292376
0.7099999999999999 -1.2297560733739028
0.7159029241249754 -1.191462547975936
0.7630837404958151 -1.2211892584652533
0.8006193814720898 -1.2328457348797732
0.8220135681019979 -1.2186852316559111
0.883307711980611 -1.2614941482050475
0.9051892885304087 -1.2458861713374192
0.9267951356541544 -1.2298986854728309
0.9789017457677969 -1.252937098234688
1.0006194217692415 -1.2356620787165837
1.0220322994015976 -1.218010664559175
1.0759368075444318 -1.237723711565346
1.0973741944285273 -1.2187575137829265
1.1525772285056226 -1.2359877557363979
1.2087055645986553 -1.251651252589253
1.2657211383239202 -1.26572113832392
1.2876182426061857 -1.2434384831216052
1.345690810979274 -1.2548769825149972
1.4045437201522752 -1.2646568460182417
1.4641365856321777 -1.272754516241584
1.5244284418067662 -1.279147343276213
1.5853777613722206 -1.2838135977416683
1.607541937357713 -1.2559494096643427
1.7090799915012067 -1.2878841495453834
1.7717472176811349 -1.287249702520516
1.8349005792073418 -1.2848112174263433
1.8984960411510456 -1.2805517489480103
2.0044226573895636 -1.3016872936859145
2.043795911736987 -1.2771054268020239
2.1514899247623016 -1.2927455680242355
2.2603263038773846 -1.305
2.326488420990793 -1.2895935898552566
2.4369353562906384 -1.2957415132890586
2.5928289853881505 -1.3211123542420813
2.660430377045534 -1.297578594495669
2.818617217683981 -1.314342794013575
2.978158191914879 -1.3259614564271085
3.138921550272822 -1.3323931481484232
3.625288871356139 -1.4647117802562155
3.8370155529034995 -1.4728922726311844
4.097059826626561 -1.4912078248999159
4.122460989613022 -1.4194771534332034
4.3368177143059 -1.40911749434976
4.647641113980353 -1.4209264849525005
5.008173435838642 -1.4360706238065652
5.467140176796127 -1.4649157952802672
5.8799921012325385 -1.4660466873339857
6.4893046314696665 -1.49817402193014
7.19916634140081 -1.5302300444187091
8.059159176105322 -1.5665418520414334
9.168560180543658 -1.6166645340791217
10.627526544803683 -1.6832348438328841
10.655284419659298 -1.4975025663303039
18.471283882045004 -2.2679884807697936
18.607504662340393 -1.955727547737795
39.214242815713696 -2.742126982881561
39.20619553446457 -2.0547096420979774
39.2360838687697 -1.3701542405401899
39.35400528135556 -0.6869267173714799
29.26 0.0
18.657157991618263 0.3256619041197108
18.64863283217633 0.651224608468669
18.484632688307162 0.9687385500568918
10.7836673833087 0.7540674811739956
10.171147867516723 0.8898601334535913
9.010368372036556 0.9470278772049417
8.099176597393189 0.9944538421860031
7.337886389375036 1.0312726781140846
6.775542016482645 1.0731404301759837
6.164896533856422 1.087037592194984
5.752335295003311 1.118140712906553
5.340685900006578 1.1351978318649663
5.027749534291814 1.1607474404143439
4.715637229701343 1.1757404126143858
4.404621767878151 1.1802148456674952
4.19110099429107 1.2017788713621163
3.930412547008076 1.201647706410448
3.6710781528992924 1.192805598287297
3.5078739154734655 1.2078578530360513
3.3453057299978335 1.2175917102393807
3.230188275680318 1.2399531054267392
3.0689785586160663 1.239947824206669
2.954820579582333 1.2542469224505692
2.8411263732684886 1.264950959965739
2.6826710496284836 1.2509500547524701
2.5705509724156173 1.2537414798167619
2.4591780067598954 1.253013779281149
2.392787976647692 1.2722679351497646
2.265265041491035 1.255656916438013
2.217025033688163 1.2799999999999996
2.108631559727196 1.2669936642787334
2.0268349498138583 1.2665070415173598
2.004422657389563 1.301687293685915
1.9399479197787974 1.3085113941215474
1.8349005792073416 1.2848112174263437
1.8121980673998825 1.31663896513514
1.7090799915012065 1.2878841495453839
1.6469424750380486 1.2867324834306257
1.5853777613722209 1.283813597741668
1.5627306639627152 1.3112867237605403
1.5018720646433164 1.3055574676911093
1.4417009614261447 1.2981133763361852
1.4188261811411909 1.323076818521247
1.3595522226400503 1.312904320167505
1.3010764773832475 1.3010764773832473
1.278171401644555 1.3235852326231186
1.2207770645118723 1.3091231258983151
1.1977437853823565 1.3302292376045355
1.1415427104434825 1.3131946695876233
1.1184504408545788 1.3329173310270217
1.095017480426717 1.3522339729351294
1.0404678933003626 1.33173817359536
0.986976637969359 1.3097622364775603
0.9639678137596559 1.3267878707749137
0.9119865337981631 1.3024517504194972
0.8891167165184874 1.3181697403625163
0.8659760656738933 1.3334862030332242
0.8160756669191356 1.305994068080896
0.7931586353614836 1.3200376430812528
0.7699999999999998 1.3336791218280357
0.7466068151793591 1.3469143489946696
0.7135967754345538 1.342080341145569
0.6764458446119248 1.3275997210406683
0.653173008715725 1.3392031289857589
0.6423797578458632 1.377587836295708
0.5979028653214266 1.342911822734623
0.5743747588792324 1.3531421345750874
0.5506716923213909 1.3629602662131772
0.5160498473452322 1.3443558141559704
0.4925090063889631 1.353157373931708
0.4785851870520201 1.3899123061309957
0.43880413201242535 1.350500253139118
0.42978640594242273 1.4057679912656622
0.3914050452601388 1.3649916082324127
0.3675230440455797 1.3716146733304768
0.34352909175152807 1.3778199313119148
0.3194304971682885 1.383605491995034
0.2952346009612181 1.388969593042004
0.2614083236658666 1.3448292413232998
0.2378980034036944 1.3491866216267252
0.2143152171051164 1.3531330266153387
0.1906671483152894 1.3566672541759515
0.16696100046505208 1.3597882277486113
0.14320399467668554 1.3624949966545346
0.11940336756429167 1.3647867363856916
0.09556636902945188 1.3666627488559593
0.04762572018107881 0.9087528766266623
0.031060552065225962 0.8894578360469952
0.015532641729182206 0.8898644486891882
