# .PCD v0.7 - Point Cloud Data file format
VERSION 0.7
FIELDS x y
SIZE 4 4
TYPE F F
COUNT 1 1
WIDTH 180
HEIGHT 1
VIEWPOINT 0 0 0 1 0 0 0
POINTS 180
DATA ascii
4.996558940521201e-16 -8.16
0.12146874880349384 -6.958939958288483
0.2132359248522816 -6.106277953086676
0.2203343757827941 -4.204230341316756
0.26786485917744174 -3.830645952997725
0.3364211670059604 -3.8453115346341376
0.3982534450497597 -3.789128421353121
0.46797827867576636 -3.811377222302676
0.5274660526386481 -3.7531159805305516
0.6007083457544867 -3.792723227885329
0.6668090022410128 -3.7816617715668785
0.7231660924771053 -3.7203670252666465
0.7879853081993083 -3.707179406781123
0.8525644959632489 -3.6928625455360415
0.9168839843227405 -3.6774208025860267
0.9679832286834276 -3.6125625903211156
1.044665578546427 -3.6431818276062287
1.0934701756630356 -3.576579787301753
1.1557235589623036 -3.5569513709438745
1.2176248976697663 -3.536239472741445
1.2791553360380015 -3.5144504017392975
1.3295450928130643 -3.4635833823046185
1.4010286593755117 -3.4676676160797846
1.4417978641254199 -3.396662909239505
1.5008582129497035 -3.370982738701197
1.580592298910216 -3.389591123517071
1.6175895316516957 -3.316550030843926
1.675224944038928 -3.2878140742550777
1.7323500666799372 -3.25807661764944
1.764707017696667 -3.1836157339874007
1.8199999999999996 -3.152332469775357
1.8747385926725977 -3.1200889745556886
1.955402085020526 -3.1292974748172115
2.00971803920545 -3.0946943957186144
2.0354621686335186 -3.017696764100352
2.0591394065002553 -2.9407558389974806
2.139538318344602 -2.944821859524809
2.160515933115853 -2.8671014810697812
2.2410077701853965 -2.8683591431284676
2.2592602038689162 -2.7899540016305253
2.307607518774676 -2.750099550797131
2.355251914075921 -2.7094073929997515
2.402178876828301 -2.667889923463845
2.4483741126243697 -2.6255597888128213
2.4590906314248504 -2.5464628931988247
2.5031580054003784 -2.503158005400378
2.546462893198825 -2.4590906314248504
2.5889921037318637 -2.4142741946212447
2.630732682189976 -2.3687223465103577
2.671671913988613 -2.322448962626396
2.711797328641182 -2.275468138290349
2.751096703557677 -2.227794184316424
2.789558067767796 -2.17944162265283
2.8271697055674165 -2.130425181958251
2.863920160087314 -2.0807597931153547
2.8588406345685815 -2.001781762865151
2.78556624378494 -1.8788881556617092
2.801159696937716 -1.81909437695019
2.832480641162463 -1.7699303425389044
2.794365400288886 -1.679024124206776
2.849223578450803 -1.645
2.8337678511316424 -1.5707831695981322
2.8607502008629235 -1.5210878634262863
2.8423108121608935 -1.4482296941691544
2.975008293250243 -1.4510084958718463
3.1358249431468086 -1.4622591856228198
3.2522218292076595 -1.4479824493498485
3.4610982489811755 -1.469149043119669
3.671648064084478 -1.4834421099270112
3.9770526168780793 -1.5266474650629793
4.2849983507837415 -1.5596118535650494
4.642496206192646 -1.5985396383846395
4.95500444989775 -1.609978540693476
4.982347778567415 -1.5232565816054582
8.757094049998084 -2.5110563114928617
5.225658720223859 -1.400211034004637
10.634441159984922 -2.6514639757723573
12.189369510463292 -2.8141376898417496
13.948384786464068 -2.964820711061249
16.255746157893313 -3.1597969634355825
20.44460895253344 -3.6049361683654744
21.64025154243947 -3.4274791290314583
23.132662085803084 -3.251083638427128
23.086623487177153 -2.8346809276037295
24.326005560707966 -2.556766211526802
26.558550651125937 -2.323572101652564
28.04152545280366 -1.9608544769473586
27.821818838262427 -1.4580797409284172
19.697993200546378 -0.6878690800062951
19.756990456290293 -0.3448595512007227
20.71 0.0
16.4574930622742 0.287266609957687
14.10140456923944 0.49243189847228935
12.293129572828805 0.6442556213506395
10.983180193360663 0.7680187759228206
9.922099192993786 0.8680711977666766
9.010368372036556 0.9470278772049417
8.297685827721452 1.0188277108670325
7.634966809997508 1.0730246084021042
4.652012084203099 0.7368063303394874
4.343002190783838 0.7657884635111629
4.0344877239698995 0.7842249709975995
3.7756497388324894 0.8025391265565512
3.5661944371139613 0.8233208588985462
3.308708426601148 0.8249536639948674
3.245510776331269 0.8696319915444702
3.0664248100432374 0.8792831650562272
3.0984274093202355 0.947284323301667
3.0814231127962977 1.0012150617748297
3.063480184941787 1.0548408204411879
3.091588722385638 1.1252462715414502
3.0434721903808777 1.168279515517679
3.0689785586160663 1.239947824206669
3.0468710649275774 1.2933200352994965
3.233950920054807 1.4398477164883332
3.208329566109741 1.4960686465620758
3.136791221584093 1.5299153022938807
3.1096127694174043 1.5844268440910185
3.081487099077655 1.6384557541227596
3.052422777916491 1.6919855746597163
3.022428659207691 1.7449999999999994
3.0343722444854775 1.8232347851815922
2.959687855585927 1.8494182321738852
2.968893810526801 1.9280221839531964
2.934793006844848 1.9795428782864437
2.8997982367830306 2.0304605846827037
2.863920160087314 2.0807597931153547
2.827169705567416 2.130425181958252
2.7895580677677954 2.1794416226528304
2.7510967035576774 2.227794184316424
2.711797328641182 2.2754681382903494
2.671671913988613 2.3224489626263956
2.6678899234638447 2.4021788768283012
2.5889921037318637 2.4142741946212447
2.5464628931988242 2.459090631424851
2.5031580054003784 2.503158005400378
2.45909063142485 2.5464628931988256
2.448374112624369 2.6255597888128217
2.4021788768283012 2.6678899234638447
2.355251914075921 2.7094073929997515
2.3076075187746765 2.750099550797131
2.2907262234214083 2.828811299703374
2.2102246964191137 2.8289586054481317
2.1906066842734555 2.9070332565721464
2.1101490557299787 2.904371009806061
2.0878182283178073 2.9817134412119306
2.0354621686335186 3.017696764100352
1.982486087454699 3.0527608673213433
1.955402085020526 3.1292974748172115
1.9004904964181002 3.162947339590794
1.8449999999999995 3.195633739964579
1.788947498708984 3.22734671934437
1.7323500666799365 3.2580766176494405
1.675224944038928 3.2878140742550777
1.617589531651695 3.3165500308439264
1.580592298910216 3.389591123517071
1.5211950451034935 3.416660011583327
1.4613344205498837 3.4426881519121273
1.4010286593755117 3.4676676160797846
1.3474634902903284 3.5102624036294783
1.2688947317382313 3.48625962311572
1.2176248976697654 3.5362394727414452
1.171174408681051 3.604504196758632
1.1080887608991716 3.6243950250999046
1.0501783256627668 3.662407061524995
0.9602186573303527 3.583584815532443
0.9168839843227405 3.6774208025860267
0.8458159643329329 3.663631443592484
0.8753082183427664 4.118001399089322
1.2517070096701346 6.439474323416675
1.338827449812032 7.592867775724125
1.4485831462725383 9.145994033910975
1.6366756672903673 11.645552488400867
1.9389412535758965 15.791409272613432
2.3999735166253284 22.834222717655557
2.123113893332952 24.26730284551492
1.6992677004068961 24.300660264329316
1.2749038940781097 24.32661546662142
0.8518967145080514 24.395130087536128
0.42601324113408723 24.40628223876751
