# .PCD v0.7 - Point Cloud Data file format
VERSION 0.7
FIELDS x y
SIZE 4 4
TYPE F F
COUNT 1 1
WIDTH 180
HEIGHT 1
VIEWPOINT 0 0 0 1 0 0 0
POINTS 180
DATA ascii
5.939536975864663e-17 -0.97
0.01692883424416509 -0.9698522643016995
0.033852511801426045 -0.9694091022085228
0.05076587755565565 -0.9686706487119366
0.06557108531947792 -0.9377102072442347
0.08192639818279865 -0.9364230162062408
0.09825675547159424 -0.9348505816461768
0.11455718280083864 -0.9329933825428426
0.1377813699504648 -0.9803653880541546
0.1548701203898286 -0.9778114571891864
0.17191169589026112 -0.974959675482086
0.18317663556148311 -0.9423620961097574
0.20999080772593706 -0.9879290767411436
0.21595301217011054 -0.9353952621938258
0.24434111455566435 -0.9799986835387564
0.26140723555354595 -0.975585084551959
0.29217559716601915 -1.018937397694618
0.309914007006101 -1.0136830413208175
0.32755801403744433 -1.0081199072728628
0.3451022437245862 -1.0022496901352758
0.372801956224979 -1.0242649566566402
0.37987002651801843 -0.9895952520870339
0.41581331869166255 -1.029174078569134
0.43371155262309385 -1.021760387332209
0.4718145059679284 -1.0597127308654168
0.4691062705321764 -1.0060016436106816
0.5085105302753298 -1.0426010937070336
0.5266289796978744 -1.0335675680585066
0.5445870128316334 -1.0242192077163552
0.562379159485751 -1.014558860281699
0.6049999999999999 -1.0478907385791707
0.6489479743866684 -1.0800307988846614
0.641202309722178 -1.0261381963492753
0.6481204516678822 -0.9980179758550545
0.6766234131996037 -1.0031354627916003
3.3038002733820253 -4.7183157751045925
3.326864527975398 -4.579036188162203
3.316000777567786 -4.400481660360583
2.068622557094212 -2.6477161321185854
2.083050494374962 -2.572353132422574
2.1276269880624454 -2.535607106723817
2.171555385958579 -2.4980887105373752
2.214822307047821 -2.459809372330175
2.2574145718068706 -2.420780752359454
1.5351949987143838 -1.5897409587484188
1.5273506473629428 -1.5273506473629426
1.5537739687314867 -1.5004620801914341
1.5797239954974085 -1.4731164577349969
1.568035581757302 -1.4118655794171906
1.592437214270049 -1.3842845511699702
1.6163537749810435 -1.3562818564385977
1.6397779786742086 -1.3278660251151568
1.7021032277905197 -1.3298287867034218
1.7649844772045171 -1.3300112011660266
1.828378407287381 -1.3283946701809892
1.8103260178786718 -1.2676039243358117
1.707817399463386 -1.1519373811497384
1.7276613699675736 -1.1219564121309555
1.8741862925057016 -1.1711215739553829
1.9371980995867737 -1.163986049296722
2.000518682742053 -1.155
2.0641025088489737 -1.1441507037813554
2.1720510784329603 -1.1549000444532913
2.3255270281316403 -1.1849152043202171
2.4357318654707427 -1.1879858077983998
2.5467248815729864 -1.1875573154913652
2.704094554622099 -1.2039404635043685
2.8627700942370895 -1.2151738096016411
3.0689785586160663 -1.2399478242066684
2.810077083756577 -1.078687528131354
2.8096809361498662 -1.0226402285437497
2.8271005410419576 -0.9734487818268986
2.815127288233654 -0.9146903033498442
2.926292553246889 -0.8946574164515744
4.67173184226023 -1.3395975492706158
5.080769846280499 -1.3613881772392586
5.685932955977339 -1.4176623082140523
8.145733741604566 -1.88059081431471
9.15546154286842 -1.946053426054228
10.415064416379714 -2.024483440945141
13.994118170303476 -2.4675406046470805
14.084435736886665 -2.2307554714736924
19.518183634896353 -2.7431018199228894
21.548176952133105 -2.6457834453257507
26.56367982528658 -2.791955253879022
35.22544452452412 -3.0818270635571894
19.66198743062114 -1.3749000974967074
19.63305665327492 -1.0289248997362772
14.151374110590396 -0.49417687330741444
9.558543965695101 -0.1668450055404306
6.81 0.0
6.8089628040150245 0.11885088783790088
6.855821073350997 0.23941054737915698
6.850598608416377 0.3590246598265952
6.843289384782394 0.4785294098847003
6.833895628909374 0.5978883952489359
6.822420202226355 0.7170652580161038
6.8584939078415355 0.8421171629295688
6.892265758441329 0.9686447826820552
6.923695267571915 1.0966055999320183
5.721733045000928 1.0088959122448653
5.212440344107096 1.0131957654494532
4.851612099639675 1.0312419864560867
4.589283005138458 1.0595194659596046
4.327518939190944 1.0789716543745185
4.1148440199914305 1.102569132136739
3.8546594007126584 1.1053057968261664
3.6435211202191655 1.1139361949936268
3.433314023825504 1.11555134969356
3.318770200353602 1.14274422214462
3.2043518368799475 1.1662886887405306
3.0434721903808777 1.168279515517679
2.8835417877027085 1.1650265055234867
2.770719608891845 1.1761006967527143
2.6584172817399687 1.1836036313505789
2.5467248815729864 1.1875573154913652
2.4357318654707423 1.1879858077984002
2.370077354341059 1.2076147293071946
2.2161984580759064 1.1783736225925863
2.1952954649198833 1.216872146818306
2.0871212231204974 1.2049999999999996
2.0229148296569845 1.215489856787728
1.9165886973135227 1.197617537167043
1.9373290119539293 1.2581161708847128
1.9565286712298984 1.3196952521909624
1.9741564267364702 1.3823192116060217
1.9497309564436234 1.4165624580248604
1.9247115792139755 1.450374205796437
1.9385064538725358 1.5145272293011194
1.9117790651841486 1.5481281619825997
1.9610737743845839 1.6455362807975409
1.916962333765841 1.6663899336358883
1.8875878567125812 1.6995917401515002
1.835697791064118 1.711815883756871
1.877476878883879 1.813058346897983
1.8809040379562167 1.8809040379562163
1.917257102466832 1.9853778489346774
1.8823154737724956 2.0185362164689105
1.9137135341863347 2.125394200865347
1.9091317743623764 2.196204878448267
1.9026513246721568 2.2674915516321748
2.680904865872307 3.310641795806696
2.6227178848873045 3.3569258103646353
2.5938227497853275 3.4421190483038324
2.5921329626098064 3.5677649451935185
2.7302238370309784 3.8991637308156015
3.6962650919416364 5.4799383545888265
2.7286415654252862 4.201739545406574
2.6019035873850362 4.163916152128052
2.503085044062864 4.1658330814122655
2.5049999999999994 4.338787272960038
2.4531366784464654 4.425575718125342
2.3989996858359013 4.5118621995091175
0.6855256546067158 1.3454198515244356
0.6400218743120527 1.3122393075967838
0.6170226621414212 1.323209369073509
0.5938354988906686 1.3337763681581971
0.5704674475943396 1.3439370860405628
0.5281952967164362 1.30732923493917
0.5052988088588732 1.3163484013610545
0.46514739492290963 1.2779819642688355
0.4427726900617329 1.285905262815071
0.4357139620686759 1.3409896879761665
0.4122441036590585 1.34838970590788
0.3886486717019688 1.3553789912730296
0.35199390133942854 1.3136591237531328
0.32901377801554804 1.3196021877353552
0.3059334339076566 1.32514328810792
0.2827598995121526 1.3302807369979759
0.24995978394327384 1.2859316103164398
0.2361615216270251 1.3393385440966032
0.21275087245471408 1.3432561432093875
0.18927541730568875 1.3467645734885358
0.16330492016289766 1.3300118431993715
0.14006814077865593 1.3326593397934863
0.1167886952818619 1.334900895442939
0.09556636902945188 1.3666627488559593
0.07013018136554462 1.338163576571129
0.04676532558135145 1.3391837082055884
0.022513604304095557 1.2898035267517447
