# .PCD v0.7 - Point Cloud Data file format
VERSION 0.7
FIELDS x y
SIZE 4 4
TYPE F F
COUNT 1 1
WIDTH 180
HEIGHT 1
VIEWPOINT 0 0 0 1 0 0 0
POINTS 180
DATA ascii
9.613477373306724e-17 -1.57
0.02740027810653525 -1.5697608813955344
0.0547922098229267 -1.5690435984199804
0.08478424911356923 -1.6177798463024098
0.10951766377827697 -1.566175558907924
0.13683451611382327 -1.5640256760040405
0.16933611049359862 -1.611125470496603
0.19133486914608155 -1.5582974580768756
0.22546042355530607 -1.604234271361344
0.2534238333651741 -1.6000551117641233
0.2813100478204273 -1.595388559879777
0.3091105725100028 -1.5902360371852158
0.34721252366565825 -1.6335064932254553
0.37566826075425475 -1.6271980081913429
0.404009565651445 -1.620393862880914
0.43222780532120963 -1.613096129902744
0.4603143842143886 -1.6053070322169924
0.4941081809814251 -1.6161550375775298
0.5315092303249096 -1.635817208027664
0.5599772256663096 -1.6262919500308248
0.5780140422203803 -1.588080529128185
0.6235602322088226 -1.624429942105131
0.6518154725436872 -1.61329990694621
0.6798721635713363 -1.6016784450072463
0.7280585911056827 -1.6352463691802555
0.756486688515852 -1.6222909387956035
0.7846843527524486 -1.6088413428755088
0.8126429945337889 -1.5949016782971785
0.8873012536653336 -1.6687709505033717
0.9162901822655771 -1.6530312464934578
0.9449999999999997 -1.6367880131525891
0.9991738653255052 -1.6629045633620976
1.0280433726124174 -1.6452133065434662
1.0565997279291526 -1.6270209018141224
1.1127938779067863 -1.649784769384533
1.170095930156134 -1.6710701703495432
1.1990819146766452 -1.650394668524893
1.2577933983877807 -1.669148215998842
1.286732483430626 -1.6469424750380486
1.3467456368466522 -1.6630923575179177
1.4077048652135211 -1.6776373304305618
1.4695722249387364 -1.6905494596990094
1.5323090885617854 -1.701801650343233
1.5617762445431218 -1.6747999767079
1.6255005868740535 -1.6832551327924434
1.6899852070358488 -1.6899852070358485
1.7551891128263089 -1.6949664239199533
1.8210707170317348 -1.6981759165556214
1.8875878567125817 -1.6995917401514997
1.9546978127769794 -1.6991928850854137
2.022357329834102 -1.6969592895724637
2.0672082574755426 -1.6739922401925675
2.1749096799545526 -1.6992256718988163
2.244165783232893 -1.6911002150572556
2.3542394536310973 -1.7104550841710968
2.465647653309865 -1.7264650734166485
2.536854972018428 -1.7111302846204852
2.692132523104811 -1.7482913023982365
2.7646367934699487 -1.727536801400248
2.922940495394203 -1.7562798354432843
3.039749167283379 -1.755
3.2011081281301887 -1.7744032101015936
3.3198829491495654 -1.7652130760749494
3.4838355095765188 -1.775102853981628
3.694043530289577 -1.8017054133031083
3.906186562127961 -1.8214847081024141
4.074412741086 -1.8140454281180687
4.381603102433616 -1.8598801716089426
6.360481242328162 -2.5698012308331557
6.357682704445944 -2.440485736403495
6.3993067475520355 -2.3291571760478043
6.391705571051381 -2.200840724130379
6.286483572710965 -2.042602332818402
6.368989674713817 -1.9471955534534267
6.786507573324531 -1.9459997320680136
6.916028916229729 -1.853144362934048
6.947317400136135 -1.73216077249362
6.976489663862284 -1.6106495491020725
7.003536821254048 -1.4886477062551573
6.930287915140507 -1.3471115073584066
6.952742736266188 -1.2259561343285283
6.9730796846016725 -1.1044273231840298
6.941779161878408 -0.9756034377300585
7.007375830587733 -0.8603975644403409
6.971598486531596 -0.7327445275062502
6.983324833623136 -0.610961756661083
6.9430457898083775 -0.48550505725911125
6.950461561891834 -0.3642582554508896
6.915784522972142 -0.24150451718130703
6.938943004385356 -0.12111970067474774
7.06 0.0
7.108917112561942 0.12408660976908595
7.105668780105772 0.24813542155478224
7.050324515367291 0.36949185107518395
7.09268039734735 0.4959685283207316
6.983324833623136 0.6109617566610847
6.921872391763182 0.7275181043428691
7.1066304457518665 0.8725844987808556
7.139832775626722 1.0034380579220716
4.602627667173342 0.7289846070874759
4.293761803133227 0.7571060546278164
4.181731801487048 0.8128463203040811
4.166908779126012 0.885703802883655
3.955942463028055 0.9133012806360922
3.260193640287348 0.812857569214884
3.1006219023879087 0.8308091347790921
2.845334619977424 0.8158865732183174
2.7350316020542818 0.836183075507027
2.5773631591598662 0.8374360547561074
2.420527553534251 0.8334544754103211
2.35862847817263 0.8584705597474286
2.2499288278582563 0.8636667584041738
2.141794704049279 0.865341230790757
2.034315726129893 0.8635157939612953
1.9275809156258876 0.8582143168899387
1.8941832749065983 0.8832721670380617
1.8065760330613254 0.8811260050460458
1.7731029831348522 0.9034410944816982
1.6687709505033717 0.8873012536653339
1.6530312464934578 0.916290182265577
1.5934867429633672 0.9199999999999997
1.4914711032216752 0.8961662503434944
1.43320128250436 0.8955635565541162
1.4173532598277665 0.920439969175396
1.4010734976180206 0.9450360068655621
1.3024517504194968 0.9119865337981636
1.2863370210561664 0.9345785511450323
1.2298986854728309 0.9267951356541547
1.1741360228740156 0.9173355982352308
1.1579474825708869 0.9376873826642576
1.1031039980913282 0.9256141579486167
1.049046316509653 0.9119220502968048
1.0329713074135778 0.930091542838813
1.016581645250647 0.9479777204868728
0.9639153324537924 0.9308422164150565
0.9121677477306463 0.9121677477306462
0.8961092978921064 0.9279483424368602
0.8797778844806231 0.9434462750887299
0.8297219518849843 0.9214995835919687
0.813513195948229 0.9358398794762373
0.764917255526982 0.9115928873115838
0.7803572849017983 0.9636609922066439
0.7326371556375335 0.9377327967919991
0.7161598775509372 0.9503762569562786
0.6700751876134193 0.92227937358744
0.6538771374401923 0.9338333304894507
0.6374799099566513 0.9451028327127475
0.5936565481663797 0.9141509190605122
0.6041079612258535 0.9667748296183255
0.5613915016519592 0.9343123577653024
0.5449999999999999 0.9439676901250382
0.5284424860685075 0.9533354807819414
0.48825042529732626 0.918265496573284
0.47215011972912874 0.9266467851559026
0.45590599266064036 0.9347458081511337
0.4395229922103274 0.942560098518116
0.4230061087988324 0.9500872759483048
0.4063603736288447 0.957325047590538
0.3708605274817531 0.9179120160211194
0.35478427004984714 0.9242446222322297
0.33859994189241216 0.9302956945780492
0.32231247291258497 0.9360633898433237
0.30592682443119795 0.941545951132202
0.28944798767550917 0.9467417084034052
0.2728809822588292 0.9516490789789357
0.25623085465149575 0.9562665680261775
0.239502676643671 0.9605927690132365
0.22270154380042648 0.9646263641373829
0.21206992463411442 0.9977105527484819
0.1793604556539522 0.9227295524408041
0.17712114122026884 1.0045039080724523
0.15956315434103555 1.0074421074070405
0.14195656297926654 1.0100734301164018
0.11821326310299306 0.9627697670920823
0.10661903253300675 1.0144123332756387
0.0845410704652284 0.9663088571489932
0.0690589090066842 0.987588409757226
0.04919579886836712 0.9387117626692993
0.0355974866365511 1.0193786435594776
0.017277882372910544 0.9898492182048273
