# .PCD v0.7 - Point Cloud Data file format
VERSION 0.7
FIELDS x y
SIZE 4 4
TYPE F F
COUNT 1 1
WIDTH 180
HEIGHT 1
VIEWPOINT 0 0 0 1 0 0 0
POINTS 180
DATA ascii
1.0225800772880399e-16 -1.67
0.029145518750263607 -1.6697456509111734
0.056537184658051756 -1.6190131397709353
0.08478424911356923 -1.6177798463024098
0.11300548746548325 -1.6160537614209154
0.14555009038858907 -1.663645145813215
0.17456253365698127 -1.6608515652650164
0.2035218034865963 -1.6575520732410076
0.23241907860330932 -1.6537476747984223
0.2534238333651741 -1.6000551117641233
0.2986748655871203 -1.6938693351809977
0.31865102227883 -1.6393173963575989
0.35760810820654626 -1.6824138732621456
0.37566826075425475 -1.6271980081913429
0.404009565651445 -1.620393862880914
0.43740418622326005 -1.6324146464285254
0.4740962520052385 -1.6533701170139086
0.5028793321231072 -1.6448441802564209
0.546960080043657 -1.6833700338424218
0.5664885887554527 -1.645202321542811
0.5951150493866637 -1.6350651601674804
0.6414786296860877 -1.6711089634299912
0.6518154725436872 -1.61329990694621
0.6994087199958 -1.6477036876798683
0.7280585911056827 -1.6352463691802555
0.777617601602887 -1.667606328147436
0.8066029100919025 -1.6537810451904673
0.8580420445077436 -1.6840023307160152
0.8873012536653336 -1.6687709505033717
0.940530663277894 -1.6967622318504276
0.9699999999999998 -1.680089283341811
1.024925769071008 -1.7057629283972033
1.0545393358240778 -1.6876157113512877
1.1110636314306552 -1.710887958608665
1.1407535230803236 -1.691236648012285
1.1987747519736862 -1.7120277725639927
1.2284711772912689 -1.6908455182436402
1.2878841495453834 -1.7090799915012067
1.317515557196909 -1.686343012718385
1.3782116563991438 -1.7019496555907663
1.4398442456978484 -1.7159395525865109
1.5023751763882618 -1.728284938710148
1.5657656188797282 -1.7389588916171024
1.6299760805493717 -1.7479353468698173
1.6602335053970034 -1.7192221228093763
1.7606958851545036 -1.7606958851545034
1.7911561028432417 -1.7296993424429032
1.8942060871936517 -1.7663757525618708
1.9396079944959992 -1.7464308825966197
2.0301687707992566 -1.7647987879844644
2.114282663008379 -1.7740938027348483
2.1449228536212397 -1.736924279297551
2.253710755315225 -1.7607918194313823
2.3639611097399866 -1.781372468530063
2.435141153068592 -1.769233609400344
2.5475628577387646 -1.783822717051753
2.6612106079016837 -1.7950092201410972
2.7759995798993535 -1.8027552058997394
2.934246412701234 -1.833520654246889
3.05151559049952 -1.8335355466797925
3.1696529778510456 -1.83
3.3760320695580677 -1.871365134150861
3.540619847364297 -1.882580966771422
3.7065871406236104 -1.8886004789165147
3.9187420418643684 -1.9112982000003775
4.132763508887123 -1.927139273537589
4.3484763783787805 -1.9360664210408087
4.657754558469348 -1.9770995101557245
4.923346267749641 -1.989161011038492
4.910633043375281 -1.8850154146082796
4.895798554294582 -1.7819249467267342
5.257083280332202 -1.8101589387817911
11.850164193037614 -3.850351749911845
12.011187734895726 -3.6721886113175732
12.217636155376034 -3.503350792434059
12.32521354344851 -3.3025310155081637
12.478003039909314 -3.1111155774117254
12.579117536377387 -2.9041181115792956
12.72570028554681 -2.70493109753905
12.820051015826492 -2.491965479617676
13.25551235554432 -2.337304471396883
17.98580468223746 -2.8486716083826042
21.84531359643904 -3.0701586071790428
29.389291550099546 -3.6085512582264156
30.14395864861236 -3.1682577216425742
30.095041829351633 -2.63297498840675
30.0865317558363 -2.1038552481228154
30.26846119841113 -1.5863028337236296
30.24156642559784 -1.056058770217681
20.00695238007939 -0.34922265281004355
13.01 0.0
12.908033744469012 0.22531056710533046
12.802196494114618 0.44706255275903806
12.742512863468361 0.6678068016599642
5.346943309392658 0.37389469926851215
5.0407451723442325 0.44100805830315093
5.082006885331877 0.5341404472977099
5.022283527305089 0.616658877630046
4.614649200335718 0.6485466504739048
4.256936747965043 0.674232544323395
3.949079089578954 0.6963291924443907
3.6909182097632165 0.7174418226158086
3.335483318502277 0.7089788656885596
3.225164914439129 0.7445879898781934
3.066134495032149 0.7644731900949504
2.8591404458156418 0.7661043735034618
2.701145365586676 0.7745409698457675
2.5915858886598264 0.7923273197986165
2.4347046817155933 0.7910835055998654
2.325975695974319 0.8008976599646055
2.2176745850547435 0.8071675382485782
2.1098917638836756 0.8099115659723787
2.002717125864261 0.8091502417783702
1.9422652407846488 0.8244426811123678
1.8819036427437579 0.8378774847361486
1.821678651943666 0.8494627060988057
1.7436604498203838 0.8504400247708105
1.6572721349903643 0.8444223295155571
1.6246235708604255 0.8638276755260395
1.5218382904225485 0.8435687392286265
1.4376021702821682 0.8299999999999997
1.4486127381865697 0.8704143465979917
1.3907988776965388 0.869067593342456
1.3334862030332242 0.8659760656738933
1.3181697403625163 0.8891167165184874
1.2614941482050472 0.8833077119806113
1.2054353216186717 0.875800025915785
1.1500351344681015 0.8666136333389498
1.1347354851936795 0.886552524468948
1.1190901844980383 0.9062213631117656
1.0648017759353794 0.8934747774642896
1.0113108374985145 0.8791190988472797
0.9958140661397082 0.8966350125208702
0.9800139601696887 0.9138778024837481
0.9279483424368598 0.8961092978921066
0.9121677477306463 0.9121677477306462
0.8613763793691565 0.8919813524199276
0.8456779664774982 0.9068785900077714
0.7962654215670414 0.8843423423180989
0.813513195948229 0.9358398794762373
0.764917255526982 0.9115928873115838
0.7488912653493065 0.9248036941337954
0.7018540818712505 0.8983322591116629
0.6860691263933348 0.9104444814539139
0.6700751876134193 0.92227937358744
0.6251983156226402 0.8928757282750013
0.6374799099566513 0.9451028327127475
0.5936565481663797 0.9141509190605122
0.5776119980141934 0.9243724248105044
0.5613915016519592 0.9343123577653024
0.5449999999999999 0.9439676901250382
0.5042020050561906 0.9096044954249716
0.48825042529732626 0.918265496573284
0.47215011972912874 0.9266467851559026
0.45590599266064036 0.9347458081511337
0.4395229922103274 0.942560098518116
0.4230061087988324 0.9500872759483048
0.38682381720438097 0.911299804917916
0.3895908571525487 0.9642712087494588
0.35478427004984714 0.9242446222322297
0.33859994189241216 0.9302956945780492
0.32231247291258497 0.9360633898433237
0.30592682443119795 0.941545951132202
0.2748294024393723 0.8989264706052533
0.2590991144679792 0.9035859941820197
0.25623085465149575 0.9562665680261775
0.239502676643671 0.9605927690132365
0.21145399108323323 0.915907860898121
0.20167434009322646 0.9488031727117915
0.1793604556539522 0.9227295524408041
0.1632292870069144 0.9257192878314756
0.1548701203898286 0.9778114571891864
0.1349979079312633 0.9605600266793233
0.11821326310299306 0.9627697670920823
0.10139260936962406 0.964686238507225
0.0888988576026113 1.0161185920535805
0.0676637795318017 0.9676371287520295
0.05076587755565543 0.9686706487119366
0.033852511801426045 0.9694091022085228
0.016928834244164876 0.9698522643016995
