# .PCD v0.7 - Point Cloud Data file format
VERSION 0.7
FIELDS x y
SIZE 4 4
TYPE F F
COUNT 1 1
WIDTH 170
HEIGHT 1
VIEWPOINT 0 0 0 1 0 0 0
POINTS 170
DATA ascii
9.980871413050927e-17 -1.63
0.028447422492772264 -1.6297517431049178
0.056886179625076756 -1.629007048041126
0.08269081086385147 -1.5778346649122268
0.11021522851571823 -1.5761511994105224
0.13770607354129988 -1.573987622984958
0.16515497196289247 -1.5713445946818718
0.18646009540987565 -1.5185956120112227
0.21293484446890015 -1.5151101451746027
0.23934473151155333 -1.5111631611105607
0.26568171183040357 -1.5067558621086783
0.28239731315728644 -1.4528082315025426
0.31810488695117195 -1.4965658291227226
0.36442070803706156 -1.5784795049520812
0.4161056604314284 -1.6689086491947138
0.47105066208658775 -1.7579850038461045
0.44928888998170863 -1.5668565643794596
0.4765658786980609 -1.5587767522197478
0.546960080043657 -1.6833700338424218
0.820431749232035 -2.382706810510278
0.8789917683469688 -2.415010035419784
0.8349973224405499 -2.17524239373848
0.8803254945273936 -2.17888205823195
1.738753521777268 -4.0962465978633595
1.8181127945488276 -4.083548195662425
2.417376457156801 -5.184080541849638
2.9020169917436927 -5.950016586500485
4.0268957326897805 -7.903227869550823
7.239251498158437 -13.615051881884652
9.453787594803574 -17.055084289218218
9.759999999999998 -16.904815881872242
11.418394120755904 -19.00339905656583
10.42351192746714 -16.6811060513969
10.631353963493329 -16.370849486294674
10.943405120922517 -16.224265294902164
7.697395775831038 -10.99302043435827
6.741896843794668 -9.279424925480647
6.391275545874752 -8.481509116702249
5.4609172861385895 -6.9896553844916225
5.015683516667204 -6.193853312812058
4.705205302905468 -5.60744532363092
1.7188746559551291 -1.9773391001836627
1.6728265158971456 -1.8578620636934855
1.8550355393699962 -1.9892820684041435
3.3735518235957906 -2.9325838595875675
3.0852694669841747 -2.4984019524678547
3.0507876483806586 -2.2989333884408243
2.406984530003367 -1.5631140304931275
2.3490932263533004 -1.4678763619259776
2.417211787979957 -1.4524073712463523
2.485492908861339 -1.435
2.510158559490066 -1.3914036101069873
2.445764832219228 -1.3004362289169176
2.378987419582942 -1.21215463430459
2.3548404013038176 -1.1485324045873828
2.32921101268419 -1.0861289326735974
2.2564572803772247 -1.0046395083972264
2.273646988027528 -0.965105887368506
2.2437849280516255 -0.9065479560665067
2.165906589473508 -0.8314136429450967
1.9921483560661257 -0.7250827038504178
1.9572234514905857 -0.6739260797263144
1.9211341629162102 -0.6242143286373938
1.88392036924718 -0.5759722583037913
1.8936855409984883 -0.5430055909594882
1.951170169103918 -0.5228144711070918
2.0085121533913126 -0.5007783238913119
2.211820047062484 -0.5106388933605732
2.269302433702429 -0.48235512269720177
2.3264564247709636 -0.45221731904241136
2.432475149940154 -0.42891099883731804
2.2914369501807195 -0.36292795889333557
2.2776165581056116 -0.3200981322081504
2.3523343793899336 -0.28883034387019946
2.4564690815596353 -0.25818530427110387
2.410791169382024 -0.2109168974493325
2.3642267991157837 -0.16532284277357667
2.4166834741060685 -0.12665301410792423
2.368556260035257 -0.08271180718492742
2.3196466527628274 -0.0404895829344978
2.32 0.0
2.269654268005008 0.03961696261263363
2.2686171773333474 0.07922185751467731
2.2169575671551542 0.11618582285933547
2.21459219157681 0.1548593717119584
2.2115522297636754 0.1934857488998014
2.1083864181807397 0.22160034212742566
2.1538251490616687 0.2644564751891699
2.1488817091692076 0.30200562908334194
2.093899282061692 0.33164106588528947
2.087792436385881 0.3681341366538924
2.0810496289090477 0.40451507019827515
2.0736729135556677 0.44077278453364993
2.0169460341054366 0.4656486824918007
2.0085121533913126 0.5007783238913124
1.9511701691039178 0.5228144711070922
1.9898117105923199 0.5705693265411881
1.9317356070453318 0.5905908435399282
1.9211341629162102 0.6242143286373938
1.90994752271062 0.6576476720034565
1.898179093987535 0.6908806895178509
1.8391534401994873 0.7059848606042416
1.826552193496571 0.7379749890293469
1.8133945613013074 0.7697403231238695
1.7540072786737937 0.7809343547055366
1.7401109511103678 0.8114270625421428
1.7706242712093587 0.8635911591744828
1.7552828526510846 0.8943612844869072
1.7217478060749074 0.9154695474324874
1.7055084289218216 0.9453787594803572
1.6454482671904336 0.9499999999999996
1.671476236369119 1.0043242460746058
1.6536937875050308 1.0333425652547494
1.6773411358908479 1.0892780700300544
1.6166232664823315 1.0904261617679563
1.572771925034864 1.1012667577940087
1.553312629199899 1.1285476844015483
1.5733119547931667 1.1855755956095355
1.5366209695331077 1.2005398768850337
1.4610344075391055 1.183122335173694
1.4401635530636785 1.2084407062106939
1.4943249688410887 1.2989968774012042
1.5085839957191098 1.3583351309084823
1.4627074032383411 1.363996720124997
1.4746465906942343 1.4240496594409444
1.499066376115481 1.4990663761154808
1.5074086638960238 1.5609673667348734
1.4799364413356217 1.5870375325136
1.4520134157987226 1.6126242712859453
1.4236480929094006 1.6377197890834152
1.4269884935041177 1.7006186637241314
1.397091268130639 1.7252640344344756
1.3667684752229619 1.7493838730069229
1.3661201025551493 1.812902607807355
1.3636617853185375 1.876919426949878
1.3020185105168742 1.8594751405360117
1.2693678908785953 1.8819152896999447
1.263562561234863 1.9457157176333835
1.2294126930210352 1.9674715830829081
1.1691364300458231 1.9457697725937948
1.1099999999999999 1.9225763964014542
1.1005178379591853 1.9853867352064283
1.0797845944075484 2.030779463575532
1.007858909421794 1.978034483698177
0.9951025032112053 2.040262485099109
1.0227361934124926 2.193264844628693
1.024976340551017 2.302134553259354
1.0041790002174333 2.3656974733727716
0.9814692747496899 2.429221698964983
0.9389240278086864 2.445980717422669
0.9131937826795358 2.5089792974983753
0.8692669724006079 2.524534596850176
0.8405262246998572 2.586873724322818
0.8098696220819802 2.6489641740176086
0.7772973434039376 2.7107579825460593
0.7428106594442352 2.7722071214496258
0.7064119351510296 2.8332635207259096
0.6793521841184728 2.9425975956514105
0.596706552646969 2.8072836141060225
0.5953240655748202 3.062676812356712
0.5504647232041688 3.1218405770486997
0.5037189774295436 3.1803564567163436
0.4620546951874166 3.2876899882220134
0.41069968727534706 3.3448805310312553
0.3627137675387583 3.4509909769279083
0.30243042733437375 3.456795602378357
0.25251843495373416 3.6111818619405636
0.18683936378730917 3.565107439073828
0.12459120322792885 3.5678252524581717
0.06317771130296583 3.6194486564661363
