# .PCD v0.7 - Point Cloud Data file format
VERSION 0.7
FIELDS x y
SIZE 4 4
TYPE F F
COUNT 1 1
WIDTH 176
HEIGHT 1
VIEWPOINT 0 0 0 1 0 0 0
POINTS 176
DATA ascii
2.2411036424396566e-16 -3.66
0.06562104820418632 -3.759427333788031
0.2620952202357831 -7.505425110913409
0.31192229920794606 -5.95183202713726
0.5064319993823508 -7.242315004886324
0.41486133547885273 -4.7418867629167085
0.7431973738330161 -7.071050676068423
0.8847714331213707 -7.205885060915997
1.031272678114085 -7.337886389375036
1.1826445557041456 -7.466923854899242
1.9205488449962504 -10.89197374831502
1.2803283589766163 -6.586718400933825
1.37429627630539 -6.4655556408504555
1.464431363778562 -6.343149121751881
1.5628154455738532 -6.268110391742937
1.646089126852032 -6.143288255198475
1.7530535829961147 -6.113624386167708
1.830246871564332 -5.986467772328601
1.1928055982872972 -3.6710781528992924
2.0054998314560857 -5.824394425691791
2.072642068553553 -5.694537281962604
1.0607691306540892 -2.763398062431717
2.251385626429632 -5.572374965946391
2.348294082220535 -5.5322341692491666
2.3834767284241902 -5.35337638178564
2.4554121007134637 -5.265648242682936
1.86746108532147 -3.828862637234451
2.61498527849979 -5.132197579324999
1.5774244509605932 -2.966703912005994
2.7682629316065848 -4.99407852776595
2.8299999999999996 -4.901703785419923
2.37432552533535 -3.951541256236738
3.6403458015945622 -5.397034597333321
2.4721144406730082 -3.5305453108855542
3.3460915287253883 -4.440413435862948
3.238379360212963 -4.144936563971357
2.4606427290048645 -3.0386407092967564
2.6097176953273498 -3.1101404390630503
3.3524616381414925 -3.856565954938365
3.5196269894475942 -3.9089417820110937
3.5873113739287423 -3.846920470516836
3.6539030286143253 -3.7837273497813046
2.5880108191427644 -2.588010819142764
4.575001130153821 -4.418027236119222
4.687977227378884 -4.371609488000615
3.1657969565336996 -2.8504963830887355
2.7471428720108904 -2.3880548655254468
4.910344880392649 -4.120268578090717
4.515218036065001 -3.656351471999555
6.666570975512869 -5.208496081255069
6.716524639497733 -5.061264344708726
6.884734622130803 -5.002052497008946
3.0390540843121596 -2.1279685788623808
4.9825158110558005 -3.360749349859188
4.663008357776557 -3.0281930346835497
4.375928176167158 -2.734383403443337
4.165833081412266 -2.5030850440628627
3.9490758412570397 -2.28
3.7258799524138255 -2.065288982249396
3.584767227007243 -1.9060545449107165
2.548278659178732 -1.2984128292551038
1.7616363307463674 -0.8592074477065917
1.667606328147436 -0.777617601602887
1.6809236420623859 -0.7483954232594723
0.6535584459512326 -0.2774191012273843
0.6119413440140797 -0.24724035165450187
0.6441704942830692 -0.2472738851862572
0.6483879083422767 -0.23599389889471142
0.6524078171635286 -0.2246420265754381
0.6562289962436559 -0.21322172611871368
0.6598502816144944 -0.20173647625868832
0.66327057019744 -0.19018977551372937
0.6664888201394571 -0.17858514112073925
0.6403951793421577 -0.15966845109578062
0.915907860898121 -0.21145399108323296
0.5966700364476214 -0.12682613139883323
0.5497112227306918 -0.10685303741086513
0.5514923416868366 -0.09724297949348101
0.5531054707332772 -0.0876033004225293
0.5050367150582009 -0.07097828148963337
0.535974921886314 -0.06580944543877962
0.5370418234988676 -0.05644537016453283
0.5379451369695426 -0.04706410108373536
0.5087576656325105 -0.03557580160950384
0.5093010627248327 -0.026691337683901393
0.5596588631306937 -0.01954371815340057
0.5599147092875791 -0.00977334760487878
0.99 0.0
1.239811141993925 0.021640983982231583
1.2892141668546335 0.04502035074622632
1.2882320998334003 0.06751338355339764
1.2868576248351733 0.08998585112992177
1.334900895442939 0.11678869528186211
1.3823854345618998 0.14529456394203852
1.4292664583635037 0.1754918545034123
1.4259860189878613 0.20040926538249418
1.4716556274867554 0.233087352909944
1.5166039396388005 0.26741819360707275
1.5117058625094026 0.2938458528798791
1.555254685166751 0.33057958840023743
1.5979669062477857 0.3689197291239387
1.9988091961285528 0.49835910493531577
2.182992367413294 0.5849310419316972
5.344615029417053 1.532543698342515
5.2692392053563255 1.6109680930222792
5.192768578971538 1.6872327892872128
5.115255493992304 1.7613237156132178
5.036752447412469 1.8332279682255848
5.003991086025001 1.9208522095628098
4.923346267749641 1.9891610110384932
4.8878807718324575 2.0747822922780443
4.805249107200081 2.1394347425787097
2.592040270924819 1.2086882285784002
4.592837576588743 2.2400765600921866
4.597593664811979 2.3425909786560615
3.319882949149565 1.76521307607495
3.594686996342917 1.9925675392124456
3.516063139364821 2.029999999999999
3.351524145745259 2.0137988728983123
3.4006728655872682 2.1249762495751514
4.034005431817489 2.6197137584222805
4.070574481245255 2.745637156041367
4.595442968461244 3.21776380792937
4.902642985912181 3.561978628892387
15.860901229539232 11.952046359799683
6.74537205087354 5.270062228787635
6.846655920435915 5.544312645149067
8.587358207363744 7.205649104586107
12.045164900355442 10.470702102688495
14.498755545063961 13.054738130061327
18.24245733658819 17.616536274840172
17.86151729277219 17.86151729277219
13.587517726177984 14.07028649462402
13.373987840825595 14.341846088751932
9.374519795087606 10.411459004938292
7.288815812084535 8.384823436274997
5.9200738852130295 7.055269321125788
5.009390312756706 6.186081853197488
4.285003868266583 5.484554845102784
3.6469990403014116 4.839731190886595
3.50320010366314 4.821741286474687
2.902296767936292 4.144909344102299
2.577879285000143 3.821863209478743
2.5107859514192756 3.8662713182284048
2.416431844903414 3.867099318473302
1.9107912579163013 3.1800906856048363
1.7299999999999995 2.996447897094158
1.5804793620030588 2.85126024527443
1.4600565602641198 2.7459670137912626
1.3438118792290588 2.6373793115975688
1.2099043651378532 2.4806715677857007
1.1241645762302606 2.410778713517489
1.0209089741202588 2.2929990986829276
0.9416620196591498 2.2184166968203813
0.8653412307907572 2.141794704049279
0.7919931684951134 2.063212742558816
0.7216625024171611 1.9827514298582665
0.6804374428154571 1.976133823002572
0.6303946685248928 1.9401552932421133
0.5672011071621089 1.8552312265682889
0.5209546024941284 1.8167846053234227
0.4632860907335125 1.729007229057432
0.2878870557636045 1.1546519142684357
0.21595301217011054 0.9353952621938258
0.1891996386441609 0.8901143166677632
0.1793604556539522 0.9227295524408041
0.1545468781235679 0.8764789001808653
0.14704839713781706 0.9284270401594295
0.12386405985445807 0.8813385811799976
0.11699456966894159 0.952844305575669
0.10557374790033022 1.0044671143219561
0.1211464824192448 1.3847106303475263
0.09696149850433437 1.3866140298611556
0.07013018136554462 1.338163576571129
0.03175854199927598 0.9094456525873772
0.016405262051046372 0.9398568334470078
