# .PCD v0.7 - Point Cloud Data file format
VERSION 0.7
FIELDS x y
SIZE 4 4
TYPE F F
COUNT 1 1
WIDTH 177
HEIGHT 1
VIEWPOINT 0 0 0 1 0 0 0
POINTS 177
DATA ascii
2.3084592163927607e-16 -3.77
0.06631914446167766 -3.7994212415942865
0.1326180874695041 -3.7976851426725635
0.19625983591103988 -3.744860755329652
0.26158677654047047 -3.740865188474341
0.326834035303718 -3.735730117844046
0.39198173725370045 -3.729457107631025
0.4570100377693031 -3.7220480686549573
0.5218991286002455 -3.7135052577808887
0.5788075206488544 -3.6544468602020097
0.6424982573676425 -3.64378868614517
0.7059932828932162 -3.632020578756357
0.758877671484822 -3.57023874267839
0.8210713483551078 -3.5564507364661084
0.8951110137187704 -3.590094187221187
0.9317485623690747 -3.477332974640646
1.006076348732047 -3.508605190174864
1.0525381370018525 -3.4426971214669275
1.127912029468558 -3.4713562844773103
1.1883237637686221 -3.451142800937506
1.2312725159724078 -3.38289343482927
1.2901246183630815 -3.3608895353899264
1.348583736297284 -3.337861876440434
1.4066320625613855 -3.313817472428785
1.4439150829190912 -3.2430863746312326
1.5002948291794829 -3.2173926439801073
1.556217571101225 -3.1907188643620423
1.6116662740753913 -3.1630731608687057
1.643150469750618 -3.090316575006244
1.7210741518744967 -3.104899960344855
1.7749999999999995 -3.0743901834347573
1.80263326218519 -3.0000855524573926
1.8547174248162173 -2.9681683365474907
1.9062366225525949 -2.935346987808984
1.9571751621476141 -2.901631503942646
2.007517527228661 -2.8670321550114712
2.057248383023656 -2.831559480312316
2.0762618298745665 -2.7552925096631604
2.1240320898735217 -2.718637099943191
2.171155349121939 -2.68115356702655
2.217617253418561 -2.642853328760474
2.26340365001725 -2.6037480517685636
2.3085005919380612 -2.56384964789701
2.3528943422156203 -2.523170270586138
2.3965713780835407 -2.481722311168346
2.439518395093589 -2.439518395093589
2.373821341117549 -2.2923726225146908
2.376899530262304 -2.21649467020312
2.4152206828015315 -2.174674470666289
2.452806135724009 -2.1321918442191485
2.45134221798073 -2.0569203509969256
2.448009778589458 -1.9823592318069878
2.4822338738611744 -1.9393336472758231
2.515701856648972 -1.895717322928952
2.5645838721685834 -1.8632792497671398
2.6786271848250034 -1.8755949468679205
2.793856619510491 -1.8844800846964167
2.952120399167893 -1.917129403252895
3.1971413225097263 -1.9977956261591825
3.402954183787386 -2.0447011573929146
3.6546272039703305 -2.11
3.9095500909130987 -2.1670990025011267
4.255807397580028 -2.262852932627994
4.606503730053862 -2.347130883653457
4.73664462399661 -2.3102159435784375
5.002818984442308 -2.3328528048086605
4.814384561776507 -2.1435021090094666
9.959862514355406 -4.227710810253941
11.144749931892784 -4.502771252859261
12.668686387567028 -4.863053075329725
14.677998736675887 -5.342354638746946
19.44931710007795 -6.696936937183714
27.499908274449773 -7.368578214068764
27.43026018182242 -6.839131988602603
27.44800472500008 -6.336871200866674
27.21206625241447 -5.784103238550067
27.505193680203543 -5.346468050450787
21.78394749663004 -3.8410976899924996
20.761208919309794 -3.2882524551456527
20.41932757745118 -2.869749341796549
14.858415890070592 -1.8243840707750572
12.898948982926505 -1.3557341685814646
11.525972656921496 -1.0083919435904038
10.344739201194377 -0.723374632726578
9.407090217388085 -0.49300470780853156
8.614748928904605 -0.30083366157555874
8.018778515154258 -0.13996829962701396
4.87 0.0
4.469319197349069 0.0780122567746574
4.167459748669629 0.14553090124942925
3.9146277762379293 0.2051569484723401
3.7109382669665463 0.2594940823281465
3.456795602378357 0.3024304273343743
3.351538787391081 0.35226092121199265
3.1959986082850573 0.39241928576457474
3.0698310130988684 0.4314366129762028
3.061833855844927 0.4849468416247157
3.052904034337845 0.5383093507674841
3.0921256278601414 0.6010483354361162
3.100727894326164 0.6590800598922972
3.0887531053691957 0.7130948422700523
3.0758374522949086 0.766892409050947
3.1102811606508 0.8333973252301173
3.220226681393368 0.923385141986947
3.251436170274321 0.9940637960573048
3.28114498121828 1.0661086305935685
3.214763157037677 1.1069317251543327
3.194954910672088 1.1628684873072739
3.174173450090486 1.218451028454021
3.152425105527077 1.2736624176141011
3.129716501738297 1.328485836863531
3.151731828866973 1.4032414186115112
3.1267618652764426 1.458033003005413
3.1008394597321263 1.5123804564223178
3.0739725084498692 1.5662672241014366
3.046169195363298 1.619676891611324
3.0174379896309156 1.672593189849863
2.9444863728670914 1.6999999999999993
2.9572271874222875 1.7768813584396874
2.92576593173967 1.828221461604557
2.893413459411713 1.879004670801844
2.901631503942646 1.957175162147614
2.867032155011471 2.007517527228662
2.831559480312316 2.057248383023656
2.7952242851655247 2.1063525810321697
2.7580376376235267 2.154815163639804
2.7200108650993986 2.2026213686744303
2.7194577730723717 2.2818960143872147
2.641483530779702 2.2962066014667752
2.638164130444749 2.375413652573947
2.5963056407480556 2.4210941782218693
2.553656291202211 2.4660372151294405
2.5102290732122436 2.510229073212243
2.4660372151294396 2.553656291202212
2.4551940962249947 2.6328733258290136
2.375413652573947 2.638164130444749
2.3618125043658265 2.716954488801979
2.314035394871542 2.7577599952283207
2.2970194273319064 2.8365827593179436
2.2163813111723702 2.836838712984199
2.1665340833473734 2.8750878361702545
2.145416170867527 2.9529120294685582
2.0935539926813176 2.9899049616548203
2.041054097668226 3.025987139825902
2.015164429555601 3.1030811013980686
1.934205314451198 3.095375550970955
1.9056408771672009 3.171519012597815
1.8499999999999996 3.2042939940024233
1.7792513063040571 3.209854325201582
1.7370447823077955 3.26690609357803
1.6797648490363235 3.2967241394969613
1.6438918004590397 3.3704776736218762
1.584818481527623 3.3986542013874375
1.5130603122419775 3.398389102430475
1.48477828825924 3.497918443119273
1.3935365275071934 3.449123938988449
1.3331287723085166 3.4729191865695905
1.272314933171488 3.495656549323579
1.2925055731949116 3.753708745129288
2.092045051918394 6.438652615318189
2.432532583293168 7.956455569612456
2.899704983194831 10.112473041271114
3.835698248419361 14.315020745603992
5.435984994124532 21.80254496942164
5.482057194359994 23.745398478816185
5.056412320687905 23.788549649846153
4.6500152173264 23.922254460619573
4.240488498626436 24.049005328558124
3.8201296362824393 24.119349277333267
3.4055657804927963 24.231859642106226
2.360609181757707 19.225618957292408
1.7529423289985522 16.678132185325943
1.2611435975586134 14.414937281387559
1.005888351390289 14.384873604746664
0.7625348824596904 14.550032321374141
0.3653977304751863 10.463621958889933
0.16265642799548108 9.318580518857567
