# .PCD v0.7 - Point Cloud Data file format
VERSION 0.7
FIELDS x y
SIZE 4 4
TYPE F F
COUNT 1 1
WIDTH 180
HEIGHT 1
VIEWPOINT 0 0 0 1 0 0 0
POINTS 180
DATA ascii
1.0225800772880399e-16 -1.67
0.029145518750263607 -1.6697456509111734
0.0582821594931768 -1.6689826811218897
0.08740104692571642 -1.6677113230401381
0.11998113483989578 -1.7158101664468977
0.14555009038858907 -1.663645145813215
0.17978895682036394 -1.71057766003343
0.20961527065685367 -1.7071793808230737
0.24633638869931587 -1.7527744816725797
0.2690672798691972 -1.698823945823637
0.2986748655871203 -1.6938693351809977
0.3377319218164845 -1.7374801147023653
0.3680036927474342 -1.7313212532988358
0.3981633661886413 -1.7246350146698664
0.4402978499913952 -1.7659382218223136
0.47105066208658775 -1.7579850038461045
0.5016599875869385 -1.7494962866077404
0.5233453514536989 -1.7117855131738335
0.5531404199311559 -1.702391164168325
0.5990454042011685 -1.7397541791027429
0.6293170637192307 -1.7290344222460714
0.6773154246406177 -1.7644670060797112
0.7080064615560739 -1.752377485131228
0.758018389269191 -1.7857794156977342
0.7890690875670527 -1.7722781878266454
0.8198794277769569 -1.758237106851101
0.8723585821102642 -1.788600152135342
0.9034410944816983 -1.7731029831348522
0.9577219880832174 -1.801213089432211
0.9890116253025277 -1.7842242025643673
1.0199999999999998 -1.766691823720255
1.0764295765620133 -1.7914796584674144
1.107531262247398 -1.7724205209669301
1.165527534932158 -1.7947550154032073
1.2246324586009356 -1.8155922838955412
1.2848112174263433 -1.8349005792073418
1.31663896513514 -1.8121980673998825
1.3781564030181905 -1.8288753180083006
1.4406478522620405 -1.8439451634397293
1.4726097150566193 -1.818521549809312
1.5362623871508292 -1.8308462190543575
1.6335869821863633 -1.8792268547547024
1.6661352098335571 -1.8504306154387118
1.7322758345587463 -1.8576384021126928
1.8338980980117527 -1.899057072894039
1.8667619023324857 -1.8667619023324853
1.9709910529279044 -1.9033639350576526
2.0185362164689105 -1.8823154737724956
2.125394200865348 -1.913713534186334
2.196204878448267 -1.9091317743623764
2.305793773788124 -1.934790705156483
2.378066642058331 -1.9257203966125025
2.4901139813972417 -1.94549026202908
2.6035517627541744 -1.9619169754756771
2.7182971010998234 -1.9749584477027096
2.8342660732399114 -1.9845744697746193
2.9928256369237007 -2.018686381529396
3.069534278680252 -1.9933788681549989
3.2734656511638045 -2.0454883599401708
3.4372408758154704 -2.0653026803893164
3.602665679743265 -2.08
3.8133419231277657 -2.1137699442740296
4.0262410234367065 -2.140790326303662
4.196640728927213 -2.1382952537732653
4.817536088163536 -2.349669346789455
5.084386685275606 -2.370888448365324
5.170667290257121 -2.302129399809029
5.394158441231301 -2.289684412947144
7.102228325981592 -2.8694865055658854
7.104547045643706 -2.7271800960397354
7.104076213141466 -2.585672283542056
7.053568573970904 -2.428738432250389
7.094881611561846 -2.3052667780371077
7.134033479484245 -2.181092917231616
7.171012251699859 -2.0562546743948134
7.20580666411645 -1.9307900764648043
7.189891331705134 -1.792641246393537
7.2200821800585935 -1.6668873126880386
7.150258961364118 -1.519834459877821
7.175694711002423 -1.3948137562025429
7.1989446745192405 -1.2693681787452609
7.220001769750457 -1.1435359394440876
7.238859582500879 -1.017355368018078
7.2555123684980645 -0.8908649002916277
7.269955055142077 -0.7641030664865462
7.2821832430506594 -0.6371084794853804
7.292193207399316 -0.509919823069555
7.399844852531392 -0.3878094357602143
7.4054860282115 -0.25860527056553256
7.35887903635104 -0.12844971137840683
7.41 0.0
7.458863805866679 0.13019495202213519
7.455455569562455 0.2603502454006576
5.652243166710888 0.2962215123350625
5.147430499340693 0.3599434045196871
4.7418867629167085 0.41486133547885345
4.336115463805672 0.4557440998469698
3.9801100680817014 0.4886960670546412
3.6243811315941477 0.5093735495138394
3.417401658459177 0.5412632490391988
3.210473274819798 0.566093059194193
3.003779181349852 0.5838755258522272
2.8464095181353746 0.6050230202796799
2.6892613788072492 0.6208649099890676
2.5324718455803508 0.6314161475151331
2.376177532671108 0.6366948509522015
2.3166406872113487 0.6642860275189679
2.209063986274612 0.6753786379095218
2.1018349010122894 0.6829275575686338
1.9950441945145585 0.6869488059046006
1.8887821677796754 0.6874604880845941
1.8578250487294314 0.7131522195951476
1.7987366778595673 0.7267367912268695
1.69372893035249 0.718945276420264
1.7266009149445156 0.7687322554132625
1.758237106851101 0.8198794277769568
1.7436604498203838 0.8504400247708105
1.7285526569254337 0.8807415694947208
1.712918330146318 0.9107748318046285
1.6967622318504276 0.9405306632778939
1.5934867429633672 0.9199999999999997
1.534329468256781 0.9219181540889971
1.5180060921200027 0.9485554829774367
1.434126671186675 0.9313327498756965
1.4176542490691213 0.956219864934977
1.359792393519726 0.9521368843427368
1.38341906038116 1.005112781420129
1.3656667221808705 1.029103689590003
1.3474983886674945 1.0527811228068757
1.4144056498516873 1.145363111710704
1.3099359977334524 1.0991668125639822
1.29055338218094 1.1218609395737673
1.2336204102924742 1.1107568065557047
1.2140471446878232 1.1321172777037474
1.1941040685621604 1.1531328949619355
1.1384419177103418 1.1384419177103415
1.0836670579160357 1.1221700885282961
1.0298175236943727 1.1043440894449474
1.010387215601876 1.1221486864708652
0.990649133775666 1.1396114661363856
0.9706092906266746 1.1567271091096567
0.9188077709327626 1.1346331037271775
0.8680826802091783 1.111095162585478
0.8485591826443879 1.126076069166683
0.8464107633011613 1.1649844718999243
0.7972712465279538 1.1386213415616986
0.777278135824338 1.1523622258515078
0.7570482586708878 1.165752089444139
0.7100918140724947 1.1363844488496109
0.7159029241249754 1.191462547975936
0.6699999999999999 1.160474041071148
0.6496448911300917 1.1719904075667904
0.6197024628773756 1.1654908225737837
0.5992674596562019 1.1761286119286456
0.578649913761582 1.1864081411149006
0.5367251924106883 1.1510108895365454
0.5165555367062665 1.160202731206103
0.5079504670360558 1.1966563094881726
0.5057189011114814 1.251698203665163
0.4658783344088902 1.2136545544463624
0.4446261863233695 1.2216004070216808
0.40696019307144565 1.181898219499146
0.4017220926874317 1.2363734711836996
0.37131206499787545 1.214507040073055
0.3500594418875889 1.220802353841665
0.3287001872802016 1.2267257993871166
0.31933690219156136 1.2807903586843155
0.28568783901670874 1.2374499822772487
0.259889613522199 1.2226845009172571
0.23851124422068115 1.22703397930958
0.2257426309670093 1.2802500789158706
0.19554308130028866 1.2346104257439223
0.15309041105607177 1.0892948756157275
0.13405627774566226 1.0918007668054543
0.12020773275780172 1.1437001796735142
0.09587131702242396 1.0958141679009201
0.07673212111853801 1.0973204552858067
0.058616270992097 1.1184650789251227
0.03804045140572618 1.0893360014508144
0.019546695209757384 1.1198294185751583
