# .PCD v0.7 - Point Cloud Data file format
VERSION 0.7
FIELDS x y
SIZE 4 4
TYPE F F
COUNT 1 1
WIDTH 178
HEIGHT 1
VIEWPOINT 0 0 0 1 0 0 0
POINTS 178
DATA ascii
2.419289751715596e-15 -39.51
0.6862286211139911 -39.314011373549306
0.550016068031417 -15.750399433820949
0.6102372497927266 -11.64402037523833
0.6319936521217766 -9.037930295354007
0.6066039695237007 -6.933515098718549
0.6125367947484492 -5.827898306858081
0.6385953594429729 -5.200941834600528
0.5998360651378821 -4.268055376276168
0.6085300690064983 -3.842107644915086
0.6754914111243593 -3.8309021592174894
0.6983609230781544 -3.5927554914184503
0.5842318511979041 -2.748594758061994
0.587122251837488 -2.5431058690894637
0.5951278631751825 -2.3869274866389514
0.5978719941868229 -2.231288658727748
0.5815948207738681 -2.028262178429853
0.573048541256564 -1.8743573216875493
0.37391056319368643 -1.1507783847171358
0.38742610380401654 -1.1251671049631868
0.3967433662577758 -1.0900434401116537
0.37987002651801843 -0.9895952520870339
0.3970829890208669 -0.9828148858407946
0.4063603736288447 -0.957325047590538
0.4230061087988324 -0.9500872759483048
0.44797535744514144 -0.960686254258849
0.486591972935876 -0.9976613913920753
0.5629482196770381 -1.1048480899935762
0.5586711597152101 -1.050707635502123
0.5769234480931411 -1.0407974514958809
0.5699999999999998 -0.98726896031426
0.5613915016519592 -0.9343123577653024
0.5776119980141934 -0.9243724248105044
0.5664245964156281 -0.8722173906632409
0.5536009744360394 -0.8207471968294912
0.5678406719875356 -0.8109605238461018
0.5525181371549247 -0.7604759747124505
0.5657061217629253 -0.7507173794444553
0.5787217868061189 -0.7407301083903185
0.5600951480343553 -0.6916599056967041
0.5720809726210201 -0.6817795543758904
0.551089584352026 -0.6339560473871285
0.5620697093414408 -0.6242416534010111
0.5387787044493739 -0.5777694242791446
0.5835130311855576 -0.6042454322844669
0.6293250352560273 -0.6293250352560272
0.6402124223013995 -0.6182459497085075
0.6509047944410619 -0.6069785404556236
0.661398894674881 -0.5955262396593838
0.7094270054094056 -0.6166954872510768
0.7200817765318392 -0.6042203531053468
0.7693745018424012 -0.623027187139339
0.8195311837509909 -0.6402879343386846
0.7906491549468199 -0.5957968729205277
0.8413776741499454 -0.6112966623841721
0.8519181260605515 -0.596519493805088
0.8621990754572434 -0.5815606196095767
0.9141509190605123 -0.5936565481663795
0.9667748296183256 -0.6041079612258535
0.977170722800408 -0.5871434053974616
1.0738715006927038 -0.62
1.0845284368528507 -0.6011639291054579
1.139002394788016 -0.6056183159937991
1.193948742412413 -0.6083472696509927
1.204384022040884 -0.5874173366973637
1.2597678239809433 -0.5874393838195721
1.3611827318874754 -0.6060375981829422
1.4175774743167582 -0.6017259378734815
1.5205815214895313 -0.6143548132020955
1.5310718994554107 -0.5877234372542925
1.6538590125831987 -0.601955452253177
1.7113886218347636 -0.5892783595674537
1.816517946123743 -0.5902224592561495
1.9221725594857013 -0.5876671264927007
2.028262178429853 -0.581594820773868
2.182992367413294 -0.5849310419316966
2.3869274866389514 -0.5951278631751823
2.4943873658502023 -0.5758746991202941
2.650779997988613 -0.563440682116128
2.9546978221774682 -0.5743350760834
3.210473274819798 -0.566093059194193
3.5161704925186905 -0.5569066955432219
3.9214615522166185 -0.551125479801859
4.426755836320297 -0.5435372715869575
4.982554695795049 -0.5236876009709435
5.7878911959130415 -0.5063748653638933
7.172485521368137 -0.5015490462202601
8.298611433810509 -0.43491179637886385
10.853384381427379 -0.37900853418916103
14.707759595750517 -0.2567248986924408
25.46 0.0
44.003297063832775 0.7680804073048484
23.652243631660433 1.6539259924732133
16.845652344731416 1.4738036098629017
13.237086427351718 1.3912738460924696
12.26787043428674 1.5063050844876222
9.51647614060649 1.3374535002262284
9.491684953119274 1.5033352090366185
9.070079405242437 1.5992997163124287
6.979369274312891 1.356651957127234
6.0742966005569325 1.2911315999782857
5.807245586120002 1.340708283889436
5.734447742291139 1.429758402994037
4.887584681022685 1.3096243682187556
4.91204726624481 1.4085068882248655
5.93865253453045 1.815628286328195
5.953613792007661 1.9344463847871707
5.9189462832517235 2.0380566469018007
3.6741981472729015 1.337298760403365
5.9375715125222035 2.2792201591081103
5.989607700501446 2.4199585934667924
5.946461353302764 2.5241230900407094
5.9471809292533315 2.64785554642346
5.945379082960423 2.772375797018988
5.941028646037494 2.897633280275803
5.93410345109453 3.0235767282653816
2.304493217361799 1.2253207788711753
2.1952954649198833 1.216872146818306
2.130422493309719 1.2299999999999995
2.108631559727196 1.2669936642787334
2.086198316544808 1.303601390013684
2.105063125543014 1.3670439778877181
1.9979805498576506 1.3476548973645
2.056071631165369 1.439676855241126
1.9497309564436234 1.4165624580248604
1.8847798037116108 1.4202834546388343
1.7809043031511913 1.3913949342359877
1.717492574819906 1.3907980642201403
1.6929582192929413 1.420560617407252
1.6301726932811877 1.4170875026194956
1.5308783404834319 1.3784090490992482
1.5431563104164499 1.4390165397318717
1.3739390186468232 1.3267974875766848
1.2091525958289964 1.2091525958289961
1.1878658134848852 1.2300710585790937
1.1321172777037474 1.214047144687823
1.1776698671915906 1.3079348928402137
1.1874668424728183 1.3660243402032173
2.1597663685467725 2.573909328879766
2.1774485530324372 2.6889250266411193
2.1609717783930606 2.7659177451595935
2.1424614824212913 2.843142415768363
2.151294023390452 2.9610021994123077
2.1566474006799328 3.0800116865266096
2.1584846073970825 3.200085030062461
2.1567705786595077 3.321135449063879
2.1249762495751514 3.400672865587268
2.1425583916258257 3.565815970920787
0.9049999999999998 1.5675059808498342
0.901745893658187 1.6267926552792762
0.8732171067817567 1.6422825227176043
0.8217228045285798 1.6127218087809458
0.7276961036698681 1.4919981168566172
0.722677227576596 1.5497863158326715
2.09876107827113 4.71389456143582
0.6486136732921943 1.528038056731051
0.6218469450704142 1.539125198580867
0.6128091937224632 1.596422529310215
0.5506524307543268 1.5129051194653125
0.5078863209531642 1.4750089779349342
0.5129682106624127 1.5787538170499549
0.48533702983974264 1.5874658948986389
0.4437761428653687 1.5476313304606935
0.4166986626150588 1.5551405803254
0.36530206235549817 1.4651465466767546
0.3509236447764296 1.5200173010649671
0.3347378222165924 1.5748176371814273
0.2690406834809283 1.3840943286612062
0.2448439305103716 1.3885789317472135
0.24403776546276026 1.540793811328415
0.21015138244969853 1.4953047837997713
0.17183577420125795 1.399490073814264
0.142158710044009 1.3525497777008517
0.11417402299943216 1.3050150545001866
0.09486880429201063 1.356687108353361
0.0711769004904035 1.3581361672662204
0.045718340680276415 1.3092019833950155
0.022862652432841225 1.3098004806548726
