# .PCD v0.7 - Point Cloud Data file format
VERSION 0.7
FIELDS x y
SIZE 4 4
TYPE F F
COUNT 1 1
WIDTH 179
HEIGHT 1
VIEWPOINT 0 0 0 1 0 0 0
POINTS 179
DATA ascii
4.531193156845207e-17 -0.74
0.013438352956708371 -0.7698827252704213
0.025825627559850798 -0.7395492119941308
0.04029868630706686 -0.7689447417610219
0.051619790570652836 -0.7381973971922698
0.06710992191569677 -0.7670699175306441
0.07735106281806356 -0.7359462025725222
0.09018331411980914 -0.7344841522145783
0.10994674975845173 -0.7823117743058406
0.11576150412977088 -0.7308893720404019
0.12849965147352851 -0.7287577372290339
0.15073910634747048 -0.7754854749236546
0.153854651205142 -0.7238292245430161
0.17771133293165348 -0.7697523511803359
0.19111829752373746 -0.7665336237580372
0.19152609337586535 -0.7147851114539105
0.21775351109542934 -0.759396739791272
0.2163550614948252 -0.7076655194126462
0.2441234255562085 -0.7513346478731713
0.25719884202115384 -0.7469596747234603
0.2701959132272784 -0.7423571704208676
0.3010290776180523 -0.7842075582576494
0.29593920879857066 -0.732475245107762
0.30867759150652624 -0.7271988342274279
0.3213219480298823 -0.7217009115376546
0.3549993398621875 -0.7612985411107859
0.36823176330282503 -0.7549869988913002
0.38135201978121935 -0.748445480318229
0.3943561127401483 -0.7416759780014985
0.43148056201924 -0.7784115393540623
0.4449999999999999 -0.7707626093681504
0.4429327444226467 -0.7371638786038165
0.4822265304522165 -0.7717237675023476
0.5391926446648768 -0.8302838622659697
0.5815606196095768 -0.8621990754572433
0.596519493805088 -0.8519181260605515
0.6406859249987957 -0.8818285238686928
0.6559783752357327 -0.8705127059515493
0.6402879343386848 -0.8195311837509908
0.6859592262443228 -0.8470890979880984
0.7006384945583279 -0.8349884429996861
0.7479072930491782 -0.86036892145396
0.7962654215670413 -0.8843423423180992
0.7774781304712484 -0.8337432198458541
0.8266434608462067 -0.8560143624029948
0.8414570696119916 -0.8414570696119914
0.8919813524199275 -0.8613763793691566
0.9068785900077715 -0.8456779664774982
0.9586568248658387 -0.863178482202927
0.973575358487376 -0.8463161473977544
0.9881973316234817 -0.8291960164956357
1.041375588352341 -0.8432893240067821
1.0953349475133436 -0.8557694507026649
1.110103358965737 -0.8365228821813471
1.1649844718999243 -0.8464107633011613
1.1795789437761481 -0.8259500683455063
1.2767178617347643 -0.8611570713449501
1.3334862030332244 -0.865976065673893
1.3483964728887174 -0.8425716301307958
1.3371809890952953 -0.8034593968596844
1.3509996299037244 -0.78
1.3644067431374574 -0.7563030075842858
1.4480340522886401 -0.7699333629688608
1.4612506996689232 -0.7445444195728567
1.5639016405605506 -0.7627657954129947
1.6222909387956035 -0.7564866885158519
1.6809236420623859 -0.7483954232594723
1.7857794156977342 -0.7580183892691909
1.9563579331359213 -0.7904199121075741
2.203249806533396 -0.8457483609269087
2.3116438471333343 -0.8413695525811452
2.420527553534251 -0.8334544754103211
2.5773631591598662 -0.8374360547561074
2.7350316020542818 -0.836183075507027
2.7299832164648254 -0.7828100905202774
2.743229346660954 -0.7350460880911587
2.9691049224045494 -0.7402810005349829
3.1764464111998665 -0.7333404371609994
3.482205458612348 -0.7401656193112235
3.7890809281079827 -0.7365227221534631
4.146040640181396 -0.7310588279777768
4.602627667173342 -0.7289846070874759
5.109783234706503 -0.7181332009539375
9.042095441452444 -1.1102297184208931
9.06009446680497 -0.9522543003683223
8.975714229806627 -0.7852732421563992
9.237443105405973 -0.6459449468705991
11.843746282189246 -0.6207044410413147
15.450582185715222 -0.5395462190206658
26.455970013838115 -0.4617906743305224
32.01 0.0
37.70425658434752 0.6581302467499621
37.6870280868901 1.3160600206513133
9.696692782466913 0.5081821351189854
9.686346928022894 0.6773353600554577
9.722860253375437 0.8506400492171449
11.64585139476248 1.2240283048642238
9.042095441452444 1.1102297184208931
9.021342106235705 1.2678669497461958
8.997840782821704 1.4251179765165032
9.020839017591825 1.5906173074290821
5.605091217486161 1.089519363600071
4.949426859713056 1.0520331555378624
4.93031252781329 1.1382523349799571
5.006725947584142 1.248316981294286
5.032473554966045 1.348447224984134
3.834782071411772 1.1724105359381742
4.3368177143059 1.40911749434976
4.358840633512851 1.5008691920474926
4.378967612862333 1.5938138678976166
4.35048478747696 1.6699946448810996
4.320676762281229 1.7456667253181506
2.448542910183491 1.0393448017814686
2.4300309173293186 1.0819194705816289
2.4560941028693213 1.1452954893172953
2.3458524608408258 1.1441486931194924
2.3255270281316403 1.1849152043202171
4.335272680937331 2.3051053732787246
4.90661655705201 2.719781969581951
4.901703785419923 2.829999999999999
4.937283652044166 2.9666193114819124
3.739892104049839 2.336943955268434
3.824337789831133 2.4835539996685236
1.5420098849523778 1.0400988004555891
1.4662821592772952 1.026701821068373
1.4076895702124086 1.0227463389889033
1.3896257874822893 1.0471581402845644
1.3080978509871584 1.0219980490405927
1.3289195940914205 1.0761378686952217
1.294615108871073 1.0863110603702515
1.2754591905764847 1.1087397589939572
1.270777651566344 1.1442133368736478
1.2140471446878232 1.1321172777037474
1.158137078545228 1.1183999764389858
1.1384419177103418 1.1384419177103415
1.222598732007835 1.2660380485960263
1.1321172777037474 1.214047144687823
1.1107568065557047 1.2336204102924742
1.0562550366747168 1.215082424158663
1.0027486711110016 1.1950293312656057
1.0132058295902382 1.2512049979457232
0.9604319015080272 1.2292967756264863
0.9388314361171951 1.245871395673777
0.8875557309616344 1.2216156615061706
0.8374215970725271 1.1959619846619283
0.8164216390672903 1.210394855930361
0.7951729911219397 1.224459029200319
0.7471861625688189 1.1957478155805605
0.7262036856231765 1.2086058939899782
0.6799999999999999 1.1777945491468367
0.6593410835350185 1.1894828017095782
0.6384813253888113 1.2008087262881408
0.6174270796457838 1.2117688728961804
0.5523476449542373 1.1324804983369505
0.5113680967062463 1.0966324223143464
0.5043534374139924 1.1327963674768249
0.4845065993266994 1.141426018281026
0.4457818461649355 1.103348786934477
0.3906210650043772 1.01760266488195
0.372801956224979 1.0242649566566402
0.3613806514474438 1.0495256189152418
0.36773022330618743 1.1317572543912326
0.3537697627145112 1.1571287547152729
0.319739332747719 1.11506356728845
0.3131710445740504 1.1687702498097725
0.29272549367559786 1.1740578287939556
0.2721907757560768 1.1789877783901346
0.25157314588948865 1.1835585968879048
0.2213384346367921 1.13868753279929
0.20143188609363905 1.1423769934941614
0.18146397944666787 1.1457184750903597
0.16144079711367568 1.1487109597402216
0.13527497117971374 1.1017262283218674
0.11602659422709559 1.1039193038587833
0.09674287444990054 1.1057761148818377
0.07742968585597926 1.107296095788405
0.05547611361752037 1.0585473068398483
0.038738441339776206 1.1093238179911964
0.01902312301663888 1.0898339877204666
