# .PCD v0.7 - Point Cloud Data file format
VERSION 0.7
FIELDS x y
SIZE 4 4
TYPE F F
COUNT 1 1
WIDTH 180
HEIGHT 1
VIEWPOINT 0 0 0 1 0 0 0
POINTS 180
DATA ascii
3.735172737399427e-17 -0.61
0.011169540119861503 -0.6399025249000905
0.022335677889600693 -0.6396101292922213
0.03349501199548414 -0.6391229022429272
0.04324901372135778 -0.618489711161091
0.05403656050354805 -0.6176407128168823
0.06480764722594515 -0.6166035751283294
0.07555899291119145 -0.6153786140176196
0.08628732259524059 -0.6139662026197736
0.10481109157695473 -0.6617511881987423
0.10766187015349686 -0.610580806867569
0.12211775704098875 -0.628241397406505
0.13306348212336605 -0.6260144644696356
0.1439686747800737 -0.6235968414625506
0.15966845109578068 -0.6403951793421577
0.15787961751253765 -0.5892147540363316
0.18192065483921946 -0.6344327193192905
0.1929653251170063 -0.6311611389356034
0.21940206600621268 -0.675250126569559
0.21487498194172347 -0.6240422598955491
0.22573329459494143 -0.6201971297186996
0.25444124417716324 -0.6628421028130133
0.2659706813252976 -0.658300536742419
0.27741910122738433 -0.6535584459512326
0.2887830165838183 -0.6486172749262465
0.3000589658358966 -0.6434785287960214
0.311243514220245 -0.6381437728724085
0.32233325481507824 -0.6326146321737411
0.3333248095779825 -0.6268927909298381
0.34421483037489936 -0.6209799920689709
0.3449999999999999 -0.5975575286112627
0.36567703318613853 -0.6085887834984997
0.37624267760557545 -0.6021141482710624
0.3866937148606692 -0.595456103241251
0.3970269614642303 -0.5886166765140796
0.4072392698092427 -0.5815979514451841
0.4173275291276559 -0.5744020660062127
0.42728866643795427 -0.5670312121335779
0.43711964748121745 -0.5594876350607725
0.47828349719787644 -0.5906309307072979
0.4885185833617699 -0.5821937767704233
0.49860486203278553 -0.5735792809693068
0.5085392608327323 -0.5647900673628197
0.5183187536474989 -0.5558288132305694
0.5974061985947376 -0.6186322282912399
0.6081118318204309 -0.6081118318204308
0.61863222829124 -0.5974061985947376
0.6655318684734453 -0.6206185076568737
0.7134190324582985 -0.6423653821045038
0.6867857180027226 -0.5970137163813617
0.7354026653942188 -0.6170761052990776
0.7849174210715406 -0.6356135949603358
0.7564903234624532 -0.5910350163126318
0.8066218651477658 -0.6078331733835688
0.8171071643186969 -0.5936631048153979
0.8109605238461018 -0.5678406719875356
0.8373279482805922 -0.5647848325054543
0.8889908020221495 -0.5773173771159287
0.941333386733633 -0.5882103832988574
0.9514557037793447 -0.5716922631501601
0.961288198200727 -0.555
1.014558860281699 -0.5623791594857509
1.0683665873593016 -0.5680605909709279
1.0335675680585066 -0.5266289796978743
1.087540796021992 -0.5304290876147837
1.0966324223143464 -0.5113680967062463
1.1510672766296772 -0.5124881702755082
1.251886600695319 -0.5313943347454122
1.260970042210831 -0.5094649670456403
1.3630274226859145 -0.5232172063361384
1.4189358573867217 -0.5164504164217598
1.4277330491549685 -0.4916079132303066
1.436095339605682 -0.46661566150617056
1.5396506571004873 -0.4707184446036061
1.6437575000545253 -0.4713398784470685
1.7000294542687602 -0.4555215193804364
1.7562352645595536 -0.4378786310353984
1.8123283205005376 -0.4184089610795887
2.0149840575116396 -0.4282980830845844
2.0712333570745707 -0.40260698024450964
2.1271847465063694 -0.3750800637605696
2.330944483804525 -0.3691853374949448
3.7234079384683043 -0.5232908596098459
3.731973530171371 -0.45822873120335433
3.6896762318162937 -0.38780059872299405
3.695882329920376 -0.32334780559381143
3.651084423950957 -0.25530869390349814
3.6549840972017402 -0.1915495998491747
4.2574049231013475 -0.14867185595265434
5.00923695273352 -0.08743655625079051
5.66 0.0
5.659137954585175 0.09878062043502482
5.606582539577127 0.19578617650103072
5.60231168997316 0.2936047145229153
5.596334321957614 0.3913338177045435
5.588652256294693 0.48894371681436305
11.546399205225653 1.2135754585374583
12.863398125271535 1.5794266905307108
12.586307153705361 1.7688901132024315
12.504134391934445 1.9804603274093229
11.630579563074177 2.0507849782464476
11.593017036516912 2.253454235396995
11.600830544702934 2.4658326530986265
11.507310465113628 2.6566719518010466
11.507707313633318 2.8691936818120602
11.504176591102802 3.082534827171024
9.958671169920983 2.8556030062641105
8.951012515814012 2.7365991562048153
8.18859660530127 2.660636321568297
7.479051932990596 2.5752441017561094
6.822168426905694 2.483066240544355
5.050670107349862 1.9387706070400748
4.737909496836283 1.914239692355311
4.47365358777886 1.8989532844578711
4.25712183261452 1.8953927567332296
4.042132730183459 1.8848774473635193
3.783922934919493 1.8455425279820166
3.6174864882047735 1.8432014289425598
3.3640303287925115 1.7886866542142446
1.7579856113501853 0.9744673366951374
1.7407110616067216 1.0049999999999994
1.7057629283972033 1.024925769071008
1.662174268466595 1.0386417578970817
2.692132523104811 1.7482913023982374
2.5783068506461797 1.7390899297940225
2.4246900510954155 1.697786251599097
2.3542394536310973 1.7104550841710968
1.4055984976832352 1.0591944407476053
1.4105392489560322 1.1020340408329283
1.3910912710079781 1.1264834999792088
1.3482382198894014 1.1313061930483093
1.8943210463591575 1.6467081627661728
1.8281362706743896 1.6460612916427915
1.7259947358212424 1.6095161297474962
1.6976419287992162 1.6393937542832338
1.633416664540925 1.6334166645409247
1.5699279172373335 1.6257079487653519
1.5413162937412463 1.6528593656593251
1.445322109735134 1.6051928230311714
1.4170875026194958 1.6301726932811877
1.452699997891579 1.7312604414488901
1.4537301033251244 1.7952071709656028
1.422178008002271 1.8203048408315277
1.4202834546388337 1.8847798037116112
1.4165624580248604 1.9497309564436234
1.4396768552411252 2.0560716311653695
1.375614542538037 2.039432428485403
1.421507881389221 2.188930182337556
1.3830892796486647 2.213405530968272
2.9151155039909074 4.851566921973955
2.9049999999999994 5.031607595987588
2.8894653366681693 5.212733454550799
2.8215240923432026 5.306515033082151
2.2517928787081525 4.419392359974305
2.6565291495418077 5.446691920572952
2.032793838972764 4.359340455646286
1.9767400853483899 4.43983092414304
2.0943188487025073 4.933906014505081
2.157733978075654 5.340579002304695
2.046280991903664 5.330744235299022
1.9358340112232857 5.318660233648242
1.631096453830354 4.737048063752577
1.5327242920997393 4.7172403208239615
0.3976255184229217 1.3005744681097284
0.3831359245856288 1.3361537573542632
0.3649348535945545 1.361955415067586
0.32901377801554804 1.3196021877353552
0.3059334339076566 1.32514328810792
0.2827598995121526 1.3302807369979759
0.24995978394327384 1.2859316103164398
0.2274791127436786 1.2900981564459928
0.20492914920270253 1.2938717261796304
0.18231676225768548 1.2972511700514573
0.15355537269048583 1.2506081510680658
0.13170586371724363 1.2530975881640243
0.1080731210070961 1.2352814256337645
0.08998585112992184 1.2868576248351733
0.06751338355339744 1.2882320998334003
0.045020350746226394 1.2892141668546335
0.021640983982231386 1.239811141993925
