# .PCD v0.7 - Point Cloud Data file format
VERSION 0.7
FIELDS x y
SIZE 4 4
TYPE F F
COUNT 1 1
WIDTH 180
HEIGHT 1
VIEWPOINT 0 0 0 1 0 0 0
POINTS 180
DATA ascii
3.91886975727153e-17 -0.64
0.012042160441725682 -0.6898949096579099
0.023382662790675725 -0.6695918541027942
0.03506509068277246 -0.6690817882855645
0.04673683740856406 -0.6683679136740822
0.05577967535850121 -0.6375646067787172
0.07526049355271049 -0.7160557646651567
0.08165246008144883 -0.6650059215996857
0.0890707846144419 -0.633771563994605
0.10793978087775932 -0.681504955010645
0.11981724259018198 -0.6795173495784235
0.12211775704098875 -0.628241397406505
0.13306348212336605 -0.6260144644696356
0.15521622749726693 -0.6723153447018123
0.1548300131837873 -0.6209892648166377
0.1785851411207393 -0.6664888201394571
0.1901897755137294 -0.66327057019744
0.20173647625868835 -0.6598502816144944
0.21322172611871373 -0.6562289962436559
0.22464202657543814 -0.6524078171635285
0.23599389889471148 -0.6483879083422767
0.2651922826635223 -0.6908495156079293
0.2584785494569794 -0.6397568596510832
0.26960447865759885 -0.6351483488821839
0.2806482837223022 -0.6303463657733944
0.3127375136881176 -0.6706677624071209
0.3243946486239173 -0.6651075942613836
0.3359529698072647 -0.6593448278993922
0.3474089564615592 -0.6533812187156058
0.35875911898228946 -0.6472185832831528
0.36999999999999994 -0.6408587988004847
0.40688007917894287 -0.6771621675546687
0.39214025553257165 -0.6275555911557552
0.4302648376618714 -0.662549748676885
0.4417623937418901 -0.6549396823184829
0.4531253847173264 -0.6471301149883035
0.4937396119256774 -0.6795742752749558
0.47543386829011813 -0.6309220529373614
0.517155639273553 -0.6619290330296463
0.49716310892937154 -0.613945309551007
0.539941592136693 -0.6434773322199415
0.551089584352026 -0.6339560473871285
0.5955262396593839 -0.6613988946748809
0.6069785404556237 -0.6509047944410616
0.6182459497085075 -0.6402124223013995
0.6646803743153546 -0.6646803743153545
0.6402124223013995 -0.6182459497085075
0.6874724795220203 -0.6410784584587486
0.7134190324582985 -0.6423653821045038
2.6112951475707913 -2.269964240307155
2.612211551035715 -2.191905749031099
2.650067728568271 -2.1459825334799456
2.687116669798922 -2.0994056308604945
2.683415313758904 -2.022098477790882
2.7182971010998234 -1.9749584477027096
2.7933084710254623 -1.955895647957067
2.78556624378494 -1.8788881556617092
2.7759995798993535 -1.8027552058997394
2.8070391982777703 -1.7540327646119083
2.794365400288886 -1.679024124206776
2.7799415461480477 -1.605
2.7637982745604908 -1.5319983999784252
2.7459670137912626 -1.4600565602641205
2.681929637806987 -1.3665114042160358
2.615490674730576 -1.2756600371562152
2.5467248815729864 -1.1875573154913652
2.658417281739969 -1.1836036313505784
4.887880771832458 -2.074782292278043
5.155142231391338 -2.08281265939247
5.3774232566238815 -2.0641993893809296
5.647552650923309 -2.0555410613872693
5.9189462832517235 -2.0380566469018007
6.1913779210814495 -2.0117006333809075
6.512435388108272 -1.991051309161837
6.8826337429183635 -1.9735634676497136
7.254102955430903 -1.9437310287199303
2.9691049224045494 -0.7402810005349829
7.561111702733426 -1.7456201817083914
2.9931316582454452 -0.6362097739023438
3.003779181349852 -0.5838755258522272
2.9150309489161357 -0.5139986058941138
3.0223263222211214 -0.47868946302310644
2.7826532731638127 -0.3910764136977838
2.689800070947983 -0.3302659206279495
2.8940587155216755 -0.3041778281088714
2.89892657144698 -0.253623211395685
2.703398576204124 -0.18904004384657924
2.7562175159226237 -0.14444723923052516
2.758318682572704 -0.0963226108989028
2.70958725387382 -0.04729602144503838
2.56 0.0
2.70958725387382 0.04729602144503838
2.6084100585198398 0.09108768639352766
2.586450495014346 0.1355501266692247
2.5836908901729445 0.18066926699728478
2.649877896924043 0.23183427570877108
2.6951543364480206 0.2832721354553413
2.5905454557838508 0.3180789862874348
2.6341130628525775 0.370200448553774
2.7754042370723373 0.43958084676304876
2.8657905612655257 0.5053161970107674
2.8565351038327025 0.5552541765457456
2.8953168981720645 0.6154186048205678
2.932853895003558 0.6771026735750338
2.8720753497769493 0.7160888109750168
2.7142515718722815 0.7272815167380837
2.605019195992844 0.7469772342640676
2.6394011264579778 0.8069459050347533
2.6249159849746238 0.8528869044748547
2.6096312686541143 0.8985681063017524
2.5935516333691067 0.9439755955788457
2.623360998457137 1.007013938222294
2.6053866313326726 1.052644527498713
2.586618638201357 1.0979544710548597
2.6127400088578385 1.1632667991967889
2.5467248815729864 1.1875573154913652
2.4357318654707423 1.1879858077984002
2.3968075500667094 1.2212344442993808
2.41927640443346 1.2863520820333414
2.3964579975619444 1.3283783594749636
2.416210876558584 1.3949999999999996
2.4086401149729353 1.4472569904972525
2.383015150199557 1.4890731324953057
2.3985978243239123 1.5576676401429776
2.4124993361351716 1.6272513490998732
4.1858669463167475 2.9309755897538468
4.134076841255982 3.003582639214538
4.12095923184403 3.1053655194645704
4.499541403094382 3.515427024109509
4.460817818763013 3.612299044626066
5.9445048786032695 4.988031851167546
6.875404275829452 5.97669775410352
4.637223710978939 4.175374983679276
4.453944042860749 4.1533700127806155
4.45271336409625 4.299935313141194
4.638620484583752 4.638620484583751
4.86955517691757 5.042572000373945
4.59666894682124 4.9293239489132095
1.030461133792642 1.144443031235187
1.0103309046453812 1.162252753543069
0.9577535384329439 1.1414062202472772
0.9376873826642577 1.1579474825708866
0.8865525244689481 1.1347354851936795
0.8666136333389494 1.1500351344681017
0.8170215006865376 1.1245336221811768
0.7972712465279538 1.1386213415616986
0.777278135824338 1.1523622258515078
0.7298163069201364 1.123818561046868
0.7100918140724947 1.1363844488496109
0.6901510203794727 1.1486041829408304
0.6699999999999999 1.160474041071148
0.6254044101177749 1.1282594222098206
0.6056183159937989 1.139002394788016
0.5856477446640155 1.1493984162029947
0.5654987793579096 1.1594443197259254
0.5240466445584673 1.123821655925446
0.5043534374139924 1.1327963674768249
0.4845065993266994 1.141426018281026
0.4457818461649355 1.103348786934477
0.42645785995890717 1.11096070753167
0.3899029633912624 1.0712495876959354
0.37114769608115844 1.077891176183221
0.36773022330618743 1.1317572543912326
0.3566934797617386 1.1666918022749033
0.336277574096739 1.1727392690447491
0.29505371141687387 1.1011554419695377
0.2757909609836211 1.106137127954636
0.25644420195200623 1.110781873855168
0.24741491207313349 1.1639956448732287
0.22324652459055755 1.1485038046337668
0.20316836787030834 1.1522250710242834
0.18302832409707018 1.1555953584963112
0.1558738730752731 1.109100236990559
0.1364936646137652 1.1116516898382807
0.11707187885977213 1.1138645228124662
0.09761443187737713 1.115738061862755
0.07812725059342052 1.1172717362910032
0.058616270992097 1.1184650789251227
0.03908743630680121 1.1193177262613874
0.019546695209757384 1.1198294185751583
