# .PCD v0.7 - Point Cloud Data file format
VERSION 0.7
FIELDS x y
SIZE 4 4
TYPE F F
COUNT 1 1
WIDTH 179
HEIGHT 1
VIEWPOINT 0 0 0 1 0 0 0
POINTS 179
DATA ascii
1.2246467991473532e-16 -2.0
0.0349048128745672 -1.9996953903127825
0.06805401856987711 -1.9488121126872366
0.10205511467374073 -1.9473275927714189
0.1395129474882509 -1.9951281005196484
0.17431148549531628 -1.992389396183491
0.20905692653530691 -1.9890437907365466
0.21936481812926548 -1.7865830729543797
0.25329504374731915 -1.8022878851096582
0.28783941567402493 -1.8173465466950536
0.31083023802380544 -1.7628058778918525
0.356812821354139 -1.8356428330471317
0.37839927728832223 -1.7802286333355262
0.4094109189058346 -1.7733535179091282
0.4402978499913952 -1.7659382218223136
0.4839916143417138 -1.8062812951605578
0.5071727347032785 -1.7687215205265068
0.5467350878315178 -1.7882898936508764
0.5840421193686507 -1.7974968157978402
0.6153238119240262 -1.7870301078827084
0.6635190780517976 -1.823003684324662
0.6773154246406177 -1.7644670060797112
0.7080064615560739 -1.752377485131228
0.758018389269191 -1.7857794156977342
0.7890690875670527 -1.7722781878266454
0.8198794277769569 -1.758237106851101
0.8723585821102642 -1.788600152135342
0.9034410944816983 -1.7731029831348522
0.9577219880832174 -1.801213089432211
1.0132521063148445 -1.827955187921337
1.0449999999999997 -1.8099930939094768
1.0764295765620133 -1.7914796584674144
1.1340272254590587 -1.8148229257747517
1.165527534932158 -1.7947550154032073
1.1966728134273985 -1.7741404052677892
1.2561323956087909 -1.793942976992892
1.31663896513514 -1.8121980673998825
1.3781564030181905 -1.8288753180083006
1.4098647784957579 -1.8045446257593931
1.4726097150566193 -1.818521549809312
1.5041230066665021 -1.7925439968984085
1.6007840307368377 -1.8414913757435636
1.632678679515614 -1.813273374164842
1.6981759165556216 -1.8210707170317344
1.7296993424429032 -1.7911561028432414
1.796051224213831 -1.7960512242138307
1.8774768788838796 -1.8130583468979828
2.0185362164689105 -1.8823154737724956
2.2368659246869567 -2.014083125140163
2.3094113154816824 -2.0075406287109523
2.3823982181000214 -1.999069466125137
2.455781238204028 -1.9886524357174862
2.5295145190775776 -1.9762733357953628
2.643483538256539 -1.9920077266332799
2.758747950818571 -2.0043477103173335
2.875223675454361 -2.0132532915921715
3.034277515551453 -2.046646026702933
3.1198545127569774 -2.0260572102559005
3.129297474817212 -1.955402085020526
3.1372323205697312 -1.885039354170798
3.2129542480402673 -1.855
3.332301084201098 -1.8471246531385441
3.408177708435458 -1.8121602323535384
3.4392851833671 -1.7524033289946506
3.4693450187147845 -1.6921126266058388
3.4077172792578034 -1.5890446641450295
3.4349309207361793 -1.5293297779650086
3.645199219671664 -1.5472952688175237
3.4862112931711207 -1.4085207912438287
3.4635833823046185 -1.329545092813064
3.4392749920764247 -1.2517937245719477
3.4605979866934997 -1.1915794453131936
3.480866849640262 -1.1310021994123076
3.5957058824210133 -1.09931760975749
3.8065963159157428 -1.0915239290353165
3.6318811068468966 -0.9731596095854778
3.7938562897391463 -0.9459146117947004
4.10209797274584 -0.9470439387876711
4.4114456793094625 -0.9376817255880948
4.81978947072803 -0.9368721672988353
5.327809943796045 -0.9394366411780932
12.553518808964203 -1.9882820506613346
12.685333960579516 -1.7828074232984379
12.714516202525337 -1.5611462890199388
12.739825479667582 -1.3390096144586399
12.711444347650673 -1.1121072774601168
14.923558191886972 -1.0435568472121126
31.516748116854348 -1.6517227790273095
34.189160192323264 -1.1939117821925598
34.40475919033142 -0.6005373055069264
37.86 0.0
37.75424896910533 0.6590028670718263
30.641322756405476 1.0700185688986812
30.46818710536205 1.5967700249722185
13.010302757078197 1.1382540002844173
12.739825479667582 1.3390096144586427
12.764143510107402 1.5672397561901958
12.833874170890752 1.803683388442448
12.701672060053472 2.011747220417369
12.566146928435774 2.2157507470300315
12.427400142447427 2.415641881467058
12.236626485179908 2.60097525213017
5.709808579641479 1.3182131784550495
5.297814665466941 1.3208935499741865
5.032473554966045 1.348447224984134
3.566280891931163 1.0226145900810666
3.308814455632103 1.011606098340669
3.1955498947517156 1.0382971010998232
3.1769424140137046 1.0939089989760464
3.8621366714300835 1.4057027890684988
3.183509254355458 1.2220347079494742
3.115337751344405 1.2586781538774647
3.092896307600199 1.3128565917239603
3.023835464797009 1.3462982885808992
2.9545633857394784 1.37773553327468
2.8851288886203257 1.407171381192939
2.904681268854079 1.4800090291509225
2.8342617730771553 1.50700371654271
2.80752925991746 1.556238880990742
2.9531466269049362 1.7049999999999994
2.9229404953942026 1.7562798354432851
2.934246412701234 1.833520654246889
3.0695342786802517 1.9933788681549995
2.9099218796681963 1.9627670911823212
2.8342660732399114 1.9845744697746202
2.7182971010998234 1.9749584477027096
2.603551762754174 1.961916975475678
2.529514519077577 1.976273335795363
2.4557812382040285 1.988652435717486
2.344095995944073 1.9669300856408105
2.2716758364705436 1.9747376772614265
2.199708683413087 1.9806265948222206
2.1501798827603613 2.0050751785837453
2.0788920229787013 2.0075626906265023
2.008183258569795 2.0081832585697947
1.938096853580602 2.006958042944837
1.868675506571246 2.003909142436527
1.7999613311053289 1.9990595805341902
1.7647987879844644 2.0301687707992566
1.6969592895724643 2.022357329834102
1.6299398128190787 2.0128080401735544
1.5637801473271724 2.0015473141610736
1.5286101588062024 2.028534195520124
1.4341960155936344 1.9740014662748717
1.3995265046965522 1.9987309880651403
1.336471039295085 1.98139979840655
1.301687293685915 2.004422657389563
1.2665070415173598 2.0268349498138583
1.2309409990350297 2.0486298486780483
1.1699999999999997 2.0264994448555864
1.110214030364112 2.0028791293492163
1.0750898787796896 2.0219499876469427
1.016938719416585 1.9958546141819442
0.9600328114680792 1.9683589613951757
0.9255339932121317 1.9848140536102634
0.8907532483360028 2.0006645522372954
0.8557011713915094 2.0159056290608444
0.8016581099100522 1.984173448772925
0.7669074120269423 1.997862112704012
0.7319231067169313 2.010942208481844
0.696715850538315 2.023409751782538
0.6612963679623876 2.0352609448716286
0.6256754481066562 2.046492177760896
0.5760820736575282 2.0090369445110863
0.5279908520091428 1.9704886856296993
0.4935206670233221 1.979403281603033
0.47014770357867813 2.0364334354011415
0.42413984926822884 1.9954211054969637
0.38925035056815166 2.0025194542332345
0.3594517277705455 2.0385520487352706
0.3269480319340826 2.064268631843838
0.2811296639393318 2.000341498857972
0.25226954084865527 2.0545705338975364
0.2163739189640431 2.0586603234123255
0.17605460035026943 2.0123132901453262
0.14090807696313343 2.015079381524845
0.10833542942289354 2.067163136941968
0.07049698333905219 2.0187694705785733
0.03525386100331242 2.0196923442159105
