# .PCD v0.7 - Point Cloud Data file format
VERSION 0.7
FIELDS x y
SIZE 4 4
TYPE F F
COUNT 1 1
WIDTH 180
HEIGHT 1
VIEWPOINT 0 0 0 1 0 0 0
POINTS 180
DATA ascii
7.164183775012016e-17 -1.17
0.02041931553162181 -1.1698218033329777
0.03908743630680121 -1.1193177262613874
0.05861627099209725 -1.1184650789251227
0.08161507428062678 -1.1671499388039943
0.09761443187737713 -1.115738061862755
0.11707187885977188 -1.1138645228124662
0.14258713178402255 -1.1612789974203466
0.1586573350944746 -1.1289055983653902
0.18302832409707018 -1.1555953584963112
0.20316836787030856 -1.1522250710242834
0.22324652459055755 -1.1485038046337668
0.23701932753224575 -1.1150882648365383
0.25644420195200623 -1.110781873855168
0.2757909609836211 -1.106137127954636
0.26140723555354595 -0.975585084551959
0.2590991144679792 -0.9035859941820197
0.27482940243937254 -0.8989264706052532
0.29047597471245057 -0.8939931253174442
0.3060340651897273 -0.8887874610633577
0.32149893472612867 -0.8833110635387538
0.3368658725725823 -0.8775656009073696
0.3783526593500713 -0.9364556931124552
0.4962285331813776 -1.1690411638845992
0.5165555367062665 -1.160202731206103
0.3845826181840365 -0.8247400862033515
0.39015032064227895 -0.7999267012062585
0.4040515447681967 -0.7929958065276475
0.4178296908794429 -0.7858233576444449
0.45572104303155686 -0.822142524711032
0.4449999999999999 -0.7707626093681504
0.48413579041545096 -0.8057372626599855
0.5087224936638767 -0.8141261723101689
0.7298163069201363 -1.123818561046868
0.7772781358243381 -1.1523622258515078
0.797271246527954 -1.1386213415616986
0.8464107633011613 -1.1649844718999243
0.8666136333389495 -1.1500351344681017
0.917335598235231 -1.1741360228740156
0.9376873826642577 -1.1579474825708866
0.9898929189172706 -1.1797084424032263
1.0103309046453812 -1.162252753543069
1.0304611337926417 -1.1444430312351872
1.0843773924993727 -1.162852385574481
1.1392397275527555 -1.1797172725553877
1.1950104602052654 -1.1950104602052651
1.2156842625723205 -1.1739726460757054
1.2725554408173567 -1.1866771465087473
1.2930719963306663 -1.1642872550644132
1.350930148598762 -1.1743456618930082
1.4095217753389195 -1.1827292018232323
1.468805867153675 -1.1894155390841925
1.5287408619970406 -1.194383262131777
1.6292164404964773 -1.2277026472301784
1.650394668524893 -1.1990819146766452
1.7120277725639927 -1.1987747519736862
1.7741404052677894 -1.1966728134273983
1.87862207219775 -1.2199914384336605
1.984432545006037 -1.2400110783056995
2.022914829656985 -1.2154898567877275
2.130422493309719 -1.23
2.239026450276853 -1.2411126278306228
2.304493217361799 -1.2253207788711749
2.414627680550477 -1.2303142542941718
2.5705509724156177 -1.2537414798167614
2.6826710496284836 -1.2509500547524701
2.795449100386359 -1.2446141278119485
3.000845822254955 -1.273783478875032
3.1616969440727454 -1.2774084835482598
3.323546318330038 -1.2757899003812692
3.533244254155015 -1.2859957389045145
3.744253559373295 -1.2892498916503405
4.051500759417354 -1.3164123960372758
4.31293444939329 -1.3185963882995426
4.67173184226023 -1.3395975492706158
5.032473554966046 -1.3484472249841328
5.928506887546339 -1.4781427821139692
6.002119599077049 -1.3856984947582076
6.710092541033907 -1.4262741990098295
7.4701828660367235 -1.4520564548155064
8.52843514108572 -1.5037932185956169
9.837375872327573 -1.5580872718006995
11.59603908496379 -1.629717012242366
12.51600697219707 -1.536772420338909
20.447370168771698 -2.1491052047829533
20.531572727670873 -1.7962798580292327
41.10961451120736 -2.874664282995399
41.10359165049825 -2.154147958959571
41.13492644010598 -1.4364632842749419
41.203723517394884 -0.7192136692804545
31.16 0.0
20.606860997173225 0.35969409667241364
20.4475363208107 0.7140437025331708
12.642649909992905 0.6625732060356698
12.230135256185445 0.8552143681029774
10.719054951467182 0.9377957919648032
9.507629319720694 0.9992921088387685
8.545822365631782 1.0492950467183193
7.833020423745822 1.1008592285941174
7.071848518661186 1.120070769688053
6.509579247410695 1.1478144543784097
6.046823450037611 1.1753834115195163
5.63413018022672 1.197571339110294
5.222623547248861 1.2057376512831168
4.958211161270342 1.2362208865143027
4.6461032244504175 1.2449196069431254
4.383353333478734 1.2569063425255158
4.121673498200683 1.2601220473549952
3.9088422819730813 1.2700598468810338
3.696977630593329 1.2729714839274828
3.533244254155015 1.2859957389045145
3.370225339654898 1.2937082978585341
3.2080561368010843 1.2961388132190559
3.092896307600199 1.3128565917239603
2.9324809190327485 1.305624624273319
2.818617217683981 1.314342794013575
2.660430377045534 1.2975785944956697
2.5928289853881505 1.3211123542420813
2.5252301155765307 1.342688669567648
2.0203715234920043 1.1199102227690387
1.9831981746663647 1.1449999999999996
1.9371980995867735 1.1639860492967224
2.043795911736987 1.2771054268020239
1.811528426762116 1.1764203156324589
1.7326885266400371 1.1687131682538607
1.7284108134497724 1.2102462807007075
1.893099766837377 1.375417490364387
1.788943542505936 1.3480656518605887
1.7651440880790572 1.3790817047294748
1.7019496555907665 1.3782116563991436
1.639335108274613 1.3755654847291943
1.5773430226655933 1.3711633705901598
1.516015443973884 1.365026436972071
1.491961551303108 1.3912766545274968
1.467453192690848 1.4171030757363547
1.3717871555019023 1.3717871555019021
1.3476372386904545 1.3955192126569835
1.288976900518122 1.382258496060232
1.2312003157002993 1.3673864788784054
1.2071486133425335 1.3886656276099005
1.1827292018232327 1.4095217753389195
1.1579495195317009 1.4299485690808265
1.1020340408329286 1.4105392489560322
1.0471581402845638 1.3896257874822897
1.0227463389889033 1.4076895702124086
0.9693441774332676 1.3843669548483963
0.9450360068655621 1.4010734976180206
0.8932080174246445 1.3754197314304952
0.8955635565541162 1.4332012825043599
0.8446624428524889 1.405754373151464
0.7949999999999998 1.3769803920172576
0.770847296191676 1.3906453343516394
0.7464597848295662 1.403886672645694
0.6991453695989022 1.3721500472500865
0.6970101233946329 1.4290825336156756
0.6635106709328982 1.4229032256475405
0.6263744303367326 1.4068600047696052
0.5821893814490179 1.3715522316441362
0.5581638241897091 1.381503943304513
0.5447192833088562 1.4190422482757468
0.5198706178550166 1.4283327835945807
0.5111420024977358 1.4844641636909275
0.4697058314499201 1.4456059047686334
0.4444049911785596 1.453583229063814
0.40518691305098875 1.4130546930293288
0.39340494855583186 1.4682072559593837
0.3677212813114949 1.4748495039395146
0.3306780498854818 1.4323239952342959
0.3056301855021061 1.4378769730786944
0.28048922320352104 1.442991959668066
0.2552628211703874 1.4476673969279459
0.22995866360913944 1.4519018606748526
0.2045844584112959 1.4556940610501083
0.17914793480556682 1.4590428429127433
0.1536568410034509 1.4619471861913618
0.12811894183905745 1.464406206194866
0.10602984009107069 1.516297356394933
0.07693385567712731 1.4679854160892236
0.05130226015267659 1.4691045157180707
0.025655037462806562 1.469776111879895
