# .PCD v0.7 - Point Cloud Data file format
VERSION 0.7
FIELDS x y
SIZE 4 4
TYPE F F
COUNT 1 1
WIDTH 179
HEIGHT 1
VIEWPOINT 0 0 0 1 0 0 0
POINTS 179
DATA ascii
1.151167991198512e-16 -1.88
0.03193790378022899 -1.8297212821361961
0.06386607896557699 -1.8288852134449454
0.09839159773673466 -1.8774235253385987
0.1276543469517496 -1.8255422119754783
0.1638527963655973 -1.8728460324124816
0.19651351094318847 -1.8697011632923537
0.22911436560167728 -1.8659867650856852
0.26164542980492306 -1.8617039692341522
0.2940967942756341 -1.856854080318859
0.3351409828971757 -1.9006789633135615
0.3587209113079044 -1.8454591048816082
0.40126956327827573 -1.8878248694162447
0.4341555348836597 -1.880534225035504
0.4548131637273752 -1.8241559653988733
0.499520757047865 -1.8642368447379019
0.5319800967268083 -1.8552350731609555
0.5701248242093366 -1.864794274127919
0.5964027991436486 -1.8355390764496462
0.6348579011914557 -1.8437612224186677
0.6669392794850542 -1.8324006105325212
0.7167358990906008 -1.8671608529944035
0.7304828571610288 -1.8080085164052353
0.7814622569785474 -1.8410097069048807
0.8134732861516007 -1.8270909152852015
0.8663674365684337 -1.8579309634251322
0.8986608509176087 -1.842527794913292
0.9533800494530484 -1.8711137007955727
0.9858902818503709 -1.8541899450037465
1.018100202517308 -1.8367013849927312
1.0499999999999998 -1.8186533479473213
1.1073318610566165 -1.8429096965095413
1.1658223813130508 -1.8657058115441372
1.1982058770330597 -1.8450752494799327
1.2302243876356433 -1.8238826596210918
1.2905469817898536 -1.8430920996502316
1.351906080272688 -1.860739087062379
1.384174553249711 -1.8368616731087735
1.4468044670152973 -1.8518252709757965
1.5103689385196097 -1.8651503074967302
1.5426902632476944 -1.8385066634855471
1.5745416695772174 -1.8113029925346527
1.6393699855792028 -1.820704822419616
1.7186358673574964 -1.8430113280803093
1.7505390935566731 -1.8127362968534007
1.8384776310850237 -1.8384776310850235
1.9062504708974255 -1.8408446817163426
1.9746549943717606 -1.841395572168746
2.006491028788965 -1.806652637168917
2.128281016228217 -1.8500864617532304
2.1602453295955177 -1.8126610593160406
2.2304089093815067 -1.8061495223130333
2.3403919382119645 -1.8285145817172048
2.411879240342824 -1.8174813699191859
2.4836821727310885 -1.8045007245378923
2.596711980396104 -1.8182373032328158
2.6695009836272345 -1.8006011491758047
2.8263198139760792 -1.835433548000641
2.942726893662799 -1.8388198468892212
3.0172288984714353 -1.8129340236833902
3.135011961699668 -1.81
3.2535853105585524 -1.803491787316374
3.4170071843640475 -1.8168549479813976
3.5372959010278207 -1.8023422839660008
3.7479711730675267 -1.8280076821104527
3.915249639998328 -1.8257108907198214
4.083548195662426 -1.8181127945488267
4.2987576656228965 -1.824714370044908
4.515385371740255 -1.824334109935491
4.733252762340813 -1.8169255041946728
4.999164742581033 -1.8195471624925579
5.266538466088195 -1.8134146203263628
5.535148924837793 -1.7984789072621938
5.9004003442919295 -1.8039334181392854
6.2674262575178386 -1.797155559926834
6.635910426605899 -1.778086839854317
7.102564716340295 -1.770868275789567
7.668292409859801 -1.7703647976862165
8.284910178215334 -1.7610120212264222
8.952439913042694 -1.740178037834089
9.867773685182325 -1.739954740222642
10.834941096328661 -1.7160860814913328
13.43793769282311 -1.8885789800280877
13.518478585354806 -1.659860457178108
14.639362299820984 -1.538658979299858
14.663985955910496 -1.2829325332455268
20.641672483377043 -1.0817842155416506
17.259479582619782 -0.6027143080521926
17.367354464866516 -0.30314829981561503
19.32 0.0
20.816829013156067 0.3633591020242432
20.10774343962421 0.7021778736543205
20.541809529901585 1.076550619917356
20.120866893740654 1.4069880754190094
12.422547885204068 1.0868321120632989
12.501140224779196 1.3139227832744058
14.511024736996129 1.7817298005832554
13.43793769282311 1.8885789800280877
11.081863181477447 1.7551946977513904
9.917014072832934 1.7486371491059887
8.952439913042694 1.740178037834089
8.187095418141952 1.740220852144646
7.522136900142016 1.7366221395346384
6.908505571085095 1.722483896669635
6.394428970033632 1.7133820785786884
6.027110833533259 1.7282462209725842
5.613508917503019 1.7162219067224644
5.297384795764005 1.721224658668457
5.0301588221883655 1.7320225817120738
4.71725695634526 1.7169411194948572
4.4531786343916515 1.7094151193310825
4.237230215370218 1.7119521319107185
4.068631452259786 1.7270315879225906
3.8094845583696455 1.6960918016260873
3.5980419145355005 1.6777944991105767
3.4783329591777763 1.6964963380737303
3.3145442699807286 1.6888446590311141
3.1962702861493155 1.6994870572849254
3.0349303837737036 1.6822893822547897
2.9185056107535585 1.6849999999999994
2.802937073295907 1.6841745049558774
2.6883124648158705 1.6798440676192594
2.574718643592451 1.6720418374961334
2.4622415904884742 1.660802923308118
2.350966367109406 1.6461643723275028
2.281427924137352 1.6575544114647742
2.2122203628310007 1.6670276141311744
2.1433892498102836 1.6745992128857907
2.059436797860973 1.6676990362820687
1.9917155521093428 1.6712477851850025
1.9245094295680685 1.6729505239257931
1.8578620636934853 1.6728265158971458
1.7698759579183927 1.6504360313512463
1.7408023168195352 1.6810732565107736
1.661700935788387 1.6617009357883865
1.5977142520556933 1.654481540778898
1.5685962281437464 1.682113513724092
1.5055438643074313 1.6720758573241368
1.443329863779116 1.6603610764900987
1.414132741310387 1.6852977748617517
1.3530388407571503 1.6708638171324874
1.3236721719501656 1.694223120254452
1.2337207974616986 1.6372027955969504
1.2343490298141937 1.6989356881873898
1.175831694519644 1.6792616907924334
1.1183858069414936 1.6580751451100835
1.0892780700300544 1.6773411358908479
1.0598385284664098 1.696096192312852
1.0043242460746058 1.671476236369119
0.9499999999999997 1.6454482671904336
0.9211382784680405 1.6617774435648518
0.8685223911538977 1.633453046789015
0.8398824245181618 1.6483620697484807
0.810986621559793 1.662768985653459
0.760712871133259 1.63135401666597
0.7321259575364407 1.6443818237566814
0.683779474856229 1.6108834935417706
0.6555615384778464 1.6225717454918778
0.6271439117042753 1.633765746370103
0.6156362579862039 1.691446717414635
0.5795113149337386 1.683023064566784
0.540779740156158 1.6643489035165187
0.5058030491703343 1.6544072278160515
0.47685262556340857 1.6629827339732917
0.43999237667428565 1.642073904691416
0.41852487938742505 1.6786116064574739
0.3891653240148867 1.685660212078457
0.3492916405738355 1.6432879692327935
0.3300995620014227 1.6982150273644587
0.29172893848044273 1.6544770250605096
0.26280990126758796 1.6593164121998314
0.2338108096129096 1.6636503554858382
0.20474049692064777 1.6674775347574209
0.17560781828965819 1.670796784218699
0.14642164781606568 1.6736070927941324
0.11719087589013076 1.6759076044365047
0.08530760867599829 1.6277661416499551
0.05967813936127685 1.7089583142026536
0.028970994685890403 1.6597471739596095
