# .PCD v0.7 - Point Cloud Data file format
VERSION 0.7
FIELDS x y
SIZE 4 4
TYPE F F
COUNT 1 1
WIDTH 178
HEIGHT 1
VIEWPOINT 0 0 0 1 0 0 0
POINTS 178
DATA ascii
1.1205518212198283e-16 -1.83
0.03193790378022899 -1.8297212821361961
0.06386607896557699 -1.8288852134449454
0.09577479992458746 -1.8274920486008701
0.1276543469517496 -1.8255422119754783
0.1594950092282144 -1.8230362975078944
0.19128708777980583 -1.8199750685239402
0.22302089843141992 -1.8163594575036193
0.2546867747569198 -1.8121905657970738
0.2862750710236226 -1.807469663289102
0.3177761651304827 -1.8021981880123408
0.3587209113079044 -1.8454591048816082
0.3804783941964998 -1.7900101093428642
0.4116604294492732 -1.7830972185569807
0.4427170689473919 -1.7756411790850737
0.47363885253761295 -1.7676442621089952
0.5181982289359583 -1.8071719883640394
0.5496588048787451 -1.7978529412105064
0.5655010997061538 -1.740433424820131
0.5957897226565969 -1.7302989933467496
0.6429978694522573 -1.7666221270775075
0.6737317451451647 -1.7551312018147391
0.6930221978194375 -1.7152901309485566
0.7345745215598345 -1.7305491244905877
0.7646648889825046 -1.7174654603680892
0.802974697307329 -1.7219847953696348
0.8241377559634656 -1.6897328070424338
0.862581949505139 -1.6929123959578989
0.8919959692931926 -1.677600426431961
0.9453787594803573 -1.7055084289218216
0.9749999999999998 -1.6887495373796555
1.0300761498201085 -1.7143346014042244
1.0333425652547494 -1.6536937875050306
1.0892780700300542 -1.6773411358908479
1.1183858069414938 -1.6580751451100832
1.147152872702092 -1.6383040885779836
1.2049597671995698 -1.6584848384686421
1.2337207974616988 -1.6372027955969501
1.2928890981838828 -1.654822582574116
1.3215728212046587 -1.632006519059639
1.3498539803417327 -1.6086933305498539
1.3777239608800653 -1.5848901184678212
1.4720873339894882 -1.6349186160502676
1.500396392137497 -1.6089781435621748
1.5282484150097941 -1.5825475607450326
1.5909902576697321 -1.590990257669732
1.6544815407788975 -1.5977142520556935
1.6821135137240921 -1.5685962281437464
1.7463903398718768 -1.5724569249433167
1.7735675135235143 -1.5417387181276923
1.8385066634855471 -1.5426902632476942
1.904007605569579 -1.5418349580721018
1.9069860237282672 -1.4899007702880926
1.996588775118232 -1.5045375578801208
2.062993335656116 -1.4988523933458064
2.129795315151379 -1.4912987345127198
2.1969495672708605 -1.4818611941974789
2.264410533452645 -1.470525394540573
2.306690821545479 -1.4413803987143174
2.3743534229448513 -1.4266554675008498
2.485492908861339 -1.435
2.5538895448470353 -1.4156440911193042
2.622354350791013 -1.3943305414740959
2.7353900292582893 -1.3937508342004086
2.8042374244534014 -1.3677179779819215
2.918311074258013 -1.3608308028050522
3.032970919373435 -1.3503656550116565
3.102101356134724 -1.3167639030088523
3.2173279753467527 -1.2998848791532145
3.3795611439198705 -1.2972919773539873
3.495656549323579 -1.2723149331714878
3.6118809587893903 -1.2436703500263386
3.7756943696917595 -1.2267974676685411
3.9399755945677066 -1.2045714234576752
4.056524356859706 -1.163189641547736
4.317688443512135 -1.1569211316082675
4.482766255395104 -1.1176791576704643
4.696463712264834 -1.0842640819374287
4.959208335720395 -1.05411227244604
5.173175256769189 -1.0055634056343914
5.436138796627388 -0.9585379407214555
5.748346142263702 -0.9104485865341437
6.060440580698411 -0.8517393778756003
6.47140090870142 -0.7945881190015612
6.882091515948451 -0.7233369658121614
6.69442837117653 -0.5856865912642621
6.75350862025901 -0.47225132724772745
6.610927520075279 -0.34646403032828865
6.815845440270233 -0.23801456751105696
6.918946050482227 -0.12077065254600207
7.47 0.0
8.218748054185538 0.14345878091447067
15.76039334209114 0.550365062998441
15.748387763079629 0.8253380299512253
15.681706870084437 1.0965717672576514
15.709990388906826 1.3744460631305713
18.16991502837835 1.9097350239000315
24.974560693662404 3.5099456062128493
25.057653200898645 3.968742378070657
34.09404440928264 6.011699910829129
26.087196511570596 5.545004794109643
15.609408437859468 3.6037158905887186
15.253048817058666 3.8030121988267784
15.232650280578605 4.0815763412667545
15.207160029744205 4.360582969024926
6.091661295484537 1.8624077590838328
6.438652615318189 2.0920450519183937
5.786573682667819 1.992477105277799
5.797903470249055 2.1102642843193764
5.666833188838015 2.175293453739973
5.6280059972203995 2.273862022034587
5.955666401837289 2.528030401325602
5.864961838065497 2.611249248546638
5.7278652140716275 2.6709474142012204
5.320860754091068 2.5951571889913394
4.9629063397292095 2.528727083549276
4.697281194009491 2.49758871402094
4.434321915196737 2.457984774648929
4.174242446240995 2.4099999999999993
3.917254564208653 2.3537240023389483
3.705970180203582 2.3157471846991053
3.539189796729689 2.2983767277634146
3.37418292029902 2.2759151171259395
3.170118411398398 2.2197408086785493
3.049994068793552 2.215950401142624
2.8910605463712 2.1785703838104156
2.7737978526956613 2.1671283931463172
2.657839188182841 2.1522757373904433
2.504965328999058 2.1019154836749836
2.3924293693061873 2.0797071218999075
2.3186118554894697 2.087687491839638
2.2086881788898953 2.0596350473887455
2.1364392070057936 2.0631353602632223
2.0293964620053915 2.0293964620053915
1.958936604694372 2.0285382369549967
1.855035539369996 1.989282068404144
1.7865787189781517 1.9841966840246423
1.7385564268248441 1.9999803875903457
1.6712477851850027 1.9917155521093428
1.6047669971770853 1.9817222017152756
1.539153688314146 1.9700268840168047
1.474446806722518 1.9566569996158678
1.398928900456086 1.9254604466123748
1.347904625424958 1.9250073040791311
1.2861436779827176 1.9067864168765958
1.2526697805345623 1.9289423062744748
1.192318344524711 1.9081082163519585
0.7983090161105841 1.328609316088274
0.6999999999999998 1.2124355652982142
0.6787334683448719 1.224467589995154
0.6572601879002469 1.2361266300024978
0.6355866996353655 1.247409133863715
0.6444055857799436 1.3212272480597755
0.8663674365684337 1.8579309634251322
0.49621870455247646 1.114525458323973
0.4493407977626647 1.0585805814703064
0.43079758242829896 1.0662614327518054
0.4300415394543602 1.1202965117966421
0.3933231648245191 1.0806465139037944
0.38091474071487313 1.1062567334512006
0.5871322893124001 1.8070073809607916
0.5555062389731994 1.8169790363297675
0.5099291082614484 1.77833413748589
0.4788152334396638 1.7869627786347761
0.4475555068593852 1.7950470936105936
0.4116604294492732 1.7830972185569807
0.37424104347196663 1.7606656813208503
0.34345619167778085 1.7669289302057951
0.3177761651304823 1.802198188012341
0.2862750710236226 1.807469663289102
0.2435529266801142 1.7329691202977482
0.21692743126116254 1.7667321499215531
0.18606066461642354 1.7702489737555265
0.1551372220908315 1.773226562603307
0.12416652326454332 1.7756640094624871
0.09054120430029268 1.7276290951254127
0.06037612929532687 1.7289461307430356
0.03019266313650024 1.7297365126205568
