# .PCD v0.7 - Point Cloud Data file format
VERSION 0.7
FIELDS x y
SIZE 4 4
TYPE F F
COUNT 1 1
WIDTH 177
HEIGHT 1
VIEWPOINT 0 0 0 1 0 0 0
POINTS 177
DATA ascii
5.5109105961630896e-17 -0.9
0.016230737986673748 -0.9298583564954439
0.03071155709820095 -0.8794639277768043
0.04867243930593789 -0.9287254673217538
0.06487352058203667 -0.9277345667416366
0.08105484075532207 -0.9264610692253235
0.09407561694088812 -0.895069705831446
0.10724502219652979 -0.8734406134443633
0.1252557908640589 -0.8912412618674134
0.14079101853620785 -0.888919506535624
0.15628335990023737 -0.8863269777109872
0.17172809583889043 -0.8834644651028976
0.1871205217359835 -0.880332840660425
0.20245594890947863 -0.8769330583067118
0.2298258008196843 -0.9217809399621966
0.23293714059226867 -0.8693332436601615
0.2618554880261492 -0.9131986111414029
0.2631345342504631 -0.8606742803667319
0.27811529493745274 -0.8559508646656382
0.3092897467342989 -0.8982426468193508
0.3249191361593854 -0.8927079897466128
0.32253115459077036 -0.8402223838474816
0.35587626374511655 -0.8808246618384479
0.37119457206481 -0.8744796107798183
0.3863998109220103 -0.8678681847604707
0.42261826174069944 -0.9063077870366499
0.43837114678907746 -0.8987940462991669
0.4312909747525695 -0.8464561979789494
0.46947156278589086 -0.8829475928589269
0.46056913923402026 -0.8308887217824259
0.4999999999999999 -0.8660254037844387
0.5150380749100543 -0.8571673007021122
0.5299192642332049 -0.848048096156426
0.5718709867657784 -0.8806040963426952
0.5591929034707469 -0.8290375725550416
0.6022552581685984 -0.8601096465034415
0.6171745149070968 -0.8494678440936949
0.6319057743096507 -0.8385672855496575
0.6772276228582242 -0.8668118289673942
0.7237184497073129 -0.8937178556755164
0.7070663706551934 -0.8426488874308758
0.7610284736289884 -0.8754631130584155
0.7761915033762755 -0.8620479975537773
0.7706581468706233 -0.8264296828296624
0.8127502934370268 -0.8416275663962217
3.620386719675124 -3.620386719675123
3.611085797700029 -3.487185019704166
3.6348278970472774 -3.3895318495106173
3.6191153000749106 -3.258666052967639
3.637700176673761 -3.1622045197342454
3.615729771521576 -3.033957517720465
3.5904143419312056 -2.907460206650249
3.60120914398272 -2.8135729422382583
3.569900729911399 -2.6901131534896554
3.5354042654185203 -2.5686215525181075
3.538736831328445 -2.477850205036519
3.539990434810028 -2.3877536978200884
3.5391897967296893 -2.2983767277634137
3.536360560972297 -2.2097633318524643
3.531529278892703 -2.1219568686294226
3.5247233934026654 -2.035
3.5159712227003705 -1.9489346733902748
3.4611545640069936 -1.8403285261206919
3.492745574818402 -1.7796427589790234
3.4783329591777767 -1.6964963380737297
3.4620957464800024 -1.6144017598494715
3.4897436481947355 -1.5537339765495566
3.4703032975157004 -1.4730563544045616
3.4491239389884494 -1.3935365275071923
3.4262401652447303 -1.3152103748312522
3.401687287244988 -1.238112918838921
3.422777243669527 -1.1785567191349073
3.4428245889884557 -1.1186415196373096
3.4140079787880366 -1.04376698586017
3.460542105377948 -0.9922944809411968
3.4290366833261925 -0.9188076101139484
3.4445498282797873 -0.85882272937882
3.4102952267483233 -0.787328690203527
3.3746092225316295 -0.7172953333212699
3.3964300547289175 -0.6601991240028452
3.427130980482484 -0.6042956582809177
3.6742006270139127 -0.5819362099496589
3.5154516440325745 -0.4940645084082322
3.7418989916877843 -0.45944742463740584
4.445512872296181 -0.46724223080641064
4.283637201794505 -0.3747696938149297
6.434288124175867 -0.4499292556496074
6.391229022429273 -0.33495011995484103
7.165632229726916 -0.2502293913569323
8.218748054185538 -0.14345878091447067
9.82 0.0
11.818199756748545 0.2062874440886914
15.060819763177774 0.5259354153066903
26.333860831478113 1.3800991661264308
21.66709117164338 1.5151106097224036
21.288680698220602 1.8625182225174577
4.346060682759354 0.4567893844796463
4.367203067221817 0.5362251109826488
4.476011670711897 0.6290624163394956
4.464351299490023 0.7070837819818434
4.599052206567011 0.8109369897045647
4.633280305872974 0.9006184581772917
4.861393575647013 1.0333211033642642
4.392965950438118 1.259662716083686
4.274682259154769 1.306901520110633
4.251222627839336 1.3813059648560149
4.4155717480488095 1.5204032813149218
3.3077180251663973 1.203910904506354
3.1461660372955698 1.2076999899676621
3.198784298255416 1.2923927472848968
3.194151841479968 1.3558370158577804
3.352711829548345 1.4927234800881872
3.3714649677763378 1.5721399336754018
3.3435138522329013 1.6307406660553687
3.3145442699807286 1.6888446590311141
3.1962702861493155 1.6994870572849254
3.209854325201582 1.779251306304057
3.17831323188889 1.8349999999999993
3.0600872635065404 1.8386859274288936
2.98512929847062 1.8653158101008813
2.826319813976079 1.8354335480006416
2.6695009836272345 1.8006011491758047
2.5557543781816543 1.7895584814152645
2.3623296235748463 1.7163329366940214
2.3320156893380948 1.7572998676039815
2.2615908628512917 1.7669484341846393
2.1526943132358096 1.7432174832080494
2.045338663127671 1.71624291786306
1.9773391001836627 1.718874655955129
1.9098822014769028 1.7196656583422658
1.8430113280803098 1.7186358673574962
1.7408023168195352 1.6810732565107736
1.6758430714121177 1.6758430714121175
1.6463403379878232 1.7048353268026037
1.4458365233324968 1.5504698474326415
1.4185568854807797 1.5754670300120757
1.3908451414598755 1.5999843100722768
1.3948491130197906 1.6623164415681821
1.3341592290256554 1.6475494382887783
1.2744192539241128 1.6311822599659143
1.2457570979247397 1.6531755057978963
1.2754939974746666 1.755566877793636
1.2159820450642174 1.7366023338926628
1.1575293101844457 1.7161077751889362
1.100170850730355 1.6941145472497563
1.0704369137510739 1.7130571542359805
1.0661288150638122 1.7743363124533722
0.9849999999999998 1.7060700454553441
0.9308344708729672 1.6792698377076398
0.8779118224096155 1.6511119986461935
0.87166175949993 1.7107325264416664
0.8197540444955744 1.6807448665794424
0.790296149455108 1.6947955617585355
0.7402606903979567 1.6626527329095335
0.6720575410015508 1.5832683479381975
0.6255930110045733 1.5483970371265348
0.5805560782633863 1.512400290925467
0.5540726321875835 1.5223020456731715
0.49486359477487796 1.4371882349109617
0.4697058314499201 1.4456059047686334
0.45317614232024167 1.482272371742705
0.4603143842143886 1.6053070322169924
0.44516875757633606 1.6613924212171973
0.404009565651445 1.620393862880914
0.37566826075425475 1.6271980081913429
0.33681693912476995 1.5845991131887653
0.3091105725100028 1.5902360371852158
0.2726276389370805 1.5461481722291668
0.2534238333651741 1.6000551117641233
0.21850176850730244 1.5547208679242654
0.19742833631633894 1.6079247656589417
0.16410968733021628 1.5613993757281892
0.13683451611382327 1.5640256760040405
0.10951766377827697 1.566175558907924
0.08216745130142168 1.567848369564681
0.0547922098229267 1.5690435984199804
0.02652765778467073 1.5197684966377147
