# .PCD v0.7 - Point Cloud Data file format
VERSION 0.7
FIELDS x y
SIZE 4 4
TYPE F F
COUNT 1 1
WIDTH 179
HEIGHT 1
VIEWPOINT 0 0 0 1 0 0 0
POINTS 179
DATA ascii
4.71489017671731e-17 -0.77
0.012914780763589862 -0.7398872944157295
0.026872612460925833 -0.7695309368047037
0.03872860761977853 -0.7389858557183846
0.053712484782976605 -0.7681243187000647
0.06449524963326703 -0.7371840765878916
0.07735106281806356 -0.7359462025725222
0.09627678129006652 -0.7841114597966444
0.10298809471044844 -0.7327983708687621
0.12358322738178244 -0.7802737890701589
0.13718206035687502 -0.7779981248796444
0.15073910634747048 -0.7754854749236546
0.153854651205142 -0.7238292245430161
0.17771133293165348 -0.7697523511803359
0.17902220274375408 -0.7180188374442373
0.20446704563099138 -0.763081402768364
0.21775351109542934 -0.759396739791272
0.23097364673096205 -0.755480757210798
0.2441234255562085 -0.7513346478731713
0.25719884202115384 -0.7469596747234603
0.2701959132272784 -0.7423571704208676
0.28311068014078733 -0.7375285369327894
0.29593920879857066 -0.732475245107762
0.3282141479309899 -0.7732240769000499
0.3416587801836723 -0.7673781844197846
0.3549993398621875 -0.7612985411107859
0.36823176330282503 -0.7549869988913002
0.38135201978121935 -0.748445480318229
0.3943561127401483 -0.7416759780014985
0.40724008100692316 -0.7346805539970924
0.4199999999999999 -0.7274613391789285
0.43263198292444555 -0.7200205325897743
0.47162814516755236 -0.7547628055792192
0.4847287411633741 -0.7464168054714273
0.49768168408896474 -0.737843439573987
0.5391618501699833 -0.7700029216316523
0.5525181371549247 -0.7604759747124505
0.5657061217629253 -0.7507173794444553
0.5787217868061189 -0.7407301083903185
0.623027187139339 -0.7693745018424012
0.636359733589674 -0.7583839986877883
0.6494984387006022 -0.7471624844205443
0.6624393002952697 -0.7357133772226203
0.7092782944649986 -0.7606078496839372
0.7224447052773572 -0.7481133923521972
0.7353910524340095 -0.7353910524340094
0.7840803823691298 -0.7571776238003071
0.797175534764896 -0.7433782124681234
0.81002785977036 -0.7293523609311554
0.86036892145396 -0.7479072930491782
0.8732906651556349 -0.7327778750426547
0.9248036941337954 -0.7488912653493065
0.9771333344723353 -0.7634202294038162
0.9903080324586431 -0.7462506287085399
1.0031810730249349 -0.7288537128426666
1.097663739347249 -0.7685924247104018
1.110910347223756 -0.7493184906508007
1.1657520894441393 -0.7570482586708874
1.2211892584652535 -0.7630837404958151
1.2343209130110417 -0.7416548278704778
1.2903778516388136 -0.745
1.3469143489946696 -0.7466068151793591
1.403886672645694 -0.7464597848295664
1.4612506996689232 -0.7445444195728567
1.5639016405605506 -0.7627657954129947
1.6222909387956035 -0.7564866885158519
1.6809236420623859 -0.7483954232594723
1.7397541730251123 -0.7384818328447271
2.002717125864261 -0.8091502417783698
2.1565707852085363 -0.8278299634496438
2.264659216094039 -0.8242685454148618
2.373251624754285 -0.8171760676874632
2.5298103333451087 -0.8219852050373602
2.715905506935021 -0.8303356414125722
2.7299832164648254 -0.7828100905202774
2.743229346660954 -0.7350460880911587
2.920590136090749 -0.7281849057549995
3.127727907960605 -0.7220928844438063
3.7756497388324894 -0.8025391265565512
4.083569083142282 -0.7937654207664266
4.146040640181396 -0.7310588279777768
4.4544744160840715 -0.7055194373314412
4.911729620958189 -0.6902985807619244
5.468929295543685 -0.6715000821623623
6.22570706500539 -0.6543481800555102
10.42019654203966 -0.9116490691405035
10.38464176320477 -0.7261648916763431
10.445664933532843 -0.5474341023011933
13.751617779782757 -0.480217074626414
28.405673019393078 -0.49582286688322524
29.26 0.0
39.054050972808646 0.681690995440295
11.094774131123314 0.5814524738591067
11.082936598386647 0.7749944232972331
11.067723095799293 0.9683003019264835
11.546399205225653 1.2135754585374583
10.38203274616823 1.2747533320178424
10.358203999036826 1.4557506360422843
10.380604459654897 1.6441262275728263
6.361858084458864 1.1217672277283701
6.243148886727143 1.2135452105948255
6.416648260813764 1.3639006917645016
5.173905044009599 1.1944900985659235
5.782962528604939 1.4418544977740204
5.66032534205394 1.5166796043007726
3.8065963159157428 1.0915239290353165
3.786966833613621 1.1577919507020373
3.7186309787140504 1.2082564480060443
3.9333572744931584 1.3543635225417718
5.694537281962604 2.0726420685535527
2.810077083756577 1.078687528131354
2.6517458240610114 1.0713748571695085
2.586618638201357 1.0979544710548597
2.640146372587117 1.1754688984890629
2.501409492221154 1.1664264024043303
2.5705509724156173 1.2537414798167619
2.4591780067598954 1.253013779281149
2.304493217361799 1.2253207788711753
2.282757435633823 1.2653531088429397
2.173723763498941 1.2549999999999994
1.8086230044814566 1.0867303380602145
1.7045766732744163 1.0651377211087418
1.6857278415703019 1.0947244603802047
1.707817399463386 1.1519373811497384
1.7284108134497724 1.2102462807007075
1.6261241586936441 1.1814483571078709
1.5653255996926938 1.179557445378015
1.5051005393888388 1.1759134178720072
1.4843487863828146 1.2020019469051892
1.4248426642012992 1.1955849540169632
1.3660243402032173 1.187466842472818
1.3450921341140833 1.2111263975095337
1.2871825148497402 1.2003171137099973
1.230071058579093 1.1878658134848854
1.2091525958289964 1.2091525958289961
1.1531328949619353 1.1941040685621611
1.0980173597006226 1.1774794596068645
1.077300276237762 1.1964631690186047
1.0234520852251914 1.1773469451475245
0.9706092906266746 1.1567271091096567
0.9502737904852545 1.173490401800026
0.9296488277417442 1.1898962379461502
0.8786499338019903 1.1660078446690476
0.8581664683470107 1.1811648117874232
0.8087427752549747 1.1550043824474785
0.7884619938937529 1.1689429773026088
0.7679410393711883 1.1825255008030477
0.7471861625688189 1.1957478155805605
0.7004517818776739 1.1657475289548727
0.6799999999999999 1.1777945491468367
0.6593410835350185 1.1894828017095782
0.6150077472495168 1.1566613466451945
0.5947275546588064 1.167218546686762
0.5742662022936912 1.1774202006519088
0.5324990097932814 1.141947811666179
0.5124881702755085 1.151067276629677
0.43371155262309385 1.021760387332209
0.47200430770404933 1.168251656754152
0.43362521894981315 1.1296323160616142
0.4138443734240593 1.137028071150949
0.3939374668931594 1.1440774764751733
0.37391056319368643 1.1507783847171358
0.33915117747837437 1.109313516917121
0.319739332747719 1.11506356728845
0.3002300923189243 1.120473958495319
0.2806293988956145 1.1255430424801558
0.2721907757560768 1.1789877783901346
0.25157314588948865 1.1835585968879048
0.2213384346367921 1.13868753279929
0.21011429497698556 1.191617381144772
0.18146397944666787 1.1457184750903597
0.15448214206567243 1.0991975563031433
0.13527497117971374 1.1017262283218674
0.11602659422709559 1.1039193038587833
0.09674287444990054 1.1057761148818377
0.07742968585597926 1.107296095788405
0.05809291142966756 1.1084787835775771
0.038738441339776206 1.1093238179911964
0.01902312301663888 1.0898339877204666
