# .PCD v0.7 - Point Cloud Data file format
VERSION 0.7
FIELDS x y
SIZE 4 4
TYPE F F
COUNT 1 1
WIDTH 179
HEIGHT 1
VIEWPOINT 0 0 0 1 0 0 0
POINTS 179
DATA ascii
1.2062770971601428e-16 -1.97
0.03525386100331287 -2.0196923442159105
0.06875200850392713 -1.9687999292276186
0.10571863161074681 -2.017231660204239
0.14090807696313343 -2.015079381524845
0.17605460035026943 -2.0123132901453262
0.21114749580065997 -2.0089342286439122
0.25226954084865527 -2.0545705338975364
0.28112966393933225 -2.000341498857972
0.31599761938126647 -1.9951304480021783
0.3594517277705459 -2.0385520487352706
0.38925035056815166 -2.0025194542332345
0.4241398492682293 -1.9954211054969635
0.4589001508614849 -1.9877149321618799
0.4935206670233221 -1.979403281603033
0.5409318042642683 -2.018784976944153
0.5623002058666783 -1.9609738597141706
0.6110568628705199 -1.998676939962744
0.6612963679623876 -2.0352609448716286
0.5892783595674538 -1.7113886218347634
0.6019554522531771 -1.6538590125831987
0.6307275911997287 -1.643101550635075
0.6593076044120054 -1.6318435840375456
0.668150229716658 -1.574063299403673
0.6955196596596186 -1.5621627325688472
0.722677227576596 -1.5497863158326715
0.7496146610093224 -1.5369378191715755
0.7990232795416025 -1.5681714825715276
0.8262699505031679 -1.5539877634317114
0.8775054126458702 -1.5830616699223063
0.9299999999999998 -1.610807251039056
1.0506776728165108 -1.7486212934323089
1.0545393358240778 -1.6876157113512877
1.0565997279291526 -1.6270209018141224
1.0289149423861743 -1.5254291335012766
1.0553806428859247 -1.507239761491745
1.052135601603527 -1.448140419931156
1.0772488914421665 -1.4295575629846542
1.1328171145992114 -1.4499397866363684
1.1894155390841925 -1.468805867153675
1.2148685823075593 -1.4478239974948683
1.272754516241584 -1.4641365856321777
1.344952518781305 -1.4937210992095622
1.370816703725622 -1.4700209402545323
1.3823701572134046 -1.4314862026739157
1.4778531726798843 -1.477853172679884
1.5034201827077809 -1.4518359942593042
1.5650969214650252 -1.4594764905337467
1.6274871677954936 -1.4653960279258993
1.6905494596990094 -1.4695722249387364
1.7159395525865109 -1.439844245697848
1.7796642517364634 -1.4411436955041277
1.8439451634397295 -1.44064785226204
1.9486706445153945 -1.4684286564909976
2.0549031657123664 -1.4929745408228818
2.1216037947084887 -1.4855629701492092
2.2052399429964114 -1.4874531232321866
2.272797239132099 -1.475971784890723
2.383015150199557 -1.4890731324953057
2.494356845043147 -1.4987607979882573
2.5634351952019383 -1.48
2.7637982745604908 -1.5319983999784252
2.878409152720102 -1.530477294682004
8.117069435356031 -4.135853452627271
8.367772571045245 -4.081235376606311
8.483040886663042 -3.955706929892946
8.642140029299005 -3.84772864349707
8.84605164167795 -3.7549261447819196
8.956596035115167 -3.618699692397709
9.15842398393755 -3.5155895850393963
9.265369240949056 -3.372318613191094
2.6569071974340805 -0.9148465140246104
2.2444933784565624 -0.7292801067248759
2.209063986274612 -0.6753786379095218
2.2685776024144326 -0.6505041597281178
9.813806395096934 -2.6296014982416103
9.955234151591723 -2.4821186488525897
9.89959985821799 -2.285502712133667
9.889072243418774 -2.101987194167547
9.924250824655882 -1.9290789432568685
10.251848708857086 -1.807677529512745
12.010290221636875 -1.9022430948892073
12.487280346831202 -1.7549728031064247
12.26787043428674 -1.5063050844876222
30.442315217222845 -3.19961626062287
20.182904583338765 -1.7657753480675527
19.932645513701296 -1.0446256866091603
30.291535966948793 -1.0578037450528057
28.705627327939993 -0.5010585888144103
17.61 0.0
17.55732552694623 0.3064642570386989
10.95332346412929 0.3824984838594112
10.046213119631012 0.5264997198040157
10.035494345613833 0.7017501258659016
10.02171866280296 0.8767867720414424
10.104342456941657 1.0620091867993606
10.034641593093767 1.2320990618260406
9.962096771540198 1.400081395658258
9.837375872327573 1.5580872718006995
9.71020444470037 1.7121710317959333
1.580419765350739 0.3072024825562372
1.4574399250933703 0.3097884193184615
1.4518113965300006 0.335177070972359
1.4942554184650345 0.37255971922348846
1.4875257724851652 0.3985813294578822
1.5956944152576094 0.4575580106562185
2.5437706508616746 0.7777087345624797
2.4347046817155933 0.7910835055998654
2.2314238384143876 0.7683408445188897
2.2176745850547435 0.8071675382485782
1.1763113373864742 0.4515436164270784
1.1497079796628162 0.464512175835731
1.0954007756084039 0.4649700429022359
1.087119094594695 0.48401660526020235
1.0785062665736134 0.5029157314714322
1.087540796021992 0.5304290876147838
1.6840023307160152 0.8580420445077435
1.5804761912174792 0.8403540973867448
1.5218382904225485 0.8435687392286265
1.4635829323957015 0.8449999999999996
1.4914711032216752 0.8961662503434944
1.3907988776965388 0.869067593342456
1.3334862030332242 0.8659760656738933
1.2767178617347643 0.8611570713449501
1.2205365459905977 0.854628890163059
1.2054353216186717 0.875800025915785
1.1500351344681015 0.8666136333389498
1.0165338721526713 0.7942033031700992
0.9014893152900864 0.7300116536178112
0.8732906651556349 0.7327778750426548
0.86036892145396 0.7479072930491781
0.8248907562799076 0.7427349730583328
1.1628523855744812 1.0843773924993727
1.1437502825384551 1.1045068090298058
0.9616652224137048 0.9616652224137047
0.979468302347186 1.0142691184774983
1.1866771465087473 1.2725554408173565
1.1977437853823565 1.3302292376045355
0.7938314250785138 0.9131985920695541
0.6813548662677319 0.8120071097061168
0.6670796145128277 0.8237747191443892
0.6095048605724018 0.7801306460706546
0.6258876240781301 0.8305809304491847
0.5819073997695484 0.800926824431198
0.5678406719875355 0.810960523846102
0.5536009744360393 0.8207471968294913
0.5936565481663797 0.9141509190605122
0.5776119980141934 0.9243724248105044
0.5613915016519592 0.9343123577653024
0.5699999999999998 0.98726896031426
0.5284424860685075 0.9533354807819414
0.5351975815759152 1.0065602558591766
0.5175491697030834 1.0157474375747393
0.5085105302753296 1.0426010937070338
0.4902371836192113 1.0513170329625139
0.5124881702755085 1.151067276629677
0.6212624942979452 1.4636027169893802
0.5956244835313004 1.474222328761192
0.5518866422997623 1.4377138568056906
0.5164504164217599 1.4189358573867217
0.5013749578640211 1.456098606422948
0.32137767414994534 0.9890987769469597
0.28944798767550917 0.9467417084034052
0.2646118615843192 0.9228112281007861
0.26140723555354617 0.9755850845519589
0.24434111455566435 0.9799986835387564
0.23394909651761975 1.0133448673766448
0.22662374299135757 1.0661808847998482
0.20225753509913763 1.0405248144545238
0.26394523005373394 1.4969077845785563
0.23778038686115102 1.5012862777046094
0.21154311345929916 1.505207464487187
0.1852414019758242 1.5086701504948095
0.1588832641668336 1.5116732809597755
0.13247672897644036 1.5142159410994533
0.10602984009107069 1.516297356394933
0.0795506534892745 1.5179168928269522
0.053047234987801645 1.5190740570690255
0.02652765778467073 1.5197684966377147
