# .PCD v0.7 - Point Cloud Data file format
VERSION 0.7
FIELDS x y
SIZE 4 4
TYPE F F
COUNT 1 1
WIDTH 180
HEIGHT 1
VIEWPOINT 0 0 0 1 0 0 0
POINTS 180
DATA ascii
4.71489017671731e-17 -0.77
0.013438352956708371 -0.7698827252704213
0.025825627559850798 -0.7395492119941308
0.04029868630706686 -0.7689447417610219
0.053712484782976605 -0.7681243187000647
0.07146770905307967 -0.8168796524352313
0.08048691671609316 -0.7657818594335705
0.09383939442196357 -0.764260536763818
0.10298809471044844 -0.7327983708687621
0.12358322738178244 -0.7802737890701589
0.13718206035687502 -0.7779981248796444
0.15073910634747048 -0.7754854749236546
0.153854651205142 -0.7238292245430161
0.17771133293165348 -0.7697523511803359
0.17902220274375408 -0.7180188374442373
0.19152609337586535 -0.7147851114539105
0.21775351109542934 -0.759396739791272
0.23097364673096205 -0.755480757210798
0.2441234255562085 -0.7513346478731713
0.240920434298296 -0.6996837459434944
0.2701959132272784 -0.7423571704208676
0.28311068014078733 -0.7375285369327894
0.31466953846936624 -0.7788344378361013
0.3282141479309899 -0.7732240769000499
0.3213219480298823 -0.7217009115376546
0.33386842677515255 -0.7159831517589534
0.36823176330282503 -0.7549869988913002
0.38135201978121935 -0.748445480318229
0.3943561127401483 -0.7416759780014985
0.40724008100692316 -0.7346805539970924
0.4449999999999999 -0.7707626093681504
0.43263198292444555 -0.7200205325897743
0.4451321819558921 -0.7123604007713977
0.45749678941262273 -0.704483277074156
0.49768168408896474 -0.737843439573987
0.510483028352431 -0.7290453194172027
0.5231288745403011 -0.7200251249937032
0.5356153706053229 -0.7107856039420907
0.547938713039836 -0.7013295707099825
0.623027187139339 -0.7693745018424012
0.6042203531053469 -0.7200817765318392
0.6166954872510768 -0.7094270054094056
0.6289827699773267 -0.6985561359487505
0.6751783764618736 -0.7240401646029786
0.7224447052773572 -0.7481133923521972
0.7000357133746821 -0.700035713374682
0.7121464023352647 -0.6877117867544073
0.7606078496839375 -0.7092782944649985
0.81002785977036 -0.7293523609311554
0.7848979634316829 -0.6823013901501276
0.8349884429996861 -0.7006384945583278
0.8470890979880984 -0.6859592262443228
0.898332259111663 -0.7018540818712503
0.9104444814539138 -0.686069126393335
0.9627302233061874 -0.699464450228043
1.01574853491835 -0.7112347810752971
0.9865547113404997 -0.6654395551301887
1.081885032649597 -0.7025843551693848
1.0515796392339682 -0.657099887649174
1.105745817905725 -0.6643991166339698
1.0738715006927038 -0.62
1.0845284368528507 -0.6011639291054579
1.1566613466451945 -0.615007747249517
1.1493984162029947 -0.5856477446640154
1.1774202006519088 -0.5742662022936914
1.2416416682402105 -0.5789870185847582
1.2241509132410855 -0.5450271017215722
1.205861358022697 -0.5118577783209485
1.3073292349391703 -0.5281952967164357
1.4097064440107747 -0.5411356038134035
1.700843643622494 -0.6190564594194605
1.8059404793946952 -0.6218351750131693
1.8640707719385008 -0.6056733089748969
1.9699877972838533 -0.6022857117288376
2.076325263226769 -0.5953766885647181
2.182992367413294 -0.5849310419316966
2.0279180679168327 -0.5056167618033053
2.0364334354011415 -0.4701477035786775
2.308428337731781 -0.49067159032991214
2.7092910263155523 -0.5266328272392637
2.8657905612655257 -0.5053161970107674
3.002572555409219 -0.4755607737223018
6.001024496573916 -0.8433889918179963
5.9155750637822795 -0.7263412866946787
5.678720022552841 -0.5968575252583008
5.688271726103867 -0.49765929108912754
5.696090726983597 -0.39830946507895476
5.692188348101071 -0.29831495058478025
5.686533805738655 -0.1985781362372308
6.658985649741566 -0.11623302687230835
7.46 0.0
8.308734346749612 0.14502949749382618
19.448145493791603 0.6791442058306698
19.433330746324007 1.0184577084876885
25.397980719615123 1.7759998215254327
26.45893118131676 2.314856527377804
25.419979645613065 2.671747521121226
8.248058520139388 1.0127342436967752
8.427181264990763 1.1843630891701566
10.281835625595384 1.6284827810688034
10.251848708857086 1.807677529512745
10.267820338862567 1.9958620916386594
6.221018740667004 1.3223183536009497
5.4174975602059074 1.2507278621518898
4.618607657073743 1.151548223054419
1.120473958495319 0.3002300923189242
1.0285500146540012 0.2949319707241891
1.023246088880448 0.3128377240533283
1.0176304724358143 0.3306481839811937
1.0495256189152418 0.36138065144744397
1.1840127021902445 0.43094538059034265
1.2229903587113344 0.46946201390434344
1.400047620395849 0.5656559560580273
1.3899623287131848 0.5900040040188036
1.3794536410403273 0.6141723310444585
1.4591555371290066 0.6804154014025261
1.4021187122267005 0.683858988990961
2.5928289853881505 1.3211123542420813
1.5098403837887648 0.8027963723638736
1.4518687138513968 0.8047839696089195
1.524204710660612 0.8799999999999997
1.4657560842006119 0.8807151080961928
2.5526247694308424 1.5950569853419467
1.434126671186675 0.9313327498756965
1.3762023704413693 0.9282602197614397
1.4417075979486254 1.0094945279778413
1.4238699100999075 1.0345020440347528
1.3656667221808705 1.029103689590003
1.3080978509871584 1.0219980490405927
3.5826428823166365 2.9011670027397503
1.3099359977334524 1.0991668125639822
1.4414952982254945 1.2530727453718686
1.3079348928402137 1.1776698671915906
1.2140471446878232 1.1321172777037474
1.1941040685621604 1.1531328949619355
1.1384419177103418 1.1384419177103415
1.0836670579160357 1.1221700885282961
0.9957176056912478 1.0677764043639888
0.9769306852839331 1.0849914451969953
0.9250432308766152 1.0641405081141084
0.9384699101423476 1.118424886953708
0.9062213631117658 1.119090184498038
0.8557694507026651 1.0953349475133434
0.8064321310237446 1.0701715834633727
0.7876322380719141 1.0840827724624296
0.7685924247104016 1.0976637393472493
0.7213588454772634 1.0694584685960038
0.7025843551693851 1.081885032649597
0.6835958508608343 1.0939820440417896
0.6386472128884673 1.0628874528706191
0.6199999999999999 1.073871500692704
0.601163929105458 1.0845284368528507
0.5586711597152099 1.050707635502123
0.5402486946900608 1.0602977637841577
0.5216616646790019 1.0695649150960087
0.5029157314714323 1.0785062665736134
0.4636797731064124 1.0414418217125647
0.42589693005330836 1.0033502902631601
0.42705151649413986 1.0569895942061374
0.40853946248164213 1.0642816862068099
0.372801956224979 1.0242649566566402
0.35486928835830067 1.0306152474032555
0.3368285238686927 1.0366516027617174
0.304066572911646 0.994556946201557
0.2866628500496791 0.9997121637758517
0.2821127591617479 1.0528591506550844
0.2636948662036378 1.0576223416408361
0.23394909651761975 1.0133448673766448
0.2162281584504696 1.017273504763158
0.19844135519160672 1.0208922707855705
0.18059410477360743 1.0242000631326964
0.16269184364184017 1.0271958742189433
0.14474002499846786 1.0298787914912333
0.1267441171413534 1.032247997706975
0.11184545569638944 1.0641384280440525
0.09325664473999422 1.0659283269581679
0.07115160321900797 1.0175153312650207
0.05338267536780262 1.0186021254496653
0.0355974866365511 1.0193786435594776
0.017801454566029044 1.0198446490595192
