# .PCD v0.7 - Point Cloud Data file format
VERSION 0.7
FIELDS x y
SIZE 4 4
TYPE F F
COUNT 1 1
WIDTH 179
HEIGHT 1
VIEWPOINT 0 0 0 1 0 0 0
POINTS 179
DATA ascii
7.776507174585693e-17 -1.27
0.021291935853485988 -1.2198141880907973
0.04257738597705132 -1.219256808963297
0.06646666442853884 -1.2682595091383089
0.08510289796783305 -1.2170281413169854
0.11068779328952584 -1.2651672665765168
0.13275114834991988 -1.2630428071177071
0.1547740661245373 -1.260533612584479
0.17674983821928314 -1.2576404473017944
0.19867177060109328 -1.2543641925558249
0.22053318563700164 -1.2507058463255043
0.24232742412821204 -1.2466665229785332
0.2640478473385545 -1.2422474529319332
0.28568783901670874 -1.2374499822772487
0.30724080741157794 -1.2322755723705154
0.3416411395353274 -1.2750220907015701
0.35557218900392895 -1.2400275877604314
0.3859306502340126 -1.2623222778712069
0.40790243257493064 -1.2553946015096027
0.43626132697259007 -1.2669948913030844
0.46856759635616635 -1.2873788904766945
0.49096409087706155 -1.2790051843011665
0.5132110329797998 -1.2702418807564988
0.5353016460303051 -1.2610916492298434
0.5775660331676365 -1.297234549852493
0.5874393838195722 -1.2597678239809433
0.6093358940368176 -1.249323724355842
0.6673660346171338 -1.3097795905569007
0.6901231972952595 -1.2979329615026225
0.6981258531547254 -1.2594523782807299
0.7449999999999999 -1.2903778516388136
0.7674067316159808 -1.2771792780461473
0.7895797037074753 -1.2635916632730746
0.8115121621723903 -1.2496191462386816
0.8611570713449502 -1.276717861734764
0.9119865337981633 -1.302451750419497
0.9345785511450323 -1.2863370210561664
0.9568858868117568 -1.2698304609751956
1.0096848195340797 -1.2923376359150238
1.0635514608742251 -1.3133766748622808
1.0863110603702515 -1.294615108871073
1.1415427104434825 -1.3131946695876233
1.1977437853823563 -1.3302292376045357
1.2207770645118725 -1.309123125898315
1.2434384831216052 -1.2876182426061855
1.3010764773832475 -1.3010764773832473
1.3595522226400507 -1.3129043201675048
1.3822584960602322 -1.288976900518122
1.4788582027000148 -1.3315699066541276
1.539607543654455 -1.3383604191406349
1.601032886118664 -1.343426104244867
1.6630923575179177 -1.3467456368466522
1.6863430127183852 -1.3175155571969086
1.7889435425059361 -1.3480656518605882
1.8121980673998825 -1.31663896513514
1.9577733858506905 -1.3708476828790002
1.9979805498576506 -1.3476548973645
2.105063125543014 -1.3670439778877175
2.1710031261604508 -1.3565933164370045
2.4086401149729357 -1.4472569904972519
2.5634351952019383 -1.48
2.7200672892035205 -1.5077579189661081
2.8342617730771558 -1.5070037165427095
2.9492315950634977 -1.5027085541379
3.109827400195118 -1.5167641678902077
3.1358249431468086 -1.4622591856228198
3.2522218292076595 -1.4479824493498485
3.4150730063085537 -1.4496124866952054
3.671648064084478 -1.4834421099270112
3.8370155529034995 -1.4728922726311844
4.097059826626561 -1.4912078248999159
4.406116562292817 -1.5171475997703503
4.764793146638719 -1.5481751418184864
5.077978254163718 -1.5524937520777318
5.488804283807801 -1.5738893017150648
5.998399381255115 -1.6072662700866533
6.559199109625736 -1.635392014253753
7.366237689776378 -1.7006299708396182
8.128406562097926 -1.7277461506955807
9.237111796242518 -1.7955126464932871
9.71020444470037 -1.7121710317959333
17.442576094910134 -2.762632652610477
17.587160900850293 -2.471714273050762
17.677246960731946 -2.1704930060456755
38.31364808860854 -3.3520098660749293
38.21667876545387 -2.6723705091374357
38.357360429923176 -2.010224079291475
38.38660166580347 -1.340489668343064
28.355680634635256 -0.49495024656136105
17.81 0.0
17.807287450735327 0.31082735864801975
17.699211546508188 0.618070086601293
9.946350166155556 0.5212661241797213
9.885859738074858 0.6912866548042828
8.876094759997454 0.7765576678816354
8.015846476668283 0.8424994139372881
7.205885060915998 0.8847714331213703
6.6446987412559375 0.9338515074420389
6.084160178066049 0.9636363046478221
5.623252269699708 0.9915310944781723
5.212440344107096 1.0131957654494532
4.900519479676365 1.0416375709969745
4.6380015083777195 1.0707670186767977
4.327518939190944 1.0789716543745185
4.1148440199914305 1.102569132136739
3.8546594007126584 1.1053057968261664
3.6913363580173173 1.1285547802297637
3.480866849640262 1.1310021994123076
3.271494271573636 1.126465814421762
3.157367205840652 1.149187681574247
3.0434721903808777 1.168279515517679
2.837182594974369 1.146296175852691
2.770719608891845 1.1761006967527143
2.6584172817399687 1.1836036313505789
2.5467248815729864 1.1875573154913652
2.4357318654707423 1.1879858077984002
2.3255270281316403 1.1849152043202171
2.260345837718853 1.201847200731881
2.1952954649198833 1.216872146818306
2.0698007150448086 1.1949999999999996
2.0229148296569845 1.215489856787728
1.9420301401982156 1.2135151150940393
1.8786220721977498 1.219991438433661
1.8155922838955414 1.2246324586009354
1.7529853747784423 1.227453573791239
1.6908455182436402 1.2284711772912689
1.6691482159988418 1.2577933983877811
1.6075419373577127 1.2559494096643429
1.5465204632993723 1.2523475781891762
1.4861262196508174 1.2470079627918864
1.4264011066210391 1.2399515647920585
1.3673864788784054 1.2312003157002993
1.345690810979274 1.2548769825149972
1.2876182426061853 1.2434384831216052
1.2657211383239202 1.26572113832392
1.208705564598655 1.2516512525892534
1.1525772285056224 1.235987755736398
1.1308307247464706 1.255914755056796
1.1087397589939572 1.2754591905764847
1.0541716798859246 1.2563128867151239
1.0006194217692415 1.2356620787165837
0.9789017457677969 1.252937098234688
0.9568858868117566 1.2698304609751958
0.9345785511450323 1.2863370210561664
0.9119865337981631 1.3024517504194972
0.8611570713449501 1.2767178617347643
0.8115121621723905 1.2496191462386816
0.7895797037074753 1.2635916632730746
0.7828578738632825 1.3028942970672106
0.7199999999999999 1.2470765814495917
0.7223663341670423 1.3031833636376997
0.6901231972952592 1.2979329615026227
0.6673660346171338 1.3097795905569007
0.6444055857799436 1.3212272480597755
0.6212488447588281 1.3322724469438754
0.5775660331676365 1.297234549852493
0.5743747588792324 1.3531421345750874
0.5319413626505952 1.316601073484838
0.4909640908770613 1.2790051843011665
0.45830699205639625 1.2591881118531172
0.4362613269725898 1.2669948913030846
0.43880413201242535 1.350500253139118
0.4005492354701491 1.3101375156693589
0.37762317746928886 1.316928523435497
0.35458209179045375 1.3233183820160235
0.3314329969715447 1.3293051449981153
0.3081829444510953 1.3348869887557724
0.28483901642033016 1.340062213005314
0.2614083236658666 1.3448292413232998
0.2292155945203479 1.2999462339761148
0.20649349385310484 1.303748609585582
0.1906671483152894 1.3566672541759515
0.16696100046505208 1.3597882277486113
0.14320399467668554 1.3624949966545346
0.11940336756429167 1.3647867363856916
0.0920785453422456 1.316784546342968
0.07170026005283293 1.3681224626137662
0.04606733564730143 1.3191958916652065
0.023037176497214058 1.3197989576064366
