# .PCD v0.7 - Point Cloud Data file format
VERSION 0.7
FIELDS x y
SIZE 4 4
TYPE F F
COUNT 1 1
WIDTH 177
HEIGHT 1
VIEWPOINT 0 0 0 1 0 0 0
POINTS 177
DATA ascii
4.531193156845207e-17 -0.74
0.013787401085454043 -0.7898796791735492
0.026872612460925833 -0.7695309368047037
0.03768188849491966 -0.7190132650232931
0.053712484782976605 -0.7681243187000647
0.06449524963326703 -0.7371840765878916
0.08048691671609316 -0.7657818594335705
0.09383939442196357 -0.764260536763818
0.10298809471044844 -0.7327983708687621
0.11576150412977088 -0.7308893720404019
0.12849965147352851 -0.7287577372290339
0.14119865657864322 -0.7264041157512713
0.153854651205142 -0.7238292245430161
0.1664637802144602 -0.7210338479410741
0.19111829752373746 -0.7665336237580372
0.19152609337586535 -0.7147851114539105
0.20397164330457937 -0.711333654994356
0.2163550614948252 -0.7076655194126462
0.2441234255562085 -0.7513346478731713
0.25719884202115384 -0.7469596747234603
0.25309490606099494 -0.6953725393815722
0.28311068014078733 -0.7375285369327894
0.29593920879857066 -0.732475245107762
0.30867759150652624 -0.7271988342274279
0.3213219480298823 -0.7217009115376546
0.3549993398621875 -0.7612985411107859
0.34631320596337123 -0.7100472965763419
0.35865249479424205 -0.7038951541088107
0.3943561127401483 -0.7416759780014985
0.3829995999946063 -0.6909495686401227
0.4199999999999999 -0.7274613391789285
0.43263198292444555 -0.7200205325897743
0.4451321819558921 -0.7123604007713977
0.45749678941262273 -0.704483277074156
0.49768168408896474 -0.737843439573987
0.48180420653487865 -0.6880877172027531
0.5525181371549247 -0.7604759747124505
0.5356153706053229 -0.7107856039420907
0.5787217868061189 -0.7407301083903185
0.5600951480343553 -0.6916599056967041
0.6042203531053469 -0.7200817765318392
0.6494984387006022 -0.7471624844205443
0.6624393002952697 -0.7357133772226203
0.6751783764618736 -0.7240401646029786
0.6877117867544073 -0.7121464023352646
0.7353910524340095 -0.7353910524340094
0.7481133923521973 -0.7224447052773572
0.7606078496839375 -0.7092782944649985
0.81002785977036 -0.7293523609311554
0.7848979634316829 -0.6823013901501276
0.8732906651556349 -0.7327778750426547
0.8859463960609467 -0.7174252457968145
0.9377327967919992 -0.7326371556375332
0.9503762569562785 -0.7161598775509374
0.9627302233061874 -0.699464450228043
1.01574853491835 -0.7112347810752971
1.0694584685960038 -0.7213588454772634
1.1238185610468683 -0.7298163069201362
1.136384448849611 -0.7100918140724947
1.191462547975936 -0.715902924124975
1.2210958193360584 -0.705
1.3906453343516394 -0.7708472961916759
1.4921814319315865 -0.7934069411081555
1.55035135208776 -0.7899434695468114
1.608841342875509 -0.7846843527524485
1.667606328147436 -0.777617601602887
1.699194551215238 -0.7565301561209883
1.804189512766783 -0.7658330118389763
1.9099987404075822 -0.7716895824367785
1.9698546999090956 -0.7561563735405836
2.0767206919368575 -0.755864516749728
2.165237538122436 -0.7455510737068889
2.130366596501144 -0.6921980673998822
2.16124874847646 -0.6607600526733849
2.3166406872113487 -0.6642860275189679
2.4244738239855614 -0.6496358032073268
2.5809866318941506 -0.6435122422951159
2.835416888525035 -0.6546075681406468
2.9931316582454452 -0.6362097739023438
3.2491859772117677 -0.6315777746963634
3.5551559883740707 -0.6268699213776185
3.8618614117269887 -0.6116587583073028
4.268055376276168 -0.5998360651378819
4.674892374230627 -0.5740046074382444
5.231185169637118 -0.5498197167878568
5.937320400626803 -0.5194482267760421
6.843289384782395 -0.4785294098846987
8.24867995707278 -0.43229499856671666
9.654115389004465 -0.33712913814615986
12.608079435922093 -0.22007484517414538
20.46 0.0
28.405673019393078 0.49582286688322524
38.93626662066397 1.3596843915294397
44.598795022139264 2.3373238058098744
29.887018945784334 2.089903953373997
24.26730284551492 2.123113893332956
15.872569450077643 1.6682742737517517
11.821224666048145 1.451463879955306
11.794092698712102 1.657551632434379
8.652149863613406 1.3703659137524224
8.036031264579618 1.4169691297621518
7.1266133518300405 1.3852733064337157
6.050838102316311 1.396946047475402
4.549510641821511 1.2190377024328733
4.43141641827565 1.270688210316366
4.504195400585897 1.37707072924409
4.527029017564931 1.4709208932247495
3.9091213024693787 1.4228037962347821
3.323546318330038 1.2757899003812692
3.8570848349978353 1.5583634286101944
3.8293001903621517 1.6254414945153794
3.8460263766753497 1.7123612673491193
3.8155557834242964 1.7792228819283444
3.828862637234451 1.8674610853214704
3.795687793042447 1.9339995288904692
2.5252301155765307 1.342688669567648
2.0641025088489737 1.1441507037813554
1.9572174125528312 1.1299999999999994
1.9800564646218792 1.1897379530422254
1.9589911021213442 1.2241135003787034
2.5663319379129974 1.6665954471459832
3.78041133085099 2.549919639826605
3.6943757197433524 2.5868297279432184
3.5677649451935185 2.5921329626098064
3.402187272801467 2.5637319986277265
3.278124735003963 2.5611517373547388
3.3106417958066965 2.6809048658723067
3.2633493276868464 2.7382752172646576
3.252798290760147 2.827614414949086
3.2401114390814385 2.9174094437246225
4.212597321326422 3.928310553959991
4.035496279899832 3.8970334582749753
1.1030865786510142 1.103086578651014
1.0489341393930858 1.0862030985113635
1.0161775564931228 1.089717015412564
0.963548073156756 1.0701285486874474
0.9447250017463305 1.0867817955207917
0.8934747774642898 1.0648017759353794
0.8747553435592739 1.0802328864251896
0.8065165326766125 1.0322940872248056
0.8184684314867855 1.0861442936643184
0.7876322380719141 1.0840827724624296
0.7972712465279538 1.1386213415616986
0.7884619938937529 1.1689429773026088
0.7407090876204371 1.1405919724057767
0.7206901993571587 1.1533454107727394
0.6901510203794727 1.1486041829408304
0.6549999999999999 1.1344932789576148
0.7078220455596522 1.2769447724235177
0.6854284816674003 1.2891034855740333
0.640126604632761 1.2563191991055986
0.6181033169725989 1.2672996052818255
0.5958917490543861 1.2778939797216764
0.5531618345830885 1.2424218223939372
0.5313943347454123 1.251886600695319
0.49073463737484496 1.2146108494824914
0.48738041138160826 1.2696693800361945
0.4480463877566262 1.2309973332295399
0.4264942823388751 1.2386293340351051
0.4048122626311812 1.2458840363466512
0.3830069331867849 1.2527592303115767
0.34730306832941893 1.2111897368822817
0.3261119968291764 1.2170665411242259
0.30482158845558127 1.2225726151077556
0.2721907757560768 1.1789877783901346
0.25157314588948865 1.1835585968879048
0.23087888440561935 1.1877688919716733
0.21011429497698556 1.191617381144772
0.18928570269867942 1.1951028921201168
0.16839945216167895 1.1982243631773002
0.14746190552022845 1.2009808434859996
0.12647944055386096 1.2033714933956106
0.10110066158728344 1.1555858497864246
0.08091750954318552 1.157174298301396
0.0601863496793853 1.14842396496776
0.03908743630680121 1.1193177262613874
0.02041931553162155 1.1698218033329777
