# .PCD v0.7 - Point Cloud Data file format
VERSION 0.7
FIELDS x y
SIZE 4 4
TYPE F F
COUNT 1 1
WIDTH 179
HEIGHT 1
VIEWPOINT 0 0 0 1 0 0 0
POINTS 179
DATA ascii
1.4450832229938768e-16 -2.36
0.032461475973347496 -1.8597167129908878
0.058980149427226826 -1.6889704976622717
0.0884477660505753 -1.6876839137352297
0.11788844062757202 -1.6858832449391028
0.1490363200984954 -1.703492933736885
0.27386457376125206 -2.605647365864876
0.315641599419332 -2.5706945327510238
0.3604583314865695 -2.5647942980406673
0.4051652644541981 -2.5581128021414066
0.45322174371068835 -2.570348235361863
0.4980114779327822 -2.562046948798403
0.5426495130343522 -2.5529652379152323
0.5983698045546814 -2.591824372328726
0.643512242295116 -2.5809866318941506
0.6755177077175791 -2.521066406614468
0.7139007515660278 -2.4896677924802457
0.7572427152318882 -2.4768293179442615
0.8003540154311138 -2.4632363772044474
0.8432215200440359 -2.44889311080223
0.8926725740799956 -2.4525977402512207
0.971177143267764 -2.530002955807417
0.6780379340828011 -1.6782027767658851
0.6486136732921943 -1.528038056731051
0.6548459953520387 -1.4708081868045872
0.6381535752284562 -1.3685247584253415
0.6531730087157254 -1.3392031289857587
0.6310467946379701 -1.2384990686218313
0.6290918941330937 -1.183149774430962
0.6254044101177749 -1.1282594222098206
0.6199999999999999 -1.073871500692704
0.6128953091429645 -1.0200290878355136
0.6041079612258535 -0.9667748296183255
0.5936565481663796 -0.9141509190605122
0.6095202647831142 -0.9036509540849954
0.5678406719875356 -0.8109605238461018
0.5819073997695484 -0.800926824431198
0.5657061217629253 -0.7507173794444553
0.547938713039836 -0.7013295707099825
0.5915611675868471 -0.7305172037695526
0.6042203531053469 -0.7200817765318392
0.6166954872510768 -0.7094270054094056
0.6289827699773267 -0.6985561359487505
0.6751783764618736 -0.7240401646029786
0.6877117867544073 -0.7121464023352646
0.7000357133746821 -0.700035713374682
0.7121464023352647 -0.6877117867544073
0.7240401646029788 -0.6751783764618735
0.7728706184964902 -0.6958958306132125
0.7848979634316829 -0.6823013901501276
0.8349884429996861 -0.7006384945583278
0.8470890979880984 -0.6859592262443228
0.898332259111663 -0.7018540818712503
0.9104444814539138 -0.686069126393335
0.9627302233061874 -0.699464450228043
1.01574853491835 -0.7112347810752971
0.9865547113404997 -0.6654395551301887
1.0399515042523257 -0.6753524034186335
1.0939820440417896 -0.6835958508608343
1.105745817905725 -0.6643991166339698
1.1604740410711478 -0.67
1.1719904075667904 -0.6496448911300917
1.2272971540739084 -0.6525654722723881
1.2830493948312498 -0.6537463196249473
1.3392031289857589 -0.6531730087157254
1.395713992036441 -0.6508321230806771
1.4525372776517356 -0.6467112624905222
1.4636027169893802 -0.6212624942979451
4.645191111379605 -1.8767790330137186
4.023731638202939 -1.5445658625402443
4.0030905645479695 -1.457005810567349
4.0279091320530895 -1.3869203379874875
4.003947933602596 -1.3009615463185285
3.978227784806228 -1.2162662916465847
3.950785570306491 -1.1328695324078664
3.969955146048071 -1.06374627537136
3.987915434994346 -0.994298990914634
3.4200389273961753 -0.7895782007469656
3.482205458612348 -0.7401656193112235
3.6909182097632165 -0.7174418226158086
3.899838701928344 -0.6876467835610443
4.15816791390553 -0.6585890978193719
4.466108990024482 -0.627670685329895
4.575637759066495 -0.5618176730977297
4.58474593764774 -0.48187621566388217
4.542647823298359 -0.39743018692932075
4.5987702716977905 -0.3215773439604171
5.652243166710888 -0.2962215123350625
5.73650334708961 -0.20032311107235584
6.3090389564368285 -0.1101246846192591
7.26 0.0
8.50870388578089 0.1485199787812829
10.353688967917831 0.3615587858379105
12.193266619353347 0.6390220257263451
17.81649393764046 1.2458506210700795
29.447515275591996 2.5763237556207788
35.96191173651676 3.779749231758354
12.118988511540543 1.4880246829768502
18.726570937683814 2.9659974571627776
17.637906856448645 3.1100388620147226
11.985667909895978 2.3297778335476127
9.39999844305187 1.9980313487586676
8.097015238365305 1.869343261597519
7.092861759077534 1.7684490568335718
6.23988083782738 1.671971031362285
5.584930453401633 1.6014530372967648
5.077978254163718 1.5524937520777318
4.6221346691944465 1.5018225926622444
4.264288775952918 1.4683123766017767
3.956105933508674 1.4399048034010655
3.650299467604059 1.4012186827221242
3.3934929077144416 1.3710601319022384
3.184946792945443 1.3519297045728875
3.160867283443399 1.4073087850422692
2.9998787750913114 1.398866446361715
2.8851288886203257 1.407171381192939
2.681929637806987 1.3665114042160358
2.5252301155765307 1.342688669567648
2.239026450276853 1.2411126278306228
2.0871212231204974 1.2049999999999996
2.0657731946920905 1.2412417605332309
2.043795911736987 1.2771054268020239
1.9792625403512003 1.2853481226354642
1.8736249139743941 1.2637759618438877
1.851283620093121 1.2962827461533644
1.707025858131139 1.2402268823371183
1.6851209261997875 1.2698296988508222
1.6075419373577127 1.2559494096643429
1.5465204632993723 1.2523475781891762
1.4861262196508174 1.2470079627918864
1.4264011066210391 1.2399515647920585
1.3673864788784054 1.2312003157002993
1.3091231258983154 1.2207770645118723
1.2516512525892527 1.2087055645986553
1.0889444430272832 1.0889444430272832
1.0350409719839058 1.0718163025045904
1.0161775564931228 1.089717015412564
0.9970046034746989 1.1072857899613173
0.9447250017463305 1.0867817955207917
0.9256141579486168 1.1031039980913282
0.8747553435592739 1.0802328864251896
0.8557694507026651 1.0953349475133434
0.8064321310237446 1.0701715834633727
0.7582429754572904 1.0436319227436823
0.7685924247104016 1.0976637393472493
0.7213588454772634 1.0694584685960038
0.6753524034186337 1.0399515042523257
0.657099887649174 1.0515796392339682
0.6128953091429645 1.0200290878355136
0.5949999999999999 1.030570230503482
0.5769234480931411 1.0407974514958809
0.5586711597152099 1.050707635502123
0.5402486946900608 1.0602977637841577
0.499743107339548 1.0246252127810502
0.46065390529736244 0.9878754878699485
0.4636797731064124 1.0414418217125647
0.42589693005330836 1.0033502902631601
0.4083211868233443 1.0106304014777983
0.3906210650043772 1.01760266488195
0.372801956224979 1.0242649566566402
0.35486928835830067 1.0306152474032555
0.32137767414994534 0.9890987769469597
0.304066572911646 0.994556946201557
0.2866628500496791 0.9997121637758517
0.2691718069066218 1.004562859340631
0.2515987714236544 1.0091075553270363
0.23394909651761975 1.0133448673766448
0.2162281584504696 1.017273504763158
0.18890090542277946 0.9718109116131873
0.17191169589026092 0.9749596754820861
0.1548701203898286 0.9778114571891864
0.13778136995046458 0.9803653880541546
0.12065064997109601 0.9826206901249087
0.10661903253300675 1.0144123332756387
0.0845410704652284 0.9663088571489932
0.06557108531947792 0.9377102072442347
0.05181259668051431 0.9886432394070281
0.03280552690035101 0.93942737739795
0.016928834244164876 0.9698522643016995
