# .PCD v0.7 - Point Cloud Data file format
VERSION 0.7
FIELDS x y
SIZE 4 4
TYPE F F
COUNT 1 1
WIDTH 175
HEIGHT 1
VIEWPOINT 0 0 0 1 0 0 0
POINTS 175
DATA ascii
1.421814933810077e-15 -23.22
0.4506211342106625 -25.816067488938025
1.5607054925358483 -44.69275778429396
2.2855112091293632 -43.61015178273224
2.432377340238296 -23.14252450521972
2.8419930882080395 -23.14617625627563
1.9929588057481376 -14.180638744379287
2.138459137099957 -13.501699615935534
2.356405770940246 -13.363841208375662
2.6560612156415053 -13.664250393591482
2.623845538120124 -12.344222721260625
2.6139312514757127 -11.322180152804433
2.5571144364884875 -10.256025826737282
2.5674849274170057 -9.581984196787557
2.5689401562144325 -8.958959006145133
2.534862679946128 -8.291162234199517
2.540119693762068 -7.8176845639461625
2.5133861524092502 -7.299403403626725
2.5206884563101792 -6.925534615192144
2.5157430058080084 -6.553734594010356
2.51735630775493 -6.23067550268881
2.528030401325601 -5.955666401837289
2.5095650877776885 -5.636575473654847
2.480769196417906 -5.320026709905135
2.4855644022940693 -5.096162242516276
2.4833280335753214 -4.873805687310372
2.4741151358816444 -4.653133814366544
2.457984774648929 -4.434321915196737
2.4599999999999995 -4.260844986619438
2.456731617320959 -4.088688024349075
2.4747229639690667 -3.960384609050509
2.461768438267922 -3.790790967113316
2.4157133429936266 -3.58144231343778
2.420492561401414 -3.4568216268995453
2.451064502059613 -3.373600866543531
2.419296393071234 -3.210514750390117
2.444176057042864 -3.1284026918186862
2.4354699133628706 -3.0075548708384776
2.4233092885182534 -2.887987550558547
2.4405395878446874 -2.807519638428712
2.422252795019067 -2.690184268228167
2.43473414542312 -2.610932714780438
2.4104645454927205 -2.4961091071751196
2.4183051916579927 -2.4183051916579923
2.388208137124322 -2.306265789923871
2.391526604294688 -2.2301346374043702
2.39292633803721 -2.1546005524755234
2.430164848317326 -2.1125100733494335
2.3900586625312115 -2.0054973422220024
2.40915248051661 -1.950893212254496
2.403432798500502 -1.8777674997432574
2.3959065301418785 -1.8054450694561448
2.386600133406095 -1.733966494262796
2.4164985306525257 -1.692050487235586
2.404208960409621 -1.6216594200651657
2.4321446470417296 -1.5794532015435783
2.4169370740458143 -1.510269903064634
2.400068441965914 -1.4421066097481512
2.424871130596428 -1.4
2.4052041946333382 -1.333226455677427
2.4281058803620494 -1.2910467976611997
2.4057176153085935 -1.2257743492967765
2.3818042226927925 -1.1616835389910551
2.4017156356471223 -1.1199383936128533
2.4208954627528927 -1.0778521041508704
2.393312618976345 -1.0159009340721115
2.364318829145308 -0.9552468132105753
2.380630087567864 -0.9138382713405158
2.396216183004066 -0.8721513654804554
2.363796438998292 -0.8139203861428917
2.3776412907378837 -0.7725424859373685
2.342946652109437 -0.716310676570705
2.3550911550488816 -0.6753115217516479
2.3665182744082176 -0.6341066605011757
2.3772245293761913 -0.5927086442191857
2.3872066587238265 -0.5511300831424689
2.396461621797824 -0.5093836425035105
2.3559052402743936 -0.4579415889037076
2.314298219578689 -0.40807321751728637
2.400082667646185 -0.380135750047761
2.406351407042016 -0.33819063533295896
2.411887148488413 -0.2961425044745083
2.6553734606332897 -0.2790909969246345
3.1081274580462463 -0.27192591737269317
3.6610600644535554 -0.2560062586409394
4.413942543615216 -0.23132492659381204
5.666545989198273 -0.19788014630318077
7.868801360880799 -0.13735043866142144
9.77 0.0
14.917727611733358 0.26038990404427037
21.20707334934521 0.7405673200270716
23.437835180689845 1.2283248930218933
23.412828259598072 1.637184438774623
14.514556751196732 1.2698591718333814
12.700044603852849 1.3348284759279365
9.647548593953651 1.1845700178980332
7.822491657513491 1.2389609631186285
7.848917791507298 1.3839759760054349
7.872650011250265 1.5302881429198898
7.84474375788512 1.6674517603584302
7.91188492605611 1.8266025612721843
6.423357707947097 1.601522948869801
5.959762348203551 1.596913508282554
5.546479985564099 1.5904275430640846
5.183171777319653 1.584654639597233
5.20227914413449 1.690322959230962
5.666833188838015 2.175293453739973
5.581646804492059 2.2551316923637907
5.633489703128935 2.3912745063543563
3.4440663753126053 1.5333971443957672
3.326149578424505 1.5510090205883666
3.1637550429730674 1.543066436697553
3.0472423127242183 1.55264750910925
2.8430912490057447 1.511698432170569
2.7288134862749147 1.5126060151685716
2.615396719429005 1.5099999999999996
2.5029285180501675 1.5039111787373585
2.3914956311611215 1.4943723251376377
2.306344061849916 1.4977573462913247
2.321305203154117 1.5657401297180908
2.334583326223626 1.634692843600482
2.3056984339686 1.6751879690335485
2.3160429791371486 1.7452635671409407
2.2852311854594936 1.785418278444409
2.292580586298065 1.85649515359702
2.298133329356934 1.9283628290596182
2.3018642196794543 2.0009800384210465
2.303748958979922 2.074304879712461
2.281823549051812 2.1278348833949954
1.9925712469380632 1.9242036861714227
1.9586857838867369 1.9586857838867364
1.9936695232173218 2.0645052269719293
2.29833447341062 2.4646619744566047
1.8534917796140375 2.058511166572382
1.7844805588541799 2.05281005820594
1.7483822983473876 2.08364088528362
2.2152077764954274 2.7355537843285376
2.1055622456137515 2.694996777334989
2.0582073791800046 2.731333444361742
1.9514470376110107 2.6859364213248256
1.9042737686854725 2.719584787039453
1.9403993750434916 2.876760376765995
1.8898974515021445 2.9101868707706213
1.8918117733125415 3.0275317032784406
2.27646829110244 3.788679469103336
2.2599999999999993 3.9144348251056624
2.2398204455380775 4.040743046984009
2.239379354488698 4.211660017937081
2.2563327837055476 4.428302425216188
3.9760263013769306 8.152061999933446
3.833147633988144 8.220211628422415
3.811122345620249 8.55992093811117
3.4853216661243214 8.210903292795768
3.322760483599141 8.224120790007403
3.1428869175122824 8.187500340380458
2.093163277153093 5.750918839209759
2.855232714589263 8.292197908006008
2.8027841389807735 8.626082602797043
1.8916449295561053 6.18729177108084
2.5689401562144325 8.958959006145133
1.791027792109445 6.684206717920352
2.024886266169218 8.12137522893009
1.387948005301648 6.011863299724902
1.2828151323455745 6.035170696527581
1.291776898699209 6.645616031940684
1.1755981628051175 6.667148487892649
1.4110388746628828 8.908948832168143
1.1426111588821357 8.130100844368293
1.093168010344173 8.903138980222659
0.8749032375502612 8.324148264232447
0.7251357796605158 8.288339888123323
0.5803738615511238 8.299732898161738
0.4485191450020279 8.558255112846698
0.3095585357511845 8.864596635659378
0.15480284509870354 8.86864905603719
