# .PCD v0.7 - Point Cloud Data file format
VERSION 0.7
FIELDS x y
SIZE 4 4
TYPE F F
COUNT 1 1
WIDTH 180
HEIGHT 1
VIEWPOINT 0 0 0 1 0 0 0
POINTS 180
DATA ascii
7.470345474798854e-17 -1.22
0.02041931553162181 -1.1698218033329777
0.04083241114192626 -1.169287267612342
0.06123306880424444 -1.1683965556628513
0.08510289796783305 -1.2170281413169854
0.10197221901476002 -1.1655477967673422
0.12229830202315453 -1.1635906175808797
0.14868059895427993 -1.2109063050024127
0.16979118317127986 -1.2081270438647158
0.19085004734908173 -1.204979775526068
0.2118507767536551 -1.2014654586748938
0.23278697435938478 -1.19758516380615
0.2536522627976665 -1.1933400728952428
0.27444028629951545 -1.188731479037987
0.29514471263159453 -1.1837607860567156
0.3157592350250753 -1.1784295080726632
0.336277574096739 -1.1727392690447491
0.3625409138561936 -1.185817897394164
0.3770007331374359 -1.1602889498800872
0.39719314843773124 -1.1535326622311664
0.41726457485731594 -1.146424997358808
0.4443762574361725 -1.15763972885653
0.4757503736382085 -1.17752349529982
0.4962285331813776 -1.1690411638845992
0.5368923688600565 -1.2058800040882331
0.5578561054977232 -1.196326278888378
0.5654987793579099 -1.1594443197259254
0.5856477446640155 -1.1493984162029947
0.6431760410166706 -1.20963820221673
0.639948698725165 -1.1544980134240024
0.6699999999999999 -1.160474041071148
0.7159029241249754 -1.191462547975936
0.7100918140724947 -1.1363844488496109
0.7570482586708875 -1.165752089444139
0.7772781358243381 -1.1523622258515078
0.797271246527954 -1.1386213415616986
0.8464107633011613 -1.1649844718999243
0.8666136333389495 -1.1500351344681017
0.8865525244689481 -1.1347354851936795
0.9691534022167496 -1.1968047806437352
0.9898929189172706 -1.1797084424032263
1.0103309046453812 -1.162252753543069
1.0639176641105847 -1.1816002725090569
1.0843773924993727 -1.162852385574481
1.1183999764389856 -1.1581370785452283
1.1950104602052654 -1.1950104602052651
1.2156842625723205 -1.1739726460757054
1.2725554408173567 -1.1866771465087473
1.330229237604536 -1.197743785382356
1.350930148598762 -1.1743456618930082
1.4095217753389195 -1.1827292018232323
1.468805867153675 -1.1894155390841925
1.4893403243167045 -1.1636001883654938
1.5892846649941128 -1.1976118960725761
1.650394668524893 -1.1990819146766452
1.7120277725639927 -1.1987747519736862
1.7741404052677894 -1.1966728134273983
1.8534619551593872 -1.2036522673832095
1.8741862925057016 -1.1711215739553829
1.9800564646218795 -1.189737953042225
2.0698007150448086 -1.195
2.1515644795629134 -1.1926316658059892
2.2161984580759064 -1.1783736225925858
2.3255270281316403 -1.1849152043202171
2.4357318654707427 -1.1879858077983998
2.5467248815729864 -1.1875573154913652
2.704094554622099 -1.2039404635043685
2.8167448515644677 -1.1956372531771775
2.9762601731593876 -1.2024871648650772
3.1368302330305977 -1.204116310472209
3.3453057299978335 -1.2175917102393807
3.5078739154734655 -1.2078578530360513
3.766183804528808 -1.2237072977247916
4.026043022604379 -1.2308848768827216
4.287227163884903 -1.229342606943816
4.597806933135965 -1.2319786546879985
4.958211161270342 -1.2362208865143016
5.368779056966646 -1.2394803094346953
5.780852320336791 -1.228758092732958
6.390392964244293 -1.242166559901307
7.10046389921802 -1.252003360978568
7.911383608167053 -1.2530400649722493
9.021342106235705 -1.2678669497461958
10.233150823422031 -1.25647293050707
12.19283843721503 -1.2815189596614305
14.9528824183571 -1.3082076986423476
19.66198743062114 -1.3749000974967074
19.68298813001265 -1.0315416975484244
19.697993200546378 -0.6878690800062951
19.60701330201683 -0.3422416902351301
19.71 0.0
19.70699807153247 0.3439869308788585
19.697993200546378 0.6878690800062951
19.732919606750382 1.0341584953605716
19.761743835647117 1.381875744871124
14.006497455169942 1.2254097430320756
12.093386247678204 1.271066113334668
10.431660053750296 1.2808467991880994
9.665016350917726 1.3583294653702385
9.639838204208544 1.5268003787926532
9.759444832350981 1.72085344067928
9.72792538796635 1.8909171441815595
9.791257483345394 2.0811960250857715
5.855964089359263 1.351955836606629
5.44335902440834 1.3571818343141366
5.129066137594951 1.374329129494386
4.767858011854062 1.3671612848523156
4.504195400585897 1.37707072924409
4.241712062676385 1.3782157949122653
3.9806332032731238 1.3706419302646298
3.7681674093514923 1.3715007747359318
3.6036204462791988 1.3833002852448593
3.439852100442781 1.3897904615730339
3.2309720356180653 1.3714662609973511
3.115190010561269 1.3869719528884792
2.9545633857394784 1.37773553327468
2.8401891863053677 1.3852528238534851
2.7264799640164057 1.3892109292030133
2.5693774952194772 1.3661622477069428
2.457681377061702 1.3623150328922071
2.3902301144450506 1.3799999999999994
2.322923384902724 1.395753183006247
2.213405530968272 1.3830892796486647
2.146996653940285 1.3942759296384697
2.039432428485403 1.375614542538037
1.9741564267364702 1.3823192116060217
1.909280106724876 1.3871731954102364
1.8288753180083004 1.378156403018191
1.8045446257593931 1.4098647784957574
1.7019496555907665 1.3782116563991436
1.639335108274613 1.3755654847291943
1.6150785016767322 1.4039663220396854
1.5531726852477536 1.3984829672900139
1.491961551303108 1.3912766545274968
1.467453192690848 1.4171030757363547
1.4071424945612296 1.4071424945612294
1.3476372386904545 1.3955192126569835
1.288976900518122 1.382258496060232
1.2646568460182421 1.4045437201522748
1.2071486133425335 1.3886656276099005
1.1634455735326366 1.3865404420453502
1.126483499979209 1.391091271007978
1.1020340408329286 1.4105392489560322
1.0471581402845638 1.3896257874822897
1.0227463389889033 1.4076895702124086
0.9693441774332676 1.3843669548483963
0.9450360068655621 1.4010734976180206
0.920439969175396 1.4173532598277665
0.869067593342456 1.3907988776965385
0.8189105391069863 1.3628960081163586
0.8199999999999997 1.4202816622064793
0.770847296191676 1.3906453343516394
0.7229862066902716 1.3597392930027477
0.6991453695989022 1.3721500472500865
0.675091566055179 1.3841428313007174
0.6508321230806772 1.395713992036441
0.6060375981829426 1.3611827318874752
0.5821893814490179 1.3715522316441362
0.5881323516629822 1.455678651669856
0.5339682448224973 1.3910348354808306
0.5198706178550166 1.4283327835945807
0.4850965501411632 1.4088226776429822
0.4604353216186717 1.4170742092797788
0.42978640594242273 1.4057679912656622
0.40518691305098875 1.4130546930293288
0.3804639963007058 1.4199109646449302
0.3556251865315115 1.4263347176257148
0.3306780498854818 1.4323239952342959
0.3056301855021061 1.4378769730786944
0.28048922320352104 1.442991959668066
0.2465804122870409 1.3984270092773354
0.22995866360913944 1.4519018606748526
0.19762580336329263 1.4061806576130298
0.17914793480556682 1.4590428429127433
0.14843041784006822 1.412221091422948
0.12376115470167455 1.4145964712902785
0.09905419271665813 1.4165409513689502
0.07431705786498011 1.4180539393514948
0.04955728531755153 1.419134974367116
0.023909796819078226 1.369791342364256
