# .PCD v0.7 - Point Cloud Data file format
VERSION 0.7
FIELDS x y
SIZE 4 4
TYPE F F
COUNT 1 1
WIDTH 178
HEIGHT 1
VIEWPOINT 0 0 0 1 0 0 0
POINTS 178
DATA ascii
9.919639073093561e-17 -1.62
0.02827289842839943 -1.619753266153354
0.056537184658051756 -1.6190131397709353
0.08216745130142203 -1.567848369564681
0.11300548746548325 -1.6160537614209154
0.13683451611382327 -1.5640256760040405
0.16410968733021594 -1.5613993757281892
0.1852414019758242 -1.5086701504948095
0.2185017685073028 -1.5547208679242654
0.24560211011316258 -1.5506706947343663
0.27262763893708075 -1.5461481722291666
0.2900296729723483 -1.4920733188404494
0.32642135458388233 -1.5356917331520747
0.341925602602675 -1.4810424984735575
0.37981737609147825 -1.5233642902533144
0.40634590081095756 -1.5165035472738373
0.41896878084183875 -1.4611177778262447
0.4444049911785599 -1.453583229063814
0.4697058314499201 -1.4456059047686334
0.4948635947748783 -1.4371882349109615
0.5369716250213 -1.4753174146338761
0.5626376807861216 -1.4657212696006068
0.5881323516629822 -1.455678651669856
0.6134478717281597 -1.4451926199203315
0.6182396974752166 -1.3885890956167533
0.6423797578458632 -1.377587836295708
0.6882427004588516 -1.411106652689692
0.7127650845910886 -1.3988802429757377
0.7135967754345541 -1.3420803411455688
0.7611511037867493 -1.3731529402088514
0.7849999999999998 -1.3596598839415688
0.8086097776087853 -1.3457526621023161
0.858469208057792 -1.3738379157734102
0.882315236724344 -1.3586463200715868
0.9058925036226101 -1.3430408675391676
0.9291938268886947 -1.3270263117481669
0.9345785511450323 -1.2863370210561664
0.9568858868117568 -1.2698304609751956
0.9789017457677969 -1.252937098234688
1.0194990335007366 -1.2589764575602929
1.0541716798859244 -1.2563128867151239
1.0759368075444318 -1.237723711565346
1.1174481126192932 -1.2410518585472483
1.1525772285056226 -1.2359877557363979
1.1739726460757054 -1.2156842625723203
1.1950104602052654 -1.1950104602052651
1.2156842625723205 -1.1739726460757054
1.3091231258983154 -1.2207770645118723
1.330229237604536 -1.197743785382356
1.350930148598762 -1.1743456618930082
1.3712195531829707 -1.1505898213389052
1.391091271007978 -1.126483499979209
1.4499397866363686 -1.1328171145992112
1.5094211139893834 -1.137430393757371
1.5290421193686505 -1.1109141268327742
1.5481973637061943 -1.084059464703477
1.6083328907567809 -1.0848342327332487
1.6270209018141226 -1.0565997279291524
1.687615711351288 -1.0545393358240778
1.748621293432309 -1.0506776728165104
1.7666918237202547 -1.02
1.827955187921337 -1.0132521063148443
1.8895078487181038 -1.0046691443618063
1.9513042879725258 -0.9942391944296075
1.9683589613951757 -0.9600328114680795
2.030129442962096 -0.9466649062991667
2.0920190980015563 -0.9314269126435823
2.1539813570787105 -0.9143108406649003
2.215969412414622 -0.8953097582640295
2.277936240653172 -0.8744177968905328
2.339834625756912 -0.8516301568809153
2.4488931108022305 -0.8432215200440358
2.4632363772044474 -0.8003540154311137
2.5724597935405655 -0.7864798857041617
2.65308228078976 -0.7607591020549175
2.714251571872282 -0.7272815167380832
2.7750457771493497 -0.6918966214150494
2.8841353917642962 -0.66585512085784
2.9931316582454452 -0.6362097739023438
3.1019418996946184 -0.6029564253898818
3.210473274819798 -0.566093059194193
3.36801724142942 -0.5334415257871873
3.4758409212829116 -0.48849758436982954
3.583091607425173 -0.43994832969258224
3.7394023265847074 -0.3930270218863767
3.9449310044433124 -0.34513674128072597
4.099988246567878 -0.2866991070883545
4.2541618180544845 -0.22295117359494102
4.457283088505167 -0.15565175529315453
4.709282644186603 -0.08220083431960545
4.96 0.0
5.3091912612804375 0.09267227818197557
6.705912449298133 0.23417562287378182
7.10025599210502 0.3721086488873312
7.591462422477263 0.5308467651927943
8.128948736428644 0.7111908608208917
9.507629319720694 0.9992921088387685
9.538368517273105 1.1711643901234667
9.813556561228962 1.3792054305142483
9.738607038268057 1.5424438252966763
10.005646770604034 1.7642654850960124
9.72792538796635 1.8909171441815595
9.742350103308704 2.070800440544884
9.850881354978728 2.2742551594164757
18.445321756506694 4.598935235349686
18.313953666440735 4.907209095143797
42.04620858540874 13.661641321316425
9.322813155409264 3.210102002947565
9.077430716791875 3.3039145845259603
9.01838691996297 3.461834392607601
17.672124268042964 7.140001670507285
17.54482250680351 7.44733530900556
8.916203666591784 3.969749636419811
8.664302444070374 4.040230582241087
8.592471082620037 4.190828163303582
8.339821066403124 4.2493510775621575
8.131947330230718 4.323833093258056
8.273902429538685 4.586299007530349
8.19260031980079 4.729999999999999
7.551643919185609 4.537485439957578
6.962474869444259 4.350637159354613
6.4242165504619475 4.171935008215108
5.935909019494099 4.003821188850547
5.578425421608033 3.9060555315506247
5.185798933943413 3.7677034671947527
4.879662966388959 3.6770897914590166
4.578342478455054 3.5769931716420746
4.320931545700758 3.499021374237095
4.067695992961773 3.413202207435524
3.8188304759272262 3.319658686691966
3.6488410930940054 3.2854312772219947
3.4446759346262934 3.212212275894368
3.2442224995273157 3.1329092507700778
3.0829855659733476 3.082985565973347
2.924511739632378 3.028420559425722
2.803013259856869 3.005863713654791
2.649757201181079 2.942853508890481
2.499584900453833 2.8754435006487613
2.416881412421388 2.880327106127357
2.271846611689913 2.8054969208596647
2.1609717783930606 2.7659177451595935
2.0822799801060867 2.7632788647636337
1.9749584477027096 2.7182971010998234
1.8698591825044095 2.6704356643821137
1.7670495749675599 2.619758729273932
1.6938273988967345 2.6082654663102685
1.5950569853419467 2.552624769430842
1.5502646054792633 2.5800735751133574
1.4549999999999998 2.5201339250127166
1.3768593214995974 2.4839199682758837
1.3332992383119293 2.5075711637193527
1.2666334942733357 2.4859082024855463
1.2011369422020717 2.462695686859718
1.1368431240824814 2.4379679471285884
1.073784737720113 2.4117600081764663
1.0315301792116827 2.430132813114443
0.951500747276417 2.35504699059964
0.9102545918450624 2.3712942833028925
0.8687311640471989 2.386819256796207
0.8106647045983199 2.3543412532422994
0.7385506165561244 2.273025073945417
0.6841497890512035 2.237753128953503
0.6587732804026281 2.297415453292582
0.605636565539899 2.2602664335164193
0.5660972357032223 2.2704919994858317
0.5151379144474512 2.231307448358189
0.47611777197266864 2.239958005680415
0.42741214964346064 2.1988448909227674
0.3802895090905772 2.156728979096736
0.3425914784381057 2.1630374659033516
0.2978304360545396 2.1191736671069608
0.2608003948870156 2.124048764512429
0.22891733455616156 2.1780029508565186
0.18651328947998844 2.1318566539163357
0.14927885381242847 2.134787067556024
0.11199894635989963 2.1370672043747883
0.07293994810822725 2.08872682846991
0.036475529453922254 2.0896816828768574
