# .PCD v0.7 - Point Cloud Data file format
VERSION 0.7
FIELDS x y
SIZE 4 4
TYPE F F
COUNT 1 1
WIDTH 179
HEIGHT 1
VIEWPOINT 0 0 0 1 0 0 0
POINTS 179
DATA ascii
1.2613862031217737e-16 -2.06
0.03595195726080421 -2.059686252022166
0.07189296320715223 -2.058745103659337
0.10781206986046457 -2.0571768415944223
0.14369833591289843 -2.054981943535238
0.18389861719755865 -2.101970812973583
0.2184644882293957 -2.078550761319691
0.2571443145848612 -2.094272379963189
0.30061389807374145 -2.138979028481792
0.3378984444868988 -2.1334068156854977
0.3837624726439162 -2.17642513415698
0.43122832955099144 -2.2184774345917204
0.46988042124813634 -2.2106135776584006
0.5083893828171352 -2.2020763464146316
0.5419050461432556 -2.173462426858232
0.5978719941868229 -2.231288658727748
0.636722291937268 -2.2205145176175165
0.6753786379095219 -2.2090639862746118
0.729280106724876 -2.2444933784565624
0.76834084451889 -2.231423838414387
0.8242685454148619 -2.264659216094039
0.863666758404174 -2.2499288278582563
0.9028018901323485 -2.2345130895059575
0.9221254632346859 -2.172391454147759
0.9802353098126789 -2.201644552918668
1.0819027500561906 -2.320147934813824
1.1441486931194922 -2.3458524608408258
1.2076147293071948 -2.370077354341059
1.272267935149764 -2.392787976647692
1.3283783594749639 -2.3964579975619444
1.3799999999999997 -2.3902301144450506
1.4215050867517496 -2.3657817499378297
1.4890731324953057 -2.383015150199557
1.5576676401429774 -2.3985978243239123
1.6552109942734108 -2.453951214762923
1.7264650734166485 -2.465647653309865
1.8280121346295914 -2.5160428525060863
1.9017354731604725 -2.5236882117494455
1.9762733357953635 -2.529514519077577
2.05158447482247 -2.533495834349725
2.1276269880624454 -2.535607106723817
2.204358337408104 -2.535824189548514
2.3151918980016495 -2.5712810961517842
2.427914161822495 -2.6036191777642466
2.50771671735698 -2.5968166792225302
2.6587214972614186 -2.658721497261418
2.7766516293071937 -2.681381309971729
2.969296028573832 -2.7689133418537435
4.726401090036228 -4.255670656442338
4.498069098127721 -3.9101118127834233
4.489020436677212 -3.7667353927631204
3.893501266899424 -3.152895159159685
3.908533337889341 -3.0536809176152646
3.921300354332208 -2.954911763676557
3.9722734423809922 -2.886025588756043
3.9810789352445 -2.787581480666084
3.9876707239897504 -2.6897178656942917
3.9920719034202183 -2.592481806671528
4.291123366551515 -2.6813914770200165
4.594416731763323 -2.76060408151789
4.901703785419922 -2.83
5.300195425264738 -2.937946298692802
5.747988829511614 -3.056259873736149
6.245955734560459 -3.182473403174223
6.705003585391786 -3.2702487550465174
7.35015615286723 -3.4274341027170716
8.779171847945396 -3.9087391399584392
8.800026399005331 -3.7353895883574566
8.863877649658487 -3.581239033056118
10.558794623683353 -4.053141509357347
13.766750460726053 -4.740272328896202
14.037594180516466 -4.561090836974223
14.641025813794075 -4.4762107993050995
3.1817762135558354 -0.912359647754267
3.177895968491035 -0.851514658387293
3.1922729394480283 -0.7959230365229065
3.205677513143424 -0.7400889687913154
3.21810560641422 -0.6840294627904284
3.2295534335428147 -0.6277615947888326
3.2400175074101645 -0.5713025045242008
3.2494946405580034 -0.5146693899823596
3.3074953495968447 -0.4648381572066185
3.2654768388999496 -0.4009501398029351
3.321703130530033 -0.3491250673139623
3.32729029162643 -0.2911001807771779
3.3817421303808044 -0.23647444599258435
3.3354226460802763 -0.17480209385143264
3.3379653622437795 -0.11656431898635339
3.3894836865801667 -0.05916365782239119
3.26 0.0
2.959549177662918 0.05165912305435927
2.7083491412217495 0.09457763606377775
2.50656013223398 0.1313632501697892
2.4839344851469622 0.17369361962287225
2.450638957305694 0.2144031271592394
2.3271812351617593 0.24459660404630942
2.292781610291454 0.28151818326589056
2.2875192387930277 0.3214898632177511
2.330944483804525 0.3691853374949448
2.3241462971088107 0.4098096992939556
2.36572151210887 0.45984967885747313
2.308428337731781 0.49067159032991214
2.348231856132417 0.5421320409687149
2.3384127003251516 0.5830317683951995
2.424473823985561 0.6496358032073274
2.41276685680518 0.6918497631006677
2.3525096996690675 0.7192343936179323
2.3871518559008353 0.7756326558811178
3.649701701813363 1.256693076204625
3.533244254155015 1.2859957389045145
3.5102624036294783 1.347463490290329
4.876987075021301 1.9704306813676977
4.841855529159836 2.0552457358535805
4.805249107200081 2.1394347425787097
4.857809738516444 2.265233882930149
4.907415492793452 2.3935064614683634
4.953996274487325 2.52418717855188
4.95333599593858 2.6337354672288487
4.99407852776595 2.7682629316065848
4.988306325798367 2.879999999999999
5.023000382114378 3.0181231189729183
5.054366653092299 3.1583188148299013
3.824337789831133 2.4835539996685236
3.8633150881064946 2.60583893017368
3.776290924172252 2.6441873715783233
3.648666644631013 2.650911487839054
2.0844386812234337 1.5707372104268464
2.056708066913544 1.606876450599968
2.067208257475543 1.6739922401925673
2.114282663008379 1.7740938027348485
2.082998441414851 1.8107229200137995
2.0510797183176077 1.8468004735504489
2.164806956792745 2.0187151457849954
2.165212799019339 2.090921695081582
2.1637467504308354 2.1637467504308354
2.1603875321274812 2.2371467790532056
2.2233146538037447 2.3842130672784956
2.248278837365764 2.496966613604044
2.2371612888576298 2.5735596685596525
2.2883238904840804 2.7271182175035618
2.271846611689913 2.8054969208596647
2.8689824750175683 3.672130111807324
2.774367256730942 3.6817097013180207
2.797857800912172 3.8509208932247496
2.930975589753845 4.185866946316749
2.857475736735516 4.236381995756264
2.7558735171760373 4.243673073803845
2.813871293078318 4.5031353905906215
2.760604081517891 4.594416731763322
2.6549999999999994 4.59859489409537
2.550098602495733 4.600499659553221
2.4459468421144903 4.60015695879501
2.342590978656062 4.597593664811979
2.2619951174316384 4.637777278903702
2.180710230582009 4.676548181109114
2.0580874139635497 4.622540015671559
1.9966360665801888 4.7037798011419705
1.9142396923553113 4.737909496836283
1.8133418246992186 4.723916958075841
1.730621925227884 4.754844661176696
1.647374861553212 4.784323992532543
1.5481751418184866 4.764793146638719
1.4647822406609101 4.791086827374808
1.3671612848523158 4.767858011854062
1.322565320473882 4.935880972337139
1.683776393373687 6.753258254880936
1.5656593382333013 6.781615650905238
1.4470653680916044 6.807907301107288
1.3184901580519255 6.783043837623358
1.2085913165618343 6.854261960964968
4.694598295857331 29.640527101260087
3.4250500146272054 24.370497171730047
2.432512094366744 19.811221186760786
1.8041612759997028 17.165447914056397
1.5043081198245796 17.19432048906353
1.2074845605108115 17.267833709997557
0.9085522003775034 17.3362087233394
0.5220964706694162 14.950886772205674
0.2506165564393893 14.357812902445778
