# .PCD v0.7 - Point Cloud Data file format
VERSION 0.7
FIELDS x y
SIZE 4 4
TYPE F F
COUNT 1 1
WIDTH 180
HEIGHT 1
VIEWPOINT 0 0 0 1 0 0 0
POINTS 180
DATA ascii
1.2062770971601428e-16 -1.97
0.03350862035958451 -1.9197075747002712
0.06875200850392713 -1.9687999292276186
0.10310183379859961 -1.9673001834665105
0.13742025327592713 -1.9652011790118535
0.17169681321288652 -1.9625035552407386
0.21114749580065997 -2.0089342286439122
0.24008260650814056 -1.9553159187334044
0.28112966393933225 -2.000341498857972
0.31599761938126647 -1.9951304480021783
0.3507693188871994 -1.9893116610846602
0.38543417066062075 -1.9828869105642812
0.4241398492682293 -1.9954211054969635
0.44765259814429165 -1.938996428922618
0.4935206670233221 -1.979403281603033
0.5279908520091423 -1.9704886856296995
0.5623002058666783 -1.9609738597141706
0.6110568628705199 -1.998676939962744
0.6458455182436401 -1.9877081190568708
0.6804374428154576 -1.9761338230025718
0.7148220995506478 -1.9639575774425482
0.7669074120269429 -1.997862112704012
0.8016581099100522 -1.984173448772925
0.8557011713915094 -2.0159056290608444
0.8907532483360028 -2.0006645522372954
0.9255339932121317 -1.9848140536102634
0.9600328114680796 -1.9683589613951755
1.016938719416585 -1.9958546141819442
1.07508987877969 -2.0219499876469427
1.1344545113764288 -2.0466101147061857
1.1699999999999997 -2.0264994448555864
1.0609784343147117 -1.7657646394463513
1.0916336843204022 -1.7469790780822376
1.0947244603802044 -1.6857278415703019
1.123977735976201 -1.6663655208356334
1.1242098152480502 -1.605538006806424
1.1520590944932474 -1.585673308974897
1.1795574453780147 -1.565325599692694
1.2374795654045732 -1.5839016147495109
1.264933986010173 -1.5620633825285113
1.324142475954271 -1.5780515528250947
1.3842845511699702 -1.592437214270049
1.5323090885617854 -1.701801650343233
1.5617762445431218 -1.6747999767079
1.556034749828154 -1.6113211527585787
1.513208511739212 -1.5132085117392116
1.5393871727247137 -1.4865689127822541
1.6016646065459834 -1.4935764085368717
1.6274871677954936 -1.4653960279258993
1.6905494596990094 -1.4695722249387364
1.7542417747424597 -1.4719836261821748
1.8729217671112999 -1.516662142430108
1.8597053785118638 -1.4529610817685532
1.9886024200177592 -1.4985194076486004
1.9901818061623706 -1.4459517206394839
2.097029233379819 -1.4683556770586779
2.1637880643686587 -1.459493478058649
2.272797239132099 -1.475971784890723
2.3406127453917356 -1.4625771692836453
2.494356845043147 -1.4987607979882573
2.60673646539116 -1.505
2.7200672892035205 -1.5077579189661081
2.878409152720102 -1.530477294682004
2.993781921272916 -1.5254080791248772
2.211033353895951 -1.0783930211011303
2.138886377406494 -0.9973790977080504
2.2016445529186686 -0.9802353098126785
2.4485429101834915 -1.039344801781468
9.37382876967022 -3.787272659434869
9.531856154536431 -3.6589367648575166
9.688230920302715 -3.526227677687645
9.842848371988888 -3.3891644878990013
2.3871518559008353 -0.7756326558811178
2.400324937467219 -0.7338529788540691
2.4608299416020962 -0.7056316308915177
10.345065599555923 -2.771951973047997
10.440382014729721 -2.6030795966524236
10.386784890610608 -2.3979782393055995
10.378146043785677 -2.205943039576427
10.415064416379714 -2.024483440945141
11.335137237170514 -1.9986905249463685
12.701672060053472 -2.011747220417369
12.982414381201988 -1.8245593535864575
30.87811077756153 -3.7913552733341365
20.14901360016122 -2.117746665802658
20.23271431824335 -1.7701331352049352
20.360282265803015 -1.423729629117595
30.81770744252615 -1.6150876096572488
30.79123138045834 -1.0752534934040563
19.756990456290293 -0.3448595512007227
19.71 0.0
12.05816320358608 0.21047602163363946
10.553567133321652 0.36853868517841076
10.595459363746027 0.5552844957376348
10.584154573256734 0.7401161864251704
10.669245216562596 0.9334380048274203
10.601603404625793 1.1142734184331875
10.431660053750296 1.2808467991880994
10.407717402473905 1.4627092910902875
10.232451208565626 1.6206610578167917
10.153367933555865 1.790312711746052
10.022413543000651 1.9481598427945233
3.5800202186857284 0.7609567883929994
3.1764464111998665 0.7333404371610002
3.0176197087183487 0.752377095314967
2.8591404458156418 0.7661043735034618
2.701145365586676 0.7745409698457675
2.5437706508616746 0.7777087345624797
2.4347046817155933 0.7910835055998654
2.325975695974319 0.8008976599646055
1.4189358573867217 0.5164504164217598
1.036274273411894 0.3977884239952834
1.029174078569134 0.4158133186916625
1.00335029026316 0.4258969300533086
0.995764548830435 0.4433429409526224
0.9878754878699485 0.4606539052973624
0.979685510466092 0.4778245500000946
0.9890172418490885 0.503929454710897
1.3597392930027474 0.7229862066902721
1.3644067431374574 0.7563030075842858
1.610807251039056 0.9299999999999997
1.7057629283972033 1.024925769071008
1.560408496927824 0.9750514461890971
1.4760601995839462 0.9585647016264479
1.5005580063246255 1.0121391552820518
1.179578943776148 0.8259500683455065
1.1245336221811768 0.8170215006865376
1.0462125181619535 0.7883776803291835
1.1347354851936795 0.886552524468948
1.1190901844980383 0.9062213631117656
1.1414062202472772 0.9577535384329436
1.0867817955207917 0.9447250017463302
1.0701285486874474 0.963548073156756
1.0531493303316055 0.9820776384899977
1.0358493124876573 1.000308053460956
1.053589103967956 1.0535891039679557
1.0003080534609559 1.0358493124876578
1.0298175236943727 1.1043440894449474
1.010387215601876 1.1221486864708652
0.813513195948229 0.9358398794762373
0.7970566360113089 0.9498951094675328
0.7803572849017983 0.9636609922066439
0.7634202294038164 0.9771333344723352
0.7462506287085398 0.9903080324586432
0.7582429754572904 1.0436319227436823
0.7399136028928492 1.0567061371327995
0.7213588454772634 1.0694584685960038
0.8115121621723905 1.2496191462386816
0.9485554829774367 1.5180060921200025
0.8961662503434944 1.4914711032216752
0.8699999999999998 1.5068842025849234
0.8435687392286266 1.5218382904225485
0.7934069411081551 1.4921814319315865
0.7672439445598341 1.5058010258783416
0.7408472380735405 1.5189619382455923
0.7142248623417821 1.5316601600919384
0.6467112624905226 1.4525372776517353
0.6407990507224088 1.5096279596620021
0.5956244835313004 1.474222328761192
0.5698050397770272 1.4843928781305509
0.5540726321875835 1.5223020456731715
0.5274204102205936 1.5317400924708935
0.5006075308874149 1.5407115563981488
0.4736421616508332 1.5492137046601178
0.4465325164235387 1.5572439474200768
0.419286853066084 1.5647998385882906
0.39191347087146167 1.5718790765671145
0.3531731553198683 1.5297610017128194
0.326421354583882 1.535691733152075
0.2995701227411755 1.5411546780128325
0.28131004782042696 1.5953885598797772
0.24560211011316258 1.5506706947343663
0.21154311345929916 1.505207464487187
0.1852414019758242 1.5086701504948095
0.1588832641668336 1.5116732809597755
0.13683451611382327 1.5640256760040405
0.10602984009107069 1.516297356394933
0.0795506534892745 1.5179168928269522
0.0547922098229267 1.5690435984199804
0.02652765778467073 1.5197684966377147
