# .PCD v0.7 - Point Cloud Data file format
VERSION 0.7
FIELDS x y
SIZE 4 4
TYPE F F
COUNT 1 1
WIDTH 180
HEIGHT 1
VIEWPOINT 0 0 0 1 0 0 0
POINTS 180
DATA ascii
5.3272135762909864e-17 -0.87
0.014660021407318221 -0.8398720639313686
0.032107536966301 -0.9194395608575682
0.048149079743508454 -0.918739171974208
0.06068813215738914 -0.8678807237260471
0.07321082390803284 -0.8368035463970662
0.0878039091448289 -0.8353983921093495
0.10602632876247832 -0.8635151519279501
0.12386405985445827 -0.8813385811799976
0.13140495063379398 -0.8296582060999157
0.14586446924022153 -0.8272385125302547
0.1602795561162977 -0.8245668340960377
0.17464582028691794 -0.8216439846163966
0.18895888564884672 -0.8184708544195975
0.21531048708370423 -0.8635631963856368
0.23034895014124346 -0.8596739853972708
0.23153537888627929 -0.8074598245881879
0.26021081720323574 -0.8511112328071015
0.27502512499370324 -0.8464402995026866
0.28975565746686954 -0.8415115322833919
0.30439792755984524 -0.8363264324994584
0.31894747509531735 -0.8308865795825096
0.33339986814016187 -0.8251936305644407
0.34775070435545363 -0.819249319572672
0.3823324444912523 -0.8587327301840446
0.39726116603625744 -0.8519293198144509
0.4120688779817328 -0.8448664035212169
0.426751069755174 -0.8375461327370658
0.4413032690187374 -0.8299707372873912
0.45572104303155686 -0.822142524711032
0.4949999999999999 -0.8573651497465943
0.5098876941609537 -0.8485956276950911
0.5246200715908729 -0.8395676151948617
0.5391926446648768 -0.8302838622659697
0.5536009744360394 -0.8207471968294912
0.596519493805088 -0.8519181260605515
0.6112966623841721 -0.8413776741499454
0.6258876240781303 -0.8305809304491846
0.6710710081049677 -0.8589317214313269
0.6859592262443228 -0.8470890979880984
0.7006384945583279 -0.8349884429996861
0.7479072930491782 -0.86036892145396
0.7628088912490983 -0.8471851010442294
0.7774781304712484 -0.8337432198458541
0.8266434608462067 -0.8560143624029948
0.8414570696119916 -0.8414570696119914
0.8560143624029949 -0.8266434608462067
0.8849379789591963 -0.8252180156756231
0.921499583591969 -0.8297219518849841
0.9131985920695541 -0.7938314250785138
0.9881973316234817 -0.8291960164956357
1.041375588352341 -0.8432893240067821
1.0953349475133436 -0.8557694507026649
1.110103358965737 -0.8365228821813471
1.1245336221811768 -0.8170215006865376
1.1795789437761481 -0.8259500683455063
1.235265983107012 -0.8331974261714127
1.2915526746359531 -0.8387441139231415
1.3483964728887174 -0.8425716301307958
1.4486127381865699 -0.8704143465979913
1.4635829323957013 -0.845
1.5218382904225485 -0.8435687392286265
1.5804761912174794 -0.8403540973867446
1.6127218087809458 -0.8217228045285797
1.6717569261164509 -0.815370333027684
1.7763632625918337 -0.8283317930117707
1.881903642743758 -0.8378774847361483
1.942265240784649 -0.8244426811123674
2.0954355113209395 -0.8466109011199608
2.1565707852085363 -0.8278299634496438
2.264659216094039 -0.8242685454148618
2.420527553534251 -0.8334544754103211
2.5298103333451087 -0.8219852050373602
2.68721636425613 -0.8215644902708902
2.845334619977424 -0.8158865732183174
3.052325611073456 -0.8178681825239654
3.260193640287348 -0.8128575692148832
3.517475933874699 -0.8120733061813521
3.82455711886918 -0.8129347110974393
4.083569083142282 -0.7937654207664266
4.589204129036889 -0.8092005079278956
4.997703003411397 -0.7915583931035681
5.505890462203131 -0.7738024413379636
6.163711601692611 -0.7568086225459656
6.22570706500539 -0.6543481800555102
7.082944303432311 -0.6196773309358489
10.733789180795709 -0.7505796574867869
12.193266619353347 -0.6390220257263451
13.45180053167703 -0.46974722561566373
24.70623654731443 -0.4312489630652762
31.76 0.0
30.805307487768413 0.5377086423327058
6.186229219248204 0.21602788458848132
6.30135236430136 0.33023988389297604
6.494141967191456 0.45411464407425634
8.776475290188278 0.7678420936068696
7.7174899080578 0.8111408749569919
7.851040059482858 0.9639865063347163
7.8825338271829 1.1078178836421206
6.1829290121255625 0.9792797511518452
5.770973432651539 1.017578321128212
5.261521703279479 1.0227362152182806
4.753797339566296 1.0104508173743108
4.345690488942149 1.0032817023736382
4.036430221308145 1.0063950856946182
3.6801773981613497 0.9861005618406047
3.595118742809313 1.0308837107555768
3.547890644622862 1.0846990245213532
3.3382083721959885 1.0846496502560652
3.129666485233739 1.0776305912531887
2.6687270430319794 0.9713372070448992
2.4833239344825566 0.953258745790499
2.419949860419315 0.9777232088155307
2.402517667510869 1.0198082453570048
2.384353644447188 1.0615826384278388
2.229517156110159 1.0396409238821205
2.121153949266034 1.034555906422223
2.05822507087513 1.0487180543983532
1.9513141802182283 1.037532153756819
1.889178567421095 1.047188779732088
1.7840123317959438 1.0299999999999996
1.7657646394463513 1.0609784343147117
1.5773694588509526 0.9856498314737612
1.434126671186675 0.9313327498756965
1.4425253762457726 0.9729956520390994
1.384366954848396 0.9693441774332682
1.3267878707749137 0.9639678137596559
1.2698304609751956 0.9568858868117571
1.2135365605543518 0.9481186720015138
1.1579474825708869 0.9376873826642576
1.1031039980913282 0.9256141579486167
1.0867817955207917 0.9447250017463302
1.0329713074135778 0.930091542838813
1.016581645250647 0.9479777204868728
0.9998823224707247 0.9655751349380063
0.9475230867899738 0.9475230867899737
0.8961092978921064 0.9279483424368602
0.8456779664774982 0.9068785900077714
0.8631784822029273 0.9586568248658385
0.813513195948229 0.9358398794762373
0.7970566360113089 0.9498951094675328
0.7488912653493065 0.9248036941337954
0.7326371556375335 0.9377327967919991
0.6860691263933348 0.9104444814539139
0.699464450228043 0.9627302233061874
0.6538771374401923 0.9338333304894507
0.6374799099566513 0.9451028327127475
0.5936565481663797 0.9141509190605122
0.5776119980141934 0.9243724248105044
0.5613915016519592 0.9343123577653024
0.5449999999999999 0.9439676901250382
0.5042020050561906 0.9096044954249716
0.48825042529732626 0.918265496573284
0.47215011972912874 0.9266467851559026
0.45590599266064036 0.9347458081511337
0.41839207912329246 0.8972447091662834
0.4230061087988324 0.9500872759483048
0.4063603736288447 0.957325047590538
0.3708605274817531 0.9179120160211194
0.35478427004984714 0.9242446222322297
0.33859994189241216 0.9302956945780492
0.32231247291258497 0.9360633898433237
0.30592682443119795 0.941545951132202
0.2748294024393723 0.8989264706052533
0.2590991144679792 0.9035859941820197
0.2432899023963697 0.907970276711724
0.2274065818636876 0.9120779826994366
0.21145399108323323 0.915907860898121
0.19543698936869366 0.9194587446897773
0.1793604556539522 0.9227295524408041
0.1632292870069144 0.9257192878314756
0.14704839713781706 0.9284270401594295
0.12803925288326004 0.9110466232422447
0.11455718280083864 0.9329933825428426
0.09616618620624139 0.9149601437388115
0.0801832833278455 0.916499122244406
0.06417595584459543 0.9177589262390383
0.048149079743508245 0.918739171974208
0.033852511801426045 0.9694091022085228
0.016056213922300708 0.91985987954388
