# .PCD v0.7 - Point Cloud Data file format
VERSION 0.7
FIELDS x y
SIZE 4 4
TYPE F F
COUNT 1 1
WIDTH 180
HEIGHT 1
VIEWPOINT 0 0 0 1 0 0 0
POINTS 180
DATA ascii
3.91886975727153e-17 -0.64
0.010820491991115832 -0.6199055709969625
0.02163768795555067 -0.6196223127518393
0.032448292870625256 -0.6191503115478357
0.04324901372135778 -0.618489711161091
0.05839434764093095 -0.6674504477214696
0.06167179332791554 -0.5867679182672813
0.07190291260903701 -0.5856022294683799
0.0890707846144419 -0.633771563994605
0.09229633437373624 -0.5827361209511313
0.10245242482348894 -0.5810365742772027
0.12211775704098875 -0.628241397406505
0.13306348212336605 -0.6260144644696356
0.17771133293165348 -0.7697523511803359
0.17902220274375408 -0.7180188374442373
0.20446704563099138 -0.763081402768364
0.21775351109542934 -0.759396739791272
0.23097364673096205 -0.755480757210798
0.2441234255562085 -0.7513346478731713
0.25719884202115384 -0.7469596747234603
0.2701959132272784 -0.7423571704208676
0.28311068014078733 -0.7375285369327894
0.31466953846936624 -0.7788344378361013
0.3282141479309899 -0.7732240769000499
0.3416587801836723 -0.7673781844197846
0.3549993398621875 -0.7612985411107859
0.39015032064227895 -0.7999267012062585
0.4040515447681967 -0.7929958065276475
0.4178296908794429 -0.7858233576444449
0.43148056201924 -0.7784115393540623
0.4449999999999999 -0.7707626093681504
0.4583838866699483 -0.7628788976248799
0.47162814516755236 -0.7547628055792192
0.5119606929141254 -0.7883503338686985
0.5256413292625021 -0.779295318201739
0.5678406719875356 -0.8109605238461018
0.5819073997695484 -0.800926824431198
0.5957968729205277 -0.7906491549468199
0.6095048605724018 -0.7801306460706546
0.6544932066918309 -0.8082317999152497
0.7006384945583279 -0.8349884429996861
0.715104341599653 -0.8226334424428215
0.7293523609311555 -0.8100278597703597
0.7774781304712484 -0.8337432198458541
0.7919105423232567 -0.8200473723860622
0.8061017305526642 -0.806101730552664
0.8560143624029949 -0.8266434608462067
0.9068785900077715 -0.8456779664774982
0.9437939283562908 -0.8497958700757499
1.0113108374985145 -0.8791190988472798
1.0264995537794306 -0.8613353969799626
3.3883563919523936 -2.7438369049772913
3.3963263480449717 -2.6535009586535865
3.442119048303832 -2.593822749785328
3.446412396037276 -2.5039651747659355
3.5305453108855542 -2.4721144406730082
3.5731519377122294 -2.4101214139589184
3.614670147844777 -2.347394240914766
3.612684889626375 -2.257456065633453
3.608674335955893 -2.1683102953713274
3.602665679743265 -2.08
3.6384179816998863 -2.016808020224762
3.673061986293136 -1.9530017011893057
3.6174864882047735 -1.8432014289425598
3.649103827974618 -1.779786855963654
3.6796096153687983 -1.7158301426672393
3.57196273938257 -1.5903402744263786
3.55314873432642 -1.5082221559685962
3.5789296786277993 -1.4459814505854198
3.5569414249543385 -1.3653818877675943
3.5802288851943107 -1.303096746070798
3.6118809587893903 -1.2436703500263386
3.604504196758632 -1.1711744086810507
4.073858260402531 -1.2455034621188583
4.527542587869482 -1.2982519458980657
4.984177263651593 -1.3355062727290068
5.42395310988282 -1.3523433964021419
5.514934566684432 -1.2732229675862752
6.221018740667004 -1.3223183536009497
17.188291982168597 -3.341065509043301
17.342464530544984 -3.0579444087146435
17.442576094910134 -2.762632652610477
25.95492608171656 -3.6477269761633146
24.52581540705707 -3.0113914755411932
23.58011413918176 -2.478369864076062
6.5350372194818505 -0.5717416724246369
6.444263764678465 -0.45062682038704865
8.548268817499153 -0.44799578543959984
7.005729697403861 -0.24464547188453212
8.50870388578089 -0.1485199787812829
8.56 0.0
8.658681040054349 0.15113783974687542
4.657161253908987 0.16263165463365475
4.354024771529942 0.22818476921923544
4.000231841541895 0.27972345971394286
3.695882329920376 0.32334780559381227
3.3913196632058122 0.3564420597426988
3.136445839186578 0.3851071251602659
2.8321666766008913 0.39803506874578704
2.6272509859830664 0.41611567700701413
2.570348235361863 0.45322174371068824
2.4638842304536364 0.47893057839512754
2.308428337731781 0.49067159032991214
2.1533578431753697 0.49714183009994184
2.0958387687561526 0.5225512944952826
2.038103493469934 0.5461081851663191
1.884072924039105 0.5402492174013183
1.8265420838893978 0.5584299560204271
1.6738594686794703 0.5438699100999074
1.6452023215428113 0.5664885887554526
1.6538590125831987 0.601955452253177
1.596422529310215 0.6128091937224636
1.4927660058525276 0.6031166153996186
1.482012814058429 0.6290771168677309
1.3794536410403273 0.6141723310444585
1.413840147777174 0.659284488315491
1.3122393075967838 0.6400218743120533
1.2563191991055986 0.6401266046327609
1.2449561059310867 0.6619549035281063
1.2332137870665478 0.6835815645473352
1.0911920087683928 0.6299999999999998
1.105745817905725 0.66439911663397
1.0685406011570968 0.6676982729338382
1.0567249156112342 0.6862451841189343
1.0031354627916005 0.6766234131996036
0.99117397358968 0.694027487984766
0.9789105631936864 0.7112201552738925
0.9264171916548595 0.6981054268563762
0.9140924741837974 0.7141673113777636
0.8237747191443893 0.6670796145128276
0.7737048875501678 0.6492154857834047
0.7471624844205443 0.6494984387006021
0.7505762737321681 0.6758219124224469
0.8118026087972794 0.7570181796693733
0.9423351384436328 0.9100024653012866
0.9263098833543774 0.9263098833543773
0.9447353838242362 0.9783021284605659
0.927517769684998 0.994641034202072
0.9769306852839331 1.0849914451969953
0.9578461823261406 1.101875987125247
0.9706092906266746 1.1567271091096567
0.9502737904852545 1.173490401800026
0.9789017457677969 1.252937098234688
1.9318262243180746 2.56361998725181
1.8280121346295914 2.5160428525060863
1.7723511883247318 2.531179816852985
1.7390899297940225 2.5783068506461797
1.6665954471459832 2.5663319379129974
1.5950569853419467 2.552624769430842
1.5502646054792633 2.5800735751133574
1.4799999999999998 2.5634351952019387
1.4350364759291578 2.5888743331326114
1.3661622477069417 2.5693774952194777
1.3211123542420815 2.5928289853881505
1.2756600371562148 2.615490674730576
1.2086882285784004 2.592040270924819
1.155132066335273 2.594469099704986
1.1174910274793228 2.6326438808739794
1.0526445274987133 2.6053866313326726
1.0070139382222936 2.623360998457137
0.9439755955788459 2.5935516333691067
0.898568106301752 2.6096312686541143
0.9301411530685918 2.8626801140484117
1.1577919507020367 3.786966833613621
1.1604332679895664 4.046911739900323
1.3355062727290081 4.984177263651592
1.5749115403538365 6.316625178056737
1.464431363778562 6.343149121751881
1.3431095226827245 6.318833500740385
1.2326261101324802 6.341311605071909
1.1217672277283692 6.361858084458865
1.0105666441598917 6.38046668024459
0.8990582322020215 6.397131724070545
0.7811824912269955 6.362220832020874
0.6700274495456601 6.374885349310632
0.17954083006017577 2.052161078068996
0.1443959006503397 2.064957584037836
0.10676535073560524 2.0372042508993307
0.0711949732731022 2.038757287118955
0.03473028881019392 1.9896969133612186
