# .PCD v0.7 - Point Cloud Data file format
VERSION 0.7
FIELDS x y
SIZE 4 4
TYPE F F
COUNT 1 1
WIDTH 180
HEIGHT 1
VIEWPOINT 0 0 0 1 0 0 0
POINTS 180
DATA ascii
6.55186037543834e-17 -1.07
0.018674074887893452 -1.0698370338173386
0.03908743630680121 -1.1193177262613874
0.05861627099209725 -1.1184650789251227
0.07812725059342052 -1.1172717362910032
0.09325664473999422 -1.0659283269581679
0.11707187885977188 -1.1138645228124662
0.1364936646137652 -1.1116516898382807
0.15169868004647136 -1.0793921949283118
0.17833529014586325 -1.125964708278457
0.20316836787030856 -1.1522250710242834
0.21752225472926118 -1.1190549891303367
0.23701932753224575 -1.1150882648365383
0.25644420195200623 -1.110781873855168
0.2757909609836211 -1.106137127954636
0.3079946636719997 -1.1494517332839913
0.314226585631379 -1.0958383333696835
0.34792232862005673 -1.1380026595960122
0.36773022330618743 -1.1317572543912326
0.38091474071487336 -1.1062567334512006
0.4309453805903427 -1.1840127021902445
0.4443762574361725 -1.15763972885653
0.4645121758357311 -1.1497079796628162
0.4845065993266994 -1.141426018281026
0.5043534374139924 -1.1327963674768249
0.5367251924106883 -1.1510108895365454
0.5654987793579099 -1.1594443197259254
0.5992674596562019 -1.1761286119286456
0.5821447378545047 -1.0948550151450693
0.6254044101177749 -1.1282594222098206
0.6449999999999999 -1.117172770881926
0.6901510203794727 -1.1486041829408304
0.7630837404958151 -1.2211892584652533
0.784280210421639 -1.2076856178414104
0.7772781358243381 -1.1523622258515078
0.8259500683455063 -1.1795789437761481
0.9051892885304087 -1.2458861713374192
0.9869766379693591 -1.30976223647756
0.8557694507026651 -1.0953349475133434
0.8747553435592739 -1.0802328864251896
0.8934747774642896 -1.0648017759353794
0.9119220502968051 -1.049046316509653
0.9300915428388129 -1.032971307413578
0.947977720486873 -1.0165816452506466
1.000308053460956 -1.0358493124876575
1.159655121145938 -1.1596551211459378
1.179717272555388 -1.1392397275527555
1.1994200706554397 -1.1184773105024974
1.2559147550567964 -1.1308307247464702
1.3131946695876233 -1.1415427104434825
1.3329173310270217 -1.1184504408545783
1.5620633825285113 -1.264933986010173
2.371912368356233 -1.853141040730231
2.443824660744716 -1.8415539708452677
2.556493702224834 -1.8574013972442152
2.6294780621676637 -1.8411803606868578
2.78556624378494 -1.8788881556617092
2.901800165091167 -1.8844510611519933
3.019051222316877 -1.8865125806702094
3.1372323205697312 -1.885039354170798
3.299556788418711 -1.905
3.463494040272007 -1.9198460961754948
3.62891460665019 -1.9295281230500114
3.795687793042447 -1.9339995288904692
4.008621446494285 -1.9551353146792851
4.223394287590789 -1.969401099711659
4.439830924143041 -1.976740085348389
4.657754558469348 -1.9770995101557245
4.9697054604779805 -2.0078913407092878
5.284065213974162 -2.0283625944264
5.6005680198840135 -2.038440054220986
5.966222212031689 -2.0543350546246586
6.38158922434048 -2.073504032255897
6.847142052695335 -2.093381405814795
7.459390760481354 -2.138945881139913
8.123436199091065 -2.176668169312199
8.839394066374327 -2.2039084689129718
9.802162851739467 -2.2630076066992806
10.86721984415258 -2.309898884985307
12.231074705757894 -2.3774800823917492
14.092598945604697 -2.4849054224137737
16.553656588374512 -2.6218416340742694
17.686187707724446 -2.4856315831467684
23.185878102341285 -2.846867861944244
23.381209760108106 -2.457464171422531
20.332333788052527 -1.7788487094797012
20.460038670828997 -1.4307052764920074
23.977095129457318 -1.2565863093930831
24.04534329807944 -0.8396818906621745
23.656396467400217 -0.41292393630612845
15.76 0.0
15.657614906149087 0.2733046848078602
15.750399433820949 0.550016068031416
16.73703100248666 0.8771506266317399
13.876115939114154 0.9703125497807843
12.2133469986048 1.0685294060862907
10.899959973236276 1.1456319574134837
9.88575967034757 1.2138186603152685
9.021342106235705 1.2678669497461958
8.257074527375352 1.30779212773633
7.691348551025344 1.3561922675787261
7.077531992657657 1.3757328566648885
6.612277780960525 1.4054830299280534
6.196993612034096 1.430688705626982
5.831477314918739 1.4539505925540037
5.515436468110579 1.4778567475353943
5.200425775026305 1.4911980949699652
4.934532540769264 1.5086379963693215
4.669687495009204 1.5172734423809917
4.500668419852748 1.5497044152160657
4.238013719744447 1.542510846398766
4.0704106595278 1.5624842600175095
3.9034440277261746 1.57709375828099
3.737249705016907 1.5863683816664518
3.6176400122646992 1.6106771065801693
3.4530326686096364 1.6101755772320647
3.2446465071399926 1.58251983990857
3.17198322611059 1.6162061790727866
3.054998671291887 1.6243716072391827
2.8949912306314 1.6047198430153757
2.82324281633727 1.6299999999999994
2.708648670218675 1.6275203167157715
2.637429579046485 1.6480489117652672
2.5663319379129974 1.6665954471459832
2.4539512147629234 1.6552109942734106
2.367349407995186 1.6576359010545239
2.2976082640248507 1.6693101165106237
2.228193073031947 1.6790639145942152
2.159149464882418 1.6869124423923039
2.090522636319252 1.6928718519240622
1.984055107678153 1.6648199090881368
1.916962333765841 1.6663899336358883
1.8875878567125812 1.6995917401515002
1.7845030319507762 1.6640759985524962
1.7551891128263084 1.6949664239199536
1.6899852070358488 1.6899852070358485
1.2573316505307848 1.302005038612959
1.1662171957068723 1.2506148297687814
1.1442133368736478 1.270777651566344
1.089057988124242 1.2528179031698015
1.0670274320796556 1.2716337755775033
1.0132058295902382 1.2512049979457232
0.9912149752743101 1.2686973133068224
0.9689221872747976 1.2858031711761417
0.8170215006865376 1.1245336221811768
0.7972712465279538 1.1386213415616986
0.777278135824338 1.1523622258515078
0.7298163069201364 1.123818561046868
0.7100918140724947 1.1363844488496109
0.6901510203794727 1.1486041829408304
0.6699999999999999 1.160474041071148
0.6254044101177749 1.1282594222098206
0.6056183159937989 1.139002394788016
0.6083472696509928 1.193948742412413
0.5874173366973635 1.204384022040884
0.5663084707325373 1.214452434629111
0.5165555367062665 1.160202731206103
0.4649700429022357 1.095400775608404
0.4645121758357311 1.1497079796628162
0.42645785995890717 1.11096070753167
0.41726457485731594 1.146424997358808
0.39719314843773096 1.1535326622311666
0.3770007331374359 1.1602889498800872
0.3566934797617386 1.1666918022749033
0.336277574096739 1.1727392690447491
0.3157592350250756 1.1784295080726632
0.2830486178516112 1.1352459997429158
0.27444028629951545 1.188731479037987
0.2536522627976663 1.193340072895243
0.22324652459055755 1.1485038046337668
0.20316836787030834 1.1522250710242834
0.18302832409707018 1.1555953584963112
0.16283252812327634 1.1586136404276373
0.14258713178402255 1.1612789974203466
0.1222983020231548 1.1635906175808797
0.10197221901476002 1.1655477967673422
0.08161507428062678 1.1671499388039943
0.06123306880424418 1.1683965556628513
0.04083241114192626 1.169287267612342
0.02041931553162155 1.1698218033329777
