# .PCD v0.7 - Point Cloud Data file format
VERSION 0.7
FIELDS x y
SIZE 4 4
TYPE F F
COUNT 1 1
WIDTH 180
HEIGHT 1
VIEWPOINT 0 0 0 1 0 0 0
POINTS 180
DATA ascii
9.001153973733046e-17 -1.47
0.02652765778467107 -1.5197684966377147
0.053047234987801645 -1.5190740570690255
0.07955065348927483 -1.5179168928269522
0.10254201640386441 -1.4664191538819416
0.13247672897644036 -1.5142159410994533
0.16410968733021594 -1.5613993757281892
0.1852414019758242 -1.5086701504948095
0.21154311345929952 -1.505207464487187
0.23778038686115102 -1.5012862777046094
0.2639452300537342 -1.496907784578556
0.2900296729723483 -1.4920733188404494
0.32642135458388233 -1.5356917331520747
0.3531731553198683 -1.5297610017128194
0.39191347087146167 -1.5718790765671145
0.39858132945788194 -1.4875257724851652
0.4465325164235387 -1.5572439474200768
0.4736421616508336 -1.5492137046601175
0.5006075308874149 -1.5407115563981488
0.5274204102205939 -1.5317400924708933
0.5609130350540968 -1.5410958980888896
0.5805560782633866 -1.512400290925467
0.6255930110045733 -1.5483970371265348
0.6603356071468726 -1.5556532023346241
0.6873849267981026 -1.5438918234159953
0.7142248623417821 -1.5316601600919384
0.7627657954129948 -1.5639016405605504
0.7899434695468115 -1.55035135208776
0.8403540973867447 -1.5804761912174792
0.8678092202409434 -1.5655692757795183
0.9199999999999998 -1.5934867429633672
0.9476700578344999 -1.5771878332918865
0.9750514461890971 -1.5604084969278238
1.029367776178401 -1.5850873734168511
1.084834232733249 -1.6083328907567807
1.1414171083385816 -1.6301125681350936
1.1696926520620214 -1.6099438188061455
1.2277026472301784 -1.6292164404964773
1.255949409664343 -1.6075419373577127
1.31527961729416 -1.6242350594450692
1.3755654847291943 -1.639335108274613
1.4367692734892108 -1.6528139806878708
1.4787786400530767 -1.6423500643050413
1.5617762445431218 -1.6747999767079
1.6255005868740535 -1.6832551327924434
1.6899852070358488 -1.6899852070358485
1.7192221228093765 -1.6602335053970034
1.8210707170317348 -1.6981759165556214
1.8875878567125817 -1.6995917401514997
1.9697920043814348 -1.7123140656652238
2.0376782186964815 -1.7098150417661946
2.1449228536212397 -1.736924279297551
2.1749096799545526 -1.6992256718988163
2.284097558735257 -1.721190966214858
2.435141153068592 -1.769233609400344
2.506605255524315 -1.755143895234201
2.619758729273932 -1.7670495749675599
2.7759995798993535 -1.8027552058997394
2.891844007893413 -1.8070246910352288
3.05151559049952 -1.8335355466797925
3.2129542480402673 -1.855
3.3760320695580677 -1.871365134150861
3.540619847364297 -1.882580966771422
3.7511374668330286 -1.911300003903492
3.963681744179327 -1.9332167573398313
4.223394287590789 -1.969401099711659
4.485508197025171 -1.9970769175021788
4.749805043814592 -2.016172623004652
5.155142231391338 -2.08281265939247
5.517460320598462 -2.117954581812725
5.835491175080491 -2.123945090052403
6.391705571051381 -2.200840724130379
8.378807908560303 -2.722439720443287
8.233783948841735 -2.517320377662763
8.276463202028925 -2.3732376335843623
8.944473151436773 -2.3966643576493416
8.936423639001928 -2.228100658472939
8.925229793432756 -2.060551657789802
9.00873940275835 -1.9148666724315642
8.991705000380602 -1.747810397649151
8.971598629941214 -1.5819348985457355
8.997840782821704 -1.4251179765165032
9.021342106235705 -1.2678669497461958
9.042095441452444 -1.1102297184208931
9.02031359099024 -0.9480731618376163
8.876094759997454 -0.7765576678816334
9.047905935856607 -0.6326912168592154
9.147446538351897 -0.4793973591853662
9.204389516845874 -0.3214243646300344
9.208597272390364 -0.16073666328738137
9.11 0.0
9.058620118116906 0.15811880232178885
9.254359058196826 0.3231693394651594
6.700804178203191 0.3511742663901536
6.344507359652482 0.44365117301263757
6.18636907514974 0.5412371624629579
5.13173298010029 0.5393668704610927
4.774146989394759 0.5861915417787591
4.416595586587404 0.6207120302818917
4.108783496875773 0.6507673745673604
3.8505983142777334 0.6789643746776978
3.6418368505908334 0.7079013728469814
3.4332980785756573 0.7297700347703354
3.225164914439129 0.7445879898781934
3.066134495032149 0.7644731900949504
2.907436737130095 0.7790453257585879
2.797271535180508 0.8021047054274675
2.6394011264579778 0.8069459050347533
2.5773631591598662 0.8374360547561074
2.420527553534251 0.8334544754103211
2.3116438471333343 0.8413695525811452
2.2499288278582563 0.8636667584041738
2.141794704049279 0.865341230790757
2.034315726129893 0.8635157939612953
2.000664552237296 0.8907532483360027
1.8941832749065983 0.8832721670380617
1.8335398544503005 0.8942771394497182
1.7731029831348522 0.9034410944816982
1.712918330146318 0.9107748318046285
1.6530312464934578 0.916290182265577
1.5934867429633672 0.9199999999999997
1.5771878332918865 0.9476700578344999
1.5180060921200027 0.9485554829774367
1.4592867882250375 0.9476719209261473
1.4010734976180206 0.9450360068655621
1.3434093526339463 0.9406653556157158
1.2863370210561664 0.9345785511450323
1.2698304609751956 0.9568858868117571
1.252937098234688 0.9789017457677968
1.1968047806437354 0.9691534022167494
1.1414062202472772 0.9577535384329436
1.1245172745319303 0.9775279531958556
1.0701285486874474 0.963548073156756
1.0531493303316055 0.9820776384899977
0.9998823224707247 0.9655751349380063
0.9828784258493011 0.9828784258493009
0.965575134938006 0.9998823224707253
0.9138778024837481 0.9800139601696884
0.8966350125208702 0.9958140661397082
0.8791190988472798 1.0113108374985145
0.8291960164956359 0.9881973316234817
0.8118233044542903 1.0025182902794925
0.7942033031700994 1.0165338721526713
0.7462506287085398 0.9903080324586432
0.7288537128426666 1.0031810730249349
0.7112347810752969 1.01574853491835
0.693399200303726 1.0280065899682518
0.6481204516678823 0.9980179758550545
0.6306039244375138 1.009177234426147
0.6128953091429645 1.0200290878355136
0.5699999999999998 0.98726896031426
0.5526829670808243 0.997066466138911
0.5351975815759152 1.0065602558591766
0.5311688846952698 1.0424776333003904
0.499743107339548 1.0246252127810502
0.46065390529736244 0.9878754878699485
0.4840166052602024 1.087119094594695
0.445433486477772 1.049375532935782
0.4083211868233443 1.0106304014777983
0.40853946248164213 1.0642816862068099
0.38306256052474913 1.0524557352802175
0.36463633299201537 1.058980804671235
0.3306481839811938 1.0176304724358143
0.32745630928946495 1.0710613266786
0.3087138385150391 1.0766130994509173
0.2898773305148235 1.0818369254437565
0.2709525230716278 1.086731213429116
0.24519664923481302 1.0620633706159064
0.23286109371589037 1.0955253128218625
0.20416562505290306 1.0503410862890006
0.18927651365695394 1.0734404507833069
0.17051356689385172 1.0765802912487001
0.1558738730752731 1.109100236990559
0.1304001974435078 1.0620243822562145
0.11707187885977213 1.1138645228124662
0.09325664473999422 1.0659283269581679
0.07812725059342052 1.1172717362910032
0.05599947317994981 1.0685336021873941
0.03908743630680121 1.1193177262613874
0.018674074887893213 1.0698370338173386
