# .PCD v0.7 - Point Cloud Data file format
VERSION 0.7
FIELDS x y
SIZE 4 4
TYPE F F
COUNT 1 1
WIDTH 179
HEIGHT 1
VIEWPOINT 0 0 0 1 0 0 0
POINTS 179
DATA ascii
4.8373548566320456e-17 -0.79
0.013438352956708371 -0.7698827252704213
0.027570602394975854 -0.7895187533450857
0.04291548411921405 -0.8188762184987505
0.053712484782976605 -0.7681243187000647
0.06449524963326703 -0.7371840765878916
0.07735106281806356 -0.7359462025725222
0.09627678129006652 -0.7841114597966444
0.10994674975845173 -0.7823117743058406
0.11576150412977088 -0.7308893720404019
0.13718206035687502 -0.7779981248796444
0.15073910634747048 -0.7754854749236546
0.16425023574602998 -0.7727366045797064
0.1664637802144602 -0.7210338479410741
0.19111829752373746 -0.7665336237580372
0.20446704563099138 -0.763081402768364
0.21775351109542934 -0.759396739791272
0.23097364673096205 -0.755480757210798
0.2441234255562085 -0.7513346478731713
0.25719884202115384 -0.7469596747234603
0.2872969203935618 -0.789341801460163
0.28311068014078733 -0.7375285369327894
0.31466953846936624 -0.7788344378361013
0.3282141479309899 -0.7732240769000499
0.3416587801836723 -0.7673781844197846
0.3549993398621875 -0.7612985411107859
0.36823176330282503 -0.7549869988913002
0.38135201978121935 -0.748445480318229
0.4178296908794429 -0.7858233576444449
0.43148056201924 -0.7784115393540623
0.4449999999999999 -0.7707626093681504
0.4583838866699483 -0.7628788976248799
0.47162814516755236 -0.7547628055792192
0.5119606929141254 -0.7883503338686985
0.5256413292625021 -0.779295318201739
0.510483028352431 -0.7290453194172027
0.5525181371549247 -0.7604759747124505
0.5957968729205277 -0.7906491549468199
0.6095048605724018 -0.7801306460706546
0.623027187139339 -0.7693745018424012
0.636359733589674 -0.7583839986877883
0.6823013901501276 -0.7848979634316829
0.6958958306132126 -0.7728706184964901
0.7092782944649986 -0.7606078496839372
0.7571776238003071 -0.7840803823691297
0.7707463914933369 -0.7707463914933368
0.8200473723860623 -0.7919105423232567
0.8337432198458544 -0.7774781304712481
0.8843423423180993 -0.7962654215670412
0.8981044004650987 -0.7807102444987036
0.9498951094675328 -0.7970566360113087
1.0025182902794925 -0.8118233044542903
1.0165338721526713 -0.7942033031700991
1.0302398079610078 -0.7763413798661423
1.0840827724624296 -0.7876322380719141
1.1386213415616986 -0.797271246527954
1.1523622258515078 -0.777278135824338
1.2076856178414106 -0.7842802104216388
1.2635916632730748 -0.7895797037074753
1.320037643081253 -0.7931586353614832
1.3769803920172574 -0.795
1.434376319708609 -0.7950877772039927
1.536328811574533 -0.81688051924745
1.5949016782971785 -0.8126429945337887
1.6537810451904673 -0.8066029100919024
1.758237106851101 -0.8198794277769568
1.7722781878266458 -0.7890690875670523
1.8962399981120273 -0.8049061246879038
2.002717125864261 -0.8091502417783698
2.1098917638836756 -0.8099115659723787
2.2176745850547435 -0.8071675382485782
2.325975695974319 -0.8008976599646055
2.482257507530351 -0.8065343553186126
2.6394011264579778 -0.8069459050347533
6.161687470964624 -1.7668354507869644
6.143288255198475 -1.6460891268520317
6.171080819115338 -1.5386232560138862
6.148275108794834 -1.4194411529097872
6.172111360630312 -1.3119227690600617
6.144986168382376 -1.1944643110571709
6.164896533856422 -1.087037592194984
6.1829290121255625 -0.9792797511518452
6.179272748947399 -0.8684401499908082
7.057003138169801 -0.8664910316105983
8.314203045278765 -0.8738579529175823
10.071528397707548 -0.8811445591788231
12.579282673776383 -0.8796291339134185
17.935386444192147 -0.9399537741232725
29.14223651587683 -1.0176693238449297
34.8546906531518 -0.608390888403704
34.86 0.0
34.8546906531518 0.608390888403704
19.947840907301153 0.6965939541819204
14.689840456239782 0.7698619163337048
7.54158421996427 0.527358941505588
7.630851387382771 0.6676129894470625
7.767216002826214 0.8163672981203747
7.702158136736659 0.945706104823944
6.595185337818859 0.9268928523940356
6.232313429155319 0.9871014744038568
6.214136921507032 1.0957200010783306
6.194067527554759 1.204004760825998
6.221018740667004 1.3223183536009497
6.245712115273358 1.4419362583441753
6.219595605429138 1.5507193507938708
6.23988083782738 1.671971031362285
6.2097505557615404 1.7806173185778142
6.225543961319361 1.903339797745016
5.953613792007661 1.9344463847871707
6.013498140811655 2.0706134623475165
3.0164133127227655 1.0978846600753966
2.530002955807417 0.9711771432677638
2.419949860419315 0.9777232088155307
2.356492424838247 1.0002716889325411
2.2473218258007983 1.0005721419664688
2.138886377406494 0.9973790977080504
2.121153949266034 1.034555906422223
2.191876049503385 1.1168166293592852
2.2161984580759064 1.1783736225925863
2.239026450276853 1.2411126278306228
2.217025033688163 1.2799999999999996
2.0657731946920905 1.2412417605332309
1.9589911021213442 1.2241135003787034
1.9792625403512003 1.2853481226354642
1.8736249139743941 1.2637759618438877
1.8103260178786715 1.2676039243358121
1.7474767078498865 1.269616144951742
1.6851209261997875 1.2698296988508222
1.5839016147495109 1.237479565404573
1.5465204632993723 1.2523475781891762
1.5397493306691457 1.292003095469944
1.479230777236633 1.285875696821394
1.493721099209562 1.3449525187813052
1.4700209402545328 1.3708167037256218
1.481839988697621 1.4309962431455345
1.4919953083036153 1.491995308303615
1.500462080191434 1.5537739687314869
1.3026168677193721 1.3968855700926155
0.930091542838813 1.0329713074135778
0.990649133775666 1.1396114661363856
1.1955849540169634 1.4248426642012992
1.5795941815350918 1.9506363632569967
1.5453103030674025 1.9779069915528718
1.5707372104268456 2.0844386812234346
1.5635087710979787 2.1519852050373602
1.5543921425113345 2.219902040023168
2.1584846073970825 3.200085030062461
2.1295386269087566 3.279201920666608
2.194062199116831 3.6515327009909977
2.1049999999999995 3.645966949932487
2.0168080202247625 3.6384179816998863
0.755849216085284 1.4215456245028726
0.6628261296197384 1.300869525315017
0.6400218743120527 1.3122393075967838
0.5747608359673513 1.232578590369844
0.5531618345830885 1.2424218223939372
0.609540560443267 1.435987571385807
0.5469256263872317 1.3536884276675094
0.4515436164270782 1.1763113373864742
0.5164504164217599 1.4189358573867217
0.4753295055074485 1.3804571203750025
0.49751736094366544 1.5312009912351974
0.3830069331867849 1.2527592303115767
0.34730306832941893 1.2111897368822817
0.3649348535945545 1.361955415067586
0.30482158845558127 1.2225726151077556
0.29468588119046335 1.2764247848686583
0.3035510685939285 1.4280954970713562
0.23087888440561935 1.1877688919716733
0.20143188609363905 1.1423769934941614
0.17364225619465634 1.096334058060603
0.16839945216167895 1.1982243631773002
0.13527497117971374 1.1017262283218674
0.12125301739047827 1.1536453986271968
0.10545844872466634 1.205395584691012
0.0844053332303918 1.2070525008143873
0.05809291142966756 1.1084787835775771
0.03699346650465115 1.0593542766402415
0.018150502694774712 1.039841602962647
