# .PCD v0.7 - Point Cloud Data file format
VERSION 0.7
FIELDS x y
SIZE 4 4
TYPE F F
COUNT 1 1
WIDTH 179
HEIGHT 1
VIEWPOINT 0 0 0 1 0 0 0
POINTS 179
DATA ascii
5.449678256205722e-17 -0.89
0.01640526205104658 -0.9398568334470078
0.03175854199927598 -0.9094456525873772
0.05442939449266173 -1.0385747161447567
0.12346895852710206 -1.7656883689598888
0.1542656646633549 -1.7632646156223897
0.1902418031471293 -1.8100298495702574
0.22180220499736844 -1.806433995987206
0.25329504374731915 -1.8022878851096582
0.2847107263732203 -1.7975927798831508
0.3160396833538134 -1.7923501104822186
0.3415481017240154 -1.7571126583713186
0.37216192656378944 -1.750884205313512
0.4094109189058346 -1.7733535179091282
0.4402978499913952 -1.7659382218223136
0.47622704298863816 -1.7773035203718859
0.5071727347032785 -1.7687215205265068
0.5525825219259725 -1.8074159887701369
0.5840421193686507 -1.7974968157978402
0.6153238119240262 -1.7870301078827084
0.6635190780517976 -1.823003684324662
0.6773154246406177 -1.7644670060797112
0.7267367912268696 -1.7987366778595673
0.7775549456936547 -1.8318046583703564
0.8094059197208427 -1.8179554607087756
0.8410103408639918 -1.8035524962029335
0.8723585821102642 -1.788600152135342
0.9261406194686757 -1.8176533093442706
0.9811955662225118 -1.845360469075157
1.0132521063148445 -1.827955187921337
1.0449999999999997 -1.8099930939094768
1.1021814803075163 -1.8343380235025202
1.1340272254590587 -1.8148229257747517
1.1927594866829092 -1.8366885438004783
1.2525921037744732 -1.8570441625232934
1.2848112174263433 -1.8349005792073418
1.3460282277497635 -1.8526489171186298
1.4082471541757928 -1.868807093510665
1.4406478522620405 -1.8439451634397293
1.5355417541616032 -1.896236145955009
1.5362623871508292 -1.8308462190543575
1.6335869821863633 -1.8792268547547024
1.6661352098335571 -1.8504306154387118
1.7663757525618713 -1.894206087193651
1.8338980980117527 -1.899057072894039
1.902117241391813 -1.9021172413918126
1.9350240629109716 -1.8686310165347026
2.0039091424365276 -1.868675506571246
2.07337406308193 -1.8668743917412143
2.158469399437128 -1.8763288229128507
2.229189329476226 -1.8705119441878293
2.339209343985482 -1.8942543770600104
2.4113129060365694 -1.883924114496514
2.4837564362470808 -1.87164472200287
2.596944551943581 -1.8867906598588386
2.7113932665965628 -1.8985380043219624
2.8684700010404445 -1.9348074460087838
2.9856672218857097 -1.938914964653496
3.1038560319325197 -1.93950450709353
3.2229490506399423 -1.9365431616618032
3.386159328797155 -1.955
3.550956010985946 -1.9683270582001282
3.673061986293136 -1.9530017011893057
3.884788445461284 -1.9793985788644242
4.098500851124201 -1.9989724293581927
4.3140250662944535 -2.011662925885729
4.5311854699073 -2.0174137496559688
4.335577859760994 -1.840343615184479
4.32067676228123 -1.7456667253181495
4.35048478747696 -1.6699946448810996
4.378967612862333 -1.5938138678976166
4.406116562292817 -1.5171475997703503
4.764793146638719 -1.5481751418184864
4.791086827374808 -1.4647822406609108
5.056236520635557 -1.4498524915974151
5.418843885481674 -1.4519748430251411
5.8799921012325385 -1.4660466873339857
6.538023134708928 -1.5094215746473332
13.410403606060475 -2.8504692811114816
13.55627140341224 -2.6350722261500845
13.550954681447982 -2.3893989246969616
13.590591566589096 -2.1525382389535768
13.626088625884009 -1.9150218692105
15.940291195359631 -1.9572216550866677
16.071473829151298 -1.6891799664052787
23.253218011556502 -1.6260234029755578
23.477780362080033 -1.2304183312716113
31.790622207477433 -1.1101529901065574
31.955132337198265 -0.5577789097355819
24.81 0.0
24.506267008283153 0.4277584817778195
13.701648238431805 0.47847209979128896
13.741142398222935 0.7201427579029082
13.776359534088172 0.9633369024063718
13.707639045742418 1.199263020207778
13.634895185499028 1.433085231399531
6.262966216856742 0.7689955568864802
4.367082183150325 0.6137533752338885
5.294009505589939 0.8384887326156375
4.6384445166875 0.817882916811242
4.525301315693731 0.8796294686858719
4.313630919236083 0.916890556506319
4.296971985702887 0.9920341496564451
4.036430221308145 1.0063950856946182
3.9699551460480706 1.063746275371361
3.950785570306491 1.1328695324078664
4.360749687191442 1.3332149735356793
4.289264888491142 1.3936666446310126
4.311564704732884 1.4845907843246344
4.191029088705151 1.5254098392324826
3.9770526168780793 1.5266474650629793
3.810725642269496 1.539633098939399
3.5991739769990416 1.527758712393061
3.4806081936183095 1.5496666101187992
3.317086500554139 1.5467828379709598
3.199706804825034 1.5606012825691162
3.0383322474823347 1.5481076041118547
2.966703912005994 1.5774244509605937
2.85126024527443 1.5804793620030586
2.7366402759588264 1.5799999999999996
2.6229319401484634 1.576016509224766
2.5102223646230213 1.5685610221302866
2.440531352721184 1.5848995918937292
2.329595578879667 1.5713320587527986
2.301817244452067 1.61174978614644
2.2167065645873563 1.6105315912813765
2.1483295220272174 1.6188824122790104
2.080348389521746 1.625346294859738
1.9739507421007063 1.5984737932665867
1.9074506633662554 1.6005411481194831
1.8792268547547024 1.633586982186363
1.8132733741648417 1.6326786795156143
1.7479353468698178 1.6299760805493715
1.6832551327924432 1.6255005868740537
1.619274528917194 1.6192745289171937
1.5907676683511034 1.6472881427755115
1.5276763265399966 1.638232291626942
1.4653960279258997 1.6274871677954932
1.4367692734892108 1.6528139806878708
1.3755654847291945 1.639335108274613
1.31527961729416 1.6242350594450692
1.286732483430626 1.6469424750380486
1.2277026472301782 1.6292164404964777
1.1990819146766452 1.650394668524893
1.1414171083385813 1.6301125681350939
1.112793877906786 1.6497847693845331
1.0838316796799041 1.6689544302113937
0.5511160348025331 0.881970020002683
0.417180840677144 0.694305513568711
0.4049999999999999 0.7014805770653953
0.40724008100692316 0.7346805539970924
0.37088253460085363 0.6975285983585523
0.38135201978121935 0.748445480318229
0.36823176330282487 0.7549869988913003
0.34232079200996657 0.7341093074996865
0.3497935130451883 0.7856490935726367
0.7189452764202636 1.6937289303524903
0.6817840000169602 1.687474615311553
0.6414786296860873 1.6711089634299912
0.5951150493866637 1.6350651601674804
0.5925340411120249 1.7208438075907566
0.3368285238686927 1.0366516027617174
0.29529542176996393 0.9658678035226659
0.2728809822588292 0.9516490789789357
0.2432899023963697 0.907970276711724
0.239502676643671 0.9605927690132365
0.21145399108323323 0.915907860898121
0.20583257390958165 0.9683661247264677
0.18317663556148311 0.9423620961097574
0.17538465944359952 0.9946558305423302
0.2690672798691972 1.698823945823637
0.24633638869931548 1.7527744816725797
0.20961527065685367 1.7071793808230737
0.17978895682036433 1.71057766003343
0.14990787752597198 1.7134548807178023
0.11998113483989578 1.7158101664468977
0.09001784473786324 1.717642799777867
0.060027134328301854 1.7189522224728446
0.029145518750263236 1.6697456509111734
