# .PCD v0.7 - Point Cloud Data file format
VERSION 0.7
FIELDS x y
SIZE 4 4
TYPE F F
COUNT 1 1
WIDTH 179
HEIGHT 1
VIEWPOINT 0 0 0 1 0 0 0
POINTS 179
DATA ascii
6.368163355566237e-17 -1.04
0.018674074887893452 -1.0698370338173386
0.03629547657060112 -1.0393664600998596
0.05599947317995005 -1.0685336021873941
0.07254673269389048 -1.0374666122702172
0.09064197245756447 -1.0360424860154154
0.1087096017983596 -1.0343027711830042
0.13283758431161077 -1.081875305289041
0.15169868004647136 -1.0793921949283118
0.17051356689385172 -1.0765802912487001
0.18927651365695417 -1.0734404507833069
0.21752225472926118 -1.1190549891303367
0.22662374299135782 -1.0661808847998482
0.25644420195200623 -1.110781873855168
0.2757909609836211 -1.106137127954636
0.3079946636719997 -1.1494517332839913
0.328008453422229 -1.1439014181665994
0.3625409138561936 -1.185817897394164
0.36773022330618743 -1.1317572543912326
0.40370451152687437 -1.1724430337431528
0.4412059848901128 -1.2122034808138218
0.4622946549134375 -1.2043187501813903
0.48324250550652675 -1.1960671723911556
0.5040431557511631 -1.187451260953648
0.5450271017215725 -1.224150913241085
0.5663084707325373 -1.214452434629111
0.5874173366973638 -1.2043840220408837
0.6310467946379701 -1.2384990686218313
0.6525654722723883 -1.2272971540739084
0.6981258531547254 -1.2594523782807299
0.7449999999999999 -1.2903778516388136
0.7931586353614836 -1.3200376430812528
0.8425716301307958 -1.3483964728887174
0.8659760656738931 -1.3334862030332242
0.8891167165184877 -1.3181697403625163
0.9406653556157155 -1.3434093526339466
1.0227463389889033 -1.4076895702124086
1.047158140284564 -1.3896257874822895
1.1020340408329286 -1.4105392489560322
1.1579495195317009 -1.4299485690808265
1.2148685823075593 -1.4478239974948683
1.272754516241584 -1.4641365856321777
1.3315699066541278 -1.4788582027000146
1.391276654527497 -1.4919615513031075
1.4865689127822541 -1.5393871727247135
1.56270598642227 -1.5627059864222699
1.6616749387822842 -1.6046608357602836
1.7259947358212424 -1.6095161297474962
1.82813627067439 -1.646061291642791
1.8943210463591575 -1.646708162766173
2.0376782186964815 -1.7098150417661946
2.1449228536212397 -1.736924279297551
2.332511830675897 -1.8223579669639483
2.4837564362470808 -1.87164472200287
2.596944551943581 -1.8867906598588386
2.7933084710254623 -1.955895647957067
3.034277515551453 -2.046646026702933
3.2792019206666083 -2.1295386269087557
3.5278800800107324 -2.2044641392101325
3.8658245261665263 -2.3228217178443438
4.208883462392372 -2.43
4.600499659553221 -2.5500986024957326
5.085778134867419 -2.704156201646731
6.20140540835104 -3.1597738781872455
6.345485966872119 -3.0949002963308865
7.440786931570897 -3.4696959288911424
8.642140029299005 -3.84772864349707
10.410909892547101 -4.419169063213685
13.314360151579066 -5.379350681452495
17.747363907711808 -6.812574720856159
30.92528415006424 -11.255882916847758
13.704724399813163 -4.452934888942992
14.115058198014404 -4.315406361707594
15.389799751972488 -4.4129540666301565
13.677509700253207 -3.664877678651693
10.391867228415924 -2.5909835018724405
8.584200270757924 -1.9818187887694496
7.2480737214375 -1.5406256289595972
6.341311605071909 -1.2326261101324798
5.574011882049097 -0.9828486855948259
5.047087420441154 -0.7993801163555798
4.515622393461561 -0.6346293403778982
4.506159528451603 -0.5532868190593694
4.286389369037257 -0.45051767668358605
3.546453125206614 -0.3102744441816627
3.3518152088730098 -0.23438175178026058
3.3853541228180055 -0.17741889166357985
3.258014096082252 -0.1137723592501533
3.0595339471785574 -0.05340436369808762
2.86 0.0
2.4596253300847226 0.042932919835717495
2.358562351765066 0.0823628122179024
2.206971271807608 0.11566246329690602
2.1547383485612204 0.15067398328731088
2.052161078068996 0.17954083006017607
1.9492629149218157 0.20487578800460107
1.9255395341841648 0.236426526205986
1.7923852044222424 0.2519033127377184
1.7679621296652965 0.28001769242201324
1.6643251025906316 0.2934654202571123
1.6589499400265522 0.3224672021863608
1.555254685166751 0.33057958840023743
1.549248403008524 0.3576721764067455
1.4942554184650345 0.37255971922348846
1.3909331898562582 0.3726994249476301
1.3842168421511791 0.3969177923764787
1.3292636107886193 0.406396669564604
1.2744157318355058 0.4140827724624295
1.2669948913030846 0.43626132697259
1.2122034808138218 0.4412059848901127
1.15763972885653 0.4443762574361724
1.1497079796628162 0.464512175835731
1.1414260182810259 0.4845065993266996
1.132796367476825 0.5043534374139924
1.0785062665736134 0.5029157314714322
1.0246252127810502 0.4997431073395484
1.0157474375747393 0.5175491697030833
0.9624128762162304 0.5117240034366212
0.997066466138911 0.5526829670808242
0.9439676901250382 0.5449999999999998
0.8914539927301968 0.5356395979064564
0.8819700200026831 0.5511160348025331
0.8302838622659697 0.5391926446648769
0.8621990754572434 0.5815606196095767
0.8109605238461017 0.5678406719875358
0.800926824431198 0.5819073997695484
0.7906491549468198 0.595796872920528
0.7407301083903185 0.5787217868061187
0.7305172037695528 0.591561167586847
0.7200817765318392 0.6042203531053469
0.6716915263982671 0.5838925358015514
0.6613988946748808 0.5955262396593839
0.6509047944410619 0.6069785404556236
0.6402124223013994 0.6182459497085077
0.6293250352560273 0.6293250352560272
0.6182459497085074 0.6402124223013996
0.5728786224524987 0.6143371093601032
0.5955262396593839 0.6613988946748808
0.551089584352026 0.6339560473871285
0.5399415921366931 0.6434773322199415
0.5286291284818634 0.6528026076238556
0.517155639273553 0.6619290330296463
0.5055246194477204 0.6708538284397261
0.4937396119256774 0.6795742752749558
0.48180420653487854 0.6880877172027532
0.44176239374188997 0.654939682318483
0.45749678941262284 0.704483277074156
0.4186362187442319 0.6699579959635765
0.43263198292444555 0.7200205325897743
0.4199999999999999 0.7274613391789285
0.3829995999946063 0.6909495686401227
0.39435611274014815 0.7416759780014986
0.35865249479424205 0.7038951541088107
0.346313205963371 0.710047296576342
0.33386842677515255 0.7159831517589534
0.3213219480298823 0.7217009115376546
0.30867759150652624 0.7271988342274279
0.307177406601048 0.7602907607447655
0.28311068014078716 0.7375285369327894
0.25309490606099494 0.6953725393815722
0.2571988420211537 0.7469596747234604
0.2441234255562085 0.7513346478731713
0.23974479787264397 0.7841698998896891
0.2260226317699393 0.7882345906694215
0.21223161698406717 0.7920591775570359
0.19111829752373746 0.7665336237580372
0.1664637802144602 0.7210338479410741
0.1642502357460298 0.7727366045797065
0.15073910634747048 0.7754854749236546
0.13718206035687489 0.7779981248796445
0.12358322738178244 0.7802737890701589
0.10298809471044829 0.7327983708687621
0.09018331411980914 0.7344841522145783
0.08257748598144642 0.7856722973409359
0.06885303677064994 0.786993811492479
0.055107614257859115 0.7880755997052612
0.043962203244072746 0.838848809193842
0.029315577230100906 0.8394882946960404
0.014660021407318036 0.8398720639313686
