# .PCD v0.7 - Point Cloud Data file format
VERSION 0.7
FIELDS x y
SIZE 4 4
TYPE F F
COUNT 1 1
WIDTH 179
HEIGHT 1
VIEWPOINT 0 0 0 1 0 0 0
POINTS 179
DATA ascii
6.282438079625922e-16 -10.26
0.18080693069025808 -10.358422121820213
0.35108893682716086 -10.053871719812104
0.482014156997514 -9.197378015089626
0.5936275915625077 -8.489270067711104
0.685044137996593 -7.830090327001121
0.7641030664865467 -7.269955055142077
0.8360236957593118 -6.808866600259469
0.8990582322020229 -6.397131724070545
0.9479928581437993 -5.985391344006534
1.0002135033615192 -5.672492657350318
1.0513575645247624 -5.408765780796628
1.0936154937014146 -5.145056379859817
1.115757229545571 -4.832875521334767
1.151548223054418 -4.618607657073743
1.1802148456674946 -4.404621767878151
1.2017788713621165 -4.19110099429107
1.2308848768827219 -4.026043022604379
1.2546089971622865 -3.861289456158323
1.272971483927483 -3.6969776305933286
1.2859957389045147 -3.533244254155015
1.3116266953357993 -3.4169043609797587
1.3335994725606475 -3.300774522257763
1.3323931481484235 -3.138921550272822
1.3666351207346892 -3.0695127376791382
1.3777355332746801 -2.9545633857394784
1.363334266514031 -2.795249483990409
1.3892109292030135 -2.7264799640164057
1.389635825846237 -2.6135248748624234
1.4350364759291578 -2.5888743331326114
1.4549999999999998 -2.5201339250127166
1.4472569904972525 -2.4086401149729353
1.4519787839989815 -2.3236517834686072
1.465079004190423 -2.2560238277731903
1.5042289103363091 -2.230111070173062
1.4855629701492092 -2.1216037947084887
1.4929745408228818 -2.0549031657123664
1.5286101588062027 -2.0285341955201237
1.5329970735608895 -1.9621467764807377
1.5355417541616032 -1.896236145955009
1.5362623871508292 -1.8308462190543575
1.535178127837787 -1.7660204177212864
1.5657656188797282 -1.7389588916171024
1.5617762445431218 -1.6747999767079
1.556034749828154 -1.6113211527585787
1.5839191898578666 -1.5839191898578664
1.575354162741646 -1.521301831305204
1.6016646065459834 -1.4935764085368717
1.590329926521624 -1.4319394976079565
1.5773430226655933 -1.37116337059016
1.601032886118664 -1.343426104244867
1.5853777613722206 -1.2838135977416683
1.607541937357713 -1.2559494096643427
1.6292164404964773 -1.2277026472301784
1.6099438188061455 -1.1696926520620214
1.6301125681350936 -1.1414171083385816
1.6497847693845331 -1.112793877906786
1.6270209018141226 -1.0565997279291524
1.6452133065434664 -1.0280433726124174
1.6629045633620978 -0.9991738653255048
1.636788013152589 -0.945
1.6530312464934578 -0.916290182265577
1.6687709505033719 -0.8873012536653335
1.6840023307160152 -0.8580420445077435
1.6537810451904673 -0.8066029100919024
1.667606328147436 -0.777617601602887
1.6809236420623859 -0.7483954232594723
1.6937289303524903 -0.7189452764202635
1.6596590996745495 -0.6705458022144823
1.7177879847548512 -0.6593970271633526
1.682049791206776 -0.6122160565529471
1.692478250322777 -0.5827669964783105
1.702391164168325 -0.5531404199311558
1.7117855131738338 -0.5233453514536988
1.7494962866077404 -0.5016599875869384
1.709688712531651 -0.4581097098314616
1.7174234355085138 -0.4282017552114117
1.7246350146698664 -0.3981633661886408
1.7802286333355262 -0.3783992772883221
1.7374801147023653 -0.3377319218164844
1.7628058778918525 -0.3108302380238053
1.7975927798831508 -0.2847107263732202
1.8022878851096582 -0.25329504374731904
1.8064339959872062 -0.22180220499736833
1.7603037548018436 -0.1850153799837465
1.8130743505269769 -0.1586234518007377
1.7856396499650855 -0.12486408800198406
1.8175057532533245 -0.09525144036215791
1.8188913051747544 -0.06351708399855185
1.7897273743299404 -0.031239807522737528
1.79 0.0
1.7897273743299404 0.031239807522737528
1.7889095803641815 0.062470099097476826
1.7875468672106871 0.0936813616748696
1.8355178524780766 0.12835191168919075
1.7831885095842246 0.15600877951830835
1.829920287477623 0.19233237241248266
1.8262849190200328 0.2242395918654713
1.8220932464844894 0.25607850576652036
1.8173465466950536 0.2878394156740248
1.8120462655424627 0.31951264690715186
1.806194017543702 0.35108855149284257
1.8486989653868924 0.39295309564556524
1.8415594224440945 0.425157492709905
1.8338589226616333 0.4572323826833722
1.8738961030007923 0.5021089474988906
1.8648476901203386 0.5347364702849783
1.9030464643664406 0.581819692398246
1.8735813371014525 0.6087634789186464
1.8626715939306542 0.6413692642805987
5.459614126766127 1.9871370327221354
5.284065213974162 2.0283625944264
5.062423845934659 2.04535200005088
4.8878807718324575 2.0747822922780443
4.805249107200081 2.1394347425787097
4.812494349164611 2.2441029698431136
5.177053706683202 2.5250178055050867
5.265848557953254 2.6830838534607215
5.562581337406558 3.0833891847667037
5.334716487312143 3.079999999999999
5.237292207289906 3.1468826377004318
5.054366653092299 3.1583188148299013
4.9565430565574555 3.218816696938811
4.733804539289288 3.192991478817964
4.677358172890142 3.275121451564474
3.1632564480060448 2.29824033646357
3.0827330687825496 2.3230059893669073
3.0023209712416103 2.3456702209907583
2.8832115170053623 2.334778650794896
2.80372266181546 2.352602651452734
2.6867661055930685 2.3355701432062057
2.645595578699523 2.3821049586375356
2.5670514926832886 2.3938142438193695
2.4889157091717324 2.403517961788131
2.4112341238461275 2.411234123846127
2.33405212474223 2.416981729137868
2.25741457180687 2.4207807523594544
2.201439694920644 2.4449464758206267
2.171555385958579 2.4980887105373752
2.1597663685467725 2.573909328879766
2.1774485530324372 2.6889250266411193
2.191754852159344 2.80531828283993
2.262824487051701 3.002869517777821
2.2688510738489462 3.122805598287297
2.271362687950142 3.243842095384408
2.2982828332647696 3.4073444232012218
2.3201622891640157 3.5727366194475056
2.177968175998472 3.485477675202911
2.116806487880323 3.5229576058856815
2.0549999999999997 3.5593644095540435
2.065288982249396 3.7258799524138255
3.7369936397756893 7.028262839157059
3.5683653279528387 7.003311280120572
3.423678656422693 7.019581501596495
3.2795177111078275 7.032948427404404
3.156276350268211 7.0891127513065815
3.0125370006523005 7.097092420118315
2.888216835236683 7.14858751870993
2.7450984935169993 7.151226066968565
2.60277329070834 7.151060844180763
2.4775736554189614 7.195396360310801
2.3207176277558554 7.142434437376603
2.1810929172316147 7.134033479484245
2.0424728066039637 7.122949166902943
1.9178491242096805 7.157510372801996
1.7926412463935375 7.189891331705134
1.194490098565924 5.173905044009599
1.5614167980413718 7.3458884815108805
1.576082301810261 8.108240535277703
1.1130848188450226 6.312617696808254
1.284326957980296 8.108921276286083
1.1426111588821357 8.130100844368293
0.7507151553757085 6.114084294110544
0.7484237969964004 7.120776770836837
0.6240351180732323 7.132754038336898
0.4017972887661626 5.745968929496587
0.30668870358365036 5.851969073661803
0.2516253712250328 7.20560786280768
0.1267044707346773 7.258894266835401
