# .PCD v0.7 - Point Cloud Data file format
VERSION 0.7
FIELDS x y
SIZE 4 4
TYPE F F
COUNT 1 1
WIDTH 180
HEIGHT 1
VIEWPOINT 0 0 0 1 0 0 0
POINTS 180
DATA ascii
9.307315673519885e-17 -1.52
0.02565503746280689 -1.469776111879895
0.05130226015267659 -1.4691045157180707
0.07955065348927483 -1.5179168928269522
0.10602984009107069 -1.516297356394933
0.12811894183905745 -1.464406206194866
0.15888326416683327 -1.5116732809597755
0.17914793480556682 -1.4590428429127433
0.21154311345929952 -1.505207464487187
0.23778038686115102 -1.5012862777046094
0.2639452300537342 -1.496907784578556
0.2900296729723483 -1.4920733188404494
0.32642135458388233 -1.5356917331520747
0.341925602602675 -1.4810424984735575
0.37981737609147825 -1.5233642902533144
0.40634590081095756 -1.5165035472738373
0.4465325164235387 -1.5572439474200768
0.46487101050915147 -1.5205245619812264
0.49133702105616645 -1.5121798609092942
0.5339317733097371 -1.5506504639828793
0.5780140422203803 -1.588080529128185
0.6056418347315576 -1.577750920780271
0.6330851428728915 -1.5669407142178704
0.6798721635713363 -1.6016784450072463
0.7077217589518926 -1.5895690962981253
0.756486688515852 -1.6222909387956035
0.7846843527524486 -1.6088413428755088
0.8126429945337889 -1.5949016782971785
0.8638276755260392 -1.6246235708604255
0.8920497012532603 -1.6093002611364882
0.9449999999999997 -1.6367880131525891
0.9734219615800025 -1.620046198326992
1.0015474094007573 -1.6028109017356449
1.0565997279291526 -1.6270209018141224
1.1127938779067863 -1.649784769384533
1.1414171083385816 -1.6301125681350936
1.2284711772912689 -1.6908455182436402
1.2577933983877807 -1.669148215998842
1.286732483430626 -1.6469424750380486
1.3467456368466522 -1.6630923575179177
1.3755654847291943 -1.639335108274613
1.4039663220396856 -1.6150785016767322
1.4453221097351339 -1.6051928230311716
1.493576408536872 -1.601664606545983
1.556034749828154 -1.6113211527585787
1.5839191898578666 -1.5839191898578664
1.6832551327924437 -1.6255005868740535
1.7113676617888591 -1.5958761625462463
1.7761161328909727 -1.599222149197671
1.8414913757435636 -1.6007840307368377
1.9457528855222042 -1.6326805286038097
2.028350959402694 -1.6425262206400755
2.0567080669135445 -1.6068764505999678
2.1643022322281635 -1.6309187127420508
2.2733377541936024 -1.6516765589418496
2.3837324488809664 -1.669107429781544
2.4539512147629234 -1.6552109942734106
2.566331937912998 -1.6665954471459825
2.6798319838543065 -1.6745448749769276
2.837223765323992 -1.704776027952279
2.9098453567157136 -1.68
3.113646157416249 -1.72592224807696
3.2315881898636727 -1.7182659197963603
3.4392851833671 -1.7524033289946506
3.5592244233447015 -1.7359497412847464
3.8155557834242964 -1.7792228819283444
4.0287354682038705 -1.7937085959642787
4.197502131743128 -1.7817339459110877
4.459754340466247 -1.801857714330536
4.817275000725561 -1.8491786196537496
5.130721709491059 -1.8674299825581515
5.4934629242320305 -1.8915509773960804
5.858508140378146 -1.903544685349676
6.368989674713817 -1.9471955534534267
6.978759912512195 -2.0011272032314134
7.978547325147704 -2.137845312546821
8.30573141692253 -2.0708514263331548
9.948318361457252 -2.2967502648508606
9.889072243418774 -2.101987194167547
9.924250824655882 -1.9290789432568685
9.907165995302813 -1.7469006673293195
9.985529123416843 -1.581552441556734
9.962096771540198 -1.400081395658258
9.935386977929634 -1.2199121274855258
9.955164172636415 -1.0463299173092104
10.02171866280296 -0.8767867720414402
10.035494345613833 -0.7017501258658994
10.046213119631012 -0.5264997198040157
10.053871719812104 -0.35108893682716025
10.058467813273296 -0.17557120875907237
10.06 0.0
10.108460198031116 0.17644382908093653
10.153810802514013 0.3545788864974104
8.548268817499153 0.44799578543959984
7.691218827503245 0.5378224125672069
6.833895628909374 0.5978883952489359
6.175980970236977 0.6491217568921289
5.617811218289884 0.6897804836731345
5.060269831269425 0.7111745459059343
4.750780918262612 0.7524497768435104
4.392242578434447 0.7744708723945094
4.427138597348964 0.8605485691482173
4.4114456793094625 0.9376817255880948
4.2482534824636256 0.9807865969392519
4.036430221308145 1.0063950856946182
4.047229212151196 1.0844517989795628
3.998848655103407 1.1466514001987163
3.978227784806228 1.2162662916465847
3.6710781528992924 1.192805598287297
3.4605979866934997 1.1915794453131936
3.3453057299978335 1.2175917102393807
2.4833239344825566 0.953258745790499
2.280872282234297 0.9215322198031438
2.2184166968203813 0.9416620196591501
2.155967280036538 0.9598984776588887
2.0029402093509963 0.9339863584469457
1.9683589613951755 0.9600328114680798
1.9067539617631075 0.9715396694426303
1.845360469075157 0.981195566222512
1.7404932172073975 0.9647711442902107
1.680089283341811 0.9699999999999996
1.6629045633620976 0.9991738653255052
1.602810901735645 1.0015474094007573
1.5012203166223088 0.9749038726768987
1.4839772548735248 1.0009552972126368
1.4253245570628454 0.9980229992508205
1.3672387204936611 0.9933570763742796
1.3496940119799246 1.017067389126962
1.2923376359150238 1.0096848195340795
1.235662078716584 1.0006194217692412
1.218010664559175 1.0220322994015976
1.162252753543069 1.010330904645381
1.1072857899613173 0.9970046034746989
1.0897170154125642 1.0161775564931228
1.0358493124876573 1.000308053460956
1.0182337649086284 1.0182337649086284
1.0003080534609559 1.0358493124876578
0.9479777204868728 1.0165816452506469
0.930091542838813 1.0329713074135778
0.8791190988472798 1.0113108374985145
0.861335396979963 1.0264995537794306
0.8432893240067821 1.041375588352341
0.7942033031700994 1.0165338721526713
0.7763413798661422 1.030239807961008
0.7288537128426666 1.0031810730249349
0.7112347810752969 1.01574853491835
0.693399200303726 1.0280065899682518
0.6753524034186337 1.0399515042523257
0.6306039244375138 1.009177234426147
0.6386472128884673 1.0628874528706191
0.5949999999999999 1.030570230503482
0.5769234480931411 1.0407974514958809
0.5586711597152099 1.050707635502123
0.5402486946900608 1.0602977637841577
0.499743107339548 1.0246252127810502
0.5155942793236533 1.1056955001847129
0.4840166052602024 1.087119094594695
0.445433486477772 1.049375532935782
0.42705151649413986 1.0569895942061374
0.3906210650043772 1.01760266488195
0.4001635676910325 1.0994403663195127
0.38091474071487313 1.1062567334512006
0.35227937358744005 1.084204428576475
0.31868515814778287 1.0423721839997089
0.3087138385150391 1.0766130994509173
0.2898773305148235 1.0818369254437565
0.2709525230716278 1.086731213429116
0.25194518086512896 1.0912944725594635
0.23286109371589037 1.0955253128218625
0.21370607482173032 1.0994224454613837
0.18580355010361535 1.0537442957230627
0.17520660084505865 1.1062109414665544
0.1558738730752731 1.109100236990559
0.1304001974435078 1.0620243822562145
0.11707187885977213 1.1138645228124662
0.09761443187737713 1.115738061862755
0.07463942690621424 1.067393533778012
0.05704619230480869 1.0885061928824855
0.09667160586592799 2.7683125908428954
0.049739358346257624 2.8495659311957153
