# .PCD v0.7 - Point Cloud Data file format
VERSION 0.7
FIELDS x y
SIZE 4 4
TYPE F F
COUNT 1 1
WIDTH 180
HEIGHT 1
VIEWPOINT 0 0 0 1 0 0 0
POINTS 180
DATA ascii
3.306546357697854e-17 -0.54
0.009424299476133144 -0.5399177553844513
0.020590703054475638 -0.5896405879412665
0.030878214183336937 -0.5891914255051985
0.03906362529671026 -0.5586358681455016
0.048807215938688565 -0.5578690309313775
0.0637623625932686 -0.6066583561746467
0.07434029947713997 -0.6054531525012063
0.08489559158563993 -0.6040635219323579
0.09542502367454087 -0.602489887763034
0.11460779726017407 -0.6499731169880574
0.11639348717969239 -0.598792581903075
0.12682613139883325 -0.5966700364476214
0.1439686747800737 -0.6235968414625506
0.15966845109578068 -0.6403951793421577
0.1708205697676637 -0.6375110453507851
0.18192065483921946 -0.6344327193192905
0.1929653251170063 -0.6311611389356034
0.21940206600621268 -0.675250126569559
0.2311533896645813 -0.6713181886755148
0.24283430176122486 -0.6671817607579948
0.25444124417716324 -0.6628421028130133
0.2659706813252976 -0.658300536742419
0.27741910122738433 -0.6535584459512326
0.2887830165838183 -0.6486172749262465
0.3211898789229316 -0.688793918147854
0.311243514220245 -0.6381437728724085
0.3450327798020556 -0.6771649583831596
0.38027196585657164 -0.7151875502157308
0.3684553113872162 -0.6647109774259408
0.4049999999999999 -0.7014805770653953
0.417180840677144 -0.694305513568711
0.429234604028896 -0.6869189578867051
0.4139256666114206 -0.6373896316385222
0.4417623937418901 -0.6549396823184829
0.46459691344434734 -0.6635131558740834
0.5054953169715269 -0.6957546151624548
0.5175609199107615 -0.6868265386406718
0.5602519425463491 -0.7170897857821169
0.5726815558553521 -0.7072028249258435
0.5849367248147508 -0.69710044323827
0.5970137163813617 -0.6867857180027226
0.575452321468618 -0.6391045499105591
0.6547184256599986 -0.7020995535544035
0.6668720356406374 -0.690566208325105
0.7141778489984131 -0.714177848998413
0.7265331983420377 -0.7016049541635873
0.7386672386353623 -0.6888183436631234
0.7505762737321683 -0.6758219124224467
0.837727634047277 -0.7282255221794631
2.2674915516321748 -1.9026513246721561
2.300352045912634 -1.8627883575075186
2.371912368356233 -1.853141040730231
2.443824660744716 -1.8415539708452677
2.8396496502560655 -2.0631262355465805
2.1379868355942686 -1.49703449887623
2.039432428485403 -1.375614542538037
2.021196068748472 -1.312580074386215
2.043795911736987 -1.2771054268020239
2.065773194692091 -1.2412417605332302
2.087121223120497 -1.205
2.0641025088489737 -1.1441507037813554
2.0837563191470676 -1.1079528881747023
2.05822507087513 -1.0487180543983532
2.076214246951076 -1.012637349082769
2.0935709880546614 -0.9762481846210156
2.137696370883686 -0.9517637447973722
2.1079561144060883 -0.8947742842404367
2.002717125864261 -0.8091502417783698
2.1098917638836756 -0.8099115659723787
2.3116438471333343 -0.8413695525811452
2.5150794110941828 -0.8660112908560369
2.7675744624188967 -0.8992394536310969
3.069738266641344 -0.9385131721599849
3.422091637540415 -0.9812689867085168
3.8250662721047104 -1.024923418605982
4.036430221308145 -1.0063950856946173
4.004660966267317 -0.9245488333532846
4.020186639015941 -0.8545170492609911
4.083569083142282 -0.7937654207664266
4.047559864880175 -0.7136940102110838
4.059399079846017 -0.642945651315349
4.070001762527855 -0.5720014449458689
4.0297373756637676 -0.4947895342248985
10.054616362173242 -1.0567827636359757
11.167342565608468 -0.9770158762012471
11.13281480089964 -0.778482246984437
11.144705607861043 -0.584069271671254
12.652287870061752 -0.4418276282536629
10.308429737062394 -0.17993431036839327
10.31 0.0
3.6094501795145724 0.06300318723859356
3.3079836374332072 0.11551733408527837
3.3054637600376395 0.17323201516414433
10.434519965717762 0.7296527153635517
2.9487363063515666 0.25798099853306855
2.8940587155216755 0.304177828108872
2.937936608858313 0.3607332564792364
7.139832775626722 1.0034380579220716
3.8618614117269887 0.6116587583073028
3.7521175389765125 0.6615995569110047
3.7399995689355996 0.726982272384636
5.58522280019003 1.1871757545694062
3.371320424156914 0.7783306480297731
3.3572232129149477 0.8370497587748508
3.82506627210471 1.0249234186059828
3.662407061524995 1.0501783256627666
3.50007540682471 1.0700804392852163
3.3382083721959885 1.0846496502560652
3.2242183427936704 1.1101874066989044
3.1103825748013567 1.1320866744079636
2.9501141477311577 1.132442720563149
2.8835417877027085 1.1650265055234867
2.7246943662192233 1.1565641403282507
2.6584172817399687 1.1836036313505789
2.5467248815729864 1.1875573154913652
2.4357318654707423 1.1879858077984002
2.414627680550477 1.2303142542941718
2.260345837718853 1.201847200731881
2.1515644795629134 1.1926316658059892
2.130422493309719 1.2299999999999995
2.0229148296569845 1.215489856787728
2.0013935069291655 1.2506094635903635
1.9792625403512003 1.2853481226354642
1.9150767926021464 1.291735607017425
1.8103260178786715 1.2676039243358121
1.7474767078498865 1.269616144951742
1.7250527017021524 1.299920450008425
1.6627026901101831 1.2990457129371389
1.6009206806013603 1.2964000055626648
1.5780515528250947 1.324142475954271
1.5169662562477715 1.3186786482709192
1.4565638579356925 1.3114959884633623
1.4334532551735744 1.336716785722497
1.3739390186468232 1.3267974875766848
1.3505739520663058 1.3505739520663056
1.2920645690537347 1.3379720286298915
1.2685169497162472 1.360317885011657
1.2445829278274767 1.3822493753879532
1.154663891023293 1.3282888611920787
1.1313061930483095 1.3482382198894014
1.1390699078002058 1.4066341902371173
1.1143472703394417 1.4262994640281668
1.0291036895900023 1.365666722180871
1.005112781420129 1.38341906038116
0.9808157061602886 1.4007499957341762
0.9282602197614397 1.3762023704413693
0.8768688463741938 1.3502596143921326
0.869067593342456 1.3907988776965385
0.8292113006051874 1.3800393541304008
0.8049999999999998 1.3943009000929465
0.7563030075842859 1.3644067431374574
0.7323756379459895 1.3773982448599262
0.7082251795936931 1.389970177733854
0.6838589889909605 1.4021187122267007
0.6381535752284562 1.3685247584253415
0.6141723310444586 1.379453641040327
0.5900040040188033 1.389962328713185
0.5581638241897091 1.381503943304513
0.5232172063361382 1.3630274226859145
0.4993494092554765 1.371951226347426
0.4753295055074485 1.3804571203750025
0.4604353216186717 1.4170742092797788
0.4210152548007406 1.377078848586771
0.41069966016732873 1.4322799269480952
0.3726994249476302 1.3909331898562582
0.3483675296635214 1.397225845837435
0.3239295182551658 1.4030928932907387
0.2993928347775733 1.4085325450566801
0.26522450357339744 1.364461784992253
0.2535263393937181 1.437819319397824
0.7055194373314414 4.4544744160840715
0.6346293403778974 4.515622393461561
0.5679111402679873 4.62526506664856
0.4871026388272662 4.634472032416154
0.41050354834146985 4.692077028012122
0.33204081502203714 4.748404879236763
0.3747254466994772 7.1501874688427485
0.24988039638990775 7.155638321456726
0.12583185041281314 7.208901882077581
