# .PCD v0.7 - Point Cloud Data file format
VERSION 0.7
FIELDS x y
SIZE 4 4
TYPE F F
COUNT 1 1
WIDTH 180
HEIGHT 1
VIEWPOINT 0 0 0 1 0 0 0
POINTS 180
DATA ascii
1.175660927181459e-16 -1.92
0.06387580756045798 -3.6594425642723922
0.13471205727165417 -3.8576485922937094
0.20201679109776371 -3.854710004152655
0.26925998865232426 -3.850597234002921
0.3625678898302579 -4.1441699440616615
0.4348384071934384 -4.137211084732017
0.513069935735671 -4.1786192984099655
0.5859187550418756 -4.169028569402011
0.6585890978193721 -4.15816791390553
0.731058827977777 -4.146040640181396
0.803305870535254 -4.132650442314666
0.8753082183427673 -4.118001399089321
0.9582914915048655 -4.150816475985102
1.0305872752545842 -4.133459793935745
1.1155100843918644 -4.1631403113058845
1.1742151357804165 -4.094974824697238
1.2455034621188585 -4.073858260402531
1.2546089971622865 -3.861289456158323
1.2566930762046251 -3.6497017018133624
1.2688947317382313 -3.48625962311572
1.3223777338221583 -3.4449117737746744
1.389790461573034 -3.439852100442781
1.4496124866952054 -3.4150730063085537
1.5293297779650092 -3.4349309207361785
1.5890446641450298 -3.4077172792578034
1.6701940692663853 -3.424405316399826
1.7524033289946508 -3.4392851833671
1.7652130760749496 -3.319882949149565
1.3138340708675735 -2.3702194063477626
1.3299999999999998 -2.3036275740666072
1.3442493755152416 -2.2372066548325127
1.3565933164370045 -2.1710031261604503
1.367043977887718 -2.105063125543014
1.3756145425380373 -2.0394324284854024
1.382319211606021 -1.9741564267364704
1.3871731954102364 -1.909280106724876
1.4804649569540387 -1.9646433547163404
1.5453103030674025 -1.9779069915528718
1.6110602010875839 -1.9894936613298455
1.7098150417661948 -2.0376782186964815
1.7779199685642746 -2.045262962403712
2.014083125140163 -2.2368659246869567
2.086914981791246 -2.2379423269546614
2.1603875321274812 -2.2371467790532047
2.269812767608818 -2.2698127676088173
2.345047749104003 -2.2645862876963307
2.9327283434928737 -2.7348134238506185
2.9428535088904817 -2.649757201181078
2.9131789796598997 -2.532387851903358
2.9186293282833065 -2.4490207929057144
2.7666396227868164 -2.2403805921374214
2.765917745159594 -2.16097177839306
1.1660078446690476 -0.8786499338019904
1.140713962068676 -0.8287772057323871
1.1550043824474783 -0.8087427752549748
1.1689429773026088 -0.7884619938937529
1.1405919724057767 -0.7407090876204367
1.1533454107727394 -0.7206901993571587
1.1657475289548729 -0.7004517818776735
1.1344932789576145 -0.655
1.1457518163526084 -0.6351006025227016
1.1566613466451945 -0.615007747249517
1.1226682204773435 -0.572028029671829
1.1774202006519088 -0.5742662022936914
1.141947811666179 -0.5324990097932812
1.1510672766296772 -0.5124881702755082
1.159836115350075 -0.4923212218964848
1.168251656754152 -0.472004307704049
1.15763972885653 -0.4443762574361724
1.1182342187352308 -0.40700397055754584
1.1724430337431528 -0.4037045115268743
1.0556727330876206 -0.34300886375619166
1.0136830413208178 -0.30991400700610094
1.018937397694618 -0.2921755971660191
1.1687702498097727 -0.31317104457405004
1.2225726151077556 -0.3048215884555812
1.2764247848686583 -0.29468588119046296
1.3302807369979757 -0.2827598995121528
1.4822570470059726 -0.28812158301858276
1.6840212576508757 -0.2969383838104509
1.7383314794474425 -0.27532465847080634
1.8914120112963992 -0.26582062283372493
2.143899687545256 -0.26323778175511847
2.4465238626059524 -0.2571400196384273
2.799307101637805 -0.24490763712091917
3.002667791282071 -0.20996698596981678
3.7548470506771974 -0.19678319547346906
4.657161253908987 -0.16263165463365475
6.159061802163371 -0.10750682365366658
6.26 0.0
12.408109896890815 0.2165843638866887
12.302501080605069 0.42961280440778754
12.442924003041991 0.6521060147870811
14.724045381835005 1.0296055524632908
14.654024008929579 1.2820609758180534
14.6294170808673 1.5376136946671848
12.565634279779138 1.5428658875091665
7.8825338271829 1.1078178836421206
6.775542016482645 1.0731404301759837
5.672492657350318 1.000213503361519
5.212440344107096 1.0131957654494532
4.655982579492914 0.9896596482925347
4.150816475985102 0.9582914915048653
3.8908858623667455 0.970106801354668
3.9216588547336166 1.0508053231162349
3.950785570306491 1.1328695324078664
3.3566296934302544 1.0262246835768059
2.7675744624188967 0.8992394536310969
2.6096312686541143 0.8985681063017524
2.5465670023298115 0.9268745884125623
2.3899658918328366 0.9174219508359689
2.280872282234297 0.9215322198031438
2.126366211475137 0.9025889068102226
2.064612734272278 0.9192248133513087
1.9123094306473312 0.8917245322728756
1.8964554376912421 0.9249631197249536
1.835473439828038 0.9352204294634664
1.7305772820034966 0.9201642630603463
1.6267926552792762 0.901745893658187
1.5675059808498342 0.9049999999999997
1.5086144492357174 0.9064670118416955
1.4501622444274886 0.9061619418387804
1.3921931427894036 0.9041007981249451
1.3347504918136173 0.9003005745879024
1.3188347913052767 0.9234580625251846
1.2216156615061706 0.8875557309616344
1.205939620171412 0.9087406849595933
1.150495700265814 0.8988657539754611
1.1734904018000263 0.9502737904852543
1.0801226647977589 0.9063305296580204
1.02640502910297 0.8922402794270898
0.9735197213753863 0.8765610943301044
0.9580733491211135 0.893417851681873
0.9063681484267002 0.8752695467783367
0.8909545442950499 0.8909545442950498
0.8752695467783365 0.9063681484267007
0.8593179336787481 0.9215056640401548
0.8431045640121615 0.9363624801015166
0.8266343765280392 0.9509340710806927
0.7777730077207128 0.9269137761739634
0.7614776731703032 0.9403466133629348
0.7141673113777637 0.9140924741837974
0.7281961780139783 0.9663489671572244
0.6818308926592688 0.938459713474939
0.636669844349661 0.9092587691607811
0.5927444776789916 0.8787798269083443
0.5936565481663797 0.9141509190605122
0.5882103832988574 0.9413333867336329
0.5459403594046576 0.908597338744239
0.5549999999999999 0.9612881982007271
0.5138981974611173 0.9270968895677595
0.47416627841374953 0.8917770687875163
0.4812299297239197 0.94446691563967
0.44275485825696803 0.9077819867621587
0.4268444443581064 0.9153708649070165
0.4108040095065584 0.9226809122190268
0.37510188334970274 0.8836846593143427
0.3783526593500713 0.9364556931124552
0.34403323156348814 0.8962372094373137
0.32833933759264206 0.902104915954472
0.29626702055601245 0.8604219037953783
0.29665631459994957 0.9130142556433474
0.2748294024393723 0.8989264706052533
0.25082999379346926 0.8747481433038702
0.2484662832984201 0.9272887932375055
0.2201489249956976 0.8829691109111568
0.2047054594529173 0.8866767589545641
0.17880405410327294 0.8412069366310729
0.16409573602382863 0.844199377764991
0.14933743279356 0.846934667590499
0.1345336399345986 0.8494119729118185
0.12664752187365938 0.9011439425548291
0.10480763532842684 0.8535896904115369
0.09303033230821177 0.8851244868777632
0.07321082390803284 0.8368035463970662
0.05859543794506538 0.8379538022182523
0.043962203244072746 0.838848809193842
0.029315577230100906 0.8394882946960404
0.014310973278572368 0.8198751100282408
