# .PCD v0.7 - Point Cloud Data file format
VERSION 0.7
FIELDS x y
SIZE 4 4
TYPE F F
COUNT 1 1
WIDTH 179
HEIGHT 1
VIEWPOINT 0 0 0 1 0 0 0
POINTS 179
DATA ascii
2.27171981241834e-16 -3.71
0.058640085629272885 -3.3594882557254744
0.10853743474477835 -3.1081054720293877
0.14706403704267254 -2.8061489926603524
0.18206439647216743 -2.6036421711781412
0.214403127159239 -2.450638957305694
0.2414607501482795 -2.2973455783007113
0.2632377817551186 -2.1438996875452556
0.27973793292973154 -1.9904388181705561
0.298789828226841 -1.8864847305367132
0.3143032015771441 -1.7825020329520966
0.33200765195518817 -1.7080312991989353
0.35137075748201346 -1.6530694452401313
0.36891972912393883 -1.5979669062477857
0.37255971922348824 -1.4942554184650345
0.3856403772027559 -1.4392294811707118
0.3831359245856288 -1.3361537573542632
0.4063966695646041 -1.329263610788619
0.4140827724624296 -1.2744157318355058
0.41998291924973224 -1.2197189625231186
0.4070039705575459 -1.1182342187352308
0.42645785995890745 -1.11096070753167
0.42705151649413986 -1.0569895942061374
0.445433486477772 -1.049375532935782
0.4636797731064124 -1.0414418217125647
0.46065390529736244 -0.9878754878699485
0.4690571270643129 -0.9617096295401086
0.4857698347213152 -0.9533769808815538
0.5023345721809033 -0.9447539243590518
0.5429867746758976 -0.9795740719961233
0.5699999999999998 -0.98726896031426
0.5613915016519592 -0.9343123577653024
0.6041079612258535 -0.9667748296183255
0.6481204516678822 -0.9980179758550545
0.6654395551301888 -0.9865547113404994
0.6825559592577448 -0.9747909327039002
0.7288537128426666 -1.0031810730249349
0.7462506287085399 -0.9903080324586431
0.7634202294038164 -0.9771333344723352
0.8432893240067821 -1.041375588352341
0.8613353969799628 -1.0264995537794306
0.8791190988472798 -1.0113108374985145
0.8966350125208701 -0.9958140661397084
0.982077638489998 -1.0531493303316053
1.000308053460956 -1.0358493124876575
1.053589103967956 -1.0535891039679557
1.107783292521523 -1.069773890506856
1.1628523855744812 -1.0843773924993727
1.181600272509057 -1.0639176641105845
1.237723711565346 -1.0759368075444318
1.294615108871073 -1.0863110603702513
1.3522339729351294 -1.095017480426717
1.4105392489560324 -1.102034040832928
1.5094211139893834 -1.137430393757371
1.569492969087398 -1.140303389447398
1.6301125681350936 -1.1414171083385816
1.6663655208356336 -1.1239777359762009
1.8115284267621161 -1.1764203156324584
1.9165886973135227 -1.197617537167043
1.9800564646218795 -1.189737953042225
2.087121223120497 -1.205
2.1952954649198833 -1.216872146818306
2.3927879766476923 -1.272267935149764
2.548278659178732 -1.2984128292551038
2.750309781675451 -1.3414157091745769
2.8639326070358138 -1.3354737071006102
3.1608672834433995 -1.4073087850422685
3.4150730063085537 -1.4496124866952054
3.671648064084478 -1.4834421099270112
4.023731638202939 -1.5445658625402443
4.425952243901628 -1.6109148750639
4.926151778872441 -1.6962100847217865
5.8109553145633885 -1.8880938356309287
6.129913485723058 -1.8741026272727423
7.843895438856682 -2.2492008234667127
7.833658451204344 -2.0990224557814425
12.871428555812958 -2.9716034278824552
12.87242242565688 -2.7361178511617137
20.869393920097338 -4.056599241705344
19.26283964891879 -3.3965583551651575
19.319183942040894 -3.0598581361869157
21.449206368942413 -3.014489366795017
11.027187744735087 -1.353968405231188
7.916394287131455 -0.832046567610521
6.136559340245153 -0.5368793753255737
6.095116347087527 -0.4262120545766049
6.151557934088175 -0.3223894904565345
6.15624749443763 -0.21498089968740627
6.159061802163371 -0.10750682365366658
6.21 0.0
6.359031341194648 0.1109973049411233
4.707130795259941 0.1643766294687798
4.40395624826767 0.23080156703138263
4.050110044054886 0.2832112834011491
3.7955017997295504 0.3320633798685781
3.6200596991405147 0.38048360629425915
3.5632406843923463 0.4375109428244793
3.6045757702193164 0.5065900874946381
4.207552330935287 0.6664108210713835
4.244521415482616 0.7484236457444697
4.2798945198318155 0.8319272198417357
4.118001399089321 0.8753082183427671
4.10209797274584 0.947043938787672
4.133459793935745 1.030587275254585
4.1148440199914305 1.102569132136739
4.143037909494154 1.1879970035712661
4.1694887359988355 1.2747406325911321
4.14660641104687 1.3473140954747707
1.8815819654426404 0.6478806273697418
1.823003684324662 0.6635190780517974
1.7177879847548512 0.6593970271633526
1.7060182924028888 0.6892761318852784
1.601678445007246 0.6798721635713365
1.5895690962981255 0.7077217589518926
1.5316601600919384 0.714224862341782
1.4740222359306336 0.7189286807340872
1.416700373459505 0.7218448945858794
1.3597392930027474 0.7229862066902721
1.3469143489946696 0.7466068151793591
1.2903778516388136 0.7449999999999998
1.2343209130110415 0.7416548278704781
1.1787868536574322 0.7365877772841548
1.2076856178414104 0.7842802104216391
1.1523622258515078 0.777278135824338
1.097663739347249 0.768592424710402
1.0840827724624296 0.7876322380719141
1.0302398079610076 0.7763413798661426
0.9771333344723352 0.7634202294038163
0.963660992206644 0.7803572849017982
0.9115928873115838 0.7649172555269818
0.9358398794762373 0.8135131959482289
0.8843423423180989 0.7962654215670414
0.8337432198458544 0.7774781304712481
0.8200473723860621 0.791910542323257
0.8061017305526642 0.806101730552664
0.757177623800307 0.78408038236913
0.7774781304712481 0.8337432198458542
0.7293523609311556 0.8100278597703596
0.7479072930491782 0.86036892145396
0.7327778750426549 0.8732906651556349
0.7803572849017983 0.9636609922066439
0.7634202294038164 0.9771333344723352
0.7763413798661422 1.030239807961008
0.7876322380719141 1.0840827724624296
0.7972712465279538 1.1386213415616986
0.8052377809978754 1.19381410447926
0.8115121621723905 1.2496191462386816
0.8160756669191356 1.305994068080896
0.8292113006051874 1.3800393541304008
0.8299999999999997 1.4376021702821682
0.8532649316335533 1.5393306845653365
0.8732171067817567 1.6422825227176043
0.8671218545025344 1.7018224611997825
0.9030445623854991 1.851515735376284
0.9128554453599108 1.957624819999164
0.8785511490437289 1.9732581885080178
0.5509308911698759 1.2979118433679409
0.5207031648481178 1.2887855578478342
0.4981314498679672 1.2976767928311104
0.482248402089193 1.3249665953081307
0.4753295055074485 1.3804571203750025
0.6520258581311391 2.006729249382774
0.6256754481066562 2.046492177760896
0.5898639414483783 2.0571000293080024
0.4166986626150588 1.5551405803254
0.3604636244435048 1.4457406321512347
0.33517707097235905 1.4518113965300006
0.2993928347775733 1.4085325450566801
0.2843054031110519 1.4626245033370193
0.26220874827706464 1.4870597070484344
1.1904662789561573 7.516308271928999
1.0660659533540997 7.585453406560429
0.6654066149921053 5.419301987961618
0.5759518326047718 5.479815643479186
0.5238060139134254 5.98713013553139
0.5447980599416198 7.7909752325292265
0.40612702044524346 7.749365189695493
0.27082009441140836 7.755272817668183
0.14764735845941737 8.458711501023071
