# .PCD v0.7 - Point Cloud Data file format
VERSION 0.7
FIELDS x y
SIZE 4 4
TYPE F F
COUNT 1 1
WIDTH 173
HEIGHT 1
VIEWPOINT 0 0 0 1 0 0 0
POINTS 173
DATA ascii
9.919639073093561e-17 -1.62
0.02827289842839943 -1.619753266153354
0.0582821594931768 -1.6689826811218897
0.08740104692571642 -1.6677113230401381
0.1164933111526895 -1.6659319639339063
0.14555009038858907 -1.663645145813215
0.17456253365698127 -1.6608515652650164
0.2035218034865963 -1.6575520732410076
0.23241907860330932 -1.6537476747984223
0.2612455566171856 -1.6494395287938801
0.28999245670377377 -1.6446289475303872
0.31865102227883 -1.6393173963575989
0.34721252366565825 -1.6335064932254553
0.38691581347144804 -1.6759165114306045
0.4161056604314284 -1.6689086491947138
0.44516875757633567 -1.6613924212171975
0.4740962520052385 -1.6533701170139086
0.4941081809814251 -1.6161550375775298
0.546960080043657 -1.6833700338424218
0.5664885887554527 -1.645202321542811
0.5951150493866637 -1.6350651601674804
0.6343112706951817 -1.652437354900047
0.6705458022144828 -1.6596590996745493
0.6994087199958 -1.6477036876798683
0.7280585911056827 -1.6352463691802555
0.777617601602887 -1.667606328147436
0.8066029100919025 -1.6537810451904673
0.8126429945337889 -1.5949016782971785
0.8638276755260392 -1.6246235708604255
0.8920497012532603 -1.6093002611364882
0.9449999999999997 -1.6367880131525891
0.9734219615800025 -1.620046198326992
1.0280433726124174 -1.6452133065434662
1.0729388989796034 -1.652181018852485
1.1016100198373713 -1.633204017933432
1.1528886370656024 -1.6464956090208733
2.1424614824212918 -2.8431424157683627
2.1301887046267782 -2.7265172074792576
2.2089145725849293 -2.7277823247139676
2.9564865793918567 -2.855045902586479
2.8961606584119153 -2.700713505847494
3.017167991438221 -2.716670261816964
3.1395918537267318 -2.7292055606005103
3.1101404390630503 -2.6097176953273493
3.116355305442453 -2.5235747681098477
3.1599231219629553 -2.4688025160558893
3.122664844284915 -2.3530967405245087
3.122805598287297 -2.2688510738489462
3.1209692887410587 -2.1853262224974856
3.1171812728069566 -2.102565317050008
3.1114678070775232 -2.02061081990575
3.1038560319325197 -1.93950450709353
2.9657988604293086 -1.782031739188787
2.9098453567157136 -1.68
2.9824532013453395 -1.6532008050400095
3.14329343057778 -1.6713187635177713
3.4838355095765188 -1.775102853981628
3.4244053163998265 -1.670194069266385
3.5436634473133015 -1.6524374034061347
3.57196273938257 -1.5903402744263786
3.599173976999042 -1.52775871239306
3.5789296786277993 -1.4459814505854198
3.650299467604059 -1.4012186827221242
3.627213516233606 -1.3201977532370814
3.602425773033397 -1.240414668481767
3.623525327084535 -1.1773547485685496
3.5957058824210133 -1.09931760975749
3.566280891931163 -1.0226145900810666
3.5835848155324435 -0.9602186573303517
3.5512823581701474 -0.8854341378947835
3.517475933874699 -0.8120733061813521
3.5800202186857284 -0.7609567883929994
3.5927554914184503 -0.6983609230781542
3.5551559883740707 -0.6268699213776185
3.5655549095484473 -0.5647284187952334
3.574867728157069 -0.5024148944658361
3.583091607425173 -0.43994832969258224
3.5902240422794662 -0.3773477523962287
3.546453125206614 -0.3102744441816627
3.5513280189249747 -0.24833304652908564
3.555121143726283 -0.1863160042248803
3.557831344187981 -0.12424220826090362
3.559457794756753 -0.06213056691672939
3.56 0.0
3.44947454828955 0.0602108022086282
3.4678861697562624 0.12110125355767853
3.545134848378737 0.18579264466245085
3.5912305809353673 0.2511233054788514
3.646072595015789 0.3189900184564294
3.6399501370478804 0.3825741755596122
3.632718915007239 0.4460417968628396
3.6243811315941477 0.5093735495138394
3.614939326578204 0.572550142047245
3.6536367636752916 0.6442347391443116
3.6418368505908334 0.7079013728469814
3.6289275987224188 0.7713523729338874
3.663631443592484 0.8458159643329327
3.5512823581701474 0.8854341378947843
3.53528852421799 0.9472777050752266
3.5182178071342474 1.0088327222902167
3.4522601690265584 1.0554618540490794
3.623525327084535 1.1773547485685496
3.649701701813363 1.256693076204625
3.627213516233606 1.3201977532370814
3.6036204462791988 1.3833002852448593
3.6252888713561386 1.4647117802562164
3.6451992196716634 1.5472952688175245
3.6176400122646992 1.6106771065801693
3.634294226016966 1.6946992295802044
3.6491038279746175 1.7797868559636547
3.6174864882047735 1.8432014289425598
3.5847672270072426 1.9060545449107171
3.6384179816998863 2.016808020224762
3.645966949932487 2.104999999999999
3.6086743359558926 2.1683102953713282
3.697489699242018 2.3104479920567735
3.6566036762420486 2.3746261926655188
3.614603816339982 2.438081059132456
3.653418117528903 2.5581509061256664
3.648666644631013 2.650911487839054
3.60184615031329 2.7141857544157384
3.553928498766316 2.776633253718719
1.1734904018000263 0.9502737904852543
1.0648017759353794 0.8934747774642896
1.071687603916336 0.9316038211665201
1.0329713074135778 0.930091542838813
0.9800139601696887 0.9138778024837481
0.9639153324537924 0.9308422164150565
0.9475230867899738 0.9475230867899737
0.8961092978921064 0.9279483424368602
0.8456779664774982 0.9068785900077714
0.8297219518849843 0.9214995835919687
0.813513195948229 0.9358398794762373
0.764917255526982 0.9115928873115838
0.7300116536178113 0.9014893152900861
0.7141673113777637 0.9140924741837974
0.7281961780139783 0.9663489671572244
0.7112201552738925 0.9789105631936864
0.7227063098023179 1.0321315758041298
0.7213588454772634 1.0694584685960038
0.6753524034186337 1.0399515042523257
0.657099887649174 1.0515796392339682
0.6386472128884673 1.0628874528706191
0.6199999999999999 1.073871500692704
0.5769234480931411 1.0407974514958809
0.5351975815759152 1.0065602558591766
0.5175491697030834 1.0157474375747393
0.499743107339548 1.0246252127810502
0.4817848183843973 1.0331908772217808
0.4636797731064124 1.0414418217125647
0.42589693005330836 1.0033502902631601
0.42705151649413986 1.0569895942061374
0.3906210650043772 1.01760266488195
0.3899029633912624 1.0712495876959354
0.35486928835830067 1.0306152474032555
0.3368285238686927 1.0366516027617174
0.31868515814778287 1.0423721839997089
0.3004447178405291 1.0477752485727676
0.2821127591617479 1.0528591506550844
0.2515987714236544 1.0091075553270363
0.23394909651761975 1.0133448673766448
0.2162281584504696 1.017273504763158
0.20798180496043397 1.0699736299579539
0.18580355010361535 1.0537442957230627
0.17051356689385172 1.0765802912487001
0.1489152180272698 1.0595868335534804
0.1304001974435078 1.0620243822562145
0.11184545569638944 1.0641384280440525
0.09325664473999422 1.0659283269581679
0.07463942690621424 1.067393533778012
0.05599947317994981 1.0685336021873941
0.0355974866365511 1.0193786435594776
0.018674074887893213 1.0698370338173386
