# .PCD v0.7 - Point Cloud Data file format
VERSION 0.7
FIELDS x y
SIZE 4 4
TYPE F F
COUNT 1 1
WIDTH 177
HEIGHT 1
VIEWPOINT 0 0 0 1 0 0 0
POINTS 177
DATA ascii
3.061616997868383e-17 -0.5
0.010122395733624487 -0.5799116631907069
0.019194723186375596 -0.5496649548605027
0.0303548546209075 -0.5792051301576527
0.04045875477159276 -0.578587149150698
0.046192543656258814 -0.5279831899886251
0.057490654797209405 -0.5469870424525504
0.07068421917498553 -0.5756767679519668
0.07654520552803601 -0.5446474378078637
0.08603895577212702 -0.5432285873273258
0.09203353416347312 -0.5219481090964703
0.09540449768827246 -0.490813591723832
0.11435142994976771 -0.5379811804035931
0.12372307988912584 -0.5359035356318794
0.13305704257981724 -0.5336626494517981
0.12940952255126037 -0.48296291314453416
0.15160054569934955 -0.5286939327660755
0.14618585236136838 -0.4781523779815177
0.1699593469062211 -0.5230810839623344
0.17906248495143623 -0.5200352165796243
0.18811107882911787 -0.5168309414322496
0.19710237224991523 -0.513469234573461
0.20603362637875172 -0.509951120011733
0.23443867709356422 -0.5523029120714642
0.22370515369169022 -0.5024500017034305
0.2324400439573847 -0.4984692828701575
0.2630226880734465 -0.5392764277795001
0.2723942998437281 -0.5346039145130207
0.2816829376715345 -0.5297685557153561
0.29088577214780226 -0.5247718242836374
0.29999999999999993 -0.5196152422706632
0.30902284494603255 -0.5143003804212674
0.3179515585399229 -0.5088288576938556
0.32678342100901625 -0.5032023407672543
0.3355157420824481 -0.49742254353302495
0.37282468362817994 -0.5324488287878447
0.3526711513754839 -0.4854101966249684
0.3911797650488314 -0.5191130815307403
0.40017995896167796 -0.5122069898443693
0.40905825418239433 -0.5051448749470311
0.4178119462962506 -0.4979288880273357
0.45924132029335507 -0.5282967061559404
0.43493489413325787 -0.48304413656030626
0.4432989340406241 -0.4753799060524607
0.48626085932129803 -0.5035378602370557
0.4949747468305833 -0.4949747468305832
0.5035378602370558 -0.48626085932129803
0.5119475911334194 -0.4773988520437489
0.520201377834176 -0.46839142445120063
0.5282967061559404 -0.45924132029335507
0.5362311101832846 -0.4499513267805774
0.559545092249019 -0.4531106815558829
0.5279672049165037 -0.412493188468191
0.5350857917316862 -0.4032160655118724
0.5824922359499621 -0.42320538165058064
0.5734064310022943 -0.4015035054457322
0.5803263007885292 -0.3914350324295227
0.6038428089207053 -0.3921401052108194
0.6105946292326268 -0.38154187024790753
0.6600188215406265 -0.3965793176807416
0.6668395609140177 -0.385
0.6822033715687287 -0.3781515037921429
0.6798696465013738 -0.3614931033451359
0.668254893141276 -0.3404928748046601
0.6740955347243753 -0.32877836009180805
0.7431723853700529 -0.3465469746273735
0.7947845481490629 -0.35386087947594613
0.8008392225036232 -0.3399360817856681
0.8066499534731051 -0.32590773627184333
1.138968120326586 -0.4372088984452664
1.1934096283981035 -0.4343655820235993
1.2480845197910984 -0.4297499638834469
1.350500253139118 -0.4388041320124253
1.3579527534675104 -0.4151678207062861
1.4611177778262447 -0.41896878084183864
1.5165035472738373 -0.4063459008109575
1.620393862880914 -0.4040095656514449
1.4323239952342959 -0.33067804988548133
1.418314021064018 -0.30147195168575114
1.5411546780128325 -0.29957012274117545
1.7923501104822186 -0.31603968335381327
2.143283699091449 -0.339462789137301
2.346935322917522 -0.32984024927535505
2.5508436097181977 -0.3132042125512289
2.754825650170117 -0.28954384325139987
3.0085079882370716 -0.26321034309792735
3.361790849375608 -0.23507931651770186
6.211475706173449 -0.32552964783111105
6.216210944058775 -0.21707486948955632
6.219052663872754 -0.1085539680399036
6.18 0.0
6.299040479485265 0.10995016055488627
7.115662688375962 0.24848441652180725
11.404349286897233 0.5976766202944194
17.87634778065605 1.2500360094947274
24.177645322686665 2.1152698764856668
24.13704640058799 2.536905803505953
24.237977023081086 2.9760493659537004
23.984292624920833 3.370772505252784
7.131109819096895 1.1294568375904668
15.087254776147027 2.660290081857373
11.51279726063689 2.447120600925028
7.118873339750433 1.9074963624055792
7.036435614268495 2.0176654445804334
5.996030819888232 1.833170588611559
5.963124357170612 1.93753655473092
6.164781112907545 2.1227043670606616
6.126795887524122 2.22997133448336
6.086944380761755 2.336559031035358
5.952520346318774 2.404974329730156
6.00169164450991 2.5475669577500657
5.545220927890588 2.468891423470108
5.184080541849638 2.4173764571568004
5.00628283788636 2.441727287615162
4.472852751425607 2.279032308692525
4.2116600179370804 2.2393793544886997
4.1282050176979475 2.288301407562711
4.0876399058625505 2.359999999999999
4.002971294278864 2.4052278098299533
3.663567775395761 2.2892512214874454
3.2875886263460616 2.1349850172589067
3.2498272844157636 2.1920361816053275
3.252033615827297 2.2770984523136537
3.0904449185122993 2.2453396637572474
3.0108558728782935 2.268842637283223
2.8919994657366694 2.259477614445166
2.7744110824013863 2.246673796047919
0.6281564433575619 0.5270858399429622
0.5811263767715344 0.5051654523226905
0.5722215156175935 0.515230566896321
0.5265746651658028 0.49103881924499887
0.5035378602370556 0.48626085932129814
0.4949747468305833 0.4949747468305832
0.46542110820752813 0.4819576662268964
0.4228389832387491 0.4534392950038857
0.4483175062604351 0.4979070330698541
0.4723625008731652 0.5433908977603958
1.2984309715668096 1.5474097751003355
1.397091268130639 1.7252640344344756
1.3359854014566788 1.7099833353265865
1.2758478490823422 1.6931072813002612
1.2167154722454192 1.674665178356141
1.187303223246665 1.695644731678213
1.1016100198373713 1.6332040179334322
1.0457069472288523 1.610247490455214
0.9909490241160932 1.5858499398125165
0.9631212000818016 1.60290285231295
0.9099999999999998 1.5761662348876786
0.8581130278360167 1.5480768816367305
0.7840175098524373 1.4745224800744081
0.7581641345650432 1.4879808953945743
0.7101612577983052 1.4560463550046507
0.6846415840199331 1.468218614999373
0.6385765296290066 1.4342663684988832
0.6134478717281597 1.4451926199203315
0.5319413626505952 1.316601073484838
0.5088824883543261 1.3256842056260265
0.46856759635616635 1.2873788904766945
0.43951700851716136 1.2764500770590779
0.4171729424061791 1.2839262969984573
0.3947018013756944 1.291011420550098
0.3721104303529489 1.2977032895167306
0.3623466631435293 1.3522961568046954
0.3556251865315115 1.4263347176257148
0.3306780498854818 1.4323239952342959
0.3056301855021061 1.4378769730786944
0.27094877343469376 1.3939106004956827
0.2465804122870409 1.3984270092773354
0.2221369403571279 1.4025174436450956
0.19762580336329263 1.4061806576130298
0.16696100046505208 1.3597882277486113
0.14320399467668554 1.3624949966545346
0.11940336756429167 1.3647867363856916
0.09556636902945188 1.3666627488559593
0.06908346224068575 1.3181909858760374
0.04606733564730143 1.3191958916652065
0.023037176497214058 1.3197989576064366
