# .PCD v0.7 - Point Cloud Data file format
VERSION 0.7
FIELDS x y
SIZE 4 4
TYPE F F
COUNT 1 1
WIDTH 180
HEIGHT 1
VIEWPOINT 0 0 0 1 0 0 0
POINTS 180
DATA ascii
6.245698675651501e-17 -1.02
0.01780145456602927 -1.0198446490595192
0.0355974866365511 -1.0193786435594776
0.05338267536780285 -1.0186021254496653
0.07115160321900797 -1.0175153312650207
0.09064197245756447 -1.0360424860154154
0.10661903253300653 -1.0144123332756387
0.1267441171413534 -1.032247997706975
0.14474002499846808 -1.0298787914912333
0.1548701203898286 -0.9778114571891864
0.18059410477360763 -1.0242000631326964
0.19844135519160672 -1.0208922707855705
0.21622815845046983 -1.0172735047631578
0.23394909651761975 -1.0133448673766448
0.2636948662036378 -1.0576223416408361
0.2821127591617476 -1.0528591506550846
0.3004447178405291 -1.0477752485727676
0.30406657291164624 -0.9945569462015569
0.3368285238686927 -1.0366516027617174
0.3548692883583009 -1.0306152474032553
0.372801956224979 -1.0242649566566402
0.4085394624816424 -1.0642816862068099
0.4083211868233443 -1.0106304014777983
0.445433486477772 -1.049375532935782
0.4636797731064124 -1.0414418217125647
0.5029157314714323 -1.0785062665736134
0.5216616646790021 -1.0695649150960085
0.5175491697030834 -1.0157474375747393
0.5586711597152101 -1.050707635502123
0.601163929105458 -1.0845284368528507
0.6199999999999999 -1.073871500692704
0.6386472128884673 -1.0628874528706191
0.657099887649174 -1.0515796392339682
0.702584355169385 -1.081885032649597
0.7213588454772635 -1.0694584685960038
0.7399136028928495 -1.0567061371327995
0.7582429754572904 -1.0436319227436823
0.8064321310237448 -1.0701715834633725
0.8557694507026651 -1.0953349475133434
0.8747553435592739 -1.0802328864251896
0.8934747774642896 -1.0648017759353794
0.9447250017463305 -1.0867817955207917
0.9635480731567558 -1.0701285486874477
1.0161775564931228 -1.0897170154125637
1.035040971983906 -1.0718163025045901
1.0889444430272832 -1.0889444430272832
1.107783292521523 -1.069773890506856
1.1994200706554397 -1.1184773105024974
1.2187575137829267 -1.0973741944285273
1.2754591905764847 -1.1087397589939572
1.3329173310270217 -1.1184504408545783
1.3522339729351294 -1.095017480426717
1.4105392489560324 -1.102034040832928
1.5094211139893834 -1.137430393757371
1.569492969087398 -1.140303389447398
1.6301125681350936 -1.1414171083385816
1.6912366480122851 -1.1407535230803234
1.7947550154032075 -1.1655275349321579
1.8741862925057016 -1.1711215739553829
1.9629131186078372 -1.1794371915440238
2.000518682742053 -1.155
2.107833494205944 -1.1683911847936723
2.2161984580759064 -1.1783736225925858
2.3255270281316403 -1.1849152043202171
2.4357318654707427 -1.1879858077983998
2.592040270924819 -1.2086882285784002
2.704094554622099 -1.2039404635043685
2.9087953369097117 -1.2347103660261047
3.0689785586160663 -1.2399478242066684
3.276867297005178 -1.257871502904004
3.48625962311572 -1.268894731738231
3.744253559373295 -1.2892498916503405
4.099053585232111 -1.331863245756023
4.408564924989594 -1.3478335587718164
4.767858011854062 -1.3671612848523156
5.225658720223859 -1.400211034004637
5.685932955977339 -1.4176623082140523
6.343149121751881 -1.4644313637785602
7.639332761731021 -1.6237903052867009
8.108240535277703 -1.5760823018102605
9.51324289409793 -1.6774413962625474
11.318908383220279 -1.7927389693610458
14.269762870566028 -2.0054843848345425
16.18842773326996 -1.9876889909379545
16.170926018688125 -1.6996328127320441
16.198125790971783 -1.4171523770769203
16.270269659737732 -1.1377280867666815
16.287647711847097 -0.853599446322415
16.300064388681452 -0.5692107912177915
16.35750829275856 -0.28552136931395866
16.36 0.0
16.35750829275856 0.28552136931395866
14.551130441398035 0.5081366719884148
12.542786956517448 0.6573396104113755
10.933301990847674 0.7645309522356144
10.719054951467182 0.9377957919648032
10.30324683601531 1.0829148794528913
8.099176597393189 0.9944538421860031
7.4369131962491934 1.0451899882100912
6.8249264335124025 1.0809621534279954
6.312617696808253 1.1130848188450235
6.2922302458995265 1.2230856603636526
6.269926120703694 1.3327139381418378
6.343149121751881 1.4644313637785618
6.413654750684337 1.5991037299138045
6.384769711770741 1.7107938881276632
6.45006597974612 1.849526657532064
6.46462015031012 1.9764327239257
6.429142050155238 2.088954881974644
6.438981499831347 2.217119131853237
6.3993067475520355 2.3291571760478043
6.404361725770804 2.4584041338807605
6.4068404350565 2.5885315605039527
6.406713780028984 2.719488654285346
6.403953658074632 2.85122386796136
6.262586808423251 2.920292188628233
6.0758477529823685 2.963388952294164
2.681929637806987 1.3665114042160358
2.5693774952194772 1.3661622477069428
2.5014123624186717 1.386555513904524
2.4335313846342728 1.4049999999999996
2.322923384902724 1.395753183006247
2.2558079357760934 1.409585242860325
2.2140902993759193 1.4378470524396718
2.147207312917558 1.448309619989234
2.0396885902795896 1.4282053265141053
1.9740014662748717 1.4341960155936344
1.9087388690130298 1.438337905333396
1.8833457011200654 1.4714309260283234
1.8185215498093121 1.472609715056619
1.7542417747424597 1.4719836261821753
1.6905494596990094 1.4695722249387362
1.5903299265216235 1.431939497607957
1.5650969214650252 1.4594764905337467
1.5034201827077804 1.4518359942593044
1.4424978336205572 1.442497833620557
1.4171030757363543 1.4674531926908487
1.3571767365243719 1.4553938662221493
1.331569906654128 1.4788582027000143
1.272754516241584 1.4641365856321777
1.2470079627918866 1.4861262196508174
1.1894155390841925 1.468805867153675
1.1328171145992114 1.4499397866363684
1.1073396425997686 1.4694893384870191
1.0815248642181505 1.4885912696499033
1.0267018210683723 1.4662821592772954
1.0009552972126368 1.4839772548735248
0.9749038726768987 1.5012203166223088
0.9220595197657765 1.4756036873121812
0.8961662503434944 1.4914711032216752
0.8699999999999998 1.5068842025849234
0.8193282582163097 1.4781073050655789
0.7934069411081551 1.4921814319315865
0.7672439445598341 1.5058010258783416
0.7408472380735405 1.5189619382455923
0.693093949254747 1.4863447707401058
0.6873849267981026 1.5438918234159953
0.6407990507224088 1.5096279596620021
0.614354813202096 1.520581521489531
0.5805560782633863 1.512400290925467
0.5540726321875835 1.5223020456731715
0.5339317733097367 1.5506504639828795
0.49133702105616645 1.5121798609092942
0.4736421616508332 1.5492137046601178
0.4465325164235387 1.5572439474200768
0.40634590081095795 1.516503547273837
0.37981737609147825 1.5233642902533144
0.3531731553198683 1.5297610017128194
0.326421354583882 1.535691733152075
0.2995701227411755 1.5411546780128325
0.28131004782042696 1.5953885598797772
0.24560211011316258 1.5506706947343663
0.21850176850730244 1.5547208679242654
0.19133486914608155 1.5582974580768756
0.16410968733021628 1.5613993757281892
0.13247672897644036 1.5142159410994533
0.10951766377827697 1.566175558907924
0.08216745130142168 1.567848369564681
0.0547922098229267 1.5690435984199804
0.027400278106534903 1.5697608813955344
