# .PCD v0.7 - Point Cloud Data file format
VERSION 0.7
FIELDS x y
SIZE 4 4
TYPE F F
COUNT 1 1
WIDTH 178
HEIGHT 1
VIEWPOINT 0 0 0 1 0 0 0
POINTS 178
DATA ascii
4.898587196589413e-17 -0.8
0.01396192514982688 -0.799878156125113
0.027919597362000864 -0.7995126616152767
0.04186876499435518 -0.7989036278036591
0.05580517899530037 -0.7980512402078594
0.07146770905307967 -0.8168796524352313
0.08884919377750544 -0.8453436110630322
0.097495474724118 -0.7940369213130576
0.11133848076805238 -0.7922144549932564
0.12514757203218474 -0.7901506724761103
0.13891854213354435 -0.7878462024097664
0.15264719630123594 -0.7853017467581312
0.16632935265420756 -0.7825180805870445
0.19120839619228536 -0.8282145550674499
0.21047204917171086 -0.844157281860117
0.29246552096584844 -1.091496183706647
0.311470212073209 -1.0862257164103002
0.3303800263366925 -1.08062437423823
0.3491892036436906 -1.0746938634135235
0.3744033776257302 -1.087346361939214
0.3933231648245191 -1.0806465139037944
0.39420474449983045 -1.026938469146922
0.4495279120990946 -1.1126206254801447
0.4493407977626647 -1.0585805814703064
0.4758818723986864 -1.0688481854418428
0.4944633662366183 -1.0603801108328803
0.5128942417432206 -1.0515890341700251
0.5311688846952698 -1.0424776333003904
0.5492817284594923 -1.0330486836449444
0.5672272556882144 -1.0233050573530929
0.6099999999999999 -1.0565509926170151
0.6283464513902662 -1.045744106856577
0.64650150236451 -1.0346186773108397
0.664459622718333 -1.023178092893417
0.7101749874078486 -1.0528777171449029
0.6997632523482762 -0.99936549403257
0.7170980077968172 -0.9870007331374359
0.7342143282454988 -0.9743353222576973
0.7511069998973032 -0.9613731194002006
0.7677708770808016 -0.9481180729775045
0.784200883817578 -0.9345742206051532
0.8003920153684189 -0.9207456878717818
0.84979587007575 -0.9437939283562907
0.8320379992762482 -0.8922515159753878
0.8822161304829266 -0.9135615464300869
0.8980256121069154 -0.8980256121069153
1.0214625164808846 -0.9864148860517761
1.0019545712182638 -0.934337753285623
1.0552656521779 -0.9501654610295784
1.071687603916336 -0.9316038211665203
1.0877831092289487 -0.9127584057548856
1.1035472652688987 -0.8936349552907691
1.1583758078018813 -0.9050223687287176
1.2139259752718852 -0.9147588351911133
1.2135254915624212 -0.8816778784387097
1.2451111073192676 -0.87183618325359
1.2601371102836634 -0.8499732132755351
1.2747792632770445 -0.827851333222841
1.3738379157734104 -0.858469208057792
1.3886110271374221 -0.8343616813542876
1.4029611541307907 -0.81
1.4606149109227908 -0.8096320658113828
1.5010109078601759 -0.7981016567360143
1.5325312216039928 -0.7808636595520205
1.5908654619495257 -0.775916929816667
1.649480172406703 -0.7691652363680729
1.6626527329095337 -0.7402606903979563
1.7213440759560636 -0.7306672102749417
1.8265521934965712 -0.7379749890293464
1.8391534401994873 -0.7059848606042416
1.898179093987535 -0.6908806895178509
1.9572234514905857 -0.6739260797263144
2.0162398145457257 -0.6551160280748886
2.122996558237939 -0.6490651844844756
2.085937880186152 -0.5981330621228881
2.192651625676185 -0.587519232382722
2.299600871274112 -0.5733548925712123
2.4066940600195315 -0.5556291042293463
2.4160245738125 -0.5135418763198658
2.5718632206328795 -0.49991956788654757
2.678677088193206 -0.4723230432540506
2.7852811204782886 -0.44114519141345104
3.9313642329040346 -0.5525172108114597
3.8907809144339827 -0.47772782614817794
3.948251924612045 -0.414977999172584
4.154131891042579 -0.36343944725773414
4.608745912200388 -0.32227490869785835
4.863325834254774 -0.25487610690313683
5.066911492986816 -0.17694044828168018
5.069227814442904 -0.08848370063702753
5.37 0.0
5.769121201052378 0.100700385143126
6.116271861356866 0.21358491981930625
6.560996043337551 0.34384723251614147
7.052777835336958 0.4931782693709666
7.640813334363688 0.6684845468745391
11.108809571263613 1.1675829346996909
11.086740513833568 1.3612805658354967
11.011780924406262 1.5476048826759272
11.723860602864285 1.8568771000275404
13.511562371327495 2.382452997590285
16.265562429727794 3.1617050533893485
18.213108325663462 3.87131568302668
22.965902426987995 5.3020963508849
15.880043216901027 4.553529118096825
15.750339330711194 4.815361976783473
10.480642809572592 3.40536727801192
6.0702292553476145 2.090147551614946
4.388364539070192 1.597234069330873
3.4262401652447303 1.3152103748312522
3.4305802618971133 1.3860443956388748
3.359842715101407 1.4261686189858496
3.380118193277623 1.5049255793804612
3.3080234226837724 1.5425566553535528
3.2985741499179424 1.6088221087159147
3.3412744657063795 1.7024643740233005
3.311053473220976 1.760518360447091
3.2535853105585524 1.803491787316374
3.247595264191645 1.8749999999999993
3.1886623586118574 1.915941638665402
3.1971413225097263 1.9977956261591825
2.9940539275651634 1.944361355003647
2.918212255393747 1.9683590202170287
2.9243727981117003 2.047667877773235
2.888190669918562 2.098393350684129
1.1739941997695202 0.8846680840335113
1.158375807801881 0.9050223687287177
1.126861644112608 0.9125145670222641
1.149066664678467 0.9641814145298091
1.132064370334158 0.9840885434857607
1.1667373759995088 1.0505350519834076
2.9766095655900244 2.775733325454369
1.920637266904198 1.8547378491255229
1.8172644276494272 1.817264427649427
1.750539093556673 1.8127362968534013
1.6504360313512463 1.7698759579183925
0.9501654610295788 1.0552656521778996
0.8856796891371849 1.0188579333007424
0.8356238925925014 0.9958577760546714
0.8495825279172805 1.0491470479669107
0.8126731474298692 1.040174194760873
0.7943958305607036 1.0541988732624268
1.157936947016172 1.5937634789186466
1.1299455796115605 1.613729527249314
1.0736503746638337 1.5917521393056802
1.018474995478101 1.568313962057943
0.964453060904433 1.5434475350046952
0.9373692963362988 1.5600444872778443
0.8849999999999998 1.5328649646984565
0.8581130278360167 1.5480768816367305
0.8074910879917319 1.5186698597173545
0.7581641345650432 1.4879808953945743
0.732079815137759 1.500986057319609
0.705772497106968 1.5135340043512053
0.6589133617827967 1.4799436413810134
0.6134478717281597 1.4451926199203315
0.5881323516629822 1.455678651669856
0.5447192833088562 1.4190422482757468
0.5198706178550166 1.4283327835945807
0.49486359477487796 1.4371882349109617
0.45425498173117274 1.3980530789538756
0.42978640594242273 1.4057679912656622
0.40518691305098875 1.4130546930293288
0.3675230440455797 1.3716146733304768
0.34352909175152807 1.3778199313119148
0.3081829444510953 1.3348869887557724
0.28483901642033016 1.340062213005314
0.27094877343469376 1.3939106004956827
0.2378980034036944 1.3491866216267252
0.20649349385310484 1.303748609585582
0.18370849326728614 1.307153850738873
0.16696100046505208 1.3597882277486113
0.13588700224794978 1.2928784639787554
0.11504558042690875 1.3149770014811042
0.0920785453422456 1.316784546342968
0.06646666442853856 1.2682595091383089
0.04432236081217637 1.2692263503142516
0.02216455617534989 1.269806572848617
