# .PCD v0.7 - Point Cloud Data file format
VERSION 0.7
FIELDS x y
SIZE 4 4
TYPE F F
COUNT 1 1
WIDTH 180
HEIGHT 1
VIEWPOINT 0 0 0 1 0 0 0
POINTS 180
DATA ascii
5.449678256205722e-17 -0.89
0.016056213922300912 -0.91985987954388
0.033852511801426045 -0.9694091022085228
0.048149079743508454 -0.918739171974208
0.06208326163227166 -0.8878320047312436
0.0801832833278455 -0.916499122244406
0.09616618620624119 -0.9149601437388115
0.1121197959327357 -0.9131424595100163
0.13082271490246153 -0.9308519846170761
0.14704839713781706 -0.9284270401594295
0.16322928700691458 -0.9257192878314755
0.17554427574642134 -0.903097008771851
0.1912787555523387 -0.8998957926751012
0.21820252271354917 -0.9451389628416782
0.24676033351166105 -0.9897016408015165
0.26917180690662157 -1.004562859340631
0.2866628500496791 -0.9997121637758517
0.3186851581477831 -1.0423721839997087
0.32137767414994534 -0.9890987769469597
0.3548692883583009 -1.0306152474032553
0.3557009490586956 -0.9772803256173447
0.3727026675271124 -0.9709236435570898
0.4083211868233443 -1.0106304014777983
0.42589693005330836 -1.0033502902631601
0.44334294095262244 -0.9957645488304349
0.4817848183843973 -1.0331908772217808
0.49974310733954824 -1.0246252127810502
0.5175491697030834 -1.0157474375747393
0.5351975815759156 -1.0065602558591766
0.5526829670808243 -0.997066466138911
0.5949999999999999 -1.030570230503482
0.6128953091429645 -1.0200290878355136
0.6306039244375138 -1.009177234426147
0.6481204516678822 -0.9980179758550545
0.6654395551301888 -0.9865547113404994
0.6825559592577448 -0.9747909327039002
0.7288537128426666 -1.0031810730249349
0.7462506287085399 -0.9903080324586431
0.7634202294038164 -0.9771333344723352
0.8118233044542903 -1.0025182902794925
0.8291960164956358 -0.9881973316234817
0.8463161473977544 -0.973575358487376
0.8966350125208701 -0.9958140661397084
0.9138778024837482 -0.9800139601696883
0.9655751349380061 -0.999882322470725
0.9828784258493011 -0.9828784258493009
0.9998823224707251 -0.9655751349380061
1.0531493303316055 -0.9820776384899977
1.1072857899613175 -0.9970046034746985
1.1396114661363856 -0.990649133775666
1.1414062202472772 -0.9577535384329435
1.119090184498038 -0.9062213631117658
1.150495700265814 -0.8988657539754609
1.1660078446690476 -0.8786499338019904
1.2054353216186717 -0.875800025915785
1.2614941482050475 -0.883307711980611
1.2767178617347643 -0.8611570713449501
1.3334862030332244 -0.865976065673893
1.3907988776965388 -0.869067593342456
1.4486127381865699 -0.8704143465979913
1.5068842025849232 -0.87
1.5655692757795183 -0.8678092202409433
1.6246235708604257 -0.8638276755260391
1.639452004506597 -0.8353425195207661
1.743660449820384 -0.8504400247708102
1.848867885554766 -0.8621412539510268
1.909310006473036 -0.8500795840284222
1.9698803863882226 -0.8361646149670456
2.0490763185926 -0.8278805714491653
2.1565707852085363 -0.8278299634496438
2.264659216094039 -0.8242685454148618
2.325975695974319 -0.8008976599646055
2.482257507530351 -0.8065343553186126
2.6394011264579778 -0.8069459050347533
2.749208450383592 -0.7883228376366174
2.9074367371300953 -0.7790453257585872
3.1146492813459488 -0.776569284874933
3.3226019209176525 -0.7670830953125792
3.531112838649038 -0.7505612038521114
3.7890809281079827 -0.7365227221534631
4.047559864880175 -0.7136940102110838
4.405089999054314 -0.6976977140794297
4.812702814084032 -0.6763812706659179
5.27042006521542 -0.6471262134813328
6.374885349310632 -0.6700274495456582
6.485227484577264 -0.567383885287254
7.391949612425298 -0.5168954704439676
8.498337340761424 -0.4453789876274526
9.90396309575924 -0.3458540123217851
11.608231740765701 -0.20262243873686184
11.61 0.0
11.558239356007883 0.20174981841499767
17.249485674349593 0.6023653130851676
17.236345769863945 0.9033186047532119
17.168077304971575 1.2005089131363982
17.14451075415894 1.4999503326871992
17.165447914056397 1.8041612759997014
17.13134657732922 2.103464867172845
16.20078560461209 2.27687193170667
10.084297957476357 1.5971958880607573
7.0019831239168 1.234638543211875
6.144986168382376 1.1944643110571709
5.48740804011665 1.1663845854876302
4.93031252781329 1.1382523349799571
4.473063298132344 1.1152599387144688
4.288710668723463 1.149156560255193
4.287227163884903 1.229342606943816
3.882597309209924 1.187029121174311
3.1955498947517156 1.0382971010998232
3.1107561137217523 1.0711192281640456
3.1103825748013567 1.1320866744079636
2.9034351264062974 1.114524323085884
2.7444642095176905 1.1088355165111
2.586618638201357 1.0979544710548597
2.2473218258007983 1.0005721419664688
2.0935709880546614 0.9762481846210156
1.9863348423211589 0.9688002344038614
1.8800237660374561 0.9579199544504438
1.8188720412893895 0.9671114193389354
1.7142546259932157 0.9502268556828206
1.680089283341811 0.9699999999999996
1.620046198326992 0.9734219615800025
1.5180060921200027 0.9485554829774367
1.4592867882250375 0.9476719209261473
1.3596216189902683 0.9170763616920247
1.3434093526339463 0.9406653556157158
1.2863370210561664 0.9345785511450323
1.2698304609751956 0.9568858868117571
1.1741360228740156 0.9173355982352308
1.1579474825708869 0.9376873826642576
1.1031039980913282 0.9256141579486167
1.049046316509653 0.9119220502968048
1.0329713074135778 0.930091542838813
0.9800139601696887 0.9138778024837481
0.9639153324537924 0.9308422164150565
0.9121677477306463 0.9121677477306462
0.8613763793691565 0.8919813524199276
0.8456779664774982 0.9068785900077714
0.7962654215670414 0.8843423423180989
0.7807102444987036 0.8981044004650987
0.764917255526982 0.9115928873115838
0.7174252457968145 0.8859463960609467
0.7018540818712505 0.8983322591116629
0.6860691263933348 0.9104444814539139
0.6406859249987957 0.8818285238686928
0.6251983156226402 0.8928757282750013
0.5815606196095767 0.8621990754572434
0.5664245964156283 0.8722173906632409
0.5511160348025331 0.881970020002683
0.5098876941609537 0.8485956276950911
0.4949999999999999 0.8573651497465943
0.5042020050561906 0.9096044954249716
0.46477684715803175 0.8741181169303377
0.4494505947421514 0.8820964589464843
0.43398743532118644 0.8898061058361754
0.41839207912329246 0.8972447091662834
0.3823324444912523 0.8587327301840446
0.36728726077991725 0.8652745622452939
0.33339986814016187 0.8251936305644407
0.3368658725725821 0.8775656009073696
0.32149893472612867 0.8833110635387538
0.2897556574668693 0.841511532283392
0.27502512499370324 0.8464402995026866
0.2602108172032355 0.8511112328071017
0.24531724667712926 0.8555229093851038
0.23034895014124365 0.8596739853972707
0.21531048708370423 0.8635631963856368
0.20020643836604 0.8671893576588594
0.1850414048278057 0.870551364653087
0.16982000588512497 0.8736481932684209
0.1545468781235679 0.8764789001808653
0.13922667388580554 0.8790426231296726
0.1169054048064548 0.8318251777429191
0.10846371563058127 0.8833660749607766
0.08780390914482909 0.8353983921093495
0.0801832833278455 0.916499122244406
0.05859543794506538 0.8379538022182523
0.043962203244072746 0.838848809193842
0.03036256213117594 0.8694700195066133
0.015183593600436538 0.8698674947860604
