# .PCD v0.7 - Point Cloud Data file format
VERSION 0.7
FIELDS x y
SIZE 4 4
TYPE F F
COUNT 1 1
WIDTH 179
HEIGHT 1
VIEWPOINT 0 0 0 1 0 0 0
POINTS 179
DATA ascii
4.2250314570583685e-17 -0.69
0.01256573263484419 -0.7198903405126017
0.024080652724725742 -0.689579670643176
0.03506509068277246 -0.6690817882855645
0.04813196688344656 -0.6883191946792786
0.06013746249588411 -0.6873743416833044
0.07526049355271049 -0.7160557646651567
0.0779963797792944 -0.635229537050446
0.09602943966244516 -0.6832849674316835
0.10793978087775932 -0.681504955010645
0.11981724259018198 -0.6795173495784235
0.131658206809816 -0.6773227565788881
0.143459066664254 -0.6749218445063258
0.15521622749726693 -0.6723153447018123
0.1669261079637707 -0.6695040511304375
0.1785851411207393 -0.6664888201394571
0.1901897755137294 -0.66327057019744
0.20173647625868835 -0.6598502816144944
0.22867257583746112 -0.7037818220584136
0.240920434298296 -0.6996837459434944
0.25309490606099494 -0.6953725393815722
0.24727388518625723 -0.6441704942830692
0.2584785494569794 -0.6397568596510832
0.28914103508206257 -0.6811735915548058
0.3009851158760923 -0.6760236386555245
0.33386842677515255 -0.7159831517589534
0.3243946486239173 -0.6651075942613836
0.35865249479424205 -0.7038951541088107
0.3708825346008538 -0.6975285983585523
0.3829995999946063 -0.6909495686401227
0.36999999999999994 -0.6408587988004847
0.40688007917894287 -0.6771621675546687
0.4451321819558921 -0.7123604007713977
0.4302648376618714 -0.662549748676885
0.4417623937418901 -0.6549396823184829
0.48180420653487865 -0.6880877172027531
0.4937396119256774 -0.6795742752749558
0.5356153706053229 -0.7107856039420907
0.547938713039836 -0.7013295707099825
0.5600951480343553 -0.6916599056967041
0.5720809726210201 -0.6817795543758904
0.6166954872510768 -0.7094270054094056
0.5955262396593839 -0.6613988946748809
0.6410784584587487 -0.6874724795220201
0.6877117867544073 -0.7121464023352646
0.7000357133746821 -0.700035713374682
0.7121464023352647 -0.6877117867544073
0.7240401646029788 -0.6751783764618735
0.7728706184964902 -0.6958958306132125
0.7848979634316829 -0.6823013901501276
0.8349884429996861 -0.7006384945583278
0.8470890979880984 -0.6859592262443228
0.898332259111663 -0.7018540818712503
0.9104444814539138 -0.686069126393335
0.9627302233061874 -0.699464450228043
1.01574853491835 -0.7112347810752971
1.0280065899682518 -0.693399200303726
1.081885032649597 -0.7025843551693848
1.0939820440417896 -0.6835958508608343
1.1486041829408307 -0.6901510203794725
1.2037753112603695 -0.695
1.3031833636376997 -0.7223663341670422
1.3155919133598013 -0.6995126285509773
1.3721500472500865 -0.6991453695989021
1.4290825336156756 -0.6970101233946331
1.4863447707401058 -0.693093949254747
1.5895690962981257 -0.7077217589518923
1.6477036876798683 -0.6994087199957999
1.7245619694942247 -0.6967682637535961
1.8298176359345153 -0.7024011811087886
1.9827514298582665 -0.721662502417161
2.0423201232945245 -0.7032272136274585
2.196940552641805 -0.7138292570061285
2.3046944618709158 -0.7046158083817955
2.41276685680518 -0.6918497631006677
2.6659552805578284 -0.714340564482957
2.8720753497769493 -0.7160888109750162
3.0790094047213437 -0.710845331726613
3.3843906985389673 -0.7193744502294475
3.6909182097632165 -0.7174418226158086
3.8801425468680995 -0.6841738200077057
3.9408764789746 -0.6241735155105212
4.0501964011530225 -0.5692179829266675
4.823774296976826 -0.5922850089490166
6.971598486531596 -0.7327445275062502
9.523621313757088 -0.8332089006676112
9.736225130535885 -0.6808231837426617
14.090662735387037 -0.7384603425879385
21.29701852377693 -0.7437082747302967
27.80576440229924 -0.4853514230208551
27.81 0.0
10.658376430367131 0.18604265262144248
23.645586967271807 0.8257220919811741
17.935386444192147 0.9399537741232725
3.910451077018511 0.2734453770769716
4.094360209157075 0.3582101026928756
9.60708150925752 1.009744955165534
9.637623132437238 1.1833513244639817
9.962096771540198 1.400081395658258
9.639838204208544 1.5268003787926532
9.61172366939915 1.6948062140292404
7.9609964577605545 1.5474609525037788
4.998334239749747 1.0624287400787507
4.9790310310525525 1.1494998876971507
3.9216588547336166 1.0508053231162349
3.902722485509574 1.1190876646170163
3.834782071411772 1.1724105359381742
3.9563951077878388 1.2855106965997811
3.602425773033397 1.240414668481767
3.3453057299978335 1.2175917102393807
3.183509254355458 1.2220347079494742
3.0226193658877265 1.2212174945358734
2.862770094237089 1.2151738096016418
2.4300309173293186 1.0819194705816289
2.410778713517489 1.1241645762302603
2.4357318654707423 1.1879858077984002
2.280976701922222 1.1622156793332399
2.304493217361799 1.2253207788711753
2.282757435633823 1.2653531088429397
2.173723763498941 1.2549999999999994
2.108631559727196 1.2669936642787334
2.043795911736987 1.2771054268020239
1.9792625403512003 1.2853481226354642
1.8736249139743941 1.2637759618438877
1.564580404591974 1.0955309934304984
1.4885912696499033 1.0815248642181505
1.429557562984654 1.0772488914421667
1.4105392489560322 1.1020340408329283
1.3522339729351296 1.0950174804267168
1.3099359977334524 1.0991668125639822
1.29055338218094 1.1218609395737673
1.255914755056796 1.1308307247464706
1.2725554408173567 1.1866771465087473
1.21568426257232 1.1739726460757056
1.1950104602052654 1.1950104602052651
1.1392397275527553 1.1797172725553882
1.0843773924993727 1.162852385574481
1.0639176641105847 1.1816002725090566
1.0103309046453812 1.162252753543069
0.9898929189172708 1.1797084424032263
0.9376873826642577 1.1579474825708866
0.917335598235231 1.1741360228740156
0.8666136333389494 1.1500351344681017
0.8464107633011613 1.1649844718999243
0.8259500683455061 1.1795789437761484
0.8052377809978754 1.19381410447926
0.7570482586708878 1.165752089444139
0.7100918140724947 1.1363844488496109
0.7159029241249754 1.191462547975936
0.6699999999999999 1.160474041071148
0.6496448911300917 1.1719904075667904
0.6290918941330935 1.1831497744309623
0.5856477446640155 1.1493984162029947
0.5654987793579096 1.1594443197259254
0.5578561054977232 1.196326278888378
0.5368923688600565 1.2058800040882331
0.5040431557511631 1.187451260953648
0.48324250550652675 1.1960671723911556
0.4443762574361722 1.15763972885653
0.4241049777238293 1.1652188497745264
0.37114769608115844 1.077891176183221
0.35227937358744005 1.084204428576475
0.31868515814778287 1.0423721839997089
0.322495706305889 1.124676184247833
0.2898773305148235 1.0818369254437565
0.2709525230716278 1.086731213429116
0.25194518086512896 1.0912944725594635
0.22662374299135757 1.0661808847998482
0.21370607482173032 1.0994224454613837
0.19448595898696186 1.1029846833736732
0.17051356689385172 1.0765802912487001
0.1558738730752731 1.109100236990559
0.1364936646137652 1.1116516898382807
0.11707187885977213 1.1138645228124662
0.09325664473999422 1.0659283269581679
0.07463942690621424 1.067393533778012
0.058616270992097 1.1184650789251227
0.03734246147167616 1.0693481849104325
0.019546695209757384 1.1198294185751583
