# .PCD v0.7 - Point Cloud Data file format
VERSION 0.7
FIELDS x y
SIZE 4 4
TYPE F F
COUNT 1 1
WIDTH 180
HEIGHT 1
VIEWPOINT 0 0 0 1 0 0 0
POINTS 180
DATA ascii
5.021051876504148e-17 -0.82
0.013438352956708371 -0.7698827252704213
0.02617462252687581 -0.7495431202643218
0.036635169370060776 -0.6990406743282016
0.05231735530809409 -0.7481730376948681
0.06100901992336069 -0.6973362886642218
0.07526049355271049 -0.7160557646651567
0.08774592725170619 -0.7146332291817518
0.09602943966244516 -0.6832849674316835
0.10793978087775932 -0.681504955010645
0.11981724259018198 -0.6795173495784235
0.14119865657864322 -0.7264041157512713
0.143459066664254 -0.6749218445063258
0.1664637802144602 -0.7210338479410741
0.1669261079637707 -0.6695040511304375
0.19152609337586535 -0.7147851114539105
0.20397164330457937 -0.711333654994356
0.20173647625868835 -0.6598502816144944
0.22867257583746112 -0.7037818220584136
0.22464202657543814 -0.6524078171635285
0.25309490606099494 -0.6953725393815722
0.2651922826635223 -0.6908495156079293
0.27720887912777503 -0.6861160523794226
0.28914103508206257 -0.6811735915548058
0.3009851158760923 -0.6760236386555245
0.3127375136881176 -0.6706677624071209
0.34631320596337123 -0.7100472965763419
0.3359529698072647 -0.6593448278993922
0.3708825346008538 -0.6975285983585523
0.3829995999946063 -0.6909495686401227
0.3949999999999999 -0.6841600689897066
0.40688007917894287 -0.6771621675546687
0.4451321819558921 -0.7123604007713977
0.45749678941262273 -0.704483277074156
0.4697220389154274 -0.6963915609462349
0.46459691344434734 -0.6635131558740834
0.4761060543569033 -0.6553037654437075
0.5957968729205277 -0.7906491549468199
0.6095048605724018 -0.7801306460706546
0.623027187139339 -0.7693745018424012
0.636359733589674 -0.7583839986877883
0.6494984387006022 -0.7471624844205443
0.6624393002952697 -0.7357133772226203
0.7092782944649986 -0.7606078496839372
0.7224447052773572 -0.7481133923521972
0.7707463914933369 -0.7707463914933368
0.7840803823691298 -0.7571776238003071
0.797175534764896 -0.7433782124681234
0.8471851010442295 -0.7628088912490982
0.8981044004650987 -0.7807102444987036
0.9115928873115838 -0.7649172555269816
0.9636609922066439 -0.7803572849017983
0.9771333344723353 -0.7634202294038162
0.9903080324586431 -0.7462506287085399
1.0436319227436823 -0.7582429754572904
1.097663739347249 -0.7685924247104018
1.110910347223756 -0.7493184906508007
1.1657520894441393 -0.7570482586708874
1.2211892584652535 -0.7630837404958151
1.2771792780461473 -0.7674067316159805
1.2903778516388136 -0.745
1.3469143489946696 -0.7466068151793591
1.403886672645694 -0.7464597848295664
1.416700373459505 -0.7218448945858794
1.4021187122267007 -0.6838589889909608
1.395713992036441 -0.6508321230806771
1.4982145505338655 -0.6670480946443123
1.5556532023346241 -0.6603356071468724
1.6132999069462102 -0.6518154725436867
1.6897805719599353 -0.6486459886769936
1.7948129057010849 -0.6532584737520273
1.853216408174661 -0.6381135827360271
1.9591764235680162 -0.6365750084123917
2.065618272880157 -0.6315228822011113
2.2205145176175165 -0.6367222919372679
2.376177532671108 -0.6366948509522009
2.5324718455803508 -0.6314161475151324
2.6892613788072492 -0.620864909989067
2.8464095181353746 -0.6050230202796799
3.1019418996946184 -0.6029564253898818
3.3581944377716293 -0.5921402858442325
3.664323743607961 -0.5803718652992566
10.55625761278514 -1.4835852562342973
10.530914668914427 -1.2930337335286142
10.55187730985738 -1.1090469952698023
10.56962574675342 -0.924722430552652
10.484398168230753 -0.7331405390507556
7.1501874688427485 -0.3747254466994784
5.9563693290338104 -0.20800100034690605
5.809115108858633 -0.10139848140061734
5.61 0.0
5.609145569827355 0.09790800011316064
5.606582539577127 0.19578617650103072
5.60231168997316 0.2936047145229153
5.646212524470605 0.39482164139174974
5.688271726103867 0.4976592910891288
5.977076591163322 0.6282160642385982
7.950294674646989 0.9761734406752309
5.703944075951445 0.8016370615299767
5.689084841827993 0.9010625186317298
5.672492657350318 1.000213503361519
5.654172576658544 1.0990598133688982
5.63413018022672 1.197571339110294
5.46621606344517 1.2619754148690832
5.49187381072214 1.36927792909412
5.467140176796126 1.4649157952802683
5.440741199010885 1.560107433924215
3.978227784806228 1.2162662916465847
3.7186309787140504 1.2082564480060443
3.5551498442534313 1.224136260758909
3.298321098958538 1.2004907030730974
3.1368302330305977 1.204116310472209
2.976260173159387 1.202487164865078
2.770719608891845 1.1761006967527143
2.6127400088578385 1.1632667991967889
2.501409492221154 1.1664264024043303
2.3907921631557842 1.1660672504589464
2.280976701922222 1.1622156793332399
2.1720510784329603 1.1549000444532918
2.0641025088489737 1.1441507037813554
2.0005186827420536 1.1549999999999996
1.9200547535727315 1.1536852877985218
1.8317838876978805 1.1446256107437227
1.752821487005936 1.1382955831814068
1.6912366480122851 1.1407535230803234
1.6301125681350934 1.141417108338582
1.569492969087398 1.140303389447398
1.5094211139893832 1.1374303937573715
1.4499397866363684 1.1328171145992114
1.445491488309966 1.1705359273526974
1.4095217753389195 1.1827292018232325
1.3886656276099005 1.2071486133425333
1.3673864788784054 1.2312003157002993
1.3091231258983154 1.2207770645118723
1.2516512525892527 1.2087055645986553
1.1950104602052654 1.1950104602052651
1.1739726460757052 1.2156842625723208
1.1184773105024974 1.1994200706554394
1.0639176641105847 1.1816002725090566
1.0431338560949066 1.1999882325542075
0.9898929189172708 1.1797084424032263
0.9691534022167496 1.1968047806437352
0.948118672001514 1.2135365605543518
0.8967043844965518 1.1899669099704664
0.8464107633011613 1.1649844718999243
0.8259500683455061 1.1795789437761484
0.777278135824338 1.1523622258515078
0.7570482586708878 1.165752089444139
0.7630837404958151 1.2211892584652533
0.7159029241249754 1.191462547975936
0.6949999999999998 1.2037753112603697
0.6496448911300917 1.1719904075667904
0.6056183159937989 1.139002394788016
0.5856477446640155 1.1493984162029947
0.5874173366973635 1.204384022040884
0.5113680967062463 1.0966324223143464
0.4718145059679284 1.0597127308654168
0.445433486477772 1.049375532935782
0.42705151649413986 1.0569895942061374
0.42645785995890717 1.11096070753167
0.3899029633912624 1.0712495876959354
0.38091474071487313 1.1062567334512006
0.36773022330618743 1.1317572543912326
0.32745630928946495 1.0710613266786
0.314226585631379 1.0958383333696835
0.29505371141687387 1.1011554419695377
0.2709525230716278 1.086731213429116
0.25644420195200623 1.110781873855168
0.24741491207313349 1.1639956448732287
0.22324652459055755 1.1485038046337668
0.21185077675365485 1.2014654586748938
0.18302832409707018 1.1555953584963112
0.16283252812327634 1.1586136404276373
0.14258713178402255 1.1612789974203466
0.12752472518653749 1.2133167123492934
0.10197221901476002 1.1655477967673422
0.08161507428062678 1.1671499388039943
0.06123306880424418 1.1683965556628513
0.04083241114192626 1.169287267612342
0.019546695209757384 1.1198294185751583
