# .PCD v0.7 - Point Cloud Data file format
VERSION 0.7
FIELDS x y
SIZE 4 4
TYPE F F
COUNT 1 1
WIDTH 180
HEIGHT 1
VIEWPOINT 0 0 0 1 0 0 0
POINTS 180
DATA ascii
1.5736711369043487e-16 -2.57
0.042234823578226305 -2.4196314222784667
0.0809668323498025 -2.318586718684302
0.12298949717091832 -2.3467794066732486
0.16532284277357734 -2.3642267991157833
0.20220132317456688 -2.3111716995728493
0.23727961161757335 -2.2575647024859804
0.28273687669994213 -2.302707071807867
0.35071621441936496 -2.4954755332287575
0.3394627891373011 -2.143283699091449
0.41154618107062513 -2.3339943746389333
0.4426768692735842 -2.27737506559858
0.471959538156314 -2.220395053665739
0.4656486824918008 -2.0169460341054366
0.4886822291113287 -1.9599973670775128
0.4839916143417138 -1.8062812951605578
0.4327506486326887 -1.5091808626231606
0.42978640594242307 -1.405767991265662
0.4697058314499201 -1.4456059047686334
0.5209090471314508 -1.5128297209589068
0.5540726321875835 -1.5223020456731715
0.7776584505133018 -2.0258695254989276
1.1875029011284415 -2.939172818976716
1.2581542337354614 -2.964025628116858
0.6385765296290066 -1.4342663684988832
0.6846415840199331 -1.468218614999373
1.477310764679191 -3.0289359360281924
1.5526475091092502 -3.0472423127242183
1.6525399010063357 -3.107975526863423
1.7307703442794233 -3.122392354487643
1.8349999999999995 -3.17831323188889
1.915941638665402 -3.1886623586118574
2.0242915893708426 -3.239543727317547
2.1622169690096578 -3.329522154743333
2.247955471952402 -3.3327310416712668
2.391813739583862 -3.4158640246850958
2.50984302728886 -3.4545025659810253
2.629931651174451 -3.4900371789066695
2.782789868471976 -3.5618086063023826
2.9389262262027405 -3.629271640004054
0.816340264301905 -0.9728764427611021
0.8331949668179442 -0.9584811668829205
3.3924921742394116 -3.767744265170389
3.5941313575293674 -3.8542340075330275
3.8345142049336647 -3.9707556978693535
4.0446507883870515 -4.0446507883870515
4.294458608021747 -4.147110471640214
4.549020024071241 -4.242029799588741
4.473731849373913 -4.028166250280326
4.505616193929948 -3.916672403073328
4.5349831032643495 -3.8053026493443123
2.2304089093815067 -1.8061495223130333
2.222190325170956 -1.736165360418356
1.2538577507742499 -0.9448495863487159
1.1892549817311728 -0.8640443208699355
1.204153505104818 -0.8431573614360377
1.1357814744004073 -0.7660942777549231
1.1070451496879599 -0.7189235262198357
1.0770210821186612 -0.6729974655761702
1.045744106856577 -0.6283464513902659
0.9699484522385713 -0.56
0.8746197071393957 -0.48480962024633706
0.9447539243590519 -0.5023345721809032
0.9979273070909721 -0.5084693597082924
1.006649331855067 -0.49097568440376677
1.0603801108328803 -0.49446336623661824
0.9774936396775831 -0.43520820809110616
0.9665300961250625 -0.4102676849137374
0.9549993702037911 -0.38584479121838927
0.998931056352006 -0.3834537060134714
1.005471104240922 -0.3659615533584656
1.1062567334512006 -0.3809147407148733
1.1127361240653295 -0.36154988341868843
1.1188765644767515 -0.3420748945256019
1.124676184247833 -0.3224957063058889
1.1301332167582099 -0.30281828276994915
1.1837607860567156 -0.2951447126315945
1.188731479037987 -0.2744402862995151
1.2422474529319332 -0.26404784733855446
1.2957478821509165 -0.25186787389703924
1.2999462339761148 -0.2292155945203481
1.303748609585582 -0.20649349385310475
1.307153850738873 -0.18370849326728636
1.3101609201665452 -0.1608675332947946
1.3127689018861208 -0.13797757151330248
1.2651672665765168 -0.11068779328952574
1.2669063438299768 -0.08859072165503898
1.1683965556628513 -0.06123306880424437
1.3191958916652065 -0.046067335647301345
1.369791342364256 -0.023909796819078444
1.42 0.0
1.469776111879895 0.0256550374628068
1.4691045157180707 0.05130226015267649
1.4679854160892236 0.07693385567712754
1.4664191538819416 0.10254201640386433
1.5142159410994533 0.1324767289764406
1.4619471861913618 0.1536568410034508
1.4590428429127436 0.17914793480556673
1.505207464487187 0.21154311345929944
1.5506706947343663 0.24560211011316246
1.595388559879777 0.2813100478204272
1.5411546780128325 0.29957012274117545
1.5356917331520747 0.3264213545838823
1.4810424984735575 0.34192560260267496
1.3293051449981153 0.331432996971545
1.3233183820160235 0.3545820917904537
1.5091808626231606 0.43275064863268864
1.5492137046601178 0.4736421616508335
1.5882643822129063 0.5160583806061622
1.4371882349109617 0.4948635947748782
1.381348152555285 0.502769610688733
1.2790051843011665 0.4909640908770615
1.2702418807564988 0.5132110329797996
1.2150664065572212 0.5157650896058416
1.2789636406996412 0.5694313003061204
1.2416416682402105 0.5789870185847582
1.2313478434298588 0.6005684711010363
1.2652292643474823 0.6446665096301565
1.3420803411455688 0.7135967754345542
1.3731529402088514 0.7611511037867492
1.3596598839415688 0.7849999999999998
1.388611027137422 0.834361681354288
1.3738379157734104 0.858469208057792
1.3586463200715868 0.8823152367243441
1.1772333530281591 0.7940539229284604
1.3270263117481667 0.929193826888695
1.1488041320124254 0.8346550582553118
1.213925975271885 0.9147588351911137
1.1977763454822172 0.9358054424950006
1.1424045633417474 0.9251009748432608
1.0877831092289487 0.9127584057548859
1.0339521249051977 0.8988008697169949
0.9809511696301603 0.883252400393693
0.9653868861373052 0.900237835282498
0.9495285364470193 0.9169490490058766
0.9333809511662429 0.9333809511662426
0.9516819675288262 0.9854955264639523
0.8661379172793731 0.9288192010563465
0.8163393397578071 0.9066366870824208
0.7675890639188935 0.8830102088606432
0.7520615033332512 0.8962719984492042
0.7677708770808016 0.9481180729775045
0.7203239261310203 0.9219725817198646
0.7041235770878963 0.9344035467553327
0.6877087451821935 0.9465498834186885
0.6710844305307238 0.9584078918181205
0.6262960518872365 0.9285220812616468
0.6099957192168305 0.9393110360988749
0.5935095759411896 0.9498138676951972
0.6025945476447635 1.0028857418214712
0.5599999999999999 0.9699484522385714
0.5187462936635807 0.9358430866391535
0.502334572180903 0.9447539243590519
0.5084693597082925 0.9979273070909721
0.49097568440376654 1.006649331855067
0.4522015400625484 0.9697493321292154
0.43520820809110644 0.9774936396775828
0.4180823074835229 0.9849401931941113
0.4008290549550261 0.9920867243864625
0.3834537060134712 0.998931056352006
0.38306256052474913 1.0524557352802175
0.3483579252691575 1.011704875891269
0.34609903369994116 1.065183298250572
0.34207489452560175 1.1188765644767515
0.29493197072418914 1.0285500146540012
0.2898773305148235 1.0818369254437565
0.2709525230716278 1.086731213429116
0.25194518086512896 1.0912944725594635
0.23286109371589037 1.0955253128218625
0.21370607482173032 1.0994224454613837
0.19448595898696186 1.1029846833736732
0.18302832409707018 1.1555953584963112
0.14613175600806852 1.039781472178649
0.14868059895427993 1.2109063050024127
0.12752472518653749 1.2133167123492934
0.10633000615214293 1.2153575316719296
0.08510289796783305 1.2170281413169854
0.06384986661639137 1.21832803240058
0.04257738597705132 1.219256808963297
0.02216455617534989 1.269806572848617
