# .PCD v0.7 - Point Cloud Data file format
VERSION 0.7
FIELDS x y
SIZE 4 4
TYPE F F
COUNT 1 1
WIDTH 180
HEIGHT 1
VIEWPOINT 0 0 0 1 0 0 0
POINTS 180
DATA ascii
4.8373548566320456e-17 -0.79
0.014660021407318221 -0.8398720639313686
0.029315577230100906 -0.8394882946960404
0.04396220324407293 -0.838848809193842
0.05859543794506538 -0.8379538022182523
0.07321082390803284 -0.8368035463970662
0.08989447841018197 -0.855288830016715
0.10480763532842684 -0.8535896904115369
0.1196888668256563 -0.8516305391177506
0.12671191668258705 -0.8000275558820616
0.14933743279356015 -0.8469346675904988
0.16409573602382863 -0.844199377764991
0.17464582028691794 -0.8216439846163966
0.2047054594529173 -0.8866767589545641
0.2201489249956976 -0.8829691109111568
0.23552533104329387 -0.8789925019230522
0.25082999379346926 -0.8747481433038702
0.26605825129769045 -0.8702373279263623
0.29665631459994957 -0.9130142556433474
0.3125454282788705 -0.907697832575344
0.3454403447589255 -0.9490895469937675
0.34403323156348836 -0.8962372094373137
0.35962232967927565 -0.8900965003841158
0.39463843977416646 -0.9297099019869648
0.4108040095065584 -0.9226809122190268
0.44797535744514144 -0.960686254258849
0.44275485825696825 -0.9077819867621586
0.4812299297239197 -0.94446691563967
0.47416627841374975 -0.8917770687875162
0.4654172354364836 -0.8396349188538199
0.5049999999999999 -0.8746856578222831
0.5716922631501603 -0.9514557037793446
0.5617144200871972 -0.8989309819258116
0.6045493288666801 -0.9309243304194207
0.6207041228525291 -0.9202317055360962
0.6653486661672133 -0.9502163713752304
0.6524416300446453 -0.8980088637561917
0.7281961780139784 -0.9663489671572243
0.7449503851440467 -0.9534930118641335
0.7614776731703032 -0.9403466133629348
0.7649172555269818 -0.9115928873115838
0.7938314250785138 -0.9131985920695541
0.8765610943301043 -0.9735197213753864
0.8593179336787482 -0.9215056640401547
0.9100024653012865 -0.9423351384436329
0.9616652224137048 -0.9616652224137047
1.0142691184774981 -0.9794683023471861
1.0312087192830304 -0.9616176876881228
1.0478342039231259 -0.9434741549659899
1.0641405081141084 -0.9250432308766152
1.1950293312656057 -1.0027486711110012
1.2123476998728746 -0.9817398100377464
1.3080978509871586 -1.0219980490405924
1.325734946678506 -0.9990129384324
1.3429682106624128 -0.9757235188055053
1.3597923935197263 -0.9521368843427364
1.4176542490691213 -0.956219864934977
1.5179937279812177 -0.9857966533771989
1.5349670540431313 -0.9591538682621009
1.6200461983269923 -0.973421961580002
1.636788013152589 -0.945
1.6093002611364882 -0.8920497012532602
1.5804761912174794 -0.8403540973867446
1.639452004506597 -0.8353425195207661
1.608841342875509 -0.7846843527524485
1.6222909387956035 -0.7564866885158519
1.6352463691802557 -0.7280585911056823
1.6477036876798683 -0.6994087199957999
1.6132999069462102 -0.6518154725436867
1.6711089634299912 -0.6414786296860876
1.6350651601674804 -0.5951150493866637
1.6452023215428113 -0.5664885887554526
1.635817208027664 -0.5315092303249095
1.6926594180545729 -0.517497917359244
1.6533701170139086 -0.47409625200523847
1.6613924212171975 -0.44516875757633556
1.688314563720234 -0.42094409834342167
1.8610468237397992 -0.4296565137967819
2.1127988175850203 -0.4490892521663603
2.4638842304536364 -0.47893057839512754
7.592867775724124 -1.3388274498120332
7.565692688958755 -1.1982880022081686
7.585453406560429 -1.066065953354101
7.602903521572528 -0.9335191704834294
7.6180377185209736 -0.8006880286302249
8.079139001524055 -0.7068330736835069
8.838417485302044 -0.618042357372949
8.698063247712339 -0.45584617887604145
5.856430246331901 -0.20451105067665598
5.909099878374272 -0.1031437220443457
5.71 0.0
5.859107493616453 0.10227110172248152
7.855211900370093 0.274310044081658
7.849228143170951 0.4113606160695391
7.890731637555209 0.5517737073160319
7.929709796810294 0.69375971227136
7.866668192363042 0.82682014444714
7.900667367064924 0.9700799735049735
4.7631894106469534 0.6694226156179146
4.701396501232856 0.7446280535914989
4.983127230241772 0.8786597789946675
5.7032539358309275 1.1086002631377256
5.340685900006578 1.1351978318649663
5.027749534291814 1.1607474404143439
4.667122443387543 1.1636443178344023
4.501214350507058 1.2060967501777475
4.2391640790879865 1.2155607391529661
4.026043022604379 1.2308848768827216
3.861289456158323 1.2546089971622862
3.649701701813363 1.256693076204625
3.48625962311572 1.268894731738231
3.323546318330038 1.2757899003812692
3.161696944072745 1.2774084835482604
3.000845822254955 1.2737834788750328
2.886803646150619 1.2852877921195291
2.818617217683981 1.314342794013575
2.7053700793604922 1.3194971518351233
2.681929637806987 1.3665114042160358
2.6135248748624234 1.3896358258462373
2.5014123624186717 1.386555513904524
2.4768326548234945 1.4299999999999995
2.494356845043147 1.498760797988258
2.5102223646230213 1.5685610221302866
1.6857278415703019 1.0947244603802047
1.5420098849523778 1.0400988004555891
1.5236228023775247 1.0668521716129462
1.5047716095374024 1.0932805692640002
1.4854620486879646 1.1193759430628103
1.3868989263478306 1.0835641965731586
1.367776892164269 1.1076038882477137
1.3099359977334524 1.0991668125639822
1.215082424158663 1.0562550366747165
1.2336204102924742 1.1107568065557047
1.2140471446878232 1.1321172777037474
1.158137078545228 1.1183999764389858
1.1384419177103418 1.1384419177103415
1.0836670579160357 1.1221700885282961
1.0639174416974977 1.1409117745259059
1.010387215601876 1.1221486864708652
0.9578461823261406 1.101875987125247
0.9384699101423476 1.118424886953708
0.9502737904852545 1.173490401800026
0.8988657539754612 1.150495700265814
0.8786499338019903 1.1660078446690476
0.8287772057323871 1.140713962068676
0.8087427752549747 1.1550043824474785
0.7884619938937529 1.1689429773026088
0.7679410393711883 1.1825255008030477
0.7206901993571587 1.1533454107727394
0.7004517818776739 1.1657475289548727
0.6549999999999999 1.1344932789576148
0.6351006025227016 1.1457518163526084
0.6150077472495168 1.1566613466451945
0.5947275546588064 1.167218546686762
0.5742662022936912 1.1774202006519088
0.5324990097932814 1.141947811666179
0.5124881702755085 1.151067276629677
0.49232122189648486 1.159836115350075
0.47200430770404933 1.168251656754152
0.4515436164270782 1.1763113373864742
0.4138443734240593 1.137028071150949
0.3939374668931594 1.1440774764751733
0.3893614129124338 1.1983312105318935
0.34792232862005645 1.1380026595960122
0.319739332747719 1.11506356728845
0.3131710445740504 1.1687702498097725
0.2878870557636045 1.1546519142684357
0.26769175466919953 1.1595003770944299
0.24741491207313349 1.1639956448732287
0.22706270449808844 1.16813634830272
0.20316836787030834 1.1522250710242834
0.19085004734908173 1.204979775526068
0.16979118317127959 1.2081270438647158
0.14868059895427993 1.2109063050024127
0.1222983020231548 1.1635906175808797
0.10197221901476002 1.1655477967673422
0.08161507428062678 1.1671499388039943
0.062279787929103055 1.1883691463579429
0.03978542624085123 1.139305542801769
0.01989574333850305 1.139826372478286
