# .PCD v0.7 - Point Cloud Data file format
VERSION 0.7
FIELDS x y
SIZE 4 4
TYPE F F
COUNT 1 1
WIDTH 180
HEIGHT 1
VIEWPOINT 0 0 0 1 0 0 0
POINTS 180
DATA ascii
5.817072295949927e-17 -0.95
0.016579786115419416 -0.9498553103985716
0.033154521867376024 -0.9494212856681409
0.05338267536780285 -1.0186021254496653
0.0676637795318017 -0.9676371287520295
0.0845410704652284 -0.9663088571489932
0.10139260936962385 -0.964686238507225
0.12430673027325044 -1.0123970746741484
0.1419565629792668 -1.0100734301164018
0.1548701203898286 -0.9778114571891864
0.17191169589026112 -0.974959675482086
0.18890090542277946 -0.9718109116131873
0.20583257390958185 -0.9683661247264675
0.22270154380042648 -0.9646263641373829
0.239502676643671 -0.9605927690132365
0.25623085465149553 -0.9562665680261776
0.2728809822588292 -0.9516490789789357
0.2894479876755094 -0.9467417084034051
0.32137767414994534 -0.9890987769469597
0.338590880635443 -0.9833393186232895
0.33859994189241216 -0.9302956945780492
0.3727026675271124 -0.9709236435570898
0.3895908571525487 -0.9642712087494588
0.4063603736288447 -0.957325047590538
0.44334294095262244 -0.9957645488304349
0.4395229922103274 -0.942560098518116
0.47782455000009444 -0.979685510466092
0.4948496447161061 -0.971197111365321
0.511724003436621 -0.9624128762162304
0.5526829670808243 -0.997066466138911
0.5449999999999999 -0.9439676901250382
0.5871434053974618 -0.9771707228004078
0.6041079612258535 -0.9667748296183255
0.6208884999171308 -0.9560844474577832
0.6374799099566514 -0.9451028327127474
0.6825559592577448 -0.9747909327039002
0.699464450228043 -0.9627302233061874
0.7462506287085399 -0.9903080324586431
0.7634202294038164 -0.9771333344723352
0.7803572849017983 -0.9636609922066439
0.8291960164956358 -0.9881973316234817
0.8463161473977544 -0.973575358487376
0.8631784822029271 -0.9586568248658386
0.9138778024837482 -0.9800139601696883
0.8752695467783366 -0.9063681484267003
0.9333809511662429 -0.9333809511662426
0.9063681484267005 -0.8752695467783366
0.9580733491211135 -0.893417851681873
0.9586568248658387 -0.863178482202927
0.973575358487376 -0.8463161473977544
1.0648017759353794 -0.8934747774642895
1.0802328864251896 -0.8747553435592739
1.0953349475133436 -0.8557694507026649
1.1500351344681017 -0.8666136333389495
1.2054353216186717 -0.875800025915785
1.2205365459905977 -0.8546288901630587
1.3181697403625163 -0.8891167165184874
1.3334862030332244 -0.865976065673893
1.3907988776965388 -0.869067593342456
1.4486127381865699 -0.8704143465979913
1.5068842025849232 -0.87
1.5655692757795183 -0.8678092202409433
1.6687709505033719 -0.8873012536653335
1.7285526569254337 -0.8807415694947208
1.7886001521353423 -0.8723585821102641
1.848867885554766 -0.8621412539510268
1.9275809156258878 -0.8582143168899383
2.034315726129893 -0.8635157939612947
2.0954355113209395 -0.8466109011199608
2.2499288278582563 -0.8636667584041738
2.3116438471333343 -0.8413695525811452
2.420527553534251 -0.8334544754103211
2.5773631591598662 -0.8374360547561074
2.7350316020542818 -0.836183075507027
2.8933977047743396 -0.8296684410091673
3.1489181937023627 -0.8437500870342174
3.308708426601148 -0.8249536639948666
3.5661944371139613 -0.8233208588985454
3.82455711886918 -0.8129347110974393
4.181731801487048 -0.8128463203040811
4.490723353735668 -0.7918356901612024
5.491547173708966 -0.8697756256236836
5.703944075951445 -0.8016370615299767
6.114084294110544 -0.7507151553757082
6.921872391763182 -0.7275181043428676
7.929709796810294 -0.6937597122713582
9.287321307918965 -0.6494327705578055
11.144705607861043 -0.584069271671254
14.10140456923944 -0.49243189847228935
16.157538753727284 -0.28203088802650195
16.16 0.0
21.80667823136089 0.3806369843971539
21.846683478637434 0.7629029979166723
21.780110152997253 1.1414472056586065
21.806750138679757 1.5248765160465811
20.930050606907574 1.831142155128301
10.750781688931035 1.1299526879233355
8.942840826288311 1.0980427840803784
7.783507020308743 1.0939005735461143
6.726157599452888 1.0653187069239722
5.86945420795276 1.0349431388949049
5.261521703279479 1.0227362152182806
4.851612099639675 1.0312419864560867
4.394408992181411 1.0145292550908316
4.036430221308145 1.0063950856946182
3.7284736894758033 0.9990415140957307
3.4701547223373312 0.9950508544993667
3.2131839800357995 0.9823689278683954
3.0528914173074426 0.9919445519435811
2.798734983773978 0.9636817371931838
2.6875208954476975 0.9781776099114127
2.530002955807417 0.9711771432677638
2.419949860419315 0.9777232088155307
2.2184166968203813 0.9416620196591501
2.155967280036538 0.9598984776588887
2.048255598702829 0.9551172715339805
1.9413951400062006 0.9468816770644076
1.835473439828038 0.9352204294634664
1.801213089432211 0.9577219880832176
1.7142546259932157 0.9502268556828206
1.610807251039056 0.9299999999999997
1.5514728142708232 0.9322189155871983
1.560408496927824 0.9750514461890971
1.5599272563784885 1.0130286051279507
1.5254291335012768 1.028914942386174
1.4662821592772952 1.026701821068373
1.448140419931156 1.052135601603527
1.3896257874822893 1.0471581402845644
1.2923376359150238 1.0096848195340795
1.2745193767894323 1.032085441321733
1.218010664559175 1.0220322994015976
1.162252753543069 1.010330904645381
1.144443031235187 1.030461133792642
1.0897170154125642 1.0161775564931228
1.07181630250459 1.035040971983906
1.0182337649086284 1.0182337649086284
1.0003080534609559 1.0358493124876578
0.9479777204868728 1.0165816452506469
0.8966350125208702 0.9958140661397082
0.8791190988472798 1.0113108374985145
0.861335396979963 1.0264995537794306
0.8118233044542903 1.0025182902794925
0.7942033031700994 1.0165338721526713
0.7462506287085398 0.9903080324586432
0.6818308926592688 0.938459713474939
0.636669844349661 0.9092587691607811
0.609520264783114 0.9036509540849955
0.5936565481663797 0.9141509190605122
0.5511160348025331 0.881970020002683
0.5613915016519592 0.9343123577653024
0.5199999999999999 0.9006664199358163
0.5042020050561906 0.9096044954249716
0.46477684715803175 0.8741181169303377
0.4494505947421514 0.8820964589464843
0.45590599266064036 0.9347458081511337
0.41839207912329246 0.8972447091662834
0.4108040095065584 0.9226809122190268
0.4063603736288447 0.957325047590538
0.3895908571525487 0.9642712087494588
0.3727026675271122 0.9709236435570898
0.3557009490586956 0.9772803256173447
0.3385908806354428 0.9833393186232896
0.32137767414994534 0.9890987769469597
0.304066572911646 0.994556946201557
0.2728809822588292 0.9516490789789357
0.25623085465149575 0.9562665680261775
0.239502676643671 0.9605927690132365
0.22270154380042648 0.9646263641373829
0.20583257390958165 0.9683661247264677
0.18890090542277946 0.9718109116131873
0.17191169589026092 0.9749596754820861
0.15956315434103555 1.0074421074070405
0.14195656297926654 1.0100734301164018
0.12430673027325044 1.0123970746741484
0.10661903253300675 1.0144123332756387
0.0845410704652284 0.9663088571489932
0.0676637795318017 0.9676371287520295
0.05076587755565543 0.9686706487119366
0.0355974866365511 1.0193786435594776
0.016928834244164876 0.9698522643016995
