# .PCD v0.7 - Point Cloud Data file format
VERSION 0.7
FIELDS x y
SIZE 4 4
TYPE F F
COUNT 1 1
WIDTH 177
HEIGHT 1
VIEWPOINT 0 0 0 1 0 0 0
POINTS 177
DATA ascii
8.42556997813379e-16 -13.76
0.2104760216336402 -12.05816320358608
0.3790085341891617 -10.853384381427379
0.5107989329311331 -9.74662425920464
0.6250180047473641 -8.938173890328025
0.7199064350956562 -8.228568206237817
0.8372729907739042 -7.966120381899869
0.8603975644403412 -7.0073758305877325
0.9129755422980294 -6.496158530944701
0.971458027899834 -6.133544595095805
1.0175783211282123 -5.770973432651539
1.070438464062417 -5.506928499141395
1.1040110782423027 -5.193963759896508
1.1382523349799576 -4.93031252781329
1.1636443178344014 -4.667122443387543
1.1802148456674946 -4.404621767878151
1.2155607391529664 -4.2391640790879865
1.2308848768827219 -4.026043022604379
1.2546089971622865 -3.861289456158323
1.272971483927483 -3.6969776305933286
1.2859957389045147 -3.533244254155015
1.3116266953357993 -3.4169043609797587
1.3148691428898516 -3.254415329529423
1.3323931481484235 -3.138921550272822
1.3462982885808992 -3.0238354647970085
1.3566046201876452 -2.9092479963876463
1.385252823853485 -2.8401891863053677
1.3892109292030135 -2.7264799640164057
1.4131094039855314 -2.65767225450537
1.4107959949168412 -2.5451433477756416
1.4299999999999997 -2.4768326548234945
1.4215050867517496 -2.3657817499378297
1.4360812060719852 -2.2982103405839145
1.4378470524396716 -2.2140902993759193
1.4483096199892345 -2.1472073129175575
1.4855629701492092 -2.1216037947084887
1.4635852782082583 -2.014452315993619
1.4985194076486004 -1.9886024200177592
1.4714309260283236 -1.8833457011200654
1.5040757346091114 -1.8573788478821605
1.5041230066665021 -1.7925439968984085
1.5023751763882618 -1.728284938710148
1.5122351703710195 -1.679507305578911
1.5413162937412466 -1.652859365659325
1.5699279172373337 -1.6257079487653512
1.619274528917194 -1.6192745289171937
1.6472881427755113 -1.5907676683511038
1.6382322916269423 -1.5276763265399966
1.6274871677954936 -1.4653960279258993
1.6905494596990094 -1.4695722249387364
1.6776373304305618 -1.407704865213521
1.6630923575179177 -1.3467456368466522
1.6863430127183852 -1.3175155571969086
1.7090799915012067 -1.2878841495453834
1.6908455182436402 -1.2284711772912689
1.7120277725639927 -1.1987747519736862
1.7326885266400371 -1.1687131682538607
1.668954430211394 -1.0838316796799037
1.7300181161591093 -1.081035299035738
1.7057629283972036 -1.0249257690710076
1.7233905535310328 -0.995
1.7404932172073975 -0.9647711442902107
1.7129183301463182 -0.9107748318046281
1.7285526569254337 -0.8807415694947208
1.743660449820384 -0.8504400247708102
1.7129217174992684 -0.7987485146899218
1.6352463691802557 -0.7280585911056823
1.6016784450072463 -0.6798721635713362
1.6596590996745495 -0.6705458022144823
1.6711089634299912 -0.6414786296860876
1.6350651601674804 -0.5951150493866637
1.6452023215428113 -0.5664885887554526
1.6548383383535672 -0.5376895702124085
1.6926594180545729 -0.517497917359244
1.6245322661357589 -0.46582713133072845
1.6613924212171975 -0.44516875757633556
1.6980175209829937 -0.42336331729941834
1.7051476133741617 -0.3936643451017635
1.3596251650199898 -0.28899725023668554
1.2662990666474865 -0.24614360403574287
1.2704020013857484 -0.22400614919034018
1.2741179593677276 -0.20180045990189782
1.3269592121137044 -0.18649195528648765
1.3300118431993717 -0.16330492016289758
1.2829332450250726 -0.13484171761527286
21.627386895571796 -1.8921511750516566
21.657115531140786 -1.5144130449849578
21.63031572278407 -1.133596812222165
7.958787653444874 0.13892115524077694
6.805851532000042 0.23766557254403192
4.653613631956314 0.2438855560921186
4.499013866671807 0.31460169658600556
6.634656689291026 0.5804572466994042
6.6235158231527 0.6961595653625731
6.659984677513271 0.8177432942485393
6.941779161878408 0.9756034377300585
7.516308271928999 1.1904662789561569
7.543627388073514 1.3301450409286866
8.402728690312005 1.633325000423224
4.362538299272773 0.9272861410472069
4.345690488942149 1.0032817023736382
4.473063298132344 1.1152599387144688
4.452918059192605 1.1931557979226215
4.287227163884903 1.229342606943816
4.31293444939329 1.3185963882995426
4.289264888491142 1.3936666446310126
4.311564704732884 1.4845907843246344
2.6875208954476975 0.9781776099114127
2.623360998457137 1.007013938222294
2.559027438604333 1.0339141978279174
2.494568152856113 1.0588813582059322
2.3386763715650583 1.0412458062740488
2.320147934813824 1.0819027500561904
2.255973056210909 1.1003115784405846
2.102775397084548 1.0714175793853304
2.039608939504121 1.0844793100354082
2.0203715234920043 1.1199102227690387
1.9139161423636095 1.1049999999999995
1.8086230044814566 1.0867303380602145
1.7469790780822378 1.0916336843204022
1.7276613699675734 1.121956412130956
1.707817399463386 1.1519373811497384
1.646495609020873 1.1528886370656029
1.585673308974897 1.1520590944932474
1.525393824190329 1.1494666942204126
1.5051005393888388 1.1759134178720072
1.4688058671536752 1.1894155390841925
1.4248426642012992 1.1955849540169632
1.3660243402032173 1.187466842472818
1.3079348928402137 1.1776698671915906
1.2871825148497402 1.2003171137099973
1.2660380485960256 1.2225987320078353
1.1950104602052654 1.1950104602052651
1.1878658134848852 1.2300710585790937
1.1662171957068723 1.2506148297687814
1.1107568065557047 1.2336204102924742
1.089057988124242 1.2528179031698015
1.0348880515953287 1.2333315534215548
1.0132058295902382 1.2512049979457232
0.9912149752743101 1.2686973133068224
0.9087406849595927 1.2059396201714123
0.8581664683470107 1.1811648117874232
0.8374215970725271 1.1959619846619283
0.7884619938937529 1.1689429773026088
0.7679410393711883 1.1825255008030477
0.7471861625688189 1.1957478155805605
0.7262036856231765 1.2086058939899782
0.7049999999999998 1.2210958193360586
0.6593410835350185 1.1894828017095782
0.6525654722723879 1.2272971540739084
0.6628261296197384 1.300869525315017
0.6181033169725989 1.2672996052818255
0.5958917490543861 1.2778939797216764
0.5734986667368785 1.288099095276067
0.5509308911698759 1.2979118433679409
0.5094649670456406 1.2609700422108308
0.48738041138160826 1.2696693800361945
0.46514739492290963 1.2779819642688355
0.4427726900617329 1.285905262815071
0.4202631123499286 1.293436862161409
0.3830069331867849 1.2527592303115767
0.3693540567947789 1.2880906725573473
0.3597584726925041 1.3426368985418047
0.3241753401035547 1.3001962732098353
0.3014344128207793 1.3056558868122152
0.27860166569579736 1.3107177849832996
0.2518678738970393 1.2957478821509165
0.2292155945203479 1.2999462339761148
0.20649349385310484 1.303748609585582
0.18370849326728614 1.307153850738873
0.16696100046505208 1.3597882277486113
0.13797757151330287 1.3127689018861208
0.11243090814447901 1.2850911605383517
0.09347367481712812 1.3367358273481644
0.07013018136554462 1.338163576571129
0.04676532558135145 1.3391837082055884
0.023386224625959726 1.3397959115095643
