# .PCD v0.7 - Point Cloud Data file format
VERSION 0.7
FIELDS x y
SIZE 4 4
TYPE F F
COUNT 1 1
WIDTH 180
HEIGHT 1
VIEWPOINT 0 0 0 1 0 0 0
POINTS 180
DATA ascii
4.1025667771436334e-17 -0.67
0.010820491991115832 -0.6199055709969625
0.023382662790675725 -0.6695918541027942
0.032448292870625256 -0.6191503115478357
0.04464414319624029 -0.6384409921662875
0.051421888221118296 -0.5877548718741299
0.06689821649129822 -0.636494013035695
0.0779963797792944 -0.635229537050446
0.09185424663364321 -0.6535769253694365
0.10324674692655242 -0.651874304792791
0.11460779726017407 -0.6499731169880574
0.12593393694851965 -0.6478739410754583
0.1476173004806092 -0.6944847965210019
0.148467695866951 -0.6430842427582553
0.1669261079637707 -0.6695040511304375
0.16564418886561327 -0.6181925288250038
0.1957025226300694 -0.6824958041162064
0.2075839103531431 -0.6789763767337551
0.20395121628746532 -0.6276973007548013
0.2311533896645813 -0.6713181886755148
0.24283430176122486 -0.6671817607579948
0.25444124417716324 -0.6628421028130133
0.28470101099609324 -0.7046597294707584
0.27741910122738433 -0.6535584459512326
0.3091198487376083 -0.6942945478083766
0.3211898789229316 -0.688793918147854
0.33316207155969885 -0.6830834751873669
0.3450327798020556 -0.6771649583831596
0.35679838771727707 -0.6710401705727844
0.39269579239953306 -0.7084419627829106
0.4049999999999999 -0.7014805770653953
0.4429327444226467 -0.7371638786038165
0.429234604028896 -0.6869189578867051
0.441157618362172 -0.6793231600357934
0.4417623937418901 -0.6549396823184829
0.4531253847173264 -0.6471301149883035
0.4761060543569033 -0.6553037654437075
0.5175609199107615 -0.6868265386406718
0.5294688687800663 -0.6776892481017808
0.5412155363028601 -0.668345526852995
0.5849367248147508 -0.69710044323827
0.5970137163813617 -0.6867857180027226
0.6089088517865611 -0.6762617911844288
0.6547184256599986 -0.7020995535544035
0.7016049541635873 -0.7265331983420376
0.7141778489984131 -0.714177848998413
0.7265331983420377 -0.7016049541635873
0.7752349237163209 -0.7229182616662484
0.7728706184964902 -0.6958958306132125
0.7999921550361384 -0.6954225707299377
0.8503093318620657 -0.7134942467520586
0.8626320172172378 -0.6985456340653196
0.8746919365034616 -0.6833842376114806
0.9663489671572243 -0.7281961780139784
0.9789105631936864 -0.7112201552738925
0.9911739735896801 -0.6940274879847657
1.0031354627916005 -0.6766234131996036
1.0567249156112344 -0.686245184118934
1.1109430059649181 -0.6941942361454985
1.1657475289548729 -0.7004517818776735
1.2210958193360584 -0.705
1.3206757577804875 -0.7320625265719689
1.3332508652169797 -0.7089020598066951
1.389970177733854 -0.708225179593693
1.4919981168566172 -0.7276961036698685
1.5497863158326715 -0.7226772275765959
1.6078400054509778 -0.7158564918134083
1.7121390274215391 -0.726759898990049
3.022619365887727 -1.2212174945358727
2.9967931690560174 -1.150361118040414
3.0164133127227655 -1.0978846600753966
3.0351146276738072 -1.045073775807473
3.005338591492685 -0.9764937022248338
3.0219230288431924 -0.9238945869238481
3.037586959165088 -0.8710140443817173
3.0040293197590024 -0.8049272302688393
3.260193640287348 -0.8128575692148832
3.7123499468317465 -0.8570635170501252
4.215816159162702 -0.8960993874245429
4.770708111555647 -0.9273317175300081
5.032367617892383 -0.8873421878780142
5.047087420441154 -0.7993801163555798
5.010756427832345 -0.7042158908579309
5.022283527305089 -0.616658877630046
5.032280790563463 -0.5289140241343261
4.990935437439645 -0.4366502711657669
10.983180193360665 -0.7680187759228182
11.344431514811959 -0.5945364629198427
12.052653373850296 -0.4208879302321623
12.108155588343898 -0.2113486419555036
11.26 0.0
11.208292662703148 0.19564147616194846
11.253140712235018 0.3929683328701615
11.244568561336502 0.5893028672955484
11.23257120592562 0.7854578943588519
11.266962035417643 0.9857314504760153
11.297768731383584 1.1874433427205449
9.339859286944842 1.1467905214424374
8.427181264990763 1.1843630891701566
7.911383608167053 1.2530400649722493
7.297425449820461 1.286732996511954
6.733962478450975 1.3089497082830979
4.998334239749747 1.0624287400787507
4.6380015083777195 1.0707670186767977
4.473063298132344 1.1152599387144688
4.259732893934791 1.1413919889021171
4.046911739900323 1.1604332679895661
2.400324937467219 0.7338529788540691
2.339599030086078 0.7601818061623706
2.325975695974319 0.8008976599646055
3.3453057299978335 1.2175917102393807
3.183509254355458 1.2220347079494742
3.0226193658877265 1.2212174945358734
2.126366211475137 0.9025889068102226
2.064612734272278 0.9192248133513087
2.030129442962096 0.9466649062991667
1.087540796021992 0.5304290876147838
0.9890172418490885 0.503929454710897
1.0065602558591766 0.5351975815759157
0.997066466138911 0.5526829670808242
0.98726896031426 0.5699999999999997
0.9343123577653024 0.5613915016519592
1.009177234426147 0.6306039244375138
1.081885032649597 0.7025843551693851
1.0445873414193525 0.704583058373141
1.8922412223075709 1.324961567970917
1.828378407287381 1.3283946701809892
1.8049162527068814 1.3601019523236295
1.6627026901101831 1.2990457129371389
1.6786352767470576 1.3593320446676487
1.6546559971369925 1.3884212369229252
1.592437214270049 1.38428455116997
1.5308783404834319 1.3784090490992482
1.4334532551735744 1.336716785722497
1.4099060086637558 1.3615304060996347
1.3859292911256331 1.385929291125633
1.3615304060996343 1.4099060086637565
1.3026168677193721 1.3968855700926155
1.2780394581454193 1.4194066166618227
1.2202697939223437 1.403759819214356
1.1955849540169634 1.4248426642012992
1.1390699078002058 1.4066341902371173
1.1759134178720074 1.5051005393888388
1.1795574453780144 1.565325599692694
1.1520590944932474 1.585673308974897
1.1528886370656022 1.6464956090208736
1.1519373811497384 1.707817399463386
1.1764203156324589 1.811528426762116
1.197617537167043 1.9165886973135224
1.1639860492967224 1.9371980995867735
2.3549999999999995 4.078979651824707
2.234972349335614 4.031996849912614
2.1173167481643667 3.9820936437937604
2.2744924036951297 4.463942686183723
2.152402330734369 4.41307876732891
2.3074957091042188 4.948440517220108
2.1597715747325 4.8509263800822096
1.8794167280334064 4.427628345106238
1.783127384659742 4.413395147737908
1.6879130423583637 4.39716380880182
1.5938138678976168 4.378967612862333
1.5171475997703494 4.406116562292817
1.4245683440685077 4.384370540120658
1.3478335587718155 4.408564924989594
1.312033813688916 4.575605672666398
1.2190377024328738 4.549510641821511
1.1394521282744348 4.570092870759943
1.0707670186767981 4.6380015083777195
1.0936154937014135 5.145056379859818
1.3757328566648888 7.077531992657657
1.2520033609785668 7.1004638992180205
1.1200707696880534 7.071848518661186
1.0034380579220703 7.139832775626722
0.8725844987808561 7.106630445751866
0.7484237969964004 7.120776770836837
0.6196773309358494 7.082944303432311
0.30762604921159326 4.399257461645825
0.06594330486610912 1.258273213790763
0.04257738597705132 1.219256808963297
0.021640983982231386 1.239811141993925
