# .PCD v0.7 - Point Cloud Data file format
VERSION 0.7
FIELDS x y
SIZE 4 4
TYPE F F
COUNT 1 1
WIDTH 180
HEIGHT 1
VIEWPOINT 0 0 0 1 0 0 0
POINTS 180
DATA ascii
1.0531962472667238e-16 -1.72
0.030890759393991968 -1.7697304204268125
0.060027134328301854 -1.7189522224728446
0.09001784473786362 -1.717642799777867
0.12346895852710206 -1.7656883689598888
0.1542656646633549 -1.7632646156223897
0.17978895682036394 -1.71057766003343
0.20961527065685367 -1.7071793808230737
0.2393777336513126 -1.703261078235501
0.27688900312120873 -1.7482083628533938
0.30735727447046685 -1.7431097228316081
0.3377319218164845 -1.7374801147023653
0.3680036927474342 -1.7313212532988358
0.4094109189058346 -1.7733535179091282
0.4282017552114118 -1.7174234355085138
0.4581097098314617 -1.709688712531651
0.4878781197960885 -1.7014332018108245
0.5321165025953809 -1.7404746558527247
0.5624109297624044 -1.7309228596571795
0.5925340411120253 -1.7208438075907566
0.6122160565529472 -1.682049791206776
0.6593970271633527 -1.7177879847548512
0.6892761318852785 -1.7060182924028888
0.7189452764202636 -1.6937289303524903
0.7483954232594727 -1.6809236420623854
0.7987485146899219 -1.7129217174992684
0.8285214674313564 -1.6987207475054253
0.8580420445077436 -1.6840023307160152
0.8873012536653336 -1.6687709505033717
0.940530663277894 -1.6967622318504276
0.9699999999999998 -1.680089283341811
1.024925769071008 -1.7057629283972033
1.0545393358240778 -1.6876157113512877
1.1110636314306552 -1.710887958608665
1.168713168253861 -1.732688526640037
1.1987747519736862 -1.7120277725639927
1.2284711772912689 -1.6908455182436402
1.2878841495453834 -1.7090799915012067
1.317515557196909 -1.686343012718385
1.3782116563991438 -1.7019496555907663
1.4398442456978484 -1.7159395525865109
1.4695722249387364 -1.6905494596990094
1.5323090885617854 -1.701801650343233
1.5958761625462465 -1.7113676617888585
1.6255005868740535 -1.6832551327924434
1.6899852070358488 -1.6899852070358485
1.7551891128263089 -1.6949664239199533
1.8210707170317348 -1.6981759165556214
1.8875878567125817 -1.6995917401514997
1.9546978127769794 -1.6991928850854137
1.984055107678153 -1.6648199090881366
2.1293799343921003 -1.7243378714765545
2.1749096799545526 -1.6992256718988163
2.244165783232893 -1.6911002150572556
2.3137886039123496 -1.681065821556473
2.3837324488809664 -1.669107429781544
2.4539512147629234 -1.6552109942734106
2.566331937912998 -1.6665954471459825
2.6798319838543065 -1.6745448749769276
2.794365400288886 -1.679024124206776
2.866544086526492 -1.655
3.0261841867023094 -1.6774412860523262
3.14329343057778 -1.6713187635177713
3.305634204738845 -1.6843047540337186
3.4693450187147845 -1.6921126266058388
3.5889788366651336 -1.6735683164931696
3.7546718309110902 -1.6716876030415388
4.749805043814592 -2.016172623004652
4.9697054604779805 -2.0078913407092878
5.3774232566238815 -2.0641993893809296
5.459614126766127 -1.9871370327221354
5.446186995452065 -1.8752725696732224
2.5298103333451087 -0.8219852050373602
2.5915858886598264 -0.7923273197986165
2.605019195992844 -0.7469772342640676
2.6659552805578284 -0.714340564482957
2.5324718455803508 -0.6314161475151324
2.5431058690894637 -0.5871222518374872
2.748594758061994 -0.5842318511979039
8.64813548617392 -1.6810272492673604
11.87678150132723 -2.09419702266318
11.763368136488092 -1.8631344786291497
11.794092698712102 -1.657551632434379
12.764143510107402 -1.5672397561901958
14.728869270404127 -1.5480665409939467
16.696223140017658 -1.4607302484507494
18.46491057030935 -1.2911923290037572
26.373806012868297 -1.3821926043761485
43.03376901144227 -1.5027723280096938
43.85331990955932 -0.7654625463392559
43.71 0.0
43.55336560101241 0.7602268244080709
26.343942200223363 0.9199507330779269
18.384769734831703 0.9635049544325973
13.826237736601163 0.966824726093578
10.818674421276356 0.946511366239569
8.811463992962901 0.9261221845514109
7.553276213990461 0.927425703313172
6.54567193438178 0.9199341973460324
5.787853675887508 0.916705965135753
5.229329168494824 0.9220718234114001
4.721626752383263 0.9177912677611807
4.264723539199393 0.906494971965431
3.955942463028055 0.9133012806360922
3.5997971444839467 0.8975302326747677
3.390399650274629 0.9084548483098484
3.1337131287589193 0.898577779963417
2.9741077910450406 0.9092760016877112
2.7675744624188967 0.8992394536310969
2.5623553398741485 0.8822896985788946
2.4525977402512207 0.8926725740799955
2.296607849183116 0.8815851558814388
2.1881538967776177 0.8840715604615526
2.0803409688025147 0.8830523503857589
1.973258188508018 0.8785511490437288
1.8669940412954988 0.8705936191858408
1.788600152135342 0.8723585821102644
1.746372787409201 0.8898213794895117
1.6687709505033717 0.8873012536653339
1.6093002611364882 0.8920497012532602
1.5501854727741453 0.8949999999999997
1.4486127381865697 0.8704143465979917
1.3907988776965388 0.869067593342456
1.3754197314304952 0.8932080174246445
1.3181697403625163 0.8891167165184874
1.2614941482050472 0.8833077119806113
1.2054353216186717 0.875800025915785
1.1500351344681015 0.8666136333389498
1.1347354851936795 0.886552524468948
1.0802328864251896 0.8747553435592738
1.0264995537794306 0.8613353969799628
0.9886695500918313 0.8594373279775644
0.9735197213753863 0.8765610943301044
0.9580733491211135 0.893417851681873
0.9639153324537924 0.9308422164150565
0.9616652224137048 0.9616652224137047
0.965575134938006 0.9998823224707253
0.9138778024837481 0.9800139601696884
0.8966350125208702 0.9958140661397082
0.8463161473977544 0.973575358487376
0.7970566360113089 0.9498951094675328
0.7803572849017983 0.9636609922066439
0.7634202294038164 0.9771333344723352
0.7462506287085398 0.9903080324586432
0.699464450228043 0.9627302233061874
0.6825559592577446 0.9747909327039004
0.6654395551301887 0.9865547113404997
0.6481204516678823 0.9980179758550545
0.6041079612258535 0.9667748296183255
0.5871434053974618 0.9771707228004078
0.5699999999999998 0.98726896031426
0.5284424860685075 0.9533354807819414
0.5117240034366208 0.9624128762162305
0.47215011972912874 0.9266467851559026
0.4778245500000942 0.9796855104660921
0.46065390529736244 0.9878754878699485
0.44334294095262244 0.9957645488304349
0.4063603736288447 0.957325047590538
0.3895908571525487 0.9642712087494588
0.3727026675271122 0.9709236435570898
0.3557009490586956 0.9772803256173447
0.3385908806354428 0.9833393186232896
0.32137767414994534 0.9890987769469597
0.304066572911646 0.994556946201557
0.2728809822588292 0.9516490789789357
0.2691718069066218 1.004562859340631
0.239502676643671 0.9605927690132365
0.22270154380042648 0.9646263641373829
0.20583257390958165 0.9683661247264677
0.18890090542277946 0.9718109116131873
0.17191169589026092 0.9749596754820861
0.15956315434103555 1.0074421074070405
0.14195656297926654 1.0100734301164018
0.12430673027325044 1.0123970746741484
0.10139260936962406 0.964686238507225
0.08279795561027523 0.9463849631871583
0.06068813215738914 0.8678807237260471
0.04553228193136106 0.8688076952364793
0.03036256213117594 0.8694700195066133
0.015183593600436538 0.8698674947860604
