# .PCD v0.7 - Point Cloud Data file format
VERSION 0.7
FIELDS x y
SIZE 4 4
TYPE F F
COUNT 1 1
WIDTH 179
HEIGHT 1
VIEWPOINT 0 0 0 1 0 0 0
POINTS 179
DATA ascii
5.449678256205722e-17 -0.89
0.015532641729182404 -0.8898644486891882
0.03036256213117594 -0.8694700195066133
0.048149079743508454 -0.918739171974208
0.06208326163227166 -0.8878320047312436
0.07321082390803284 -0.8368035463970662
0.0909397630428585 -0.8652340489703978
0.10237024846032389 -0.8337387673787104
0.11690540480645499 -0.8318251777429191
0.13140495063379398 -0.8296582060999157
0.15454687812356807 -0.8764789001808652
0.16982000588512497 -0.8736481932684209
0.18504140482780593 -0.870551364653087
0.18895888564884672 -0.8184708544195975
0.20321439230372085 -0.815048410071837
0.21740799788611742 -0.8113776940828173
0.23153537888627929 -0.8074598245881879
0.26021081720323574 -0.8511112328071015
0.25957427527495586 -0.7988874736879289
0.27347724974401166 -0.794235603503426
0.2872969203935618 -0.789341801460163
0.31894747509531735 -0.8308865795825096
0.33339986814016187 -0.8251936305644407
0.34775070435545363 -0.819249319572672
0.3416587801836723 -0.7673781844197846
0.37613025294922253 -0.8066139304626184
0.39015032064227895 -0.7999267012062585
0.4040515447681967 -0.7929958065276475
0.4178296908794429 -0.7858233576444449
0.43148056201924 -0.7784115393540623
0.4449999999999999 -0.7707626093681504
0.48413579041545096 -0.8057372626599855
0.47162814516755236 -0.7547628055792192
0.5119606929141254 -0.7883503338686985
0.5536009744360394 -0.8207471968294912
0.5391618501699833 -0.7700029216316523
0.5525181371549247 -0.7604759747124505
0.5957968729205277 -0.7906491549468199
0.6095048605724018 -0.7801306460706546
0.623027187139339 -0.7693745018424012
0.636359733589674 -0.7583839986877883
0.6494984387006022 -0.7471624844205443
0.6958958306132126 -0.7728706184964901
0.6751783764618736 -0.7240401646029786
0.7224447052773572 -0.7481133923521972
0.7353910524340095 -0.7353910524340094
0.7481133923521973 -0.7224447052773572
0.8337432198458544 -0.7774781304712481
0.7728706184964902 -0.6958958306132125
0.86036892145396 -0.7479072930491782
0.8732906651556349 -0.7327778750426547
0.8859463960609467 -0.7174252457968145
0.9377327967919992 -0.7326371556375332
0.9503762569562785 -0.7161598775509374
0.9627302233061874 -0.699464450228043
0.9747909327039002 -0.6825559592577448
1.0280065899682518 -0.693399200303726
1.081885032649597 -0.7025843551693848
1.0939820440417896 -0.6835958508608343
1.1486041829408307 -0.6901510203794725
1.2037753112603695 -0.695
1.21572139292376 -0.6738853721424085
1.2272971540739084 -0.6525654722723881
1.2830493948312498 -0.6537463196249473
1.3841428313007174 -0.6750915660551792
1.395713992036441 -0.6508321230806771
1.4525372776517356 -0.6467112624905222
1.4636027169893802 -0.6212624942979451
1.5205815214895313 -0.6143548132020955
1.577750920780271 -0.6056418347315575
5.412629495726832 -1.970036025555852
5.446186995452065 -1.8752725696732224
5.382979882230569 -1.7490361881622023
5.412684918750782 -1.6548238487306899
5.392678114213969 -1.546325566133365
5.37054759416722 -1.4390338907700149
5.346329451780741 -1.3329896447541685
5.320060553727385 -1.2282327567175022
5.291778519969888 -1.1248022473240784
5.310603062451862 -1.0322766649871078
5.2785695561454355 -0.9307542322947467
5.2446250885601815 -0.8306670093636258
5.2088100415806595 -0.732050511049944
5.220792757633354 -0.6410327463110754
5.1814590748687035 -0.5445932936244742
5.1901743770579944 -0.45408141971529853
5.147430499340693 -0.35994340451968593
5.152928399333601 -0.2700535342135906
5.10688712606758 -0.1783364281497802
5.089224768346031 -0.0888327487657732
5.09 0.0
5.709130339342994 0.09965324075688899
6.406095201192404 0.22370577386303153
7.349913375793664 0.38519263794806713
8.489270067711104 0.5936275915625071
10.56962574675342 0.9247224305526545
12.491195005825514 1.3128774986417293
14.352217352733518 1.762230705638432
17.53764749741321 2.4647556180027586
23.763781474719014 3.7638132288679547
25.66409004349814 4.525271510000205
16.942885186306682 3.2933632601991647
10.338066387371345 2.3867306865884084
10.294837655788323 2.5667913123124757
10.296769308241467 2.759011020792873
8.084210862841262 2.3181101624209624
7.612185857465763 2.327278769592984
6.0962722694519345 1.9807989339434129
5.398911066672099 1.8589941619503647
4.848813923255287 1.7648239395604508
4.770595979400701 1.8312602221764849
4.737909496836283 1.914239692355311
4.749805043814592 2.0161726230046533
4.71389456143582 2.0987610782711297
4.721863570460946 2.2018411436690437
4.682716981218659 2.283913674771094
4.686694317230815 2.387990028630016
4.688451718080901 2.4928939983930807
4.687961630267162 2.598579564520367
4.641896164284592 2.6799999999999993
2.880082130359097 1.7305279316977822
2.8070391982777703 1.7540327646119083
2.8598666366938956 1.857219109401243
2.9099218796681963 1.9627670911823212
2.8342660732399114 1.9845744697746202
2.8801004999748128 2.0925154981612044
4.160891007346395 3.1354562706221727
4.184337101651693 3.269162433979245
4.476360737992153 3.6248854524470624
4.450718214521262 3.7345960122787933
4.460333619116582 3.8773088613338973
1.2930719963306658 1.1642872550644134
1.2359877557363983 1.1525772285056224
1.21568426257232 1.1739726460757056
1.159655121145938 1.1596551211459378
1.1045068090298056 1.1437502825384556
1.0161775564931228 1.089717015412564
0.9970046034746989 1.1072857899613173
0.9775279531958558 1.1245172745319303
0.8934747774642898 1.0648017759353794
0.9062213631117658 1.119090184498038
0.8557694507026651 1.0953349475133434
0.8064321310237446 1.0701715834633727
0.7876322380719141 1.0840827724624296
0.7685924247104016 1.0976637393472493
0.7213588454772634 1.0694584685960038
0.6753524034186337 1.0399515042523257
0.657099887649174 1.0515796392339682
0.6386472128884673 1.0628874528706191
0.6199999999999999 1.073871500692704
0.601163929105458 1.0845284368528507
0.5351975815759152 1.0065602558591766
0.5175491697030834 1.0157474375747393
0.499743107339548 1.0246252127810502
0.4817848183843973 1.0331908772217808
0.44334294095262244 0.9957645488304349
0.42589693005330836 1.0033502902631601
0.4083211868233443 1.0106304014777983
0.3906210650043772 1.01760266488195
0.3557009490586956 0.9772803256173447
0.3385908806354428 0.9833393186232896
0.32137767414994534 0.9890987769469597
0.304066572911646 0.994556946201557
0.2728809822588292 0.9516490789789357
0.2691718069066218 1.004562859340631
0.2636948662036378 1.0576223416408361
0.25644420195200623 1.110781873855168
0.5114627594116877 2.406243097805162
0.488471028163955 2.51296558962602
0.4619041525940344 2.619588623012474
0.4317591235110373 2.72601982004258
0.4049937237937899 2.88168008003797
0.3790136579900087 3.086818531604511
0.3459892134159337 3.291867473668985
0.3146322313190459 3.596262860111201
0.26925998865232426 3.850597234002921
0.20097007197290398 3.8347374134575634
0.13401406733760415 3.8376607757533274
0.066144620397304 3.789422764642723
