# .PCD v0.7 - Point Cloud Data file format
VERSION 0.7
FIELDS x y
SIZE 4 4
TYPE F F
COUNT 1 1
WIDTH 177
HEIGHT 1
VIEWPOINT 0 0 0 1 0 0 0
POINTS 177
DATA ascii
1.8430934327167666e-16 -3.01
0.05078650273249528 -2.9095567929050987
0.11377235925015351 -3.258014096082252
0.1810824086005861 -3.4552581902508255
0.23786957546746781 -3.4016934113860007
0.28848550849474847 -3.2974044506836777
0.34076279025255024 -3.2421413789005706
0.3790136579900087 -3.086818531604511
0.418911033889797 -2.9807068869121265
0.4630460165190835 -2.9235574881616078
0.496633788127421 -2.8165501736149148
0.5361732770080913 -2.758372385487936
0.569678032840661 -2.6801244260106274
0.587122251837488 -2.5431058690894637
0.6265777096031392 -2.5130659310548307
0.6444594223052766 -2.4051553074597805
0.672555148193478 -2.3454785380894982
0.5379639366898357 -1.7596007509719853
0.5531404199311559 -1.702391164168325
0.5827669964783107 -1.692478250322777
0.6122160565529472 -1.682049791206776
0.802744206981473 -2.091220155353732
0.8203884395808476 -2.030532641501264
0.758018389269191 -1.7857794156977342
0.7565301561209887 -1.6991945512152375
0.7987485146899219 -1.7129217174992684
0.8372888903671379 -1.7166966284314087
0.9715396694426304 -1.9067539617631075
1.028142722501101 -1.9336552283610497
1.0859735493517952 -1.9591481439922467
1.1449999999999998 -1.9831981746663647
1.205189095289527 -2.0057714836429423
1.29300300472902 -2.0692373546216793
1.3561511971874176 -2.0882897141841057
1.4203499748156971 -2.1057554342898057
1.4855629701492092 -2.1216037947084887
1.5341195084833548 -2.1115343553186126
1.6309187127420508 -2.1643022322281635
1.699225671898817 -2.174909679954552
1.799856318402535 -2.222637449766937
3.766735392763121 -4.489020436677212
3.811702958434847 -4.384862661094305
3.8541922926270233 -4.280514194749791
3.894210635956867 -4.176029636245462
3.9317663767979245 -4.071463269916765
3.471894295625949 -3.471894295625948
3.5319584196627773 -3.4107725989536766
3.554378989869169 -3.3145120299037427
3.685998334367876 -3.3188878075399364
3.3282692487824246 -2.893220317848137
3.416558216310642 -2.866832739201965
3.582642882316636 -2.9011670027397507
3.7903317248483326 -2.9613316963164156
4.081027456341666 -3.0752747683069668
4.417232789287213 -3.2093074775169033
5.086934195034639 -3.561909669739996
8.464473615786977 -5.709359544436325
5.292011283735626 -3.43667231094482
5.011964248284478 -3.131822851618241
5.023000382114379 -3.018123118972917
5.212733454550799 -2.889465336668169
5.262367653439205 -2.798050514203909
14.888719019187628 -7.586181250647828
16.591738094682626 -8.09233136972637
19.539995888510173 -9.111649723129478
27.762426380125603 -11.784450835236493
8.446644915103432 -3.412666066018957
8.504917685389508 -3.2647320203576857
6.117398961316263 -2.2265511330501035
6.155325927151552 -2.11944868551609
6.238930746896207 -2.027151483099655
5.2692392053563255 -1.6109680930222792
4.316065014763052 -1.237611727618326
3.438695941589083 -0.9213958005649736
2.9691049224045494 -0.7402810005349829
2.5431058690894637 -0.5871222518374872
2.259520957695091 -0.48027600578902424
2.0712333570745707 -0.40260698024450964
1.9302231959039278 -0.3403504282271835
1.7383314794474425 -0.27532465847080634
1.574526229299097 -0.221285230526504
1.528521073527636 -0.18767878884392705
1.5116732809597755 -0.15888326416683315
1.5142159410994533 -0.13247672897644028
1.516297356394933 -0.10602984009107028
1.5378894835220438 -0.08059737261413362
1.5390618736094075 -0.05374522492185157
1.5697608813955344 -0.027400278106535152
1.54 0.0
1.5397654505408427 0.026876705913416645
1.5890314149603624 0.055490199756976624
1.5878209602597724 0.0832141704262808
1.5861268399131205 0.11091279325315939
1.5839495699658754 0.13857763096877668
1.6310159084039682 0.1714266797589519
1.627775688691768 0.1998657231844418
1.6240396327361752 0.22824388557450725
1.669193295605783 0.26437424591799014
1.6643251025906316 0.2934654202571123
1.7080312991989353 0.33200765195518805
1.7019768252768217 0.36176634202290137
1.6954039127263094 0.39141483455832526
1.688314563720234 0.42094409834342206
1.729007229057432 0.46328609073351246
1.7206584357295909 0.4933908669124284
1.7596007509719855 0.5379639366898356
1.7499439899830826 0.5685912696499033
1.8343060366626747 0.631602219646884
1.823003684324662 0.6635190780517974
1.8111460274045714 0.6952338221178826
1.8450958705879068 0.7454671208976651
1.8778299010429782 0.7970915021181187
1.8636327335909058 0.8297427518746326
1.8941832749065983 0.8832721670380617
1.9234192590802173 0.938114254128626
1.9513042879725258 0.9942391944296075
1.9336552283610497 1.0281427225011013
1.9591481439922467 1.085973549351795
1.9831981746663647 1.1449999999999996
2.0486298486780483 1.2309409990350297
2.0268349498138583 1.2665070415173598
2.046356185786834 1.3289192454366663
2.064303555662054 1.3923903296421596
2.1216037947084883 1.4855629701492097
2.1115343553186126 1.5341195084833548
2.164302232228163 1.6309187127420515
2.2143102176348886 1.7300087456650999
2.222637449766937 1.7998563184025345
2.2674915516321748 1.9026513246721566
2.3094113154816824 2.007540628710952
2.3483376485085654 2.1144527160939925
2.4207807523594544 2.25741457180687
2.4169817291378672 2.334052124742231
2.5173001410241094 2.517300141024109
2.5424496358799296 2.6327836692394637
2.598413751838119 2.7864576031690396
2.649757201181079 2.942853508890481
2.7292055606005103 3.1395918537267318
2.8346933587176393 3.378255994154693
2.9011670027397507 3.582642882316636
3.0228978438489826 3.869132800209005
3.135456270622171 4.160891007346396
3.2386967401315268 4.45768363900596
3.3038002733820244 4.718315775104593
3.4725879305533374 5.1483233255668095
3.6545279249508327 5.627479510913795
3.8472138583330673 6.156829178095652
4.099703076284032 6.823051713588813
4.3549999999999995 7.543081266962462
4.707501412591934 8.492557356323534
5.145408328133362 9.67710561773384
5.747519726702663 11.280142596224739
6.295009667891149 12.906682504856038
5.942012760074235 12.7426874857353
5.8610750267222835 13.164190044629876
9.088406048660508 21.410942891303765
9.631135516723102 23.837896900912103
15.700099869579601 40.90015848484241
13.56316931468514 39.39030385946754
12.41012249409789 38.194429694413365
5.543367521543085 18.131538173059155
5.212302398499454 18.17745867019361
3.6260548218863184 13.532620826309845
3.280460904331494 13.157210048302513
3.1178216132059706 13.50476909792336
2.829678112029703 13.312588845987095
2.320237383778786 11.936586550723595
1.9292312538795946 10.941214135965632
1.5893741648087463 10.034913540446599
1.3026602249862107 9.268909123421098
1.0492950467183197 8.545822365631782
0.8477258371006713 8.065572571436697
0.6588974151722955 7.531231917573596
0.49945635200793825 7.142558599860341
0.35640786201444685 6.800667131678647
0.22545074869815698 6.456064742543359
0.10401634236620892 5.959092263132092
