# .PCD v0.7 - Point Cloud Data file format
VERSION 0.7
FIELDS x y
SIZE 4 4
TYPE F F
COUNT 1 1
WIDTH 180
HEIGHT 1
VIEWPOINT 0 0 0 1 0 0 0
POINTS 180
DATA ascii
4.4087284769304716e-17 -0.72
0.012216684506098517 -0.6998933866094739
0.02617462252687581 -0.7495431202643218
0.036635169370060776 -0.6990406743282016
0.050224661095770326 -0.7182461161870733
0.06275213477831386 -0.7172601826260567
0.07212463965468088 -0.6862201078041085
0.08408984694955177 -0.6848568446325121
0.09602943966244516 -0.6832849674316835
0.11106847017856394 -0.7012587218225478
0.11460779726017407 -0.6499731169880574
0.13547438671734688 -0.6969553002478414
0.1476173004806092 -0.6944847965210019
0.15971524858414424 -0.691802745997517
0.17176454587576404 -0.6889099656559574
0.18376152202278973 -0.6858073366652385
0.1957025226300694 -0.6824958041162064
0.2075839103531431 -0.6789763767337551
0.21940206600621268 -0.675250126569559
0.2311533896645813 -0.6713181886755148
0.2599353089275083 -0.7141663917972904
0.2723596416544283 -0.7095211241378734
0.35213019781095745 -0.87155282329278
0.9338473970893643 -2.2000065997513327
0.9924374091049529 -2.229050916647946
1.0311885586473066 -2.2113910003694257
1.0783930211011306 -2.211033353895951
1.1077368193644943 -2.174055919019618
1.1689841913368684 -2.198539506218728
1.2071759544133795 -2.1778030707770957
1.2699999999999998 -2.1997045256124745
1.308196710271538 -2.177204943783365
1.3724908943640006 -2.196444569045143
1.41061510068892 -2.172156770978648
1.4762692651627718 -2.18865919154531
1.5142417919667617 -2.1625613969229383
1.6105315912813765 -2.2167065645873563
1.6489731634366125 -2.1882612975295825
1.699225671898817 -2.174909679954552
3.40462331557962 -4.204359651482212
1.2148685823075593 -1.4478239974948683
1.2071486133425335 -1.3886656276099005
1.2312003157002993 -1.3673864788784054
1.2207770645118725 -1.309123125898315
1.2087055645986553 -1.251651252589253
1.1950104602052654 -1.1950104602052651
1.179717272555388 -1.1392397275527555
1.1994200706554397 -1.1184773105024974
1.181600272509057 -1.0639176641105845
1.1999882325542075 -1.0431338560949066
1.1797084424032263 -0.9898929189172705
1.1579474825708866 -0.9376873826642577
1.213536560554352 -0.9481186720015137
1.1899669099704664 -0.8967043844965519
1.2054353216186717 -0.875800025915785
1.1795789437761481 -0.8259500683455063
1.1523622258515078 -0.777278135824338
1.1657520894441393 -0.7570482586708874
1.1787868536574322 -0.7365877772841548
1.191462547975936 -0.715902924124975
1.1604740410711478 -0.67
1.21572139292376 -0.6738853721424085
1.3155919133598013 -0.6995126285509773
1.3275997210406683 -0.6764458446119247
1.3841428313007174 -0.6750915660551792
1.4410293813882735 -0.671963036167712
1.5438918234159955 -0.6873849267981023
1.6477036876798683 -0.6994087199957999
1.7060182924028888 -0.6892761318852779
1.7364595932847953 -0.6665643861542586
1.823003684324662 -0.6635190780517974
1.9288578942226065 -0.6641590350925997
3.3382083721959885 -1.0846496502560652
3.547890644622862 -1.0846990245213532
3.758533231118827 -1.0777420612444666
3.969955146048071 -1.06374627537136
4.327518939190944 -1.0789716543745176
4.589283005138458 -1.0595194659596034
4.949426859713056 -1.0520331555378624
5.359684421624245 -1.041817114755935
5.770973432651539 -1.017578321128212
6.232313429155319 -0.9871014744038568
6.743725548130094 -0.9477688175380454
8.34731313530352 -1.02492117803729
8.264476950510351 -0.8686315297541997
10.121338132612134 -0.885502346316206
10.33476356069178 -0.7226770679891368
10.345801980057384 -0.5422005066768988
10.303719426566877 -0.35981381100278553
16.257523523242924 -0.28377612867023033
16.21 0.0
17.307363603157132 0.302101155429378
17.299455215700547 0.6041102879202925
16.337579188584826 0.8562162441345622
16.320147862250725 1.1412159104538915
16.297745260780957 1.4258679513516896
16.27037820822495 1.710085659058813
9.389486594526907 1.152883988612695
8.031074037494134 1.1286938487861304
6.874310850542159 1.0887838766800069
4.8354060672899415 0.8526125523446281
4.230813160659431 0.8223867700729083
3.7756497388324894 0.8025391265565512
3.27388341767839 0.7558355425953867
3.1146492813459488 0.7765692848749337
2.8108441545011886 0.7531634212483359
2.605019195992844 0.7469772342640676
2.400324937467219 0.7338529788540691
2.2444933784565624 0.7292801067248759
2.0423201232945245 0.7032272136274585
1.9357667988189713 0.7045614952508776
1.8764966572593753 0.7203195785860536
1.7245619694942245 0.6967682637535966
1.620088542076295 0.687686786141122
1.5621627325688474 0.6955196596596185
1.413840147777174 0.659284488315491
1.4021187122267005 0.683858988990961
1.3454198515244356 0.6855256546067157
1.3332508652169797 0.7089020598066954
1.3206757577804875 0.7320625265719689
1.2643970895252805 0.7299999999999998
1.1657475289548727 0.7004517818776739
1.1533454107727394 0.7206901993571587
1.1405919724057767 0.7407090876204371
1.1274910986748568 0.7605023487202157
1.1550043824474783 0.8087427752549752
1.140713962068676 0.8287772057323871
1.1660078446690474 0.8786499338019907
1.150495700265814 0.8988657539754611
1.1734904018000263 0.9502737904852543
1.1567271091096567 0.9706092906266744
1.02640502910297 0.8922402794270898
0.9958140661397082 0.8966350125208702
0.94344627508873 0.8797778844806231
0.9279483424368598 0.8961092978921066
0.9121677477306463 0.9121677477306462
0.9308422164150563 0.9639153324537928
0.8797778844806231 0.9434462750887299
0.8765610943301044 0.9735197213753863
0.9447250017463305 1.0867817955207917
0.8934747774642898 1.0648017759353794
0.8747553435592739 1.0802328864251896
0.8865525244689481 1.1347354851936795
2.0521892289484844 2.723347089261269
1.9749584477027096 2.7182971010998234
1.8985380043219622 2.711393266596563
1.8509285104881719 2.744114365157188
1.7755232541489885 2.734066051502082
1.7010408381885878 2.722234388662127
1.6532722204612742 2.75150703525378
1.5799999999999996 2.7366402759588264
1.5319983999784252 2.7637982745604908
1.4600565602641198 2.7459670137912626
1.366511404216036 2.681929637806987
1.3414157091745764 2.750309781675451
1.2720809678395053 2.727986438980316
1.2039404635043691 2.704094554622098
1.1565641403282503 2.7246943662192233
1.1088355165111001 2.7444642095176905
1.4549738751539185 3.790336531578639
1.3543997675696486 3.7211827783121967
1.2892498916503399 3.744253559373295
1.2082564480060445 3.7186309787140504
0.5087267662175616 1.6639702753756818
0.46582713133072856 1.6245322661357589
0.43740418622326044 1.6324146464285252
0.40884800356343837 1.639799777406434
0.3914148345583253 1.6954039127263094
0.8960993874245422 4.215816159162702
1.0799789138312443 5.556009858313778
1.000213503361518 5.672492657350318
0.26750293521879487 1.6889470624176857
0.23520254062251025 1.6735530361732538
0.20595919035469926 1.6774029962738342
0.17665310292233471 1.6807420031723819
0.14729320524354225 1.68356903977505
0.12137626431477828 1.7357614474520942
0.34594067076585816 6.600941224727733
0.22894069836840708 6.556003825245268
0.11448778622857894 6.559000880225926
