# .PCD v0.7 - Point Cloud Data file format
VERSION 0.7
FIELDS x y
SIZE 4 4
TYPE F F
COUNT 1 1
WIDTH 180
HEIGHT 1
VIEWPOINT 0 0 0 1 0 0 0
POINTS 180
DATA ascii
2.694222958124177e-17 -0.44
0.008551679154268963 -0.4899253706266317
0.015355778549100476 -0.43973196388840213
0.024074539871754227 -0.459369585987104
0.028600154235091435 -0.4090012606065279
0.04009164166392275 -0.458249561122203
0.048083093103120596 -0.45748007186940576
0.05605989796636785 -0.45657122975500813
0.06401962644163012 -0.45552331162112236
0.07978157717051777 -0.5037210537035203
0.08856057061013452 -0.5022519540362261
0.09731258764203791 -0.5006298635583086
0.10603496231705732 -0.4988552763742409
0.11472503771537122 -0.49692873304046997
0.12338016675583052 -0.49485082040075823
0.13199771300228558 -0.49262217140742487
0.15435691925751954 -0.5383065497254587
0.16372815464473262 -0.5355306633392999
0.17304951684997058 -0.532591649125286
0.1823181664960078 -0.5294904023356174
0.19153128026237456 -0.5262278676401088
0.20068605174536824 -0.522805038838433
0.20977969231291085 -0.519222958557401
0.23834598837845697 -0.5615079606059886
0.24810935227623823 -0.5572627291619865
0.23666622657479172 -0.507532360740524
0.2454878422018834 -0.5033246659275336
0.24515486985935533 -0.4811435230617187
0.2629040751600989 -0.4944506520009991
0.29573386835026566 -0.5335180213550313
0.30499999999999994 -0.5282754963085076
0.33992512944063585 -0.5657304184633941
0.34974671439391525 -0.5597117434632412
0.3594617631099179 -0.5535225748439798
0.3411076711171556 -0.5057129192585754
0.3498816261741381 -0.499682747016285
0.3879382665130323 -0.5339512162874653
0.3671071641227494 -0.48716766112884863
0.4063365737149346 -0.5200870973804365
0.44681747764538454 -0.5517736326344493
0.45637920287744294 -0.5438915546144744
0.46580191058326015 -0.535843801958168
0.47508273051478933 -0.5276328260889499
0.5183187536474989 -0.5558288132305694
0.5279403615488379 -0.5466982482573748
0.5374011537017762 -0.5374011537017761
0.5466982482573749 -0.5279403615488379
0.5192611281496111 -0.4842188356443739
0.6391045499105591 -0.575452321468618
0.6490502389915839 -0.5642107649318362
0.6587982210823211 -0.5527973443304237
0.7072028249258435 -0.5726815558553521
0.717089785782117 -0.5602519425463489
0.7267583141430365 -0.547651671068364
0.7766563145999495 -0.5642738422007741
0.7863859625174321 -0.5506333788970041
0.8373279482805922 -0.5647848325054543
0.8470572736248783 -0.5500854253651772
0.941333386733633 -0.5882103832988574
0.9514557037793447 -0.5716922631501601
1.0478907385791707 -0.605
1.058289845638669 -0.5866196404980678
1.1566613466451945 -0.615007747249517
1.1226682204773435 -0.572028029671829
1.1324804983369505 -0.5523476449542375
1.232578590369844 -0.5747608359673512
1.2880990952760674 -0.5734986667368782
1.389962328713185 -0.5900040040188033
1.5391251985808672 -0.6218469450704137
1.596422529310215 -0.6128091937224636
1.7478282746617895 -0.6361574665857439
1.853216408174661 -0.6381135827360271
2.054282075197532 -0.6674767078498864
2.256879224072764 -0.6899972231456586
2.4608299416020962 -0.7056316308915177
2.6659552805578284 -0.714340564482957
3.0176197087183487 -0.7523770953149662
4.443127495420672 -1.0257768078080236
4.4114456793094625 -0.9376817255880948
4.476219956521347 -0.8700890189170445
4.490723353735668 -0.7918356901612024
6.281697846185076 -0.9949231976558683
12.23971332964581 -1.7201795278664085
12.317497741868808 -1.5123985516578797
10.850233878467861 -1.1404055342500985
10.719054951467182 -0.9377957919648008
13.028186496393307 -0.9110195470982748
13.042101723894735 -0.6835075885328474
13.102013742220345 -0.4575324017697883
13.108003283500288 -0.22880104839278714
11.01 0.0
6.409023725952468 0.11186992526298747
5.456673915524263 0.19055125199565556
4.853339538907229 0.2543527473407074
4.249622854106851 0.2971625781499742
3.895121269538725 0.3407789541433439
3.5902240422794662 0.37734775239622953
3.23570045435071 0.3972940595007806
2.9807068869121265 0.41891103388979684
2.7754042370723373 0.43958084676304876
2.570348235361863 0.45322174371068824
2.36572151210887 0.45984967885747313
2.308428337731781 0.49067159032991214
2.4456688626109404 0.5646271464031013
2.4354422729527507 0.6072239579551663
2.376177532671108 0.6366948509522015
2.41276685680518 0.6918497631006677
2.448140175265371 0.748471564090206
2.4347046817155933 0.7910835055998654
2.420527553534251 0.8334544754103211
2.4525977402512207 0.8926725740799955
2.4366449131576964 0.9353403483132338
1.400047620395849 0.5656559560580273
1.3439370860405628 0.5704674475943399
1.2880990952760671 0.5734986667368784
1.232578590369844 0.5747608359673512
1.1774202006519088 0.5742662022936916
1.1226682204773435 0.572028029671829
1.112513967002248 0.5915341691102226
1.058289845638669 0.5866196404980678
1.0478907385791707 0.6049999999999998
1.0371724338495558 0.6231960706411657
1.0261381963492755 0.641202309722178
0.9728578588166917 0.6317812806174316
0.9616835841638484 0.6486637680260663
0.9092587691607809 0.6366698443496615
0.8980088637561917 0.6524416300446453
0.886485416152495 0.6680146756987739
0.8352913988231253 0.6526011638451978
0.7849174210715407 0.6356135949603356
0.7354026653942188 0.6170761052990777
0.7471624844205443 0.6494984387006021
0.7505762737321681 0.6758219124224469
0.7020995535544037 0.6547184256599985
0.690566208325105 0.6668720356406375
0.6434671708797584 0.6434671708797582
0.6321391171176874 0.6545992183081727
0.6206185076568737 0.6655318684734451
0.6089088517865611 0.6762617911844286
0.5970137163813617 0.6867857180027226
0.5849367248147509 0.69710044323827
0.5726815558553521 0.7072028249258435
0.5602519425463491 0.7170897857821169
0.5476516710683639 0.7267583141430366
0.5054953169715269 0.6957546151624548
0.4932757352618995 0.704470758088533
0.45294625181130493 0.6715204337695838
0.44115761836217204 0.6793231600357934
0.4557305672405562 0.7293213626945263
0.4429327444226467 0.7371638786038165
0.4049999999999999 0.7014805770653953
0.4169362734118499 0.7521729481398803
0.3567983877172769 0.6710401705727845
0.36773230478903296 0.721715284592578
0.3550806288991526 0.7280231775023254
0.3211898789229316 0.688793918147854
0.3091198487376083 0.6942945478083766
0.296955657651848 0.6995836886238547
0.28470101099609324 0.7046597294707584
0.2544412441771631 0.6628421028130133
0.24283430176122486 0.6671817607579948
0.23115338966458113 0.671318188675515
0.21940206600621268 0.675250126569559
0.19296532511700612 0.6311611389356034
0.1901897755137294 0.66327057019744
0.17858514112073945 0.666488820139457
0.1669261079637707 0.6695040511304375
0.15521622749726693 0.6723153447018123
0.14345906666425387 0.6749218445063259
0.13738247667111234 0.706771572082318
0.12502668792018976 0.7090615821687898
0.11263281482896625 0.7111356052284992
0.10020463269124698 0.7129930094939306
0.08774592725170619 0.7146332291817518
0.07003407038932796 0.6663296698967431
0.05839434764093095 0.6674504477214696
0.04813196688344656 0.6883191946792786
0.03611180980763118 0.6890543789806559
0.022335677889600693 0.6396101292922213
0.012042160441725529 0.6898949096579099
