# .PCD v0.7 - Point Cloud Data file format
VERSION 0.7
FIELDS x y
SIZE 4 4
TYPE F F
COUNT 1 1
WIDTH 179
HEIGHT 1
VIEWPOINT 0 0 0 1 0 0 0
POINTS 179
DATA ascii
7.776507174585693e-17 -1.27
0.02216455617535017 -1.269806572848617
0.04432236081217637 -1.2692263503142516
0.06646666442853884 -1.2682595091383089
0.08510289796783305 -1.2170281413169854
0.10633000615214293 -1.2153575316719296
0.13275114834991988 -1.2630428071177071
0.1547740661245373 -1.260533612584479
0.17674983821928314 -1.2576404473017944
0.19867177060109328 -1.2543641925558249
0.22053318563700164 -1.2507058463255043
0.24232742412821204 -1.2466665229785332
0.2640478473385545 -1.2422474529319332
0.28568783901670874 -1.2374499822772487
0.31933690219156136 -1.2807903586843155
0.3416411395353274 -1.2750220907015701
0.3638413096784389 -1.268865438638581
0.3859306502340126 -1.2623222778712069
0.40790243257493064 -1.2553946015096027
0.42974996388344694 -1.2480845197910981
0.45146658918988286 -1.2403942594373991
0.4622946549134375 -1.2043187501813903
0.4944807033090041 -1.2238826880281592
0.5157650896058413 -1.2150664065572214
0.5572292010138465 -1.2515572769703631
0.5789870185847583 -1.2416416682402105
0.62248702844049 -1.276287545744817
0.6446665096301565 -1.2652292643474823
0.6431760410166706 -1.20963820221673
0.6884296607497987 -1.2419599841379418
0.7449999999999999 -1.2903778516388136
0.7571059701177798 -1.2600359320321048
0.7630837404958151 -1.2211892584652533
0.784280210421639 -1.2076856178414104
0.8611570713449502 -1.276717861734764
0.8546288901630587 -1.2205365459905977
0.9051892885304087 -1.2458861713374192
0.9267951356541544 -1.2298986854728309
0.9789017457677969 -1.252937098234688
2.964099041844734 -3.6603574784623327
3.1239477830765816 -3.7229759935582334
3.2868557352424412 -3.7810949969160874
3.419257398493766 -3.797470058189485
5.974305634147488 -6.406658426183932
5.9462756511290165 -6.157548690898854
5.911412690719537 -5.911412690719536
5.941746750797258 -5.7378781399913175
5.931278520131473 -5.531006700106862
5.915432810800059 -5.32627962661651
5.932017300550989 -5.156623967865388
5.906202656447321 -4.955892470683217
5.914080766687549 -4.789128175889263
5.878560221906146 -4.59283460592941
5.91788912945044 -4.4594493215566775
5.711659980287129 -4.14976388118486
5.701298228251383 -3.9920919970032807
5.728649626355338 -3.8640229629828604
5.711346567708337 -3.7089918284523336
5.8600123444409045 -3.661742115851446
6.051601142956913 -3.6361688088649813
6.157440620907359 -3.555
6.306008088475044 -3.49547736197609
6.41019952415581 -3.408363545825567
6.557808018026388 -3.3413700780830644
6.749943287706745 -3.2921673123859714
6.851686869997073 -3.1949940587596872
6.952080932660194 -3.0952658538068394
7.0510671774456934 -2.993000444227836
7.148587518709931 -2.8882168352366806
7.291263130943145 -2.7988536859487954
7.38598399937724 -2.6882783265397565
7.479051932990596 -2.5752441017561094
7.570409869709422 -2.4597752752245814
7.707816333062067 -2.356515940065258
7.747769269262851 -2.221637087885013
7.833658451204344 -2.0990224557814425
7.917613126412132 -1.9740826680932877
7.999578231886782 -1.8468481561631307
8.030591802024544 -1.7069549816138048
8.059159176105322 -1.5665418520414334
7.986790876929007 -1.408286720878805
8.010152442226566 -1.2686835114762722
8.031074037494134 -1.1286938487861304
8.297685827721452 -1.0188277108670325
9.408177130183866 -0.9888392625120012
9.971908927898372 -0.8724289849040573
10.484398168230753 -0.7331405390507556
23.92716365271959 -1.253969511580936
28.542602019665374 -0.996729625823429
18.257218913555707 -0.31868094154479737
25.86 0.0
17.55732552694623 0.3064642570386989
19.298236869738737 0.6739092813252946
19.033878932422176 0.9975233259905107
26.146153757309992 1.8283171768335267
12.163537263700213 1.0641716189489079
12.043660152909789 1.2658396901712852
8.922315299361548 1.2539496396501892
8.010152442226566 1.2686835114762722
3.0135117242173566 0.5313634236608069
2.8565351038327025 0.5552541765457456
2.8953168981720645 0.6154186048205678
2.98157239824282 0.6883502262922272
7.917613126412132 1.9740826680932897
7.833658451204342 2.0990224557814443
7.747769269262851 2.221637087885013
7.660001095263914 2.341897354829121
7.61796269552418 2.4752261249433287
7.479051932990596 2.5752441017561094
7.38598399937724 2.6882783265397565
7.291263130943145 2.7988536859487954
7.194946711438269 2.906947164907478
7.051067177445693 2.993000444227838
6.952080932660193 3.0952658538068407
6.851686869997073 3.1949940587596872
6.749943287706744 3.2921673123859723
2.5037283329693136 1.2757133042681266
1.9954615598611745 1.0610057318961135
1.9766405381350343 1.0956697417567216
2.0005186827420536 1.1549999999999996
6.094459507992018 3.661920712610486
2.043795911736987 1.2771054268020239
2.046356185786834 1.3289192454366663
1.9979805498576506 1.3476548973645
5.496510217179134 3.8486978879155203
5.428504032255898 3.9440390428824945
5.398776047919698 4.068269556507848
5.445154307422449 4.2542207945002986
5.603222382104761 4.5374000194693265
5.599784879199729 4.698777426808602
5.630133468461879 4.894200356269184
5.618174880609099 5.0586273840729685
5.565601669321889 5.190007520075613
5.5820768506279315 5.39054895476182
5.628569978244919 5.628569978244918
5.598946465899517 5.79787879072953
5.565106618109987 5.967846205212431
5.560475338842113 6.175533499717146
0.9447250017463305 1.0867817955207917
0.8934747774642898 1.0648017759353794
0.8432893240067821 1.041375588352341
0.7942033031700994 1.0165338721526713
0.7763413798661422 1.030239807961008
0.7582429754572904 1.0436319227436823
0.7399136028928492 1.0567061371327995
0.693399200303726 1.0280065899682518
0.6753524034186337 1.0399515042523257
0.657099887649174 1.0515796392339682
0.6128953091429645 1.0200290878355136
0.5949999999999999 1.030570230503482
0.5526829670808243 0.997066466138911
0.5351975815759152 1.0065602558591766
0.4948496447161061 0.971197111365321
0.4778245500000942 0.9796855104660921
0.4817848183843973 1.0331908772217808
0.44334294095262244 0.9957645488304349
0.42589693005330836 1.0033502902631601
0.3895908571525487 0.9642712087494588
0.3906210650043772 1.01760266488195
0.3557009490586956 0.9772803256173447
0.3385908806354428 0.9833393186232896
0.32137767414994534 0.9890987769469597
0.3128377240533281 1.023246088880448
0.2866628500496791 0.9997121637758517
0.27693637825969747 1.033540634129303
0.2588564282916444 1.0382164271153163
0.23394909651761975 1.0133448673766448
0.2162281584504696 1.017273504763158
0.18890090542277946 0.9718109116131873
0.18580355010361535 1.0537442957230627
0.16269184364184017 1.0271958742189433
0.14195656297926654 1.0100734301164018
0.12430673027325044 1.0123970746741484
0.10661903253300675 1.0144123332756387
0.0888988576026113 1.0161185920535805
0.07115160321900797 1.0175153312650207
0.05338267536780262 1.0186021254496653
0.033852511801426045 0.9694091022085228
0.017801454566029044 1.0198446490595192
