# .PCD v0.7 - Point Cloud Data file format
VERSION 0.7
FIELDS x y
SIZE 4 4
TYPE F F
COUNT 1 1
WIDTH 179
HEIGHT 1
VIEWPOINT 0 0 0 1 0 0 0
POINTS 179
DATA ascii
1.6287802428659799e-16 -2.66
0.04816864176690273 -2.7595796386316396
0.09841658070105304 -2.81828213219385
0.14758739660510198 -2.816135288007898
0.11928357010245452 -1.7058345259442993
0.1490363200984954 -1.703492933736885
0.1787436721876874 -1.7006324410797473
0.19620964288228748 -1.5979993041425284
0.2240686925457054 -1.5943315906739284
0.2518594887147718 -1.5901782283581718
0.27089115716041146 -1.5363000946990446
0.2976620327874101 -1.531338406178356
0.3139466531348168 -1.4770028771080463
0.3396760920592364 -1.4712987978257053
0.36530206235549817 -1.4651465466767546
0.3778758058496803 -1.4102517063820397
0.40243053949281876 -1.4034420760699455
0.4560998593674694 -1.4918354193023353
0.49751736094366544 -1.5312009912351974
0.5404431363988802 -1.5695608354948658
0.5848544450868937 -1.6068743815439033
0.6307275911997287 -1.643101550635075
0.6967682637535967 -1.7245619694942245
1.0510667356361463 -2.4761580557870646
1.094121569873903 -2.457437281058596
1.1579740371695166 -2.483283336480421
1.1792183848626183 -2.417755984544759
1.2439339692863585 -2.441357876276128
1.2957415132890586 -2.436935356290638
1.5077579189661083 -2.7200672892035205
1.5799999999999996 -2.7366402759588264
1.576016509224766 -2.6229319401484634
1.5950569853419467 -2.552624769430842
0.522853473614426 -0.805123745227607
0.5088655421583796 -0.754424191025088
0.5219545570794519 -0.7454283603029825
0.5642738422007741 -0.7766563145999495
0.5777424222259663 -0.7666900896454011
0.652601163845198 -0.8352913988231253
0.6356135949603358 -0.7849174210715406
0.6492154857834047 -0.7737048875501678
0.6626196192804124 -0.7622566760249997
0.6758219124224468 -0.7505762737321682
0.7229182616662485 -0.7752349237163206
0.7363378726865372 -0.7625001883589702
0.7495331880577405 -0.7495331880577404
0.7984671783759029 -0.7710707912094871
0.797175534764896 -0.7433782124681234
0.8248907562799078 -0.7427349730583326
0.837727634047277 -0.7282255221794631
0.8886115540180144 -0.7456336272363855
0.9014893152900861 -0.7300116536178113
0.9534930118641336 -0.7449503851440463
0.9663489671572243 -0.7281961780139784
1.0598122626311812 -0.7699986805031398
1.114046780233029 -0.7800639534374226
1.0860392200471047 -0.7325427035466783
1.0986584440085057 -0.7134771358696854
1.1533454107727394 -0.7206901993571587
1.2086058939899784 -0.7262036856231762
1.2643970895252803 -0.73
1.3206757577804875 -0.7320625265719689
1.3773982448599262 -0.7323756379459897
1.389970177733854 -0.708225179593693
1.447058414541659 -0.7057775463304147
1.504470926480839 -0.701546314489561
1.6535172783331078 -0.7361933239671983
1.6661137847489171 -0.7072233425655854
1.7245619694942247 -0.6967682637535961
1.7177879847548512 -0.6593970271633526
1.7290344222460714 -0.6293170637192306
1.692478250322777 -0.5827669964783105
1.702391164168325 -0.5531404199311558
1.6639702753756818 -0.5087267662175619
1.672595350932675 -0.47960899912157845
1.6807109377429788 -0.450345138478386
1.7368293500340337 -0.433040193123405
1.7148913140220141 -0.39591385564520215
1.8193545373648785 -0.3867157449210325
2.1203147162469542 -0.4121474300133369
2.5211078477112525 -0.4445393348273417
2.7754042370723373 -0.43958084676304876
2.842069357288307 -0.39942679975538775
2.8188310706613544 -0.3461089352706187
2.9437848102900888 -0.309404251272254
3.2974044506836777 -0.2884855084947482
3.7508408289769393 -0.26228434127791067
4.2541618180544845 -0.22295117359494102
4.956978502014715 -0.17310150364440505
5.959092263132092 -0.10401634236620988
7.36 0.0
9.358574426663822 0.1633545242529739
15.000856313556627 0.5238414455045403
26.723326350032398 1.4005101890611789
33.02934570410278 2.309636845667992
33.08362592362687 2.894442216649732
16.071473829151298 1.6891799664052825
9.290231979362774 1.14069705427218
16.052245394300858 2.2559959665626605
14.874586409362776 2.3559030435058768
10.267820338862567 1.9958620916386594
9.253276302941801 1.966844595136004
7.804704218929734 1.8018579452943593
6.947317400136135 1.7321607724936219
6.577954877028554 1.7625576971481673
6.2097505557615404 1.7806173185778142
5.36486968095263 1.640205263494553
4.95500444989775 1.609978540693476
4.642496206192646 1.5985396383846395
4.331982981823038 1.5767128607313332
4.0704106595278 1.5624842600175095
3.8570848349978353 1.5583634286101944
3.5991739769990416 1.527758712393061
3.434930920736179 1.529329777965009
3.2264557218504737 1.50452101179689
3.064887697880159 1.4948456105507546
2.904681268854079 1.4800090291509225
2.790114393434209 1.4835301384034156
2.632605318489581 1.4592769569414745
2.5201339250127166 1.4549999999999996
2.3657817499378297 1.4215050867517496
2.2982103405839145 1.4360812060719852
2.2308637107348277 1.4487398331399723
2.122336185740907 1.4315338328851117
2.0151140289509195 1.4109980334235739
1.9740014662748717 1.4341960155936344
1.8688070935106649 1.4082471541757933
1.8045446257593931 1.4098647784957574
1.7408069536636153 1.4096776759516356
1.639335108274613 1.3755654847291943
1.6150785016767322 1.4039663220396854
1.5531726852477536 1.3984829672900139
1.491961551303108 1.3912766545274968
1.4314862026739155 1.3823701572134048
1.3717871555019023 1.3717871555019021
1.3129043201675046 1.359552222640051
1.288976900518122 1.382258496060232
1.2312003157002993 1.3673864788784054
1.1743456618930082 1.350930148598762
1.1184504408545788 1.3329173310270217
1.095017480426717 1.3522339729351294
1.0712509670666457 1.371138711275696
1.0170673891269613 1.349694011979925
0.9639678137596559 1.3267878707749137
0.9693441774332676 1.3843669548483963
0.8891167165184874 1.3181697403625163
0.8659760656738933 1.3334862030332242
0.8425716301307958 1.3483964728887174
0.7931586353614836 1.3200376430812528
0.7699999999999998 1.3336791218280357
0.7223663341670423 1.3031833636376997
0.6995126285509771 1.3155919133598013
0.6764458446119248 1.3275997210406683
0.653173008715725 1.3392031289857589
0.6212488447588281 1.3322724469438754
0.5857007660291526 1.315505459005345
0.5626528250245542 1.325526988971514
0.5394334945189135 1.3351447505761738
0.5160498473452322 1.3443558141559704
0.4754079992226796 1.3061727428924124
0.45253973469544756 1.3142708200830504
0.4295336221811769 1.3219685576502633
0.3976255184229217 1.3005744681097284
0.40243053949281876 1.4034420760699455
0.3804639963007058 1.4199109646449302
0.34352909175152807 1.3778199313119148
0.3306780498854818 1.4323239952342959
0.2952346009612181 1.388969593042004
0.27094877343469376 1.3939106004956827
0.2465804122870409 1.3984270092773354
0.2143152171051164 1.3531330266153387
0.19762580336329263 1.4061806576130298
0.17305446763530943 1.4094155353306772
0.14320399467668554 1.3624949966545346
0.11940336756429167 1.3647867363856916
0.09556636902945188 1.3666627488559593
0.07170026005283293 1.3681224626137662
0.04955728531755153 1.419134974367116
0.023909796819078226 1.369791342364256
