# .PCD v0.7 - Point Cloud Data file format
VERSION 0.7
FIELDS x y
SIZE 4 4
TYPE F F
COUNT 1 1
WIDTH 179
HEIGHT 1
VIEWPOINT 0 0 0 1 0 0 0
POINTS 179
DATA ascii
9.001153973733046e-17 -1.47
0.02565503746280689 -1.469776111879895
0.05130226015267659 -1.4691045157180707
0.07693385567712763 -1.4679854160892236
0.10254201640386441 -1.4664191538819416
0.12376115470167455 -1.4145964712902785
0.1536568410034506 -1.4619471861913618
0.17305446763530943 -1.4094155353306772
0.19762580336329294 -1.4061806576130298
0.2221369403571279 -1.4025174436450956
0.24658041228704117 -1.3984270092773352
0.27094877343469376 -1.3939106004956827
0.3056301855021064 -1.4378769730786942
0.3194304971682885 -1.383605491995034
0.34352909175152807 -1.3778199313119148
0.36752304404557945 -1.371614673330477
0.3914050452601388 -1.3649916082324127
0.4151678207062862 -1.3579527534675102
0.43880413201242535 -1.350500253139118
0.4623067793291626 -1.3426363773510297
0.5027696106887332 -1.381348152555285
0.5268008858315916 -1.3723632269508865
0.5506716923213909 -1.3629602662131772
0.5743747588792324 -1.3531421345750874
0.5979028653214266 -1.342911822734623
0.6423797578458632 -1.377587836295708
0.6663241431193977 -1.3661669503747338
0.6900655596041112 -1.3543299167663192
0.7135967754345541 -1.3420803411455688
0.7369106227744324 -1.3294219548518815
0.7599999999999998 -1.3163586137523469
0.7828578738632825 -1.3028942970672106
0.8054772816344714 -1.2890331061577676
0.8550832849735925 -1.3167127916743155
0.8611570713449502 -1.276717861734764
0.9005150050711423 -1.286068709533717
0.9522121087138066 -1.310607530887415
0.9749403375063183 -1.2937895262766144
0.9789017457677969 -1.252937098234688
1.0320854413217333 -1.2745193767894323
1.0541716798859244 -1.2563128867151239
1.0759368075444318 -1.237723711565346
1.0973741944285273 -1.2187575137829265
1.1525772285056226 -1.2359877557363979
1.2087055645986553 -1.251651252589253
1.2303657992645927 -1.2303657992645927
1.2516512525892531 -1.2087055645986553
1.2725554408173567 -1.1866771465087473
1.330229237604536 -1.197743785382356
1.3886656276099005 -1.2071486133425335
1.4095217753389195 -1.1827292018232323
1.4299485690808265 -1.1579495195317009
1.4893403243167045 -1.1636001883654938
1.549352889491748 -1.1675211449149736
1.6099438188061455 -1.1696926520620214
1.6301125681350936 -1.1414171083385816
1.6912366480122851 -1.1407535230803234
1.7108879586086652 -1.111063631430655
1.814822925774752 -1.1340272254590587
1.8343380235025204 -1.1021814803075156
1.8965956342879204 -1.095
1.9591481439922467 -1.085973549351795
2.0219499876469427 -1.0750898787796899
2.1295055928101996 -1.0850372943775168
2.1930574729699677 -1.0696255981653489
2.2567063897212587 -1.0523194717343416
2.3204054624122064 -1.0331110734125324
2.3841075704418206 -1.0119936227872188
2.4663090531476546 -0.9964535384863257
2.530002955807417 -0.9711771432677638
2.6405362644084023 -0.9610766027451293
2.751459054994012 -0.947403329470326
2.815127288233654 -0.9146903033498442
2.926292553246889 -0.8946574164515744
3.0856500439620036 -0.8847959121725671
3.1972144850168163 -0.8566910392893434
3.3572232129149477 -0.83704975877485
3.4687574306354376 -0.800825753464159
3.6289275987224188 -0.7713523729338874
3.7890809281079827 -0.7365227221534631
3.9983194772295643 -0.7050116013277372
4.256936747965043 -0.674232544323395
4.466108990024482 -0.627670685329895
4.724519681812693 -0.5800980746085017
6.325159254542219 -0.6648010263822756
6.435417749672676 -0.5630260981498711
6.9430457898083775 -0.48550505725911125
7.44977632926912 -0.3904262335723615
7.955150983072002 -0.2777999937519081
9.208597272390364 -0.16073666328738137
9.46 0.0
9.508551580937281 0.16597238521856642
9.5042067649516 0.3318942136407847
9.546898352253727 0.5003317416825438
9.337199510431955 0.6529205942450137
9.4738115788525 0.8288511135302303
10.054616362173242 1.056782763635978
18.52091118962707 2.274081947940051
18.428888759280625 2.5900114088668174
43.39062959771789 7.650938708004952
43.201412343531686 8.397503886521738
34.44057702183729 7.3205706336933085
8.584200270757924 1.9818187887694516
8.742364493746727 2.1797162793530074
18.072472209868465 4.842504333868167
17.985206331005948 5.157174927336054
17.892461984068397 5.470274595362405
8.85433616670788 2.8769482176307606
8.755502010049673 3.014761110273271
8.60758440639892 3.132904512863126
8.271522578765207 3.1751400329713606
8.58572249328845 3.468857055031346
8.477849700296975 3.598633693386213
8.048335481831314 3.583349825497801
7.486102320922728 3.4908268419781767
6.929702096966577 3.379841541743788
6.468707365607551 3.29597102810911
6.057020487012239 3.220574920711212
5.737505278834436 3.180351108815971
5.378017757501365 3.104999999999999
5.065858747149483 3.043875022718421
4.842354629053193 3.0258389987716
4.537207772584743 2.9464971794312973
4.319285753011767 2.913395027082591
4.062994139673399 2.8449391243011894
3.891371742943497 2.8272470635267957
3.721641476820384 2.804458007888546
3.51452796108598 2.745850179952436
3.349499093879545 2.7123708854247983
3.1867448833749488 2.673996456296004
3.064120895704454 2.6635996577014587
2.942853508890481 2.649757201181079
2.8230252882499984 2.632513669841244
2.668750659256395 2.57718255440288
2.5880108191427644 2.588010819142764
2.4382508803110796 2.524882699188666
2.3597143258162445 2.5304838076023297
2.281735367683707 2.534123854877914
2.171555385958579 2.4980887105373752
2.0954876075781184 2.497304884567868
1.9886524357174862 2.455781238204028
1.9147071882627975 2.450713443716905
1.8415539708452673 2.4438246607447165
1.769233609400344 2.435141153068592
1.686314722872075 2.408307010209636
1.6160674910304582 2.395918584684071
1.5467748594426771 2.381824412965004
1.5049707104223018 2.4084565930842494
1.4112043252535489 2.3486384039237875
1.3699999999999999 2.372909606369362
1.3041378784626467 2.3527270122049746
1.2394049257547513 2.3309816451475673
1.1985349193124037 2.352257223857291
1.1134627128442562 2.282936877599884
1.0734503848213766 2.302021779073091
1.033111073412533 2.320405462412206
0.9729205099382916 2.2920570850965767
0.9140400879348257 2.262328605142961
0.8744177968905323 2.277936240653172
0.8174281425483485 2.245865363678321
0.7781078891526042 2.2597893956823674
0.723099766837377 2.225472248130659
0.6841497890512035 2.237753128953503
0.6312095448209281 2.2012892836987503
0.579754661029647 2.163673850887513
0.5419050461432556 2.173462426858232
0.5038903617302579 2.182588945118927
0.46572218743178073 2.191050625643725
0.42741214964346064 2.1988448909227674
0.3889719179739237 2.2059693667473463
0.3425914784381057 2.1630374659033516
0.3047890911025429 2.168687070544039
0.266893862057273 2.173676072094495
0.22369091139277889 2.128276856088105
0.18651328947998844 2.1318566539163357
0.14927885381242847 2.134787067556024
0.11199894635989963 2.1370672043747883
0.07293994810822725 2.08872682846991
0.036475529453922254 2.0896816828768574
