# .PCD v0.7 - Point Cloud Data file format
VERSION 0.7
FIELDS x y
SIZE 4 4
TYPE F F
COUNT 1 1
WIDTH 175
HEIGHT 1
VIEWPOINT 0 0 0 1 0 0 0
POINTS 175
DATA ascii
4.2250314570583685e-17 -0.69
0.01256573263484419 -0.7198903405126017
0.023382662790675725 -0.6695918541027942
0.03768188849491966 -0.7190132650232931
0.04673683740856406 -0.6683679136740822
0.06013746249588411 -0.6873743416833044
0.07212463965468088 -0.6862201078041085
0.08408984694955177 -0.6848568446325121
0.0890707846144419 -0.633771563994605
0.10793978087775932 -0.681504955010645
0.11981724259018198 -0.6795173495784235
0.131658206809816 -0.6773227565788881
0.143459066664254 -0.6749218445063258
0.15521622749726693 -0.6723153447018123
0.1669261079637707 -0.6695040511304375
0.1785851411207393 -0.6664888201394571
0.20397164330457937 -0.711333654994356
0.20173647625868835 -0.6598502816144944
0.21322172611871373 -0.6562289962436559
0.22464202657543814 -0.6524078171635285
0.23599389889471148 -0.6483879083422767
0.24727388518625723 -0.6441704942830692
0.2584785494569794 -0.6397568596510832
0.26960447865759885 -0.6351483488821839
0.3213219480298823 -0.7217009115376546
0.3127375136881176 -0.6706677624071209
0.3243946486239173 -0.6651075942613836
0.3359529698072647 -0.6593448278993922
0.3708825346008538 -0.6975285983585523
0.3829995999946063 -0.6909495686401227
0.3949999999999999 -0.6841600689897066
0.40688007917894287 -0.6771621675546687
0.4186362187442319 -0.6699579959635765
0.45749678941262273 -0.704483277074156
0.4417623937418901 -0.6549396823184829
0.48180420653487865 -0.6880877172027531
0.4937396119256774 -0.6795742752749558
0.5055246194477205 -0.670853828439726
0.547938713039836 -0.7013295707099825
0.5600951480343553 -0.6916599056967041
0.539941592136693 -0.6434773322199415
0.5838925358015515 -0.6716915263982671
0.5955262396593839 -0.6613988946748809
0.6069785404556237 -0.6509047944410616
0.6529788682314573 -0.676179412318332
0.6646803743153546 -0.6646803743153545
0.7121464023352647 -0.6877117867544073
0.7240401646029788 -0.6751783764618735
0.7357133772226204 -0.6624393002952695
0.7848979634316829 -0.6823013901501276
0.8349884429996861 -0.7006384945583278
0.8082317999152497 -0.6544932066918309
0.898332259111663 -0.7018540818712503
0.9104444814539138 -0.686069126393335
0.9627302233061874 -0.699464450228043
0.9747909327039002 -0.6825559592577448
0.9865547113404997 -0.6654395551301887
1.0399515042523257 -0.6753524034186335
1.136384448849611 -0.7100918140724947
1.1486041829408307 -0.6901510203794725
1.2037753112603695 -0.695
1.2594523782807299 -0.6981258531547253
1.2714445337168547 -0.6760390504116828
1.3721500472500865 -0.6991453695989021
1.4290825336156756 -0.6970101233946331
1.4863447707401058 -0.693093949254747
1.5438918234159955 -0.6873849267981023
1.6477036876798683 -0.6994087199957999
1.6782027767658854 -0.6780379340828006
1.8298176359345153 -0.7024011811087886
1.916972946403253 -0.6977210923843643
1.9950441945145585 -0.6869488059046006
2.149387726827047 -0.6983784072873811
2.256879224072764 -0.6899972231456586
2.41276685680518 -0.6918497631006677
2.5693626979289217 -0.6884586599727051
2.7750457771493497 -0.6918966214150494
3.0302909014820814 -0.6995977790094197
3.2376685584288967 -0.6881876966067836
3.327716151887581 -0.6468424943264871
3.3877386703619954 -0.5973497311742404
3.476662958894885 -0.5506493169416127
4.268055376276168 -0.5998360651378819
5.568183910707817 -0.6836870165028771
6.424611444079045 -0.6752538727090409
8.975714229806627 -0.7852732421563992
9.13768670037999 -0.6389692994961866
9.946350166155556 -0.5212661241797213
21.546866230531702 -0.752433148905922
27.36 0.0
10.103841261163058 0.3528339116622853
23.078328548178202 1.2094839487744335
17.36759011502354 1.2144602078852231
3.307366397664595 0.2893570659222255
3.321703130530033 0.34912506731396303
9.042095441452444 1.1102297184208931
9.021342106235705 1.2678669497461958
9.39291611905976 1.4876917625325956
9.070079405242437 1.5992997163124287
9.040786359552985 1.7573508474179784
7.268800683297855 1.6781348654052335
4.424548511818544 1.1031638439344853
4.404621767878151 1.1802148456674952
3.3667400676848436 1.0939201600873139
3.318770200353602 1.14274422214462
3.392290361037129 1.234692717405664
3.183509254355458 1.2220347079494742
3.115337751344405 1.2586781538774647
2.954820579582333 1.2542469224505692
2.749771827504228 1.224277295658159
2.6826710496284836 1.2509500547524701
2.5256112701006592 1.231822922477308
2.370077354341059 1.2076147293071946
2.304493217361799 1.2253207788711753
2.1515644795629134 1.1926316658059892
1.9572174125528312 1.1299999999999994
1.8514813695165626 1.1124822418057172
1.8317838876978805 1.1446256107437227
1.853461955159387 1.2036522673832102
1.832173035346642 1.2358163166703504
1.7284108134497724 1.2102462807007075
1.7474767078498865 1.269616144951742
1.6851209261997875 1.2698296988508222
1.6233021524298472 1.268262639170856
1.5620633825285115 1.2649339860101727
1.5014471085131968 1.2598637149856171
1.479230777236633 1.285875696821394
1.4194066166618227 1.2780394581454193
1.3603178850116573 1.2685169497162472
1.3020050386129582 1.2573316505307852
1.3152186130069785 1.3152186130069783
1.2573316505307848 1.302005038612959
1.1321172777037474 1.214047144687823
1.077300276237762 1.1964631690186047
0.9578461823261406 1.101875987125247
0.8934747774642898 1.0648017759353794
0.8747553435592739 1.0802328864251896
0.8557694507026651 1.0953349475133434
0.8064321310237446 1.0701715834633727
0.7876322380719141 1.0840827724624296
0.7399136028928492 1.0567061371327995
0.7325427035466783 1.0860392200471047
0.7134771358696856 1.0986584440085054
0.6941942361454985 1.1109430059649181
0.6746998781321711 1.1228891639197671
0.6699999999999999 1.160474041071148
0.6496448911300917 1.1719904075667904
0.6056183159937989 1.139002394788016
0.6083472696509928 1.193948742412413
0.5654987793579096 1.1594443197259254
0.5578561054977232 1.196326278888378
0.5043534374139924 1.1327963674768249
0.5040431557511631 1.187451260953648
0.4645121758357311 1.1497079796628162
0.4443762574361722 1.15763972885653
0.4241049777238293 1.1652188497745264
0.4134715561605888 1.2008085910111324
0.39245158285618326 1.207841775694845
0.37131206499787545 1.214507040073055
0.336277574096739 1.1727392690447491
0.3157592350250756 1.1784295080726632
0.2878870557636045 1.1546519142684357
0.26769175466919953 1.1595003770944299
0.24741491207313349 1.1639956448732287
0.23278697435938478 1.19758516380615
0.20316836787030834 1.1522250710242834
0.19085004734908173 1.204979775526068
0.16283252812327634 1.1586136404276373
0.14258713178402255 1.1612789974203466
0.12752472518653749 1.2133167123492934
0.10197221901476002 1.1655477967673422
0.08161507428062678 1.1671499388039943
0.06123306880424418 1.1683965556628513
0.04083241114192626 1.169287267612342
0.02094288772474005 1.1998172341876694
