# .PCD v0.7 - Point Cloud Data file format
VERSION 0.7
FIELDS x y
SIZE 4 4
TYPE F F
COUNT 1 1
WIDTH 180
HEIGHT 1
VIEWPOINT 0 0 0 1 0 0 0
POINTS 180
DATA ascii
5.572142936120457e-17 -0.91
0.015009069536063895 -0.8598690178344964
0.03175854199927598 -0.9094456525873772
0.04762572018107901 -0.9087528766266623
0.06347839110715417 -0.9077832857364401
0.0793117259003689 -0.9065371752634884
0.09512090157356465 -0.9050149247851287
0.11699456966894159 -0.952844305575669
0.13360617692166285 -0.9506573459919075
0.15017708643862168 -0.9481808069713322
0.1667022505602532 -0.9454154428917196
0.19271708533031037 -0.9914434552821406
0.20999080772593706 -0.9879290767411436
0.2272005648873038 -0.9841137654330876
0.24434111455566435 -0.9799986835387564
0.25623085465149553 -0.9562665680261776
0.27839372937516915 -0.9708743128977021
0.309914007006101 -1.0136830413208175
0.32755801403744433 -1.0081199072728628
0.3451022437245862 -1.0022496901352758
0.362541351925209 -0.9960741780330629
0.39778842399528347 -1.036274273411894
0.41581331869166255 -1.029174078569134
0.43371155262309385 -1.021760387332209
0.4718145059679284 -1.0597127308654168
0.4902371836192113 -1.0513170329625139
0.5085105302753298 -1.0426010937070336
0.5266289796978744 -1.0335675680585066
0.5586711597152101 -1.050707635502123
0.5526829670808243 -0.997066466138911
0.6049999999999999 -1.0478907385791707
0.6489479743866684 -1.0800307988846614
0.6676982729338382 -1.0685406011570968
0.6862451841189341 -1.0567249156112342
0.7325427035466785 -1.0860392200471045
0.7800639534374226 -1.114046780233029
0.7993879431177635 -1.1002631123499287
0.8184684314867857 -1.0861442936643184
0.8372996064428955 -1.0716946249051418
0.8558757318277789 -1.0569185075814804
0.8741911491736936 -1.04182044264181
0.8922402794270899 -1.02640502910297
0.9100176246480473 -1.0106769626492562
0.961617687688123 -1.0312087192830302
0.9794683023471861 -1.014269118477498
1.067731239591687 -1.0677312395916867
1.0718163025045904 -1.035040971983906
1.0531493303316055 -0.9820776384899977
1.070128548687448 -0.9635480731567556
1.0867817955207917 -0.9447250017463305
1.0648017759353794 -0.8934747774642895
1.0802328864251896 -0.8747553435592739
1.0953349475133436 -0.8557694507026649
1.110103358965737 -0.8365228821813471
1.1245336221811768 -0.8170215006865376
1.097663739347249 -0.7685924247104018
1.110910347223756 -0.7493184906508007
1.1238185610468683 -0.7298163069201362
1.0939820440417896 -0.6835958508608343
1.1314608369267882 -0.6798502588812714
1.143153532995459 -0.66
1.0845284368528507 -0.6011639291054579
1.1654908225737837 -0.6197024628773758
1.1493984162029947 -0.5856477446640154
1.1864081411149006 -0.5786499137615821
1.1510108895365454 -0.5367251924106883
1.1602027312061032 -0.5165555367062662
1.141426018281026 -0.4845065993266993
1.260970042210831 -0.5094649670456403
1.3630274226859145 -0.5232172063361384
1.465920488426017 -0.5335514235880433
1.6168367642748318 -0.5567215441217379
1.7689651203089856 -0.5747716095374021
1.9221725594857013 -0.5876671264927007
7.026822997309111 -2.0149090710222635
7.0126214988586355 -1.8790262674443001
7.0443469727637344 -1.756352962053587
7.073926670340808 -1.633144654536459
7.052444201290738 -1.4990432907960451
7.028450633485274 -1.3661924068960611
7.05122351156741 -1.2433209520952213
7.121232935690943 -1.1278924929400647
7.8825338271829 -1.1078178836421206
8.19843121255732 -1.0066407765265177
8.165024760973525 -0.8581786834274344
6.086749605340565 -0.5325215881881908
5.995359942061544 -0.4192364072021923
5.95183202713726 -0.3119222992079457
7.305546945509589 -0.25511532089528244
7.35887903635104 -0.12844971137840683
7.36 0.0
7.35887903635104 0.12844971137840683
7.4054860282115 0.25860527056553256
7.44977632926912 0.3904262335723615
7.3919496124252975 0.5168954704439692
7.431612447764421 0.6501818408975308
7.468859434215732 0.7850087591400786
4.674892374230627 0.5740046074382444
4.466108990024482 0.627670685329895
4.4544744160840715 0.7055194373314412
4.983127230241772 0.8786597789946675
4.721626752383263 0.9177912677611807
4.460353059346153 0.9480773101289828
4.150816475985102 0.9582914915048653
4.084945007621945 1.0184911804746015
3.82506627210471 1.0249234186059828
3.662407061524995 1.0501783256627666
3.50007540682471 1.0700804392852163
3.3382083721959885 1.0846496502560652
3.2242183427936704 1.1101874066989044
3.063397943762061 1.11498566724168
2.9034351264062974 1.114524323085884
2.7908234022460294 1.1275658461818954
2.7246943662192233 1.1565641403282507
2.5670627359757083 1.1429299670429989
2.501409492221154 1.1664264024043303
2.4357318654707423 1.1879858077984002
2.3255270281316403 1.1849152043202171
2.304493217361799 1.2253207788711753
2.239026450276853 1.2411126278306228
2.130422493309719 1.2299999999999995
2.0657731946920905 1.2412417605332309
2.043795911736987 1.2771054268020239
2.063129597145743 1.3398120261369668
2.039432428485403 1.375614542538037
2.056071631165369 1.439676855241126
2.0710835055998653 1.5047302458687313
2.0844386812234337 1.5707372104268464
2.056708066913544 1.606876450599968
2.1060655555483914 1.705458259745059
1.2716337755775033 1.0670274320796553
1.1396114661363856 0.9906491337756659
1.1072857899613173 0.9970046034746989
1.067776404363989 0.9957176056912478
1.0502361084944305 1.014201220870136
1.067731239591687 1.0677312395916867
0.979468302347186 1.0142691184774983
0.927517769684998 0.994641034202072
0.9100176246480475 1.010676962649256
0.8922402794270899 1.02640502910297
0.8741911491736938 1.04182044264181
0.8118233044542903 1.0025182902794925
0.7757334589103296 0.9928935495444696
0.7883776803291831 1.0462125181619537
0.7699986805031398 1.0598122626311812
0.7227063098023179 1.0321315758041298
0.704583058373141 1.0445873414193525
0.6862451841189343 1.0567249156112342
0.641202309722178 1.0261381963492753
0.6489479743866684 1.0800307988846614
0.6049999999999999 1.0478907385791707
0.5866196404980679 1.058289845638669
0.5680605909709276 1.0683665873593016
0.5493285046848517 1.078117894267925
0.5216616646790019 1.0695649150960087
0.4902371836192113 1.0513170329625139
0.4718145059679284 1.0597127308654168
0.45324810904755747 1.0677856300048307
0.41581331869166255 1.029174078569134
0.3977884239952832 1.036274273411894
0.3796423590914924 1.0430588090723583
0.3613806514474438 1.0495256189152418
0.32755801403744433 1.0081199072728628
0.3099140070061008 1.0136830413208178
0.3004447178405291 1.0477752485727676
0.2821127591617479 1.0528591506550844
0.2636948662036378 1.0576223416408361
0.25194518086512896 1.0912944725594635
0.22662374299135757 1.0661808847998482
0.20416562505290306 1.0503410862890006
0.19448595898696186 1.1029846833736732
0.17520660084505865 1.1062109414665544
0.1558738730752731 1.109100236990559
0.1304001974435078 1.0620243822562145
0.11707187885977213 1.1138645228124662
0.09761443187737713 1.115738061862755
0.07603455638109675 1.0873448147832085
0.05704619230480869 1.0885061928824855
0.03804045140572618 1.0893360014508144
0.01902312301663888 1.0898339877204666
