# .PCD v0.7 - Point Cloud Data file format
VERSION 0.7
FIELDS x y
SIZE 4 4
TYPE F F
COUNT 1 1
WIDTH 177
HEIGHT 1
VIEWPOINT 0 0 0 1 0 0 0
POINTS 177
DATA ascii
2.3329521523757077e-16 -3.81
0.06387580756045798 -3.6594425642723922
0.12075225859065374 -3.457892261486071
0.1758488129762917 -3.355395236775368
0.2239182807186427 -3.2021806013340357
0.26669657280783393 -3.0483557761607414
0.3198570975990196 -3.043236999826916
0.3546397893089792 -2.888309301276247
0.39107641369778395 -2.7826532731638127
0.4161156770070143 -2.6272509859830664
0.4584311890406963 -2.5998924679522295
0.4941952980252513 -2.5424144051294495
0.5177001101362211 -2.435587525827176
0.4409040665139757 -1.909765326979061
0.46932847746335526 -1.882373708975433
0.5021089474988902 -1.8738961030007926
0.5071727347032785 -1.7687215205265068
0.5233453514536989 -1.7117855131738335
0.5685912696499034 -1.7499439899830826
0.6055567672903116 -1.7586645506147291
0.7148220995506478 -1.9639575774425482
0.7310706170724128 -1.9045040700542917
0.7454671208976652 -1.8450958705879068
0.758018389269191 -1.7857794156977342
0.7687322554132626 -1.7266009149445154
0.777617601602887 -1.667606328147436
0.8066029100919025 -1.6537810451904673
0.8353425195207662 -1.639452004506597
0.8450488130146036 -1.5893056671460684
0.8726573164434068 -1.5743154728509123
0.8999999999999998 -1.5588457268119897
0.9373692963362988 -1.5600444872778443
0.9750514461890971 -1.5604084969278238
1.0565997279291526 -1.6270209018141224
1.084834232733249 -1.6083328907567807
1.1414171083385816 -1.6301125681350936
1.2284711772912689 -1.6908455182436402
1.2577933983877807 -1.669148215998842
1.348298630963192 -1.7257435503987208
1.4411436955041277 -1.7796642517364634
1.4719836261821753 -1.7542417747424597
1.5679810792873126 -1.8037558967324252
1.6460612916427912 -1.8281362706743898
1.7118158837568713 -1.8356977910641175
1.8130583468979828 -1.8774768788838792
1.9162593770155438 -1.9162593770155436
2.02134483895161 -1.9519900209897822
2.164806956792745 -2.0187151457849954
2.274023165960827 -2.047539655458106
2.4603532315262364 -2.1387524345090534
2.612211551035715 -2.191905749031099
2.8054969208596647 -2.271846611689913
2.9235198958809385 -2.2841040734581917
3.1625966197872795 -2.383187491682111
3.4059615463185287 -2.474575912151312
3.694375719743353 -2.5868297279432175
3.9876707239897504 -2.6897178656942917
4.327540130598388 -2.810337420677539
4.715147414629729 -2.9463511091366192
5.151575477219695 -3.0953788302094245
5.984235540150471 -3.455
6.743317942044741 -3.7378821720992588
7.911210432015986 -4.206465202561582
7.849767478099522 -3.9996563027054077
9.536204831234162 -4.651117867432111
12.7426874857353 -5.942012760074234
12.753094588690711 -5.67804353733817
20.917267759026725 -8.451124747462972
18.91433944083331 -7.260534657787785
18.812646268133886 -6.847243269379889
8.140914935910118 -2.803141809876119
6.524247701784754 -2.1198565814121393
6.512435388108272 -1.991051309161837
6.594255234136868 -1.890872260904614
6.626251168343009 -1.775498649403292
6.704743468567136 -1.6716802985937034
5.076468037531075 -1.1719949931315359
4.558167819419534 -0.9688684792107588
4.181731801487048 -0.8128463203040811
4.146040640181396 -0.7310588279777768
4.256936747965043 -0.674232544323395
4.961243024395268 -0.6972572358099277
2.500448692210281 -0.21876091429662173
2.3542511586131853 -0.16462527803613541
2.2569027485453366 -0.11827926110905321
2.108714645010292 -0.07363793804227714
2.009693867264346 -0.0350793369389399
1.86 0.0
1.8597167129908878 0.03246147597334738
1.7089583142026536 0.059678139361276736
1.6876839137352297 0.0884477660505752
1.6360050424261117 0.11440061694036564
1.5839495699658754 0.13857763096877668
1.4818376240987272 0.15574741026880387
1.4292664583635037 0.1754918545034123
1.4754994224249398 0.20736792043049745
1.5210400445165122 0.24090907616195553
1.5166039396388005 0.26741819360707275
1.5117058625094026 0.2938458528798791
1.555254685166751 0.33057958840023743
1.549248403008524 0.3576721764067455
1.5427702047788345 0.3846558140034719
1.5841183551140718 0.42446323396813423
1.576469181338843 0.4520452635398785
1.5683397997793782 0.47948959574528816
1.6072855125388095 0.522238720493661
1.5979263927628453 0.5502101810325948
1.6350651601674804 0.5951150493866637
1.6711089634299912 0.6414786296860876
1.7060182924028888 0.6892761318852784
1.647703687679868 0.6994087199958002
1.6352463691802557 0.7280585911056826
1.7129217174992684 0.7987485146899218
1.6987207475054253 0.8285214674313566
1.7731029831348522 0.9034410944816982
1.7570657097892646 0.934248409943923
1.7842242025643673 0.9890116253025276
1.8099930939094768 1.0449999999999995
1.7914796584674144 1.0764295765620133
1.814822925774752 1.1340272254590587
1.8366885438004783 1.1927594866829094
1.8984960411510456 1.2805517489480103
1.851283620093121 1.2962827461533644
1.7879275575686338 1.2990054075663655
1.764984477204517 1.3300112011660272
1.7021032277905195 1.329828786703422
1.6786352767470576 1.3593320446676487
1.6163537749810435 1.3562818564385979
1.592437214270049 1.38428455116997
1.5308783404834319 1.3784090490992482
1.5065886253354914 1.404916621728747
1.5178069787145534 1.4657291616684844
1.56270598642227 1.5627059864222699
1.6046608357602834 1.6616749387822844
1.6095161297474962 1.7259947358212422
2.3486484283195925 2.6084383374256532
2.3683730946557313 2.724501584604207
2.4811601733900424 2.956931550439255
4.852060214994246 5.991795362833246
4.746749974760826 6.075562910307826
3.316000777567785 4.400481660360584
4.4730457699457205 6.156619327193351
4.36491668063146 6.233747057039229
2.8295160915619784 4.194930117128511
4.5259503809748765 6.969352419626474
4.377133122566272 7.004877274252078
4.254214498757048 7.080201903799447
2.7049999999999996 4.685197434473814
3.5924392860253582 6.480932029902923
2.7745769360646135 5.218220273796258
3.341370078083065 6.557808018026388
2.240076560092185 4.592837576588744
2.180710230582009 4.676548181109114
2.1597715747325 4.8509263800822096
2.2506113000982166 5.302107955886056
2.7421202638044773 6.786985815428883
2.8884456733351196 7.524658237567446
2.5856722835420562 7.104076213141466
2.41246002452753 7.006292645190938
2.305266778037108 7.094881611561846
2.1957115024677516 7.181848717282397
2.235418955675863 7.795832354059765
2.0990224557814448 7.833658451204342
1.9619865733133046 7.869098340098331
1.8243530507287462 7.902141225408258
1.6861638125320273 7.932777041951163
1.413894655740198 7.27385742934719
1.286732996511953 7.297425449820462
1.1591793859481112 7.318770603809971
1.0382313331620867 7.387399792812115
0.9152387689726577 7.454021598826328
0.7850087591400791 7.468859434215732
0.728622009370422 8.328187676046992
0.5866519441880951 8.389513662685122
0.4296782007545682 8.198748480335052
0.2725650692465334 7.805242359019138
0.13368543330959068 7.658833344897957
