# .PCD v0.7 - Point Cloud Data file format
VERSION 0.7
FIELDS x y
SIZE 4 4
TYPE F F
COUNT 1 1
WIDTH 180
HEIGHT 1
VIEWPOINT 0 0 0 1 0 0 0
POINTS 180
DATA ascii
9.062386313690413e-17 -1.48
0.025829561527179724 -1.479774588831459
0.04990628028457654 -1.429128882637307
0.07484041742740986 -1.4280402346990406
0.0997517574540994 -1.4265165918715486
0.12899049926653405 -1.4743681531757833
0.14947570247274444 -1.4221663103766307
0.18036662823961827 -1.4689683044291566
0.20597618942089688 -1.4655967417375242
0.23152300825954175 -1.4617787440808039
0.25699930294705703 -1.4575154744580678
0.28239731315728644 -1.4528082315025426
0.307709302410284 -1.4476584490860323
0.34417511314611365 -1.49078619912141
0.35804440548750815 -1.4360376748884747
0.39599313900685673 -1.4778665142222744
0.42172515440000874 -1.4707303947856278
0.4619472934619241 -1.510961514421596
0.4727960013936696 -1.4551164699315848
0.5143976840423077 -1.4939193494469205
0.5403918264545567 -1.4847143408417351
0.5662213602815747 -1.4750570738655788
0.5993705494654595 -1.4834941673068598
0.6368917394375161 -1.5004229111274776
0.6507786289212807 -1.4616727322281613
0.6761892187851192 -1.45009245925864
0.7364635266056501 -1.5099739977826003
0.7627040395624387 -1.496890960636458
0.7981016567360144 -1.5010109078601757
0.8387206430261632 -1.5130920933511547
0.8499999999999998 -1.4722431864335457
0.8755647273470922 -1.4571844111935908
0.9273587124081086 -1.4840841682737453
0.9531183112762974 -1.467673493904492
1.0065472262473445 -1.492267630599075
1.032437585431883 -1.4744736797201852
1.0874027167410754 -1.496681439593653
1.1133577928312894 -1.4774756935874918
1.1697568031187509 -1.4972204318527715
1.1957087429946909 -1.4765773267682447
1.2534358388887517 -1.493786664082007
1.3121180579810146 -1.509419160445544
1.3382612127177165 -1.4862896509547885
1.398096638128122 -1.4992750883192991
1.4587825779638943 -1.5106135807111674
1.5202795795510773 -1.520279579551077
1.5825475607450328 -1.5282484150097941
1.6089781435621753 -1.5003963921374968
1.7092330985980069 -1.5390003946253736
1.7735675135235143 -1.5417387181276923
1.8385066634855471 -1.5426902632476942
1.904007605569579 -1.5418349580721018
1.970026884016805 -1.5391536883141455
2.0365205506205966 -1.534628309037723
2.1034441853748636 -1.5282416559604302
2.187135958251608 -1.5314490850572928
2.2964340759774657 -1.5489643426139685
2.3650510016060955 -1.535882078742376
2.476300440776764 -1.5473642515609582
2.5886452481203794 -1.5554149862283633
2.6586979896182266 -1.535
2.8162754569888544 -1.5610869771932054
2.9313860082916374 -1.5586455884491575
3.091792638933637 -1.5753470340962274
3.253634447602985 -1.5869035513764602
3.4167803571281703 -1.5932708467624368
3.581098193958996 -1.5944076408571366
3.7924799962240545 -1.6098122493758076
4.0517934444568615 -1.637030813227535
4.219783527767351 -1.6198231319447574
4.4823338011487825 -1.6314360836634398
4.793779178288537 -1.6506305430977846
4.774303711801671 -1.5512653117622357
4.800649874934438 -1.4677059577081382
5.113912222391857 -1.4663907329464354
11.948502471195773 -3.2015915879181804
12.099587706661676 -3.016766038127855
12.247831714350408 -2.8276347531023815
12.393130101297317 -2.6342411226610114
12.486297773454286 -2.427090421189651
12.575995005965895 -2.2174872288067005
12.711548943459423 -2.013311565067771
12.74475004470401 -1.7911578093560416
16.69462627060704 -2.04984235607458
24.186772495356408 -2.5421322266693305
33.392446280035315 -2.921460496901499
33.38846876219632 -2.3347491762158694
33.32426757476013 -1.7464508598270378
33.39964143897818 -1.166341179797584
33.464902356884416 -0.5841320434558799
27.87 0.0
23.466425405320503 0.4096079790830446
12.812190402384807 0.44741154772606306
12.802430635553637 0.6709469590345408
12.738892921817955 0.8907901697124814
12.621786824822417 1.1042632606128306
12.600592414316022 1.3243756296011713
12.426677818549352 1.5258041794324457
5.268226125705155 0.740400897107548
4.859426635728078 0.7696575679979358
4.894494532470674 0.8630314430046439
4.87868710173489 0.9483207070214279
4.519041915390182 0.9605520115780485
4.209278679872217 0.9717885547654972
3.949103605943306 0.9846221150906482
3.6898366564242404 0.9886887522916298
3.4797673392967146 0.9978072280575369
3.2705622653935813 0.9999112301517595
3.1575076340999098 1.0259364213248252
2.9500179558698685 1.0157726419063289
2.8378717147734434 1.0329008328435196
2.632696802722109 1.010597617717747
2.5219400844216615 1.018929934091281
2.4577479587180155 1.0432521130663612
2.347811826141484 1.0453131727048068
2.283895623332358 1.0649980195865625
2.1301418897290256 1.0389396178901138
2.067135136117013 1.0532579593957485
2.004291035789764 1.0657004475239724
1.8804323703497008 1.0423406835296247
1.8619546181365432 1.0749999999999995
1.75719296643933 1.055828053565611
1.6960961923128521 1.0598385284664098
1.6354076074935766 1.062046118279303
1.6166232664823315 1.0904261617679563
1.5154312819346347 1.0611164072494357
1.496681439593653 1.0874027167410754
1.4375439180851268 1.0832670416736874
1.3790188188117634 1.077407581819902
1.3211481344768508 1.0698446647847233
1.3022755533022625 1.092738936467117
1.2452708073675738 1.0824973978343368
1.1890317207638306 1.0706089701741734
1.1701659225906729 1.0911973760999976
1.114976690524909 1.076720474211446
1.0960155108391487 1.0960155108391485
1.0419875556884957 1.079009700507977
1.0229975400937477 1.0970305524287558
0.9836219913475217 1.0924228934517695
0.9840885434857609 1.132064370334158
0.9320420340454822 1.110764442522518
0.8810485474697722 1.0880043460397593
0.8619260654559218 1.1032150550494106
0.8124502812552651 1.0781579385638456
0.7935100905948388 1.0921729424061792
0.7456493672563598 1.0648976575756894
0.7549104196855082 1.1192007229493064
0.7080307455195354 1.0902717383290512
0.6888950435031664 1.1024625250033537
0.6695494973830706 1.114317490912746
0.6249999999999999 1.0825317547305484
0.6060120253079214 1.0932746339242447
0.5868394534823633 1.1036844910736587
0.5674881246744335 1.1137581552354598
0.5260453761468926 1.0785528555590005
0.5071419140888394 1.0875693444439798
0.4880839716909604 1.0962545491711209
0.4884139106115921 1.1506310668155504
0.4495279120990946 1.1126206254801447
0.41212314197709515 1.073617490471782
0.3933231648245191 1.0806465139037944
0.39068178534858783 1.13462229071918
0.364640053362438 1.1222466892282812
0.34499861157282913 1.128439612036382
0.325252079864059 1.1342888012072163
0.2976419018678991 1.1108147002324285
0.27821017993961783 1.1158400852173957
0.26544224412576084 1.1497566764465774
0.24533579516495588 1.1542141688658907
0.22515461454432298 1.1583200764682435
0.19622244076363113 1.1128327609037951
0.17677094549546093 1.1160878248725057
0.15726560408487372 1.1190029176779743
0.13771235804781665 1.1215771513546937
0.11811716349244865 1.1238097417661488
0.09848598930485368 1.1257000088436724
0.08091750954318552 1.157174298301396
0.06070970924181474 1.1584102603153055
0.04048341617490125 1.159293359342151
0.019721219274130213 1.129827895526722
