# .PCD v0.7 - Point Cloud Data file format
VERSION 0.7
FIELDS x y
SIZE 4 4
TYPE F F
COUNT 1 1
WIDTH 178
HEIGHT 1
VIEWPOINT 0 0 0 1 0 0 0
POINTS 178
DATA ascii
5.265981236333619e-17 -0.86
0.015881689857928077 -0.9098614025923161
0.030013567164150927 -0.8594761112364223
0.04500892236893181 -0.8588213998889335
0.05999056741994789 -0.8579050832234488
0.07059615162560309 -0.806917705454314
0.08466805524679931 -0.8055627352483015
0.10480763532842684 -0.8535896904115369
0.11273021177765304 -0.802117135680672
0.12671191668258705 -0.8000275558820616
0.14065502391021364 -0.7976942799398885
0.1545552862550014 -0.7951180185926079
0.16840846956238517 -0.7922995565943826
0.1709628013013375 -0.7405212492367788
0.19595673543573083 -0.7859395382835572
0.20446704563099138 -0.763081402768364
0.21775351109542934 -0.759396739791272
0.2368210808254168 -0.7746068523300588
0.2441234255562085 -0.7513346478731713
0.26696588665486853 -0.7753252319914397
0.2804565175270484 -0.7705479490444448
0.2938617186271463 -0.7655359497277053
0.307177406601048 -0.7602907607447655
0.3203995253612044 -0.7548139798310011
0.3213219480298823 -0.7217009115376546
0.33386842677515255 -0.7159831517589534
0.34631320596337123 -0.7100472965763419
0.38135201978121935 -0.748445480318229
0.35679838771727707 -0.6710401705727844
0.39269579239953306 -0.7084419627829106
0.4049999999999999 -0.7014805770653953
0.4429327444226467 -0.7371638786038165
0.429234604028896 -0.6869189578867051
0.46838957011292326 -0.7212566884330646
0.4809058969848423 -0.7129723123973358
0.4932757352618996 -0.704470758088533
0.5231288745403011 -0.7200251249937032
0.5175609199107615 -0.6868265386406718
0.5602519425463491 -0.7170897857821169
0.5726815558553521 -0.7072028249258435
0.5849367248147508 -0.69710044323827
0.5970137163813617 -0.6867857180027226
0.6423653821045039 -0.7134190324582984
0.6206185076568738 -0.665531868473445
0.6668720356406374 -0.690566208325105
0.6788225099390857 -0.6788225099390855
0.6905662083251051 -0.6668720356406374
0.7020995535544037 -0.6547184256599985
0.7134190324582985 -0.6423653821045038
0.7622566760249997 -0.6626196192804124
0.7737048875501678 -0.6492154857834046
0.7849174210715406 -0.6356135949603358
0.7564903234624532 -0.5910350163126318
0.7666900896454011 -0.5777424222259663
0.8171071643186969 -0.5936631048153979
0.8683011669463313 -0.6079910225321088
0.8373279482805922 -0.5647848325054543
0.9309243304194208 -0.60454932886668
0.8989309819258117 -0.5617144200871972
0.9514557037793447 -0.5716922631501601
0.961288198200727 -0.555
1.014558860281699 -0.5623791594857509
0.9800718280734091 -0.5211134346923388
1.0335675680585066 -0.5266289796978743
1.0426010937070338 -0.5085105302753298
1.0785062665736134 -0.5029157314714322
1.059712730865417 -0.4718145059679281
1.159836115350075 -0.4923212218964848
1.168251656754152 -0.472004307704049
1.2229903587113344 -0.46946201390434344
1.2309973332295399 -0.4480463877566261
1.285905262815071 -0.44277269006173314
1.3409896879761665 -0.4357139620686758
1.34838970590788 -0.4122441036590587
1.3553789912730296 -0.3886486717019687
1.3619554150675863 -0.36493485359455413
1.5136613329905546 -0.37739815713548147
1.5687358043042288 -0.3621711974936225
1.574817637181427 -0.33473782221659265
1.6295011245231221 -0.31674293232506445
1.6347808700002653 -0.28825597492710436
1.6889470624176857 -0.26750293521879476
1.7923852044222424 -0.2519033127377184
1.8461358420528593 -0.22667697873357423
1.9492629149218157 -0.20487578800460063
2.0023513431644084 -0.1751830429227927
3.232107522841831 -0.22601097493096559
3.1856282158670903 -0.16695170041499105
3.138087196839961 -0.1095844196458532
3.209511101452016 -0.05602222466368015
3.36 0.0
3.809419718545851 0.06649366852605028
3.957587674995619 0.13820200694190402
4.2541618180544845 0.22295117359494102
4.249622854106851 0.2971625781499742
4.4430283534891855 0.388714612654556
4.684198127184567 0.4923290619906485
5.022283527305089 0.616658877630046
5.456377058766052 0.7668437862899604
5.837238092917264 0.9245276883877644
6.361858084458864 1.1217672277283701
10.218738979690182 1.986321641869832
10.182516523638917 2.164360701412875
10.045755367935776 2.319245370285249
10.052263724219323 2.5063108384125585
11.938843212932882 3.199003397467158
14.428538056034167 4.137316710813156
17.079602941499815 5.221758646348078
21.74115196250721 7.064128491411298
14.713227521595899 5.647878884833933
14.658776740700908 5.922530241905571
12.113843871434113 5.142021650918845
9.418653668295216 4.193454790111502
9.344033284347862 4.3571942785466105
5.76126983677766 2.8099590509179873
2.147325723293967 1.094117104372308
2.083756319147067 1.1079528881747027
2.0203715234920043 1.1199102227690387
2.0264994448555864 1.1699999999999995
2.965798860429308 1.7820317391887877
2.637429579046485 1.6480489117652672
2.507624998156818 1.6284707146949313
2.478822341939575 1.671986781377533
2.4902222146385347 1.7436723665071807
2.45941166289984 1.7868671669691183
2.42785195054377 1.8295176703822273
2.4349532286447704 1.9023939587562841
2.4013810209020403 1.9446000083439972
2.405379551393591 2.0183530944157337
2.3697880818995043 2.0600253510301925
2.3706319932728874 2.134526634284758
2.333018308165154 2.17557476859937
2.2946939630802965 2.2159602017642017
2.269812767608818 2.2698127676088173
2.1603875321274812 2.2371467790532056
2.0869149817912453 2.2379423269546614
2.0475396554581065 2.274023165960826
2.0075406287109523 2.3094113154816824
1.9990694661251376 2.3823982181000214
1.9886524357174862 2.455781238204028
1.9762733357953635 2.529514519077577
2.0822799801060867 2.7632788647636337
2.0631262355465805 2.8396496502560655
2.0419321134097235 2.9161812776688114
1.9907267363558585 2.9513737582959485
1.9661469164042482 3.0276007502829803
1.96600047030519 3.1462584367403403
1.9365431616618038 3.222949050639942
1.9049999999999996 3.2995567884187116
1.8713651341508613 3.3760320695580677
1.8356338104928325 3.4523250880784047
1.8205019039555828 3.5729361619953552
0.9907187917433145 2.0312745446361173
0.9339863584469458 2.0029402093509963
0.8785511490437289 1.9732581885080178
0.8439792375368312 1.9882904834572714
0.7904199121075747 1.956357933135921
0.7382379760633183 1.9231756785842355
0.7045614952508777 1.9357667988189713
0.6543919904588845 1.9004923369546267
0.605673308974897 1.8640707719385008
0.5730485412565636 1.8743573216875495
0.5264673496104684 1.836009839242189
0.494344376145815 1.8449183282121202
0.4499747258153819 1.8047500508733536
0.4071614083623959 1.7636098172612757
0.3763201603801442 1.7704471573281884
0.3453642816315463 1.7767452020402719
0.3056207926937972 1.7332616453014864
0.27532465847080645 1.7383314794474425
0.23798600264171157 1.6933583975480853
0.21449004439305958 1.7468812268887266
0.17874367218768777 1.7006324410797473
0.1446785329611125 1.6536831988322975
0.11928357010245452 1.7058345259442993
0.08687768736328662 1.6577250276925926
0.05793316452615179 1.658988772851699
0.02809837436402624 1.60975478920179
