# .PCD v0.7 - Point Cloud Data file format
VERSION 0.7
FIELDS x y
SIZE 4 4
TYPE F F
COUNT 1 1
WIDTH 180
HEIGHT 1
VIEWPOINT 0 0 0 1 0 0 0
POINTS 180
DATA ascii
1.4634529249810872e-16 -2.39
0.041711251385107805 -2.3896359914237753
0.08340979711897759 -2.388544076575639
0.09472808079972858 -1.8075194579057787
0.11928357010245452 -1.7058345259442993
0.1403207458237296 -1.6038734639277104
0.1578379795341567 -1.5017280620060927
0.17183577420125795 -1.399490073814264
0.18927541730568906 -1.3467645734885358
0.19710742595069097 -1.2444873091498736
0.2101142949769858 -1.1916173811447717
0.2213384346367921 -1.13868753279929
0.230781976807713 -1.0857438368145242
0.23844811760449705 -1.0328322686723495
0.24434111455566435 -0.9799986835387564
0.26140723555354595 -0.975585084551959
0.2728809822588292 -0.9516490789789357
0.29237170472273677 -0.9563047559630354
0.3151973342624464 -0.9700776466210567
0.3223124729125852 -0.9360633898433236
0.32833933759264206 -0.902104915954472
0.3619516290407534 -0.9429162307621738
0.3408920000084801 -0.8437373076557765
0.36728726077991725 -0.8652745622452939
0.37013034519897836 -0.8313263664547668
0.3845826181840365 -0.8247400862033515
0.3989177435780605 -0.817902582132242
0.426751069755174 -0.8375461327370658
0.4413032690187374 -0.8299707372873912
0.45572104303155686 -0.822142524711032
0.46999999999999986 -0.8140638795573724
0.5098876941609537 -0.8485956276950911
0.5511160348025331 -0.881970020002683
0.5664245964156281 -0.8722173906632409
0.6095202647831142 -0.9036509540849954
0.6251983156226403 -0.8928757282750012
0.6700751876134193 -0.92227937358744
0.686069126393335 -0.9104444814539138
0.7018540818712505 -0.8983322591116629
0.7488912653493065 -0.9248036941337954
0.7970566360113088 -0.9498951094675328
0.8463161473977544 -0.973575358487376
0.8631784822029271 -0.9586568248658386
0.9138778024837482 -0.9800139601696883
0.9655751349380061 -0.999882322470725
1.0182337649086284 -1.0182337649086284
1.0718163025045904 -1.035040971983906
1.1262847004935228 -1.0502774744962478
1.181600272509057 -1.0639176641105845
1.237723711565346 -1.0759368075444318
1.3329173310270217 -1.1184504408545783
1.391091271007978 -1.126483499979209
1.4657000017085031 -1.1451303441057243
1.565325599692694 -1.1795574453780147
1.6261241586936441 -1.1814483571078709
1.7693684156642224 -1.2389251025182595
1.8736249139743941 -1.2637759618438877
2.021196068748472 -1.312580074386215
2.1286007213526292 -1.3300973532253442
2.322923384902724 -1.3957531830062464
2.5201339250127166 -1.455
2.7637982745604908 -1.5319983999784252
3.010851291648941 -1.6008980290998878
3.350184530948263 -1.7070042790206958
3.649103827974618 -1.779786855963654
4.178078898238956 -1.9482701866246244
4.6682172885536914 -2.078424246117339
5.394158441231301 -2.289684412947144
6.314122049599822 -2.55107090116236
7.711374322866886 -2.9601192632441804
9.594261658224125 -3.4920256633550784
19.48713784310192 -6.709959663362
16.938316555216684 -5.503592669817813
15.07136295397744 -4.60777806643033
15.101421243190991 -4.330262859885056
17.396324131466123 -4.661331002296398
15.388890218737304 -3.8368812642107284
15.40479072425457 -3.5564761691765034
13.557125746170545 -2.8816560347341453
11.396691599827378 -2.2152924363216857
9.414762118796709 -1.6600765784958542
8.355843361434866 -1.3234355742403532
7.4369131962491934 -1.0451899882100912
6.7096119850953375 -0.8238367614187966
6.573789728384287 -0.6909331421991889
5.588652256294693 -0.4889437168143618
5.197308701853685 -0.36343122820689217
4.8034080621695 -0.25173594952856015
4.457283088505167 -0.15565175529315453
4.209358796608408 -0.07347463110096368
3.91 0.0
3.7094349490302116 0.06474842788232192
3.507861802837026 0.12249723342577856
3.355395236775368 0.1758488129762915
3.2520588038470266 0.2274061044058488
3.24759471577909 0.284127721357366
3.2421413789005706 0.34076279025255074
3.186073146768644 0.39120059233052323
3.0302202903492055 0.42586968893780014
2.874173071131851 0.45522429326707187
2.7673097859643048 0.48795137924407433
2.611128307970786 0.5075519277016094
2.5040578578785424 0.5322539284934641
2.4943873658502023 0.5758746991202947
2.3384127003251516 0.5830317683951995
2.2795849500422007 0.6108129464419493
2.2205145176175165 0.6367222919372679
2.1134335106783086 0.6461414674372481
2.1018349010122894 0.6829275575686338
1.9004923369546267 0.6543919904588849
1.9827514298582665 0.721662502417161
1.9231756785842355 0.7382379760633186
1.8172803549509031 0.7342289230951877
1.8041895127667829 0.7658330118389768
1.7448718240973675 0.7768669882747786
1.6857324838881689 0.7860699668377009
1.6268172238014922 0.7934517756882304
1.6127218087809458 0.8217228045285797
1.5539877634317114 0.8262699505031681
1.4955996992083667 0.8290244506212363
1.524204710660612 0.8799999999999997
1.4657560842006119 0.8807151080961928
1.4501622444274886 0.9061619418387804
1.3502596143921326 0.8768688463741938
1.3347504918136173 0.9003005745879024
1.2778771890908271 0.8947792407076323
1.262066511224918 0.9169449935762581
1.205939620171412 0.9087406849595933
1.2292967756264863 0.9604319015080269
1.1734904018000263 0.9502737904852543
1.118424886953708 0.9384699101423475
1.101875987125247 0.9578461823261404
1.0849914451969953 0.9769306852839331
1.0312087192830304 0.9616176876881228
1.0502361084944305 1.014201220870136
0.9616652224137048 0.9616652224137047
0.9447353838242362 0.9783021284605659
0.927517769684998 0.994641034202072
0.8765610943301044 0.9735197213753863
0.8594373279775646 0.9886695500918313
0.8420517686893667 1.0035182204858613
0.8558757318277789 1.0569185075814804
0.8372996064428955 1.0716946249051418
0.7883776803291831 1.0462125181619537
0.7406094178885162 1.0193614129124338
0.7227063098023179 1.0321315758041298
0.704583058373141 1.0445873414193525
0.6862451841189343 1.0567249156112342
0.6941942361454985 1.1109430059649181
0.6489479743866684 1.0800307988846614
0.6299999999999999 1.0911920087683928
0.5866196404980679 1.058289845638669
0.5680605909709276 1.0683665873593016
0.5266289796978744 1.0335675680585066
0.5523476449542373 1.1324804983369505
0.5113680967062463 1.0966324223143464
0.49215133812171846 1.1053900037475468
0.4727846654720212 1.1138108726774527
0.4532739780332537 1.1218924640258126
0.42645785995890717 1.11096070753167
0.4070039705575459 1.1182342187352308
0.38742610380401626 1.125167104963187
0.36773022330618743 1.1317572543912326
0.3566934797617386 1.1666918022749033
0.330764826980399 1.1535140351259827
0.30799466367199996 1.149451733283991
0.2878870557636045 1.1546519142684357
0.26769175466919953 1.1595003770944299
0.25157314588948865 1.1835585968879048
0.2213384346367921 1.13868753279929
0.21011429497698556 1.191617381144772
0.18928570269867942 1.1951028921201168
0.16839945216167895 1.1982243631773002
0.14746190552022845 1.2009808434859996
0.12647944055386096 1.2033714933956106
0.10981623586204925 1.2552053195955994
0.08789315691759808 1.2569307033273784
0.06594330486610912 1.258273213790763
0.04397336584515136 1.2592324420440606
0.022862652432841225 1.3098004806548726
