# .PCD v0.7 - Point Cloud Data file format
VERSION 0.7
FIELDS x y
SIZE 4 4
TYPE F F
COUNT 1 1
WIDTH 180
HEIGHT 1
VIEWPOINT 0 0 0 1 0 0 0
POINTS 180
DATA ascii
9.674709713264091e-17 -1.58
0.027574802170908085 -1.5797593583470984
0.056886179625076756 -1.629007048041126
0.08269081086385147 -1.5778346649122268
0.11021522851571823 -1.5761511994105224
0.14206386067868276 -1.623797357889545
0.17038139512627512 -1.6210706894502853
0.1986470297503904 -1.6178502271753548
0.2268521545649067 -1.6141369520487596
0.26280990126758796 -1.6593164121998314
0.28304652959709653 -1.605236637409899
0.3205591122325954 -1.6491336681920754
0.33889605603294787 -1.594380589196103
0.37791777129769344 -1.636941708839195
0.3991711277394516 -1.6009879483553942
0.4270514244191592 -1.5937776133769626
0.46858350488889855 -1.6341448830951422
0.5058030491703346 -1.6544072278160513
0.534599400268659 -1.6453277731906155
0.5534658625771665 -1.6073815785188383
0.5814342436536369 -1.597477455336044
0.6271439117042756 -1.633765746370103
0.6555615384778464 -1.6225717454918778
0.7033160312806928 -1.6569087362143926
0.7321259575364407 -1.6443818237566814
0.760712871133259 -1.63135401666597
0.8109866215597933 -1.6627689856534589
0.8398824245181618 -1.6483620697484807
0.8919959692931926 -1.677600426431961
0.9211382784680405 -1.6617774435648518
0.9499999999999997 -1.6454482671904336
1.0043242460746058 -1.671476236369119
1.0598385284664098 -1.696096192312852
1.0892780700300542 -1.6773411358908479
1.1183858069414938 -1.6580751451100832
1.1758316945196443 -1.6792616907924331
1.2343490298141937 -1.6989356881873898
1.2638115486193013 -1.677134571099315
1.3236721719501656 -1.694223120254452
1.3845048603096424 -1.7097211152053362
1.4462721217947136 -1.7235999970177005
1.4761328152286413 -1.698096555501237
1.5390003946253739 -1.7092330985980067
1.6026961461468718 -1.7186811988050503
1.6671800891015933 -1.7264155208127625
1.7324116139070416 -1.7324116139070413
1.798349500846628 -1.7366459261474931
1.864951939128885 -1.739095818159371
1.9321765462412255 -1.7397395765330312
2.0150745791948013 -1.7516776074046543
2.1066222185771895 -1.7676659266379828
2.1526943132358096 -1.7432174832080496
2.261590862851292 -1.766948434184639
2.37194746484046 -1.7873906187615836
2.4432313230123412 -1.7751114619232689
2.5147967759672047 -1.7608796595977112
2.6695009836272345 -1.8006011491758047
2.7843862855788077 -1.8082015962498894
2.9003244888549773 -1.8123238836775608
3.060087263506541 -1.838685927428893
3.135011961699668 -1.81
3.3410472812724916 -1.8519727493410074
3.50530194364994 -1.8638021042599866
3.670946879656076 -1.8704408589269328
3.8827902800124017 -1.8937633541288146
4.051195808053825 -1.889103629980926
4.311934560073077 -1.9197969553177767
4.574909121658629 -1.94193370859169
4.886258913566969 -1.9741767473018557
5.2000429755894135 -1.9961094789673228
5.515995684013282 -2.0076582413216757
5.8811255402277505 -2.0250339207235144
6.295994137873916 -2.0456925027621518
6.856705100254965 -2.0963051228620224
7.420940292643822 -2.127920386907233
8.133095457353955 -2.179256359763224
10.207511040423482 -2.545018341708503
10.299091584779937 -2.377732644414652
11.26826036045344 -2.395142678220588
11.455589230834239 -2.2267409760442787
11.443466090001856 -2.0177918244897306
16.909224390988758 -2.6781580414887527
17.44852337122647 -2.4522300389163525
14.064378968757534 -1.726888596050939
14.19182744690526 -1.4916211708294138
14.215698341769208 -1.2437124490090805
16.18048889521435 -1.1314500041297102
17.745646832588776 -0.9300099424371131
17.809144537480286 -0.6219090312385681
17.0674001563196 -0.29791257788443
10.12 0.0
9.86849675119358 0.17225525153598847
9.91395700402943 0.3462030072888101
11.753869624061334 0.6159942049794497
11.890963479097104 0.8314971670299748
11.775021331444433 1.030180879277321
10.66127471834789 1.1205451262292467
10.54084013043084 1.2942524269626656
10.566160293472556 1.4849769872438978
8.31633582781106 1.3171781956387438
7.701196628555467 1.3579287493553955
7.185510982836901 1.3967218461563085
6.719874017041245 1.428353315918007
6.352892822399733 1.4666808743220003
6.0352394174366975 1.504754190629934
5.66998460031683 1.5192677947517979
5.402290731173352 1.549081939691535
5.087541301723349 1.5554174691249594
4.869409363431187 1.5821670111997308
4.651951391948638 1.601795319929211
4.435349170109487 1.6143350764971565
4.266462549092212 1.6377415294220226
4.051793444456861 1.637030813227536
3.8845304815692976 1.6488853622247357
3.718130012605386 1.6554181373185075
3.5527265251836675 1.6566635860235415
3.4333932568628174 1.6745777807342763
3.3145442699807286 1.6888446590311141
3.152122906506369 1.6760134791456307
3.078661369130673 1.7065298632671064
2.96180688094278 1.7099999999999993
2.8457954383310122 1.7099264087013801
2.730714869623692 1.7063400308309198
2.6585857003869937 1.726505740997636
2.545145347743978 1.7167222136551925
2.4738391737527547 1.7322008377801597
2.402780473293594 1.7457221993086454
2.3320156893380948 1.7572998676039815
2.2458306477791576 1.7546352046781262
2.2148659901523673 1.7935631144920363
2.1066222185771895 1.7676659266379833
2.0377158666014847 1.7713593782743695
2.006491028788964 1.8066526371689176
1.9015196242098436 1.7731957361624962
1.8702834808804927 1.8061117631933932
1.8031222920256962 1.803122292025696
1.736645926147493 1.7983495008466281
1.7049959001562462 1.828384254047926
1.639369985579203 1.8207048224196158
1.5745416695772174 1.8113029925346527
1.5426902632476946 1.8385066634855471
1.478902918967118 1.8262930094238816
1.3852383194827314 1.7730241956151243
1.3841745532497107 1.8368616731087737
1.3225168176580646 1.8202882373436318
1.2905469817898534 1.8430920996502318
1.2302243876356431 1.823882659621092
1.19820587703306 1.8450752494799327
1.1393264181013905 1.8233034067363156
1.1073318610566165 1.8429096965095413
1.0499999999999998 1.8186533479473213
1.018100202517308 1.8367013849927312
0.9858902818503704 1.8541899450037467
0.9533800494530484 1.8711137007955727
0.8986608509176083 1.8425277949132923
0.8663674365684337 1.8579309634251322
0.8134732861516007 1.8270909152852015
0.800998813403011 1.8870349495775025
0.7492131868318244 1.8543677091335746
0.7167358990906003 1.8671608529944035
0.6840402866513376 1.8793852415718166
0.6446249458251699 1.8721267796866474
0.6025831390311475 1.8545602067755493
0.5701248242093363 1.8647942741279193
0.5457619645176583 1.9032981579578714
0.4995207570478654 1.8642368447379016
0.47174769641935194 1.8920766662381931
0.4341555348836597 1.880534225035504
0.4012695632782753 1.887824869416245
0.3778018108455589 1.9436218232263747
0.3351409828971753 1.9006789633135617
0.30191851752764565 1.906238497348616
0.2686040848529259 1.9112173726712307
0.23520783277193466 1.9156140726677513
0.2017399341065716 1.9194272580607674
0.1682105835029802 1.9226557673170688
0.13462999432616213 1.9252986170014605
0.10100839554888143 1.9273550020763275
0.06735602863582708 1.9288242961468547
0.033683144423956916 1.9297060516518352
