# .PCD v0.7 - Point Cloud Data file format
VERSION 0.7
FIELDS x y
SIZE 4 4
TYPE F F
COUNT 1 1
WIDTH 178
HEIGHT 1
VIEWPOINT 0 0 0 1 0 0 0
POINTS 178
DATA ascii
1.071565949253934e-16 -1.75
0.031065283458364807 -1.7797288973783765
0.05932914439425183 -1.6989644059324627
0.08792440648814585 -1.677697618387684
0.11719087589013076 -1.6759076044365047
0.14642164781606568 -1.6736070927941324
0.17038139512627512 -1.6210706894502853
0.1986470297503904 -1.6178502271753548
0.2268521545649067 -1.6141369520487596
0.24247342081235795 -1.5309169279224635
0.27436412071375005 -1.5559962497592887
0.30147821269494096 -1.5509709498473092
0.31810488695117195 -1.4965658291227226
0.348674134232991 -1.5102736004171147
0.3628828433995015 -1.4554435894139948
0.39599313900685673 -1.4778665142222744
0.40794328660915874 -1.422667309988712
0.44732870822578724 -1.4631462766234442
0.45734515167492223 -1.407563644116827
0.481840868596592 -1.3993674918869887
0.4890888049557064 -1.3437604477238487
0.5303845653270446 -1.3816990312158586
0.5356874285847544 -1.3258729120305057
0.5587455137396614 -1.3163219404369897
0.5816333995983946 -1.306370004428919
0.6043441142892002 -1.2960201354624095
0.6268707399083807 -1.2852754862078086
0.649206414627552 -1.274139329589366
0.6713443347838239 -1.2626150577882653
0.693277756952262 -1.2507061812093359
0.6899999999999998 -1.1951150572225253
0.7365044471213775 -1.2257492400040204
0.7577845478534829 -1.212708777503689
0.7516018683207373 -1.157365383764685
0.7716862067896306 -1.1440718501259572
0.7915354821644435 -1.1304298211188086
0.8111436481636128 -1.1164434522374274
0.8305047319498265 -1.1021170038652641
0.8496128359494085 -1.087454839977276
0.8684621396487755 -1.0724614268106198
0.8870469013674243 -1.0571413315041895
0.9053614600069 -1.0414992207074254
0.9568567670931672 -1.0626971004326737
0.9411577368862479 -1.009268108234455
0.9586285512334162 -0.9926889244673384
0.9758073580374356 -0.9758073580374355
1.028655914484271 -0.9933614697563661
1.0092681082344552 -0.9411577368862478
1.062697100432674 -0.956856767093167
1.079234699718564 -0.9381644114564254
1.0954435536601386 -0.9191862818517511
1.1113187248834684 -0.8999281592012675
1.1268553776576125 -0.8803959097156911
1.1819805548699933 -0.8906862342650315
1.1568943019561748 -0.8405329107782366
1.212345025547708 -0.8488931257995481
1.2269756073814617 -0.8276054971367053
1.258005851918136 -0.8169585525225405
1.5264865730815669 -0.9538546756197689
1.5429011412638023 -0.9270685348380973
1.5588457268119895 -0.9
1.5918078669937004 -0.8823535088483335
1.6157940949318363 -0.8591329598981802
1.6750922654741316 -0.8535021395103479
1.8694916163022675 -0.911811985321281
1.885120197036232 -0.8790459844206547
1.9184454610494621 -0.8541469504591803
1.933060192250125 -0.8205353698274748
1.9470860945902537 -0.7866738461734151
2.0071979169689835 -0.7704910915223957
2.020339134689703 -0.7353433081501878
2.0328649375385313 -0.6999715320828869
2.1398771616640953 -0.6952882373436317
2.15168570091683 -0.6578363356261576
2.134000964983068 -0.6119149299137381
2.192651625676185 -0.587519232382722
2.2510860849603116 -0.5612587977912289
2.3092570535410077 -0.5331339987949597
2.3671171937758095 -0.5031462917789777
2.3755377839433467 -0.46175776881123853
2.4817155375907642 -0.4375934077206645
2.488974618299747 -0.3942148519013818
2.5449889366658356 -0.3576748694673681
2.65009822488233 -0.32539114689174364
2.7050995554017034 -0.28431742008801725
2.709649578809548 -0.23706362027362995
2.663496014193731 -0.1862497848968142
2.666340857794712 -0.13973700316866022
2.6683735081409856 -0.09318165619567771
2.7195857308253846 -0.047470545509411224
2.7 0.0
2.7995735464378955 0.048866738024393896
2.868251673544805 0.10016155553617792
2.9159982414833556 0.15282099222939619
3.012643431784669 0.2106645507072587
3.0583177231416587 0.26756813023531095
3.20236050308584 0.3365816517218446
3.2456259158671235 0.3985127529348321
3.3372033916590924 0.46901335023542046
3.3778941248353713 0.5350058704375895
3.5157636782535824 0.6199239942709414
3.602571763252927 0.7002690130319196
3.7365238348031373 0.7942226589238409
3.868249157197384 0.8930556857451445
4.046133178570905 1.0088143046506148
4.510873608769948 1.2086849406287725
4.729407544016529 1.3561357906196356
4.991910826127046 1.5261802986526856
4.993046710549556 1.622339220468474
4.963972521896413 1.7092328109000727
4.999164742581033 1.8195471624925579
5.106684932939693 1.9602726840127926
5.071695684480327 2.049098065985039
5.035161548384848 2.1372992728363283
5.042770926187156 2.2451862697784177
4.912188205738643 2.2905909786345906
4.826524028626526 2.3540530582573465
4.695604382472698 2.3925299336274115
4.785575953295384 2.544535870299529
4.740438812695525 2.6276681417351466
4.8670627692685455 2.809999999999999
4.902996960016082 2.94601778848551
5.5292735869398975 3.455073602800496
12.219430174964828 7.9353907401689465
12.037625553499206 8.119480958395243
11.85313008086171 8.29965103399964
11.989631856636722 8.710977438974451
13.512912830000195 10.182710191732662
28.384147344914126 22.176126341230212
30.79052299292519 24.933673893394552
30.350680836373908 25.467245095780687
24.42994911181113 21.236630768422714
25.244629721467078 22.730366698010418
10.337901140947325 10.337901140947324
10.155905376110537 10.516747880951081
10.039015860119978 10.76552648783419
9.78268946496651 10.864777348479501
9.49317414949264 10.920647625823511
5.0587384882330655 6.028769767346357
3.4109165194901188 4.212131111096782
3.152186753667371 4.034615058466416
3.0812929185384865 4.08901381144214
3.0682390169667095 4.223068710637225
2.9367113541173553 4.194058466759639
2.8351080205966865 4.2032204928540615
2.706856004024685 4.168192722688757
2.607202780027368 4.172396633089615
2.533987328557467 4.217263119454392
2.4849999999999994 4.30414625680866
2.4337442936366123 4.3905909298397665
2.4036944014637602 4.520691675437706
2.3698304086404347 4.6510540562632805
2.178704599541714 4.46700641010686
2.0370200215901715 4.368403533516653
1.8994601231639878 4.266257287190945
1.766104700771517 4.16068193760503
1.6370308132275362 4.051793444456861
1.5123127470811666 3.939709399818191
1.4091229905017555 3.8715335976379426
1.2925055731949116 3.753708745129288
1.1958957682310467 3.680588718062244
1.1022413268047169 3.605268929980644
1.0115890958483869 3.5278304240936302
0.9239839910159998 3.4483551998519735
0.8515650725108302 3.4154409564915076
0.7693326058560188 3.3323456215655045
0.7006623980558486 3.2963574144729253
0.6239454148813018 3.209920889873861
0.5591471320875153 3.1710809646993106
0.48807553092552053 3.08158762265683
0.4314366129762023 3.0698310130988684
0.3717014973856998 3.027265762506032
0.30835896663957835 2.9338395913364064
0.25710944110559153 2.9387743593706497
0.20229377385796382 2.89293574575349
0.14915747529238968 2.8460941740505357
0.09771859076700302 2.798294315653468
0.04799411770252929 2.749581161680076
