# .PCD v0.7 - Point Cloud Data file format
VERSION 0.7
FIELDS x y
SIZE 4 4
TYPE F F
COUNT 1 1
WIDTH 180
HEIGHT 1
VIEWPOINT 0 0 0 1 0 0 0
POINTS 180
DATA ascii
1.071565949253934e-16 -1.75
0.031065283458364807 -1.7797288973783765
0.06107411922937689 -1.7489339472834176
0.09420472123729914 -1.797533162558233
0.12556165273942582 -1.7956152904676836
0.15688033694578465 -1.793150456565142
0.18815123388177624 -1.790139411662892
0.21936481812926548 -1.7865830729543797
0.2505115817281178 -1.7824825237348267
0.2815820370724157 -1.777839013071248
0.31256671980047473 -1.7726539554219745
0.3529966414466081 -1.8160102893781784
0.38463662801285503 -1.8095730613575405
0.41615945053615055 -1.8025846198526854
0.4596516016393686 -1.8435618799243931
0.4917561856947894 -1.8352590699492297
0.5237109760522984 -1.8263972222828058
0.5613536730676546 -1.836105131449028
0.6087634789186465 -1.8735813371014525
0.6413692642805988 -1.862671593930654
0.6737796823515676 -1.8511944629482393
0.7418216555587718 -1.9325114828492074
4.427849934176082 -10.959313160979427
4.48168604377197 -10.558190669099492
4.54324830315669 -10.20430276186785
4.593860505121403 -9.851565645088384
4.633583021560549 -9.500253069382195
4.662482432325146 -9.150637003414538
4.821472949811099 -9.067871778661178
5.051716242966832 -9.113537348392503
4.284999999999999 -7.42183771043264
4.3366205907426565 -7.217348671911785
4.355936351996944 -6.970955350405822
4.531396771325025 -6.977739125305927
4.736363892397226 -7.021948239541203
4.9442288813460165 -7.0610906217711085
5.331212238292731 -7.337784138980774
5.639006766934692 -7.483214729143133
4.41429277808497 -5.650037103360196
4.449295164722351 -5.4944219475007845
4.448090259030852 -5.301027546383327
4.507125529164785 -5.184854816130444
4.630383796003299 -5.1425621923035685
4.78762848763874 -5.134102985366575
4.9807005161910105 -5.157666368428128
5.069955621107546 -5.069955621107545
4.582194528157208 -4.424973819823813
4.549020024071241 -4.242029799588741
4.548046331921654 -4.095079310916212
4.543351672941087 -3.9494753545228534
4.573285325420299 -3.8374420298286394
4.522989495679571 -3.662644675910054
4.546822048310785 -3.5523667126290475
4.528263341968151 -3.4122911812721135
4.546675508387205 -3.3033531178836992
4.562676886689685 -3.1948207504753268
6.8146888464024435 -4.596565666529539
6.851938540114115 -4.4497009160727705
6.716540921558894 -4.196960572726983
6.78876502156073 -4.079101553287628
6.945523738351197 -4.01
4.696707827338555 -2.60342766072283
4.564839055080652 -2.4271679796030554
4.517403077635025 -2.3017318336795025
4.556885814736777 -2.2225417142206227
4.50434970157215 -2.1004127608512757
4.768707288894377 -2.123165276855677
4.712984849676495 -2.000543377865081
4.747181335381952 -1.917985758289469
4.779931783665673 -1.8348439016719378
4.811226218423851 -1.7511431338274241
4.793779178288537 -1.6506305430977846
4.774303711801671 -1.5512653117622357
4.896280350530742 -1.496943128180412
5.017786052798025 -1.4388269973647352
7.21546592237934 -1.9333782669158295
6.0352394174366975 -1.5047541906299324
6.060581802964163 -1.3991955580188393
5.9862633164908905 -1.2724195478046876
5.860314285182554 -1.1391297023979727
6.027023448434713 -1.0627268473216138
5.0569643038471055 -0.800944461005982
5.07017251195684 -0.7125662769155349
5.032208988821504 -0.6178775710640976
5.042226009517146 -0.5299593087670027
4.452990300470102 -0.38958617008203156
4.459111304661414 -0.31181143763623953
4.413942543615216 -0.23132492659381204
4.317368372722494 -0.1507658257548044
4.469319197349069 -0.0780122567746574
5.12 0.0
5.169212583958543 0.09022894128075588
5.2168201170396795 0.1821753727870553
5.212846171418875 0.27319369158816714
5.257162544869273 0.3676166166315408
5.3993752636572605 0.4723841256923079
3.799073640306804 0.3992987296824368
3.642644376523652 0.4472604902968911
2.2974219194804433 0.32288159422735174
2.2914369501807195 0.36292795889333557
2.2847539869883224 0.4028637721872784
2.3264564247709636 0.45221731904241136
2.6605614739959513 0.5655197990243056
2.65028657621584 0.6118668678153131
2.4451452302155112 0.609643176911163
2.3858367909339986 0.6392830414032267
2.278190219373816 0.653260533286288
2.170811796036091 0.6636837697206124
2.0162398145457257 0.6551160280748886
1.9572234514905857 0.6739260797263144
1.8511944629482393 0.6737796823515675
1.8391534401994873 0.7059848606042416
1.826552193496571 0.7379749890293469
1.7673693186286852 0.7502037666994058
1.6169754600274036 0.7199238582441666
1.5588493937030379 0.726903410194003
1.545925759634567 0.7539983724772135
1.5325312216039928 0.7808636595520205
1.4303751004314615 0.7605439317131434
1.4168839255658212 0.7853915847990661
1.3163586137523469 0.7599999999999998
1.3028942970672106 0.7828578738632825
1.204228296542125 0.7524853552111509
1.2328457348797732 0.80061938147209
1.2601371102836634 0.8499732132755351
1.2041535051048178 0.843157361436038
1.1488041320124254 0.8346550582553118
1.094130648764791 0.8244865817183065
1.079574732441209 0.8434562211961519
1.0258326691232018 0.8307029161857853
0.9728764427611021 0.816340264301905
0.943386975278465 0.820073786238134
0.9437939283562906 0.8497958700757501
0.9288192010563466 0.8661379172793731
0.9135615464300867 0.8822161304829267
0.862670273047588 0.8626702730475879
0.8474832119599764 0.8775945564131545
0.8320379992762481 0.892251515975388
0.7828828094398642 0.8694794458085511
0.7675890639188935 0.8830102088606432
0.7520615033332512 0.8962719984492042
0.7363048575283097 0.909260774904656
0.6895408523647375 0.8825720440395286
0.6319057743096506 0.8385672855496576
0.6289302199529463 0.8656481839811938
0.6424056087131715 0.917450289603671
0.5983364067136991 0.8870702026338947
0.5827637674660792 0.8973775077016036
0.5670136127295293 0.9074114628873758
0.5510907401537581 0.9171690117512601
0.5349999999999999 0.9266471820493495
0.49450581265126387 0.8921121012821837
0.4788609940416085 0.9006065447161056
0.4630703097343378 0.9088266546721353
0.44713856972485877 0.9167699272251504
0.40993971388847844 0.8791185534255505
0.39453454378352637 0.8861390939133227
0.3790091946345955 0.8928897078488671
0.3633683956134348 0.8993683389297836
0.3404495520680351 0.8869014051723416
0.31465853185961534 0.8645172111230357
0.3092897467342987 0.898242646819351
0.29356614465620007 0.9035036904803958
0.2777531194865997 0.9084895181648838
0.24807362023529925 0.865135526344487
0.23293714059226886 0.8693332436601614
0.2298258008196843 0.9217809399621966
0.21370350162667187 0.9256515615459734
0.19335787246051608 0.9096772686824394
0.17745236570018677 0.9129132806063276
0.16149280523024512 0.9158712103013537
0.14548405248741478 0.9185501567534782
0.12943098389286067 0.9209493039296605
0.11333848936678717 0.9230679210264295
0.09721147083891793 0.9249053626924942
0.08105484075532207 0.9264610692253235
0.06278082636971291 0.8978076452338418
0.05128923711808487 0.9786569440594823
0.03420150676845106 0.9794030104787138
0.016579786115419208 0.9498553103985716
