# .PCD v0.7 - Point Cloud Data file format
VERSION 0.7
FIELDS x y
SIZE 4 4
TYPE F F
COUNT 1 1
WIDTH 179
HEIGHT 1
VIEWPOINT 0 0 0 1 0 0 0
POINTS 179
DATA ascii
3.306546357697854e-17 -0.54
0.008551679154268963 -0.4899253706266317
0.01710075338422553 -0.4897015052393569
0.025644618559042542 -0.48932847202974117
0.03766849582182775 -0.5386845871403051
0.042706313946352485 -0.4881354020649553
0.05121894700115019 -0.4873157287304539
0.05971597826852227 -0.4863476143042478
0.06819481947043207 -0.48523135368336945
0.07665288786971315 -0.4839672868916175
0.0850876070567959 -0.48255579897598194
0.093496407734507 -0.48099731988935535
0.10187672850070213 -0.4792923243595647
0.11022601662849392 -0.4774413317447653
0.11854172884383715 -0.47544490587523824
0.12682133210023516 -0.47330365488164344
0.1350623043503296 -0.47101823100977624
0.143262135314141 -0.46858933042188733
0.15141832724372425 -0.4660176929846252
0.1595283956840068 -0.4633041020436652
0.16758987022957772 -0.46044938418509507
0.1935186927544622 -0.504133430308489
0.2022875604445926 -0.5006792814660652
0.1914582529597441 -0.45104737819169577
0.19930095510714219 -0.4476372742448744
0.2282138613399777 -0.489406204999791
0.23672041926610185 -0.48534878500155015
0.22245534487237795 -0.43659319685230025
0.2300410657650865 -0.43264432050087415
0.26179719493302206 -0.47229464185527376
0.26999999999999996 -0.46765371804359696
0.2781205604514293 -0.46287034237914065
0.2861564026859307 -0.45794597192447006
0.29410507890811466 -0.452882106690529
0.3019641678742033 -0.4476802891797225
0.3097312756295649 -0.4423421039160556
0.3174040362379355 -0.43686917696247163
0.35507086365970847 -0.47119495092790276
2.899765548783851 -3.7115306494876603
3.247293217817161 -4.01007316111797
2.641857075811677 -3.1484426612189997
0.7938314250785138 -0.9131985920695541
0.7628088912490983 -0.8471851010442294
0.7774781304712484 -0.8337432198458541
0.7571776238003071 -0.7840803823691297
0.7707463914933369 -0.7707463914933368
0.8200473723860623 -0.7919105423232567
0.8337432198458544 -0.7774781304712481
3.1657969565336996 -2.8504963830887355
4.1207143080163355 -3.5820822982881695
1.04182044264181 -0.8741911491736934
1.041375588352341 -0.8432893240067821
1.0165338721526713 -0.7942033031700991
1.0302398079610078 -0.7763413798661423
1.0436319227436823 -0.7582429754572904
1.0567061371327995 -0.7399136028928495
1.0280065899682518 -0.693399200303726
1.0399515042523257 -0.6753524034186335
1.1109430059649181 -0.6941942361454985
1.8086230044814569 -1.086730338060214
1.7840123317959435 -1.03
1.7579856113501853 -0.9744673366951374
1.7747246616464432 -0.9436378411996404
1.746372787409201 -0.8898213794895117
1.716696628431409 -0.8372888903671378
1.7310478732400012 -0.8072008799247358
1.6535172783331078 -0.7361933239671983
1.574063299403673 -0.6681502297166579
1.6318435840375458 -0.659307604412005
1.6897805719599353 -0.6486459886769936
1.7478282746617895 -0.6361574665857439
1.853216408174661 -0.6381135827360271
1.8640707719385008 -0.6056733089748969
1.9221725594857013 -0.5876671264927007
1.980199093632937 -0.5678129529830181
2.134696076098841 -0.5719900896765707
2.144353555069952 -0.5346473892752654
2.2507948496538934 -0.5196369355343279
2.3573357177684717 -0.5010671748708002
2.4638842304536364 -0.47893057839512754
2.570348235361863 -0.45322174371068824
2.7754042370723373 -0.43958084676304876
2.8321666766008913 -0.39803506874578704
3.0868185316045116 -0.3790136579900085
3.1924152841321574 -0.3355363670891674
3.3970239204928525 -0.297201082769514
3.451571613898992 -0.2413573991546731
3.804778527414926 -0.19939999328561628
4.007557216346574 -0.13994698177702908
4.259351181366227 -0.07434725142282786
4.51 0.0
4.909252183217881 0.08569131560706217
5.3067652914713985 0.1853163274902804
6.700804178203191 0.3511742663901536
6.69365477724342 0.46806593882308145
7.680661122287358 0.6719707765844454
8.51310742435242 0.894763645571115
8.545822365631782 1.0492950467183193
8.52620807186492 1.198280399266163
8.503996612524135 1.3469007439963876
8.52843514108572 1.5037932185956169
14.292491790997987 2.7781789726824933
16.589383308445342 3.5261822762691994
15.112479704818998 3.4889908528733473
14.27305013351991 3.558671084271114
14.16047261339774 3.7942872012029567
14.140159547252672 4.054625504068057
14.067242960216253 4.3007877764714575
13.99004135470171 4.545639987255476
7.432968630416535 2.70537933370604
6.684435853719965 2.5659145187443504
5.989607700501446 2.4199585934667924
5.348133198558678 2.270147856522681
4.85092638008221 2.1597715747324995
4.495286623701784 2.096186578233869
4.233319958069076 2.0647281013765553
3.17198322611059 1.6162061790727866
2.966703912005994 1.5774244509605937
2.80752925991746 1.556238880990742
2.6067364653911604 1.5049999999999994
2.4086401149729353 1.4472569904972525
2.2982103405839145 1.4360812060719852
2.105063125543014 1.3670439778877181
1.9979805498576506 1.3476548973645
1.8922412223075709 1.324961567970917
1.828378407287381 1.3283946701809892
1.6851209261997875 1.2698296988508222
1.6233021524298472 1.268262639170856
1.5620633825285115 1.2649339860101727
1.4248426642012992 1.1955849540169632
1.3282888611920787 1.1546638910232927
1.270777651566344 1.1442133368736478
1.2140471446878232 1.1321172777037474
1.1941040685621604 1.1531328949619355
1.1737972567696688 1.1737972567696688
1.0836670579160357 1.1221700885282961
1.0298175236943727 1.1043440894449474
1.010387215601876 1.1221486864708652
0.9578461823261406 1.101875987125247
0.9256141579486168 1.1031039980913282
0.8873417513802707 1.095775805654329
0.8680826802091783 1.111095162585478
0.8184684314867855 1.0861442936643184
0.7993879431177635 1.1002631123499287
0.7227063098023179 1.0321315758041298
0.6766234131996036 1.0031354627916005
0.6590132323681829 1.014791387213963
0.6147063465105176 0.9837357915414541
0.5974441668956629 0.9943140688144501
0.6049999999999999 1.0478907385791707
0.562379159485751 1.014558860281699
0.5680605909709276 1.0683665873593016
0.5266289796978744 1.0335675680585066
0.5085105302753296 1.0426010937070338
0.4691062705321764 1.0060016436106816
0.43114084166034844 0.9683581851011569
0.4141749961986302 0.9757351446595869
0.3970829890208669 0.9828148858407946
0.3619516290407532 0.9429162307621738
0.32833933759264206 0.902104915954472
0.3288238360017281 0.95497376135531
0.32755801403744433 1.0081199072728628
0.29529542176996393 0.9658678035226659
0.27839372937516915 0.9708743128977021
0.26140723555354617 0.9755850845519589
0.23224501977568096 0.9314838972249566
0.2272005648873038 0.9841137654330876
0.19959522318504885 0.9390216967044535
0.18317663556148311 0.9423620961097574
0.1580198416769065 0.8961750552411094
0.14235536318661016 0.8987963899415754
0.12664752187365938 0.9011439425548291
0.11090110249868422 0.903216997993603
0.09512090157356486 0.9050149247851287
0.0793117259003689 0.9065371752634884
0.06208326163227166 0.8878320047312436
0.042392124556784434 0.8088899231512049
0.030013567164150927 0.8594761112364223
0.015009069536063704 0.8598690178344964
