# .PCD v0.7 - Point Cloud Data file format
VERSION 0.7
FIELDS x y
SIZE 4 4
TYPE F F
COUNT 1 1
WIDTH 180
HEIGHT 1
VIEWPOINT 0 0 0 1 0 0 0
POINTS 180
DATA ascii
8.082668874372532e-17 -1.32
0.023037176497214353 -1.3197989576064366
0.04606733564730143 -1.3191958916652065
0.06646666442853884 -1.2682595091383089
0.0920785453422456 -1.316784546342968
0.11504558042690875 -1.3149770014811042
0.13797757151330256 -1.3127689018861208
0.1608675332947947 -1.3101609201665452
0.18370849326728642 -1.307153850738873
0.20649349385310484 -1.303748609585582
0.22921559452034815 -1.2999462339761148
0.2518678738970393 -1.2957478821509165
0.2744434318794425 -1.2911548329686233
0.296935391733902 -1.2861684855165105
0.3314329969715447 -1.3293051449981153
0.3545820917904534 -1.3233183820160237
0.37762317746928886 -1.316928523435497
0.4005492354701494 -1.3101375156693587
0.423353282293678 -1.3029474273243604
0.4623067793291626 -1.3426363773510297
0.4754079992226796 -1.3061727428924124
0.4981314498679675 -1.2976767928311104
0.5319413626505952 -1.316601073484838
0.5548382024547687 -1.3071168919024652
0.5775660331676365 -1.297234549852493
0.6085702969066071 -1.3050832133327759
0.6531730087157254 -1.3392031289857587
0.6673660346171338 -1.3097795905569007
0.6995126285509774 -1.315591913359801
0.7466068151793591 -1.3469143489946696
0.7449999999999999 -1.2903778516388136
0.7931586353614836 -1.3200376430812528
0.8425716301307958 -1.3483964728887174
0.8659760656738931 -1.3334862030332242
0.9003005745879026 -1.334750491813617
0.9980229992508202 -1.4253245570628457
1.052135601603527 -1.448140419931156
1.1073396425997688 -1.469489338487019
1.1328171145992114 -1.4499397866363684
1.1894155390841925 -1.468805867153675
1.2148685823075593 -1.4478239974948683
1.2399515647920587 -1.4264011066210391
1.298113376336185 -1.441700961426145
1.357176736524372 -1.455393866222149
1.4171030757363545 -1.4674531926908483
1.4424978336205572 -1.442497833620557
1.5393871727247137 -1.4865689127822541
1.5650969214650252 -1.4594764905337467
1.6646444090693635 -1.4988525582438423
1.728284938710148 -1.5023751763882618
1.7542417747424597 -1.4719836261821748
1.8340644690384513 -1.4851961228776163
1.8203048408315279 -1.4221780080022703
1.868807093510665 -1.4082471541757928
1.9335506165561245 -1.404806752979011
1.99873098806514 -1.3995265046965524
2.0808843071131546 -1.4035741877115744
2.1889301823375567 -1.4215078813892204
2.2558079357760934 -1.409585242860325
2.3657817499378297 -1.4215050867517491
2.4335313846342723 -1.405
2.5888743331326114 -1.4350364759291576
2.7018196341483165 -1.436582982124826
2.8155806164352426 -1.434609979176968
2.975008293250243 -1.4510084958718463
3.181140332498641 -1.4833900987098547
3.297899102089789 -1.4683192815036386
3.5071234916537977 -1.4886855995441326
3.7180072568128173 -1.5021724395978067
3.9770526168780793 -1.5266474650629793
4.238013719744447 -1.542510846398766
4.500668419852748 -1.5497044152160657
4.859898798268235 -1.5790768412559812
5.125793491961871 -1.567112337313869
5.632993538198549 -1.615234905087615
6.094991963884021 -1.6331481745969054
6.656228682253336 -1.6595842038137198
7.317519186537116 -1.689382418122425
8.128406562097926 -1.7277461506955807
8.304565971967238 -1.6142441008855697
15.914493288677281 -2.8061545510975945
16.109196835106697 -2.5514461248061653
16.25029900804917 -2.2838305867546733
16.287682348434096 -1.9998759252784695
28.403545331717883 -2.9853329109241806
35.07601531981036 -3.068753702145041
36.9198455001161 -2.5816870932700726
36.95927908126678 -1.9369537405513537
36.98745450797673 -1.2916303729595626
31.50520087437789 -0.5499253268388042
27.01 0.0
16.40750067751638 0.28639398963582285
11.902744749797431 0.41565300572678715
12.143335142615618 0.6364052279141978
8.589026472737086 0.6006032389369197
8.527426615665343 0.746053157919955
8.015846476668283 0.8424994139372881
7.156257753333932 0.878677965951113
6.54567193438178 0.9199341973460324
5.985391344006534 0.947992858143799
5.4755311067478765 0.9654838678281328
5.163358984934712 1.0036553156806258
4.851612099639675 1.0312419864560867
4.540564501899197 1.0482719132424114
4.2304893665633445 1.0547794648145519
3.9699551460480706 1.063746275371361
3.662407061524995 1.0501783256627666
3.547890644622862 1.0846990245213532
3.3857611980107465 1.1001004999748127
3.2242183427936704 1.1101874066989044
3.063397943762061 1.11498566724168
2.9501141477311577 1.132442720563149
2.7908234022460294 1.1275658461818954
2.632643880873979 1.1174910274793233
2.5670627359757083 1.1429299670429989
2.4560941028693213 1.1452954893172953
2.3458524608408258 1.1441486931194924
2.2364263757128033 1.1395161543462624
2.1720510784329603 1.1549000444532918
2.1340720854201254 1.1829354734010624
2.0264994448555864 1.1699999999999995
1.962913118607837 1.1794371915440243
1.8996277353903945 1.1870191518823792
1.8366885438004783 1.1927594866829094
1.7741404052677894 1.1966728134273983
1.671070170349543 1.1700959301561344
1.6099438188061455 1.1696926520620214
1.5892846649941126 1.1976118960725766
1.5287408619970404 1.1943832621317771
1.5076631652265238 1.2208815586366843
1.4478239974948683 1.2148685823075593
1.3886656276099005 1.2071486133425333
1.3673864788784054 1.2312003157002993
1.3091231258983154 1.2207770645118723
1.2516512525892527 1.2087055645986553
1.2303657992645927 1.2303657992645927
1.1739726460757052 1.2156842625723208
1.1184773105024974 1.1994200706554394
1.0973741944285276 1.2187575137829263
1.0431338560949066 1.1999882325542075
1.0220322994015978 1.218010664559175
0.9691534022167496 1.1968047806437352
0.948118672001514 1.2135365605543518
0.9267951356541542 1.229898685472831
0.9051892885304087 1.2458861713374192
0.8546288901630584 1.220536545990598
0.8331974261714127 1.235265983107012
0.7842802104216391 1.2076856178414104
0.7630837404958151 1.2211892584652533
0.7159029241249754 1.191462547975936
0.6949999999999998 1.2037753112603697
0.6738853721424085 1.21572139292376
0.6666496191559647 1.2537855818596764
0.6310467946379701 1.2384990686218313
0.6005684711010358 1.231347843429859
0.5789870185847583 1.2416416682402105
0.5450271017215725 1.224150913241085
0.5235797121756268 1.2334765036262703
0.5132110329797998 1.2702418807564988
0.4909640908770613 1.2790051843011665
0.46856759635616635 1.2873788904766945
0.42974996388344666 1.2480845197910984
0.3986319227436822 1.226862906020748
0.38593065023401224 1.2623222778712069
0.3638413096784389 1.268865438638581
0.3416411395353277 1.2750220907015701
0.31933690219156136 1.2807903586843155
0.296935391733902 1.2861684855165105
0.2744434318794422 1.2911548329686235
0.24232742412821204 1.2466665229785332
0.2205331856370014 1.2507058463255043
0.19867177060109328 1.2543641925558249
0.17674983821928286 1.2576404473017944
0.1547740661245373 1.260533612584479
0.13797757151330287 1.3127689018861208
0.11068779328952584 1.2651672665765168
0.08859072165503933 1.2669063438299768
0.06646666442853856 1.2682595091383089
0.04536934571325141 1.2992080751248245
0.02216455617534989 1.269806572848617
