# .PCD v0.7 - Point Cloud Data file format
VERSION 0.7
FIELDS x y
SIZE 4 4
TYPE F F
COUNT 1 1
WIDTH 180
HEIGHT 1
VIEWPOINT 0 0 0 1 0 0 0
POINTS 180
DATA ascii
3.735172737399427e-17 -0.61
0.010645967926742994 -0.6099070940453987
0.02128869298852566 -0.6096284044816485
0.03192493330819582 -0.60916401620029
0.04255144898391652 -0.6085140706584927
0.053165003076071464 -0.6076787658359648
0.0637623625932686 -0.6066583561746467
0.07434029947713997 -0.6054531525012063
0.09185424663364321 -0.6535769253694365
0.09542502367454087 -0.602489887763034
0.11460779726017407 -0.6499731169880574
0.12593393694851965 -0.6478739410754583
0.13722171593972124 -0.6455774164843117
0.148467695866951 -0.6430842427582553
0.15966845109578068 -0.6403951793421577
0.1708205697676637 -0.6375110453507851
0.1957025226300694 -0.6824958041162064
0.2075839103531431 -0.6789763767337551
0.21940206600621268 -0.675250126569559
0.2311533896645813 -0.6713181886755148
0.24283430176122486 -0.6671817607579948
0.25444124417716324 -0.6628421028130133
0.28470101099609324 -0.7046597294707584
0.296955657651848 -0.6995836886238547
0.3091198487376083 -0.6942945478083766
0.3211898789229316 -0.688793918147854
0.33316207155969885 -0.6830834751873669
0.3450327798020556 -0.6771649583831596
0.38027196585657164 -0.7151875502157308
0.39269579239953306 -0.7084419627829106
0.4049999999999999 -0.7014805770653953
0.4429327444226467 -0.7371638786038165
0.429234604028896 -0.6869189578867051
0.3866937148606692 -0.595456103241251
0.3858431033948153 -0.5720359250629786
0.4072392698092427 -0.5815979514451841
0.4467167917422796 -0.61485291572496
0.45737941759555667 -0.6069629876359426
0.49868579501378335 -0.6382887104214447
0.5097495167503683 -0.6294882287801464
0.5527973443304238 -0.6587982210823211
0.6494984387006022 -0.7471624844205443
0.6958958306132126 -0.7728706184964901
0.7092782944649986 -0.7606078496839372
0.7919105423232567 -0.8200473723860622
0.8061017305526642 -0.806101730552664
0.8560143624029949 -0.8266434608462067
0.9068785900077715 -0.8456779664774982
0.921499583591969 -0.8297219518849841
0.973575358487376 -0.8463161473977544
1.0264995537794306 -0.8613353969799626
1.0802328864251896 -0.8747553435592739
1.1347354851936797 -0.8865525244689477
1.1500351344681017 -0.8666136333389495
1.2458861713374192 -0.9051892885304087
1.302451750419497 -0.9119865337981633
1.3844927461669196 -0.9338521487961471
3.8243377898311333 -2.4835539996685227
3.8670993184733025 -2.416431844903414
3.908682891201632 -2.3485736215898463
3.9490758412570397 -2.28
3.900803893841705 -2.1622509062986635
3.9379462641508143 -2.093843170025073
3.9738890978801207 -2.0247976288383787
3.8738023395494094 -1.8893796426609235
3.8608711727761285 -1.8003537950153794
3.89170364955748 -1.7326980995029087
3.9213506757073957 -1.6645146073643058
3.9405313819088468 -1.5920780220176256
3.986388421143051 -1.5302311445584322
4.2849983507837415 -1.5596118535650494
4.926151778872441 -1.6962100847217865
5.76340248874863 -1.8726429859121811
5.776080726016735 -1.7659250965253297
6.594255234136868 -1.890872260904614
17.444620422780574 -4.674271954551523
17.523540816544497 -4.369109434529997
24.515150829996518 -5.65976852729164
23.63204603372874 -5.023146450157067
23.667031392923178 -4.600404878528496
23.743714925124333 -4.186657563549691
6.874310850542159 -1.0887838766800069
8.922315299361548 -1.2539496396501892
8.942840826288311 -1.0980427840803784
9.010368372036556 -0.9470278772049397
9.025523964711216 -0.7896310292937821
9.087808497866998 -0.6354814758089803
5.402585783022245 -0.2831375232743265
4.80706987796185 -0.1678665791390299
4.459320720397505 -0.07783773271028457
4.11 0.0
3.809419718545851 0.06649366852605028
3.6078008855389356 0.12598718309602866
3.205600806562182 0.16799841953984992
3.052545993795062 0.21345480965702374
2.9487363063515666 0.25798099853306855
2.8443326207532613 0.29895140494548933
2.640172763365917 0.3241724534576922
2.53508625597842 0.35628313845776743
2.429713317864039 0.3848287839989679
2.22566552180759 0.3924448815272626
2.1693960754193373 0.42168787978216415
2.1617061976217102 0.45948483670724827
2.0559208366968464 0.4746467246655553
1.9502944098147528 0.4862630101553323
1.8932146195265735 0.507285328400941
1.836009839242189 0.5264673496104683
1.8265420838893978 0.5584299560204271
1.6738594686794703 0.5438699100999074
1.6641126930547976 0.5729999518445958
1.6068743815439033 0.5848544450868935
1.5497435079853548 0.5948907962451985
1.539125198580867 0.621846945070414
1.482012814058429 0.6290771168677309
1.3337763681581973 0.5938354988906684
1.3050832133327759 0.6085702969066071
1.2672996052818253 0.6181033169725993
1.300869525315017 0.6628261296197383
1.4656930041458185 0.779322794224579
1.4955996992083667 0.8290244506212363
1.48090344047139 0.8549999999999996
1.5086144492357174 0.9064670118416955
1.5349670540431313 0.9591538682621009
1.5179937279812175 0.9857966533771992
1.5420098849523778 1.0400988004555891
1.5236228023775247 1.0668521716129462
1.5452224592561496 1.1226698318786237
1.525393824190329 1.1494666942204126
3.0417215089219463 2.376453294757041
2.805496920859665 2.2718466116899125
2.7271182175035618 2.2883238904840804
2.6490306265819297 2.30276719175668
2.645595578699523 2.3821049586375356
2.53048380760233 2.3597143258162445
2.4529487191548 2.368785043265181
2.4112341238461275 2.411234123846127
2.33405212474223 2.416981729137868
2.2915144898099946 2.457348437440413
2.2148223070478212 2.4598093723301746
2.1387524345090534 2.4603532315262364
2.0954876075781184 2.497304884567868
2.020118455269978 2.4946385362768764
1.9762733357953635 2.529514519077577
1.8716447220028698 2.4837564362470808
1.8280121346295914 2.5160428525060863
1.7838227170517529 2.5475628577387646
1.7111302846204852 2.536854972018428
1.6665954471459832 2.5663319379129974
1.621552948553607 2.5950271742386635
2.1425583916258257 3.565815970920787
2.0949999999999998 3.6286464418567985
2.0168080202247625 3.6384179816998863
1.9764752793285996 3.7172093659360828
2.0474971538253564 4.018439424089539
2.1085652160554615 4.323199362698993
2.3074957091042188 4.948440517220108
2.7292028750386206 6.129890020781851
2.602269315738563 6.130562323993253
0.8203884395808476 2.030532641501264
0.7848258095042073 2.0445411340288717
0.7319231067169313 2.010942208481844
0.696715850538315 2.023409751782538
0.6612963679623876 2.0352609448716286
0.6256754481066562 2.046492177760896
0.5898639414483783 2.0571000293080024
0.5538727565193949 2.067081268258606
0.5298089513632722 2.1249476405444323
0.48139525629587143 2.0851519386404034
0.44493101835000476 2.0932358655703442
0.4083312501058061 2.100682172578001
0.3716071002072307 2.1074885914461254
0.3347697551860942 2.1136530488735947
0.2978304360545396 2.1191736671069608
0.2608003948870156 2.124048764512429
0.22891733455616156 2.1780029508565186
0.16646746864802703 1.9027318733552339
0.11928357010245452 1.7058345259442993
0.07902729392684506 1.5079305974794064
0.04746331551540147 1.3591715247459704
0.020768363660367217 1.1898187572361056
