# .PCD v0.7 - Point Cloud Data file format
VERSION 0.7
FIELDS x y
SIZE 4 4
TYPE F F
COUNT 1 1
WIDTH 180
HEIGHT 1
VIEWPOINT 0 0 0 1 0 0 0
POINTS 180
DATA ascii
8.63375993398884e-17 -1.41
0.025480513398434053 -1.4597776349283311
0.050953265185651575 -1.4591106074478797
0.07902729392684539 -1.5079305974794064
0.11230792272804199 -1.606078120918317
0.1673390260755036 -1.9126938203361514
0.1682908258609221 -1.60118025154292
0.1596488398607432 -1.300235458650132
0.18370849326728642 -1.307153850738873
0.19867177060109328 -1.2543641925558249
0.22921559452034815 -1.2999462339761148
0.2518678738970393 -1.2957478821509165
0.2744434318794425 -1.2911548329686233
0.296935391733902 -1.2861684855165105
0.31933690219156136 -1.2807903586843155
0.3416411395353274 -1.2750220907015701
0.35557218900392895 -1.2400275877604314
0.3917780843284673 -1.2814483729904675
0.4202631123499286 -1.293436862161409
0.45253973469544784 -1.3142708200830502
0.4754079992226796 -1.3061727428924124
0.48021305239070255 -1.2509977715062504
0.5019728351773224 -1.2424263651194951
0.5548382024547687 -1.3071168919024652
0.5572292010138465 -1.2515572769703631
0.6001179316717932 -1.2869570575920428
0.62248702844049 -1.276287545744817
0.6446665096301565 -1.2652292643474823
0.6901231972952595 -1.2979329615026225
0.7126701417621155 -1.2856909694949117
0.7349999999999999 -1.273057343563125
0.7828578738632825 -1.3028942970672106
0.7895797037074753 -1.2635916632730746
0.8278513332228412 -1.2747792632770445
0.8499732132755353 -1.2601371102836634
0.883307711980611 -1.2614941482050475
0.9228228460991829 -1.2701566811686675
0.9568858868117568 -1.2698304609751956
0.9789017457677969 -1.252937098234688
1.0320854413217333 -1.2745193767894323
1.0541716798859244 -1.2563128867151239
1.0759368075444318 -1.237723711565346
1.1308307247464704 -1.2559147550567962
1.1866771465087476 -1.2725554408173565
1.2434384831216052 -1.2876182426061855
1.2657211383239202 -1.26572113832392
1.3235852326231183 -1.278171401644555
1.345690810979274 -1.2548769825149972
1.4045437201522752 -1.2646568460182417
1.4641365856321777 -1.272754516241584
1.4861262196508174 -1.2470079627918862
1.546520463299372 -1.2523475781891764
1.6469424750380488 -1.2867324834306255
1.669148215998842 -1.2577933983877807
1.7717472176811349 -1.287249702520516
1.8349005792073418 -1.2848112174263433
1.9399479197787974 -1.3085113941215474
1.9792625403512007 -1.2853481226354635
6.580853226173866 -4.11217349044967
6.608759888413286 -3.9709435575565166
6.720357133367243 -3.88
6.96197286882959 -3.859084577160843
7.160704978085898 -3.807414374193574
7.270613237377082 -3.704562477874702
7.424038822431119 -3.620945672477779
7.622048488978226 -3.554219581239282
7.774271844538534 -3.461328832575059
7.87952154555289 -3.3446584598681826
8.029412180548379 -3.2440930989817973
8.131485514790628 -3.1213848405395663
8.278691989123853 -3.013197462699142
8.424570508589913 -2.9008122562132663
8.521466386004576 -2.768792269599529
8.61630585122695 -2.634269059551858
8.709030965201169 -2.497274443702012
8.847880568807867 -2.3707824531390895
8.936423639001928 -2.228100658472939
9.022666799911278 -2.0830467632241887
9.05764678279504 -1.925262256972452
9.040786359552985 -1.7573508474179784
8.971598629941214 -1.5819348985457355
8.997840782821704 -1.4251179765165032
9.367935930295257 -1.3165775350822189
11.027187744735087 -1.353968405231188
3.1924152841321574 -0.3355363670891674
3.147975245969916 -0.27541214708259953
3.202180601334036 -0.2239182807186418
19.233604839373093 -1.0079905172390997
3.1081054720293877 -0.10853743474477816
3.0595339471785574 -0.05340436369808762
3.16 0.0
20.356899073384124 0.3553309950630928
28.842419267771103 1.0071994748341793
25.574902385064636 1.3403238393817933
13.67660312906219 0.9563612550319592
10.42019654203966 0.9116490691405058
9.010368372036556 0.9470278772049417
9.042095441452444 1.1102297184208931
9.021342106235705 1.2678669497461958
9.047225199851463 1.4329396997685149
9.119319792893046 1.607982125195775
8.991705000380602 1.747810397649151
8.910924642684968 1.894075503349788
8.827792786954232 2.038056552355418
8.693849707432928 2.167620184573024
8.606399112235598 2.3060776918634613
8.46871554121659 2.4283651047477623
2.209063986274612 0.6753786379095218
1.7499439899830826 0.5685912696499033
1.739754179102743 0.5990454042011684
1.7290344222460714 0.6293170637192306
1.7364595932847953 0.6665643861542586
2.0490763185925998 0.8278805714491658
2.034315726129893 0.8635157939612953
7.454530934363623 3.3189710074985306
7.304840763515399 3.4063031896300373
7.109460906226411 3.4675157711016036
1.969124418456293 1.0033190044243985
1.9071668005752822 1.0140585756175247
1.8017165967071553 0.9987078177074543
1.766691823720255 1.0199999999999996
1.6629045633620976 0.9991738653255052
1.602810901735645 1.0015474094007573
1.54315384501958 1.0021358244276501
1.4839772548735248 1.0009552972126368
1.4253245570628454 0.9980229992508205
1.3672387204936611 0.9933570763742796
1.30976223647756 0.9869766379693594
1.33173817359536 1.0404678933003624
1.1968047806437354 0.9691534022167494
1.1797084424032263 0.9898929189172706
1.162252753543069 1.010330904645381
1.1072857899613173 0.9970046034746989
1.0531493303316055 0.9820776384899977
1.0358493124876573 1.000308053460956
0.9828784258493011 0.9828784258493009
0.965575134938006 0.9998823224707253
0.9138778024837481 0.9800139601696884
0.8966350125208702 0.9958140661397082
0.8791190988472798 1.0113108374985145
0.8291960164956359 0.9881973316234817
0.7803572849017983 0.9636609922066439
0.7634202294038164 0.9771333344723352
0.7763413798661422 1.030239807961008
0.7288537128426666 1.0031810730249349
0.7112347810752969 1.01574853491835
0.6654395551301887 0.9865547113404997
0.6481204516678823 0.9980179758550545
0.6306039244375138 1.009177234426147
0.6128953091429645 1.0200290878355136
0.5699999999999998 0.98726896031426
0.5526829670808243 0.997066466138911
0.5351975815759152 1.0065602558591766
0.5175491697030834 1.0157474375747393
0.4778245500000942 0.9796855104660921
0.4902371836192113 1.0513170329625139
0.4840166052602024 1.087119094594695
0.445433486477772 1.049375532935782
0.42705151649413986 1.0569895942061374
0.3906210650043772 1.01760266488195
0.3557009490586956 0.9772803256173447
0.3385908806354428 0.9833393186232896
0.3368285238686927 1.0366516027617174
0.304066572911646 0.994556946201557
0.2866628500496791 0.9997121637758517
0.2691718069066218 1.004562859340631
0.2636948662036378 1.0576223416408361
0.23394909651761975 1.0133448673766448
0.2162281584504696 1.017273504763158
0.18890090542277946 0.9718109116131873
0.17538465944359952 0.9946558305423302
0.17364225619465634 1.096334058060603
0.18231676225768548 1.2972511700514573
0.18402270854177272 1.4987446889783962
0.11602659422709559 1.1039193038587833
0.08802730017513472 1.0061566450726631
0.0690589090066842 0.987588409757226
0.05704619230480869 1.0885061928824855
0.056537184658051756 1.6190131397709353
0.016405262051046372 0.9398568334470078
