# .PCD v0.7 - Point Cloud Data file format
VERSION 0.7
FIELDS x y
SIZE 4 4
TYPE F F
COUNT 1 1
WIDTH 177
HEIGHT 1
VIEWPOINT 0 0 0 1 0 0 0
POINTS 177
DATA ascii
1.2185235651516163e-16 -1.99
0.03560290913205854 -2.0396892981190384
0.0711949732731022 -2.038757287118955
0.10938214854775288 -2.087135727637059
0.15276667749963474 -2.184665270069015
0.19522886375475426 -2.23147612372551
0.23937018088292641 -2.277455140393346
0.29126773073830253 -2.3721853024227597
0.34654102139056303 -2.4657674911665106
0.4004722305029912 -2.5284821519235527
0.46190415259403494 -2.6195886230124734
0.5170923774704367 -2.660209667143169
0.5842318511979041 -2.748594758061994
0.6546075681406476 -2.835416888525035
0.7402810005349831 -2.9691049224045494
0.8308091347790916 -3.100621902387909
0.9261415155451171 -3.2298392983527515
1.0116060983406692 -3.3088144556321026
1.1310021994123076 -3.480866849640262
1.272971483927483 -3.6969776305933286
1.405702789068499 -3.8621366714300835
1.5445658625402445 -4.023731638202939
1.7643970549889463 -4.367035955009568
1.9575629537312613 -4.611729315796726
2.20044523904008 -4.94228092584647
2.4554121007134637 -5.265648242682936
3.0072260669730717 -6.165727157612285
3.1824734031742232 -6.245955734560459
4.206465202561582 -7.911210432015985
4.343894197407181 -7.836592575968987
4.454999999999999 -7.716286347719349
5.464553974795676 -9.094545060449411
7.4241688919072 -11.881153827151527
7.603160928809778 -11.707841128518119
11.273328933970257 -16.71339746270964
11.620658600472193 -16.596020417294977
11.879139948830883 -16.35023345631769
12.048336763504006 -15.988682911146801
4.223437720734017 -5.4057537697421125
4.348603902154377 -5.370078593667669
4.40952300244966 -5.25506487979619
4.5333678903244055 -5.2150431993393545
4.62369248993971 -5.135130744048794
4.712608668031866 -5.053654078188467
3.4107725989536766 -3.531958419662777
3.0829855659733476 -3.082985565973347
3.064387549442654 -2.959244658155328
3.1155667688976663 -2.9053130138662433
1.9894936613298455 -1.6110602010875839
1.8991059161922001 -1.4837441555348363
1.8049162527068816 -1.3601019523236288
1.7474767078498865 -1.269616144951742
1.6464956090208733 -1.1528886370656024
1.5834617635801296 -1.0680584456291264
1.5179937279812177 -0.9857966533771989
1.4501622444274886 -0.9061619418387804
1.4228977191655063 -0.8549632043506896
1.3769803920172574 -0.795
1.3469143489946696 -0.7466068151793591
1.3155919133598013 -0.6995126285509773
1.3275997210406683 -0.6764458446119247
1.3841428313007174 -0.6750915660551792
1.395713992036441 -0.6508321230806771
1.4068600047696056 -0.6263744303367322
1.4175774743167582 -0.6017259378734815
1.474222328761192 -0.5956244835312999
1.4843928781305509 -0.5698050397770276
1.5410958980888896 -0.5609130350540967
1.5506504639828795 -0.533931773309737
1.5597326867240517 -0.5067878707749137
1.61615503757753 -0.494108180981425
1.6245322661357589 -0.46582713133072845
1.6807109377429788 -0.450345138478386
1.688314563720234 -0.42094409834342167
1.6954039127263094 -0.3914148345583249
1.750884205313512 -0.3721619265637893
1.806194017543702 -0.35108855149284257
1.8120462655424627 -0.31951264690715186
1.8667309637248104 -0.29566113892603635
1.9211200533586466 -0.2699958158625269
1.9255395341841648 -0.236426526205986
1.9790985717828637 -0.20801164190263025
2.032237184107161 -0.17779771520522247
2.0849088650430327 -0.1457910301252216
2.087135727637059 -0.10938214854775276
2.138696369820865 -0.07468492294335219
2.1896664523924967 -0.038220770097650944
2.24 0.0
2.2096634062956246 0.038569818226396616
2.2086537277122016 0.07712788771252725
2.1570397950698794 0.11304566548475883
2.1547383485612204 0.15067398328731088
2.1517805478781704 0.18825640433494192
2.0984411992270564 0.2205550574947491
2.0942723799631895 0.2571443145848611
2.039952221607635 0.28669658797773473
2.0346379816259836 0.3222549979828756
2.077944358855759 0.36639765487722303
2.1693960754193373 0.42168787978216415
2.259520957695091 0.48027600578902424
2.299513352893155 0.5308844882515216
3.3572232129149477 0.8370497587748508
3.486992232903536 0.9343367528201004
3.6143439767280787 1.0363964578719165
7.4209249062731555 2.268804428648437
7.2850929148208765 2.367070176912097
7.242672289090767 2.49385206314182
7.151060844180763 2.6027732907083396
7.104547045643706 2.7271800960397354
7.0558691332532515 2.8507561758950914
7.373243876154047 3.129756339199084
7.545885480127883 3.3596446718061106
7.440786931570897 3.4696959288911424
4.862475790478493 2.37158790412891
4.82034529585907 2.456088603590948
5.218220273796258 2.7745769360646158
5.1690024691938286 2.865224855655852
6.330645701664246 3.6549999999999985
4.50870000169311 2.7091002740268855
4.41833058097498 2.7608793666549976
5.040410113351998 3.273280600440313
4.692352660661537 3.1650318336444268
6.069916648181429 4.250201393361253
6.520676974662077 4.737549133477334
5.997752680455168 4.519630823871884
5.83915968422581 4.562051532163128
3.7769293726808795 3.0584971005022092
5.791295989979473 4.859474329230237
6.082959216595543 5.287835773663488
5.989747293347797 5.393192687252399
5.931278520131473 5.531006700106862
5.833845780746459 5.633679384422468
5.557859300126264 5.557859300126263
5.147418525101169 5.330307920509406
5.019507930059989 5.382763243917095
4.958257793119141 5.5067031567874904
4.8942003562691845 5.630133468461879
4.827334948745912 5.752993767823525
4.75766215633677 5.8752234686147
5.116146859956221 6.54836936247186
5.031173593551122 6.676592863995369
4.796327658706581 6.601578674099572
4.4222743242665645 6.315662261468128
4.28341764058592 6.35042780577162
4.090239152962854 6.2984159652701335
4.006189637603029 6.4112436069425796
3.8679359425745075 6.437326428272862
3.954999999999999 6.85026094393491
4.27117275437023 7.705399619898077
4.159518046282991 7.822915672730093
4.045055352679363 7.938868130518358
3.9278054752301323 8.053194654840537
3.828921451370737 8.211148550552048
3.7053708184205414 8.322399119124093
3.6181702498106745 8.523874942969597
3.3564750770065737 8.307567336918416
1.4908106701084487 3.8836945742283593
1.371500774735932 3.7681674093514923
1.2566930762046242 3.649701701813363
0.9610428525060866 2.957785765677927
0.8069459050347528 2.6394011264579778
0.7469772342640677 2.605019195992844
0.7143405644829578 2.665955280557828
0.6677044318550828 2.67801620452175
0.5983698045546814 2.591824372328726
0.5634406821161275 2.6507799979886135
0.4980114779327822 2.562046948798403
0.45322174371068785 2.570348235361863
0.47086773977109503 2.9729419051913646
0.41891103388979634 2.9807068869121265
0.3704828039516484 3.017340300989619
0.3125401051702845 2.9736204671511373
0.2562378836781149 2.928812412389732
0.19810838543331627 2.8330819027379004
0.14863411572996021 2.8361078787029896
0.09736959579997802 2.7883004073832773
0.032112427844601416 1.83971975908776
