# .PCD v0.7 - Point Cloud Data file format
VERSION 0.7
FIELDS x y
SIZE 4 4
TYPE F F
COUNT 1 1
WIDTH 179
HEIGHT 1
VIEWPOINT 0 0 0 1 0 0 0
POINTS 179
DATA ascii
2.2104874724609725e-16 -3.61
0.0635267594317123 -3.6394456103692643
0.12703416799710393 -3.637782610349509
0.19050288072431604 -3.635011506506649
0.2539135644286167 -3.6311331429457603
0.3172469036014756 -3.6261487010539537
0.3804836062942586 -3.6200596991405147
0.4436044099947369 -3.612867991974412
0.5065900874946383 -3.6045757702193164
0.5772431759984521 -3.6445699767960584
0.6320793667076268 -3.584700220964437
0.6945447431706235 -3.573122947749497
0.7567985545766445 -3.5604572666710523
0.8300693905288624 -3.595425539057518
0.8805956999827904 -3.5318764436446273
0.9421013241731755 -3.515970007692209
1.003319975173877 -3.4989925732154807
1.0642330051907618 -3.4809493117054493
1.140272709243556 -3.5093985451291165
1.2013464899469084 -3.4889635439614786
1.2449533217054345 -3.420481139660706
1.3223777338221583 -3.4449117737746744
1.382298329704716 -3.4213084233514452
1.4417978641254199 -3.396662909239505
1.5008582129497035 -3.370982738701197
1.5045210117968901 -3.2264557218504737
1.5518338596333343 -3.181730923899051
1.5844268440910187 -3.1096127694174043
1.6384557541227591 -3.081487099077655
1.6774412860523265 -3.0261841867023094
1.7449999999999997 -3.022428659207691
1.7717309776905867 -2.948655514415266
1.8070246910352288 -2.8918440078934124
1.9389149646534964 -2.985667221885709
2.074605671876471 -3.0757293941792043
2.3573991534027994 -3.3667149020277565
2.650911487839054 -3.648666644631013
3.0150932659917618 -4.001163905336937
3.330728581511812 -4.263138177012365
3.8136815697620143 -4.709504526429243
3.8310141537317746 -4.565624880989109
3.877308861333898 -4.460333619116582
3.7872792319911377 -4.206199712202052
13.101188496800598 -14.049304608104263
14.004312748453385 -14.501890374827205
16.836212460051698 -16.836212460051694
15.508966095301318 -14.97683446709598
15.47544432626165 -14.431085298922468
17.818693189059648 -15.489553674465876
16.40101152717732 -13.762082723388806
16.75526692901229 -13.568147631034494
15.728694641990172 -12.288603047500137
15.421651699013223 -11.621048097066051
13.55912482572412 -9.851280828421851
11.96781136706217 -8.379951735088783
10.744326940313341 -7.247140028980879
9.820832350640917 -6.377723100025967
9.040192705027502 -5.648939356725965
9.0088283303792 -5.413050167304668
8.928721913017563 -5.155
8.9735981952502 -4.974146703727418
4.997483375581527 -2.657209045368142
4.597593664811979 -2.3425909786560615
4.368139065013952 -2.1304837733949165
4.178078898238956 -1.9482701866246244
3.9830581953217408 -1.7733717638104889
3.7372497050169073 -1.5863683816664509
3.5789296786277993 -1.4459814505854198
3.650299467604059 -1.4012186827221242
3.4392749920764247 -1.2517937245719477
3.4133220579135335 -1.1753010375903357
3.480866849640262 -1.1310021994123076
3.50007540682471 -1.0700804392852163
3.566280891931163 -1.0226145900810666
3.5835848155324435 -0.9602186573303517
3.6483119307977465 -0.9096263274547502
3.7123499468317465 -0.8570635170501252
3.853901546891194 -0.819172061821972
3.867611102783796 -0.7517874417835867
3.8801425468680995 -0.6841738200077057
3.8618614117269887 -0.6116587583073028
3.8719481487795404 -0.5441668247538558
3.8808554529175696 -0.4765091327141265
3.9184162677509966 -0.4118421452745543
3.925007110481477 -0.3433936264257728
3.9304023580237075 -0.2748405065518532
3.9845318436707498 -0.20882046540934618
3.9875693998061923 -0.13924899184297906
3.9893923036740015 -0.06963510168476131
3.99 0.0
3.959396872819309 0.0691115294916428
3.9875693998061923 0.13924899184297906
3.9046414808903838 0.20463358890991068
3.950353639028904 0.27623563602673656
3.974816845386065 0.3477514135631566
3.9681423625194108 0.41706856843793794
3.9801100680817014 0.4886960670546412
4.000682997715944 0.5622593278786643
3.9606302457865024 0.6273022048113257
3.949079089578954 0.6963291924443907
3.9363250056251324 0.7651440714599449
3.97127925897925 0.8441214647201031
3.955942463028055 0.9133012806360922
3.8908858623667455 0.970106801354668
3.9216588547336166 1.0508053231162349
3.902722485509574 1.1190876646170163
3.882597309209924 1.187029121174311
3.861289456158323 1.2546089971622862
3.8860813457131926 1.3380851148189141
3.8151520403907875 1.3886017819022152
3.790336531578639 1.4549738751539192
3.810725642269496 1.539633098939399
3.737249705016907 1.5863683816664518
3.708994558028959 1.651350770887749
3.6796096153687983 1.7158301426672393
3.6940435302895764 1.801705413303109
3.662036814414192 1.8659009539295375
3.6289146066501896 1.929528123050012
3.594686996342917 1.9925675392124456
3.5593644095540435 2.0549999999999993
3.5229576058856815 2.116806487880323
3.4854776752029113 2.177968175998472
3.4469360342556925 2.238466433911762
3.4073444232012218 2.2982828332647696
3.6124605153144533 2.529472084308114
4.61948703788095 3.3562537905900216
4.999458292896052 3.7673620449318235
5.484554845102784 4.285003868266582
5.875223468614701 4.75766215633677
6.7871537660341446 5.695098221822739
7.743320293085641 6.731165637442603
9.073798319078984 8.170084703641662
11.160457486708543 10.407294974553727
14.897527265013462 14.386374852205837
15.068445507085327 15.068445507085325
14.76843695595828 15.293164155199728
14.533385052931841 15.585147381504521
14.25917322150727 15.836416230923268
13.91501200488866 16.007390196524995
13.76208272338881 16.40101152717732
13.347885494167052 16.48326584250235
10.072221736327771 12.89185592900597
8.190702465099376 10.869429291743657
7.059300880032602 9.716294102443118
5.913573058779284 8.445457576619507
5.150166640965579 7.635436043231935
4.553182332725627 7.011285948023744
4.05918156402635 6.496048416558223
3.61041690511948 6.008742777921807
3.229999999999999 5.594524108447474
2.9137058176804858 5.256464439907768
2.657209045368141 4.997483375581527
2.1836943037472203 4.28574138134605
1.9551353146792845 4.008621446494285
1.8003537950153796 3.8608711727761285
1.7245633666413938 3.8734327404046276
1.664514607364306 3.9213506757073957
1.5770937582809903 3.9034440277261746
1.5266474650629787 3.9770526168780793
1.4399048034010657 3.956105933508674
1.3869203379874868 4.0279091320530895
1.3009615463185287 4.003947933602596
1.2308848768827207 4.026043022604379
1.1604332679895664 4.046911739900323
1.1025691321367392 4.1148440199914305
1.0184911804746009 4.084945007621945
0.9470439387876722 4.10209797274584
0.8857038028836542 4.166908779126012
0.803305870535254 4.132650442314666
0.7449506821911307 4.224825260422373
0.6664108210713837 4.207552330935287
0.5900939480706766 4.198736611464258
0.3851071251602661 3.1364458391865777
0.31985709759902026 3.043236999826916
0.26669657280783393 3.0483557761607414
0.20299133859540508 2.9029113862560885
0.1496808348548191 2.8560804693980812
0.10155753540427814 2.9082273066255686
0.07399820329408152 4.2393542274630995
