# .PCD v0.7 - Point Cloud Data file format
VERSION 0.7
FIELDS x y
SIZE 4 4
TYPE F F
COUNT 1 1
WIDTH 180
HEIGHT 1
VIEWPOINT 0 0 0 1 0 0 0
POINTS 180
DATA ascii
6.858022075225179e-17 -1.12
0.01954669520975763 -1.1198294185751583
0.04083241114192626 -1.169287267612342
0.06123306880424444 -1.1683965556628513
0.07812725059342052 -1.1172717362910032
0.09761443187737713 -1.115738061862755
0.12229830202315453 -1.1635906175808797
0.14258713178402255 -1.1612789974203466
0.15587387307527334 -1.109100236990559
0.17833529014586325 -1.125964708278457
0.20316836787030856 -1.1522250710242834
0.22324652459055755 -1.1485038046337668
0.23701932753224575 -1.1150882648365383
0.25644420195200623 -1.110781873855168
0.2757909609836211 -1.106137127954636
0.30281828276994927 -1.1301332167582099
0.314226585631379 -1.0958383333696835
0.3566934797617389 -1.166691802274903
0.35227937358744005 -1.084204428576475
0.38742610380401654 -1.1251671049631868
0.4070039705575459 -1.1182342187352308
0.4443762574361725 -1.15763972885653
0.4757503736382085 -1.17752349529982
0.4845065993266994 -1.141426018281026
0.5043534374139924 -1.1327963674768249
0.5367251924106883 -1.1510108895365454
0.5567313564221283 -1.141468438799942
0.5992674596562019 -1.1761286119286456
0.6056183159937992 -1.1390023947880157
0.6496448911300917 -1.1719904075667904
0.5549999999999999 -0.9612881982007271
0.5613915016519592 -0.9343123577653024
0.5776119980141934 -0.9243724248105044
0.5936565481663796 -0.9141509190605122
0.6374799099566514 -0.9451028327127474
0.6538771374401925 -0.9338333304894506
0.6818308926592688 -0.938459713474939
0.6379239245411712 -0.8465536406501304
0.6710710081049677 -0.8589317214313269
0.6859592262443228 -0.8470890979880984
0.7006384945583279 -0.8349884429996861
0.715104341599653 -0.8226334424428215
0.7427349730583327 -0.8248907562799077
0.982077638489998 -1.0531493303316053
1.1392397275527555 -1.1797172725553877
1.159655121145938 -1.1596551211459378
1.179717272555388 -1.1392397275527555
1.2725554408173567 -1.1866771465087473
1.2930719963306663 -1.1642872550644132
1.350930148598762 -1.1743456618930082
1.4095217753389195 -1.1827292018232323
1.468805867153675 -1.1894155390841925
1.5287408619970406 -1.194383262131777
1.5892846649941128 -1.1976118960725761
1.650394668524893 -1.1990819146766452
1.7120277725639927 -1.1987747519736862
1.8155922838955414 -1.2246324586009354
1.87862207219775 -1.2199914384336605
1.9420301401982156 -1.2135151150940393
1.9800564646218795 -1.189737953042225
2.087121223120497 -1.205
2.1952954649198833 -1.216872146818306
2.304493217361799 -1.2253207788711749
2.414627680550477 -1.2303142542941718
2.5256112701006592 -1.2318229224773076
2.6373556602766515 -1.2298191416654354
2.795449100386359 -1.2446141278119485
2.9087953369097117 -1.2347103660261047
3.0689785586160663 -1.2399478242066684
3.323546318330038 -1.2757899003812692
3.48625962311572 -1.268894731738231
3.744253559373295 -1.2892498916503405
4.003947933602596 -1.3009615463185285
4.265119211595138 -1.3039778030634057
4.623668757463314 -1.3258156814797657
4.984177263651593 -1.3355062727290068
5.346329451780741 -1.3329896447541685
6.29443061851262 -1.453183811061367
6.612277780960525 -1.4054830299280534
7.421101506864339 -1.442516005046679
8.38071397813389 -1.4777459919455773
9.689222621238303 -1.5346221020446649
11.447498874652554 -1.6088410470983563
12.813770817689468 -1.5733332233604533
20.696000642613765 -2.1752373205998667
20.780621402193812 -1.8180687937161473
41.35900552377232 -2.89210340143143
41.403180510924635 -2.1698487458324545
41.43474368821171 -1.4469331332856923
41.5036778259418 -0.7244493912116395
31.51 0.0
20.856822920962323 0.36405719828173455
20.79732311026738 0.7262585263790461
12.992170247157006 0.6808907907207001
12.379769863724418 0.8656778391645962
10.868484156180944 0.950869153376952
9.60708150925752 1.009744955165534
8.645076980795917 1.0614819810588343
7.833020423745822 1.1008592285941174
7.121232935690943 1.1278924929400647
6.5588196350613055 1.1564968632617563
6.095904809209993 1.1849238612883435
5.6830375602634104 1.207966923651182
5.320060553727385 1.2282327567175033
5.006725947584142 1.248316981294286
4.6943995157648715 1.2578605591982517
4.43141641827565 1.270688210316366
4.1694887359988355 1.2747406325911321
3.9563951077878388 1.2855106965997811
3.744253559373295 1.2892498916503405
3.5802288851943107 1.303096746070798
3.4169043609797587 1.3116266953357993
3.254415329529423 1.3148691428898516
3.1389215502728214 1.332393148148424
2.9781581919148787 1.325961456427109
2.818617217683981 1.314342794013575
2.3009127585258673 1.1222301357800386
2.2364263757128033 1.1395161543462624
2.260345837718853 1.201847200731881
2.0641025088489737 1.1441507037813554
2.0438199529312753 1.1799999999999995
2.0229148296569845 1.215489856787728
2.1964445690451435 1.3724908943640006
2.1302232425813767 1.3833831489381692
2.0228516770343017 1.3644306844686223
1.9577733858506903 1.3708476828790006
1.893099766837377 1.375417490364387
1.8288753180083004 1.378156403018191
1.8045446257593931 1.4098647784957574
1.7019496555907665 1.3782116563991436
1.6776373304305618 1.4077048652135211
1.5773430226655933 1.3711633705901598
1.5531726852477536 1.3984829672900139
1.491961551303108 1.3912766545274968
1.467453192690848 1.4171030757363547
1.3717871555019023 1.3717871555019021
1.3476372386904545 1.3955192126569835
1.323076818521247 1.4188261811411906
1.2981133763361852 1.4417009614261447
1.2071486133425335 1.3886656276099005
1.1827292018232327 1.4095217753389195
1.126483499979209 1.391091271007978
1.1020340408329286 1.4105392489560322
1.0471581402845638 1.3896257874822897
1.0227463389889033 1.4076895702124086
0.9980229992508199 1.4253245570628459
0.9450360068655621 1.4010734976180206
0.920439969175396 1.4173532598277665
0.869067593342456 1.3907988776965385
0.8446624428524889 1.405754373151464
0.7949999999999998 1.3769803920172576
0.770847296191676 1.3906453343516394
0.7464597848295662 1.403886672645694
0.7218448945858795 1.416700373459505
0.6970101233946329 1.4290825336156756
0.6846415840199331 1.468218614999373
0.6263744303367326 1.4068600047696052
0.6017259378734815 1.4175774743167582
0.5881323516629822 1.455678651669856
0.5518866422997623 1.4377138568056906
0.5096100135552466 1.4001420049710034
0.4850965501411632 1.4088226776429822
0.4697058314499201 1.4456059047686334
0.4444049911785596 1.453583229063814
0.40518691305098875 1.4130546930293288
0.39340494855583186 1.4682072559593837
0.3556251865315115 1.4263347176257148
0.3306780498854818 1.4323239952342959
0.3056301855021061 1.4378769730786944
0.28048922320352104 1.442991959668066
0.26394523005373394 1.4969077845785563
0.22995866360913944 1.4519018606748526
0.2045844584112959 1.4556940610501083
0.17914793480556682 1.4590428429127433
0.1536568410034509 1.4619471861913618
0.12811894183905745 1.464406206194866
0.10254201640386441 1.4664191538819416
0.07693385567712731 1.4679854160892236
0.05130226015267659 1.4691045157180707
0.025655037462806562 1.469776111879895
