# .PCD v0.7 - Point Cloud Data file format
VERSION 0.7
FIELDS x y
SIZE 4 4
TYPE F F
COUNT 1 1
WIDTH 180
HEIGHT 1
VIEWPOINT 0 0 0 1 0 0 0
POINTS 180
DATA ascii
5.3272135762909864e-17 -0.87
0.01431097327857255 -0.8198751100282408
0.03036256213117594 -0.8694700195066133
0.04553228193136125 -0.8688076952364793
0.05720030847018287 -0.8180025212130558
0.07582549619046258 -0.8666893873398186
0.0909397630428585 -0.8652340489703978
0.10602632876247832 -0.8635151519279501
0.12108059783525696 -0.8615332198051662
0.13609798458500091 -0.8592888563177699
0.14586446924022153 -0.8272385125302547
0.16982000588512497 -0.8736481932684209
0.18504140482780593 -0.870551364653087
0.18895888564884672 -0.8184708544195975
0.21531048708370423 -0.8635631963856368
0.23034895014124346 -0.8596739853972708
0.23153537888627929 -0.8074598245881879
0.26021081720323574 -0.8511112328071015
0.27502512499370324 -0.8464402995026866
0.28975565746686954 -0.8415115322833919
0.30439792755984524 -0.8363264324994584
0.31894747509531735 -0.8308865795825096
0.33339986814016187 -0.8251936305644407
0.36728726077991725 -0.8652745622452939
0.3823324444912523 -0.8587327301840446
0.39726116603625744 -0.8519293198144509
0.4120688779817328 -0.8448664035212169
0.426751069755174 -0.8375461327370658
0.46477684715803197 -0.8741181169303376
0.45572104303155686 -0.822142524711032
0.46999999999999986 -0.8140638795573724
0.5356395979064564 -0.8914539927301968
0.5246200715908729 -0.8395676151948617
0.5391926446648768 -0.8302838622659697
0.5815606196095768 -0.8621990754572433
0.596519493805088 -0.8519181260605515
0.6112966623841721 -0.8413776741499454
0.6258876240781303 -0.8305809304491846
0.6710710081049677 -0.8589317214313269
0.7174252457968145 -0.8859463960609467
0.7649172555269818 -0.9115928873115838
0.7807102444987036 -0.8981044004650987
0.7962654215670413 -0.8843423423180992
0.8456779664774983 -0.9068785900077713
0.8961092978921065 -0.92794834243686
0.9121677477306463 -0.9121677477306462
0.9279483424368601 -0.8961092978921065
0.94344627508873 -0.8797778844806231
5.8039610869784495 -5.2259100356626815
5.781075384506433 -5.025412162067286
5.791295989979473 -4.8594743292302365
5.758651574396154 -4.663264097679295
5.799759146545474 -4.531268458396845
5.798093802943346 -4.369177068083871
5.792561679724624 -4.208542406414108
5.619383023822484 -3.9347343533681762
5.604293990472082 -3.7801440274622484
5.585545982516524 -3.62729597320008
5.648000320401798 -3.5292622997931447
5.7515925877111735 -3.455905482646463
5.940934269961249 -3.43
6.087353161690194 -3.374274956914506
6.2336100055840244 -3.314469233268389
6.379606713188714 -3.250571978135155
6.525244776131952 -3.1825745256887017
6.62510992323791 -3.089339493324512
6.769371841131673 -3.0139185251916794
6.8669662067552055 -2.9148542185299813
7.055869133253252 -2.8507561758950897
7.151226066968565 -2.7450984935170006
7.245030106259353 -2.6369753050409064
7.289948217870733 -2.510130470864678
7.427751392265149 -2.413422726068339
7.51655538186946 -2.298041599120711
7.603580014872103 -2.180291484512463
7.737065868575437 -2.0731405512711905
7.820583553784532 -1.949890478533321
7.902141225408258 -1.824353050728744
7.981684421987854 -1.6965593970729167
8.059159176105322 -1.5665418520414334
8.036031264579618 -1.4169691297621518
8.059536859256324 -1.276505234728284
7.9815606340570575 -1.1217351937381272
7.999921982229057 -0.9822669078454884
8.363929140047178 -0.879084376080965
10.22095760242131 -0.8942179205909717
10.38464176320477 -0.7261648916763431
26.92305225698331 -1.4109773803097676
33.03986074125131 -1.1537773609846838
29.505505484065107 -0.5150205139642372
29.76 0.0
33.10495718662811 0.5778491771384578
33.03986074125131 1.1537773609846838
25.924422722228737 1.3586414240668239
27.29335241510879 1.9085371216392708
25.71178515774795 2.2494897203170603
18.55777856757198 1.9505011245744164
15.841036580195501 1.9450347207461531
9.91258336810312 1.3931227406102547
8.701534280643164 1.3781876370044341
8.08527165223023 1.4256515386454984
8.010077816932938 1.5570014022726062
8.079499182061234 1.7173505661546926
7.999578231886782 1.8468481561631325
8.11167227166733 2.022467047213223
8.026843616462157 2.150786264801949
7.940021608450514 2.2767645590484125
7.851262046456522 2.4003716957736687
7.808173998783212 2.5370295238183185
7.668155648110459 2.6403577326475407
7.573922523534422 2.7566823552048905
7.477979216242586 2.8705272758578557
7.380383482351627 2.9818684835906604
7.281193390808802 3.0906832263501562
7.226144569952973 3.2172868467295808
7.078263816756236 3.300648624194862
6.974641799281535 3.401760099083242
6.825109975282898 3.477567228004929
6.675083802013487 3.5492050146613354
6.568394000616862 3.640920248049991
6.460549512231912 3.7299999999999986
6.308751333167546 3.7906802313379995
6.156829178095653 3.8472138583330673
6.046814794886506 3.926847442458346
5.894457140866347 3.9758615436770097
5.742255830465831 4.020770818820834
5.590307431130887 4.06159609334099
5.598434925431522 4.21872331229586
5.602756458143793 4.377353089565431
5.797508872469003 4.694730117231786
5.791295989979473 4.859474329230237
5.818810863517572 5.05821511351681
5.803961086978448 5.225910035662683
5.785007779807639 5.394607028094363
5.797878790729527 5.598946465899519
5.805346673541556 5.805346673541555
5.807343977037216 6.013680730831124
5.8038060441318615 6.22382000077914
5.794671051067714 6.435634188634233
5.812682996855894 6.68672688077376
3.3489234464668707 3.9910915486498753
3.215827198264669 3.9712158630451215
3.1152470651478312 3.9873344132500126
2.9549117636765567 3.9213003543322085
2.797857800912172 3.8509208932247496
0.9693441774332676 1.3843669548483963
0.9450360068655621 1.4010734976180206
0.920439969175396 1.4173532598277665
0.869067593342456 1.3907988776965385
0.8446624428524889 1.405754373151464
0.8199999999999997 1.4202816622064793
0.7950877772039928 1.434376319708609
0.7699333629688606 1.4480340522886401
0.7218448945858795 1.416700373459505
0.675091566055179 1.3841428313007174
0.6508321230806772 1.395713992036441
0.6263744303367326 1.4068600047696052
0.6017259378734815 1.4175774743167582
0.5581638241897091 1.381503943304513
0.5339682448224973 1.3910348354808306
0.4925090063889631 1.353157373931708
0.4785851870520201 1.3899123061309957
0.45425498173117274 1.3980530789538756
0.4210152548007406 1.377078848586771
0.40518691305098875 1.4130546930293288
0.3804639963007058 1.4199109646449302
0.34352909175152807 1.3778199313119148
0.3306780498854818 1.4323239952342959
0.3056301855021061 1.4378769730786944
0.27094877343469376 1.3939106004956827
0.2465804122870409 1.3984270092773354
0.2221369403571279 1.4025174436450956
0.19762580336329263 1.4061806576130298
0.17305446763530943 1.4094155353306772
0.14843041784006822 1.412221091422948
0.12376115470167455 1.4145964712902785
0.09905419271665813 1.4165409513689502
0.07431705786498011 1.4180539393514948
0.04955728531755153 1.419134974367116
0.024782417140942394 1.4197837271220755
