# .PCD v0.7 - Point Cloud Data file format
VERSION 0.7
FIELDS x y
SIZE 4 4
TYPE F F
COUNT 1 1
WIDTH 179
HEIGHT 1
VIEWPOINT 0 0 0 1 0 0 0
POINTS 179
DATA ascii
3.9556091612459507e-16 -6.46
0.10401634236621024 -5.959092263132092
0.17659145331465545 -5.056917584716624
0.2648199385892965 -5.053065445858143
0.34599210977086226 -4.947917689288728
0.4279346968910015 -4.8913159676304705
0.5080083314807958 -4.833376411489809
0.5922850089490168 -4.823774296976826
0.6694226156179148 -4.7631894106469534
0.79938011635558 -5.047087420441154
0.9307542322947471 -5.2785695561454355
1.070438464062417 -5.506928499141395
1.2391536772738463 -5.829759700373481
1.4419362583441755 -6.245712115273358
1.6474881090337368 -6.607713895939535
1.9049081719545526 -7.1092140814875435
2.1802914845124635 -7.603580014872103
2.5611761333711742 -8.377229662236191
2.969653315943245 -9.139653121596425
3.128709964333276 -9.086433511509433
3.628833720685346 -9.970138706538487
4.071059906834612 -10.605473645008212
5.510462989148069 -13.638874500677442
5.728118343652753 -13.494601151612777
6.227138005490504 -13.986380956508219
1.411544994213936 -3.0270680087024107
1.4860781876149727 -3.046911816954176
1.5163282691300863 -2.9759617907891487
1.5680350197048754 -2.949044960148816
1.6192641316227658 -2.9212298218455817
1.6699999999999995 -2.8925248486400252
1.7202271701995813 -2.862938784345055
1.7699303425389044 -2.8324806411624626
1.8190943769501904 -2.8011596969377157
1.8677042975922946 -2.768985492333839
1.9444241192300462 -2.7769254301396824
1.992592005271484 -2.742567610931072
2.0401529284854436 -2.707374379060323
2.087092401353982 -2.671356454726787
2.133396125658949 -2.6345248093391316
2.1790499968373687 -2.5968906621733354
2.073146531610003 -2.3848822735039596
1.9137135341863345 -2.1253942008653475
1.8004756705649965 -1.93077377227461
1.7644322609658531 -1.8271230928601738
1.810193359837562 -1.8101933598375615
1.7192221228093765 -1.6602335053970034
1.7479353468698178 -1.6299760805493715
1.7761161328909727 -1.599222149197671
1.781114609325742 -1.548299308417597
1.8461671079167372 -1.5491181393445597
1.9117790651841484 -1.5481281619826
1.8991059161922001 -1.4837441555348363
1.9646433547163404 -1.4804649569540387
1.9901818061623706 -1.4459517206394839
2.056071631165369 -1.4396768552411254
2.0808843071131546 -1.4035741877115744
2.105063125543014 -1.3670439778877175
2.1710031261604508 -1.3565933164370045
3.265807415675048 -1.962295065407306
3.299556788418711 -1.905
3.288570098844128 -1.8228841721262272
3.364030328792512 -1.7886866542142439
4.642143991021396 -2.3652905036430387
3.5592244233447015 -1.7359497412847464
4.857809738516444 -2.265233882930149
4.942280925846472 -2.200445239040079
5.071981742522946 -2.152928517975898
5.155142231391338 -2.08281265939247
5.237386192649302 -2.010444196949135
5.365644864687536 -1.9529350183895686
5.4934629242320305 -1.8915509773960804
5.620744011304358 -1.8262904367559392
4.552010638384049 -1.3916893144802267
4.383353333478734 -1.2569063425255158
4.452918059192605 -1.1931557979226204
4.376033725504744 -1.0910677491545009
2.835416888525035 -0.6546075681406468
2.5040578578785424 -0.5322539284934641
2.611128307970786 -0.5075519277016094
2.668829010663084 -0.47058656147738126
2.72601982004258 -0.4317591235110372
2.7826532731638127 -0.3910764136977838
2.8883093012762475 -0.35463978930897905
2.9437848102900888 -0.309404251272254
2.9985460412561538 -0.26233878567045077
3.1024241963080534 -0.21694263334422928
3.1556693298244536 -0.16538162172770274
3.258014096082252 -0.1137723592501533
3.3594882557254744 -0.05864008562927268
3.46 0.0
3.559457794756753 0.06213056691672939
4.657161253908987 0.16263165463365475
4.603682155218586 0.2412687582799714
4.6486484742107805 0.3250651676476244
4.841506232725884 0.42357690975361934
5.082006885331877 0.5341404472977099
5.022283527305089 0.616658877630046
5.010756427832345 0.7042158908579309
5.2446250885601815 0.8306670093636258
5.180088780844214 0.9133894145280537
5.163358984934712 1.0036553156806258
5.096148999823127 1.0832199091605264
5.027749534291814 1.1607474404143439
5.006725947584142 1.248316981294286
4.935880972337139 1.3225653204738819
4.91204726624481 1.4085068882248655
4.8389020651729595 1.4794008258970477
4.8123459724534765 1.5636259915372337
4.784323992532543 1.6473748615532127
4.754844661176696 1.7306219252278838
4.677237936750981 1.7954234272219545
4.645191111379604 1.8767790330137197
4.565704073124103 1.9380263973067984
4.5311854699073 2.0174137496559696
4.495286623701784 2.096186578233869
4.502958171958826 2.1962394454132785
6.156855082141623 3.1370743532002683
6.101167866655185 3.2440484988505065
6.0436221763332245 3.350034475902189
5.984235540150472 3.4549999999999987
5.923026047851596 3.558913097628475
25.449923365654346 15.90287711963848
20.555815620342344 13.349102748218318
16.50613806957088 11.133530708102569
14.097606682213547 9.871250469601506
13.963633322911594 10.145173454568088
13.784448903416273 10.387327299604358
13.640466144932356 10.657100137887145
13.491253890893017 10.925001988625175
10.158390949798513 8.830554530212227
9.259584525448332 8.337367355231375
8.198474995150903 7.645201616300609
7.416393341491492 7.161927799432263
6.9367175234400325 6.936717523440031
6.432536510450314 6.661086551135911
5.906105798141237 6.333523056022016
5.560475338842113 6.175533499717146
3.9101118127834233 4.498069098127721
3.606038490341487 4.297509325897467
3.467555354684604 4.28207424762791
3.4538608765769436 4.42074032773371
3.406273031040593 4.520276986867678
3.3562537905900216 4.61948703788095
2.5294720843081127 3.6124605153144542
2.3542021236118438 3.490248180456726
2.2112344821610104 3.405002505858421
2.071984323151831 3.3158680559716256
2.0034981114001114 3.3343807997312167
1.9299999999999995 3.3428580586079333
1.8956056151631782 3.4197630549150375
1.859107388632127 3.496472467721351
1.7978023789686055 3.528385835785937
1.4071713811929378 2.885128888620326
1.3143427940135752 2.818617217683981
1.2242772956581591 2.749771827504228
1.1370275839037867 2.6786691235466016
1.0339141978279176 2.559027438604333
0.9711771432677634 2.530002955807417
0.8926725740799956 2.4525977402512207
0.8334544754103207 2.420527553534251
0.7756326558811181 2.3871518559008353
0.7046158083817952 2.3046944618709158
0.664286027518968 2.3166406872113487
0.5978719941868235 2.2312886587277476
0.5467434840552489 2.1928683413837518
0.49714183009994195 2.1533578431753697
0.44908925216636 2.1127988175850203
0.41214743001333703 2.1203147162469542
0.7310588279777762 4.146040640181396
0.8228452861116147 5.195240671530424
0.7250918560019399 5.159296638143582
0.6227523448003037 5.071910834887156
0.5289140241343275 5.032280790563463
0.4322924840283844 4.941125702535058
0.342504286083656 4.898039486775737
0.2543527473407066 4.853339538907229
0.16961155397415525 4.857039419312806
0.08307345464146887 4.759275028944423
