# .PCD v0.7 - Point Cloud Data file format
VERSION 0.7
FIELDS x y
SIZE 4 4
TYPE F F
COUNT 1 1
WIDTH 173
HEIGHT 1
VIEWPOINT 0 0 0 1 0 0 0
POINTS 173
DATA ascii
4.567932560819627e-16 -7.46
0.15288308039060433 -8.758665809569987
0.3458540123217857 -9.90396309575924
0.6128540476048739 -11.69395185197606
1.0086786103400542 -14.42477616675706
1.334354421466646 -15.251740827784625
2.426105632442237 -23.082853191497623
5.339095934579512 -43.48344690340632
6.097173553060468 -43.3836440915682
6.86903735991654 -43.3693950355325
7.633573890238261 -43.292148822416664
5.201453213964615 -26.75915702078332
4.836025928421085 -22.75171319306832
3.4552481947217686 -14.966324195101214
3.413517946911311 -13.69087269775431
3.147239588446652 -11.745658047675072
2.9107304774275113 -10.150923509108647
2.7804549119132265 -9.094458229208467
2.64518547184955 -8.141043779486514
2.5589656940332524 -7.43177600421063
2.448864226211789 -6.728199164827104
2.368812146494436 -6.170966619146504
2.307576615442019 -5.71145254413141
2.27014785652268 -5.348133198558679
2.22078207119387 -4.9879581987286
2.180710230582009 -4.676548181109114
2.1304837733949165 -4.368139065013952
2.0928962037993113 -4.107540076508377
2.070369591885779 -3.8937988845078677
2.0168080202247625 -3.6384179816998863
2.0049999999999994 -3.472761869175599
1.9622950654073068 -3.2658074156750474
1.96600047030519 -3.1462584367403403
1.911683012902745 -2.9437336934884377
1.906847800835247 -2.8270181224126922
1.86985918250441 -2.670435664382113
1.8574013972442152 -2.556493702224834
1.8415539708452677 -2.443824660744716
1.8531410407302316 -2.3719123683562326
1.799856318402535 -2.222637449766937
1.8062331832191756 -2.152584885164328
1.7779199685642746 -2.045262962403712
1.7999613311053286 -1.9990595805341904
1.7663757525618713 -1.894206087193651
1.7644322609658531 -1.8271230928601738
1.7606958851545036 -1.7606958851545034
1.7551891128263089 -1.6949664239199533
1.7479353468698178 -1.6299760805493715
1.7389588916171026 -1.565765618879728
1.728284938710148 -1.5023751763882618
1.6776373304305618 -1.407704865213521
1.7019496555907663 -1.3782116563991438
1.6863430127183852 -1.3175155571969086
1.7090799915012067 -1.2878841495453834
1.6908455182436402 -1.2284711772912689
1.6710701703495432 -1.170095930156134
1.6497847693845331 -1.112793877906786
1.668954430211394 -1.0838316796799037
1.687615711351288 -1.0545393358240778
1.6629045633620978 -0.9991738653255048
1.636788013152589 -0.945
1.6093002611364882 -0.8920497012532602
1.6246235708604257 -0.8638276755260391
1.639452004506597 -0.8353425195207661
1.608841342875509 -0.7846843527524485
1.6222909387956035 -0.7564866885158519
1.6169754600274038 -0.7199238582441663
1.6292935906108195 -0.6915940974260144
1.6132999069462102 -0.6518154725436867
1.6711089634299912 -0.6414786296860876
1.7290344222460714 -0.6293170637192306
1.7870301078827087 -0.6153238119240261
1.8450496416125979 -0.5994929690873979
1.7596007509719855 -0.5379639366898356
1.7206584357295909 -0.4933908669124284
1.8932146195265738 -0.5072853284009405
2.241383127697552 -0.5588395788352322
2.348231856132417 -0.5421320409687144
2.4551504778418516 -0.521858343952576
2.611128307970786 -0.5075519277016094
2.668829010663084 -0.47058656147738126
2.5087283851116498 -0.3973435412021864
2.5845996594154985 -0.3632417935057707
3.285327761932776 -0.403387526671038
3.5902240422794662 -0.3773477523962287
4.542647823298359 -0.39743018692932075
4.578818990692594 -0.3201822144855346
4.5837095645234935 -0.2402220391551125
4.956978502014715 -0.17310150364440505
5.459168415553896 -0.0952901391475681
6.16 0.0
6.958939958288483 0.12146874880349341
8.055090065773912 0.28128994342215824
9.74662425920464 0.5107989329311325
12.130378851159463 0.8482387207285649
15.450979767402973 1.35178557001618
21.789974727518867 2.2902186301942904
19.66233926401459 2.4142316928559704
19.468670231459274 2.736143164874886
19.467337193130167 3.0833233059429506
19.45980119952123 3.4312879906985443
2.5227818614604964 0.4903791181177203
2.5334022859005563 0.5384912792179968
2.6892613788072492 0.6208649099890676
2.6295014182079504 0.6556083370750998
2.665955280557828 0.7143405644829577
2.8933977047743396 0.8296684410091673
2.7350316020542818 0.836183075507027
2.815127288233654 0.9146903033498442
3.4983480579614685 1.6313064903190995
2.5037283329693136 1.2757133042681266
2.41927640443346 1.2863520820333414
2.413950391704732 1.3380745518798902
2.3902301144450506 1.3799999999999994
2.2800650198676187 1.3700012792607443
2.2558079357760934 1.409585242860325
2.146996653940285 1.3942759296384697
1.9979805498576506 1.3476548973645
1.9331988245220202 1.3536403897884692
1.828378407287381 1.3283946701809892
1.764984477204517 1.3300112011660272
1.5051005393888388 1.1759134178720072
1.445491488309966 1.1705359273526974
1.3482382198894014 1.1313061930483093
1.3282888611920787 1.1546638910232927
1.3450921341140833 1.2111263975095337
1.3603178850116573 1.2685169497162472
1.3020050386129582 1.2573316505307852
1.456639969244288 1.4566399692442877
1.465729161668484 1.517806978714554
1.4731164577349969 1.5797239954974083
1.411865579417191 1.5680355817573015
1.449890454069021 1.6679081722923261
1.356281856438598 1.6163537749810435
1.3278660251151568 1.6397779786742086
1.286732483430626 1.6469424750380486
1.2698296988508215 1.685120926199788
1.2990054075663655 1.7879275575686338
1.2389251025182593 1.7693684156642226
1.207856671496813 1.7907211567188903
1.1491883638817073 1.7695948983648444
1.0916336843204022 1.7469790780822376
1.035226530569209 1.7229062744112453
0.9799999999999998 1.6974097914175
0.9502268556828207 1.7142546259932157
0.9201642630603456 1.7305772820034968
0.8671218545025344 1.7018224611997825
0.8372888903671375 1.716696628431409
0.786069966837701 1.6857324838881689
0.7565301561209887 1.6991945512152375
0.7072233425655855 1.6661137847489171
0.6780379340828011 1.6782027767658851
0.6486459886769933 1.6897805719599353
0.6019554522531771 1.6538590125831987
0.5729999518445955 1.6641126930547976
0.5438699100999075 1.6738594686794703
0.4999556150758795 1.6352811326967907
0.47133987844706854 1.6437575000545253
0.42446323396813435 1.5841183551140718
0.4257825362554151 1.7077204782457538
0.3846663029280094 1.6661728107827523
0.3555289912983683 1.6726323972548076
0.31674293232506456 1.6295011245231221
0.28825597492710414 1.6347808700002655
0.25968121196678334 1.6395626453879286
0.22406869254570505 1.5943315906739284
0.19620964288228748 1.5979993041425284
0.16829082586092242 1.60118025154292
0.1359629586863467 1.5540637290231232
0.10882009904083571 1.556199918405326
0.08164409173899224 1.5578620742171352
0.054443214855901687 1.5590496901497894
0.027225754042162067 1.5597624044439704
