# .PCD v0.7 - Point Cloud Data file format
VERSION 0.7
FIELDS x y
SIZE 4 4
TYPE F F
COUNT 1 1
WIDTH 180
HEIGHT 1
VIEWPOINT 0 0 0 1 0 0 0
POINTS 180
DATA ascii
7.286648454926751e-17 -1.19
0.02076836366036748 -1.1898187572361056
0.06177210916342691 -1.7689217638237995
0.09786823817430522 -1.867437229991053
0.1304446059015146 -1.8654447739858713
0.1586234518007378 -1.8130743505269769
0.19546822631051197 -1.859755944338671
0.22180220499736844 -1.806433995987206
0.26025369879532245 -1.8518012885467368
0.29253244962523184 -1.8469771969129076
0.3160396833538134 -1.7923501104822186
0.356812821354139 -1.8356428330471317
0.3887948618292102 -1.8291360133722165
0.42065847162302783 -1.82207202114839
0.45239394477137856 -1.8144530081361134
0.4969325665968398 -1.8545775864750111
0.5154418553777884 -1.7975593714046565
0.5613536730676546 -1.836105131449028
0.599492969087398 -1.8450496416125979
0.6316022196468841 -1.8343060366626744
0.6635190780517976 -1.823003684324662
0.6952338221178828 -1.8111460274045714
0.7454671208976652 -1.8450958705879068
0.7775549456936547 -1.8318046583703564
0.8094059197208427 -1.8179554607087756
0.8410103408639918 -1.8035524962029335
0.8723585821102642 -1.788600152135342
0.9261406194686757 -1.8176533093442706
0.9577219880832174 -1.801213089432211
0.9890116253025277 -1.7842242025643673
1.0449999999999997 -1.8099930939094768
1.0764295765620133 -1.7914796584674144
1.1340272254590587 -1.8148229257747517
1.165527534932158 -1.7947550154032073
1.2246324586009356 -1.8155922838955412
1.2561323956087909 -1.793942976992892
1.287249702520516 -1.7717472176811349
1.3480656518605882 -1.7889435425059361
1.4098647784957579 -1.8045446257593931
1.4411436955041277 -1.7796642517364634
1.5041230066665021 -1.7925439968984085
1.5679810792873126 -1.8037558967324252
1.632678679515614 -1.813273374164842
1.6640759985524964 -1.7845030319507755
1.7296993424429032 -1.7911561028432414
1.7606958851545036 -1.7606958851545034
1.827123092860174 -1.7644322609658531
1.8942060871936517 -1.7663757525618708
1.9619023392603212 -1.7665048007873856
2.0679042498103954 -1.79760173943399
2.137263996301949 -1.7933774310254444
2.2070945305377974 -1.7872699105815382
2.253710755315225 -1.7607918194313823
2.3240293342376224 -1.7512817173724606
2.3946903033498446 -1.7398443467857205
2.506605255524315 -1.755143895234201
2.5783068506461797 -1.7390899297940225
2.692132523104811 -1.7482913023982365
2.8070391982777703 -1.7540327646119083
2.922940495394203 -1.7562798354432843
3.039749167283379 -1.755
3.1573771427732185 -1.7501627290892767
3.3198829491495654 -1.7652130760749494
3.4392851833671 -1.7524033289946506
3.5592244233447015 -1.7359497412847464
3.7249250047206317 -1.7369610557542745
3.89170364955748 -1.7326980995029087
4.059426403725262 -1.7231242766376969
4.22795837682455 -1.708206065976558
4.44384283012668 -1.7058314398356296
4.7078600301374 -1.7135209180616005
4.973427707652406 -1.7124884924446442
5.192768578971538 -1.6872327892872128
5.508315394347084 -1.6840610192029635
5.8733089621831285 -1.6841442440418646
6.239880837827381 -1.6719710313622835
6.607713895939535 -1.6474881090337363
7.073926670340808 -1.633144654536459
7.590425381694331 -1.6133947207458128
8.255484612794854 -1.6047036511167423
8.28223320283267 -1.4603811741788844
8.306458944405108 -1.3156138509883417
8.278641054679527 -1.1634871240261468
8.545822365631782 -1.0492950467183193
9.109820561573384 -0.957480723531705
17.293939958872702 -1.513023694099344
17.367590115023543 -1.2144602078852194
17.3362087233394 -0.9085522003775062
33.38964753070798 -1.1659921848305588
19.80698284104811 -0.34573217152258684
37.91 0.0
28.85560448221345 0.5036764497800028
26.543820365627184 0.926930632418427
35.36147182565946 1.8532162105626435
28.640063882959552 2.0027083611938403
17.34374969377729 1.5173814812367308
17.314626198361637 1.8198405454898494
8.099176597393189 0.9944538421860031
9.169882316546941 1.2887429148902056
7.81261477410754 1.2373966184682261
7.642108163374734 1.3475098586953795
7.519264225209106 1.4615969045843336
7.834962281877782 1.6653726434502527
7.804704218929734 1.8018579452943593
7.529494835901732 1.8773139098534224
6.867732624915275 1.8402034106789238
6.402002894949204 1.835744789741214
5.986467772328602 1.8302468715643319
5.620744011304358 1.8262904367559392
5.304359209112167 1.8264373465046493
4.989767816373173 1.816126961059301
4.677237936750981 1.7954234272219545
4.413395147737908 1.7831273846597417
4.197502131743128 1.7817339459110888
3.98305819532174 1.7733717638104896
3.8155557834242964 1.7792228819283444
3.604164125659659 1.757868298624201
3.4838355095765188 1.775102853981628
3.319882949149565 1.76521307607495
3.1573771427732185 1.7501627290892767
3.0397491672833796 1.7549999999999992
1.9800564646218792 1.1897379530422254
1.9165886973135227 1.197617537167043
1.8786220721977498 1.219991438433661
1.9150767926021464 1.291735607017425
2.465647653309865 1.7264650734166491
2.3785099634623457 1.728088641739871
2.284097558735257 1.7211909662148586
1.7021032277905195 1.329828786703422
1.6630923575179182 1.346745636846652
1.6163537749810435 1.3562818564385979
1.6301726932811877 1.4170875026194956
1.9247450979864507 1.733048270469443
1.8576384021126933 1.7322758345587461
1.791156102843241 1.7296993424429037
1.6899852070358488 1.6899852070358485
1.6602335053970032 1.7192221228093767
1.5958761625462463 1.7113676617888587
1.5323090885617856 1.7018016503432325
1.4695722249387364 1.6905494596990094
1.4077048652135213 1.6776373304305618
1.3782116563991438 1.7019496555907663
1.348298630963192 1.7257435503987208
1.2878841495453832 1.709079991501207
1.2284711772912689 1.6908455182436402
1.198774751973686 1.712027772563993
1.1407535230803234 1.6912366480122851
1.1110636314306555 1.710887958608665
1.0545393358240778 1.6876157113512877
0.9991738653255052 1.6629045633620976
0.9699999999999998 1.680089283341811
0.940530663277894 1.6967622318504276
0.9107748318046278 1.7129183301463182
0.8580420445077436 1.6840023307160152
0.8066029100919021 1.6537810451904673
0.777617601602887 1.667606328147436
0.7483954232594727 1.6809236420623854
0.7189452764202636 1.6937289303524903
0.6705458022144828 1.6596590996745493
0.6414786296860873 1.6711089634299912
0.5951150493866637 1.6350651601674804
0.5925340411120249 1.7208438075907566
0.5376895702124086 1.6548383383535672
0.5174979173592437 1.6926594180545729
0.4878781197960885 1.7014332018108245
0.44516875757633606 1.6613924212171973
0.4282017552114118 1.7174234355085138
0.38691581347144804 1.6759165114306045
0.35760810820654587 1.6824138732621459
0.32819147204765725 1.688398755529982
0.28999245670377344 1.6446289475303875
0.2612455566171856 1.6494395287938801
0.2393777336513122 1.703261078235501
0.2035218034865963 1.6575520732410076
0.17978895682036433 1.71057766003343
0.14555009038858907 1.663645145813215
0.1164933111526895 1.6659319639339063
0.08740104692571606 1.6677113230401381
0.0582821594931768 1.6689826811218897
0.029145518750263236 1.6697456509111734
