# .PCD v0.7 - Point Cloud Data file format
VERSION 0.7
FIELDS x y
SIZE 4 4
TYPE F F
COUNT 1 1
WIDTH 176
HEIGHT 1
VIEWPOINT 0 0 0 1 0 0 0
POINTS 176
DATA ascii
4.2250314570583685e-17 -0.69
0.01256573263484419 -0.7198903405126017
0.024080652724725742 -0.689579670643176
0.03768188849491966 -0.7190132650232931
0.04673683740856406 -0.6683679136740822
0.06013746249588411 -0.6873743416833044
0.07212463965468088 -0.6862201078041085
0.08408984694955177 -0.6848568446325121
0.09324597764324387 -0.6634796060568522
0.10481109157695473 -0.6617511881987423
0.1250266879201899 -0.7090615821687898
0.14119865657864322 -0.7264041157512713
0.16425023574602998 -0.7727366045797064
0.17771133293165348 -0.7697523511803359
0.19111829752373746 -0.7665336237580372
0.20446704563099138 -0.763081402768364
0.23153537888627929 -0.8074598245881879
0.24559223196709887 -0.8032959950089498
0.25957427527495586 -0.7988874736879289
0.25719884202115384 -0.7469596747234603
0.2872969203935618 -0.789341801460163
0.3010290776180523 -0.7842075582576494
0.31466953846936624 -0.7788344378361013
0.34775070435545363 -0.819249319572672
0.3416587801836723 -0.7673781844197846
0.3549993398621875 -0.7612985411107859
0.39015032064227895 -0.7999267012062585
0.4040515447681967 -0.7929958065276475
0.4413032690187374 -0.8299707372873912
0.43148056201924 -0.7784115393540623
0.46999999999999986 -0.8140638795573724
0.48413579041545096 -0.8057372626599855
0.49812410837921256 -0.7971652103870404
0.5391926446648768 -0.8302838622659697
0.5256413292625021 -0.779295318201739
0.5678406719875356 -0.8109605238461018
0.5819073997695484 -0.800926824431198
0.5957968729205277 -0.7906491549468199
0.6402879343386848 -0.8195311837509908
0.6544932066918309 -0.8082317999152497
0.668499114074001 -0.7966862208437372
0.715104341599653 -0.8226334424428215
0.7293523609311555 -0.8100278597703597
0.7433782124681235 -0.7971755347648958
0.7919105423232567 -0.8200473723860622
0.8061017305526642 -0.806101730552664
0.8560143624029949 -0.8266434608462067
0.870310904926813 -0.8115780484743732
0.921499583591969 -0.8297219518849841
0.9358398794762373 -0.813513195948229
0.9881973316234817 -0.8291960164956357
0.9792039114357833 -0.7929436927227951
1.0322940872248059 -0.8065165326766123
1.0302398079610078 -0.7763413798661423
1.0193614129124338 -0.7406094178885162
1.0321315758041296 -0.722706309802318
1.0445873414193525 -0.704583058373141
1.1238185610468683 -0.7298163069201362
1.136384448849611 -0.7100918140724947
1.2343209130110417 -0.7416548278704778
1.2470765814495914 -0.72
1.3469143489946696 -0.7466068151793591
1.3597392930027477 -0.7229862066902718
1.416700373459505 -0.7218448945858794
1.5189619382455923 -0.7408472380735408
1.6222909387956035 -0.7564866885158519
1.6809236420623859 -0.7483954232594723
1.7121390274215391 -0.726759898990049
1.8172803549509033 -0.7342289230951873
1.9231756785842355 -0.7382379760633186
2.0297360608975623 -0.7387635095834446
2.184147909634422 -0.752062436796032
2.2920462042713203 -0.7447309564436233
2.448140175265371 -0.748471564090206
2.65308228078976 -0.7607591020549175
2.9074367371300953 -0.7790453257585872
3.1146492813459488 -0.776569284874933
3.371320424156914 -0.7783306480297725
3.7267423587957995 -0.7921435420156633
4.132650442314666 -0.8033058705352538
4.589204129036889 -0.8092005079278956
5.145856254500668 -0.8150235628596029
5.951511093136838 -0.8364303367699931
6.957748523005668 -0.8543040972700835
7.518585528984146 -0.7902351823034596
8.577236350569928 -0.750410945057336
13.377333913984245 -0.9354343129087186
14.31 0.0
7.608840960140138 0.1328128129877277
18.79854145622919 0.6564595329740441
14.34032011907568 0.7515443316486744
13.277577508958261 0.9284586655343091
8.712011803426075 0.9156693382246456
7.553276213990461 0.927425703313172
7.585453406560429 1.066065953354101
6.133544595095805 0.9714580278998337
5.96793498325398 1.0523079566615978
4.96703354824518 0.9654935166053169
4.949426859713056 1.0520331555378624
4.686720011616981 1.082014571393991
3.9394006486805453 0.9822028961346514
3.7284736894758033 0.9990415140957307
3.566280891931163 1.0226145900810666
3.308814455632103 1.011606098340669
3.1955498947517156 1.0382971010998232
2.9878386988938415 1.0287953680846151
2.828474788565584 1.029480631410263
2.6700400197819967 1.0249323356995588
2.559027438604333 1.0339141978279174
2.402517667510869 1.0198082453570048
2.3386763715650583 1.0412458062740488
2.229517156110159 1.0396409238821205
2.121153949266034 1.034555906422223
2.0404049403913627 1.0396382444035621
1.9778026080039963 1.0516163006403958
1.9154171586352766 1.0617330683394781
1.853294364098699 1.0699999999999996
1.7486212934323089 1.0506776728165108
1.687615711351288 1.0545393358240778
1.6689544302113937 1.0838316796799041
1.5668810121290289 1.0568745875597114
1.5481973637061943 1.0840594647034774
1.4885912696499033 1.0815248642181505
1.3896257874822893 1.0471581402845644
1.371138711275696 1.0712509670666455
1.313376674862281 1.063551460874225
1.2563128867151239 1.0541716798859244
1.237723711565346 1.0759368075444318
1.1816002725090566 1.0639176641105847
1.1262847004935228 1.0502774744962478
1.1077832925215225 1.069773890506856
1.053589103967956 1.0535891039679557
1.0350409719839058 1.0718163025045904
0.9820776384899977 1.0531493303316055
0.963548073156756 1.0701285486874474
0.9119220502968051 1.049046316509653
0.8934747774642898 1.0648017759353794
0.8432893240067821 1.041375588352341
0.8249863769363823 1.0559344098330075
0.8064321310237446 1.0701715834633727
0.7582429754572904 1.0436319227436823
0.7685924247104016 1.0976637393472493
0.7213588454772634 1.0694584685960038
0.7025843551693851 1.081885032649597
0.6835958508608343 1.0939820440417896
0.6386472128884673 1.0628874528706191
0.6199999999999999 1.073871500692704
0.601163929105458 1.0845284368528507
0.5821447378545044 1.0948550151450696
0.5402486946900608 1.0602977637841577
0.5216616646790019 1.0695649150960087
0.5029157314714323 1.0785062665736134
0.4636797731064124 1.0414418217125647
0.4649700429022357 1.095400775608404
0.42705151649413986 1.0569895942061374
0.40853946248164213 1.0642816862068099
0.3899029633912624 1.0712495876959354
0.37114769608115844 1.077891176183221
0.3368285238686927 1.0366516027617174
0.32745630928946495 1.0710613266786
0.322495706305889 1.124676184247833
0.3028182827699495 1.1301332167582097
0.2757909609836211 1.106137127954636
0.25194518086512896 1.0912944725594635
0.23286109371589037 1.0955253128218625
0.21370607482173032 1.0994224454613837
0.18580355010361535 1.0537442957230627
0.17520660084505865 1.1062109414665544
0.1558738730752731 1.109100236990559
0.1364936646137652 1.1116516898382807
0.11707187885977213 1.1138645228124662
0.09325664473999422 1.0659283269581679
0.07812725059342052 1.1172717362910032
0.058616270992097 1.1184650789251227
0.03734246147167616 1.0693481849104325
0.018674074887893213 1.0698370338173386
