# .PCD v0.7 - Point Cloud Data file format
VERSION 0.7
FIELDS x y
SIZE 4 4
TYPE F F
COUNT 1 1
WIDTH 180
HEIGHT 1
VIEWPOINT 0 0 0 1 0 0 0
POINTS 180
DATA ascii
1.2185235651516163e-16 -1.99
0.032985048166466 -1.8897121438455795
0.06596004876772704 -1.8888486630660908
0.0989149572991641 -1.8874098206861445
0.12835191168919086 -1.8355178524780766
0.15600877951830808 -1.7831885095842246
0.18710594924909968 -1.7801941927092093
0.19620964288228748 -1.5979993041425284
0.2185017685073028 -1.5547208679242654
0.24090907616195564 -1.5210400445165122
0.26741819360707286 -1.5166039396388005
0.2843054031110519 -1.4626245033370193
0.2993928347775736 -1.40853254505668
0.3239295182551658 -1.4030928932907387
0.3604636244435048 -1.4457406321512347
0.37269942494762986 -1.3909331898562582
0.3914050452601388 -1.3649916082324127
0.4151678207062862 -1.3579527534675102
0.4326237921249264 -1.3314791228132148
0.44602837160630476 -1.2953604485710641
0.5027696106887332 -1.381348152555285
0.5518866422997626 -1.4377138568056906
0.5956244835313004 -1.474222328761192
0.6407990507224088 -1.5096279596620021
0.6873849267981026 -1.5438918234159953
0.756486688515852 -1.6222909387956035
0.7934517756882302 -1.6268172238014922
0.8671218545025344 -1.7018224611997825
0.9436378411996406 -1.774724661646443
1.0229482987197713 -1.845447582064125
1.1049999999999998 -1.9139161423636095
1.215489856787728 -2.0229148296569845
1.3565933164370045 -2.1710031261604503
1.4759717848907234 -2.2727972391320987
1.6272513490998737 -2.412499336135171
1.8125015388693055 -2.588520459953214
1.816256429583742 -2.4998625126185874
0.9267951356541544 -1.2298986854728309
0.917335598235231 -1.1741360228740156
0.9691534022167496 -1.1968047806437352
0.9256141579486167 -1.1031039980913282
0.9775279531958558 -1.1245172745319303
0.9635480731567558 -1.0701285486874477
1.0161775564931228 -1.0897170154125637
10.461555059112499 -10.833257393100086
10.649028124669407 -10.649028124669405
15.113329205115063 -14.594772363343534
1.0531493303316055 -0.9820776384899977
1.070128548687448 -0.9635480731567556
1.049046316509653 -0.9119220502968051
1.1031039980913282 -0.9256141579486165
1.119090184498038 -0.9062213631117658
1.1347354851936797 -0.8865525244689477
1.1500351344681017 -0.8666136333389495
3.6082157949122657 -2.6215222252244303
3.694375719743353 -2.5868297279432175
5.065419568311305 -3.416668640206263
5.1242771701465415 -3.327744503941815
5.1391714627079415 -3.2113107412532216
5.237292207289907 -3.1468826377004304
6.114139350718136 -3.53
3.463494040272007 -1.9198460961754948
3.3198829491495654 -1.7652130760749494
3.394734857157682 -1.7297038040076733
3.5592244233447015 -1.7359497412847464
3.6796096153687983 -1.7158301426672393
3.5262854665004397 -1.5700034422725886
3.5071234916537977 -1.4886855995441326
3.5789296786277993 -1.4459814505854198
1.9698546999090956 -0.7561563735405836
2.0297360608975623 -0.7387635095834446
1.9477682657345927 -0.6706703981817428
1.8640707719385008 -0.6056733089748969
1.7787268460912462 -0.5438113707842903
1.7879467544452732 -0.5126854818196184
1.7483257455832137 -0.4684624716355624
1.610690905618154 -0.40159034669544824
1.5687358043042288 -0.3621711974936225
1.574817637181427 -0.33473782221659265
1.580419765350739 -0.3072024825562372
1.5363000946990446 -0.27089115716041134
1.540793811328415 -0.24403776546276015
1.3467645734885358 -0.18927541730568898
1.3498627662321983 -0.1657423070310005
1.302823682932438 -0.13693228688062595
1.3050150545001866 -0.11417402299943208
1.3566871083533611 -0.09486880429201025
1.3581361672662204 -0.07117690049040372
1.3092019833950155 -0.04571834068027634
1.259808095897053 -0.021990032110977255
1.26 0.0
1.259808095897053 0.021990032110977255
1.209262900693106 0.04222839101002623
1.1084787835775771 0.058092911429667736
1.1372230172961995 0.07952238006830295
1.1555858497864246 0.1011006615872836
1.1536453986271968 0.12125301739047818
1.1017262283218676 0.13527497117971365
1.0991975563031433 0.15448214206567262
1.096334058060603 0.17364225619465629
1.0438962181929405 0.1840670683269462
0.9914434552821406 0.19271708533031032
1.0368364567778339 0.22038639226682497
0.9841137654330876 0.22720056488730375
0.9799986835387564 0.2443411145556645
0.907970276711724 0.24328990239636963
0.9516490789789357 0.2728809822588291
0.9658678035226659 0.2952954217699641
0.9130142556433474 0.2966563145999495
0.9076978325753441 0.31254542827887044
0.902104915954472 0.328339337592642
0.8962372094373137 0.3440332315634883
0.8900965003841158 0.35962232967927565
0.8376594166417207 0.35556532692523923
0.8313263664547668 0.3701303451989783
0.8247400862033515 0.38458261818403644
0.817902582132242 0.3989177435780606
0.7662656108019964 0.39043182977601026
0.7593349298586771 0.4037455439958662
0.7521729481398803 0.41693627341184986
0.7447818472546173 0.4299999999999998
0.694305513568711 0.417180840677144
0.6445165530788838 0.4027386408172357
0.662549748676885 0.4302648376618715
0.6300685551418317 0.42498660663776755
0.6225555536596337 0.4359180916267952
0.61485291572496 0.4467167917422796
0.6069629876359425 0.45737941759555684
0.5988881727411086 0.4679027212475003
0.590630930707298 0.47828349719787633
0.5821937767704233 0.4885185833617699
0.5962205683759899 0.5182866329025007
0.5870844121271414 0.5286131790234981
0.5412017391981863 0.5046787864462489
0.5538916462607613 0.534886945253428
0.5444722215136416 0.5444722215136416
0.5348869452534278 0.5538916462607615
0.5387787044493738 0.5777694242791447
0.5085392608327324 0.5647900673628196
0.5314078134823109 0.6113147599804454
0.4949464594586354 0.5898542212016131
0.49716310892937154 0.613945309551007
0.48637256550727015 0.6225284953493103
0.5055246194477204 0.6708538284397261
0.4643503493110538 0.6391234255562085
0.45312538471732633 0.6471301149883036
0.42498660663776755 0.6300685551418317
0.44115761836217204 0.6793231600357934
0.429234604028896 0.6869189578867051
0.417180840677144 0.694305513568711
0.4049999999999999 0.7014805770653953
0.39269579239953306 0.7084419627829106
0.40374554399586593 0.7593349298586772
0.3904318297760103 0.7662656108019964
0.3769991862386064 0.7729628798172836
0.36345170509700153 0.7794246968515189
0.37013034519897836 0.8313263664547668
0.3282141479309899 0.7732240769000499
0.3408920000084801 0.8437373076557765
0.32611483408622316 0.8495581881124536
0.3112383304263586 0.8551202849151766
0.29626702055601245 0.8604219037953783
0.29665631459994957 0.9130142556433474
0.2806768365338271 0.9180525657245141
0.25082999379346926 0.8747481433038702
0.2484662832984201 0.9272887932375055
0.23224501977568096 0.9314838972249566
0.21595301217011054 0.9353952621938258
0.2099908077259368 0.9879290767411437
0.19271708533031037 0.9914434552821406
0.17538465944359952 0.9946558305423302
0.15799880969063324 0.9975652240010892
0.13778136995046458 0.9803653880541546
0.12308803683919897 1.0024716131577351
0.10557374790033022 1.0044671143219561
0.09238508731251763 1.0559663799772503
0.07045403848156671 1.0075396907624226
0.05809291142966756 1.1084787835775771
0.038738441339776206 1.1093238179911964
0.020244791467248714 1.1598233263814137
