# .PCD v0.7 - Point Cloud Data file format
VERSION 0.7
FIELDS x y
SIZE 4 4
TYPE F F
COUNT 1 1
WIDTH 180
HEIGHT 1
VIEWPOINT 0 0 0 1 0 0 0
POINTS 180
DATA ascii
6.245698675651501e-17 -1.02
0.01780145456602927 -1.0198446490595192
0.0355974866365511 -1.0193786435594776
0.05338267536780285 -1.0186021254496653
0.07115160321900797 -1.0175153312650207
0.08628418532018156 -0.9862327511108281
0.10661903253300653 -1.0144123332756387
0.12065064997109601 -0.9826206901249087
0.1377813699504648 -0.9803653880541546
0.16269184364184017 -1.0271958742189433
0.17191169589026112 -0.974959675482086
0.19844135519160672 -1.0208922707855705
0.20583257390958185 -0.9683661247264675
0.23394909651761975 -1.0133448673766448
0.2515987714236544 -1.0091075553270363
0.26917180690662157 -1.004562859340631
0.2866628500496791 -0.9997121637758517
0.30406657291164624 -0.9945569462015569
0.32137767414994534 -0.9890987769469597
0.3548692883583009 -1.0306152474032553
0.372801956224979 -1.0242649566566402
0.39062106500437743 -1.01760266488195
0.4083211868233443 -1.0106304014777983
0.42589693005330836 -1.0033502902631601
0.4636797731064124 -1.0414418217125647
0.46065390529736244 -0.9878754878699485
0.49974310733954824 -1.0246252127810502
0.5175491697030834 -1.0157474375747393
0.5351975815759156 -1.0065602558591766
0.5526829670808243 -0.997066466138911
0.5949999999999999 -1.030570230503482
0.6128953091429645 -1.0200290878355136
0.657099887649174 -1.0515796392339682
0.6753524034186336 -1.0399515042523257
0.6933992003037261 -1.0280065899682516
0.7399136028928495 -1.0567061371327995
0.7582429754572904 -1.0436319227436823
0.7763413798661423 -1.0302398079610078
0.8557694507026651 -1.0953349475133434
0.8747553435592739 -1.0802328864251896
0.8934747774642896 -1.0648017759353794
0.9119220502968051 -1.049046316509653
0.9635480731567558 -1.0701285486874477
1.0161775564931228 -1.0897170154125637
1.035040971983906 -1.0718163025045901
1.0889444430272832 -1.0889444430272832
1.107783292521523 -1.069773890506856
1.1628523855744812 -1.0843773924993727
1.181600272509057 -1.0639176641105845
1.237723711565346 -1.0759368075444318
1.294615108871073 -1.0863110603702513
1.3522339729351294 -1.095017480426717
1.3711387112756963 -1.0712509670666452
1.469489338487019 -1.1073396425997688
1.4885912696499033 -1.0815248642181505
1.6301125681350936 -1.1414171083385816
1.6912366480122851 -1.1407535230803234
1.7108879586086652 -1.111063631430655
1.814822925774752 -1.1340272254590587
1.8943397345516682 -1.1382341455512195
1.9139161423636093 -1.105
2.0203715234920043 -1.1199102227690387
2.1720510784329603 -1.1549000444532913
2.280976701922222 -1.1622156793332399
2.3458524608408258 -1.144148693119492
2.501409492221154 -1.1664264024043303
2.658417281739969 -1.1836036313505784
2.8167448515644677 -1.1956372531771775
2.9762601731593876 -1.2024871648650772
3.1368302330305977 -1.204116310472209
3.3453057299978335 -1.2175917102393807
3.649701701813363 -1.256693076204625
3.9088422819730813 -1.2700598468810338
4.217303973796987 -1.289359217827269
4.623668757463314 -1.3258156814797657
4.984177263651593 -1.3355062727290068
5.49187381072214 -1.3692779290941188
6.0995566055555726 -1.408193600192594
6.807907301107287 -1.4470653680916055
7.911915098588172 -1.5379205027349516
8.922358242290604 -1.5732524896623892
10.528757710744168 -1.6675913973288612
12.932900977764909 -1.8176006985384543
16.43656427118029 -2.0181563267892413
16.419556492530194 -1.7257649285489576
16.447174465494722 -1.4389413127638349
16.469782469789703 -1.1516793815155069
16.487373618798017 -0.864066637571004
16.549912095436223 -0.5779356653934168
16.55747783178984 -0.2890118506014153
16.61 0.0
16.607470216547657 0.2898844709232795
16.649851178138135 0.581425615063667
13.191896154107921 0.691357981969289
11.531840421003569 0.8063848364820897
10.968103625990118 0.9595847276517178
10.502151215088967 1.1038205721064223
8.396940442885585 1.0310146452075475
7.634966809997508 1.0730246084021042
7.071848518661186 1.120070769688053
6.509579247410695 1.1478144543784097
6.5376370417614424 1.2707879092077887
6.5144630208871455 1.3846918608462777
6.635460141187452 1.5319166800817212
6.704743468567136 1.6716802985937047
6.674547459657461 1.7884396016584194
6.642318318933784 1.904654128695464
6.703696339300879 2.0495256501063843
6.666906179229026 2.1662091305683813
6.7226370725111435 2.3147895781903842
6.634229902748513 2.4146622118792216
6.591077811070244 2.53007772378982
6.638636398698197 2.6821832088579307
6.590814750719472 2.797634879983201
6.5866627496031525 2.93257119657652
2.9545633857394784 1.37773553327468
2.8851288886203257 1.407171381192939
2.771030290225824 1.4119104541899905
2.65767225450537 1.4131094039855316
2.5451433477756416 1.410795994916841
2.4335313846342728 1.4049999999999996
2.3657817499378297 1.4215050867517496
2.2982103405839145 1.4360812060719852
2.188930182337556 1.421507881389221
2.147207312917558 1.448309619989234
2.0806461924940387 1.4568841483316575
2.014452315993619 1.4635852782082583
1.9087388690130298 1.438337905333396
1.8833457011200654 1.4714309260283234
1.8185215498093121 1.472609715056619
1.7925439968984085 1.5041230066665021
1.728284938710148 1.5023751763882613
1.664644409069363 1.4988525582438428
1.5650969214650252 1.4594764905337467
1.5393871727247133 1.4865689127822543
1.4778531726798843 1.477853172679884
1.451835994259304 1.503420182707781
1.3912766545274968 1.4919615513031077
1.331569906654128 1.4788582027000143
1.3055574676911095 1.5018720646433164
1.2470079627918866 1.4861262196508174
1.2208815586366846 1.5076631652265235
1.1636001883654943 1.4893403243167043
1.1374303937573709 1.5094211139893836
1.1109141268327742 1.5290421193686505
1.0553806428859245 1.5072397614917452
1.0009552972126368 1.4839772548735248
0.9749038726768987 1.5012203166223088
0.9220595197657765 1.4756036873121812
0.9219181540889971 1.534329468256781
0.8699999999999998 1.5068842025849234
0.8435687392286266 1.5218382904225485
0.8168805192474498 1.536328811574533
0.7672439445598341 1.5058010258783416
0.7408472380735405 1.5189619382455923
0.7142248623417821 1.5316601600919384
0.6670480946443126 1.498214550533865
0.6407990507224088 1.5096279596620021
0.614354813202096 1.520581521489531
0.5984744757406513 1.5590793122503268
0.5540726321875835 1.5223020456731715
0.5274204102205936 1.5317400924708935
0.5006075308874149 1.5407115563981488
0.46487101050915114 1.5205245619812267
0.4465325164235387 1.5572439474200768
0.419286853066084 1.5647998385882906
0.39191347087146167 1.5718790765671145
0.3531731553198683 1.5297610017128194
0.33681693912476995 1.5845991131887653
0.3091105725100028 1.5902360371852158
0.2726276389370805 1.5461481722291668
0.24560211011316258 1.5506706947343663
0.21850176850730244 1.5547208679242654
0.19133486914608155 1.5582974580768756
0.16410968733021628 1.5613993757281892
0.13683451611382327 1.5640256760040405
0.10951766377827697 1.566175558907924
0.08216745130142168 1.567848369564681
0.0547922098229267 1.5690435984199804
0.027400278106534903 1.5697608813955344
