# .PCD v0.7 - Point Cloud Data file format
VERSION 0.7
FIELDS x y
SIZE 4 4
TYPE F F
COUNT 1 1
WIDTH 174
HEIGHT 1
VIEWPOINT 0 0 0 1 0 0 0
POINTS 174
DATA ascii
5.143516556418883e-17 -0.84
0.01518359360043673 -0.8698674947860604
0.03036256213117594 -0.8694700195066133
0.04553228193136125 -0.8688076952364793
0.06068813215738914 -0.8678807237260471
0.07321082390803284 -0.8368035463970662
0.0909397630428585 -0.8652340489703978
0.10602632876247832 -0.8635151519279501
0.12108059783525696 -0.8615332198051662
0.13140495063379398 -0.8296582060999157
0.15107391457022945 -0.856782745120621
0.1602795561162977 -0.8245668340960377
0.17464582028691794 -0.8216439846163966
0.18895888564884672 -0.8184708544195975
0.20321439230372085 -0.815048410071837
0.21740799788611742 -0.8113776940828173
0.23153537888627929 -0.8074598245881879
0.24559223196709887 -0.8032959950089498
0.27502512499370324 -0.8464402995026866
0.27347724974401166 -0.794235603503426
0.30439792755984524 -0.8363264324994584
0.31894747509531735 -0.8308865795825096
0.31466953846936624 -0.7788344378361013
0.34775070435545363 -0.819249319572672
0.36199561233746236 -0.8130554573019146
0.37613025294922253 -0.8066139304626184
0.39015032064227895 -0.7999267012062585
0.4040515447681967 -0.7929958065276475
0.4413032690187374 -0.8299707372873912
0.43148056201924 -0.7784115393540623
0.4449999999999999 -0.7707626093681504
0.48928617116455153 -0.8143089356670066
0.5034233010215446 -0.8056456913486046
0.5174070832642758 -0.7967370395481527
0.5312332582972096 -0.7875856939272895
0.5276903214429624 -0.7536198807458725
3.7970927298093766 -5.22624978366216
3.767362044931822 -4.999458292896053
3.73090854047349 -4.775345166856734
3.6878174915520474 -4.55407533413785
3.7024566317944667 -4.412415992365313
3.6476882011872203 -4.196185266038612
3.6199965804014234 -4.020413505832703
3.6214112919318673 -3.8834881555977945
3.584437191568426 -3.71179336974744
3.542604973744603 -3.5426049737446026
3.5319584196627773 -3.4107725989536766
3.554378989869169 -3.3145120299037427
3.500212127998527 -3.1516051559502216
3.479211164826979 -3.0244321236462386
3.4548604384665906 -2.898972119686292
3.427213690025242 -2.775302924529783
3.435726885725308 -2.68428403241987
3.442119048303832 -2.593822749785328
3.4059615463185287 -2.474575912151312
3.3667149020277565 -2.3573991534027994
3.365892544573469 -2.270323188091232
3.3630689774611504 -2.184002530410258
3.358270460779447 -2.0984802863634915
3.3086657807101534 -1.9880469691528087
3.299556788418711 -1.905
3.288570098844128 -1.8228841721262272
3.2757355695066193 -1.7417394979356549
3.2610838785294267 -1.6616052290467413
3.244646507139993 -1.5825198399085694
3.2717711112023062 -1.5256519248839246
3.2522218292076595 -1.4479824493498485
3.276997278290688 -1.3910028174218143
3.2544153295294236 -1.3148691428898507
3.211516667150374 -1.2327857464358332
3.2325426155035246 -1.1765492930403005
3.2053079712816843 -1.1036760436097612
3.2240815902405706 -1.0475676109310716
3.1940578849165386 -0.9765214937739406
3.162550979637069 -0.9068469006379271
3.177895968491035 -0.851514658387293
3.1922729394480283 -0.7959230365229065
3.205677513143424 -0.7400889687913154
3.12029084634084 -0.6632382937086525
3.131390715198048 -0.6086806952511781
3.1415367321089436 -0.5539376867575079
3.1013413894687325 -0.49120422022632493
3.0896363744736997 -0.4342200749954041
3.334955069514842 -0.4094809938412954
3.271977035761619 -0.34389864415057964
3.277480556721843 -0.28674239363979503
4.14986644908087 -0.29018693077556074
4.004504434365841 -0.20986718453420505
4.107496299048484 -0.1434369314472792
6.109069417405551 -0.10663420333180242
6.14 0.0
6.858955188772844 0.11972350815976507
7.905181441721048 0.2760550189167831
9.496966875515996 0.4977149438703965
11.481962218490576 0.8028970127948833
14.703833743834164 1.2864187629554364
26.066418877602445 2.7396910222452013
21.300040414222774 2.615316109474464
21.00358573800871 2.9518614713629874
21.1464073721419 3.3492618965113428
4.047559864880175 0.7136940102110838
4.132650442314666 0.8033058705352538
4.215816159162702 0.8960993874245429
4.2482534824636256 0.9807865969392519
4.181974580249545 1.0426833700345683
8.316621364348876 2.2284319783327047
3.8836945742283593 1.4908106701084494
3.8570848349978353 1.5583634286101944
3.9213506757073953 1.6645146073643067
2.9545633857394784 1.37773553327468
2.8401891863053677 1.3852528238534851
2.7977604859514753 1.4255301691821771
2.8342617730771553 1.50700371654271
2.9824532013453395 1.6532008050400095
2.9531466269049362 1.7049999999999994
2.9229404953942026 1.7562798354432851
2.934246412701234 1.833520654246889
2.9018001650911667 1.884451061151994
2.744114365157188 1.8509285104881719
2.752350868811012 1.9272168261395155
2.758747950818571 2.0043477103173335
2.603551762754174 1.961916975475678
2.568915056757913 2.007056409561646
2.3780666420583314 1.925720396612502
2.305793773788124 1.9347907051564834
2.158469399437128 1.8763288229128503
2.0882369595914776 1.880257003868392
1.9819685313879523 1.848215555769371
1.9134438689008118 1.8477912654209332
1.8809040379562167 1.8809040379562163
1.7783254283750327 1.8415098888669474
1.711815883756871 1.8356977910641177
1.6460612916427915 1.8281362706743896
1.5811022598671227 1.8188500883368806
1.516978758860233 1.807864885760788
1.4537301033251244 1.7952071709656028
1.360611860469705 1.7415037654708554
1.3300112011660263 1.7649844772045173
1.2990054075663655 1.7879275575686338
1.2676039243358115 1.8103260178786722
1.0960180908026638 1.6249136422078818
1.0674925086294533 1.6437943131730308
1.0280433726124174 1.6452133065434662
1.024925769071008 1.7057629283972033
0.9799999999999998 1.6974097914175
0.9259863746705038 1.6705236406362458
0.8966906849210511 1.6864299023605505
0.8898213794895118 1.746372787409201
0.8811260050460451 1.8065760330613256
0.8494627060988058 1.821678651943666
0.7972038204285687 1.7905490969794975
0.7462964554145127 1.758164270094161
0.7154985934243923 1.7709211622225638
0.6665643861542583 1.7364595932847953
0.636157466585744 1.7478282746617895
0.6055567672903112 1.7586645506147294
0.5593207598186549 1.7214122944942278
0.5291927855481532 1.7309116082930944
0.48512174623791854 1.6918205848514412
0.4555215193804369 1.70002945426876
0.4257825362554151 1.7077204782457538
0.39591385564520265 1.7148913140220141
0.36592457583925625 1.721539777291498
0.3262833820938918 1.6785824836955054
0.28478301137376555 1.6150847149400211
0.2487307994139672 1.570424461546269
0.22128523052650376 1.574526229299097
0.19133486914608155 1.5582974580768756
0.1588832641668336 1.5116732809597755
0.12811894183905745 1.464406206194866
0.10044932219154065 1.4364922323741467
0.08164409173899224 1.5578620742171352
0.054443214855901687 1.5590496901497894
0.027225754042162067 1.5597624044439704
