# .PCD v0.7 - Point Cloud Data file format
VERSION 0.7
FIELDS x y
SIZE 4 4
TYPE F F
COUNT 1 1
WIDTH 179
HEIGHT 1
VIEWPOINT 0 0 0 1 0 0 0
POINTS 179
DATA ascii
1.6593964128446635e-16 -2.71
0.04118767919198929 -2.3596405605690833
0.07363793804227728 -2.108714645010292
0.09996167642402297 -1.9073824113812359
0.1227713937896608 -1.7557127284572907
0.1446785329611125 -1.6536831988322975
0.1578379795341567 -1.5017280620060927
0.17183577420125795 -1.399490073814264
0.18649195528648774 -1.3269592121137044
0.19710742595069097 -1.2444873091498736
0.20143188609363927 -1.1423769934941612
0.21179798486796486 -1.0896061736269071
0.22038639226682502 -1.0368364567778339
0.22270154380042648 -0.9646263641373829
0.239502676643671 -0.9605927690132365
0.2458780928473947 -0.9176295349746149
0.27563735581699916 -0.9612616959383189
0.29237170472273677 -0.9563047559630354
0.32446784409369483 -0.9986093421099113
0.3223124729125852 -0.9360633898433236
0.33859994189241216 -0.9302956945780492
0.35478427004984736 -0.9242446222322297
0.3895908571525487 -0.9642712087494588
0.4063603736288447 -0.957325047590538
0.4230061087988324 -0.9500872759483048
0.4395229922103274 -0.942560098518116
0.47782455000009444 -0.979685510466092
0.47215011972912874 -0.9266467851559026
0.511724003436621 -0.9624128762162304
0.5284424860685075 -0.9533354807819414
0.5449999999999999 -0.9439676901250382
0.5871434053974618 -0.9771707228004078
0.6041079612258535 -0.9667748296183255
0.6481204516678822 -0.9980179758550545
0.6933992003037261 -1.0280065899682516
0.7112347810752971 -1.01574853491835
0.699464450228043 -0.9627302233061874
0.7462506287085399 -0.9903080324586431
0.7634202294038164 -0.9771333344723352
0.8118233044542903 -1.0025182902794925
0.8613353969799628 -1.0264995537794306
0.8791190988472798 -1.0113108374985145
0.8966350125208701 -0.9958140661397084
0.982077638489998 -1.0531493303316053
1.000308053460956 -1.0358493124876575
1.0182337649086284 -1.0182337649086284
1.107783292521523 -1.069773890506856
1.1262847004935228 -1.0502774744962478
1.181600272509057 -1.0639176641105845
1.237723711565346 -1.0759368075444318
1.294615108871073 -1.0863110603702513
1.3522339729351294 -1.095017480426717
1.4105392489560324 -1.102034040832928
1.469489338487019 -1.1073396425997688
1.5290421193686505 -1.1109141268327742
1.589154965920644 -1.1127382865210294
1.6912366480122851 -1.1407535230803234
1.7695948983648446 -1.1491883638817069
1.8317838876978805 -1.1446256107437227
1.9371980995867737 -1.163986049296722
2.000518682742053 -1.155
2.1952954649198833 -1.216872146818306
2.304493217361799 -1.2253207788711749
2.4591780067598954 -1.253013779281149
2.5705509724156177 -1.2537414798167614
2.7733018283321487 -1.29321188092654
2.932480919032749 -1.3056246242733185
3.138921550272822 -1.3323931481484232
3.393492907714442 -1.3710601319022375
3.650299467604059 -1.4012186827221242
4.0030905645479695 -1.457005810567349
4.406116562292817 -1.5171475997703503
4.7172403208239615 -1.532724292099739
5.651761107741541 -1.727916774911374
5.969435131776961 -1.7117079796235644
7.6404732859465305 -2.047258646760939
7.675039194843132 -1.913602194193371
7.658548709211949 -1.7681152871427779
9.39999844305187 -1.9980313487586676
12.721888297481726 -2.4728845800800214
21.29456062323117 -3.372727066267377
18.874509390214328 -2.6526393042988468
19.116438880611867 -2.3472035539831397
12.391742816288685 -1.3024246523149614
10.818674421276356 -0.9465113662395666
7.641340624990255 -0.5343345888799989
5.851969073661803 -0.3066887035836513
5.856430246331901 -0.20451105067665598
5.909099878374272 -0.1031437220443457
5.91 0.0
5.909099878374272 0.1031437220443457
5.9563693290338104 0.20800100034690605
6.051694980612717 0.31715589483224005
4.399257461645825 0.30762604921159303
4.094360209157075 0.3582101026928756
3.789128421353121 0.39825344504976024
3.5334642998431067 0.43385486252232486
3.3074953495968447 0.4648381572066185
3.2988790575877602 0.522491113234371
3.3384982827113854 0.5886673222908939
3.8872436464527493 0.7556036216911176
3.92237187894256 0.8337258801792151
3.955942463028055 0.9133012806360922
3.8908858623667455 0.970106801354668
3.82506627210471 1.0249234186059828
3.8065963159157428 1.0915239290353165
3.834782071411772 1.1724105359381742
3.861289456158323 1.2546089971622862
3.838805416933226 1.321806707096056
3.8621366714300835 1.4057027890684988
3.8836945742283593 1.4908106701084494
3.8570848349978353 1.5583634286101944
1.647703687679868 0.6994087199958002
1.5895690962981255 0.7077217589518926
1.5316601600919384 0.714224862341782
1.4740222359306336 0.7189286807340872
1.416700373459505 0.7218448945858794
1.3597392930027474 0.7229862066902721
1.3469143489946696 0.7466068151793591
1.2470765814495917 0.7199999999999998
1.2771792780461473 0.7674067316159808
1.2211892584652535 0.7630837404958151
1.165752089444139 0.7570482586708878
1.110910347223756 0.7493184906508007
1.0567061371327993 0.7399136028928497
1.0436319227436823 0.7582429754572904
0.990308032458643 0.7462506287085401
0.9771333344723352 0.7634202294038163
0.963660992206644 0.7803572849017982
0.9498951094675328 0.7970566360113088
0.8981044004650987 0.7807102444987035
0.8843423423180989 0.7962654215670414
0.870310904926813 0.8115780484743732
0.8200473723860621 0.791910542323257
0.8061017305526642 0.806101730552664
0.757177623800307 0.78408038236913
0.7433782124681234 0.7971755347648959
0.7293523609311556 0.8100278597703596
0.6823013901501276 0.7848979634316829
0.6684991140740011 0.7966862208437372
0.6544932066918309 0.8082317999152497
0.6095048605724018 0.7801306460706546
0.6258876240781301 0.8305809304491847
0.5819073997695484 0.800926824431198
0.5678406719875355 0.810960523846102
0.5536009744360393 0.8207471968294913
0.5391926446648769 0.8302838622659697
0.5246200715908729 0.8395676151948617
0.48413579041545096 0.8057372626599855
0.4949999999999999 0.8573651497465943
0.4654172354364836 0.8396349188538199
0.450692700274455 0.8476296891445699
0.4812299297239197 0.94446691563967
0.48659197293587575 0.9976613913920755
0.4902371836192113 1.0513170329625139
0.5124881702755085 1.151067276629677
0.5118577783209486 1.205861358022697
0.5094649670456406 1.2609700422108308
0.5411356038134032 1.4097064440107747
0.5506524307543268 1.5129051194653125
0.5892783595674533 1.7113886218347636
0.605673308974897 1.8640707719385008
0.6169042969649741 2.017803035082005
0.5815948207738681 2.028262178429853
0.5409318042642688 2.0187849769441524
0.49835910493531543 1.9988091961285528
0.47014770357867813 2.0364334354011415
0.43453543380911674 2.044328485533654
0.38925035056815166 2.0025194542332345
0.2274791127436786 1.2900981564459928
0.19710742595069097 1.2444873091498736
0.1725746451904809 1.2279324052395473
0.15355537269048583 1.2506081510680658
0.13170586371724363 1.2530975881640243
0.12288959727419797 1.4046345243093612
0.5761884731264763 8.239879055146147
0.07902729392684506 1.5079305974794064
0.050255275251601554 1.439122790907498
0.025131465269688062 1.4397806810252034
