# .PCD v0.7 - Point Cloud Data file format
VERSION 0.7
FIELDS x y
SIZE 4 4
TYPE F F
COUNT 1 1
WIDTH 180
HEIGHT 1
VIEWPOINT 0 0 0 1 0 0 0
POINTS 180
DATA ascii
9.919639073093561e-17 -1.62
0.02827289842839943 -1.619753266153354
0.056537184658051756 -1.6190131397709353
0.08216745130142203 -1.567848369564681
0.10951766377827697 -1.566175558907924
0.14119230325120619 -1.613835410908628
0.16933611049359862 -1.611125470496603
0.19742833631633894 -1.6079247656589417
0.22546042355530607 -1.604234271361344
0.2534238333651741 -1.6000551117641233
0.2813100478204273 -1.595388559879777
0.3091105725100028 -1.5902360371852158
0.33681693912477034 -1.5845991131887651
0.36442070803706156 -1.5784795049520812
0.404009565651445 -1.620393862880914
0.43222780532120963 -1.613096129902744
0.4603143842143886 -1.6053070322169924
0.4882607468869704 -1.597028942458269
0.5160583806061623 -1.5882643822129063
0.5436988179434518 -1.5790160212508588
0.5882746465201504 -1.6162713077517623
0.5984744757406516 -1.5590793122503268
0.614354813202096 -1.520581521489531
0.6720575410015508 -1.5832683479381975
0.6995870260903766 -1.5712981871452734
0.735355775428817 -1.576975549443771
0.7627657954129948 -1.5639016405605504
0.7899434695468115 -1.55035135208776
0.8403540973867447 -1.5804761912174792
0.8435687392286266 -1.5218382904225485
0.8949999999999998 -1.5501854727741453
0.9476700578344999 -1.5771878332918865
0.9750514461890971 -1.5604084969278238
1.00213582442765 -1.54315384501958
1.0289149423861743 -1.5254291335012766
1.084059464703477 -1.5481973637061943
1.140303389447398 -1.569492969087398
1.1675211449149736 -1.549352889491748
1.1943832621317774 -1.5287408619970404
1.2523475781891764 -1.546520463299372
1.3112867237605403 -1.5627306639627152
1.3383604191406349 -1.539607543654455
1.3984829672900136 -1.5531726852477539
1.425376572530622 -1.528529236384066
1.4865689127822541 -1.5393871727247135
1.548563850798539 -1.5485638507985389
1.575354162741646 -1.521301831305204
1.6382322916269423 -1.5276763265399966
1.7389588916171026 -1.565765618879728
1.7660204177212864 -1.535178127837787
1.8308462190543575 -1.536262387150829
1.896236145955009 -1.5355417541616032
1.9621467764807379 -1.532997073560889
2.0285341955201237 -1.5286101588062027
2.1358048651498613 -1.5517530660521293
2.1625613969229383 -1.5142417919667617
2.246691821624163 -1.5154127684057237
2.3147307675293702 -1.5032037366414743
2.383015150199557 -1.4890731324953057
2.494356845043147 -1.4987607979882573
2.60673646539116 -1.505
2.7200672892035205 -1.5077579189661081
2.790114393434209 -1.483530138403415
2.904681268854079 -1.4800090291509225
3.0648876978801596 -1.494845610550754
3.181140332498641 -1.4833900987098547
3.297899102089789 -1.4683192815036386
3.4610982489811755 -1.469149043119669
3.625288871356139 -1.4647117802562155
3.790336531578639 -1.4549738751539192
4.050075195587264 -1.4741068177336323
4.169736918392988 -1.435755561156061
4.431923365935416 -1.4400191937872548
4.647641113980353 -1.4209264849525005
4.960110351041726 -1.4222887560157154
5.225658720223859 -1.400211034004637
5.58890338334974 -1.3934701186540854
6.002119599077049 -1.3856984947582076
6.367740880777074 -1.3535051072236137
6.832125196795741 -1.3280306078207522
7.445146612772292 -1.3127802231619934
8.108921276286083 -1.2843269579802956
8.872801895924471 -1.2469909846021863
9.836132362765502 -1.207725193145011
12.19283843721503 -1.2815189596614305
12.362776203318562 -1.0816027674984365
12.77879548382835 -0.8935804286622435
12.84237581694382 -0.6730403972842586
12.802196494114618 -0.44706255275903806
12.808048974953373 -0.2235653264616021
12.81 0.0
12.758056590195553 0.2226927061397379
12.632300053521371 0.4411296383196129
12.592718433255175 0.6599564082235226
12.87855188885433 0.9005560760366589
12.761254082555261 1.1164650645975027
12.739825479667582 1.3390096144586427
12.615261587361205 1.548959354679424
9.863069964666042 1.3861640855622517
8.010152442226566 1.2686835114762722
7.0019831239168 1.234638543211875
6.243148886727143 1.2135452105948255
5.53631542015334 1.1767801700285183
5.076468037531075 1.171994993131537
4.618607657073743 1.151548223054419
4.259732893934791 1.1413919889021171
3.902722485509574 1.1190876646170163
3.6435211202191655 1.1139361949936268
3.433314023825504 1.11555134969356
3.271494271573636 1.126465814421762
3.2513364679192427 1.183389695906814
3.090151211705738 1.186197912994944
2.929900980431048 1.1837568351942824
2.770719608891845 1.1761006967527143
2.384353644447188 1.0615826384278388
2.274832545461991 1.0607718369691554
2.1660936515809923 1.056474463761677
2.05822507087513 1.0487180543983532
1.9513141802182283 1.037532153756819
1.845447582064125 1.022948298719771
1.8099930939094768 1.0449999999999995
1.7486212934323089 1.0506776728165108
1.687615711351288 1.0545393358240778
1.6270209018141224 1.0565997279291528
1.5254291335012768 1.028914942386174
1.4662821592772952 1.026701821068373
1.4076895702124086 1.0227463389889033
1.3496940119799246 1.017067389126962
1.2923376359150238 1.0096848195340795
1.235662078716584 1.0006194217692412
1.218010664559175 1.0220322994015976
1.162252753543069 1.010330904645381
1.144443031235187 1.030461133792642
1.0897170154125642 1.0161775564931228
1.0358493124876573 1.000308053460956
0.9828784258493011 0.9828784258493009
0.9308422164150563 0.9639153324537928
0.9479777204868728 1.0165816452506469
0.8966350125208702 0.9958140661397082
0.8791190988472798 1.0113108374985145
0.8291960164956359 0.9881973316234817
0.8118233044542903 1.0025182902794925
0.7634202294038164 0.9771333344723352
0.7462506287085398 0.9903080324586432
0.7288537128426666 1.0031810730249349
0.6825559592577446 0.9747909327039004
0.6654395551301887 0.9865547113404997
0.6481204516678823 0.9980179758550545
0.6041079612258535 0.9667748296183255
0.5871434053974618 0.9771707228004078
0.4049999999999999 0.7014805770653953
0.39269579239953306 0.7084419627829106
0.34740895646155906 0.653381218715606
0.35865249479424205 0.7038951541088107
0.346313205963371 0.710047296576342
0.33386842677515255 0.7159831517589534
0.3213219480298823 0.7217009115376546
0.296955657651848 0.6995836886238547
0.30343134066688887 0.7510189221990978
0.3727026675271122 0.9709236435570898
0.33859994189241216 0.9302956945780492
0.32231247291258497 0.9360633898433237
0.30592682443119795 0.941545951132202
0.28944798767550917 0.9467417084034052
0.2728809822588292 0.9516490789789357
0.25623085465149575 0.9562665680261775
0.239502676643671 0.9605927690132365
0.1664637802144602 0.7210338479410741
0.11643054685794518 0.5477626564109312
0.10685303741086516 0.5497112227306918
0.09377001594014232 0.5317961866265924
0.0844746111217247 0.5333517039213744
0.07515347451843524 0.534744757120448
0.06580944543877965 0.5359749218863139
0.05644537016453299 0.5370418234988676
0.0470641010837354 0.5379451369695426
0.03418067213462147 0.48880638462731385
0.028261416371189625 0.5392599487674699
0.01779874331827555 0.5096893217797388
0.008900727283014522 0.5099223245297596
