# .PCD v0.7 - Point Cloud Data file format
VERSION 0.7
FIELDS x y
SIZE 4 4
TYPE F F
COUNT 1 1
WIDTH 176
HEIGHT 1
VIEWPOINT 0 0 0 1 0 0 0
POINTS 176
DATA ascii
6.19058956968987e-16 -10.11
0.19127837455262825 -10.958330738914048
0.41914295539703794 -12.00268383249934
0.693974779781437 -13.241827630845648
1.0296055524632917 -14.724045381835005
1.2994921243675828 -14.853262948547926
1.5846515031376265 -15.076951933783024
2.0242497939594997 -16.48619157876236
3.348504809099175 -23.825849733922183
4.100147328704453 -25.887311406998563
7.789857250138498 -44.17847580012765
6.470333033218638 -33.28697779071028
7.071076604711998 -33.26679990095673
3.607055463391045 -14.467109278775107
3.8331100579683324 -14.305361487341102
3.930588693950408 -13.707591784080428
4.256932020763047 -13.923797246821797
4.051212796255561 -12.468350928629462
3.600783788296154 -10.457435446128443
3.3381165988585275 -9.171399978870465
3.1213848405395668 -8.131485514790628
2.9631381539198656 -7.3340242896232875
2.7976348799832 -6.590814750719473
2.6681923785772503 -5.99285820213546
2.5610666661486383 -5.492225189442098
2.4592621334867246 -5.042234599738327
2.4106895536169937 -4.731244643440233
2.328578951418019 -4.379420060580277
2.259212830347931 -4.075727835269585
2.2299999999999995 -3.8624733008785967
2.1683102953713282 -3.6086743359558926
2.0984802863634915 -3.3582704607794467
2.0478427716565015 -3.153401335474794
2.0466460267029336 -3.0342775155514525
1.9845744697746193 -2.8342660732399114
1.9749584477027096 -2.7182971010998234
1.9318262243180748 -2.56361998725181
1.8839241144965146 -2.411312906036569
1.8627883575075186 -2.300352045912634
1.8383725637035024 -2.190887107320277
1.8435258714633256 -2.120733920425989
1.8133439432325058 -2.0139224770437383
1.7800157197631212 -1.9088331612260345
1.778325428375033 -1.8415098888669468
1.7606958851545036 -1.7606958851545034
1.5178069787145538 -1.4657291616684842
1.3968855700926157 -1.3026168677193721
1.441700961426145 -1.2981133763361847
1.3660243402032173 -1.1874668424728183
1.3482382198894014 -1.131306193048309
1.391091271007978 -1.126483499979209
1.426299464028167 -1.1143472703394413
1.6292164404964773 -1.2277026472301784
1.6099438188061455 -1.1696926520620214
1.6301125681350936 -1.1414171083385816
1.6083328907567809 -1.0848342327332487
1.5850873734168514 -1.029367776178401
1.560408496927824 -0.9750514461890971
1.5771878332918867 -0.9476700578344995
1.550185472774145 -0.895
1.5743154728509123 -0.8726573164434067
1.5451582875031222 -0.8215752348753089
1.5325312216039928 -0.7808636595520205
1.5908654619495257 -0.775916929816667
1.6222909387956035 -0.7564866885158519
1.7266009149445158 -0.7687322554132623
1.7397541730251123 -0.7384818328447271
1.7987366778595675 -0.7267367912268691
1.9045040700542917 -0.7310706170724127
1.916972946403253 -0.6977210923843643
1.976133823002572 -0.6804374428154575
2.082813770686386 -0.6767472176811348
2.1421226533572 -0.6549126185789304
2.2205145176175165 -0.6367222919372679
2.279584950042201 -0.6108129464419488
2.3869274866389514 -0.5951278631751823
2.4943873658502023 -0.5758746991202941
2.5529652379152323 -0.542649513034352
2.7092910263155523 -0.5266328272392637
2.7673097859643048 -0.48795137924407433
2.9235574881616078 -0.4630460165190834
3.1292470972233626 -0.4397869990338067
3.23570045435071 -0.3972940595007806
3.3913196632058122 -0.35644205974269805
3.596262860111201 -0.3146322313190456
3.8007190314899306 -0.2657721649651169
4.054435911103569 -0.21248398234635224
4.357344005803258 -0.15216180562290446
4.659290259428784 -0.08132821399774127
4.96 0.0
5.409176030796077 0.09441751882570393
5.856430246331901 0.20451105067665598
6.900530085154105 0.3616414576387424
7.09268039734735 0.4959685283207316
8.876094759997454 0.7765576678816354
8.861190087731314 0.9313486077147937
8.942840826288311 1.0980427840803784
10.506744209348062 1.4766266011862939
13.788129234708125 2.183825131961623
15.520570187472398 2.7366952800308226
19.936848095822054 3.8753306960976257
19.76836301083021 4.201895271426918
19.536119798943968 4.5102686395944955
19.41561748278269 4.840857130949354
6.626251168343008 1.7754986494032936
6.594255234136868 1.890872260904614
6.560250625906424 2.005669894397974
6.524247701784754 2.1198565814121393
6.486257428611314 2.233397539576095
6.493276009630627 2.3633591903803715
4.63055891542612 1.7775050297446895
4.088880798639532 1.6520150769641726
3.9213506757073953 1.6645146073643067
3.8917036495574795 1.7326980995029093
4.246977921651438 2.2581582170001355
2.1952954649198833 1.216872146818306
2.0871212231204974 1.2049999999999996
1.9371980995867735 1.1639860492967224
1.8317838876978805 1.1446256107437227
1.6857278415703019 1.0947244603802047
1.5834617635801296 1.0680584456291264
1.5236228023775247 1.0668521716129462
1.4238699100999075 1.0345020440347528
1.3896257874822893 1.0471581402845644
1.33173817359536 1.0404678933003624
1.235662078716584 1.0006194217692412
1.1797084424032263 0.9898929189172706
1.1245172745319303 0.9775279531958556
1.1072857899613173 0.9970046034746989
1.1262847004935228 1.0502774744962478
1.1077832925215225 1.069773890506856
1.0889444430272832 1.0889444430272832
1.1045068090298056 1.1437502825384556
1.0843773924993727 1.162852385574481
1.0639176641105847 1.1816002725090566
1.0759368075444318 1.237723711565346
1.0541716798859246 1.2563128867151239
1.0635514608742251 1.3133766748622808
1.0404678933003626 1.33173817359536
1.0471581402845638 1.3896257874822897
1.0227463389889033 1.4076895702124086
0.9980229992508199 1.4253245570628459
1.0009552972126368 1.4839772548735248
1.0021358244276501 1.54315384501958
1.0015474094007573 1.6028109017356449
0.9991738653255052 1.6629045633620976
0.9699999999999998 1.680089283341811
0.9647711442902108 1.7404932172073975
0.957721988083217 1.8012130894322111
0.9261406194686757 1.8176533093442706
0.9161956967891713 1.878479556765259
0.9255339932121317 1.9848140536102634
0.8907532483360028 2.0006645522372954
0.8752377278159732 2.0619308717334666
0.8578490989224389 2.1232510269579428
0.8099115659723782 2.1098917638836756
0.7729655239160115 2.1237053229761527
0.7195056213503159 2.0895960520744903
0.6674767078498866 2.054282075197532
0.631522882201111 2.065618272880157
0.5953766885647183 2.076325263226769
0.5461081851663192 2.038103493469934
0.5104551997152987 2.0473239824423524
0.4746467246655554 2.0559208366968464
0.46988042124813584 2.2106135776584006
0.4407687793198188 2.267558793764104
0.41849210817730187 2.3733866847594216
0.5490849722912106 3.4667860754889332
0.5093735495138388 3.6243811315941477
0.46432219837361194 3.781600837753437
0.8111408749569925 7.7174899080578
0.6763285637218271 7.730470857191945
0.534334588880001 7.641340624990254
0.4008934248209491 7.6495022362200356
0.2673301447411583 7.655333734966273
0.1380485349189115 7.908795268687055
