# .PCD v0.7 - Point Cloud Data file format
VERSION 0.7
FIELDS x y
SIZE 4 4
TYPE F F
COUNT 1 1
WIDTH 180
HEIGHT 1
VIEWPOINT 0 0 0 1 0 0 0
POINTS 180
DATA ascii
5.633375276077825e-17 -0.92
0.01518359360043673 -0.8698674947860604
0.03036256213117594 -0.8694700195066133
0.04396220324407293 -0.838848809193842
0.06278082636971291 -0.8978076452338418
0.07844016847289233 -0.896575228282571
0.09616618620624119 -0.9149601437388115
0.11821326310299306 -0.9627697670920823
0.1349979079312635 -0.9605600266793233
0.151741431089024 -0.9580576903772836
0.1684387323369225 -0.9552635204218417
0.18508472551524857 -0.952178367944234
0.20583257390958185 -0.9683661247264675
0.21145399108323323 -0.915907860898121
0.239502676643671 -0.9605927690132365
0.25623085465149553 -0.9562665680261776
0.2728809822588292 -0.9516490789789357
0.2894479876755094 -0.9467417084034051
0.30592682443119795 -0.941545951132202
0.3223124729125852 -0.9360633898433236
0.33859994189241216 -0.9302956945780492
0.35478427004984736 -0.9242446222322297
0.3895908571525487 -0.9642712087494588
0.4063603736288447 -0.957325047590538
0.4230061087988324 -0.9500872759483048
0.4395229922103274 -0.942560098518116
0.4559059926606406 -0.9347458081511336
0.4948496447161061 -0.971197111365321
0.48825042529732654 -0.9182654965732839
0.5284424860685075 -0.9533354807819414
0.5449999999999999 -0.9439676901250382
0.5613915016519592 -0.9343123577653024
0.5776119980141934 -0.9243724248105044
0.6208884999171308 -0.9560844474577832
0.6374799099566514 -0.9451028327127474
0.6538771374401925 -0.9338333304894506
0.6700751876134193 -0.92227937358744
0.686069126393335 -0.9104444814539138
0.7326371556375335 -0.9377327967919991
0.7488912653493065 -0.9248036941337954
0.7649172555269818 -0.9115928873115838
0.813513195948229 -0.9358398794762373
0.8631784822029271 -0.9586568248658386
0.8797778844806232 -0.9434462750887298
0.8961092978921065 -0.92794834243686
0.9121677477306463 -0.9121677477306462
0.9639153324537927 -0.9308422164150564
0.9580733491211135 -0.893417851681873
0.9735197213753867 -0.8765610943301042
0.9509340710806927 -0.8266343765280392
1.0035182204858613 -0.8420517686893665
1.041375588352341 -0.8432893240067821
1.0559344098330075 -0.824986376936382
1.110103358965737 -0.8365228821813471
1.1649844718999243 -0.8464107633011613
1.1795789437761481 -0.8259500683455063
1.235265983107012 -0.8331974261714127
1.2915526746359531 -0.8387441139231415
1.3483964728887174 -0.8425716301307958
1.4057543731514641 -0.8446624428524886
1.4202816622064791 -0.82
1.4781073050655789 -0.8193282582163096
1.536328811574533 -0.81688051924745
1.639452004506597 -0.8353425195207661
1.6537810451904673 -0.8066029100919024
1.8035524962029335 -0.8410103408639917
1.817955460708776 -0.8094059197208423
1.9238551437156002 -0.8166280585425819
2.002717125864261 -0.8091502417783698
2.1098917638836756 -0.8099115659723787
2.1706899540154483 -0.7900665310822949
2.325975695974319 -0.8008976599646055
2.4347046817155933 -0.7910835055998654
2.5915858886598264 -0.7923273197986165
2.701145365586676 -0.7745409698457675
2.9074367371300953 -0.7790453257585872
3.4057379992287475 -0.8491458535548333
3.663631443592484 -0.8458159643329318
3.92237187894256 -0.8337258801792151
3.8872436464527493 -0.7556036216911176
4.096800252530786 -0.7223764190944303
6.034775761036292 -0.9558145813958107
6.050537900010995 -0.8503476468659997
6.014829678946412 -0.7385282210351934
6.026802685931735 -0.6334424874019795
5.98713013553139 -0.523806013913425
5.995359942061544 -0.4192364072021923
6.001763503874988 -0.31453909702009286
6.0063388703847655 -0.2097459751820311
7.758818114413596 -0.13543067395332023
11.56 0.0
11.75820889503916 0.2052402997024544
11.752836125744565 0.41041808122141193
11.743883328713789 0.6154708454170204
11.731353231055532 0.8203361312309146
11.66543991465434 1.0205937475750786
11.695577489530894 1.2292547280276065
11.672342743301948 1.4331834784445339
11.695065891837947 1.6436343223383725
10.82506421292271 1.7145217368409305
10.399569871808918 1.8337247561627847
7.911915098588172 1.5379205027349516
7.834962281877782 1.6653726434502527
6.050838102316311 1.396946047475402
5.249299879153141 1.308797455194203
4.742695807079325 1.2708015114533777
4.575605672666398 1.3120338136889156
6.177728723521209 1.8887212125088793
6.238930746896207 2.027151483099655
6.202601855931518 2.135727093238948
6.211368223394854 2.2607531473826707
5.1907071713244415 1.9925257994718697
4.9697054604779805 2.007891340709289
3.78327494768953 1.6059049380909158
3.5719627393825695 1.5903402744263793
3.2717711112023062 1.5256519248839246
3.2446465071399926 1.58251983990857
3.216533552320008 1.6389057040597639
3.2315881898636727 1.718265919796361
3.2011081281301887 1.7744032101015936
3.2562555182294894 1.8799999999999992
3.222949050639942 1.9365431616618038
1.5180060921200027 0.9485554829774367
1.5012203166223088 0.9749038726768987
1.4425253762457726 0.9729956520390994
1.384366954848396 0.9693441774332682
1.3267878707749137 0.9639678137596559
1.2698304609751956 0.9568858868117571
1.2135365605543518 0.9481186720015138
1.1968047806437354 0.9691534022167494
1.1414062202472772 0.9577535384329436
1.0867817955207917 0.9447250017463302
1.0329713074135778 0.930091542838813
1.016581645250647 0.9479777204868728
0.9639153324537924 0.9308422164150565
0.9475230867899738 0.9475230867899737
0.9308422164150563 0.9639153324537928
0.8797778844806231 0.9434462750887299
0.8297219518849843 0.9214995835919687
0.813513195948229 0.9358398794762373
0.7970566360113089 0.9498951094675328
0.7488912653493065 0.9248036941337954
0.7326371556375335 0.9377327967919991
0.6860691263933348 0.9104444814539139
0.6700751876134193 0.92227937358744
0.6538771374401923 0.9338333304894507
0.609520264783114 0.9036509540849955
0.5936565481663797 0.9141509190605122
0.5776119980141934 0.9243724248105044
0.5613915016519592 0.9343123577653024
0.5199999999999999 0.9006664199358163
0.5042020050561906 0.9096044954249716
0.48825042529732626 0.918265496573284
0.47215011972912874 0.9266467851559026
0.45590599266064036 0.9347458081511337
0.41839207912329246 0.8972447091662834
0.4026692766450424 0.9044100030661747
0.38682381720438097 0.911299804917916
0.3708605274817531 0.9179120160211194
0.35478427004984714 0.9242446222322297
0.32149893472612867 0.8833110635387538
0.32231247291258497 0.9360633898433237
0.29047597471245057 0.8939931253174442
0.28944798767550917 0.9467417084034052
0.2590991144679792 0.9035859941820197
0.2432899023963697 0.907970276711724
0.2274065818636876 0.9120779826994366
0.21145399108323323 0.915907860898121
0.19543698936869366 0.9194587446897773
0.1793604556539522 0.9227295524408041
0.1632292870069144 0.9257192878314756
0.13922667388580554 0.8790426231296726
0.12386405985445807 0.8813385811799976
0.11455718280083864 0.9329933825428426
0.09616618620624139 0.9149601437388115
0.0801832833278455 0.916499122244406
0.06417595584459543 0.9177589262390383
0.048149079743508245 0.918739171974208
0.032107536966301 0.9194395608575682
0.016056213922300708 0.91985987954388
