# .PCD v0.7 - Point Cloud Data file format
VERSION 0.7
FIELDS x y
SIZE 4 4
TYPE F F
COUNT 1 1
WIDTH 180
HEIGHT 1
VIEWPOINT 0 0 0 1 0 0 0
POINTS 180
DATA ascii
9.980871413050927e-17 -1.63
0.027574802170908085 -1.5797593583470984
0.05514120478995171 -1.5790375066901714
0.08530760867599865 -1.6277661416499551
0.11370305220292448 -1.6260294019235133
0.13770607354129988 -1.573987622984958
0.16515497196289247 -1.5713445946818718
0.19255356258013304 -1.5682229195932889
0.2268521545649067 -1.6141369520487596
0.2549881780155764 -1.6099319951700746
0.28304652959709653 -1.605236637409899
0.3110186624637682 -1.600052309019692
0.33889605603294787 -1.594380589196103
0.37791777129769344 -1.636941708839195
0.3943326898274583 -1.581582033829874
0.4218750435171088 -1.5744590968511814
0.46307075777255857 -1.6149196491763758
0.49118446393419773 -1.6065919900178995
0.5191485505499117 -1.5977749473758578
0.5632329072108812 -1.6357471357868179
0.5916948479534071 -1.6256682339596213
0.6199765527133696 -1.615094137840159
0.6368312088070507 -1.5762125527635384
0.6759648522864435 -1.5924733964727218
0.7239912246749247 -1.6261109146038293
0.760712871133259 -1.63135401666597
0.7803006412845579 -1.599853402412517
0.8171828995311844 -1.6038117435390622
0.8450488130146036 -1.5893056671460684
0.8726573164434068 -1.5743154728509123
0.8999999999999998 -1.5588457268119897
0.9528204385836004 -1.5857595062989076
0.9803506388314291 -1.5688889778893882
1.0348141665285515 -1.5934740790963053
1.0624665165944192 -1.575171387854579
1.1184740508845397 -1.597346486363534
1.1755705045849463 -1.618033988749895
1.2036300463040965 -1.5972710200945857
1.2313229506513168 -1.5760215072134438
1.2901068016521666 -1.5931492209867901
1.3498539803417327 -1.6086933305498539
1.4105269123295905 -1.6226255974789598
1.4386308036715452 -1.5977613747763975
1.500396392137497 -1.6089781435621748
1.5282484150097941 -1.5825475607450326
1.5909902576697321 -1.590990257669732
1.6544815407788975 -1.5977142520556935
1.718681198805051 -1.6026961461468714
1.7835475811457464 -1.6059134552612595
1.88677395055693 -1.6401475724762682
1.915111107797445 -1.6069690242163481
1.9817222017152756 -1.6047669971770853
2.048827959377477 -1.6007198358467114
2.1563158771276907 -1.6249005625105304
2.1600753749811097 -1.5693866236209033
2.2690511626805074 -1.5888067286923975
2.3378859546052175 -1.5769239877875059
2.4908515867979095 -1.6175779339946301
2.5611052503924068 -1.6003561779842788
2.6743619781905905 -1.6069187937193687
2.7886018001858925 -1.61
2.8600064423458242 -1.5853274582055221
3.01968076757753 -1.6055927447277465
3.1808932913524735 -1.620746084070182
3.298574149917943 -1.608822108715914
3.4167803571281703 -1.5932708467624368
3.626775466841126 -1.6147444730109266
3.7924799962240545 -1.6098122493758076
4.005434251728522 -1.6183004835567396
4.219783527767351 -1.6198231319447574
4.435349170109487 -1.6143350764971565
4.699227320728604 -1.6180737276520687
5.012067840875459 -1.6285195603559726
5.326617490714108 -1.6285103953056437
5.690669239954848 -1.6317731464366347
6.104651222146912 -1.6357363650479309
6.520387280574696 -1.6257151384297663
6.986233364510136 -1.612899059645511
7.64911423773836 -1.6258694221948786
9.34509078642176 -1.816501635984707
9.37536980867622 -1.653130651389177
10.242328091971578 -1.622225402467194
10.566160293472556 -1.4849769872438978
10.54084013043084 -1.2942524269626656
15.981966858568152 -1.67977240471119
14.76360542571967 -1.2916481075202926
16.529636312805287 -1.1558647699401543
13.201882449455466 -0.6918813415317184
13.211946733192447 -0.46137134640706345
13.317971299483132 -0.2324660537446167
15.22 0.0
16.71745346301486 0.2918042356313807
8.914566177010334 0.31130351058630906
8.857843973273068 0.4642199318749124
9.097784138369596 0.6361790405464236
9.035485911692133 0.7905025867212607
16.827310469631186 1.7686215984886993
10.68972205317704 1.3125328284734379
10.912754117532105 1.5336875725799208
8.760795581078872 1.3875737049068477
8.489042830965232 1.4968472914889395
8.363463602974097 1.6256926406081622
8.627261838472165 1.833781113012638
9.422158526473225 2.1752766955051754
7.490683006850692 1.8676370340294357
7.07057704843598 1.8945554101504531
6.555804766299335 1.879846766671934
6.18729177108084 1.8916449295561064
5.820465879726339 1.891184005574678
5.55019403876799 1.91108506666351
5.23408789777751 1.9050521983239752
4.966647868965113 1.906517491580998
4.700822142653612 1.8992554286186747
4.482858636313384 1.9028605957427638
4.266257287190946 1.8994601231639874
4.051195808053825 1.889103629980926
3.9277299823273597 1.915681911468269
3.7600475320749123 1.9158399089008875
3.5935967029358324 1.9107492605385763
3.4285092519864313 1.9004537113656412
3.3082170424565556 1.9099999999999993
3.1886623586118574 1.915941638665402
3.0699341080862625 1.9183077365242018
2.9101868707706213 1.8898974515021445
2.793856619510491 1.8844800846964167
2.719584787039452 1.9042737686854736
2.6454855716060783 1.9220577749963872
2.531674566849918 1.9077536233919936
2.4585935512529726 1.9208638030160539
2.3469808036000526 1.9005475809705086
2.236849773907416 1.876939820284695
2.1660164952393557 1.8828894132027556
2.1179627526105733 1.9070222281227462
2.0477903645336775 1.9095954081749955
1.9781844509312903 1.9103105187622427
1.9091883092036785 1.9091883092036783
1.8408446817163424 1.906250470897426
1.8072956541656209 1.9380873092908018
1.7397395765330317 1.9321765462412248
1.6729505239257934 1.9245094295680685
1.6069690242163488 1.915111107797445
1.5418349580721018 1.904007605569579
1.5083706145478633 1.9306263463364688
1.4443560555649155 1.9167252241135029
1.3812953428873118 1.9011899367811267
1.347904625424958 1.9250073040791311
1.2861436779827176 1.9067864168765958
1.2254378287838112 1.8870087778772038
1.192318344524711 1.9081082163519585
1.158835668547622 1.9286264265797526
1.0999999999999999 1.9052558883257653
1.0665811645419416 1.9241633557066709
1.0328374381289596 1.9424847042896396
0.9760795744400257 1.915664027004991
0.9205794082570622 1.8874674972282508
0.8874983496554688 1.903246352776965
0.8541469504591809 1.9184454610494617
0.800998813403011 1.8870349495775025
0.7866738461734156 1.9470860945902535
0.7346542965678653 1.9138398743192635
0.6840402866513376 1.8793852415718166
0.6674147166371709 1.9383130799785995
0.6334848384686422 1.9496658584050646
0.5847434094454731 1.912609511926071
0.5512747116339983 1.9225233918766378
0.5046971379499159 1.883555361263683
0.48384379119933535 1.940591452551993
0.43865455597053704 1.9000216263312086
0.4054277970946305 1.907387821430921
0.3778018108455589 1.9436218232263747
0.3351409828971753 1.9006789633135617
0.30191851752764565 1.906238497348616
0.27556273990092917 1.9607307761083093
0.24130129994219202 1.9652413802498174
0.2017399341065716 1.9194272580607674
0.1682105835029802 1.9226557673170688
0.13462999432616213 1.9252986170014605
0.10100839554888143 1.9273550020763275
0.06910100347095213 1.9787938374978096
0.033683144423956916 1.9297060516518352
