# .PCD v0.7 - Point Cloud Data file format
VERSION 0.7
FIELDS x y
SIZE 4 4
TYPE F F
COUNT 1 1
WIDTH 180
HEIGHT 1
VIEWPOINT 0 0 0 1 0 0 0
POINTS 180
DATA ascii
1.310372075087668e-16 -2.14
0.037348149775786904 -2.1396740676346773
0.07642989777847736 -2.1886659111718196
0.1172325419841945 -2.2369301578502454
0.15625450118684103 -2.2345434725820064
0.19958665089213715 -2.2812858586300973
0.24459660404630906 -2.3271812351617593
0.2851742635680451 -2.322557994840693
0.3326237112945565 -2.366740684292353
0.38170009469816346 -2.409959551052136
0.4323839623906568 -2.452171305000398
0.4846548482564241 -2.4933330459570664
0.538491279217997 -2.5334022859005563
0.5826232307506107 -2.523618467793759
0.6386738043831227 -2.561580717368631
0.6962232313257808 -2.598340472717594
0.7552463549385777 -2.633857046870994
0.8010984709402988 -2.6202750313387173
0.8776082640248507 -2.701000506278236
0.9246135586583252 -2.6852727547020594
1.0055392213774663 -2.76269630511057
1.0715201691404481 -2.7914054752266333
1.1275658461818956 -2.7908234022460294
1.1956372531771775 -2.8167448515644677
1.2649509599657391 -2.841126373268488
1.3354737071006102 -2.8639326070358138
1.4071713811929387 -2.8851288886203257
1.5027085541379002 -2.9492315950634977
1.5539508728212987 -2.922556532363048
1.6289603240276926 -2.9387222159883697
1.7299999999999995 -2.996447897094158
1.8077836429342904 -3.0086572254644137
1.8865125806702094 -3.0190512223168766
1.9661469164042478 -3.0276007502829803
2.0466460267029336 -3.0342775155514525
2.1279685788623808 -3.0390540843121596
2.210072548619699 -3.041903898849802
2.292915238209304 -3.042801293280186
2.4072363685233245 -3.0811220466022826
2.4606427290048645 -3.0386407092967564
2.5775783148430227 -3.0718382169071017
2.663599657701459 -3.064120895704454
2.7166702618169642 -3.01716799143822
6.724503830216236 -7.211147497965019
6.606201103065064 -6.8409215012205715
6.477098115668776 -6.477098115668775
6.337383640983517 -6.119940243743766
6.223820000779141 -5.8038060441318615
6.1383762584432775 -5.527018808524168
6.045223737584403 -5.2550328222139635
5.982807100759218 -5.020171231651871
5.8752234686147 -4.75766215633677
5.799759146545474 -4.531268458396845
5.718230251938617 -4.308995565768666
5.671209130568381 -4.120374618570237
5.578425421608034 -3.9060555315506233
5.521390233216578 -3.7242247371151738
5.501678925721982 -3.5728320696985767
5.435988296362691 -3.3967824837348437
5.365867302395223 -3.2241383489369384
5.29141521712292 -3.055
5.256464439907768 -2.9137058176804858
4.9533359959385805 -2.6337354672288478
4.909445948277907 -2.5014876535649027
4.862475790478494 -2.371587904128909
4.903125127868276 -2.2863647960171836
4.9879581987286015 -2.220782071193869
5.118006985195568 -2.1724650744003613
5.155142231391338 -2.08281265939247
5.237386192649302 -2.010444196949135
5.318660233648242 -1.9358340112232852
5.398911066672099 -1.8589941619503647
5.478085533860084 -1.779937887599697
5.556130632145236 -1.6986796044391002
5.584930453401633 -1.6014530372967648
5.660325342053941 -1.5166796043007713
5.734447742291139 -1.4297584029940356
5.807245586120002 -1.3407082838894346
5.878667080410171 -1.249549261814734
5.89957937252046 -1.1467620622130346
5.96793498325398 -1.0523079566615978
6.034775761036292 -0.9558145813958107
6.149564706885152 -0.8642649569620062
6.163711601692611 -0.7568086225459656
6.22570706500539 -0.6543481800555102
6.2361788100543265 -0.5455949496003395
6.294629157139491 -0.44016334932542983
6.30135236430136 -0.33023988389297604
6.3561256598414495 -0.2219607990279065
6.359031341194648 -0.1109973049411233
6.41 0.0
6.409023725952468 0.11186992526298747
6.456064742543359 0.22545074869815657
6.451146794514547 0.3380902773294176
6.494141967191456 0.45411464407425634
6.385608014768089 0.5586683110124897
6.325159254542219 0.664801026382277
6.262966216856742 0.7689955568864802
6.248591513759308 0.8781822670580127
6.232313429155319 0.9871014744038568
6.854261960964968 1.2085913165618354
7.666508302726255 1.4902182538908153
8.030591802024544 1.7069549816138048
8.730355780475708 2.0155614469210312
8.40276098955013 2.0950436158931236
21.404916310565753 5.735430039471863
25.819489152903245 7.4036193772445955
12.91967725306061 3.949941730804173
13.229196141665586 4.298426391755518
13.861302318285984 4.772829144341917
25.00522063911302 9.101156013896047
22.601982125497255 8.676088058491722
22.58619869724694 9.12541661561162
12.94229823954131 5.493679666559191
9.555685486941606 4.254465286572872
9.389348673699693 4.378325191633645
9.266566617344411 4.51960652339539
11.903847163156595 6.065313076520345
6.719231181656434 3.5726785928006306
5.868698234905345 3.2530725518529215
5.5079215680690305 3.1799999999999993
5.4087256674303275 3.2498902526824422
5.351183486747048 3.3437905573115225
5.333944812132897 3.463904262695573
5.3141308400778176 3.584426511247487
5.332679808321336 3.733982600645311
5.22624978366216 3.7970927298093766
5.159185394905511 3.887725049562233
5.0905494682994235 3.9771731306037523
4.942648314866336 4.002477687076965
4.8720426582367 4.08812919760639
4.762217451205691 4.1397324729301
4.652086607488487 4.188757595806453
4.614841857216966 4.303409651994365
4.503067150119955 4.348561399073323
4.39113311116846 4.391133111168459
1.2920645690537347 1.3379720286298915
1.1866771465087473 1.2725554408173565
1.1642872550644134 1.2930719963306658
1.1415427104434825 1.3131946695876233
1.1184504408545788 1.3329173310270217
1.1705359273526976 1.4454914883099659
3.669342392940924 4.696544091496063
3.5567267868286048 4.719935864379502
3.444421578433893 4.740839587037192
3.3611579170171293 4.8002309795334925
3.2209511239915014 4.77525641791704
3.1098888899358053 4.7888089429683705
3.0258389987716 4.842354629053192
2.9151155039909074 4.851566921973955
2.7799999999999994 4.815101245041479
2.695541488569634 4.86288557169504
2.5633147328109627 4.820893857009741
2.478788128577926 4.864895622068489
2.349669346789454 4.817536088163536
2.286364796017184 4.903125127868276
2.24111890334766 5.03363547161073
2.1920016308248256 5.164032227868191
2.251385626429632 5.572374965946391
2.207546569199049 5.7508554272227626
2.1410460972186867 5.8824758061197855
2.0706134623475156 6.013498140811655
2.011700633380908 6.1913779210814495
1.9471955534534255 6.368989674713817
1.8908722609046142 6.594255234136868
1.814321506168672 6.771140042286368
1.7442568672736039 6.995832186449935
0.49714183009994195 2.1533578431753697
0.4553266028908927 2.1421432456070346
0.4083312501058061 2.100682172578001
0.3490328371105297 1.9794635835545382
0.3113045854300595 1.9654997977843243
0.2839131259585331 2.0201468602328037
0.2571443145848612 2.094272379963189
0.9574807235317078 9.109820561573384
0.8288511135302289 9.4738115788525
0.687798831117077 9.835981535561865
0.21248398234635157 4.054435911103569
0.13994698177702933 4.007557216346574
0.068238909169778 3.90940448806149
