# .PCD v0.7 - Point Cloud Data file format
VERSION 0.7
FIELDS x y
SIZE 4 4
TYPE F F
COUNT 1 1
WIDTH 177
HEIGHT 1
VIEWPOINT 0 0 0 1 0 0 0
POINTS 177
DATA ascii
1.3716044150450358e-16 -2.24
0.03909339041951526 -2.2396588371503166
0.07642989777847736 -2.1886659111718196
0.1119989463599001 -2.1370672043747883
0.14927885381242847 -2.134787067556024
0.18651328947998844 -2.1318566539163357
0.2236909113927784 -2.128276856088105
0.2608003948870156 -2.124048764512429
0.2908717810065368 -2.0696602636698818
0.3269480319340826 -2.064268631843838
0.35424228244053807 -2.0090078161449045
0.38925035056815166 -2.0025194542332345
0.4241398492682293 -1.9954211054969635
0.4589001508614849 -1.9877149321618799
0.4935206670233221 -1.979403281603033
0.5357554233622179 -1.9994664604183712
0.5567874587503383 -1.9417486257954042
0.5964382776343831 -1.9508617021645924
0.6674767078498866 -2.054282075197532
0.7520624367960321 -2.184147909634422
0.8926725740799956 -2.4525977402512207
1.024932335699559 -2.6700400197819967
1.2024871648650781 -2.976260173159387
1.4300759302707418 -3.369047763635932
1.7530349316566995 -3.937380922439609
2.180710230582009 -4.676548181109114
2.8099590509179864 -5.76126983677766
4.294750127536114 -8.428921718821961
4.441200983954528 -8.35268422844545
7.058828070786668 -12.734462935949603
10.324999999999998 -17.883424588148657
11.87677800742585 -19.766277954190706
12.219938233217704 -19.55598909736718
12.559376147446525 -19.339743296821474
6.911624286898431 -10.246904396780314
5.442891436228301 -7.491497367912014
4.519630823871882 -5.997752680455169
4.623617679695695 -5.917960759586482
4.75766215633677 -5.8752234686147
4.859474329230237 -5.791295989979473
4.99260921061776 -5.743339905495295
6.3299755361548 -7.03015004901615
4.030610307969367 -4.322300376569297
3.8623005397520243 -3.9995292898829
3.6840263299819127 -3.6840263299819123
3.603892399696642 -3.480238435999576
3.6640820451120444 -3.416811783913117
4.335811548053416 -3.638177870825812
4.359788843773607 -3.530487393789588
4.460140865414047 -3.4846439503432256
2.7233470892612686 -2.052189228948485
2.677846251381076 -1.945569185088086
2.588520459953214 -1.8125015388693055
2.536854972018428 -1.7111302846204852
2.4824648811184553 -1.6121315436444799
2.4254175550073787 -1.5155690957069659
2.3657817499378297 -1.4215050867517491
2.303627574066607 -1.33
2.282757435633823 -1.2653531088429397
2.2161984580759064 -1.1783736225925858
2.147325723293967 -1.094117104372308
2.148117770655009 -1.047707040825895
2.1207602216657606 -0.9889267324732365
2.1833736437658167 -0.9721005769511624
2.2460318424239545 -0.9533839535138278
2.262328605142961 -0.914040087934825
2.3712942833028925 -0.9102545918450629
2.386819256796207 -0.8687311640471986
2.4488931108022305 -0.8432215200440358
2.4632363772044474 -0.8003540154311137
2.5246445557424138 -0.7718613004680249
2.633857046870994 -0.7552463549385776
2.6949330553465005 -0.7221051358360328
2.5809866318941506 -0.6435122422951159
2.377462958075974 -0.5488805725990302
2.3573357177684717 -0.5010671748708002
2.4148028712812533 -0.46939012862630036
3.0135117242173566 -0.5313634236608069
3.0717107392508782 -0.48651118627511797
2.3865460456671848 -0.33540717331375763
2.34240891787352 -0.28761165043614795
2.347071673069125 -0.24668717331166198
3.0981655110653286 -0.2710543599452166
3.0525459937950625 -0.21345480965702304
3.005874899611267 -0.15753122829126115
3.008166389327478 -0.10504748507452806
3.0595339471785574 -0.05340436369808762
3.16 0.0
3.2595034862098355 0.05689484498554433
4.157465840399438 0.14518190628240424
4.304093294792213 0.2255679714070882
4.449135664158816 0.31111387289879927
4.642267293107534 0.40614576120408763
8.91091618249973 0.9365750308781764
6.014829678946412 0.7385282210351934
5.703944075951445 0.8016370615299767
6.281697846185076 0.9949231976558683
8.429954365784502 1.486428400828924
8.353647331139621 1.6237845506543966
8.275128702207995 1.7589329043182447
8.827792786954232 2.038056552355418
8.887908852688128 2.2160045636929575
5.998399381255114 1.607266270086655
7.988084693247431 2.2905464268392626
6.416804912511968 1.9618141386895633
7.808173998783212 2.5370295238183185
5.16253142277227 1.7776021233360755
5.036752447412469 1.8332279682255848
5.050670107349862 1.9387706070400748
5.062423845934659 2.04535200005088
4.979931257177702 2.1138554051269716
6.678017295367412 2.9732448608841002
6.534479144534246 3.0470776671504427
6.390425669187077 3.116818853670342
7.315163563586501 3.72726200286168
7.5138840152294675 3.995202999307932
7.6616686345411065 4.2469322733579125
7.629683807340905 4.4049999999999985
7.508785554150503 4.511733536212075
7.471303727138114 4.6685887178945356
6.759684777640118 4.38979062222112
6.640590956165884 4.479135156800682
6.602365476969274 4.623026076989433
6.520676974662077 4.737549133477334
6.476933986483544 4.880719837763113
6.430167749430851 5.0237976386573715
6.924370516581612 5.60724468425405
6.825455988190094 5.727237602307066
6.498049485718067 5.648668239608266
6.138376258443276 5.527018808524169
5.894710835050515 5.496906782103738
5.7619118007125945 5.564213547376569
5.699280656363574 5.699280656363573
5.842076895560166 6.049647720848058
2.4620140798256194 2.6401868628452054
2.181365776729878 2.4226521310563047
2.0403435801604775 2.347146794492821
1.9990694661251376 2.3823982181000214
1.8942543770600104 2.339209343985482
1.8531410407302316 2.3719123683562326
1.7512817173724602 2.3240293342376224
1.7398443467857205 2.3946903033498446
1.8985380043219622 2.711393266596563
1.7670495749675599 2.619758729273932
1.721059350647486 2.65019899470754
1.7010408381885878 2.722234388662127
1.576016509224766 2.6229319401484634
1.5299999999999996 2.6500377355803826
1.4350364759291578 2.5888743331326114
1.3426886695676472 2.525230115576531
1.2757133042681268 2.5037283329693136
1.1879858077983994 2.4357318654707427
1.1241645762302606 2.410778713517489
1.0615826384278388 2.384353644447188
0.9924570663627552 2.3380823277691984
0.9327704176056214 2.3086877978713005
0.8744177968905323 2.277936240653172
0.8174281425483485 2.245865363678321
0.6478806273697415 1.8815819654426404
0.5685912696499034 1.7499439899830826
0.5379639366898352 1.7596007509719855
0.5071727347032785 1.7687215205265068
0.4762270429886386 1.7773035203718857
0.5177128565832888 2.0764328542306325
0.4296565137967824 1.8610468237397992
0.3929530956455649 1.8486989653868926
0.36062900126166986 1.8552753767160848
0.3316680193438367 1.8809828082533175
0.3425914784381057 2.1630374659033516
0.3117477461505462 2.218200473981118
0.2851742635680451 2.322557994840693
0.2445966040463096 2.3271812351617593
0.21266001230428586 2.4307150633438592
0.17369361962287239 2.4839344851469622
0.13293332885707712 2.5365190182766177
0.09213467129460286 2.638391783330413
0.04694697331629228 2.6895902999706927
