# .PCD v0.7 - Point Cloud Data file format
VERSION 0.7
FIELDS x y
SIZE 4 4
TYPE F F
COUNT 1 1
WIDTH 178
HEIGHT 1
VIEWPOINT 0 0 0 1 0 0 0
POINTS 178
DATA ascii
1.2895530795021628e-15 -21.06
1.1048120362885472 -21.081069478669054
1.469071337051282 -21.008698898471895
1.3082076986423485 -14.9528824183571
0.8999900687344962 -8.562833519120833
0.47407174584602374 -3.8610045298847426
0.4411787300434075 -3.1391497779107778
0.48807553092552053 -3.08158762265683
0.5487282414275001 -3.1119924995185775
0.5170923774704367 -2.660209667143169
0.5010671748708003 -2.3573357177684717
0.4746467246655554 -2.0559208366968464
0.46207082059536525 -1.8532648371871532
0.44258056712531046 -1.6517331629543068
0.4299942750745187 -1.4995682456637776
0.44148127413133254 -1.4440201815041835
0.4202631123499286 -1.293436862161409
0.4102158746160175 -1.191353405255139
0.4070039705575459 -1.1182342187352308
0.43720889844526645 -1.138968120326586
0.4382897142966172 -1.084805109843141
0.47669197675691394 -1.1230159212119772
0.4880839716909604 -1.0962545491711209
0.5029157314714323 -1.0785062665736134
0.5348127990826745 -1.0965287364849836
0.5538684096822472 -1.087027959509809
0.5586711597152101 -1.050707635502123
0.601163929105458 -1.0845284368528507
0.6349999999999999 -1.0998522628062373
0.654098355135769 -1.0886024718916825
0.6835958508608343 -1.0939820440417896
0.702584355169385 -1.081885032649597
0.7213588454772635 -1.0694584685960038
0.7571208959833808 -1.0812806984614691
0.7699986805031398 -1.0598122626311812
0.8365228821813471 -1.110103358965737
0.948118672001514 -1.2135365605543518
0.9376873826642577 -1.1579474825708866
0.9898929189172706 -1.1797084424032263
1.0431338560949066 -1.1999882325542075
1.0639176641105847 -1.1816002725090569
1.0843773924993727 -1.162852385574481
1.1392397275527555 -1.1797172725553877
1.1950104602052654 -1.1950104602052651
1.2156842625723205 -1.1739726460757054
1.2359877557363983 -1.1525772285056224
1.2559147550567964 -1.1308307247464702
1.3131946695876233 -1.1415427104434825
1.3712195531829707 -1.1505898213389052
1.4299485690808265 -1.1579495195317009
1.4499397866363686 -1.1328171145992112
1.5094211139893834 -1.137430393757371
1.6099438188061455 -1.1696926520620214
1.6301125681350936 -1.1414171083385816
1.6912366480122851 -1.1407535230803234
1.7276613699675736 -1.1219564121309555
1.687615711351288 -1.0545393358240778
1.6800479093761402 -1.0094746268237058
1.7407110616067214 -1.005
1.827955187921337 -1.0132521063148443
1.8895078487181038 -1.0046691443618063
1.9513042879725258 -0.9942391944296075
2.0582383660250927 -1.0038699261469872
2.1207602216657606 -0.9889267324732365
2.1559672800365384 -0.9598984776588884
2.264441939493003 -0.9611985760836131
2.373590667690976 -0.9589928791447345
2.4366449131576964 -0.9353403483132338
2.5935516333691067 -0.9439755955788457
2.751459054994012 -0.947403329470326
2.4347046817155933 -0.7910835055998654
2.476829317944262 -0.757242715231888
2.4608299416020962 -0.7056316308915177
2.5693626979289217 -0.6884586599727051
2.67801620452175 -0.6677044318550825
2.8841353917642962 -0.66585512085784
3.92237187894256 -0.8337258801792151
4.181731801487048 -0.8128463203040811
4.490723353735668 -0.7918356901612024
4.849549752322127 -0.7680932233475336
5.2088100415806595 -0.732050511049944
5.617811218289884 -0.6897804836731345
6.126254875468564 -0.6438953337287449
6.7342761591002 -0.5891728209741686
8.23987905514615 -0.5761884731264739
8.448405864023696 -0.44276218981530546
9.80402401305733 -0.342364062651535
11.508246971250063 -0.2008771980931335
14.06 0.0
14.757751980508335 0.257597519014305
22.696165681603667 0.7925675701137982
43.30057662695832 2.2692870626940476
43.20449901675299 3.0211528778580714
43.195002109258084 3.7790730055384634
43.17219547793674 4.537580590448843
33.06171231117244 4.059467828825461
22.488987841121062 3.1606211228030854
22.38101779788582 3.5448049778116317
14.634243209761411 2.580411920130585
12.378318783275041 2.4061014316982305
10.67159032400582 2.268316546821755
9.509851832303896 2.195522290396123
8.45127577586393 2.107139710673107
7.688769577260983 2.0601995990160664
6.978759912512195 2.0011272032314134
3.786966833613621 1.1577919507020373
3.623525327084535 1.1773547485685496
3.696977630593329 1.2729714839274828
3.5802288851943107 1.303096746070798
3.6036204462791988 1.3833002852448593
4.506113533194586 1.8205880440013331
4.24352737441575 1.8012705023355526
3.98305819532174 1.7733717638104896
3.770240394072464 1.7580919688413095
3.559224423344701 1.735949741284747
3.394734857157682 1.7297038040076733
3.2315881898636727 1.718265919796361
3.0261841867023094 1.6774412860523262
2.909845356715714 1.6799999999999993
2.75150703525378 1.6532722204612742
2.6798319838543065 1.6745448749769276
2.5663319379129974 1.6665954471459832
2.4124993361351716 1.6272513490998732
2.342774846666516 1.6404286079639923
2.2733377541936024 1.6516765589418496
2.164302232228163 1.6309187127420515
2.056708066913544 1.606876450599968
1.9894936613298457 1.6110602010875834
1.9074506633662554 1.6005411481194831
1.8414913757435636 1.6007840307368375
1.776116132890972 1.5992221491976715
1.6747999767079007 1.5617762445431216
1.6472881427755108 1.590767668351104
1.548563850798539 1.5485638507985389
1.5213018313052038 1.5753541627416463
1.4594764905337467 1.5650969214650248
1.3984829672900139 1.5531726852477536
1.3383604191406349 1.539607543654455
1.3112867237605406 1.5627306639627152
1.2523475781891764 1.546520463299372
1.2251663358980602 1.5681413996773765
1.1675211449149734 1.5493528894917483
1.140303389447398 1.569492969087398
1.0553806428859245 1.5072397614917452
1.028914942386174 1.5254291335012768
1.0021358244276501 1.54315384501958
0.9485554829774367 1.5180060921200025
0.8961662503434944 1.4914711032216752
0.8699999999999998 1.5068842025849234
0.8193282582163097 1.4781073050655789
0.8168805192474498 1.536328811574533
0.7672439445598341 1.5058010258783416
0.7408472380735405 1.5189619382455923
0.693093949254747 1.4863447707401058
0.6670480946443126 1.498214550533865
0.6407990507224088 1.5096279596620021
0.5956244835313004 1.474222328761192
0.5698050397770272 1.4843928781305509
0.5438120278878135 1.4941112670495944
0.5013749578640211 1.456098606422948
0.49133702105616645 1.5121798609092942
0.4590235764146964 1.5013984668619658
0.4327506486326887 1.5091808626231606
0.39858132945788227 1.4875257724851652
0.3677212813114949 1.4748495039395146
0.33517707097235905 1.4518113965300006
0.31602577004299404 1.4867843531153846
0.28621349306481736 1.472440775171496
0.26047226650039534 1.4772116295183122
0.23778038686115102 1.5012862777046094
0.21154311345929916 1.505207464487187
0.19377225601418452 1.5781483811097021
0.17874367218768777 1.7006324410797473
0.16646746864802703 1.9027318733552339
0.11161035799060073 1.596102480415719
0.08373752998871 1.5978072556073182
0.0614231141964019 1.7589278555536085
0.0408386310632431 2.3396436066659554
