# .PCD v0.7 - Point Cloud Data file format
VERSION 0.7
FIELDS x y
SIZE 4 4
TYPE F F
COUNT 1 1
WIDTH 179
HEIGHT 1
VIEWPOINT 0 0 0 1 0 0 0
POINTS 179
DATA ascii
5.878304635907295e-17 -0.96
0.016754310179792255 -0.9598537873501356
0.03175854199927598 -0.9094456525873772
0.04762572018107901 -0.9087528766266623
0.06696621479436043 -0.9576614882494312
0.08802730017513472 -1.0061566450726631
0.10557374790032999 -1.0044671143219561
0.12308803683919897 -1.0024716131577351
0.14056483196966613 -1.000170749428986
0.1548701203898286 -0.9778114571891864
0.17191169589026112 -0.974959675482086
0.19271708533031037 -0.9914434552821406
0.22038639226682502 -1.0368364567778339
0.23844811760449705 -1.0328322686723495
0.25643720933564773 -1.0285134698525562
0.287289140063798 -1.0721776671808658
0.29217559716601915 -1.018937397694618
0.32453259224223785 -1.0614982791189693
0.3430088637561917 -1.0556727330876206
0.3776590591703018 -1.0968015476952073
0.3967433662577758 -1.0900434401116537
0.39778842399528347 -1.036274273411894
0.4345436483624581 -1.0755332712974732
0.45324810904755747 -1.0677856300048307
0.4718145059679284 -1.0597127308654168
0.4902371836192113 -1.0513170329625139
0.5304290876147837 -1.087540796021992
0.5493285046848517 -1.078117894267925
0.5915341691102225 -1.112513967002248
0.5866196404980679 -1.058289845638669
0.6549999999999999 -1.1344932789576148
0.6746998781321711 -1.1228891639197671
0.6941942361454985 -1.1109430059649181
0.7134771358696855 -1.0986584440085054
0.7493184906508009 -1.1109103472237558
0.7513851316198703 -1.0730891780185794
0.7699986805031398 -1.0598122626311812
0.8184684314867857 -1.0861442936643184
0.8680826802091783 -1.111095162585478
0.8873417513802707 -1.095775805654329
0.9063305296580204 -1.0801226647977589
1.0234520852251914 -1.1773469451475245
1.0438437459198189 -1.159305927744735
1.0980173597006229 -1.1774794596068643
1.1531328949619355 -1.1941040685621607
1.2091525958289964 -1.2091525958289961
1.2300710585790935 -1.1878658134848852
1.2871825148497402 -1.2003171137099973
1.3450921341140838 -1.2111263975095332
1.3660243402032173 -1.1874668424728183
1.4248426642012992 -1.195584954016963
1.523206084455663 -1.2334679664576813
1.5445010770691752 -1.20669649163829
1.6052573751950585 -1.209648196535617
1.707025858131139 -1.2402268823371183
1.8512836200931213 -1.296282746153364
1.8736249139743941 -1.2637759618438877
1.9373290119539297 -1.2581161708847124
2.086198316544808 -1.303601390013684
2.1514899247623016 -1.2927455680242355
2.303627574066607 -1.33
2.457681377061702 -1.3623150328922071
2.5693774952194777 -1.3661622477069424
2.7264799640164057 -1.3892109292030133
3.7839229349194934 -1.845542527982016
3.8608711727761285 -1.8003537950153794
3.84602637667535 -1.7123612673491186
3.7832749476895304 -1.605904938090915
4.22795837682455 -1.708206065976558
4.677237936750981 -1.7954234272219545
4.895798554294582 -1.7819249467267342
4.878875850092475 -1.6799316769989285
4.907451624082992 -1.5945276909747286
5.030163016365567 -1.537875166841595
11.737005307406875 -3.3655321145255592
15.850842809403611 -4.247220530132364
20.482942781686283 -5.106971216108983
23.297188249014976 -5.378579709361809
28.376061897287702 -6.0315181506232
21.577137868497477 -3.8046315726824442
21.64025154243947 -3.4274791290314583
16.20078560461209 -2.27687193170667
8.992468133870378 -1.1041362512506359
9.010368372036556 -0.9470278772049397
9.0753336996158 -0.7939888164311649
9.087808497866998 -0.6354814758089803
9.097515061614168 -0.47678056137321895
9.154419975494918 -0.31967938979490934
9.158604887632544 -0.15986404296551718
9.16 0.0
7.408871421108859 0.129322331700271
6.755881990649087 0.23592059770890686
6.30135236430136 0.33023988389297604
5.895603537035561 0.4122607598277811
5.4890327864855175 0.48022814253959717
5.082006885331877 0.5341404472977099
4.873401604558891 0.598378476119274
4.565135796898639 0.6415879954259016
4.3063211649948006 0.6820542675754067
4.293761803133227 0.7571060546278164
4.2798945198318155 0.8319272198417357
4.264723539199393 0.906494971965431
4.296971985702887 0.9920341496564451
4.327518939190944 1.0789716543745185
4.259732893934791 1.1413919889021171
4.19110099429107 1.2017788713621163
3.069738266641344 0.9385131721599849
2.9102329398631697 0.945592002787339
2.798734983773978 0.9636817371931838
2.6875208954476975 0.9781776099114127
2.623360998457137 1.007013938222294
2.5126682458759935 1.015183868157122
2.448542910183491 1.0393448017814686
2.3386763715650583 1.0412458062740488
2.274832545461991 1.0607718369691554
2.211033353895951 1.0783930211011308
2.102775397084548 1.0714175793853304
2.039608939504121 1.0844793100354082
1.9766405381350343 1.0956697417567216
1.9139161423636095 1.1049999999999995
1.894339734551668 1.13823414555122
1.789381482890059 1.1181296475320623
1.7695948983648444 1.1491883638817073
1.707817399463386 1.1519373811497384
1.646495609020873 1.1528886370656029
1.6261241586936441 1.1814483571078709
1.5653255996926938 1.179557445378015
1.544501077069175 1.2066964916382903
1.4843487863828146 1.2020019469051892
1.463144886357248 1.22772433450129
1.403759819214356 1.2202697939223435
1.3822493753879532 1.2445829278274767
1.2871825148497402 1.2003171137099973
1.2660380485960256 1.2225987320078353
1.2445079348883237 1.2445079348883235
1.222598732007835 1.2660380485960263
1.1662171957068723 1.2506148297687814
1.1442133368736478 1.270777651566344
1.089057988124242 1.2528179031698015
1.0670274320796556 1.2716337755775033
1.0132058295902382 1.2512049979457232
0.9912149752743101 1.2686973133068224
0.9689221872747976 1.2858031711761417
0.9463342561908819 1.3025173609436655
0.8947792407076317 1.2778771890908274
0.872340929414365 1.2932986131858653
0.8496368946234425 1.3083260859948613
0.8001780889921394 1.2805526251962032
0.8034593968596847 1.337180989095295
0.7549999999999998 1.3076983597145024
0.732062526571969 1.3206757577804875
0.6854284816674003 1.2891034855740333
0.6855256546067158 1.3454198515244356
0.6400218743120527 1.3122393075967838
0.6170226621414212 1.323209369073509
0.5938354988906686 1.3337763681581971
0.5704674475943396 1.3439370860405628
0.5281952967164362 1.30732923493917
0.5052988088588732 1.3163484013610545
0.482248402089193 1.3249665953081307
0.4590510977845907 1.3331811915950367
0.4449844718999243 1.369521383465021
0.4210152548007406 1.377078848586771
0.3969177923764788 1.3842168421511791
0.3726994249476302 1.3909331898562582
0.34352909175152807 1.3778199313119148
0.3239295182551658 1.4030928932907387
0.2993928347775733 1.4085325450566801
0.2690406834809283 1.3840943286612062
0.2448439305103716 1.3885789317472135
0.22057259570672558 1.3926405602391443
0.19623407235369197 1.3962779769256142
0.17183577420125795 1.399490073814264
0.1473851332073917 1.4022758724692652
0.12288959727419797 1.4046345243093612
0.09835662797921689 1.406565310866352
0.07641049611469787 1.4579991207416778
0.04920829035052652 1.409141066096925
0.02460789307656956 1.4097852501705117
