# .PCD v0.7 - Point Cloud Data file format
VERSION 0.7
FIELDS x y
SIZE 4 4
TYPE F F
COUNT 1 1
WIDTH 178
HEIGHT 1
VIEWPOINT 0 0 0 1 0 0 0
POINTS 178
DATA ascii
1.1450447572027753e-16 -1.87
0.03263600003772033 -1.8697151899424518
0.06526205883367703 -1.8688608465257093
0.09786823817430522 -1.867437229991053
0.1304446059015146 -1.8654447739858713
0.16298123893812072 -1.8628840854315643
0.20069464947389462 -1.9094820391070846
0.22789567216762582 -1.8560613035692721
0.26025369879532245 -1.8518012885467368
0.29253244962523184 -1.8469771969129076
0.3247220922371599 -1.841590498132829
0.36635327112296623 -1.8847241922195148
0.39919044637009815 -1.8780433934089067
0.4319060243402211 -1.8707905243876517
0.4644900395513619 -1.8629677944499132
0.4969325665968398 -1.8545775864750111
0.5209546024941284 -1.8167846053234227
0.5672011071621094 -1.8552312265682886
0.599492969087398 -1.8450496416125979
0.647880627369742 -1.8815819654426402
0.6635190780517976 -1.823003684324662
0.7131522195951477 -1.8578250487294314
0.7454671208976652 -1.8450958705879068
0.7775549456936547 -1.8318046583703564
0.8297427518746328 -1.8636327335909055
0.8832721670380618 -1.8941832749065983
0.894277139449718 -1.8335398544503005
0.9488401444556529 -1.8622036355536888
0.9811955662225118 -1.845360469075157
1.0132521063148445 -1.827955187921337
1.0699999999999998 -1.853294364098699
1.1279333840530188 -1.8771963885376257
1.1605231886707188 -1.8572253305825728
1.1927594866829092 -1.8366885438004783
1.2525921037744732 -1.8570441625232934
1.3134900392438955 -1.8758581814217912
1.375417490364387 -1.893099766837377
1.4082471541757928 -1.868807093510665
1.4714309260283236 -1.8833457011200654
1.5040757346091114 -1.8573788478821605
1.568401767635156 -1.8691484412103063
1.6335869821863633 -1.8792268547547024
1.6661352098335571 -1.8504306154387118
1.7663757525618713 -1.894206087193651
1.7991651794888028 -1.8630900828771062
1.902117241391813 -1.9021172413918126
1.9350240629109716 -1.8686310165347026
2.040476827517486 -1.9027754245743709
2.07337406308193 -1.8668743917412143
2.143375207832672 -1.8632076423330406
2.2674915516321748 -1.9026513246721561
2.300352045912634 -1.8627883575075186
2.371912368356233 -1.853141040730231
2.4837564362470808 -1.87164472200287
2.596944551943581 -1.8867906598588386
2.670435664382113 -1.86985918250441
2.78556624378494 -1.8788881556617092
2.901800165091167 -1.8844510611519933
3.061453627124698 -1.9130085438818696
3.1372323205697312 -1.885039354170798
3.299556788418711 -1.905
3.4197630549150375 -1.895605615163178
3.584767227007243 -1.9060545449107165
3.7511374668330286 -1.911300003903492
3.9187420418643684 -1.9112982000003775
4.042132730183459 -1.8848774473635193
4.302799105496651 -1.9157295888870187
4.565704073124104 -1.9380263973067973
4.830627882292962 -1.951700351696901
5.050670107349862 -1.9387706070400748
5.365644864687536 -1.9529350183895686
5.682566639351894 -1.9566646082875117
6.001166617822419 -1.949897234505918
6.416804912511968 -1.9618141386895633
6.93069682771528 -1.9873453354405635
7.35069553805981 -1.9696129332301824
8.014642699039731 -1.9982748576532545
7.804704218929734 -1.8018579452943575
7.834962281877782 -1.6653726434502527
7.9609964577605545 -1.5474609525037788
8.33147359048328 -1.469063583062231
8.800303114702677 -1.393831083508457
10.20966378872559 -1.4348746708982745
17.13134657732922 -2.103464867172845
17.115721819287984 -1.798934852836315
17.19432048906353 -1.5043081198245785
19.51235282308216 -1.3644366264350885
37.65831975559498 -1.9735889099214146
26.55595478335375 -0.4635359149742507
37.71 0.0
17.549302922455322 0.6128351620959178
17.186414293126216 0.9007018069410646
17.217955507484568 1.2039967368236044
8.178758471333232 0.7155486479582747
7.816942097594628 0.8215937212837574
7.6525308291545935 0.9396126376536867
7.4369131962491934 1.0451899882100912
7.417539437869484 1.1748228324521337
7.986790876929007 1.408286720878805
7.617426943553872 1.4806778041219881
7.150258961364118 1.519834459877821
6.58674163794819 1.5206691273645279
6.122566032801537 1.526527161233904
5.8052142159972995 1.5555024610661505
5.440741199010885 1.560107433924215
5.125793491961871 1.567112337313869
4.859898798268235 1.5790768412559812
4.547944348632714 1.5659828229389237
4.331982981823038 1.5767128607313332
4.11708968085266 1.5804026574947745
3.949803220454514 1.5958240879517855
3.737249705016907 1.5863683816664518
3.5719627393825695 1.5903402744263793
3.4077172792578034 1.5890446641450295
3.2536344476029844 1.5869035513764609
3.127432899901171 1.5935066540858092
2.966703912005994 1.5774244509605937
2.85126024527443 1.5804793620030586
1.8706148721743878 1.0799999999999996
1.8343380235025202 1.1021814803075163
1.8317838876978805 1.1446256107437227
1.853461955159387 1.2036522673832102
1.832173035346642 1.2358163166703504
1.7939429769928918 1.2561323956087913
1.7474767078498865 1.269616144951742
1.8049162527068814 1.3601019523236295
2.080348389521746 1.625346294859738
2.012808040173555 1.6299398128190785
1.9457528855222042 1.63268052860381
1.8792268547547024 1.633586982186363
1.8132733741648417 1.6326786795156143
1.7479353468698178 1.6299760805493715
1.6832551327924432 1.6255005868740537
1.619274528917194 1.6192745289171937
1.5907676683511034 1.6472881427755115
1.5276763265399966 1.638232291626942
1.4653960279258997 1.6274871677954932
1.4039663220396856 1.6150785016767322
1.3755654847291945 1.639335108274613
1.31527961729416 1.6242350594450692
1.286732483430626 1.6469424750380486
1.2277026472301782 1.6292164404964777
1.1696926520620214 1.6099438188061455
1.1414171083385813 1.6301125681350939
1.112793877906786 1.6497847693845331
1.0565997279291528 1.6270209018141224
1.0280433726124174 1.6452133065434662
0.9734219615800025 1.620046198326992
0.9449999999999997 1.6367880131525891
0.8920497012532603 1.6093002611364882
0.8638276755260388 1.6246235708604257
0.8126429945337889 1.5949016782971785
0.8066029100919021 1.6537810451904673
0.756486688515852 1.6222909387956035
0.7280585911056827 1.6352463691802555
0.6994087199958 1.6477036876798683
0.6518154725436872 1.61329990694621
0.6235602322088223 1.624429942105131
0.5951150493866637 1.6350651601674804
0.5599772256663093 1.626291950030825
0.5315092303249096 1.635817208027664
0.4941081809814247 1.61615503757753
0.4740962520052385 1.6533701170139086
0.44516875757633606 1.6613924212171973
0.4161056604314284 1.6689086491947138
0.38691581347144804 1.6759165114306045
0.3472125236656579 1.6335064932254555
0.32819147204765725 1.688398755529982
0.28999245670377344 1.6446289475303875
0.2612455566171856 1.6494395287938801
0.2393777336513122 1.703261078235501
0.2035218034865963 1.6575520732410076
0.17456253365698163 1.6608515652650164
0.14555009038858907 1.663645145813215
0.1164933111526895 1.6659319639339063
0.08740104692571606 1.6677113230401381
0.0582821594931768 1.6689826811218897
0.029145518750263236 1.6697456509111734
