# .PCD v0.7 - Point Cloud Data file format
VERSION 0.7
FIELDS x y
SIZE 4 4
TYPE F F
COUNT 1 1
WIDTH 180
HEIGHT 1
VIEWPOINT 0 0 0 1 0 0 0
POINTS 180
DATA ascii
4.531193156845207e-17 -0.74
0.012914780763589862 -0.7398872944157295
0.026872612460925833 -0.7695309368047037
0.04029868630706686 -0.7689447417610219
0.053712484782976605 -0.7681243187000647
0.06275213477831386 -0.7172601826260567
0.07735106281806356 -0.7359462025725222
0.09018331411980914 -0.7344841522145783
0.09602943966244516 -0.6832849674316835
0.11576150412977088 -0.7308893720404019
0.13718206035687502 -0.7779981248796444
0.14119865657864322 -0.7264041157512713
0.153854651205142 -0.7238292245430161
0.1664637802144602 -0.7210338479410741
0.17902220274375408 -0.7180188374442373
0.19152609337586535 -0.7147851114539105
0.20397164330457937 -0.711333654994356
0.23097364673096205 -0.755480757210798
0.2441234255562085 -0.7513346478731713
0.25719884202115384 -0.7469596747234603
0.25309490606099494 -0.6953725393815722
0.28311068014078733 -0.7375285369327894
0.29593920879857066 -0.732475245107762
0.3282141479309899 -0.7732240769000499
0.3213219480298823 -0.7217009115376546
0.33386842677515255 -0.7159831517589534
0.34631320596337123 -0.7100472965763419
0.38135201978121935 -0.748445480318229
0.3943561127401483 -0.7416759780014985
0.40724008100692316 -0.7346805539970924
0.4199999999999999 -0.7274613391789285
0.43263198292444555 -0.7200205325897743
0.4451321819558921 -0.7123604007713977
0.4847287411633741 -0.7464168054714273
0.49768168408896474 -0.737843439573987
0.510483028352431 -0.7290453194172027
0.5525181371549247 -0.7604759747124505
0.5657061217629253 -0.7507173794444553
0.5787217868061189 -0.7407301083903185
0.5915611675868471 -0.7305172037695526
0.636359733589674 -0.7583839986877883
0.6166954872510768 -0.7094270054094056
0.6624393002952697 -0.7357133772226203
0.7092782944649986 -0.7606078496839372
0.6877117867544073 -0.7121464023352646
0.7353910524340095 -0.7353910524340094
0.7481133923521973 -0.7224447052773572
0.797175534764896 -0.7433782124681234
0.81002785977036 -0.7293523609311554
0.86036892145396 -0.7479072930491782
0.9115928873115838 -0.7649172555269816
0.9248036941337954 -0.7488912653493065
0.9771333344723353 -0.7634202294038162
1.0302398079610078 -0.7763413798661423
1.0436319227436823 -0.7582429754572904
1.0567061371327995 -0.7399136028928495
1.110910347223756 -0.7493184906508007
1.1657520894441393 -0.7570482586708874
1.2211892584652535 -0.7630837404958151
1.2343209130110417 -0.7416548278704778
1.3336791218280355 -0.77
1.3906453343516394 -0.7708472961916759
1.4480340522886401 -0.7699333629688608
1.5058010258783416 -0.767243944559834
1.5639016405605506 -0.7627657954129947
1.6222909387956035 -0.7564866885158519
1.7266009149445158 -0.7687322554132623
1.804189512766783 -0.7658330118389763
1.9099987404075822 -0.7716895824367785
1.9698546999090956 -0.7561563735405836
2.1237053229761527 -0.7729655239160114
2.278699767194354 -0.7846192522417477
2.3871518559008353 -0.7756326558811178
2.5437706508616746 -0.7777087345624797
2.749208450383592 -0.7883228376366174
2.859140445815642 -0.7661043735034612
3.5512823581701474 -0.8854341378947835
3.7902995520145653 -0.8750596013976344
3.82455711886918 -0.8129347110974393
4.083569083142282 -0.7937654207664266
5.081608005542994 -0.8960245967613607
5.224871321748279 -0.8275383200628214
5.753457479388524 -0.80859571657798
6.659984677513271 -0.8177432942485393
7.816942097594628 -0.8215937212837556
11.516010709940579 -1.0075203861629274
12.030622446133481 -0.8412630733541496
16.037990328158454 -0.840515457261679
29.392084222631606 -1.0263941980205549
34.50474395984706 -0.6022825461506548
40.31 0.0
12.308125127375177 0.21483912324296034
12.252531539254115 0.42786782957266245
12.243198096091074 0.6416388235384922
12.579282673776383 0.8796291339134212
11.516010709940579 1.0075203861629298
11.49667311045724 1.2083490353740758
7.702158136736659 0.945706104823944
7.387399792812115 1.038231333162088
7.565692688958755 1.1982880022081686
6.952742736266188 1.2259561343285283
5.163358984934712 1.0036553156806258
4.949426859713056 1.0520331555378624
4.881594024574029 1.127004782262764
4.036430221308145 1.0063950856946182
3.82506627210471 1.0249234186059828
3.758533231118827 1.0777420612444666
3.6435211202191655 1.1139361949936268
3.766183804528808 1.2237072977247916
3.5078739154734655 1.2078578530360513
2.828474788565584 1.029480631410263
2.810077083756577 1.078687528131354
2.8835417877027085 1.1650265055234867
2.7246943662192233 1.1565641403282507
2.7040945546220985 1.203940463504369
2.592040270924819 1.2086882285784002
2.4357318654707423 1.1879858077984002
2.3255270281316403 1.1849152043202171
2.1720510784329603 1.1549000444532918
2.1515644795629134 1.1926316658059892
2.0438199529312753 1.1799999999999995
1.9371980995867735 1.1639860492967224
1.8741862925057016 1.1711215739553829
1.7695948983648444 1.1491883638817073
1.6663655208356336 1.1239777359762009
1.646495609020873 1.1528886370656029
1.6261241586936441 1.1814483571078709
1.5653255996926938 1.179557445378015
1.544501077069175 1.2066964916382903
1.445491488309966 1.1705359273526974
1.3865404420453502 1.1634455735326363
1.3660243402032173 1.187466842472818
1.3079348928402137 1.1776698671915906
1.2506148297687816 1.1662171957068723
1.230071058579093 1.1878658134848854
1.1737972567696688 1.1737972567696688
1.1531328949619353 1.1941040685621611
1.0980173597006226 1.1774794596068645
1.043843745919819 1.1593059277447348
0.990649133775666 1.1396114661363856
1.0027486711110016 1.1950293312656057
0.9188077709327626 1.1346331037271775
0.9296488277417442 1.1898962379461502
0.9087406849595927 1.2059396201714123
0.8581664683470107 1.1811648117874232
0.8374215970725271 1.1959619846619283
0.7884619938937529 1.1689429773026088
0.7679410393711883 1.1825255008030477
0.7206901993571587 1.1533454107727394
0.7004517818776739 1.1657475289548727
0.6799999999999999 1.1777945491468367
0.6351006025227016 1.1457518163526084
0.6384813253888113 1.2008087262881408
0.6174270796457838 1.2117688728961804
0.5742662022936912 1.1774202006519088
0.5747608359673513 1.232578590369844
0.5328250024292985 1.196744549511807
0.49232122189648486 1.159836115350075
0.47200430770404933 1.168251656754152
0.4515436164270782 1.1763113373864742
0.4309453805903427 1.1840127021902445
0.3613806514474438 1.0495256189152418
0.3368285238686927 1.0366516027617174
0.304066572911646 0.994556946201557
0.3087138385150391 1.0766130994509173
0.2821127591617479 1.0528591506550844
0.2515987714236544 1.0091075553270363
0.24069762814793572 1.0425759693202017
0.22246550917500238 1.0466179327851721
0.19844135519160672 1.0208922707855705
0.18580355010361535 1.0537442957230627
0.1673848775930471 1.0568265244367974
0.1489152180272698 1.0595868335534804
0.12796281057540487 1.0421734592233882
0.11498130959441906 1.0939740849051007
0.10110066158728344 1.1555858497864246
0.08649802744271556 1.236979422322182
0.06489658574125025 1.2383006230956715
0.03978542624085123 1.139305542801769
0.019546695209757384 1.1198294185751583
