# .PCD v0.7 - Point Cloud Data file format
VERSION 0.7
FIELDS x y
SIZE 4 4
TYPE F F
COUNT 1 1
WIDTH 178
HEIGHT 1
VIEWPOINT 0 0 0 1 0 0 0
POINTS 178
DATA ascii
1.5369317329299282e-16 -2.51
0.046074352994428705 -2.6395979152128732
0.0938796461297279 -2.6883613246813676
0.14340052010566648 -2.7362449252275325
0.19462056174611003 -2.7832037002249095
0.2536232113956852 -2.89892657144698
0.617763217911832 -5.877624401626496
0.7080608851839069 -5.766693141036081
0.8085957165779804 -5.753457479388524
0.90106251863173 -5.689084841827993
0.9915310944781727 -5.623252269699708
0.95595306683649 -4.917952189072796
1.0416375709969747 -4.900519479676365
1.104509676828378 -4.784157018095505
1.2241247917343183 -4.909696374956542
1.1543329411572425 -4.308029185249245
1.2293426069438163 -4.287227163884903
1.3478335587718167 -4.4085649249895935
1.517273442380992 -4.669687495009204
1.679931676998929 -4.8788758500924745
1.8845309897244351 -5.177706340530355
2.261301761630845 -5.890892491197342
3.8247333187764636 -9.4665471551269
2.485049977191781 -5.854410867957521
2.4241503927317702 -5.444730927549901
2.476543013800499 -5.310963632034769
2.7057833784476992 -5.310398884162673
2.8684712486217934 -5.394809792368044
8.101168754316294 -14.614895306299303
9.254999999999999 -16.030130224049962
11.129972798806273 -18.523385368172644
13.78320006270566 -22.05773098102864
16.45354524780397 -25.336237857631257
5.094247350618504 -7.552532285976429
4.795099007894745 -6.848111090255971
3.8558712550386236 -5.307151483099655
3.9479065518774363 -5.23904894591024
4.038739278136319 -5.169350543660095
3.1717747708911803 -3.9168156457431333
2.596861943133619 -3.094819550200671
2.204358337408104 -2.535824189548514
1.9471700645042775 -2.1625514421392174
1.6777159657537466 -1.799130105983159
1.5351949987143838 -1.5897409587484188
1.3859292911256331 -1.385929291125633
1.266038048596026 -1.222598732007835
1.1628523855744812 -1.0843773924993727
1.1667373759995092 -1.0505350519834074
1.1471585619386135 -0.9972097240655711
1.2026897756967956 -1.0091765472078666
1.2201191594874443 -0.9880330139482447
1.2371768831625536 -0.9665885162612834
1.2298986854728309 -0.9267951356541544
1.2863370210561664 -0.9345785511450323
1.2614941482050475 -0.883307711980611
1.2767178617347643 -0.8611570713449501
1.3334862030332244 -0.865976065673893
1.3738379157734104 -0.858469208057792
1.4057543731514641 -0.8446624428524886
1.4202816622064791 -0.82
1.434376319708609 -0.7950877772039927
1.4921814319315865 -0.7934069411081555
1.5058010258783416 -0.767243944559834
1.5189619382455923 -0.7408472380735408
1.576975549443771 -0.7353557754288169
1.5895690962981257 -0.7077217589518923
1.6016784450072463 -0.6798721635713362
1.6132999069462102 -0.6518154725436867
1.6711089634299912 -0.6414786296860876
1.7290344222460714 -0.6293170637192306
1.739754179102743 -0.5990454042011684
1.7499439899830826 -0.5685912696499033
1.807415988770137 -0.5525825219259723
1.8167846053234227 -0.5209546024941283
1.8738961030007926 -0.5021089474988901
1.930888495289233 -0.48142457224333857
1.938996428922618 -0.4476525981442911
1.9954211054969635 -0.4241398492682292
2.0516008134056176 -0.3987908003369787
2.1074885914461254 -0.371607100207231
2.1136530488735947 -0.3347697551860941
2.168687070544039 -0.30478909110254326
2.2233033796765618 -0.2729873292275303
2.277455140393346 -0.23937018088292625
2.3310955935346844 -0.20394443802951986
2.3342998776079886 -0.1632301485612529
2.386724588063432 -0.12508293542063595
2.438513617926594 -0.08515477195410248
2.539613145697234 -0.04432911235070018
2.59 0.0
2.6395979152128732 0.04607435299442854
2.7083491412217495 0.09457763606377775
2.8061489926603524 0.14706403704267237
2.853033183743097 0.19950351490819862
2.9487363063515666 0.25798099853306855
3.043236999826916 0.31985709759902003
3.0868185316045116 0.3790136579900085
3.2282739040975192 0.4537043091298132
3.36801724142942 0.5334415257871873
3.4566752130728498 0.6095051036109255
3.5436741322460668 0.6888204733093269
3.6778349787591087 0.7817479574747753
3.8585054565495316 0.8908061752017057
3.9394006486805453 0.9822028961346514
4.163140311305884 1.115510084391865
4.383353333478734 1.2569063425255158
4.552010638384049 1.3916893144802267
4.8123459724534765 1.5636259915372337
5.0679795652123385 1.74504530789036
5.365644864687536 1.9529350183895686
5.657497384573042 2.17170977424452
6.035966893229785 2.4386889231375877
6.452739022701606 2.73902521070981
6.952080932660193 3.0952658538068407
7.576733099626393 3.5330886681522466
8.322832868730286 4.059316819266858
9.097176611963237 4.635243002340773
10.295168932735088 5.474038422083489
11.816112243453237 6.549777969528013
12.21961844739843 7.054999999999997
12.30892243808233 7.395946755708379
12.474787494461028 7.795112376870445
19.46554388201329 12.641072002698781
13.645958444255987 9.204315191128492
13.647073057854602 9.55578342960843
13.544858250402084 10.206782792658743
12.8130548536453 10.010655588795204
12.597536035217502 10.201283538917863
17.894798191259326 15.01551856227756
10.384803823865342 9.02737223890938
10.077043833473464 9.07341102222612
10.136562304441703 9.452497270466228
9.214742842338119 8.898573725579757
8.17415439051649 8.174154390516488
7.231393636478161 7.48832732152536
6.519904322197486 6.99174138747927
5.961953702657428 6.6214203950035815
5.451850530911115 6.271636611651235
4.9880318511675465 5.9445048786032695
4.568866039021819 5.642079680177608
4.254220794500299 5.445154307422449
3.887725049562231 5.159185394905513
3.620757154121635 4.983544685349677
3.3898367388346817 4.841188581747942
3.1650318336444268 4.692352660661537
2.9192652276805457 4.495274244187472
2.734383403443337 4.375928176167158
2.554588851553869 4.251549811482477
2.3549999999999995 4.078979651824707
2.2107318683232973 3.988265864555644
2.0703695918857776 3.893798884507868
1.9339995288904694 3.795687793042447
1.8017054133031076 3.694043530289577
1.6946992295802046 3.634294226016966
1.5903402744263795 3.571962739382569
1.4886855995441328 3.5071234916537977
1.3710601319022386 3.3934929077144416
1.2757899003812685 3.323546318330038
1.2004907030730976 3.298321098958538
1.093908998976046 3.1769424140137046
1.022846251381076 3.147997068936958
0.9385131721599843 3.069738266641344
0.8572321765908674 2.989523874368172
0.8049272302688402 3.004029319759002
0.7354425626229898 2.9496990078790293
0.6726036524881568 2.9133664937078536
0.6112603710042122 2.875753946157389
0.5514379966382148 2.836902560163749
0.4844784156907353 2.747613630904061
0.4364521574622443 2.7556504702604343
0.3743756415825755 2.6638211049148244
0.3278285337598467 2.669949147915156
0.2811815661899884 2.675263898540655
0.22573337371643457 2.5801442680576208
0.17718144331007865 2.5338126876599536
0.13293332885707712 2.5365190182766177
0.08864472162435275 2.538452700628503
0.042583871706971435 2.4396283761815947
