# .PCD v0.7 - Point Cloud Data file format
VERSION 0.7
FIELDS x y
SIZE 4 4
TYPE F F
COUNT 1 1
WIDTH 180
HEIGHT 1
VIEWPOINT 0 0 0 1 0 0 0
POINTS 180
DATA ascii
6.55186037543834e-17 -1.07
0.018674074887893452 -1.0698370338173386
0.03734246147167616 -1.0693481849104325
0.05599947317995005 -1.0685336021873941
0.07463942690621424 -1.067393533778012
0.09325664473999422 -1.0659283269581679
0.1087096017983596 -1.0343027711830042
0.1364936646137652 -1.1116516898382807
0.14474002499846808 -1.0298787914912333
0.17051356689385172 -1.0765802912487001
0.18927651365695417 -1.0734404507833069
0.21752225472926118 -1.1190549891303367
0.22662374299135782 -1.0661808847998482
0.24519664923481302 -1.0620633706159064
0.2636948662036378 -1.0576223416408361
0.2821127591617476 -1.0528591506550846
0.3004447178405291 -1.0477752485727676
0.3186851581477831 -1.0423721839997087
0.35227937358744005 -1.084204428576475
0.37114769608115866 -1.077891176183221
0.3899029633912624 -1.0712495876959354
0.42645785995890745 -1.11096070753167
0.4457818461649355 -1.103348786934477
0.4649700429022357 -1.095400775608404
0.4840166052602024 -1.087119094594695
0.5240466445584673 -1.123821655925446
0.5216616646790021 -1.0695649150960085
0.5629482196770381 -1.1048480899935762
0.5821447378545047 -1.0948550151450693
0.601163929105458 -1.0845284368528507
0.6449999999999999 -1.117172770881926
0.66439911663397 -1.105745817905725
0.6835958508608343 -1.0939820440417896
0.7298163069201363 -1.123818561046868
0.7493184906508009 -1.1109103472237558
0.7685924247104018 -1.097663739347249
0.8170215006865376 -1.1245336221811768
0.8365228821813471 -1.110103358965737
0.8988657539754612 -1.150495700265814
0.9376873826642577 -1.1579474825708866
0.9577535384329436 -1.1414062202472772
0.9775279531958558 -1.1245172745319303
1.0304611337926417 -1.1444430312351872
1.0843773924993727 -1.162852385574481
1.1045068090298056 -1.1437502825384553
1.159655121145938 -1.1596551211459378
1.2156842625723205 -1.1739726460757054
1.2725554408173567 -1.1866771465087473
1.2930719963306663 -1.1642872550644132
1.4641365856321777 -1.272754516241584
1.3099359977334524 -1.0991668125639822
1.3677768921642688 -1.1076038882477137
1.4105392489560324 -1.102034040832928
1.3896257874822895 -1.047158140284564
1.4238699100999075 -1.0345020440347528
1.507239761491745 -1.0553806428859247
1.6497847693845331 -1.112793877906786
1.7108879586086652 -1.111063631430655
1.814822925774752 -1.1340272254590587
3.0943739555346252 -1.859287450425295
3.256255518229489 -1.88
3.4197630549150375 -1.895605615163178
3.540619847364297 -1.882580966771422
3.7065871406236104 -1.8886004789165147
3.9187420418643684 -1.9112982000003775
4.132763508887123 -1.927139273537589
4.3484763783787805 -1.9360664210408087
4.565704073124104 -1.9380263973067973
4.876987075021302 -1.9704306813676966
5.144028149999581 -1.9746074019946047
5.459614126766127 -1.9871370327221354
5.777118496911826 -1.9892214237332275
6.1913779210814495 -2.0117006333809075
6.703696339300879 -2.0495256501063843
7.122949166902943 -2.0424728066039632
7.881954742518798 -2.111963408036569
8.596820134805329 -2.143427995013055
9.509851832303896 -2.195522290396121
10.573775563932438 -2.2475253777399793
11.936586550723595 -2.3202373837787857
13.600195069098593 -2.398081333580308
16.998116341642323 -2.6922371433423735
18.181321742095232 -2.5552181336268007
18.173520036552606 -2.2314276777482496
24.226553371171136 -2.5463133652000365
20.780621402193812 -1.8180687937161473
20.809186088419935 -1.455120042302451
22.928534117965015 -1.201633555337992
24.49506917023804 -0.8553866641783
24.30629746925187 -0.42426800049036273
24.36 0.0
16.107546368969462 0.28115826770463775
16.200125305979544 0.5657208415475415
17.236345769863945 0.9033186047532119
14.374897964244067 1.0051907866528471
12.661634612746086 1.107749490322737
11.248042636615171 1.1822169195571623
10.1338962082579 1.2442859961665553
9.268909123421098 1.3026602249862123
8.503996612524135 1.3469007439963876
7.8390697139771754 1.3822394942287657
7.27385742934719 1.4138946557401975
6.807907301107287 1.4470653680916055
6.343149121751881 1.4644313637785618
5.928506887546339 1.4781427821139705
5.563732759425033 1.4907976997905203
5.344615029417053 1.532543698342515
5.030163016365567 1.537875166841595
4.764793146638719 1.5481751418184864
4.59522027741268 1.5822612306617816
4.378967612862333 1.5938138678976166
4.16376870217752 1.5983210549720395
3.949803220454514 1.5958240879517855
3.78327494768953 1.6059049380909158
3.6176400122646992 1.6106771065801693
3.4530326686096364 1.6101755772320647
3.334525911769909 1.6263569545874779
3.2610838785294267 1.6616052290467413
3.099146050934833 1.6478451853784772
2.9824532013453395 1.6532008050400095
2.866544086526492 1.6549999999999996
2.75150703525378 1.6532722204612742
2.637429579046485 1.6480489117652672
2.5663319379129974 1.6665954471459832
2.4954030933906752 1.6831706394469477
1.9331988245220202 1.3536403897884692
2.2733377541936024 1.6516765589418496
1.8847798037116108 1.4202834546388343
1.544501077069175 1.2066964916382903
1.6009206806013603 1.2964000055626648
1.5014471085131968 1.2598637149856171
1.479230777236633 1.285875696821394
1.2930719963306658 1.1642872550644134
1.2359877557363983 1.1525772285056224
1.21568426257232 1.1739726460757056
1.159655121145938 1.1596551211459378
1.1045068090298056 1.1437502825384556
1.0843773924993727 1.162852385574481
1.0639176641105847 1.1816002725090566
1.0431338560949066 1.1999882325542075
0.9577535384329439 1.1414062202472772
0.9062213631117658 1.119090184498038
0.917335598235231 1.1741360228740156
0.8666136333389494 1.1500351344681017
0.8170215006865376 1.1245336221811768
0.7972712465279538 1.1386213415616986
0.777278135824338 1.1523622258515078
0.7298163069201364 1.123818561046868
0.7365877772841548 1.178786853657432
0.6901510203794727 1.1486041829408304
0.6699999999999999 1.160474041071148
0.6254044101177749 1.1282594222098206
0.6290918941330935 1.1831497744309623
0.5992674596562019 1.1761286119286456
0.5654987793579096 1.1594443197259254
0.5240466445584673 1.123821655925446
0.5368923688600565 1.2058800040882331
0.5157650896058413 1.2150664065572214
0.4645121758357311 1.1497079796628162
0.4551272959225312 1.1856471416514462
0.43436558202359943 1.1934096283981035
0.4134715561605888 1.2008085910111324
0.39245158285618326 1.207841775694845
0.3625409138561933 1.185817897394164
0.3500594418875889 1.220802353841665
0.3157592350250756 1.1784295080726632
0.29514471263159453 1.1837607860567156
0.27444028629951545 1.188731479037987
0.2536522627976663 1.193340072895243
0.23278697435938478 1.19758516380615
0.21185077675365485 1.2014654586748938
0.19085004734908173 1.204979775526068
0.16979118317127959 1.2081270438647158
0.14868059895427993 1.2109063050024127
0.1222983020231548 1.1635906175808797
0.10197221901476002 1.1655477967673422
0.08510289796783305 1.2170281413169854
0.06123306880424418 1.1683965556628513
0.04083241114192626 1.169287267612342
0.021291935853485718 1.2198141880907973
