# .PCD v0.7 - Point Cloud Data file format
VERSION 0.7
FIELDS x y
SIZE 4 4
TYPE F F
COUNT 1 1
WIDTH 180
HEIGHT 1
VIEWPOINT 0 0 0 1 0 0 0
POINTS 180
DATA ascii
8.939921633775678e-17 -1.46
0.02460789307656987 -1.4097852501705117
0.04920829035052652 -1.409141066096925
0.07379369830255099 -1.408067644003949
0.10533227535362943 -1.5063217158923345
0.12724738441158087 -1.4544442592139484
0.15261155637077403 -1.452001967237679
0.18402270854177272 -1.4987446889783962
0.21711003749770214 -1.5448181872368498
0.24403776546276026 -1.540793811328415
0.26741819360707286 -1.5166039396388005
0.2976620327874101 -1.531338406178356
0.33473782221659276 -1.574817637181427
0.3621711974936229 -1.5687358043042288
0.389494251915465 -1.5621761193043544
0.4296396148701844 -1.6034368716398533
0.47133987844706854 -1.6437575000545253
0.4999556150758799 -1.6352811326967907
0.5284190603811602 -1.6263066428647126
0.5664885887554527 -1.645202321542811
0.6019554522531771 -1.6538590125831987
0.6486459886769937 -1.6897805719599353
0.6780379340828011 -1.6782027767658851
0.7072233425655855 -1.6661137847489171
0.7565301561209887 -1.6991945512152375
0.8072008799247359 -1.7310478732400012
0.8153703330276841 -1.6717569261164507
0.8444223295155572 -1.6572721349903643
0.9436378411996406 -1.774724661646443
0.9744673366951375 -1.7579856113501853
1.0299999999999998 -1.7840123317959438
1.0867303380602145 -1.8086230044814566
1.1181296475320623 -1.7893814828900587
1.149188363881707 -1.7695948983648444
1.2358163166703506 -1.8321730353466419
1.2676039243358117 -1.8103260178786718
1.357783932795613 -1.8688292570061287
1.4202834546388339 -1.884779803711611
1.4837441555348367 -1.8991059161922
1.5795941815350918 -1.9506363632569967
1.6455362807975409 -1.9610737743845839
1.7123140656652238 -1.9697920043814348
1.779887412914563 -1.9767652357698688
1.8823154737724959 -2.01853621646891
2.021455858035682 -2.0932788189854747
2.093036072312181 -2.0930360723121804
2.2011797890362725 -2.1256546136045316
2.2745100120356203 -2.1210148997943703
2.4226521310563056 -2.1813657767298773
2.535824189548514 -2.204358337408104
2.6888159953476127 -2.256184509999753
2.8054969208596647 -2.271846611689913
2.9629204335612744 -2.3148871472244745
3.122664844284915 -2.3530967405245087
3.2846089971622865 -2.3864081243074406
3.4895877086711047 -2.4434356188554562
3.6560556949677343 -2.4660407043059935
4.7468754145711 -3.082656938185053
4.799952224245372 -2.99934303555994
4.722991826868639 -2.8378597927543976
5.161511406555254 -2.98
5.606312322763527 -3.1076296657790206
5.8362835887975075 -3.1032070300147385
5.755902146256856 -2.932778628317472
5.851149241407577 -2.853796165596894
10.612864186199172 -4.94885984498359
12.022258222576628 -5.35265422287753
16.394191439987964 -6.958921398393963
16.420426064377807 -6.6342827693958
23.58224157331932 -9.052374405514287
23.736635601052047 -8.639428820406394
34.473607266351095 -11.870214911507933
36.86295057160015 -11.97749870197296
22.148018148103905 -6.7713286813785825
9.958671169920983 -2.8556030062641105
10.006991560354747 -2.681365307262114
10.003748937905524 -2.4942147436325732
10.094473871175037 -2.33049292300244
9.937979623455465 -2.1123827787084357
9.973332183828266 -1.9386193930256959
8.429954365784502 -1.486428400828924
7.1706173527207 -1.1357142161920761
6.397131724070545 -0.8990582322020225
5.766693141036081 -0.7080608851839065
5.479815643479186 -0.5759518326047701
5.4890327864855175 -0.48022814253959595
5.496577916931631 -0.3843581703301297
4.204230341316756 -0.22033437578279383
3.957587674995619 -0.13820200694190402
3.7094349490302116 -0.06474842788232192
3.51 0.0
3.2595034862098355 0.05689484498554433
3.2080445547312975 0.11202738441502827
3.005874899611267 0.15753122829126115
2.853033183743097 0.19950351490819862
2.7494973667332174 0.24054984998353687
2.54597605214278 0.26759286596519327
2.491290840619718 0.30589205194692004
2.3865460456671848 0.33540717331375763
2.281560066774768 0.36136361424293334
2.22566552180759 0.3924448815272626
2.1203147162469542 0.4121474300133369
2.0638914375483295 0.4386936676254723
1.9584838302183227 0.45215161923116876
1.901779623500953 0.47416691537534894
1.8449183282121202 0.4943443761458149
1.836009839242189 0.5264673496104683
1.7309116082930944 0.5291927855481535
1.6738594686794703 0.5438699100999074
1.6168367642748318 0.5567215441217379
1.5598897505046077 0.5677534379206102
1.503064486660495 0.5769723987679336
1.4464068131241883 0.5843862857288229
1.482012814058429 0.6290771168677309
1.4251309139224575 0.6345091631982486
1.3685247584253415 0.6381535752284561
1.3122393075967838 0.6400218743120533
1.300869525315017 0.6628261296197383
1.2449561059310867 0.6619549035281063
1.1894828017095782 0.6593410835350184
1.1777945491468367 0.6799999999999998
1.1657475289548727 0.7004517818776739
1.1533454107727394 0.7206901993571587
1.0986584440085054 0.7134771358696856
1.0860392200471047 0.7325427035466783
1.0321315758041296 0.7227063098023183
0.9789105631936864 0.7112201552738925
0.9663489671572242 0.7281961780139786
0.9534930118641335 0.7449503851440465
0.9403466133629349 0.7614776731703031
0.9269137761739634 0.7777730077207126
0.8754631130584155 0.7610284736289883
0.8620479975537771 0.7761915033762756
0.8483702938782378 0.7911180976724982
0.7984671783759026 0.7710707912094872
0.7848885271170679 0.7848885271170678
0.7710707912094868 0.798467178375903
0.7229182616662484 0.7752349237163207
0.7092784427403899 0.7877335150060378
0.7282255221794631 0.837727634047277
0.6813548662677319 0.8120071097061168
0.6985456340653196 0.8626320172172378
0.7141673113777637 0.9140924741837974
0.7281961780139783 0.9663489671572244
0.7699986805031398 1.0598122626311812
0.7800639534374225 1.1140467802330292
0.7884619938937529 1.1689429773026088
0.8224049428726911 1.26639255759759
0.7895797037074753 1.2635916632730746
0.7674067316159808 1.2771792780461473
0.7449999999999999 1.2903778516388136
0.7126701417621155 1.2856909694949117
0.7089020598066949 1.3332508652169797
1.5027085541379002 2.9492315950634977
2.064728101376554 4.233319958069076
2.1595793174949742 4.631232791757282
1.5903402744263795 3.571962739382569
1.664514607364306 3.9213506757073957
1.9891610110384936 4.923346267749641
1.9208522095628089 5.003991086025001
1.8161269610593014 4.989767816373173
1.728766900167501 5.020703636432372
1.6408802401309708 5.050110101527265
1.5524937520777309 5.077978254163718
1.4636343593882655 5.104299605432473
1.3743291294943862 5.129066137594951
1.2967013604142188 5.200785092839341
1.194490098565924 5.173905044009599
1.1040110782423014 5.193963759896508
0.5743350760834002 2.9546978221774682
0.47058656147738087 2.668829010663084
0.4082939537550027 2.5778665689533096
0.3632417935057703 2.5845996594154985
0.315641599419332 2.5706945327510238
0.270728719863223 2.5758117090038275
0.22573337371643457 2.5801442680576208
0.1841570906844912 2.633569092685936
0.13555012666922428 2.586450495014346
0.09213467129460286 2.638391783330413
0.046074352994428115 2.6395979152128732
