# .PCD v0.7 - Point Cloud Data file format
VERSION 0.7
FIELDS x y
SIZE 4 4
TYPE F F
COUNT 1 1
WIDTH 180
HEIGHT 1
VIEWPOINT 0 0 0 1 0 0 0
POINTS 180
DATA ascii
9.919639073093561e-17 -1.62
0.02827289842839943 -1.619753266153354
0.056537184658051756 -1.6190131397709353
0.08478424911356923 -1.6177798463024098
0.1164933111526895 -1.6659319639339063
0.14119230325120619 -1.613835410908628
0.16933611049359862 -1.611125470496603
0.2035218034865963 -1.6575520732410076
0.22546042355530607 -1.604234271361344
0.2612455566171856 -1.6494395287938801
0.2813100478204273 -1.595388559879777
0.31865102227883 -1.6393173963575989
0.34721252366565825 -1.6335064932254553
0.37566826075425475 -1.6271980081913429
0.39191347087146167 -1.5718790765671145
0.43222780532120963 -1.613096129902744
0.4740962520052385 -1.6533701170139086
0.4882607468869704 -1.597028942458269
0.5315092303249096 -1.635817208027664
0.5502101810325949 -1.5979263927628453
0.5780140422203803 -1.588080529128185
0.6163928732179167 -1.605758333575187
0.6518154725436872 -1.61329990694621
0.6798721635713363 -1.6016784450072463
0.7077217589518926 -1.5895690962981253
0.756486688515852 -1.6222909387956035
0.7846843527524486 -1.6088413428755088
0.8126429945337889 -1.5949016782971785
0.8403540973867447 -1.5804761912174792
0.8920497012532603 -1.6093002611364882
0.9199999999999998 -1.5934867429633672
0.9476700578344999 -1.5771878332918865
1.0015474094007573 -1.6028109017356449
1.0565997279291526 -1.6270209018141224
1.084834232733249 -1.6083328907567807
1.1414171083385816 -1.6301125681350936
1.1696926520620214 -1.6099438188061455
1.2277026472301784 -1.6292164404964773
1.255949409664343 -1.6075419373577127
1.31527961729416 -1.6242350594450692
1.3755654847291943 -1.639335108274613
1.4367692734892108 -1.6528139806878708
1.4653960279258995 -1.6274871677954934
1.527676326539997 -1.6382322916269418
1.556034749828154 -1.6113211527585787
1.619274528917194 -1.6192745289171937
1.6832551327924437 -1.6255005868740535
1.7479353468698178 -1.6299760805493715
1.8132733741648421 -1.6326786795156139
1.8792268547547024 -1.6335869821863633
1.9457528855222042 -1.6326805286038097
2.051665338246403 -1.6614058323715708
2.119748927202082 -1.6561293686260206
2.148329522027218 -1.6188824122790098
2.2328869044748547 -1.6222872963272257
2.3427748466665164 -1.6404286079639916
2.4124993361351716 -1.6272513490998732
2.5243984095157264 -1.639363495395231
2.5526247694308424 -1.5950569853419467
2.708648670218675 -1.6275203167157708
2.7799415461480477 -1.605
2.9824532013453395 -1.6532008050400095
3.0991460509348334 -1.6478451853784766
3.216533552320008 -1.6389057040597639
3.379465614084868 -1.648275511926931
3.5436634473133015 -1.6524374034061347
5.581762746196293 -2.485160889193139
5.578259411921788 -2.3678306386449983
5.572374965946392 -2.2513856264296304
5.5641393419233225 -2.13587297928999
5.6005680198840135 -2.038440054220986
5.4934629242320305 -1.8915509773960804
5.382979882230569 -1.7490361881622023
5.412684918750782 -1.6548238487306899
5.921372046980045 -1.6979261118327145
6.046695672569568 -1.6202072223417794
6.074051246487738 -1.5144310664539193
6.050838102316311 -1.3969460474754007
6.025389220520243 -1.280736015437398
5.997742090865227 -1.1658429617506891
6.017175370904591 -1.0609903655449446
6.034775761036292 -0.9558145813958107
6.050537900010995 -0.8503476468659997
6.064456986528478 -0.7446216882054508
6.0765287807001505 -0.6386689105653622
6.086749605340565 -0.5325215881881908
6.045238144574535 -0.42272423088939853
6.051694980612717 -0.31715589483224005
6.05630841173572 -0.21149095001715615
6.009084647889911 -0.10488896268807404
6.06 0.0
5.919098355325836 0.10331824610871854
5.986351053844384 0.2090479852479811
6.151557934088175 0.3223894904565345
6.095116347087526 0.4262120545766062
6.086749605340565 0.5325215881881922
6.126254875468564 0.6438953337287463
6.114084294110544 0.7507151553757082
6.001024496573916 0.8433889918179963
5.985391344006534 0.947992858143799
5.96793498325398 1.0523079566615978
6.095904809209993 1.1849238612883435
6.1232039805936225 1.3015271845191738
6.0995566055555726 1.4081936001925954
6.122566032801537 1.526527161233904
3.486992232903536 0.9343367528201004
3.3259654679465833 0.9537052511268169
3.1653687422376477 0.9677503426322586
3.1955498947517156 1.0382971010998232
3.0823905564537726 1.0613521835303308
2.9224440506441747 1.06368264574283
2.763398062431717 1.060769130654089
2.6053866313326726 1.052644527498713
2.2184166968203813 0.9416620196591501
2.155967280036538 0.9598984776588887
2.0029402093509963 0.9339863584469457
1.9863348423211589 0.9688002344038614
1.9067539617631075 0.9715396694426303
1.801213089432211 0.9577219880832176
1.7404932172073975 0.9647711442902107
1.6367880131525891 0.9449999999999996
1.620046198326992 0.9734219615800025
1.5180060921200027 0.9485554829774367
1.4592867882250375 0.9476719209261473
1.4425253762457726 0.9729956520390994
1.384366954848396 0.9693441774332682
1.3267878707749137 0.9639678137596559
1.2698304609751956 0.9568858868117571
1.2135365605543518 0.9481186720015138
1.1579474825708869 0.9376873826642576
1.1414062202472772 0.9577535384329436
1.1245172745319303 0.9775279531958556
1.0329713074135778 0.930091542838813
1.016581645250647 0.9479777204868728
0.9998823224707247 0.9655751349380063
0.9828784258493011 0.9828784258493009
0.9308422164150563 0.9639153324537928
0.8797778844806231 0.9434462750887299
0.8631784822029273 0.9586568248658385
0.813513195948229 0.9358398794762373
0.7970566360113089 0.9498951094675328
0.7803572849017983 0.9636609922066439
0.7634202294038164 0.9771333344723352
0.7161598775509372 0.9503762569562786
0.6700751876134193 0.92227937358744
0.6538771374401923 0.9338333304894507
0.6654395551301887 0.9865547113404997
0.5936565481663797 0.9141509190605122
0.5776119980141934 0.9243724248105044
0.5871434053974618 0.9771707228004078
0.5449999999999999 0.9439676901250382
0.5284424860685075 0.9533354807819414
0.5117240034366208 0.9624128762162305
0.47215011972912874 0.9266467851559026
0.45590599266064036 0.9347458081511337
0.4395229922103274 0.942560098518116
0.4230061087988324 0.9500872759483048
0.4063603736288447 0.957325047590538
0.3708605274817531 0.9179120160211194
0.35478427004984714 0.9242446222322297
0.3557009490586956 0.9772803256173447
0.32231247291258497 0.9360633898433237
0.30592682443119795 0.941545951132202
0.28944798767550917 0.9467417084034052
0.2728809822588292 0.9516490789789357
0.2432899023963697 0.907970276711724
0.2274065818636876 0.9120779826994366
0.21145399108323323 0.915907860898121
0.19543698936869366 0.9194587446897773
0.18508472551524857 0.952178367944234
0.1632292870069144 0.9257192878314756
0.14704839713781706 0.9284270401594295
0.1349979079312633 0.9605600266793233
0.11455718280083864 0.9329933825428426
0.10139260936962406 0.964686238507225
0.0845410704652284 0.9663088571489932
0.0676637795318017 0.9676371287520295
0.05076587755565543 0.9686706487119366
0.033852511801426045 0.9694091022085228
0.016405262051046372 0.9398568334470078
