# .PCD v0.7 - Point Cloud Data file format
VERSION 0.7
FIELDS x y
SIZE 4 4
TYPE F F
COUNT 1 1
WIDTH 180
HEIGHT 1
VIEWPOINT 0 0 0 1 0 0 0
POINTS 180
DATA ascii
1.524685264938455e-16 -2.49
0.042932919835717655 -2.4596253300847226
0.09283266122865289 -2.658379599870795
0.16433490260284406 -3.135696739129362
0.17508874909775488 -2.5038857661521585
0.21004534002185613 -2.4008292224011067
0.25191359647504485 -2.3967977678375387
0.30589205194692015 -2.491290840619718
0.4397869990338069 -3.1292470972233626
0.47868946302310666 -3.0223263222211214
0.5313634236608071 -3.0135117242173566
0.5838755258522275 -3.003779181349852
0.6570009429841199 -3.0909464183188256
0.7333404371610003 -3.1764464111998665
0.8128575692148834 -3.260193640287348
1.1025691321367384 -4.1148440199914305
1.2155607391529664 -4.2391640790879865
1.3332149735356795 -4.360749687191441
1.4709208932247497 -4.527029017564931
2.9170906639361247 -8.471846437369878
3.1671065271956933 -8.70155366847751
3.1213848405395668 -8.131485514790628
2.3824979341252015 -5.896889315044768
3.3641950162926464 -7.925546788225511
2.4648240570393503 -5.53608547331416
3.596481407413352 -7.7126792676818905
3.9497240325695877 -8.098134357155494
3.023576728265382 -5.93410345109453
2.9388919830396767 -5.527251931296882
4.416615640444131 -7.967785532039895
3.379999999999999 -5.854331729582806
4.228462595011546 -7.037343538764342
3.1583188148299013 -5.054366653092298
4.444254525722621 -6.84355183443466
3.6683054467680996 -5.4384864759610725
5.053208404252716 -7.216729510186018
4.943273971779699 -6.803832922693308
5.3320811051271475 -7.075910619019014
5.085363786189938 -6.5089688247915225
5.135254390966673 -6.341511045488883
5.245146895042161 -6.250922655850861
5.550259385259692 -6.384843048684652
5.8950406420215415 -6.5471059124558435
6.008405552150613 -6.443226111264891
6.119940243743766 -6.337383640983516
6.2296107422534845 -6.229610742253484
5.797878790729529 -5.598946465899518
5.931278520131473 -5.531006700106862
6.026904534621668 -5.426649217570339
6.120694695606681 -5.320638725113014
6.212620433694911 -5.213007514557833
6.341511045488883 -5.135254390966673
7.021175814635893 -5.485543745151615
7.1557741700237445 -5.392262607442353
6.965636321568297 -5.060831022238194
6.725238283612623 -4.709062542442089
6.682042834793637 -4.50709480197422
6.7596847776401185 -4.389790622221118
6.835267655020795 -4.271149269719632
7.2087769989047645 -4.3314702099935545
2.82324281633727 -1.63
2.676336303846551 -1.4835174379537914
2.7459670137912626 -1.4600565602641205
2.681929637806987 -1.3665114042160358
2.660430377045534 -1.297578594495669
2.6373556602766515 -1.2298191416654354
2.704094554622099 -1.2039404635043685
3.046871064927578 -1.2933200352994958
2.9762601731593876 -1.2024871648650772
2.9034351264062974 -1.114524323085884
3.0164133127227655 -1.0978846600753966
2.8932868413339095 -0.9962385526388995
2.9102329398631697 -0.945592002787339
2.7828468398524335 -0.8508016607431639
2.749208450383592 -0.7883228376366174
2.6659552805578284 -0.714340564482957
2.6295014182079504 -0.6556083370750992
2.572336971033021 -0.5938707834678033
2.5334022859005563 -0.5384912792179968
2.4442516867846833 -0.47511439848759673
2.452171305000398 -0.43238396239065663
2.3605751340223793 -0.37387837144615177
2.1191736671069608 -0.29783043605454
1.7468812268887268 -0.2144900443930595
1.7801941927092093 -0.18710594924909957
1.7831885095842246 -0.15600877951830794
1.7856396499650855 -0.12486408800198406
2.087135727637059 -0.10938214854775276
1.8588669382555183 -0.0649130638666519
1.83971975908776 -0.03211242784460171
1.79 0.0
1.8597167129908878 0.03246147597334738
2.08872682846991 0.07293994810822713
2.1869986811125166 0.11461574417204715
2.2345434725820064 0.15625450118684092
2.2812858586300973 0.19958665089213748
2.3271812351617593 0.24459660404630942
2.3721853024227597 0.29126773073830237
2.4162540877294316 0.3395823663425596
2.4593439680818934 0.3895218179501749
2.471867460060642 0.43585692594399517
2.562046948798403 0.49801147793278205
2.601872617951923 0.55304509757524
2.6405428755679874 0.6096173572718744
2.7750457771493497 0.69189662141505
5.612029050739486 1.5037386520456464
5.5368673686047165 1.5876711695059147
5.460500156548933 1.6694424339668266
5.382979882230569 1.7490361881622023
4.878875850092475 1.6799316769989285
4.6608753990981056 1.696419910895317
4.49052185145154 1.7237498373128943
4.691550304107944 1.8955093626845152
4.105451646397883 1.7426608330621616
4.02873546820387 1.7937085959642796
4.042132730183459 1.8848774473635193
4.233319958069076 2.0647281013765553
4.463942686183723 2.2744924036951293
4.688451718080901 2.4928939983930807
5.475119366692617 3.03490822274207
5.421319027690586 3.129999999999999
5.451584032465434 3.275642156427945
5.39358589155487 3.3702865205231833
4.8726759997629125 3.164352793437308
4.899612053800297 3.304830059512114
4.882146183962391 3.418515560652236
4.821741286474687 3.50320010366314
13.305267597387896 10.026238285713127
14.586079049260423 11.395893908277936
16.755266929012294 13.56814763103449
19.88651374336867 16.686766347462562
22.762040939518805 19.786740314353697
6.77004936009906 6.095779823929199
6.626064536669686 6.178905142166236
4.682902100204617 4.522225991688073
4.603265145524425 4.603265145524424
4.556958910211021 4.718869090221553
4.47390924200999 4.797680282621758
3.3389617257307034 3.708292679132197
2.630796706251934 3.0263854166933157
2.1919057490310996 2.612211551035715
1.8627883575075186 2.300352045912634
1.6376595243662515 2.0961086045938804
1.4503742057964362 1.9247115792139762
1.2990054075663655 1.7879275575686338
1.1528886370656022 1.6464956090208736
1.0400988004555891 1.5420098849523778
0.9313327498756965 1.434126671186675
0.8425716301307958 1.3483964728887174
0.7931586353614836 1.3200376430812528
0.7849999999999998 1.3596598839415688
0.7611511037867493 1.3731529402088514
0.7370703535738483 1.3862277207885154
0.6991453695989022 1.3721500472500865
0.6970101233946329 1.4290825336156756
0.6719630361677121 1.4410293813882735
0.6467112624905226 1.4525372776517353
0.6407990507224088 1.5096279596620021
0.614354813202096 1.520581521489531
0.5877234372542922 1.5310718994554107
0.5609130350540968 1.5410958980888896
0.5339317733097367 1.5506504639828795
0.5067878707749138 1.5597326867240517
0.4941081809814247 1.61615503757753
0.47960899912157856 1.672595350932675
0.4503451384783865 1.6807109377429788
0.43304019312340514 1.7368293500340337
0.4026623872755186 1.744122415965571
0.37216192656378905 1.7508842053135123
0.3415481017240154 1.7571126583713186
0.31951264690715164 1.812046265542463
0.2956611389260364 1.8667309637248104
0.2630371608145233 1.8716066499215678
0.23642652620598612 1.9255395341841646
0.20278521873924812 1.92937247701445
0.1734399280678397 1.9824274492025735
0.14230320643801594 2.0350306625300414
0.10676535073560524 2.0372042508993307
0.07293994810822725 2.08872682846991
0.037348149775786425 2.1396740676346773
