# .PCD v0.7 - Point Cloud Data file format
VERSION 0.7
FIELDS x y
SIZE 4 4
TYPE F F
COUNT 1 1
WIDTH 180
HEIGHT 1
VIEWPOINT 0 0 0 1 0 0 0
POINTS 180
DATA ascii
3.91886975727153e-17 -0.64
0.011169540119861503 -0.6399025249000905
0.023382662790675725 -0.6695918541027942
0.03506509068277246 -0.6690817882855645
0.04673683740856406 -0.6683679136740822
0.05839434764093095 -0.6674504477214696
0.07003407038932782 -0.6663296698967431
0.0779963797792944 -0.635229537050446
0.0890707846144419 -0.633771563994605
0.1001180576257478 -0.6321205379808882
0.11113483370683547 -0.6302769619278131
0.131658206809816 -0.6773227565788881
0.13306348212336605 -0.6260144644696356
0.1439686747800737 -0.6235968414625506
0.1669261079637707 -0.6695040511304375
0.1785851411207393 -0.6664888201394571
0.17640790772287948 -0.6152074854005241
0.20173647625868835 -0.6598502816144944
0.21322172611871373 -0.6562289962436559
0.20836361885258034 -0.6051318883835627
0.23599389889471148 -0.6483879083422767
0.24727388518625723 -0.6441704942830692
0.2584785494569794 -0.6397568596510832
0.26960447865759885 -0.6351483488821839
0.2806482837223022 -0.6303463657733944
0.29160660060108257 -0.6253523730552885
0.3024760912844634 -0.6201678919464251
0.3359529698072647 -0.6593448278993922
0.3474089564615592 -0.6533812187156058
0.35875911898228946 -0.6472185832831528
0.36999999999999994 -0.6408587988004847
0.38112817543344013 -0.6343038025195631
0.4186362187442319 -0.6699579959635765
0.40303288591112 -0.6206162202796137
0.4138027485683527 -0.6134878036907307
0.4531253847173264 -0.6471301149883035
0.4643503493110538 -0.6391234255562085
0.47543386829011813 -0.6309220529373614
0.48637256550727015 -0.6225284953493103
0.5286291284818634 -0.6528026076238556
0.5078022116523662 -0.6051751100639926
0.551089584352026 -0.6339560473871285
0.5620697093414408 -0.6242416534010111
0.5728786224524988 -0.6143371093601031
0.6182459497085075 -0.6402124223013995
0.6293250352560273 -0.6293250352560272
0.6402124223013995 -0.6182459497085075
0.6509047944410619 -0.6069785404556236
0.6985561359487507 -0.6289827699773266
0.7094270054094056 -0.6166954872510768
0.7200817765318392 -0.6042203531053468
0.7693745018424012 -0.623027187139339
0.8195311837509909 -0.6402879343386846
0.8705127059515493 -0.6559783752357327
0.8413776741499454 -0.6112966623841721
0.8928757282750012 -0.6251983156226403
0.9036509540849955 -0.609520264783114
0.9560844474577833 -0.6208884999171307
1.009177234426147 -0.6306039244375138
1.0200290878355136 -0.6128953091429643
1.0738715006927038 -0.62
1.1282594222098206 -0.6254044101177748
1.139002394788016 -0.6056183159937991
1.193948742412413 -0.6083472696509927
1.204384022040884 -0.5874173366973637
1.123821655925446 -0.5240466445584673
1.132796367476825 -0.5043534374139922
1.205861358022697 -0.5118577783209485
1.2146108494824917 -0.49073463737484463
1.2696693800361945 -0.4873804113816085
1.6068743815439033 -0.5848544450868935
1.7113886218347636 -0.5892783595674537
1.816517946123743 -0.5902224592561495
1.9221725594857013 -0.5876671264927007
1.980199093632937 -0.5678129529830181
2.038103493469934 -0.5461081851663186
1.901779623500953 -0.47416691537534855
1.8902779256833564 -0.43640504542709785
2.0149840575116396 -0.4282980830845844
3.003779181349852 -0.5838755258522272
3.9983194772295643 -0.7050116013277372
4.010014662816259 -0.6351239280633373
3.970974955653697 -0.5580841348498623
4.377128528738231 -0.5374438044167003
4.783650316721394 -0.5027819083174128
8.876094759997454 -0.7765576678816334
10.035494345613833 -0.7017501258658994
11.244568561336502 -0.5893028672955484
13.102013742220345 -0.4575324017697883
13.15799566825811 -0.22967366871465134
13.06 0.0
19.107089454438636 0.33351548701648837
20.097749531354015 0.7018288786872955
20.08243994391448 1.052476080045602
19.163205405491222 1.340021860624649
19.136900150342434 1.6742618181825157
19.154491704792946 2.0132182025350085
10.87830582198889 1.335688003720416
8.179614247805372 1.1495698139301402
5.787853675887508 0.916705965135753
4.8354060672899415 0.8526125523446281
2.316640152936487 0.45030922908864585
2.0247655335189774 0.4303771999927619
2.0169460341054366 0.4656486824918007
2.3384127003251516 0.5830317683951995
2.4727701153000146 0.6625767554624535
2.4608299416020962 0.7056316308915177
2.495955413063523 0.7630901493263428
2.482257507530351 0.8065343553186126
3.79152948815326 1.3055282993731983
2.4056131092119255 0.8755715669137121
2.3899658918328366 0.9174219508359689
2.3735906676909755 0.9589928791447351
4.749805043814592 2.0161726230046533
4.75957183431795 2.1190979104249195
4.767178959812778 2.222972056756079
5.401752218257993 2.634610592202356
5.66680149383802 2.8873795783435177
1.8630194209323356 0.9905849974782299
1.7579856113501853 0.9744673366951374
1.7840123317959438 1.0299999999999996
1.7229062744112453 1.035226530569209
1.6197718636587737 1.0121457946854213
1.6437943131730308 1.0674925086294533
1.6663655208356336 1.1239777359762009
1.6874532112353229 1.1815674588831553
1.707025858131139 1.2402268823371183
1.764984477204517 1.3300112011660272
1.7021032277905195 1.329828786703422
1.6397779786742088 1.3278660251151566
1.5397493306691457 1.292003095469944
1.5547017352589103 1.3514815997204448
1.5308783404834319 1.3784090490992482
1.5431563104164499 1.4390165397318717
1.5537739687314862 1.5004620801914343
1.56270598642227 1.5627059864222699
1.5351949987143836 1.5897409587484193
1.5413162937412463 1.6528593656593251
1.5122351703710197 1.6795073055789105
1.449890454069021 1.6679081722923261
1.4205606174072523 1.6929582192929413
1.4222640837726324 1.756349872892754
1.422178008002271 1.8203048408315277
1.4503742057964362 1.9247115792139762
1.4459517206394839 1.9901818061623706
1.4396768552411252 2.0560716311653695
1.4315338328851117 2.122336185740907
1.3942759296384697 2.146996653940285
1.409585242860325 2.255807935776093
1.4472569904972525 2.4086401149729353
1.4299999999999997 2.4768326548234945
1.4107959949168412 2.5451433477756416
1.4131094039855308 2.65767225450537
1.4119104541899907 2.771030290225824
1.4071713811929378 2.885128888620326
1.41999735944875 3.0451941644431435
1.4073087850422692 3.1608672834433986
1.3714662609973507 3.2309720356180653
1.389790461573034 3.439852100442781
1.3653818877675936 3.5569414249543385
1.3543997675696486 3.7211827783121967
1.3380851148189135 3.8860813457131926
1.3473140954747709 4.14660641104687
1.3185963882995417 4.31293444939329
1.312033813688916 4.575605672666398
1.29668341596363 4.839288389708232
1.272509170854252 5.103755520211741
1.239480309434697 5.368779056966646
1.228758092732957 5.780852320336792
1.184923861288344 6.095904809209993
1.1651792721451018 6.608060022711917
1.041853537167938 6.578004348363618
0.9268928523940345 6.595185337818859
0.10480763532842684 0.8535896904115369
0.08257748598144642 0.7856722973409359
0.06885303677064994 0.786993811492479
0.055107614257859115 0.7880755997052612
0.03872860761977837 0.7389858557183846
0.026523617493900822 0.7595370285345128
0.013787401085453867 0.7898796791735492
