# .PCD v0.7 - Point Cloud Data file format
VERSION 0.7
FIELDS x y
SIZE 4 4
TYPE F F
COUNT 1 1
WIDTH 180
HEIGHT 1
VIEWPOINT 0 0 0 1 0 0 0
POINTS 180
DATA ascii
2.3635683223543916e-16 -3.86
0.0678898610410332 -3.8894075341583623
0.13401406733760415 -3.8376607757533274
0.20358686978505203 -3.884668890195292
0.26786485917744174 -3.830645952997725
0.3346780521510072 -3.825387640672303
0.40138929894778924 -3.818964078214169
0.46797827867576636 -3.811377222302676
0.5274660526386481 -3.7531159805305516
0.5928866225024753 -3.743338810855572
0.6668090022410128 -3.7816617715668785
0.7327065422459325 -3.7694483844390296
0.7983808927401963 -3.7560867868178134
0.8750596013976354 -3.7902995520145653
0.9289800791027238 -3.7259355888998265
0.9938651331936796 -3.7091551729500223
1.0584474463372768 -3.6912449124031443
1.113936194993627 -3.643521120219165
1.1866252583997983 -3.6520570225733895
1.250181713115482 -3.630791330301376
1.3133573503705682 -3.608419663817888
1.3761329262539534 -3.5849488377492547
1.4272511209146255 -3.5325704858994595
1.4886855995441328 -3.5071234916537977
1.5618687094110735 -3.508014557347587
1.610175577232065 -3.4530326686096364
1.6614266463306036 -3.4064294354738425
1.7297038040076735 -3.394734857157682
1.8027708010978207 -3.3905187565782793
1.8374284607336178 -3.31480869005831
1.9199999999999995 -3.3255375505322444
1.9777462076546084 -3.2915224346961107
2.0083940114438468 -3.2141022844328546
2.0641819427069525 -3.178561452513157
2.147300749327668 -3.18350427861136
2.2025335155880166 -3.1455438500697284
2.2570953688030966 -3.106625258399798
2.280878937746263 -3.0268285830792396
2.3333569914842456 -2.9865607561694762
2.3851242820788836 -2.94538319392192
2.4361650407119844 -2.9033084394209268
2.519266671323548 -2.8980847880554443
2.536004998100073 -2.816518888559324
2.5847737846368695 -2.771830529136656
2.6674881425625494 -2.76226483330042
2.7152900397563426 -2.715290039756342
2.6327836692394633 -2.54244963587993
2.640186862845206 -2.4620140798256194
2.6827528199733934 -2.4155614889554777
2.6867661055930685 -2.335570143206206
2.6888159953476127 -2.256184509999753
2.7277823247139676 -2.2089145725849293
2.765917745159594 -2.16097177839306
2.883074191270727 -2.172552233578894
3.08235474856855 -2.2394618112343228
3.2438420953844074 -2.2713626879501425
3.5317000590844776 -2.382161768785381
3.8243377898311333 -2.4835539996685227
4.163916152128052 -2.6019035873850362
4.680133461833534 -2.812107889008895
4.728498704663035 -2.73
4.86288557169504 -2.695541488569634
9.632958238090893 -5.121934749994069
10.968290312758809 -5.588623051793822
12.59210458865133 -6.141579766514974
14.781880006567759 -6.892903848990806
19.330621883717438 -8.606547367483932
20.490438037851323 -8.697674920171233
26.24857492278575 -10.605112659604465
21.34164854972603 -8.192291326605565
23.407743183776976 -8.519721770242409
26.90945866155656 -9.26566967585068
27.019515627945314 -8.779172810192255
26.929541927919082 -8.233187204992266
19.282909620522677 -5.529285357689002
19.52136094930207 -5.230732901521943
20.531457568000086 -5.119067310888967
16.184286776082757 -3.7364370126515953
13.899477406427378 -2.9544251265203614
12.32923742410266 -2.3965609819294036
11.039694911266853 -1.9465960716462896
9.985529123416843 -1.581552441556734
9.169882316546941 -1.2887429148902056
8.496195058049718 -1.043201579548062
5.330637359173945 -0.5602725631146221
4.8913159676304705 -0.4279346968910011
4.5987702716977905 -0.3215773439604171
4.304093294792213 -0.2255679714070882
4.007557216346574 -0.13994698177702908
3.809419718545851 -0.06649366852605028
3.71 0.0
3.559457794756753 0.06213056691672939
3.557831344187981 0.12424220826090362
3.6050526204640114 0.18893280203702748
3.601206221437965 0.2518208702162927
3.596262860111201 0.31463223131904644
3.6399501370478804 0.3825741755596122
3.682346222589305 0.45213526403309695
3.8521427874047087 0.5413833627346545
3.792723227885329 0.6007083457544865
3.8309021592174894 0.6754914111243591
3.7399995689355996 0.726982272384636
3.7560867868178134 0.7983808927401961
3.7415810487753034 0.8638120486804419
3.7259355888998265 0.9289800791027245
3.709155172950022 0.9938651331936802
3.6912449124031443 1.0584474463372766
3.720025500696208 1.1373259313714459
3.6520570225733895 1.186625258399798
3.649701701813363 1.256693076204625
3.608419663817888 1.313357350370568
3.5849488377492547 1.3761329262539532
3.6067451942648026 1.4572196483878983
3.5347386372573704 1.5004075333988116
3.5536918302297176 1.5822055415648633
3.5255372915725682 1.6439850381713206
3.469345018714784 1.6921126266058393
3.466015379092751 1.7660230439868372
3.434666136221226 1.826244379237116
3.4022706607722495 1.8859094227582511
3.3255375505322444 1.9199999999999993
3.3343807997312167 2.0034981114001114
3.2989070940484977 2.061385937867167
3.262428509307699 2.1186458462084556
3.2249561572391126 2.1752603945012052
3.186501452284178 2.23121233740557
3.187526957837293 2.315873894032344
3.0827330687825496 2.3230059893669073
3.0653618315301485 2.394923139016811
3.0230977900676175 2.4480563211838673
2.995233772595204 2.513299553874369
2.9131789796598997 2.5323878519033576
2.927990612380933 2.6363745890539017
2.881533584379532 2.687073538646244
2.7982318233173524 2.7022210610855
2.75064537881567 2.7506453788156695
2.7369539796084488 2.834198813334286
2.666613587844369 2.8595929733309564
2.6363745890539017 2.927990612380933
2.5651908033528836 2.9509144586710385
2.5132995538743694 2.995233772595204
2.4606427290048645 3.0386407092967564
2.425706212783094 3.1047623692104844
2.3831874916821105 3.16259661978728
2.3276295990781937 3.203707297724792
2.2426838661325896 3.2028844931699583
2.2032200396747426 3.2664080358668643
2.145877797959207 3.30436203770497
2.1249762495751514 3.400672865587268
2.271317910353339 3.780107796096315
2.8799999999999994 4.988306325798367
3.059148703754387 5.518850352049586
3.2440484988505043 6.101167866655185
3.545665802965861 6.958760953911153
3.8620498032117707 7.918375547895662
4.2726706261984715 9.16277172694053
4.905243915494153 11.017358219169765
5.747654900077217 13.540626394285399
8.170169802401045 20.22187986810163
8.747761648400777 22.788698210796696
8.348711698579576 22.937896873384023
7.947118650299191 23.080108430379326
7.5431048326924675 23.2152895627647
7.151411897518136 23.39121433085585
6.7420897232838 23.51246108265128
6.330713843207663 23.62654571103061
4.550550856229749 18.25126261125149
3.25279224581229 14.089391136794502
3.0064030492247986 14.144014306610831
2.0340238907139687 10.464145775552097
1.6513941696125063 9.3655217311461
1.3390790207443768 8.454612195494379
1.0730246084021031 7.634966809997508
0.8664910316105987 7.0570031381698
0.685706719035808 6.524063633615873
0.5281638010508083 6.036939870435978
0.4017972887661626 5.745968929496587
0.2805207254621785 5.352654306284516
0.17833642814978054 5.10688712606758
0.06998414981350634 4.009389257577129
