# .PCD v0.7 - Point Cloud Data file format
VERSION 0.7
FIELDS x y
SIZE 4 4
TYPE F F
COUNT 1 1
WIDTH 179
HEIGHT 1
VIEWPOINT 0 0 0 1 0 0 0
POINTS 179
DATA ascii
1.4328367550024033e-16 -2.34
0.04048958293449795 -2.3196466527628274
0.08271180718492756 -2.368556260035257
0.11984933979634169 -2.286861634587974
0.1597423248740473 -2.2844216750949973
0.2065591103119498 -2.360981434477437
0.24459660404630906 -2.3271812351617593
0.2851742635680451 -2.322557994840693
0.3256650562465532 -2.3172272808552745
0.36605664819414035 -2.3111907169926225
0.4063367357406171 -2.304450142048567
0.4464930491811151 -2.2970076092675336
0.4865133565135571 -2.288865385717105
0.5263854671646444 -2.2800259515974504
0.5660972357032223 -2.2704919994858317
0.6056365655398985 -2.2602664335164198
0.6587732804026281 -2.297415453292582
0.698768374287341 -2.285568366751655
0.7385506165561244 -2.273025073945417
0.7618294814297467 -2.212513466902401
0.8174281425483485 -2.245865363678321
0.8564993994132679 -2.2312572193283122
0.8765794285932345 -2.169610219686282
0.9338473970893643 -2.2000065997513327
0.9924374091049529 -2.229050916647946
1.0100576455602717 -2.1660756110175936
1.069625598165349 -2.1930574729699672
1.1077368193644943 -2.174055919019618
1.1455106131975736 -2.1543921265757815
1.1829354734010626 -2.1340720854201254
1.2199999999999998 -2.1131019852340303
1.2566929027805325 -2.091488213713154
1.29300300472902 -2.0692373546216793
1.3561511971874176 -2.0882897141841057
1.3923903296421598 -2.064303555662054
1.4282053265141048 -2.0396885902795896
1.4635852782082583 -2.014452315993619
1.5286101588062027 -2.0285341955201237
1.5329970735608895 -1.9621467764807377
1.598473793266587 -1.973950742100706
1.6005411481194831 -1.9074506633662554
1.6663899336358885 -1.916962333765841
1.6995917401515 -1.8875878567125814
1.7663757525618713 -1.894206087193651
1.7991651794888028 -1.8630900828771062
1.8667619023324857 -1.8667619023324853
1.8990570728940392 -1.8338980980117527
1.9307737722746103 -1.800475670564996
1.9619023392603212 -1.7665048007873856
2.0679042498103954 -1.79760173943399
2.060659551990051 -1.7290986700567905
2.0905226363192515 -1.6928718519240626
2.119748927202082 -1.6561293686260206
2.1882612975295825 -1.6489731634366125
2.2167065645873563 -1.6105315912813765
2.2854342035662873 -1.6002782574194185
2.288143700251915 -1.543372413579261
2.2979573561704623 -1.492310955941174
2.3660541882764288 -1.4784747472106416
2.434355133993999 -1.4627081327445535
2.4768326548234945 -1.43
20.606040300204164 -11.4221146530037
20.846392667399265 -11.084223597374882
16.670732067564366 -8.494162250126921
16.052461666903124 -7.829308681652922
13.739626051475613 -6.406892847989003
12.570385497162189 -5.59669620872301
12.574096298160336 -5.337387215163479
12.758049838838994 -5.154586725402948
12.892745689926356 -4.949061383220598
9.547277027184828 -3.4749246561887945
9.086433511509435 -3.1287099643332756
8.569019211819333 -2.784243119318276
8.090338235447282 -2.473464621954353
7.747769269262851 -2.221637087885013
7.398991829374263 -1.9825538854853084
7.092861759077534 -1.7684490568335702
6.830334154144499 -1.5769068909504926
6.612277780960525 -1.4054830299280534
6.390392964244293 -1.242166559901307
6.164896533856422 -1.087037592194984
5.936006926976778 -0.9401711348917875
5.753457479388524 -0.80859571657798
5.568183910707817 -0.6836870165028771
5.380363453942358 -0.5654989862780049
5.289793846867169 -0.4627969939900643
5.097552296827702 -0.3564555808324797
4.953202492382686 -0.25958634296500177
4.80706987796185 -0.1678665791390299
4.709282644186603 -0.08220083431960545
4.56 0.0
4.459320720397505 0.07783773271028457
4.357344005803258 0.15216180562290446
3.9545729576281126 0.20725038672205787
3.850597234002921 0.26925998865232403
3.745692064824963 0.32770559273119515
3.6896762318162937 0.3878005987229949
3.682346222589305 0.45213526403309695
3.673894535031226 0.5163322045618427
3.713708160637718 0.588193588551268
3.801357926627123 0.6702819657943512
3.7890809281079827 0.7365227221534631
3.7756497388324894 0.8025391265565512
3.8097869533102697 0.8795586224845126
3.842371076052946 0.9580107065746847
3.873362563419163 1.0378643708611088
3.8546594007126584 1.1053057968261664
3.834782071411772 1.1724105359381742
3.8137366303435654 1.239158147443539
3.8860813457131926 1.3380851148189141
3.8621366714300835 1.4057027890684988
3.8836945742283593 1.4908106701084494
3.8570848349978353 1.5583634286101944
3.8753254330347735 1.644978050939843
3.8917036495574795 1.7326980995029093
3.8608711727761285 1.8003537950153794
3.873802339549409 1.8893796426609242
3.884788445461284 1.9793985788644242
3.8496515048649216 2.0468960137464847
3.8570729084847355 2.1380104252863465
3.8191720306893746 2.204999999999999
3.8229661611314203 2.297069814098842
3.7822945088576603 2.363439918480094
3.7824042614338618 2.4563220479177725
3.738959452223238 2.5219599946530677
3.735333321957802 2.615508549760771
3.729568344068508 2.7096900130683013
3.68170970131802 2.774367256730944
3.672130111807324 2.868982475017568
3.6603574784623336 2.9640990418447335
3.6080693270903863 3.0275296416236004
3.5924176018603946 3.122840977994814
3.5373693692723958 3.1850616862681655
3.5178113047882102 3.2804121119006173
3.460024439628911 3.341306761907777
3.4365389565666216 3.4365389565666207
3.3760396804307264 3.4959914296458456
3.3486119479068677 3.590946674950127
3.2185182165861086 3.5745266105462656
3.1556439294443397 3.630153080871533
3.059669022107928 3.6463715492463353
2.995565061397226 3.6992147765351815
2.899765548783851 3.7115306494876603
2.864639510203749 3.8015050278251143
3.7089249419655053 5.104897234505918
4.278880215178803 6.11087425039588
14.1531723868446 20.982940961368104
3.8451515872060917 5.921014209694692
12.90685415724596 21.48061255559493
12.579999999999997 21.789199159216476
11.422114653003701 20.606040300204164
10.121806893663802 19.036350102038465
9.44754229957997 18.541845768359934
8.070412812386913 16.546798392367666
6.956296588251913 14.917826174623258
6.044106516106393 13.575285500569047
5.317850658739015 12.528071055487713
4.705058813303857 11.645429213358849
4.3398358689935845 11.305658964881113
4.141863935673849 11.379677637717348
3.8612383118618765 11.213850306607897
3.2786703103181924 10.090709637891578
2.955877934746866 9.668241082786288
1.8219629219503646 6.353939810152288
1.6331481745969072 6.09499196388402
1.466046687333986 5.8799921012325385
1.2844705203034699 5.563653069923693
1.1559890009467413 5.438500660079959
1.0227362152182808 5.261521703279479
0.9220718234113994 5.229329168494825
0.8306670093636261 5.2446250885601815
0.7459678211459497 5.3078368484548175
0.6593131478218479 5.369674680379552
0.5654989862780064 5.380363453942358
0.4845859296769792 5.538842521390105
0.3878459940173375 5.546456119444622
0.2909879167107672 5.5523802132354305
0.194041201665906 5.556612998226172
0.09703537979129556 5.559153185069535
