# .PCD v0.7 - Point Cloud Data file format
VERSION 0.7
FIELDS x y
SIZE 4 4
TYPE F F
COUNT 1 1
WIDTH 180
HEIGHT 1
VIEWPOINT 0 0 0 1 0 0 0
POINTS 180
DATA ascii
4.1025667771436334e-17 -0.67
0.011693112312980012 -0.6698979557547822
0.02163768795555067 -0.6196223127518393
0.03506509068277246 -0.6690817882855645
0.04673683740856406 -0.6683679136740822
0.05839434764093095 -0.6674504477214696
0.07003407038932782 -0.6663296698967431
0.0779963797792944 -0.635229537050446
0.09602943966244516 -0.6832849674316835
0.1001180576257478 -0.6321205379808882
0.11981724259018198 -0.6795173495784235
0.131658206809816 -0.6773227565788881
0.13722171593972124 -0.6455774164843117
0.148467695866951 -0.6430842427582553
0.17176454587576404 -0.6889099656559574
0.1708205697676637 -0.6375110453507851
0.18192065483921946 -0.6344327193192905
0.2075839103531431 -0.6789763767337551
0.21940206600621268 -0.675250126569559
0.2311533896645813 -0.6713181886755148
0.24283430176122486 -0.6671817607579948
0.2723596416544283 -0.7095211241378734
0.28470101099609324 -0.7046597294707584
0.296955657651848 -0.6995836886238547
0.3091198487376083 -0.6942945478083766
0.3211898789229316 -0.688793918147854
0.33316207155969885 -0.6830834751873669
0.3450327798020556 -0.6771649583831596
0.38027196585657164 -0.7151875502157308
0.39269579239953306 -0.7084419627829106
0.4049999999999999 -0.7014805770653953
0.40688007917894287 -0.6771621675546687
0.4080378334595678 -0.652997034040448
0.4139256666114206 -0.6373896316385222
0.4809058969848423 -0.7129723123973358
2.701545015213427 -3.8582061286011515
2.7096900130683013 -3.729568344068508
2.7141857544157375 -3.6018461503132904
2.6842840324198707 -3.4357268857253076
2.680904865872307 -3.310641795806696
2.7061358367803305 -3.2250471055308974
2.696402609150985 -3.1018563747155934
2.683213731499021 -2.9800107501643507
2.6666135878443695 -2.859592973330956
2.681381309971729 -2.7766516293071932
2.6587214972614186 -2.658721497261418
2.668750659256396 -2.5771825544028797
2.6767545479261643 -2.4961139978287443
2.6827528199733934 -2.4155614889554777
2.6490306265819297 -2.3027671917566805
2.6888159953476127 -2.256184509999753
2.6889250266411193 -2.1774485530324372
2.8053182828399303 -2.191754852159343
2.7632788647636333 -2.082279980106087
2.8396496502560655 -2.0631262355465805
3.0390540843121596 -2.1279685788623808
2.8684700010404445 -1.9348074460087838
2.9856672218857097 -1.938914964653496
2.9766488175090555 -1.860016617458549
3.008657225464414 -1.8077836429342895
2.9098453567157136 -1.68
2.85126024527443 -1.5804793620030586
2.9225565323630485 -1.5539508728212985
2.7264799640164057 -1.3892109292030133
2.750309781675451 -1.3414157091745769
2.6826710496284836 -1.2509500547524701
2.7497718275042287 -1.2242772956581585
3.1849467929454436 -1.3519297045728869
3.1153377513444056 -1.2586781538774638
2.856756105081437 -1.096605925608619
3.157367205840652 -1.149187681574247
3.0351146276738072 -1.045073775807473
3.0528914173074426 -0.9919445519435811
2.9741077910450406 -0.9092760016877112
3.037586959165088 -0.8710140443817173
3.100621902387909 -0.8308091347790914
3.066134495032149 -0.7644731900949497
3.0790094047213437 -0.710845331726613
2.8464095181353746 -0.6050230202796799
3.052860540522235 -0.5934159756210545
3.0135117242173566 -0.5313634236608069
3.0223263222211214 -0.47868946302310644
2.9807068869121265 -0.41891103388979684
2.937936608858313 -0.3607332564792364
2.9935109050585025 -0.3146306744356367
2.8491168365423922 -0.24926542425830206
2.8530331837430976 -0.199503514908198
2.706286039184895 -0.14183044141837797
2.858257765274614 -0.0998125605691529
2.859564408147279 -0.04991388241063091
2.76 0.0
2.8095720233894594 0.04904126208876674
2.8082882239236593 0.09806758573402787
2.90601194613581 0.15229763266696678
2.9527895887690794 0.20647916228261118
2.9487363063515666 0.25798099853306855
2.9437848102900888 0.3094042512722547
2.7890546861121153 0.3424528549684643
2.9807068869121265 0.41891103388979684
3.0717107392508782 0.48651118627511797
3.062752111867967 0.5400458325441534
3.052860540522235 0.5934159756210545
3.0909464183188256 0.6570009429841197
3.127727907960605 0.7220928844438069
3.163164067659748 0.7886653796549171
2.955733028444549 0.791986278013714
2.9414607895712557 0.8434503088000173
2.926292553246889 0.8946574164515744
2.957785765677927 0.9610428525060863
2.637996825922094 0.9083351509354672
2.5935516333691067 0.9439755955788457
2.623360998457137 1.007013938222294
2.698105016789351 1.0901051868403044
2.586618638201357 1.0979544710548597
2.6127400088578385 1.1632667991967889
2.592040270924819 1.2086882285784002
2.6154906747305757 1.275660037156216
2.6373793115975688 1.3438118792290585
2.039608939504121 1.0844793100354082
2.0641025088489737 1.1441507037813554
2.6933390057696043 1.5549999999999995
2.0229148296569845 1.215489856787728
1.8741862925057016 1.1711215739553829
1.7276613699675734 1.121956412130956
1.6249136422078818 1.0960180908026638
1.4417075979486254 1.0094945279778413
1.464320759818655 1.0638913066493765
1.4455302731856 1.0892851919052078
1.3868989263478306 1.0835641965731586
1.3289195940914205 1.0761378686952217
1.2716337755775033 1.0670274320796553
1.215082424158663 1.0562550366747165
1.1964631690186047 1.077300276237762
1.140911774525906 1.0639174416974977
1.0862030985113629 1.048934139393086
1.067731239591687 1.0677312395916867
1.0142012208701359 1.050236108494431
0.9957176056912478 1.0677764043639888
0.9434741549659902 1.0478342039231257
0.9250432308766152 1.0641405081141084
0.8741911491736938 1.04182044264181
0.8558757318277789 1.0569185075814804
0.8680826802091783 1.111095162585478
0.8184684314867855 1.0861442936643184
0.7993879431177635 1.1002631123499287
0.7513851316198702 1.0730891780185794
0.7325427035466783 1.0860392200471047
0.7134771358696856 1.0986584440085054
0.6676982729338382 1.0685406011570968
0.6231960706411657 1.0371724338495558
0.6299999999999999 1.0911920087683928
0.5866196404980679 1.058289845638669
0.5680605909709276 1.0683665873593016
0.5493285046848517 1.078117894267925
0.5523476449542373 1.1324804983369505
0.4902371836192113 1.0513170329625139
0.4718145059679284 1.0597127308654168
0.45324810904755747 1.0677856300048307
0.4345436483624581 1.0755332712974732
0.41570682147254817 1.082953294736754
0.3967433662577758 1.0900434401116537
0.3613806514474438 1.0495256189152418
0.35845971347493905 1.103225558902378
0.32453259224223757 1.0614982791189695
0.3059574649568691 1.067000482491534
0.2872891400637983 1.0721776671808658
0.24434111455566435 0.9799986835387564
0.20020643836604 0.8671893576588594
0.19543698936869366 0.9194587446897773
0.1793604556539522 0.9227295524408041
0.1632292870069144 0.9257192878314756
0.15956315434103555 1.0074421074070405
0.14195656297926654 1.0100734301164018
0.12430673027325044 1.0123970746741484
0.10452846326765368 0.9945218953682733
0.09151352988504105 1.046004432996333
0.07115160321900797 1.0175153312650207
0.05338267536780262 1.0186021254496653
0.03489949670250108 0.9993908270190958
0.018150502694774712 1.039841602962647
