# .PCD v0.7 - Point Cloud Data file format
VERSION 0.7
FIELDS x y
SIZE 4 4
TYPE F F
COUNT 1 1
WIDTH 178
HEIGHT 1
VIEWPOINT 0 0 0 1 0 0 0
POINTS 178
DATA ascii
3.91886975727153e-17 -0.64
0.011693112312980012 -0.6698979557547822
0.022335677889600693 -0.6396101292922213
0.03506509068277246 -0.6690817882855645
0.04673683740856406 -0.6683679136740822
0.06013746249588411 -0.6873743416833044
0.06689821649129822 -0.636494013035695
0.08408984694955177 -0.6848568446325121
0.09602943966244516 -0.6832849674316835
0.10793978087775932 -0.681504955010645
0.11981724259018198 -0.6795173495784235
0.131658206809816 -0.6773227565788881
0.143459066664254 -0.6749218445063258
0.1439686747800737 -0.6235968414625506
0.1669261079637707 -0.6695040511304375
0.1785851411207393 -0.6664888201394571
0.20397164330457937 -0.711333654994356
0.20173647625868835 -0.6598502816144944
0.21322172611871373 -0.6562289962436559
0.240920434298296 -0.6996837459434944
0.23599389889471148 -0.6483879083422767
0.24727388518625723 -0.6441704942830692
0.27720887912777503 -0.6861160523794226
0.28914103508206257 -0.6811735915548058
0.3009851158760923 -0.6760236386555245
0.33386842677515255 -0.7159831517589534
0.3243946486239173 -0.6651075942613836
0.3359529698072647 -0.6593448278993922
0.3474089564615592 -0.6533812187156058
0.3829995999946063 -0.6909495686401227
0.3949999999999999 -0.6841600689897066
0.40688007917894287 -0.6771621675546687
0.4186362187442319 -0.6699579959635765
0.45749678941262273 -0.704483277074156
0.4697220389154274 -0.6963915609462349
0.4531253847173264 -0.6471301149883035
0.4937396119256774 -0.6795742752749558
0.5356153706053229 -0.7107856039420907
0.547938713039836 -0.7013295707099825
0.5286291284818634 -0.6528026076238556
0.5720809726210201 -0.6817795543758904
0.5838925358015515 -0.6716915263982671
0.6289827699773267 -0.6985561359487505
0.6410784584587487 -0.6874724795220201
0.6529788682314573 -0.676179412318332
0.7000357133746821 -0.700035713374682
0.7121464023352647 -0.6877117867544073
0.7606078496839375 -0.7092782944649985
0.7728706184964902 -0.6958958306132125
0.7848979634316829 -0.6823013901501276
0.7966862208437372 -0.6684991140740009
0.8470890979880984 -0.6859592262443228
0.858931721431327 -0.6710710081049674
0.9104444814539138 -0.686069126393335
0.9627302233061874 -0.699464450228043
0.9747909327039002 -0.6825559592577448
1.0280065899682518 -0.693399200303726
1.081885032649597 -0.7025843551693848
1.136384448849611 -0.7100918140724947
1.1486041829408307 -0.6901510203794725
1.2037753112603695 -0.695
1.2594523782807299 -0.6981258531547253
1.3155919133598013 -0.6995126285509773
1.3721500472500865 -0.6991453695989021
1.3841428313007174 -0.6750915660551792
1.4863447707401058 -0.693093949254747
1.5895690962981257 -0.7077217589518923
1.6016784450072463 -0.6798721635713362
1.7523774851312282 -0.7080064615560735
1.7831386146096553 -0.6844827836315236
1.9357667988189713 -0.7045614952508776
2.0423201232945245 -0.7032272136274585
2.149387726827047 -0.6983784072873811
2.3046944618709158 -0.7046158083817955
2.41276685680518 -0.6918497631006677
2.6176589892433753 -0.7013996122278311
2.82356056346315 -0.7039927161950328
3.0302909014820814 -0.6995977790094197
3.2865759384655866 -0.6985832811476715
3.6418368505908334 -0.7079013728469814
3.9983194772295643 -0.7050116013277372
4.4544744160840715 -0.7055194373314412
4.961243024395268 -0.6972572358099277
5.717065833454015 -0.7019674180136491
6.454447100940094 -0.6783897266070705
6.61473279532919 -0.5787141318444495
12.130378851159463 -0.8482387207285622
12.293129572828805 -0.6442556213506395
24.794886418343765 -0.8658565131890502
13.257980437773748 0.2314189093583797
6.556003825245268 0.22894069836840666
6.451146794514547 0.3380902773294176
17.71673753261448 1.2388749736956672
12.163537263700213 1.0641716189489079
12.143112342446617 1.2762925364980506
12.26787043428674 1.5063050844876222
7.5359400031233506 1.0591072983060978
6.578004348363618 1.0418535371679376
6.411098472109474 1.1304496366117165
6.488555682589059 1.2612474594389615
5.047241619786437 1.0728243246196385
4.9790310310525525 1.1494998876971507
4.861181588642742 1.212028696954336
4.018251437362524 1.076687227626487
3.8065963159157428 1.0915239290353165
3.786966833613621 1.1577919507020373
3.623525327084535 1.1773547485685496
3.4605979866934997 1.1915794453131936
3.2513364679192427 1.183389695906814
2.810077083756577 1.078687528131354
2.698105016789351 1.0901051868403044
2.540593395528735 1.0784179146303958
2.4757081902114484 1.1022563027354189
2.320147934813824 1.0819027500561904
2.255973056210909 1.1003115784405846
2.147325723293967 1.094117104372308
2.039608939504121 1.0844793100354082
2.0028791293492163 1.110214030364112
1.9398969044771428 1.1199999999999997
1.8343380235025202 1.1021814803075163
1.7724205209669304 1.107531262247398
1.710887958608665 1.1110636314306555
1.6083328907567809 1.0848342327332487
1.5891549659206439 1.1127382865210298
1.5290421193686505 1.1109141268327742
1.429557562984654 1.0772488914421667
1.4105392489560322 1.1020340408329283
1.3522339729351296 1.0950174804267168
1.3329173310270217 1.1184504408545786
1.2754591905764847 1.1087397589939572
1.2187575137829263 1.0973741944285276
1.1628523855744812 1.0843773924993727
1.1437502825384551 1.1045068090298058
1.0889444430272832 1.0889444430272832
1.0697738905068557 1.107783292521523
1.0161775564931228 1.089717015412564
0.9970046034746989 1.1072857899613173
0.9447250017463305 1.0867817955207917
0.9256141579486168 1.1031039980913282
0.8747553435592739 1.0802328864251896
0.8557694507026651 1.0953349475133434
0.8064321310237446 1.0701715834633727
0.7876322380719141 1.0840827724624296
0.7685924247104016 1.0976637393472493
0.7213588454772634 1.0694584685960038
0.7025843551693851 1.081885032649597
0.657099887649174 1.0515796392339682
0.66439911663397 1.105745817905725
0.6449999999999999 1.117172770881926
0.601163929105458 1.0845284368528507
0.5821447378545044 1.0948550151450696
0.5402486946900608 1.0602977637841577
0.5216616646790019 1.0695649150960087
0.5155942793236533 1.1056955001847129
0.4840166052602024 1.087119094594695
0.4649700429022357 1.095400775608404
0.4457818461649355 1.103348786934477
0.40853946248164213 1.0642816862068099
0.3899029633912624 1.0712495876959354
0.37114769608115844 1.077891176183221
0.35227937358744005 1.084204428576475
0.34207489452560175 1.1188765644767515
0.322495706305889 1.124676184247833
0.29505371141687387 1.1011554419695377
0.2709525230716278 1.086731213429116
0.2631927335823222 1.1400129757987252
0.2432566782567783 1.1444326928585526
0.21370607482173032 1.0994224454613837
0.19448595898696186 1.1029846833736732
0.17520660084505865 1.1062109414665544
0.1558738730752731 1.109100236990559
0.1364936646137652 1.1116516898382807
0.11707187885977213 1.1138645228124662
0.09761443187737713 1.115738061862755
0.07812725059342052 1.1172717362910032
0.05599947317994981 1.0685336021873941
0.03908743630680121 1.1193177262613874
0.018674074887893213 1.0698370338173386
