# .PCD v0.7 - Point Cloud Data file format
VERSION 0.7
FIELDS x y
SIZE 4 4
TYPE F F
COUNT 1 1
WIDTH 179
HEIGHT 1
VIEWPOINT 0 0 0 1 0 0 0
POINTS 179
DATA ascii
1.9533116446400284e-16 -3.19
0.05567317653493468 -3.189514147548888
0.11132939448097845 -3.1880567381909155
0.16695170041499124 -3.1856282158670903
0.2225231512437602 -3.182229320328839
0.27802681936502943 -3.177861086912668
0.3334457978238145 -3.1725248462247917
0.3948566726326779 -3.2158495313178834
0.45092084711061214 -3.208468542722688
0.5146693899823598 -3.2494946405580034
0.5713025045242011 -3.2400175074101645
0.5934159756210546 -3.052860540522235
0.615418604820568 -2.8953168981720645
0.638860994336577 -2.767210983990068
0.6870581835030561 -2.7556398626238297
0.7272815167380833 -2.714251571872282
0.8021047054274676 -2.797271535180508
0.9911400790100777 -3.2418731227146904
1.0630184606498192 -3.271634416055328
1.1199544513326192 -3.2525839000616497
1.1833896959068142 -3.2513364679192427
0.7203195785860537 -1.8764966572593753
0.7080064615560739 -1.752377485131228
0.7189452764202636 -1.6937289303524903
0.7077217589518926 -1.5895690962981253
0.7142248623417821 -1.5316601600919384
0.7408472380735409 -1.5189619382455921
0.7672439445598341 -1.5058010258783416
0.7934069411081556 -1.4921814319315865
0.8435687392286266 -1.5218382904225485
0.8949999999999998 -1.5501854727741453
0.9476700578344999 -1.5771878332918865
0.9485554829774367 -1.5180060921200025
1.00213582442765 -1.54315384501958
1.0568745875597116 -1.5668810121290286
1.084059464703477 -1.5481973637061943
1.140303389447398 -1.569492969087398
1.1976118960725761 -1.5892846649941128
1.2251663358980602 -1.5681413996773765
1.2838135977416683 -1.5853777613722206
1.3112867237605403 -1.5627306639627152
1.37116337059016 -1.5773430226655933
1.4319394976079567 -1.5903299265216237
1.493576408536872 -1.601664606545983
1.556034749828154 -1.6113211527585787
1.619274528917194 -1.6192745289171937
1.6832551327924437 -1.6255005868740535
1.7113676617888591 -1.5958761625462463
1.8132733741648421 -1.6326786795156139
1.8792268547547024 -1.6335869821863633
1.9457528855222042 -1.6326805286038097
1.9894936613298455 -1.6110602010875839
2.096108604593881 -1.6376595243662508
2.1643022322281635 -1.6309187127420508
2.2733377541936024 -1.6516765589418496
2.3837324488809664 -1.669107429781544
2.4539512147629234 -1.6552109942734106
2.566331937912998 -1.6665954471459825
2.6798319838543065 -1.6745448749769276
2.794365400288886 -1.679024124206776
2.953146626904936 -1.705
3.113646157416249 -1.72592224807696
3.2757355695066193 -1.7417394979356549
3.4392851833671 -1.7524033289946506
3.6041641256596595 -1.7578682986242002
3.770240394072464 -1.7580919688413095
4.0287354682038705 -1.7937085959642787
4.24352737441575 -1.8012705023355517
4.552472725922926 -1.8393183736721275
4.863954022050421 -1.8670970171310146
5.177706340530355 -1.884530989724435
5.588014781791963 -1.9241077928417962
6.001166617822419 -1.949897234505918
6.512435388108272 -1.991051309161837
7.074886082106027 -2.0286909388131136
7.35069553805981 -1.9696129332301824
7.529494835901732 -1.8773139098534206
14.820168685383429 -3.421505536570185
14.975439767234564 -3.1831279864198967
15.126874896928502 -2.9403666187525563
15.274368249219346 -2.6932832356140897
15.368430579660345 -2.4341202760259923
31.870656929202852 -3.913224616739284
32.63026338703305 -3.4295788798117077
32.585528574581 -2.8508643452758955
32.58044188148586 -2.278246432483128
32.61524060508438 -1.7092923308945478
22.696165681603667 -0.7925675701137982
15.50763775187563 -0.27068682384226767
15.46 0.0
15.307668212844352 0.26719634255481095
7.805242359019138 0.27256506924653295
7.549639282744578 0.3956598291966559
7.441827814938288 0.5203832941311755
6.684466424195612 0.5848150338367871
5.977076591163322 0.6282160642385982
5.5185566031257505 0.6775935493326197
5.060269831269425 0.7111745459059343
4.750780918262612 0.7524497768435104
4.392242578434447 0.7744708723945094
3.9854063647975155 0.7746845212287721
3.82455711886918 0.8129347110974393
3.6149129403532227 0.8345684116157395
3.4057379992287475 0.8491458535548341
3.197214485016816 0.8566910392893442
3.0856500439620036 0.8847959121725671
2.8784773154487366 0.8800388312154375
2.7675744624188967 0.8992394536310969
2.6569071974340805 0.9148465140246104
2.5465670023298115 0.9268745884125623
2.3899658918328366 0.9174219508359689
2.327231474962636 0.9402625494739394
2.2184166968203813 0.9416620196591501
2.137696370883686 0.9517637447973727
2.0754448323139285 0.9677958193862016
1.9683589613951755 0.9600328114680798
1.9067539617631075 0.9715396694426303
1.845360469075157 0.981195566222512
1.7842242025643673 0.9890116253025276
1.723390553531033 0.9949999999999997
1.6629045633620976 0.9991738653255052
1.602810901735645 1.0015474094007573
1.54315384501958 1.0021358244276501
1.4839772548735248 1.0009552972126368
1.4253245570628454 0.9980229992508205
1.4076895702124086 1.0227463389889033
1.3496940119799246 1.017067389126962
1.33173817359536 1.0404678933003624
1.2745193767894323 1.032085441321733
1.218010664559175 1.0220322994015976
1.162252753543069 1.010330904645381
1.144443031235187 1.030461133792642
1.1262847004935228 1.0502774744962478
1.0358493124876573 1.000308053460956
1.0182337649086284 1.0182337649086284
1.0003080534609559 1.0358493124876578
0.9820776384899977 1.0531493303316055
0.963548073156756 1.0701285486874474
0.9119220502968051 1.049046316509653
0.861335396979963 1.0264995537794306
0.8747553435592739 1.0802328864251896
0.8249863769363823 1.0559344098330075
0.7763413798661422 1.030239807961008
0.7582429754572904 1.0436319227436823
0.7399136028928492 1.0567061371327995
0.693399200303726 1.0280065899682518
0.6753524034186337 1.0399515042523257
0.657099887649174 1.0515796392339682
0.6386472128884673 1.0628874528706191
0.6199999999999999 1.073871500692704
0.601163929105458 1.0845284368528507
0.5727553065987866 1.077196063287891
0.5402486946900608 1.0602977637841577
0.5348127990826742 1.0965287364849838
0.4817848183843973 1.0331908772217808
0.4636797731064124 1.0414418217125647
0.445433486477772 1.049375532935782
0.42705151649413986 1.0569895942061374
0.41929050096800113 1.092289099001726
0.3899029633912624 1.0712495876959354
0.37114769608115844 1.077891176183221
0.35227937358744005 1.084204428576475
0.32745630928946495 1.0710613266786
0.322495706305889 1.124676184247833
0.3028182827699495 1.1301332167582097
0.2709525230716278 1.086731213429116
0.25194518086512896 1.0912944725594635
0.23286109371589037 1.0955253128218625
0.22324652459055755 1.1485038046337668
0.20316836787030834 1.1522250710242834
0.17520660084505865 1.1062109414665544
0.1558738730752731 1.109100236990559
0.14258713178402255 1.1612789974203466
0.11707187885977213 1.1138645228124662
0.09761443187737713 1.115738061862755
0.07463942690621424 1.067393533778012
0.058616270992097 1.1184650789251227
0.03908743630680121 1.1193177262613874
0.019546695209757384 1.1198294185751583
