# .PCD v0.7 - Point Cloud Data file format
VERSION 0.7
FIELDS x y
SIZE 4 4
TYPE F F
COUNT 1 1
WIDTH 180
HEIGHT 1
VIEWPOINT 0 0 0 1 0 0 0
POINTS 180
DATA ascii
1.4634529249810872e-16 -2.39
0.041711251385107805 -2.3896359914237753
0.08166482228385252 -2.338574535224684
0.12246613760848887 -2.3367931113257026
0.15625450118684103 -2.2345434725820064
0.19087107661737132 -2.181666388820923
0.22891733455616106 -2.1780029508565186
0.2608003948870156 -2.124048764512429
0.2978304360545401 -2.1191736671069608
0.3269480319340826 -2.064268631843838
0.35424228244053807 -2.0090078161449045
0.38925035056815166 -2.0025194542332345
0.4137442647273413 -1.9465137254602731
0.43640504542709835 -1.8902779256833564
0.46932847746335526 -1.882373708975433
0.4891679952437642 -1.825599811686339
0.5209546024941284 -1.8167846053234227
0.5379639366898357 -1.7596007509719853
0.5531404199311559 -1.702391164168325
0.5827669964783107 -1.692478250322777
0.5951150493866637 -1.6350651601674804
0.5698050397770277 -1.4843928781305509
0.5768941538605048 -1.4278631360328524
0.5821893814490179 -1.3715522316441362
0.5857007660291526 -1.315505459005345
0.5663084707325373 -1.214452434629111
0.5874173366973638 -1.2043840220408837
0.6083472696509928 -1.193948742412413
0.6056183159937992 -1.1390023947880157
0.6254044101177749 -1.1282594222098206
0.5949999999999999 -1.030570230503482
0.6386472128884673 -1.0628874528706191
0.657099887649174 -1.0515796392339682
0.702584355169385 -1.081885032649597
0.7213588454772635 -1.0694584685960038
0.7399136028928495 -1.0567061371327995
0.7876322380719141 -1.0840827724624296
0.8064321310237448 -1.0701715834633725
0.9789017457677969 -1.252937098234688
0.8747553435592739 -1.0802328864251896
0.8934747774642896 -1.0648017759353794
0.9447250017463305 -1.0867817955207917
0.9635480731567558 -1.0701285486874477
0.982077638489998 -1.0531493303316053
1.035040971983906 -1.0718163025045901
1.0889444430272832 -1.0889444430272832
1.1437502825384553 -1.1045068090298056
1.1628523855744812 -1.0843773924993727
1.2187575137829267 -1.0973741944285273
1.237723711565346 -1.0759368075444318
1.3329173310270217 -1.1184504408545783
1.391091271007978 -1.126483499979209
1.4499397866363686 -1.1328171145992112
1.5094211139893834 -1.137430393757371
1.6099438188061455 -1.1696926520620214
1.6464956090208733 -1.1528886370656024
1.6663655208356336 -1.1239777359762009
1.7695948983648446 -1.1491883638817069
1.8741862925057016 -1.1711215739553829
1.9800564646218795 -1.189737953042225
2.130422493309719 -1.23
2.1952954649198833 -1.216872146818306
2.304493217361799 -1.2253207788711749
2.4591780067598954 -1.253013779281149
2.7053700793604927 -1.3194971518351228
2.592040270924819 -1.2086882285784002
2.6127400088578385 -1.1632667991967884
2.6786691235466016 -1.1370275839037864
3.022619365887727 -1.2212174945358727
5.704176405897903 -2.189628171721785
6.023429699237672 -2.192349118717537
6.5335333573912795 -2.249675947298953
7.094881611561846 -2.3052667780371077
7.755631570860218 -2.3711345253013945
8.372589371622759 -2.4008013691660626
9.427436064581306 -2.526073880200602
10.585926373671121 -2.6393678809923737
11.994495497506247 -2.7691474789729766
13.850570026390686 -2.9440295419794733
16.402990235410467 -3.1884183127420647
19.36132042422001 -3.413923172931851
19.36856835907065 -3.067679859438927
25.162711626723304 -3.5363884953952622
21.994822720371697 -2.7006246498580673
22.138057390897764 -2.3268035923379644
25.71178515774795 -2.2494897203170545
25.198467909563163 -1.7620485267766022
25.574902385064636 -1.3403238393817933
17.399394298402456 -0.6076002375905427
17.60731791170405 -0.30733687736056303
18.56 0.0
16.157538753727284 0.28203088802650195
14.051435027888488 0.4906869236371643
12.442924003041991 0.6521060147870811
11.23257120592562 0.7854578943588519
10.171147867516723 0.8898601334535913
9.308724940647037 0.9783864161852377
8.545822365631782 1.0492950467183193
7.932047230619978 1.1147765386901238
7.417539437869484 1.1748228324521337
6.903502348615578 1.2172737254451818
6.5376370417614424 1.2707879092077887
6.221018740667004 1.3223183536009497
5.807245586120002 1.340708283889436
5.54038859703594 1.3813740238741035
5.225658720223859 1.400211034004638
5.008173435838642 1.4360706238065652
4.743271589576656 1.450163655424774
4.527029017564931 1.4709208932247495
4.311564704732884 1.4845907843246344
3.533244254155015 1.2859957389045145
2.9501141477311577 1.132442720563149
2.6053866313326726 1.052644527498713
2.540593395528735 1.0784179146303958
2.4574372810585965 1.0941215698739029
2.274832545461991 1.0607718369691554
2.1660936515809923 1.056474463761677
2.147325723293967 1.094117104372308
2.039608939504121 1.0844793100354082
2.0028791293492163 1.110214030364112
1.9831981746663647 1.1449999999999996
1.8343380235025202 1.1021814803075163
1.814822925774752 1.1340272254590587
1.752821487005936 1.1382955831814068
1.6912366480122851 1.1407535230803234
1.6301125681350934 1.141417108338582
1.569492969087398 1.140303389447398
1.5094211139893832 1.1374303937573715
1.4499397866363684 1.1328171145992114
1.4299485690808267 1.1579495195317007
1.3712195531829707 1.1505898213389054
1.3131946695876233 1.1415427104434825
1.2930719963306658 1.1642872550644134
1.2725554408173567 1.1866771465087473
1.1797172725553875 1.1392397275527557
1.159655121145938 1.1596551211459378
1.1045068090298056 1.1437502825384556
1.1184773105024974 1.1994200706554394
1.1642872550644134 1.2930719963306658
1.0431338560949066 1.1999882325542075
0.9898929189172708 1.1797084424032263
0.9691534022167496 1.1968047806437352
0.948118672001514 1.2135365605543518
0.8967043844965518 1.1899669099704664
0.875800025915785 1.2054353216186717
0.8546288901630584 1.220536545990598
0.8331974261714127 1.235265983107012
0.8387441139231419 1.291552674635953
0.869067593342456 1.3907988776965385
0.8549632043506901 1.4228977191655061
0.8549999999999998 1.48090344047139
0.8532649316335533 1.5393306845653365
0.8732171067817567 1.6422825227176043
0.9488401444556529 1.8622036355536888
0.9381142541286254 1.9234192590802175
0.9044030801250968 1.9394986642584309
0.8704164161822129 1.9549872793551657
0.8557011713915094 2.0159056290608444
0.8391187692516434 2.076891834229604
0.8027442069814724 2.091220155353732
0.7832261282157816 2.15189610159973
0.7618294814297463 2.212513466902401
0.7385506165561244 2.273025073945417
0.6987683742873404 2.285568366751655
0.672555148193478 2.3454785380894982
0.6444594223052772 2.40515530745978
0.6144816148231559 2.464551144741031
0.593870783467804 2.572336971033021
0.5488868637588844 2.582309665937247
0.5132761975629058 2.640577123474216
0.4757960068073888 2.6983732432534504
0.4364521574622443 2.7556504702604343
0.39525160672658527 2.8123613152260596
0.35220240244087625 2.8684583782434205
0.3073136820069018 2.9238943723827235
0.26059567081549784 2.9786221472943195
0.21205968018214139 3.032594712789866
0.16171810479069618 3.085765262391633
0.1095844196458534 3.138087196839961
0.05654579685679814 3.239506532306708
