# .PCD v0.7 - Point Cloud Data file format
VERSION 0.7
FIELDS x y
SIZE 4 4
TYPE F F
COUNT 1 1
WIDTH 179
HEIGHT 1
VIEWPOINT 0 0 0 1 0 0 0
POINTS 179
DATA ascii
5.449678256205722e-17 -0.89
0.016056213922300912 -0.91985987954388
0.03036256213117594 -0.8694700195066133
0.04553228193136125 -0.8688076952364793
0.06208326163227166 -0.8878320047312436
0.07582549619046258 -0.8666893873398186
0.0878039091448289 -0.8353983921093495
0.10237024846032389 -0.8337387673787104
0.12386405985445827 -0.8813385811799976
0.13922667388580554 -0.8790426231296726
0.15454687812356807 -0.8764789001808652
0.16982000588512497 -0.8736481932684209
0.18504140482780593 -0.870551364653087
0.20020643836604 -0.8671893576588594
0.21531048708370423 -0.8635631963856368
0.23034895014124346 -0.8596739853972708
0.24531724667712926 -0.8555229093851038
0.27482940243937254 -0.8989264706052532
0.27502512499370324 -0.8464402995026866
0.3060340651897273 -0.8887874610633577
0.32149893472612867 -0.8833110635387538
0.3368658725725823 -0.8775656009073696
0.35213019781095745 -0.87155282329278
0.36728726077991725 -0.8652745622452939
0.4026692766450424 -0.9044100030661747
0.39726116603625744 -0.8519293198144509
0.43398743532118667 -0.8898061058361753
0.4494505947421514 -0.8820964589464843
0.48825042529732654 -0.9182654965732839
0.47996152404387377 -0.8658735100680017
0.5199999999999999 -0.9006664199358163
0.5613915016519592 -0.9343123577653024
0.5776119980141934 -0.9243724248105044
0.5664245964156281 -0.8722173906632409
0.5927444776789917 -0.8787798269083442
0.6424056087131716 -0.9174502896036709
0.6406859249987957 -0.8818285238686928
0.686069126393335 -0.9104444814539138
0.7018540818712505 -0.8983322591116629
0.7488912653493065 -0.9248036941337954
0.7649172555269818 -0.9115928873115838
0.7807102444987036 -0.8981044004650987
0.8297219518849842 -0.9214995835919688
0.8456779664774983 -0.9068785900077713
0.8961092978921065 -0.92794834243686
0.9121677477306463 -0.9121677477306462
0.9639153324537927 -0.9308422164150564
0.9800139601696887 -0.9138778024837481
1.032971307413578 -0.9300915428388127
1.0867817955207917 -0.9447250017463305
1.1414062202472772 -0.9577535384329435
1.1579474825708866 -0.9376873826642577
1.213536560554352 -0.9481186720015137
1.2698304609751956 -0.9568858868117568
1.3267878707749137 -0.9639678137596559
1.3843669548483961 -0.9693441774332678
1.4010734976180206 -0.9450360068655621
1.5431538450195803 -1.0021358244276497
1.5349670540431313 -0.9591538682621009
1.6629045633620978 -0.9991738653255048
1.7233905535310328 -0.995
1.7579856113501853 -0.9744673366951374
1.9071668005752824 -1.0140585756175242
1.969124418456293 -1.0033190044243985
2.0312745446361173 -0.9907187917433148
2.138886377406494 -0.9973790977080504
2.3386763715650587 -1.0412458062740484
2.4025176675108693 -1.019808245357004
2.6053866313326726 -1.0526445274987124
2.7167190411068574 -1.042850733176824
2.9224440506441747 -1.06368264574283
3.129666485233739 -1.0776305912531887
3.3857611980107465 -1.1001004999748127
3.6913363580173173 -1.1285547802297637
3.998848655103407 -1.1466514001987163
4.404621767878151 -1.1802148456674941
4.861181588642742 -1.2120286969543348
5.320060553727385 -1.2282327567175022
5.859104128395495 -1.2453910279983789
5.997742090865227 -1.1658429617506891
6.805021573314358 -1.1999089076784888
10.479373293714412 -1.6597696740768495
11.397985471215474 -1.6018823920503529
12.367125049450873 -1.5184920188281372
24.326005560707966 -2.556766211526802
30.393900238779157 -2.6591217112310477
30.435679173427243 -2.128270013933259
5.981790913179897 -0.313492377895234
6.0063388703847655 -0.2097459751820311
6.159061802163371 -0.10750682365366658
7.558848575382318 0.13194019266586351
7.7053032763172284 0.26907511957628283
7.749365189695493 0.4061270204452447
6.29462915713949 0.4401633493254312
5.98713013553139 0.5238060139134263
5.330637359173945 0.5602725631146234
4.923028912140958 0.6044719432895312
4.466108990024482 0.627670685329895
4.15816791390553 0.6585890978193719
3.801357926627123 0.6702819657943512
3.5927554914184503 0.6983609230781542
3.4626425065976716 0.7360073854948683
3.4005515261004713 0.7850791796600892
3.2116788539735484 0.8007614744349005
3.0523256110734556 0.8178681825239661
2.8933977047743396 0.8296684410091673
2.448140175265371 0.748471564090206
2.3871518559008353 0.7756326558811178
2.278699767194354 0.7846192522417477
2.292849994717616 0.8345291497146318
2.203249806533396 0.8457483609269087
2.141794704049279 0.865341230790757
2.034315726129893 0.8635157939612953
1.973258188508018 0.8785511490437288
1.9123094306473312 0.8917245322728756
1.8065760330613254 0.8811260050460458
1.7731029831348522 0.9034410944816982
1.6687709505033717 0.8873012536653339
1.6093002611364882 0.8920497012532602
1.5934867429633672 0.9199999999999997
1.4228977191655061 0.8549632043506901
1.3483964728887174 0.8425716301307958
1.291552674635953 0.8387441139231419
1.235265983107012 0.8331974261714127
1.2205365459905977 0.854628890163059
1.1649844718999243 0.8464107633011613
1.1101033589657368 0.8365228821813473
1.0953349475133434 0.855769450702665
1.0802328864251896 0.8747553435592738
1.0264995537794306 0.8613353969799628
0.973575358487376 0.8463161473977543
0.9586568248658385 0.8631784822029273
0.94344627508873 0.8797778844806231
0.9279483424368598 0.8961092978921066
0.8768124086713189 0.8768124086713188
0.8266434608462065 0.856014362402995
0.7774781304712481 0.8337432198458542
0.7962654215670414 0.8843423423180989
0.7479072930491782 0.86036892145396
0.7327778750426549 0.8732906651556349
0.6859592262443228 0.8470890979880984
0.6710710081049677 0.8589317214313269
0.6559783752357325 0.8705127059515494
0.6406859249987957 0.8818285238686928
0.5965194938050878 0.8519181260605516
0.5815606196095767 0.8621990754572434
0.5664245964156283 0.8722173906632409
0.5511160348025331 0.881970020002683
0.5356395979064564 0.8914539927301968
0.5199999999999999 0.9006664199358163
0.47996152404387377 0.8658735100680017
0.46477684715803175 0.8741181169303377
0.4494505947421514 0.8820964589464843
0.43398743532118644 0.8898061058361754
0.39726116603625744 0.8519293198144509
0.3823324444912523 0.8587327301840446
0.38682381720438097 0.911299804917916
0.3708605274817531 0.9179120160211194
0.3368658725725821 0.8775656009073696
0.32149893472612867 0.8833110635387538
0.30603406518972714 0.8887874610633578
0.29047597471245057 0.8939931253174442
0.2748294024393723 0.8989264706052533
0.2590991144679792 0.9035859941820197
0.2432899023963697 0.907970276711724
0.21531048708370423 0.8635631963856368
0.20020643836604 0.8671893576588594
0.19543698936869366 0.9194587446897773
0.1793604556539522 0.9227295524408041
0.15975632345357582 0.9060231327712315
0.13922667388580554 0.8790426231296726
0.1349979079312633 0.9605600266793233
0.10846371563058127 0.8833660749607766
0.09825675547159446 0.9348505816461768
0.0801832833278455 0.916499122244406
0.06417595584459543 0.9177589262390383
0.048149079743508245 0.918739171974208
0.032107536966301 0.9194395608575682
0.015532641729182206 0.8898644486891882
