# .PCD v0.7 - Point Cloud Data file format
VERSION 0.7
FIELDS x y
SIZE 4 4
TYPE F F
COUNT 1 1
WIDTH 179
HEIGHT 1
VIEWPOINT 0 0 0 1 0 0 0
POINTS 179
DATA ascii
1.8002307947466092e-16 -2.94
0.05131007492561378 -2.93955222375979
0.10260452030535318 -2.9382090314361413
0.15648450916640247 -2.985902308916176
0.21205968018214139 -3.032594712789866
0.2693112450902636 -3.0782416171034934
0.32299295149704915 -3.0730726566879643
0.3826697382921631 -3.116594916153751
0.4370035370146056 -3.109441735848531
0.4990259434783366 -3.1507258064984893
0.553937686757508 -3.1415367321089436
0.6182211450200056 -3.1804720743704316
0.6840294627904286 -3.21810560641422
0.7513365215085095 -3.2543960163826857
0.8128575692148834 -3.260193640287348
0.8773965628975453 -3.2744885511199415
0.9344106362196272 -3.258677149230901
1.0203772494823513 -3.337503598310994
1.069198800537318 -3.290655546381231
1.1427442221446202 -3.3187702003536015
1.217591710239381 -3.3453057299978335
1.2757899003812694 -3.323546318330038
1.352329802231443 -3.3471337149861022
1.4496124866952054 -3.4150730063085537
1.5089929458112195 -3.3892536478540487
1.5256519248839249 -3.2717711112023062
1.595670974312242 -3.271610328528968
1.6525254190519507 -3.2432637480456594
1.708876488540643 -3.213929238006494
1.764707017696667 -3.1836157339874007
1.8299999999999996 -3.1696529778510456
1.8592874504252959 -3.094373955534625
1.96600047030519 -3.1462584367403403
8.311191674329313 -12.79811286684717
7.946131158319314 -11.780623906007142
7.662981189649975 -10.94387131170093
7.44136129402271 -10.242155148786836
7.1977076768984976 -9.551680700165623
6.993914359699479 -8.95180216097236
6.802953427248743 -8.400947843349856
6.659279636352547 -7.936220430712612
6.501544977295927 -7.479171940007671
6.3634320664727415 -7.067307290290019
6.247104978172487 -6.6991999068316
6.119940243743766 -6.337383640983516
6.01747870789752 -6.017478707897519
5.869812770763394 -5.668412302945418
5.821575464888598 -5.4287069460974875
5.729646604430711 -5.158996975026796
4.724481972194552 -4.106929521480575
4.718833769612905 -3.959571675669082
4.592932632210698 -3.719283511104539
4.538941940774719 -3.546210097875791
4.440413435862948 -3.3460915287253883
4.417232789287213 -3.2093074775169033
4.349697355174546 -3.0456908770240543
4.319285753011767 -2.913395027082591
4.243673073803845 -2.7558735171760365
4.248720961743694 -2.6548955138083565
4.165833081412266 -2.5030850440628627
4.165582192203149 -2.405
4.250651776697463 -2.3561747543971983
4.379420060580278 -2.3285789514180184
4.463942686183723 -2.2744924036951293
4.637777278903702 -2.2619951174316393
4.767178959812778 -2.222972056756079
4.805249107200081 -2.139434742578709
4.887880771832458 -2.074782292278043
4.9697054604779805 -2.0078913407092878
5.003991086025001 -1.9208522095628098
5.083737078451764 -1.8503289753918681
5.16253142277227 -1.7776021233360755
5.192768578971538 -1.6872327892872128
5.2692392053563255 -1.6109680930222792
5.296551944620137 -1.518761830551665
5.37054759416722 -1.4390338907700149
5.44335902440834 -1.3571818343141355
5.4174975602059074 -1.2507278621518885
5.48740804011665 -1.1663845854876302
5.506928499141395 -1.0704384640624167
5.574011882049097 -0.9828486855948259
5.639700424798237 -0.8932407953797182
5.6544306725143665 -0.7946784064819735
5.667438525871949 -0.6958739508433919
5.728446117321254 -0.6020839484216834
5.738081461008454 -0.5020170782265104
5.745968929496588 -0.401797288766161
5.802037596924073 -0.30407190577150406
5.806460704980946 -0.2027660758415309
5.859107493616453 -0.10227110172248152
5.81 0.0
5.859107493616453 0.10227110172248152
5.856430246331901 0.20451105067665598
5.851969073661803 0.3066887035836513
5.895603537035561 0.4122607598277811
5.887510665722217 0.5150904396386605
5.827898306858081 0.6125367947484501
5.865947756200214 0.7202478195244214
6.149564706885152 0.8642649569620062
7.861999191137297 1.2452183417202378
8.774637079338774 1.5472052630123496
9.678844028793966 1.8813766944127321
11.06284936429934 2.351481223148859
12.773991549334433 2.949108322448071
15.340375432423505 3.824785169430749
23.608587252245112 6.7696534588654975
25.25600860498377 7.721536721727476
19.69638045247263 6.399741953505161
24.923869652797993 8.58197655149065
24.770297483916544 9.01565097806463
24.60918004246624 9.446579150014117
19.248336820806507 7.776832879314337
15.059459402481922 6.3923612620845205
14.99128095991508 6.674548312873883
10.023764124625348 4.674157974852135
8.50259167799012 4.146991048624674
7.404264216005338 3.7726610528356344
5.7479888295116135 3.05625987373615
5.081540498479889 2.816743893631218
5.031607595987588 2.904999999999999
5.023000382114378 3.0181231189729183
4.927159438668835 3.07883092519492
4.8726759997629125 3.164352793437308
4.8167082965447925 3.2489107691650387
4.718315775104592 3.303800273382026
4.659937887599697 3.385643053204645
4.600140537872406 3.4664545333557992
4.538941940774718 3.546210097875792
4.437503439919304 3.5934194328945708
4.335811548053416 3.638177870825813
4.27165622406089 3.7132941040862706
4.206199712202051 3.787279231991138
4.102894266083547 3.8260107999506165
4.035496279899832 3.8970334582749753
3.9315137033972043 3.9315137033972034
3.862300539752024 3.999529289882901
3.7578109639443666 4.0297588959216295
3.6869096410373094 4.094727988380441
3.5820822982881695 4.1207143080163355
3.4774809684041785 4.144300437273671
3.40462331557962 4.204359651482212
3.2999455077455293 4.22373763933203
3.1956377729373755 4.240754558351125
3.1211396896730323 4.295880240130971
3.045690877024054 4.349697355174547
2.941354672256128 4.36073763163952
2.8375693724282915 4.369473658995659
2.734383403443337 4.375928176167158
2.65759646653588 4.4229832716229
2.5549999999999997 4.425389813338482
2.477377159458783 4.469306703482313
2.3285789514180175 4.379420060580278
2.1836943037472203 4.28574138134605
2.0866466587160075 4.278259660384035
1.9694010997116596 4.223394287590789
1.8750559245794398 4.2114445597323895
1.8208070587600156 4.289552617088372
1.783127384659742 4.413395147737908
1.7416682347901589 4.537200872776401
1.6964199108953173 4.6608753990981056
1.647374861553212 4.784323992532543
1.5945276909747288 4.907451624082992
1.567112337313868 5.125793491961871
1.5049799627608154 5.2484888598232216
1.4519748430251427 5.418843885481673
1.3934701186540857 5.58890338334974
1.329460731172243 5.7585270828807404
1.270340430896509 5.976481840483553
1.1753834115195168 6.046823450037611
1.1564968632617554 6.558819635061306
1.0966055999320188 6.923695267571915
0.9477688175380442 6.743725548130094
0.7629020897162233 6.213338909274675
0.9156693382246462 8.712011803426075
0.7939888164311656 9.0753336996158
0.6633840653066331 9.486834117970927
0.5186493263675725 9.896418689417827
0.3615587858379112 10.353688967917831
0.1886605135870333 10.80835358464059
