# .PCD v0.7 - Point Cloud Data file format
VERSION 0.7
FIELDS x y
SIZE 4 4
TYPE F F
COUNT 1 1
WIDTH 179
HEIGHT 1
VIEWPOINT 0 0 0 1 0 0 0
POINTS 179
DATA ascii
5.143516556418883e-17 -0.84
0.01518359360043673 -0.8698674947860604
0.03036256213117594 -0.8694700195066133
0.04553228193136125 -0.8688076952364793
0.06208326163227166 -0.8878320047312436
0.07321082390803284 -0.8368035463970662
0.09303033230821157 -0.8851244868777632
0.10237024846032389 -0.8337387673787104
0.12386405985445827 -0.8813385811799976
0.13922667388580554 -0.8790426231296726
0.15454687812356807 -0.8764789001808652
0.1602795561162977 -0.8245668340960377
0.18504140482780593 -0.870551364653087
0.20020643836604 -0.8671893576588594
0.21531048708370423 -0.8635631963856368
0.23034895014124346 -0.8596739853972708
0.2590991144679792 -0.9035859941820197
0.27482940243937254 -0.8989264706052532
0.29047597471245057 -0.8939931253174442
0.3060340651897273 -0.8887874610633577
0.32149893472612867 -0.8833110635387538
0.35478427004984736 -0.9242446222322297
0.35213019781095745 -0.87155282329278
0.38682381720438097 -0.911299804917916
0.4026692766450424 -0.9044100030661747
0.4395229922103274 -0.942560098518116
0.4559059926606406 -0.9347458081511336
0.47215011972912874 -0.9266467851559026
0.48825042529732654 -0.9182654965732839
0.5042020050561906 -0.9096044954249716
0.5449999999999999 -0.9439676901250382
0.5613915016519592 -0.9343123577653024
0.5776119980141934 -0.9243724248105044
0.5936565481663796 -0.9141509190605122
0.6095202647831142 -0.9036509540849954
0.6538771374401925 -0.9338333304894506
0.6700751876134193 -0.92227937358744
0.7161598775509374 -0.9503762569562785
0.7634202294038164 -0.9771333344723352
0.7488912653493065 -0.9248036941337954
0.7970566360113088 -0.9498951094675328
0.8463161473977544 -0.973575358487376
0.8631784822029271 -0.9586568248658386
0.9138778024837482 -0.9800139601696883
0.9655751349380061 -0.999882322470725
0.9828784258493011 -0.9828784258493009
1.0358493124876578 -1.000308053460956
1.0531493303316055 -0.9820776384899977
1.1072857899613175 -0.9970046034746985
1.1245172745319303 -0.9775279531958558
1.1797084424032263 -0.9898929189172705
1.2356620787165837 -1.0006194217692415
1.292337635915024 -1.0096848195340793
1.30976223647756 -0.9869766379693591
1.3672387204936611 -0.9933570763742796
1.4662821592772954 -1.0267018210683725
1.5254291335012768 -1.028914942386174
1.5850873734168514 -1.029367776178401
1.6452133065434664 -1.0280433726124174
1.748621293432309 -1.0506776728165104
1.8099930939094766 -1.045
1.889178567421095 -1.047188779732088
1.9513141802182286 -1.0375321537568187
2.05822507087513 -1.0487180543983532
2.211033353895951 -1.0783930211011303
2.365463324165656 -1.1030336631432254
2.475708190211449 -1.1022563027354184
2.6326438808739794 -1.1174910274793226
2.8371825949743696 -1.1462961758526904
3.0434721903808777 -1.168279515517679
3.2513364679192427 -1.183389695906814
3.5078739154734655 -1.2078578530360513
3.8137366303435654 -1.239158147443539
4.073858260402531 -1.2455034621188583
4.575605672666398 -1.3120338136889156
5.032473554966046 -1.3484472249841328
5.54038859703594 -1.3813740238741021
6.29443061851262 -1.453183811061367
7.101351581327428 -1.5094388753369332
7.254224885678236 -1.4100784758326665
11.679819950724786 -2.059467387129794
12.602903225993957 -1.9961037739133458
14.269762870566028 -2.0054843848345425
25.468734251116324 -3.1271673517760834
33.87341575624339 -3.5602394588962745
14.504594804215815 -1.2689876144059016
7.192436802373333 -0.5029441756951425
7.549639282744578 -0.3956598291966559
8.908642963843446 -0.1555009413561963
8.96 0.0
8.958635348601266 0.1563735616780605
7.255577404158635 0.2533703460601574
6.401215317776819 0.3354734795172704
5.696090726983596 0.39830946507895604
5.1901743770579944 0.4540814197152997
4.684198127184567 0.4923290619906485
4.704668758779867 0.5776606877403989
4.416595586587404 0.6207120302818917
3.713708160637718 0.588193588551268
3.5551559883740707 0.6268699213776185
3.4945927730736837 0.6792800235404998
3.3843906985389673 0.7193744502294475
3.1764464111998665 0.7333404371610002
2.9691049224045494 0.7402810005349836
2.617658989243375 0.7013996122278316
2.4608299416020962 0.7056316308915177
2.3046944618709158 0.7046158083817955
2.196940552641805 0.7138292570061285
2.136871980854456 0.7357840290731741
2.0297360608975623 0.7387635095834446
1.9698546999090956 0.7561563735405836
1.8636395476792422 0.7529592527659833
1.8318046583703562 0.777554945693655
1.7266009149445156 0.7687322554132625
1.667606328147436 0.777617601602887
1.6088413428755088 0.7846843527524489
1.55035135208776 0.7899434695468114
1.4921814319315865 0.7934069411081557
1.434376319708609 0.7950877772039927
1.3769803920172576 0.7949999999999998
1.3628960081163586 0.8189105391069863
1.3059940680808961 0.8160756669191356
1.2496191462386816 0.8115121621723905
1.19381410447926 0.8052377809978754
1.179578943776148 0.8259500683455065
1.1245336221811768 0.8170215006865376
1.1101033589657368 0.8365228821813473
1.0559344098330075 0.8249863769363822
1.0413755883523412 0.843289324006782
0.9881973316234817 0.8291960164956358
0.973575358487376 0.8463161473977543
0.9214995835919687 0.8297219518849843
0.9068785900077715 0.8456779664774982
0.8919813524199272 0.8613763793691567
0.8414570696119916 0.8414570696119914
0.7919105423232566 0.8200473723860624
0.7774781304712481 0.8337432198458542
0.7628088912490985 0.8471851010442293
0.7479072930491782 0.86036892145396
0.7327778750426549 0.8732906651556349
0.6859592262443228 0.8470890979880984
0.6710710081049677 0.8589317214313269
0.6258876240781301 0.8305809304491847
0.6112966623841721 0.8413776741499454
0.5965194938050878 0.8519181260605516
0.5536009744360393 0.8207471968294913
0.5664245964156283 0.8722173906632409
0.5511160348025331 0.881970020002683
0.5098876941609537 0.8485956276950911
0.4949999999999999 0.8573651497465943
0.47996152404387377 0.8658735100680017
0.46477684715803175 0.8741181169303377
0.426751069755174 0.8375461327370658
0.4120688779817326 0.844866403521217
0.41839207912329246 0.8972447091662834
0.3823324444912523 0.8587327301840446
0.36728726077991725 0.8652745622452939
0.35213019781095745 0.87155282329278
0.3368658725725821 0.8775656009073696
0.32149893472612867 0.8833110635387538
0.2897556574668693 0.841511532283392
0.29047597471245057 0.8939931253174442
0.2748294024393723 0.8989264706052533
0.24531724667712926 0.8555229093851038
0.2432899023963697 0.907970276711724
0.21531048708370423 0.8635631963856368
0.21145399108323323 0.915907860898121
0.1850414048278057 0.870551364653087
0.16982000588512497 0.8736481932684209
0.1545468781235679 0.8764789001808653
0.13922667388580554 0.8790426231296726
0.12386405985445807 0.8813385811799976
0.10846371563058127 0.8833660749607766
0.09616618620624139 0.9149601437388115
0.0801832833278455 0.916499122244406
0.06417595584459543 0.9177589262390383
0.04657900105621993 0.8887802859315708
0.03280552690035101 0.93942737739795
0.016056213922300708 0.91985987954388
