# .PCD v0.7 - Point Cloud Data file format
VERSION 0.7
FIELDS x y
SIZE 4 4
TYPE F F
COUNT 1 1
WIDTH 180
HEIGHT 1
VIEWPOINT 0 0 0 1 0 0 0
POINTS 180
DATA ascii
1.2675094371175104e-16 -2.07
0.03699910164704123 -2.1196771137315498
0.07573190784442733 -2.1686780946314377
0.11356902504718841 -2.167026090417425
0.15137154802475222 -2.1647139890638183
0.19348574889980108 -2.2115522297636754
0.23727961161757335 -2.2575647024859804
0.28273687669994213 -2.302707071807867
0.32984024927535516 -2.346935322917522
0.37857140539735884 -2.3902057842402336
0.4462758166040111 -2.5309559252413742
0.4903791181177204 -2.5227818614604964
0.5551242144834178 -2.611654093959261
0.6118668678153132 -2.65028657621584
0.6822197455910628 -2.73623394809831
0.7557516116993606 -2.8205034127640793
0.8186429467764875 -2.854947236936807
0.8975811334988019 -2.9358556008065184
0.9950347218873309 -3.0624019824703947
1.0646078650749027 -3.091845742209766
1.152607883007504 -3.166764132048511
1.2614551823994573 -3.28620310127015
1.3748061978363977 -3.402764746260109
1.4730563544045618 -3.4703032975157004
1.5944076408571375 -3.581098193958995
1.7200563252846468 -3.6886726932391656
1.8718447967893606 -3.8378505776974423
2.029337533835774 -3.9827991631220043
2.6853773391352957 -5.050460231153061
2.7488705467967316 -4.959093739480374
2.7599999999999993 -4.780460228890101
3.0232734997220185 -5.031572055121399
3.375585713165515 -5.402066372516433
3.6327423635502307 -5.593932688195977
3.6459377306292695 -5.405324973058871
3.73971836500882 -5.340871328764226
5.5369370765950965 -7.620940087012005
7.624996343336451 -10.1187119122992
8.816272326663428 -11.284313991648258
11.18302334895561 -13.809883735090372
14.411298209172214 -17.174716414727488
16.57861166259012 -19.07151109222945
20.288039984800584 -22.532151108474594
24.8383802734762 -26.635901812970186
16.129967362057915 -16.703070163863476
7.332697320904498 -7.332697320904496
7.459553729511812 -7.203607301659801
7.54757020070984 -7.038223075844985
7.706411840200579 -6.938884387941358
7.788602867899008 -6.770529179182035
7.790671986520007 -6.537149990512104
7.009856572341877 -5.676469927269533
6.12284355552423 -4.783689663280364
5.486625954024902 -4.134469209054572
4.829831456418436 -3.5090779561860646
4.480761682260785 -3.137463106840222
4.57628740050383 -3.086744827158522
4.6294615350587405 -3.0064074732829487
3.578762965780118 -2.2362592950641247
3.445812548822491 -2.070453061138417
3.2216145020781117 -1.86
3.0349303837737036 -1.6822893822547897
2.8872386286486913 -1.535172010309863
2.779940355467708 -1.416450359187386
2.6694183175085264 -1.3019623059635599
2.6011033487951853 -1.2129144111958072
2.5305209176700045 -1.1266605013199664
2.411722716045394 -1.023715556641897
2.2901441207799653 -0.9252782857373025
2.212585610798368 -0.8493320404223618
2.1800868802233073 -0.7934867325155515
2.0990512378304835 -0.7227613028948879
2.063792640360483 -0.6705668777936358
1.9795508448434835 -0.605209428776065
1.8936855409984883 -0.5430055909594882
1.8545775864750111 -0.4969325665968397
1.8144530081361134 -0.45239394477137845
1.82207202114839 -0.42065847162302733
1.7802286333355262 -0.3783992772883221
1.688398755529982 -0.32819147204765714
1.6446289475303872 -0.28999245670377366
1.6000551117641233 -0.25342383336517404
1.604234271361344 -0.225460423555306
1.5582974580768758 -0.19133486914608147
1.5116732809597755 -0.15888326416683315
1.5142159410994533 -0.13247672897644028
1.516297356394933 -0.10602984009107028
1.4679854160892236 -0.07693385567712754
1.419134974367116 -0.04955728531755144
1.4197837271220755 -0.02478241714094262
1.37 0.0
1.369791342364256 0.023909796819078444
1.3191958916652065 0.046067335647301345
1.3181909858760374 0.06908346224068596
1.2669063438299768 0.08859072165503926
1.2651672665765168 0.11068779328952603
1.2630428071177071 0.13275114834992008
1.210906305002413 0.14868059895427987
1.2081270438647158 0.1697911831712798
1.204979775526068 0.19085004734908165
1.2014654586748938 0.21185077675365505
1.1485038046337668 0.22324652459055747
1.1444326928585524 0.2432566782567785
1.0912944725594635 0.2519451808651289
1.086731213429116 0.270952523071628
1.0818369254437565 0.28987733051482345
1.0766130994509173 0.30871383851503903
1.0710613266786 0.3274563092894652
1.0176304724358143 0.3306481839811937
1.058980804671235 0.36463633299201553
1.005471104240922 0.3659615533584656
1.045610077676866 0.4013721034907364
1.038445917114802 0.4195593846258216
1.076990678539355 0.45715542033245044
1.1602027312061032 0.5165555367062664
1.1510108895365454 0.5367251924106883
1.2313478434298588 0.6005684711010363
1.2652292643474823 0.6446665096301565
1.3244213892883903 0.7042073441788365
1.3119295607090935 0.7272144303695056
1.299038105676658 0.7499999999999998
1.2857509510531684 0.7725571123650814
1.2296697394268177 0.7683829331381471
1.2747792632770445 0.8278513332228413
1.7575596538166887 1.1854889553579833
2.9243727981117003 2.047667877773235
3.939912762605994 2.862514178664344
3.2105147503901166 2.419296393071235
3.049601616458014 2.3826099095102977
3.6292716400040548 2.93892622620274
4.075356437392963 3.4196300835323896
4.015054966785147 3.4902340342294984
3.953530471539737 3.5597748258291264
3.8908016926139877 3.628231275532492
3.8268877378016235 3.6955825308418664
3.7618080759124335 3.7618080759124326
3.695582530841865 3.8268877378016253
3.628231275532492 3.8908016926139872
3.5597748258291264 3.953530471539737
3.490234034229499 4.015054966785147
3.41963008353239 4.075356437392963
1.7746835027605414 2.191551611308658
1.613033065353225 2.0645881744496113
1.5466646095007637 2.0524932608215427
1.4988523933458064 2.062993335656116
1.4626199126951671 2.0888377129369293
1.4259419038504042 2.114045810015356
1.3888295392883192 2.138609948260831
1.3512941237946725 2.162522645198886
1.3390989947661411 2.228634981825492
1.2849999999999997 2.2256852877260074
1.2702012050454032 2.2915036327052167
1.2300154944990336 2.313322693290389
1.189455109317613 2.334437093373524
1.1704509619268362 2.399780103618776
1.1283907588476674 2.419841791387855
1.085986837012387 2.439166371905744
1.0041790002174333 2.3656974733727716
0.9252782857373032 2.290144120779965
0.8314136429450963 2.165906589473508
0.7763857253492682 2.1331022491840117
0.7064828951720297 2.0517753090505173
0.6551160280748887 2.0162398145457257
0.5905908435399279 1.9317356070453318
0.5430055909594883 1.8936855409984883
0.4969325665968402 1.854577586475011
0.45239394477137856 1.8144530081361134
0.4094109189058346 1.7733535179091282
0.35760810820654587 1.6824138732621459
0.32819147204765725 1.688398755529982
0.28999245670377344 1.6446289475303875
0.2534238333651741 1.6000551117641233
0.2254604235553057 1.604234271361344
0.19133486914608155 1.5582974580768756
0.1536568410034509 1.4619471861913618
0.12376115470167455 1.4145964712902785
0.09905419271665813 1.4165409513689502
0.07431705786498011 1.4180539393514948
0.047812310482426484 1.3691654330161613
0.023037176497214058 1.3197989576064366
