# .PCD v0.7 - Point Cloud Data file format
VERSION 0.7
FIELDS x y
SIZE 4 4
TYPE F F
COUNT 1 1
WIDTH 180
HEIGHT 1
VIEWPOINT 0 0 0 1 0 0 0
POINTS 180
DATA ascii
4.7761225166746774e-17 -0.78
0.013089304827962698 -0.7498857713672935
0.02617462252687581 -0.7495431202643218
0.03925196718220798 -0.7489721510659304
0.05580517899530037 -0.7980512402078594
0.0653668070607436 -0.7471460235688092
0.07839634745074009 -0.7458914215262049
0.09140200755386062 -0.7444096137309915
0.1043798257200491 -0.7427010515561778
0.11732584878017319 -0.7407662554463533
0.12155372436685129 -0.6893654271085455
0.1392905666248778 -0.7165878439167946
0.14553818357243162 -0.6847033205136639
0.16871329075789887 -0.7307775485889264
0.18144142169975075 -0.7277217947069974
0.19411428382689055 -0.7244443697168013
0.19294614907189941 -0.6728831871568232
0.21343134444759784 -0.6981024718530159
0.2317627457812106 -0.7132923872213651
0.24417611584286758 -0.7091389316994876
0.2565151074942516 -0.7047694655894312
0.2795270006453343 -0.7281927326678174
0.28095494506193414 -0.6953878909250905
0.2735117899424916 -0.6443533974167083
0.3050524823068503 -0.6851590932319506
0.31696369630552457 -0.6797308402774874
0.3287783600918081 -0.6740955347243752
0.3404928748046602 -0.668254893141276
0.3521036720894182 -0.6622106946441951
0.3878476961970697 -0.6996957657115166
0.3999999999999999 -0.692820323027551
0.3862785561825407 -0.6428754755265842
0.3974394481749037 -0.6360360721173195
0.40847927626127034 -0.6290029259590679
0.41939467760306015 -0.6217781794162812
0.45886114908083686 -0.6553216354311935
0.44083893921935485 -0.6067627457812106
0.48145201852163866 -0.6389084080378343
0.4925291802605267 -0.6304086028853776
0.5034563128398699 -0.6217167691655767
0.5142300877492315 -0.6128355544951825
0.5576501746419311 -0.6415031431893562
0.5353044850870866 -0.5945158603819154
0.5796986060531237 -0.6216506463762947
0.5904596148901476 -0.6114388302878534
0.6010407640085654 -0.6010407640085653
0.6114388302878535 -0.5904596148901476
0.621650646376295 -0.5796986060531237
0.6316731016557852 -0.5687610154050294
0.6792386222004948 -0.5904531260914566
0.6894399988070802 -0.5785088487178853
0.6994313653112738 -0.5663883519448537
0.7486102159263859 -0.5848784015593752
0.7187719590425635 -0.5416335208368435
0.7685661446562 -0.5583959896778494
0.7781944420745421 -0.5448976145334937
0.7875856939272896 -0.5312332582972095
0.7967370395481528 -0.5174070832642756
0.8480480961564261 -0.5299192642332049
0.8571673007021123 -0.515038074910054
0.9093266739736605 -0.525
0.9183506924963656 -0.5090501012586539
0.9712423521448198 -0.5164187190644799
0.9801071766072048 -0.4993895497135015
1.033613153244042 -0.5041268188074389
1.0422539550921472 -0.4860110010018043
1.0505772762889911 -0.4677471395371701
1.0309654358667333 -0.43761886390798654
0.9920867243864626 -0.40082905495502574
0.998931056352006 -0.3834537060134714
1.0806465139037944 -0.39332316482451907
1.1062567334512006 -0.3809147407148733
1.1127361240653295 -0.36154988341868843
1.1762548498345338 -0.35961719680896614
1.1535140351259827 -0.33076482698039894
1.159110991546882 -0.31058285412302483
1.2322755723705154 -0.3072408074115779
1.2374499822772487 -0.28568783901670836
1.3400622130053137 -0.2848390164203304
1.6393173963575989 -0.3186510222788299
1.6938693351809977 -0.2986748655871202
1.7482083628533938 -0.2768890031212086
1.8022878851096582 -0.25329504374731904
1.9056886111513383 -0.23398913933788307
2.0089342286439122 -0.21114749580065983
2.062123025049913 -0.18041238748765218
1.8953716954936661 -0.13253730011383782
1.9173687067287817 -0.1004850359864523
2.1686780946314377 -0.07573190784442721
2.519616191794106 -0.04398006422195451
2.67 0.0
2.869562885098843 0.05008840647500375
5.816454613251137 0.20311507080855593
5.762092415533891 0.3019784675217863
5.656188164973203 0.395519206129191
5.548804468371023 0.4854574871044567
5.489760862432868 0.5769971172374478
5.459003834027271 0.6702813887283109
5.476182420140884 0.7696272483091617
5.896499393352972 0.9339137562901783
6.8148696508444795 1.201645389455158
7.185510982836901 1.3967218461563085
7.893651137921811 1.6778473448993183
18.824829651650745 4.346054369923474
18.74611343165225 4.673931022985583
26.823760196047424 7.187404882497005
24.86784007392431 7.130738394985767
24.309266896580365 7.432088734051968
7.8176845639461625 2.5401196937620676
9.75775170018495 3.359863353997857
9.650643215471279 3.5125468719546182
9.587870980126262 3.680438841830234
9.568537379129245 3.865940044052213
5.633489703128935 2.3912745063543563
4.951416380422897 2.2045126054708377
4.368403533516653 2.037020021590171
3.8827902800124012 1.8937633541288152
3.5372959010278207 1.8023422839660008
3.3287124250781543 1.769907791702809
1.1982289987809722 0.6641891797374818
0.8400446416709055 0.4849999999999998
0.8143089356670066 0.48928617116455153
0.7632432865407834 0.47692733780988444
0.7548035111508815 0.4901751315135245
0.7461338152995376 0.5032736131236721
1.1222383006759187 0.7857997178009335
1.0679024325749307 0.7758765330260646
1.094130648764791 0.8244865817183065
1.158375807801881 0.9050223687287177
1.1424045633417474 0.9251009748432608
1.0877831092289487 0.9127584057548859
1.1848940409497521 1.0300126755150962
1.0924228934517695 0.9836219913475217
2.0989851236470196 1.9573352933793706
2.0645052269719284 1.9936695232173225
1.039446968344225 1.0394469683442247
1.0211478045747258 1.0574295064978174
1.1048373433012475 1.1847929966230561
1.0170785216654648 1.1295801347256391
1.0300126755150965 1.1848940409497521
1.041315927692194 1.2409919978527444
1.365625248578147 1.6864067363616269
0.9665885162612837 1.2371768831625534
0.974940337506318 1.2937895262766146
0.9228228460991829 1.2701566811686675
0.8431573614360375 1.204153505104818
0.8779328584490725 1.3015889889114156
0.8550832849735928 1.3167127916743155
0.8319732448461318 1.3314355109655889
0.7828578738632825 1.3028942970672106
0.7599999999999998 1.3163586137523469
0.7369106227744324 1.3294219548518815
0.6901231972952592 1.2979329615026227
0.6446665096301565 1.2652292643474823
0.6005684711010358 1.231347843429859
0.5789870185847583 1.2416416682402105
0.5572292010138465 1.2515572769703631
0.5470235798849832 1.2887067948334165
0.5057189011114814 1.251698203665163
0.48379673188615524 1.2603335757712224
0.4446261863233695 1.2216004070216808
0.42323860079430353 1.2291741482791119
0.3862712429686843 1.1888206453689418
0.3654646309034207 1.1953809449537944
0.330764826980399 1.1535140351259827
0.3235238063781512 1.2074072828613351
0.2903062747196012 1.1643548715311958
0.26994126521263817 1.1692440777422823
0.24949402898131107 1.1737771208805667
0.2289707944518539 1.1779526201371968
0.20837781320031626 1.1817693036146497
0.17989963479626556 1.1358415916844085
0.16004906610407502 1.1388082790528058
0.1401497449159196 1.1414280743875203
0.11498130959441906 1.0939740849051007
0.09848598930485368 1.1257000088436724
0.07882481533086176 1.1272473767936013
0.05913963055452642 1.1284513742726683
0.03943643127382622 1.1293116345315781
0.019197647081011716 1.0998324646720306
