# .PCD v0.7 - Point Cloud Data file format
VERSION 0.7
FIELDS x y
SIZE 4 4
TYPE F F
COUNT 1 1
WIDTH 180
HEIGHT 1
VIEWPOINT 0 0 0 1 0 0 0
POINTS 180
DATA ascii
7.776507174585693e-17 -1.27
0.02216455617535017 -1.269806572848617
0.04257738597705132 -1.219256808963297
0.06803674311582716 -1.298218395180946
0.0920785453422456 -1.316784546342968
0.11504558042690875 -1.3149770014811042
0.13797757151330256 -1.3127689018861208
0.1608675332947947 -1.3101609201665452
0.1906671483152897 -1.3566672541759515
0.2143152171051164 -1.3531330266153387
0.23789800340369469 -1.3491866216267252
0.2614083236658666 -1.3448292413232998
0.2952346009612184 -1.3889695930420038
0.3194304971682885 -1.383605491995034
0.3314329969715447 -1.3293051449981153
0.3545820917904534 -1.3233183820160237
0.37762317746928886 -1.316928523435497
0.4005492354701494 -1.3101375156693587
0.45425498173117274 -1.3980530789538756
0.4623067793291626 -1.3426363773510297
0.4856686035224497 -1.3343635215159897
0.5268008858315916 -1.3723632269508865
0.6068626813337777 -1.5020378443981957
0.593911315303696 -1.3991673772477093
0.6589133617827967 -1.4799436413810134
0.705772497106968 -1.5135340043512053
0.7320798151377593 -1.5009860573196088
0.7808636595520206 -1.5325312216039928
0.8074910879917323 -1.5186698597173542
0.8338725468236998 -1.5043458962797607
0.8849999999999998 -1.5328649646984565
0.9631212000818016 -1.60290285231295
0.964453060904433 -1.5434475350046952
1.045706947228852 -1.610247490455214
1.073650374663834 -1.59175213930568
1.1299455796115607 -1.6137295272493137
1.2167154722454192 -1.674665178356141
1.2457570979247399 -1.653175505797896
1.3359854014566788 -1.7099833353265865
1.365625248578147 -1.6864067363616269
1.4591278739884443 -1.7389208858800802
1.5220569472579768 -1.750926226116831
1.65275259770638 -1.835567718929164
1.6845359493543717 -1.806443642999351
1.7852720120796228 -1.8487032868703333
1.8526197667087547 -1.8526197667087545
1.9925712469380639 -1.9242036861714225
2.0989851236470196 -1.9573352933793706
2.244297372941731 -2.0207744312037517
2.430164848317326 -2.1125100733494335
3.232707549962087 -2.7125637128771953
3.3184132554212655 -2.6871980697828053
3.4830075309417112 -2.7212237209394092
4.009150260437409 -3.021111416223282
4.263519560355973 -3.097628279581333
4.398846477831886 -3.0801054632051175
4.659191157759334 -3.142664117505597
5.006863290634182 -3.251495039039711
5.359663967708613 -3.349089749953855
5.888739355823512 -3.5383115746320715
6.469209766269756 -3.735
10.03188804088887 -5.560766344225486
10.127408890091893 -5.3848388251541675
10.21984483244058 -5.207271032012602
10.219288306421529 -4.9842799389918095
11.57355044045802 -5.396835202428731
13.767130046673998 -6.1295212111523085
17.36992658464755 -7.3730963945925945
19.303967852080515 -7.799309274919286
24.245083676132328 -9.30681564969145
30.55880402795774 -11.12249506095075
15.950898370360477 -5.492334765692234
15.996770604084483 -5.197665845386616
10.77755459970341 -3.295029112225243
6.651930935893167 -1.9074105022536338
4.94554023060003 -1.325153510924906
3.803559247001906 -0.9483338307506971
3.819530653958122 -0.8818081330279502
3.8343385948765176 -0.8150138280056168
3.8970599182872263 -0.7575117116448832
3.8604463918078555 -0.680700856454367
3.9211227121626973 -0.6210448262097166
3.9313642329040346 -0.5525172108114597
3.940408222016049 -0.4838212933184353
4.047704114148873 -0.42543084549934934
4.0545124212334045 -0.35472387298296837
4.060085684557485 -0.28390884813858946
3.9146277762379293 -0.2051569484723401
3.8176729592129455 -0.1333160774035539
3.8694105802552343 -0.06754081291228728
3.92 0.0
3.9693953497708736 0.06928605355601564
4.06752066596772 0.14204095157917915
4.214216636664301 0.22085773534522327
4.259598494609449 0.2978601428874154
4.253751360851753 0.37215502153250085
4.346060682759354 0.4567893844796463
2.8982347627926606 0.3558584827430305
2.6935291469770717 0.37855083461137795
2.587743452359261 0.4098582984054049
2.580196312891985 0.45495822548735754
2.4737005022881133 0.48083866834889305
2.3671171937758095 0.5031462917789777
2.2605385503017454 0.521886446077767
2.202571298646512 0.549162703011246
2.1443553343617316 0.5745782801275965
2.085937880186152 0.5981330621228881
1.9795508448434835 0.605209428776065
1.9686869887309677 0.639665178356141
1.90994752271062 0.6576476720034565
1.8511944629482393 0.6737796823515675
1.7924744188746273 0.6880664631269766
1.7338338080398923 0.7005143296877557
1.6753188332834414 0.7111306538504785
1.6169754600274036 0.7199238582441666
1.6041647830548704 0.7480343232810379
1.545925759634567 0.7539983724772135
1.5325312216039928 0.7808636595520205
1.474522480074408 0.7840175098524379
1.4606149109227908 0.8096320658113828
1.4029611541307907 0.8099999999999998
1.388611027137422 0.834361681354288
1.0346186773108397 0.64650150236451
0.6877098657152476 0.44660400871232225
0.6383589308673822 0.43057853567247506
0.589789471888074 0.4129750341727533
0.6067627457812106 0.44083893921935485
0.5989766325354695 0.45136126736403637
0.5910080652050415 0.46174610649424375
0.5828594710927283 0.47199029328737796
0.5515519990456641 0.46280707897430834
0.618861855782673 0.5379684037722159
0.6465359981653329 0.5821436275322067
1.0019545712182638 0.934337753285623
0.9854955264639519 0.9516819675288265
0.9333809511662429 0.9333809511662426
0.9169490490058763 0.9495285364470197
0.900237835282498 0.9653868861373051
0.9167089307116361 1.0181084109040301
0.8659979182674696 0.9962166458940591
0.8484796447862322 1.011178664917051
0.7992368966332934 0.986975371050353
0.7818900736635862 1.0007736570805368
0.7643050794031012 1.014267097760062
0.7464872704114409 1.0274515828561832
0.7284420741658284 1.0403230962470198
0.6822153422343111 1.0114258385171508
0.6644596227183331 1.023178092893417
0.64650150236451 1.0346186773108397
0.6283464513902662 1.045744106856577
0.6099999999999999 1.0565509926170151
0.5914677367005313 1.0670360427100627
0.5727553065987866 1.077196063287891
0.5538684096822472 1.087027959509809
0.5128942417432203 1.0515890341700254
0.5155942793236533 1.1056955001847129
0.4880839716909604 1.0962545491711209
0.46887735418712845 1.1046058241429284
0.4682582417698902 1.158979818208484
0.4300415394543602 1.1202965117966421
0.40358376912428917 1.1088372925273717
0.3939374668931594 1.1440774764751733
0.39554175279993276 1.2173523408577966
0.3596171968089659 1.1762548498345338
0.34730306832941893 1.2111897368822817
0.3261119968291764 1.2170665411242259
0.2903062747196012 1.1643548715311958
0.2811888179298314 1.217962580981544
0.259889613522199 1.2226845009172571
0.2289707944518539 1.1779526201371968
0.21185077675365485 1.2014654586748938
0.18302832409707018 1.1555953584963112
0.16979118317127959 1.2081270438647158
0.14868059895427993 1.2109063050024127
0.12752472518653749 1.2133167123492934
0.10633000615214293 1.2153575316719296
0.08510289796783305 1.2170281413169854
0.06384986661639137 1.21832803240058
0.04257738597705132 1.219256808963297
0.02216455617534989 1.269806572848617
