# .PCD v0.7 - Point Cloud Data file format
VERSION 0.7
FIELDS x y
SIZE 4 4
TYPE F F
COUNT 1 1
WIDTH 180
HEIGHT 1
VIEWPOINT 0 0 0 1 0 0 0
POINTS 180
DATA ascii
5.939536975864663e-17 -0.97
0.01692883424416509 -0.9698522643016995
0.032107536966301 -0.9194395608575682
0.048149079743508454 -0.918739171974208
0.06557108531947792 -0.9377102072442347
0.0845410704652284 -0.9663088571489932
0.09825675547159424 -0.9348505816461768
0.11821326310299306 -0.9627697670920823
0.1349979079312635 -0.9605600266793233
0.14391970783701247 -0.9086732733475268
0.159756323453576 -0.9060231327712314
0.16982000588512497 -0.8736481932684209
0.1954369893686939 -0.9194587446897772
0.21145399108323323 -0.915907860898121
0.21531048708370423 -0.8635631963856368
0.2432899023963695 -0.9079702767117241
0.2590991144679792 -0.9035859941820197
0.27482940243937254 -0.8989264706052532
0.29047597471245057 -0.8939931253174442
0.3060340651897273 -0.8887874610633577
0.32149893472612867 -0.8833110635387538
0.3368658725725823 -0.8775656009073696
0.35213019781095745 -0.87155282329278
0.36728726077991725 -0.8652745622452939
0.3823324444912523 -0.8587327301840446
0.41839207912329246 -0.8972447091662834
0.43398743532118667 -0.8898061058361753
0.47215011972912874 -0.9266467851559026
0.48825042529732654 -0.9182654965732839
0.5042020050561906 -0.9096044954249716
0.4949999999999999 -0.8573651497465943
0.5356395979064564 -0.8914539927301968
0.5511160348025331 -0.881970020002683
0.5664245964156281 -0.8722173906632409
0.5815606196095768 -0.8621990754572433
0.6251983156226403 -0.8928757282750012
0.6406859249987957 -0.8818285238686928
0.6559783752357327 -0.8705127059515493
0.6710710081049677 -0.8589317214313269
0.7174252457968145 -0.8859463960609467
0.7006384945583279 -0.8349884429996861
0.7479072930491782 -0.86036892145396
0.7628088912490983 -0.8471851010442294
0.8115780484743733 -0.8703109049268126
0.8266434608462067 -0.8560143624029948
0.8768124086713189 -0.8768124086713188
0.8919813524199275 -0.8613763793691566
0.9068785900077715 -0.8456779664774982
0.921499583591969 -0.8297219518849841
0.973575358487376 -0.8463161473977544
0.9881973316234817 -0.8291960164956357
1.041375588352341 -0.8432893240067821
1.0953349475133436 -0.8557694507026649
1.110103358965737 -0.8365228821813471
1.1649844718999243 -0.8464107633011613
1.2205365459905977 -0.8546288901630587
1.235265983107012 -0.8331974261714127
1.2915526746359531 -0.8387441139231415
1.3059940680808961 -0.8160756669191356
1.3628960081163586 -0.818910539106986
1.4202816622064791 -0.82
1.4781073050655789 -0.8193282582163096
1.4921814319315865 -0.7934069411081555
1.55035135208776 -0.7899434695468114
1.608841342875509 -0.7846843527524485
1.7129217174992684 -0.7987485146899218
1.7722781878266458 -0.7890690875670523
1.8318046583703564 -0.7775549456936546
1.8914550633162464 -0.7641974505684603
1.9698546999090956 -0.7561563735405836
2.264659216094039 -0.8242685454148618
2.325975695974319 -0.8008976599646055
2.4347046817155933 -0.7910835055998654
2.5437706508616746 -0.7777087345624797
2.701145365586676 -0.7745409698457675
2.859140445815642 -0.7661043735034612
2.920590136090749 -0.7281849057549995
2.8841353917642962 -0.66585512085784
3.0909464183188256 -0.6570009429841197
3.298267336384151 -0.6411182244651907
3.5059156007234606 -0.6181875124942721
3.763092577667475 -0.5960153118032796
4.070001762527855 -0.5720014449458689
4.426755836320297 -0.5435372715869575
4.7339242219529805 -0.4975554851540301
5.1901743770579944 -0.45408141971529853
5.696090726983597 -0.39830946507895476
6.3512838410390895 -0.3328566817051232
7.255577404158635 -0.2533703460601574
8.458711501023071 -0.14764735845941873
9.91 0.0
10.408414506578033 0.1816795510121216
14.950886772205674 0.5220964706694152
17.486003153552588 0.9164025938139478
15.3225838119909 1.071459436709766
34.72734717547825 3.038249192183368
10.253520741246898 1.0776884562895088
19.81122118676079 2.432512094366743
11.794092698712102 1.657551632434379
11.862136970547605 1.8787779251331727
10.153367933555865 1.790312711746052
8.353647331139621 1.6237845506543966
7.590425381694331 1.6133947207458128
6.4405861282304055 1.4869264692129482
5.44335902440834 1.3571818343141366
4.935880972337139 1.3225653204738819
4.479479503072566 1.2844700781072158
4.073858260402531 1.2455034621188583
3.766183804528808 1.2237072977247916
3.4605979866934997 1.1915794453131936
3.2043518368799475 1.1662886887405306
2.9501141477311577 1.132442720563149
2.7908234022460294 1.1275658461818954
2.632643880873979 1.1174910274793233
2.4757081902114484 1.1022563027354189
2.320147934813824 1.0819027500561904
2.211033353895951 1.0783930211011308
2.05822507087513 1.0487180543983532
1.9513141802182283 1.037532153756819
1.889178567421095 1.047188779732088
1.7840123317959438 1.0299999999999996
1.7057629283972033 1.024925769071008
1.6452133065434664 1.0280433726124174
1.5850873734168511 1.0293677761784013
1.4839772548735248 1.0009552972126368
1.4253245570628454 0.9980229992508205
1.3672387204936611 0.9933570763742796
1.30976223647756 0.9869766379693594
1.2923376359150238 1.0096848195340795
1.235662078716584 1.0006194217692412
1.1797084424032263 0.9898929189172706
1.1245172745319303 0.9775279531958556
1.0701285486874474 0.963548073156756
1.0531493303316055 0.9820776384899977
0.9639153324537924 0.9308422164150565
0.9475230867899738 0.9475230867899737
0.9308422164150563 0.9639153324537928
0.8797778844806231 0.9434462750887299
0.8297219518849843 0.9214995835919687
0.813513195948229 0.9358398794762373
0.764917255526982 0.9115928873115838
0.7488912653493065 0.9248036941337954
0.7326371556375335 0.9377327967919991
0.6860691263933348 0.9104444814539139
0.6406859249987957 0.8818285238686928
0.6251983156226402 0.8928757282750013
0.609520264783114 0.9036509540849955
0.5936565481663797 0.9141509190605122
0.5776119980141934 0.9243724248105044
0.5356395979064564 0.8914539927301968
0.5199999999999999 0.9006664199358163
0.5042020050561906 0.9096044954249716
0.46477684715803175 0.8741181169303377
0.4494505947421514 0.8820964589464843
0.43398743532118644 0.8898061058361754
0.41839207912329246 0.8972447091662834
0.4026692766450424 0.9044100030661747
0.38682381720438097 0.911299804917916
0.35213019781095745 0.87155282329278
0.34403323156348814 0.8962372094373137
0.3112383304263586 0.8551202849151766
0.3125454282788703 0.9076978325753441
0.29047597471245057 0.8939931253174442
0.2748294024393723 0.8989264706052533
0.2728809822588292 0.9516490789789357
0.25623085465149575 0.9562665680261775
0.239502676643671 0.9605927690132365
0.21145399108323323 0.915907860898121
0.19543698936869366 0.9194587446897773
0.18890090542277946 0.9718109116131873
0.1632292870069144 0.9257192878314756
0.14704839713781706 0.9284270401594295
0.13082271490246133 0.9308519846170761
0.11455718280083864 0.9329933825428426
0.10139260936962406 0.964686238507225
0.0845410704652284 0.9663088571489932
0.06557108531947792 0.9377102072442347
0.048149079743508245 0.918739171974208
0.03280552690035101 0.93942737739795
0.016928834244164876 0.9698522643016995
