# .PCD v0.7 - Point Cloud Data file format
VERSION 0.7
FIELDS x y
SIZE 4 4
TYPE F F
COUNT 1 1
WIDTH 180
HEIGHT 1
VIEWPOINT 0 0 0 1 0 0 0
POINTS 180
DATA ascii
7.898971854500428e-17 -1.29
0.023386224625960024 -1.3397959115095643
0.0485103004164765 -1.389153249556543
0.07536377698983932 -1.4380265300465862
0.10393714587874693 -1.486370434887138
0.13421984383139354 -1.5341398350612883
0.17142667975895165 -1.6310159084039682
0.20595919035469926 -1.6774029962738342
0.2491198507185172 -1.772579843047411
0.2956611389260364 -1.8667309637248104
0.32819505579049846 -1.861286653193073
0.36062900126166986 -1.8552753767160848
0.3825575111046774 -1.7997915853502024
0.41390993999271186 -1.792840919204833
0.44513628790338855 -1.7853441363478335
0.47622704298863816 -1.7773035203718859
0.5071727347032785 -1.7687215205265068
0.5379639366898357 -1.7596007509719853
0.5531404199311559 -1.702391164168325
0.5827669964783107 -1.692478250322777
0.6122160565529472 -1.682049791206776
0.6414786296860877 -1.6711089634299912
0.6705458022144828 -1.6596590996745493
0.6798721635713363 -1.6016784450072463
0.7077217589518926 -1.5895690962981253
0.756486688515852 -1.6222909387956035
0.7846843527524486 -1.6088413428755088
0.7899434695468115 -1.55035135208776
0.8403540973867447 -1.5804761912174792
0.8435687392286266 -1.5218382904225485
0.8699999999999998 -1.5068842025849234
0.8961662503434944 -1.4914711032216752
0.9220595197657765 -1.4756036873121812
0.9476719209261472 -1.4592867882250375
0.9729956520390997 -1.4425253762457724
0.9980229992508202 -1.4253245570628457
1.0403798965576774 -1.431960080043657
1.095303342136728 -1.453516628286073
1.1205038850926983 -1.4341795715642338
1.176829131263196 -1.4532629479245356
1.2020128301138286 -1.4325031086324889
1.1743456618930082 -1.350930148598762
1.2312003157002993 -1.3673864788784054
2.9053130138662437 -3.1155667688976654
2.7161142284946793 -2.812618619324126
2.5880108191427644 -2.588010819142764
2.4529487191548007 -2.3687850432651807
2.384213067278496 -2.2233146538037447
2.4226521310563056 -2.1813657767298773
4.875423888239107 -4.238141327278677
5.0252515468604955 -4.216686719543698
5.253506699449123 -4.254205843496901
11.315834421792527 -8.840898785676451
10.510043312222374 -7.919885704680955
10.201704299068087 -7.411972031408086
10.00184646076859 -7.003368287846273
9.790933731875043 -6.60406818998952
9.527297651860017 -6.187099437770706
9.421814348297893 -5.887403025630906
9.180261790519625 -5.516057782286679
9.015324453396007 -5.205
8.84240523917929 -4.901425260690467
8.794158024874914 -4.675936765347473
8.918975307125562 -4.544444902392863
7.424038822431119 -3.620945672477779
7.304840763515399 -3.4063031896300373
7.226144569952974 -3.2172868467295794
7.281193390808803 -3.090683226350155
7.426742675079967 -3.0005988132614543
7.618016280217167 -2.924282468289651
8.043768833927375 -2.9276924268677247
8.708226081269709 -2.9984827025504135
6.524247701784754 -2.1198565814121393
6.416804912511968 -1.9618141386895633
6.305876725355372 -1.808181054159514
6.239880837827381 -1.6719710313622835
6.268110391742937 -1.5628154455738528
6.4893046314696665 -1.49817402193014
6.563370400923835 -1.3950874453871656
6.832125196795741 -1.3280306078207522
5.770973432651539 -1.017578321128212
5.689084841827993 -0.9010625186317298
5.604917269077289 -0.7877197514339702
5.468929295543685 -0.6715000821623623
5.4300895487107725 -0.5707254094413875
5.339603581771756 -0.4671547811274473
5.247186904366676 -0.3669190518940984
5.202859876071329 -0.27267033202573776
5.156856667418534 -0.18008140298490527
5.059229337491339 -0.08830917657265469
7.81 0.0
7.758818114413596 0.13543067395332023
7.655333734966273 0.2673301447411578
7.399844852531392 0.3878094357602143
7.342071409912307 0.513407646756763
7.481422182669009 0.6545396280349137
4.783650316721394 0.5027819083174139
4.575637759066495 0.5618176730977297
4.614649200335718 0.6485466504739048
4.4544744160840715 0.7055194373314412
4.343002190783838 0.7657884635111629
4.378057238176582 0.85100811937939
4.509260439382844 0.9584728946698708
4.443127495420672 1.0257768078080247
4.424548511818544 1.1031638439344853
4.356325476563697 1.1672738934123692
4.335290248681818 1.243124474734666
4.265119211595138 1.3039778030634057
4.241712062676385 1.3782157949122653
4.217012847172953 1.4520339688789188
4.2849983507837415 1.5596118535650494
4.583879894101261 1.7595866322674247
6.360481242328161 2.5698012308331575
5.302107955886056 2.2506113000982175
5.170667290257121 2.3021293998090298
5.084386685275606 2.370888448365324
4.862475790478493 2.37158790412891
4.864895622068489 2.4787881285779254
4.95333599593858 2.6337354672288487
3.9445348791986747 2.18649138731098
3.9317553331813517 2.269999999999999
3.8915395451875896 2.3382728600916463
3.8501383565501746 2.40583345961875
3.279201920666608 2.1295386269087566
3.2415369086902133 2.1864442525706203
3.202884493169958 2.242683866132591
3.001453049131055 2.1806832860050753
3.0028695177778206 2.2628244870517022
3.5933290364466517 2.8074163274850017
3.5437855842437873 2.8697009831872577
2.344095995944073 1.9669300856408105
2.2716758364705436 1.9747376772614265
2.236865924686956 2.0140831251401634
2.5670514926832886 2.3938142438193695
3.3521234695781135 3.2371080063389277
4.143645737753169 4.143645737753168
2.2645862876963307 2.345047749104003
2.1210148997943703 2.27451001203562
1.9806265948222206 2.199708683413087
1.8763288229128507 2.158469399437128
1.709815041766195 2.0376782186964815
1.6110602010875839 1.9894936613298455
1.5145272293011196 1.9385064538725358
1.3901927034812314 1.8448480282092468
1.2990054075663655 1.7879275575686338
1.2389251025182593 1.7693684156642226
1.207856671496813 1.7907211567188903
1.121956412130956 1.7276613699675734
1.0386417578970817 1.6621742684665948
0.9837227230782036 1.6371895443410343
0.9549999999999997 1.6541085212282778
0.8775054126458702 1.5830616699223063
0.8262699505031675 1.5539877634317114
0.7763237545546251 1.5236211563621092
0.7057775463304143 1.447058414541659
0.6592844883154911 1.413840147777174
0.6141723310444586 1.379453641040327
0.5900040040188033 1.389962328713185
0.5656559560580274 1.400047620395849
0.5052988088588732 1.3163484013610545
0.5164504164217599 1.4189358573867217
0.4753295055074485 1.3804571203750025
0.4357139620686759 1.3409896879761665
0.4122441036590585 1.34838970590788
0.3886486717019688 1.3553789912730296
0.35199390133942854 1.3136591237531328
0.3169176832355647 1.2710874014215554
0.290186860103586 1.2569373835729536
0.2619687304303766 1.2324659769245951
0.23087888440561935 1.1877688919716733
0.21011429497698556 1.191617381144772
0.18928570269867942 1.1951028921201168
0.16144079711367568 1.1487109597402216
0.14136843834997107 1.1513535359039335
0.12125301739047827 1.1536453986271968
0.09674287444990054 1.1057761148818377
0.08091750954318552 1.157174298301396
0.06070970924181474 1.1584102603153055
0.03699346650465115 1.0593542766402415
0.01849955082352038 1.0598385568657749
