# .PCD v0.7 - Point Cloud Data file format
VERSION 0.7
FIELDS x y
SIZE 4 4
TYPE F F
COUNT 1 1
WIDTH 180
HEIGHT 1
VIEWPOINT 0 0 0 1 0 0 0
POINTS 180
DATA ascii
1.2246467991473532e-16 -2.0
0.0349048128745672 -1.9996953903127825
0.06979899340500216 -1.9987816540381915
0.09943831686159353 -1.8973961160336903
0.13253730011383835 -1.895371695493666
0.16559591122055045 -1.8927699263743165
0.1933776570451589 -1.8398655064313056
0.21936481812926548 -1.7865830729543797
0.2505115817281178 -1.7824825237348267
0.2659385905683926 -1.6790701790117342
0.2865194931504352 -1.624932792470143
0.3052943926024719 -1.5706034935162625
0.33889605603294787 -1.594380589196103
0.36667021858050014 -1.5882232055999332
0.3870750329594683 -1.5524731620415944
0.4141104721640332 -1.5454813220625094
0.4355070221908587 -1.518793479582544
0.4619472934619241 -1.510961514421596
0.488246851112417 -1.5026692957463426
0.49811927631944986 -1.4466434206669547
0.5232908192882733 -1.4377297098024397
0.5483029628043096 -1.4283780525407186
0.5731480879263456 -1.4185912974871846
0.6134478717281597 -1.4451926199203315
0.6995870260903766 -1.5712981871452734
0.769165236368073 -1.649480172406703
0.8635911591744826 -1.7706242712093587
0.9624598594478394 -1.88893383127934
1.0891740256632667 -2.0484384154327104
1.1974797620084527 -2.1603106766343076
1.3599999999999999 -2.3555890982936734
1.555414986228364 -2.588645248120379
1.7858279204659007 -2.8579220840471558
1.7809696444991385 -2.7424527571815362
1.8285607943493425 -2.7109528622549863
2.305777274131205 -3.2929912180417467
8.975480802506064 -12.353689504105446
9.189715403531777 -12.19516423842216
9.401150728222804 -12.032924207574643
13.32271267852506 -16.452180004044074
14.34701944820356 -17.09811197041559
0.9512855920362355 -1.0943288913230194
0.9702393792203444 -1.0775599969422216
0.8524979500781232 -0.9141921270239629
0.8335900445507967 -0.8632077604063813
0.848528137423857 -0.8485281374238569
0.8272407703894488 -0.7988571260278468
0.8410567568620461 -0.7842981140718732
0.8917737905728732 -0.8029567276306298
0.9056514962673263 -0.7872708347886087
0.8809511095868247 -0.73920575113952
4.911562476408056 -3.9773048714349724
4.980227962794483 -3.89098052405816
5.12723997450362 -3.8636524486361496
5.881553549105868 -4.273198784166279
5.95523536198097 -4.169900692272105
6.1514587883584095 -4.149211343752941
3.7069239103187743 -2.407304534766419
3.663567775395761 -2.2892512214874454
3.7886794691033363 -2.276468291102439
3.6113259337811088 -2.085
3.559702208057341 -1.973175154402592
3.6377440825787795 -1.9342228386778701
3.670946879656076 -1.8704408589269328
2.2200212943589426 -1.0827767325690212
2.193264844628693 -1.0227361934124926
2.119425461730834 -0.9436290119358562
2.043520774664418 -0.8674231052461876
2.0119889644099285 -0.8128963077125289
2.0258695254989276 -0.7776584505133016
1.94516372502683 -0.7079816966841342
1.90994752271062 -0.6576476720034565
1.8260285112866947 -0.593312629199899
1.8361051314490282 -0.5613536730676545
1.8456224562015722 -0.5292237231686383
1.8062812951605578 -0.4839916143417137
1.7174234355085138 -0.4282017552114117
1.5784795049520812 -0.3644207080370611
1.5845991131887651 -0.33681693912477023
1.5902360371852158 -0.3091105725100027
1.6446289475303872 -0.28999245670377366
1.6000551117641233 -0.25342383336517404
1.5547208679242654 -0.2185017685073027
1.5582974580768758 -0.19133486914608147
1.5613993757281892 -0.16410968733021583
1.5142159410994533 -0.13247672897644028
1.4165409513689504 -0.09905419271665775
1.4679854160892236 -0.07693385567712754
1.4691045157180707 -0.05130226015267649
1.4197837271220755 -0.02478241714094262
1.42 0.0
1.369791342364256 0.023909796819078444
1.3691654330161613 0.0478123104824264
1.3681224626137662 0.07170026005283316
1.316784546342968 0.09207854534224554
1.2651672665765168 0.11068779328952603
1.2630428071177071 0.13275114834992008
1.260533612584479 0.15477406612453726
1.2576404473017944 0.17674983821928308
1.204979775526068 0.19085004734908165
1.2014654586748938 0.21185077675365505
1.2466665229785332 0.24232742412821198
1.1933400728952428 0.25365226279766645
1.188731479037987 0.2744402862995154
1.1837607860567156 0.29514471263159475
1.1301332167582097 0.30281828276994943
1.0285500146540012 0.2949319707241891
1.023246088880448 0.3128377240533283
1.0176304724358143 0.3306481839811937
1.011704875891269 0.3483579252691577
0.9584864732016265 0.34886054619218215
0.998931056352006 0.3834537060134714
0.9457275316581231 0.3820987252842304
0.9389149505214891 0.39854575105905937
0.9318163667954529 0.4148713759373163
0.924433942777383 0.4310706269755134
0.9167699272251503 0.4471385697248591
0.8642763284627168 0.4403707847473604
0.8829475928589269 0.469471562785891
0.8746197071393957 0.48480962024633706
0.9266471820493495 0.5349999999999998
0.8743106467161544 0.5253388364082554
0.8480480961564261 0.5299192642332049
0.8806040963426952 0.5718709867657786
0.8290375725550417 0.5591929034707468
0.8191520442889917 0.5735764363510463
0.8332875042061959 0.6054188098612473
0.8225945753487115 0.61986947384661
0.8116510762149236 0.634131319585428
0.8004603403006801 0.6482000027813324
0.7507235542565984 0.6299318574928086
0.7773508676294552 0.6757407998602224
0.7654391702417159 0.6892045245496241
0.7532943126677457 0.7024583108643735
0.719339800338651 0.6946583704589974
0.7071067811865476 0.7071067811865475
0.6946583704589971 0.7193398003386513
0.7160982780656234 0.767921386700129
0.7025871366768013 0.7803020667512639
0.636377258120792 0.7320682928160889
0.6877827423645972 0.8196675541373065
0.6733728184233261 0.8315461787589589
0.6279747048321715 0.8037709686788563
0.6439420747726916 0.8545399957506035
0.6289302199529463 0.8656481839811938
0.6137267868956192 0.8764926873892214
0.5983364067136991 0.8870702026338947
0.6099957192168305 0.9393110360988749
0.5935095759411896 0.9498138676951972
0.5665418824010597 0.9428840307723235
0.5599999999999999 0.9699484522385714
0.5429867746758976 0.9795740719961233
0.549281728459492 1.0330486836449446
0.5311688846952698 1.0424776333003904
0.5128942417432203 1.0515890341700254
0.4944633662366183 1.0603801108328803
0.4758818723986864 1.0688481854418428
0.47669197675691394 1.1230159212119772
0.45702004396741286 1.1311643025714806
0.43720889844526617 1.138968120326586
0.41726457485731594 1.146424997358808
0.39719314843773096 1.1535326622311666
0.3770007331374359 1.1602889498800872
0.34207489452560175 1.1188765644767515
0.336277574096739 1.1727392690447491
0.3157592350250756 1.1784295080726632
0.30724080741157794 1.2322755723705154
0.3081829444510953 1.3348869887557724
0.2744434318794422 1.2911548329686235
0.2614083236658666 1.3448292413232998
0.2378980034036944 1.3491866216267252
0.2221369403571279 1.4025174436450956
0.19762580336329263 1.4061806576130298
0.17914793480556682 1.4590428429127433
0.14843041784006822 1.412221091422948
0.13247672897644036 1.5142159410994533
0.10602984009107069 1.516297356394933
0.08216745130142168 1.567848369564681
0.056537184658051756 1.6190131397709353
0.02827289842839907 1.619753266153354
