# .PCD v0.7 - Point Cloud Data file format
VERSION 0.7
FIELDS x y
SIZE 4 4
TYPE F F
COUNT 1 1
WIDTH 180
HEIGHT 1
VIEWPOINT 0 0 0 1 0 0 0
POINTS 180
DATA ascii
4.531193156845207e-17 -0.74
0.012914780763589862 -0.7398872944157295
0.026872612460925833 -0.7695309368047037
0.03872860761977853 -0.7389858557183846
0.053712484782976605 -0.7681243187000647
0.06710992191569677 -0.7670699175306441
0.07735106281806356 -0.7359462025725222
0.08774592725170619 -0.7146332291817518
0.10298809471044844 -0.7327983708687621
0.11576150412977088 -0.7308893720404019
0.12849965147352851 -0.7287577372290339
0.14119865657864322 -0.7264041157512713
0.153854651205142 -0.7238292245430161
0.1664637802144602 -0.7210338479410741
0.17902220274375408 -0.7180188374442373
0.19152609337586535 -0.7147851114539105
0.20397164330457937 -0.711333654994356
0.2163550614948252 -0.7076655194126462
0.22867257583746112 -0.7037818220584136
0.240920434298296 -0.6996837459434944
0.25309490606099494 -0.6953725393815722
0.28311068014078733 -0.7375285369327894
0.29593920879857066 -0.732475245107762
0.30867759150652624 -0.7271988342274279
0.3009851158760923 -0.6760236386555245
0.33386842677515255 -0.7159831517589534
0.36823176330282503 -0.7549869988913002
0.38135201978121935 -0.748445480318229
0.3708825346008538 -0.6975285983585523
0.40724008100692316 -0.7346805539970924
0.4199999999999999 -0.7274613391789285
0.43263198292444555 -0.7200205325897743
0.4451321819558921 -0.7123604007713977
0.45749678941262273 -0.704483277074156
0.4697220389154274 -0.6963915609462349
0.48180420653487865 -0.6880877172027531
0.5231288745403011 -0.7200251249937032
0.5356153706053229 -0.7107856039420907
0.547938713039836 -0.7013295707099825
0.5600951480343553 -0.6916599056967041
0.6042203531053469 -0.7200817765318392
0.6166954872510768 -0.7094270054094056
0.6289827699773267 -0.6985561359487505
0.6410784584587487 -0.6874724795220201
0.6877117867544073 -0.7121464023352646
0.7000357133746821 -0.700035713374682
0.7121464023352647 -0.6877117867544073
0.7606078496839375 -0.7092782944649985
0.7728706184964902 -0.6958958306132125
0.7848979634316829 -0.6823013901501276
0.8349884429996861 -0.7006384945583278
0.8859463960609467 -0.7174252457968145
0.898332259111663 -0.7018540818712503
0.9104444814539138 -0.686069126393335
0.9627302233061874 -0.699464450228043
1.01574853491835 -0.7112347810752971
1.0694584685960038 -0.7213588454772634
1.081885032649597 -0.7025843551693848
1.0939820440417896 -0.6835958508608343
1.191462547975936 -0.715902924124975
1.1604740410711478 -0.67
1.2594523782807299 -0.6981258531547253
1.3155919133598013 -0.6995126285509773
1.3275997210406683 -0.6764458446119247
1.3841428313007174 -0.6750915660551792
1.4410293813882735 -0.671963036167712
1.4982145505338655 -0.6670480946443123
1.6016784450072463 -0.6798721635713362
1.6318435840375458 -0.659307604412005
1.7364595932847953 -0.6665643861542586
1.7948129057010849 -0.6532584737520273
1.9004923369546267 -0.6543919904588849
2.006729249382774 -0.652025858131139
2.1134335106783086 -0.6461414674372481
2.2205145176175165 -0.6367222919372679
2.3278812413566548 -0.6237538986970749
2.483957059266551 -0.6193200527351491
2.6892613788072492 -0.620864909989067
2.8757539461573884 -0.6112603710042126
3.052860540522235 -0.5934159756210545
3.308954050121019 -0.583457876960886
3.614939326578204 -0.572550142047245
3.970974955653697 -0.5580841348498623
4.377128528738231 -0.5374438044167003
4.833376411489809 -0.5080083314807955
5.389413316676343 -0.4715125682648302
6.1948727521135085 -0.43318770195101736
7.200118945580478 -0.37734224451162557
8.904572268740143 -0.31095451561928406
10.458406891335853 -0.1825521713339858
19.46 0.0
16.65746260130548 0.2907570912451437
14.7010390654509 0.51337159649379
14.589977502764324 0.7646283207094104
16.61941707732867 1.1621428525771291
14.60421427402499 1.2777031886806705
14.579690986098887 1.5323872715038018
14.401844660315584 1.7683241728086891
11.051391647155926 1.55317180671433
9.24476286797049 1.4642265927765608
8.08527165223023 1.4256515386454984
7.175694711002423 1.3948137562025429
6.416648260813764 1.3639006917645016
5.7585270828807404 1.3294607311722426
5.39484423809454 1.3450857395341531
5.129066137594951 1.374329129494386
4.43141641827565 1.270688210316366
4.073858260402531 1.2455034621188583
3.8137366303435654 1.239158147443539
3.5551498442534313 1.224136260758909
3.3453057299978335 1.2175917102393807
3.1368302330305977 1.204116310472209
2.976260173159387 1.202487164865078
2.8167448515644673 1.1956372531771782
2.6584172817399687 1.1836036313505789
2.5467248815729864 1.1875573154913652
2.3907921631557842 1.1660672504589464
2.280976701922222 1.1622156793332399
2.1720510784329603 1.1549000444532918
2.0641025088489737 1.1441507037813554
1.9572174125528312 1.1299999999999994
1.894339734551668 1.13823414555122
1.789381482890059 1.1181296475320623
1.7695948983648444 1.1491883638817073
1.7907211567188903 1.207856671496813
1.8103260178786715 1.2676039243358121
1.7879275575686338 1.2990054075663655
1.645189150697423 1.23973894769322
1.6233021524298472 1.268262639170856
1.5620633825285115 1.2649339860101727
1.5014471085131968 1.2598637149856171
1.4414952982254945 1.2530727453718686
1.4194066166618227 1.2780394581454193
1.3603178850116573 1.2685169497162472
1.2660380485960256 1.2225987320078353
1.2091525958289964 1.2091525958289961
1.1878658134848852 1.2300710585790937
1.1321172777037474 1.214047144687823
1.1107568065557047 1.2336204102924742
1.0562550366747168 1.215082424158663
1.0348880515953287 1.2333315534215548
1.0132058295902382 1.2512049979457232
0.9604319015080272 1.2292967756264863
0.9087406849595927 1.2059396201714123
0.8875557309616344 1.2216156615061706
0.8661004188900794 1.2369195868763778
0.8164216390672903 1.210394855930361
0.7951729911219397 1.224459029200319
0.7736821257804791 1.2381502203883819
0.7262036856231765 1.2086058939899782
0.7049999999999998 1.2210958193360586
0.6593410835350185 1.1894828017095782
0.6384813253888113 1.2008087262881408
0.6174270796457838 1.2117688728961804
0.5742662022936912 1.1774202006519088
0.5536299228803163 1.1872632010180115
0.5328250024292985 1.196744549511807
0.49232122189648486 1.159836115350075
0.47200430770404933 1.168251656754152
0.4515436164270782 1.1763113373864742
0.4138443734240593 1.137028071150949
0.4264942823388751 1.2386293340351051
0.3893614129124338 1.1983312105318935
0.36838834795064807 1.2049439925134249
0.333521200538569 1.1631266520853658
0.3131710445740504 1.1687702498097725
0.29272549367559786 1.1740578287939556
0.2721907757560768 1.1789877783901346
0.25157314588948865 1.1835585968879048
0.2213384346367921 1.13868753279929
0.20143188609363905 1.1423769934941614
0.17364225619465634 1.096334058060603
0.16144079711367568 1.1487109597402216
0.14136843834997107 1.1513535359039335
0.11602659422709559 1.1039193038587833
0.10110066158728344 1.1555858497864246
0.07742968585597926 1.107296095788405
0.05966299011695586 1.138437669620214
0.03978542624085123 1.139305542801769
0.01989574333850305 1.139826372478286
