# .PCD v0.7 - Point Cloud Data file format
VERSION 0.7
FIELDS x y
SIZE 4 4
TYPE F F
COUNT 1 1
WIDTH 180
HEIGHT 1
VIEWPOINT 0 0 0 1 0 0 0
POINTS 180
DATA ascii
5.939536975864663e-17 -0.97
0.01692883424416509 -0.9698522643016995
0.032107536966301 -0.9194395608575682
0.048149079743508454 -0.918739171974208
0.06417595584459543 -0.9177589262390383
0.0845410704652284 -0.9663088571489932
0.10139260936962385 -0.964686238507225
0.1121197959327357 -0.9131424595100163
0.12386405985445827 -0.8813385811799976
0.14704839713781706 -0.9284270401594295
0.16322928700691458 -0.9257192878314755
0.1793604556539522 -0.9227295524408041
0.18504140482780593 -0.870551364653087
0.21145399108323323 -0.915907860898121
0.2274065818636876 -0.9120779826994366
0.2432899023963695 -0.9079702767117241
0.2590991144679792 -0.9035859941820197
0.27482940243937254 -0.8989264706052532
0.30592682443119795 -0.941545951132202
0.3223124729125852 -0.9360633898433236
0.33859994189241216 -0.9302956945780492
0.3368658725725823 -0.8775656009073696
0.3708605274817531 -0.9179120160211194
0.38682381720438097 -0.911299804917916
0.4026692766450424 -0.9044100030661747
0.4395229922103274 -0.942560098518116
0.4559059926606406 -0.9347458081511336
0.4494505947421514 -0.8820964589464843
0.48825042529732654 -0.9182654965732839
0.5042020050561906 -0.9096044954249716
0.5449999999999999 -0.9439676901250382
0.5613915016519592 -0.9343123577653024
0.5776119980141934 -0.9243724248105044
0.5936565481663796 -0.9141509190605122
0.6095202647831142 -0.9036509540849954
0.6251983156226403 -0.8928757282750012
0.6700751876134193 -0.92227937358744
0.686069126393335 -0.9104444814539138
0.7018540818712505 -0.8983322591116629
0.7488912653493065 -0.9248036941337954
0.7649172555269818 -0.9115928873115838
0.813513195948229 -0.9358398794762373
0.8297219518849842 -0.9214995835919688
0.8456779664774983 -0.9068785900077713
0.8613763793691566 -0.8919813524199274
0.9121677477306463 -0.9121677477306462
0.9279483424368601 -0.8961092978921065
0.9800139601696887 -0.9138778024837481
1.032971307413578 -0.9300915428388127
1.049046316509653 -0.9119220502968051
1.1031039980913282 -0.9256141579486165
1.119090184498038 -0.9062213631117658
1.1741360228740159 -0.9173355982352307
1.1899669099704664 -0.8967043844965519
1.2863370210561664 -0.9345785511450323
1.3434093526339466 -0.9406653556157155
1.3596216189902683 -0.9170763616920247
1.3754197314304955 -0.8932080174246442
1.43320128250436 -0.8955635565541162
1.4914711032216754 -0.8961662503434941
1.550185472774145 -0.895
1.6093002611364882 -0.8920497012532602
1.7129183301463182 -0.9107748318046281
1.8176533093442706 -0.9261406194686755
1.878479556765259 -0.9161956967891717
1.9394986642584309 -0.9044030801250967
2.0189354613901482 -0.8988879811975183
2.264441939493003 -0.9611985760836131
2.4199498604193153 -0.97772320881553
2.530002955807417 -0.9711771432677638
2.6875208954476975 -0.9781776099114127
2.798734983773978 -0.9636817371931838
2.957785765677927 -0.9610428525060863
3.0027969337239315 -0.9180471528293933
3.037586959165088 -0.8710140443817173
3.2455107763312694 -0.8696319915444695
3.502767571856347 -0.8733380431148001
3.7123499468317465 -0.8570635170501252
4.020186639015941 -0.8545170492609911
4.378057238176582 -0.85100811937939
4.786165679639331 -0.8439301434612816
5.145856254500668 -0.8150235628596029
5.703944075951445 -0.8016370615299767
6.411848139602941 -0.7872759583972524
7.816942097594628 -0.8215937212837556
8.427807145856168 -0.7373375836451873
9.93573794058785 -0.6947744784914869
12.193266619353347 -0.6390220257263451
15.300673561662357 -0.5343112945152906
18.257218913555707 -0.31868094154479737
18.26 0.0
23.906358391189315 0.41728703791544935
23.945404215377536 0.8361919409919244
23.92716365271959 1.253969511580936
23.90163464422539 1.6713651109092447
12.761254082555261 1.1164650645975027
9.955164172636415 1.0463299173092127
8.496195058049718 1.043201579548062
7.238859582500879 1.017355368018078
6.331082263214833 1.0027449209078798
5.574011882049097 0.9828486855948259
5.016114907417563 0.9750339663741443
4.558167819419534 0.9688684792107588
4.199534979224364 0.9695390442220584
3.842371076052946 0.9580107065746847
3.6608588816355687 0.9809241809385543
3.6143439767280787 1.0363964578719165
3.3566296934302544 1.0262246835768059
3.1955498947517156 1.0382971010998232
2.704183126214046 0.9311249217474681
2.5465670023298115 0.9268745884125623
2.4833239344825566 0.953258745790499
2.4663090531476546 0.9964535384863263
2.402517667510869 1.0198082453570048
2.2473218258007983 1.0005721419664688
2.0935709880546614 0.9762481846210156
2.031274544636117 0.9907187917433152
1.9245740922468748 0.9806194794374211
1.8630194209323356 0.9905849974782299
1.8017165967071553 0.9987078177074543
1.5501854727741453 0.8949999999999997
1.4914711032216752 0.8961662503434944
1.43320128250436 0.8955635565541162
1.3754197314304952 0.8932080174246445
1.3181697403625163 0.8891167165184874
1.2614941482050472 0.8833077119806113
1.2458861713374192 0.9051892885304087
1.1500351344681015 0.8666136333389498
1.1347354851936795 0.886552524468948
1.0802328864251896 0.8747553435592738
1.0648017759353794 0.8934747774642896
1.0113108374985145 0.8791190988472797
0.9586568248658385 0.8631784822029273
0.94344627508873 0.8797778844806231
0.8919813524199272 0.8613763793691567
0.8768124086713189 0.8768124086713188
0.8266434608462065 0.856014362402995
0.8115780484743732 0.8703109049268128
0.7962654215670414 0.8843423423180989
0.7479072930491782 0.86036892145396
0.7327778750426549 0.8732906651556349
0.7174252457968145 0.8859463960609467
0.6710710081049677 0.8589317214313269
0.6559783752357325 0.8705127059515494
0.6112966623841721 0.8413776741499454
0.5965194938050878 0.8519181260605516
0.5815606196095767 0.8621990754572434
0.5664245964156283 0.8722173906632409
0.5246200715908729 0.8395676151948617
0.5098876941609537 0.8485956276950911
0.4949999999999999 0.8573651497465943
0.47996152404387377 0.8658735100680017
0.4413032690187372 0.8299707372873913
0.426751069755174 0.8375461327370658
0.4120688779817326 0.844866403521217
0.39726116603625744 0.8519293198144509
0.3823324444912523 0.8587327301840446
0.36728726077991725 0.8652745622452939
0.35213019781095745 0.87155282329278
0.3189474750953171 0.8308865795825096
0.30439792755984524 0.8363264324994584
0.2897556574668693 0.841511532283392
0.27502512499370324 0.8464402995026866
0.2602108172032355 0.8511112328071017
0.24531724667712926 0.8555229093851038
0.23034895014124365 0.8596739853972707
0.21531048708370423 0.8635631963856368
0.20020643836604 0.8671893576588594
0.17464582028691775 0.8216439846163968
0.1602795561162977 0.8245668340960377
0.14586446924022137 0.8272385125302548
0.13140495063379398 0.8296582060999157
0.1169054048064548 0.8318251777429191
0.10237024846032389 0.8337387673787104
0.08780390914482909 0.8353983921093495
0.07582549619046258 0.8666893873398186
0.055107614257859115 0.7880755997052612
0.043962203244072746 0.838848809193842
0.029315577230100906 0.8394882946960404
0.014660021407318036 0.8398720639313686
