# .PCD v0.7 - Point Cloud Data file format
VERSION 0.7
FIELDS x y
SIZE 4 4
TYPE F F
COUNT 1 1
WIDTH 180
HEIGHT 1
VIEWPOINT 0 0 0 1 0 0 0
POINTS 180
DATA ascii
2.2104874724609725e-16 -3.61
0.0635267594317123 -3.6394456103692643
0.128779142832229 -3.6877521517004634
0.19050288072431604 -3.635011506506649
0.2574013881158229 -3.681011345458751
0.3172469036014756 -3.6261487010539537
0.3804836062942586 -3.6200596991405147
0.4436044099947369 -3.612867991974412
0.4857141223506285 -3.4560355599080808
0.545956282990406 -3.447032308677031
0.5973497311742406 -3.3877386703619954
0.6468424943264873 -3.327716151887581
0.7152162164130925 -3.3648277465242913
0.7625840742257028 -3.3031145196219476
0.80801913130289 -3.240787725761828
0.8696319915444697 -3.2455107763312694
0.9950508544993669 -3.4701547223373312
1.0993176097574902 -3.595705882421013
1.2391581474435391 -3.8137366303435654
1.4194771534332036 -4.122460989613021
1.5938138678976168 -4.378967612862333
1.867097017131015 -4.863954022050421
1.9891610110384936 -4.923346267749641
2.3092209693716077 -5.440183683903923
2.3631398962704 -5.30769910890351
2.4554121007134637 -5.265648242682936
2.393506461468363 -4.907415492793452
6.927895026025485 -13.596759559114494
8.94812798669908 -16.828981119891147
11.51907657705297 -20.780964241632045
11.854999999999999 -20.533462323729044
12.185800852371884 -20.280578334611974
11.133603741539636 -17.81749050024651
13.376334699969064 -20.59774914873961
13.090705870250185 -19.407769573513523
12.165556215005687 -17.374214859369516
12.525703726352601 -17.24015215013013
12.012227862114884 -15.940764780543965
12.227036899967576 -15.649893566629496
10.830603929967703 -13.37468199667447
9.551823879941974 -11.383420424748012
8.5353279671665 -9.818771638698264
7.768606339826344 -8.627911423792547
7.133702846253736 -7.649959718936523
7.196660717955211 -7.452360331508425
7.219560235914651 -7.21956023591465
7.236558391406831 -6.988263206817512
3.700649730193003 -3.450911701916242
3.500212127998527 -3.1516051559502216
3.3282692487824246 -2.893220317848137
3.1867448833749488 -2.6739964562960035
3.0386407092967564 -2.4606427290048645
2.9235198958809385 -2.2841040734581917
2.9629377422754564 -2.232733735894099
2.8396496502560655 -2.0631262355465805
2.7933084710254623 -1.955895647957067
2.8684700010404445 -1.9348074460087838
2.901800165091167 -1.8844510611519933
2.9766488175090555 -1.860016617458549
3.008657225464414 -1.8077836429342895
3.0830504374726013 -1.78
3.113646157416249 -1.72592224807696
3.2757355695066193 -1.7417394979356549
3.3323644004644963 -1.6979244690259052
3.361489733158885 -1.6395080889911495
3.344275734165238 -1.5594613858231807
3.416660011583328 -1.5211950451034926
3.4426881519121273 -1.4613344205498835
3.467667616079785 -1.4010286593755106
3.4915907950995346 -1.3402961312994233
3.5144504017392975 -1.2791553360380012
3.5362394727414452 -1.2176248976697661
3.5569513709438745 -1.1557235589623034
3.5765797873017533 -1.0934701756630354
3.595118742809313 -1.0308837107555768
3.6125625903211156 -0.9679832286834275
3.6774208025860267 -0.9168839843227403
3.64414404229678 -0.8413169432460547
3.658272026744433 -0.7775897236584202
3.7203670252666465 -0.7231660924771051
3.7324213839162685 -0.6581265933576661
3.743338810855572 -0.592886622502475
3.7531159805305516 -0.5274660526386479
3.761749914720611 -0.4618848115055088
3.769237983445756 -0.39616287578440634
3.7755779057677157 -0.3303202650136241
3.7807677504847343 -0.26437703549023445
3.8347374134575634 -0.2009700719729046
3.8376607757533274 -0.1340140673376039
3.789422764642723 -0.06614462039730461
3.84 0.0
3.809419718545851 0.06649366852605028
3.8376607757533274 0.1340140673376039
3.884668890195292 0.2035868697850518
3.830645952997725 0.2678648591774415
3.825387640672303 0.3346780521510078
3.8686901729825833 0.40661572211117253
3.831228145335503 0.4704156655438691
3.80262938396763 0.5344247076866512
3.812476994697232 0.6038370350552912
3.8309021592174894 0.6754914111243591
3.818529743611413 0.7422469920147595
3.8049941668545038 0.808776477281084
3.761068450071008 0.8683110697673192
3.745341503425346 0.9338185170147179
3.7284736894758033 0.9990415140957307
3.710470146321911 1.0639601934536165
3.739151595815469 1.1431733654659006
3.747162674202905 1.2175269578372927
3.649701701813363 1.256693076204625
3.7023889258964786 1.347559364703135
3.6783068803989747 1.4119697212084832
3.764366449541156 1.520902769268603
5.071981742522945 2.152928517975899
5.581762746196292 2.48516088919314
6.217271419071419 2.8991612755411977
6.929702096966577 3.379841541743788
8.072519109146613 4.113153927640294
9.456368719519107 5.028040437436893
11.16014746309869 6.1861707543432605
17.76218103161884 10.254999999999997
18.137660082856694 10.898205665096748
17.902295309862154 11.186595667962955
17.7043356893279 11.497330029167223
17.50098315663693 11.804562192267465
17.251342052726162 12.079519749553034
17.118799600973887 12.437535938508733
16.899127392600715 12.734405889897346
13.876869371014372 10.841798580484841
11.664960881469135 9.446099069658057
9.851331538510056 8.266248660568897
8.950855621442075 7.780860083827415
7.476036944302585 6.7314538999701155
6.699199906831603 6.247104978172486
5.97771374081419 5.7726110585142685
5.451793282948282 5.451793282948281
4.93902101396347 5.114505980407811
4.47390924200999 4.797680282621758
4.15530106548851 4.614929366214618
3.844505909884373 4.422598140105444
3.5417597293728322 4.220904881585569
3.3102252569221444 4.0877877572636665
2.6842840324198707 3.4357268857253076
2.533641247470123 3.3622554972991034
2.404041681876215 3.308879506993535
2.345927624675778 3.350331861141977
2.2982828332647696 3.4073444232012218
2.238466433911762 3.4469360342556925
2.177968175998472 3.485477675202911
2.116806487880323 3.5229576058856815
2.0799999999999996 3.6026656797432652
1.9925675392124458 3.594686996342917
1.953001701189305 3.673061986293136
1.888600478916515 3.7065871406236104
1.8236239706425614 3.738983232604535
1.7580919688413097 3.770240394072464
1.6920244351953295 3.800349103793219
1.6254414945153788 3.829300190362152
1.5770937582809903 3.9034440277261746
1.5087290675857137 3.9303735955532195
1.4228037962347824 3.9091213024693787
1.370641930264629 3.9806332032731238
1.3009615463185287 4.003947933602596
1.216266291646584 3.978227784806228
0.8296684410091674 2.8933977047743396
0.7790453257585881 2.907436737130095
0.7281849057549996 2.920590136090749
0.6433600154234542 2.7866983852857725
0.5842318511979034 2.748594758061994
0.5457137267769184 2.807453744660319
0.7310588279777762 4.146040640181396
0.6585890978193721 4.15816791390553
0.5928774100898779 4.218541972839089
0.513069935735671 4.1786192984099655
0.440064830356822 4.186937179500431
0.37128346410502366 4.243789413870836
0.29367475446276814 4.19974465159386
0.22033437578279316 4.204230341316756
0.14692688111752955 4.207435381750393
0.07487082361594569 4.2893466122209185
