# .PCD v0.7 - Point Cloud Data file format
VERSION 0.7
FIELDS x y
SIZE 4 4
TYPE F F
COUNT 1 1
WIDTH 179
HEIGHT 1
VIEWPOINT 0 0 0 1 0 0 0
POINTS 179
DATA ascii
4.041334437186266e-17 -0.66
0.012391208570471355 -0.7098918635610377
0.024778642658775767 -0.709567487183558
0.03715852893249021 -0.7090269696757474
0.0460392726711228 -0.658392273171484
0.061880577350837275 -0.7072982356451393
0.06898878575665128 -0.6563844509430604
0.08043376664739735 -0.6550804600832726
0.09185424663364321 -0.6535769253694365
0.09542502367454087 -0.602489887763034
0.11460779726017407 -0.6499731169880574
0.12593393694851965 -0.6478739410754583
0.13722171593972124 -0.6455774164843117
0.148467695866951 -0.6430842427582553
0.15966845109578068 -0.6403951793421577
0.1708205697676637 -0.6375110453507851
0.1681387870483695 -0.5863696345223746
0.1929653251170063 -0.6311611389356034
0.19777087639996638 -0.6086761704288983
0.18557384804057933 -0.5389455880916105
0.1949514816956312 -0.5356247938479677
0.21502076972718023 -0.5601482558983211
0.24724035165450206 -0.6119413440140796
0.23834598837845697 -0.5615079606059886
0.24810935227623823 -0.5572627291619865
0.25779713966182666 -0.5528477500923564
0.28932495688079113 -0.5932040705574502
0.29963372982810094 -0.5880643059643228
0.309851231438688 -0.5827454112868917
0.3199743493625825 -0.5772490067120012
0.32999999999999996 -0.5715767664977296
0.33992512944063585 -0.5657304184633941
0.34974671439391525 -0.5597117434632412
0.3866937148606692 -0.595456103241251
0.36906731629069295 -0.5471647978863275
0.3785604479916904 -0.5406403492307346
0.4173275291276559 -0.5744020660062127
0.42728866643795427 -0.5670312121335779
0.43711964748121745 -0.5594876350607725
0.44681747764538454 -0.5517736326344493
0.45637920287744294 -0.5438915546144744
0.46580191058326015 -0.535843801958168
0.4081696698789035 -0.4533183435412105
0.4023790324368741 -0.4314986839553105
0.4098484385708084 -0.4244104821998041
0.41719300090006306 -0.417193000900063
0.4244104821998042 -0.4098484385708084
0.44612575798769405 -0.41601899963812405
0.4161611022673409 -0.3747131395609606
0.4603728439358909 -0.40019600768420943
0.4672871103025766 -0.39210044190878895
0.47405903648875225 -0.3838854385404008
0.48068655970010044 -0.3755534999486515
0.48716766112884863 -0.3671071641227494
0.5177708763999663 -0.3761825614671828
0.5815979514451841 -0.4072392698092427
0.5886166765140796 -0.3970269614642302
0.6373896316385222 -0.4139256666114205
0.6445165530788838 -0.4027386408172357
0.6514471485336054 -0.3914289369316411
0.7014805770653953 -0.405
0.822142524711032 -0.4557210430315568
0.8299707372873913 -0.44130326901873734
0.8375461327370658 -0.42675106975517396
0.844866403521217 -0.41206887798173275
0.8519293198144509 -0.3972611660362574
0.9044100030661749 -0.40266927664504215
0.911299804917916 -0.3868238172043809
0.9642712087494589 -0.3895908571525484
0.9709236435570898 -0.37270266752711234
1.0242649566566402 -0.37280195622497897
1.0306152474032555 -0.35486928835830084
1.084204428576475 -0.35227937358744
1.1380026595960122 -0.3479223286200567
1.2111897368822817 -0.3473030683294189
1.313659123753133 -0.35199390133942815
1.368116974049155 -0.34110987279553134
1.3738617913471816 -0.31718098662484945
1.4770028771080463 -0.3139466531348167
1.4822570470059726 -0.28812158301858276
1.5363000946990446 -0.27089115716041134
1.5901782283581718 -0.2518594887147717
2.614307701477746 -0.3674169865345727
2.6203218403330903 -0.3217350665895892
2.5758117090038275 -0.2707287198632223
2.5303345331530336 -0.2213755865790515
2.5338126876599536 -0.17718144331007796
2.5365190182766177 -0.1329333288570775
2.538452700628503 -0.0886447216243526
2.4896207609394145 -0.04345649202883601
2.49 0.0
2.509617714842542 0.043805540157581674
2.7083491412217495 0.09457763606377775
2.8560804693980812 0.14968083485481956
3.052545993795062 0.21345480965702374
3.1977849808745034 0.2797699342199831
5.678720022552841 0.5968575252583022
6.213338909274676 0.7629020897162229
6.694212144693015 0.9408101624900421
7.269386186780214 1.1513576626960993
8.134512039880837 1.4343339475288448
9.43343723293205 1.833674445568596
11.258478884446102 2.3930635613124105
11.26371794891732 2.6004341882150803
11.21661859575052 2.7966171131321604
11.166102551901629 2.991948161385142
16.78362921108305 4.812628232564805
19.040027691224036 5.821120641029688
17.604056116623294 5.7199045658802765
16.65058211630397 5.73325519999053
16.547987052039844 6.022974723965027
16.44035131061572 6.310859591492738
16.327707678921126 6.596822110054212
8.505108210652615 3.786718147035701
5.2203328533311035 2.4342811876264285
4.233319958069076 2.0647281013765553
3.7511374668330286 1.911300003903492
3.2315881898636727 1.718265919796361
2.85126024527443 1.5804793620030586
2.5634351952019387 1.4799999999999995
2.3657817499378297 1.4215050867517496
2.213405530968272 1.3830892796486647
2.0882897141841057 1.3561511971874178
2.064303555662054 1.3923903296421596
2.0396885902795896 1.4282053265141053
2.030632655881118 1.4753409832541073
2.0045751302187047 1.5105557081116416
1.9779069915528718 1.5453103030674022
1.795207170965603 1.4537301033251242
1.7542417747424597 1.4719836261821753
1.728284938710148 1.5023751763882613
1.75382178812665 1.5791482310069056
1.7479353468698178 1.6299760805493715
1.7192221228093758 1.6602335053970039
1.6546298679765212 1.654629867976521
1.694966423919953 1.755189112826309
2.4961139978287443 2.676754547926164
0.4750827305147894 0.5276328260889498
0.40019600768420943 0.4603728439358909
0.39210044190878907 0.4672871103025766
0.35241941898790896 0.43520173841590376
0.3139873524160858 0.40188548433942817
0.30692566180754455 0.40730411012411943
0.2997704786691613 0.41259866713122323
0.29252398253903344 0.41776754258738585
0.28518838077008085 0.4228091620030713
0.25053395610691254 0.385788461254895
0.2702588247589345 0.43250452903977726
0.2626694182041277 0.4371553233580772
0.27999999999999997 0.4849742261192857
1.1926316658059892 2.1515644795629134
1.0844793100354073 2.0396089395041215
1.0487180543983532 2.05822507087513
1.0345559064222223 2.1211539492660343
0.36345170509700153 0.7794246968515189
0.9395616455050989 2.1102900071544077
0.8830523503857585 2.080340968802515
0.49073463737484496 1.2146108494824914
0.43362521894981315 1.1296323160616142
0.7558645167497281 2.0767206919368575
1.5171475997703494 4.406116562292817
0.37391056319368643 1.1507783847171358
0.33915117747837437 1.109313516917121
0.333521200538569 1.1631266520853658
0.3261119968291764 1.2170665411242259
0.2806293988956145 1.1255430424801558
0.31718098662484984 1.3738617913471816
0.3035510685939285 1.4280954970713562
0.2595002337121011 1.335012969488823
0.2187967038603321 1.2408577687953823
0.22057259570672558 1.3926405602391443
0.18927541730568875 1.3467645734885358
0.14746190552022845 1.2009808434859996
0.12647944055386096 1.2033714933956106
0.10545844872466634 1.205395584691012
0.079522380068303 1.1372230172961995
0.05547611361752037 1.0585473068398483
0.035248491669526094 1.0093847352892866
0.01675431017979204 0.9598537873501356
