# .PCD v0.7 - Point Cloud Data file format
VERSION 0.7
FIELDS x y
SIZE 4 4
TYPE F F
COUNT 1 1
WIDTH 179
HEIGHT 1
VIEWPOINT 0 0 0 1 0 0 0
POINTS 179
DATA ascii
1.1144285872240914e-16 -1.82
0.03176337971585615 -1.8197228051846321
0.06351708399855197 -1.8188913051747544
0.09525144036215802 -1.8175057532533245
0.12695678221430834 -1.8155665714728801
0.16298123893812072 -1.8628840854315643
0.1902418031471293 -1.8100298495702574
0.22180220499736844 -1.806433995987206
0.26025369879532245 -1.8518012885467368
0.29253244962523184 -1.8469771969129076
0.3247220922371599 -1.841590498132829
0.356812821354139 -1.8356428330471317
0.3887948618292102 -1.8291360133722165
0.41390993999271186 -1.792840919204833
0.4572323826833719 -1.8338589226616333
0.4969325665968398 -1.8545775864750111
0.5209546024941284 -1.8167846053234227
0.5613536730676546 -1.836105131449028
0.599492969087398 -1.8450496416125979
0.6316022196468841 -1.8343060366626744
0.6635190780517976 -1.823003684324662
0.6952338221178828 -1.8111460274045714
0.7454671208976652 -1.8450958705879068
0.7775549456936547 -1.8318046583703564
0.8297427518746328 -1.8636327335909055
0.8705936191858409 -1.8669940412954988
0.9030445623854996 -1.8515157353762839
0.9488401444556529 -1.8622036355536888
1.0516163006403956 -1.9778026080039963
1.110214030364112 -2.0028791293492163
1.1449999999999998 -1.9831981746663647
1.2309409990350297 -2.0486298486780483
1.2665070415173598 -2.0268349498138583
1.3125800743862153 -2.021196068748472
1.3476548973645002 -1.9979805498576504
1.382319211606021 -1.9741564267364704
1.4753409832541073 -2.030632655881118
1.510555708111641 -2.0045751302187047
1.6068764505999684 -2.056708066913544
1.6425262206400755 -2.028350959402694
1.7098150417661948 -2.0376782186964815
1.7779199685642746 -2.045262962403712
1.8802570038683917 -2.088236959591478
1.9505153097787458 -2.0916715866308273
2.021455858035682 -2.0932788189854747
2.093036072312181 -2.0930360723121804
2.1508260030125674 -2.077028527672402
2.1501798827603613 -2.0050751785837453
2.162551442139218 -1.9471700645042773
2.2339403574594052 -1.9419347258119015
2.2674915516321748 -1.9026513246721561
2.378066642058331 -1.9257203966125025
2.474353766325107 -1.9331770325225668
2.5077155015484998 -1.8896991726974317
2.4998625126185874 -1.816256429583742
2.490222214638535 -1.74367236650718
2.478822341939575 -1.671986781377533
2.4656914697595465 -1.6012387629441793
2.595027174238664 -1.621552948553607
2.5372152100782523 -1.5245127017337599
2.4768326548234945 -1.43
2.326488420990793 -1.2895935898552566
2.525230115576531 -1.3426886695676477
2.5037283329693136 -1.2757133042681266
2.4806715677857007 -1.2099043651378536
2.5467248815729864 -1.1875573154913652
2.6127400088578385 -1.1632667991967884
2.8167448515644677 -1.1956372531771775
2.6795613396980156 -1.0826130549719855
2.8847635178763533 -1.1073569640949779
2.8754594196048795 -1.0465816385765465
3.0351146276738072 -1.045073775807473
3.2240815902405706 -1.0475676109310716
3.4522601690265584 -1.0554618540490794
3.710470146321911 -1.0639601934536165
4.018251437362524 -1.076687227626486
4.376033725504744 -1.0910677491545009
11.361154955395843 -2.6229292936494644
11.503015784629554 -2.4450414840168504
11.642098395689294 -2.262994685165822
11.778300726026009 -2.0768322048964873
11.713983719458334 -1.855312755377138
11.744579295275024 -1.6505929773863757
11.870851973630213 -1.4575573471255634
14.132156133183164 -1.4853494630333548
30.593139178397507 -2.676552859780579
33.22885851415475 -2.3235881404168097
33.36421275615031 -1.7485442980767556
36.88751542527482 -1.2881404232893126
36.85438604346458 -0.6432957012782711
29.86 0.0
29.605490253580744 0.5167657546079655
13.391622061058836 0.7018251732178777
11.930866041107498 0.8342874259797398
11.814869119368101 1.0336671089872274
11.894481868604549 1.2501604206811372
11.920479281212279 1.4636508142958207
11.794092698712102 1.657551632434379
11.713983719458334 1.855312755377138
11.581339175423565 2.042102569363101
11.445772958999761 2.224832886090513
11.307386264482792 2.4034591458532986
11.117562439199535 2.5666915300635007
4.715637229701343 1.1757404126143858
4.404621767878151 1.1802148456674952
4.19110099429107 1.2017788713621163
3.978227784806228 1.2162662916465847
3.766183804528808 1.2237072977247916
2.6569071974340805 0.9148465140246104
3.4392749920764247 1.2517937245719477
2.4366449131576964 0.9353403483132338
2.327231474962636 0.9402625494739394
2.264441939493003 0.9611985760836137
2.2473218258007983 1.0005721419664688
2.727986438980316 1.272080967839505
2.3458524608408258 1.1441486931194924
2.2364263757128033 1.1395161543462624
2.260345837718853 1.201847200731881
2.1952954649198833 1.216872146818306
2.173723763498941 1.2549999999999994
2.1514899247623016 1.2927455680242361
2.086198316544808 1.303601390013684
2.021196068748472 1.3125800743862157
1.9979805498576506 1.3476548973645
1.9741564267364702 1.3823192116060217
1.9901818061623706 1.4459517206394839
2.0045751302187047 1.5105557081116416
1.9779069915528718 1.5453103030674022
2.0283509594026943 1.6425262206400753
1.9993759965405324 1.6776756612818677
2.082998441414851 1.8107229200137995
2.110531304355799 1.9003309220591575
2.040476827517486 1.9027754245743709
1.9709910529279038 1.903363935057653
1.902117241391813 1.9021172413918126
1.8686310165347022 1.935024062910972
1.7663757525618708 1.8942060871936515
1.733048270469443 1.9247450979864507
1.6663899336358885 1.916962333765841
1.6005411481194833 1.9074506633662554
1.5670077737140953 1.9350934440278578
1.5022139997946065 1.9227462388004013
1.4684286564909974 1.9486706445153947
1.375417490364387 1.893099766837377
1.370847682879 1.9577733858506907
1.3085113941215474 1.9399479197787974
1.2472233901844123 1.9205556005950208
1.2135151150940393 1.9420301401982154
1.1794371915440243 1.962913118607837
1.1199999999999999 1.9398969044771428
1.0859735493517952 1.9591481439922467
1.0516163006403951 1.9778026080039965
0.9942391944296076 1.9513042879725258
0.9381142541286254 1.9234192590802175
0.9044030801250968 1.9394986642584309
0.8704164161822129 1.9549872793551657
0.8361646149670457 1.9698803863882226
0.7829277802392564 1.9378142560445855
0.7489890145496773 1.9511830913791515
0.7148220995506478 1.9639575774425482
0.6804374428154571 1.976133823002572
0.6303946685248928 1.9401552932421133
0.5964382776343826 1.9508617021645926
0.5623002058666783 1.9609738597141706
0.5279908520091428 1.9704886856296993
0.4935206670233221 1.979403281603033
0.4656486824918008 2.0169460341054366
0.42413984926822884 1.9954211054969637
0.3949746204294479 2.031968269736664
0.3594517277705455 2.0385520487352706
0.31599761938126647 1.9951304480021783
0.2811296639393318 2.000341498857972
0.24617607367839794 2.0049432263154703
0.21114749580066045 2.0089342286439122
0.17605460035026943 2.0123132901453262
0.14090807696313343 2.015079381524845
0.10571863161074636 2.017231660204239
0.07049698333905219 2.0187694705785733
0.03525386100331242 2.0196923442159105
