# .PCD v0.7 - Point Cloud Data file format
VERSION 0.7
FIELDS x y
SIZE 4 4
TYPE F F
COUNT 1 1
WIDTH 177
HEIGHT 1
VIEWPOINT 0 0 0 1 0 0 0
POINTS 177
DATA ascii
4.2250314570583685e-17 -0.69
0.01256573263484419 -0.7198903405126017
0.025127637625800777 -0.719561395453749
0.03768188849491966 -0.7190132650232931
0.050224661095770326 -0.7182461161870733
0.06449524963326703 -0.7371840765878916
0.07526049355271049 -0.7160557646651567
0.08408984694955177 -0.6848568446325121
0.10298809471044844 -0.7327983708687621
0.11576150412977088 -0.7308893720404019
0.11981724259018198 -0.6795173495784235
0.131658206809816 -0.6773227565788881
0.143459066664254 -0.6749218445063258
0.15521622749726693 -0.6723153447018123
0.1669261079637707 -0.6695040511304375
0.1785851411207393 -0.6664888201394571
0.20397164330457937 -0.711333654994356
0.20173647625868835 -0.6598502816144944
0.22249223594996215 -0.6847606917325105
0.2506874789320107 -0.7280493032114739
0.2872969203935618 -0.789341801460163
0.3010290776180523 -0.7842075582576494
0.31466953846936624 -0.7788344378361013
0.3282141479309899 -0.7732240769000499
0.3416587801836723 -0.7673781844197846
0.3549993398621875 -0.7612985411107859
0.34631320596337123 -0.7100472965763419
0.38135201978121935 -0.748445480318229
0.3943561127401483 -0.7416759780014985
0.40724008100692316 -0.7346805539970924
0.4199999999999999 -0.7274613391789285
0.4583838866699483 -0.7628788976248799
0.47162814516755236 -0.7547628055792192
0.4847287411633741 -0.7464168054714273
0.49768168408896474 -0.737843439573987
0.510483028352431 -0.7290453194172027
0.5231288745403011 -0.7200251249937032
0.5356153706053229 -0.7107856039420907
0.5787217868061189 -0.7407301083903185
0.5915611675868471 -0.7305172037695526
0.636359733589674 -0.7583839986877883
0.6166954872510768 -0.7094270054094056
0.6624393002952697 -0.7357133772226203
0.6751783764618736 -0.7240401646029786
0.6877117867544073 -0.7121464023352646
0.7353910524340095 -0.7353910524340094
0.7481133923521973 -0.7224447052773572
0.7606078496839375 -0.7092782944649985
0.7728706184964902 -0.6958958306132125
0.8226334424428215 -0.715104341599653
0.8732906651556349 -0.7327778750426547
0.8470890979880984 -0.6859592262443228
0.898332259111663 -0.7018540818712503
0.9503762569562785 -0.7161598775509374
0.9627302233061874 -0.699464450228043
1.01574853491835 -0.7112347810752971
1.0280065899682518 -0.693399200303726
1.0399515042523257 -0.6753524034186335
1.0939820440417896 -0.6835958508608343
1.105745817905725 -0.6643991166339698
1.1344932789576145 -0.655
1.1282594222098206 -0.6254044101177748
1.1566613466451945 -0.615007747249517
1.1226682204773435 -0.572028029671829
1.1594443197259254 -0.5654987793579098
1.2597678239809433 -0.5874393838195721
1.2698281861232152 -0.5653639338753622
1.325526988971514 -0.562652825024554
1.3815039433045133 -0.5581638241897088
1.4843928781305509 -0.5698050397770276
1.4941112670495944 -0.5438120278878134
1.5979263927628453 -0.5502101810325948
1.6072855125388095 -0.522238720493661
1.7117855131738338 -0.5233453514536988
1.8167846053234227 -0.5209546024941283
1.8449183282121204 -0.4943443761458145
1.9502944098147528 -0.48626301015533185
2.0559208366968464 -0.47464672466555485
2.2106135776584006 -0.46988042124813617
2.316640152936487 -0.45030922908864585
2.471867460060642 -0.43585692594399517
2.5778665689533096 -0.40829395375500255
2.7826532731638127 -0.3910764136977838
2.9875639164403793 -0.36682672364949376
3.1924152841321574 -0.3355363670891674
3.4468336553974397 -0.3015588699068969
3.7508408289769393 -0.26228434127791067
7.299981899055934 -0.38257584013591994
7.255577404158635 -0.2533703460601574
7.258894266835401 -0.12670447073467847
7.26 0.0
7.258894266835401 0.12670447073467847
8.105059607124867 0.2830349182572832
9.946350166155556 0.5212661241797213
12.679039078802367 0.8866047812878339
14.654024008929579 1.2820609758180534
19.171030690951625 3.0363929664308813
12.566146928435774 2.2157507470300315
12.525562860792192 2.4347227810047123
12.48116338536336 2.65295317483461
9.89959985821799 2.2855027121336695
9.858204578964123 2.4579264592926253
7.398991829374262 1.9825538854853102
5.392678114213969 1.546325566133365
5.317054443154477 1.625586678258416
5.382979882230569 1.7490361881622023
5.540738853011997 1.9078293851189383
6.869153057944989 2.5001672477106385
6.871151939019405 2.6375881086534103
6.870432362339894 2.7758348572119087
6.866966206755205 2.914854218529983
3.434930920736179 1.529329777965009
3.181140332498641 1.4833900987098547
3.0199479955652007 1.4729270532113006
2.8155806164352426 1.434609979176968
2.7018196341483165 1.4365829821248264
2.5451433477756416 1.410795994916841
2.416210876558584 1.3949999999999996
2.4343551339939986 1.4627081327445541
2.40845659308425 1.5049707104223018
2.817933108296624 1.8299871576504914
2.8270181224126922 1.9068478008352467
2.793308471025462 1.955895647957068
2.7991988005373183 2.033736972931957
2.803210640265997 2.11237073126369
2.80531828283993 2.1917548521593435
2.805496920859665 2.2718466116899125
2.7654204396595103 2.320463270968407
2.7622370636153457 2.4011760461052565
2.7570673025211323 2.4824745495913643
2.749889918088081 2.5643138338349942
2.74068463929026 2.64664839144878
2.764787514439401 2.7647875144394005
2.7508471470176286 2.8485856093410593
2.7348134238506185 2.9327283434928733
2.7166702618169647 3.0171679914382197
2.696402609150985 3.1018563747155934
2.706135836780331 3.2250471055308974
2.680904865872307 3.310641795806696
2.6842840324198707 3.4357268857253076
2.62391350094293 3.4820508238061976
2.6215222252244303 3.6082157949122657
2.615508549760769 3.735333321957803
0.8052377809978754 1.19381410447926
0.7570482586708878 1.165752089444139
0.7365877772841548 1.178786853657432
0.6901510203794727 1.1486041829408304
0.6699999999999999 1.160474041071148
0.6496448911300917 1.1719904075667904
0.6056183159937989 1.139002394788016
0.5856477446640155 1.1493984162029947
0.5654987793579096 1.1594443197259254
0.5451775576455022 1.1691370452772785
0.5043534374139924 1.1327963674768249
0.4845065993266994 1.141426018281026
0.4457818461649355 1.103348786934477
0.42645785995890717 1.11096070753167
0.4070039705575459 1.1182342187352308
0.38742610380401626 1.125167104963187
0.35227937358744005 1.084204428576475
0.33330374338391966 1.0901874217978604
0.314226585631379 1.0958383333696835
0.30799466367199996 1.149451733283991
0.2757909609836211 1.106137127954636
0.25644420195200623 1.110781873855168
0.22662374299135757 1.0661808847998482
0.21370607482173032 1.0994224454613837
0.19448595898696186 1.1029846833736732
0.17051356689385172 1.0765802912487001
0.15169868004647113 1.0793921949283118
0.1364936646137652 1.1116516898382807
0.11707187885977213 1.1138645228124662
0.09761443187737713 1.115738061862755
0.07603455638109675 1.0873448147832085
0.058616270992097 1.1184650789251227
0.03629547657060112 1.0393664600998596
0.018674074887893213 1.0698370338173386
