# .PCD v0.7 - Point Cloud Data file format
VERSION 0.7
FIELDS x y
SIZE 4 4
TYPE F F
COUNT 1 1
WIDTH 173
HEIGHT 1
VIEWPOINT 0 0 0 1 0 0 0
POINTS 173
DATA ascii
7.972450662449269e-16 -13.02
0.2001791018356429 -11.46825306344381
0.36714270531031135 -10.513591500240887
0.49823830343282655 -9.506953170863543
0.6117642747359802 -8.748636720778658
0.707704631110984 -8.089100948504973
0.7912804669361367 -7.528530747937829
0.849429323533878 -6.918046676940014
0.9213259283556334 -6.555574615069196
0.9730223725502363 -6.1434214785017565
1.0279972117882281 -5.830061897832271
1.0723465540161825 -5.516744770975872
1.1164857796913683 -5.252652615940536
1.1405018455233964 -4.940056228461143
1.190255726350365 -4.773854973277903
1.221625892883898 -4.559169900084402
1.245880848292836 -4.344902865641201
1.2776643496383597 -4.179051783558465
1.3040517162622782 -4.013458498765548
1.30878398091777 -3.800984673909253
1.3236179546703384 -3.6366104424414654
1.3510471697857824 -3.5195982078944508
1.3560758681656022 -3.3564055535317703
1.3753735722822436 -3.2401770841525903
1.4113761514730274 -3.170002738019825
1.424223542066157 -3.0542572423135104
1.4334736500002834 -2.939056531398276
1.4164503591873863 -2.779940355467708
1.4412776977526849 -2.7106491100769055
1.464125053143938 -2.641351515560975
1.4849999999999999 -2.572095449239783
1.5039111787373585 -2.5029285180501675
1.510269903064634 -2.4169370740458143
1.5249892980420758 -2.348277590247187
1.5098208393710166 -2.2384014458986123
1.5486563781478244 -2.211710519580278
1.5282416559604302 -2.1034441853748636
1.5647190601953256 -2.0764523261229613
1.5699367620804288 -2.009427421697141
1.5733009776245934 -1.9428649036424273
1.5748296437320215 -1.8768088856414962
1.5745416695772174 -1.8113029925346527
1.572456924943317 -1.7463903398718765
1.6026961461468718 -1.7186811988050503
1.5977142520556935 -1.6544815407788973
1.5909902576697321 -1.590990257669732
1.6185145507619652 -1.5629813335327438
1.6455458286431337 -1.5344963101406215
1.6349186160502678 -1.472087333989488
1.6226255974789598 -1.4105269123295905
1.6469955527058027 -1.3819933608260593
1.632006519059639 -1.3215728212046587
1.6548225825741163 -1.2928890981838823
1.677134571099315 -1.2638115486193013
1.6584848384686421 -1.2049597671995698
1.703836252121103 -1.193038987610176
1.707817399463386 -1.1519373811497384
1.677341135890848 -1.089278070030054
1.7809010019284948 -1.1128304548897303
1.8600530425235837 -1.1176326225548172
1.9658776665906756 -1.135
1.8804323703497008 -1.0423406835296247
1.9159962765038716 -1.018753291245383
1.978034483698177 -1.007858909421794
2.4896595082486925 -1.2142880766057444
2.6011033487951853 -1.2129144111958072
2.758907282080655 -1.2283446620889165
2.577413589666833 -1.0940471597699661
2.7073768553350193 -1.0938512527744628
3.4729191865695905 -1.3331287723085172
3.777564335559351 -1.3749209761691883
4.633041020436653 -1.5952839568400679
4.660176929846252 -1.5141832724372424
5.087541301723349 -1.5554174691249594
5.690669239954848 -1.6317731464366347
6.539317843976992 -1.752204935344065
7.539197793164492 -1.8797331288094172
8.934973494080607 -2.062801168333241
10.9748160802333 -2.3327691709752605
14.10598262614293 -2.7419252635609497
21.88242827193126 -3.8584625077591923
19.92167382980393 -3.155283159861457
19.77565333276916 -2.779286826172506
19.970028571023402 -2.4520111893115666
19.91032834527283 -2.092659834618421
2.9188504654088145 -0.25536632625063815
2.8929357457534906 -0.20229377385796302
3.0657926716965416 -0.16067138566583777
3.068129838948624 -0.10714145487667812
3.069532424130121 -0.053578887762460455
3.32 0.0
3.21950957840358 0.05619674872805299
3.2680080043524433 0.11412135421717833
2.9741194140968683 0.5244174965541297
2.964514094011945 0.5762431660371655
3.002913134252783 0.6382888908105213
2.9425975956514105 0.6793521841184725
2.88177830703971 0.7185080299310135
2.7722071214496258 0.7428106594442351
2.6146318129522275 0.7497336078222376
2.457703222825001 0.7513952811374333
2.063792640360483 0.6705668777936358
2.0517753090505173 0.70648289517203
1.94516372502683 0.7079816966841342
1.9325114828492074 0.7418216555587717
1.9656297716815891 0.7941659780417337
1.9054450466465511 0.8088134359727969
1.936716370202314 0.8622816833206968
2.1026340659250278 0.9804743672384225
2.1301418897290256 1.0389396178901138
2.111685462326432 1.075957484382726
2.136733174718603 1.1361211819418562
2.116579691277338 1.1732392809961356
2.0957814771583414 1.2099999999999995
2.014343156649964 1.2103394760386277
2.00987398789073 1.2559086562326958
2.029582774427926 1.3180264647363658
2.006270925583201 1.3532468263992072
1.9004327427504606 1.3306973323344273
1.876919426949878 1.3636617853185375
1.8129026078073545 1.3661201025551502
1.7493838730069229 1.3667684752229616
1.7252640344344758 1.3970912681306389
1.6623164415681821 1.3948491130197904
1.5999843100722768 1.3908451414598753
1.5383097887382058 1.3851003551628367
1.4773344772707246 1.377636687326247
1.453066396684075 1.4032099083271747
1.4283556979968262 1.428355697996826
1.3684769898042244 1.417099406667143
1.343536769323122 1.4407667921897658
1.3181872945269508 1.4639953061904665
1.259633335661774 1.4490423940277222
1.137734069145175 1.355898664320591
1.2082951508156878 1.4921202459973841
1.1205038850926983 1.4341795715642338
1.12539409329433 1.493448403788438
1.069769159172301 1.4724109297624044
1.0152302923413514 1.4498991183915158
0.9897714391432219 1.467396503422424
0.9367791402258467 1.4425133768661291
0.9114611344811124 1.4586427253890526
0.8858654888452934 1.474327757207633
0.8599999999999998 1.4895636945092345
0.8581130278360167 1.5480768816367305
0.8074910879917319 1.5186698597173545
0.7808636595520206 1.5325312216039928
0.732079815137759 1.500986057319609
0.705772497106968 1.5135340043512053
0.6589133617827967 1.4799436413810134
0.6525209845770871 1.5372431052655753
0.6068626813337777 1.5020378443981957
0.5805560782633863 1.512400290925467
0.5540726321875835 1.5223020456731715
0.5111420024977358 1.4844641636909275
0.5006075308874149 1.5407115563981488
0.4736421616508332 1.5492137046601178
0.4465325164235387 1.5572439474200768
0.40634590081095795 1.516503547273837
0.37981737609147825 1.5233642902533144
0.3531731553198683 1.5297610017128194
0.32226312076752683 1.516128781137399
0.29193776292611373 1.501889590674926
0.26220874827706464 1.4870597070484344
0.23934473151155333 1.5111631611105607
0.22406869254570505 1.5943315906739284
0.19620964288228748 1.5979993041425284
0.16515497196289283 1.5713445946818718
0.13770607354129988 1.573987622984958
0.10882009904083571 1.556199918405326
0.08635432780085717 1.6477387323450468
0.05758416955912678 1.648994864581508
0.027923850299653403 1.599756312250226
