# .PCD v0.7 - Point Cloud Data file format
VERSION 0.7
FIELDS x y
SIZE 4 4
TYPE F F
COUNT 1 1
WIDTH 180
HEIGHT 1
VIEWPOINT 0 0 0 1 0 0 0
POINTS 180
DATA ascii
3.6494474614591124e-16 -5.96
0.10401634236621024 -5.959092263132092
0.20800100034690644 -5.9563693290338104
0.3108755800830872 -5.931859436442169
0.4157485835149877 -5.945481739548552
0.5717416724246374 -6.5350372194818505
0.6857067190358066 -6.524063633615873
0.805556359908025 -6.560730062349139
0.8920995771540197 -6.347618320633466
0.6351239280633375 -4.010014662816259
0.696329192444391 -3.949079089578954
0.7517874417835869 -3.867611102783796
0.8233302956383274 -3.87346449890587
0.8908061752017059 -3.8585054565495316
0.958010706574684 -3.842371076052946
1.0249234186059821 -3.8250662721047104
1.0915239290353167 -3.8065963159157428
1.1870291211743111 -3.8825973092099235
1.3009615463185287 -4.003947933602596
1.3869203379874877 -4.027909132053089
1.4399048034010657 -3.956105933508674
1.5266474650629795 -3.9770526168780793
1.3710601319022386 -3.3934929077144416
1.4105393738462781 -3.3230225209633097
1.4479824493498494 -3.2522218292076586
1.5045210117968901 -3.2264557218504737
1.516764167890208 -3.1098274001951176
1.5708071290988321 -3.082882573691753
1.5774244509605932 -2.966703912005994
1.6532008050400095 -2.9824532013453395
1.7549999999999994 -3.0397491672833796
1.2412417605332309 -2.0657731946920905
0.8531700154154599 -1.3653574348118458
0.8496368946234423 -1.3083260859948613
0.8443812842408278 -1.2518467345581128
0.8374215970725272 -1.195961984661928
0.8287772057323871 -1.140713962068676
0.848559182644388 -1.126076069166683
0.8065165326766125 -1.0322940872248056
0.824409712275287 -1.0180612095086319
0.6813548662677318 -0.8120071097061168
0.6954225707299377 -0.7999921550361384
0.7092784427403898 -0.7877335150060379
0.7570181796693735 -0.8118026087972792
0.8058037097324368 -0.8344341683928352
0.8202438661763951 -0.820243866176395
0.8344341683928354 -0.8058037097324368
0.8849379789591963 -0.8252180156756231
0.8992052388276471 -0.8096480336942183
0.9131985920695541 -0.7938314250785138
0.9269137761739634 -0.7777730077207125
0.9403466133629348 -0.7614776731703032
0.9928935495444697 -0.7757334589103293
1.0462125181619537 -0.7883776803291833
1.1002631123499287 -0.7993879431177635
1.1550043824474783 -0.8087427752549748
1.210394855930361 -0.8164216390672903
1.224459029200319 -0.7951729911219394
1.238150220388382 -0.7736821257804791
1.251464259025084 -0.7519555893686789
1.3076983597145022 -0.755
1.4081377284944272 -0.7805434885966027
1.4656930041458187 -0.7793227942245787
1.5681714825715276 -0.7990232795416023
1.581877521486534 -0.7715332183487762
1.595101705184504 -0.7438081406636309
1.6535172783331078 -0.7361933239671983
1.7121390274215391 -0.726759898990049
1.8636395476792424 -0.7529592527659829
1.9231756785842355 -0.7382379760633186
2.0297360608975623 -0.7387635095834446
2.136871980854456 -0.7357840290731741
2.196940552641805 -0.7138292570061285
2.3046944618709158 -0.7046158083817955
2.5088930263990123 -0.7194134986823676
2.5693626979289217 -0.6884586599727051
2.72653099083555 -0.6798005266350661
2.932853895003558 -0.6771026735750332
3.0909464183188256 -0.6570009429841197
3.298267336384151 -0.6411182244651907
3.5059156007234606 -0.6181875124942721
3.763092577667475 -0.5960153118032796
4.020488359090775 -0.5650427898978655
4.377128528738231 -0.5374438044167003
5.877624401626496 -0.6177632179118315
5.887510665722217 -0.5150904396386592
5.795847132009579 -0.40528511245336724
7.200118945580478 -0.37734224451162557
7.855211900370093 -0.274310044081658
7.808810499171416 -0.13630329427518442
7.76 0.0
7.808810499171416 0.13630329427518442
7.805242359019138 0.27256506924653295
13.741142398222935 0.7201427579029082
14.823801786860987 1.0365811998377035
14.703833743834164 1.2864187629554364
13.833799564572681 1.4539909240530617
13.80631696933079 1.6952025667656008
13.824142239632323 1.9428564894025133
13.738744817678366 2.1760034087096116
13.698675844399814 2.4154461513470014
13.752596840101772 2.6732340252253937
10.427053423822368 2.216338624117315
7.171363676819332 1.655639759970847
6.559199109625736 1.6353920142537546
5.998399381255114 1.607266270086655
5.488804283807801 1.5738893017150648
5.125793491961871 1.567112337313869
4.669687495009204 1.5172734423809917
4.406116562292817 1.5171475997703503
4.097059826626561 1.4912078248999159
3.9303735955532195 1.5087290675857143
3.718007256812817 1.5021724395978076
3.6451992196716634 1.5472952688175245
3.6633172851468294 1.6310139387339593
2.6373556602766515 1.2298191416654354
2.4806715677857003 1.209904365137854
2.414627680550477 1.2303142542941718
2.304493217361799 1.2253207788711753
2.1515644795629134 1.1926316658059892
2.0438199529312753 1.1799999999999995
1.9800564646218792 1.1897379530422254
1.8741862925057016 1.1711215739553829
1.7695948983648444 1.1491883638817073
1.707817399463386 1.1519373811497384
1.646495609020873 1.1528886370656029
1.585673308974897 1.1520590944932474
1.4854620486879646 1.1193759430628103
1.465700001708503 1.1451303441057246
1.4066341902371176 1.1390699078002056
1.3482382198894014 1.1313061930483093
1.2528179031698015 1.089057988124242
1.2336204102924742 1.1107568065557047
1.2140471446878232 1.1321172777037474
1.158137078545228 1.1183999764389858
1.1030865786510142 1.103086578651014
1.0697738905068557 1.107783292521523
1.0298175236943727 1.1043440894449474
1.010387215601876 1.1221486864708652
0.9578461823261406 1.101875987125247
0.9063305296580206 1.0801226647977589
0.8873417513802707 1.095775805654329
0.8372996064428955 1.0716946249051418
0.7582869291715807 1.0062807426595892
0.7406094178885162 1.0193614129124338
0.6940274879847655 0.9911739735896802
0.6766234131996036 1.0031354627916005
0.6590132323681829 1.014791387213963
0.641202309722178 1.0261381963492753
0.5974441668956629 0.9943140688144501
0.6049999999999999 1.0478907385791707
0.5866196404980679 1.058289845638669
0.5680605909709276 1.0683665873593016
0.5493285046848517 1.078117894267925
0.5304290876147835 1.087540796021992
0.4902371836192113 1.0513170329625139
0.49215133812171846 1.1053900037475468
0.45324810904755747 1.0677856300048307
0.4345436483624581 1.0755332712974732
0.41570682147254817 1.082953294736754
0.3796423590914924 1.0430588090723583
0.37765905917030157 1.0968015476952075
0.35845971347493905 1.103225558902378
0.31868515814778287 1.0423721839997089
0.3059574649568691 1.067000482491534
0.2872891400637983 1.0721776671808658
0.26853330411563114 1.0770282561663562
0.23844811760449705 1.0328322686723495
0.2099908077259368 0.9879290767411437
0.20225753509913763 1.0405248144545238
0.18406706832694605 1.0438962181929408
0.15799880969063324 0.9975652240010892
0.1405648319696659 1.000170749428986
0.12308803683919897 1.0024716131577351
0.10557374790033022 1.0044671143219561
0.08802730017513472 1.0061566450726631
0.05999056741994789 0.8579050832234488
0.0293081354960485 0.5592325394625614
0.018845728219350585 0.5396710465903117
0.009424299476133024 0.5399177553844513
