# .PCD v0.7 - Point Cloud Data file format
VERSION 0.7
FIELDS x y
SIZE 4 4
TYPE F F
COUNT 1 1
WIDTH 180
HEIGHT 1
VIEWPOINT 0 0 0 1 0 0 0
POINTS 180
DATA ascii
3.796405077356795e-17 -0.62
0.009424299476133144 -0.5399177553844513
0.020590703054475638 -0.5896405879412665
0.03349501199548414 -0.6391229022429272
0.04115631950903401 -0.5885627896532962
0.053165003076071464 -0.6076787658359648
0.0637623625932686 -0.6066583561746467
0.0682468323068826 -0.5558258449191403
0.08489559158563993 -0.6040635219323579
0.09542502367454087 -0.602489887763034
0.10592538837682755 -0.6007327293374469
0.11639348717969239 -0.598792581903075
0.12682613139883325 -0.5966700364476214
0.148467695866951 -0.6430842427582553
0.15966845109578068 -0.6403951793421577
0.1708205697676637 -0.6375110453507851
0.17640790772287948 -0.6152074854005241
0.17834673988086944 -0.5833459011374516
0.21940206600621268 -0.675250126569559
0.2311533896645813 -0.6713181886755148
0.22573329459494143 -0.6201971297186996
0.25444124417716324 -0.6628421028130133
0.2659706813252976 -0.658300536742419
0.27741910122738433 -0.6535584459512326
0.2887830165838183 -0.6486172749262465
0.3211898789229316 -0.688793918147854
0.33316207155969885 -0.6830834751873669
0.3450327798020556 -0.6771649583831596
0.35679838771727707 -0.6710401705727844
0.3684553113872162 -0.6647109774259408
0.4049999999999999 -0.7014805770653953
0.417180840677144 -0.694305513568711
0.429234604028896 -0.6869189578867051
0.441157618362172 -0.6793231600357934
0.45294625181130505 -0.6715204337695838
0.46459691344434734 -0.6635131558740834
0.4643503493110538 -0.6391234255562085
0.4874701687531591 -0.6468947631383072
0.5294688687800663 -0.6776892481017808
0.5726815558553521 -0.7072028249258435
0.5527973443304238 -0.6587982210823211
0.5970137163813617 -0.6867857180027226
0.6089088517865611 -0.6762617911844288
0.6206185076568738 -0.665531868473445
0.6321391171176876 -0.6545992183081725
0.6788225099390857 -0.6788225099390855
0.7265331983420377 -0.7016049541635873
0.7386672386353623 -0.6888183436631234
0.7505762737321683 -0.6758219124224467
0.7245211970138611 -0.629816667830887
0.7737048875501678 -0.6492154857834046
0.9792039114357833 -0.7929436927227951
2.2931112929955613 -1.7915748931976654
2.3639611097399866 -1.781372468530063
2.475592002787339 -1.7986228720149677
2.7933084710254623 -1.955895647957067
2.9928256369237007 -2.018686381529396
2.105063125543014 -1.3670439778877175
2.086198316544808 -1.303601390013684
2.065773194692091 -1.2412417605332302
2.130422493309719 -1.23
2.107833494205944 -1.1683911847936723
2.127903698790014 -1.131426466313997
2.102775397084548 -1.0714175793853304
2.1211539492660343 -1.0345559064222227
2.138886377406494 -0.9973790977080504
2.110290007154408 -0.9395616455050984
2.1539813570787105 -0.9143108406649003
2.1696102196862825 -0.8765794285932338
2.063212742558816 -0.7919931684951137
2.0767206919368575 -0.755864516749728
2.278699767194354 -0.7846192522417477
2.482257507530351 -0.8065343553186126
2.7350316020542818 -0.836183075507027
3.037586959165088 -0.8710140443817173
3.3903996502746296 -0.9084548483098476
3.8908858623667455 -0.9701068013546671
4.053379469506579 -0.9357963860704779
4.118001399089321 -0.8753082183427671
4.083569083142282 -0.7937654207664266
4.096800252530786 -0.7223764190944303
4.108783496875773 -0.6507673745673604
4.119515165964933 -0.5789600999938721
4.079364683245834 -0.500883001395156
4.087484989963603 -0.42961198403005546
10.071528397707548 -0.8811445591788231
10.284885358178789 -0.7191892443019307
11.194637084598774 -0.5866860694834012
11.203171170884064 -0.39122335803503644
12.608079435922093 -0.22007484517414538
10.36 0.0
10.358422121820213 0.1808069306902574
10.353688967917831 0.3615587858379105
3.2555322832999103 0.1706152173519971
3.2520588038470266 0.2274061044058488
3.347214185588265 0.29284329563213185
2.9935109050585025 0.31463067443563736
2.8883093012762475 0.35463978930897905
2.88168008003797 0.40499372379379034
7.269386186780214 1.1513576626960993
6.755781185663747 1.1912264987951424
3.6909182097632165 0.7174418226158086
3.6778349787591087 0.7817479574747753
5.563653069923693 1.2844705203034696
3.3572232129149477 0.8370497587748508
3.342103358960176 0.8955138960547223
3.4701547223373312 0.9950508544993667
3.6435211202191655 1.1139361949936268
3.480866849640262 1.1310021994123076
3.318770200353602 1.14274422214462
3.2043518368799475 1.1662886887405306
3.090151211705738 1.186197912994944
2.929900980431048 1.1837568351942824
2.862770094237089 1.2151738096016418
2.749771827504228 1.224277295658159
2.6826710496284836 1.2509500547524701
2.5256112701006592 1.231822922477308
2.5037283329693136 1.2757133042681266
2.392787976647692 1.2722679351497646
2.239026450276853 1.2411126278306228
2.173723763498941 1.2549999999999994
2.0657731946920905 1.2412417605332309
2.043795911736987 1.2771054268020239
1.9792625403512003 1.2853481226354642
1.9565286712298984 1.3196952521909624
1.851283620093121 1.2962827461533644
1.7879275575686338 1.2990054075663655
1.764984477204517 1.3300112011660272
1.7021032277905195 1.329828786703422
1.6397779786742088 1.3278660251151566
1.6163537749810435 1.3562818564385979
1.5547017352589103 1.3514815997204448
1.4565638579356925 1.3114959884633623
1.4334532551735744 1.336716785722497
1.4099060086637558 1.3615304060996347
1.3859292911256331 1.385929291125633
1.3267974875766846 1.3739390186468239
1.3026168677193721 1.3968855700926155
1.2445829278274767 1.3822493753879532
1.1874668424728183 1.3660243402032173
1.1505898213389056 1.3712195531829707
1.1390699078002058 1.4066341902371173
1.0835641965731588 1.3868989263478306
1.0591944407476048 1.4055984976832356
1.005112781420129 1.38341906038116
0.9808157061602886 1.4007499957341762
0.956219864934977 1.4176542490691213
0.9041007981249451 1.3921931427894036
0.8531700154154599 1.3653574348118458
0.8446624428524889 1.405754373151464
0.8299999999999997 1.4376021702821682
0.7805434885966028 1.4081377284944272
0.755849216085284 1.4215456245028726
0.7082251795936931 1.389970177733854
0.6838589889909605 1.4021187122267007
0.6381535752284562 1.3685247584253415
0.6141723310444586 1.379453641040327
0.609540560443267 1.435987571385807
0.5656559560580274 1.400047620395849
0.5411356038134032 1.4097064440107747
0.4993494092554765 1.371951226347426
0.4753295055074485 1.3804571203750025
0.4511648117874233 1.3885425137909242
0.43563384003687744 1.4248940863849229
0.3969177923764788 1.3842168421511791
0.3726994249476302 1.3909331898562582
0.3483675296635214 1.397225845837435
0.3239295182551658 1.4030928932907387
0.2993928347775733 1.4085325450566801
0.27476495334222467 1.413543144164636
0.2448439305103716 1.3885789317472135
0.31443327473086413 1.9852535645962268
0.6276706853298942 4.466108990024482
0.56181767309773 4.5756377590664945
0.4871026388272662 4.634472032416154
0.40614576120408696 4.642267293107534
0.3250651676476246 4.6486484742107805
0.2569695451528538 4.9032710156449575
0.24988039638990775 7.155638321456726
0.12495923009094898 7.158909497319762
