# .PCD v0.7 - Point Cloud Data file format
VERSION 0.7
FIELDS x y
SIZE 4 4
TYPE F F
COUNT 1 1
WIDTH 180
HEIGHT 1
VIEWPOINT 0 0 0 1 0 0 0
POINTS 180
DATA ascii
5.939536975864663e-17 -0.97
0.01692883424416509 -0.9698522643016995
0.033852511801426045 -0.9694091022085228
0.05338267536780285 -1.0186021254496653
0.0690589090066842 -0.987588409757226
0.0888988576026113 -1.0161185920535805
0.10661903253300653 -1.0144123332756387
0.12065064997109601 -0.9826206901249087
0.13082271490246153 -0.9308519846170761
0.1548701203898286 -0.9778114571891864
0.17191169589026112 -0.974959675482086
0.18890090542277946 -0.9718109116131873
0.20583257390958185 -0.9683661247264675
0.22270154380042648 -0.9646263641373829
0.2515987714236544 -1.0091075553270363
0.25623085465149553 -0.9562665680261776
0.2866628500496791 -0.9997121637758517
0.30406657291164624 -0.9945569462015569
0.32137767414994534 -0.9890987769469597
0.3451022437245862 -1.0022496901352758
0.33859994189241216 -0.9302956945780492
0.34403323156348836 -0.8962372094373137
0.35962232967927565 -0.8900965003841158
0.37510188334970274 -0.8836846593143427
0.4026692766450424 -0.9044100030661747
0.4395229922103274 -0.942560098518116
0.43398743532118667 -0.8898061058361753
0.4494505947421514 -0.8820964589464843
0.48825042529732654 -0.9182654965732839
0.5042020050561906 -0.9096044954249716
0.5449999999999999 -0.9439676901250382
0.5613915016519592 -0.9343123577653024
0.5776119980141934 -0.9243724248105044
0.5936565481663796 -0.9141509190605122
0.6374799099566514 -0.9451028327127474
0.6538771374401925 -0.9338333304894506
0.6700751876134193 -0.92227937358744
0.7161598775509374 -0.9503762569562785
0.7326371556375335 -0.9377327967919991
0.7488912653493065 -0.9248036941337954
0.7970566360113088 -0.9498951094675328
0.813513195948229 -0.9358398794762373
0.8631784822029271 -0.9586568248658386
0.9138778024837482 -0.9800139601696883
0.9308422164150564 -0.9639153324537925
0.9475230867899738 -0.9475230867899737
0.9998823224707251 -0.9655751349380061
1.016581645250647 -0.9479777204868728
1.1072857899613175 -0.9970046034746985
1.1245172745319303 -0.9775279531958558
1.1797084424032263 -0.9898929189172705
1.2356620787165837 -1.0006194217692415
1.292337635915024 -1.0096848195340793
1.3496940119799248 -1.0170673891269615
1.4076895702124086 -1.0227463389889033
1.4662821592772954 -1.0267018210683725
1.5254291335012768 -1.028914942386174
1.5431538450195803 -1.0021358244276497
1.6452133065434664 -1.0280433726124174
1.748621293432309 -1.0506776728165104
1.8099930939094766 -1.045
1.889178567421095 -1.047188779732088
1.995461559861175 -1.061005731896113
2.05822507087513 -1.0487180543983532
2.211033353895951 -1.0783930211011303
2.302021779073091 -1.0734503848213766
2.7497718275042287 -1.2242772956581585
2.9087953369097117 -1.2347103660261047
3.0689785586160663 -1.2399478242066684
3.230188275680318 -1.2399531054267392
3.2513364679192427 -1.183389695906814
3.4133220579135335 -1.1753010375903357
5.335427056415812 -1.733585338443455
5.317054443154477 -1.625586678258416
5.344615029417053 -1.532543698342515
5.3222513028527665 -1.4260929385148888
5.39484423809454 -1.3450857395341518
5.368779056966646 -1.2394803094346953
5.389593280043268 -1.1455934164058543
5.408765780796628 -1.0513575645247621
5.377050331446656 -0.9481190500614397
5.837238092917264 -0.9245276883877644
7.585453406560429 -1.066065953354101
11.027187744735087 -1.353968405231188
11.148590447078345 -1.1717640732303947
11.167342565608468 -0.9770158762012471
11.13281480089964 -0.778482246984437
11.244568561336502 -0.5893028672955484
11.203171170884064 -0.39122335803503644
11.208292662703148 -0.19564147616194846
11.21 0.0
11.308277432218786 0.1973867168056768
11.303110253585974 0.3947133077052865
10.295870503319657 0.5395837088647517
9.736225130535884 0.6808231837426639
7.531231917573596 0.6588974151722966
7.468859434215732 0.7850087591400786
6.511102754767072 0.7994628927377672
5.060269831269425 0.7111745459059343
4.553243250143585 0.7211628838354643
4.146040640181396 0.7310588279777768
4.230813160659431 0.8223867700729083
5.878667080410171 1.249549261814734
5.904682592598525 1.3632033893238222
5.928506887546339 1.4781427821139705
6.046695672569567 1.6202072223417807
4.8639841814478935 1.3947250204340154
4.743271589576656 1.450163655424774
4.574581843379688 1.4863717429434968
3.366046129133568 1.159022629867478
3.2043518368799475 1.1662886887405306
3.0434721903808777 1.168279515517679
2.837182594974369 1.146296175852691
2.9087953369097113 1.2347103660261056
2.886803646150619 1.2852877921195291
2.9092479963876463 1.356604620187645
2.8851288886203257 1.407171381192939
2.860130942644661 1.4573095041639452
2.922556532363048 1.5539508728212992
2.8949912306314 1.6047198430153757
2.909845356715714 1.6799999999999993
2.880082130359097 1.7305279316977822
2.934246412701234 1.833520654246889
2.9018001650911667 1.884451061151994
2.9099218796681963 1.9627670911823212
1.1386213415616984 0.7972712465279542
1.0840827724624296 0.7876322380719141
1.0701715834633723 0.806432131023745
1.0165338721526713 0.7942033031700992
1.0025182902794927 0.8118233044542901
0.9498951094675328 0.7970566360113088
0.973575358487376 0.8463161473977543
0.9214995835919687 0.8297219518849843
0.870310904926813 0.8115780484743732
0.8560143624029947 0.8266434608462069
0.8414570696119916 0.8414570696119914
0.8266434608462065 0.856014362402995
0.7774781304712481 0.8337432198458542
0.7293523609311556 0.8100278597703596
0.715104341599653 0.8226334424428215
0.700638494558328 0.8349884429996861
0.6859592262443228 0.8470890979880984
0.6402879343386848 0.8195311837509908
0.6258876240781301 0.8305809304491847
0.6112966623841721 0.8413776741499454
0.6251983156226402 0.8928757282750013
0.5815606196095767 0.8621990754572434
0.5391926446648769 0.8302838622659697
0.5246200715908729 0.8395676151948617
0.5098876941609537 0.8485956276950911
0.4949999999999999 0.8573651497465943
0.45572104303155686 0.822142524711032
0.4413032690187372 0.8299707372873913
0.426751069755174 0.8375461327370658
0.4120688779817326 0.844866403521217
0.39726116603625744 0.8519293198144509
0.3823324444912523 0.8587327301840446
0.36728726077991725 0.8652745622452939
0.35213019781095745 0.87155282329278
0.3189474750953171 0.8308865795825096
0.32149893472612867 0.8833110635387538
0.2897556574668693 0.841511532283392
0.27502512499370324 0.8464402995026866
0.2748294024393723 0.8989264706052533
0.24531724667712926 0.8555229093851038
0.23034895014124365 0.8596739853972707
0.21531048708370423 0.8635631963856368
0.20020643836604 0.8671893576588594
0.1850414048278057 0.870551364653087
0.17554427574642134 0.903097008771851
0.15975632345357582 0.9060231327712315
0.13922667388580554 0.8790426231296726
0.12386405985445807 0.8813385811799976
0.10846371563058127 0.8833660749607766
0.08780390914482909 0.8353983921093495
0.0801832833278455 0.916499122244406
0.06417595584459543 0.9177589262390383
0.048149079743508245 0.918739171974208
0.032107536966301 0.9194395608575682
0.016056213922300708 0.91985987954388
