# .PCD v0.7 - Point Cloud Data file format
VERSION 0.7
FIELDS x y
SIZE 4 4
TYPE F F
COUNT 1 1
WIDTH 180
HEIGHT 1
VIEWPOINT 0 0 0 1 0 0 0
POINTS 180
DATA ascii
4.1025667771436334e-17 -0.67
0.011693112312980012 -0.6698979557547822
0.023382662790675725 -0.6695918541027942
0.032448292870625256 -0.6191503115478357
0.04673683740856406 -0.6683679136740822
0.05839434764093095 -0.6674504477214696
0.07003407038932782 -0.6663296698967431
0.08165246008144883 -0.6650059215996857
0.09324597764324387 -0.6634796060568522
0.09698936832494318 -0.6123667711689854
0.10245242482348894 -0.5810365742772027
0.10876112736463059 -0.5595274945651684
0.12890524830701086 -0.6064515124549594
0.1394696536931964 -0.6041094401668459
0.13789548049181055 -0.553068563977318
0.15270323661048724 -0.5698962375105503
0.1626260399320295 -0.5671444006036082
0.17249930578641468 -0.5642198060181909
0.182320026681219 -0.5611233446141406
0.17580680340686466 -0.5105800308236311
0.20179188456214459 -0.5544186462636859
0.21143709023172721 -0.550812451633349
0.22101789011538817 -0.5470384741944044
0.23053136580867148 -0.5430978635369398
0.2399746194147222 -0.5389918200091344
0.24934477442701267 -0.5347215943516235
0.2586389766055557 -0.5302884873165085
0.29055391983330997 -0.5702441754805555
0.27698822204367557 -0.5209390797867668
0.31027815695765576 -0.5597566125692133
0.31999999999999995 -0.5542562584220407
0.3296243679424347 -0.5485870724493518
0.33914832910925113 -0.5427507815401126
0.34856898240961737 -0.5367491634850713
0.3858431033948153 -0.5720359250629786
0.435918091626795 -0.6225555536596338
0.4173275291276559 -0.5744020660062127
0.42728866643795427 -0.5670312121335779
0.43711964748121745 -0.5594876350607725
0.47828349719787644 -0.5906309307072979
0.4885185833617699 -0.5821937767704233
0.46580191058326015 -0.535843801958168
0.5085392608327323 -0.5647900673628197
0.5524186716506239 -0.5923964983115281
0.5626732800717879 -0.5826652382743074
0.5727564927611035 -0.5727564927611035
0.5826652382743075 -0.5626732800717879
0.6289641833924867 -0.5865185896537487
0.6391045499105591 -0.575452321468618
0.6490502389915839 -0.5642107649318362
0.69710044323827 -0.5849367248147508
0.7072028249258435 -0.5726815558553521
0.717089785782117 -0.5602519425463489
0.7666900896454011 -0.5777424222259663
0.7766563145999495 -0.5642738422007741
0.7863859625174321 -0.5506333788970041
0.8373279482805922 -0.5647848325054543
0.8889908020221495 -0.5773173771159287
3.9095017232811244 -2.442927808115075
3.6943910660261037 -2.219814102862333
3.73256949031093 -2.155
3.7258799524138255 -2.065288982249396
3.9379462641508143 -2.093843170025073
3.884788445461284 -1.9793985788644242
2.930068590935284 -1.4290899385323923
2.8639326070358138 -1.3354737071006102
2.110290007154408 -0.9395616455050984
2.1263662114751374 -0.9025889068102222
2.0954355113209395 -0.8466109011199608
2.063212742558816 -0.7919931684951137
2.0767206919368575 -0.755864516749728
2.0895960520744903 -0.7195056213503163
2.1018349010122894 -0.6829275575686338
2.1134335106783086 -0.6461414674372481
2.1051631141049185 -0.6036458092392281
2.1153775595730595 -0.5668137087745203
2.1249476405444323 -0.5298089513632721
2.0851519386404034 -0.4813952562958708
2.0932358655703442 -0.44493101835000515
2.022151997902188 -0.3930665304756824
1.979463583554538 -0.34903283711052996
2.1334068156854977 -0.3378984444868987
2.4855728525413414 -0.34932448340976413
2.640172763365917 -0.3241724534576922
2.9935109050585025 -0.3146306744356367
3.3970239204928525 -0.297201082769514
3.8007190314899306 -0.2657721649651169
4.7534765854317715 -0.24911915171641297
5.806460704980946 -0.2027660758415309
7.108917112561942 -0.12408660976908595
9.06 0.0
13.307972822531568 0.23229152968024389
13.211946733192447 0.46137134640706345
13.641279444747479 0.7149091622786138
15.621853027068846 1.0923863788330037
15.600408972116735 1.3648589314283288
15.474760691930333 1.6264628884446901
13.508553123838393 1.6586417637440565
6.9912925653154865 0.9825620927780617
5.985391344006534 0.947992858143799
5.081608005542994 0.8960245967613607
4.770708111555647 0.9273317175300081
4.851612099639675 1.0312419864560867
3.663631443592484 0.8458159643329327
3.502767571856347 0.8733380431148009
3.245510776331269 0.8696319915444702
2.9414607895712557 0.8434503088000173
2.8306620776505853 0.8654202459793007
2.6249159849746238 0.8528869044748547
2.5150794110941828 0.8660112908560369
2.35862847817263 0.8584705597474286
2.2499288278582563 0.8636667584041738
2.095435511320939 0.8466109011199613
1.9422652407846488 0.8244426811123678
1.8819036427437579 0.8378774847361486
1.821678651943666 0.8494627060988057
1.8065760330613254 0.8811260050460458
1.6572721349903643 0.8444223295155571
1.5981351430746578 0.8497435286424627
1.5393306845653365 0.8532649316335532
1.48090344047139 0.8549999999999996
1.4228977191655061 0.8549632043506901
1.365357434811846 0.8531700154154599
1.3083260859948613 0.8496368946234425
1.210394855930361 0.8164216390672903
1.1959619846619278 0.8374215970725275
1.1811648117874232 0.8581664683470107
1.0861442936643182 0.818468431486786
1.0716946249051418 0.8372996064428954
1.018061209508632 0.8244097122752869
1.0035182204858613 0.8420517686893666
0.9509340710806927 0.8266343765280391
0.8843423423180989 0.7962654215670414
0.8849379789591963 0.8252180156756231
0.8704011584097676 0.8405366282553868
0.8202438661763951 0.820243866176395
0.8058037097324366 0.8344341683928355
0.7911180976724982 0.8483702938782377
0.7761915033762756 0.8620479975537771
0.7282255221794631 0.837727634047277
0.7134942467520589 0.8503093318620657
0.6670796145128277 0.8237747191443892
0.652601163845198 0.8352913988231253
0.5957968729205276 0.79064915494682
0.5936631048153979 0.8171071643186969
0.5793122007145564 0.8273435647318819
0.5647848325054543 0.8373279482805922
0.5500854253651775 0.8470572736248781
0.5352184568755369 0.8565285771179902
0.4944365519136521 0.8228806086740277
0.47999999999999987 0.8313843876330611
0.4654172354364836 0.8396349188538199
0.450692700274455 0.8476296891445699
0.4131313547629877 0.8108159370114149
0.3989177435780603 0.817902582132242
0.3845826181840365 0.8247400862033515
0.37013034519897836 0.8313263664547668
0.35556532692523907 0.8376594166417207
0.32216167033768445 0.797378114927437
0.31178011610441114 0.8122149710525655
0.2941373232600752 0.8081356538758812
0.2799886128331546 0.8131459750154125
0.25030376544370747 0.7703557781990744
0.2368210808254166 0.7746068523300589
0.23704812600261926 0.8266850585069543
0.209643426533042 0.7823999192941453
0.19595673543573083 0.7859395382835572
0.18221035401853078 0.7892397524760406
0.16840846956238498 0.7922995565943827
0.1545552862550014 0.7951180185926079
0.14065502391021348 0.7976942799398886
0.11889019343057551 0.7506431388523047
0.10994674975845155 0.7823117743058406
0.09627678129006652 0.7841114597966444
0.08257748598144642 0.7856722973409359
0.06885303677064994 0.786993811492479
0.055107614257859115 0.7880755997052612
0.03872860761977837 0.7389858557183846
0.026523617493900822 0.7595370285345128
0.014136449214199535 0.809876633076677
