# .PCD v0.7 - Point Cloud Data file format
VERSION 0.7
FIELDS x y
SIZE 4 4
TYPE F F
COUNT 1 1
WIDTH 180
HEIGHT 1
VIEWPOINT 0 0 0 1 0 0 0
POINTS 180
DATA ascii
4.2250314570583685e-17 -0.69
0.013438352956708371 -0.7698827252704213
0.025127637625800777 -0.719561395453749
0.03768188849491966 -0.7190132650232931
0.050224661095770326 -0.7182461161870733
0.06013746249588411 -0.6873743416833044
0.07526049355271049 -0.7160557646651567
0.08774592725170619 -0.7146332291817518
0.10020463269124713 -0.7129930094939306
0.11263281482896625 -0.7111356052284992
0.11981724259018198 -0.6795173495784235
0.14119865657864322 -0.7264041157512713
0.143459066664254 -0.6749218445063258
0.15521622749726693 -0.6723153447018123
0.1669261079637707 -0.6695040511304375
0.1785851411207393 -0.6664888201394571
0.1901897755137294 -0.66327057019744
0.2163550614948252 -0.7076655194126462
0.22867257583746112 -0.7037818220584136
0.22464202657543814 -0.6524078171635285
0.23599389889471148 -0.6483879083422767
0.24727388518625723 -0.6441704942830692
0.27720887912777503 -0.6861160523794226
0.28914103508206257 -0.6811735915548058
0.3009851158760923 -0.6760236386555245
0.3127375136881176 -0.6706677624071209
0.3243946486239173 -0.6651075942613836
0.3359529698072647 -0.6593448278993922
0.3708825346008538 -0.6975285983585523
0.3829995999946063 -0.6909495686401227
0.3949999999999999 -0.6841600689897066
0.40688007917894287 -0.6771621675546687
0.4186362187442319 -0.6699579959635765
0.4302648376618714 -0.662549748676885
0.4417623937418901 -0.6549396823184829
0.48180420653487865 -0.6880877172027531
0.4937396119256774 -0.6795742752749558
0.5055246194477205 -0.670853828439726
0.517155639273553 -0.6619290330296463
0.5286291284818634 -0.6528026076238556
0.5720809726210201 -0.6817795543758904
0.551089584352026 -0.6339560473871285
0.5620697093414408 -0.6242416534010111
0.6274384912574987 -0.6728454054896368
0.6390857008222774 -0.6617926163115591
0.6505382386916237 -0.6505382386916236
0.6617926163115592 -0.6390857008222774
0.672845405489637 -0.6274384912574986
3.5745266105462665 -3.2185182165861073
3.516946643838118 -3.057235075095764
3.5314648827784887 -2.9632508806549462
3.5049282861709385 -2.8382349636347666
3.5145279610859803 -2.7458501799524355
3.482050823806197 -2.6239135009429306
3.486863245756023 -2.533354437380559
3.4895877086711047 -2.4434356188554562
3.4487963018289736 -2.326242478438307
3.446936034255693 -2.238466433911761
3.4430752703950893 -2.1514722127868118
3.4372408758154704 -2.0653026803893164
3.386159328797155 -1.955
3.4197630549150375 -1.895605615163178
3.408177708435458 -1.8121602323535384
3.394734857157682 -1.7297038040076733
3.5142847210297434 -1.7140311839452926
3.4983480579614685 -1.6313064903190995
3.48060819361831 -1.5496666101187986
3.5071234916537977 -1.4886855995441326
3.4862112931711207 -1.4085207912438287
3.5102624036294783 -1.347463490290329
3.4392749920764247 -1.2517937245719477
3.4605979866934997 -1.1915794453131936
3.480866849640262 -1.1310021994123076
3.4522601690265584 -1.0554618540490794
3.4701547223373312 -0.9950508544993667
3.467673716377755 -0.9291603719180492
3.4348468710170277 -0.8564035104228234
3.3031145196219476 -0.762584074225702
3.315920366487601 -0.7048206318722043
3.2786347927151978 -0.6373020445576598
3.2892578950607745 -0.5799849134075473
3.2988790575877602 -0.522491113234371
3.2876899882220134 -0.46205469518741715
3.2654768388999496 -0.4009501398029351
3.5902240422794662 -0.3773477523962287
3.9449310044433124 -0.34513674128072597
4.399257461645825 -0.30762604921159203
4.853339538907229 -0.2543527473407074
5.0868993095271975 -0.17763843821573017
5.209206491764799 -0.09092703753824723
5.81 0.0
15.157691058570892 0.26457848158921843
17.099577050296727 0.5971303885797924
17.086551339650757 0.8954682113167701
23.003826998991546 1.6085842845395317
24.11787364080116 2.110040531920807
23.03312709672921 2.4208792092788576
22.98736887201302 2.8224939932632145
5.852484286262681 0.8225130266739866
6.034775761036292 0.9558145813958107
7.888310101627786 1.390921903112112
6.390392964244293 1.242166559901307
7.883869661914473 1.6757682279911408
7.853422722168997 1.8131054980115526
7.9661279127259315 1.9861787628732732
8.751287986178959 2.3449005486288397
3.998848655103407 1.1466514001987163
3.6913363580173173 1.1285547802297637
3.3857611980107465 1.1001004999748127
3.0351146276738072 1.045073775807473
2.9224440506441747 1.06368264574283
2.6700400197819967 1.0249323356995588
2.5126682458759935 1.015183868157122
2.356492424838247 1.0002716889325411
2.155967280036538 0.9598984776588887
2.048255598702829 0.9551172715339805
1.9413951400062006 0.9468816770644076
1.8800237660374561 0.9579199544504438
1.774724661646443 0.9436378411996408
1.7142546259932157 0.9502268556828206
1.610807251039056 0.9299999999999997
1.5943311793059287 0.957970819332701
1.5349670540431313 0.9591538682621009
1.434126671186675 0.9313327498756965
1.3347504918136173 0.9003005745879024
1.359792393519726 0.9521368843427368
1.3025173609436655 0.9463342561908819
1.2458713956737766 0.9388314361171957
1.1898962379461502 0.9296488277417441
1.095775805654329 0.8873417513802705
1.0035182204858613 0.8420517686893666
0.9886695500918313 0.8594373279775644
0.9735197213753863 0.8765610943301044
0.9946410342020721 0.927517769684998
0.9423351384436328 0.9100024653012866
0.9263098833543774 0.9263098833543773
0.8752695467783365 0.9063681484267007
0.8252180156756231 0.8849379789591962
0.8096480336942186 0.8992052388276469
0.7938314250785138 0.9131985920695541
0.7327778750426549 0.8732906651556349
0.6985456340653196 0.8626320172172378
0.6833842376114809 0.8746919365034614
0.6680146756987735 0.8864854161524952
0.6230523674300216 0.8575580140374444
0.636669844349661 0.9092587691607811
0.5927444776789916 0.8787798269083443
0.5500854253651775 0.8470572736248781
0.5617144200871972 0.8989309819258116
0.5201884556591548 0.8657389737091333
0.5049999999999999 0.8746856578222831
0.48965771644880046 0.8833659042107898
0.4413032690187372 0.8299707372873913
0.435830879749965 0.8553662632208332
0.4208363009175141 0.8628422844472003
0.40571353127107146 0.8700554755551839
0.37013034519897836 0.8313263664547668
0.35556532692523907 0.8376594166417207
0.3408920000084801 0.8437373076557765
0.32611483408622316 0.8495581881124536
0.3112383304263586 0.8551202849151766
0.29626702055601245 0.8604219037953783
0.2657546151624548 0.817908604013832
0.25143966606155344 0.8224220901282105
0.25082999379346926 0.8747481433038702
0.22258437878816803 0.8306962106085987
0.2080528302157142 0.8344543245973569
0.18221035401853078 0.7892397524760406
0.16840846956238498 0.7922995565943827
0.1545552862550014 0.7951180185926079
0.13197261502686697 0.7484538922892782
0.12358322738178244 0.7802737890701589
0.10577155672964958 0.7526037322435934
0.11699456966894159 0.952844305575669
0.28849855861872414 2.744880431216434
0.24054984998353643 2.7494973667332174
0.19252786753378623 2.7532767787171144
0.14183044141837756 2.706286039184895
0.09457763606377792 2.7083491412217495
0.04694697331629228 2.6895902999706927
