# .PCD v0.7 - Point Cloud Data file format
VERSION 0.7
FIELDS x y
SIZE 4 4
TYPE F F
COUNT 1 1
WIDTH 180
HEIGHT 1
VIEWPOINT 0 0 0 1 0 0 0
POINTS 180
DATA ascii
8.38883057415937e-17 -1.37
0.02390979681907853 -1.369791342364256
0.047812310482426484 -1.3691654330161613
0.07170026005283324 -1.3681224626137662
0.09556636902945188 -1.3666627488559593
0.11940336756429167 -1.3647867363856916
0.14320399467668524 -1.3624949966545346
0.17305446763530943 -1.4094155353306772
0.19762580336329294 -1.4061806576130298
0.2143152171051164 -1.3531330266153387
0.23789800340369469 -1.3491866216267252
0.27094877343469376 -1.3939106004956827
0.2952346009612184 -1.3889695930420038
0.3306780498854818 -1.4323239952342959
0.3556251865315115 -1.4263347176257148
0.36752304404557945 -1.371614673330477
0.40518691305098875 -1.4130546930293288
0.4151678207062862 -1.3579527534675102
0.45425498173117274 -1.3980530789538756
0.4688181424183057 -1.361546748863016
0.5096100135552466 -1.4001420049710034
0.5447192833088566 -1.4190422482757468
0.5881323516629822 -1.455678651669856
0.6134478717281597 -1.4451926199203315
0.6263744303367326 -1.4068600047696052
0.6635106709328982 -1.4229032256475405
0.6882427004588516 -1.411106652689692
0.7218448945858795 -1.416700373459505
0.769933362968861 -1.44803405228864
0.7950877772039928 -1.434376319708609
0.7949999999999998 -1.3769803920172576
0.8446624428524889 -1.405754373151464
0.8955635565541162 -1.4332012825043599
0.9476719209261472 -1.4592867882250375
0.9729956520390997 -1.4425253762457724
0.9980229992508202 -1.4253245570628457
1.052135601603527 -1.448140419931156
1.0772488914421665 -1.4295575629846542
1.1328171145992114 -1.4499397866363684
1.1579495195317009 -1.4299485690808265
1.2148685823075593 -1.4478239974948683
1.272754516241584 -1.4641365856321777
1.3315699066541278 -1.4788582027000146
1.391276654527497 -1.4919615513031075
1.4171030757363545 -1.4674531926908483
1.4778531726798843 -1.477853172679884
1.5393871727247137 -1.4865689127822541
1.6016646065459834 -1.4935764085368717
1.6646444090693635 -1.4988525582438423
1.7660204177212864 -1.535178127837787
1.7925439968984085 -1.5041230066665017
1.8573788478821605 -1.5040757346091114
1.9621467764807379 -1.532997073560889
2.0045751302187047 -1.510555708111641
2.0710835055998653 -1.5047302458687313
2.178944437808718 -1.5257133206937825
2.246691821624163 -1.5154127684057237
2.3985978243239128 -1.557667640142977
2.4678199598152 -1.5420650589186264
2.622931940148464 -1.5760165092247653
2.676018497693915 -1.545
2.85126024527443 -1.5804793620030586
3.010851291648941 -1.6008980290998878
3.17198322611059 -1.6162061790727866
3.379465614084868 -1.648275511926931
3.4983480579614685 -1.6313064903190995
3.7546718309110902 -1.6716876030415388
3.9213506757073957 -1.6645146073643058
4.1815991840962115 -1.6894757363057626
4.49052185145154 -1.7237498373128943
4.8018292922159915 -1.7477229323941674
5.16253142277227 -1.7776021233360755
5.5731911854896 -1.8108395870371918
6.034283010126754 -1.8448654568004685
6.5461921493399515 -1.877090393113764
7.20580666411645 -1.9307900764648043
7.9661279127259315 -1.9861787628732714
8.876511290193493 -2.0493041050726086
10.084701763565535 -2.1435695323310995
11.593017036516912 -2.253454235396995
13.698675844399814 -2.4154461513470014
16.454887754314996 -2.6061981875702465
16.547379428671643 -2.325582517042693
16.585446193926494 -2.0364367283000138
16.568734776835434 -1.7414441980391056
16.64641340511307 -1.4563724613133664
16.669295279841666 -1.1656306762643318
16.587236572273472 -0.8693002331952983
16.799759802190998 -0.5866605395690421
16.807439755578937 -0.29337495221073623
16.66 0.0
12.358117512132996 0.2157117435648245
10.453628050619743 0.3650487355081607
9.147446538351897 0.4793973591853662
8.040366245094184 0.5622371783776507
7.381802712859835 0.645824053760148
6.772694107457941 0.711838834852721
5.965202371364345 0.7324347538649361
5.55540386564021 0.780761096385967
5.145856254500668 0.8150235628596029
4.786165679639331 0.8439301434612816
4.476219956521347 0.8700890189170445
4.166908779126012 0.885703802883655
3.955942463028055 0.9133012806360922
3.745341503425346 0.9338185170147179
3.53528852421799 0.9472777050752266
3.3259654679465833 0.9537052511268169
3.1653687422376477 0.9677503426322586
3.0528914173074426 0.9919445519435811
2.8460109125539437 0.9799601449160416
2.7814901575262887 1.0123796242439795
2.623360998457137 1.007013938222294
2.559027438604333 1.0339141978279174
2.402517667510869 1.0198082453570048
2.292999098682928 1.0209089741202586
2.229517156110159 1.0396409238821205
2.121153949266034 1.034555906422223
2.084955266600781 1.0623377693905394
2.0219499876469427 1.0750898787796903
1.9591481439922467 1.085973549351795
1.8965956342879207 1.0949999999999995
1.8343380235025202 1.1021814803075163
1.7724205209669304 1.107531262247398
1.6689544302113937 1.0838316796799041
1.6083328907567809 1.0848342327332487
1.5891549659206439 1.1127382865210298
1.4885912696499033 1.0815248642181505
1.4694893384870187 1.1073396425997692
1.4105392489560322 1.1020340408329283
1.3522339729351296 1.0950174804267168
1.3329173310270217 1.1184504408545786
1.2754591905764847 1.1087397589939572
1.255914755056796 1.1308307247464706
1.1994200706554397 1.1184773105024974
1.1437502825384551 1.1045068090298058
1.0889444430272832 1.0889444430272832
1.1045068090298056 1.1437502825384556
1.0843773924993727 1.162852385574481
0.9970046034746989 1.1072857899613173
1.0103309046453812 1.162252753543069
0.9256141579486168 1.1031039980913282
0.9062213631117658 1.119090184498038
0.8865525244689481 1.1347354851936795
0.8666136333389494 1.1500351344681017
0.8464107633011613 1.1649844718999243
0.7972712465279538 1.1386213415616986
0.7493184906508007 1.110910347223756
0.7298163069201364 1.123818561046868
0.7100918140724947 1.1363844488496109
0.6901510203794727 1.1486041829408304
0.6699999999999999 1.160474041071148
0.6496448911300917 1.1719904075667904
0.6056183159937989 1.139002394788016
0.5856477446640155 1.1493984162029947
0.578649913761582 1.1864081411149006
0.5578561054977232 1.196326278888378
0.5246902695677825 1.178473640358955
0.4962285331813776 1.1690411638845992
0.4944807033090041 1.2238826880281592
0.4551272959225312 1.1856471416514462
0.4241049777238293 1.1652188497745264
0.39719314843773096 1.1535326622311666
0.39245158285618326 1.207841775694845
0.3566934797617386 1.1666918022749033
0.3500594418875889 1.220802353841665
0.3157592350250756 1.1784295080726632
0.29514471263159453 1.1837607860567156
0.2789393073863928 1.2082188803336917
0.26404784733855424 1.2422474529319332
0.23278697435938478 1.19758516380615
0.21185077675365485 1.2014654586748938
0.19085004734908173 1.204979775526068
0.16979118317127959 1.2081270438647158
0.14868059895427993 1.2109063050024127
0.13275114834992016 1.2630428071177071
0.10633000615214293 1.2153575316719296
0.08510289796783305 1.2170281413169854
0.06384986661639137 1.21832803240058
0.04257738597705132 1.219256808963297
0.021291935853485718 1.2198141880907973
