# .PCD v0.7 - Point Cloud Data file format
VERSION 0.7
FIELDS x y
SIZE 4 4
TYPE F F
COUNT 1 1
WIDTH 179
HEIGHT 1
VIEWPOINT 0 0 0 1 0 0 0
POINTS 179
DATA ascii
1.1450447572027753e-16 -1.87
0.03263600003772033 -1.8697151899424518
0.06526205883367703 -1.8688608465257093
0.1004850359864524 -1.9173687067287817
0.1304446059015146 -1.8654447739858713
0.16298123893812072 -1.8628840854315643
0.20069464947389462 -1.9094820391070846
0.24008260650814056 -1.9553159187334044
0.2672123538433257 -1.901314691983815
0.3081758961292549 -1.9457460309724215
0.3334045011205064 -1.8908308857834393
0.37016945103049714 -1.904356735888468
0.39295309564556535 -1.8486989653868924
0.4251574927099051 -1.8415594224440945
0.46932847746335526 -1.882373708975433
0.5150498997540163 -1.922192394315246
0.5347364702849784 -1.8648476901203386
0.5672011071621094 -1.8552312265682886
0.6149438188061455 -1.8926024674273556
0.647880627369742 -1.8815819654426402
0.6977210923843644 -1.916972946403253
0.7310706170724128 -1.9045040700542917
0.7641974505684609 -1.8914550633162461
0.816628058542582 -1.9238551437156002
0.8500795840284228 -1.9093100064730355
0.8832721670380618 -1.8941832749065983
0.9381142541286258 -1.9234192590802173
0.9715396694426304 -1.9067539617631075
1.028142722501101 -1.9336552283610497
1.0617330683394783 -1.9154171586352766
1.0949999999999998 -1.8965956342879207
1.1794371915440243 -1.962913118607837
1.2135151150940393 -1.9420301401982154
1.247223390184412 -1.9205556005950208
1.3085113941215476 -1.9399479197787972
1.3708476828790002 -1.9577733858506905
1.4341960155936344 -1.9740014662748717
1.4684286564909976 -1.9486706445153945
1.5329970735608895 -1.9621467764807377
1.598473793266587 -1.973950742100706
1.63268052860381 -1.9457528855222042
1.7319958365349393 -1.9924332917881182
1.7665048007873858 -1.961902339260321
1.8686755065712464 -2.0039091424365267
1.9033639350576526 -1.9709910529279042
2.008183258569795 -2.0081832585697947
1.4818399886976215 -1.4309962431455343
1.4334532551735744 -1.336716785722497
1.441700961426145 -1.2981133763361847
1.4641365856321777 -1.272754516241584
1.5014471085131968 -1.259863714985617
2.4946385362768764 -2.020118455269978
2.60831559443825 -2.0378394833279287
2.683415313758904 -2.022098477790882
2.758747950818571 -2.0043477103173335
2.6294780621676637 -1.8411803606868578
1.6912366480122851 -1.1407535230803234
1.7108879586086652 -1.111063631430655
1.7045766732744163 -1.0651377211087418
1.7657646394463515 -1.0609784343147113
2.736640275958826 -1.58
2.80752925991746 -1.556238880990742
2.878409152720102 -1.530477294682004
3.082882573691753 -1.570807129098832
3.0918515192691345 -1.5079967449544263
3.1358249431468086 -1.4622591856228198
3.34357637497192 -1.4886561136574286
3.4610982489811755 -1.469149043119669
3.671648064084478 -1.4834421099270112
3.8836945742283593 -1.4908106701084494
4.1440444576658555 -1.5083088320661993
4.406116562292817 -1.5171475997703503
4.8123459724534765 -1.5636259915372337
11.246143930125298 -3.4382912475393836
11.448626798625378 -3.2828409077804594
11.60076917373171 -3.1084167316812734
11.701766458888518 -2.9175780609319917
11.84833998778846 -2.7354048208213966
11.943182204959767 -2.5386017448848426
11.936586550723595 -2.3202373837787857
11.975262276628449 -2.1115618404298733
12.257212306785659 -1.941351711149265
14.566843291188501 -2.047236315122562
21.591070348445214 -2.269312937540755
21.527767425762622 -1.8834356007768909
21.657115531140786 -1.5144130449849578
23.52771183881776 -1.2330351290837582
30.14162734289593 -1.0525688205474306
28.705627327939993 -0.5010585888144103
22.86 0.0
12.608079435922093 0.22007484517414538
12.052653373850296 0.4208879302321623
12.093403665877888 0.6337884301020507
12.130378851159463 0.8482387207285649
12.113727528795627 1.0598138318115249
11.993934058141376 1.2606132670079027
11.870851973630213 1.4575573471255634
11.744579295275024 1.6505929773863757
4.652012084203099 0.7368063303394874
4.343002190783838 0.7657884635111629
4.0344877239698995 0.7842249709975995
3.82455711886918 0.8129347110974393
2.6892613788072492 0.6208649099890676
3.308708426601148 0.8249536639948674
2.907436737130095 0.7790453257585879
3.037586959165088 0.8710140443817173
2.68721636425613 0.8215644902708902
2.7200216366041388 0.8837886039123495
2.6569071974340805 0.9148465140246104
2.5935516333691067 0.9439755955788457
2.5766819771322766 0.9890955407450288
2.327231474962636 0.9402625494739394
2.356492424838247 1.0002716889325411
2.292999098682928 1.0209089741202586
2.320147934813824 1.0819027500561904
2.3009127585258673 1.1222301357800386
2.860130942644661 1.4573095041639452
2.6135248748624234 1.3896358258462373
2.676336303846551 1.4835174379537914
2.6067364653911604 1.5049999999999994
2.494356845043147 1.498760797988258
2.383015150199557 1.4890731324953057
2.2727972391320987 1.4759717848907237
2.2301110701730624 1.504228910336309
2.1625613969229383 1.5142417919667621
2.0953540154311137 1.5223638034375053
2.0285341955201237 1.528610158806203
1.9227462388004013 1.5022139997946062
1.8962361459550092 1.535541754161603
1.8308462190543575 1.5362623871508292
1.7660204177212864 1.5351781278377867
1.7018016503432325 1.5323090885617856
1.6382322916269423 1.5276763265399966
1.6113211527585782 1.5560347498281542
1.548563850798539 1.5485638507985389
1.486568912782254 1.539387172724714
0.7229182616662484 0.7752349237163207
0.6758219124224469 0.7505762737321681
0.6823013901501276 0.7848979634316829
0.6363597335896741 0.7583839986877883
0.6544932066918309 0.8082317999152497
0.6402879343386848 0.8195311837509908
0.6379239245411711 0.8465536406501306
0.6700751876134193 0.92227937358744
0.6825559592577446 0.9747909327039004
0.6654395551301887 0.9865547113404997
0.6481204516678823 0.9980179758550545
0.641202309722178 1.0261381963492753
0.9219181540889971 1.534329468256781
0.8949999999999998 1.5501854727741453
0.8678092202409434 1.5655692757795183
0.8403540973867443 1.5804761912174794
0.8126429945337889 1.5949016782971785
0.7627657954129944 1.5639016405605506
0.735355775428817 1.576975549443771
0.7077217589518926 1.5895690962981253
0.6798721635713363 1.6016784450072463
0.6443233406753689 1.594756229854874
0.6056418347315572 1.577750920780271
0.5780140422203803 1.588080529128185
0.5502101810325946 1.5979263927628453
0.5315092303249096 1.635817208027664
0.5028793321231069 1.644844180256421
0.4603143842143886 1.6053070322169924
0.43222780532120997 1.6130961299027438
0.404009565651445 1.620393862880914
0.37566826075425475 1.6271980081913429
0.33681693912476995 1.5845991131887653
0.31865102227883 1.6393173963575989
0.28131004782042696 1.5953885598797772
0.2612455566171856 1.6494395287938801
0.23241907860330896 1.6537476747984223
0.19742833631633894 1.6079247656589417
0.17456253365698163 1.6608515652650164
0.14119230325120619 1.613835410908628
0.11300548746548325 1.6160537614209154
0.08478424911356887 1.6177798463024098
0.056537184658051756 1.6190131397709353
0.02827289842839907 1.619753266153354
