# .PCD v0.7 - Point Cloud Data file format
VERSION 0.7
FIELDS x y
SIZE 4 4
TYPE F F
COUNT 1 1
WIDTH 180
HEIGHT 1
VIEWPOINT 0 0 0 1 0 0 0
POINTS 180
DATA ascii
8.694992273946207e-17 -1.42
0.02478241714094271 -1.4197837271220755
0.04955728531755153 -1.419134974367116
0.07431705786498043 -1.4180539393514948
0.09905419271665813 -1.4165409513689502
0.12376115470167455 -1.4145964712902785
0.1536568410034506 -1.4619471861913618
0.17914793480556682 -1.4590428429127433
0.20458445841129624 -1.4556940610501083
0.22995866360913944 -1.4519018606748526
0.2552628211703877 -1.4476673969279457
0.2900296729723483 -1.4920733188404494
0.31602577004299437 -1.4867843531153846
0.341925602602675 -1.4810424984735575
0.3677212813114949 -1.4748495039395146
0.3934049485558315 -1.468207255959384
0.41896878084183875 -1.4611177778262447
0.4502524252730146 -1.4727093241830747
0.4851566811686675 -1.493158730583391
0.5111420024977361 -1.4844641636909273
0.5369716250213 -1.4753174146338761
0.5805560782633866 -1.512400290925467
0.5956244835313004 -1.474222328761192
0.6407990507224088 -1.5096279596620021
0.6467112624905226 -1.4525372776517353
0.693093949254747 -1.4863447707401058
0.7320798151377593 -1.5009860573196088
0.7445444195728568 -1.4612506996689232
0.7934069411081556 -1.4921814319315865
0.8435687392286266 -1.5218382904225485
0.8699999999999998 -1.5068842025849234
0.8961662503434944 -1.4914711032216752
0.9220595197657765 -1.4756036873121812
0.9749038726768985 -1.5012203166223088
1.0289149423861743 -1.5254291335012766
1.0553806428859247 -1.507239761491745
1.1109141268327742 -1.5290421193686505
1.137430393757371 -1.5094211139893834
1.1943832621317774 -1.5287408619970404
1.2523475781891764 -1.546520463299372
1.2791473432762133 -1.5244284418067662
1.3842845511699702 -1.592437214270049
1.4653960279258995 -1.6274871677954934
1.5617762445431218 -1.6747999767079
1.5907676683511038 -1.647288142775511
1.6546298679765212 -1.654629867976521
1.7551891128263089 -1.6949664239199533
1.8210707170317348 -1.6981759165556214
1.8875878567125817 -1.6995917401514997
1.9320565253702964 -1.6795111142156987
1.9993759965405324 -1.6776756612818673
2.0672082574755426 -1.6739922401925675
2.214310217634889 -1.7300087456650994
2.244165783232893 -1.6911002150572556
2.2328869044748547 -1.6222872963272257
2.3427748466665164 -1.6404286079639916
2.4124993361351716 -1.6272513490998732
2.566331937912998 -1.6665954471459825
2.637429579046485 -1.6480489117652672
2.794365400288886 -1.679024124206776
2.953146626904936 -1.705
3.113646157416249 -1.72592224807696
3.2757355695066193 -1.7417394979356549
3.4392851833671 -1.7524033289946506
3.6041641256596595 -1.7578682986242002
3.8155557834242964 -1.7792228819283444
4.074412741086 -1.8140454281180687
4.335577859760994 -1.840343615184479
4.598831918651266 -1.858048703342923
4.910633043375281 -1.8850154146082796
5.2246909715696495 -1.9016319968907183
5.635290710571929 -1.940386200564654
6.0962722694519345 -1.9807989339434129
6.655881101502727 -2.0349070648702474
7.315201506090607 -2.0976002777673632
7.930251033833252 -2.124904360291695
8.839394066374327 -2.2039084689129718
10.72781441328544 -2.476711108325952
10.72049770404251 -2.278712131362643
10.758633930586399 -2.0912665893269318
10.84273336066441 -1.9118664361129032
10.82506421292271 -1.7145217368409305
10.853338033407612 -1.525337186522317
10.779051206824757 -1.323501069379901
10.850233878467861 -1.1404055342500985
10.868484156180944 -0.9508691533769495
10.883423788334683 -0.7610431285484057
10.8950482241724 -0.570985282610518
10.95332346412929 -0.3824984838594112
10.958330738914048 -0.19127837455262756
11.01 0.0
11.058315508429688 0.1930236151963559
9.204389516845874 0.3214243646300344
8.048954050121866 0.4218278073181279
7.192436802373332 0.5029441756951442
6.5350372194818505 0.5717416724246384
5.927350496394909 0.6229896410752155
5.3696746803795525 0.6593131478218477
5.3078368484548175 0.7459678211459506
5.294009505589939 0.8384887326156375
5.032367617892383 0.8873421878780142
4.898319645403843 0.9521368869289589
4.929863907698381 1.0478749217215073
4.832875521334767 1.1157572295455709
4.424548511818544 1.1031638439344853
3.2938070676457225 0.8825729437995963
3.0856500439620036 0.8847959121725671
2.926292553246889 0.8946574164515744
2.815127288233654 0.9146903033498442
2.704183126214046 0.9311249217474681
2.5465670023298115 0.9268745884125623
2.4366449131576964 0.9353403483132338
2.327231474962636 0.9402625494739394
2.264441939493003 0.9611985760836137
2.201644552918668 0.9802353098126788
2.1207602216657606 0.9889267324732365
1.9863348423211589 0.9688002344038614
1.9513042879725258 0.9942391944296075
1.8895078487181036 1.0046691443618068
1.827955187921337 1.0132521063148443
1.723390553531033 0.9949999999999997
1.7057629283972033 1.024925769071008
1.602810901735645 1.0015474094007573
1.5850873734168511 1.0293677761784013
1.5254291335012768 1.028914942386174
1.4662821592772952 1.026701821068373
1.4076895702124086 1.0227463389889033
1.3496940119799246 1.017067389126962
1.33173817359536 1.0404678933003624
1.313376674862281 1.063551460874225
1.2563128867151239 1.0541716798859244
1.1999882325542075 1.0431338560949064
1.144443031235187 1.030461133792642
1.1262847004935228 1.0502774744962478
1.07181630250459 1.035040971983906
1.053589103967956 1.0535891039679557
1.0003080534609559 1.0358493124876578
0.9820776384899977 1.0531493303316055
0.963548073156756 1.0701285486874474
0.9447250017463305 1.0867817955207917
0.9256141579486168 1.1031039980913282
0.9376873826642577 1.1579474825708866
0.917335598235231 1.1741360228740156
0.9568858868117566 1.2698304609751958
0.9639678137596559 1.3267878707749137
0.9808157061602886 1.4007499957341762
1.0680584456291264 1.5834617635801296
1.0674925086294533 1.6437943131730308
1.0651377211087418 1.704576673274416
1.0609784343147117 1.7657646394463513
1.0799999999999998 1.8706148721743878
1.0956697417567218 1.9766405381350343
1.1079528881747018 2.0837563191470676
1.1168166293592852 2.191876049503385
1.0915441555048024 2.237997175284926
1.0734503848213766 2.302021779073091
1.0615826384278388 2.384353644447188
1.0588813582059318 2.494568152856113
1.0713748571695088 2.6517458240610114
1.0536017716631825 2.744726453901773
1.0055392213774663 2.76269630511057
0.9571703741040402 2.7798246122619914
0.9394116628998402 2.8912118095372668
0.8888099823571192 2.907166458127628
0.8241556938928276 2.874172470855574
0.7738689448565377 2.8881182206043143
0.7233464678430064 2.9011842215652295
0.6613560997709635 2.8646479904685918
0.6216559555451001 2.9246613261940793
0.5609784464070421 2.885983919336132
0.5105256423407748 2.8953347938558918
0.4599173272182789 2.903803721349705
0.4022102617745886 2.8618747186631386
0.36195194991328805 2.9478620703747267
0.30522311274154873 2.904003934475358
0.2588525559605447 2.9586982533324844
0.2071767270200526 2.962765229271678
0.15543779004154293 2.9659297182210844
0.10365150520642821 2.9681907562467145
0.05008840647500329 2.869562885098843
