# .PCD v0.7 - Point Cloud Data file format
VERSION 0.7
FIELDS x y
SIZE 4 4
TYPE F F
COUNT 1 1
WIDTH 179
HEIGHT 1
VIEWPOINT 0 0 0 1 0 0 0
POINTS 179
DATA ascii
3.159588741800171e-16 -5.16
0.08918179689451919 -5.10922172224916
0.17833642814978054 -5.10688712606758
0.27267033202573804 -5.202859876071329
0.3773825229557187 -5.396821511905649
0.641466266622764 -7.331992977955248
0.7588766433231641 -7.220228960373664
0.8908649002916281 -7.255512368498064
1.0173553680180785 -7.238859582500879
1.1513576626960997 -7.269386186780214
1.2867329965119545 -7.297425449820461
1.4425160050466794 -7.421101506864339
1.5718123825822614 -7.3947958615475695
1.7006299708396204 -7.366237689776378
1.877313909853421 -7.529494835901732
1.2708015114533768 -4.7426958070793255
1.1053057968261666 -3.8546594007126584
1.113936194993627 -3.643521120219165
1.100100499974813 -3.3857611980107465
1.1687896745011928 -3.394411686401547
1.2346927174056643 -3.392290361037129
1.2937082978585344 -3.370225339654898
1.3710601319022386 -3.3934929077144416
1.4496124866952054 -3.4150730063085537
1.5089929458112195 -3.3892536478540487
1.5890446641450298 -3.4077172792578034
1.6701940692663853 -3.424405316399826
1.7978023789686055 -3.528385835785937
2.1173167481643675 -3.98209364379376
1.7744032101015939 -3.2011081281301887
1.7799999999999996 -3.0830504374726018
1.8335355466797931 -3.0515155904995197
1.8865125806702094 -3.0190512223168766
1.9389149646534964 -2.985667221885709
1.990726736355859 -2.951373758295948
2.0706109352272764 -2.95713887988326
2.0925154981612044 -2.8801004999748128
2.8646395102037494 -3.801505027825114
2.9921147700827 -3.8297322625286685
2.995565061397226 -3.6992147765351815
2.9632508806549467 -3.5314648827784887
2.991629172196713 -3.44147568581584
3.0177790346784503 -3.3515831629030477
2.5302139158318697 -2.713322233007122
2.54244963587993 -2.6327836692394633
2.5173001410241094 -2.517300141024109
2.5248826991886655 -2.43825088031108
2.53048380760233 -2.3597143258162445
2.608438337425654 -2.348648428319592
2.724501584604207 -2.3683730946557313
2.497304884567868 -2.095487607578118
1.0802328864251896 -0.8747553435592739
1.111095162585478 -0.868082680209178
1.0861442936643184 -0.8184684314867857
1.1002631123499287 -0.7993879431177635
1.114046780233029 -0.7800639534374226
1.0860392200471047 -0.7325427035466783
1.0986584440085057 -0.7134771358696854
1.1109430059649181 -0.6941942361454985
1.0800307988846616 -0.6489479743866681
1.0911920087683926 -0.63
1.1020208309956387 -0.6108601215103847
1.112513967002248 -0.5915341691102224
1.1226682204773435 -0.572028029671829
1.1145046174109672 -0.543580222018456
1.123821655925446 -0.5240466445584673
1.0871190945946951 -0.4840166052602022
1.095400775608404 -0.46497004290223565
1.103348786934477 -0.44578184616493516
1.11096070753167 -0.4264578599589074
1.1182342187352308 -0.40700397055754584
1.125167104963187 -0.38742610380401643
1.084204428576475 -0.35227937358744
1.1380026595960122 -0.3479223286200567
1.11506356728845 -0.31973933274771893
1.1204739584953192 -0.30023009231892395
1.2225726151077556 -0.3048215884555812
1.32514328810792 -0.30593343390765626
1.4770028771080463 -0.3139466531348167
1.6295011245231221 -0.31674293232506445
1.7825020329520966 -0.314303201577144
1.9852535645962268 -0.314433274730864
2.1884924319188706 -0.30757255312174453
2.491290840619718 -0.30589205194692004
2.9437848102900888 -0.309404251272254
3.4468336553974397 -0.3015588699068969
4.14986644908087 -0.29018693077556074
5.102996922595873 -0.2674367364014434
7.505425110913409 -0.26209522023578263
7.508856190624498 -0.13106757234399935
7.36 0.0
7.35887903635104 0.12844971137840683
7.305546945509589 0.25511532089528244
7.6495022362200356 0.4008934248209503
7.641340624990254 0.5343345888800005
9.67305051847085 0.8462822620797621
9.60708150925752 1.009744955165534
9.587995824855172 1.1772578572937242
9.417449333732334 1.323536190130222
7.516308271928999 1.1904662789561569
7.14970428686863 1.2606857698619143
7.175694711002423 1.3948137562025429
7.19916634140081 1.5302300444187091
6.196993612034096 1.430688705626982
7.383950476960334 1.8410256255134723
4.67173184226023 1.3395975492706158
2.6394011264579778 0.8069459050347533
2.482257507530351 0.8065343553186126
2.325975695974319 0.8008976599646055
2.2176745850547435 0.8071675382485782
2.1098917638836756 0.8099115659723787
2.002717125864261 0.8091502417783702
1.896239998112027 0.8049061246879042
1.8362263698616275 0.8175406525823585
1.7310478732400012 0.8072008799247358
1.6717569261164507 0.8153703330276844
1.5681714825715276 0.7990232795416023
1.5098403837887648 0.8027963723638736
1.4518687138513968 0.8047839696089195
1.3943009000929465 0.8049999999999998
1.3800393541304008 0.8292113006051874
1.2805526251962034 0.8001780889921394
1.224459029200319 0.7951729911219397
1.1689429773026088 0.7884619938937529
1.1140467802330287 0.780063953437423
1.0598122626311812 0.7699986805031398
1.0861442936643182 0.818468431486786
1.0322940872248056 0.8065165326766124
1.018061209508632 0.8244097122752869
0.9652159983299123 0.8099123882050396
0.9131985920695541 0.7938314250785137
0.8992052388276469 0.8096480336942186
0.8483702938782378 0.7911180976724982
0.834434168392835 0.8058037097324369
0.7495331880577405 0.7495331880577404
0.736337872686537 0.7625001883589704
0.6888183436631234 0.7386672386353622
0.6758219124224469 0.7505762737321681
0.629816667830887 0.7245211970138611
0.6170761052990779 0.7354026653942188
0.6041475754078439 0.7460601229986921
0.591035016312632 0.756490323462453
0.5777424222259662 0.7666900896454012
0.5936631048153979 0.8171071643186969
0.5219545570794518 0.7454283603029827
0.5368251873319169 0.7958760696528401
0.5228534736144261 0.805123745227607
0.5087224936638767 0.8141261723101689
0.4944365519136521 0.8228806086740277
0.4549999999999999 0.7880831174438393
0.4654172354364836 0.8396349188538199
0.450692700274455 0.8476296891445699
0.4131313547629877 0.8108159370114149
0.3989177435780603 0.817902582132242
0.3845826181840365 0.8247400862033515
0.3497935130451883 0.7856490935726367
0.3360287705007754 0.7916341739690987
0.3259077362718436 0.806649953473105
0.29027803913169314 0.7562001454627335
0.2941373232600752 0.8081356538758812
0.2799886128331546 0.8131459750154125
0.25030376544370747 0.7703557781990744
0.2368210808254166 0.7746068523300589
0.22326625821176935 0.7786219737100384
0.209643426533042 0.7823999192941453
0.19595673543573083 0.7859395382835572
0.18221035401853078 0.7892397524760406
0.15801288502149702 0.7433921765576923
0.14501483648617414 0.7460366594202247
0.13197261502686697 0.7484538922892782
0.11889019343057551 0.7506431388523047
0.10577155672964958 0.7526037322435934
0.0926207009879121 0.7543350752474047
0.07421520892003411 0.706110545711474
0.06449524963326703 0.7371840765878916
0.051619790570652836 0.7381973971922698
0.04134540543192556 0.7889173324561134
0.025825627559850798 0.7395492119941308
0.012565732634844031 0.7198903405126017
