# .PCD v0.7 - Point Cloud Data file format
VERSION 0.7
FIELDS x y
SIZE 4 4
TYPE F F
COUNT 1 1
WIDTH 180
HEIGHT 1
VIEWPOINT 0 0 0 1 0 0 0
POINTS 180
DATA ascii
6.245698675651501e-17 -1.02
0.01692883424416509 -0.9698522643016995
0.0355974866365511 -1.0193786435594776
0.05076587755565565 -0.9686706487119366
0.0676637795318017 -0.9676371287520295
0.0845410704652284 -0.9663088571489932
0.10661903253300653 -1.0144123332756387
0.12430673027325044 -1.0123970746741484
0.13082271490246153 -0.9308519846170761
0.1548701203898286 -0.9778114571891864
0.17191169589026112 -0.974959675482086
0.18890090542277946 -0.9718109116131873
0.1954369893686939 -0.9194587446897772
0.22270154380042648 -0.9646263641373829
0.2274065818636876 -0.9120779826994366
0.25623085465149553 -0.9562665680261776
0.2728809822588292 -0.9516490789789357
0.2894479876755094 -0.9467417084034051
0.30592682443119795 -0.941545951132202
0.3223124729125852 -0.9360633898433236
0.33859994189241216 -0.9302956945780492
0.3727026675271124 -0.9709236435570898
0.3895908571525487 -0.9642712087494588
0.38682381720438097 -0.911299804917916
0.4230061087988324 -0.9500872759483048
0.46065390529736244 -0.9878754878699485
0.47782455000009444 -0.979685510466092
0.47215011972912874 -0.9266467851559026
0.511724003436621 -0.9624128762162304
0.5284424860685075 -0.9533354807819414
0.5449999999999999 -0.9439676901250382
0.5613915016519592 -0.9343123577653024
0.6041079612258535 -0.9667748296183255
0.6208884999171308 -0.9560844474577832
0.6374799099566514 -0.9451028327127474
0.6825559592577448 -0.9747909327039002
0.699464450228043 -0.9627302233061874
0.7161598775509374 -0.9503762569562785
0.7326371556375335 -0.9377327967919991
0.8118233044542903 -1.0025182902794925
0.7970566360113088 -0.9498951094675328
0.813513195948229 -0.9358398794762373
0.8631784822029271 -0.9586568248658386
0.8797778844806232 -0.9434462750887298
0.9308422164150564 -0.9639153324537925
0.9475230867899738 -0.9475230867899737
0.9639153324537927 -0.9308422164150564
1.016581645250647 -0.9479777204868728
1.070128548687448 -0.9635480731567556
1.1245172745319303 -0.9775279531958558
1.1414062202472772 -0.9577535384329435
1.1968047806437352 -0.9691534022167496
1.213536560554352 -0.9481186720015137
1.2698304609751956 -0.9568858868117568
1.2863370210561664 -0.9345785511450323
1.3434093526339466 -0.9406653556157155
1.4010734976180206 -0.9450360068655621
1.4592867882250378 -0.9476719209261469
1.5180060921200027 -0.9485554829774367
1.5771878332918867 -0.9476700578344995
1.636788013152589 -0.945
1.6967622318504276 -0.9405306632778939
1.8012130894322111 -0.9577219880832173
1.8622036355536888 -0.9488401444556528
1.9234192590802175 -0.9381142541286257
2.048255598702829 -0.9551172715339805
2.110290007154408 -0.9395616455050984
2.2184166968203813 -0.9416620196591495
2.327231474962636 -0.9402625494739388
2.3899658918328366 -0.9174219508359689
2.5465670023298115 -0.9268745884125623
2.704183126214046 -0.9311249217474681
2.815127288233654 -0.9146903033498442
3.3566296934302544 -1.0262246835768059
3.5182178071342474 -1.0088327222902167
3.68017739816135 -0.9861005618406038
3.6968267171115468 -0.9217224222347337
3.907223959788793 -0.902053727918898
4.166908779126012 -0.885703802883655
4.574382674866114 -0.8891699184546991
4.983127230241772 -0.8786597789946675
5.442162756679209 -0.861953902371672
6.050537900010995 -0.8503476468659997
6.659984677513271 -0.8177432942485393
7.6180377185209736 -0.8006880286302249
9.174953169424978 -0.8027043907059309
10.38464176320477 -0.7261648916763431
12.392992526304262 -0.6494892169749339
14.201343651941352 -0.4959218481425395
14.207835748172322 -0.24799869547379905
19.86 0.0
19.90696761056375 0.3474774121663152
19.84790182459924 0.6931040045116702
19.832782560225837 1.039392090984866
19.8615002406731 1.3888513922455368
18.937661210724084 1.6568306696329842
9.457903224952279 0.9940656856753858
7.900667367064924 0.9700799735049735
7.021000607377734 0.9867372858068637
5.837238092917264 0.9245276883877644
5.82021382030215 1.0262607300115585
4.770708111555647 0.9273317175300081
4.264723539199393 0.906494971965431
3.955942463028055 0.9133012806360922
3.6483119307977465 0.909626327454751
3.342103358960176 0.8955138960547223
3.1337131287589193 0.898577779963417
2.926292553246889 0.8946574164515744
2.7200216366041388 0.8837886039123495
2.5623553398741485 0.8822896985788946
2.4056131092119255 0.8755715669137121
2.2499288278582563 0.8636667584041738
2.141794704049279 0.865341230790757
2.034315726129893 0.8635157939612953
1.9275809156258876 0.8582143168899387
1.8669940412954988 0.8705936191858408
1.788600152135342 0.8723585821102644
1.6840023307160152 0.8580420445077435
1.6246235708604255 0.8638276755260395
1.5655692757795183 0.8678092202409433
1.5068842025849234 0.8699999999999997
1.405754373151464 0.8446624428524889
1.3483964728887174 0.8425716301307958
1.3334862030332242 0.8659760656738933
1.2767178617347643 0.8611570713449501
1.2205365459905977 0.854628890163059
1.1649844718999243 0.8464107633011613
1.1101033589657368 0.8365228821813473
1.0953349475133434 0.855769450702665
1.0413755883523412 0.843289324006782
1.0264995537794306 0.8613353969799628
0.9358398794762373 0.8135131959482289
0.9214995835919687 0.8297219518849843
0.9068785900077715 0.8456779664774982
0.8560143624029947 0.8266434608462069
0.8414570696119916 0.8414570696119914
0.7919105423232566 0.8200473723860624
0.7774781304712481 0.8337432198458542
0.7628088912490985 0.8471851010442293
0.715104341599653 0.8226334424428215
0.700638494558328 0.8349884429996861
0.6859592262443228 0.8470890979880984
0.6402879343386848 0.8195311837509908
0.6258876240781301 0.8305809304491847
0.5819073997695484 0.800926824431198
0.5965194938050878 0.8519181260605516
0.5815606196095767 0.8621990754572434
0.5119606929141255 0.7883503338686985
0.49812410837921256 0.7971652103870404
0.48413579041545096 0.8057372626599855
0.46999999999999986 0.8140638795573724
0.45572104303155686 0.822142524711032
0.4413032690187372 0.8299707372873913
0.426751069755174 0.8375461327370658
0.3901503206422787 0.7999267012062586
0.39726116603625744 0.8519293198144509
0.36199561233746236 0.8130554573019146
0.34775070435545363 0.819249319572672
0.31466953846936624 0.7788344378361013
0.3189474750953171 0.8308865795825096
0.30439792755984524 0.8363264324994584
0.2734772497440115 0.7942356035034261
0.27502512499370324 0.8464402995026866
0.2602108172032355 0.8511112328071017
0.23153537888627929 0.8074598245881879
0.2174079978861176 0.8113776940828172
0.20321439230372085 0.815048410071837
0.18895888564884672 0.8184708544195975
0.17464582028691775 0.8216439846163968
0.15073910634747048 0.7754854749236546
0.13718206035687489 0.7779981248796445
0.13140495063379398 0.8296582060999157
0.1169054048064548 0.8318251777429191
0.10237024846032389 0.8337387673787104
0.085713339879476 0.8155079542019841
0.07321082390803284 0.8368035463970662
0.05859543794506538 0.8379538022182523
0.04134540543192556 0.7889173324561134
0.028617587296050885 0.8195004781556585
0.013787401085453867 0.7898796791735492
