# .PCD v0.7 - Point Cloud Data file format
VERSION 0.7
FIELDS x y
SIZE 4 4
TYPE F F
COUNT 1 1
WIDTH 177
HEIGHT 1
VIEWPOINT 0 0 0 1 0 0 0
POINTS 177
DATA ascii
1.4940690949597708e-16 -2.44
0.042583871706971976 -2.4396283761815947
0.08340979711897759 -2.388544076575639
0.12246613760848887 -2.3367931113257026
0.16323014856125356 -2.3342998776079886
0.19958665089213715 -2.2812858586300973
0.24041546551560294 -2.2874003593470285
0.2802994898318392 -2.2828561487750405
0.3187064011985499 -2.267713877418196
0.37700706074695656 -2.3803289008342823
0.4358569259439953 -2.471867460060642
0.488471028163955 -2.51296558962602
0.5530450975752402 -2.601872617951923
0.6208649099890677 -2.6892613788072492
0.7160888109750163 -2.8720753497769493
0.7919862780137135 -2.955733028444549
0.8710140443817174 -3.037586959165088
0.9677503426322587 -3.1653687422376473
1.100100499974813 -3.3857611980107465
1.2078578530360515 -3.507873915473465
1.3372987604033653 -3.6741981472729015
1.4908106701084496 -3.8836945742283593
1.6707454066349683 -4.135239991367872
1.8598801716089428 -4.381603102433616
2.09876107827113 -4.71389456143582
2.328626622191254 -4.993755906571941
2.6346105922023555 -5.401752218257993
2.978177678291427 -5.845002798675693
3.478784280243451 -6.542641663084648
4.053008425259378 -7.311820751685348
4.8549999999999995 -8.409106670746901
5.747824915996206 -9.565987075835572
7.1592092597905985 -11.457129779073314
9.618325358365379 -14.810922229916187
12.783149773341274 -18.95179890860825
14.345146673139663 -20.486992627667686
18.021495835287226 -24.804461047535888
18.4516486098418 -24.486164738049997
18.876180833484685 -24.160409705582094
9.855157323840453 -12.170105756416165
7.141370343617452 -8.510753763051845
6.042303657002573 -6.950875233851731
1.3984829672900136 -1.5531726852477539
1.391276654527497 -1.4919615513031075
1.4518359942593042 -1.5034201827077807
1.513208511739212 -1.5132085117392116
1.5537739687314867 -1.5004620801914341
1.616291680578367 -1.5072163757381216
1.6274871677954936 -1.4653960279258993
1.6150785016767322 -1.4039663220396856
1.639335108274613 -1.375565484729194
1.6786352767470571 -1.359332044667649
2.0173075292332086 -1.576093376833685
1.9247115792139757 -1.4503742057964364
1.828378407287381 -1.3283946701809892
1.7693684156642224 -1.2389251025182595
1.7326885266400371 -1.1687131682538607
1.7528214870059362 -1.1382955831814063
1.7724205209669304 -1.107531262247398
1.8343380235025204 -1.1021814803075156
1.8532943640986987 -1.07
1.9154171586352766 -1.0617330683394781
1.93365522836105 -1.0281427225011008
1.9513042879725258 -0.9942391944296075
1.9683589613951757 -0.9600328114680795
2.030129442962096 -0.9466649062991667
2.0463418251194265 -0.9110900804897925
2.1079561144060883 -0.8947742842404367
2.123251026957943 -0.8578490989224383
2.184578198003452 -0.8385810019360027
2.245865363678321 -0.8174281425483484
2.2597893956823674 -0.7781078891526045
2.273025073945417 -0.7385506165561243
2.3333836045498066 -0.7133869595234775
2.3935416228864144 -0.6863370159843278
2.4534515987742336 -0.6574003745604026
2.5130659310548307 -0.6265777096031391
2.523618467793759 -0.58262323075061
2.5334022859005563 -0.5384912792179968
2.4148028712812533 -0.46939012862630036
2.3733866847594216 -0.4184921081773022
2.3803289008342823 -0.3770070607469564
2.3865460456671848 -0.33540717331375763
2.4416635330376524 -0.29979858477666266
2.4962499573743657 -0.26236644280181
2.600068162019456 -0.22747648857138755
2.5338126876599536 -0.17718144331007796
3.055806376348996 -0.16014802610340834
3.158075013380343 -0.11028240957990322
3.209511101452016 -0.05602222466368015
3.81 0.0
6.658985649741566 0.11623302687230835
6.506034283894313 0.22719572353328163
6.700804178203191 0.3511742663901536
6.843289384782394 0.4785294098847003
6.983324833623136 0.6109617566610847
6.1000513034480734 0.8573063019140029
6.034775761036292 0.9558145813958107
5.91869459560337 1.0436255477782515
5.89957937252046 1.1467620622130346
5.780852320336791 1.228758092732958
5.7585270828807404 1.3294607311722426
5.782962528604939 1.4418544977740204
5.612029050739486 1.5037386520456464
5.5368673686047165 1.5876711695059147
5.508315394347084 1.6840610192029635
5.430532708045327 1.7644870378809496
5.351635137892133 1.842715754227507
3.157367205840652 1.149187681574247
5.237386192649302 2.010444196949135
5.062423845934659 2.04535200005088
3.0468710649275774 1.2933200352994965
4.942280925846471 2.20044523904008
2.6373556602766515 1.2298191416654354
4.817536088163535 2.349669346789456
2.993781921272916 1.5254080791248772
3.4081777084354576 1.812160232353539
4.687961630267162 2.598579564520367
4.815101245041479 2.779999999999999
5.308781081939227 3.3172945940998626
5.250077755338354 3.40944035919407
2.9513737582959485 1.9907267363558585
5.045976592820189 3.5332308479224452
4.983544685349677 3.620757154121635
3.2025283952896437 2.413278242839714
3.9873344132500126 3.115247065147831
3.932358564972273 3.1843611787121766
3.8761848821820286 3.252505305013889
2.6867661055930685 2.3355701432062057
2.7199100612472624 2.4490180192734217
3.7372174152739617 3.4850116199193675
3.675826379730507 3.5497042730454766
2.2344574285494905 2.23445742854949
5.737878139991317 5.941746750797259
3.0076127678756186 3.225269824140542
5.560475338842113 6.175533499717146
2.335570143206206 2.6867661055930685
2.6739964562960044 3.1867448833749488
3.5934194328945717 4.437503439919304
2.191754852159344 2.80531828283993
5.091355095866328 6.756456415000099
3.7677034671947527 5.185798933943413
3.504552026104891 5.005018990605741
2.4101214139589184 3.5731519377122294
2.9737291311820484 4.579141300982014
2.1249762495751514 3.400672865587268
2.5803407552993716 4.294408176517582
2.4049999999999994 4.16558219220315
2.259212830347931 4.075727835269585
2.0703695918857776 3.893798884507868
1.9339995288904694 3.795687793042447
1.8236239706425614 3.738983232604535
1.6735683164931698 3.5889788366651336
1.5700034422725895 3.526285466500439
1.469149043119669 3.4610982489811755
1.1275658461818956 2.7908234022460294
1.0428507331768235 2.7167190411068574
0.9610766027451294 2.6405362644084023
0.898568106301752 2.6096312686541143
0.8219852050373603 2.5298103333451087
0.7718613004680245 2.5246445557424138
0.7139007515660278 2.4896677924802457
0.5668137087745209 2.1153775595730595
0.4935206670233221 1.979403281603033
0.44765259814429165 1.938996428922618
0.42413984926822884 1.9954211054969637
0.38925035056815166 2.0025194542332345
0.32298561046049024 1.8317424206027073
0.2956611389260364 1.8667309637248104
0.3047890911025429 2.168687070544039
0.21205265752495664 1.7270303038559003
0.1871059492491001 1.7801941927092093
0.11417402299943216 1.3050150545001866
0.08789315691759808 1.2569307033273784
0.06489658574125025 1.2383006230956715
0.04327537591110134 1.2392446255036786
0.021990032110977054 1.259808095897053
