# .PCD v0.7 - Point Cloud Data file format
VERSION 0.7
FIELDS x y
SIZE 4 4
TYPE F F
COUNT 1 1
WIDTH 180
HEIGHT 1
VIEWPOINT 0 0 0 1 0 0 0
POINTS 180
DATA ascii
4.2250314570583685e-17 -0.69
0.01256573263484419 -0.7198903405126017
0.025127637625800777 -0.719561395453749
0.03768188849491966 -0.7190132650232931
0.04813196688344656 -0.6883191946792786
0.06275213477831386 -0.7172601826260567
0.07526049355271049 -0.7160557646651567
0.08408984694955177 -0.6848568446325121
0.09602943966244516 -0.6832849674316835
0.10793978087775932 -0.681504955010645
0.11981724259018198 -0.6795173495784235
0.131658206809816 -0.6773227565788881
0.143459066664254 -0.6749218445063258
0.15521622749726693 -0.6723153447018123
0.1669261079637707 -0.6695040511304375
0.1785851411207393 -0.6664888201394571
0.1901897755137294 -0.66327057019744
0.2163550614948252 -0.7076655194126462
0.22867257583746112 -0.7037818220584136
0.240920434298296 -0.6996837459434944
0.2701959132272784 -0.7423571704208676
0.2651922826635223 -0.6908495156079293
0.27720887912777503 -0.6861160523794226
0.28914103508206257 -0.6811735915548058
0.3009851158760923 -0.6760236386555245
0.33386842677515255 -0.7159831517589534
0.34631320596337123 -0.7100472965763419
0.35865249479424205 -0.7038951541088107
0.3708825346008538 -0.6975285983585523
0.3829995999946063 -0.6909495686401227
0.3949999999999999 -0.6841600689897066
0.40688007917894287 -0.6771621675546687
0.4186362187442319 -0.6699579959635765
0.45749678941262273 -0.704483277074156
0.4697220389154274 -0.6963915609462349
0.510483028352431 -0.7290453194172027
0.5231288745403011 -0.7200251249937032
0.5356153706053229 -0.7107856039420907
0.547938713039836 -0.7013295707099825
0.5600951480343553 -0.6916599056967041
0.5720809726210201 -0.6817795543758904
0.6166954872510768 -0.7094270054094056
0.6289827699773267 -0.6985561359487505
0.6410784584587487 -0.6874724795220201
0.6877117867544073 -0.7121464023352646
0.7000357133746821 -0.700035713374682
0.7481133923521973 -0.7224447052773572
0.7240401646029788 -0.6751783764618735
0.7728706184964902 -0.6958958306132125
0.7848979634316829 -0.6823013901501276
0.7966862208437372 -0.6684991140740009
0.8470890979880984 -0.6859592262443228
0.858931721431327 -0.6710710081049674
0.9503762569562785 -0.7161598775509374
0.9627302233061874 -0.699464450228043
0.9747909327039002 -0.6825559592577448
0.9865547113404997 -0.6654395551301887
1.081885032649597 -0.7025843551693848
1.136384448849611 -0.7100918140724947
1.1486041829408307 -0.6901510203794725
1.1777945491468367 -0.68
1.2332137870665478 -0.6835815645473352
1.3155919133598013 -0.6995126285509773
1.3275997210406683 -0.6764458446119247
1.4290825336156756 -0.6970101233946331
1.4410293813882735 -0.671963036167712
1.4982145505338655 -0.6670480946443123
1.528038056731051 -0.6486136732921942
1.6318435840375458 -0.659307604412005
1.7364595932847953 -0.6665643861542586
1.7948129057010849 -0.6532584737520273
1.9004923369546267 -0.6543919904588849
2.006729249382774 -0.652025858131139
2.1134335106783086 -0.6461414674372481
2.2685776024144326 -0.6505041597281178
2.4244738239855614 -0.6496358032073268
2.5324718455803508 -0.6314161475151324
2.737979882046511 -0.6321124627062603
2.9931316582454452 -0.6362097739023438
3.200104618039384 -0.6220373249275362
3.5059156007234606 -0.6181875124942721
3.763092577667475 -0.5960153118032796
4.169028569402011 -0.5859187550418754
4.575637759066495 -0.5618176730977297
5.1814590748687035 -0.5445932936244742
5.887510665722217 -0.5150904396386592
6.793411182269403 -0.4750415861974924
8.098885526859593 -0.42444460513027504
10.203780343864969 -0.3563238613325354
18.057249374524424 -0.31519046025734065
15.26 0.0
13.20798805301593 0.23054628903651553
13.201952824922255 0.46102235144003845
13.341690584321105 0.6992083754057306
13.427212116497234 0.9389221365959279
13.209541696696546 1.155685148833949
13.087908143046477 1.3755945766023214
11.473833512973684 1.4088096097635043
9.764043157791884 1.3722467754662449
8.997840782821704 1.4251179765165032
7.8390697139771754 1.3822394942287657
6.586718400933825 1.280328358976616
5.927574460446861 1.2599448463556218
5.368779056966646 1.2394803094346967
5.006725947584142 1.248316981294286
4.597806933135964 1.2319786546879994
4.2391640790879865 1.2155607391529661
4.073858260402531 1.2455034621188583
4.003947933602596 1.3009615463185285
3.744253559373295 1.2892498916503405
3.48625962311572 1.268894731738231
3.0434721903808777 1.168279515517679
2.8835417877027085 1.1650265055234867
2.7246943662192233 1.1565641403282507
2.6127400088578385 1.1632667991967889
2.4560941028693213 1.1452954893172953
2.3458524608408258 1.1441486931194924
2.2364263757128033 1.1395161543462624
2.1279036987900137 1.1314264663139972
2.0641025088489737 1.1441507037813554
2.0005186827420536 1.1549999999999996
1.9200547535727315 1.1536852877985218
1.814822925774752 1.1340272254590587
1.710887958608665 1.1110636314306555
1.6912366480122851 1.1407535230803234
1.6301125681350934 1.141417108338582
1.5290421193686505 1.1109141268327742
1.4694893384870187 1.1073396425997692
1.4499397866363684 1.1328171145992114
1.3910912710079781 1.1264834999792088
1.3329173310270217 1.1184504408545786
1.2754591905764847 1.1087397589939572
1.2187575137829263 1.0973741944285276
1.1994200706554397 1.1184773105024974
1.1437502825384551 1.1045068090298058
1.0889444430272832 1.0889444430272832
1.0697738905068557 1.107783292521523
1.0161775564931228 1.089717015412564
0.9970046034746989 1.1072857899613173
0.9775279531958558 1.1245172745319303
0.9256141579486168 1.1031039980913282
0.8747553435592739 1.0802328864251896
0.8557694507026651 1.0953349475133434
0.8365228821813468 1.1101033589657372
0.8170215006865376 1.1245336221811768
0.7685924247104016 1.0976637393472493
0.7493184906508007 1.110910347223756
0.7025843551693851 1.081885032649597
0.6835958508608343 1.0939820440417896
0.6386472128884673 1.0628874528706191
0.6199999999999999 1.073871500692704
0.601163929105458 1.0845284368528507
0.5821447378545044 1.0948550151450696
0.5402486946900608 1.0602977637841577
0.5085105302753296 1.0426010937070338
0.5113680967062463 1.0966324223143464
0.5124881702755085 1.151067276629677
0.5118577783209486 1.205861358022697
0.49073463737484496 1.2146108494824914
0.4694620139043432 1.2229903587113344
0.4309453805903427 1.1840127021902445
0.4102158746160172 1.1913534052551393
0.3893614129124338 1.1983312105318935
0.3830069331867849 1.2527592303115767
0.34730306832941893 1.2111897368822817
0.3131710445740504 1.1687702498097725
0.29272549367559786 1.1740578287939556
0.2834383284732701 1.2277062816293964
0.25157314588948865 1.1835585968879048
0.2213384346367921 1.13868753279929
0.20143188609363905 1.1423769934941614
0.18928570269867942 1.1951028921201168
0.16144079711367568 1.1487109597402216
0.14136843834997107 1.1513535359039335
0.12125301739047827 1.1536453986271968
0.10110066158728344 1.1555858497864246
0.07742968585597926 1.107296095788405
0.06070970924181474 1.1584102603153055
0.04153040107597628 1.189275084152724
0.01989574333850305 1.139826372478286
