# .PCD v0.7 - Point Cloud Data file format
VERSION 0.7
FIELDS x y
SIZE 4 4
TYPE F F
COUNT 1 1
WIDTH 179
HEIGHT 1
VIEWPOINT 0 0 0 1 0 0 0
POINTS 179
DATA ascii
9.613477373306724e-17 -1.57
0.02740027810653525 -1.5697608813955344
0.0547922098229267 -1.5690435984199804
0.08216745130142203 -1.567848369564681
0.10951766377827697 -1.566175558907924
0.13247672897644036 -1.5142159410994533
0.16410968733021594 -1.5613993757281892
0.19133486914608155 -1.5582974580768756
0.2185017685073028 -1.5547208679242654
0.24560211011316258 -1.5506706947343663
0.2813100478204273 -1.595388559879777
0.2995701227411755 -1.5411546780128325
0.32642135458388233 -1.5356917331520747
0.3531731553198683 -1.5297610017128194
0.39191347087146167 -1.5718790765671145
0.4192868530660836 -1.5647998385882909
0.4327506486326887 -1.5091808626231606
0.4736421616508336 -1.5492137046601175
0.5006075308874149 -1.5407115563981488
0.5274204102205939 -1.5317400924708933
0.5540726321875835 -1.5223020456731715
0.5984744757406516 -1.5590793122503268
0.6255930110045733 -1.5483970371265348
0.6525209845770871 -1.5372431052655753
0.6792501939365866 -1.5256209142631432
0.7269034101940031 -1.5588493937030379
0.7408472380735409 -1.5189619382455921
0.7309247045806705 -1.4345205039432725
0.7229862066902719 -1.3597392930027474
0.7466068151793591 -1.3469143489946696
0.7699999999999998 -1.3336791218280357
0.8189105391069863 -1.3628960081163586
0.8160756669191356 -1.305994068080896
0.8659760656738931 -1.3334862030332242
0.8891167165184877 -1.3181697403625163
0.9119865337981633 -1.302451750419497
0.9639678137596559 -1.3267878707749137
1.0170673891269615 -1.3496940119799248
1.0404678933003626 -1.33173817359536
1.0824310726057202 -1.33669105370599
1.1313061930483093 -1.3482382198894014
3.221249832343391 -3.7056240388938106
3.318887807539937 -3.6859983343678753
3.4168117839131176 -3.6640820451120435
3.5149713545225256 -3.6398593897135743
3.6133156518632585 -3.6133156518632576
3.783727349781305 -3.6539030286143253
6.8454706471554365 -6.383504650184985
6.324162464812626 -5.694301460113882
6.233901132640097 -5.41904757946159
6.212620433694911 -5.213007514557833
6.186081853197488 -5.009390312756706
6.193764523348835 -4.839099196059673
6.197411557966992 -4.670084579659894
6.156619327193351 -4.4730457699457205
6.151831852610329 -4.307559036996356
6.14316841263286 -4.143619414718234
6.172615380078321 -4.008543297710599
6.199231582903474 -3.8737098215447276
6.18017623806223 -3.7134245201014897
6.157440620907359 -3.555
6.437201044545953 -3.568198805013041
6.7192311816564345 -3.5726785928006293
6.914210627701735 -3.5229662779788833
7.019581501596495 -3.423678656422694
7.168894595459901 -3.342910450368932
7.271821842835104 -3.237623678883369
7.41926911882667 -3.149292895623546
7.565820253264985 -3.0567898022738413
7.664695301542027 -2.942200865766916
7.761861047691602 -2.825086383870024
7.857259363230323 -2.7054713635389724
7.998385302042242 -2.598832922693308
8.090338235447282 -2.473464621954353
8.180337032435094 -2.345673898002662
8.268325073034426 -2.215491026077577
8.354246203236329 -2.082947521113138
8.389326257800874 -1.9368285779006764
8.470758222354757 -1.8005152424817965
8.549972767829153 -1.6619463497297058
8.626915916386942 -1.5211580363623098
8.652149863613406 -1.3703659137524224
8.674748282176155 -1.219156364410173
8.69470428837798 -1.0675754482290916
10.850233878467861 -1.1404055342500985
12.462395673127737 -1.0903183417732025
14.424776166757061 -1.00867861034005
20.79732311026738 -0.7262585263790461
27.405825324236684 -0.4783704604459417
29.31 0.0
29.25554356027601 0.5106574123549162
29.242175598578743 1.0211592735151798
29.269831663656557 1.5339668774806858
29.238602313115447 2.044562245440315
19.136900150342434 1.6742618181825157
14.331060512256819 1.5062551556868886
11.573088128137815 1.420996544104019
8.575721475302 1.2052390543141664
8.553381029553893 1.3547224672483993
8.52843514108572 1.5037932185956169
8.451810049484386 1.6428654501920512
8.421850842318065 1.7901196579409082
8.291889251322353 1.914333472466292
8.20870184429493 2.04665923677319
8.171732490405518 2.1896091215673272
8.036147778044345 2.3043282946301122
7.946892522052826 2.429608866245942
7.855726824597968 2.5524803735370654
7.715431576890426 2.6566361403703986
7.6209071545737155 2.7737833623711734
7.524658237567446 2.888445673335121
7.380383482351627 2.9818684835906604
7.2351681481361805 3.071146669925693
7.134790024188712 3.1766131824220003
7.032948427404404 3.279517711107827
6.839822692336661 3.3360044270648803
6.736009322864061 3.432168178030974
6.586789042727594 3.502257858382747
6.218546117761104 3.446996399951457
5.984235540150472 3.4549999999999987
5.923026047851596 3.558913097628475
5.902414749248726 3.688238079063106
5.879080681297421 3.8179196354553406
5.853005262238594 3.947901898503472
5.865128637109181 4.106807284273492
5.873463379162119 4.267320931643355
5.838025578445709 4.399267819241474
5.83915968422581 4.562051532163128
5.875223468614701 4.75766215633677
5.867900434291371 4.9237530901988915
0.973575358487376 0.8463161473977543
0.9586568248658385 0.8631784822029273
0.94344627508873 0.8797778844806231
0.8919813524199272 0.8613763793691567
0.8768124086713189 0.8768124086713188
0.8266434608462065 0.856014362402995
0.8115780484743732 0.8703109049268128
0.7628088912490985 0.8471851010442293
0.7479072930491782 0.86036892145396
0.7327778750426549 0.8732906651556349
0.6859592262443228 0.8470890979880984
0.6402879343386848 0.8195311837509908
0.6258876240781301 0.8305809304491847
0.6406859249987957 0.8818285238686928
0.636669844349661 0.9092587691607811
0.6486637680260663 0.9616835841638484
0.6753524034186337 1.0399515042523257
0.6306039244375138 1.009177234426147
0.6386472128884673 1.0628874528706191
0.5949999999999999 1.030570230503482
0.5526829670808243 0.997066466138911
0.5351975815759152 1.0065602558591766
0.5175491697030834 1.0157474375747393
0.499743107339548 1.0246252127810502
0.4817848183843973 1.0331908772217808
0.4636797731064124 1.0414418217125647
0.42589693005330836 1.0033502902631601
0.42705151649413986 1.0569895942061374
0.3906210650043772 1.01760266488195
0.372801956224979 1.0242649566566402
0.35486928835830067 1.0306152474032555
0.32137767414994534 0.9890987769469597
0.304066572911646 0.994556946201557
0.2866628500496791 0.9997121637758517
0.2691718069066218 1.004562859340631
0.2588564282916444 1.0382164271153163
0.23394909651761975 1.0133448673766448
0.2162281584504696 1.017273504763158
0.19462517528407583 1.0012597271166173
0.18580355010361535 1.0537442957230627
0.16269184364184017 1.0271958742189433
0.14474002499846786 1.0298787914912333
0.12430673027325044 1.0123970746741484
0.10661903253300675 1.0144123332756387
0.09325664473999422 1.0659283269581679
0.0690589090066842 0.987588409757226
0.05338267536780262 1.0186021254496653
0.0355974866365511 1.0193786435594776
0.018150502694774712 1.039841602962647
