# .PCD v0.7 - Point Cloud Data file format
VERSION 0.7
FIELDS x y
SIZE 4 4
TYPE F F
COUNT 1 1
WIDTH 180
HEIGHT 1
VIEWPOINT 0 0 0 1 0 0 0
POINTS 180
DATA ascii
1.0838124172454077e-16 -1.77
0.03001813907212779 -1.7197380356689929
0.060027134328301854 -1.7189522224728446
0.09263464255001082 -1.7675742765155957
0.12346895852710206 -1.7656883689598888
0.14990787752597198 -1.7134548807178023
0.17978895682036394 -1.71057766003343
0.21570873782711106 -1.7568066884051399
0.24633638869931587 -1.7527744816725797
0.27688900312120873 -1.7482083628533938
0.2986748655871203 -1.6938693351809977
0.3377319218164845 -1.7374801147023653
0.3680036927474342 -1.7313212532988358
0.3981633661886413 -1.7246350146698664
0.4282017552114118 -1.7174234355085138
0.4581097098314617 -1.709688712531651
0.4878781197960885 -1.7014332018108245
0.508726766217562 -1.6639702753756815
0.546960080043657 -1.6833700338424218
0.5925340411120253 -1.7208438075907566
0.6224766608527172 -1.710240569830353
0.6414786296860877 -1.6711089634299912
0.6705458022144828 -1.6596590996745493
0.7189452764202636 -1.6937289303524903
0.7483954232594727 -1.6809236420623854
0.777617601602887 -1.667606328147436
0.8197540444955749 -1.6807448665794422
0.8489622345129527 -1.6661822002322482
0.8873012536653336 -1.6687709505033717
0.9162901822655771 -1.6530312464934578
0.9449999999999997 -1.6367880131525891
0.9991738653255052 -1.6629045633620976
1.0280433726124174 -1.6452133065434662
1.083831679679904 -1.6689544302113937
1.1127938779067863 -1.649784769384533
1.1414171083385816 -1.6301125681350936
1.1990819146766452 -1.650394668524893
1.2277026472301784 -1.6292164404964773
1.286732483430626 -1.6469424750380486
1.3467456368466522 -1.6630923575179177
1.3755654847291943 -1.639335108274613
1.4039663220396856 -1.6150785016767322
1.4653960279258995 -1.6274871677954934
1.493576408536872 -1.601664606545983
1.556034749828154 -1.6113211527585787
1.619274528917194 -1.6192745289171937
1.6904485307958304 -1.6324471705786436
1.718681198805051 -1.6026961461468714
5.135130744048795 -4.623692489939709
5.252778678350493 -4.56617084177393
5.446575990575934 -4.570219904871294
5.7975088724690025 -4.694730117231787
5.839159684225811 -4.562051532163127
5.83802557844571 -4.399267819241473
3.6082157949122657 -2.6215222252244303
3.612460515314454 -2.529472084308113
3.614603816339982 -2.438081059132456
3.614670147844777 -2.347394240914766
3.570282484818554 -2.2309601024217924
3.5658159709207875 -2.142558391625825
3.559364409554043 -2.055
3.550956010985946 -1.9683270582001282
3.540619847364297 -1.882580966771422
3.528385835785937 -1.7978023789686053
3.5592244233447015 -1.7359497412847464
3.4983480579614685 -1.6313064903190995
3.5262854665004397 -1.5700034422725886
3.5071234916537977 -1.4886855995441326
3.5789296786277993 -1.4459814505854198
3.696978488928919 -1.4191370801993892
3.9091213024693787 -1.4228037962347821
4.075185060833055 -1.4031987457103452
4.241712062676385 -1.3782157949122653
4.456380162787746 -1.3624521440079531
4.719794927057146 -1.3533794170614657
4.694399515764872 -1.2578605591982506
4.715637229701343 -1.1757404126143847
4.686720011616981 -1.08201457139399
4.704889959529605 -1.0000552328334227
4.81978947072803 -0.9368721672988353
7.494387000422903 -1.32146263204534
7.466923854899242 -1.1826445557041454
7.733993616871664 -1.0869419184981108
7.6525308291545935 -0.9396126376536867
10.949686068004688 -1.1508583805768637
8.477616880760754 -0.7416953707825702
8.638904675250078 -0.604091062624124
10.595459363746027 -0.5552844957376348
7.655333734966273 -0.2673301447411578
7.30888665159322 -0.12757709105654264
7.31 0.0
7.30888665159322 0.12757709105654264
7.355516486860545 0.25686029573040753
8.99765210813871 0.4715469657489246
9.187564902892982 0.642457123183395
10.818674421276356 0.946511366239569
10.70105559416262 1.1247262647599527
10.679796591660626 1.3113141350393864
10.754311226533453 1.5114198764263103
10.034913540446599 1.5893741648087456
10.448810259459526 1.8424071650461311
10.415064416379714 2.024483440945141
10.133609143602225 2.153965116871987
9.89959985821799 2.2855027121336695
10.682955946298721 2.663560070552343
10.538250764813734 2.8237157820685033
9.958671169920983 2.8556030062641105
9.668241082786288 2.955877934746868
5.002557275712507 1.6254293904122232
3.366046129133568 1.159022629867478
3.2043518368799475 1.1662886887405306
3.1368302330305977 1.204116310472209
3.161696944072745 1.2774084835482604
3.3230225209633093 1.4105393738462786
3.206544556325529 1.427645617196059
3.181140332498641 1.4833900987098547
3.3794656140848676 1.6482755119269317
4.196640728927213 2.1382952537732653
3.98209364379376 2.117316748164368
3.8133419231277657 2.1137699442740296
3.6026656797432652 2.079999999999999
3.43724087581547 2.0653026803893173
3.2734656511638045 2.0454883599401708
3.2372683922693364 2.102306675158005
3.200085030062461 2.1584846073970825
3.202884493169958 2.242683866132591
3.1632564480060448 2.29824033646357
3.2025283952896437 2.413278242839714
3.199323659643291 2.4995855898221726
3.155212603515302 2.5550407876623393
3.1867448833749488 2.673996456296004
3.1395918537267318 2.72920556060051
3.1657969565336987 2.8504963830887364
3.1521344539786247 2.9394129318693683
3.1363215294765183 3.0287104952012287
3.153696244092002 3.1536962440920018
5.529480628853618 5.7259448106956645
5.326407192088113 5.711872409645721
4.623692489939711 5.135130744048793
4.467761987425354 5.139572241317077
4.409523002449661 5.25506487979619
4.348603902154377 5.370078593667669
4.531268458396846 5.799759146545473
1.4202834546388337 1.8847798037116112
1.3636617853185375 1.876919426949878
1.3134900392438953 1.8758581814217914
1.252592103774473 1.8570441625232936
1.2472233901844123 1.9205556005950208
1.1605231886707188 1.8572253305825728
1.1021814803075163 1.8343380235025202
1.0699999999999998 1.853294364098699
1.0132521063148445 1.827955187921337
0.9811955662225114 1.8453604690751573
0.9261406194686757 1.8176533093442706
0.8942771394497175 1.8335398544503008
0.8621412539510269 1.848867885554766
0.8297427518746328 1.8636327335909055
0.7775549456936547 1.8318046583703564
0.7267367912268696 1.7987366778595673
0.6952338221178823 1.8111460274045714
0.6635190780517976 1.823003684324662
0.6153238119240259 1.7870301078827087
0.5840421193686507 1.7974968157978402
0.552582521925972 1.807415988770137
0.5071727347032785 1.7687215205265068
0.4839916143417142 1.8062812951605576
0.4572323826833719 1.8338589226616333
0.42065847162302783 1.82207202114839
0.3887948618292098 1.8291360133722168
0.34727237158531177 1.7865614738747484
0.316039683353813 1.7923501104822188
0.2847107263732203 1.7975927798831508
0.24911985071851678 1.772579843047411
0.22180220499736844 1.806433995987206
0.185015379983747 1.7603037548018436
0.1542656646633549 1.7632646156223897
0.12346895852710206 1.7656883689598888
0.09525144036215762 1.8175057532533245
0.06177210916342691 1.7689217638237995
0.030890759393991576 1.7697304204268125
