# .PCD v0.7 - Point Cloud Data file format
VERSION 0.7
FIELDS x y
SIZE 4 4
TYPE F F
COUNT 1 1
WIDTH 169
HEIGHT 1
VIEWPOINT 0 0 0 1 0 0 0
POINTS 169
DATA ascii
7.109074669050385e-16 -11.61
0.24276297354261486 -13.907881439625402
0.5203514958342911 -14.900917230854718
1.1937831619015518 -22.778739687751827
2.442174145781832 -34.924717399596446
3.7790730055384567 -43.195002109258084
4.527127744122072 -43.07274328839992
5.290348197217452 -43.086428442749785
4.6776079232678 -33.282909790404176
3.568270147567667 -22.52917104897509
3.9435501148159897 -22.364984070907244
2.835421671295457 -14.586979946032287
2.6217664212119467 -12.334441245253288
2.454216002891569 -10.630377406806916
2.324869416712806 -9.324541929512325
2.2154910260775775 -8.268325073034426
2.1389458811399136 -7.459390760481354
2.0787628205786586 -6.799326814897182
1.2082564480060445 -3.7186309787140504
1.2892498916503408 -3.7442535593732944
1.3372987604033653 -3.6741981472729015
1.3833002852448595 -3.6036204462791988
1.8580487033429245 -4.598831918651265
1.8208070587600156 -4.289552617088372
1.7937085959642798 -4.02873546820387
1.7792228819283447 -3.8155557834242964
1.7578682986242005 -3.604164125659659
1.7524033289946508 -3.4392851833671
1.7182659197963606 -3.2315881898636727
1.6774412860523265 -3.0261841867023094
1.6799999999999995 -2.909845356715714
1.6532722204612742 -2.75150703525378
1.6745448749769276 -2.679831983854306
1.6393634953952314 -2.524398409515726
1.6272513490998737 -2.412499336135171
1.6117497861464394 -2.301817244452067
1.6222872963272257 -2.2328869044748547
1.6008279615844485 -2.124370456725799
1.5760933768336856 -2.017307529233208
1.5795941815350918 -1.9506363632569967
1.5812575198288867 -1.8844693300726858
1.6007840307368377 -1.8414913757435636
1.5657656188797282 -1.7389588916171024
1.5617762445431218 -1.6747999767079
1.5907676683511038 -1.647288142775511
1.548563850798539 -1.5485638507985389
1.5393871727247137 -1.4865689127822541
1.5285292363840663 -1.4253765725306218
1.5160154439738844 -1.3650264369720706
1.539607543654455 -1.3383604191406349
1.5244284418067662 -1.279147343276213
1.5076631652265235 -1.2208815586366846
1.5287408619970406 -1.194383262131777
1.469489338487019 -1.1073396425997688
1.4885912696499033 -1.0815248642181505
1.4662821592772954 -1.0267018210683725
1.4839772548735248 -1.0009552972126368
1.4592867882250378 -0.9476719209261469
1.4756036873121814 -0.9220595197657765
1.4914711032216754 -0.8961662503434941
1.5068842025849232 -0.87
1.434376319708609 -0.7950877772039927
1.4480340522886401 -0.7699333629688608
1.4612506996689232 -0.7445444195728567
1.4290825336156756 -0.6970101233946331
1.4410293813882735 -0.671963036167712
1.4525372776517356 -0.6467112624905222
1.4175774743167582 -0.6017259378734815
1.4278631360328526 -0.5768941538605044
1.4190422482757468 -0.5447192833088566
1.4471266360102988 -0.5267110207215299
1.4088226776429822 -0.4850965501411635
1.4170742092797788 -0.4604353216186716
1.4057679912656622 -0.42978640594242296
1.3842168421511791 -0.3969177923764787
1.468207255959384 -0.39340494855583147
1.4263347176257148 -0.3556251865315114
1.383605491995034 -0.3194304971682881
1.4378769730786942 -0.3056301855021063
1.442991959668066 -0.28048922320352093
1.3688827766869691 -0.2413709669570332
1.442024977268901 -0.22839431895873707
1.6438449941110067 -0.23102734759370858
1.6972539193066607 -0.2083965772228021
1.531563718867141 -0.16097383343218621
1.5640256760040405 -0.13683451611382316
1.5661755589079243 -0.10951766377827653
1.7076565044303211 -0.08949448517543407
2.50847097581793 -0.08759773672327754
2.289651221908136 -0.039966010741379294
2.32 0.0
4.419326812591249 0.07713963645279323
4.956978502014715 0.17310150364440505
6.401215317776819 0.3354734795172704
8.938173890328025 0.6250180047473637
12.910683287269023 1.1295384260096515
19.452848273403426 2.0445767415153044
19.463830033686325 2.3898578241749413
21.696773386127806 3.049282642035033
19.36856835907065 3.067679859438927
19.36132042422001 3.413923172931851
19.10246498989154 3.713143050027563
13.997292166500758 2.975216295602137
11.750902981309938 2.712909715387013
10.246322869474524 2.5546952175324926
9.041065734065677 2.4225462621595955
8.13227394763818 2.331892030211813
7.325294430676853 2.239567258176163
6.714459005043784 2.1816599802871286
6.628085214951211 2.2822327627446684
2.35862847817263 0.8584705597474286
2.3246152619780327 0.8923361943677979
4.233319958069076 2.0647281013765553
3.884788445461284 1.9793985788644242
2.465647653309865 1.7264650734166491
2.3137886039123496 1.681065821556473
2.228193073031947 1.6790639145942152
2.2537107553152245 1.7607918194313827
2.222637449766937 1.7998563184025345
2.152584885164328 1.8062331832191756
2.045262962403712 1.7779199685642744
1.9767652357698684 1.7798874129145632
1.9088331612260352 1.780015719763121
1.8415098888669466 1.7783254283750334
1.739482681718907 1.7394826817189066
1.708859591329133 1.7695759088330822
1.6095161297474962 1.7259947358212422
1.5456917006889628 1.7166645468527806
1.515496356968072 1.7433791303146033
1.3241424759542713 1.5780515528250947
1.264933986010173 1.5620633825285113
1.2374795654045732 1.5839016147495109
1.2096481965356167 1.6052573751950587
1.1814483571078709 1.6261241586936441
1.1815674588831546 1.6874532112353233
1.2637759618438877 1.8736249139743941
1.2581161708847128 1.9373290119539293
1.2506094635903635 2.001393506929165
1.2669936642787334 2.108631559727196
1.1799999999999997 2.0438199529312753
1.1441507037813556 2.0641025088489737
1.1314264663139966 2.127903698790014
1.1168166293592852 2.191876049503385
1.0564744637616763 2.1660936515809928
1.0185100107950857 2.1842017667583264
0.9598984776588888 2.1559672800365375
0.9416620196591498 2.2184166968203813
0.8840715604615527 2.1881538967776177
0.8457483609269083 2.203249806533396
0.790066531082295 2.1706899540154483
0.7520624367960316 2.184147909634422
0.6983784072873812 2.149387726827047
0.6607600526733846 2.16124874847646
0.6091585563555681 2.1243883480236847
0.5719900896765713 2.1346960760988405
0.5346473892752656 2.144353555069952
0.48589427738274876 2.1046393399361083
0.44908925216636 2.1127988175850203
0.41214743001333703 2.1203147162469542
0.3750800637605693 2.12718474650637
0.33007672123488724 2.0840223986557405
0.2797379329297311 1.9904388181705561
0.2510508474146038 2.0446450723811234
0.2153286343313666 2.048715104458643
0.17954083006017577 2.052161078068996
0.14369833591289843 2.054981943535238
0.10781206986046411 2.0571768415944223
0.07189296320715223 2.058745103659337
0.03507933693893958 2.009693867264346
