# .PCD v0.7 - Point Cloud Data file format
VERSION 0.7
FIELDS x y
SIZE 4 4
TYPE F F
COUNT 1 1
WIDTH 180
HEIGHT 1
VIEWPOINT 0 0 0 1 0 0 0
POINTS 180
DATA ascii
5.449678256205722e-17 -0.89
0.016056213922300912 -0.91985987954388
0.032107536966301 -0.9194395608575682
0.04553228193136125 -0.8688076952364793
0.06417595584459543 -0.9177589262390383
0.07756861104541575 -0.8866132813016535
0.0909397630428585 -0.8652340489703978
0.1121197959327357 -0.9131424595100163
0.12108059783525696 -0.8615332198051662
0.13922667388580554 -0.8790426231296726
0.15454687812356807 -0.8764789001808652
0.16982000588512497 -0.8736481932684209
0.18504140482780593 -0.870551364653087
0.20020643836604 -0.8671893576588594
0.21531048708370423 -0.8635631963856368
0.23034895014124346 -0.8596739853972708
0.24531724667712926 -0.8555229093851038
0.26021081720323574 -0.8511112328071015
0.27502512499370324 -0.8464402995026866
0.28975565746686954 -0.8415115322833919
0.30439792755984524 -0.8363264324994584
0.31894747509531735 -0.8308865795825096
0.33339986814016187 -0.8251936305644407
0.36728726077991725 -0.8652745622452939
0.3823324444912523 -0.8587327301840446
0.39726116603625744 -0.8519293198144509
0.4120688779817328 -0.8448664035212169
0.426751069755174 -0.8375461327370658
0.46477684715803197 -0.8741181169303376
0.45572104303155686 -0.822142524711032
0.4949999999999999 -0.8573651497465943
0.5098876941609537 -0.8485956276950911
0.5246200715908729 -0.8395676151948617
0.5664245964156281 -0.8722173906632409
0.5815606196095768 -0.8621990754572433
0.596519493805088 -0.8519181260605515
0.6112966623841721 -0.8413776741499454
0.6258876240781303 -0.8305809304491846
0.6710710081049677 -0.8589317214313269
0.6859592262443228 -0.8470890979880984
0.7006384945583279 -0.8349884429996861
0.7479072930491782 -0.86036892145396
0.7628088912490983 -0.8471851010442294
0.7774781304712484 -0.8337432198458541
0.7919105423232567 -0.8200473723860622
0.8414570696119916 -0.8414570696119914
0.8919813524199275 -0.8613763793691566
0.9068785900077715 -0.8456779664774982
0.921499583591969 -0.8297219518849841
0.973575358487376 -0.8463161473977544
0.9881973316234817 -0.8291960164956357
1.041375588352341 -0.8432893240067821
1.0953349475133436 -0.8557694507026649
1.0701715834633725 -0.8064321310237448
1.1245336221811768 -0.8170215006865376
1.1795789437761481 -0.8259500683455063
1.235265983107012 -0.8331974261714127
1.2915526746359531 -0.8387441139231415
1.3059940680808961 -0.8160756669191356
1.320037643081253 -0.7931586353614832
1.4202816622064791 -0.82
1.4781073050655789 -0.8193282582163096
1.4921814319315865 -0.7934069411081555
1.5949016782971785 -0.8126429945337887
1.6537810451904673 -0.8066029100919024
1.7129217174992684 -0.7987485146899218
1.817955460708776 -0.8094059197208423
1.9238551437156002 -0.8166280585425819
1.9563579331359213 -0.7904199121075741
2.016533721233956 -0.7740747710178487
2.1237053229761527 -0.7729655239160114
2.2314238384143876 -0.7683408445188897
2.339599030086078 -0.7601818061623706
2.495955413063523 -0.7630901493263428
2.605019195992844 -0.7469772342640676
2.6466367640320474 -0.7091641835809067
2.7071250763100303 -0.6749620887230726
2.835416888525035 -0.6546075681406468
2.8561909941427124 -0.6071021371878574
3.5436741322460668 -0.6888204733093269
3.6043963760246815 -0.6355523302609651
3.5951855597663016 -0.5694214527464404
4.515622393461561 -0.6346293403778982
7.305139676080131 -0.8969583674618852
7.319681149910492 -0.769329489649929
6.7342761591002 -0.5891728209741686
6.743532979756412 -0.4715537625102862
6.900530085154105 -0.3616414576387424
6.905790614701952 -0.24115552221428205
6.958939958288483 -0.12146874880349341
21.06 0.0
21.0567924599936 0.36754767956919127
29.19220605722779 1.0194142986800547
27.172709640671954 1.4240613693705038
9.98561614310084 0.6982623021786952
2.6598398439049604 0.23270583313624763
2.605647365864876 0.27386457376125245
2.7394273785300487 0.3363593877982069
2.7826532731638127 0.3910764136977838
2.72601982004258 0.4317591235110372
2.7673097859643048 0.48795137924407433
2.8565351038327025 0.5552541765457456
3.042039038282135 0.6466053584432317
3.0790094047213437 0.7108453317266137
3.1146492813459488 0.7765692848749337
3.1489181937023623 0.843750087034218
3.1817762135558354 0.912359647754267
3.1653687422376477 0.9677503426322586
4.289264888491142 1.3936666446310126
4.264288775952918 1.4683123766017767
2.7814901575262887 1.0123796242439795
2.6700400197819967 1.0249323356995588
2.559027438604333 1.0339141978279174
2.494568152856113 1.0588813582059322
2.3386763715650583 1.0412458062740488
2.1842017667583264 1.0185100107950855
2.121153949266034 1.034555906422223
2.0136747446657113 1.0260185294113757
1.8630194209323356 0.9905849974782299
1.845447582064125 1.022948298719771
1.766691823720255 1.0199999999999996
1.6629045633620976 0.9991738653255052
1.602810901735645 1.0015474094007573
1.54315384501958 1.0021358244276501
1.4425253762457726 0.9729956520390994
1.4253245570628454 0.9980229992508205
1.3672387204936611 0.9933570763742796
1.30976223647756 0.9869766379693594
1.252937098234688 0.9789017457677968
1.1968047806437354 0.9691534022167494
1.1414062202472772 0.9577535384329436
1.1245172745319303 0.9775279531958556
1.1072857899613173 0.9970046034746989
1.016581645250647 0.9479777204868728
0.9998823224707247 0.9655751349380063
0.9475230867899738 0.9475230867899737
0.9308422164150563 0.9639153324537928
0.8797778844806231 0.9434462750887299
0.8631784822029273 0.9586568248658385
0.813513195948229 0.9358398794762373
0.7970566360113089 0.9498951094675328
0.7803572849017983 0.9636609922066439
0.7634202294038164 0.9771333344723352
0.7161598775509372 0.9503762569562786
0.699464450228043 0.9627302233061874
0.6538771374401923 0.9338333304894507
0.6374799099566513 0.9451028327127475
0.6208884999171309 0.9560844474577832
0.5776119980141934 0.9243724248105044
0.5613915016519592 0.9343123577653024
0.5199999999999999 0.9006664199358163
0.5042020050561906 0.9096044954249716
0.48825042529732626 0.918265496573284
0.47215011972912874 0.9266467851559026
0.45590599266064036 0.9347458081511337
0.41839207912329246 0.8972447091662834
0.4026692766450424 0.9044100030661747
0.38682381720438097 0.911299804917916
0.3708605274817531 0.9179120160211194
0.35478427004984714 0.9242446222322297
0.32149893472612867 0.8833110635387538
0.30603406518972714 0.8887874610633578
0.29047597471245057 0.8939931253174442
0.2748294024393723 0.8989264706052533
0.2590991144679792 0.9035859941820197
0.2432899023963697 0.907970276711724
0.2274065818636876 0.9120779826994366
0.20020643836604 0.8671893576588594
0.19543698936869366 0.9194587446897773
0.1793604556539522 0.9227295524408041
0.1545468781235679 0.8764789001808653
0.13922667388580554 0.8790426231296726
0.12386405985445807 0.8813385811799976
0.11455718280083864 0.9329933825428426
0.09303033230821177 0.8851244868777632
0.0801832833278455 0.916499122244406
0.06208326163227166 0.8878320047312436
0.04553228193136106 0.8688076952364793
0.031409547032250976 0.8994517443171862
0.016056213922300708 0.91985987954388
