# .PCD v0.7 - Point Cloud Data file format
VERSION 0.7
FIELDS x y
SIZE 4 4
TYPE F F
COUNT 1 1
WIDTH 180
HEIGHT 1
VIEWPOINT 0 0 0 1 0 0 0
POINTS 180
DATA ascii
3.0983564018428034e-16 -5.06
0.0926722781819759 -5.3091912612804375
0.18531632749028074 -5.3067652914713985
0.27790392765003247 -5.302722829546787
0.3669190518940999 -5.247186904366675
0.4584392068526818 -5.239984111962581
0.5498197167878571 -5.231185169637118
0.6349392791408184 -5.171165450051287
0.725091856001941 -5.159296638143582
0.8072018396075916 -5.096471837470911
0.8873421878780144 -5.032367617892383
0.9750339663741446 -5.016114907417563
1.0624287400787509 -4.998334239749747
1.1382523349799576 -4.93031252781329
1.2241247917343183 -4.909696374956542
1.309624368218755 -4.887584681022685
1.3947250204340156 -4.8639841814478935
1.4647822406609112 -4.791086827374808
1.563625991537234 -4.8123459724534765
2.265954355021811 -6.580809286171244
2.380460197546655 -6.5402606406699215
2.4763225313580257 -6.451040747095664
2.588531560503953 -6.4068404350565
2.719488654285345 -6.406713780028985
2.9529080287303104 -6.632340022485281
5.62504906376871 -12.062956645457811
10.766395365139742 -22.07438177710754
9.084349899788334 -17.829040549009243
8.103079173684478 -15.239675452745079
8.392054526464095 -15.13966713058294
8.579999999999998 -14.860995928940968
8.889557172947537 -14.794707610118458
8.192551825045348 -13.110823566578347
7.330841411302265 -11.288505844545407
6.995503222419043 -10.37126003266357
7.175441218751586 -10.247592074055287
6.324569314667011 -8.705022859474434
5.963986879436798 -7.914477904568672
5.824157556580729 -7.45458172911959
5.575778664701559 -6.885513218508762
5.373704416979469 -6.404131544474656
3.9101118127834233 -4.498069098127721
3.7872792319911377 -4.206199712202052
3.791910881947492 -4.066326581002587
3.897033458274975 -4.035496279899832
3.966869042456532 -3.9668690424565316
4.1074302599336985 -3.966499295320874
3.2252698241405424 -3.0076127678756186
3.1657969565336996 -2.8504963830887355
3.064120895704454 -2.663599657701459
2.956931550439255 -2.4811601733900415
2.9997834112239077 -2.4291767094523724
3.0417215089219467 -2.3764532947570407
3.08273306878255 -2.3230059893669064
3.203707297724792 -2.3276295990781937
2.7523508688110123 -1.9272168261395146
2.619758729273932 -1.7670495749675599
2.566331937912998 -1.6665954471459825
2.4678199598152 -1.5420650589186264
2.4086401149729357 -1.4472569904972519
2.39023011444505 -1.38
2.282757435633823 -1.2653531088429397
2.260345837718853 -1.2018472007318806
2.2364263757128033 -1.1395161543462624
2.1660936515809928 -1.0564744637616765
2.138886377406494 -0.9973790977080504
2.110290007154408 -0.9395616455050984
2.080340968802515 -0.8830523503857584
2.0490763185926 -0.8278805714491653
2.016533721233956 -0.7740747710178487
2.0297360608975623 -0.7387635095834446
3.8860813457131926 -1.3380851148189141
4.051500759417354 -1.3164123960372758
5.030163016365567 -1.537875166841595
4.960110351041726 -1.4222887560157154
4.93588097233714 -1.3225653204738808
4.861181588642742 -1.2120286969543348
4.881594024574029 -1.127004782262763
4.8027047196029855 -1.0208464019151986
4.770708111555647 -0.9273317175300081
4.68768490433811 -0.8265653256945885
4.701396501232856 -0.7446280535914989
4.664162603772796 -0.6555053055219081
4.377128528738231 -0.5374438044167003
1.899536820153402 -0.19964936484121795
1.832998244488812 -0.16036656665569085
1.805590930970282 -0.12625921747686658
1.607793550954864 -0.0842608895511397
1.5590496901497894 -0.05444321485590159
1.5097700196861508 -0.026353133720298138
1.56 0.0
1.5097700196861508 0.026353133720298138
1.5590496901497894 0.05444321485590159
1.5079305974794064 0.0790272939268453
1.5063217158923345 0.10533227535362935
1.4544442592139484 0.1272473844115811
1.452001967237679 0.15261155637077425
1.4491173813963303 0.17792924137151525
1.3962779769256142 0.19623407235369222
1.442024977268901 0.22839431895873707
1.4870597070484342 0.26220874827706486
1.6098685808541688 0.31292675241753354
1.604162065203441 0.3409751729411254
1.5979669062477857 0.3689197291239387
1.5427702047788345 0.3846558140034719
1.5358220637996185 0.41152228171300825
1.528406096541927 0.4382633957490286
1.5205245619812267 0.4648710105091514
1.5407115563981488 0.5006075308874148
1.5317400924708935 0.5274204102205939
1.5223020456731715 0.5540726321875834
1.512400290925467 0.5805560782633865
1.5020378443981957 0.6068626813337776
1.4451926199203313 0.6134478717281601
1.4342663684988834 0.6385765296290066
1.4229032256475405 0.6635106709328981
1.4560463550046505 0.7101612577983057
1.3988802429757377 0.7127650845910886
1.4303751004314615 0.7605439317131434
1.4168839255658212 0.7853915847990661
1.4029611541307907 0.8099999999999998
1.3628960081163586 0.8189105391069863
1.365357434811846 0.8531700154154599
1.434126671186675 0.9313327498756965
2.3710474575074194 1.5992917039263357
2.383732448880966 1.6691074297815447
2.3137886039123496 1.681065821556473
2.324029334237622 1.7512817173724613
2.2537107553152245 1.7607918194313827
2.1449228536212397 1.7369242792975508
2.152584885164328 1.8062331832191756
2.2716758364705436 1.9747376772614265
3.1657969565336987 2.8504963830887364
3.1155667688976663 2.9053130138662433
2.9564865793918558 2.8550459025864794
2.941564209736038 2.9415642097360375
2.889778821109428 2.9924535694087897
2.9053130138662433 3.115566768897666
2.984322504360508 3.314425921629178
2.958826220747188 3.403740206804702
2.9311115001706196 3.4931626606225397
2.869700983187258 3.543785584243787
1.2682626391708562 1.6233021524298472
1.2397389476932192 1.6451891506974234
1.2108376197224946 1.6665750084123918
1.2102462807007068 1.7284108134497729
1.207856671496813 1.7907211567188903
1.1764203156324589 1.811528426762116
1.1446256107437227 1.8317838876978803
1.1279333840530188 1.8771963885376257
1.1049999999999998 1.9139161423636095
1.0956697417567218 1.9766405381350343
1.0610057318961128 1.995461559861175
1.0487180543983532 2.05822507087513
1.0345559064222223 2.1211539492660343
0.9889267324732366 2.1207602216657606
1.0005721419664688 2.247321825800798
0.9416620196591498 2.2184166968203813
0.9402625494739395 2.327231474962636
0.9174219508359684 2.3899658918328366
0.5848544450868937 1.6068743815439033
0.5664885887554524 1.6452023215428113
0.5376895702124086 1.6548383383535672
0.4999556150758795 1.6352811326967907
0.4989036140287685 1.7398836696483573
0.7272815167380839 2.7142515718722815
0.8491458535548335 3.4057379992287475
0.39591385564520265 1.7148913140220141
0.37216192656378905 1.7508842053135123
0.33200765195518817 1.7080312991989353
0.2969383838104507 1.684021257650876
0.283146381722818 1.7877158964771993
0.4676216192258192 3.3273007109716763
0.42776139535206764 3.48383699226104
0.3825741755596125 3.6399501370478804
0.33206337986857754 3.7955017997295504
0.15764963066172352 2.2544947535872026
0.09996167642402255 1.9073824113812359
0.06665803870177706 1.9088364796064727
0.033334096295211245 1.9097090977487072
