# .PCD v0.7 - Point Cloud Data file format
VERSION 0.7
FIELDS x y
SIZE 4 4
TYPE F F
COUNT 1 1
WIDTH 180
HEIGHT 1
VIEWPOINT 0 0 0 1 0 0 0
POINTS 180
DATA ascii
6.55186037543834e-17 -1.07
0.018674074887893452 -1.0698370338173386
0.03734246147167616 -1.0693481849104325
0.05599947317995005 -1.0685336021873941
0.07812725059342052 -1.1172717362910032
0.09761443187737713 -1.115738061862755
0.1118454556963892 -1.0641384280440525
0.13283758431161077 -1.081875305289041
0.15587387307527334 -1.109100236990559
0.17051356689385172 -1.0765802912487001
0.18927651365695417 -1.0734404507833069
0.20798180496043397 -1.0699736299579539
0.23701932753224575 -1.1150882648365383
0.25644420195200623 -1.110781873855168
0.2709525230716278 -1.086731213429116
0.29505371141687364 -1.1011554419695377
0.314226585631379 -1.0958383333696835
0.3333037433839199 -1.0901874217978602
0.35227937358744005 -1.084204428576475
0.37114769608115866 -1.077891176183221
0.4070039705575459 -1.1182342187352308
0.42645785995890745 -1.11096070753167
0.4457818461649355 -1.103348786934477
0.4649700429022357 -1.095400775608404
0.5043534374139924 -1.1327963674768249
0.5240466445584673 -1.123821655925446
0.543580222018456 -1.114504617410967
0.5856477446640155 -1.1493984162029947
0.6056183159937992 -1.1390023947880157
0.6254044101177749 -1.1282594222098206
0.6449999999999999 -1.117172770881926
0.66439911663397 -1.105745817905725
0.7100918140724947 -1.1363844488496109
0.7298163069201363 -1.123818561046868
0.7772781358243381 -1.1523622258515078
0.797271246527954 -1.1386213415616986
0.8170215006865376 -1.1245336221811768
0.8666136333389495 -1.1500351344681017
0.8865525244689481 -1.1347354851936795
0.9376873826642577 -1.1579474825708866
0.9577535384329436 -1.1414062202472772
1.0103309046453812 -1.162252753543069
1.0639176641105847 -1.1816002725090569
1.0843773924993727 -1.162852385574481
1.1045068090298056 -1.1437502825384553
1.1950104602052654 -1.1950104602052651
1.2156842625723205 -1.1739726460757054
1.3091231258983154 -1.2207770645118723
1.330229237604536 -1.197743785382356
1.3886656276099005 -1.2071486133425335
1.4095217753389195 -1.1827292018232323
1.468805867153675 -1.1894155390841925
1.5287408619970406 -1.194383262131777
1.6292164404964773 -1.2277026472301784
1.650394668524893 -1.1990819146766452
1.7529853747784425 -1.2274535737912387
1.8155922838955414 -1.2246324586009354
1.8953954835566582 -1.2308842191339608
1.9589911021213442 -1.2241135003787034
2.065773194692091 -1.2412417605332302
2.173723763498941 -1.255
2.239026450276853 -1.2411126278306228
2.3927879766476923 -1.272267935149764
2.5037283329693136 -1.2757133042681266
2.7053700793604927 -1.3194971518351228
2.818617217683981 -1.314342794013575
2.932480919032749 -1.3056246242733185
3.1849467929454436 -1.3519297045728869
3.3007745222577634 -1.3335994725606464
3.6036204462791988 -1.3833002852448593
3.8151520403907875 -1.3886017819022152
4.122460989613022 -1.4194771534332034
4.431923365935416 -1.4400191937872548
4.743271589576656 -1.450163655424774
5.200425775026305 -1.4911980949699652
5.660325342053941 -1.5166796043007713
6.753258254880936 -1.6837763933736867
7.025208167101546 -1.6218971018192656
7.981684421987854 -1.6965593970729167
9.188030437070134 -1.7859721967244597
10.74425258536319 -1.8945016183462102
13.343669481440312 -2.113429622693519
15.21051753587052 -2.1376988307466047
15.245508889210706 -1.8719131147030645
15.275856312856677 -1.605557195791156
15.301550562689211 -1.338712208604028
15.27270560947791 -1.0679716130225565
15.338949653830253 -0.8038802878916184
15.400612644364266 -0.5378012441855407
15.35766059760217 -0.2680689628766751
15.46 0.0
15.50763775187563 0.27068682384226767
13.102013742220345 0.4575324017697883
11.444294468287417 0.5997700585441372
10.035494345613833 0.7017501258659016
9.772669988280024 0.8549978363545279
9.338560597508087 0.9815222700832674
7.503648906408395 0.9213322361429146
6.892265758441329 0.9686447826820552
6.38046668024459 1.0105666441598915
5.91869459560337 1.0436255477782515
5.556009858313778 1.079978913831244
5.389593280043268 1.1455934164058543
5.368779056966646 1.2394803094346967
5.39484423809454 1.3450857395341531
5.515436468110579 1.4778567475353943
5.488804283807801 1.5738893017150648
5.508315394347084 1.6840610192029635
5.525638359674842 1.7953887373184443
5.540738853011997 1.9078293851189383
5.506598757805423 2.004238039888419
5.5641393419233225 2.13587297928999
5.526015773218052 2.2326552967588364
5.532234169249166 2.348294082220536
5.490408200432031 2.44448722488556
5.492225189442098 2.5610666661486383
5.49163162288791 2.678447706881264
5.488600189000346 2.7965814783956082
5.350662412725097 2.844997670482499
5.256464439907768 2.9137058176804858
5.074908866176811 2.9299999999999993
4.894425287009061 2.94086740773641
4.715147414629729 2.9463511091366192
4.243673073803845 2.7558735171760373
4.070574481245255 2.745637156041367
3.9401213330300497 2.758902658848532
1.893099766837377 1.375417490364387
1.8288753180083004 1.378156403018191
1.7651440880790572 1.3790817047294748
1.7019496555907665 1.3782116563991436
1.639335108274613 1.3755654847291943
1.5773430226655933 1.3711633705901598
1.516015443973884 1.365026436972071
1.491961551303108 1.3912766545274968
1.4314862026739155 1.3823701572134048
1.4071424945612296 1.4071424945612294
1.3476372386904545 1.3955192126569835
1.323076818521247 1.4188261811411906
1.2646568460182421 1.4045437201522748
1.2399515647920587 1.4264011066210391
1.1827292018232327 1.4095217753389195
1.1579495195317009 1.4299485690808265
1.1020340408329286 1.4105392489560322
1.0772488914421663 1.4295575629846544
1.0227463389889033 1.4076895702124086
0.9980229992508199 1.4253245570628459
0.9450360068655621 1.4010734976180206
0.9476719209261473 1.4592867882250375
0.8955635565541162 1.4332012825043599
0.8446624428524889 1.405754373151464
0.8199999999999997 1.4202816622064793
0.7950877772039928 1.434376319708609
0.7464597848295662 1.403886672645694
0.7218448945858795 1.416700373459505
0.6970101233946329 1.4290825336156756
0.6719630361677121 1.4410293813882735
0.6263744303367326 1.4068600047696052
0.6017259378734815 1.4175774743167582
0.5881323516629822 1.455678651669856
0.5698050397770272 1.4843928781305509
0.52671102072153 1.4471266360102988
0.5111420024977358 1.4844641636909275
0.4851566811686675 1.493158730583391
0.4444049911785596 1.453583229063814
0.4327506486326887 1.5091808626231606
0.40634590081095795 1.516503547273837
0.3677212813114949 1.4748495039395146
0.341925602602675 1.4810424984735575
0.3056301855021061 1.4378769730786944
0.28048922320352104 1.442991959668066
0.26394523005373394 1.4969077845785563
0.23778038686115102 1.5012862777046094
0.21154311345929916 1.505207464487187
0.17914793480556682 1.4590428429127433
0.1536568410034509 1.4619471861913618
0.12811894183905745 1.464406206194866
0.10602984009107069 1.516297356394933
0.0795506534892745 1.5179168928269522
0.053047234987801645 1.5190740570690255
0.02652765778467073 1.5197684966377147
