# .PCD v0.7 - Point Cloud Data file format
VERSION 0.7
FIELDS x y
SIZE 4 4
TYPE F F
COUNT 1 1
WIDTH 179
HEIGHT 1
VIEWPOINT 0 0 0 1 0 0 0
POINTS 179
DATA ascii
1.2185235651516163e-16 -1.99
0.03560290913205854 -2.0396892981190384
0.0711949732731022 -2.038757287118955
0.10938214854775288 -2.087135727637059
0.14579103012522218 -2.0849088650430323
0.18651328947998844 -2.1318566539163357
0.22891733455616106 -2.1780029508565186
0.2729873292275304 -2.2233033796765613
0.3117477461505467 -2.218200473981118
0.35823492494212883 -2.2618062999628656
0.4237015535073102 -2.4029309173497877
0.4751143984875969 -2.4442516867846833
0.507304525595333 -2.3866801457904856
0.5488805725990309 -2.377462958075974
0.6023855200431726 -2.4160363584272315
0.6574003745604027 -2.4534515987742336
0.7001188837751778 -2.44160470768333
0.7280055447596147 -2.3811988423479584
0.7849031657123665 -2.41568355138969
0.8432215200440359 -2.44889311080223
0.9029331783797657 -2.4807885188747982
0.928172989322328 -2.4179733046277523
0.9889614066180082 -2.4477653760563185
1.0315301792116827 -2.430132813114443
1.094121569873903 -2.457437281058596
1.1368431240824814 -2.4379679471285884
1.2011369422020723 -2.4626956868597176
1.2439339692863585 -2.441357876276128
1.2863520820333412 -2.41927640443346
1.3526188404872805 -2.4401889829189143
1.4199999999999997 -2.4595121467478056
1.4627081327445541 -2.4343551339939986
1.5049707104223018 -2.4084565930842494
1.5740068111934284 -2.4237579413622754
1.6160674910304587 -2.3959185846840705
1.6863147228720754 -2.408307010209636
1.728088641739871 -2.3785099634623457
1.7693361680670219 -2.347988399539041
1.8716108849900015 -2.3955526909644345
1.9131339887915058 -2.3625237228291915
1.9540743334470796 -2.328775107081693
2.0272223995806673 -2.3320526028883655
2.0676135736488717 -2.296317510725148
2.1414748505962455 -2.296450623084195
2.2159602017642013 -2.294693963080297
2.2556706319850868 -2.2556706319850863
2.33066095309723 -2.2506931202871514
2.3695859932461127 -2.209674686602495
2.482103717094497 -2.234896225238586
2.5207299979440583 -2.191237156828294
2.5585884400173864 -2.146910616353041
2.6345248093391316 -2.133396125658949
2.6713564547267876 -2.0870924013539813
2.7632788647636333 -2.082279980106087
2.8234693103685666 -2.0513705305007313
2.875223675454361 -2.0132532915921715
2.9099218796681963 -1.9627670911823212
2.9856672218857097 -1.938914964653496
3.019051222316877 -1.8865125806702094
3.0943739555346252 -1.859287450425295
3.1696529778510456 -1.83
3.244839113487158 -1.7986436911139105
3.2757355695066193 -1.7417394979356549
3.350184530948263 -1.7070042790206958
3.379465614084868 -1.648275511926931
3.4530326686096364 -1.6101755772320647
3.5262854665004397 -1.5700034422725886
13.540626394285399 -5.747654900077216
13.685233693405783 -5.52919331881886
13.873005137748418 -5.325347730243163
14.05780160695719 -5.116621344152005
10.457435446128445 -3.600783788296153
9.995603986262063 -3.247768610880697
9.524795369391835 -2.9120221790384577
9.093535643576498 -2.607529386028812
8.702991694864505 -2.331959596373711
8.354246203236329 -2.082947521113138
8.048296735126042 -1.8580957088803238
7.737147521804403 -1.6445814743684768
7.4701828660367235 -1.4520564548155064
7.248185062169851 -1.2780505876286075
7.071848518661186 -1.120070769688053
6.842752355004252 -0.961686127634052
6.610357369931205 -0.8116498270782819
6.424611444079045 -0.6752538727090409
6.2361788100543265 -0.5455949496003395
6.045238144574535 -0.42272423088939853
5.901900550399532 -0.3093055013957985
5.756491163629992 -0.20102110100640586
5.609145569827355 -0.09790800011316064
5.46 0.0
5.00923695273352 0.08743655625079051
4.90700896066376 0.17135652880928
4.8034080621695 0.25173594952856015
4.798283081749754 0.33552863870924315
4.791696497821295 0.41921912261623634
4.883102506258222 0.5132347546441792
4.923028912140958 0.6044719432895312
4.911729620958189 0.6902985807619244
4.94831858638164 0.7837366698515567
4.933886842591162 0.869977370111321
5.016114907417563 0.9750339663741443
4.998334239749747 1.0624287400787507
5.027749534291814 1.1607474404143439
5.006725947584142 1.248316981294286
5.032473554966045 1.348447224984134
5.008173435838642 1.4360706238065652
5.030163016365567 1.537875166841595
5.002557275712507 1.6254293904122232
5.020703636432372 1.728766900167502
4.989767816373173 1.816126961059301
5.003991086025001 1.9208522095628098
5.016064653206319 2.026621670380085
4.979931257177702 2.1138554051269716
4.942280925846471 2.20044523904008
4.948440517220108 2.3074957091042188
4.907415492793452 2.3935064614683634
4.909445948277907 2.5014876535649027
4.8650412366526865 2.586788310950259
4.86288557169504 2.695541488569634
4.815101245041479 2.779999999999999
4.765850191903744 2.8636116964999014
4.757549819437551 2.9728470723482796
4.704941886173828 3.0554249864343026
4.650900782033784 3.13707218847089
4.6364005706756934 3.2464426297469218
4.579036188162203 3.326864527975398
4.560208762370041 3.436363782198197
4.460140865414046 3.484643950343226
4.320931545700758 3.499021374237095
4.259207103741518 3.5738991098571584
4.1584497870274735 3.614885249737694
4.094727988380441 3.6869096410373094
4.0297588959216295 3.7578109639443666
4.179364239967562 4.0359651323667745
4.603265145524425 4.603265145524424
5.147418525101169 5.330307920509406
5.121807684069363 5.49246629915997
5.3597361569344555 5.952590052073927
5.025412162067286 5.781075384506433
13.697803962420155 16.32440708286542
14.16600200253184 17.493555592396415
16.013354973220377 20.496159701310837
15.562936498711965 20.652714289822995
15.229515886897978 20.961630324254887
14.029679633146584 20.036459003308742
14.348889903059362 21.273104111762372
13.975437638485598 21.52028677347958
11.335988028770295 18.86625228845349
10.629999999999999 18.41170008445717
8.319333083427145 15.008474174512031
6.858979532301862 12.899864331668923
5.7929187766766175 11.369243248643574
5.484023046331356 11.243913519202579
2.8146376231930583 6.0360098616640885
2.44448722488556 5.4904082004320305
2.231074743673753 5.256082713213434
2.064082329721676 5.108783038662998
1.9746074019946038 5.144028149999581
1.9016319968907185 5.2246909715696495
1.8101589387817902 5.257083280332202
1.7335853384434552 5.335427056415812
1.654823848730689 5.412684918750782
1.5601074339242154 5.440741199010885
1.4649157952802687 5.467140176796126
1.369277929094119 5.49187381072214
1.2619754148690836 5.46621606344517
1.1663845854876294 5.48740804011665
1.070438464062417 5.506928499141395
0.965483867828132 5.4755311067478765
0.8697756256236838 5.491547173708966
0.7668437862899594 5.456377058766052
0.6715000821623627 5.468929295543684
0.570725409441389 5.4300895487107725
0.47587035540221345 5.439223051580931
0.3773825229557187 5.396821511905649
0.2831375232743257 5.402585783022245
0.18880627716053086 5.406704374173308
0.0935448985038389 5.359183646038257
