# .PCD v0.7 - Point Cloud Data file format
VERSION 0.7
FIELDS x y
SIZE 4 4
TYPE F F
COUNT 1 1
WIDTH 179
HEIGHT 1
VIEWPOINT 0 0 0 1 0 0 0
POINTS 179
DATA ascii
5.3272135762909864e-17 -0.87
0.015532641729182404 -0.8898644486891882
0.032107536966301 -0.9194395608575682
0.048149079743508454 -0.918739171974208
0.06417595584459543 -0.9177589262390383
0.07756861104541575 -0.8866132813016535
0.09303033230821157 -0.8851244868777632
0.10846371563058127 -0.8833660749607766
0.11690540480645499 -0.8318251777429191
0.13922667388580554 -0.8790426231296726
0.16322928700691458 -0.9257192878314755
0.16982000588512497 -0.8736481932684209
0.1954369893686939 -0.9194587446897772
0.20020643836604 -0.8671893576588594
0.21531048708370423 -0.8635631963856368
0.23034895014124346 -0.8596739853972708
0.24531724667712926 -0.8555229093851038
0.27482940243937254 -0.8989264706052532
0.27502512499370324 -0.8464402995026866
0.3060340651897273 -0.8887874610633577
0.32149893472612867 -0.8833110635387538
0.3368658725725823 -0.8775656009073696
0.3708605274817531 -0.9179120160211194
0.36728726077991725 -0.8652745622452939
0.3823324444912523 -0.8587327301840446
0.39726116603625744 -0.8519293198144509
0.43398743532118667 -0.8898061058361753
0.426751069755174 -0.8375461327370658
0.46477684715803197 -0.8741181169303376
0.47996152404387377 -0.8658735100680017
0.5199999999999999 -0.9006664199358163
0.5356395979064564 -0.8914539927301968
0.5511160348025331 -0.881970020002683
0.5664245964156281 -0.8722173906632409
0.5815606196095768 -0.8621990754572433
0.596519493805088 -0.8519181260605515
0.6406859249987957 -0.8818285238686928
0.6559783752357327 -0.8705127059515493
0.6710710081049677 -0.8589317214313269
0.6859592262443228 -0.8470890979880984
0.7327778750426548 -0.8732906651556349
0.7479072930491782 -0.86036892145396
0.7628088912490983 -0.8471851010442294
0.8115780484743733 -0.8703109049268126
0.8266434608462067 -0.8560143624029948
0.8414570696119916 -0.8414570696119914
0.8919813524199275 -0.8613763793691566
0.9068785900077715 -0.8456779664774982
0.921499583591969 -0.8297219518849841
0.973575358487376 -0.8463161473977544
1.0264995537794306 -0.8613353969799626
1.041375588352341 -0.8432893240067821
1.0559344098330075 -0.824986376936382
1.110103358965737 -0.8365228821813471
1.1649844718999243 -0.8464107633011613
1.2205365459905977 -0.8546288901630587
1.235265983107012 -0.8331974261714127
1.2915526746359531 -0.8387441139231415
1.3483964728887174 -0.8425716301307958
1.4057543731514641 -0.8446624428524886
1.4202816622064791 -0.82
1.4781073050655789 -0.8193282582163096
1.536328811574533 -0.81688051924745
1.5949016782971785 -0.8126429945337887
1.6987207475054256 -0.8285214674313562
1.758237106851101 -0.8198794277769568
1.817955460708776 -0.8094059197208423
1.8778299010429784 -0.7970915021181183
2.002717125864261 -0.8091502417783698
2.063212742558816 -0.7919931684951137
2.1706899540154483 -0.7900665310822949
2.278699767194354 -0.7846192522417477
2.3871518559008353 -0.7756326558811178
2.495955413063523 -0.7630901493263428
2.65308228078976 -0.7607591020549175
2.762547863186735 -0.7402224689932091
2.9011842215652295 -0.7233464678430063
2.8646479904685918 -0.6613560997709627
3.022476086267459 -0.6424471246268765
3.0332279968532814 -0.5895997957135236
3.899838701928344 -0.6876467835610443
3.763092577667475 -0.5960153118032796
4.614649200335718 -0.6485466504739048
7.503648906408395 -0.9213322361429146
7.518585528984146 -0.7902351823034596
7.481422182669009 -0.6545396280349121
7.49170601745128 -0.52387111781838
7.899159619908679 -0.4139774138816863
7.455455569562455 -0.2603502454006576
7.35887903635104 -0.12844971137840683
7.66 0.0
21.356746768540518 0.3727834015003763
27.372435547622867 1.4345285606190925
10.135250750639814 0.708725773240314
2.85907878352331 0.2501369816857793
2.8940587155216755 0.304177828108872
2.9875639164403793 0.36682672364949376
2.9807068869121265 0.41891103388979684
3.0223263222211214 0.47868946302310644
3.0135117242173566 0.5313634236608069
3.1019418996946184 0.6029564253898818
3.335483318502277 0.7089788656885596
3.371320424156914 0.7783306480297731
3.308708426601148 0.8249536639948674
3.390399650274629 0.9084548483098484
4.479479503072566 1.2844700781072158
4.504195400585897 1.37707072924409
4.527029017564931 1.4709208932247495
2.9878386988938415 1.0287953680846151
2.8096809361498662 1.0226402285437497
2.7167190411068574 1.042850733176824
2.559027438604333 1.0339141978279174
2.448542910183491 1.0393448017814686
2.292999098682928 1.0209089741202586
2.138886377406494 0.9973790977080504
2.076214246951076 1.0126373490827691
1.969124418456293 1.0033190044243985
1.8630194209323356 0.9905849974782299
1.8017165967071553 0.9987078177074543
1.723390553531033 0.9949999999999997
1.620046198326992 0.9734219615800025
1.560408496927824 0.9750514461890971
1.54315384501958 1.0021358244276501
1.4425253762457726 0.9729956520390994
1.384366954848396 0.9693441774332682
1.3267878707749137 0.9639678137596559
1.30976223647756 0.9869766379693594
1.252937098234688 0.9789017457677968
1.1968047806437354 0.9691534022167494
1.1414062202472772 0.9577535384329436
1.0867817955207917 0.9447250017463302
1.0329713074135778 0.930091542838813
1.016581645250647 0.9479777204868728
0.9639153324537924 0.9308422164150565
0.9475230867899738 0.9475230867899737
0.8961092978921064 0.9279483424368602
0.8797778844806231 0.9434462750887299
0.8297219518849843 0.9214995835919687
0.813513195948229 0.9358398794762373
0.764917255526982 0.9115928873115838
0.7488912653493065 0.9248036941337954
0.7018540818712505 0.8983322591116629
0.6860691263933348 0.9104444814539139
0.6700751876134193 0.92227937358744
0.6251983156226402 0.8928757282750013
0.6374799099566513 0.9451028327127475
0.5936565481663797 0.9141509190605122
0.5511160348025331 0.881970020002683
0.5356395979064564 0.8914539927301968
0.5199999999999999 0.9006664199358163
0.5042020050561906 0.9096044954249716
0.5117240034366208 0.9624128762162305
0.47215011972912874 0.9266467851559026
0.43398743532118644 0.8898061058361754
0.41839207912329246 0.8972447091662834
0.4230061087988324 0.9500872759483048
0.38682381720438097 0.911299804917916
0.35213019781095745 0.87155282329278
0.3368658725725821 0.8775656009073696
0.32149893472612867 0.8833110635387538
0.30603406518972714 0.8887874610633578
0.29047597471245057 0.8939931253174442
0.2748294024393723 0.8989264706052533
0.2590991144679792 0.9035859941820197
0.23034895014124365 0.8596739853972707
0.239502676643671 0.9605927690132365
0.21820252271354917 0.9451389628416782
0.21206992463411442 0.9977105527484819
0.18890090542277946 0.9718109116131873
0.17191169589026092 0.9749596754820861
0.1548701203898286 0.9778114571891864
0.13778136995046458 0.9803653880541546
0.12065064997109601 0.9826206901249087
0.10348317863497714 0.9845766764145906
0.08192639818279865 0.9364230162062408
0.0676637795318017 0.9676371287520295
0.05338267536780262 1.0186021254496653
0.0355974866365511 1.0193786435594776
0.016928834244164876 0.9698522643016995
