# .PCD v0.7 - Point Cloud Data file format
VERSION 0.7
FIELDS x y
SIZE 4 4
TYPE F F
COUNT 1 1
WIDTH 180
HEIGHT 1
VIEWPOINT 0 0 0 1 0 0 0
POINTS 180
DATA ascii
6.245698675651501e-17 -1.02
0.01780145456602927 -1.0198446490595192
0.03734246147167616 -1.0693481849104325
0.05338267536780285 -1.0186021254496653
0.07115160321900797 -1.0175153312650207
0.09325664473999422 -1.0659283269581679
0.1118454556963892 -1.0641384280440525
0.1267441171413534 -1.032247997706975
0.14891521802727006 -1.0595868335534804
0.17051356689385172 -1.0765802912487001
0.18059410477360763 -1.0242000631326964
0.19844135519160672 -1.0208922707855705
0.21622815845046983 -1.0172735047631578
0.23394909651761975 -1.0133448673766448
0.2636948662036378 -1.0576223416408361
0.26917180690662157 -1.004562859340631
0.3004447178405291 -1.0477752485727676
0.3186851581477831 -1.0423721839997087
0.3368285238686927 -1.0366516027617174
0.37114769608115866 -1.077891176183221
0.372801956224979 -1.0242649566566402
0.4085394624816424 -1.0642816862068099
0.42705151649413986 -1.0569895942061374
0.4649700429022357 -1.095400775608404
0.4636797731064124 -1.0414418217125647
0.5029157314714323 -1.0785062665736134
0.5216616646790021 -1.0695649150960085
0.5402486946900608 -1.0602977637841577
0.5586711597152101 -1.050707635502123
0.601163929105458 -1.0845284368528507
0.6199999999999999 -1.073871500692704
0.6386472128884673 -1.0628874528706191
0.6835958508608343 -1.0939820440417896
0.6753524034186336 -1.0399515042523257
0.7493184906508009 -1.1109103472237558
0.7685924247104018 -1.097663739347249
0.7876322380719141 -1.0840827724624296
0.8064321310237448 -1.0701715834633725
0.8557694507026651 -1.0953349475133434
0.8747553435592739 -1.0802328864251896
0.9256141579486167 -1.1031039980913282
0.9447250017463305 -1.0867817955207917
0.9970046034746988 -1.1072857899613173
1.0502774744962478 -1.1262847004935224
1.069773890506856 -1.1077832925215227
1.0889444430272832 -1.0889444430272832
1.179717272555388 -1.1392397275527555
1.1994200706554397 -1.1184773105024974
1.2559147550567964 -1.1308307247464702
1.3131946695876233 -1.1415427104434825
1.3329173310270217 -1.1184504408545783
1.391091271007978 -1.126483499979209
1.4893403243167045 -1.1636001883654938
1.549352889491748 -1.1675211449149736
1.6099438188061455 -1.1696926520620214
1.6710701703495432 -1.170095930156134
1.7326885266400371 -1.1687131682538607
1.8366885438004785 -1.192759486682909
1.8996277353903945 -1.1870191518823792
1.9800564646218795 -1.189737953042225
2.087121223120497 -1.205
2.1515644795629134 -1.1926316658059892
2.260345837718853 -1.2018472007318806
2.414627680550477 -1.2303142542941718
2.4806715677857007 -1.2099043651378536
2.592040270924819 -1.2086882285784002
2.795449100386359 -1.2446141278119485
2.9548205795823335 -1.2542469224505683
3.1616969440727454 -1.2774084835482598
3.370225339654898 -1.2937082978585341
3.627213516233606 -1.3201977532370814
3.8860813457131926 -1.3380851148189141
4.14660641104687 -1.3473140954747707
4.504195400585897 -1.37707072924409
4.91204726624481 -1.4085068882248655
5.3222513028527665 -1.4260929385148888
5.8799921012325385 -1.4660466873339857
6.343149121751881 -1.4644313637785602
7.34588848151088 -1.5614167980413731
8.402728690312005 -1.633325000423224
9.808685220001593 -1.7295358495626265
11.713983719458334 -1.855312755377138
14.368789677440185 -2.019401694930549
15.841036580195501 -1.9450347207461531
15.822843355309228 -1.6630478505883655
15.89926738154426 -1.3910056542526228
15.871244039633805 -1.1098254972690316
15.938127374682999 -0.8352818616373847
15.95027759922477 -0.5569959673719163
16.007561599453826 -0.2794130270609094
16.01 0.0
16.007561599453826 0.2794130270609094
14.151374110590396 0.49417687330741444
12.193266619353347 0.6390220257263451
10.683910978282718 0.7470918337995831
10.370386807135072 0.9072912820031228
9.955164172636415 1.0463299173092127
7.900667367064924 0.9700799735049735
7.238859582500879 1.017355368018078
6.676773182423132 1.0574969836719605
6.214136921507032 1.0957200010783306
5.9486607316928435 1.1563025119818617
5.927574460446861 1.2599448463556218
5.953401095837788 1.3744509420410158
6.074051246487738 1.5144310664539207
6.09499196388402 1.6331481745969068
6.113624386167708 1.7530535829961145
6.129913485723058 1.8741026272727423
6.0962722694519345 1.9807989339434129
6.108049998371587 2.1031702777932324
6.117398961316263 2.2265511330501035
6.124287597821643 2.35089374901717
6.035966893229785 2.4386889231375877
6.08453708132063 2.5827327593141005
6.084212747899722 2.7088660428848303
6.0813252510159215 2.835768536280093
5.941028646037494 2.897633280275803
5.755902146256856 2.932778628317472
5.527251931296882 2.9388919830396776
2.8949912306314 1.6047198430153757
2.3902301144450506 1.3799999999999994
2.2800650198676187 1.3700012792607443
2.1710031261604508 1.3565933164370045
2.172156770978648 1.4106151006889203
2.105755434289806 1.420349974815697
1.9987309880651396 1.3995265046965528
1.9335506165561245 1.404806752979011
1.9087388690130298 1.438337905333396
1.8439451634397293 1.4406478522620403
1.7796642517364636 1.4411436955041275
1.6776373304305618 1.4077048652135211
1.6150785016767322 1.4039663220396854
1.5903299265216235 1.431939497607957
1.5285292363840663 1.4253765725306218
1.5034201827077804 1.4518359942593044
1.4424978336205572 1.442497833620557
1.3823701572134044 1.4314862026739161
1.3571767365243719 1.4553938662221493
1.331569906654128 1.4788582027000143
1.272754516241584 1.4641365856321777
1.2148685823075596 1.4478239974948683
1.1894155390841925 1.468805867153675
1.1328171145992114 1.4499397866363684
1.0772488914421663 1.4295575629846544
1.052135601603527 1.448140419931156
1.0267018210683723 1.4662821592772954
0.9729956520390994 1.4425253762457726
0.9476719209261473 1.4592867882250375
0.9220595197657765 1.4756036873121812
0.8704143465979917 1.4486127381865697
0.8699999999999998 1.5068842025849234
0.7950877772039928 1.434376319708609
0.7699333629688606 1.4480340522886401
0.7445444195728568 1.4612506996689232
0.732079815137759 1.500986057319609
0.693093949254747 1.4863447707401058
0.6670480946443126 1.498214550533865
0.6212624942979452 1.4636027169893802
0.6255930110045733 1.5483970371265348
0.5805560782633863 1.512400290925467
0.5540726321875835 1.5223020456731715
0.5274204102205936 1.5317400924708935
0.5006075308874149 1.5407115563981488
0.4590235764146964 1.5013984668619658
0.4327506486326887 1.5091808626231606
0.40634590081095795 1.516503547273837
0.37981737609147825 1.5233642902533144
0.3531731553198683 1.5297610017128194
0.326421354583882 1.535691733152075
0.2995701227411755 1.5411546780128325
0.2726276389370805 1.5461481722291668
0.23778038686115102 1.5012862777046094
0.21154311345929916 1.505207464487187
0.19133486914608155 1.5582974580768756
0.1588832641668336 1.5116732809597755
0.13683451611382327 1.5640256760040405
0.10602984009107069 1.516297356394933
0.08216745130142168 1.567848369564681
0.0547922098229267 1.5690435984199804
0.02652765778467073 1.5197684966377147
