# .PCD v0.7 - Point Cloud Data file format
VERSION 0.7
FIELDS x y
SIZE 4 4
TYPE F F
COUNT 1 1
WIDTH 179
HEIGHT 1
VIEWPOINT 0 0 0 1 0 0 0
POINTS 179
DATA ascii
5.572142936120457e-17 -0.91
0.015881689857928077 -0.9098614025923161
0.03175854199927598 -0.9094456525873772
0.04762572018107901 -0.9087528766266623
0.06347839110715417 -0.9077832857364401
0.0836695130377518 -0.9563469101680757
0.10034732473694731 -0.9547410195535423
0.11699456966894159 -0.952844305575669
0.13360617692166285 -0.9506573459919075
0.15017708643862168 -0.9481808069713322
0.1753846594435997 -0.9946558305423301
0.19271708533031037 -0.9914434552821406
0.20999080772593706 -0.9879290767411436
0.2272005648873038 -0.9841137654330876
0.239502676643671 -0.9605927690132365
0.26140723555354595 -0.975585084551959
0.29217559716601915 -1.018937397694618
0.32453259224223785 -1.0614982791189693
0.32755801403744433 -1.0081199072728628
0.361380651447444 -1.0495256189152418
0.3796423590914924 -1.0430588090723583
0.4157068214725484 -1.082953294736754
0.4532739780332537 -1.1218924640258126
0.4727846654720212 -1.1138108726774527
0.49215133812171846 -1.1053900037475468
0.5113680967062463 -1.0966324223143464
0.5523476449542376 -1.1324804983369503
0.5720280296718291 -1.1226682204773435
0.6384813253888116 -1.2008087262881406
0.6593410835350185 -1.1894828017095782
0.6799999999999999 -1.1777945491468367
0.7262036856231765 -1.2086058939899782
0.7736821257804791 -1.2381502203883819
0.7951729911219395 -1.224459029200319
0.8443812842408278 -1.2518467345581128
1.6002782574194185 -2.2854342035662873
1.6399208538960002 -2.2571574143061035
1.6489731634366125 -2.1882612975295825
1.656129368626021 -2.1197489272020817
1.6928718519240626 -2.0905226363192515
1.7290986700567907 -2.060659551990051
1.7647987879844644 -2.0301687707992566
1.7665048007873858 -1.961902339260321
1.8141156377662464 -1.9454008463069932
1.9519900209897822 -2.0213448389516095
2.2344574285494905 -2.23445742854949
2.3810147391209355 -2.299319206219281
2.53048380760233 -2.3597143258162445
2.7199100612472633 -2.4490180192734208
2.8377080216376225 -2.4667819490043073
2.880327106127357 -2.4168814124213873
3.0774980073696048 -2.492108748557356
3.3175252726843 -2.5919348111210208
3.6018461503132904 -2.7141857544157375
3.891371742943497 -2.8272470635267957
4.226824548531198 -2.959654411571398
4.609448903406031 -3.109112543297352
5.08234364174927 -3.3005125521910634
8.361754228102361 -5.2250039453394
8.408811219887722 -5.05252351486763
8.495709211125343 -4.905
8.536288341680502 -4.73174189360425
9.897842515948572 -5.262776218829837
12.08204846799427 -6.156111176468255
15.513185239123624 -7.566285993579477
17.228911031566717 -8.033973155690695
28.314729292197068 -12.018889512330059
28.520175366474383 -11.52289881347345
3.276867297005178 -1.257871502904004
3.3453057299978335 -1.2175917102393807
3.366046129133568 -1.159022629867478
3.3382083721959885 -1.0846496502560652
3.4044449312284066 -1.0408432688129428
5.777182792589296 -1.6565805084601646
5.032473554966046 -1.3484472249841328
4.958211161270342 -1.2362208865143016
5.076468037531075 -1.1719949931315359
5.53631542015334 -1.1767801700285183
3.298267336384151 -0.6411182244651907
3.062752111867967 -0.5400458325441534
2.824788654102094 -0.4474025700150603
2.6341130628525775 -0.370200448553774
2.4416635330376524 -0.29979858477666266
2.426633424698587 -0.25504945037307425
2.4805247982484464 -0.2170177994416686
2.4839344851469627 -0.17369361962287172
2.486587541538889 -0.13031653104493032
2.538452700628503 -0.0886447216243526
2.539613145697234 -0.04432911235070018
2.54 0.0
2.5896055304550534 0.04520173267256435
2.588422241979458 0.09038969645947763
2.636381971752075 0.1381669244813719
2.5836908901729445 0.18066926699728478
2.6797637378667956 0.2344489479912008
2.675263898540655 0.2811815661899882
2.7195764554972226 0.333922000930104
2.713334508351903 0.3813342966305793
2.676635403012823 0.42393740025902565
2.5211078477112525 0.4445393348273417
2.4638842304536364 0.47893057839512754
2.5529652379152323 0.542649513034352
2.5431058690894637 0.5871222518374879
2.5809866318941506 0.6435122422951165
2.617658989243375 0.7013996122278316
2.605019195992844 0.7469772342640676
2.907166458127628 0.8888099823571196
2.9387646353520243 0.9548625126185875
2.9405627701138752 1.0125169603617572
2.9976194603070474 1.0910442572088834
2.9967931690560174 1.150361118040414
3.0689785586160663 1.239947824206669
3.0468710649275774 1.2933200352994965
3.0695127376791387 1.366635120734689
3.1358249431468086 1.4622591856228198
3.199706804825034 1.5606012825691162
3.216533552320008 1.6389057040597639
3.275735569506619 1.7417394979356555
3.332301084201098 1.8471246531385441
3.3428580586079333 1.9299999999999993
3.3943825107803645 2.039550776643815
3.4430752703950893 2.1514722127868118
1.6018607847757595 1.040260556878702
1.5834617635801296 1.0680584456291264
1.5236228023775247 1.0668521716129462
1.5047716095374024 1.0932805692640002
1.4455302731856 1.0892851919052078
1.4262994640281668 1.1143472703394415
1.367776892164269 1.1076038882477137
1.3482382198894014 1.1313061930483093
1.3282888611920787 1.1546638910232927
1.3079348928402137 1.1776698671915906
1.2871825148497402 1.2003171137099973
1.230071058579093 1.1878658134848854
1.2091525958289964 1.2091525958289961
1.1878658134848852 1.2300710585790937
1.1321172777037474 1.214047144687823
1.1107568065557047 1.2336204102924742
1.089057988124242 1.2528179031698015
1.0670274320796556 1.2716337755775033
1.0132058295902382 1.2512049979457232
0.9912149752743101 1.2686973133068224
0.9990129384323999 1.3257349466785062
0.9463342561908819 1.3025173609436655
0.923458062525184 1.3188347913052771
0.9003005745879024 1.3347504918136173
0.8496368946234425 1.3083260859948613
0.8266740522037996 1.3229550300040245
0.8034593968596847 1.337180989095295
0.7799999999999998 1.3509996299037244
0.7563030075842859 1.3644067431374574
0.7229862066902716 1.3597392930027477
0.7218448945858795 1.416700373459505
0.6970101233946329 1.4290825336156756
0.6635106709328982 1.4229032256475405
0.6385765296290066 1.4342663684988832
0.6056332491583742 1.4267825228512827
0.5806402197946638 1.4371349745785205
0.5733887192724803 1.493728682395523
0.5369716250213 1.4753174146338761
0.5111420024977358 1.4844641636909275
0.47588617133741906 1.4646270350945365
0.4502524252730143 1.4727093241830749
0.4382633957490287 1.528406096541927
0.41152228171300836 1.5358220637996185
0.3773981571354816 1.5136613329905546
0.3509236447764296 1.5200173010649671
0.3243422376757044 1.525910257144737
0.2976620327874101 1.531338406178356
0.27957356604375766 1.5855404823496553
0.2518594887147718 1.5901782283581718
0.22406869254570505 1.5943315906739284
0.19620964288228748 1.5979993041425284
0.16829082586092242 1.60118025154292
0.1403207458237296 1.6038734639277104
0.11230792272804199 1.606078120918317
0.08687768736328662 1.6577250276925926
0.05793316452615179 1.658988772851699
0.02809837436402624 1.60975478920179
