# .PCD v0.7 - Point Cloud Data file format
VERSION 0.7
FIELDS x y
SIZE 4 4
TYPE F F
COUNT 1 1
WIDTH 177
HEIGHT 1
VIEWPOINT 0 0 0 1 0 0 0
POINTS 177
DATA ascii
1.0838124172454077e-16 -1.77
0.03001813907212779 -1.7197380356689929
0.0582821594931768 -1.6689826811218897
0.08740104692571642 -1.6677113230401381
0.1164933111526895 -1.6659319639339063
0.14555009038858907 -1.663645145813215
0.17456253365698127 -1.6608515652650164
0.2035218034865963 -1.6575520732410076
0.22546042355530607 -1.604234271361344
0.2534238333651741 -1.6000551117641233
0.2813100478204273 -1.595388559879777
0.3091105725100028 -1.5902360371852158
0.33681693912477034 -1.5845991131887651
0.3531731553198683 -1.5297610017128194
0.37981737609147825 -1.5233642902533144
0.40634590081095756 -1.5165035472738373
0.4327506486326887 -1.5091808626231606
0.45902357641469677 -1.5013984668619658
0.4697058314499201 -1.4456059047686334
0.5111420024977361 -1.4844641636909273
0.5369716250213 -1.4753174146338761
0.5626376807861216 -1.4657212696006068
0.5694020219921865 -1.4093194589415168
0.593911315303696 -1.3991673772477093
0.6182396974752166 -1.3885890956167533
0.6423797578458632 -1.377587836295708
0.6663241431193977 -1.3661669503747338
0.7127650845910886 -1.3988802429757377
0.7135967754345541 -1.3420803411455688
0.7369106227744324 -1.3294219548518815
0.7849999999999998 -1.3596598839415688
0.8086097776087853 -1.3457526621023161
0.8054772816344714 -1.2890331061577676
0.8278513332228412 -1.2747792632770445
0.8779328584490727 -1.3015889889114154
0.9005150050711423 -1.286068709533717
0.9228228460991829 -1.2701566811686675
0.9448495863487159 -1.2538577507742499
0.9973715900275667 -1.2765774208428895
0.9880330139482447 -1.2201191594874443
1.041315927692194 -1.2409919978527444
1.0628156269646218 -1.2226295199608908
1.1107568065557045 -1.2336204102924744
5.08770776606624 -5.455898614079011
4.8695551769175704 -5.042572000373944
4.744686501761734 -4.744686501761733
4.646935110187687 -4.487493073165123
4.505138801974091 -4.201109897984991
2.3111804072346964 -2.0809961857760486
1.9320565253702964 -1.6795111142156987
1.9227715522286346 -1.6133969003132134
1.9117790651841484 -1.5481281619826
2.096108604593881 -1.6376595243662508
3.921300354332208 -2.954911763676557
3.8509208932247496 -2.797857800912172
2.3837324488809664 -1.669107429781544
4.319285753011767 -2.913395027082591
4.453340715790201 -2.892033275929793
4.95034754240898 -2.744022450594268
4.997483375581527 -2.657209045368142
4.909445948277907 -2.5014876535649027
4.907415492793452 -2.3935064614683625
4.903125127868276 -2.2863647960171836
3.1608672834433995 -1.4073087850422685
3.138921550272822 -1.3323931481484232
3.0689785586160663 -1.2399478242066684
3.0434721903808777 -1.168279515517679
3.0164133127227655 -1.0978846600753966
2.9878386988938415 -1.0287953680846151
2.957785765677927 -0.9610428525060863
2.907166458127628 -0.8888099823571196
2.9222355556524895 -0.8379375616836773
2.8881182206043143 -0.7738689448565369
2.9011842215652295 -0.7233464678430063
2.81592948722933 -0.6501085470537695
2.7779391860840077 -0.5904692019224367
2.7878212009913654 -0.5418975468693874
2.7476136309040604 -0.4844784156907357
2.7062660532306775 -0.4286304342102326
2.7826532731638127 -0.3910764136977838
2.8883093012762475 -0.35463978930897905
2.9935109050585025 -0.3146306744356367
3.0483557761607414 -0.2666965728078337
3.152302398821045 -0.22043045703143557
3.205600806562182 -0.16799841953984992
3.3579531787841614 -0.11726230892040342
3.509465409998933 -0.061257946594865206
3.61 0.0
3.6094501795145724 0.06300318723859356
3.507861802837026 0.12249723342577856
3.555121143726283 0.1863160042248803
3.601206221437965 0.2518208702162927
3.695882329920376 0.32334780559381227
3.789128421353121 0.39825344504976024
7.305139676080131 0.8969583674618852
7.238859582500879 1.017355368018078
7.1706173527207 1.1357142161920761
7.14970428686863 1.2606857698619143
7.1266133518300405 1.3852733064337157
7.052444201290738 1.4990432907960451
6.976489663862284 1.610649549102074
6.898802613822335 1.7200646777136384
6.867732624915275 1.8402034106789238
6.834570658121447 1.9597815998588637
6.655881101502727 2.0349070648702474
6.619353353414269 2.150758280849634
4.689772134972611 1.6148180461074972
6.5402606406699215 2.380460197546655
4.583879894101261 1.7595866322674247
6.45319962778484 2.6072618901747484
4.47365358777886 1.8989532844578711
7.089112751306582 3.1562763502682105
6.987633038052571 3.2583867980207923
6.974641799281535 3.401760099083242
6.958760953911153 3.5456658029658605
3.937946264150814 2.0938431700250737
4.99407852776595 2.7682629316065848
5.767729189204362 3.329999999999999
5.751592587711173 3.455905482646464
5.690402725209619 3.555758263004805
4.243673073803845 2.7558735171760373
5.604293990472082 3.7801440274622484
5.373637410535785 3.7626614224628634
3.931822592662245 2.8566363261414196
4.799799415384229 3.616908289143811
7.927388181283622 6.193554441776123
4.670647228356396 3.782215550209522
3.9910915486498753 3.3489234464668702
7.630113856052224 6.6327567830940275
4.3548286772975295 3.9211053532629103
4.0297588959216295 3.7578109639443666
5.114505980407809 4.939021013963472
4.780041840821061 4.7800418408210605
4.522225991688071 4.68290210020462
4.2352098159881155 4.541706487055048
3.9880184138987955 4.429143159845269
3.7460970555357966 4.309391703072028
3.5738991098571593 4.259207103741518
2.869700983187258 3.543785584243787
2.7150671061861535 3.4751274234056435
2.2327337358940986 2.962937742275457
2.0925154981612044 2.8801004999748128
1.9845744697746188 2.834266073239912
1.8509285104881719 2.744114365157188
1.80275520589974 2.775999579899353
1.303601390013684 2.0861983165448077
1.2566929027805325 2.091488213713154
1.2049999999999998 2.0871212231204974
1.1441507037813556 2.0641025088489737
1.0610057318961128 1.995461559861175
1.0487180543983532 2.05822507087513
1.0345559064222223 2.1211539492660343
1.2932118809265403 2.7733018283321487
1.2364793949504331 2.7771781912335065
1.187822630607392 2.7983347544954187
1.1575343736551686 2.864998110611373
1.1145243230858835 2.9034351264062974
1.0807836529091135 2.9694286816834703
1.0450737758074724 3.0351146276738072
1.0073954016623285 3.1004442431222
0.9969875131045317 3.2609992178339513
1.0639601934536167 3.710470146321911
1.011982466350857 3.776769980790257
0.9701068013546673 3.8908858623667455
1.7006299708396204 7.366237689776378
1.5614167980413718 7.3458884815108805
1.413894655740198 7.27385742934719
1.2693681787452598 7.198944674519241
1.1357142161920766 7.1706173527207
0.9895207478260639 7.040805968752566
0.5313503372464431 4.327501221156164
0.7275181043428696 6.921872391763182
0.6022461823863178 6.883705363813962
0.4750415861974943 6.793411182269402
0.3537910642022997 6.750735654940919
0.23417562287378224 6.705912449298133
0.03385766848832975 1.939704528603399
