# .PCD v0.7 - Point Cloud Data file format
VERSION 0.7
FIELDS x y
SIZE 4 4
TYPE F F
COUNT 1 1
WIDTH 179
HEIGHT 1
VIEWPOINT 0 0 0 1 0 0 0
POINTS 179
DATA ascii
5.204748896376251e-17 -0.85
0.01518359360043673 -0.8698674947860604
0.03036256213117594 -0.8694700195066133
0.04291548411921405 -0.8188762184987505
0.06068813215738914 -0.8678807237260471
0.07582549619046258 -0.8666893873398186
0.0909397630428585 -0.8652340489703978
0.10602632876247832 -0.8635151519279501
0.11690540480645499 -0.8318251777429191
0.13140495063379398 -0.8296582060999157
0.14586446924022153 -0.8272385125302547
0.1602795561162977 -0.8245668340960377
0.17464582028691794 -0.8216439846163966
0.20020643836604 -0.8671893576588594
0.21531048708370423 -0.8635631963856368
0.21740799788611742 -0.8113776940828173
0.24531724667712926 -0.8555229093851038
0.24559223196709887 -0.8032959950089498
0.29047597471245057 -0.8939931253174442
0.28975565746686954 -0.8415115322833919
0.30439792755984524 -0.8363264324994584
0.3368658725725823 -0.8775656009073696
0.35213019781095745 -0.87155282329278
0.36728726077991725 -0.8652745622452939
0.3823324444912523 -0.8587327301840446
0.39726116603625744 -0.8519293198144509
0.4120688779817328 -0.8448664035212169
0.426751069755174 -0.8375461327370658
0.46477684715803197 -0.8741181169303376
0.47996152404387377 -0.8658735100680017
0.4949999999999999 -0.8573651497465943
0.4944365519136521 -0.8228806086740277
0.49812410837921256 -0.7971652103870404
0.522853473614426 -0.805123745227607
0.5088655421583796 -0.754424191025088
0.5219545570794519 -0.7454283603029825
0.5525181371549247 -0.7604759747124505
0.5657061217629253 -0.7507173794444553
0.6095048605724018 -0.7801306460706546
0.623027187139339 -0.7693745018424012
0.668499114074001 -0.7966862208437372
0.6494984387006022 -0.7471624844205443
0.6958958306132126 -0.7728706184964901
0.7092782944649986 -0.7606078496839372
0.7571776238003071 -0.7840803823691297
0.7707463914933369 -0.7707463914933368
0.8200473723860623 -0.7919105423232567
0.8337432198458544 -0.7774781304712481
0.8843423423180993 -0.7962654215670412
0.8981044004650987 -0.7807102444987036
0.9498951094675328 -0.7970566360113087
0.9792039114357833 -0.7929436927227951
1.0953349475133436 -0.8557694507026649
1.1500351344681017 -0.8666136333389495
1.2458861713374192 -0.9051892885304087
1.2614941482050475 -0.883307711980611
1.3181697403625163 -0.8891167165184874
1.3754197314304955 -0.8932080174246442
1.3907988776965388 -0.869067593342456
1.4914711032216754 -0.8961662503434941
1.550185472774145 -0.895
1.5655692757795183 -0.8678092202409433
1.6687709505033719 -0.8873012536653335
1.7285526569254337 -0.8807415694947208
1.7616363307463674 -0.8592074477065917
1.8941832749065983 -0.8832721670380617
1.909310006473036 -0.8500795840284222
1.8962399981120273 -0.8049061246879038
2.002717125864261 -0.8091502417783698
2.063212742558816 -0.7919931684951137
2.1706899540154483 -0.7900665310822949
2.278699767194354 -0.7846192522417477
2.4347046817155933 -0.7910835055998654
2.6394011264579778 -0.8069459050347533
2.797271535180508 -0.8021047054274675
3.0040293197590024 -0.8049272302688393
3.260193640287348 -0.8128575692148832
3.5661944371139613 -0.8233208588985454
3.87346449890587 -0.8233302956383272
4.230813160659431 -0.8223867700729083
4.6384445166875 -0.817882916811242
8.207690110345595 -1.2999704044843186
8.130100844368293 -1.142611158882137
8.148803904975255 -1.0005473093562605
8.11529866620511 -0.8529522602640517
9.722860253375437 -0.8506400492171428
12.629160876289376 -0.8831169576006248
20.731549141504953 -1.0864944516035155
26.1940335761705 -0.9147158085725517
31.205246565830972 -0.5446896049076192
36.96 0.0
37.30431750628496 0.6511492841750488
8.854602727389189 0.309209540784159
8.897789154663252 0.4663133701246302
8.838417485302042 0.618042357372951
10.868484156180944 0.950869153376952
8.712011803426075 0.9156693382246456
8.148803904975255 1.0005473093562605
8.179614247805372 1.1495698139301402
8.158305693315837 1.2921486812323069
8.183752427531449 1.4430163564121914
8.20640325362247 1.595163201347915
4.558167819419534 0.9688684792107588
4.2482534824636256 0.9807865969392519
4.133459793935745 1.030587275254585
4.163140311305884 1.115510084391865
4.19110099429107 1.2017788713621163
4.1694887359988355 1.2747406325911321
3.602425773033397 1.240414668481767
3.1103825748013567 1.1320866744079636
3.4635833823046185 1.329545092813064
3.48621129317112 1.4085207912438296
3.5071234916537977 1.4886855995441335
3.5262854665004393 1.5700034422725893
3.4983480579614685 1.6313064903190995
3.514284721029743 1.7140311839452933
3.528385835785937 1.7978023789686053
3.5406198473642965 1.8825809667714226
3.550956010985946 1.9683270582001282
3.5593644095540435 2.0549999999999993
1.68004790937614 1.0094746268237063
1.6197718636587737 1.0121457946854213
1.6018607847757595 1.040260556878702
1.6497847693845331 1.112793877906786
1.6055380068064238 1.1242098152480506
1.5047716095374024 1.0932805692640002
1.4854620486879646 1.1193759430628103
3.0417215089219463 2.376453294757041
2.96092611315106 2.39771068989988
2.995233772595204 2.513299553874369
2.9131789796598997 2.5323878519033576
4.094727988380441 3.6869096410373094
4.102894266083547 3.8260107999506165
3.927595309849034 3.7928347027061258
3.7547370081005673 3.754737008100567
2.9592446581553276 3.0643875494426545
2.9735128498724936 3.1887021390595836
2.883952913406679 3.2029541978075686
2.663599657701459 3.064120895704454
2.60971769532735 3.1101404390630503
1.04467184914273 1.2900622960185717
0.8372996064428955 1.0716946249051418
0.8184684314867855 1.0861442936643184
0.7406094178885162 1.0193614129124338
0.6940274879847655 0.9911739735896802
0.6654395551301887 0.9865547113404997
0.6753524034186337 1.0399515042523257
0.6306039244375138 1.009177234426147
0.6128953091429645 1.0200290878355136
0.5699999999999998 0.98726896031426
0.5526829670808243 0.997066466138911
0.5351975815759152 1.0065602558591766
0.503929454710897 0.9890172418490885
0.4646734155964219 0.9527216890771171
0.4902371836192113 1.0513170329625139
0.4758818723986864 1.0688481854418428
0.4571554203324502 1.0769906785393553
0.4457818461649355 1.103348786934477
0.42645785995890717 1.11096070753167
0.4070039705575459 1.1182342187352308
0.37114769608115844 1.077891176183221
0.36773022330618743 1.1317572543912326
0.33330374338391966 1.0901874217978604
0.333521200538569 1.1631266520853658
0.3131710445740504 1.1687702498097725
0.2806293988956145 1.1255430424801558
0.26094322303888356 1.1302692751508727
0.25157314588948865 1.1835585968879048
0.2213384346367921 1.13868753279929
0.20664133142364696 1.1719212260845275
0.17833529014586325 1.125964708278457
0.16561599014247763 1.1784190018024687
0.13893105148186813 1.131502612871107
0.12438887128850787 1.1834810554882451
0.10197221901476002 1.1655477967673422
0.08161507428062678 1.1671499388039943
0.06123306880424418 1.1683965556628513
0.04083241114192626 1.169287267612342
0.02007026740287588 1.14982484942985
