# .PCD v0.7 - Point Cloud Data file format
VERSION 0.7
FIELDS x y
SIZE 4 4
TYPE F F
COUNT 1 1
WIDTH 177
HEIGHT 1
VIEWPOINT 0 0 0 1 0 0 0
POINTS 177
DATA ascii
6.184466335694134e-17 -1.01
0.017277882372910763 -0.9898492182048273
0.034550501735476066 -0.9893969187489048
0.05076587755565565 -0.9686706487119366
0.07115160321900797 -1.0175153312650207
0.0888988576026113 -1.0161185920535805
0.10661903253300653 -1.0144123332756387
0.12430673027325044 -1.0123970746741484
0.1349979079312635 -0.9605600266793233
0.15956315434103555 -1.0074421074070405
0.17712114122026903 -1.0045039080724523
0.18890090542277946 -0.9718109116131873
0.20583257390958185 -0.9683661247264675
0.22270154380042648 -0.9646263641373829
0.239502676643671 -0.9605927690132365
0.25623085465149553 -0.9562665680261776
0.2646118615843192 -0.9228112281007861
0.29529542176996415 -0.9658678035226658
0.31210716431869695 -0.9605670814581051
0.3288238360017283 -0.9549737613553099
0.362541351925209 -0.9960741780330629
0.37987002651801843 -0.9895952520870339
0.3783526593500713 -0.9364556931124552
0.4141749961986302 -0.9757351446595869
0.43114084166034844 -0.9683581851011569
0.44797535744514144 -0.960686254258849
0.486591972935876 -0.9976613913920753
0.503929454710897 -0.9890172418490885
0.521113434692339 -0.9800718280734089
0.562379159485751 -1.014558860281699
0.5799999999999998 -1.0045894683899488
0.5716922631501603 -0.9514557037793446
0.5882103832988574 -0.9413333867336329
0.6317812806174313 -0.9728578588166917
0.6486637680260664 -0.9616835841638482
0.6940274879847657 -0.9911739735896801
0.7112201552738925 -0.9789105631936864
0.7281961780139784 -0.9663489671572243
0.7757334589103296 -0.9928935495444696
0.7929436927227951 -0.9792039114357833
0.8099123882050396 -0.9652159983299123
0.8266343765280392 -0.9509340710806927
0.8765610943301043 -0.9735197213753864
0.8934178516818732 -0.9580733491211132
0.8613763793691566 -0.8919813524199274
0.9263098833543774 -0.9263098833543773
0.9783021284605657 -0.9447353838242364
0.9946410342020721 -0.927517769684998
1.0478342039231259 -0.9434741549659899
1.0641405081141084 -0.9250432308766152
1.118424886953708 -0.9384699101423473
1.1346331037271775 -0.9188077709327626
1.150495700265814 -0.8988657539754609
1.1899669099704664 -0.8967043844965519
1.262066511224918 -0.9169449935762581
2.95713887988326 -2.0706109352272764
2.9928256369237007 -2.018686381529396
2.9856672218857097 -1.938914964653496
2.1710031261604508 -1.3565933164370045
2.1943482897974076 -1.3184974717697384
2.130422493309719 -1.23
2.1515644795629134 -1.1926316658059892
2.1720510784329603 -1.1549000444532913
2.102775397084548 -1.0714175793853304
2.211033353895951 -1.0783930211011303
2.229517156110159 -1.0396409238821205
2.292999098682928 -1.0209089741202584
2.4025176675108693 -1.019808245357004
2.373590667690976 -0.9589928791447345
2.2499288278582563 -0.8636667584041738
2.3116438471333343 -0.8413695525811452
2.420527553534251 -0.8334544754103211
2.5773631591598662 -0.8374360547561074
2.6394011264579778 -0.8069459050347533
2.845334619977424 -0.8158865732183174
2.955733028444549 -0.7919862780137134
3.163164067659748 -0.7886653796549163
3.371320424156914 -0.7783306480297725
3.5800202186857284 -0.7609567883929994
3.298267336384151 -0.6411182244651907
3.308954050121019 -0.583457876960886
3.269248407369906 -0.5177980792831642
3.277787307534598 -0.4606629641778165
3.48383699226104 -0.4277613953520675
5.6289939277844265 -0.5916311020949182
6.435417749672676 -0.5630260981498711
8.988052092841016 -0.6285058284345678
10.1960075498442 -0.5343501132404573
14.60109998274899 -0.5098816468235399
14.607774826234875 -0.2549796580487125
22.10663253990781 0.385872706328339
35.47337762723935 2.4805402063410993
19.983665643720414 1.748344199518025
14.480238796562059 1.5219344251770366
9.88575967034757 1.2138186603152685
7.139832775626722 1.0034380579220716
7.121232935690943 1.1278924929400647
7.10046389921802 1.252003360978568
7.077531992657657 1.3757328566648885
7.101351581327428 1.5094388753369332
7.122645173580069 1.6443922072536536
6.850287827508534 1.7079685829336548
6.867732624915275 1.8402034106789238
6.8826337429183635 1.9735634676497136
7.038403003887942 2.151855746759342
5.5731911854896 1.8108395870371918
5.115255493992304 1.7613237156132178
4.754844661176696 1.7306219252278838
4.44384283012668 1.7058314398356296
4.181599184096211 1.6894757363057635
3.8753254330347735 1.644978050939843
3.6633172851468294 1.6310139387339593
3.5436634473133015 1.6524374034061347
3.334525911769909 1.6263569545874779
3.17198322611059 1.6162061790727866
3.0108512916489407 1.6008980290998882
2.85126024527443 1.5804793620030586
2.6933390057696043 1.5549999999999995
2.6229319401484634 1.576016509224766
2.4678199598152 1.5420650589186264
2.3566642959266413 1.5304356883922265
2.288143700251915 1.543372413579261
2.137986835594268 1.4970344988762307
2.1115343553186126 1.5341195084833548
2.124370456725799 1.6008279615844492
2.0961086045938804 1.637659524366251
2.067208257475543 1.6739922401925673
2.114282663008379 1.7740938027348485
2.045262962403712 1.7779199685642744
2.125394200865347 1.9137135341863347
2.0916715866308278 1.9505153097787455
2.0429250329617687 1.9728297721035524
1.9516147160748711 1.951614716074871
1.951990020989782 2.02134483895161
1.9846152277818707 2.128239271711786
2.0140831251401634 2.236865924686956
1.9747376772614267 2.2716758364705436
1.9669300856408107 2.344095995944073
1.9571864161649941 2.4169239401311793
1.9454902620290806 2.4901139813972413
1.961916975475677 2.603551762754175
2.6803007504536773 3.68911749434976
2.586829727943217 3.6943757197433533
2.5219599946530677 3.738959452223238
2.4835539996685236 3.824337789831133
2.442927808115075 3.909501723281124
0.8549632043506901 1.4228977191655061
0.8049999999999998 1.3943009000929465
0.7805434885966028 1.4081377284944272
0.755849216085284 1.4215456245028726
0.7082251795936931 1.389970177733854
0.7057775463304143 1.447058414541659
0.6381535752284562 1.3685247584253415
0.6141723310444586 1.379453641040327
0.5704674475943396 1.3439370860405628
0.5656559560580274 1.400047620395849
0.5232172063361382 1.3630274226859145
0.4993494092554765 1.371951226347426
0.4753295055074485 1.3804571203750025
0.4357139620686759 1.3409896879761665
0.4122441036590585 1.34838970590788
0.3886486717019688 1.3553789912730296
0.3649348535945545 1.361955415067586
0.32901377801554804 1.3196021877353552
0.3059334339076566 1.32514328810792
0.2931554840530405 1.379188117034666
0.2595002337121011 1.335012969488823
0.2361615216270251 1.3393385440966032
0.21275087245471408 1.3432561432093875
0.18231676225768548 1.2972511700514573
0.1657423070310006 1.349862766232198
0.142158710044009 1.3525497777008517
0.11417402299943216 1.3050150545001866
0.09138098060480435 1.3068089058403698
0.06856010267825631 1.3082046905284919
0.04676532558135145 1.3391837082055884
0.022513604304095557 1.2898035267517447
