# .PCD v0.7 - Point Cloud Data file format
VERSION 0.7
FIELDS x y
SIZE 4 4
TYPE F F
COUNT 1 1
WIDTH 179
HEIGHT 1
VIEWPOINT 0 0 0 1 0 0 0
POINTS 179
DATA ascii
4.445467880904892e-16 -7.26
0.12670447073467891 -7.258894266835401
0.25337034606015785 -7.255577404158635
0.3930430313845092 -7.49970780600685
0.6006032389369201 -8.589026472737086
0.8114199649806974 -9.274572639234151
1.736217774875724 -16.519008682067017
1.1894447916342394 -9.687250440019302
4.334799026264799 -27.36884391789127
4.794426185383949 -27.190542060667063
5.28731726188406 -27.20088925333477
5.896375551591658 -27.740265956810724
6.165908399565343 -26.707483475763297
6.643175253166874 -26.644320643538865
7.210698596556227 -26.910693520413442
6.5491435742119 -22.839577895494457
6.7420915109063095 -22.052387672507596
5.024616328536646 -15.464178954959198
2.851977033044693 -8.282742722250015
2.568571276375773 -7.057091582102172
2.5838329162216156 -6.731114875044825
2.700913538528727 -6.684995591426537
2.8562445492565907 -6.7288904787373385
2.9529080287303104 -6.632340022485281
3.131601319498583 -6.715740701941576
3.22641164036761 -6.615124180761869
3.318670553096087 -6.513257691816969
3.4083635458255674 -6.410199524155809
3.4954773619760906 -6.306008088475044
3.604999999999999 -6.244043161285803
3.6876726163559885 -6.137317873027124
3.767725968698087 -6.029621963672189
2.292930337413264 -3.5308030910502346
2.29828283326477 -3.4073444232012213
2.386077975220352 -3.407672504242206
2.3276295990781937 -3.203707297724792
2.383187491682111 -3.1625966197872795
4.192654646967734 -5.366353232061776
4.254205843496901 -5.253506699449123
4.313104860996679 -5.140158213328342
4.369353133076778 -5.026365804283662
2.214822307047821 -2.459809372330175
2.223314653803745 -2.384213067278495
2.1603875321274812 -2.2371467790532047
2.1637467504308354 -2.1637467504308354
2.2731137690701377 -2.1951204506504314
4.578274172136007 -4.26930973399124
4.614929366214619 -4.1553010654885085
4.573540056149998 -3.9757177156824737
4.642229325301006 -3.895292914700428
4.709504526429243 -3.8136815697620143
4.854146242217408 -3.7924746880060547
4.999458292896053 -3.767362044931822
5.307151483099655 -3.8558712550386236
5.455552614964685 -3.820019066097967
5.604293990472082 -3.7801440274622484
5.753280096105609 -3.736223780203085
5.944817154056547 -3.7147340422747663
6.137317873027125 -3.687672616355987
6.3306457016642455 -3.655
6.480932029902923 -3.592439286025358
6.6750838020134875 -3.549205014661334
6.869660301492316 -3.500266752991906
7.109460906226412 -3.4675157711016023
7.304840763515399 -3.4063031896300373
7.545885480127884 -3.3596446718061093
7.787471060207646 -3.3055853470192553
7.983052987820039 -3.225362769311001
4.0704106595278 -1.5624842600175095
4.050075195587264 -1.4741068177336323
3.9806332032731238 -1.3706419302646298
3.9563951077878388 -1.2855106965997811
3.882597309209924 -1.187029121174311
3.8065963159157428 -1.0915239290353165
3.68017739816135 -0.9861005618406038
3.5997971444839467 -0.8975302326747668
3.5661944371139613 -0.8233208588985454
3.4332980785756573 -0.7297700347703354
3.3473486955565344 -0.650658674234018
3.308954050121019 -0.583457876960886
3.219863990340149 -0.5099763560311525
3.0797336937862836 -0.4328283439858034
2.9875639164403793 -0.36682672364949376
2.9437848102900888 -0.309404251272254
2.8491168365423922 -0.24926542425830206
2.803154981230106 -0.19601569122099174
2.6563545624471665 -0.13921364360623079
2.6084100585198398 -0.09108768639352766
2.509617714842542 -0.043805540157581674
2.41 0.0
2.3596405605690833 0.041187679191989145
2.3085928104141114 0.08061783738277735
2.206971271807608 0.11566246329690602
2.0849088650430323 0.14579103012522207
2.0023513431644084 0.17518304292279316
1.0541932090903698 0.11080017106371283
1.0620243822562148 0.13040019744350775
1.0100734301164018 0.14195656297926673
1.0568265244367974 0.16738487759304704
1.0537442957230627 0.1858035501036155
1.0503410862890006 0.204165625052903
1.0466179327851721 0.22246550917500257
1.0425759693202017 0.24069762814793566
1.0382164271153163 0.2588564282916446
1.033540634129303 0.27693637825969736
1.0285500146540012 0.2949319707241891
1.023246088880448 0.3128377240533283
1.0176304724358143 0.3306481839811937
1.058980804671235 0.36463633299201553
1.1934096283981035 0.4343655820235993
1.138968120326586 0.4372088984452664
0.9642712087494588 0.3895908571525486
0.9389149505214891 0.39854575105905937
0.977493639677583 0.4352082080911064
0.9697493321292154 0.45220154006254837
0.9347458081511336 0.4559059926606407
0.9533769808815538 0.48576983472131513
0.9447539243590518 0.5023345721809034
0.9096044954249716 0.5042020050561905
0.9006664199358163 0.5199999999999998
0.8914539927301968 0.5356395979064564
0.9243724248105045 0.5776119980141934
0.9141509190605122 0.5936565481663797
0.9036509540849955 0.609520264783114
0.8928757282750011 0.6251983156226405
0.92227937358744 0.6700751876134193
0.8705127059515492 0.6559783752357329
0.8983322591116629 0.7018540818712504
0.8470890979880985 0.6859592262443227
0.9115928873115838 0.7649172555269818
0.8981044004650987 0.7807102444987035
0.8843423423180989 0.7962654215670414
0.870310904926813 0.8115780484743732
0.8560143624029947 0.8266434608462069
0.8414570696119916 0.8414570696119914
0.8613763793691565 0.8919813524199276
0.8456779664774982 0.9068785900077714
0.8297219518849843 0.9214995835919687
0.8463161473977544 0.973575358487376
0.8291960164956359 0.9881973316234817
0.8118233044542903 1.0025182902794925
0.8249863769363823 1.0559344098330075
0.8064321310237446 1.0701715834633727
0.8170215006865376 1.1245336221811768
0.7972712465279538 1.1386213415616986
0.777278135824338 1.1523622258515078
0.7842802104216391 1.2076856178414104
0.7895797037074753 1.2635916632730746
0.7931586353614836 1.3200376430812528
0.7699999999999998 1.3336791218280357
0.770847296191676 1.3906453343516394
0.7464597848295662 1.403886672645694
0.7218448945858795 1.416700373459505
0.7189286807340867 1.4740222359306339
0.7142248623417821 1.5316601600919384
0.7361933239671987 1.6535172783331074
0.7189452764202636 1.6937289303524903
0.6892761318852785 1.7060182924028888
0.6773154246406172 1.7644670060797112
0.6635190780517976 1.823003684324662
0.6804374428154571 1.976133823002572
0.6612963679623876 2.0352609448716286
0.6695312038150667 2.1899378911553513
0.644991412611778 2.249352368495666
0.5331672329111932 1.9898072021554805
0.5104551997152987 2.0473239824423524
0.48139525629587143 2.0851519386404034
0.44908925216636 2.1127988175850203
0.4560334989499424 2.346088968439917
0.42717451706064835 2.422627072410032
0.6898759908274184 4.355705582024558
0.6415879954259008 4.565135796898639
0.5922850089490168 4.823774296976826
0.5289140241343275 5.032280790563463
0.4627969939900647 5.289793846867169
0.39133381770454384 5.596334321957614
0.31192229920794473 5.95183202713726
0.2202158241927818 6.3061561184904935
0.11710564719417145 6.708978034499386
