# .PCD v0.7 - Point Cloud Data file format
VERSION 0.7
FIELDS x y
SIZE 4 4
TYPE F F
COUNT 1 1
WIDTH 175
HEIGHT 1
VIEWPOINT 0 0 0 1 0 0 0
POINTS 175
DATA ascii
0.20451105067665634 -5.856430246331901
0.35117426639015403 -6.700804178203191
0.4715537625102881 -6.743532979756411
0.5848150338367861 -6.684466424195612
0.8268201444471388 -7.866668192363042
0.988360375015746 -8.04954928981112
0.5622593278786645 -4.000682997715944
1.5424438252966768 -9.738607038268057
1.9379136627629434 -10.990454523616242
2.463344130311195 -12.672806938309343
3.1623368173381214 -14.877625007161184
4.118853805036171 -17.840715886217655
5.887613920251102 -20.53254982524249
6.157348101460836 -20.139778160581525
6.507897901536393 -20.029250233175933
3.454278118790433 -10.03195208710875
1.3201977532370817 -3.627213516233606
1.2578715029040042 -3.276867297005178
1.168772571457646 -2.8928136262483766
1.3323931481484235 -3.138921550272822
1.183603631350579 -2.6584172817399683
1.0607718369691554 -2.274832545461991
0.990718791743315 -2.031274544636117
0.912520904476489 -1.7909231136186192
0.8497435286424625 -1.5981351430746578
0.8047839696089196 -1.4518687138513968
0.7549999999999998 -1.3076983597145024
0.7519555893686792 -1.2514642590250837
0.6941942361454985 -1.1109430059649181
0.6481204516678822 -0.9980179758550545
0.6654395551301888 -0.9865547113404994
0.6710844305307239 -0.9584078918181204
0.7170980077968172 -0.9870007331374359
0.7342143282454988 -0.9743353222576973
0.7511069998973032 -0.9613731194002006
0.7363048575283097 -0.909260774904656
0.7649172555269818 -0.9115928873115838
0.7807102444987036 -0.8981044004650987
0.8297219518849842 -0.9214995835919688
0.8456779664774983 -0.9068785900077713
0.8613763793691566 -0.8919813524199274
0.8980256121069154 -0.8980256121069153
0.9279483424368601 -0.8961092978921065
0.94344627508873 -0.8797778844806231
0.9586568248658387 -0.863178482202927
0.973575358487376 -0.8463161473977544
1.0035182204858613 -0.8420517686893665
1.1579474825708866 -0.9376873826642577
1.213536560554352 -0.9481186720015137
1.2298986854728309 -0.9267951356541544
1.2458861713374192 -0.9051892885304087
1.2614941482050475 -0.883307711980611
1.2767178617347643 -0.8611570713449501
1.3334862030332244 -0.865976065673893
1.3907988776965388 -0.869067593342456
1.4057543731514641 -0.8446624428524886
1.4635829323957013 -0.845
1.5218382904225485 -0.8435687392286265
1.536328811574533 -0.81688051924745
1.5949016782971785 -0.8126429945337887
1.608841342875509 -0.7846843527524485
1.667606328147436 -0.777617601602887
1.7266009149445158 -0.7687322554132623
1.7857794156977342 -0.7580183892691909
1.7987366778595675 -0.7267367912268691
1.8578250487294314 -0.7131522195951476
1.916972946403253 -0.6977210923843643
1.9004923369546267 -0.6543919904588849
1.9401552932421133 -0.6303946685248927
1.9221725594857013 -0.5876671264927007
1.9609738597141706 -0.5623002058666782
2.018784976944153 -0.5409318042642682
2.1249476405444323 -0.5298089513632721
2.182588945118927 -0.5038903617302574
2.239958005680415 -0.476117771972669
2.2970076092675336 -0.44649304918111493
2.3733866847594216 -0.4184921081773022
2.4790977348937955 -0.39265050725097944
2.53508625597842 -0.35628313845776743
2.689800070947983 -0.3302659206279495
2.744880431216434 -0.2884985586187233
2.89892657144698 -0.253623211395685
2.5537639686651503 -0.17857657278496045
2.586450495014346 -0.1355501266692247
2.6084100585198398 -0.09108768639352766
2.70958725387382 -0.04729602144503838
2.81 0.0
3.90940448806149 0.06823890916977862
4.157465840399438 0.14518190628240424
4.354024771529942 0.22818476921923544
4.698526676723772 0.3285529913348306
5.09055490724882 0.44536584544053387
5.4300895487107725 0.5707254094413887
5.9155750637822795 0.7263412866946787
6.397131724070545 0.8990582322020225
7.121232935690943 1.1278924929400647
8.134512039880837 1.4343339475288448
9.040786359552985 1.7573508474179784
10.475960803859058 2.226734208658203
12.384243523420341 2.8591279007105252
14.321564919833708 3.570767179051097
21.93617551502474 5.87778051427825
41.41755898075907 12.662618531541728
41.190257720743105 13.383526026378972
40.99768543798638 14.116635177262314
35.57676262295449 12.94888262630982
21.248290507076312 8.156454531651036
21.05634533721174 8.507315736475364
13.63267687963064 5.7867280129261465
12.159290041223018 5.413664719338902
10.522233407495506 4.90659801880952
9.04186810576962 4.4100137366981205
8.117069435356031 4.135853452627271
7.293147117014736 3.8778351086114595
6.612124985973831 3.665160729062308
6.027536810339694 3.4799999999999986
3.308665780710153 1.9880469691528093
3.2734656511638045 2.0454883599401708
3.2372683922693364 2.102306675158005
3.1586331514347092 2.130524962223545
3.202884493169958 2.242683866132591
3.8104700435060024 2.7684685382975482
3.5619143748109257 2.684095003258136
3.3569258103646353 2.622717884887304
3.155212603515302 2.5550407876623393
2.956931550439255 2.481160173390042
2.8377080216376225 2.466781949004307
2.6827528199733925 2.4155614889554786
2.53048380760233 2.3597143258162445
2.3810147391209346 2.2993192062192813
2.269812767608818 2.2698127676088173
2.125654613604531 2.201179789036273
2.0187151457849954 2.1648069567927446
1.9137135341863347 2.125394200865347
1.8763288229128507 2.158469399437128
1.7419544222505219 2.0759804408524305
1.6739922401925675 2.0672082574755426
1.6068764505999684 2.056708066913544
1.5105557081116407 2.004575130218705
1.4635852782082583 2.014452315993619
1.3995265046965522 1.9987309880651403
1.3085113941215474 1.9399479197787974
1.2744553419351636 1.9624891289922919
1.2135151150940393 1.9420301401982154
1.1279333840530188 1.8771963885376257
1.0949999999999998 1.8965956342879207
1.0374925873271614 1.871686173278307
0.9811955662225114 1.8453604690751573
0.9488401444556529 1.8622036355536888
0.8942771394497175 1.8335398544503008
0.8198794277769569 1.758237106851101
0.7890690875670527 1.7722781878266454
0.7384818328447272 1.7397541730251123
0.7080064615560739 1.752377485131228
0.6593970271633524 1.7177879847548512
0.6293170637192307 1.7290344222460714
0.5827669964783102 1.692478250322777
0.5531404199311559 1.702391164168325
0.5233453514536984 1.7117855131738338
0.47960899912157856 1.672595350932675
0.4503451384783865 1.6807109377429788
0.40884800356343837 1.639799777406434
0.3801672818411321 1.6466854094870476
0.3513707574820131 1.6530694452401316
0.31865102227883 1.6393173963575989
0.27610060249041907 1.565844327289411
0.2565525226659787 1.6198088785760258
0.2254604235553057 1.604234271361344
0.19742833631633894 1.6079247656589417
0.16933611049359898 1.611125470496603
0.14119230325120619 1.613835410908628
0.11300548746548325 1.6160537614209154
0.08216745130142168 1.567848369564681
0.0547922098229267 1.5690435984199804
0.02652765778467073 1.5197684966377147
