# .PCD v0.7 - Point Cloud Data file format
VERSION 0.7
FIELDS x y
SIZE 4 4
TYPE F F
COUNT 1 1
WIDTH 180
HEIGHT 1
VIEWPOINT 0 0 0 1 0 0 0
POINTS 180
DATA ascii
7.776507174585693e-17 -1.27
0.02216455617535017 -1.269806572848617
0.04432236081217637 -1.2692263503142516
0.06646666442853884 -1.2682595091383089
0.0920785453422456 -1.316784546342968
0.11504558042690875 -1.3149770014811042
0.13797757151330256 -1.3127689018861208
0.1547740661245373 -1.260533612584479
0.18370849326728642 -1.307153850738873
0.20649349385310484 -1.303748609585582
0.22053318563700164 -1.2507058463255043
0.2518678738970393 -1.2957478821509165
0.2744434318794425 -1.2911548329686233
0.296935391733902 -1.2861684855165105
0.3314329969715447 -1.3293051449981153
0.3416411395353274 -1.2750220907015701
0.37762317746928886 -1.316928523435497
0.3917780843284673 -1.2814483729904675
0.423353282293678 -1.3029474273243604
0.4623067793291626 -1.3426363773510297
0.4856686035224497 -1.3343635215159897
0.5088824883543265 -1.3256842056260265
0.5207031648481178 -1.2887855578478342
0.5626528250245542 -1.325526988971514
0.5979028653214266 -1.342911822734623
0.6001179316717932 -1.2869570575920428
0.6312544513762716 -1.2942634266708004
0.6764458446119248 -1.3275997210406683
0.7135967754345541 -1.3420803411455688
0.7223663341670423 -1.3031833636376997
0.7699999999999998 -1.3336791218280357
0.7931586353614836 -1.3200376430812528
0.8425716301307958 -1.3483964728887174
0.8387441139231417 -1.291552674635953
0.9170763616920249 -1.3596216189902681
0.9406653556157155 -1.3434093526339466
0.9639678137596559 -1.3267878707749137
1.047158140284564 -1.3896257874822895
1.0712509670666457 -1.371138711275696
1.095017480426717 -1.3522339729351294
1.1505898213389054 -1.3712195531829707
1.1743456618930082 -1.350930148598762
1.1977437853823563 -1.3302292376045357
1.2548769825149975 -1.3456908109792736
1.3476372386904547 -1.395519212656983
1.3717871555019023 -1.3717871555019021
1.4674531926908485 -1.4171030757363545
1.5285292363840663 -1.4253765725306218
1.553172685247754 -1.3984829672900134
1.6150785016767322 -1.4039663220396856
1.7312604414488901 -1.4526999978915787
1.8340644690384513 -1.4851961228776163
1.938506453872536 -1.5145272293011192
2.04450690572107 -1.5406464592692437
2.1115343553186126 -1.5341195084833548
2.178944437808718 -1.5257133206937825
2.329595578879667 -1.5713320587527986
2.4405313527211843 -1.5848995918937285
2.5526247694308424 -1.5950569853419467
2.5372152100782523 -1.5245127017337599
2.60673646539116 -1.505
2.676336303846551 -1.4835174379537914
2.8342617730771558 -1.5070037165427095
2.993781921272916 -1.5254080791248772
3.154767102510076 -1.5386827252296615
3.3624018899059713 -1.5679137510579948
3.5262854665004397 -1.5700034422725886
3.7832749476895304 -1.605904938090915
3.9961624131828533 -1.6145544176225801
4.257126744827239 -1.6341578499265694
4.566906137019514 -1.6622178965627503
4.926151778872441 -1.6962100847217865
5.335427056415812 -1.733585338443455
5.795206821135995 -1.7717725306197845
6.353939810152288 -1.8219629219503641
7.0126214988586355 -1.8790262674443001
7.772068767470731 -1.9377943837533376
8.730355780475708 -2.0155614469210295
9.05764678279504 -1.925262256972452
16.697478390444765 -3.245661011355028
16.89930104168949 -2.979802728764525
16.998116341642323 -2.6922371433423735
21.102612544882863 -2.9657787814589938
37.57779730114046 -4.613973341318882
37.60287286387442 -3.9522211961499747
37.6661215348489 -3.2953586332889517
37.71789674032396 -2.6374922722653733
37.75818270907044 -1.9788225055457092
27.793058899401053 -0.9705550032965533
17.257371218399314 -0.30122853510751385
17.21 0.0
17.107394064125852 0.2986106741419213
9.304328599547782 0.3249143143002845
9.34717244530281 0.48986455043395494
8.28975725765914 0.5796762968136822
7.531231917573596 0.6588974151722966
6.872146296994768 0.7222916811794865
6.262966216856742 0.7689955568864802
5.802970882825603 0.8155543716259833
5.392778339649452 0.8541321791196606
5.032367617892383 0.8873421878780142
4.67254539321088 0.9082508179923535
4.4114456793094625 0.9376817255880948
4.150816475985102 0.9582914915048653
3.9394006486805453 0.9822028961346514
3.7284736894758033 0.9990415140957307
3.566280891931163 1.0226145900810666
3.3566296934302544 1.0262246835768059
3.2431027205664735 1.0537479508185708
3.0823905564537726 1.0613521835303308
2.9224440506441747 1.06368264574283
2.810077083756577 1.078687528131354
2.7444642095176905 1.1088355165111
2.540593395528735 1.0784179146303958
2.4757081902114484 1.1022563027354189
2.410778713517489 1.1241645762302603
2.255973056210909 1.1003115784405846
2.191876049503385 1.1168166293592852
2.1543921265757815 1.1455106131975739
2.090341100063156 1.1586949923887457
1.9831981746663647 1.1449999999999996
1.9200547535727315 1.1536852877985218
1.857225330582573 1.1605231886707188
1.7947550154032073 1.1655275349321583
1.7326885266400371 1.1687131682538607
1.671070170349543 1.1700959301561344
1.6099438188061455 1.1696926520620214
1.5493528894917479 1.167521144914974
1.5287408619970404 1.1943832621317771
1.4688058671536752 1.1894155390841925
1.4478239974948683 1.2148685823075593
1.3886656276099005 1.2071486133425333
1.3302292376045355 1.1977437853823565
1.2725554408173567 1.1866771465087473
1.2516512525892527 1.2087055645986553
1.1950104602052654 1.1950104602052651
1.1739726460757052 1.2156842625723208
1.1184773105024974 1.1994200706554394
1.0973741944285276 1.2187575137829263
1.0431338560949066 1.1999882325542075
1.0220322994015978 1.218010664559175
0.9691534022167496 1.1968047806437352
0.9789017457677969 1.252937098234688
0.9568858868117566 1.2698304609751958
0.875800025915785 1.2054353216186717
0.8661004188900794 1.2369195868763778
0.8220135681019978 1.2186852316559114
0.8278513332228413 1.2747792632770445
0.7630837404958151 1.2211892584652533
0.7571059701177798 1.2600359320321048
0.7199999999999999 1.2470765814495917
0.7126701417621155 1.2856909694949117
0.6666496191559647 1.2537855818596764
0.6446665096301565 1.2652292643474823
0.6093358940368173 1.2493237243558422
0.5663084707325373 1.214452434629111
0.5450271017215725 1.224150913241085
0.5353016460303051 1.2610916492298434
0.5319413626505952 1.316601073484838
0.4909640908770613 1.2790051843011665
0.46856759635616635 1.2873788904766945
0.4460283716063045 1.2953604485710641
0.423353282293678 1.3029474273243604
0.4005492354701491 1.3101375156693589
0.37762317746928886 1.316928523435497
0.3416411395353277 1.2750220907015701
0.3314329969715447 1.3293051449981153
0.3081829444510953 1.3348869887557724
0.2744434318794422 1.2911548329686235
0.2518678738970393 1.2957478821509165
0.2292155945203479 1.2999462339761148
0.19867177060109328 1.2543641925558249
0.18370849326728614 1.307153850738873
0.1608675332947947 1.3101609201665452
0.13797757151330287 1.3127689018861208
0.11504558042690875 1.3149770014811042
0.08859072165503933 1.2669063438299768
0.06908346224068575 1.3181909858760374
0.04432236081217637 1.2692263503142516
0.02216455617534989 1.269806572848617
