# .PCD v0.7 - Point Cloud Data file format
VERSION 0.7
FIELDS x y
SIZE 4 4
TYPE F F
COUNT 1 1
WIDTH 180
HEIGHT 1
VIEWPOINT 0 0 0 1 0 0 0
POINTS 180
DATA ascii
9.307315673519885e-17 -1.52
0.02740027810653525 -1.5697608813955344
0.053047234987801645 -1.5190740570690255
0.07955065348927483 -1.5179168928269522
0.10602984009107069 -1.516297356394933
0.13683451611382327 -1.5640256760040405
0.15888326416683327 -1.5116732809597755
0.19133486914608155 -1.5582974580768756
0.2185017685073028 -1.5547208679242654
0.24560211011316258 -1.5506706947343663
0.27262763893708075 -1.5461481722291666
0.2995701227411755 -1.5411546780128325
0.32642135458388233 -1.5356917331520747
0.36442070803706156 -1.5784795049520812
0.39191347087146167 -1.5718790765671145
0.4192868530660836 -1.5647998385882909
0.4382633957490287 -1.528406096541927
0.4882607468869704 -1.597028942458269
0.5160583806061623 -1.5882643822129063
0.5339317733097371 -1.5506504639828793
0.5780140422203803 -1.588080529128185
0.6056418347315576 -1.577750920780271
0.6330851428728915 -1.5669407142178704
0.6603356071468726 -1.5556532023346241
0.6873849267981026 -1.5438918234159953
0.735355775428817 -1.576975549443771
0.7627657954129948 -1.5639016405605504
0.8126429945337889 -1.5949016782971785
0.8403540973867447 -1.5804761912174792
0.8678092202409434 -1.5655692757795183
0.9199999999999998 -1.5934867429633672
0.9476700578344999 -1.5771878332918865
1.0015474094007573 -1.6028109017356449
1.0565997279291526 -1.6270209018141224
1.084834232733249 -1.6083328907567807
1.1127382865210294 -1.589154965920644
1.1696926520620214 -1.6099438188061455
1.1976118960725761 -1.5892846649941128
1.255949409664343 -1.6075419373577127
1.31527961729416 -1.6242350594450692
1.3434261042448672 -1.601032886118664
1.4039663220396856 -1.6150785016767322
1.4653960279258995 -1.6274871677954934
1.527676326539997 -1.6382322916269418
1.5907676683511038 -1.647288142775511
1.619274528917194 -1.6192745289171937
1.7192221228093765 -1.6602335053970034
1.7845030319507762 -1.6640759985524962
1.850430615438712 -1.666135209833557
1.8414913757435636 -1.6007840307368377
1.8691484412103063 -1.5684017676351558
1.818521549809312 -1.4726097150566193
1.8597053785118638 -1.4529610817685532
1.9247115792139757 -1.4503742057964364
2.030632655881118 -1.4753409832541073
2.056071631165369 -1.4396768552411254
2.2052399429964114 -1.4874531232321866
7.011285948023745 -4.553182332725625
7.047279679059901 -4.403629085777933
7.0802019037994475 -4.2542144987570465
7.326574916016352 -4.23
7.749130605255046 -4.295413235382546
7.867063052373039 -4.182991624422288
8.072519109146613 -4.113153927640294
8.23295346410037 -4.015479704587949
8.347094718607547 -3.8923141906318417
8.505108210652615 -3.7867181470356996
8.661950670987464 -3.676779919084065
8.817518456930149 -3.562508703385322
8.925028877313249 -3.425997597653071
9.077430716791875 -3.3039145845259603
9.228261297849333 -3.1775451875018494
9.329864424855456 -3.0314567148182343
9.42916489379553 -2.882785008566184
9.52610340674874 -2.7315661961464612
9.620621229839122 -2.577837689221106
9.712660220022725 -2.421638174952673
9.753444348500205 -2.2517600539820872
9.791257483345394 -2.0811960250857715
9.8751694654835 -1.9195384934880413
13.403233518496151 -2.3633516980469222
15.961043584017427 -2.527980955050131
21.30066615863118 -2.993613401651007
28.496000013622357 -3.498868849161783
30.39258912245443 -3.1943898374594872
30.393900238779157 -2.6591217112310477
30.435679173427243 -2.128270013933259
30.518118582099774 -1.5993868227843657
30.541383673703564 -1.0665286192284311
20.656853381931043 -0.36056671699427784
20.51 0.0
13.00801851398465 0.22705580774905879
9.953932637110194 0.3475989871569102
9.896418689417827 0.5186493263675741
9.885859738074858 0.6912866548042828
9.772669988280024 0.8549978363545279
9.756259793562762 1.025424224655682
9.687250440019303 1.189444791634239
9.56598954404357 1.3444121552742319
9.491684953119274 1.5033352090366185
9.414762118796709 1.6600765784958542
9.286193155414901 1.8050530962621145
9.15546154286842 1.946053426054228
9.022666799911278 2.0830467632241905
8.887908852688128 2.2160045636929575
8.702991694864505 2.3319595963737134
8.612904795607339 2.4697107081203122
2.3525096996690675 0.7192343936179323
2.2444933784565624 0.7292801067248759
2.0895960520744903 0.7195056213503163
2.010942208481844 0.7319231067169312
1.9511830913791515 0.7489890145496776
2.030532641501264 0.8203884395808475
2.015905629060844 0.8557011713915098
2.092019098001556 0.9314269126435828
1.9848140536102634 0.9255339932121316
1.9234192590802173 0.938114254128626
1.8622036355536888 0.9488401444556528
1.801213089432211 0.9577219880832176
1.6967622318504276 0.9405306632778939
1.6367880131525891 0.9449999999999996
1.5771878332918865 0.9476700578344999
1.5180060921200027 0.9485554829774367
1.4592867882250375 0.9476719209261473
1.4425253762457726 0.9729956520390994
1.384366954848396 0.9693441774332682
1.3267878707749137 0.9639678137596559
1.2698304609751956 0.9568858868117571
1.2135365605543518 0.9481186720015138
1.1968047806437354 0.9691534022167494
1.1797084424032263 0.9898929189172706
1.1245172745319303 0.9775279531958556
1.0701285486874474 0.963548073156756
1.0531493303316055 0.9820776384899977
0.9998823224707247 0.9655751349380063
0.9828784258493011 0.9828784258493009
0.9308422164150563 0.9639153324537928
0.9138778024837481 0.9800139601696884
0.8966350125208702 0.9958140661397082
0.8463161473977544 0.973575358487376
0.8291960164956359 0.9881973316234817
0.7803572849017983 0.9636609922066439
0.7634202294038164 0.9771333344723352
0.7462506287085398 0.9903080324586432
0.7288537128426666 1.0031810730249349
0.7112347810752969 1.01574853491835
0.6654395551301887 0.9865547113404997
0.6481204516678823 0.9980179758550545
0.6306039244375138 1.009177234426147
0.5871434053974618 0.9771707228004078
0.5699999999999998 0.98726896031426
0.5526829670808243 0.997066466138911
0.5351975815759152 1.0065602558591766
0.5402486946900608 1.0602977637841577
0.4778245500000942 0.9796855104660921
0.46065390529736244 0.9878754878699485
0.44334294095262244 0.9957645488304349
0.42589693005330836 1.0033502902631601
0.4083211868233443 1.0106304014777983
0.3727026675271122 0.9709236435570898
0.372801956224979 1.0242649566566402
0.3385908806354428 0.9833393186232896
0.32137767414994534 0.9890987769469597
0.31868515814778287 1.0423721839997089
0.29493197072418914 1.0285500146540012
0.2691718069066218 1.004562859340631
0.2515987714236544 1.0091075553270363
0.24069762814793572 1.0425759693202017
0.22246550917500238 1.0466179327851721
0.19462517528407583 1.0012597271166173
0.17712114122026884 1.0045039080724523
0.1548701203898286 0.9778114571891864
0.1489152180272698 1.0595868335534804
0.1304001974435078 1.0620243822562145
0.11184545569638944 1.0641384280440525
0.09325664473999422 1.0659283269581679
0.07115160321900797 1.0175153312650207
0.05599947317994981 1.0685336021873941
0.03734246147167616 1.0693481849104325
0.017801454566029044 1.0198446490595192
