# .PCD v0.7 - Point Cloud Data file format
VERSION 0.7
FIELDS x y
SIZE 4 4
TYPE F F
COUNT 1 1
WIDTH 180
HEIGHT 1
VIEWPOINT 0 0 0 1 0 0 0
POINTS 180
DATA ascii
2.27171981241834e-16 -3.71
0.06387580756045798 -3.6594425642723922
0.13052411766735406 -3.7377216930514185
0.19311967853646322 -3.6849429832443774
0.2574013881158229 -3.681011345458751
0.3172469036014756 -3.6261487010539537
0.3752571831308759 -3.570333604372101
0.4375109428244795 -3.563240684392346
0.49267277739863174 -3.5055489633451593
0.5537780062424175 -3.4964167257067875
0.6060321400575872 -3.4369790580126063
0.6659233938641418 -3.4258788702323475
0.7256118009539806 -3.4137351265609817
0.7850791796600894 -3.4005515261004713
0.8322113208628568 -3.3378172983894276
0.8773965628975453 -3.2744885511199415
0.9344106362196272 -3.258677149230901
0.9911400790100777 -3.2418731227146904
1.0475676109310719 -3.2240815902405706
1.0873976358869035 -3.1580320425017177
1.1252462715414504 -3.091588722385638
1.1790305540040382 -3.071479603175794
1.2324556923383512 -3.05043488152473
1.265968856305247 -2.982435725185907
1.3178267235655934 -2.959887282762027
1.348152254952831 -2.8911218406469135
1.398403958257157 -2.8671530076943426
1.4255301691821771 -2.7977604859514753
1.4741407071476973 -2.7724554415770304
1.5223022075734987 -2.7463058804177027
1.5699999999999996 -2.7193197678831376
1.6172195552175705 -2.6915053242046323
1.637450526480603 -2.620468617123356
1.6557026664456824 -2.549558526554089
1.6999464265510706 -2.5202742205673268
1.74367236650718 -2.490222214638535
1.7868671669691183 -2.45941166289984
1.7994269192246244 -2.3879201750414056
1.8408278112237189 -2.3561521532840985
1.8502019496865219 -2.2848091266834945
1.8897955724784257 -2.2521706627697955
1.9288135452320914 -2.21884616585495
1.9672439826950432 -2.184845786903539
1.970975260580621 -2.1136121976794024
2.0075626906265023 -2.078892022978702
2.008183258569795 -2.0081832585697947
2.0788920229787022 -2.0075626906265023
2.113612197679403 -1.9709752605806208
2.1105313043558 -1.9003309220591569
2.143375207832672 -1.8632076423330406
2.1755662184578974 -1.8255168115097713
2.168237232464949 -1.7558038910290463
2.2379505402430904 -1.7484785899248692
2.1882612975295825 -1.6489731634366125
2.2571574143061035 -1.6399208538960002
2.244476601351838 -1.5715994356018663
2.147207312917558 -1.448309619989234
2.1721567709786482 -1.4106151006889198
2.1540421642373224 -1.3459949311523405
2.13434657874826 -1.2824448065260348
2.1564032554232524 -1.245
2.1340720854201254 -1.1829354734010624
2.154392126575782 -1.1455106131975736
2.1295055928101996 -1.0850372943775168
2.148117770655009 -1.047707040825895
2.229517156110159 -1.0396409238821205
2.3386763715650587 -1.0412458062740484
2.4485429101834915 -1.039344801781468
2.4663090531476546 -0.9964535384863257
2.5766819771322766 -0.9890955407450288
2.7345055264869935 -0.9952786170776962
2.8932868413339095 -0.9962385526388995
3.0528914173074426 -0.9919445519435811
3.2609992178339513 -0.9969875131045323
3.374028552743499 -0.9674871189176668
3.6318811068468966 -0.9731596095854778
3.8908858623667455 -0.9701068013546671
4.150816475985102 -0.9582914915048643
4.264723539199393 -0.906494971965431
4.2798945198318155 -0.8319272198417357
7.8390697139771754 -1.3822394942287657
4.553243250143585 -0.7211628838354643
9.318422526858177 -1.3096188800342154
10.084268900675832 -1.238192528996298
11.446947015688826 -1.2031226122106904
12.910683287269023 -1.1295384260096486
14.873679989373981 -1.0400690235249064
17.635797583765775 -0.9242529872503894
21.047170817022156 -0.7349834005546714
21.00680007523578 -0.36667505924732713
27.11 0.0
23.556411697884577 0.41117869566240006
23.745526049973716 0.8292120416514243
27.122778163934225 1.4214445715583564
25.74712813720606 1.8004145873358766
25.612165687938777 2.2407741460422947
21.342439874603144 2.2431808217238465
21.250413106640707 2.6092226423042066
19.716237248644667 2.770936440114902
15.26966174560083 2.4184768295219694
13.157031580243098 2.3199396536301893
11.691179754861679 2.272535134934649
10.427053423822368 2.216338624117315
9.412414825825373 2.173027184961737
8.54830534849153 2.1313319002330737
7.881954742518797 2.1119634080365706
7.267138421293691 2.083818409976513
6.751511577099031 2.0641442353425212
6.286483572710965 2.042602332818402
4.264288775952918 1.4683123766017767
3.6741981472729015 1.337298760403365
3.4635833823046185 1.329545092813064
3.2080561368010843 1.2961388132190559
3.0468710649275774 1.2933200352994965
2.886803646150619 1.2852877921195291
2.7733018283321487 1.29321188092654
2.5705509724156173 1.2537414798167619
2.4591780067598954 1.253013779281149
2.3486405970047457 1.24879435701047
2.326488420990793 1.2895935898552566
2.173723763498941 1.2549999999999994
2.0657731946920905 1.2412417605332309
2.0268349498138583 1.2665070415173598
2.046356185786834 1.3289192454366663
2.0228516770343017 1.3644306844686223
2.0396885902795896 1.4282053265141053
2.014452315993619 1.4635852782082583
2.0285341955201237 1.528610158806203
2.0409478518414095 1.5945632210934548
2.0516653382464036 1.6614058323715706
2.060659551990051 1.7290986700567907
2.105639728821534 1.830404690883515
2.0733740630819297 1.8668743917412147
2.0770445125984445 1.9368753425774956
2.006958042944836 1.9380968535806027
1.9728279195104677 1.9728279195104674
1.9728297721035517 2.0429250329617696
1.9368753425774956 2.077044512598444
1.9003309220591575 2.110531304355799
1.8632076423330406 2.143375207832672
1.8576561919940993 2.2138684406138465
1.8187359301340302 2.245951828610646
1.779261663691153 2.2773510779234263
1.7392454169094191 2.3080566240366767
1.7574779043544948 2.418960813181093
1.686314722872075 2.408307010209636
1.671986781377533 2.478822341939575
1.6284707146949313 2.507624998156818
1.5844586000572827 2.5356638075077136
1.5399638439810623 2.5629302290993157
1.5199999999999996 2.6327172275046937
1.4738212455488648 2.658843909703763
1.4506671290084021 2.7283080619340843
1.4028306441951996 2.7532101597420566
1.3764854009177026 2.8222133053793845
1.3270213418657963 2.845806451295081
1.2771530592580131 2.8685327369977665
1.2268957434563195 2.890385239840663
1.1949950329967598 2.9577164960680515
1.1611121565267726 3.024800581850934
1.108145264375167 3.044604091346343
1.0548408204411872 3.063480184941787
1.0012150617748299 3.0814231127962977
0.9619029085378032 3.146242647118387
0.9206287684287772 3.210614064433985
0.8644556106424199 3.2261922598054875
0.80801913130289 3.240787725761828
0.7513365215085095 3.2543960163826857
0.7048206318722038 3.3159203664876014
0.6563829440953145 3.376797511059964
0.59734973117424 3.387738670361996
0.5381345597383944 3.397647891647274
0.4787554673026244 3.406522156471002
0.4253240084839648 3.463986069228214
0.36480433680411134 3.470881414835274
0.3041735421893269 3.476719496340192
0.24693791705420412 3.5313767379197776
0.18788608291216805 3.58508002976892
0.12424220826090385 3.557831344187981
0.06352675943171149 3.6394456103692643
