# .PCD v0.7 - Point Cloud Data file format
VERSION 0.7
FIELDS x y
SIZE 4 4
TYPE F F
COUNT 1 1
WIDTH 180
HEIGHT 1
VIEWPOINT 0 0 0 1 0 0 0
POINTS 180
DATA ascii
4.592425496802574e-17 -0.75
0.014485497342945386 -0.8298735869798047
0.027221607427950843 -0.7795248450748947
0.04343884368164349 -0.8288625138462963
0.05580517899530037 -0.7980512402078594
0.07233926648055625 -0.8268415994161488
0.08362277061412277 -0.7956175162946186
0.09140200755386062 -0.7444096137309915
0.11133848076805238 -0.7922144549932564
0.12514757203218474 -0.7901506724761103
0.14760095101689086 -0.8370865900603768
0.15264719630123594 -0.7853017467581312
0.16632935265420756 -0.7825180805870445
0.1799608434750921 -0.7794960518281883
0.20563361125971752 -0.824751367334597
0.2070552360820166 -0.7727406610312547
0.22050988465359933 -0.7690093567506552
0.24851594901432625 -0.8128590425685801
0.27811529493745274 -0.8559508646656382
0.27673293128858323 -0.8036907892594192
0.29071712182681847 -0.798738727668022
0.30461275711350533 -0.7935433625226215
0.31841560440352534 -0.7881062763817692
0.33212145921588265 -0.7824291254345743
0.36606297876822036 -0.8221909118783407
0.3803564355666295 -0.815677008332985
0.39453403211016974 -0.8089146416692502
0.4312909747525695 -0.8464561979789494
0.4225244065073018 -0.7946528335730342
0.46056913923402026 -0.8308887217824259
0.4499999999999999 -0.7794228634059949
0.48928617116455153 -0.8143089356670066
0.5299192642332049 -0.848048096156426
0.5446390350150271 -0.8386705679454239
0.5591929034707469 -0.8290375725550416
0.573576436351046 -0.8191520442889918
0.5877852522924731 -0.8090169943749475
0.6018150231520483 -0.7986355100472928
0.6772276228582242 -0.8668118289673942
0.6922524301548212 -0.8548605576026681
0.7070663706551934 -0.8426488874308758
0.7544678833390833 -0.8679160172561877
0.7695001973126869 -0.8546165492990033
0.7842981140718733 -0.8410567568620458
0.8335900445507967 -0.8632077604063813
0.848528137423857 -0.8485281374238569
0.899174750423314 -0.8683229630737466
0.9141921270239632 -0.8524979500781231
0.928931031846743 -0.8364132579485727
1.0188579333007424 -0.8856796891371849
1.0341599982106204 -0.8677632730768281
1.0491470479669107 -0.8495825279172805
1.1426155927297468 -0.8927091392222043
1.1580214895685745 -0.87263178357047
1.2135254915624212 -0.8816778784387097
1.2696856686479374 -0.8890434763441214
1.326460116088067 -0.894708645553195
1.3418729087126786 -0.8714224560240432
1.399279358658103 -0.874366785984788
1.5000427762286965 -0.9013166310925946
1.5588457268119895 -0.9
1.6355388523506702 -0.9065939898606503
1.7217478060749076 -0.9154695474324871
1.799833178860503 -0.9170608094738846
1.8605036758392757 -0.9074282738533902
1.9666878978695304 -0.9170816279773176
2.0737481888487044 -0.9232921797820663
2.273646988027528 -0.965105887368506
2.6146584698783406 -1.0563905934328714
2.726054845371829 -1.0464344126722769
2.931840976852034 -1.0671028471760866
3.1202112994777456 -1.074374909708617
3.1099548082851523 -1.0104855716060779
3.2705622653935813 -0.9999112301517595
3.623956593687462 -1.0391528314300866
3.9313181129965082 -1.0533935135672592
4.240192323826105 -1.0571986837705476
4.745182215504096 -1.0955116346546219
5.301559995977226 -1.126881364232256
6.007558362699704 -1.1677510517044545
6.962590813796311 -1.2276926161051978
8.31633582781106 -1.3171781956387438
9.773945838479298 -1.3736385064758454
12.774068971623814 -1.5684584496242473
16.926762659168013 -1.7790744448154605
29.35785775276374 -2.5684797387734832
39.82275688637219 -2.784678431865477
45.75720528245457 -2.3980335150516896
30.951133912781394 -1.0808374128764564
24.266303561445614 -0.4235699042328714
17.02 0.0
12.918032221420575 0.22548509116970328
10.463621958889933 0.3653977304751857
8.508323636108969 0.44590234718988203
8.299732898161738 0.5803738615511234
7.391764659840752 0.6466956111876245
17.374297512083732 1.8261122532859084
5.5781093722242305 0.6849057099369286
5.614819949764704 0.7891114824435709
5.698961725233945 0.902626863282132
4.500571431265791 0.7935721719378718
5.02593117925204 0.9769420563279098
5.008115715757085 1.0645078569869282
4.940056228461143 1.140501845523396
5.016428904846902 1.2507362002502826
3.1102811606508 0.8333973252301173
3.1433257457183026 0.9013341535215871
3.1271165519991264 0.956055474443349
5.0596206666902175 1.6439704100747203
5.077434750968331 1.7483009894349315
5.093134004659623 1.8537491768251246
5.106684932939693 1.9602726840127926
2.17888205823195 0.8803254945273935
2.0895460173370393 0.8869596616706518
2.028070915966574 0.9029553476282768
1.9666878978695304 0.9170816279773176
1.9503830804691922 0.9512653885322983
1.9334841574887582 0.9851593844348165
1.9159962765038712 1.0187532912453834
1.8104627937785491 1.0035559139099177
1.879275126212232 1.0849999999999995
1.817194677488478 1.0918807188093151
1.7554595590438018 1.096932876962734
1.6941145472497563 1.100170850730355
1.6746558965611844 1.1295696650109086
1.6137295272493135 1.1299455796115612
1.553312629199899 1.1285476844015483
1.4934484037884375 1.1253940932943307
1.4341795715642338 1.120503885092698
1.3755483517788387 1.113897092158212
1.3175964421646422 1.1055946886608476
1.2226295199608908 1.0628156269646216
1.0924228934517695 0.9836219913475217
1.0385222562992222 0.9684376712887478
1.0214625164808844 0.9864148860517762
1.0040916292848976 1.0040916292848974
1.0558807230976757 1.09339649651475
1.0707374252981225 1.1482253115420977
2.121144022157581 2.3557690967633396
2.178115976248484 2.505635806339603
2.166194244643638 2.581569773310956
2.1522757373904438 2.6578391881828405
2.1671283931463177 2.7737978526956613
2.1785703838104142 2.8910605463712007
2.1865611385280004 3.009543219074805
2.133704343225891 3.0472456047550502
2.1081572460847156 3.1254716485325074
2.1349850172589067 3.2875886263460616
2.156771405429144 3.4515557513566537
2.1992125798659314 3.660104373998019
2.2099999999999995 3.827832284727219
0.8096320658113829 1.4606149109227908
2.239379354488698 4.211660017937081
2.2563327837055476 4.428302425216188
2.288297386238983 4.6917049216816515
2.269460065547556 4.8668728163868105
1.4723866479343974 3.3070345566662147
1.414446685131171 3.3322275694978343
1.3373455384948065 3.3100463608034305
1.2793735798767214 3.3328821225950103
1.2039109045063543 3.3077180251663973
1.1622783114120487 3.375501314889561
0.4851566811686675 1.493158730583391
0.4444049911785596 1.453583229063814
0.40518691305098875 1.4130546930293288
0.3804639963007058 1.4199109646449302
0.34352909175152807 1.3778199313119148
0.3194304971682885 1.383605491995034
0.2432566782567783 1.1444326928585526
0.22324652459055755 1.1485038046337668
0.2205331856370014 1.2507058463255043
0.18302832409707018 1.1555953584963112
0.1558738730752731 1.109100236990559
0.1364936646137652 1.1116516898382807
0.11707187885977213 1.1138645228124662
0.10197221901476002 1.1655477967673422
0.07463942690621424 1.067393533778012
0.058616270992097 1.1184650789251227
0.03908743630680121 1.1193177262613874
0.019546695209757384 1.1198294185751583
