# .PCD v0.7 - Point Cloud Data file format
VERSION 0.7
FIELDS x y
SIZE 4 4
TYPE F F
COUNT 1 1
WIDTH 180
HEIGHT 1
VIEWPOINT 0 0 0 1 0 0 0
POINTS 180
DATA ascii
3.128972571821488e-16 -5.11
0.09179965786011172 -5.259198876522618
0.21847084935765676 -6.256186577139539
0.3302398838929764 -6.30135236430136
0.2797234597139431 -4.000231841541895
0.5586683110124887 -6.385608014768089
0.6700274495456586 -6.374885349310632
0.7933694255675101 -6.4614754471850055
0.9060168872500262 -6.446645127507622
1.0262100906639149 -6.479235514304103
1.1478144543784101 -6.509579247410695
0.5170923774704367 -2.660209667143169
0.5426495130343522 -2.5529652379152323
0.5758746991202948 -2.4943873658502023
0.6072239579551658 -2.4354422729527507
0.6496358032073271 -2.4244738239855614
0.6918497631006678 -2.41276685680518
0.7046158083817956 -2.3046944618709158
0.7601818061623707 -2.339599030086078
0.7846192522417478 -2.2786997671943534
0.8071675382485783 -2.2176745850547435
0.8099115659723788 -2.1098917638836756
0.8466109011199614 -2.095435511320939
0.8439792375368312 -1.9882904834572714
0.8582143168899388 -1.9275809156258874
0.8917245322728757 -1.9123094306473312
0.8592074477065919 -1.7616363307463672
0.7990232795416025 -1.5681714825715276
0.7793227942245788 -1.4656930041458185
0.8435687392286266 -1.5218382904225485
0.8799999999999998 -1.524204710660612
0.9322189155871983 -1.5514728142708232
1.7540327646119083 -2.80703919827777
1.829987157650491 -2.817933108296624
1.906847800835247 -2.8270181224126922
1.9845744697746193 -2.8342660732399114
2.0925154981612044 -2.8801004999748128
2.202642984736497 -2.9230059667730917
2.2841040734581926 -2.923519895880938
2.3662446703473883 -2.9220688150782106
2.449020792905715 -2.9186293282833065
1.2530727453718689 -1.4414952982254945
1.278039458145419 -1.4194066166618229
1.2685169497162474 -1.3603178850116568
1.222598732007835 -1.2660380485960259
1.1737972567696688 -1.1737972567696688
1.194104068562161 -1.1531328949619355
1.3603178850116573 -1.2685169497162472
1.2707776515663443 -1.1442133368736473
1.215082424158663 -1.0562550366747168
1.3099359977334524 -1.0991668125639822
1.3677768921642688 -1.1076038882477137
1.3080978509871586 -1.0219980490405924
1.325734946678506 -0.9990129384324
1.3429682106624128 -0.9757235188055053
1.318834791305277 -0.9234580625251841
1.2932986131858653 -0.872340929414365
1.224459029200319 -0.7951729911219394
1.3229550300040247 -0.8266740522037996
1.380039354130401 -0.8292113006051871
1.437602170282168 -0.83
1.4081377284944272 -0.7805434885966027
1.4656930041458187 -0.7793227942245787
1.300869525315017 -0.6628261296197383
1.1774202006519088 -0.5742662022936914
1.323209369073509 -0.6170226621414211
1.3337763681581973 -0.5938354988906682
1.2979118433679409 -0.5509308911698758
1.3536884276675096 -0.5469256263872314
1.3630274226859145 -0.5232172063361384
1.3249665953081307 -0.48224840208919295
1.3331811915950367 -0.4590510977845909
1.084204428576475 -0.35227937358744
1.2049439925134249 -0.3683883479506483
1.2592528216791978 -0.3610849361202689
1.217066541124226 -0.3261119968291761
1.2031667005822355 -0.2999831505435879
1.188731479037987 -0.2744402862995151
1.1933400728952428 -0.25365226279766645
1.2368502511440567 -0.24041933417444653
1.2900981564459926 -0.22747911274367877
1.2938717261796304 -0.20492914920270244
1.2972511700514573 -0.1823167622576857
1.2506081510680658 -0.15355537269048578
1.2530975881640243 -0.13170586371724327
1.354824789404774 -0.11853181013681498
1.4065653108663523 -0.0983566279792165
1.408067644003949 -0.0737936983025509
1.4591106074478797 -0.050953265185651485
1.5097700196861508 -0.026353133720298138
1.56 0.0
1.5597624044439704 0.027225754042162317
1.6090192315007443 0.056188189691026645
1.5079305974794064 0.0790272939268453
1.7058345259442993 0.11928357010245443
1.703492933736885 0.14903632009849568
2.744880431216434 0.2884985586187239
1.6476266117245946 0.20230311005254473
1.5943315906739284 0.22406869254570533
1.5901782283581718 0.2518594887147717
1.5363000946990446 0.27089115716041134
1.4822570470059726 0.28812158301858276
1.5259102571447367 0.3243422376757047
1.4225802945864434 0.328428539342043
1.368116974049155 0.3411098727955316
1.361955415067586 0.36493485359455446
1.3553789912730296 0.3886486717019687
1.3962049437060318 0.4268626888951956
1.3885425137909242 0.4511648117874232
1.3804571203750025 0.4753295055074488
1.4189358573867217 0.5164504164217598
1.4097064440107747 0.5411356038134035
1.400047620395849 0.5656559560580273
1.3899623287131848 0.5900040040188036
1.4708081868045875 0.6548459953520386
1.4591555371290066 0.6804154014025261
1.4470584145416587 0.7057775463304149
1.4345205039432725 0.7309247045806704
1.4656930041458185 0.779322794224579
1.4518687138513968 0.8047839696089195
1.3509996299037244 0.7799999999999998
1.337180989095295 0.8034593968596847
1.3229550300040247 0.8266740522037996
1.3334862030332242 0.8659760656738933
1.3596216189902683 0.9170763616920247
1.3434093526339463 0.9406653556157158
1.3267878707749137 0.9639678137596559
1.3496940119799246 1.017067389126962
1.3474983886674945 1.0527811228068757
1.367776892164269 1.1076038882477137
1.3865404420453502 1.1634455735326363
1.403759819214356 1.2202697939223435
4.28051419474979 3.854192292627024
6.150684630617224 5.7356062081256125
5.941746750797257 5.737878139991318
5.805346673541556 5.805346673541555
5.633679384422466 5.833845780746461
4.40570940600374 4.724544912459841
2.569461528418016 2.853676129833193
2.171555385958579 2.4980887105373752
2.0312088466094647 2.4207004402559704
1.8942543770600104 2.339209343985482
1.822357966963949 2.3325118306758967
1.7512817173724602 2.3240293342376224
1.7398443467857205 2.3946903033498446
1.7264650734166482 2.4656476533098655
1.6831706394469477 2.4954030933906752
1.6665954471459832 2.5663319379129974
1.6480489117652672 2.6374295790464846
1.6017684129702687 2.665790305183569
1.5799999999999996 2.7366402759588264
1.72592224807696 3.113646157416249
1.6478451853784761 3.0991460509348334
1.5708071290988321 3.082882573691753
1.4948456105507535 3.0648876978801596
1.46225918562282 3.1358249431468086
1.4276456171960592 3.2065445563255284
1.3910028174218145 3.276997278290688
1.389790461573034 3.439852100442781
1.3653818877675936 3.5569414249543385
2.3633591903803715 6.493276009630627
2.2496759472989516 6.5335333573912795
2.135307431130887 6.571800527599511
2.0202884796341096 6.608065863704576
1.8908722609046142 6.594255234136868
1.6590300791071595 6.191584546512927
1.5749115403538365 6.316625178056737
1.543164232798915 6.684178644426714
1.3846918608462766 6.514463020887146
1.308949708283098 6.733962478450975
0.9133894145280529 5.180088780844215
0.5725501420472452 3.614939326578204
0.4049937237937899 2.88168008003797
0.28761165043614806 2.3424089178735197
0.2153286343313666 2.048715104458643
0.1490363200984954 1.703492933736885
0.10882009904083571 1.556199918405326
0.0711769004904035 1.3581361672662204
0.0422283910100263 1.209262900693106
0.020244791467248714 1.1598233263814137
