# .PCD v0.7 - Point Cloud Data file format
VERSION 0.7
FIELDS x y
SIZE 4 4
TYPE F F
COUNT 1 1
WIDTH 176
HEIGHT 1
VIEWPOINT 0 0 0 1 0 0 0
POINTS 176
DATA ascii
1.0531962472667238e-16 -1.72
0.029145518750263607 -1.6697456509111734
0.060027134328301854 -1.7189522224728446
0.08740104692571642 -1.6677113230401381
0.1164933111526895 -1.6659319639339063
0.14555009038858907 -1.663645145813215
0.17456253365698127 -1.6608515652650164
0.2035218034865963 -1.6575520732410076
0.23241907860330932 -1.6537476747984223
0.2612455566171856 -1.6494395287938801
0.28999245670377377 -1.6446289475303872
0.31865102227883 -1.6393173963575989
0.34721252366565825 -1.6335064932254553
0.37566826075425475 -1.6271980081913429
0.39191347087146167 -1.5718790765671145
0.4192868530660836 -1.5647998385882909
0.4603143842143886 -1.6053070322169924
0.4882607468869704 -1.597028942458269
0.5160583806061623 -1.5882643822129063
0.5274204102205939 -1.5317400924708933
0.5711736393538669 -1.569286676712467
0.5984744757406516 -1.5590793122503268
0.6255930110045733 -1.5483970371265348
0.6525209845770871 -1.5372431052655753
0.6792501939365866 -1.5256209142631432
0.705772497106968 -1.5135340043512053
0.7539983724772132 -1.545925759634567
0.7581641345650432 -1.4879808953945743
0.8074910879917323 -1.5186698597173542
0.8338725468236998 -1.5043458962797607
0.8599999999999998 -1.4895636945092345
0.8858654888452934 -1.474327757207633
0.8955635565541162 -1.4332012825043599
0.9204399691753957 -1.4173532598277665
0.9897714391432221 -1.4673965034224237
1.0152302923413514 -1.4498991183915155
1.069769159172301 -1.4724109297624044
1.0652125909791255 -1.4135848527837083
1.1020340408329286 -1.4105392489560322
1.126483499979209 -1.391091271007978
1.1505898213389054 -1.3712195531829707
1.2071486133425335 -1.3886656276099005
1.2312003157002993 -1.3673864788784054
1.2548769825149975 -1.3456908109792736
1.278171401644555 -1.3235852326231181
1.3364318164425748 -1.3364318164425746
1.3595522226400507 -1.3129043201675048
1.4188261811411909 -1.323076818521247
1.441700961426145 -1.2981133763361847
1.5018720646433164 -1.3055574676911095
1.5244284418067662 -1.279147343276213
1.5853777613722206 -1.2838135977416683
1.6469424750380488 -1.2867324834306255
1.6292164404964773 -1.2277026472301784
1.6908455182436402 -1.2284711772912689
1.7529853747784425 -1.2274535737912387
1.8155922838955414 -1.2246324586009354
1.87862207219775 -1.2199914384336605
1.8996277353903945 -1.1870191518823792
1.9629131186078372 -1.1794371915440238
2.026499444855586 -1.17
2.0466101147061857 -1.1344545113764286
2.110244746932836 -1.1220370350582791
2.174055919019618 -1.107736819364494
2.237997175284926 -1.0915441555048029
2.302021779073091 -1.0734503848213766
2.4117600081764667 -1.0737847377201124
2.4761580557870646 -1.051066735636146
2.5404837615129976 -1.0264220659595986
2.5766819771322766 -0.9890955407450288
2.6405362644084023 -0.9610766027451293
2.751459054994012 -0.947403329470326
2.815127288233654 -0.9146903033498442
2.926292553246889 -0.8946574164515744
3.037586959165088 -0.8710140443817173
3.1489181937023627 -0.8437500870342174
3.260193640287348 -0.8128575692148832
3.371320424156914 -0.7783306480297725
3.482205458612348 -0.7401656193112235
3.6418368505908334 -0.7079013728469814
3.801357926627123 -0.6702819657943512
3.9606302457865024 -0.6273022048113257
4.119515165964933 -0.5789600999938721
4.327501221156164 -0.5313503372464429
4.485293748110912 -0.47142336933711676
4.7418867629167085 -0.4148613354788524
4.99779589180172 -0.3494799334580671
5.252791352809058 -0.27528712983788495
5.506643456875217 -0.1922962268307806
5.859107493616453 -0.10227110172248152
6.26 0.0
7.858802883929235 0.1371759145970486
8.504815937932504 0.29699471693828366
9.097515061614168 0.47678056137321895
10.683910978282718 0.7470918337995831
10.619435481658007 0.9290802176900373
10.949686068004688 1.1508583805768662
11.027187744735087 1.353968405231188
10.853338033407612 1.525337186522317
10.82506421292271 1.7145217368409305
11.138175686568074 1.9639608894129825
19.83868537747729 3.856249796559972
19.719455630793522 4.191499686886029
21.738196145358597 5.01865802241163
43.506704358168314 12.47534672427738
19.06165448408223 6.563453993856279
10.064107968617078 3.663035735017913
9.90528832513531 3.802283944675636
9.791061504225274 3.955845626472032
9.53643028176728 4.047974491148877
9.464330941177344 4.213791622265291
9.434664063051526 4.399456104720681
8.99692840345466 4.388095179358666
8.206170087774868 4.181252502601226
7.5138840152294675 3.995202999307932
6.9182418834726205 3.8348440961485264
6.373946971853469 3.679999999999999
5.923026047851596 3.558913097628475
5.478390701170512 3.4232784469465036
5.166210698543812 3.3549764556925674
4.8167082965447925 3.2489107691650387
4.5544853662467935 3.189084986111817
4.295880240130971 3.1211396896730323
4.041095680839301 3.045184017149365
3.790331724848332 2.961331696316416
3.6603574784623336 2.9640990418447335
3.416558216310642 2.8668327392019655
3.2150628117490085 2.7948114634995602
3.05432523271209 2.750126792134908
2.9327283434928737 2.7348134238506185
2.8126186193241254 2.7161142284946798
2.6587214972614186 2.658721497261418
2.5077167173569794 2.596816679222531
2.3938142438193695 2.567051492683288
2.281735367683707 2.534123854877914
2.204358337408104 2.535824189548514
2.0954876075781184 2.497304884567868
1.9886524357174862 2.455781238204028
1.9147071882627975 2.450713443716905
1.8415539708452673 2.4438246607447165
1.7398443467857205 2.3946903033498446
1.6404286079639914 2.342774846666517
1.5992917039263357 2.3710474575074194
1.5195429076919258 2.339890884567733
1.4519787839989815 2.3236517834686072
1.385452421508046 2.305780038888682
1.3199999999999998 2.2863070659909184
1.2314164354256962 2.221534056134065
1.1924577694761622 2.2426868858616746
1.153135869338449 2.2631565714384543
1.0696255981653484 2.1930574729699677
1.0311885586473066 2.2113910003694257
0.9721005769511629 2.1833736437658158
0.9338473970893643 2.2000065997513327
0.8765794285932345 2.169610219686282
0.8206626044587374 2.137899176678592
0.7832261282157816 2.15189610159973
0.7292726659840307 2.11796160934247
0.6921980673998823 2.130366596501144
0.640294033342793 2.0943074155590478
0.5898639414483783 2.0571000293080024
0.5538727565193949 2.067081268258606
0.5056167618033054 2.0279180679168327
0.47014770357867813 2.0364334354011415
0.43453543380911674 2.044328485533654
0.38925035056815166 2.0025194542332345
0.3542422824405377 2.0090078161449045
0.3191263086820711 2.014884214814081
0.2769544709105298 1.970633456795725
0.23642652620598612 1.9255395341841646
0.21114749580066045 2.0089342286439122
0.1690821409304568 1.9326177142979863
0.13742025327592713 1.9652011790118535
0.10310183379859918 1.9673001834665105
0.06875200850392713 1.9687999292276186
0.03350862035958408 1.9197075747002712
