# .PCD v0.7 - Point Cloud Data file format
VERSION 0.7
FIELDS x y
SIZE 4 4
TYPE F F
COUNT 1 1
WIDTH 176
HEIGHT 1
VIEWPOINT 0 0 0 1 0 0 0
POINTS 176
DATA ascii
2.7291253918998767e-15 -44.57
1.3949328831989682 -39.94565135595326
2.0578497994725566 -39.26611330654984
1.6232331440257992 -23.21331544954611
2.0368297080127706 -23.281070094404093
1.4654890550125015 -13.943196973063191
1.647673522837594 -13.419223970190673
1.930330910316108 -13.73501811344558
2.1071722440919105 -13.304161947816507
2.1306631399732363 -12.083591129459792
2.1313364783560065 -10.964775639110407
2.1560442337801655 -10.143390619609564
2.1527815900707896 -9.324721519994702
2.170039403529019 -8.703552664695689
2.1792563597632246 -8.133095457353955
2.1830478580706334 -7.6131926318314855
2.1840166342788434 -7.143596527043875
2.200200999949626 -6.771522396021493
2.220374813397809 -6.448436685587341
2.2299713344833605 -6.126795887524122
2.2290486461717682 -5.806870252812595
2.2364013626929955 -5.53528761176372
2.215445498534182 -5.219262519075337
2.2451862697784177 -5.042770926187155
2.227198239373486 -4.7762420376831445
2.2444602715600768 -4.601825517051735
2.2336332587185703 -4.38375209900677
2.2393793544886993 -4.2116600179370804
2.2398204455380775 -4.040743046984009
2.2349999999999994 -3.8711335549164407
2.2507163873569374 -3.7458211040682303
2.2362592950641247 -3.5787629657801174
2.2439128242619115 -3.4553227399351467
2.247955471952402 -3.3327310416712668
2.2484196304961004 -3.211076013612848
2.2747289263718713 -3.1308957682310465
2.2387518861256197 -2.9709240973759297
2.2286945406788834 -2.8525989280563335
2.2781398156004116 -2.8132683804742347
2.230473005612292 -2.6581742176228538
2.2437218791475346 -2.58110676436188
2.2549701434293525 -2.5043980618588186
2.2301346374043702 -2.391526604294687
2.236799952877971 -2.3162741570904566
2.2415284963613558 -2.2415284963613553
2.244340177056592 -2.1673341158320714
2.2452558639708537 -2.0937349653918704
2.266591717706053 -2.0408483493945173
2.264128740668316 -1.9681770869715218
2.259831107200985 -1.896223448575291
2.2925805862980644 -1.8564951535970204
2.2458306477791576 -1.754635204678126
2.2361794281324197 -1.685082064825735
2.2652475842498525 -1.6457987064189248
2.2526681217947275 -1.5773351999653766
2.2798533245263646 -1.5377804845445537
2.264410533452645 -1.470525394540573
2.2897298596223505 -1.4307820134296534
2.2714933468605976 -1.3648508985116432
2.2949673200287624 -1.325
2.274011238562429 -1.2605050126404764
2.29566374143321 -1.2206260632433161
2.272066636680338 -1.1576757743358443
2.2469851157479175 -1.0959278669726935
2.311084856943457 -1.0776765674387834
2.2838636441065026 -1.0168416076895004
2.3012621336311008 -0.9768278212231841
2.2716004436886292 -0.9177861538689842
2.2872720449181445 -0.8780014763859858
2.3022469209254757 -0.8379493511478885
2.26924458143836 -0.7813635706971761
2.2349828132936107 -0.7261899367811264
2.2473161765131335 -0.6870735060984313
2.2589649854550493 -0.6477477861699479
2.2699256917793105 -0.6082247559909236
2.2801949567485917 -0.568516454659219
2.289769652245303 -0.5286349777080824
2.298646861724443 -0.4885924734217346
2.287191337433057 -0.44458495922734953
2.2946020645184446 -0.4046002539639478
2.350698250616428 -0.37231402679574943
2.6440157435399927 -0.37159217956337465
3.0471166855388585 -0.3741388842538026
3.6001692612331495 -0.37839303702890525
4.3533708306609284 -0.3808705958072658
5.5564317599472215 -0.38854355875477725
7.759351485043038 -0.4066503800076741
9.714078838625612 -0.3392231079483099
14.867735226975537 -0.2595172837224062
21.02 0.0
23.366440635804864 0.40786273843931625
23.355763627436268 0.8156012379374489
23.33797222721439 1.2230912973975991
12.689014719304964 0.8873023460252751
9.617026728211203 1.0107902397982105
7.860965520999271 0.9652051997687676
7.7934097009961585 1.0952923045557148
7.8718760745432474 1.24678268637064
7.848917791507298 1.3839759760054349
7.823568652077881 1.5207476931510624
9.605409439205971 2.041692803830397
6.011863299724902 1.3879480053016475
5.6471211269263 1.407985432390067
5.23531797848675 1.4027992244556633
5.161975307188772 1.4801726007372853
5.230987015117805 1.5992732248333696
5.609964946091872 2.0418602556542425
5.620154167513154 2.157375056262708
5.6280059972203995 2.273862022034587
3.332227569497834 1.4144466851311714
3.215680010901955 1.4317129836268172
3.0542572423135104 1.4242235420661569
2.939056531398276 1.4334736500002836
2.8244906816771262 1.4391498841743633
2.7106491100769055 1.441277697752685
2.5976205302040056 1.4398845721316211
2.4854929088613393 1.4349999999999996
2.374353422944851 1.4266554675008503
2.306690821545479 1.4413803987143174
2.306344061849916 1.4977573462913247
2.2798533245263646 1.5377804845445537
2.2936257240091766 1.6060140217829295
2.2652475842498525 1.6457987064189248
2.2761112036347844 1.7151728159833382
2.2852311854594936 1.785418278444409
2.292580586298065 1.85649515359702
2.298133329356934 1.9283628290596182
2.3018642196794543 2.0009800384210465
2.303748958979922 2.074304879712461
2.0258497534851023 1.8891354573731207
1.9566042569211308 1.889470767648473
1.9586857838867369 1.9586857838867364
2.3062657899238705 2.3882081371243222
1.9914352113824956 2.1355528087279776
1.7865787189781517 1.9841966840246423
1.7516776074046543 2.0150745791948013
1.7483822983473876 2.08364088528362
2.120809717837952 2.618981890109992
2.0439960980811858 2.6161957019743167
1.9980258768647998 2.6514698933570124
1.9220577749963872 2.6454855716060783
1.932952590503025 2.760542389253903
1.9403993750434916 2.876760376765995
1.9171294032528958 2.9521203991678924
2.3157471846991053 3.7059701802035816
2.327972098593445 3.874396199173547
2.3099999999999996 4.001037365484107
2.3125418885750277 4.171936003054918
2.3098000889065817 4.344102156865921
2.914619008327891 5.720261885289322
4.019863416055839 8.241941404563361
3.790885807814074 8.129580849718751
2.6519229128542183 5.956316383829757
3.4267119968509303 8.072827564777901
3.2852998242575495 8.131402404550725
3.1428869175122824 8.187500340380458
2.982415649799832 8.194119653253122
3.0017383840949834 8.717681267025702
1.99933995360591 6.153335660429643
2.7102857027797675 8.86494508777734
1.9074105022536343 6.651930935893167
2.1663154075081 8.0847991660395
1.3958893376100823 5.598606340612499
1.2979675835641018 5.622115273810807
1.397166562295342 6.573151876931174
1.0818870037850097 5.565826130148254
1.0714092562049595 6.0762638360853245
1.1842089003545482 7.476800738305193
1.2553413706597885 8.932217980048964
0.9164574624067091 7.463947060342741
0.8696768143868786 8.274422169464033
0.7251357796605158 8.288339888123323
0.6187399221103927 8.84839312580464
0.46421993187491095 8.857843973273068
0.3113035105863096 8.914566177010334
0.1556754654205677 8.91864144079501
