# .PCD v0.7 - Point Cloud Data file format
VERSION 0.7
FIELDS x y
SIZE 4 4
TYPE F F
COUNT 1 1
WIDTH 179
HEIGHT 1
VIEWPOINT 0 0 0 1 0 0 0
POINTS 179
DATA ascii
4.7761225166746774e-17 -0.78
0.014136449214199716 -0.809876633076677
0.026523617493900822 -0.7595370285345128
0.042392124556784615 -0.8088899231512049
0.05441004952041786 -0.778099959202663
0.06623836448822018 -0.7571079705497267
0.07630577818538702 -0.7260009836188395
0.08896462068575767 -0.724558690698165
0.10855501874885107 -0.7724090936184249
0.11419715947936857 -0.7210124886344506
0.13544557858020573 -0.7681500473495223
0.14883101639370505 -0.765669203089178
0.16217111883785237 -0.7629551285723684
0.1754618223882148 -0.7600086505324836
0.1886990785677408 -0.7568306664952773
0.20187885517996618 -0.7534221445054733
0.21499713753725935 -0.7497841228318888
0.2280499296837347 -0.7459177096511677
0.24103325561245903 -0.7418240827102198
0.2539431604765823 -0.7375044889674671
0.2667757117940217 -0.7329602442130085
0.2974453981225993 -0.7748717539926774
0.3109234725352071 -0.7695625992904335
0.31649221407631173 -0.7456089312964768
0.3416587801836723 -0.7673781844197846
0.3549993398621875 -0.7612985411107859
0.36823176330282503 -0.7549869988913002
0.4040515447681967 -0.7929958065276475
0.40374554399586615 -0.7593349298586771
3.975438886019964 -7.171881598543044
3.974999999999999 -6.884901960086288
3.965793176807418 -6.6001882154062645
3.974394481749037 -6.360360721173195
3.9758649556096977 -6.122295146001594
3.970269614642303 -5.886166765140795
3.957677410822218 -5.652149105594043
3.9969397155888173 -5.501315561749642
3.9719791528035184 -5.270994366312133
3.9710165158504966 -5.082669360763356
3.9647184636139756 -4.896019557178916
3.953143799572217 -4.711173325181715
3.969157125392569 -4.565992960347771
3.981327107835207 -4.421711711590496
3.9555904883624917 -4.241851469391188
3.924819793093335 -4.064269871913379
3.9597979746446663 -3.9597979746446654
3.9563689018625814 -3.820621037524485
3.9127423036625624 -3.6486912263343667
3.93866757503019 -3.546392213701948
3.9244898171584146 -3.411506950750638
3.945128882062737 -3.3103561898856775
3.924587105357703 -3.178067974801679
3.94005376803361 -3.078307376628291
3.9532457747340994 -2.978984364602639
3.9237324227184947 -2.8507584736184945
3.9319298125871605 -2.753166894485021
3.9379284696364483 -2.656166291486047
3.941751669343493 -2.559803464570627
3.9010212423195596 -2.4376286154727422
3.9429695832297162 -2.3691751445862486
3.8971143170299736 -2.25
3.935788682127281 -2.1816432911085166
3.9291167882222253 -2.0891484543972143
3.9204287064288192 -1.997558198854006
3.909754101401376 -1.9069144885324865
3.8971234842575946 -1.8172585254850073
3.928245467863184 -1.7489675652259407
3.9121456271728716 -1.6606072960794132
3.8941721891805074 -1.5733476923468301
3.9210377912882475 -1.5051453880902614
3.8997243762615197 -1.4193835948015254
3.923902088737165 -1.3511078409972004
3.9468845426248875 -1.2824205266560318
3.9208494994484453 -1.1987239893632204
3.8931098685501913 -1.1163312910588463
3.9119995964707264 -1.0482171326652088
3.881182905103986 -0.9676875823986705
3.897480259140941 -0.8998042173754595
3.9419348309572366 -0.8378841139955704
3.9657738211285625 -0.7708683413212413
4.283913725603105 -0.755369572851147
4.740904034856661 -0.7508854321931081
5.248420764330323 -0.7376174350883467
5.955276909847933 -0.7312160604308846
6.862201078041086 -0.7212463965468084
8.019367319638553 -0.7016037291186475
9.476858477468332 -0.6626865005691892
11.384376696202143 -0.5966299011695605
13.14198937530111 -0.4589283816378884
18.49718236039324 -0.3228695190897454
22.7 0.0
22.64655029529226 0.3952970058044721
22.83608039738634 0.7974534996521483
11.284513742726684 0.5913963055452661
9.47685847746833 0.6626865005691913
9.414039896966994 0.8236217689653708
9.447958005998597 0.9930204010427093
9.42918844059256 1.1577587623489007
7.575550725873014 1.0646742223445005
6.815049550106451 1.079397808777593
6.795173495784236 1.1981724259018196
4.939645383705718 1.0499540386296848
4.579539304490606 1.057269955416166
4.172271622986784 1.0402641510785717
3.911999596470726 1.0482171326652097
3.8931098685501913 1.1163312910588463
3.873034261650294 1.1841054041270835
3.8517788909953716 1.251518827218537
3.923902088737165 1.3511078409972004
3.8997243762615197 1.4193835948015254
3.267531492740206 1.254287823408551
3.2451434909837555 1.3111230769556925
3.2677922297561626 1.3870955061369221
3.8825681949810535 1.7286307330721513
3.26270803333194 1.5214257422665178
3.235658566677001 1.5781361284406792
3.3412744657063795 1.7024643740233005
3.8849694085792787 2.0656748762579205
3.892057696770311 2.1574028100962
3.8538130468407523 2.224999999999999
3.7286777580541877 2.240415625858736
3.6042044086648106 2.252156872991121
3.522416385370781 2.2874839470631145
3.5234096833589272 2.376569839750674
3.522353790442664 2.466378676309499
3.519223925531021 2.556865847472258
3.8733822237293696 2.918802862287435
3.8612526926729376 3.016741229095726
3.885729807284855 3.1466019552491864
3.868524437750839 3.2460774289170238
3.8867543381472762 3.3787039993011123
3.901510333756319 3.5129356833840064
3.876174618581604 3.6145913083312418
3.8844349218287153 3.751155200478586
3.8890872965260117 3.889087296526011
3.890086874570384 4.0283028818964475
5.592386552512487 5.997100353277197
7.628088912490985 8.471851010442293
7.380664076143207 8.490482777506186
4.403095126352795 5.247404435364999
3.9332524440614836 4.857162259106068
6.00269938442517 7.683104847665539
4.1826144109067345 5.550516794828686
3.761825614671828 5.177708763999664
5.506333788970041 7.863859625174322
5.228453647451483 7.75150130338964
5.037911073889002 7.757702753495171
3.576955033574133 5.724324649055875
4.635342674190488 7.71450570631901
4.499999999999999 7.794228634059948
3.4663887847613104 6.25353090604668
2.9811444236904054 5.606717214654186
4.312909747525695 8.464561979789496
3.748073305046611 7.684689095857879
2.5779713966182665 5.5284775009235645
3.4165878018367235 7.673781844197847
2.9109469072450893 6.857761158220681
3.1279650550228664 7.741985185632673
0.3870373855089242 1.008266860616978
0.36938175479172236 1.0148680304487812
0.35161360681372905 1.0211600616472623
0.3337383539249433 1.027141037598766
0.30114285586441863 0.9849938986419267
0.29217559716601915 1.018937397694618
0.2665836164555966 0.9949036010777402
0.2370834576876743 0.9508898117504765
0.2316995859741811 1.0036011667287923
0.20375345700140404 0.9585846487191295
0.186992815469014 0.9619946397787107
0.17538465944359952 0.9946558305423302
0.16112749899143786 1.0173189908129918
0.1405648319696659 1.000170749428986
0.12308803683919897 1.0024716131577351
0.10557374790033022 1.0044671143219561
0.08802730017513472 1.0061566450726631
0.06836134426924294 0.9776127692546277
0.05285931580537318 1.0086158301021195
0.035248491669526094 1.0093847352892866
0.01762693050165621 1.0098461721079552
