# .PCD v0.7 - Point Cloud Data file format
VERSION 0.7
FIELDS x y
SIZE 4 4
TYPE F F
COUNT 1 1
WIDTH 180
HEIGHT 1
VIEWPOINT 0 0 0 1 0 0 0
POINTS 180
DATA ascii
1.0531962472667238e-16 -1.72
0.03001813907212779 -1.7197380356689929
0.060027134328301854 -1.7189522224728446
0.08740104692571642 -1.6677113230401381
0.1164933111526895 -1.6659319639339063
0.14990787752597198 -1.7134548807178023
0.17978895682036394 -1.71057766003343
0.20961527065685367 -1.7071793808230737
0.2393777336513126 -1.703261078235501
0.2690672798691972 -1.698823945823637
0.2986748655871203 -1.6938693351809977
0.31865102227883 -1.6393173963575989
0.35760810820654626 -1.6824138732621456
0.38691581347144804 -1.6759165114306045
0.4161056604314284 -1.6689086491947138
0.44516875757633567 -1.6613924212171975
0.4740962520052385 -1.6533701170139086
0.5174979173592441 -1.6926594180545727
0.546960080043657 -1.6833700338424218
0.5762556333891674 -1.6735678788107906
0.5951150493866637 -1.6350651601674804
0.6235602322088226 -1.624429942105131
0.6817840000169602 -1.687474615311553
0.6798721635713363 -1.6016784450072463
0.7280585911056827 -1.6352463691802555
0.756486688515852 -1.6222909387956035
0.8066029100919025 -1.6537810451904673
0.8353425195207662 -1.639452004506597
0.8638276755260392 -1.6246235708604255
0.9162901822655771 -1.6530312464934578
0.9449999999999997 -1.6367880131525891
0.9734219615800025 -1.620046198326992
1.0015474094007573 -1.6028109017356449
1.0565997279291526 -1.6270209018141224
1.084834232733249 -1.6083328907567807
1.1127382865210294 -1.589154965920644
1.1696926520620214 -1.6099438188061455
1.2277026472301784 -1.6292164404964773
1.286732483430626 -1.6469424750380486
1.31527961729416 -1.6242350594450692
1.3434261042448672 -1.601032886118664
1.4039663220396856 -1.6150785016767322
1.4653960279258995 -1.6274871677954934
1.4594764905337472 -1.5650969214650245
1.556034749828154 -1.6113211527585787
3.0829855659733476 -3.082985565973347
3.172288519493452 -3.063443413724178
3.2984051943024593 -3.075812603881868
3.3515831629030486 -3.01777903467845
3.630153080871533 -3.1556439294443397
3.799580437870131 -3.188226544045235
3.9323585649722723 -3.184361178712177
4.02673495093035 -3.1460301389141136
4.160891007346396 -3.1354562706221714
4.336331089849718 -3.1505289522876563
4.513527764032345 -3.1604061642942636
4.650900782033784 -3.13707218847089
4.830742471365642 -3.137120841686555
4.969561843476657 -3.105326888406581
5.151575477219695 -3.0953788302094245
5.161511406555254 -2.98
5.125271483836859 -2.8409843746435355
5.129925514510365 -2.7276297797860254
5.176747905534417 -2.6376848034867666
5.22199340899816 -2.5469363628445394
5.175017463979271 -2.4131502745393933
5.170667290257121 -2.302129399809029
5.2100574705408125 -2.211538187249289
5.2015014241196775 -2.1015429890632658
5.144028149999581 -1.9746074019946047
5.177706340530355 -1.884530989724435
5.209807351552236 -1.7938805310589334
5.050110101527265 -1.6408802401309706
5.077978254163718 -1.5524937520777318
5.056236520635557 -1.4498524915974151
5.177362428909406 -1.387270081749511
5.49187381072214 -1.3692779290941188
5.807245586120002 -1.3407082838894346
6.269926120703694 -1.3327139381418378
6.635799760106209 -1.2898688087454433
7.14970428686863 -1.2606857698619143
7.664461523018269 -1.2139314487121915
8.179614247805372 -1.1495698139301402
9.042095441452444 -1.1102297184208931
9.955164172636415 -1.0463299173092104
11.217152300513055 -0.9813736633386299
11.731353231055534 -0.8203361312309121
19.433330746324007 -1.0184577084876885
10.053871719812104 -0.35108893682716025
9.758513504726379 -0.1703354868278873
24.86 0.0
36.30446981112857 0.6336968777377653
36.88751542527482 1.2881404232893126
36.809484651053594 1.9291033471149124
36.72033269006413 2.567735798521256
34.1296303566232 2.985955746534773
19.403122178635012 2.039350318351922
11.573088128137815 1.420996544104019
10.853338033407612 1.525337186522317
8.849687531732435 1.4016528067604688
7.642108163374734 1.3475098586953795
6.684881119278591 1.2994092585142705
5.878667080410171 1.249549261814734
5.222623547248861 1.2057376512831168
4.764152016015143 1.187836507394369
4.308029185249244 1.1543329411572432
3.998848655103407 1.1466514001987163
3.6913363580173173 1.1285547802297637
3.3857611980107465 1.1001004999748127
3.1769424140137046 1.0939089989760464
3.0164133127227655 1.0978846600753966
2.763398062431717 1.060769130654089
2.6053866313326726 1.052644527498713
2.448542910183491 1.0393448017814686
2.3386763715650583 1.0412458062740488
2.1842017667583264 1.0185100107950855
2.076214246951076 1.0126373490827691
1.969124418456293 1.0033190044243985
1.9071668005752822 1.0140585756175247
1.8017165967071553 0.9987078177074543
1.7407110616067216 1.0049999999999994
1.6629045633620976 0.9991738653255052
1.602810901735645 1.0015474094007573
1.5012203166223088 0.9749038726768987
1.4425253762457726 0.9729956520390994
1.384366954848396 0.9693441774332682
1.3267878707749137 0.9639678137596559
1.2698304609751956 0.9568858868117571
1.252937098234688 0.9789017457677968
1.1968047806437354 0.9691534022167494
1.1414062202472772 0.9577535384329436
1.0867817955207917 0.9447250017463302
1.0329713074135778 0.930091542838813
1.016581645250647 0.9479777204868728
0.9998823224707247 0.9655751349380063
0.9121677477306463 0.9121677477306462
0.9308422164150563 0.9639153324537928
0.8456779664774982 0.9068785900077714
0.8631784822029273 0.9586568248658385
0.7938314250785138 0.9131985920695541
0.7777730077207128 0.9269137761739634
0.7614776731703032 0.9403466133629348
0.7634202294038164 0.9771333344723352
0.7582869291715807 1.0062807426595892
0.7288537128426666 1.0031810730249349
0.7112347810752969 1.01574853491835
0.6654395551301887 0.9865547113404997
0.6481204516678823 0.9980179758550545
0.6306039244375138 1.009177234426147
0.5871434053974618 0.9771707228004078
0.5699999999999998 0.98726896031426
0.5526829670808243 0.997066466138911
0.5117240034366208 0.9624128762162305
0.5175491697030834 1.0157474375747393
0.4778245500000942 0.9796855104660921
0.46065390529736244 0.9878754878699485
0.44334294095262244 0.9957645488304349
0.42589693005330836 1.0033502902631601
0.4083211868233443 1.0106304014777983
0.3727026675271122 0.9709236435570898
0.3557009490586956 0.9772803256173447
0.3385908806354428 0.9833393186232896
0.32137767414994534 0.9890987769469597
0.304066572911646 0.994556946201557
0.2866628500496791 0.9997121637758517
0.25623085465149575 0.9562665680261775
0.2515987714236544 1.0091075553270363
0.22270154380042648 0.9646263641373829
0.20583257390958165 0.9683661247264677
0.18508472551524857 0.952178367944234
0.1684387323369223 0.9552635204218418
0.1548701203898286 0.9778114571891864
0.14195656297926654 1.0100734301164018
0.12430673027325044 1.0123970746741484
0.10139260936962406 0.964686238507225
0.0845410704652284 0.9663088571489932
0.07115160321900797 1.0175153312650207
0.05076587755565543 0.9686706487119366
0.033852511801426045 0.9694091022085228
0.016056213922300708 0.91985987954388
