# .PCD v0.7 - Point Cloud Data file format
VERSION 0.7
FIELDS x y
SIZE 4 4
TYPE F F
COUNT 1 1
WIDTH 179
HEIGHT 1
VIEWPOINT 0 0 0 1 0 0 0
POINTS 179
DATA ascii
3.306546357697854e-17 -0.54
0.00907525134738747 -0.5199208014813235
0.018845728219350585 -0.5396710465903117
0.02983149505847806 -0.569218834810107
0.03418067213462147 -0.48880638462731385
0.049678773366165135 -0.5678309779122949
0.05644537016453287 -0.5370418234988676
0.06946552574093406 -0.5657513064355535
0.07515347451843536 -0.534744757120448
0.07665288786971315 -0.4839672868916175
0.0850876070567959 -0.48255579897598194
0.10303685750333426 -0.5300786790617386
0.11227231304159012 -0.5281997043962551
0.11022601662849392 -0.4774413317447653
0.11854172884383715 -0.47544490587523824
0.12682133210023516 -0.47330365488164344
0.14884417214117956 -0.5190813158066923
0.15788072055027785 -0.5164045682200392
0.15141832724372425 -0.4660176929846252
0.1595283956840068 -0.4633041020436652
0.18469087739586118 -0.5074340152243906
0.1935186927544622 -0.504133430308489
0.22101789011538817 -0.5470384741944044
0.2109948093842078 -0.49707262086431786
0.21963778726093222 -0.49331454712700445
0.2282138613399777 -0.489406204999791
0.2454878422018834 -0.5033246659275336
0.2542346798541463 -0.49896365354548605
0.23943049702080435 -0.45030327235805273
0.22301242531331508 -0.40232506528412204
0.25499999999999995 -0.4416729559300637
0.23691751445862497 -0.3942969583229716
0.2596604394742704 -0.4155435671166487
0.2668731271573633 -0.4109485782932577
0.2851883807700809 -0.4228091620030712
0.2925239825390335 -0.4177675425873858
0.2997704786691613 -0.41259866713122323
0.3069256618075446 -0.4073041101241193
0.3139873524160858 -0.40188548433942817
0.35241941898790896 -0.43520173841590376
0.3599610614244621 -0.4289848881466277
0.3870748271043993 -0.4452786523314355
0.38140444562454917 -0.4235925505221147
0.38191908163499927 -0.40955807290673546
0.3890086874570385 -0.40283028818964467
0.3606244584051393 -0.36062445840513924
0.38844349218287166 -0.37511552004785853
0.372990387825777 -0.3478191636318742
0.4161611022673409 -0.3747131395609606
0.42263736492475235 -0.3673930562346841
0.4289848881466277 -0.359961061424462
0.43520173841590376 -0.35241941898790896
0.48068655970010044 -0.3755534999486515
0.48716766112884863 -0.3671071641227494
0.49350036656871793 -0.3585490038984086
0.5406403492307346 -0.3785604479916904
0.6715204337695838 -0.45294625181130493
0.7212566884330647 -0.4683895701129232
0.7717237675023477 -0.4822265304522165
0.7800222436389223 -0.4686846481681492
0.831384387633061 -0.48
0.8396349188538199 -0.46541723543648356
0.8917770687875163 -0.4741662784137497
0.8999165894302515 -0.4585304047369423
0.9077819867621587 -0.4427548582569682
0.960686254258849 -0.4479753574451414
1.014035457983287 -0.4514776738141382
1.0677856300048307 -0.4532481090475574
1.1218924640258128 -0.45327397803325337
1.1296323160616142 -0.4336252189498134
1.2309973332295399 -0.4480463877566261
1.2386293340351051 -0.4264942823388753
1.293436862161409 -0.42026311234992847
1.109313516917121 -0.3391511774783746
1.1439014181665994 -0.3280084534222289
1.217066541124226 -0.3261119968291761
1.3196021877353552 -0.329013778015548
1.6174543075434904 -0.37341875021081566
1.7704471573281881 -0.37632016038014454
1.8258265612126552 -0.3549047314003735
1.979463583554538 -0.34903283711052996
2.1334068156854977 -0.3378984444868987
4.961243024395268 -0.6972572358099277
4.923028912140958 -0.6044719432895312
4.833376411489809 -0.5080083314807955
4.841506232725884 -0.4235769097536182
4.798283081749754 -0.3355286387092421
4.8034080621695 -0.25173594952856015
4.787082061421469 -0.16716858920497987
4.7892704597991145 -0.08359702683458814
5.71 0.0
6.638988695838438 0.11588397874356267
6.805851532000042 0.23766557254403192
18.584495641782617 0.9739721456811861
24.50017307438128 1.7132189951557197
24.574636034550032 2.5828983273437207
24.52581540705707 3.0113914755411932
24.469523978604204 3.438967324723216
7.466923854899242 1.1826445557041454
9.51324289409793 1.6774413962625474
9.43343723293205 1.833674445568596
9.448905823088563 2.008426933299556
9.412414825825373 2.173027184961737
10.246322869474524 2.5546952175324926
5.418843885481673 1.4519748430251425
4.8639841814478935 1.3947250204340154
4.504195400585897 1.37707072924409
4.14660641104687 1.3473140954747707
3.744253559373295 1.2892498916503405
3.4392749920764247 1.2517937245719477
3.323546318330038 1.2757899003812692
3.115337751344405 1.2586781538774647
2.9087953369097113 1.2347103660261056
2.749771827504228 1.224277295658159
2.5467248815729864 1.1875573154913652
2.5256112701006592 1.231822922477308
2.3255270281316403 1.1849152043202171
2.2161984580759064 1.1783736225925863
2.107833494205944 1.1683911847936723
2.0005186827420536 1.1549999999999996
1.9800564646218792 1.1897379530422254
1.8741862925057016 1.1711215739553829
1.7695948983648444 1.1491883638817073
1.6663655208356336 1.1239777359762009
1.564580404591974 1.0955309934304984
1.6261241586936441 1.1814483571078709
1.7250527017021524 1.299920450008425
1.7415037654708554 1.3606118604697048
1.717492574819906 1.3907980642201403
1.7312604414488901 1.4526999978915789
1.7056436513034645 1.4826934055185461
1.7166645468527806 1.5456917006889628
1.689427050740284 1.5754162117443715
1.733608918816149 1.6741266728061837
1.7041273426595798 1.7041273426595795
1.6741266728061832 1.7336089188161496
2.7348134238506185 2.9327283434928733
2.7166702618169647 3.0171679914382197
2.8276144149490863 3.252798290760147
2.7704145977489847 3.301651549842795
2.5235747681098477 3.116355305442453
2.46880251605589 3.159923121962955
2.3831874916821105 3.16259661978728
2.2688510738489462 3.122805598287297
2.185326222497485 3.120969288741059
2.130524962223545 3.1586331514347092
2.020610819905751 3.111467807077523
0.5087224936638767 0.8141261723101689
0.2626694182041277 0.4371553233580772
0.25499999999999995 0.4416729559300637
0.24725290632563193 0.44605605064109183
0.23943049702080424 0.4503032723580528
0.20883562988019155 0.40986300112664925
0.20165072752297553 0.41344526129761683
0.19440440040072174 0.416901582036859
0.18709885581486818 0.42023091051559636
0.1914582529597441 0.45104737819169577
0.18355723077379696 0.4543200887377258
0.1648492567908381 0.4294469961887128
0.1402282587635242 0.3852739745222224
0.149761351050292 0.4349385447756858
0.14214781741247584 0.43748599749577066
0.16372815464473248 0.5355306633393
0.15435691925751954 0.5383065497254587
0.3131710445740504 1.1687702498097725
0.29272549367559786 1.1740578287939556
0.2834383284732701 1.2277062816293964
0.2411775613486007 1.1346512168512146
0.2404193341744466 1.2368502511440567
0.2187967038603321 1.2408577687953823
0.19710742595069097 1.2444873091498736
0.1753581072096822 1.2477377666143787
0.1511179858223829 1.2307572280352392
0.13275114834992016 1.2630428071177071
0.11068779328952584 1.2651672665765168
0.08510289796783305 1.2170281413169854
0.06489658574125025 1.2383006230956715
0.04432236081217637 1.2692263503142516
0.02216455617534989 1.269806572848617
