# .PCD v0.7 - Point Cloud Data file format
VERSION 0.7
FIELDS x y
SIZE 4 4
TYPE F F
COUNT 1 1
WIDTH 180
HEIGHT 1
VIEWPOINT 0 0 0 1 0 0 0
POINTS 180
DATA ascii
1.0531962472667238e-16 -1.72
0.030890759393991968 -1.7697304204268125
0.060027134328301854 -1.7189522224728446
0.09263464255001082 -1.7675742765155957
0.11998113483989578 -1.7158101664468977
0.1542656646633549 -1.7632646156223897
0.18501537998374662 -1.7603037548018436
0.20961527065685367 -1.7071793808230737
0.24633638869931587 -1.7527744816725797
0.27688900312120873 -1.7482083628533938
0.3160396833538134 -1.7923501104822186
0.3377319218164845 -1.7374801147023653
0.37216192656378944 -1.750884205313512
0.4094109189058346 -1.7733535179091282
0.43304019312340514 -1.7368293500340337
0.47622704298863816 -1.7773035203718859
0.5154418553777884 -1.7975593714046565
0.5379639366898357 -1.7596007509719853
0.5685912696499034 -1.7499439899830826
0.5990454042011685 -1.7397541791027429
0.6464180708855141 -1.7760190532853666
0.6773154246406177 -1.7644670060797112
0.7080064615560739 -1.752377485131228
0.758018389269191 -1.7857794156977342
0.7890690875670527 -1.7722781878266454
0.8410103408639918 -1.8035524962029335
0.8504400247708103 -1.7436604498203838
0.9034410944816983 -1.7731029831348522
0.9577219880832174 -1.801213089432211
0.9890116253025277 -1.7842242025643673
1.0449999999999997 -1.8099930939094768
1.0764295765620133 -1.7914796584674144
1.1340272254590587 -1.8148229257747517
1.165527534932158 -1.7947550154032073
1.2246324586009356 -1.8155922838955412
1.2848112174263433 -1.8349005792073418
1.31663896513514 -1.8121980673998825
1.3781564030181905 -1.8288753180083006
1.4406478522620405 -1.8439451634397293
1.5040757346091114 -1.8573788478821605
1.568401767635156 -1.8691484412103063
1.6007840307368377 -1.8414913757435636
1.6661352098335571 -1.8504306154387118
1.7322758345587463 -1.8576384021126928
1.7991651794888028 -1.8630900828771062
1.8809040379562167 -1.8809040379562163
1.9350240629109716 -1.8686310165347026
1.9819685313879523 -1.848215555769371
2.088236959591478 -1.8802570038683915
2.120733920425989 -1.8435258714633256
2.229189329476226 -1.8705119441878293
2.300352045912634 -1.8627883575075186
2.4113129060365694 -1.883924114496514
2.5236882117494455 -1.9017354731604725
2.596944551943581 -1.8867906598588386
2.7113932665965628 -1.8985380043219624
2.8684700010404445 -1.9348074460087838
2.943733693488438 -1.9116830129027444
3.1038560319325197 -1.93950450709353
3.2229490506399423 -1.9365431616618032
3.342858058607933 -1.93
4.2943827620544335 -2.380415235409515
4.4677148198661705 -2.3755261076966074
4.775794969649652 -2.433389078603971
5.042234599738327 -2.459262133486724
2.1842017667583264 -1.0185100107950855
2.1833736437658167 -0.9721005769511624
2.264441939493003 -0.9611985760836131
5.4796565804897135 -2.2139249670880394
2.203249806533396 -0.8457483609269087
2.1706899540154483 -0.7900665310822949
2.2314238384143876 -0.7683408445188897
5.382979882230569 -1.7490361881622023
5.36486968095263 -1.640205263494553
8.036147778044345 -2.3043282946301122
11.407584008473897 -3.0566529226607693
11.36216295469192 -2.832905397472108
11.361154955395843 -2.6229292936494644
11.894274824923077 -2.5282061603439545
13.458108685067474 -2.61599132661243
15.323608636869958 -2.7019656444974363
18.08457351629697 -2.864315054886627
25.806385871405322 -3.6268510110193044
26.16351655726525 -3.212475892159686
42.57548234071578 -4.474863512488242
43.29462157906726 -3.7877885798132196
43.20449901675299 -3.0211528778580616
43.25064515022059 -2.266670264881901
18.14893741866678 -0.6337748601174185
15.557630136633449 -0.2715594441641318
11.96 0.0
9.758513504726379 0.1703354868278873
8.15502914847582 0.2847798930924083
7.349913375793664 0.38519263794806713
6.144994549600518 0.42969987826381245
5.4890327864855175 0.48022814253959717
4.932828601026635 0.5184611778075618
4.526010451484428 0.5557242059274723
4.169028569402011 0.5859187550418754
3.8618614117269887 0.6116587583073028
3.5059156007234606 0.6181875124942721
3.298267336384151 0.6411182244651907
3.0909464183188256 0.6570009429841197
2.8841353917642962 0.6658551208578406
2.67801620452175 0.6677044318550832
2.5693626979289217 0.6884586599727056
2.41276685680518 0.6918497631006677
2.256879224072764 0.6899972231456586
2.196940552641805 0.7138292570061285
2.0895960520744903 0.7195056213503163
1.9827514298582665 0.721662502417161
1.8764966572593753 0.7203195785860536
1.8172803549509031 0.7342289230951877
1.7581642700941609 0.7462964554145131
1.6352463691802557 0.7280585911056826
1.576975549443771 0.7353557754288169
1.5639016405605504 0.7627657954129949
1.4612506996689232 0.7445444195728567
1.44803405228864 0.7699333629688612
1.3906453343516394 0.7708472961916759
1.3336791218280357 0.7699999999999998
1.3200376430812528 0.7931586353614836
1.2211892584652535 0.7630837404958151
1.2076856178414104 0.7842802104216391
1.1523622258515078 0.777278135824338
1.097663739347249 0.768592424710402
1.0436319227436823 0.7582429754572904
1.0302398079610076 0.7763413798661426
0.9771333344723352 0.7634202294038163
0.963660992206644 0.7803572849017982
0.9498951094675328 0.7970566360113088
0.9358398794762373 0.8135131959482289
0.8843423423180989 0.7962654215670414
0.8337432198458544 0.7774781304712481
0.8200473723860621 0.791910542323257
0.7848885271170679 0.7848885271170678
0.8058037097324366 0.8344341683928355
0.7911180976724982 0.8483702938782377
0.7628088912490985 0.8471851010442293
0.7610284736289884 0.8754631130584155
0.7456336272363857 0.8886115540180144
0.7488912653493065 0.9248036941337954
0.7018540818712505 0.8983322591116629
0.6860691263933348 0.9104444814539139
0.6700751876134193 0.92227937358744
0.6251983156226402 0.8928757282750013
0.609520264783114 0.9036509540849955
0.5936565481663797 0.9141509190605122
0.5776119980141934 0.9243724248105044
0.5613915016519592 0.9343123577653024
0.5199999999999999 0.9006664199358163
0.5042020050561906 0.9096044954249716
0.48825042529732626 0.918265496573284
0.47215011972912874 0.9266467851559026
0.45590599266064036 0.9347458081511337
0.4395229922103274 0.942560098518116
0.4026692766450424 0.9044100030661747
0.4063603736288447 0.957325047590538
0.3708605274817531 0.9179120160211194
0.35478427004984714 0.9242446222322297
0.33859994189241216 0.9302956945780492
0.32231247291258497 0.9360633898433237
0.30592682443119795 0.941545951132202
0.2748294024393723 0.8989264706052533
0.2728809822588292 0.9516490789789357
0.25623085465149575 0.9562665680261775
0.2274065818636876 0.9120779826994366
0.22270154380042648 0.9646263641373829
0.20167434009322646 0.9488031727117915
0.18508472551524857 0.952178367944234
0.1684387323369223 0.9552635204218418
0.151741431089024 0.9580576903772836
0.1349979079312633 0.9605600266793233
0.11821326310299306 0.9627697670920823
0.09616618620624139 0.9149601437388115
0.0845410704652284 0.9663088571489932
0.0676637795318017 0.9676371287520295
0.05076587755565543 0.9686706487119366
0.033852511801426045 0.9694091022085228
0.016928834244164876 0.9698522643016995
