# .PCD v0.7 - Point Cloud Data file format
VERSION 0.7
FIELDS x y
SIZE 4 4
TYPE F F
COUNT 1 1
WIDTH 179
HEIGHT 1
VIEWPOINT 0 0 0 1 0 0 0
POINTS 179
DATA ascii
1.1144285872240914e-16 -1.82
0.03176337971585615 -1.8197228051846321
0.06526205883367703 -1.8688608465257093
0.09786823817430522 -1.867437229991053
0.12695678221430834 -1.8155665714728801
0.16298123893812072 -1.8628840854315643
0.19546822631051197 -1.859755944338671
0.22789567216762582 -1.8560613035692721
0.26025369879532245 -1.8518012885467368
0.29253244962523184 -1.8469771969129076
0.3247220922371599 -1.841590498132829
0.36635327112296623 -1.8847241922195148
0.39919044637009815 -1.8780433934089067
0.4251574927099051 -1.8415594224440945
0.4572323826833719 -1.8338589226616333
0.4891679952437642 -1.825599811686339
0.5347364702849784 -1.8648476901203386
0.5672011071621094 -1.8552312265682886
0.599492969087398 -1.8450496416125979
0.647880627369742 -1.8815819654426402
0.6806200852180809 -1.8699883153639576
0.7131522195951477 -1.8578250487294314
0.4645121758357311 -1.1497079796628162
0.4649700429022357 -1.095400775608404
0.4840166052602024 -1.087119094594695
0.5029157314714323 -1.0785062665736134
0.5216616646790021 -1.0695649150960085
0.5402486946900608 -1.0602977637841577
0.5586711597152101 -1.050707635502123
0.5769234480931411 -1.0407974514958809
0.6049999999999999 -1.0478907385791707
0.7416548278704781 -1.2343209130110415
0.7630837404958151 -1.2211892584652533
0.784280210421639 -1.2076856178414104
0.788461993893753 -1.1689429773026085
0.9693441774332678 -1.3843669548483961
1.375417490364387 -1.893099766837377
1.4383379053333953 -1.90873886901303
1.5022139997946065 -1.9227462388004013
1.5670077737140953 -1.9350934440278578
1.63268052860381 -1.9457528855222042
1.6663899336358885 -1.916962333765841
1.6995917401515 -1.8875878567125814
1.8004756705649965 -1.93077377227461
1.8686310165347026 -1.9350240629109714
1.9374725804511406 -1.9374725804511401
2.006958042944837 -1.9380968535806025
2.0770445125984445 -1.9368753425774956
2.125394200865348 -1.913713534186334
2.2339403574594052 -1.9419347258119015
2.305793773788124 -1.934790705156483
2.455781238204028 -1.9886524357174862
2.5295145190775776 -1.9762733357953628
2.6035517627541744 -1.9619169754756771
2.7182971010998234 -1.9749584477027096
2.7933084710254623 -1.955895647957067
2.9099218796681963 -1.9627670911823212
3.1114678070775232 -2.02061081990575
3.2310632463559834 -2.018992396728511
3.3515241457452594 -2.0137988728983114
3.4727618691755984 -2.005
3.3760320695580677 -1.871365134150861
3.3198829491495654 -1.7652130760749494
3.350184530948263 -1.7070042790206958
3.379465614084868 -1.648275511926931
3.4077172792578034 -1.5890446641450295
3.48060819361831 -1.5496666101187986
3.55314873432642 -1.5082221559685962
3.7180072568128173 -1.5021724395978067
3.790336531578639 -1.4549738751539192
4.0030905645479695 -1.457005810567349
4.264288775952918 -1.4683123766017767
4.574581843379688 -1.4863717429434968
4.8389020651729595 -1.4794008258970477
5.2484888598232216 -1.5049799627608151
12.132028378190698 -3.25076720648766
12.235429108340314 -3.0506351035118087
12.384243523420341 -2.8591279007105226
12.57897814543674 -2.6737443439163857
12.672806938309343 -2.463344130311194
12.566146928435774 -2.2157507470300315
12.602903225993957 -1.9961037739133458
14.665870098062658 -2.061153625218569
15.146254274046575 -1.8597261803625498
22.22510371442684 -1.9444446207002515
22.30553216380967 -1.5597547529186389
22.579013780800913 -1.1833159706529617
30.741261839107388 -1.0735085185689313
30.905292257284053 -0.5394538829764342
23.86 0.0
23.556411697884577 0.41117869566240006
12.752226952763662 0.44531757792391297
12.742512863468361 0.6678068016599642
12.828673686341338 0.8970682523494526
12.761254082555261 1.1164650645975027
12.690099384899167 1.33378319129526
12.51600697219707 1.536772420338909
5.357350251891896 0.7529264761939539
5.047087420441154 0.7993801163555798
4.6384445166875 0.817882916811242
4.328975879004198 0.8414676696105629
3.6778349787591087 0.7817479574747753
3.761068450071008 0.8683110697673192
3.4542527855425473 0.8612419483348175
3.390399650274629 0.9084548483098484
3.3259654679465833 0.9537052511268169
3.1175535044394955 0.9531317573961217
3.005338591492685 0.9764937022248338
2.9878386988938415 1.0287953680846151
2.9694286816834703 1.0807836529091133
2.9967931690560174 1.150361118040414
3.6716480640844775 1.483442109927012
3.2769972782906875 1.391002817421815
3.297899102089789 1.468319281503639
3.2264557218504737 1.50452101179689
3.064887697880159 1.4948456105507546
2.9492315950634977 1.5027085541379
2.8784091527201014 1.5304772946820044
2.7637982745604908 1.5319983999784252
2.6067364653911604 1.5049999999999994
2.5800735751133574 1.5502646054792633
2.4678199598152 1.5420650589186264
2.3566642959266413 1.5304356883922265
2.3130148274285665 1.5601482006833836
2.2199020400231673 1.5543921425113354
2.1762557148686086 1.5811423286667527
2.068465971022488 1.5587009099638054
2.0015473141610736 1.5637801473271722
1.935093444027858 1.567007773714095
1.8691484412103063 1.568401767635156
1.8414913757435636 1.6007840307368375
1.7389588916171022 1.5657656188797284
1.7113676617888591 1.5958761625462463
1.6472881427755108 1.590767668351104
1.548563850798539 1.5485638507985389
1.5213018313052038 1.5753541627416463
1.4935764085368717 1.6016646065459832
1.431939497607957 1.5903299265216235
1.37116337059016 1.5773430226655933
1.3434261042448674 1.601032886118664
1.31527961729416 1.6242350594450692
1.255949409664343 1.6075419373577127
1.197611896072576 1.589284664994113
1.1696926520620214 1.6099438188061455
1.1127382865210291 1.5891549659206443
1.0848342327332487 1.6083328907567809
1.0565997279291528 1.6270209018141224
1.0015474094007573 1.6028109017356449
0.6128953091429645 1.0200290878355136
0.4549999999999999 0.7880831174438393
0.45572104303155686 0.822142524711032
0.4413032690187372 0.8299707372873913
0.4040515447681967 0.7929958065276475
0.3901503206422787 0.7999267012062586
0.39726116603625744 0.8519293198144509
0.3823324444912523 0.8587327301840446
0.35556532692523907 0.8376594166417207
0.6518154725436872 1.61329990694621
0.6235602322088223 1.624429942105131
0.5951150493866637 1.6350651601674804
0.5502101810325946 1.5979263927628453
0.5222387204936612 1.6072855125388095
0.5174979173592437 1.6926594180545729
0.4740962520052385 1.6533701170139086
0.44516875757633606 1.6613924212171973
0.4161056604314284 1.6689086491947138
0.37566826075425475 1.6271980081913429
0.35760810820654587 1.6824138732621459
0.31865102227883 1.6393173963575989
0.28999245670377344 1.6446289475303875
0.2612455566171856 1.6494395287938801
0.23241907860330896 1.6537476747984223
0.2035218034865963 1.6575520732410076
0.17456253365698163 1.6608515652650164
0.14555009038858907 1.663645145813215
0.1164933111526895 1.6659319639339063
0.08740104692571606 1.6677113230401381
0.0582821594931768 1.6689826811218897
0.029145518750263236 1.6697456509111734
