# .PCD v0.7 - Point Cloud Data file format
VERSION 0.7
FIELDS x y
SIZE 4 4
TYPE F F
COUNT 1 1
WIDTH 180
HEIGHT 1
VIEWPOINT 0 0 0 1 0 0 0
POINTS 180
DATA ascii
5.143516556418883e-17 -0.84
0.014660021407318221 -0.8398720639313686
0.03036256213117594 -0.8694700195066133
0.048149079743508454 -0.918739171974208
0.06068813215738914 -0.8678807237260471
0.07321082390803284 -0.8368035463970662
0.09616618620624119 -0.9149601437388115
0.10237024846032389 -0.8337387673787104
0.12108059783525696 -0.8615332198051662
0.13922667388580554 -0.8790426231296726
0.15454687812356807 -0.8764789001808652
0.16982000588512497 -0.8736481932684209
0.18504140482780593 -0.870551364653087
0.20020643836604 -0.8671893576588594
0.21531048708370423 -0.8635631963856368
0.23034895014124346 -0.8596739853972708
0.24531724667712926 -0.8555229093851038
0.26021081720323574 -0.8511112328071015
0.27502512499370324 -0.8464402995026866
0.28975565746686954 -0.8415115322833919
0.30439792755984524 -0.8363264324994584
0.3368658725725823 -0.8775656009073696
0.33339986814016187 -0.8251936305644407
0.34775070435545363 -0.819249319572672
0.36199561233746236 -0.8130554573019146
0.37613025294922253 -0.8066139304626184
0.39015032064227895 -0.7999267012062585
0.4040515447681967 -0.7929958065276475
0.4178296908794429 -0.7858233576444449
0.45572104303155686 -0.822142524711032
0.46999999999999986 -0.8140638795573724
0.48413579041545096 -0.8057372626599855
0.49812410837921256 -0.7971652103870404
0.5391926446648768 -0.8302838622659697
0.5536009744360394 -0.8207471968294912
0.5678406719875356 -0.8109605238461018
0.5819073997695484 -0.800926824431198
0.6258876240781303 -0.8305809304491846
0.6095048605724018 -0.7801306460706546
0.623027187139339 -0.7693745018424012
0.668499114074001 -0.7966862208437372
0.715104341599653 -0.8226334424428215
0.6958958306132126 -0.7728706184964901
0.7433782124681235 -0.7971755347648958
0.7571776238003071 -0.7840803823691297
0.7707463914933369 -0.7707463914933368
0.7840803823691298 -0.7571776238003071
0.8337432198458544 -0.7774781304712481
0.8471851010442295 -0.7628088912490982
0.8981044004650987 -0.7807102444987036
0.9498951094675328 -0.7970566360113087
0.9248036941337954 -0.7488912653493065
0.9771333344723353 -0.7634202294038162
1.0302398079610078 -0.7763413798661423
1.0436319227436823 -0.7582429754572904
1.0567061371327995 -0.7399136028928495
1.110910347223756 -0.7493184906508007
1.1657520894441393 -0.7570482586708874
1.1787868536574322 -0.7365877772841548
1.191462547975936 -0.715902924124975
1.2903778516388136 -0.745
1.3031833636376997 -0.7223663341670422
1.3597392930027477 -0.7229862066902718
1.416700373459505 -0.7218448945858794
1.4740222359306339 -0.7189286807340869
1.5316601600919384 -0.714224862341782
1.5895690962981257 -0.7077217589518923
1.6477036876798683 -0.6994087199957999
1.7060182924028888 -0.6892761318852779
1.7644670060797112 -0.6773154246406176
1.8699883153639576 -0.6806200852180808
1.9288578942226065 -0.6641590350925997
2.006729249382774 -0.652025858131139
2.065618272880157 -0.6315228822011113
2.1724514328206004 -0.6229404241464179
2.279584950042201 -0.6108129464419488
2.4354422729527507 -0.6072239579551657
2.6405428755679874 -0.6096173572718738
2.9442242782087544 -0.6258141893614557
3.1510232588670015 -0.612496875158709
3.3581944377716293 -0.5921402858442325
3.447032308677031 -0.5459562829904058
3.4758409212829116 -0.48849758436982954
3.682346222589305 -0.45213526403309695
4.137211084732017 -0.4348384071934381
5.4890327864855175 -0.48022814253959595
5.44669971441864 -0.38087034664292346
5.402585783022245 -0.2831375232743265
5.456673915524263 -0.19055125199565556
5.359183646038257 -0.09354489850383976
6.16 0.0
7.108917112561942 0.12408660976908595
10.503597591970696 0.3667937103432857
10.445664933532843 0.5474341023011933
18.31527596277037 1.2807288579421423
18.389754126773624 1.6088950111217721
16.8173652506775 1.7675763138560225
16.68470080909062 2.0486236626405283
18.775482583340175 2.6387219942028404
9.837375872327573 1.5580872718006995
7.1989446745192405 1.2693681787452609
5.89957937252046 1.1467620622130346
5.096148999823127 1.0832199091605264
4.199534979224364 0.9695390442220584
3.5997971444839467 0.8975302326747677
3.2938070676457225 0.8825729437995963
3.2779023831496676 0.939923383335967
3.308814455632103 1.011606098340669
3.290655546381231 1.069198800537318
3.271494271573636 1.126465814421762
3.2513364679192427 1.183389695906814
3.230188275680318 1.2399531054267392
3.254415329529423 1.3148691428898516
3.2769972782906875 1.391002817421815
3.252221829207659 1.4479824493498492
3.3624018899059713 1.5679137510579948
3.873802339549409 1.8893796426609242
3.884788445461284 1.9793985788644242
3.8937988845078677 2.0703695918857794
3.900803893841705 2.1622509062986635
3.9923771114462627 2.3049999999999993
2.3657817499378297 1.4215050867517496
1.8317838876978805 1.1446256107437227
1.7695948983648444 1.1491883638817073
1.6912366480122851 1.1407535230803234
1.5891549659206439 1.1127382865210298
1.5290421193686505 1.1109141268327742
1.4694893384870187 1.1073396425997692
1.4105392489560322 1.1020340408329283
1.3522339729351296 1.0950174804267168
1.294615108871073 1.0863110603702515
1.2754591905764847 1.1087397589939572
1.1816002725090566 1.0639176641105847
1.1628523855744812 1.0843773924993727
1.1077832925215225 1.069773890506856
1.053589103967956 1.0535891039679557
1.0003080534609559 1.0358493124876578
0.9479777204868728 1.0165816452506469
0.930091542838813 1.0329713074135778
0.9119220502968051 1.049046316509653
0.861335396979963 1.0264995537794306
0.8118233044542903 1.0025182902794925
0.7942033031700994 1.0165338721526713
0.7462506287085398 0.9903080324586432
0.7288537128426666 1.0031810730249349
0.6825559592577446 0.9747909327039004
0.693399200303726 1.0280065899682518
0.6208884999171309 0.9560844474577832
0.657099887649174 1.0515796392339682
0.6386472128884673 1.0628874528706191
0.6199999999999999 1.073871500692704
0.6254044101177749 1.1282594222098206
0.9436378411996401 1.7747246616464432
0.9579199544504439 1.8800237660374561
0.9468816770644068 1.9413951400062008
0.9339863584469458 2.0029402093509963
0.9192248133513088 2.0646127342722775
0.9221254632346859 2.172391454147759
0.9028018901323485 2.2345130895059575
0.9174219508359684 2.3899658918328366
0.8858321712134822 2.4338038878355026
0.8660112908560365 2.5150794110941828
0.8528869044748549 2.6249159849746238
0.8361830755070265 2.7350316020542818
0.8792831650562273 3.0664248100432374
0.8308091347790922 3.1006219023879087
0.7765692848749333 3.1146492813459488
0.7220928844438071 3.127727907960605
0.6570009429841192 3.090946418318826
0.5934159756210546 3.052860540522235
0.540045832544153 3.062752111867967
0.48651118627511813 3.0717107392508782
0.42586968893779964 3.0302202903492055
0.3729201908197513 3.0371912240224455
0.31985709759902026 3.043236999826916
0.26669657280783393 3.0483557761607414
0.2134548096570239 3.052545993795062
0.15753122829126065 3.005874899611267
0.10504748507452824 3.008166389327478
0.051659123054358796 2.959549177662918
