# .PCD v0.7 - Point Cloud Data file format
VERSION 0.7
FIELDS x y
SIZE 4 4
TYPE F F
COUNT 1 1
WIDTH 180
HEIGHT 1
VIEWPOINT 0 0 0 1 0 0 0
POINTS 180
DATA ascii
4.531193156845207e-17 -0.74
0.01256573263484419 -0.7198903405126017
0.026872612460925833 -0.7695309368047037
0.03872860761977853 -0.7389858557183846
0.055107614257859115 -0.7880755997052612
0.06449524963326703 -0.7371840765878916
0.07735106281806356 -0.7359462025725222
0.09018331411980914 -0.7344841522145783
0.10298809471044844 -0.7327983708687621
0.11576150412977088 -0.7308893720404019
0.13718206035687502 -0.7779981248796444
0.14119865657864322 -0.7264041157512713
0.16425023574602998 -0.7727366045797064
0.17771133293165348 -0.7697523511803359
0.19111829752373746 -0.7665336237580372
0.20446704563099138 -0.763081402768364
0.23153537888627929 -0.8074598245881879
0.23097364673096205 -0.755480757210798
0.2441234255562085 -0.7513346478731713
0.27347724974401166 -0.794235603503426
0.2872969203935618 -0.789341801460163
0.3010290776180523 -0.7842075582576494
0.31466953846936624 -0.7788344378361013
0.3282141479309899 -0.7732240769000499
0.3416587801836723 -0.7673781844197846
0.3549993398621875 -0.7612985411107859
0.39015032064227895 -0.7999267012062585
0.4040515447681967 -0.7929958065276475
0.4178296908794429 -0.7858233576444449
0.43148056201924 -0.7784115393540623
0.4449999999999999 -0.7707626093681504
0.4583838866699483 -0.7628788976248799
0.47162814516755236 -0.7547628055792192
0.4847287411633741 -0.7464168054714273
0.5256413292625021 -0.779295318201739
0.5391618501699833 -0.7700029216316523
0.5819073997695484 -0.800926824431198
0.5957968729205277 -0.7906491549468199
0.6095048605724018 -0.7801306460706546
0.6544932066918309 -0.8082317999152497
0.668499114074001 -0.7966862208437372
0.715104341599653 -0.8226334424428215
0.7092784427403898 -0.7877335150060379
0.7774781304712484 -0.8337432198458541
0.8613763793691566 -0.8919813524199274
0.9121677477306463 -0.9121677477306462
0.9639153324537927 -0.9308422164150564
0.9800139601696887 -0.9138778024837481
0.9958140661397085 -0.89663501252087
1.0867817955207917 -0.9447250017463305
1.1031039980913282 -0.9256141579486165
1.119090184498038 -0.9062213631117658
1.1741360228740159 -0.9173355982352307
1.2298986854728309 -0.9267951356541544
1.2863370210561664 -0.9345785511450323
1.3434093526339466 -0.9406653556157155
1.4010734976180206 -0.9450360068655621
1.4592867882250378 -0.9476719209261469
1.560408496927824 -0.9750514461890971
1.5771878332918867 -0.9476700578344995
1.636788013152589 -0.945
1.6530312464934578 -0.916290182265577
1.598135143074658 -0.8497435286424624
1.7018224611997825 -0.8671218545025343
1.7616363307463674 -0.8592074477065917
1.8669940412954988 -0.8705936191858408
2.0189354613901482 -0.8988879811975183
2.2184166968203813 -0.9416620196591495
2.327231474962636 -0.9402625494739388
2.5766819771322766 -0.9890955407450288
3.627213516233606 -1.3201977532370814
3.649701701813363 -1.256693076204625
3.6710781528992924 -1.192805598287297
3.6435211202191655 -1.1139361949936268
3.6143439767280787 -1.0363964578719165
3.6318811068468966 -0.9731596095854778
3.5997971444839467 -0.8975302326747668
3.6149129403532227 -0.8345684116157387
4.069094019052631 -0.8649126338018791
4.525301315693731 -0.8796294686858719
5.377050331446656 -0.9481190500614397
6.38046668024459 -1.0105666441598915
7.833020423745822 -1.1008592285941174
8.744331595960048 -1.073668915399349
16.618460871603848 -1.7466706212024883
16.64641340511307 -1.4563724613133664
15.172949204451928 -1.060995965648144
15.338949653830253 -0.8038802878916184
17.299455215700547 -0.6041102879202925
17.307363603157132 -0.302101155429378
8.36 0.0
6.509008495468107 0.11361516590671582
5.406704374173308 0.1888062771605305
4.8034080621695 0.25173594952856015
4.2995010566198415 0.30065040183718045
3.895121269538725 0.3407789541433439
3.540497947511053 0.37212132923284685
3.23570045435071 0.3972940595007806
2.88168008003797 0.40499372379379034
2.72601982004258 0.4317591235110372
2.5211078477112525 0.4445393348273417
2.316640152936487 0.45030922908864585
2.1617061976217102 0.45948483670724827
2.0559208366968464 0.4746467246655553
1.9502944098147528 0.4862630101553323
1.8449183282121202 0.4943443761458149
1.7398836696483573 0.4989036140287684
1.6830963704949427 0.5145742003120166
1.7689651203089856 0.5747716095374021
1.7113886218347636 0.5892783595674537
1.7478282746617895 0.6361574665857439
1.7364595932847953 0.6665643861542586
1.7709211622225638 0.7154985934243921
1.7581642700941609 0.7462964554145131
1.7448718240973675 0.7768669882747786
1.7763632625918337 0.8283317930117707
1.7616363307463672 0.8592074477065921
1.7909231136186192 0.9125209044764889
1.774724661646443 0.9436378411996408
1.8017165967071553 0.9987078177074543
1.8273136019851655 1.0549999999999995
1.7914796584674144 1.0764295765620133
2.5102223646230213 1.5685610221302866
2.6082654663102685 1.6938273988967345
2.5783068506461797 1.7390899297940225
2.8342660732399114 1.9845744697746202
2.8396496502560655 2.0631262355465805
2.8431424157683622 2.1424614824212926
3.159923121962955 2.4688025160558897
3.155212603515302 2.5550407876623393
3.1867448833749488 2.673996456296004
3.2150628117490085 2.7948114634995602
3.760312816915614 3.385800868175823
3.77378510035492 3.5191115379224924
3.172288519493451 3.0634434137241784
3.0122748878546926 3.012274887854692
2.8550459025864785 2.956486579391857
2.7348134238506185 2.9327283434928733
2.6832137314990216 2.9800107501643502
2.663599657701459 3.064120895704454
2.60971769532735 3.1101404390630503
2.5550407876623398 3.1552126035153014
2.561151737354739 3.278124735003963
2.563731998627725 3.4021872728014677
0.8287772057323871 1.140713962068676
0.8087427752549747 1.1550043824474785
0.7884619938937529 1.1689429773026088
0.7679410393711883 1.1825255008030477
0.7206901993571587 1.1533454107727394
0.7004517818776739 1.1657475289548727
0.6799999999999999 1.1777945491468367
0.6593410835350185 1.1894828017095782
0.6150077472495168 1.1566613466451945
0.5947275546588064 1.167218546686762
0.5742662022936912 1.1774202006519088
0.5536299228803163 1.1872632010180115
0.5328250024292985 1.196744549511807
0.5118577783209486 1.205861358022697
0.47200430770404933 1.168251656754152
0.4515436164270782 1.1763113373864742
0.4309453805903427 1.1840127021902445
0.3385908806354428 0.9833393186232896
0.3306481839811938 1.0176304724358143
0.304066572911646 0.994556946201557
0.2866628500496791 0.9997121637758517
0.27693637825969747 1.033540634129303
0.2588564282916444 1.0382164271153163
0.23394909651761975 1.0133448673766448
0.2162281584504696 1.017273504763158
0.20416562505290306 1.0503410862890006
0.18580355010361535 1.0537442957230627
0.16269184364184017 1.0271958742189433
0.14474002499846786 1.0298787914912333
0.12430673027325044 1.0123970746741484
0.10870960179835983 1.0343027711830042
0.09325664473999422 1.0659283269581679
0.0690589090066842 0.987588409757226
0.05599947317994981 1.0685336021873941
0.03734246147167616 1.0693481849104325
0.017801454566029044 1.0198446490595192
