# .PCD v0.7 - Point Cloud Data file format
VERSION 0.7
FIELDS x y
SIZE 4 4
TYPE F F
COUNT 1 1
WIDTH 177
HEIGHT 1
VIEWPOINT 0 0 0 1 0 0 0
POINTS 177
DATA ascii
1.1940306291686693e-16 -1.95
0.0349048128745672 -1.9996953903127825
0.06979899340500216 -1.9987816540381915
0.10205511467374073 -1.9473275927714189
0.1395129474882509 -1.9951281005196484
0.17431148549531628 -1.992389396183491
0.20383050337192424 -1.9393176959681329
0.24373868681029498 -1.985092303282644
0.27417100889132895 -1.9508280954208936
0.31286893008046185 -1.9753766811902755
0.3559787642172073 -2.0188558936750263
0.37589372089179346 -1.933805551391898
0.4199816154518741 -1.9758581534822872
0.4544011297746076 -1.9682275308661752
0.4886822291113287 -1.9599973670775128
0.5228144711070919 -1.951170169103918
0.5567874587503383 -1.9417486257954042
0.6052094287760651 -1.979550844843483
0.6334848384686422 -1.9496658584050646
0.6674147166371713 -1.938313079978599
0.701141293817621 -1.9263698726111118
0.7525726940451308 -1.9605188956441237
0.7941659780417338 -1.9656297716815891
0.8283499923972604 -1.9514702893191738
0.8622816833206969 -1.9367163702023138
0.9170816279773177 -1.9666878978695304
0.9249631197249534 -1.8964554376912421
0.8807415694947209 -1.7285526569254337
0.920164263060346 -1.7305772820034966
0.9744673366951375 -1.7579856113501853
1.0199999999999998 -1.766691823720255
1.0764295765620133 -1.7914796584674144
1.107531262247398 -1.7724205209669301
1.165527534932158 -1.7947550154032073
1.1966728134273985 -1.7741404052677892
1.2561323956087909 -1.793942976992892
1.287249702520516 -1.7717472176811349
1.3781564030181905 -1.8288753180083006
1.379081704729475 -1.7651440880790572
1.4411436955041277 -1.7796642517364634
1.4719836261821753 -1.7542417747424597
1.5679810792873126 -1.8037558967324252
1.5992221491976712 -1.7761161328909723
1.6299760805493717 -1.7479353468698173
1.7296993424429032 -1.7911561028432414
1.7606958851545036 -1.7606958851545034
1.827123092860174 -1.7644322609658531
1.9307737722746103 -1.800475670564996
1.9619023392603212 -1.7665048007873856
2.0679042498103954 -1.79760173943399
2.137263996301949 -1.7933774310254444
2.1837801516940885 -1.768390298850043
2.253710755315225 -1.7607918194313823
2.3240293342376224 -1.7512817173724606
2.475592002787339 -1.7986228720149677
2.506605255524315 -1.755143895234201
2.702662486529436 -1.8229688653146345
2.9856672218857097 -1.938914964653496
3.1038560319325197 -1.93950450709353
3.265807415675048 -1.962295065407306
3.342858058607933 -1.93
3.5072250256289768 -1.9440865771878115
3.7172093659360828 -1.9764752793286002
3.795687793042447 -1.9339995288904692
3.7839229349194934 -1.845542527982016
3.8155557834242964 -1.7792228819283444
3.9830581953217408 -1.7733717638104889
4.105451646397884 -1.7426608330621605
4.088880798639533 -1.6520150769641715
4.11708968085266 -1.5804026574947745
4.1440444576658555 -1.5083088320661993
4.217012847172953 -1.4520339688789188
4.194159236861627 -1.362764945193518
4.121673498200683 -1.2601220473549952
3.998848655103407 -1.1466514001987163
4.1631403113058845 -1.115510084391864
4.133459793935745 -1.030587275254584
4.296971985702887 -0.9920341496564441
4.362538299272773 -0.9272861410472069
4.476219956521347 -0.8700890189170445
4.736925291988721 -0.835247734577935
5.145856254500668 -0.8150235628596029
5.703944075951445 -0.8016370615299767
13.260416585928063 -1.6281744278927697
13.38626471165696 -1.4069531155826147
13.358970901410308 -1.1687585102460947
13.377333913984245 -0.9354343129087186
13.59134796800975 -0.7122923644664665
15.500551727066176 -0.5412911938557908
38.00421089289443 -0.6633659686811472
37.71 0.0
38.50413474047262 0.672092171899789
37.78696716959201 1.3195499703215636
31.133974008609115 2.177099545554154
13.31004389351013 1.6342678950630272
13.329008205261538 1.8732699389224805
13.442438315499825 2.129073069197542
13.30475274319493 2.345986880280229
13.163620530033175 2.5587486279994667
12.970237185730262 2.7569090202434894
6.538023134708928 1.5094215746473347
5.8799921012325385 1.466046687333987
4.163140311305884 1.115510084391865
3.8065963159157428 1.0915239290353165
3.739151595815469 1.1431733654659006
4.6221346691944465 1.5018225926622444
3.838805416933226 1.321806707096056
4.050075195587264 1.4741068177336323
3.650299467604059 1.4012186827221242
3.6252888713561386 1.4647117802562164
3.5071234916537977 1.4886855995441335
3.434930920736179 1.529329777965009
3.4077172792578034 1.5890446641450295
3.424405316399826 1.6701940692663855
3.4392851833671 1.7524033289946506
3.452325088078404 1.8356338104928338
3.5072250256289768 1.9440865771878115
3.5593644095540435 2.0549999999999993
3.43724087581547 2.0653026803893173
3.2734656511638045 2.0454883599401708
3.153401335474794 2.047842771656502
3.034277515551453 2.046646026702933
2.9161812776688105 2.041932113409725
2.8396496502560655 2.0631262355465805
2.723347089261268 2.0521892289484853
2.6083155944382495 2.037839483327929
2.494638536276877 2.020118455269978
2.4207004402559704 2.0312088466094647
2.347146794492821 2.040343580160477
2.274023165960826 2.0475396554581065
2.2013746418737035 2.0528150637881204
2.114859012995634 2.0422956091494524
2.0435385976291225 2.043538597629122
1.9728297721035517 2.0429250329617696
1.9368753425774956 2.077044512598444
1.8334178614232721 2.0362168218080603
1.7647987879844644 2.0301687707992566
1.6969592895724643 2.022357329834102
1.6614058323715708 2.051665338246403
1.5637801473271724 2.0015473141610736
1.5286101588062024 2.028534195520124
1.4929745408228818 2.0549031657123664
1.4282053265141046 2.03968859027959
1.3644306844686223 2.0228516770343017
1.3289192454366663 2.046356185786834
1.29300300472902 2.0692373546216793
1.2309409990350297 2.0486298486780483
1.1699999999999997 2.0264994448555864
1.110214030364112 2.0028791293492163
1.0750898787796896 2.0219499876469427
1.016938719416585 1.9958546141819442
0.9819513688075331 2.013298663710134
0.9466649062991669 2.030129442962096
0.9110900804897929 2.046341825119426
0.8557011713915094 2.0159056290608444
0.8203884395808476 2.030532641501264
0.7669074120269423 1.997862112704012
0.7490241138832147 2.057926839521139
0.696715850538315 2.023409751782538
0.6612963679623876 2.0352609448716286
0.6256754481066562 2.046492177760896
0.5760820736575282 2.0090369445110863
0.5409318042642688 2.0187849769441524
0.5056167618033054 2.0279180679168327
0.4589001508614849 1.9877149321618799
0.43453543380911674 2.044328485533654
0.38925035056815166 2.0025194542332345
0.3681341366538921 2.0877924363858815
0.3191263086820711 2.014884214814081
0.28808831898733506 2.0498549022950505
0.25226954084865527 2.0545705338975364
0.2163739189640431 2.0586603234123255
0.17605460035026943 2.0123132901453262
0.14090807696313343 2.015079381524845
0.10571863161074636 2.017231660204239
0.07049698333905219 2.0187694705785733
0.03525386100331242 2.0196923442159105
