# .PCD v0.7 - Point Cloud Data file format
VERSION 0.7
FIELDS x y
SIZE 4 4
TYPE F F
COUNT 1 1
WIDTH 180
HEIGHT 1
VIEWPOINT 0 0 0 1 0 0 0
POINTS 180
DATA ascii
5.5109105961630896e-17 -0.9
0.016230737986673748 -0.9298583564954439
0.03071155709820095 -0.8794639277768043
0.04867243930593789 -0.9287254673217538
0.0613856968948304 -0.8778563642286453
0.08105484075532207 -0.9264610692253235
0.09198504767553504 -0.8751792679240805
0.11333848936678717 -0.9230679210264295
0.1252557908640589 -0.8912412618674134
0.14079101853620785 -0.888919506535624
0.15628335990023737 -0.8863269777109872
0.17172809583889043 -0.8834644651028976
0.1871205217359835 -0.880332840660425
0.20245594890947863 -0.8769330583067118
0.2177297060397009 -0.8732661536483969
0.23293714059226867 -0.8693332436601615
0.24807362023529925 -0.865135526344487
0.2631345342504631 -0.8606742803667319
0.29356614465620007 -0.9035036904803958
0.3092897467342989 -0.8982426468193508
0.30781812899310196 -0.8457233587073175
0.3583679495453004 -0.9335804264972017
0.35587626374511655 -0.8808246618384479
0.37119457206481 -0.8744796107798183
0.3863998109220103 -0.8678681847604707
0.42261826174069944 -0.9063077870366499
0.43837114678907746 -0.8987940462991669
0.4312909747525695 -0.8464561979789494
0.46947156278589086 -0.8829475928589269
0.4848096202463371 -0.8746197071393957
0.4999999999999999 -0.8660254037844387
0.540789978655557 -0.9000256657372179
0.5564152274448652 -0.8904505009642473
0.5718709867657784 -0.8806040963426952
0.6151121938178217 -0.9119413298105459
0.6022552581685984 -0.8601096465034415
0.6465637775217205 -0.8899186938124423
0.6619965254672532 -0.8784990610520221
0.6772276228582242 -0.8668118289673942
0.7237184497073129 -0.8937178556755164
0.7392057511395203 -0.8809511095868247
0.7544678833390833 -0.8679160172561877
0.7695001973126869 -0.8546165492990033
0.8183980320749983 -0.8776244419430044
0.8683229630737466 -0.8991747504233139
0.8838834764831844 -0.8838834764831843
0.899174750423314 -0.8683229630737466
0.9873274971858803 -0.920697786084373
0.9660882731206127 -0.8698697882665156
1.0188579333007424 -0.8856796891371849
1.0341599982106204 -0.8677632730768281
1.0880043460397593 -0.8810485474697722
1.1426155927297468 -0.8927091392222043
1.1580214895685745 -0.87263178357047
1.2135254915624212 -0.8816778784387097
1.2696856686479374 -0.8890434763441214
1.326460116088067 -0.894708645553195
1.3418729087126786 -0.8714224560240432
1.399279358658103 -0.874366785984788
1.5000427762286965 -0.9013166310925946
1.5155444566227676 -0.875
1.5743154728509123 -0.8726573164434067
1.633453046789015 -0.8685223911538981
1.6929123959578989 -0.8625819495051389
1.797588092598334 -0.8767422935781548
1.8579309634251322 -0.8663674365684336
1.9367163702023142 -0.8622816833206963
1.9974955319917955 -0.8478865488217238
2.151066542594947 -0.8690872967249156
2.212585610798368 -0.8493320404223618
2.415010035419784 -0.8789917683469687
2.7136383119700396 -0.9343806032920398
2.872190679211364 -0.9332313230123411
3.0793013142009746 -0.9414368892072122
3.1913888305152187 -0.915116021312437
3.235851518068379 -0.8670438010934444
3.366926170177708 -0.8394689777308467
3.5759381377618134 -0.825570369441984
3.8343385948765176 -0.8150138280056168
4.142466714149141 -0.8052139604890193
4.500571431265791 -0.7935721719378718
4.958195469787591 -0.7853010145019589
6.010927177261332 -0.8447807228275971
6.223264370791089 -0.7641207831502743
8.324148264232447 -0.8749032375502588
8.33814962302791 -0.729493566797898
8.29973289816174 -0.5803738615511215
8.308597729158054 -0.4354351559412933
8.36490122214983 -0.2921087873999335
10.06846629022486 -0.17574573282344522
13.97 0.0
13.967872301334786 0.24381011792885102
14.011459394807723 0.48929094376906423
14.000786077259125 0.7337501065260735
13.935969782129744 0.9744979382054318
13.966649667246273 1.2219235133221693
13.943196973063191 1.4654890550125035
13.22071473986241 1.6232996541565639
12.398156220644461 1.7424472240200188
10.143559257912065 1.6065819559631709
6.9133504261456995 1.219010207221851
7.038266905319751 1.3681004968498267
8.529447078398785 1.812989943930862
8.545225468166512 1.9728207465956966
4.094647964884705 1.0209103994305981
3.6898366564242404 0.9886887522916298
3.3836411697028823 0.9702434924758369
3.1749317897972777 0.9706740596794858
2.9672963308408793 0.9641330224498359
2.760914240750005 0.9506590110148976
2.6499331906162613 0.9644968041783859
2.4926597387475287 0.9568424252859519
2.382862506236643 0.9627389450788941
2.2736469880275276 0.9651058873685066
2.1194254617308337 0.9436290119358567
2.012003287221363 0.9382125410643527
1.9503830804691922 0.9512653885322983
1.8443835050699213 0.9397603344608618
1.7835541375750323 0.9483325568274997
1.7055084289218216 0.9453787594803572
1.6454482671904336 0.9499999999999996
1.5857595062989076 0.9528204385836004
1.5264865730815669 0.9538546756197689
1.467673493904492 0.9531183112762975
1.3679119947158187 0.9226682907267322
1.3516008730768363 0.9464011199792263
1.294427190999916 0.940456403667957
1.2378850405733037 0.9328132858856751
1.221416668090419 0.9542752867547704
1.1657189421854566 0.9439805865747559
1.0877831092289487 0.9127584057548859
1.109423082927475 0.9644067726160455
1.0924228934517695 0.9836219913475217
1.1116576264611393 1.0366375072949976
1.1293634865316822 1.0906136416206258
1.0606601717798214 1.0606601717798212
1.0419875556884957 1.079009700507977
0.9888976220906227 1.0604628673477972
0.9367828489024016 1.0404027556683517
0.9184826405867101 1.0565934123118808
0.8999026535611552 1.0724622203665692
0.8495825279172805 1.0491470479669107
0.8003599179233559 1.0244139796887386
0.7823595300976627 1.0382261630614809
0.7347315653655915 1.0112712429686843
0.7169705454388074 1.0239400553612399
0.6989911293384334 1.0362969656938021
0.6535668420180326 1.0064046815345087
0.6623990802915061 1.0600601201955324
0.6180456898920651 1.0286007608425347
0.5999999999999999 1.0392304845413265
0.5575310632832876 1.005812663210305
0.5398922972037742 1.015389731787766
0.5220890747004788 1.024657502816623
0.5041268188074388 1.033613153244042
0.48601100100180433 1.0422539550921472
0.44741030738338045 1.004900003406861
0.4298042413382011 1.0125553387976844
0.3933369230867078 0.9735430472951268
0.3762863470225652 0.9802594478220619
0.35912115049195226 0.9866772518252038
0.34184656218001436 0.9927945043792827
0.32446784409369483 0.9986093421099113
0.30114285586441863 0.9849938986419267
0.2894192236078491 1.0093247807352348
0.271759997357647 1.0142221176035215
0.25401799037965106 1.0188105125897964
0.21370350162667187 0.9256515615459734
0.18712052173598331 0.8803328406604252
0.17172809583889043 0.8834644651028976
0.1562833599002372 0.8863269777109873
0.14079101853620785 0.888919506535624
0.12525579086405872 0.8912412618674134
0.11333848936678717 0.9230679210264295
0.09407561694088831 0.895069705831446
0.07669705361793916 0.876651334320736
0.06278082636971291 0.8978076452338418
0.04710236061864937 0.8987665812791165
0.031409547032250976 0.8994517443171862
0.01623073798667354 0.9298583564954439
