# .PCD v0.7 - Point Cloud Data file format
VERSION 0.7
FIELDS x y
SIZE 4 4
TYPE F F
COUNT 1 1
WIDTH 180
HEIGHT 1
VIEWPOINT 0 0 0 1 0 0 0
POINTS 180
DATA ascii
9.613477373306724e-17 -1.57
0.02827289842839943 -1.619753266153354
0.0547922098229267 -1.5690435984199804
0.08478424911356923 -1.6177798463024098
0.11300548746548325 -1.6160537614209154
0.14119230325120619 -1.613835410908628
0.16933611049359862 -1.611125470496603
0.19742833631633894 -1.6079247656589417
0.22546042355530607 -1.604234271361344
0.2534238333651741 -1.6000551117641233
0.2813100478204273 -1.595388559879777
0.3091105725100028 -1.5902360371852158
0.34721252366565825 -1.6335064932254553
0.37566826075425475 -1.6271980081913429
0.404009565651445 -1.620393862880914
0.43222780532120963 -1.613096129902744
0.4740962520052385 -1.6533701170139086
0.4941081809814251 -1.6161550375775298
0.5160583806061623 -1.5882643822129063
0.5599772256663096 -1.6262919500308248
0.5951150493866637 -1.6350651601674804
0.6235602322088226 -1.624429942105131
0.6330851428728915 -1.5669407142178704
0.6798721635713363 -1.6016784450072463
0.7280585911056827 -1.6352463691802555
0.756486688515852 -1.6222909387956035
0.8066029100919025 -1.6537810451904673
0.8353425195207662 -1.639452004506597
0.8638276755260392 -1.6246235708604255
0.8920497012532603 -1.6093002611364882
0.9449999999999997 -1.6367880131525891
0.9734219615800025 -1.620046198326992
1.0280433726124174 -1.6452133065434662
1.0565997279291526 -1.6270209018141224
1.1127938779067863 -1.649784769384533
1.1414171083385816 -1.6301125681350936
1.1990819146766452 -1.650394668524893
1.2277026472301784 -1.6292164404964773
1.286732483430626 -1.6469424750380486
1.3467456368466522 -1.6630923575179177
1.3755654847291943 -1.639335108274613
1.4367692734892108 -1.6528139806878708
1.4988525582438426 -1.6646444090693633
1.5617762445431218 -1.6747999767079
1.6255005868740535 -1.6832551327924434
1.6899852070358488 -1.6899852070358485
1.7551891128263089 -1.6949664239199533
1.8210707170317348 -1.6981759165556214
1.8875878567125817 -1.6995917401514997
1.9546978127769794 -1.6991928850854137
2.022357329834102 -1.6969592895724637
2.0672082574755426 -1.6739922401925675
2.1749096799545526 -1.6992256718988163
2.284097558735257 -1.721190966214858
2.3542394536310973 -1.7104550841710968
2.465647653309865 -1.7264650734166485
2.536854972018428 -1.7111302846204852
2.65019899470754 -1.7210593506474854
2.7646367934699487 -1.727536801400248
2.922940495394203 -1.7562798354432843
2.9964478970941575 -1.73
3.1573771427732185 -1.7501627290892767
3.3198829491495654 -1.7652130760749494
3.4838355095765188 -1.775102853981628
3.649103827974618 -1.779786855963654
3.8608711727761285 -1.8003537950153794
4.0287354682038705 -1.7937085959642787
4.24352737441575 -1.8012705023355517
4.506113533194587 -1.820588044001332
4.817275000725561 -1.8491786196537496
5.130721709491059 -1.8674299825581515
5.4934629242320305 -1.8915509773960804
7.427751392265149 -2.413422726068339
7.4209249062731555 -2.268804428648437
7.411327675684439 -2.125164013349063
7.447288120688716 -1.9954948377404345
7.9661279127259315 -1.9861787628732714
8.632918773997183 -1.9930663414866425
4.704889959529605 -1.0000552328334227
4.574382674866114 -0.8891699184546991
4.53996374138628 -0.800518099044549
4.80016533529237 -0.760271500095522
12.784360767453673 -1.7967247333944445
14.649981198225914 -1.7987915086599762
11.297768731383584 -1.1874433427205424
11.366581505226817 -0.9944470247507786
11.432084015977587 -0.7994091891076746
13.441553537796565 -0.704441971030025
14.950886772205674 -0.5220964706694152
14.957721519539614 -0.2610880003017617
7.06 0.0
7.008932343046302 0.12234136912535758
7.20560786280768 0.2516253712250323
5.102996922595873 0.2674367364014434
4.947917689288728 0.345992109770862
4.692077028012122 0.41050354834147057
4.7339242219529805 0.49755548515403114
9.141350056616577 1.122416652761408
8.971828702798629 1.2609082946981927
9.096609616881219 1.4407614230205263
8.38071397813389 1.4777459919455773
7.764671021071022 1.5092991534284699
7.639332761731021 1.6237903052867009
7.658548709211949 1.7681152871427797
7.675039194843132 1.9136021941933727
7.64047328594653 2.0472586467609406
5.681056622995465 1.6290167728784648
5.412684918750782 1.6548238487306899
5.097662927342023 1.656331089849718
4.878875850092475 1.6799316769989285
4.61389076805881 1.6793189037290337
4.44384283012668 1.7058314398356296
4.2279583768245494 1.7082060659765592
4.01340116105264 1.7035877202132343
3.8917036495574795 1.7326980995029093
3.7249250047206317 1.7369610557542745
3.559224423344701 1.735949741284747
3.394734857157682 1.7297038040076733
3.275735569506619 1.7417394979356555
3.1573771427732185 1.7501627290892767
3.0397491672833796 1.7549999999999992
2.965798860429308 1.7820317391887877
2.8494416030855914 1.7805287278235684
2.692132523104811 1.7482913023982374
2.619758729273932 1.7670495749675599
2.5066052555243146 1.7551438952342016
2.435141153068592 1.769233609400344
2.3639611097399866 1.7813724685300636
2.316751615603762 1.8100447374574353
2.245951828610646 1.8187359301340298
2.137263996301949 1.793377431025445
2.105639728821534 1.830404690883515
1.9990595805341902 1.7999613311053289
1.9307737722746103 1.800475670564996
1.8990570728940386 1.8338980980117532
1.8314065632731582 1.8314065632731578
1.729699342442903 1.791156102843242
1.6981759165556214 1.8210707170317346
1.6326786795156143 1.8132733741648417
1.5679810792873126 1.8037558967324252
1.5362623871508294 1.8308462190543575
1.4726097150566193 1.818521549809312
1.4406478522620405 1.8439451634397293
1.4082471541757926 1.8688070935106653
1.31663896513514 1.8121980673998825
1.284811217426343 1.834900579207342
1.2246324586009354 1.8155922838955414
1.1927594866829094 1.8366885438004783
1.1605231886707188 1.8572253305825728
1.1279333840530188 1.8771963885376257
1.0699999999999998 1.853294364098699
1.0374925873271614 1.871686173278307
0.9811955662225114 1.8453604690751573
0.9715396694426304 1.9067539617631075
0.9161956967891713 1.878479556765259
0.8621412539510269 1.848867885554766
0.8297427518746328 1.8636327335909055
0.7775549456936547 1.8318046583703564
0.7641974505684609 1.8914550633162461
0.7131522195951473 1.8578250487294314
0.6806200852180809 1.8699883153639576
0.6478806273697415 1.8815819654426404
0.599492969087398 1.8450496416125979
0.5672011071621089 1.8552312265682889
0.5347364702849784 1.8648476901203386
0.5098735188519663 1.9028738777894643
0.47658613433134533 1.911482580763713
0.43640504542709835 1.8902779256833564
0.3991904463700977 1.878043393408907
0.37589372089179346 1.933805551391898
0.34208691000385255 1.94007127343405
0.30035417287724336 1.8963616139426644
0.26721235384332526 1.901314691983815
0.23398913933788318 1.905688611151338
0.20069464947389506 1.9094820391070846
0.1673390260755036 1.9126938203361514
0.13393242958872087 1.9153229764988624
0.10048503598645199 1.9173687067287817
0.06700703366880208 1.9188303878766637
0.03350862035958408 1.9197075747002712
