# .PCD v0.7 - Point Cloud Data file format
VERSION 0.7
FIELDS x y
SIZE 4 4
TYPE F F
COUNT 1 1
WIDTH 180
HEIGHT 1
VIEWPOINT 0 0 0 1 0 0 0
POINTS 180
DATA ascii
9.919639073093561e-17 -1.62
0.02827289842839943 -1.619753266153354
0.056537184658051756 -1.6190131397709353
0.08478424911356923 -1.6177798463024098
0.11300548746548325 -1.6160537614209154
0.14119230325120619 -1.613835410908628
0.17456253365698127 -1.6608515652650164
0.19742833631633894 -1.6079247656589417
0.22546042355530607 -1.604234271361344
0.2534238333651741 -1.6000551117641233
0.2813100478204273 -1.595388559879777
0.3091105725100028 -1.5902360371852158
0.34721252366565825 -1.6335064932254553
0.36442070803706156 -1.5784795049520812
0.39191347087146167 -1.5718790765671145
0.43222780532120963 -1.613096129902744
0.4603143842143886 -1.6053070322169924
0.5028793321231072 -1.6448441802564209
0.5160583806061623 -1.5882643822129063
0.5599772256663096 -1.6262919500308248
0.5780140422203803 -1.588080529128185
0.5984744757406516 -1.5590793122503268
0.6443233406753689 -1.594756229854874
0.6915940974260145 -1.6292935906108195
0.7199238582441667 -1.6169754600274033
0.735355775428817 -1.576975549443771
0.7627657954129948 -1.5639016405605504
0.7899434695468115 -1.55035135208776
0.8403540973867447 -1.5804761912174792
0.8678092202409434 -1.5655692757795183
0.9099999999999998 -1.5761662348876786
0.9476700578344999 -1.5771878332918865
0.9750514461890971 -1.5604084969278238
1.00213582442765 -1.54315384501958
1.0289149423861743 -1.5254291335012766
1.084059464703477 -1.5481973637061943
1.140303389447398 -1.569492969087398
1.1675211449149736 -1.549352889491748
1.1943832621317774 -1.5287408619970404
1.2523475781891764 -1.546520463299372
1.2791473432762133 -1.5244284418067662
1.3383604191406349 -1.539607543654455
1.3984829672900136 -1.5531726852477539
1.425376572530622 -1.528529236384066
1.4865689127822541 -1.5393871727247135
1.548563850798539 -1.5485638507985389
1.575354162741646 -1.521301831305204
1.6382322916269423 -1.5276763265399966
1.7018016503432332 -1.5323090885617852
1.7660204177212864 -1.535178127837787
1.8308462190543575 -1.536262387150829
1.8573788478821605 -1.5040757346091114
1.9227462388004017 -1.502213999794606
2.0285341955201237 -1.5286101588062027
2.0953540154311137 -1.5223638034375053
2.1216037947084887 -1.4855629701492092
2.2301110701730624 -1.504228910336309
2.2979573561704623 -1.492310955941174
2.383015150199557 -1.4890731324953057
2.4514984800080413 -1.4730088942427546
2.5634351952019383 -1.48
2.632605318489581 -1.4592769569414745
2.7459670137912626 -1.4600565602641205
2.860130942644661 -1.4573095041639452
3.019947995565201 -1.4729270532113001
3.3624018899059713 -1.5679137510579948
3.48060819361831 -1.5496666101187986
3.645199219671664 -1.5472952688175237
3.8107256422694964 -1.539633098939398
3.8836945742283593 -1.4908106701084494
3.9091213024693787 -1.4228037962347821
4.075185060833055 -1.4031987457103452
4.241712062676385 -1.3782157949122653
5.8908372967322995 -1.8010097010920583
5.825245877386212 -1.6703623762510145
5.8535105073117535 -1.5684434133212752
5.831477314918739 -1.4539505925540024
5.807245586120002 -1.3407082838894346
5.731944940300101 -1.2183625081920701
5.801416654175695 -1.1276811626753802
5.82021382030215 -1.0262607300115585
5.837238092917264 -0.9245276883877644
5.802970882825603 -0.8155543716259833
5.766693141036081 -0.7080608851839065
5.778172212089667 -0.6073103715850662
5.7878911959130415 -0.5063748653638933
5.745968929496588 -0.401797288766161
5.7021746434486165 -0.2988383101472097
5.706521622279037 -0.19927612617128082
5.709130339342994 -0.09965324075688899
5.66 0.0
5.709130339342994 0.09965324075688899
5.706521622279037 0.19927612617128082
5.652243166710888 0.2962215123350625
5.696090726983596 0.39830946507895604
5.688271726103867 0.4976592910891288
5.678720022552841 0.5968575252583022
5.667438525871949 0.6958739508433919
5.6544306725143665 0.7946784064819735
5.689084841827993 0.9010625186317298
5.721733045000928 1.0088959122448653
5.7032539358309275 1.1086002631377256
5.6830375602634104 1.207966923651182
5.709808579641479 1.3182131784550495
5.685932955977339 1.4176623082140536
5.708621633368393 1.5296205565558987
4.19110099429107 1.2017788713621163
3.882597309209924 1.187029121174311
3.623525327084535 1.1773547485685496
3.318770200353602 1.14274422214462
3.1103825748013567 1.1320866744079636
2.9501141477311577 1.132442720563149
2.7908234022460294 1.1275658461818954
2.632643880873979 1.1174910274793233
2.4757081902114484 1.1022563027354189
2.365463324165656 1.1030336631432254
2.255973056210909 1.1003115784405846
2.102775397084548 1.0714175793853304
2.039608939504121 1.0844793100354082
1.889178567421095 1.047188779732088
1.8706148721743878 1.0799999999999996
1.7486212934323089 1.0506776728165108
1.687615711351288 1.0545393358240778
1.6437943131730308 1.0674925086294533
1.5668810121290289 1.0568745875597114
1.482665200163075 1.0381733497953938
1.448140419931156 1.052135601603527
1.3896257874822893 1.0471581402845644
1.33173817359536 1.0404678933003624
1.235662078716584 1.0006194217692412
1.218010664559175 1.0220322994015976
1.1999882325542075 1.0431338560949064
1.144443031235187 1.030461133792642
1.0897170154125642 1.0161775564931228
1.0358493124876573 1.000308053460956
1.0182337649086284 1.0182337649086284
0.965575134938006 0.9998823224707253
0.9479777204868728 1.0165816452506469
0.930091542838813 1.0329713074135778
0.8791190988472798 1.0113108374985145
0.861335396979963 1.0264995537794306
0.8118233044542903 1.0025182902794925
0.7634202294038164 0.9771333344723352
0.7462506287085398 0.9903080324586432
0.7288537128426666 1.0031810730249349
0.7112347810752969 1.01574853491835
0.6542556970607737 0.9699739598893987
0.6317812806174316 0.9728578588166917
0.6041079612258535 0.9667748296183255
0.5871434053974618 0.9771707228004078
0.5699999999999998 0.98726896031426
0.5526829670808243 0.997066466138911
0.5117240034366208 0.9624128762162305
0.4948496447161061 0.971197111365321
0.4778245500000942 0.9796855104660921
0.4395229922103274 0.942560098518116
0.44334294095262244 0.9957645488304349
0.4063603736288447 0.957325047590538
0.3895908571525487 0.9642712087494588
0.3727026675271122 0.9709236435570898
0.33859994189241216 0.9302956945780492
0.3385908806354428 0.9833393186232896
0.32137767414994534 0.9890987769469597
0.28944798767550917 0.9467417084034052
0.2728809822588292 0.9516490789789357
0.2432899023963697 0.907970276711724
0.239502676643671 0.9605927690132365
0.21145399108323323 0.915907860898121
0.20583257390958165 0.9683661247264677
0.1793604556539522 0.9227295524408041
0.1632292870069144 0.9257192878314756
0.14704839713781706 0.9284270401594295
0.13778136995046458 0.9803653880541546
0.11455718280083864 0.9329933825428426
0.10139260936962406 0.964686238507225
0.0845410704652284 0.9663088571489932
0.06557108531947792 0.9377102072442347
0.04919579886836712 0.9387117626692993
0.03280552690035101 0.93942737739795
0.016056213922300708 0.91985987954388
