# .PCD v0.7 - Point Cloud Data file format
VERSION 0.7
FIELDS x y
SIZE 4 4
TYPE F F
COUNT 1 1
WIDTH 179
HEIGHT 1
VIEWPOINT 0 0 0 1 0 0 0
POINTS 179
DATA ascii
7.78263040858143e-16 -12.71
0.25497965804871336 -14.607774826234875
0.5116266216586658 -14.651069524099944
0.7646283207094113 -14.589977502764324
1.5981208134779141 -22.85419239145257
2.005453640623614 -22.922440003091065
2.170010897436486 -20.646274547845355
2.523914101920605 -20.55563080049178
2.882274920882956 -20.508451703637924
1.9491734344012774 -12.306596723815417
0.6888204733093272 -3.5436741322460668
0.7297700347703356 -3.4332980785756573
0.8683110697673194 -3.761068450071008
0.9822028961346506 -3.9394006486805453
1.4649157952802674 -5.467140176796127
1.5738893017150652 -5.488804283807801
1.669442433966827 -5.460500156548933
1.7644870378809498 -5.430532708045327
2.265954355021811 -6.580809286171244
2.3291571760478047 -6.3993067475520355
1.2937082978585344 -3.370225339654898
1.296138813219056 -3.2080561368010843
1.3323931481484235 -3.138921550272822
1.3869719528884794 -3.115190010561269
1.483390098709855 -3.181140332498641
1.5825198399085696 -3.2446465071399926
1.6162061790727869 -3.17198322611059
1.600898029099888 -3.0108512916489407
1.6774412860523265 -3.0261841867023094
1.7549999999999994 -3.0397491672833796
1.8077836429342904 -3.0086572254644137
1.8865125806702094 -3.0190512223168766
1.0130286051279505 -1.5599272563784885
1.000955297212637 -1.4839772548735246
1.0381733497953933 -1.4826652001630751
1.0638913066493765 -1.464320759818655
1.0291036895900025 -1.3656667221808707
1.0527811228068757 -1.3474983886674945
1.0132058295902382 -1.2512049979457232
1.0027486711110014 -1.1950293312656057
1.0234520852251914 -1.1773469451475245
1.010387215601876 -1.1221486864708654
1.029817523694373 -1.1043440894449472
1.0142012208701359 -1.0502361084944305
1.0323759005323594 -1.0323759005323592
1.0142691184774981 -0.9794683023471861
0.9580733491211135 -0.893417851681873
1.0106769626492564 -0.9100176246480471
1.02640502910297 -0.8922402794270899
1.0035182204858613 -0.8420517686893665
1.0180612095086319 -0.824409712275287
0.9928935495444697 -0.7757334589103293
1.006280742659589 -0.7582869291715808
1.0193614129124338 -0.7406094178885162
0.9502163713752304 -0.6653486661672133
0.8787798269083443 -0.5927444776789916
0.9309243304194208 -0.60454932886668
0.8989309819258117 -0.5617144200871972
0.9085973387442391 -0.5459403594046573
0.961288198200727 -0.555
0.9708278749247293 -0.5381386784734342
0.9800718280734091 -0.5211134346923388
0.9890172418490885 -0.503929454710897
0.9976613913920755 -0.48659197293587597
1.0060016436106816 -0.46910627053217635
1.014035457983287 -0.4514776738141382
0.9757351446595869 -0.4141749961986301
0.9828148858407947 -0.39708298902086664
0.9895952520870339 -0.3798700265180184
0.9490895469937675 -0.34544034475892543
0.95497376135531 -0.32882383600172826
0.9605670814581051 -0.3121071643186969
0.9467417084034052 -0.28944798767550933
0.9228112281007861 -0.26461186158431915
0.9272887932375056 -0.24846628329841985
0.9314838972249566 -0.2322450197756809
0.8866767589545641 -0.20470545945291704
0.9390216967044533 -0.19959522318504902
0.9423620961097574 -0.18317663556148306
0.9454154428917196 -0.16670225056025315
0.8987963899415754 -0.1423553631866101
0.9011439425548291 -0.12664752187365952
0.9032169979936031 -0.11090110249868416
0.9050149247851287 -0.09512090157356459
0.9065371752634884 -0.07931172590036885
0.9377102072442348 -0.06557108531947767
0.8887802859315708 -0.04657900105622007
0.8894578360469952 -0.031060552065225906
0.8898644486891882 -0.015532641729182348
0.84 0.0
0.8698674947860604 0.015183593600436677
0.8694700195066133 0.030362562131175885
0.918739171974208 0.04814907974350839
0.9177589262390383 0.06417595584459537
0.916499122244406 0.08018328332784563
0.8652340489703978 0.09093976304285864
0.8635151519279503 0.10602632876247826
0.8813385811799976 0.12386405985445821
0.8790426231296726 0.13922667388580548
0.8764789001808652 0.15454687812356802
0.8736481932684209 0.16982000588512494
0.870551364653087 0.18504140482780587
0.8671893576588594 0.20020643836603993
0.8344543245973569 0.20805283021571433
0.8596739853972707 0.2303489501412436
0.8266850585069543 0.23704812600261924
0.8511112328071017 0.2602108172032357
0.8464402995026866 0.2750251249937032
0.8131459750154125 0.27998861283315474
0.8081356538758812 0.29413732326007513
0.8495581881124536 0.3261148340862233
0.797378114927437 0.32216167033768445
0.8376594166417207 0.35556532692523923
0.8313263664547668 0.3701303451989783
0.8247400862033515 0.38458261818403644
0.817902582132242 0.3989177435780606
0.8108159370114149 0.4131313547629876
0.8476296891445698 0.4506927002744553
0.822142524711032 0.4557210430315568
0.7880831174438393 0.45499999999999985
0.8657389737091333 0.5201884556591548
0.8989309819258117 0.5617144200871972
0.8889908020221494 0.5773173771159289
0.9202317055360965 0.620704122852529
0.8683011669463312 0.6079910225321091
0.8980088637561917 0.6524416300446453
0.9264171916548595 0.6981054268563762
0.8746919365034614 0.6833842376114808
0.9014893152900864 0.7300116536178112
0.8886115540180144 0.7456336272363856
0.9131985920695541 0.7938314250785137
0.8471851010442293 0.7628088912490985
0.8483702938782378 0.7911180976724982
0.9063681484267002 0.8752695467783367
0.8909545442950499 0.8909545442950498
0.8752695467783365 0.9063681484267007
0.8593179336787481 0.9215056640401548
0.8765610943301044 0.9735197213753863
0.8922402794270899 1.02640502910297
0.8741911491736938 1.04182044264181
0.8432893240067821 1.041375588352341
0.8065165326766125 1.0322940872248056
0.8786499338019903 1.1660078446690476
0.8581664683470107 1.1811648117874232
0.8374215970725271 1.1959619846619283
0.8443812842408277 1.251846734558113
0.8496368946234425 1.3083260859948613
0.8266740522037996 1.3229550300040245
0.7931586353614836 1.3200376430812528
0.7799999999999998 1.3509996299037244
0.8047839696089196 1.4518687138513968
0.8262699505031675 1.5539877634317114
0.7990232795416025 1.5681714825715276
0.8153703330276837 1.6717569261164509
0.786069966837701 1.6857324838881689
0.7768669882747787 1.7448718240973673
0.8049061246879039 1.8962399981120273
0.7904199121075747 1.956357933135921
0.7561563735405833 1.9698546999090956
0.7558645167497281 2.0767206919368575
0.7683408445188894 2.2314238384143876
0.7138292570061286 2.196940552641805
1.1431733654659 3.739151595815469
1.0639601934536167 3.710470146321911
0.9990415140957308 3.7284736894758033
0.9217224222347339 3.6968267171115468
0.8683110697673194 3.761068450071008
0.8753082183427664 4.118001399089322
0.8605485691482175 4.427138597348964
0.8352477345779343 4.736925291988721
0.8150235628596031 5.145856254500668
0.7738024413379627 5.505890462203131
0.7385282210351938 6.014829678946411
0.6752538727090428 6.424611444079045
0.6501818408975297 7.431612447764421
0.2901869307755619 4.149866449080869
0.19939999328561567 3.804778527414926
0.12703416799710393 3.637782610349509
0.21222126227736585 12.158147973101718
