# .PCD v0.7 - Point Cloud Data file format
VERSION 0.7
FIELDS x y
SIZE 4 4
TYPE F F
COUNT 1 1
WIDTH 179
HEIGHT 1
VIEWPOINT 0 0 0 1 0 0 0
POINTS 179
DATA ascii
1.4940690949597708e-16 -2.44
0.029843615007754953 -1.709739558717429
0.04746331551540147 -1.3591715247459704
0.05442939449266173 -1.0385747161447567
0.0690589090066842 -0.987588409757226
0.08802730017513472 -1.0061566450726631
0.10557374790032999 -1.0044671143219561
0.12308803683919897 -1.0024716131577351
0.14056483196966613 -1.000170749428986
0.15799880969063324 -0.9975652240010892
0.1753846594435997 -0.9946558305423301
0.19271708533031037 -0.9914434552821406
0.20999080772593706 -0.9879290767411436
0.2272005648873038 -0.9841137654330876
0.24434111455566435 -0.9799986835387564
0.274348187808672 -1.0238813758664125
0.29217559716601915 -1.018937397694618
0.309914007006101 -1.0136830413208175
0.32755801403744433 -1.0081199072728628
0.3451022437245862 -1.0022496901352758
0.362541351925209 -0.9960741780330629
0.37987002651801843 -0.9895952520870339
0.41581331869166255 -1.029174078569134
0.43371155262309385 -1.021760387332209
0.45147767381413845 -1.0140354579832869
0.4902371836192113 -1.0513170329625139
0.486591972935876 -0.9976613913920753
0.5266289796978744 -1.0335675680585066
0.5445870128316334 -1.0242192077163552
0.562379159485751 -1.014558860281699
0.5799999999999998 -1.0045894683899488
0.6231960706411657 -1.0371724338495558
0.641202309722178 -1.0261381963492753
0.6590132323681828 -1.014791387213963
0.7045830583731411 -1.0445873414193525
0.722706309802318 -1.0321315758041296
0.7406094178885162 -1.0193614129124338
0.7883776803291833 -1.0462125181619537
0.8065165326766125 -1.0322940872248056
0.8558757318277789 -1.0569185075814804
0.8741911491736936 -1.04182044264181
0.9250432308766152 -1.0641405081141084
0.9434741549659901 -1.0478342039231259
2.9053130138662437 -3.1155667688976654
2.959244658155328 -3.0643875494426536
3.0122748878546926 -3.012274887854692
3.100354539459586 -2.9939775766782777
2.78645760316904 -2.598413751838119
2.7942245437950026 -2.5159310799093064
2.799972542626484 -2.433978997554782
2.80372266181546 -2.3526026514527336
2.8054969208596647 -2.271846611689913
2.9235198958809385 -2.2841040734581917
3.042801293280186 -2.292915238209304
3.1632564480060448 -2.29824033646357
3.284799697598857 -2.3000415097676945
4.029122602617503 -2.7176775108678295
3.0276007502829807 -1.9661469164042473
3.019051222316877 -1.8865125806702094
2.9657988604293086 -1.782031739188787
2.9964478970941575 -1.73
1.9766405381350343 -1.0956697417567216
1.995461559861175 -1.061005731896113
2.0136747446657113 -1.0260185294113757
1.986334842321159 -0.9688002344038611
2.0029402093509963 -0.9339863584469457
2.0189354613901482 -0.8988879811975183
2.034315726129893 -0.8635157939612947
2.002717125864261 -0.8091502417783698
1.9698546999090956 -0.7561563735405836
2.010942208481844 -0.7319231067169312
2.023409751782538 -0.6967158505383154
2.0352609448716286 -0.6612963679623874
1.9986769399627442 -0.6110568628705197
2.0090369445110863 -0.5760820736575281
2.086399784784388 -0.5590491374214447
2.2898979140113513 -0.5709356736152156
2.348231856132417 -0.5421320409687144
2.5040578578785424 -0.5322539284934641
2.8565351038327025 -0.5552541765457456
3.210473274819798 -0.566093059194193
3.713708160637718 -0.588193588551268
4.317568779713247 -0.6067947201858852
5.022283527305089 -0.616658877630046
5.827898306858081 -0.6125367947484489
8.278377941142406 -0.7242642222330385
8.389513662685122 -0.5866519441880927
32.06599436096936 -1.6805075549609287
25.106175625376984 -0.4382299256401896
25.06 0.0
19.557020917259013 0.34136906991326593
13.45180053167703 0.46974722561566373
12.243198096091074 0.6416388235384922
12.230135256185445 0.8552143681029774
12.263156733509389 1.0728871932236737
12.242564531983446 1.286745382824816
12.26787043428674 1.5063050844876222
12.289226733082888 1.7271381829144117
9.738607038268057 1.5424438252966763
9.020839017591825 1.5906173074290821
8.255484612794854 1.6047036511167423
7.639332761731021 1.6237903052867009
7.366237689776378 1.70062997083962
7.335435690646533 1.8289295307334887
7.350695538059809 1.9696129332301842
5.921372046980045 1.6979261118327145
5.603945869943389 1.7132981896752373
5.335427056415812 1.733585338443455
5.115255493992304 1.7613237156132178
4.848813923255287 1.7648239395604508
4.63055891542612 1.7775050297446895
4.367035955009568 1.764397054988946
4.151476889070506 1.7621973894866252
3.98305819532174 1.7733717638104896
3.8608711727761285 1.8003537950153794
3.6940435302895764 1.801705413303109
3.528385835785937 1.7978023789686053
3.452325088078404 1.8356338104928338
3.288570098844128 1.8228841721262272
3.1696529778510456 1.8299999999999994
3.0515155904995197 1.8335355466797931
2.934246412701234 1.833520654246889
2.817933108296624 1.8299871576504914
2.744114365157188 1.8509285104881719
2.629478062167663 1.8411803606868584
2.5160428525060863 1.8280121346295914
2.4837564362470803 1.8716447220028707
2.3719123683562326 1.8531410407302313
2.3392093439854826 1.89425437706001
2.3823982181000214 1.9990694661251374
2.3848822735039596 2.0731465316100026
2.3854948897824353 2.147909246411935
2.4207807523594544 2.25741457180687
2.3810147391209346 2.2993192062192813
2.305168106668145 2.3051681066681446
2.2993192062192804 2.381014739120936
2.3938142438193695 2.567051492683288
2.4155614889554786 2.6827528199733925
2.433978997554782 2.799972542626484
2.416881412421388 2.880327106127357
2.3662446703473883 2.9220688150782106
2.5919348111210216 3.317525272684299
0.9388314361171951 1.245871395673777
0.8875557309616344 1.2216156615061706
0.8661004188900794 1.2369195868763778
0.8164216390672903 1.210394855930361
0.7679410393711883 1.1825255008030477
0.7736821257804791 1.2381502203883819
0.7262036856231765 1.2086058939899782
0.7049999999999998 1.2210958193360586
0.6835815645473353 1.2332137870665478
0.6384813253888113 1.2008087262881408
0.6174270796457838 1.2117688728961804
0.6093358940368173 1.2493237243558422
0.5874393838195722 1.2597678239809433
0.5450271017215725 1.224150913241085
0.5235797121756268 1.2334765036262703
0.5019728351773224 1.2424263651194951
0.4802130523907022 1.2509977715062504
0.4412059848901128 1.2122034808138218
0.4199829192497319 1.2197189625231188
0.4140827724624296 1.2744157318355058
0.3830069331867849 1.2527592303115767
0.36108493612026893 1.2592528216791978
0.35199390133942854 1.3136591237531328
0.3411098727955314 1.368116974049155
0.31718098662484984 1.3738617913471816
0.31394665313481646 1.4770028771080466
0.3358238318627191 1.7276638428678885
0.574775468077539 3.259713662470409
0.5177980792831643 3.269248407369906
0.4676216192258192 3.3273007109716763
0.4033875266710382 3.2853277619327756
0.34389864415058063 3.271977035761619
0.28674239363979526 3.277480556721843
0.22949879861817274 3.2819857253548217
0.17113857691442605 3.2655185786474563
0.11586632905230358 3.317977545703398
0.05706936904991664 3.2695019631613995
