# .PCD v0.7 - Point Cloud Data file format
VERSION 0.7
FIELDS x y
SIZE 4 4
TYPE F F
COUNT 1 1
WIDTH 180
HEIGHT 1
VIEWPOINT 0 0 0 1 0 0 0
POINTS 180
DATA ascii
4.8373548566320456e-17 -0.79
0.013787401085454043 -0.7898796791735492
0.027570602394975854 -0.7895187533450857
0.04134540543192573 -0.7889173324561134
0.051619790570652836 -0.7381973971922698
0.06449524963326703 -0.7371840765878916
0.07735106281806356 -0.7359462025725222
0.09018331411980914 -0.7344841522145783
0.10994674975845173 -0.7823117743058406
0.12358322738178244 -0.7802737890701589
0.13718206035687502 -0.7779981248796444
0.1602795561162977 -0.8245668340960377
0.17464582028691794 -0.8216439846163966
0.18895888564884672 -0.8184708544195975
0.20321439230372085 -0.815048410071837
0.21740799788611742 -0.8113776940828173
0.24531724667712926 -0.8555229093851038
0.24559223196709887 -0.8032959950089498
0.27502512499370324 -0.8464402995026866
0.28975565746686954 -0.8415115322833919
0.30439792755984524 -0.8363264324994584
0.31894747509531735 -0.8308865795825096
0.33339986814016187 -0.8251936305644407
0.34775070435545363 -0.819249319572672
0.3823324444912523 -0.8587327301840446
0.39726116603625744 -0.8519293198144509
0.43398743532118667 -0.8898061058361753
0.4494505947421514 -0.8820964589464843
0.46477684715803197 -0.8741181169303376
0.47996152404387377 -0.8658735100680017
0.4949999999999999 -0.8573651497465943
0.5356395979064564 -0.8914539927301968
0.5511160348025331 -0.881970020002683
0.5936565481663796 -0.9141509190605122
1.4035741877115746 -2.080884307113154
1.4396768552411254 -2.056071631165369
5.589837749301419 -7.69375161650575
6.024168381752003 -7.994341455573401
5.393194523852768 -6.902974201594883
4.883526234546738 -6.030652660906094
4.9237530901988915 -5.867900434291371
4.99260921061776 -5.743339905495295
5.025170853755025 -5.58101763933523
5.155907602072489 -5.529033984240928
5.425281873284768 -5.618043840644865
5.7346359954229005 -5.7346359954229
5.654010830661798 -5.460014791807718
5.126789448350386 -4.780808504038114
5.0608162615010555 -4.556779429303823
5.101836762305939 -4.434959035975829
5.140158213328342 -4.3131048609966784
5.136934805230578 -4.159807784839425
5.12995000597976 -4.007956204370035
5.1991171704078765 -3.917815800719834
5.145348084224666 -3.738314204580129
5.209807001677988 -3.647946135192653
7.345272892837669 -4.954449124750816
7.262887118407372 -4.716574043230134
7.471303727138114 -4.6685887178945356
7.508785554150504 -4.511733536212073
5.464620297879807 -3.155
5.387657395978678 -2.9864272607174365
5.3948097923680445 -2.868471248621793
5.354949210372091 -2.728482903434676
5.401752218257994 -2.634610592202355
5.401594410738434 -2.5188048399745684
5.490408200432031 -2.4444872248855587
5.440183683903923 -2.3092209693716073
5.4796565804897135 -2.2139249670880394
5.517460320598462 -2.117954581812725
5.506598757805423 -2.004238039888419
5.588014781791963 -1.9241077928417962
5.76340248874863 -1.8726429859121811
6.799326814897183 -2.078762820578658
6.738444488527615 -1.9322178642771637
6.626251168343009 -1.775498649403292
6.656228682253336 -1.6595842038137198
6.830334154144499 -1.5769068909504926
5.829759700373481 -1.239153677273846
5.850498013348077 -1.1372216124442074
5.86945420795276 -1.0349431388949049
5.689084841827993 -0.9010625186317298
5.258323445017738 -0.7390091660979473
5.3696746803795525 -0.6593131478218477
5.1814590748687035 -0.5445932936244742
5.389413316676343 -0.4715125682648302
5.995359942061544 -0.4192364072021923
6.051694980612717 -0.31715589483224005
6.05630841173572 -0.21149095001715615
6.059077032647731 -0.10576158300993822
6.11 0.0
4.609297874670964 0.08045559367587711
3.258014096082252 0.1137723592501533
3.1057378530867243 0.16276482391555552
3.052545993795062 0.21345480965702374
3.1977849808745034 0.2797699342199831
3.341593568437398 0.3512156365793161
3.186073146768644 0.39120059233052323
2.9807068869121265 0.41891103388979684
2.7754042370723373 0.43958084676304876
2.7673097859643048 0.48795137924407433
2.660209667143169 0.5170923774704366
2.5040578578785424 0.5322539284934641
2.348231856132417 0.5421320409687149
2.2898979140113513 0.570935673615216
2.182992367413294 0.5849310419316972
2.1724514328206004 0.6229404241464179
2.065618272880157 0.6315228822011113
1.9591764235680162 0.6365750084123917
1.9004923369546267 0.6543919904588849
1.8417975367403803 0.6703594809183108
1.7831386146096553 0.6844827836315236
1.6782027767658851 0.678037934082801
1.712139027421539 0.7267598989900494
1.5621627325688474 0.6955196596596185
1.5497863158326715 0.7226772275765959
1.5369378191715755 0.7496146610093226
1.4345205039432725 0.7309247045806704
1.4656930041458185 0.779322794224579
1.3644067431374574 0.7563030075842858
1.3509996299037244 0.7799999999999998
1.2943226240601895 0.777707493114182
1.2635916632730748 0.7895797037074753
1.224459029200319 0.7951729911219397
1.210394855930361 0.8164216390672903
1.1959619846619278 0.8374215970725275
1.140713962068676 0.8287772057323871
1.0861442936643182 0.818468431486786
1.0716946249051418 0.8372996064428954
1.0569185075814806 0.8558757318277788
0.9652159983299123 0.8099123882050396
0.9886695500918313 0.8594373279775644
0.9735197213753863 0.8765610943301044
0.9580733491211135 0.893417851681873
0.9063681484267002 0.8752695467783367
0.8909545442950499 0.8909545442950498
0.8405366282553866 0.8704011584097681
0.8252180156756231 0.8849379789591962
0.8096480336942186 0.8992052388276469
0.7938314250785138 0.9131985920695541
0.7777730077207128 0.9269137761739634
0.7614776731703032 0.9403466133629348
0.7757334589103296 0.9928935495444696
0.7883776803291831 1.0462125181619537
0.8287772057323871 1.140713962068676
0.8374215970725271 1.1959619846619283
0.8443812842408277 1.251846734558113
0.8768688463741938 1.3502596143921326
0.87966597862712 1.407759839619667
0.8549632043506901 1.4228977191655061
2.1799999999999997 3.775870760500153
2.11376994427403 3.8133419231277657
1.999948857467894 3.761356745579029
1.9113000039034922 3.7511374668330286
1.8586936623856876 3.8108867563084683
1.8003537950153796 3.8608711727761285
1.7530349316566995 3.937380922439609
1.781733945911088 4.197502131743128
1.6894757363057638 4.181599184096211
1.6162394524493036 4.21044772350238
1.5425108463987662 4.238013719744447
1.4683123766017758 4.264288775952918
1.5018225926622446 4.6221346691944465
1.567112337313868 5.125793491961871
1.7668354507869646 6.161687470964624
1.6590300791071595 6.191584546512927
1.55071935079387 6.219595605429138
1.4419362583441755 6.245712115273358
1.3327139381418367 6.269926120703695
1.2326261101324802 6.341311605071909
0.8699773701113204 4.933886842591162
0.6976977140794299 4.405089999054314
0.6137533752338877 4.367082183150325
0.5252568700761856 4.277873913574098
0.4034798682131432 3.838854516121535
0.33206337986857754 3.7955017997295504
0.2643770354902355 3.780767750484734
0.19678319547346848 3.7548470506771974
0.13122210760140404 3.7577095095918
0.06649366852604967 3.809419718545851
