# .PCD v0.7 - Point Cloud Data file format
VERSION 0.7
FIELDS x y
SIZE 4 4
TYPE F F
COUNT 1 1
WIDTH 179
HEIGHT 1
VIEWPOINT 0 0 0 1 0 0 0
POINTS 179
DATA ascii
1.0042103753008296e-16 -1.64
0.027749326235280924 -1.589757835298662
0.053745224921851666 -1.5390618736094075
0.08059737261413372 -1.5378894835220438
0.10393714587874693 -1.486370434887138
0.12550426955662772 -1.4345203652521135
0.15052098710542097 -1.4321115293303135
0.17549185450341237 -1.4292664583635035
0.19345061033449099 -1.3764726155507827
0.2018004599018979 -1.2741179593677276
0.2101142949769858 -1.1916173811447717
0.22706270449808844 -1.16813634830272
0.24741491207313374 -1.1639956448732285
0.26769175466919953 -1.1595003770944299
0.2878870557636045 -1.1546519142684357
0.29505371141687364 -1.1011554419695377
0.314226585631379 -1.0958383333696835
0.3186851581477831 -1.0423721839997087
0.3368285238686927 -1.0366516027617174
0.3548692883583009 -1.0306152474032553
0.372801956224979 -1.0242649566566402
0.39062106500437743 -1.01760266488195
0.4008290549550261 -0.9920867243864625
0.4180823074835229 -0.9849401931941113
0.43520820809110644 -0.9774936396775828
0.4522015400625484 -0.9697493321292154
0.4690571270643129 -0.9617096295401086
0.4948496447161061 -0.971197111365321
0.521113434692339 -0.9800718280734089
0.5866196404980679 -1.058289845638669
0.6299999999999999 -1.0911920087683928
0.6746998781321711 -1.1228891639197671
0.7471861625688189 -1.1957478155805605
0.822404942872691 -1.26639255759759
0.9003005745879026 -1.334750491813617
0.9808157061602887 -1.400749995734176
1.1226698318786237 -1.5452224592561496
1.2397389476932195 -1.6451891506974232
1.391394934235988 -1.7809043031511913
1.5795941815350918 -1.9506363632569967
1.7740938027348485 -2.114282663008379
2.073146531610003 -2.3848822735039596
1.8869483099319802 -2.0956684078462517
2.0528150637881204 -2.2013746418737026
2.4590906314248504 -2.5464628931988247
10.436896090313443 -10.436896090313441
10.617455452998492 -10.2531575479748
10.867916006060874 -10.134495630528727
16.28230312620971 -14.660651585322581
16.42248046564752 -14.275844470833439
16.01798930561783 -13.440688918545536
16.250122054065262 -13.1590893768521
16.477304857916558 -12.873481449059513
10.110725557198727 -7.618978193104931
6.315662261468127 -4.422274324266565
5.4799383545888265 -3.6962650919416364
3.1534013354747943 -2.047842771656501
3.1716998796250335 -1.9818980482321864
5.023000382114379 -3.018123118972917
5.031607595987588 -2.905
5.125271483836859 -2.8409843746435355
5.174072894153312 -2.75110335792532
5.310398884162673 -2.705783378447699
6.210666859927245 -3.029144624312525
6.353217587126916 -2.9625540148023024
6.952080932660194 -3.0952658538068394
7.005041934773072 -2.973463887803373
3.3471337149861027 -1.3523298022314418
3.4169043609797587 -1.3116266953357993
3.6741981472729015 -1.337298760403365
3.696977630593329 -1.2729714839274828
3.575972501269777 -1.161903898849802
3.50007540682471 -1.0700804392852163
3.5182178071342474 -1.0088327222902167
3.5835848155324435 -0.9602186573303517
3.6483119307977465 -0.9096263274547502
3.7123499468317465 -0.8570635170501252
3.7267423587957995 -0.7921435420156633
2.022151997902188 -0.3930665304756824
1.979463583554538 -0.34903283711052996
2.0346379816259836 -0.3222549979828756
1.9409254147334778 -0.2727792778817282
1.8957631496349252 -0.23277044590383159
1.899536820153402 -0.19964936484121795
1.7831885095842246 -0.15600877951830794
1.8554691334832734 -0.12974704116407285
1.75758798116805 -0.09211128298758127
1.7089583142026536 -0.059678139361276736
1.709739558717429 -0.029843615007754846
1.66 0.0
1.589757835298662 0.027749326235280824
1.6090192315007443 0.056188189691026645
1.607793550954864 0.0842608895511397
1.556199918405326 0.10882009904083563
1.5540637290231232 0.13596295868634695
1.5514541567745064 0.16306440269753963
1.4491173813963303 0.17792924137151525
1.4457913803626927 0.2031927274016955
1.3432561432093875 0.212750872454714
1.2900981564459926 0.22747911274367877
1.3153804258198698 0.25568405380457015
1.3302807369979757 0.2827598995121528
1.3738617913471816 0.3171809866248498
1.3196021877353552 0.32901377801554826
1.3136591237531328 0.3519939013394285
1.2592528216791978 0.3610849361202689
1.2527592303115767 0.38300693318678514
1.2458840363466512 0.4048122626311811
1.1913534052551393 0.41021587461601744
1.1840127021902445 0.43094538059034265
1.1763113373864742 0.4515436164270784
1.103348786934477 0.44578184616493544
1.1138108726774527 0.47278466547202136
1.105390003747547 0.49215133812171835
1.0966324223143464 0.5113680967062463
1.0426010937070336 0.50851053027533
1.078117894267925 0.5493285046848516
1.0683665873593016 0.5680605909709281
1.014558860281699 0.5623791594857509
1.0045894683899488 0.5799999999999997
0.9943140688144501 0.5974441668956629
0.941333386733633 0.5882103832988574
0.9309243304194207 0.6045493288666802
0.9202317055360965 0.620704122852529
0.8928757282750011 0.6251983156226405
0.8980088637561917 0.6524416300446453
0.886485416152495 0.6680146756987739
0.8352913988231253 0.6526011638451978
0.8237747191443893 0.6670796145128276
0.8349884429996861 0.7006384945583279
0.8226334424428215 0.7151043415996529
0.77287061849649 0.6958958306132127
0.7606078496839375 0.7092782944649985
0.748113392352197 0.7224447052773573
0.756604255869606 0.7566042558696058
0.743284456391127 0.769693586362357
0.7297382452668734 0.7825484607325124
0.7494262791219214 0.8323222045346815
0.6954225707299377 0.7999921550361384
0.6684991140740011 0.7966862208437372
0.6544932066918309 0.8082317999152497
0.6402879343386848 0.8195311837509908
0.6559783752357325 0.8705127059515494
0.6112966623841721 0.8413776741499454
0.5965194938050878 0.8519181260605516
0.5647848325054543 0.8373279482805922
0.5773173771159289 0.8889908020221494
0.5617144200871972 0.8989309819258116
0.5201884556591548 0.8657389737091333
0.5049999999999999 0.8746856578222831
0.5284424860685075 0.9533354807819414
0.4976398565530441 0.9359244484304626
0.503929454710897 0.9890172418490885
0.48659197293587575 0.9976613913920755
0.4691062705321764 1.0060016436106816
0.4718145059679284 1.0597127308654168
0.45324810904755747 1.0677856300048307
0.4345436483624581 1.0755332712974732
0.43362521894981315 1.1296323160616142
0.4138443734240593 1.137028071150949
0.3939374668931594 1.1440774764751733
0.37391056319368643 1.1507783847171358
0.3537697627145112 1.1571287547152729
0.34730306832941893 1.2111897368822817
0.30799466367199996 1.149451733283991
0.30482158845558127 1.2225726151077556
0.29468588119046335 1.2764247848686583
0.2619687304303766 1.2324659769245951
0.24995978394327384 1.2859316103164398
0.2361615216270251 1.3393385440966032
0.21275087245471408 1.3432561432093875
0.18927541730568875 1.3467645734885358
0.17183577420125795 1.399490073814264
0.142158710044009 1.3525497777008517
0.11853181013681507 1.354824789404774
0.09835662797921689 1.406565310866352
0.07641049611469787 1.4579991207416778
0.050953265185651575 1.4591106074478797
0.0263531337202979 1.5097700196861508
