# .PCD v0.7 - Point Cloud Data file format
VERSION 0.7
FIELDS x y
SIZE 4 4
TYPE F F
COUNT 1 1
WIDTH 180
HEIGHT 1
VIEWPOINT 0 0 0 1 0 0 0
POINTS 180
DATA ascii
9.613477373306724e-17 -1.57
0.02740027810653525 -1.5697608813955344
0.0547922098229267 -1.5690435984199804
0.08216745130142203 -1.567848369564681
0.10602984009107069 -1.516297356394933
0.13683451611382327 -1.5640256760040405
0.16410968733021594 -1.5613993757281892
0.19133486914608155 -1.5582974580768756
0.2185017685073028 -1.5547208679242654
0.24560211011316258 -1.5506706947343663
0.27262763893708075 -1.5461481722291666
0.3091105725100028 -1.5902360371852158
0.33681693912477034 -1.5845991131887651
0.36442070803706156 -1.5784795049520812
0.39191347087146167 -1.5718790765671145
0.4192868530660836 -1.5647998385882909
0.4465325164235387 -1.5572439474200768
0.47948959574528827 -1.568339799779378
0.5006075308874149 -1.5407115563981488
0.5436988179434518 -1.5790160212508588
0.5609130350540968 -1.5410958980888896
0.5984744757406516 -1.5590793122503268
0.6255930110045733 -1.5483970371265348
0.6603356071468726 -1.5556532023346241
0.6873849267981026 -1.5438918234159953
0.7142248623417821 -1.5316601600919384
0.7627657954129948 -1.5639016405605504
0.8126429945337889 -1.5949016782971785
0.8403540973867447 -1.5804761912174792
0.8678092202409434 -1.5655692757795183
0.8949999999999998 -1.5501854727741453
0.9476700578344999 -1.5771878332918865
0.9750514461890971 -1.5604084969278238
1.029367776178401 -1.5850873734168511
1.0568745875597116 -1.5668810121290286
1.084059464703477 -1.5481973637061943
1.140303389447398 -1.569492969087398
1.1976118960725761 -1.5892846649941128
1.255949409664343 -1.6075419373577127
1.2523475781891764 -1.546520463299372
1.3434261042448672 -1.601032886118664
1.37116337059016 -1.5773430226655933
1.3315699066541278 -1.4788582027000146
1.3230768185212471 -1.4188261811411904
1.3476372386904547 -1.395519212656983
1.4071424945612296 -1.4071424945612294
1.4674531926908485 -1.4171030757363545
1.5285292363840663 -1.4253765725306218
1.553172685247754 -1.3984829672900134
1.6528139806878708 -1.4367692734892108
1.6776373304305618 -1.407704865213521
6.574654833925974 -5.3240505082816245
6.587769900152195 -5.146929933722502
6.596729312990639 -4.970992091235918
6.561127824380823 -4.766938396091957
6.602365476969275 -4.623026076989431
6.5991390775381324 -4.451175511627144
6.5919506640510335 -4.2808628152181125
6.623255630981688 -4.13866945366133
6.651618253448391 -3.996695461302019
6.806959673745688 -3.93
7.224358780971409 -4.004527463234744
7.425589255943576 -3.948255843029342
7.5824655208430105 -3.8634591527835433
7.69367703632087 -3.752457016514503
7.848625435737389 -3.659874146674457
7.956980936067056 -3.5426761611902196
8.155673001588621 -3.4618777984149642
8.261208144190077 -3.3377447473357753
8.411559642739787 -3.2288952254031558
8.51361514432033 -3.0987024985305593
8.613674223709776 -2.965925887104697
8.711677689263606 -2.830595668474518
8.807566802419558 -2.6927434004964055
8.901283304388834 -2.5524019148654116
9.041065734065679 -2.4225462621595932
9.081967997943327 -2.264388942812889
9.168822309629064 -2.1167894213757683
9.253276302941801 -1.966844595136004
9.286193155414901 -1.8050530962621145
9.316281343495488 -1.6427117607291613
11.417677217279794 -1.808382415865069
13.279494801824459 -1.866311283874477
15.989918502941698 -1.9633151222569252
21.39216596937156 -2.2484072448872245
28.003032963358965 -2.4499479286366683
29.887018945784337 -2.0899039533739905
29.869009384509305 -1.565368451226452
29.94174917749211 -1.0455889212069305
29.955436946885484 -0.5228740968610147
29.96 0.0
25.056183240619163 0.4373573053183254
19.8978713659502 0.6948489793467952
12.442924003041991 0.6521060147870811
9.387077712944945 0.65640841793222
9.324382374138738 0.8157777521180816
9.258998845878624 0.9731599930218552
9.240604671780709 1.1346035871019227
9.169882316546941 1.2887429148902056
9.096609616881219 1.4407614230205263
8.971598629941214 1.5819348985457355
8.893542282035837 1.7287294981114965
8.813109882611588 1.873284334268012
8.730355780475708 2.0155614469210312
8.596820134805329 2.143427995013057
8.509806529606692 2.2801957873532093
8.372589371622759 2.4008013691660626
8.281599186639887 2.5319389628989
8.093490953671756 2.6297346221308024
7.951811220790255 2.738028178984688
7.855830309770193 2.8592883982025907
7.664695301542027 2.942200865766916
7.519461060536645 3.038059472603047
7.143117662790936 3.032073557076765
1.9275809156258876 0.8582143168899387
1.7310478732400012 0.8072008799247358
1.6268172238014922 0.7934517756882304
1.5236211563621092 0.776323754554625
1.4921814319315865 0.7934069411081557
1.4518687138513968 0.8047839696089195
1.4202816622064793 0.8199999999999997
1.3628960081163586 0.8189105391069863
1.3907988776965388 0.869067593342456
1.4173532598277665 0.920439969175396
1.4425253762457726 0.9729956520390994
1.384366954848396 0.9693441774332682
1.3267878707749137 0.9639678137596559
1.30976223647756 0.9869766379693594
1.2923376359150238 1.0096848195340795
1.235662078716584 1.0006194217692412
1.1797084424032263 0.9898929189172706
1.1245172745319303 0.9775279531958556
1.0701285486874474 0.963548073156756
1.0531493303316055 0.9820776384899977
1.0358493124876573 1.000308053460956
0.9828784258493011 0.9828784258493009
0.965575134938006 0.9998823224707253
0.9479777204868728 1.0165816452506469
0.8966350125208702 0.9958140661397082
0.8463161473977544 0.973575358487376
0.8291960164956359 0.9881973316234817
0.8118233044542903 1.0025182902794925
0.7634202294038164 0.9771333344723352
0.7462506287085398 0.9903080324586432
0.7288537128426666 1.0031810730249349
0.7112347810752969 1.01574853491835
0.6654395551301887 0.9865547113404997
0.6481204516678823 0.9980179758550545
0.6306039244375138 1.009177234426147
0.6128953091429645 1.0200290878355136
0.5699999999999998 0.98726896031426
0.5526829670808243 0.997066466138911
0.5351975815759152 1.0065602558591766
0.4948496447161061 0.971197111365321
0.4778245500000942 0.9796855104660921
0.46065390529736244 0.9878754878699485
0.44334294095262244 0.9957645488304349
0.42589693005330836 1.0033502902631601
0.4083211868233443 1.0106304014777983
0.3727026675271122 0.9709236435570898
0.3557009490586956 0.9772803256173447
0.3385908806354428 0.9833393186232896
0.32137767414994534 0.9890987769469597
0.304066572911646 0.994556946201557
0.29493197072418914 1.0285500146540012
0.27693637825969747 1.033540634129303
0.2515987714236544 1.0091075553270363
0.24069762814793572 1.0425759693202017
0.20583257390958165 0.9683661247264677
0.19844135519160672 1.0208922707855705
0.17191169589026092 0.9749596754820861
0.16269184364184017 1.0271958742189433
0.14195656297926654 1.0100734301164018
0.12065064997109601 0.9826206901249087
0.10661903253300675 1.0144123332756387
0.0888988576026113 1.0161185920535805
0.07115160321900797 1.0175153312650207
0.05338267536780262 1.0186021254496653
0.0355974866365511 1.0193786435594776
0.017801454566029044 1.0198446490595192
