# .PCD v0.7 - Point Cloud Data file format
VERSION 0.7
FIELDS x y
SIZE 4 4
TYPE F F
COUNT 1 1
WIDTH 179
HEIGHT 1
VIEWPOINT 0 0 0 1 0 0 0
POINTS 179
DATA ascii
9.001153973733046e-17 -1.47
0.02565503746280689 -1.469776111879895
0.05130226015267659 -1.4691045157180707
0.07693385567712763 -1.4679854160892236
0.10254201640386441 -1.4664191538819416
0.12811894183905745 -1.464406206194866
0.1536568410034506 -1.4619471861913618
0.1852414019758242 -1.5086701504948095
0.21154311345929952 -1.505207464487187
0.2252656296579325 -1.4222712104569983
0.24658041228704117 -1.3984270092773352
0.27094877343469376 -1.3939106004956827
0.3056301855021064 -1.4378769730786942
0.3194304971682885 -1.383605491995034
0.34352909175152807 -1.3778199313119148
0.3804639963007055 -1.4199109646449304
0.40518691305098875 -1.4130546930293288
0.42978640594242307 -1.405767991265662
0.45425498173117274 -1.3980530789538756
0.4948635947748783 -1.4371882349109615
0.5096100135552466 -1.4001420049710034
0.5447192833088566 -1.4190422482757468
0.5694020219921865 -1.4093194589415168
0.6134478717281597 -1.4451926199203315
0.6385765296290066 -1.4342663684988832
0.6508321230806772 -1.395713992036441
0.6882427004588516 -1.411106652689692
0.7354646095780659 -1.443430569185156
0.7605439317131433 -1.4303751004314615
0.7853915847990661 -1.4168839255658212
0.8199999999999997 -1.4202816622064793
0.8446624428524889 -1.405754373151464
0.8955635565541162 -1.4332012825043599
0.9204399691753957 -1.4173532598277665
0.9729956520390997 -1.4425253762457724
0.9980229992508202 -1.4253245570628457
1.0227463389889033 -1.4076895702124086
1.0772488914421665 -1.4295575629846542
1.1328171145992114 -1.4499397866363684
1.126483499979209 -1.391091271007978
1.2148685823075593 -1.4478239974948683
1.2399515647920587 -1.4264011066210391
1.298113376336185 -1.441700961426145
1.3230768185212471 -1.4188261811411904
1.4171030757363545 -1.4674531926908483
1.4424978336205572 -1.442497833620557
1.5034201827077809 -1.4518359942593042
1.5650969214650252 -1.4594764905337467
1.6274871677954936 -1.4653960279258993
1.6905494596990094 -1.4695722249387364
1.7542417747424597 -1.4719836261821748
1.7796642517364634 -1.4411436955041277
1.8833457011200656 -1.4714309260283231
1.9886024200177592 -1.4985194076486004
2.0549031657123664 -1.4929745408228818
2.097029233379819 -1.4683556770586779
2.2052399429964114 -1.4874531232321866
2.3147307675293702 -1.5032037366414743
2.4254175550073787 -1.5155690957069659
2.494356845043147 -1.4987607979882573
2.60673646539116 -1.505
2.7200672892035205 -1.5077579189661081
2.878409152720102 -1.530477294682004
3.0383322474823347 -1.5481076041118547
3.1997068048250346 -1.5606012825691156
3.317086500554139 -1.5467828379709598
3.5262854665004397 -1.5700034422725886
3.6912244623442856 -1.5668318252419873
3.903444027726175 -1.5770937582809892
4.21044772350238 -1.6162394524493044
4.425952243901628 -1.6109148750639
4.737048063752577 -1.631096453830355
5.050110101527265 -1.6408802401309706
5.460500156548933 -1.6694424339668266
5.825245877386212 -1.6703623762510145
6.336473420456287 -1.6978529358725356
6.704743468567136 -1.6716802985937034
6.732897147665976 -1.5544117855161061
14.14401430661083 -3.0064030492248013
14.292491790997987 -2.7781789726824933
14.486522046809581 -2.5543646934805455
14.62766432421399 -2.3167944272458194
14.715383501499735 -2.068112280266572
26.762584204360234 -2.8128609465325525
33.48210380286357 -2.9293045137487876
35.32374301970037 -2.470076735279472
35.31154034892173 -1.8505994127504963
35.38842918474618 -1.2357911782355608
35.40460688548781 -0.6179897119442099
25.36 0.0
14.857736750023975 0.25934275965803333
14.800978148152808 0.5168615461640401
14.689840456239782 0.7698619163337048
14.57441077429603 1.019142081401672
7.331992977955248 0.6414662666227651
6.872146296994768 0.7222916811794865
6.908121215423602 0.8482106300998261
6.248591513759308 0.8781822670580127
5.73846925885775 0.9088842418837413
5.327809943796045 0.9394366411780932
4.917952189072796 0.9559530668364897
4.607075199456224 0.9792640637516468
4.296971985702887 0.9920341496564451
3.987915434994346 0.9942989909146349
3.776769980790257 1.0119824663508568
3.5182178071342474 1.0088327222902167
3.3566296934302544 1.0262246835768059
3.1955498947517156 1.0382971010998232
3.0351146276738072 1.045073775807473
2.8754594196048795 1.0465816385765465
2.763398062431717 1.060769130654089
2.6053866313326726 1.052644527498713
2.540593395528735 1.0784179146303958
2.384353644447188 1.0615826384278388
2.274832545461991 1.0607718369691554
2.211033353895951 1.0783930211011308
2.102775397084548 1.0714175793853304
2.0219499876469427 1.0750898787796903
2.0028791293492163 1.110214030364112
1.9398969044771428 1.1199999999999997
1.8343380235025202 1.1021814803075163
1.7724205209669304 1.107531262247398
1.710887958608665 1.1110636314306555
1.6497847693845331 1.112793877906786
1.5891549659206439 1.1127382865210298
1.5290421193686505 1.1109141268327742
1.5094211139893832 1.1374303937573715
1.4499397866363684 1.1328171145992114
1.3522339729351296 1.0950174804267168
1.3329173310270217 1.1184504408545786
1.3131946695876233 1.1415427104434825
1.255914755056796 1.1308307247464706
1.1994200706554397 1.1184773105024974
1.1797172725553875 1.1392397275527557
1.1242997820866107 1.1242997820866105
1.1045068090298056 1.1437502825384556
1.0502774744962478 1.1262847004935226
0.9970046034746989 1.1072857899613173
0.9775279531958558 1.1245172745319303
0.9256141579486168 1.1031039980913282
0.9062213631117658 1.119090184498038
0.8865525244689481 1.1347354851936795
0.8666136333389494 1.1500351344681017
0.8464107633011613 1.1649844718999243
0.7972712465279538 1.1386213415616986
0.777278135824338 1.1523622258515078
0.7570482586708878 1.165752089444139
0.7100918140724947 1.1363844488496109
0.6901510203794727 1.1486041829408304
0.6699999999999999 1.160474041071148
0.6496448911300917 1.1719904075667904
0.6056183159937989 1.139002394788016
0.5765679346692245 1.1315782857192271
0.5435802220184558 1.1145046174109672
0.5367251924106883 1.1510108895365454
0.5165555367062665 1.160202731206103
0.4845065993266994 1.141426018281026
0.4645121758357311 1.1497079796628162
0.4443762574361722 1.15763972885653
0.4241049777238293 1.1652188497745264
0.4037045115268741 1.1724430337431528
0.36773022330618743 1.1317572543912326
0.3566934797617386 1.1666918022749033
0.336277574096739 1.1727392690447491
0.3157592350250756 1.1784295080726632
0.2830486178516112 1.1352459997429158
0.27444028629951545 1.188731479037987
0.2536522627976663 1.193340072895243
0.23278697435938478 1.19758516380615
0.21185077675365485 1.2014654586748938
0.19085004734908173 1.204979775526068
0.16979118317127959 1.2081270438647158
0.14868059895427993 1.2109063050024127
0.12752472518653749 1.2133167123492934
0.10633000615214293 1.2153575316719296
0.08161507428062678 1.1671499388039943
0.06123306880424418 1.1683965556628513
0.04083241114192626 1.169287267612342
0.02041931553162155 1.1698218033329777
