# .PCD v0.7 - Point Cloud Data file format
VERSION 0.7
FIELDS x y
SIZE 4 4
TYPE F F
COUNT 1 1
WIDTH 180
HEIGHT 1
VIEWPOINT 0 0 0 1 0 0 0
POINTS 180
DATA ascii
6.245698675651501e-17 -1.02
0.01832502675914778 -1.049840079914211
0.03489949670250108 -0.9993908270190958
0.05076587755565565 -0.9686706487119366
0.07324429743133173 -1.0474422527728156
0.09587131702242396 -1.0958141679009201
0.13066057908456682 -1.2431523692103417
0.15233667925643435 -1.2406826895516525
0.16700772115207854 -1.1883216824898843
0.1877213580482771 -1.1852260087141653
0.19969540431696997 -1.132528915964039
0.2289707944518539 -1.1779526201371968
0.23909844444042336 -1.1248697408438764
0.25869371249544487 -1.1205255745030205
0.27821017993961783 -1.1158400852173957
0.29764190186789885 -1.1108147002324285
0.316982959189549 -1.1054509503290666
0.33622746043114726 -1.0997504693574907
0.37082039324993693 -1.141267819554184
0.3906817853485881 -1.13462229071918
0.6498382723187708 -1.7854159794932256
0.6988175016133358 -1.8204818316695432
0.7492131868318244 -1.8543677091335746
0.7619257005540837 -1.7949844642322588
0.8338101183053906 -1.8727681881673315
0.8452365234813989 -1.8126155740732999
0.6356381628441623 -1.303251367133792
0.6673660346171338 -1.3097795905569007
0.9624167037110761 -1.8100425653607999
1.018100202517308 -1.8367013849927312
1.0499999999999998 -1.8186533479473213
1.081579957311114 -1.8000513314744357
1.1393264181013905 -1.8233034067363156
1.1982058770330597 -1.8450752494799327
1.2581840328091805 -1.8653345382488435
1.3192258036074058 -1.884049701864681
1.351906080272688 -1.860739087062379
1.384174553249711 -1.8368616731087735
1.4775875407815802 -1.8912258086561324
1.5103689385196097 -1.8651503074967302
1.5748296437320215 -1.8768088856414962
1.6401475724762682 -1.88677395055693
1.7062830462150884 -1.8950193049673552
1.7731957361624964 -1.9015196242098429
1.806111763193393 -1.870283480880493
1.9091883092036785 -1.9091883092036783
1.9781844509312907 -1.9103105187622424
2.0258497534851023 -1.8891354573731207
2.0956684078462517 -1.8869483099319797
2.203751974250494 -1.9156923646522812
2.275151996063365 -1.9090792007690216
2.346980803600052 -1.900547580970509
2.4979940889333085 -1.9516468767823363
2.571606342352283 -1.9378443745495955
2.6454855716060783 -1.9220577749963872
2.801499991468352 -1.9616314123205774
2.876760376765995 -1.9403993750434916
2.994053927565164 -1.9443613550036463
3.1971413225097263 -1.9977956261591825
3.317237453717175 -1.993197349901909
3.4381208530242215 -1.985
3.6034331934143107 -1.9974156354149086
3.770186221507618 -2.0046435730957537
4.027349489331423 -2.0520370588227514
4.19736819621711 -2.0471932555049914
4.413718922868485 -2.0581509346772062
4.631675470247988 -2.062154780394307
4.897085820366983 -2.078689603562936
5.210773262665345 -2.105289054997425
5.480117103538574 -2.103619863830913
5.985841994406236 -2.17866831298451
6.306608899247443 -2.1715395902292354
6.8190752218362505 -2.215651849668373
7.334857478236483 -2.2424909752233906
7.949634225409897 -2.2795209326065824
8.664354661812943 -2.321606834569611
9.479789245716486 -2.3635769200087524
10.542684100976246 -2.4339704080006177
11.757334160820342 -2.499098523629468
13.3206808793848 -2.589278067259714
15.579658652653132 -2.747114170690838
16.711686722869732 -2.6468711484807064
17.002902740292765 -2.3896021434843235
22.749157795619105 -2.7932453508459796
19.413067397588694 -2.040395602984594
19.495530241655462 -1.7056378855716685
21.467578361591418 -1.5011593149735738
23.088314843525747 -1.2100073083368632
22.906037755277676 -0.7998964644213233
22.91650917298449 -0.4000091555425387
14.72 0.0
14.817742842217719 0.258644663400542
17.259479582619782 0.6027143080521926
15.748387763079629 0.8253380299512253
12.788771124330946 0.8942779933996876
11.376543452207734 0.9953185821782576
10.213739865432165 1.0735073177588026
9.300157440879188 1.1419157477062314
8.536110752552336 1.1996721302757638
7.822491657513491 1.2389609631186285
7.2580331396999735 1.2797870694052769
6.743778750285451 1.3108577982368632
6.279707596711032 1.3347930550500153
5.914426293246378 1.365452899867261
5.598606340612499 1.3958893376100834
5.23531797848675 1.4027992244556633
5.017786052798025 1.4388269973647352
4.705019399338135 1.4384687872358646
4.488986756913125 1.4585602134497517
4.273743961708912 1.4715680581463482
4.106456752834419 1.4946280263331726
3.846351357168471 1.4764759521266373
3.7272790953584845 1.5059185055319666
3.6083790255335657 1.5316660236779536
3.3983891024304755 1.5130603122419772
3.2808341890726727 1.529878107501332
3.1637550429730674 1.543066436697553
3.0472423127242183 1.55264750910925
2.887238628648691 1.5351720103098634
2.8162754569888544 1.5610869771932054
2.7019992598074487 1.5599999999999996
2.6315036131554845 1.5811668899738665
2.5187028455845857 1.5738602147726186
2.406984530003367 1.5631140304931281
2.3378859546052175 1.5769239877875059
2.252668121794727 1.5773351999653773
2.2247967345311057 1.616409443804301
2.1563158771276907 1.624900562510531
2.048827959377477 1.6007198358467116
2.020579499788125 1.6362330167295769
1.9534133299533938 1.6391084047006752
1.88677395055693 1.640147572476268
1.8207048224196158 1.639369985579203
1.7552488838860094 1.6367960641499963
1.69044853079583 1.6324471705786439
1.6263455967290592 1.626345596729059
1.5629813335327436 1.6185145507619654
1.5344963101406215 1.6455458286431335
1.4720873339894884 1.6349186160502671
1.443329863779116 1.6603610764900987
1.3819933608260597 1.6469955527058027
1.3530388407571503 1.6708638171324874
1.2928890981838828 1.654822582574116
1.2337207974616986 1.6372027955969504
1.2049597671995698 1.6584848384686421
1.1471528727020919 1.6383040885779838
1.1183858069414936 1.6580751451100835
1.0892780700300544 1.6773411358908479
1.0598385284664098 1.696096192312852
1.0300761498201085 1.7143346014042244
0.9749999999999998 1.6887495373796555
0.9211382784680405 1.6617774435648518
0.8919959692931921 1.6776004264319613
0.862581949505139 1.6929123959578989
0.810986621559793 1.662768985653459
0.781843784220294 1.6766694060178025
0.7524627896902307 1.6900590966388114
0.7228525877051564 1.7029339788870148
0.674291868148642 1.668930938220217
0.6450623091815403 1.6804447676949632
0.6156362579862039 1.691446717414635
0.5795113149337386 1.683023064566784
0.5562305898749055 1.7119017293312764
0.520421634406471 1.7022224656142033
0.5044163611451085 1.7591089035671237
0.35458209179045375 1.3233183820160235
0.3314329969715447 1.3293051449981153
0.3081829444510953 1.3348869887557724
0.2744434318794422 1.2911548329686235
0.2518678738970393 1.2957478821509165
0.2205331856370014 1.2507058463255043
0.19867177060109328 1.2543641925558249
0.17674983821928286 1.2576404473017944
0.14868059895427993 1.2109063050024127
0.12752472518653749 1.2133167123492934
0.11068779328952584 1.2651672665765168
0.08859072165503933 1.2669063438299768
0.06908346224068575 1.3181909858760374
0.04606733564730143 1.3191958916652065
0.023037176497214058 1.3197989576064366
