# .PCD v0.7 - Point Cloud Data file format
VERSION 0.7
FIELDS x y
SIZE 4 4
TYPE F F
COUNT 1 1
WIDTH 180
HEIGHT 1
VIEWPOINT 0 0 0 1 0 0 0
POINTS 180
DATA ascii
1.0287033112837766e-16 -1.68
0.028447422492772264 -1.6297517431049178
0.05863115446020181 -1.6789765893920807
0.08792440648814585 -1.677697618387684
0.11719087589013076 -1.6759076044365047
0.14206386067868276 -1.623797357889545
0.1756078182896578 -1.670796784218699
0.1986470297503904 -1.6178502271753548
0.23381080961290998 -1.6636503554858382
0.2549881780155764 -1.6099319951700746
0.28304652959709653 -1.605236637409899
0.3110186624637682 -1.600052309019692
0.3492916405738359 -1.6432879692327933
0.36667021858050014 -1.5882232055999332
0.3943326898274583 -1.581582033829874
0.4218750435171088 -1.5744590968511814
0.4603143842143886 -1.6053070322169924
0.5028793321231072 -1.6448441802564209
0.5624109297624044 -1.7309228596571795
0.9669374187377556 -2.8081901695299707
1.0157998256772365 -2.7908870837341477
1.046434412672277 -2.726054845371829
1.1125815824452592 -2.7537360480633586
1.1995445644620701 -2.825949900098992
1.106323669166177 -2.4848436447878743
1.1917834981087723 -2.555787959443353
1.30196230596356 -2.669418317508526
1.938539433887865 -3.8045978582843305
2.0046435730957537 -3.7701862215076174
2.0943775594641765 -3.77835713484219
2.0849999999999995 -3.611325933781109
2.1477087723749264 -3.5743876439278077
2.2362592950641247 -3.5787629657801174
2.3256086795141653 -3.58112332512696
2.4716326333407013 -3.6643460706932838
2.592565492306728 -3.7025672401862426
1.2461047348600431 -1.7151160280748887
1.2457570979247399 -1.653175505797896
1.305202327690396 -1.6705827976462506
1.3026932094731634 -1.6086921402159295
1.3627097325354636 -1.6240142194122336
1.3908451414598755 -1.5999843100722768
1.4185568854807795 -1.5754670300120759
1.479936441335622 -1.5870375325135997
1.493515496486844 -1.5465805707280997
1.5697770542341358 -1.5697770542341356
1.5969343567518057 -1.5421415824189741
1.6601729026755172 -1.5481362773418716
1.7240959951075547 -1.5523830067525508
1.7886617051279698 -1.5548598987075024
1.815525330191978 -1.523406634957098
1.841835928653021 -1.4914893267881146
1.9069860237282672 -1.4899007702880926
1.9726297098168135 -1.4864831071855593
1.4724109297624044 -1.069769159172301
1.3679839139626162 -0.9578726487062469
1.409363873343571 -0.9506279359002695
1.425739965507221 -0.9258863595255459
1.4586427253890528 -0.9114611344811124
2.3314950579097458 -1.400903563755347
2.398890368482895 -1.385
1.5918078669937004 -0.8823535088483335
1.5186698597173545 -0.8074910879917322
1.5147110911202253 -0.7717838495572296
1.527949878708584 -0.7452309495414315
1.5588493937030379 -0.726903410194003
3.060377283102713 -1.3625677543039305
3.0836912590656755 -1.3089492804390668
3.1246095898900736 -1.2624242198116231
3.28620310127015 -1.261455182399457
3.401687287244988 -1.238112918838921
3.5646050300094245 -1.2273919423034807
1.8260285112866947 -0.593312629199899
1.7882898936508766 -0.5467350878315177
1.7975593714046565 -0.5154418553777884
1.8062812951605578 -0.4839916143417137
1.8629677944499132 -0.4644900395513618
1.9195090276269133 -0.44315357705741376
4.470134535353492 -0.9501564270371605
4.584198946700591 -0.8910780084084645
4.845254144820063 -0.8543490341212974
2.044514865031935 -0.3238193426332779
2.0300495409202193 -0.28530485696813407
2.0545705338975364 -0.25226954084865516
2.03876988550496 -0.21428334969868942
2.0421991310880783 -0.17866927263269902
1.9951281005196486 -0.13951294748825036
1.9673001834665105 -0.1031018337985995
1.9488121126872366 -0.06805401856987699
1.9996953903127825 -0.03490481287456707
1.95 0.0
1.949703005554963 0.03403219255270289
1.9488121126872366 0.06805401856987699
1.9473275927714189 0.10205511467374061
1.895371695493666 0.13253730011383824
1.8927699263743165 0.16559591122055076
1.8895916011997191 0.19860408020854184
1.9156140726677515 0.23520783277193455
1.9112173726712307 0.26860408485292625
1.906238497348616 0.3019185175276456
1.851438575662951 0.32645857401382905
1.8945404640539913 0.3682613610767316
1.8878248694162447 0.4012695632782756
1.880534225035504 0.4341555348836596
1.872670751712673 0.4669092585073589
1.8352590699492295 0.4917561856947897
1.8263972222828058 0.5237109760522983
1.8169790363297675 0.5555062389731997
1.8070073809607916 0.5871322893124
1.8153956651506882 0.6250908565577409
1.7572252008696487 0.6395776680190006
1.7924744188746273 0.6880664631269766
1.7801930007682316 0.7192446593585513
1.7673693186286852 0.7502037666994058
1.7814136424030715 0.7931364539978106
1.830741729814033 0.8536888887162127
1.8155639735243172 0.8855097165139367
1.799833178860503 0.9170608094738846
1.7835541375750323 0.9483325568274997
1.8104627937785491 1.0035559139099177
1.792672585833788 1.0349999999999995
1.7743363124533722 1.0661288150638122
1.7554595590438018 1.096932876962734
1.7779816040442988 1.1546347542318578
1.7575596538166887 1.1854889553579833
1.7366023338926624 1.2159820450642183
1.755566877793636 1.2754939974746666
1.77297083230499 1.3360293513975479
1.7493838730069229 1.3667684752229616
1.7252640344344758 1.3970912681306389
1.7006186637241314 1.4269884935041175
1.750926226116831 1.5220569472579766
1.7240959951075543 1.5523830067525513
1.6967405877564756 1.5822361953449964
1.7048353268026029 1.6463403379878239
1.6758430714121177 1.6758430714121175
1.6463403379878232 1.7048353268026037
1.6163361133481216 1.733308272837434
1.5858395370704943 1.7612532363814242
1.5876628501570276 1.8263971841391082
1.5876853959257526 1.8921297745038759
1.617353404998082 1.997265120944415
1.582249991586942 2.0251876367692754
1.5767553606583662 2.0924250363239074
1.5693866236209033 2.1600753749811097
1.5027702632397404 2.146178356037159
1.5210046974404314 2.2549821973497135
1.5086501269916253 2.3231174732088244
1.520868288349298 2.4338980359689426
1.4781592749918557 2.4600701530150624
1.4849999999999999 2.572095449239783
1.464125053143938 2.641351515560975
1.4412776977526842 2.710649110076906
1.4164503591873863 2.779940355467708
1.4115550926608287 2.894116829083318
1.3819617158920872 2.9636264636098453
1.3707024871654474 3.0786481922555646
1.336300459433316 3.148126598807346
1.3186152088240108 3.263687168075091
1.2972919773539866 3.3795611439198705
1.2894159403377714 3.5426411803628746
1.243670350026338 3.6118809587893903
1.211346617949794 3.7281415438770016
1.7600776624308738 5.756954630897473
1.6455550142274848 5.738732324751764
1.532208747006924 5.7182808916312835
1.2144479159103316 4.8708845459055015
1.1292542928062028 4.891337725221881
1.0333211033642633 4.861393575647014
0.938780257252601 4.8296057425625065
0.8543490341212967 4.845254144820064
0.7540141214939131 4.760657801668565
0.6638556915795112 4.72357868789729
0.6178775710640978 5.032208988821503
0.5613178477473003 5.340582578127628
0.4985308485166045 5.6982336730847845
0.4269096193140478 6.105091987590124
0.3438472325161404 6.560996043337551
0.24673944168668266 7.065693147025008
0.13298733705209934 7.618839437091702
