# .PCD v0.7 - Point Cloud Data file format
VERSION 0.7
FIELDS x y
SIZE 4 4
TYPE F F
COUNT 1 1
WIDTH 178
HEIGHT 1
VIEWPOINT 0 0 0 1 0 0 0
POINTS 178
DATA ascii
8.694992273946207e-17 -1.42
0.02478241714094271 -1.4197837271220755
0.04955728531755153 -1.419134974367116
0.07431705786498043 -1.4180539393514948
0.10254201640386441 -1.4664191538819416
0.12376115470167455 -1.4145964712902785
0.1484304178400679 -1.412221091422948
0.17914793480556682 -1.4590428429127433
0.20458445841129624 -1.4556940610501083
0.22995866360913944 -1.4519018606748526
0.2552628211703877 -1.4476673969279457
0.28048922320352104 -1.442991959668066
0.3056301855021064 -1.4378769730786942
0.341925602602675 -1.4810424984735575
0.3556251865315115 -1.4263347176257148
0.3934049485558315 -1.468207255959384
0.41896878084183875 -1.4611177778262447
0.4444049911785599 -1.453583229063814
0.4851566811686675 -1.493158730583391
0.5111420024977361 -1.4844641636909273
0.52671102072153 -1.4471266360102988
0.5698050397770277 -1.4843928781305509
0.5881323516629822 -1.455678651669856
0.6134478717281597 -1.4451926199203315
0.6589133617827967 -1.4799436413810134
0.6719630361677121 -1.4410293813882735
0.718928680734087 -1.4740222359306336
0.7581641345650432 -1.4879808953945743
0.769933362968861 -1.44803405228864
0.7950877772039928 -1.434376319708609
0.8349999999999997 -1.4462624243200126
0.8961662503434944 -1.4914711032216752
0.9220595197657765 -1.4756036873121812
0.9476719209261472 -1.4592867882250375
1.000955297212637 -1.4839772548735246
1.0267018210683725 -1.4662821592772954
1.0815248642181505 -1.4885912696499033
1.1073396425997688 -1.469489338487019
1.1636001883654943 -1.4893403243167043
1.1894155390841925 -1.468805867153675
1.2470079627918864 -1.4861262196508174
1.3055574676911095 -1.5018720646433164
1.3650264369720708 -1.5160154439738842
1.391276654527497 -1.4919615513031075
1.4518359942593042 -1.5034201827077807
1.513208511739212 -1.5132085117392116
1.575354162741646 -1.521301831305204
1.6382322916269423 -1.5276763265399966
1.7018016503432332 -1.5323090885617852
1.7660204177212864 -1.535178127837787
1.7925439968984085 -1.5041230066665017
1.896236145955009 -1.5355417541616032
1.9621467764807379 -1.532997073560889
2.0684659710224884 -1.558700909963805
2.1115343553186126 -1.5341195084833548
2.178944437808718 -1.5257133206937825
2.288143700251915 -1.543372413579261
2.3985978243239128 -1.557667640142977
2.5102223646230213 -1.5685610221302866
2.6657903051835694 -1.601768412970268
2.736640275958826 -1.58
2.85126024527443 -1.5804793620030586
3.010851291648941 -1.6008980290998878
3.17198322611059 -1.6162061790727866
3.3345259117699095 -1.6263569545874772
3.4983480579614685 -1.6313064903190995
3.7089945580289596 -1.6513507708877484
5.191647373471763 -2.2037235646795033
5.2015014241196775 -2.1015429890632658
5.330744235299022 -2.046280991903665
5.7415219130019 -2.089743075719836
6.108049998371587 -2.1031702777932324
6.524247701784754 -2.1198565814121393
8.185968711043584 -2.5027017924266266
8.13227394763818 -2.331892030211813
8.220028781719972 -2.202550073822451
8.45127577586393 -2.1071397106731053
8.4867632642794 -1.9593236833350631
8.86201726264828 -1.8836799188089002
8.451810049484386 -1.6428654501920512
8.52843514108572 -1.5037932185956169
8.75091869767292 -1.3860093602564454
9.56598954404357 -1.3444121552742319
17.726874268314013 -2.176586473215933
17.76216105127736 -1.8668783539602893
20.332333788052527 -1.7788487094797012
43.05486440921401 -3.0106894067964425
42.95105628979422 -2.2509694780090173
35.0386423952895 -1.2235763543896858
7.058924727804122 0.12321398944722176
7.20560786280768 0.2516253712250323
7.1501874688427485 0.3747254466994784
8.589026472737086 0.6006032389369197
8.377997410951581 0.7329797965078062
8.363929140047178 0.8790843760809669
8.44656775046765 1.0371081123778045
8.080587440931215 1.1356525038341339
8.108921276286083 1.2843269579802956
8.232992815182058 1.4516987652955378
8.20640325362247 1.595163201347915
7.639332761731021 1.6237903052867009
7.2200821800585935 1.6668873126880404
6.753258254880936 1.6837763933736882
6.4330660030851945 1.7237348403827892
6.065561301370792 1.7392717152052644
5.747391583337843 1.7571539453836476
5.478085533860084 1.779937887599697
5.209807351552236 1.7938805310589334
4.9427831853338775 1.7990259538930176
4.723916958075841 1.8133418246992195
4.506113533194586 1.8205880440013331
4.335577859760994 1.8403436151844799
4.16576728685026 1.8547190924256494
3.951501951479794 1.8426156211894495
3.828862637234451 1.8674610853214704
3.7065871406236104 1.8886004789165147
3.5406198473642965 1.8825809667714226
3.3760320695580677 1.871365134150861
3.2995567884187116 1.9049999999999994
3.1800906856048363 1.9107912579163013
3.061453627124698 1.9130085438818696
2.9437336934884377 1.9116830129027453
2.8270181224126922 1.9068478008352467
2.752350868811012 1.9272168261395155
2.6373954016623284 1.9161799224734624
2.5636199872518097 1.9318262243180757
2.4901139813972413 1.9454902620290804
2.3780666420583314 1.925720396612502
2.305793773788124 1.9347907051564834
2.2565816448660887 1.9616164966816165
2.147688545629669 1.9337874523771008
2.113612197679403 1.9709752605806208
2.0429250329617687 1.9728297721035524
1.9728279195104677 1.9728279195104674
1.9033639350576523 1.9709910529279047
1.834575588568121 1.9673414573555685
1.7999613311053289 1.9990595805341902
1.7319958365349393 1.9924332917881182
1.664819909088137 1.984055107678153
1.6299398128190787 2.0128080401735544
1.5637801473271724 2.0015473141610736
1.4985194076486001 1.9886024200177597
1.4635852782082583 2.014452315993619
1.3995265046965522 1.9987309880651403
1.336471039295085 1.98139979840655
1.2744553419351636 1.9624891289922919
1.2665070415173598 2.0268349498138583
1.205189095289527 2.0057714836429423
1.1699999999999997 2.0264994448555864
1.110214030364112 2.0028791293492163
1.0750898787796896 2.0219499876469427
1.0396382444035623 2.0404049403913627
0.9819513688075331 2.013298663710134
0.9466649062991669 2.030129442962096
0.9110900804897929 2.046341825119426
0.8557011713915094 2.0159056290608444
0.8203884395808476 2.030532641501264
0.7848258095042073 2.0445411340288717
0.7319231067169313 2.010942208481844
0.696715850538315 2.023409751782538
0.6767472176811349 2.082813770686386
0.6256754481066562 2.046492177760896
0.5898639414483783 2.0571000293080024
0.5409318042642688 2.0187849769441524
0.5056167618033054 2.0279180679168327
0.47014770357867813 2.0364334354011415
0.43453543380911674 2.044328485533654
0.39879080033697883 2.0516008134056176
0.36292469132388416 2.058248203795515
0.323819342633278 2.044514865031935
0.2950469740353383 2.099368305732129
0.2583630080189127 2.1041978414796025
0.2163739189640431 2.0586603234123255
0.18477017462503526 2.1119327599545006
0.1443959006503397 2.064957584037836
0.10833542942289354 2.067163136941968
0.07224195817417724 2.068739011929528
0.03699910164704076 2.1196771137315498
