# .PCD v0.7 - Point Cloud Data file format
VERSION 0.7
FIELDS x y
SIZE 4 4
TYPE F F
COUNT 1 1
WIDTH 180
HEIGHT 1
VIEWPOINT 0 0 0 1 0 0 0
POINTS 180
DATA ascii
1.0838124172454077e-16 -1.77
0.030890759393991968 -1.7697304204268125
0.06177210916342691 -1.7689217638237995
0.09263464255001082 -1.7675742765155957
0.12346895852710206 -1.7656883689598888
0.14990787752597198 -1.7134548807178023
0.17978895682036394 -1.71057766003343
0.20961527065685367 -1.7071793808230737
0.25329504374731915 -1.8022878851096582
0.27688900312120873 -1.7482083628533938
0.30735727447046685 -1.7431097228316081
0.3377319218164845 -1.7374801147023653
0.37216192656378944 -1.750884205313512
0.4026623872755186 -1.744122415965571
0.44513628790338855 -1.7853441363478335
0.47622704298863816 -1.7773035203718859
0.5071727347032785 -1.7687215205265068
0.5467350878315178 -1.7882898936508764
0.5778617794811518 -1.7784756854719372
0.5990454042011685 -1.7397541791027429
0.6464180708855141 -1.7760190532853666
0.6773154246406177 -1.7644670060797112
0.7080064615560739 -1.752377485131228
0.758018389269191 -1.7857794156977342
0.8094059197208427 -1.8179554607087756
0.8198794277769569 -1.758237106851101
0.8723585821102642 -1.788600152135342
0.9261406194686757 -1.8176533093442706
0.9577219880832174 -1.801213089432211
0.9890116253025277 -1.7842242025643673
1.0449999999999997 -1.8099930939094768
1.1021814803075163 -1.8343380235025202
1.1340272254590587 -1.8148229257747517
1.1927594866829092 -1.8366885438004783
1.2246324586009356 -1.8155922838955412
1.2848112174263433 -1.8349005792073418
1.31663896513514 -1.8121980673998825
1.3781564030181905 -1.8288753180083006
1.4406478522620405 -1.8439451634397293
1.5040757346091114 -1.8573788478821605
1.5362623871508292 -1.8308462190543575
1.6335869821863633 -1.8792268547547024
1.6995917401515 -1.8875878567125814
1.7663757525618713 -1.894206087193651
1.8338980980117527 -1.899057072894039
1.902117241391813 -1.9021172413918126
1.9709910529279044 -1.9033639350576526
2.0185362164689105 -1.8823154737724956
2.088236959591478 -1.8802570038683915
2.196204878448267 -1.9091317743623764
2.2674915516321748 -1.9026513246721561
2.3625237228291915 -1.9131339887915058
2.474353766325107 -1.9331770325225668
4.2008227828487605 -3.1655470217797737
4.214978540693476 -3.062361164443785
4.226824548531198 -2.959654411571398
4.236381995756264 -2.857475736735516
4.243673073803845 -2.7558735171760365
4.206318556935873 -2.628399550596696
4.2515498114824775 -2.554588851553868
4.252184732581593 -2.455
4.250651776697463 -2.3561747543971983
4.246977921651438 -2.2581582170001346
4.28574138134605 -2.18369430374722
4.278259660384035 -2.0866466587160084
4.540602013053616 -2.117317491320904
4.759571834317951 -2.1190979104249186
5.071981742522946 -2.152928517975898
5.386938195033035 -2.176464307746448
5.517460320598462 -2.117954581812725
5.553583388844718 -2.0213390470547026
5.4934629242320305 -1.8915509773960804
5.525638359674842 -1.7953887373184443
5.986467772328602 -1.8302468715643319
8.324526286825842 -2.3870195013752125
8.461510238292238 -2.2672548350980812
11.653251672574717 -2.905481966152008
9.022666799911278 -2.0830467632241887
9.497813203125252 -2.018822517840444
8.844460922863453 -1.719189048342669
8.232992815182058 -1.4516987652955378
8.207690110345595 -1.2999704044843186
8.22912765124245 -1.1565284689781437
8.34731313530352 -1.02492117803729
9.955164172636415 -1.0463299173092104
10.320577072230483 -0.9029334948657376
11.831109636081516 -0.8273117786053246
11.843746282189246 -0.6207044410413147
11.902744749797431 -0.41565300572678715
11.158300277945326 -0.19476885584008427
11.66 0.0
11.708216510281343 0.20436767938059022
11.203171170884064 0.39122335803503644
11.344431514811959 0.5945364629198427
11.880987838594507 0.8307996022925335
11.266962035417643 0.9857314504760153
11.297768731383584 1.1874433427205449
6.262966216856742 0.7689955568864802
4.218541972839089 0.5928774100898786
4.207552330935287 0.6664108210713835
4.096800252530786 0.7223764190944303
4.328975879004198 0.8414676696105629
4.704889959529605 1.0000552328334227
5.709808579641479 1.3182131784550495
5.39484423809454 1.3450857395341531
5.129066137594951 1.374329129494386
4.815921096650977 1.3809431526431655
4.599825876182201 1.4063078997163634
4.574581843379688 1.4863717429434968
4.59522027741268 1.5822612306617816
4.61389076805881 1.6793189037290337
4.63055891542612 1.7775050297446895
4.598831918651265 1.858048703342924
4.611729315796725 1.957562953731262
4.62254001567156 2.0580874139635497
4.631232791757282 2.159579317494974
4.637777278903702 2.26199511743164
4.642143991021396 2.3652905036430387
4.644304338437955 2.4694204202537864
7.5304756784701965 4.174210830320962
2.7193197678831376 1.5699999999999996
2.6229319401484634 1.576016509224766
2.5102223646230213 1.5685610221302866
2.440531352721184 1.5848995918937292
2.3710474575074194 1.5992917039263357
2.301817244452067 1.61174978614644
2.2167065645873563 1.6105315912813765
2.1483295220272174 1.6188824122790104
2.0409478518414095 1.5945632210934548
2.012808040173555 1.6299398128190785
1.9457528855222042 1.63268052860381
1.8792268547547024 1.633586982186363
1.8504306154387116 1.6661352098335573
1.7479353468698178 1.6299760805493715
1.7192221228093758 1.6602335053970039
1.6546298679765212 1.654629867976521
1.5907676683511034 1.6472881427755115
1.5276763265399966 1.638232291626942
1.4988525582438428 1.664644409069363
1.4695722249387364 1.6905494596990094
1.3755654847291945 1.639335108274613
1.3467456368466522 1.6630923575179177
1.317515557196909 1.686343012718385
1.2577933983877805 1.6691482159988422
1.2284711772912689 1.6908455182436402
1.1700959301561338 1.6710701703495434
1.1407535230803234 1.6912366480122851
1.0838316796799041 1.6689544302113937
1.0545393358240778 1.6876157113512877
1.024925769071008 1.7057629283972033
0.9699999999999998 1.680089283341811
0.940530663277894 1.6967622318504276
0.9107748318046278 1.7129183301463182
0.8580420445077436 1.6840023307160152
0.8066029100919021 1.6537810451904673
0.7987485146899219 1.7129217174992684
0.7483954232594727 1.6809236420623854
0.7384818328447272 1.7397541730251123
0.6705458022144828 1.6596590996745493
0.6593970271633524 1.7177879847548512
0.6293170637192307 1.7290344222460714
0.5827669964783102 1.692478250322777
0.5624109297624044 1.7309228596571795
0.5321165025953806 1.7404746558527247
0.5016599875869385 1.7494962866077404
0.4710506620865882 1.7579850038461042
0.4282017552114118 1.7174234355085138
0.4094109189058346 1.7733535179091282
0.36800369274743383 1.731321253298836
0.34727237158531177 1.7865614738747484
0.316039683353813 1.7923501104822188
0.27688900312120873 1.7482083628533938
0.24633638869931548 1.7527744816725797
0.21570873782711106 1.7568066884051399
0.1902418031471297 1.8100298495702574
0.1542656646633549 1.7632646156223897
0.12346895852710206 1.7656883689598888
0.09525144036215762 1.8175057532533245
0.06177210916342691 1.7689217638237995
0.031763379715855744 1.8197228051846321
