# .PCD v0.7 - Point Cloud Data file format
VERSION 0.7
FIELDS x y
SIZE 4 4
TYPE F F
COUNT 1 1
WIDTH 161
HEIGHT 1
VIEWPOINT 0 0 0 1 0 0 0
POINTS 161
DATA ascii
1.6165337748745064e-16 -2.64
0.046074352994428705 -2.6395979152128732
0.0938796461297279 -2.6883613246813676
0.14078372229351926 -2.6863134484898037
0.19113273805890377 -2.7333254977119186
0.23880673512858333 -2.729573472771383
0.29163441251675315 -2.7747160880774824
0.3400154681003615 -2.7692037630792883
0.3952516067265859 -2.8123613152260596
0.4442738807142558 -2.805034887290191
0.5018432334574289 -2.8460944062052813
0.5609784464070421 -2.885983919336132
0.6112603710042128 -2.8757539461573884
0.6726036524881568 -2.9133664937078536
0.7233464678430064 -2.9011842215652295
0.773868944856537 -2.8881182206043143
0.8379375616836775 -2.9222355556524895
0.9034285675932566 -2.9549816959257793
0.9548625126185876 -2.9387646353520243
1.0222840049954722 -2.9689283273818545
1.0739432500426 -2.9506348292677522
1.1431937590495083 -2.9781215605260734
1.1837568351942827 -2.929900980431048
1.265968856305247 -2.982435725185907
1.3381635557193832 -3.0055645556441566
1.411544994213936 -3.0270680087024107
1.4510084958718463 -2.9750082932502426
1.5390277941170638 -3.0205121169985674
1.600898029099888 -3.0108512916489407
1.6532008050400095 -2.9824532013453395
1.7549999999999994 -3.0397491672833796
1.7820317391887877 -2.965798860429308
1.860016617458549 -2.976648817509055
1.9389149646534964 -2.985667221885709
1.990726736355859 -2.951373758295948
2.099289757044829 -2.99809648209771
2.151294023390452 -2.9610021994123077
2.232733735894099 -2.9629377422754564
2.3148871472244754 -2.962920433561274
2.3977106898998803 -2.9609261131510594
2.449020792905715 -2.9186293282833065
2.532387851903358 -2.9131789796598997
2.5828441405451925 -2.8685390263427415
2.6666135878443695 -2.859592973330956
2.7161142284946793 -2.812618619324126
8.120675083197026 -7.059195151937858
7.897918208556663 -6.62714025586822
7.662659179965733 -6.205099055751396
7.257579040717911 -5.670242187749312
7.1557741700237445 -5.392262607442353
6.9251854718495505 -5.03144175962357
6.725238283612623 -4.709062542442089
6.55768719891038 -4.423215866453607
6.424216550461948 -4.171935008215106
6.241633987711296 -3.9002057847563885
6.094459507992019 -3.6619207126104842
5.940934269961249 -3.43
5.781236264191406 -3.204591589828288
5.703841449868668 -3.0327862955968548
5.577700841419182 -2.8419805283695627
5.491631622887911 -2.678447706881263
5.356279021386602 -2.4976739268875336
5.3076991089035115 -2.3631398962703987
5.164032227868191 -2.1920016308248256
4.784268689564623 -1.9329700220261055
4.723916958075841 -1.8133418246992195
4.6608753990981056 -1.696419910895317
4.642496206192646 -1.5985396383846395
4.7172403208239615 -1.532724292099739
4.8389020651729595 -1.4794008258970477
4.8639841814478935 -1.3947250204340154
4.887584681022685 -1.3096243682187545
5.006725947584142 -1.248316981294285
5.076468037531075 -1.1719949931315359
5.096148999823127 -1.0832199091605264
5.163358984934712 -1.0036553156806258
5.180088780844214 -0.9133894145280537
5.195240671530424 -0.8228452861116143
5.258323445017738 -0.7390091660979473
5.27042006521542 -0.6471262134813328
5.330637359173945 -0.5602725631146221
5.389413316676343 -0.4715125682648302
5.3968215119056495 -0.3773825229557172
5.452517259759973 -0.2857543210864737
5.456673915524263 -0.19055125199565556
5.459168415553896 -0.0952901391475681
5.51 0.0
5.509160800311716 0.09616275946943229
5.606582539577127 0.19578617650103072
5.60231168997316 0.2936047145229153
5.596334321957614 0.3913338177045435
5.588652256294693 0.48894371681436305
5.6289939277844265 0.5916311020949194
5.667438525871949 0.6958739508433919
5.6544306725143665 0.7946784064819735
5.639700424798237 0.8932407953797182
5.623252269699708 0.9915310944781723
5.654172576658544 1.0990598133688982
5.63413018022672 1.197571339110294
5.612371573162955 1.2957180730206628
5.58890338334974 1.3934701186540868
5.467140176796126 1.4649157952802683
5.440741199010885 1.560107433924215
5.36486968095263 1.640205263494553
5.287874230601053 1.7181344887247074
5.209807351552236 1.7938805310589334
5.365644864687536 1.9529350183895686
5.844213469872483 2.24338336415358
6.360481242328161 2.5698012308331575
7.189142905463558 3.051610113501229
8.276721846241964 3.685033986266751
8.539010481314564 4.929999999999998
5.1773077203282165 4.500564938874879
4.577772124940748 4.121844535170568
4.249165006407381 3.962410471963116
3.9635622998659668 3.8275676212290755
3.9315137033972043 3.9315137033972034
3.862300539752024 3.999529289882901
3.8260107999506165 4.102894266083546
3.7538227016731955 4.169042470928181
3.778900006985322 4.347127182083167
3.6703172513101405 4.374113770209364
3.5619534133420796 4.398646141846456
3.4846439503432265 4.460140865414046
3.37618227988299 4.4803452113653135
3.2974752653607746 4.538585338443456
3.217763807929368 4.595442968461245
3.109112543297352 4.609448903406031
3.0009610829328 4.621074829379285
2.919855145924959 4.672745009821907
2.837859792754399 4.722991826868638
2.7299999999999995 4.728498704663036
2.6470605265450007 4.7754236009811
2.5398411546716684 4.776746477366795
2.4560886035909486 4.82034529585907
2.371587904128908 4.862475790478494
2.244102969843114 4.812494349164611
2.1597715747325 4.8509263800822096
1.0393448017814682 2.4485429101834915
0.9777232088155308 2.419949860419315
0.9532587457904985 2.4833239344825566
1.7819249467267346 4.895798554294582
0.8171760676874629 2.373251624754285
0.7694523159936192 2.3681307255749324
0.7338529788540686 2.400324937467219
1.408506888224866 4.91204726624481
1.309624368218756 4.887584681022685
1.212028696954335 4.861181588642742
1.1270047822627642 4.881594024574029
1.0312419864560858 4.851612099639676
0.9368721672988356 4.81978947072803
0.8439301434612809 4.786165679639332
0.7524497768435107 4.750780918262612
0.6624639605699105 4.713676007209875
0.580098074608502 4.724519681812692
0.5027819083174142 4.783650316721394
0.4279346968910015 4.8913159676304705
0.14021051222569214 2.0051037410222463
0.10414855292345805 1.9872727741616019
0.06944999843797715 1.9887877457680005
0.03507933693893958 2.009693867264346
