# .PCD v0.7 - Point Cloud Data file format
VERSION 0.7
FIELDS x y
SIZE 4 4
TYPE F F
COUNT 1 1
WIDTH 180
HEIGHT 1
VIEWPOINT 0 0 0 1 0 0 0
POINTS 180
DATA ascii
1.279755905108984e-16 -2.09
0.037697197904532576 -2.159671021537805
0.07887286254765244 -2.2586232690631562
0.12612965454549496 -2.406697178758523
0.17857657278496117 -2.55376396866515
0.23619206284615354 -2.6996876318286303
0.30417782810887156 -2.8940587155216755
0.39120059233052346 -3.1860731467686434
0.4815389293218265 -3.4263275178458334
0.5881935885512682 -3.713708160637718
0.7223764190944305 -4.096800252530786
0.8796294686858721 -4.525301315693731
1.0624287400787509 -4.998334239749747
1.3407082838894362 -5.807245586120002
1.751514524141594 -7.024941058238214
2.1507862648019476 -8.026843616462157
2.8693848740549615 -10.0067342547179
4.037653242220995 -13.20656867984952
6.476996202098899 -19.93414458154642
14.344532885382327 -41.659548440905894
6.809621053614066 -18.709280079847435
7.1530242729241955 -18.634265312884146
11.017179912361977 -27.268477162809216
8.228797565984104 -19.385832213708394
5.637369873030593 -12.661740042926446
5.223561715115045 -11.201964247772993
4.234665277982488 -8.682350487249952
4.385548227484023 -8.607123023659634
4.394253827675938 -8.264389469159555
3.4954773619760906 -6.306008088475044
3.0549999999999993 -5.291415217122921
3.095378830209426 -5.151575477219694
2.7078874402316773 -4.333525771359337
2.755873517176037 -4.243673073803845
2.9133950270825912 -4.3192857530117665
3.5905884915575483 -5.127891797249088
3.738314204580129 -5.145348084224666
2.383187491682111 -3.1625966197872795
3.9156069830711875 -5.011748392938752
4.002477687076966 -4.942648314866335
4.152407958575044 -4.948647102548598
4.270944278728202 -4.913159367250246
4.356040247396167 -4.837872813857836
4.473909242009991 -4.797680282621757
1.8825241839438824 -1.9494108589177443
1.845548698896889 -1.8455486988968888
1.8055428988500144 -1.743592509852083
1.7625624209022013 -1.6436160477506214
1.850430615438712 -1.666135209833557
1.8565855673480192 -1.6139052113166479
1.8461671079167372 -1.5491181393445597
1.8729217671112999 -1.516662142430108
1.8991059161922001 -1.4837441555348363
1.8448480282092465 -1.3901927034812316
1.8688292570061287 -1.357783932795613
1.8103260178786718 -1.2676039243358117
1.7907211567188903 -1.207856671496813
1.7695948983648446 -1.1491883638817069
1.7469790780822378 -1.0916336843204022
1.8086230044814569 -1.086730338060214
1.6541085212282776 -0.955
1.4955996992083667 -0.8290244506212363
1.4656930041458187 -0.7793227942245787
1.5236211563621092 -0.776323754554625
1.581877521486534 -0.7715332183487762
1.6404170945363363 -0.764939053750666
3.0238354647970094 -1.3462982885808985
3.046871064927578 -1.2933200352994958
3.1616969440727454 -1.2774084835482598
3.276867297005178 -1.257871502904004
3.3453057299978335 -1.2175917102393807
3.4605979866934997 -1.1915794453131936
3.5284196754550194 -1.1464530491310547
3.5957058824210133 -1.09931760975749
3.758533231118827 -1.0777420612444666
3.8250662721047104 -1.024923418605982
1.8532648371871532 -0.46207082059536514
1.8123283205005376 -0.4184089610795887
1.7704471573281881 -0.37632016038014454
1.7276638428678885 -0.33582383186271897
1.585540482349655 -0.2795735660437579
1.6889470624176857 -0.26750293521879476
1.6933583975480853 -0.23798600264171185
1.5979993041425287 -0.19620964288228737
1.6509063463113336 -0.17351724902430463
1.6536831988322975 -0.14467853296111238
1.6060781209183173 -0.11230792272804155
1.5578620742171352 -0.0816440917389925
1.658988772851699 -0.05793316452615169
1.5097700196861508 -0.026353133720298138
1.61 0.0
1.5597624044439704 0.027225754042162317
1.4591106074478797 0.050953265185651485
1.607793550954864 0.0842608895511397
1.556199918405326 0.10882009904083563
1.5540637290231232 0.13596295868634695
1.5514541567745064 0.16306440269753963
1.3994900738142642 0.17183577420125787
1.5448181872368498 0.21711003749770205
1.3926405602391443 0.22057259570672552
1.3885789317472133 0.2448439305103718
1.335012969488823 0.259500233712101
1.3791881170346658 0.29315548405304076
1.3738617913471816 0.3171809866248498
1.368116974049155 0.3411098727955316
1.3136591237531328 0.3519939013394285
1.2592528216791978 0.3610849361202689
1.0901874217978604 0.3333037433839198
1.1507783847171358 0.3739105631936863
1.1724430337431528 0.4037045115268743
1.12763114494309 0.4104241719908025
1.1202965117966421 0.43004153945436036
1.168251656754152 0.4720043077040493
1.1598361153500747 0.4923212218964851
1.151067276629677 0.5124881702755084
1.1872632010180115 0.5536299228803162
1.2672996052818253 0.6181033169725993
1.078117894267925 0.5493285046848516
1.112513967002248 0.5915341691102226
1.2769447724235177 0.7078220455596521
1.2643970895252805 0.7299999999999998
1.2514642590250837 0.7519555893686792
1.2805526251962034 0.8001780889921394
1.3083260859948613 0.8496368946234425
1.3347504918136173 0.9003005745879024
1.3188347913052767 0.9234580625251846
1.3429682106624128 0.9757235188055053
1.3257349466785058 0.9990129384324005
1.3080978509871584 1.0219980490405927
2.1837801516940885 1.7683902988500428
2.152584885164328 1.8062331832191756
2.158469399437128 1.8763288229128503
1.270777651566344 1.1442133368736478
1.2506148297687816 1.1662171957068723
1.158137078545228 1.1183999764389858
1.1030865786510142 1.103086578651014
1.0489341393930858 1.0862030985113635
1.0298175236943727 1.1043440894449474
0.9769306852839331 1.0849914451969953
0.9578461823261406 1.101875987125247
0.9384699101423476 1.118424886953708
0.9188077709327626 1.1346331037271775
0.8988657539754612 1.150495700265814
0.8786499338019903 1.1660078446690476
0.8875557309616344 1.2216156615061706
0.8661004188900794 1.2369195868763778
0.872340929414365 1.2932986131858653
0.8496368946234425 1.3083260859948613
0.8266740522037996 1.3229550300040245
0.8292113006051874 1.3800393541304008
0.8299999999999997 1.4376021702821682
0.8047839696089196 1.4518687138513968
0.802796372363873 1.509840383788765
0.7536242295676477 1.4790708301526907
0.7276961036698681 1.4919981168566172
0.6804154014025261 1.4591555371290066
0.6345091631982486 1.4251309139224573
0.6407990507224088 1.5096279596620021
0.5956244835313004 1.474222328761192
0.5877234372542922 1.5310718994554107
0.5780140422203803 1.588080529128185
0.5664885887554524 1.6452023215428113
0.5438699100999075 1.6738594686794703
0.5145742003120163 1.6830963704949427
0.4989036140287685 1.7398836696483573
0.481403423890689 1.7966220368976669
1.4055662134340692 5.6374181696635395
1.8805908143147125 8.145733741604566
1.7069549816138034 8.030591802024546
1.5570014022726066 8.010077816932938
1.408286720878804 7.986790876929008
0.6132231029577052 3.87173829513294
0.5511254798018583 3.9214615522166185
0.3972940595007808 3.2357004543507095
0.33030994392578567 3.1426891893637436
0.2710543599452168 3.0981655110653286
0.2099669859698176 3.0026677912820707
0.1549144304791135 2.9559434228735384
0.10504748507452824 3.008166389327478
0.05340436369808713 3.0595339471785574
