# .PCD v0.7 - Point Cloud Data file format
VERSION 0.7
FIELDS x y
SIZE 4 4
TYPE F F
COUNT 1 1
WIDTH 180
HEIGHT 1
VIEWPOINT 0 0 0 1 0 0 0
POINTS 180
DATA ascii
8.082668874372532e-17 -1.32
0.02216455617535017 -1.269806572848617
0.04432236081217637 -1.2692263503142516
0.06646666442853884 -1.2682595091383089
0.0920785453422456 -1.316784546342968
0.11504558042690875 -1.3149770014811042
0.13275114834991988 -1.2630428071177071
0.1608675332947947 -1.3101609201665452
0.18370849326728642 -1.307153850738873
0.20649349385310484 -1.303748609585582
0.22921559452034815 -1.2999462339761148
0.2518678738970393 -1.2957478821509165
0.2744434318794425 -1.2911548329686233
0.296935391733902 -1.2861684855165105
0.3314329969715447 -1.3293051449981153
0.3545820917904534 -1.3233183820160237
0.3638413096784389 -1.268865438638581
0.3917780843284673 -1.2814483729904675
0.423353282293678 -1.3029474273243604
0.44602837160630476 -1.2953604485710641
0.46856759635616635 -1.2873788904766945
0.49096409087706155 -1.2790051843011665
0.5394334945189135 -1.3351447505761738
0.5548382024547687 -1.3071168919024652
0.5775660331676365 -1.297234549852493
0.6212488447588281 -1.3322724469438754
0.6531730087157254 -1.3392031289857587
0.6537463196249474 -1.2830493948312498
0.6901231972952595 -1.2979329615026225
0.7369106227744324 -1.3294219548518815
0.7449999999999999 -1.2903778516388136
0.7931586353614836 -1.3200376430812528
0.8160756669191356 -1.305994068080896
0.8387441139231417 -1.291552674635953
0.8891167165184877 -1.3181697403625163
0.9406653556157155 -1.3434093526339466
0.9639678137596559 -1.3267878707749137
0.9869766379693591 -1.30976223647756
1.0404678933003626 -1.33173817359536
1.0635514608742251 -1.3133766748622808
1.1184504408545786 -1.3329173310270217
1.1743456618930082 -1.350930148598762
1.1977437853823563 -1.3302292376045357
1.2548769825149975 -1.3456908109792736
1.3129043201675048 -1.3595522226400505
1.3505739520663058 -1.3505739520663056
1.5393871727247137 -1.4865689127822541
1.5650969214650252 -1.4594764905337467
1.6646444090693635 -1.4988525582438423
1.728284938710148 -1.5023751763882618
1.7542417747424597 -1.4719836261821748
1.8573788478821605 -1.5040757346091114
1.8991059161922001 -1.4837441555348363
1.9646433547163404 -1.4804649569540387
2.030632655881118 -1.4753409832541073
2.1379868355942686 -1.49703449887623
2.2052399429964114 -1.4874531232321866
2.2979573561704623 -1.492310955941174
2.2558079357760934 -1.409585242860325
2.3657817499378297 -1.4215050867517491
2.4335313846342723 -1.405
2.5888743331326114 -1.4350364759291576
2.7018196341483165 -1.436582982124826
2.8155806164352426 -1.434609979176968
2.975008293250243 -1.4510084958718463
3.0905095537949765 -1.441128272535785
3.297899102089789 -1.4683192815036386
3.5071234916537977 -1.4886855995441326
3.7180072568128173 -1.5021724395978067
3.9303735955532195 -1.5087290675857143
4.191029088705151 -1.5254098392324826
4.500668419852748 -1.5497044152160657
4.764793146638719 -1.5481751418184864
5.173608729760023 -1.5817309225500056
5.5368673686047165 -1.5876711695059147
6.046695672569568 -1.6202072223417794
6.656228682253336 -1.6595842038137198
7.317519186537116 -1.689382418122425
8.177313942134614 -1.7381417352364685
8.79537956369107 -1.709648598573842
8.971598629941214 -1.5819348985457355
16.553656588374512 -2.6218416340742694
16.695919638982875 -2.3464584821867027
16.783955424254756 -2.0608105969810433
28.85108018463361 -3.032370719394625
35.57411266885624 -3.11233157351887
37.318871120220024 -2.6095896827677225
37.458593848644064 -1.9631217186728258
37.48714992148628 -1.3090801213108132
31.805155182924803 -0.5551610487699893
27.46 0.0
16.857432140336755 0.2942475725326004
16.849729343541956 0.5884055144041671
16.68709952574893 0.8745338288195926
8.988052092841016 0.6285058284345698
8.92590449490204 0.7809154550190184
8.065572571436697 0.8477258371006707
7.205885060915998 0.8847714331213703
6.595185337818859 0.9268928523940356
5.936006926976778 0.9401711348917875
5.574011882049097 0.9828486855948259
5.212440344107096 1.0131957654494532
4.851612099639675 1.0312419864560867
4.540564501899197 1.0482719132424114
4.181974580249545 1.0426833700345683
4.018251437362524 1.076687227626487
3.8065963159157428 1.0915239290353165
3.5957058824210133 1.09931760975749
3.3857611980107465 1.1001004999748127
3.2242183427936704 1.1101874066989044
3.1103825748013567 1.1320866744079636
2.9034351264062974 1.114524323085884
2.837182594974369 1.146296175852691
2.7246943662192233 1.1565641403282507
2.5670627359757083 1.1429299670429989
2.4560941028693213 1.1452954893172953
2.3907921631557842 1.1660672504589464
2.3255270281316403 1.1849152043202171
2.2161984580759064 1.1783736225925863
2.1340720854201254 1.1829354734010624
2.0698007150448086 1.1949999999999996
2.0057714836429423 1.205189095289527
1.8996277353903945 1.1870191518823792
1.8786220721977498 1.219991438433661
1.7741404052677894 1.1966728134273983
1.7120277725639925 1.1987747519736867
1.650394668524893 1.1990819146766452
1.5892846649941126 1.1976118960725766
1.5287408619970404 1.1943832621317771
1.5076631652265238 1.2208815586366843
1.4095217753389195 1.1827292018232325
1.4264011066210391 1.2399515647920585
1.3302292376045355 1.1977437853823565
1.3091231258983154 1.2207770645118723
1.2876182426061853 1.2434384831216052
1.1950104602052654 1.1950104602052651
1.208705564598655 1.2516512525892534
1.1525772285056224 1.235987755736398
1.0973741944285276 1.2187575137829263
1.0431338560949066 1.1999882325542075
1.0220322994015978 1.218010664559175
1.0006194217692415 1.2356620787165837
0.9789017457677969 1.252937098234688
0.9267951356541542 1.229898685472831
0.9051892885304087 1.2458861713374192
0.8546288901630584 1.220536545990598
0.8331974261714127 1.235265983107012
0.8115121621723905 1.2496191462386816
0.7895797037074753 1.2635916632730746
0.7416548278704781 1.2343209130110415
0.7199999999999999 1.2470765814495917
0.6738853721424085 1.21572139292376
0.6525654722723879 1.2272971540739084
0.6310467946379701 1.2384990686218313
0.6093358940368173 1.2493237243558422
0.5789870185847583 1.2416416682402105
0.5653639338753624 1.269828186123215
0.5548382024547687 1.3071168919024652
0.5019728351773224 1.2424263651194951
0.46229465491343724 1.2043187501813903
0.45830699205639625 1.2591881118531172
0.42974996388344666 1.2480845197910984
0.423353282293678 1.3029474273243604
0.38593065023401224 1.2623222778712069
0.3638413096784389 1.268865438638581
0.3416411395353277 1.2750220907015701
0.30724080741157794 1.2322755723705154
0.296935391733902 1.2861684855165105
0.2744434318794422 1.2911548329686235
0.2518678738970393 1.2957478821509165
0.2292155945203479 1.2999462339761148
0.19867177060109328 1.2543641925558249
0.18370849326728614 1.307153850738873
0.1608675332947947 1.3101609201665452
0.13275114834992016 1.2630428071177071
0.11330246557195559 1.2950531075192693
0.08859072165503933 1.2669063438299768
0.06646666442853856 1.2682595091383089
0.04432236081217637 1.2692263503142516
0.02216455617534989 1.269806572848617
