# .PCD v0.7 - Point Cloud Data file format
VERSION 0.7
FIELDS x y
SIZE 4 4
TYPE F F
COUNT 1 1
WIDTH 179
HEIGHT 1
VIEWPOINT 0 0 0 1 0 0 0
POINTS 179
DATA ascii
9.001153973733046e-17 -1.47
0.02565503746280689 -1.469776111879895
0.04955728531755153 -1.419134974367116
0.07693385567712763 -1.4679854160892236
0.10254201640386441 -1.4664191538819416
0.12811894183905745 -1.464406206194866
0.1536568410034506 -1.4619471861913618
0.17914793480556682 -1.4590428429127433
0.20458445841129624 -1.4556940610501083
0.22995866360913944 -1.4519018606748526
0.2639452300537342 -1.496907784578556
0.28048922320352104 -1.442991959668066
0.31602577004299437 -1.4867843531153846
0.341925602602675 -1.4810424984735575
0.37981737609147825 -1.5233642902533144
0.40634590081095756 -1.5165035472738373
0.4327506486326887 -1.5091808626231606
0.45902357641469677 -1.5013984668619658
0.4851566811686675 -1.493158730583391
0.5274204102205939 -1.5317400924708933
0.5438120278878135 -1.4941112670495944
0.5805560782633866 -1.512400290925467
0.6068626813337777 -1.5020378443981957
0.6212624942979452 -1.4636027169893802
0.6467112624905226 -1.4525372776517353
0.693093949254747 -1.4863447707401058
0.718928680734087 -1.4740222359306336
0.7672439445598341 -1.5058010258783416
0.8168805192474501 -1.5363288115745328
0.8435687392286266 -1.5218382904225485
0.8699999999999998 -1.5068842025849234
0.8961662503434944 -1.4914711032216752
0.9485554829774367 -1.5180060921200025
1.00213582442765 -1.54315384501958
1.0568745875597116 -1.5668810121290286
1.084059464703477 -1.5481973637061943
1.140303389447398 -1.569492969087398
1.1675211449149736 -1.549352889491748
1.2251663358980602 -1.5681413996773765
1.2838135977416683 -1.5853777613722206
1.3112867237605403 -1.5627306639627152
1.37116337059016 -1.5773430226655933
1.4319394976079567 -1.5903299265216237
1.493576408536872 -1.601664606545983
1.521301831305204 -1.5753541627416459
1.619274528917194 -1.6192745289171937
1.6832551327924437 -1.6255005868740535
1.7113676617888591 -1.5958761625462463
1.8132733741648421 -1.6326786795156139
1.916962333765841 -1.6663899336358885
1.9227715522286346 -1.6133969003132134
2.028350959402694 -1.6425262206400755
2.096108604593881 -1.6376595243662508
2.2042340077305282 -1.661009463899653
2.2733377541936024 -1.6516765589418496
2.3837324488809664 -1.669107429781544
2.536854972018428 -1.7111302846204852
2.65019899470754 -1.7210593506474854
2.7222343886621276 -1.7010408381885878
2.8800821303590975 -1.7305279316977815
3.039749167283379 -1.755
3.2011081281301887 -1.7744032101015936
3.3198829491495654 -1.7652130760749494
4.82034529585907 -2.456088603590948
4.817536088163536 -2.349669346789455
4.812494349164611 -2.2441029698431136
5.079312744492861 -2.261455735501449
5.486208926576545 -2.328757525796071
5.7578117368597495 -2.326306945112813
6.170966619146504 -2.3688121464944354
6.775183795866399 -2.4659652333780717
7.715431576890426 -2.6566361403703986
7.760621172968453 -2.5215786740995707
8.090338235447282 -2.473464621954353
8.084210862841262 -2.3181101624209624
8.413213946977786 -2.2543138828429554
8.45127577586393 -2.1071397106731053
8.097015238365305 -1.8693432615975172
8.324036082244685 -1.7693284888591325
8.451810049484386 -1.6428654501920512
10.202608321206474 -1.7989951206293984
17.343807260850618 -2.746989206106454
17.686187707724446 -2.4856315831467684
42.52575624594736 -4.469637089324858
42.64709502530763 -3.731137347027242
34.67532638703149 -2.424735027345791
42.701398906105574 -2.2378854889482813
35.438398726097134 -1.237536153070686
17.60731791170405 -0.30733687736056303
6.26 0.0
6.359031341194648 0.1109973049411233
6.406095201192404 0.22370577386303153
8.098885526859593 0.42444460513027504
8.090244447607173 0.565725002064857
8.178758471333232 0.7155486479582747
7.866668192363042 0.82682014444714
7.851040059482858 0.9639865063347163
7.9815606340570575 1.1217351937381272
8.059536859256324 1.276505234728284
7.494387000422903 1.32146263204534
7.028450633485274 1.3661924068960611
6.661185160997215 1.4158786144689415
6.343149121751881 1.4644313637785618
5.977021673860138 1.4902388768939538
5.708621633368393 1.5296205565558987
5.392678114213969 1.546325566133365
5.173608729760023 1.5817309225500056
4.907451624082992 1.5945276909747286
4.737048063752577 1.631096453830355
4.472936874940923 1.6280158822301833
4.35048478747696 1.6699946448810996
4.135239991367872 1.670745406634968
3.967375918380017 1.6840511637887703
3.8460263766753497 1.7123612673491193
3.6796096153687983 1.7158301426672393
3.514284721029743 1.7140311839452933
3.394734857157682 1.7297038040076733
3.275735569506619 1.7417394979356555
3.1573771427732185 1.7501627290892767
3.0830504374726018 1.7799999999999994
2.9229404953942026 1.7562798354432851
2.891844007893413 1.8070246910352288
2.734066051502082 1.7755232541489885
2.6612106079016837 1.7950092201410972
2.5885204599532137 1.8125015388693062
2.475592002787339 1.7986228720149677
2.403892885242351 1.8114632196876659
2.3561521532840985 1.8408278112237184
2.2614947478397855 1.8313223379550265
2.2138684406138465 1.8576561919940988
2.143375207832672 1.8632076423330401
2.0733740630819297 1.8668743917412147
2.040476827517486 1.9027754245743709
1.9350240629109712 1.8686310165347029
1.902117241391813 1.9021172413918126
1.8338980980117525 1.8990570728940395
1.7663757525618708 1.8942060871936515
1.6995917401515002 1.8875878567125812
1.6663899336358885 1.916962333765841
1.6005411481194833 1.9074506633662554
1.5670077737140953 1.9350934440278578
1.5022139997946065 1.9227462388004013
1.4383379053333951 1.9087388690130302
1.404806752979011 1.9335506165561245
1.370847682879 1.9577733858506907
1.3085113941215474 1.9399479197787974
1.2472233901844123 1.9205556005950208
1.2135151150940393 1.9420301401982154
1.1794371915440243 1.962913118607837
1.1199999999999999 1.9398969044771428
1.0859735493517952 1.9591481439922467
1.0516163006403951 1.9778026080039965
1.016938719416585 1.9958546141819442
0.9819513688075331 2.013298663710134
0.9255339932121317 1.9848140536102634
0.8907532483360028 2.0006645522372954
0.8361646149670457 1.9698803863882226
0.8016581099100522 1.984173448772925
0.7669074120269423 1.997862112704012
0.7148220995506478 1.9639575774425482
0.6804374428154571 1.976133823002572
0.6458455182436401 1.9877081190568708
0.6110568628705193 1.9986769399627442
0.5760820736575282 2.0090369445110863
0.5409318042642688 2.0187849769441524
0.5056167618033054 2.0279180679168327
0.4656486824918008 2.0169460341054366
0.42413984926822884 1.9954211054969637
0.40451507019827526 2.0810496289090477
0.3542422824405377 2.0090078161449045
0.3191263086820711 2.014884214814081
0.2950469740353383 2.099368305732129
0.24861346054650088 2.024794149348297
0.2163739189640431 2.0586603234123255
0.18041238748765234 2.062123025049913
0.1443959006503397 2.064957584037836
0.10833542942289354 2.067163136941968
0.07224195817417724 2.068739011929528
0.03612648132517659 2.06968472897373
