# .PCD v0.7 - Point Cloud Data file format
VERSION 0.7
FIELDS x y
SIZE 4 4
TYPE F F
COUNT 1 1
WIDTH 180
HEIGHT 1
VIEWPOINT 0 0 0 1 0 0 0
POINTS 180
DATA ascii
2.5778815122051783e-16 -4.21
0.07696511238842067 -4.409328335639685
0.18357135265515567 -5.256795750120443
0.27267033202573804 -5.202859876071329
0.35994340451968737 -5.147430499340693
0.43665027116576727 -4.990935437439645
0.5236876009709438 -4.982554695795049
0.6044719432895316 -4.923028912140957
0.6763812706659182 -4.812702814084032
0.7524497768435107 -4.750780918262612
0.8178829168112423 -4.6384445166875
0.8605485691482175 -4.427138597348964
0.3867157449210326 -1.8193545373648785
0.4071614083623959 -1.7636098172612757
0.389494251915465 -1.5621761193043544
0.40375771035993235 -1.5068442890109466
0.4299942750745187 -1.4995682456637776
0.4560998593674694 -1.4918354193023353
0.4666156615061707 -1.436095339605682
0.4916079132303067 -1.4277330491549682
0.5335514235880434 -1.465920488426017
0.5411356038134035 -1.4097064440107747
0.5469256263872317 -1.3536884276675094
0.5704674475943396 -1.3439370860405628
0.5734986667368785 -1.288099095276067
0.5958917490543861 -1.2778939797216764
0.6838589889909609 -1.4021187122267005
0.7309247045806705 -1.4345205039432725
0.769933362968861 -1.44803405228864
0.7950877772039928 -1.434376319708609
0.8199999999999997 -1.4202816622064793
0.8446624428524889 -1.405754373151464
0.8425716301307958 -1.3483964728887174
0.8932080174246444 -1.3754197314304952
0.9058925036226101 -1.3430408675391676
0.9291938268886947 -1.3270263117481669
0.9522121087138066 -1.310607530887415
0.9749403375063183 -1.2937895262766144
0.9973715900275667 -1.2765774208428895
0.9880330139482447 -1.2201191594874443
1.041315927692194 -1.2409919978527444
1.0628156269646218 -1.2226295199608908
1.0505350519834076 -1.166737375999509
1.0707374252981228 -1.1482253115420975
1.0906136416206258 -1.1293634865316822
1.145512985522207 -1.145512985522207
1.1293634865316824 -1.0906136416206258
1.1847929966230564 -1.1048373433012475
1.196463169018605 -1.0773002762377617
1.2528179031698015 -1.089057988124242
1.2716337755775033 -1.0670274320796551
2.2614947478397855 -1.831322337955027
2.253710755315225 -1.7607918194313823
2.284097558735257 -1.721190966214858
2.3137886039123496 -1.681065821556473
2.301817244452067 -1.6117497861464394
2.2052399429964114 -1.4874531232321866
2.272797239132099 -1.475971784890723
2.4678199598152 -1.5420650589186264
3.651532700990998 -2.1940621991168303
3.6459669499324865 -2.105
3.7258799524138255 -2.065288982249396
3.7172093659360828 -1.9764752793286002
3.662036814414192 -1.8659009539295375
3.738983232604535 -1.823623970642562
3.8608711727761285 -1.8003537950153794
4.0287354682038705 -1.7937085959642787
4.105451646397884 -1.7426608330621605
4.1815991840962115 -1.6894757363057626
1.9231756785842355 -0.7382379760633186
1.9357667988189713 -0.7045614952508776
1.9477682657345927 -0.6706703981817428
1.9591764235680162 -0.6365750084123917
1.9699877972838533 -0.6022857117288376
2.028262178429853 -0.581594820773868
2.038103493469934 -0.5461081851663186
2.0473239824423524 -0.5104551997152986
2.1046393399361083 -0.48589427738274815
2.1617061976217102 -0.45948483670724827
2.2184774345917204 -0.43122832955099133
2.2749059094582007 -0.4011272904106091
2.281560066774768 -0.36136361424293334
2.2875192387930277 -0.3214898632177511
2.292781610291454 -0.28151818326589056
2.3967977678375387 -0.2519135964750447
2.450638957305694 -0.21440312715923884
2.4540075636391676 -0.17160092541054794
1.6577250276925926 -0.08687768736328688
1.6889704976622717 -0.058980149427226715
1.6897426048143012 -0.029494566879009174
1.69 0.0
1.709739558717429 0.029843615007754846
2.758318682572704 0.0963226108989028
2.7562175159226237 0.14444723923052516
1.7557127284572907 0.1227713937896607
1.703492933736885 0.14903632009849568
1.6807420031723819 0.1766531029223346
1.6774029962738344 0.20595919035469915
1.6438449941110067 0.23102734759370858
3.2988790575877602 0.522491113234371
3.2597136624704084 0.5747754680775395
3.298267336384151 0.6411182244651907
3.4332980785756573 0.7297700347703354
3.5661944371139613 0.8233208588985462
3.6968267171115468 0.9217224222347344
1.7966220368976669 0.4814034238906889
1.7879467544452732 0.5126854818196184
1.7787268460912462 0.5438113707842903
1.7689651203089856 0.5747716095374021
1.8059404793946952 0.6218351750131693
1.8417975367403803 0.6703594809183108
4.3038057661521005 1.6520762474038346
4.506113533194586 1.8205880440013331
4.657754558469347 1.9770995101557256
1.8819036427437579 0.8378774847361486
1.848867885554766 0.8621412539510268
1.8065760330613254 0.8811260050460458
1.7731029831348522 0.9034410944816982
1.801213089432211 0.9577219880832176
1.7404932172073975 0.9647711442902107
1.6974097914175 0.9799999999999996
1.7057629283972033 1.024925769071008
1.687615711351288 1.0545393358240778
1.6270209018141224 1.0565997279291528
1.6083328907567809 1.0848342327332487
1.5891549659206439 1.1127382865210298
1.569492969087398 1.140303389447398
1.5094211139893832 1.1374303937573715
1.4893403243167043 1.163600188365494
1.4688058671536752 1.1894155390841925
1.4708053307884377 1.2341522105981555
1.4490423940277222 1.2596333356617737
1.4268380649165966 1.284730764209008
1.4041991071088074 1.309436851319997
1.38113241665021 1.333744071281275
1.3576450198781713 1.357645019878171
1.3337440712812745 1.3811324166502104
1.309436851319997 1.4041991071088071
1.284730764209008 1.4268380649165966
1.2399515647920587 1.4264011066210391
1.2148685823075596 1.4478239974948683
1.2020019469051895 1.4843487863828144
1.1759134178720074 1.5051005393888388
1.149466694220412 1.5253938241903295
1.1226698318786237 1.5452224592561496
1.12420981524805 1.6055380068064242
1.1239777359762009 1.6663655208356336
1.0947244603802047 1.6857278415703019
1.0651377211087418 1.704576673274416
1.035226530569209 1.7229062744112453
1.0299999999999998 1.7840123317959438
0.9987078177074544 1.8017165967071553
0.9671114193389347 1.8188720412893897
0.9352204294634665 1.835473439828038
0.9249631197249529 1.8964554376912424
0.8832721670380618 1.8941832749065983
0.8582143168899388 1.9275809156258874
0.8439792375368312 1.9882904834572714
0.8091502417783704 2.002717125864261
0.7740747710178484 2.016533721233956
0.7558645167497281 2.0767206919368575
0.7195056213503159 2.0895960520744903
0.6921980673998823 2.130366596501144
0.6607600526733846 2.16124874847646
0.622940424146418 2.1724514328206004
0.5978719941868235 2.2312886587277476
0.5588395788352324 2.241383127697552
0.5308844882515217 2.299513352893155
0.5073045255953326 2.386680145790486
0.45030922908864596 2.316640152936487
0.41849210817730187 2.3733866847594216
0.37700706074695656 2.3803289008342823
0.3423658283617605 2.436059449104263
0.3119855191171776 2.540918148201784
0.2728192891285761 2.595702146911193
0.23183427570877066 2.649877896924043
0.18904004384658 2.7033985762041235
0.13921364360623037 2.6563545624471665
0.09632261089890297 2.758318682572704
0.048168641766902116 2.7595796386316396
