# .PCD v0.7 - Point Cloud Data file format
VERSION 0.7
FIELDS x y
SIZE 4 4
TYPE F F
COUNT 1 1
WIDTH 179
HEIGHT 1
VIEWPOINT 0 0 0 1 0 0 0
POINTS 179
DATA ascii
9.674709713264091e-17 -1.58
0.027574802170908085 -1.5797593583470984
0.05618818969102674 -1.6090192315007443
0.08269081086385147 -1.5778346649122268
0.11021522851571823 -1.5761511994105224
0.13770607354129988 -1.573987622984958
0.16515497196289247 -1.5713445946818718
0.19255356258013304 -1.5682229195932889
0.2268521545649067 -1.6141369520487596
0.2549881780155764 -1.6099319951700746
0.27436412071375005 -1.5559962497592887
0.3110186624637682 -1.600052309019692
0.33889605603294787 -1.594380589196103
0.36667021858050014 -1.5882232055999332
0.3943326898274583 -1.581582033829874
0.4218750435171088 -1.5744590968511814
0.44928888998170863 -1.5668565643794596
0.49118446393419773 -1.6065919900178995
0.5191485505499117 -1.5977749473758578
0.5469544994880233 -1.588471207006852
0.5643332364873536 -1.5504928242967486
0.6092255142270107 -1.587086725045243
0.648069406609528 -1.6040280684005421
0.6759648522864435 -1.5924733964727218
0.7117891253826507 -1.5987045508745514
0.718451044959189 -1.5407232379623048
0.7671495068808856 -1.5728895810235421
0.794483374544207 -1.5592614173296437
0.8450488130146036 -1.5893056671460684
0.86296112403848 -1.5568230787081245
0.8999999999999998 -1.5588457268119897
0.9528204385836004 -1.5857595062989076
0.9803506388314291 -1.5688889778893882
1.0075822147778002 -1.5515405506990343
1.0345068714208818 -1.533719509226827
1.0897952290669874 -1.5563888841490843
1.1461812419703226 -1.5775831390311474
1.173539295146494 -1.557339244592221
1.200539876885034 -1.5366209695331077
1.2586407820996748 -1.5542919229139418
1.3177145998574056 -1.5703911083939048
1.3449210094305397 -1.5471546394566824
1.4051742733536023 -1.560604133502528
1.4662964741343718 -1.5724104584812162
1.5282484150097941 -1.5825475607450326
1.5556349186104048 -1.5556349186104046
1.6185145507619652 -1.5629813335327438
1.6601729026755172 -1.5481362773418716
1.7240959951075547 -1.5523830067525508
1.8113029925346527 -1.5745416695772174
1.8768088856414962 -1.5748296437320213
1.9428649036424273 -1.5733009776245934
2.009427421697141 -1.5699367620804283
2.0764523261229613 -1.5647190601953256
2.143895035093611 -1.5576309185750539
2.187135958251608 -1.5314490850572928
2.2964340759774657 -1.5489643426139685
2.406984530003367 -1.5631140304931275
2.476300440776764 -1.5473642515609582
2.545786883085274 -1.5296630824828605
2.6586979896182266 -1.535
2.7725444716318846 -1.5368464961808885
2.8872386286486913 -1.535172010309863
3.0026919865148 -1.5299479841222727
3.163755042973068 -1.5430664366975524
3.2808341890726727 -1.529878107501332
3.4440663753126057 -1.5333971443957666
3.4242780548430782 -1.453519797980098
3.4491239389884494 -1.3935365275071923
3.5195982078944508 -1.3510471697857822
3.6835950734807605 -1.3407189618366215
9.899579486524848 -3.408698577166431
10.052667377239773 -3.2663096305431942
10.251586983923742 -3.134224674627738
10.40085155005261 -2.9823961899399305
10.59620631439108 -2.8392449247746523
10.692658903561481 -2.665979289508337
10.786276617172554 -2.490208171586584
10.925908700196608 -2.3223735864343724
11.01385699828279 -2.1408769281248334
11.148023764098195 -1.9656973711896517
11.230016432566716 -1.7786598675074248
11.358374748465813 -1.5963154680119502
11.384504359325964 -1.3978413688570412
11.407166139874095 -1.1989414736799844
14.76360542571967 -1.2916481075202926
21.4405761111807 -1.1236529805360056
28.102870055776975 -0.9813738472743286
28.66563342013374 -0.5003604925569191
28.62 0.0
28.51565626586028 0.4977426315913264
28.65253501063748 1.0005685704607041
25.035642436297167 1.3120624230106037
18.175616995733996 1.2709629516179648
11.376543452207734 0.9953185821782576
11.357440045105681 1.1937150505166043
11.235622436579767 1.379560967346269
11.209834538154578 1.5754395028679404
11.081863181477447 1.7551946977513904
11.000302601146364 1.9396501445396122
10.86661292076564 2.1122555788183517
10.730279180049848 2.2807912482708206
3.7220936474795985 0.8593130275935646
3.4154409564915076 0.8515650725108308
3.351762617223067 0.8981020865057476
3.3836411697028823 0.9702434924758369
3.4140079787880366 1.04376698586017
3.252613285729425 1.05683812076232
3.0445698134298005 1.0483294573520447
2.8848563458127385 1.050001840009803
2.772733866696689 1.064352810149542
2.61465846987834 1.0563905934328721
2.4577479587180155 1.0432521130663612
2.302134553259354 1.0249763405510168
2.2385802339805254 1.0438671064995275
2.085202187414067 1.01702106055066
2.022584809907595 1.0305584344087713
1.9601436561468177 1.0422268693846781
1.8804323703497008 1.0423406835296247
1.8186533479473213 1.0499999999999996
1.7143346014042244 1.0300761498201085
1.6536937875050308 1.0333425652547494
1.5934740790963053 1.0348141665285515
1.5337195092268272 1.0345068714208816
1.4744736797201852 1.0324375854318832
1.415779740156158 1.028624191511828
1.3576803670803976 1.0230855393584823
1.3396182811314272 1.0466245080536192
1.2434335383311537 1.0069126256797396
1.1873688868344159 0.9963207950141361
1.1697998493452966 1.016891494935286
1.151874479489961 1.0371524398562304
1.0970305524287558 1.0229975400937477
1.0430427104910438 1.0072546371655462
1.0253048327204939 1.0253048327204939
0.972521718642596 1.0070757204741119
0.9547977040874978 1.0238951822668385
0.9033263185844588 1.003245514394482
0.8856796891371849 1.0188579333007424
0.8356238925925014 0.9958577760546714
0.8181165083647887 1.0102897498940622
0.8003599179233559 1.0244139796887386
0.7522687789400602 0.9982943875591161
0.7170980077968172 0.9870007331374359
0.6997632523482761 0.9993654940325701
0.6710314841648961 0.99484508706605
0.680798793768784 1.04833820993178
0.6094071538681856 0.9752553105798898
0.5922937861465624 0.985742395807429
0.5749999999999998 0.9959292143521045
0.5575310632832876 1.005812663210305
0.5164187190644798 0.9712423521448198
0.5220890747004788 1.024657502816623
0.482208261467985 0.9886734509290839
0.4648800879147694 0.996938565740315
0.44741030738338045 1.004900003406861
0.41026768491373744 0.9665300961250625
0.3933369230867078 0.9735430472951268
0.3762863470225652 0.9802594478220619
0.35912115049195226 0.9866772518252038
0.34184656218001436 0.9927945043792827
0.32446784409369483 0.9986093421099113
0.3069902899588734 1.0041199937611873
0.27563735581699916 0.9612616959383189
0.25881904510252096 0.9659258262890682
0.24192189559966767 0.9702957262759965
0.2361986070610584 1.023088568024497
0.20791169081775923 0.9781476007338057
0.19080899537654492 0.981627183447664
0.17364817766693022 0.9848077530122081
0.15643446504023092 0.9876883405951378
0.1433482939888672 1.0199761108038174
0.1255254237073019 1.0223225361905617
0.1076643171656833 1.0243575522293216
0.08977041503008788 1.026080539034498
0.07184916795644922 1.027490971767619
0.05390603493023206 1.0285884207972111
0.03420150676845106 0.9794030104787138
0.017975978630401877 1.029843126011083
