# .PCD v0.7 - Point Cloud Data file format
VERSION 0.7
FIELDS x y
SIZE 4 4
TYPE F F
COUNT 1 1
WIDTH 179
HEIGHT 1
VIEWPOINT 0 0 0 1 0 0 0
POINTS 179
DATA ascii
6.062001655779399e-17 -0.99
0.01815050269477494 -1.039841602962647
0.034550501735476066 -0.9893969187489048
0.05442939449266173 -1.0385747161447567
0.07254673269389048 -1.0374666122702172
0.09064197245756447 -1.0360424860154154
0.1087096017983596 -1.0343027711830042
0.13283758431161077 -1.081875305289041
0.15169868004647136 -1.0793921949283118
0.17833529014586325 -1.125964708278457
0.19795892254030065 -1.122680838433917
0.22706270449808844 -1.16813634830272
0.23701932753224575 -1.1150882648365383
0.26769175466919953 -1.1595003770944299
0.2878870557636045 -1.1546519142684357
0.3209356159271257 -1.1977480245984446
0.34179032121307895 -1.1919645029635155
0.37715949909233043 -1.2336331351923158
0.3986319227436822 -1.226862906020748
0.41998291924973224 -1.2197189625231186
0.45830699205639625 -1.2591881118531172
0.48021305239070255 -1.2509977715062504
0.5207031648481178 -1.2887855578478342
0.5626528250245542 -1.325526988971514
0.6060375981829426 -1.3611827318874752
0.6297012099936422 -1.3503986026846084
0.6750915660551793 -1.3841428313007171
0.7218448945858795 -1.416700373459505
0.769933362968861 -1.44803405228864
0.7950877772039928 -1.434376319708609
0.8449999999999998 -1.4635829323957015
0.8961662503434944 -1.4914711032216752
0.9220595197657765 -1.4756036873121812
1.00213582442765 -1.54315384501958
1.0568745875597116 -1.5668810121290286
1.1414171083385816 -1.6301125681350936
1.1990819146766452 -1.650394668524893
1.2577933983877807 -1.669148215998842
1.3298287867034222 -1.7021032277905195
1.4222640837726324 -1.756349872892754
1.484839378375906 -1.7695626636048392
1.5811022598671227 -1.8188500883368806
1.7129743522786771 -1.9024507532221293
1.8141156377662464 -1.9454008463069932
1.9172571024668323 -1.9853778489346767
2.0576807332528535 -2.057680733252853
2.2731137690701377 -2.1951204506504314
2.4207807523594544 -2.25741457180687
2.608438337425654 -2.348648428319592
2.8377080216376225 -2.4667819490043073
3.1101404390630503 -2.6097176953273493
3.427213690025242 -2.775302924529783
3.7509311871679967 -2.9305486225501327
4.120959231844031 -3.105365519464569
4.61948703788095 -3.3562537905900216
5.127891797249088 -3.5905884915575483
5.935909019494099 -4.003821188850547
7.011285948023745 -4.553182332725625
8.31935182329454 -5.19850798212774
9.99457072618663 -6.00534395345123
12.652631149290647 -7.305
18.550683988426584 -10.282812045424809
34.399638217783796 -18.290612086138307
34.89181548721648 -17.778267969800652
13.13138101643083 -6.404602454588421
14.899926414150821 -6.6338746485663
11.883717658071005 -5.044338868796523
9.37382876967022 -3.787272659434869
8.038127472140907 -3.0855480455850355
6.96312232002358 -2.5343692620432057
6.155325927151552 -2.11944868551609
5.478085533860084 -1.779937887599697
4.934532540769264 -1.5086379963693215
4.556380438747632 -1.306521066572576
4.578488416610184 -1.226802273785948
4.279004152877144 -1.0668755595945343
3.6149129403532227 -0.8345684116157387
3.511549886634362 -0.7464029700357562
3.4945927730736837 -0.6792800235404998
3.308954050121019 -0.583457876960886
3.1210951562806355 -0.49433290952712955
2.7826532731638127 -0.3910764136977838
2.5905454557838508 -0.3180789862874348
2.4465238626059524 -0.2571400196384273
2.3510194874965196 -0.20568755288447302
2.2544947535872026 -0.15764963066172288
2.1570397950698794 -0.11304566548475883
2.08872682846991 -0.07293994810822713
1.9896969133612186 -0.034730288810194236
1.94 0.0
1.939704528603399 0.03385766848833006
1.8388791217151363 0.06421507393260188
1.7875468672106871 0.0936813616748696
1.7357614474520942 0.1213762643147782
1.68356903977505 0.1472932052435425
1.6310159084039682 0.1714266797589519
1.5781483811097021 0.19377225601418444
1.5250128258620184 0.21432657547850073
1.4716556274867554 0.233087352909944
1.46736355198819 0.2587357847237262
1.413543144164636 0.27476495334222456
1.3596251650199898 0.28899725023668554
1.3543743900514769 0.31268196553797245
1.2516814868960355 0.3120792453235715
1.246044315912898 0.333876568182252
1.2400275877604314 0.35557218900392884
1.233633135192316 0.3771594990923304
1.1793100802059904 0.38318107302493476
1.1724430337431528 0.4037045115268743
1.1652188497745264 0.42410497772382927
1.0642816862068099 0.40853946248164236
1.0569895942061374 0.4270515164941398
1.049375532935782 0.4454334864777722
1.041441821712565 0.46367977310641234
1.0331908772217808 0.48178481838439724
0.979685510466092 0.4778245500000946
0.971197111365321 0.49484964471610604
0.9182654965732839 0.48825042529732665
0.9096044954249716 0.5042020050561905
0.9006664199358163 0.5199999999999998
0.8914539927301968 0.5356395979064564
0.8395676151948618 0.5246200715908729
0.8302838622659697 0.5391926446648769
0.8207471968294913 0.5536009744360393
0.7700029216316522 0.5391618501699834
0.7604759747124505 0.5525181371549247
0.7507173794444552 0.5657061217629256
0.7407301083903185 0.5787217868061187
0.7305172037695528 0.591561167586847
0.7200817765318392 0.6042203531053469
0.7094270054094056 0.6166954872510767
0.6985561359487504 0.6289827699773268
0.6509047944410619 0.6069785404556236
0.6402124223013994 0.6182459497085077
0.6293250352560273 0.6293250352560272
0.6182459497085074 0.6402124223013996
0.6274384912574986 0.6728454054896369
0.6156001578501497 0.6836932394392027
0.551089584352026 0.6339560473871285
0.5720809726210201 0.6817795543758904
0.5600951480343553 0.6916599056967041
0.547938713039836 0.7013295707099825
0.5356153706053228 0.7107856039420908
0.5113731694944517 0.7038447851062043
0.5104830283524309 0.7290453194172029
0.4864978260195497 0.7212626881228863
0.47383596046307364 0.7296433941125188
0.46102975988288825 0.7378018436560906
0.47383502891724993 0.7885939166459432
0.4199999999999999 0.7274613391789285
0.43148056201924 0.7784115393540623
0.4319138377630194 0.8123117854302129
0.4176712597603831 0.8197260022532985
0.3813828977064972 0.7819508202802753
0.3888088008014435 0.833803164073718
0.3416587801836723 0.7673781844197846
0.3594726382101318 0.8468644651762451
0.31466953846936624 0.7788344378361013
0.30102907761805214 0.7842075582576494
0.2872969203935618 0.789341801460163
0.3288238360017281 0.95497376135531
2.0426023328184026 6.286483572710965
1.9471955534534255 6.368989674713817
1.8357447897412145 6.402002894949204
1.7366757926379157 6.481362294399648
1.6232959194737702 6.510684323311937
1.5094215746473352 6.538023134708928
1.4054830299280523 6.612277780960526
1.2994092585142707 6.684881119278591
1.1825440899117947 6.706540798013137
1.0653187069239725 6.726157599452888
0.9616861276340508 6.842752355004252
0.7324347538649364 5.965202371364345
0.6229896410752159 5.927350496394909
0.497659291089128 5.688271726103867
0.38087034664292496 5.44669971441864
0.2831375232743257 5.402585783022245
0.1905512519956559 5.456673915524263
0.09529013914756723 5.459168415553896
