# .PCD v0.7 - Point Cloud Data file format
VERSION 0.7
FIELDS x y
SIZE 4 4
TYPE F F
COUNT 1 1
WIDTH 177
HEIGHT 1
VIEWPOINT 0 0 0 1 0 0 0
POINTS 177
DATA ascii
1.2368932671388267e-16 -2.02
0.03525386100331287 -2.0196923442159105
0.07224195817417724 -2.068739011929528
0.10571863161074681 -2.017231660204239
0.1443959006503397 -2.064957584037836
0.18041238748765234 -2.062123025049913
0.22055505749474877 -2.0984411992270564
1.4331834784445345 -11.672342743301947
1.483585256234298 -10.55625761278514
1.612839334564781 -10.183066791535872
1.6513941696125083 -9.365521731146098
1.6333250004232245 -8.402728690312005
1.6653726434502532 -7.834962281877782
1.689382418122427 -7.317519186537116
1.7200646777136372 -6.898802613822335
1.7496167448930402 -6.529658585714102
1.7668354507869646 -6.161687470964624
1.7717725306197847 -5.795206821135994
1.7953887373184445 -5.525638359674842
1.8101589387817913 -5.257083280332201
1.8161269610593014 -4.989767816373173
1.84917861965375 -4.817275000725561
1.9517003516969025 -4.830627882292962
2.1724650744003617 -5.118006985195568
2.2817925676552404 -5.124990017374991
2.413150274539394 -5.175017463979271
2.7980505142039096 -5.262367653439204
2.9137058176804858 -5.256464439907768
2.9049999999999994 -5.031607595987588
1.9365431616618038 -3.222949050639942
1.9130085438818696 -3.0614536271246977
1.4759717848907234 -2.2727972391320987
1.5042289103363091 -2.230111070173062
1.5429206137843139 -2.203518999137388
1.681065821556473 -2.3137886039123496
1.721190966214858 -2.284097558735257
1.760791819431383 -2.2537107553152245
1.799856318402535 -2.222637449766937
1.9669300856408105 -2.344095995944073
1.9419347258119015 -2.2339403574594052
2.0007005130129865 -2.222003028177409
2.0050751785837457 -2.150179882760361
2.0561887765586317 -2.1292458090024073
2.1637467504308354 -2.1637467504308354
2.237146779053205 -2.1603875321274812
2.311077697116579 -2.1551148177974953
2.3854948897824357 -2.1479092464119347
2.4980887105373752 -2.171555385958579
2.612211551035715 -2.191905749031099
2.7277823247139676 -2.2089145725849293
2.8053182828399303 -2.191754852159343
2.883074191270727 -2.172552233578894
3.08235474856855 -2.2394618112343228
2.95713887988326 -2.0706109352272764
2.9513737582959485 -1.9907267363558585
2.9856672218857097 -1.938914964653496
3.146258436740341 -1.96600047030519
3.2229490506399423 -1.9365431616618032
4.035678381635484 -2.33
6.6750838020134875 -3.549205014661334
6.691458996654643 -3.4094686530439966
6.660063883076828 -3.2483301977070638
6.62510992323791 -3.089339493324512
6.632340022485283 -2.952908028730309
6.636839993392095 -2.817171436407663
6.638636398698198 -2.6821832088579294
6.684435853719965 -2.5659145187443504
6.681214533787808 -2.431763219045505
6.7226370725111435 -2.3147895781903842
6.714459005043784 -2.1816599802871286
6.703696339300879 -2.0495256501063843
4.43141641827565 -1.270688210316366
4.549510641821512 -1.2190377024328725
4.279004152877144 -1.0668755595945343
4.199534979224364 -0.9695390442220575
4.069094019052631 -0.8649126338018791
4.378057238176582 -0.85100811937939
5.327809943796045 -0.9394366411780932
5.145856254500668 -0.8150235628596029
4.268055376276168 -0.5998360651378819
5.022283527305089 -0.616658877630046
7.56831162375256 -0.7954616054668423
7.630851387382771 -0.6676129894470608
6.494141967191456 -0.4541146440742549
6.501078271252275 -0.3407070751415648
4.857039419312806 -0.16961155397415495
5.10922172224916 -0.08918179689451887
6.56 0.0
4.459320720397505 0.07783773271028457
4.407313547154213 0.1539067804580295
4.40395624826767 0.23080156703138263
4.449135664158816 0.31111387289879927
4.492838088393772 0.39307239979193886
4.535019842879326 0.47664979250050044
5.27042006521542 0.6471262134813328
5.109783234706503 0.7181332009539375
5.047087420441154 0.7993801163555798
4.983127230241772 0.8786597789946675
6.979369274312891 1.356651957127234
6.5144630208871455 1.3846918608462777
6.196993612034096 1.430688705626982
5.734447742291139 1.429758402994037
5.467140176796126 1.4649157952802683
5.200425775026305 1.4911980949699652
4.073858260402531 1.2455034621188583
2.339599030086078 0.7601818061623706
2.278699767194354 0.7846192522417477
2.264659216094039 0.8242685454148618
2.296607849183116 0.8815851558814388
2.3735906676909755 0.9589928791447351
2.2184166968203813 0.9416620196591501
2.155967280036538 0.9598984776588887
2.138886377406494 0.9973790977080504
2.7053700793604922 1.3194971518351233
2.5928289853881505 1.3211123542420813
2.4810827359335845 1.3192150914283536
2.3702194063477626 1.3138340708675733
2.260326303877385 1.3049999999999995
2.2200633088184705 1.3339486140170405
2.1540421642373224 1.3459949311523405
2.2140902993759193 1.4378470524396718
2.18865919154531 1.4762692651627716
2.1625613969229383 1.5142417919667621
2.2167065645873563 1.6105315912813765
2.228193073031947 1.6790639145942152
2.198550002562754 1.7176955161585867
2.2070945305377974 1.7872699105815377
2.229189329476226 1.8705119441878297
2.535824189548514 2.204358337408104
2.534123854877914 2.281735367683707
2.5670514926832886 2.3938142438193695
2.5248826991886646 2.4382508803110805
5.133595231414335 5.1335952314143345
4.97375393248642 5.150472970424744
4.780808504038114 5.126789448350385
4.657149020257654 5.172287985322663
4.50056493887488 5.1773077203282165
4.345244241481007 5.178460435484292
1.31527961729416 1.6242350594450692
1.255949409664343 1.6075419373577127
1.2577933983877805 1.6691482159988422
1.2284711772912689 1.6908455182436402
1.198774751973686 1.712027772563993
1.028914942386174 1.5254291335012768
1.0021358244276501 1.54315384501958
0.9750514461890971 1.5604084969278238
0.9476700578344999 1.5771878332918865
0.9199999999999998 1.5934867429633672
0.9162901822655771 1.6530312464934578
2.8215240923432026 5.306515033082151
2.5922857535128125 5.0876472531155805
2.5469363628445385 5.22199340899816
2.4554121007134637 5.265648242682936
2.4648240570393503 5.53608547331416
2.6608789850119536 6.268638052011118
0.5207031648481178 1.2887855578478342
0.4802130523907022 1.2509977715062504
0.45830699205639625 1.2591881118531172
0.4362613269725898 1.2669948913030846
0.4048122626311812 1.2458840363466512
0.3537697627145112 1.1571287547152729
0.34179032121307895 1.1919645029635155
0.33387656818225203 1.246044315912898
0.3120792453235713 1.2516814868960355
0.3306780498854818 1.4323239952342959
0.326421354583882 1.535691733152075
0.28048922320352104 1.442991959668066
0.2552628211703874 1.4476673969279459
0.22995866360913944 1.4519018606748526
0.2045844584112959 1.4556940610501083
0.1852414019758242 1.5086701504948095
0.1536568410034509 1.4619471861913618
0.13247672897644036 1.5142159410994533
0.10254201640386441 1.4664191538819416
0.07693385567712731 1.4679854160892236
0.05130226015267659 1.4691045157180707
0.025655037462806562 1.469776111879895
