# .PCD v0.7 - Point Cloud Data file format
VERSION 0.7
FIELDS x y
SIZE 4 4
TYPE F F
COUNT 1 1
WIDTH 180
HEIGHT 1
VIEWPOINT 0 0 0 1 0 0 0
POINTS 180
DATA ascii
5.939536975864663e-17 -0.97
0.01692883424416509 -0.9698522643016995
0.033852511801426045 -0.9694091022085228
0.05076587755565565 -0.9686706487119366
0.06557108531947792 -0.9377102072442347
0.0845410704652284 -0.9663088571489932
0.10139260936962385 -0.964686238507225
0.11455718280083864 -0.9329933825428426
0.1349979079312635 -0.9605600266793233
0.14704839713781706 -0.9284270401594295
0.16322928700691458 -0.9257192878314755
0.1793604556539522 -0.9227295524408041
0.1954369893686939 -0.9194587446897772
0.21145399108323323 -0.915907860898121
0.2274065818636876 -0.9120779826994366
0.2432899023963695 -0.9079702767117241
0.2590991144679792 -0.9035859941820197
0.2894479876755094 -0.9467417084034051
0.29047597471245057 -0.8939931253174442
0.3223124729125852 -0.9360633898433236
0.33859994189241216 -0.9302956945780492
0.35478427004984736 -0.9242446222322297
0.3895908571525487 -0.9642712087494588
0.4063603736288447 -0.957325047590538
0.4230061087988324 -0.9500872759483048
0.46065390529736244 -0.9878754878699485
0.4559059926606406 -0.9347458081511336
0.47215011972912874 -0.9266467851559026
0.48825042529732654 -0.9182654965732839
0.5042020050561906 -0.9096044954249716
0.5449999999999999 -0.9439676901250382
0.5613915016519592 -0.9343123577653024
0.5776119980141934 -0.9243724248105044
0.5936565481663796 -0.9141509190605122
0.6095202647831142 -0.9036509540849954
0.6538771374401925 -0.9338333304894506
0.699464450228043 -0.9627302233061874
0.7161598775509374 -0.9503762569562785
0.7018540818712505 -0.8983322591116629
0.7488912653493065 -0.9248036941337954
0.7970566360113088 -0.9498951094675328
0.813513195948229 -0.9358398794762373
0.8631784822029271 -0.9586568248658386
0.8797778844806232 -0.9434462750887298
0.8961092978921065 -0.92794834243686
0.9121677477306463 -0.9121677477306462
0.9639153324537927 -0.9308422164150564
0.9800139601696887 -0.9138778024837481
1.032971307413578 -0.9300915428388127
1.0867817955207917 -0.9447250017463305
1.1031039980913282 -0.9256141579486165
1.1579474825708866 -0.9376873826642577
1.1741360228740159 -0.9173355982352307
1.2298986854728309 -0.9267951356541544
1.3025173609436655 -0.9463342561908819
1.507239761491745 -1.0553806428859247
1.5254291335012768 -1.028914942386174
1.5850873734168514 -1.029367776178401
1.602810901735645 -1.0015474094007573
1.6800479093761402 -1.0094746268237058
1.7666918237202547 -1.02
1.845447582064125 -1.022948298719771
1.9071668005752824 -1.0140585756175242
1.969124418456293 -1.0033190044243985
2.076214246951076 -1.012637349082769
2.1842017667583264 -1.0185100107950855
2.1559672800365384 -0.9598984776588884
2.2184166968203813 -0.9416620196591495
2.234513089505958 -0.9028018901323478
2.3432868705079763 -0.8995035533587037
2.4995823712905163 -0.9097735812462789
2.6096312686541143 -0.8985681063017524
2.7675744624188967 -0.8992394536310969
2.8784773154487366 -0.8800388312154375
3.0856500439620036 -0.8847959121725671
3.3421033589601765 -0.8955138960547215
3.502767571856347 -0.8733380431148001
3.761068450071008 -0.8683110697673183
4.118001399089321 -0.8753082183427671
4.427138597348964 -0.8605485691482173
4.8354060672899415 -0.8526125523446281
5.2446250885601815 -0.8306670093636258
5.802970882825603 -0.8155543716259833
6.56073006234914 -0.8055563599080245
7.56831162375256 -0.7954616054668423
8.427807145856168 -0.7373375836451873
9.835981535561867 -0.6877988311170742
12.642649909992905 -0.6625732060356698
12.602318328710798 -0.4400826534185378
12.658071820679913 -0.22094746549600958
18.36 0.0
18.357203683071344 0.3204261821885257
18.348815584070596 0.6407547594579187
18.384769734831703 0.9635049544325973
18.365154165283364 1.2842166816293485
18.339944391869036 1.6045372239843891
17.314626198361637 1.8198405454898494
8.148803904975255 1.0005473093562605
7.040805968752566 0.9895207478260651
6.1829290121255625 0.9792797511518452
5.426290719097266 0.9568014589447862
5.4382145963000585 1.0570818343860586
4.460353059346153 0.9480773101289828
4.2774845844071825 0.9875351285695677
4.133459793935745 1.030587275254585
3.82506627210471 1.0249234186059828
3.2298392983527515 0.9261415155451169
3.0219230288431924 0.9238945869238481
2.8626801140484117 0.9301411530685916
2.6569071974340805 0.9148465140246104
2.4995823712905163 0.9097735812462789
2.3432868705079763 0.8995035533587037
2.2345130895059575 0.9028018901323482
2.0803409688025147 0.8830523503857589
2.018935461390148 0.8988879811975187
1.9123094306473312 0.8917245322728756
1.8065760330613254 0.8811260050460458
1.746372787409201 0.8898213794895117
1.6687709505033717 0.8873012536653339
1.6093002611364882 0.8920497012532602
1.5501854727741453 0.8949999999999997
1.4486127381865697 0.8704143465979917
1.43320128250436 0.8955635565541162
1.3334862030332242 0.8659760656738933
1.2767178617347643 0.8611570713449501
1.2614941482050472 0.8833077119806113
1.2458861713374192 0.9051892885304087
1.1500351344681015 0.8666136333389498
1.1347354851936795 0.886552524468948
1.0802328864251896 0.8747553435592738
1.0264995537794306 0.8613353969799628
0.973575358487376 0.8463161473977543
0.9586568248658385 0.8631784822029273
0.94344627508873 0.8797778844806231
0.8919813524199272 0.8613763793691567
0.8414570696119916 0.8414570696119914
0.7919105423232566 0.8200473723860624
0.8115780484743732 0.8703109049268128
0.7628088912490985 0.8471851010442293
0.715104341599653 0.8226334424428215
0.700638494558328 0.8349884429996861
0.6859592262443228 0.8470890979880984
0.6710710081049677 0.8589317214313269
0.6559783752357325 0.8705127059515494
0.6112966623841721 0.8413776741499454
0.5965194938050878 0.8519181260605516
0.5815606196095767 0.8621990754572434
0.5391926446648769 0.8302838622659697
0.5511160348025331 0.881970020002683
0.5098876941609537 0.8485956276950911
0.4949999999999999 0.8573651497465943
0.47996152404387377 0.8658735100680017
0.4413032690187372 0.8299707372873913
0.426751069755174 0.8375461327370658
0.4120688779817326 0.844866403521217
0.39726116603625744 0.8519293198144509
0.36199561233746236 0.8130554573019146
0.36728726077991725 0.8652745622452939
0.35213019781095745 0.87155282329278
0.3189474750953171 0.8308865795825096
0.30439792755984524 0.8363264324994584
0.2734772497440115 0.7942356035034261
0.27502512499370324 0.8464402995026866
0.2455922319670987 0.8032959950089499
0.23153537888627929 0.8074598245881879
0.2174079978861176 0.8113776940828172
0.21531048708370423 0.8635631963856368
0.18895888564884672 0.8184708544195975
0.17464582028691775 0.8216439846163968
0.1602795561162977 0.8245668340960377
0.14586446924022137 0.8272385125302548
0.13140495063379398 0.8296582060999157
0.10994674975845155 0.7823117743058406
0.09627678129006652 0.7841114597966444
0.08780390914482909 0.8353983921093495
0.07321082390803284 0.8368035463970662
0.05859543794506538 0.8379538022182523
0.042915484119213865 0.8188762184987505
0.028617587296050885 0.8195004781556585
0.013787401085453867 0.7898796791735492
