# .PCD v0.7 - Point Cloud Data file format
VERSION 0.7
FIELDS x y
SIZE 4 4
TYPE F F
COUNT 1 1
WIDTH 179
HEIGHT 1
VIEWPOINT 0 0 0 1 0 0 0
POINTS 179
DATA ascii
5.272104470329355e-16 -8.61
0.14590211781569087 -8.35872673150743
0.2847798930924088 -8.15502914847582
0.41921100950598117 -7.999022573384136
0.5482858836288261 -7.840853435042218
0.6676129894470614 -7.630851387382771
0.7850087591400774 -7.468859434215732
0.8969583674618856 -7.30513967608013
1.003438057922072 -7.139832775626722
1.1044273231840303 -6.9730796846016725
1.2085913165618356 -6.854261960964968
1.308949708283098 -6.733962478450975
1.395087445387166 -6.563370400923835
1.4869264692129487 -6.4405861282304055
1.5144310664539196 -6.074051246487738
1.5813843655764017 -5.9018067986262075
1.684144244041865 -5.8733089621831285
1.7863911158559218 -5.843022058934147
1.9189955350684236 -5.9060609661929035
2.054335054624659 -5.966222212031688
2.175248111551254 -5.976445068198378
2.2971385565853755 -5.984250533847064
2.438688923137588 -6.035966893229785
2.5631962028896353 -6.038511838648009
2.6885292107310406 -6.038535475017591
2.8146376231930583 -6.0360098616640885
2.9414703949547096 -6.03090805066741
3.091675303226314 -6.067754429722785
3.2205749207112113 -6.057020487012239
3.3500344759021896 -6.0436221763332245
3.479999999999999 -6.027536810339694
3.61041690511948 -6.008742777921807
3.7147340422747663 -5.944817154056546
3.845151587206091 -5.921014209694692
3.9758615436770106 -5.894457140866346
4.10680728427349 -5.865128637109182
4.237931669028732 -5.833012529443371
4.369177068083871 -5.798093802943346
4.46970231086428 -5.720958071184801
4.6003320585743115 -5.680936978250457
4.698777426808602 -5.599784879199729
4.828594453370134 -5.554662510439602
4.85788820216531 -5.395231432965882
4.9172081760506146 -5.2730601886742186
5.00848685100937 -5.186439960441675
5.062884553295681 -5.06288455329568
5.186439960441675 -5.00848685100937
5.821575464888598 -5.4287069460974875
6.807206601372933 -6.129236354247141
7.365965502974254 -6.403136122947351
7.32338487621743 -6.145049548603316
17.882128573124902 -14.48066219805676
18.998939269458067 -14.843598170101618
22.01039465690339 -16.58602203807045
22.29650836497355 -16.19936155318056
23.313067180464706 -16.32398537855077
22.68246798510594 -15.299517838959632
22.987960267384075 -14.92855594976189
20.280578334611977 -12.185800852371878
19.970545811269155 -11.53
15.708169940223549 -8.707180779624213
13.29719074845544 -7.070241735555515
7.315163563586501 -3.72726200286168
6.705003585391786 -3.2702487550465174
6.489163755182414 -3.0259467540634075
6.540985476721023 -2.912234364422729
6.636839993392095 -2.817171436407663
6.684995591426537 -2.7009135385287246
6.8244729176945444 -2.619669711176145
6.869153057944989 -2.5001672477106385
6.86446485885104 -2.3636248013589576
6.857117482488057 -2.2280125294433706
6.847142052695335 -2.093381405814795
6.834570658121447 -1.9597815998588637
6.867732624915276 -1.8402034106789222
6.850287827508534 -1.7079685829336533
6.830334154144499 -1.5769068909504926
3.97127925897925 -0.8441214647201031
3.9363250056251324 -0.7651440714599449
3.8505983142777334 -0.6789643746776978
3.8618614117269887 -0.6116587583073028
6.694212144693015 -0.9408101624900421
6.659984677513271 -0.8177432942485393
6.6235158231527 -0.6961595653625716
6.584846954386438 -0.5760994595620199
3.252058803847027 -0.22740610440584808
3.205600806562182 -0.16799841953984992
3.1081054720293877 -0.10853743474477816
3.0095415624207376 -0.05253174337622344
3.06 0.0
6.20905418692119 0.10837944397553076
6.15624749443763 0.21498089968740627
6.051694980612717 0.31715589483224005
5.995359942061543 0.41923640720219363
5.98713013553139 0.5238060139134263
6.0765287807001505 0.6386689105653636
6.114084294110544 0.7507151553757082
6.496158530944701 0.912975542298029
6.578004348363618 1.0418535371679376
6.657300410362526 1.1738616810284492
6.733962478450975 1.3089497082830979
6.856814681143977 1.4574609526324933
6.927771160623023 1.599401996384881
7.0443469727637344 1.7563529620535885
7.157510372801996 1.91784912420968
7.267138421293691 2.083818409976513
7.373109668475004 2.2541858434123
7.522857043894665 2.444324425505834
7.620879719330494 2.624079324924683
7.761861047691602 2.825086383870024
7.898090408166327 3.031792853153241
7.9366937950917 3.206632439640208
4.059426403725261 1.723124276637698
3.9373809224396092 1.7530349316566993
3.8608711727761285 1.8003537950153794
3.7389832326045345 1.8236239706425628
3.6174864882047735 1.8432014289425598
3.4964724677213503 1.8591073886321283
3.332301084201098 1.8471246531385441
3.2562555182294894 1.8799999999999992
3.137232320569731 1.8850393541707986
3.019051222316877 1.8865125806702094
2.9018001650911667 1.884451061151994
2.8270181224126922 1.9068478008352467
2.7113932665965623 1.8985380043219633
2.596944551943581 1.8867906598588386
2.4837564362470803 1.8716447220028707
2.411312906036569 1.8839241144965144
2.2614947478397855 1.8313223379550265
2.190887107320277 1.8383725637035024
2.082998441414851 1.8107229200137995
1.9767652357698684 1.7798874129145632
1.8722654761450768 1.745915801759996
1.8055428988500137 1.7435925098520832
1.739482681718907 1.7394826817189066
1.639393754283233 1.697641928799217
1.5413162937412463 1.6528593656593251
1.4653960279258997 1.6274871677954932
1.3842845511699702 1.592437214270049
1.3241424759542713 1.5780515528250947
1.2334679664576813 1.523206084455663
1.1943832621317774 1.5287408619970404
0.6439420747726916 0.8545399957506035
0.6289302199529463 0.8656481839811938
0.6137267868956192 0.8764926873892214
0.5983364067136991 0.8870702026338947
0.5827637674660792 0.8973775077016036
0.5670136127295293 0.9074114628873758
0.5510907401537581 0.9171690117512601
0.5349999999999999 0.9266471820493495
0.5429867746758976 0.9795740719961233
0.5258081503201976 0.9889013040019983
0.5084693597082925 0.9979273070909721
0.45590599266064036 0.9347458081511337
0.47333245314958344 1.015064721481048
0.5043534374139924 1.1327963674768249
0.4962285331813776 1.1690411638845992
0.41581331869166255 1.029174078569134
0.3727026675271122 0.9709236435570898
0.372801956224979 1.0242649566566402
0.3385908806354428 0.9833393186232896
0.32137767414994534 0.9890987769469597
0.31868515814778287 1.0423721839997089
0.3004447178405291 1.0477752485727676
0.2821127591617479 1.0528591506550844
0.2636948662036378 1.0576223416408361
0.24519664923481302 1.0620633706159064
0.22662374299135757 1.0661808847998482
0.21752225472926118 1.1190549891303367
0.18927651365695394 1.0734404507833069
0.17833529014586325 1.125964708278457
0.15865733509447436 1.1289055983653902
0.1450245186521255 1.181129920453173
0.12438887128850787 1.1834810554882451
0.10371533386971318 1.1854716907291771
0.08301020375550928 1.1871012198091908
0.062279787929103055 1.1883691463579429
0.04327537591110134 1.2392446255036786
0.021640983982231386 1.239811141993925
