# .PCD v0.7 - Point Cloud Data file format
VERSION 0.7
FIELDS x y
SIZE 4 4
TYPE F F
COUNT 1 1
WIDTH 177
HEIGHT 1
VIEWPOINT 0 0 0 1 0 0 0
POINTS 177
DATA ascii
1.5834683112975277e-15 -25.86
0.031239807522737643 -1.7897273743299404
0.06072512426235188 -1.7389400390132266
0.0884477660505753 -1.6876839137352297
0.12137626431477828 -1.7357614474520942
0.160366566655691 -1.832998244488812
1.0829148794528898 -10.30324683601531
1.0736689153993495 -8.744331595960046
1.0660659533541015 -7.585453406560429
0.27219596917000183 -1.7185777126355397
0.3021478291404589 -1.713565490241242
0.3224672021863609 -1.6589499400265522
0.3617663420229014 -1.7019768252768217
0.3914148345583253 -1.6954039127263094
0.4209440983434217 -1.688314563720234
1.0378643708611082 -3.8733625634191635
1.0501783256627668 -3.662407061524995
1.026224683576806 -3.356629693430254
1.0382971010998234 -3.1955498947517156
1.0287953680846154 -2.987838698893841
1.0294806314102631 -2.828474788565584
1.024932335699559 -2.6700400197819967
1.0339141978279176 -2.559027438604333
1.0198082453570043 -2.4025176675108693
1.0209089741202588 -2.2929990986829276
1.0185100107950857 -2.1842017667583264
1.012637349082769 -2.076214246951076
1.0396382444035623 -2.0404049403913627
1.028142722501101 -1.9336552283610497
1.0374925873271614 -1.871686173278307
1.0199999999999998 -1.766691823720255
1.024925769071008 -1.7057629283972033
0.8531700154154599 -1.3653574348118458
0.8659760656738931 -1.3334862030332242
0.8891167165184877 -1.3181697403625163
0.9119865337981633 -1.302451750419497
0.9345785511450323 -1.2863370210561664
0.9388314361171953 -1.2458713956737768
0.948118672001514 -1.2135365605543518
0.9691534022167496 -1.1968047806437352
0.9898929189172706 -1.1797084424032263
0.990649133775666 -1.1396114661363856
1.3315699066541278 -1.4788582027000146
1.357176736524372 -1.455393866222149
1.4171030757363545 -1.4674531926908483
1.4778531726798843 -1.477853172679884
1.5393871727247137 -1.4865689127822541
1.5650969214650252 -1.4594764905337467
1.6274871677954936 -1.4653960279258993
1.6905494596990094 -1.4695722249387364
1.7542417747424597 -1.4719836261821748
1.8573788478821605 -1.5040757346091114
1.8833457011200656 -1.4714309260283231
1.9486706445153945 -1.4684286564909976
2.0549031657123664 -1.4929745408228818
2.080646192494039 -1.456884148331657
2.122336185740907 -1.4315338328851117
2.230863710734828 -1.448739833139972
2.2982103405839145 -1.4360812060719852
2.4514984800080413 -1.4730088942427546
2.5201339250127166 -1.455
2.632605318489581 -1.4592769569414745
2.7459670137912626 -1.4600565602641205
2.8155806164352426 -1.434609979176968
3.019947995565201 -1.4729270532113001
3.0905095537949765 -1.441128272535785
3.2522218292076595 -1.4479824493498485
3.4150730063085537 -1.4496124866952054
3.5789296786277993 -1.4459814505854198
3.7436575102537786 -1.4370554776766542
3.956105933508674 -1.4399048034010655
4.169736918392988 -1.435755561156061
4.384370540120658 -1.4245683440685075
4.695456351778505 -1.4355450701886372
4.91204726624481 -1.4085068882248655
5.3222513028527665 -1.4260929385148888
5.6374181696635395 -1.4055662134340687
6.002119599077049 -1.3856984947582076
6.5144630208871455 -1.3846918608462777
7.077531992657657 -1.3757328566648885
7.740588938675955 -1.3648746764620727
10.281835625595384 -1.6284827810688034
11.348472067778397 -1.5949237370023497
12.565634279779138 -1.5428658875091665
12.889003763972823 -1.354688883948788
12.910683287269023 -1.1295384260096486
12.878551888854332 -0.9005560760366561
13.191896154107921 -0.691357981969289
22.096531185392205 -0.7716278720922974
22.20661730942345 -0.38761794697206736
47.231210484922464 1.6493502141601981
46.645985568386145 2.44461251610791
22.07567450971308 1.9313712592881078
12.540921100593925 1.318103921805112
12.466379664615006 1.5306789531686518
12.091173119334576 1.6993035627223987
12.158443472726146 1.9257082646452421
12.122983439580281 2.1376090670799126
11.24944752231023 2.1866710870152044
10.280331283712297 2.1851518704946513
9.412414825825373 2.173027184961737
8.693849707432928 2.167620184573024
8.07513990777661 2.1637272170570747
7.459390760481354 2.138945881139913
7.038403003887942 2.151855746759342
6.524247701784754 2.1198565814121393
6.202601855931518 2.135727093238948
5.835491175080491 2.123945090052403
5.517460320598462 2.117954581812725
5.247860616848016 2.1202733187340628
4.979931257177702 2.1138554051269716
4.71389456143582 2.0987610782711297
4.495286623701784 2.096186578233869
4.278259660384034 2.0866466587160093
4.107540076508377 2.092896203799311
3.8937988845078677 2.0703695918857794
3.7696109377707954 2.0895294632617127
3.5593644095540435 2.0549999999999993
3.43724087581547 2.0653026803893173
3.315868055971626 2.071984323151831
3.153401335474794 2.047842771656502
3.0757293941792048 2.0746056718764705
2.9161812776688105 2.041932113409725
2.8396496502560655 2.0631262355465805
2.723347089261268 2.0521892289484853
2.6477161321185854 2.0686225570942116
2.533495834349725 2.0515844748224694
2.4590026624119194 2.0633482270937913
2.347146794492821 2.040343580160477
2.274023165960826 2.0475396554581065
2.164806956792745 2.0187151457849954
2.129245809002407 2.056188776558632
2.0435385976291225 2.043538597629122
1.9728297721035517 2.0429250329617696
1.9027754245743709 2.0404768275174856
1.8334178614232721 2.0362168218080603
1.79760173943399 2.0679042498103954
1.7290986700567912 2.060659551990051
1.6614058323715708 2.051665338246403
1.5945632210934553 2.0409478518414095
1.5286101588062024 2.028534195520124
1.4929745408228818 2.0549031657123664
1.4282053265141046 2.03968859027959
1.3644306844686223 2.0228516770343017
1.3289192454366663 2.046356185786834
1.2665070415173598 2.0268349498138583
1.2309409990350297 2.0486298486780483
1.1699999999999997 2.0264994448555864
1.1344545113764288 2.0466101147061857
1.0750898787796896 2.0219499876469427
1.016938719416585 1.9958546141819442
0.9951025032112053 2.040262485099109
0.9593434541513878 2.0573186765731952
0.9314269126435829 2.092019098001556
0.9416620196591498 2.2184166968203813
0.9402625494739395 2.327231474962636
0.9353403483132333 2.4366449131576964
0.9268745884125625 2.5465670023298115
0.9311249217474676 2.704183126214046
0.9146903033498445 2.815127288233654
0.9238945869238475 3.0219230288431924
0.9123596477542673 3.1817762135558354
0.9213958005649746 3.4386959415890828
0.9096263274547504 3.6483119307977465
0.8908061752017059 3.8585054565495316
0.8857038028836542 4.166908779126012
0.8796294686858721 4.525301315693731
0.8699773701113204 4.933886842591162
0.8463104558676493 5.343393922619695
0.8294716817219888 5.901997689699759
0.7994628927377675 6.511102754767072
0.7797823359766964 7.419133339447319
0.732979796507805 8.377997410951581
0.687798831117077 9.835981535561865
0.6337884301020487 12.093403665877888
0.6128351620959189 17.549302922455322
0.35358575441936124 20.256914303868488
