# .PCD v0.7 - Point Cloud Data file format
VERSION 0.7
FIELDS x y
SIZE 4 4
TYPE F F
COUNT 1 1
WIDTH 180
HEIGHT 1
VIEWPOINT 0 0 0 1 0 0 0
POINTS 180
DATA ascii
5.143516556418883e-17 -0.84
0.015532641729182404 -0.8898644486891882
0.032107536966301 -0.9194395608575682
0.04553228193136125 -0.8688076952364793
0.06068813215738914 -0.8678807237260471
0.07756861104541575 -0.8866132813016535
0.0878039091448289 -0.8353983921093495
0.10237024846032389 -0.8337387673787104
0.11690540480645499 -0.8318251777429191
0.13922667388580554 -0.8790426231296726
0.15454687812356807 -0.8764789001808652
0.16982000588512497 -0.8736481932684209
0.18504140482780593 -0.870551364653087
0.20020643836604 -0.8671893576588594
0.21531048708370423 -0.8635631963856368
0.21740799788611742 -0.8113776940828173
0.2590991144679792 -0.9035859941820197
0.26021081720323574 -0.8511112328071015
0.27502512499370324 -0.8464402995026866
0.28975565746686954 -0.8415115322833919
0.30439792755984524 -0.8363264324994584
0.3368658725725823 -0.8775656009073696
0.35213019781095745 -0.87155282329278
0.34775070435545363 -0.819249319572672
0.3823324444912523 -0.8587327301840446
0.39726116603625744 -0.8519293198144509
0.4120688779817328 -0.8448664035212169
0.4494505947421514 -0.8820964589464843
0.46477684715803197 -0.8741181169303376
0.47996152404387377 -0.8658735100680017
0.4949999999999999 -0.8573651497465943
0.5098876941609537 -0.8485956276950911
0.5246200715908729 -0.8395676151948617
0.5664245964156281 -0.8722173906632409
0.5815606196095768 -0.8621990754572433
0.596519493805088 -0.8519181260605515
0.6112966623841721 -0.8413776741499454
0.6559783752357327 -0.8705127059515493
0.6710710081049677 -0.8589317214313269
0.7174252457968145 -0.8859463960609467
0.7327778750426548 -0.8732906651556349
0.715104341599653 -0.8226334424428215
0.7628088912490983 -0.8471851010442294
0.8115780484743733 -0.8703109049268126
0.8266434608462067 -0.8560143624029948
0.8768124086713189 -0.8768124086713188
0.9279483424368601 -0.8961092978921065
0.9068785900077715 -0.8456779664774982
0.9586568248658387 -0.863178482202927
0.973575358487376 -0.8463161473977544
0.9881973316234817 -0.8291960164956357
1.0180612095086319 -0.824409712275287
1.0953349475133436 -0.8557694507026649
1.110103358965737 -0.8365228821813471
1.1649844718999243 -0.8464107633011613
1.2205365459905977 -0.8546288901630587
1.235265983107012 -0.8331974261714127
1.3334862030332244 -0.865976065673893
1.3907988776965388 -0.869067593342456
1.4057543731514641 -0.8446624428524886
1.4635829323957013 -0.845
1.5218382904225485 -0.8435687392286265
1.5804761912174794 -0.8403540973867446
1.6572721349903643 -0.8444223295155571
1.743660449820384 -0.8504400247708102
1.7763632625918337 -0.8283317930117707
1.881903642743758 -0.8378774847361483
1.942265240784649 -0.8244426811123674
2.0490763185926 -0.8278805714491653
2.1565707852085363 -0.8278299634496438
2.264659216094039 -0.8242685454148618
2.373251624754285 -0.8171760676874632
2.5298103333451087 -0.8219852050373602
2.68721636425613 -0.8215644902708902
2.797271535180508 -0.8021047054274675
3.0040293197590024 -0.8049272302688393
3.2116788539735484 -0.8007614744348999
3.8097869533102697 -0.8795586224845117
4.069094019052631 -0.8649126338018791
4.2602619761628615 -0.8281110399342047
4.293761803133227 -0.7571060546278164
4.750780918262612 -0.7524497768435104
5.2088100415806595 -0.732050511049944
5.816320448618148 -0.714154352354164
6.6235158231527 -0.6961595653625716
7.531231917573596 -0.6588974151722949
9.037930295354009 -0.6319936521217742
10.595459363746027 -0.5552844957376348
13.551739614378938 -0.4732371752859138
17.40734837267277 -0.3038463960731064
19.46 0.0
25.156168010134806 0.4391025459620538
25.144673207800448 0.8780713370349256
25.175450571162806 1.3193894568846158
25.148589707050167 1.7585607030894015
14.703833743834164 1.2864187629554364
11.248042636615171 1.1822169195571623
9.439113902108973 1.158977455782952
7.9815606340570575 1.1217351937381272
6.9730796846016725 1.1044273231840298
6.164896533856422 1.087037592194984
5.506928499141395 1.0704384640624167
4.900519479676365 1.0416375709969745
4.881594024574029 1.127004782262764
4.570092870759943 1.1394521282744354
3.9216588547336166 1.0508053231162349
3.6912449124031443 1.0584474463372766
3.6435211202191655 1.1139361949936268
3.433314023825504 1.11555134969356
3.2242183427936704 1.1101874066989044
2.7345055264869935 0.9952786170776962
2.5766819771322766 0.9890955407450288
2.4663090531476546 0.9964535384863263
2.310467182165625 0.9807351325080773
2.201644552918668 0.9802353098126788
2.0935709880546614 0.9762481846210156
2.031274544636117 0.9907187917433152
1.8800237660374561 0.9579199544504438
1.8188720412893895 0.9671114193389354
1.7404932172073975 0.9647711442902107
1.680089283341811 0.9699999999999996
1.620046198326992 0.9734219615800025
1.560408496927824 0.9750514461890971
1.4592867882250375 0.9476719209261473
1.4010734976180206 0.9450360068655621
1.3434093526339463 0.9406653556157158
1.3267878707749137 0.9639678137596559
1.2698304609751956 0.9568858868117571
1.2135365605543518 0.9481186720015138
1.1579474825708869 0.9376873826642576
1.1031039980913282 0.9256141579486167
1.1245172745319303 0.9775279531958556
1.0329713074135778 0.930091542838813
0.9800139601696887 0.9138778024837481
0.9639153324537924 0.9308422164150565
0.9475230867899738 0.9475230867899737
0.8961092978921064 0.9279483424368602
0.8456779664774982 0.9068785900077714
0.8297219518849843 0.9214995835919687
0.813513195948229 0.9358398794762373
0.7970566360113089 0.9498951094675328
0.7488912653493065 0.9248036941337954
0.7326371556375335 0.9377327967919991
0.6860691263933348 0.9104444814539139
0.6700751876134193 0.92227937358744
0.6538771374401923 0.9338333304894507
0.609520264783114 0.9036509540849955
0.5936565481663797 0.9141509190605122
0.5776119980141934 0.9243724248105044
0.5613915016519592 0.9343123577653024
0.5199999999999999 0.9006664199358163
0.5042020050561906 0.9096044954249716
0.46477684715803175 0.8741181169303377
0.47215011972912874 0.9266467851559026
0.43398743532118644 0.8898061058361754
0.4395229922103274 0.942560098518116
0.4230061087988324 0.9500872759483048
0.38682381720438097 0.911299804917916
0.35213019781095745 0.87155282329278
0.3368658725725821 0.8775656009073696
0.32149893472612867 0.8833110635387538
0.30603406518972714 0.8887874610633578
0.29047597471245057 0.8939931253174442
0.28944798767550917 0.9467417084034052
0.2590991144679792 0.9035859941820197
0.2432899023963697 0.907970276711724
0.2274065818636876 0.9120779826994366
0.20020643836604 0.8671893576588594
0.1850414048278057 0.870551364653087
0.1793604556539522 0.9227295524408041
0.1545468781235679 0.8764789001808653
0.13922667388580554 0.8790426231296726
0.13082271490246133 0.9308519846170761
0.10846371563058127 0.8833660749607766
0.09303033230821177 0.8851244868777632
0.0801832833278455 0.916499122244406
0.06208326163227166 0.8878320047312436
0.048149079743508245 0.918739171974208
0.032107536966301 0.9194395608575682
0.016056213922300708 0.91985987954388
