# .PCD v0.7 - Point Cloud Data file format
VERSION 0.7
FIELDS x y
SIZE 4 4
TYPE F F
COUNT 1 1
WIDTH 178
HEIGHT 1
VIEWPOINT 0 0 0 1 0 0 0
POINTS 178
DATA ascii
2.0267904525888696e-16 -3.31
0.05165912305435945 -2.959549177662918
0.09108768639352781 -2.6084100585198398
0.13293332885707768 -2.5365190182766177
0.17718144331007865 -2.5338126876599536
0.22137558657905168 -2.5303345331530336
0.27072871986322244 -2.5758117090038275
0.3095481322490746 -2.521067225168958
0.3562831384577676 -2.53508625597842
0.3848287839989681 -2.429713317864039
0.4098096992939558 -2.3241462971088107
0.42168787978216427 -2.1693960754193373
0.4386936676254724 -2.0638914375483295
0.4633991719483622 -2.0072023334575846
0.46207082059536525 -1.8532648371871532
0.4814034238906886 -1.796622036897667
0.48512174623791854 -1.6918205848514412
0.4999556150758799 -1.6352811326967907
0.49751736094366544 -1.5312009912351974
0.5078863209531645 -1.4750089779349342
0.5164504164217599 -1.4189358573867217
0.5411356038134035 -1.4097064440107747
0.5281952967164362 -1.30732923493917
0.5313943347454123 -1.251886600695319
0.5531618345830885 -1.2424218223939372
0.5536299228803163 -1.1872632010180115
0.5742662022936915 -1.1774202006519088
0.5493285046848517 -1.078117894267925
0.5680605909709279 -1.0683665873593016
0.5866196404980679 -1.058289845638669
0.6049999999999999 -1.0478907385791707
0.6489479743866684 -1.0800307988846614
0.6676982729338382 -1.0685406011570968
0.7134771358696855 -1.0986584440085054
0.7325427035466785 -1.0860392200471045
0.7513851316198703 -1.0730891780185794
0.7993879431177635 -1.1002631123499287
0.8184684314867857 -1.0861442936643184
0.8680826802091783 -1.111095162585478
0.9188077709327626 -1.1346331037271775
0.9063305296580204 -1.0801226647977589
0.9578461823261406 -1.101875987125247
1.010387215601876 -1.1221486864708654
1.063917441697498 -1.1409117745259059
1.0836670579160357 -1.1221700885282957
1.1384419177103418 -1.1384419177103415
1.194104068562161 -1.1531328949619355
1.2506148297687816 -1.1662171957068723
1.3079348928402141 -1.1776698671915904
1.3660243402032173 -1.1874668424728183
1.4248426642012992 -1.195584954016963
1.4843487863828144 -1.2020019469051895
3.2781247350039635 -2.5611517373547383
3.482050823806197 -2.6239135009429306
3.648666644631013 -2.650911487839054
4.226824548531198 -2.959654411571398
3.4487963018289736 -2.326242478438307
3.446936034255693 -2.238466433911761
3.4430752703950893 -2.1514722127868118
3.4372408758154704 -2.0653026803893164
3.4294605989863767 -1.98
2.5888743331326114 -1.4350364759291576
2.525230115576531 -1.3426886695676477
2.548278659178732 -1.2984128292551038
2.5256112701006592 -1.2318229224773076
2.501409492221154 -1.1664264024043303
2.5213854630935786 -1.1225931348892084
2.494568152856113 -1.0588813582059315
2.5590274386043332 -1.0339141978279167
2.530002955807417 -0.9711771432677638
2.574757780953389 -0.9371351927123325
2.5907208971421283 -0.8920567432126094
2.605894854648721 -0.8467065645873559
2.68721636425613 -0.8215644902708902
2.8933977047743396 -0.8296684410091673
3.100621902387909 -0.8308091347790914
3.745341503425346 -0.933818517014717
4.589283005138458 -1.0595194659596034
5.340685900006578 -1.1351978318649663
6.390392964244293 -1.242166559901307
8.823877466989385 -1.5558876718956962
8.948456365791948 -1.4172962532644917
25.56915792991831 -2.6874267906113687
20.182904583338765 -1.7657753480675527
15.571974824555857 -1.088898555145794
12.84237581694382 -0.6730403972842586
12.85216603546557 -0.4488075275941631
12.908033744469012 -0.22531056710533046
12.96 0.0
13.00801851398465 0.22705580774905879
13.002074659518435 0.45404245209953825
10.395733456795114 0.5448173044890461
9.486834117970927 0.6633840653066325
8.726665555283692 0.7634843064694866
8.11529866620511 0.8529522602640535
8.099176597393189 0.9944538421860031
8.130100844368293 1.142611158882137
6.676773182423132 1.0574969836719605
6.361858084458864 1.1217672277283701
5.9486607316928435 1.1563025119818617
5.63413018022672 1.197571339110294
5.46621606344517 1.2619754148690832
5.152270306525541 1.2846052656342362
4.935880972337139 1.3225653204738819
4.67173184226023 1.3395975492706158
4.456380162787746 1.3624521440079531
4.241712062676385 1.3782157949122653
4.169736918392988 1.435755561156061
3.956105933508674 1.4399048034010655
3.8836945742283593 1.4908106701084494
3.6716480640844775 1.483442109927012
3.5531487343264194 1.508222155968597
3.4806081936183095 1.5496666101187992
3.317086500554139 1.5467828379709598
3.199706804825034 1.5606012825691162
3.216533552320008 1.6389057040597639
3.187440810220726 1.6947923416570663
3.244839113487158 1.7986436911139105
3.2129542480402677 1.8549999999999993
3.222949050639942 1.9365431616618038
3.188660841548162 1.9924964335168502
1.6437943131730308 1.0674925086294533
1.6249136422078818 1.0960180908026638
1.564580404591974 1.0955309934304984
1.5047716095374024 1.0932805692640002
1.4854620486879646 1.1193759430628103
1.4262994640281668 1.1143472703394415
1.4066341902371176 1.1390699078002056
1.3482382198894014 1.1313061930483093
1.29055338218094 1.1218609395737673
1.270777651566344 1.1442133368736478
1.2140471446878232 1.1321172777037474
1.1941040685621604 1.1531328949619355
1.1384419177103418 1.1384419177103415
1.1392397275527553 1.1797172725553882
1.0843773924993727 1.162852385574481
1.077300276237762 1.1964631690186047
1.0562550366747168 1.215082424158663
1.0670274320796556 1.2716337755775033
1.0761378686952219 1.3289195940914202
1.0835641965731588 1.3868989263478306
1.0892851919052071 1.4455302731856003
1.1226698318786237 1.5452224592561496
1.12420981524805 1.6055380068064242
1.1519373811497384 1.707817399463386
1.5848995918937292 2.440531352721184
1.5685610221302866 2.510222364623021
1.6275203167157715 2.708648670218675
1.7799999999999996 3.0830504374726018
1.750162729089277 3.1573771427732185
1.6947923416570652 3.187440810220726
1.6162061790727869 3.17198322611059
1.538682725229661 3.154767102510076
1.5045210117968901 3.2264557218504737
1.4276456171960592 3.2065445563255284
1.351929704572887 3.1849467929454436
1.296138813219056 3.2080561368010843
1.2399531054267385 3.230188275680318
0.6874604880845943 1.8887821677796754
0.6153238119240259 1.7870301078827087
0.5685912696499034 1.7499439899830826
0.552582521925972 1.807415988770137
0.5209546024941284 1.8167846053234227
0.4891679952437646 1.8255998116863388
0.4572323826833719 1.8338589226616333
0.4296565137967824 1.8610468237397992
0.4075069140028081 1.917169297438259
0.36444518116920077 1.874907920385038
0.3368774646738446 1.9105270408436836
0.303482862178048 1.9161153807545672
0.2699958158625266 1.9211200533586466
0.23886391307408908 1.945390457216991
0.2132380650660135 2.0288246665512775
0.1777977152052226 2.032237184107161
0.2225231512437602 3.182229320328839
0.17061521735199658 3.2555322832999103
0.09806758573402803 2.8082882239236593
0.03473028881019392 1.9896969133612186
