# .PCD v0.7 - Point Cloud Data file format
VERSION 0.7
FIELDS x y
SIZE 4 4
TYPE F F
COUNT 1 1
WIDTH 180
HEIGHT 1
VIEWPOINT 0 0 0 1 0 0 0
POINTS 180
DATA ascii
4.8373548566320456e-17 -0.79
0.012914780763589862 -0.7398872944157295
0.025825627559850798 -0.7395492119941308
0.03872860761977853 -0.7389858557183846
0.051619790570652836 -0.7381973971922698
0.06449524963326703 -0.7371840765878916
0.07735106281806356 -0.7359462025725222
0.09018331411980914 -0.7344841522145783
0.10298809471044844 -0.7327983708687621
0.11576150412977088 -0.7308893720404019
0.12849965147352851 -0.7287577372290339
0.14119865657864322 -0.7264041157512713
0.153854651205142 -0.7238292245430161
0.15521622749726693 -0.6723153447018123
0.17902220274375408 -0.7180188374442373
0.19152609337586535 -0.7147851114539105
0.20397164330457937 -0.711333654994356
0.21927877854205258 -0.7172285669722765
0.24721359549995797 -0.7608452130361228
0.24417611584286758 -0.7091389316994876
0.2565151074942516 -0.7047694655894312
0.25802492367261626 -0.6721779070779852
0.2884470769302524 -0.7139315680164262
0.28914103508206257 -0.6811735915548058
0.3009851158760923 -0.6760236386555245
0.29160660060108257 -0.6253523730552885
0.33754578302758964 -0.6920714156503586
0.3359529698072647 -0.6593448278993922
0.3474089564615592 -0.6533812187156058
0.35875911898228946 -0.6472185832831528
0.3949999999999999 -0.6841600689897066
0.38112817543344013 -0.6343038025195631
0.39214025553257165 -0.6275555911557552
0.40303288591112 -0.6206162202796137
0.4417623937418901 -0.6549396823184829
0.4531253847173264 -0.6471301149883035
0.4643503493110538 -0.6391234255562085
0.47543386829011813 -0.6309220529373614
0.48637256550727015 -0.6225284953493103
0.49716310892937154 -0.613945309551007
0.5078022116523662 -0.6051751100639926
0.5182866329025008 -0.5962205683759899
0.5620697093414408 -0.6242416534010111
0.5728786224524988 -0.6143371093601031
0.5487801126626078 -0.5682784422675344
0.5939696961966999 -0.5939696961966998
0.604245432284467 -0.5835130311855576
0.6143371093601032 -0.5728786224524987
0.6242416534010112 -0.5620697093414408
0.6716915263982671 -0.5838925358015515
0.6817795543758904 -0.57208097262102
0.6916599056967041 -0.5600951480343553
0.7013295707099826 -0.5479387130398358
0.7107856039420907 -0.5356153706053229
0.7604759747124505 -0.5525181371549247
0.7700029216316523 -0.5391618501699833
0.8207471968294913 -0.5536009744360393
0.8302838622659698 -0.5391926446648767
0.8395676151948618 -0.5246200715908729
0.8485956276950912 -0.5098876941609535
0.8573651497465942 -0.495
0.9533354807819414 -0.5284424860685074
0.9624128762162305 -0.511724003436621
0.971197111365321 -0.49484964471610604
0.9796855104660921 -0.4778245500000944
1.0331908772217808 -0.48178481838439724
1.041441821712565 -0.4636797731064121
1.1138108726774527 -0.47278466547202114
1.1218924640258128 -0.45327397803325337
1.15763972885653 -0.4443762574361724
1.2122034808138218 -0.4412059848901127
1.2197189625231188 -0.41998291924973213
1.2744157318355058 -0.4140827724624295
1.3292636107886193 -0.406396669564604
1.3842168421511791 -0.3969177923764787
1.4392294811707118 -0.3856403772027558
1.4457406321512347 -0.36046362444350477
1.549248403008524 -0.35767217640674515
1.555254685166751 -0.33057958840023743
1.6589499400265522 -0.3224672021863608
1.6840212576508757 -0.2969383838104509
1.7383314794474425 -0.27532465847080634
1.841898607859321 -0.2588619677857217
1.8957631496349252 -0.23277044590383159
1.9790985717828637 -0.20801164190263025
2.101970812973583 -0.1838986171975585
2.2046165510742117 -0.15416180697451665
2.306834225283066 -0.12089605892120042
2.408531893116021 -0.08410778705302746
2.609602484358181 -0.045550780801310024
2.76 0.0
2.959549177662918 0.05165912305435927
3.158075013380343 0.11028240957990322
3.405326713513097 0.17846561078843873
3.700962626463948 0.2587965175907052
3.9947407393478995 0.34949452841810974
4.385841558574086 0.4609705230103524
4.873401604558891 0.598378476119274
5.456377058766052 0.7668437862899604
6.232313429155319 0.9871014744038568
7.1989446745192405 1.2693681787452609
8.549972767829153 1.6619463497297058
10.573775563932438 2.2475253777399793
16.23300527932202 3.7476845653687922
17.960173893368697 4.477974287549852
11.697361756360616 3.134298636191528
11.640879137813041 3.337968378943859
11.819926783703119 3.6137142703730256
17.699161768252807 5.750806265317771
17.54882476312332 6.042544946724828
17.487679672825752 6.3649948672906955
17.373931737112922 6.669227541038039
15.446883017082676 6.240945846309096
13.310500180922286 5.649972117954901
11.885226403930236 5.291643726416162
11.428541194532155 5.329216280550219
9.176687212714494 4.4757694087164825
8.295270740193706 4.226651552575181
7.646326154158307 4.065623733725816
7.617937649184138 4.222691792345596
7.543081266962462 4.354999999999999
7.594502284220714 4.56323734370308
7.513706131945934 4.695084681106195
7.514488288790999 4.879965753734644
7.469628528720926 5.038328060271429
7.421517521258265 5.19660251334048
4.295880240130971 3.1211396896730323
4.041095680839301 3.045184017149365
3.8297322625286685 2.9921147700826993
3.621500180389485 2.932633022292242
3.416558216310642 2.8668327392019655
3.2150628117490085 2.7948114634995602
3.1286397152598293 2.817039852770794
2.9327283434928737 2.7348134238506185
2.776651629307193 2.6813813099717296
2.6587214972614186 2.658721497261418
2.5077167173569794 2.596816679222531
2.4279141618224944 2.603619177764247
2.281735367683707 2.534123854877914
2.171555385958579 2.4980887105373752
2.0954876075781184 2.497304884567868
1.9886524357174862 2.455781238204028
1.8839241144965146 2.411312906036569
1.8114632196876648 2.403892885242352
1.7104550841710968 2.3542394536310973
1.6404286079639914 2.342774846666517
1.5881078458569209 2.3544667060563182
1.5304356883922265 2.3566642959266413
1.4254828207873211 2.2812493786607857
1.3597005177625434 2.2629216738535765
1.2949999999999997 2.2430057958016962
1.2556569164380131 2.265265041491035
1.1924577694761622 2.2426868858616746
1.1304363443514718 2.218606245229036
1.0696255981653484 2.1930574729699677
1.0100576455602717 2.1660756110175936
0.9721005769511629 2.1833736437658158
0.9143108406649004 2.1539813570787105
0.8578490989224389 2.1232510269579428
0.8206626044587374 2.137899176678592
0.7661251210494983 2.104911470560435
0.7129942582611728 2.070685680562504
0.6767472176811349 2.082813770686386
0.640294033342793 2.0943074155590478
0.5898639414483783 2.0571000293080024
0.5409318042642688 2.0187849769441524
0.5056167618033054 2.0279180679168327
0.4589001508614849 1.9877149321618799
0.43453543380911674 2.044328485533654
0.38543417066062075 1.9828869105642812
0.34555987355719114 1.959767428494294
0.3113045854300595 1.9654997977843243
0.2769544709105298 1.970633456795725
0.2425199933762435 1.9751668417662307
0.20278521873924812 1.92937247701445
0.16472435379307387 1.882807979393399
0.1318397353763971 1.8853960549910675
0.10153175511131086 1.9373412974238733
0.06700703366880208 1.9188303878766637
0.03350862035958408 1.9197075747002712
