# .PCD v0.7 - Point Cloud Data file format
VERSION 0.7
FIELDS x y
SIZE 4 4
TYPE F F
COUNT 1 1
WIDTH 180
HEIGHT 1
VIEWPOINT 0 0 0 1 0 0 0
POINTS 180
DATA ascii
1.0164568432923031e-16 -1.66
0.02897099468589077 -1.6597471739596095
0.05793316452615179 -1.658988772851699
0.08687768736328698 -1.6577250276925926
0.11928357010245452 -1.7058345259442993
0.15339410723587832 -1.753302668641472
0.1787436721876874 -1.7006324410797473
0.21449004439305958 -1.7468812268887266
0.2519033127377185 -1.7923852044222424
0.283146381722818 -1.7877158964771993
0.32298561046049057 -1.831742420602707
0.35490473140037354 -1.8258265612126552
0.40750691400280853 -1.9171692974382588
0.43640504542709835 -1.8902779256833564
0.46207082059536525 -1.8532648371871532
0.5202262806560667 -1.9415109108410271
0.5540310851921683 -1.9321360088360209
0.5876671264927008 -1.922172559485701
0.6674767078498866 -2.054282075197532
0.7032272136274587 -2.0423201232945245
0.7558645167497281 -2.0767206919368575
0.7919931684951138 -2.063212742558816
0.8653412307907572 -2.141794704049279
0.9025889068102223 -2.1263662114751374
0.9802353098126789 -2.201644552918668
1.0396409238821207 -2.229517156110159
1.1003115784405844 -2.255973056210909
1.1849152043202174 -2.3255270281316403
1.2487943570104698 -2.3486405970047457
1.3138340708675735 -2.3702194063477626
1.3799999999999997 -2.3902301144450506
1.498760797988258 -2.494356845043147
1.5950569853419467 -2.552624769430842
1.666595447145983 -2.5663319379129974
1.7950092201410977 -2.6612106079016837
1.86985918250441 -2.670435664382113
2.0043477103173335 -2.758747950818571
2.1424614824212918 -2.8431424157683627
2.2533209996919097 -2.884119358200602
2.4291767094523724 -2.9997834112239077
2.513299553874369 -2.995233772595204
2.696402609150985 -3.1018563747155934
2.8839529134066786 -3.202954197807569
3.0758126038818685 -3.298405194302458
3.897033458274975 -4.035496279899832
3.9315137033972043 -3.9315137033972034
4.035496279899833 -3.897033458274975
4.4320034318121735 -4.13291006197874
4.912187296405577 -4.422953308032052
4.950894846261384 -4.303747230177727
4.986949324704547 -4.18454733905937
5.059220209084881 -4.096875745734441
9.227605924734716 -7.209395876063458
10.709702189734196 -8.070339460468967
14.368141820099067 -10.439066080714325
14.589097908786943 -10.21539633141213
18.578732000958485 -12.531512966779436
25.378171386028534 -16.480777199554716
30.87743118105547 -19.294360410730988
33.266662940248985 -19.9886276872592
20.057148351647598 -11.58
9.01732918060717 -4.998387184739736
9.147337062018483 -4.863725390461829
9.141726938172654 -4.65794252732775
9.221626915029454 -4.497687966055934
9.208087116292363 -4.293801539285506
9.281621849648825 -4.1324442936501296
7.603370089517157 -3.2274391213214004
6.731354784154877 -2.7196438681995203
5.9375715125222035 -2.2792201591081103
5.365644864687536 -1.9529350183895686
5.16253142277227 -1.7776021233360755
5.240321404786296 -1.70268363900596
5.2692392053563255 -1.6109680930222792
3.950785570306491 -1.1328695324078664
3.7284736894758037 -0.9990415140957298
3.502767571856347 -0.8733380431148001
3.3226019209176525 -0.7670830953125792
3.139853798355516 -0.6673965275250077
3.052860540522235 -0.5934159756210545
2.8657905612655257 -0.5053161970107674
2.824788654102094 -0.4474025700150603
2.6341130628525775 -0.370200448553774
2.5905454557838508 -0.3180789862874348
2.4465238626059524 -0.2571400196384273
2.3510194874965196 -0.20568755288447302
2.304372956100194 -0.16113745434892918
2.206971271807608 -0.11566246329690602
2.108714645010292 -0.07363793804227714
2.059686252022166 -0.035951957260804086
2.01 0.0
1.9097090977487072 0.03333409629521155
1.9088364796064727 0.06665803870177694
1.8075194579057787 0.09472808079972847
1.7557127284572907 0.1227713937896607
1.703492933736885 0.14903632009849568
1.6509063463113336 0.173517249024305
1.6476266117245946 0.20230311005254473
1.5943315906739284 0.22406869254570533
1.540793811328415 0.24403776546276015
1.4870597070484342 0.26220874827706486
1.4822570470059726 0.28812158301858276
1.4280954970713562 0.3035510685939287
1.3738617913471816 0.3171809866248498
1.368116974049155 0.3411098727955316
1.3136591237531328 0.3519939013394285
1.3073159064761137 0.3748668039111188
1.2527592303115767 0.38300693318678514
1.2458840363466512 0.4048122626311811
1.1913534052551393 0.41021587461601744
1.1840127021902445 0.43094538059034265
1.1296323160616142 0.4336252189498134
1.168251656754152 0.4720043077040493
1.1138108726774527 0.47278466547202136
1.105390003747547 0.49215133812171835
1.0513170329625139 0.49023718361921126
1.0426010937070336 0.50851053027533
1.0335675680585066 0.5266289796978743
1.0242192077163552 0.5445870128316335
0.9708278749247293 0.5381386784734342
0.9612881982007271 0.5549999999999998
0.9514557037793446 0.5716922631501603
0.8989309819258117 0.5617144200871972
0.8889908020221494 0.5773173771159289
0.8787798269083443 0.5927444776789916
0.8683011669463312 0.6079910225321091
0.8575580140374444 0.6230523674300216
0.8465536406501303 0.6379239245411714
0.8746919365034614 0.6833842376114808
0.9014893152900864 0.7300116536178112
0.9652159983299123 0.8099123882050396
0.9886695500918313 0.8594373279775644
1.0478342039231257 0.9434741549659902
1.067776404363989 0.9957176056912478
1.07181630250459 1.035040971983906
1.0182337649086284 1.0182337649086284
1.0003080534609559 1.0358493124876578
0.9820776384899977 1.0531493303316055
0.9769306852839331 1.0849914451969953
1.1218609395737673 1.29055338218094
1.9347907051564837 2.305793773788124
1.7054582597450594 2.106065555548391
1.6684425981325341 2.1355091422742163
1.7211909662148577 2.2840975587352577
2.533354437380559 3.486863245756023
3.045690877024054 4.349697355174547
2.997273962603203 4.443641388895024
2.892033275929794 4.453340715790201
2.813871293078318 4.5031353905906215
2.734852177772388 4.551558366728216
2.6549999999999994 4.59859489409537
2.57433908350805 4.644230644910191
2.492893998393079 4.688451718080902
2.4106895536169937 4.731244643440233
2.32775078945 4.772596385848576
2.244102969843114 4.812494349164611
1.2039404635043691 2.704094554622098
1.0588813582059318 2.494568152856113
0.9589928791447352 2.3735906676909755
0.9174219508359684 2.3899658918328366
0.8858321712134822 2.4338038878355026
0.8269431123211776 2.4016171820222647
0.8003540154311138 2.4632363772044474
0.7572427152318876 2.476829317944262
0.7139007515660278 2.4896677924802457
0.6755177077175797 2.5210664066144677
0.6314161475151326 2.5324718455803508
0.5983698045546814 2.591824372328726
0.5426495130343516 2.5529652379152328
0.5075519277016095 2.611128307970786
0.47058656147738087 2.668829010663084
0.4161156770070143 2.6272509859830664
0.35628313845776705 2.53508625597842
0.30589205194692015 2.491290840619718
0.24668717331166268 2.347071673069125
0.19697197860970736 2.2514000176873448
0.15416180697451726 2.2046165510742113
0.1130456654847585 2.1570397950698794
0.07189296320715223 2.058745103659337
0.03420671661707542 1.9597014825065269
