# .PCD v0.7 - Point Cloud Data file format
VERSION 0.7
FIELDS x y
SIZE 4 4
TYPE F F
COUNT 1 1
WIDTH 180
HEIGHT 1
VIEWPOINT 0 0 0 1 0 0 0
POINTS 180
DATA ascii
7.470345474798854e-17 -1.22
0.02041931553162181 -1.1698218033329777
0.04257738597705132 -1.219256808963297
0.06384986661639164 -1.21832803240058
0.08161507428062678 -1.1671499388039943
0.10633000615214293 -1.2153575316719296
0.1275247251865372 -1.2133167123492934
0.14868059895427993 -1.2109063050024127
0.17674983821928314 -1.2576404473017944
0.19085004734908173 -1.204979775526068
0.22053318563700164 -1.2507058463255043
0.23278697435938478 -1.19758516380615
0.2640478473385545 -1.2422474529319332
0.2789393073863928 -1.2082188803336917
0.3120792453235713 -1.2516814868960355
0.33387656818225175 -1.2460443159128982
0.3914050452601388 -1.3649916082324127
0.4063966695646041 -1.329263610788619
0.43880413201242535 -1.350500253139118
0.4623067793291626 -1.3426363773510297
0.5198706178550166 -1.4283327835945807
0.5268008858315916 -1.3723632269508865
0.5581638241897091 -1.381503943304513
0.593911315303696 -1.3991673772477093
0.6263744303367326 -1.4068600047696052
0.6719630361677121 -1.4410293813882735
0.6970101233946332 -1.4290825336156754
0.6991453695989022 -1.3721500472500865
0.7464597848295665 -1.4038866726456938
0.7950877772039928 -1.434376319708609
0.8449999999999998 -1.4635829323957015
0.8704143465979917 -1.4486127381865697
0.9220595197657765 -1.4756036873121812
0.9476719209261472 -1.4592867882250375
0.9729956520390997 -1.4425253762457724
1.0553806428859247 -1.507239761491745
1.0815248642181505 -1.4885912696499033
1.137430393757371 -1.5094211139893834
1.1636001883654943 -1.4893403243167043
1.2020019469051895 -1.4843487863828144
1.22772433450129 -1.463144886357248
1.272754516241584 -1.4641365856321777
1.3315699066541278 -1.4788582027000146
1.391276654527497 -1.4919615513031075
1.4171030757363545 -1.4674531926908483
1.4778531726798843 -1.477853172679884
3.064387549442654 -2.959244658155328
3.04243139873575 -2.837113177859994
3.054325232712091 -2.7501267921349073
3.1018563747155934 -2.696402609150985
3.1101404390630503 -2.6097176953273493
3.116355305442453 -2.5235747681098477
3.1599231219629553 -2.4688025160558893
3.1625966197872795 -2.383187491682111
3.203707297724792 -2.3276295990781937
3.2028844931699583 -2.24268386613259
3.200085030062461 -2.1584846073970825
3.237268392269337 -2.102306675158004
3.2310632463559834 -2.018992396728511
3.2229490506399423 -1.9365431616618032
3.256255518229489 -1.88
3.2710777047013404 -1.8131879797213006
3.2757355695066193 -1.7417394979356549
3.305634204738845 -1.6843047540337186
3.3345259117699095 -1.6263569545874772
3.344275734165238 -1.5594613858231807
3.3709827387011977 -1.5008582129497026
3.396662909239505 -1.4417978641254199
3.671648064084478 -1.4834421099270112
4.11708968085266 -1.5804026574947745
4.566906137019514 -1.6622178965627503
5.209807351552236 -1.7938805310589334
6.048719443637177 -1.9653480842246656
7.181848717282397 -2.1957115024677525
8.853220219591918 -2.538620047074562
8.992769442751227 -2.409605309904468
9.033453211629528 -2.252292848032906
9.07138530315054 -2.094294315941382
9.106554162831731 -1.93565784151334
9.138949077897752 -1.7764317469556328
9.119319792893046 -1.607982125195775
9.24476286797049 -1.4642265927765608
9.219395719984021 -1.295701569938209
9.240604671780709 -1.1346035871019227
9.308724940647037 -0.9783864161852357
9.374192109043326 -0.8201355392554625
8.439391865198115 -0.5901397678752991
7.9490910966464075 -0.4165942116938335
7.805242359019138 -0.27256506924653295
7.858802883929235 -0.1371759145970486
5.76 0.0
5.759122724100814 0.10052586107875316
4.657161253908987 0.16263165463365475
3.4552581902508255 0.18108240860058591
3.152302398821045 0.22043045703143627
2.89892657144698 0.25362321139568567
2.744880431216434 0.2884985586187239
2.5905454557838508 0.3180789862874348
2.436059449104263 0.3423658283617609
2.330944483804525 0.3691853374949448
2.3241462971088107 0.4098096992939556
3.003779181349852 0.5838755258522272
4.166908779126012 0.885703802883655
4.2482534824636256 0.9807865969392519
4.279004152877144 1.0668755595945352
4.211436602620338 1.1284510366469913
4.335290248681818 1.243124474734666
3.0219230288431924 0.9238945869238481
2.957785765677927 0.9610428525060863
2.8932868413339095 0.9962385526388995
2.828474788565584 1.029480631410263
2.763398062431717 1.060769130654089
2.698105016789351 1.0901051868403044
2.678669123546601 1.137027583903787
2.795449100386359 1.244614127811949
2.818617217683981 1.314342794013575
2.8401891863053677 1.3852528238534851
1.6127218087809458 0.8217228045285797
1.642282522717604 0.8732171067817572
1.5830616699223063 0.8775054126458701
1.524204710660612 0.8799999999999997
1.4657560842006119 0.8807151080961928
1.407759839619667 0.87966597862712
1.3921931427894036 0.9041007981249451
1.3347504918136173 0.9003005745879024
1.3188347913052767 0.9234580625251846
1.262066511224918 0.9169449935762581
1.205939620171412 0.9087406849595933
1.1898962379461502 0.9296488277417441
1.1346331037271777 0.9188077709327624
1.0801226647977589 0.9063305296580204
1.101875987125247 0.9578461823261404
1.1221486864708652 1.010387215601876
1.1043440894449477 1.0298175236943727
1.1221700885282955 1.083667057916036
1.1384419177103418 1.1384419177103415
1.1183999764389854 1.1581370785452287
1.1321172777037474 1.214047144687823
1.1442133368736478 1.270777651566344
1.154663891023293 1.3282888611920787
1.1634455735326366 1.3865404420453502
1.1705359273526976 1.4454914883099659
1.1451303441057248 1.465700001708503
1.1795574453780144 1.565325599692694
1.1814483571078709 1.6261241586936441
1.2389251025182593 1.7693684156642226
1.207856671496813 1.7907211567188903
1.2308842191339613 1.895395483556658
1.2771054268020239 2.0437959117369866
1.2669936642787334 2.108631559727196
1.3049999999999997 2.260326303877385
1.3380745518798904 2.413950391704732
1.3661622477069417 2.5693774952194777
1.3892109292030135 2.7264799640164057
1.4071713811929378 2.885128888620326
1.4411282725357852 3.0905095537949765
1.5293297779650092 3.4349309207361785
1.5472952688175239 3.645199219671664
1.6332847472933771 4.042521605911193
1.6879130423583637 4.39716380880182
2.1410460972186867 5.8824758061197855
2.0380566469017998 5.9189462832517235
1.9189955350684236 5.9060609661929035
1.8156282863281938 5.93865253453045
1.7117079796235648 5.969435131776961
1.6072662700866551 5.998399381255114
1.5023349716739363 6.025536460173938
1.3969460474754025 6.050838102316311
1.2183625081920693 5.731944940300101
1.1276811626753804 5.801416654175695
1.0175783211282112 5.77097343265154
0.9167059651357533 5.787853675887508
0.7042158908579301 5.010756427832345
0.4521352640330972 3.6823462225893047
0.2937249817821068 2.794606525984848
0.2187609142966219 2.500448692210281
0.150673983287311 2.1547383485612204
0.09996167642402255 1.9073824113812359
0.05793316452615179 1.658988772851699
0.02460789307656956 1.4097852501705117
