# .PCD v0.7 - Point Cloud Data file format
VERSION 0.7
FIELDS x y
SIZE 4 4
TYPE F F
COUNT 1 1
WIDTH 180
HEIGHT 1
VIEWPOINT 0 0 0 1 0 0 0
POINTS 180
DATA ascii
4.3474961369731035e-17 -0.71
0.012391208570471355 -0.7098918635610377
0.024778642658775767 -0.709567487183558
0.03715852893249021 -0.7090269696757474
0.04952709635832907 -0.7082704756844751
0.061880577350837275 -0.7072982356451393
0.07421520892003396 -0.706110545711474
0.08652723381765472 -0.7047077676653386
0.09881290168164647 -0.7030903288065149
0.11106847017856394 -0.7012587218225478
0.12329020614352058 -0.6992135046386676
0.14501483648617414 -0.7460366594202247
0.15801288502149718 -0.7433921765576923
0.1709628013013375 -0.7405212492367788
0.18386064065574745 -0.7374247519697573
0.19670247427791576 -0.734103627979692
0.20948439042091938 -0.7305588889131224
0.22220249558927996 -0.726791614531907
0.25030376544370747 -0.7703557781990744
0.26371020511029697 -0.7658700462354466
0.3454403447589255 -0.9490895469937675
0.964009784276858 -2.5113313472774728
1.0264220659595995 -2.5404837615129976
1.0706032920606101 -2.522183298459687
1.134795234181483 -2.548791826822856
1.1875573154913655 -2.5467248815729864
1.24497405688098 -2.552575091489634
2.546886703538858 -4.998546600696744
2.7511033579253206 -5.174072894153312
2.9864272607174365 -5.387657395978678
0.9949999999999998 -1.723390553531033
0.9991738653255052 -1.6629045633620976
1.0280433726124174 -1.6452133065434662
1.029367776178401 -1.5850873734168511
1.0289149423861743 -1.5254291335012766
1.0553806428859247 -1.507239761491745
1.052135601603527 -1.448140419931156
1.047158140284564 -1.3896257874822895
1.0712509670666457 -1.371138711275696
1.0635514608742251 -1.3133766748622808
1.0863110603702515 -1.294615108871073
1.1087397589939572 -1.2754591905764847
1.0973741944285273 -1.2187575137829265
1.0843773924993727 -1.162852385574481
1.1392397275527555 -1.1797172725553877
1.1242997820866107 -1.1242997820866105
1.1437502825384553 -1.1045068090298056
1.1262847004935228 -1.0502774744962478
1.1444430312351874 -1.0304611337926415
1.162252753543069 -1.0103309046453812
1.218010664559175 -1.0220322994015976
1.2356620787165837 -1.0006194217692415
1.3317381735953602 -1.0404678933003624
1.3896257874822895 -1.047158140284564
1.464320759818655 -1.0638913066493765
1.523622802377525 -1.0668521716129458
1.6663655208356336 -1.1239777359762009
1.7276613699675736 -1.1219564121309555
1.8317838876978805 -1.1446256107437227
3.2229490506399423 -1.9365431616618032
3.5160631393648205 -2.03
3.7696109377707954 -2.0895294632617127
4.0262410234367065 -2.140790326303662
4.419392359974305 -2.251792878708152
4.772596385848576 -2.327750789450001
5.2203328533311035 -2.4342811876264285
5.627440019078422 -2.505497721346929
6.130562323993253 -2.6022693157385626
6.870432362339895 -2.7758348572119074
7.991448450816048 -3.067629648107771
9.73521555134201 -3.543328684853928
9.984676158328787 -3.437999711067575
9.995603986262063 -3.247768610880697
10.050762985171504 -3.072826616635963
10.391238933093227 -2.9796398163817606
15.850842809403611 -4.247220530132364
17.038392953406497 -4.248148486730163
17.06121983438947 -3.938892961561074
16.24703164818851 -3.4534131844829834
16.255746157893313 -3.1597969634355825
16.357656777532775 -2.8842962310477134
16.35611892025548 -2.590554741066223
9.61550294748065 -1.3513708103222353
8.248058520139388 -1.0127342436967752
7.071050676068423 -0.7431973738330157
4.990935437439645 -0.4366502711657669
4.449135664158816 -0.31111387289879827
3.9545729576281126 -0.20725038672205787
3.4079227201351165 -0.11900728375552848
3.209511101452016 -0.05602222466368015
2.91 0.0
2.7595796386316396 0.048168641766902554
2.558440517168885 0.08934271155840261
2.356765702020794 0.12351285673334761
2.2046165510742113 0.15416180697451712
2.101970812973583 0.18389861719755898
1.9989890096902292 0.21010221116798372
1.8957631496349252 0.23277044590383159
1.7428718009851638 0.24494465768971513
1.6889470624176857 0.26750293521879476
1.6347808700002653 0.28825597492710436
1.6295011245231221 0.31674293232506445
1.574817637181427 0.33473782221659265
1.5200173010649671 0.35092364477642957
1.5136613329905546 0.37739815713548186
1.5068442890109464 0.40375771035993263
1.4995682456637776 0.42999427507451865
1.5396506571004873 0.4707184446036061
1.4836481654204396 0.48206651122491795
1.5222849067149002 0.5241647286760224
1.5598897505046077 0.5677534379206102
1.5497435079853548 0.5948907962451985
1.4278631360328524 0.5768941538605047
1.371552231644136 0.5821893814490181
1.3611827318874752 0.6060375981829424
1.3050832133327759 0.6085702969066071
1.2942634266708004 0.6312544513762717
1.2830493948312498 0.6537463196249473
1.315591913359801 0.6995126285509775
1.3469143489946696 0.7466068151793591
1.3336791218280357 0.7699999999999998
1.3200376430812528 0.7931586353614836
1.3229550300040247 0.8266740522037996
1.4760601995839462 0.9585647016264479
2.9928256369237007 2.018686381529396
2.9161812776688105 2.041932113409725
2.8396496502560655 2.0631262355465805
2.803210640265997 2.11237073126369
2.6871166697989217 2.099405630860495
2.6500677285682714 2.145982533479945
2.535607106723817 2.1276269880624454
2.4980887105373752 2.1715553859585786
2.4598093723301746 2.2148223070478212
2.384213067278496 2.2233146538037447
2.3090807590870694 2.2298533691733815
2.2344574285494905 2.23445742854949
2.2298533691733806 2.3090807590870708
2.1210148997943703 2.27451001203562
2.0809961857760495 2.3111804072346955
2.0075406287109523 2.3094113154816824
1.9347907051564837 2.305793773788124
2.586506807214832 3.1940699015881506
1.1143472703394417 1.4262994640281668
1.0772488914421663 1.4295575629846544
1.0227463389889033 1.4076895702124086
0.9980229992508199 1.4253245570628459
0.9729956520390994 1.4425253762457726
0.9857966533771992 1.5179937279812175
2.336943955268434 3.7398921040498387
2.37432552533535 3.951541256236738
0.8949999999999998 1.5501854727741453
0.8678092202409434 1.5655692757795183
0.8168805192474498 1.536328811574533
0.7899434695468115 1.55035135208776
0.7627657954129944 1.5639016405605506
0.756486688515852 1.6222909387956035
2.5258345535007205 5.67311729196055
2.602269315738563 6.130562323993253
2.494879912149975 6.175044471414804
2.3867305439716993 6.217645640471364
2.260753147382671 6.211368223394854
2.152005500961805 6.249877784711485
2.0426023328184026 6.286483572710965
1.9325769682172886 6.3211744369156655
1.8081810541595145 6.305876725355372
1.6978529358725374 6.336473420456287
0.46207082059536525 1.8532648371871532
0.37116923966737747 1.6077106068956382
0.3472125236656579 1.6335064932254555
0.3148348423712991 1.6196848526886454
0.28131004782042696 1.5953885598797772
0.2565525226659787 1.6198088785760258
0.22824388557450698 1.6240396327361752
0.20595919035469926 1.6774029962738342
0.171426679758952 1.6310159084039682
0.14293541810615934 1.6337593048704626
0.11579574641524824 1.6559563234313082
0.08687768736328662 1.6577250276925926
0.05793316452615179 1.658988772851699
0.028970994685890403 1.6597471739596095
