# .PCD v0.7 - Point Cloud Data file format
VERSION 0.7
FIELDS x y
SIZE 4 4
TYPE F F
COUNT 1 1
WIDTH 176
HEIGHT 1
VIEWPOINT 0 0 0 1 0 0 0
POINTS 176
DATA ascii
4.451591114900629e-16 -7.27
0.13114217063895584 -1.8754204144884694
0.1594950092282144 -1.8230362975078944
0.19651351094318847 -1.8697011632923537
0.22911436560167728 -1.8659867650856852
0.2546867747569198 -1.8121905657970738
0.2862750710236226 -1.807469663289102
0.3177761651304827 -1.8021981880123408
0.3491804615390772 -1.7963777457092251
0.3804783941964998 -1.7900101093428642
0.4116604294492732 -1.7830972185569807
0.4427170689473919 -1.7756411790850737
0.4606979002824869 -1.7193479707945416
0.4906344933542585 -1.7110458187702076
0.5350402196426083 -1.7500377034123549
0.5655010997061538 -1.740433424820131
0.5957897226565969 -1.7302989933467496
0.6087958551196905 -1.6726528649989167
0.6558133476678997 -1.7084521804898793
0.6667997362803237 -1.6503872611288815
0.6955014087109073 -1.638498639145344
0.7443280568287147 -1.6717881874859595
0.77339141898548 -1.6585432502770694
0.7803006412845579 -1.599853402412517
0.8308026145233708 -1.6305419392647134
0.8356593817588858 -1.5716467152888898
0.8872016050507969 -1.6005540640650944
0.9149999999999998 -1.5848264889255228
0.9682715808309019 -1.611474525319971
0.9803506388314291 -1.5688889778893882
1.0075822147778002 -1.5515405506990343
1.0512826585250041 -1.558590636403478
1.0783237003399666 -1.5400058432633046
1.0874027167410754 -1.496681439593653
1.1434485439888917 -1.5174074690898562
1.1697568031187509 -1.4972204318527715
1.1957087429946909 -1.4765773267682447
1.2212964584044248 -1.4554844419260582
1.2465121550819638 -1.4339482024232668
1.3048046823997734 -1.4491324096809188
1.3298968021218722 -1.426139718157382
1.3893167409179945 -1.4386796006773022
1.4142135623730951 -1.414213562373095
1.4386796006773024 -1.3893167409179945
1.4627074032383411 -1.363996720124997
1.5234468922286584 -1.371717743035659
1.5471546394566824 -1.3449210094305397
1.6086933305498539 -1.3498539803417324
1.632006519059639 -1.3215728212046587
1.6942231202544522 -1.323672171950165
1.7170663466016796 -1.2939022997769036
1.7798373876248845 -1.293127555043441
1.8430920996502316 -1.2905469817898536
1.9067864168765958 -1.2861436779827176
1.8870087778772042 -1.2254378287838108
1.9505106211597798 -1.2188143077363711
2.014343156649964 -1.210339476038627
2.035159698893431 -1.175
2.09908729713455 -1.1635430885912088
2.1632216025043713 -1.1502053288254326
2.2275163104709197 -1.134976249348867
2.291924818062876 -1.1178464243121473
2.311084856943457 -1.0776765674387834
2.4208954627528927 -1.0778521041508704
2.485363104321589 -1.054974046921039
2.549755600058665 -1.0301681318937577
2.614025194192165 -1.0034302587268409
2.678123969239839 -0.9747574084781561
2.7136383119700396 -0.9343806032920398
2.8246378533966063 -0.9177804732935938
2.935855600806519 -0.8975811334988016
2.999136491327555 -0.8599885501490373
3.1102811606508003 -0.8333973252301167
3.221381811236308 -0.8031806933908965
3.283627118326243 -0.7580850531388246
3.3941721745463056 -0.7214535671376252
3.50440904490816 -0.6811881134942651
3.6142444535548033 -0.6372888120376344
3.7729694610734263 -0.5975796564536819
3.9313642329040346 -0.5525172108114597
4.039662837180181 -0.4960082276589501
4.196882398454113 -0.44111011498949726
4.303561095756341 -0.3765128086698829
4.608745912200388 -0.32227490869785835
4.763462880779317 -0.2496425112788424
5.01694195163586 -0.1751954734465551
5.219204968716362 -0.09110156160262005
5.47 0.0
5.769121201052378 0.100700385143126
6.116271861356866 0.21358491981930625
6.511064566599821 0.3412304347039942
8.299732898161738 0.5803738615511234
8.637008032455434 0.7556402896221974
9.268944064832308 0.9742052776545317
9.895685131863981 1.21503735374932
11.091002369905587 1.5587387307527325
11.378169683655987 1.8021250372634596
11.295744927050027 1.9917445978396913
11.455589230834239 2.2267409760442787
11.17044560038006 2.3743515091388123
11.370898656043694 2.6251788041929056
12.390676424544475 3.089342606807758
19.917390538080586 5.336848710013982
19.77315308545122 5.669860409155672
22.10976595786538 6.759633813189673
40.058500466351866 13.015795803072784
43.3236611339607 14.91753283722692
42.915761991292435 15.620059945683293
19.072171888438817 7.705657626565313
10.189988727718514 4.325393592376262
10.112948216103591 4.50257463884911
9.851565645088384 4.593860505121402
9.680011878642027 4.721257250918366
9.685240917927558 4.934876732168873
9.685935093662428 5.1501030437612245
8.676227494822806 4.809311432843663
7.811549142135637 4.509999999999998
7.131631941841574 4.2851167832516515
6.546931302327609 4.0909767198803415
5.971334443771418 3.8778299293069938
5.529680608942129 3.729816666149881
5.177040919906427 3.6250030777386124
4.789380606699689 3.479688693571441
4.488331566465785 3.3822004301145125
4.192217209187761 3.275319048732502
3.940130024586843 3.190654382622675
3.730636437989423 3.130375659173447
3.4867582606292067 3.030992713936143
3.284700128610082 2.957557280106154
3.0863126208328997 2.8780330794637434
2.963679977395242 2.861992486291069
2.807213921310594 2.8072139213105936
2.653594975153369 2.7478780372936478
2.5370338994324944 2.720635770023314
2.3887962647011243 2.653027026954297
2.2765248305970602 2.618842243373019
2.166194244643638 2.581569773310956
2.0578776787329685 2.541267293964295
1.9516468767823372 2.4979940889333085
1.8776628722343902 2.491742791347554
1.7457221993086454 2.402780473293594
1.646164372327502 2.350966367109407
1.6048836329610434 2.3793378332329698
1.5086501269916253 2.3231174732088244
1.4572779766413135 2.332132264430171
1.3906028022571466 2.314351711895703
1.3249999999999997 2.2949673200287624
1.2362645316281595 2.230280253205459
1.2206260632433157 2.29566374143321
1.134976249348867 2.2275163104709197
1.0740093096332393 2.2020454134329595
1.0354147412647137 2.2204540782397926
0.9558311112281309 2.146831825460112
0.9182181519497933 2.163186405613235
0.8428648351858024 2.0861636727752715
0.8063278864769253 2.100555959618704
0.7695453224827549 2.1143083967682936
0.7162499398057445 2.080140866318497
0.664386537906137 2.04477151003458
0.6285991651538836 2.0560552253205264
0.5788384472156982 2.0186495614704696
0.530579042460168 1.9801479438925897
0.4959398859793187 1.9891062388657925
0.4499021086877303 1.9487401295704705
0.41582338163551846 1.9562952014676114
0.38161799075308983 1.963254366895328
0.3386139464505139 1.9203751183738058
0.30504720682845027 1.9259922641605187
0.27138754687212724 1.9310227340460622
0.23155175246978021 1.8858376881185117
0.19860408020854198 1.8895916011997191
0.1638527963655973 1.8728460324124816
0.13114217063895584 1.8754204144884694
0.09839159773673424 1.8774235253385987
0.064564068899627 1.8488730299853273
0.03193790378022858 1.8297212821361961
