# .PCD v0.7 - Point Cloud Data file format
VERSION 0.7
FIELDS x y
SIZE 4 4
TYPE F F
COUNT 1 1
WIDTH 179
HEIGHT 1
VIEWPOINT 0 0 0 1 0 0 0
POINTS 179
DATA ascii
5.5109105961630896e-17 -0.9
0.014834545471691059 -0.8498705408829326
0.032456531933326004 -0.9294334691277591
0.04605564149379069 -0.878793990584025
0.0613856968948304 -0.8778563642286453
0.07669705361793916 -0.876651334320736
0.08884919377750544 -0.8453436110630322
0.10724502219652979 -0.8734406134443633
0.1252557908640589 -0.8912412618674134
0.1329692952841963 -0.8395350895058671
0.15628335990023737 -0.8863269777109872
0.16218764607006317 -0.8343831059305143
0.1871205217359835 -0.880332840660425
0.20245594890947863 -0.8769330583067118
0.2177297060397009 -0.8732661536483969
0.23293714059226867 -0.8693332436601615
0.24807362023529925 -0.865135526344487
0.2631345342504631 -0.8606742803667319
0.27811529493745274 -0.8559508646656382
0.2930113390114411 -0.8509667180393851
0.30781812899310196 -0.8457233587073175
0.32253115459077036 -0.8402223838474816
0.337145934074321 -0.8344654691101085
0.3516580156403464 -0.8284543681071963
0.36606297876822036 -0.8221909118783407
0.4014873486536645 -0.8609923976848174
0.39453403211016974 -0.8089146416692502
0.4085914497655922 -0.8019058717695311
0.4459979846465963 -0.8388002132159805
0.46056913923402026 -0.8308887217824259
0.47499999999999987 -0.8227241335952168
0.48928617116455153 -0.8143089356670066
0.5034233010215446 -0.8056456913486046
0.5174070832642758 -0.7967370395481527
0.5591929034707469 -0.8290375725550416
0.6022552581685984 -0.8601096465034415
0.5877852522924731 -0.8090169943749475
0.6018150231520483 -0.7986355100472928
0.6464445490919414 -0.827411291287058
0.6607864106023293 -0.8160032595298194
0.6749269901708663 -0.8043466652749269
0.6888619804400327 -0.7924450592339106
0.7360436669947441 -0.8174593080251338
0.7501981960687485 -0.8044890717810874
0.7988571260278468 -0.8272407703894487
0.8131727983645296 -0.8131727983645295
0.8272407703894488 -0.7988571260278468
0.8410567568620461 -0.7842981140718732
0.8917737905728732 -0.8029567276306298
0.9056514962673263 -0.7872708347886087
0.9575555538987225 -0.8034845121081741
0.9714324518212136 -0.7866504888122967
1.0244139796887386 -0.8003599179233557
1.0382261630614806 -0.7823595300976628
1.0921729424061792 -0.7935100905948388
1.105855259790139 -0.7743281890739122
1.1606526015770584 -0.7828700648590454
1.1741387951235935 -0.7624946490210377
1.2296697394268177 -0.7683829331381471
1.2857509510531684 -0.7725571123650811
1.34233937586588 -0.775
1.3556605460660633 -0.7514549113818224
1.4127161485742832 -0.7511545004574254
1.4256104387013888 -0.726384799583275
1.662768985653459 -0.8109866215597933
1.7219847953696348 -0.8029746973073288
1.827090915285202 -0.8134732861516003
1.8594198039739296 -0.7892768795483328
1.9192705789532498 -0.7754356483709376
1.9791905041740678 -0.7597400530360368
2.0861176181447165 -0.7592847181829847
2.1463271666104493 -0.7390397106177458
2.3015567694342716 -0.7478211263873726
2.362072747228698 -0.7221581106651598
2.4031542398457972 -0.6890933895424978
2.3375404996195455 -0.6263420891481001
2.4936600165293106 -0.6217392716911457
2.65028657621584 -0.6118668678153125
2.807283614106022 -0.5967065526469695
3.0135954531843283 -0.5857836158059927
3.17108096469931 -0.5591471320875158
3.427278541865128 -0.5428275936896011
3.683797215718642 -0.5177239355714434
3.940408222016049 -0.4838212933184353
4.296334587990941 -0.45156296131626267
4.602419505183865 -0.40265953149418027
5.107527937330301 -0.3571531455699209
5.7121609387961625 -0.2993616697096391
6.36611956811164 -0.22230979399493148
7.3188851285447845 -0.12775161512091548
8.42 0.0
9.86849675119358 0.17225525153598847
10.663500124293751 0.37237762981568584
16.247702530456916 0.8515060080726973
28.201135700845228 1.972015512746425
17.02621484870484 1.78952729114223
9.746803209117783 1.196756952238548
19.181492491524217 2.695782965596467
11.279400849596474 1.7864815907594365
11.344985314700637 2.000427006723038
9.688660300628444 1.8832847843664977
8.284910178215334 1.7610120212264222
7.132388874227923 1.6466417177970925
6.132268990064298 1.5289463801899008
5.863169765574645 1.571031603772302
4.969722968001109 1.4250451295738853
4.6093889237418315 1.409231616763591
4.156116976209821 1.3504042654185202
3.8482606026892197 1.3250623886406279
3.5426411803628746 1.2894159403377712
3.28620310127015 1.261455182399457
3.124609589890073 1.262424219811624
2.8719751427716136 1.2190811208865346
2.713230009198525 1.2080078299351271
2.555787959443353 1.1917834981087723
2.444719805933734 1.192369519266291
2.245336440954687 1.144056059343658
2.1808805543615497 1.1595947600811507
2.029117720563398 1.1247583189715018
1.9225763964014542 1.1099999999999997
1.8600530425235835 1.1176326225548177
1.7554595590438018 1.096932876962734
1.719274664288119 1.1165100217808057
1.6580751451100835 1.1183858069414936
1.556388884149084 1.089795229066988
1.496681439593653 1.0874027167410754
1.4375439180851268 1.0832670416736874
1.3790188188117634 1.077407581819902
1.3211481344768508 1.0698446647847233
1.2639733311463137 1.0605995559827899
1.2075353283564354 1.0496944463848115
1.151874479489961 1.0371524398562304
1.1335982375097144 1.0570974580968726
1.0790097005079764 1.041987555688496
1.0253048327204939 1.0253048327204939
1.0072546371655458 1.0430427104910445
0.9547977040874978 1.0238951822668385
0.9033263185844588 1.003245514394482
0.9184826405867101 1.0565934123118808
0.8677632730768283 1.0341599982106204
0.8181165083647887 1.0102897498940622
0.769576844157073 0.9850134420084024
0.7522687789400602 0.9982943875591161
0.7053423027509678 0.9708203932499369
0.7169705454388074 1.0239400553612399
0.6710314841648961 0.99484508706605
0.6263348902672812 0.9644711531372374
0.6094071538681856 0.9752553105798898
0.5922937861465624 0.985742395807429
0.5499999999999999 0.9526279441628827
0.5332905822709708 0.9620816778533354
0.5164187190644798 0.9712423521448198
0.4993895497135016 0.9801071766072048
0.4602897041285311 0.9437337486141254
0.4437491748277344 0.9516231763884825
0.42707347522959044 0.9592227305247308
0.3907311284892737 0.9205048534524404
0.3746065934159122 0.9271838545667873
0.35836794954530016 0.9335804264972017
0.3420201433256688 0.9396926207859083
0.32556815445715653 0.9455185755993168
0.29356614465620007 0.9035036904803958
0.29237170472273655 0.9563047559630355
0.2618554880261492 0.9131986111414029
0.2458780928473949 0.9176295349746147
0.2298258008196843 0.9217809399621966
0.22495105434386514 0.9743700647852352
0.19751610627687127 0.9292402206971153
0.17172809583889043 0.8834644651028976
0.1562833599002372 0.8863269777109873
0.14079101853620785 0.888919506535624
0.13221444591206197 0.9407546653044918
0.11577587623489011 0.9429188440592559
0.09407561694088831 0.895069705831446
0.08541262789270497 0.9762708041299106
0.06278082636971291 0.8978076452338418
0.04710236061864937 0.8987665812791165
0.031409547032250976 0.8994517443171862
0.01570716579355504 0.8998629256407522
