# .PCD v0.7 - Point Cloud Data file format
VERSION 0.7
FIELDS x y
SIZE 4 4
TYPE F F
COUNT 1 1
WIDTH 180
HEIGHT 1
VIEWPOINT 0 0 0 1 0 0 0
POINTS 180
DATA ascii
4.4087284769304716e-17 -0.72
0.013438352956708371 -0.7698827252704213
0.026872612460925833 -0.7695309368047037
0.04029868630706686 -0.7689447417610219
0.050224661095770326 -0.7182461161870733
0.06275213477831386 -0.7172601826260567
0.08571333987947583 -0.8155079542019841
0.09383939442196357 -0.764260536763818
0.10298809471044844 -0.7327983708687621
0.11576150412977088 -0.7308893720404019
0.12849965147352851 -0.7287577372290339
0.14119865657864322 -0.7264041157512713
0.153854651205142 -0.7238292245430161
0.1664637802144602 -0.7210338479410741
0.17902220274375408 -0.7180188374442373
0.20446704563099138 -0.763081402768364
0.21775351109542934 -0.759396739791272
0.23097364673096205 -0.755480757210798
0.2441234255562085 -0.7513346478731713
0.25719884202115384 -0.7469596747234603
0.2701959132272784 -0.7423571704208676
0.28311068014078733 -0.7375285369327894
0.29593920879857066 -0.732475245107762
0.30867759150652624 -0.7271988342274279
0.3416587801836723 -0.7673781844197846
0.3549993398621875 -0.7612985411107859
0.36823176330282503 -0.7549869988913002
0.38135201978121935 -0.748445480318229
0.3943561127401483 -0.7416759780014985
0.40724008100692316 -0.7346805539970924
0.4199999999999999 -0.7274613391789285
0.43263198292444555 -0.7200205325897743
0.47162814516755236 -0.7547628055792192
0.4847287411633741 -0.7464168054714273
0.49768168408896474 -0.737843439573987
0.510483028352431 -0.7290453194172027
0.5525181371549247 -0.7604759747124505
0.5356153706053229 -0.7107856039420907
0.5787217868061189 -0.7407301083903185
0.5726815558553521 -0.7072028249258435
0.6042203531053469 -0.7200817765318392
0.6166954872510768 -0.7094270054094056
0.6089088517865611 -0.6762617911844288
0.6206185076568738 -0.665531868473445
0.6321391171176876 -0.6545992183081725
0.6646803743153546 -0.6646803743153545
0.7121464023352647 -0.6877117867544073
0.6874724795220203 -0.6410784584587486
0.6985561359487507 -0.6289827699773266
0.7471624844205443 -0.6494984387006022
0.7583839986877883 -0.6363597335896739
0.8082317999152497 -0.6544932066918309
0.858931721431327 -0.6710710081049674
0.8705127059515493 -0.6559783752357327
0.92227937358744 -0.6700751876134193
0.9338333304894506 -0.6538771374401925
0.9865547113404997 -0.6654395551301887
1.0399515042523257 -0.6753524034186335
1.0515796392339682 -0.657099887649174
1.105745817905725 -0.6643991166339698
1.1604740410711478 -0.67
1.1719904075667904 -0.6496448911300917
1.2272971540739084 -0.6525654722723881
1.3275997210406683 -0.6764458446119247
1.3841428313007174 -0.6750915660551792
1.4410293813882735 -0.671963036167712
1.4982145505338655 -0.6670480946443123
1.5556532023346241 -0.6603356071468724
1.6132999069462102 -0.6518154725436867
1.7364595932847953 -0.6665643861542586
1.8417975367403803 -0.6703594809183108
1.9004923369546267 -0.6543919904588849
2.006729249382774 -0.652025858131139
2.1134335106783086 -0.6461414674372481
2.2685776024144326 -0.6505041597281178
2.4244738239855614 -0.6496358032073268
2.6295014182079504 -0.6556083370750992
2.835416888525035 -0.6546075681406468
9.693442723272014 -2.060404856003996
9.72792538796635 -1.8909171441815595
9.71020444470037 -1.7121710317959333
9.639838204208544 -1.5268003787926532
9.714529754354805 -1.3652881204182417
9.73687774760137 -1.1955382588044965
9.706533698794347 -1.020197801492297
5.09055490724882 -0.44536584544053276
5.097552296827702 -0.3564555808324797
5.003133969120415 -0.26220314077714896
4.90700896066376 -0.17135652880928
4.8092674137022415 -0.0839460749633338
4.76 0.0
4.8092674137022415 0.0839460749633338
4.857039419312806 0.16961155397415495
4.853339538907229 0.2543527473407074
4.947917689288728 0.345992109770862
4.990935437439645 0.43665027116576804
5.231185169637118 0.549819716787858
5.071910834887157 0.6227523448003034
4.8622162175211106 0.6833399257139212
4.898934169351883 0.7759149465995451
4.884646454940552 0.8612949612279746
4.917952189072796 0.9559530668364897
4.900519479676365 1.0416375709969745
4.735438514856243 1.0932621241111844
4.667122443387543 1.1636443178344023
4.6943995157648715 1.2578605591982517
4.67173184226023 1.3395975492706158
4.695456351778505 1.4355450701886372
4.7172403208239615 1.532724292099739
3.318770200353602 1.14274422214462
3.157367205840652 1.149187681574247
2.9501141477311577 1.132442720563149
2.7908234022460294 1.1275658461818954
2.678669123546601 1.137027583903787
2.5670627359757083 1.1429299670429989
2.4560941028693213 1.1452954893172953
2.3458524608408258 1.1441486931194924
2.191876049503385 1.1168166293592852
2.1279036987900137 1.1314264663139972
2.0203715234920043 1.1199102227690387
1.9831981746663647 1.1449999999999996
1.894339734551668 1.13823414555122
1.814822925774752 1.1340272254590587
1.752821487005936 1.1382955831814068
1.6912366480122851 1.1407535230803234
1.6301125681350934 1.141417108338582
1.569492969087398 1.140303389447398
1.5094211139893832 1.1374303937573715
1.4499397866363684 1.1328171145992114
1.3910912710079781 1.1264834999792088
1.3712195531829707 1.1505898213389054
1.3131946695876233 1.1415427104434825
1.255914755056796 1.1308307247464706
1.1994200706554397 1.1184773105024974
1.1797172725553875 1.1392397275527557
1.1242997820866107 1.1242997820866105
1.0697738905068557 1.107783292521523
1.0502774744962478 1.1262847004935226
1.030461133792642 1.144443031235187
0.9447250017463305 1.0867817955207917
0.9256141579486168 1.1031039980913282
0.9062213631117658 1.119090184498038
0.8865525244689481 1.1347354851936795
0.8365228821813468 1.1101033589657372
0.8170215006865376 1.1245336221811768
0.7685924247104016 1.0976637393472493
0.7493184906508007 1.110910347223756
0.7298163069201364 1.123818561046868
0.6941942361454985 1.1109430059649181
0.6746998781321711 1.1228891639197671
0.6549999999999999 1.1344932789576148
0.6593410835350185 1.1894828017095782
0.6290918941330935 1.1831497744309623
0.6083472696509928 1.193948742412413
0.5654987793579096 1.1594443197259254
0.5663084707325373 1.214452434629111
0.5246902695677825 1.178473640358955
0.5235797121756268 1.2334765036262703
0.4645121758357311 1.1497079796628162
0.46229465491343724 1.2043187501813903
0.4412059848901128 1.2122034808138218
0.4134715561605888 1.2008085910111324
0.3831810730249348 1.1793100802059904
0.37715949909233015 1.233633135192316
0.3500594418875889 1.220802353841665
0.3287001872802016 1.2267257993871166
0.2878870557636045 1.1546519142684357
0.27444028629951545 1.188731479037987
0.24741491207313349 1.1639956448732287
0.24232742412821204 1.2466665229785332
0.2205331856370014 1.2507058463255043
0.1861570133978748 1.175349125308214
0.16979118317127959 1.2081270438647158
0.14868059895427993 1.2109063050024127
0.12752472518653749 1.2133167123492934
0.10633000615214293 1.2153575316719296
0.08510289796783305 1.2170281413169854
0.06384986661639137 1.21832803240058
0.04257738597705132 1.219256808963297
0.02041931553162155 1.1698218033329777
