# .PCD v0.7 - Point Cloud Data file format
VERSION 0.7
FIELDS x y
SIZE 4 4
TYPE F F
COUNT 1 1
WIDTH 178
HEIGHT 1
VIEWPOINT 0 0 0 1 0 0 0
POINTS 178
DATA ascii
4.163799117101001e-17 -0.68
0.011867636377352848 -0.6798964327063461
0.024778642658775767 -0.709567487183558
0.0329716524330547 -0.6291366068953815
0.04743440214600531 -0.6783435541766805
0.05926590506840754 -0.677412394702387
0.07107935502200435 -0.6762748888504259
0.0828711535155003 -0.674931383116099
0.08767905360484124 -0.6238688833071894
0.10637543622735704 -0.6716280716046937
0.1267631696968592 -0.7189096596989119
0.12975011685605056 -0.6675064847444115
0.14137994975607643 -0.6651403684989878
0.1529667169538283 -0.66257164405396
0.16450688900777402 -0.6598010938676776
0.1759969506697141 -0.6568295618765665
0.20121526974640938 -0.7017210380349728
0.19881275921146102 -0.6502872340548641
0.22558240589371165 -0.6942712568954621
0.23766475275372442 -0.6902285601875012
0.24967470462773825 -0.685975613173713
0.2616086031680693 -0.6815137113429572
0.2734628131936159 -0.6768442138337547
0.2852337237971698 -0.6719685430202814
0.2969177494453343 -0.6668881840790986
0.32964224415774557 -0.706920073888587
0.3200109371560265 -0.6561196537983919
0.35411258979684657 -0.694985088866927
0.3661878189729949 -0.688699122429963
0.37815150379214296 -0.6822033715687287
0.3899999999999999 -0.6754998149518622
0.40172969842984235 -0.6685904945476475
0.43983298931356 -0.7038799198098336
0.45205039906247246 -0.6960965713947018
0.4641301098807199 -0.6881011852206845
0.4760684421713682 -0.6798961967598631
0.5172510220173764 -0.7119349550499537
0.5295972203738025 -0.7027992488416177
0.5417820982865794 -0.6934494631739153
0.5538019441238569 -0.6838884460821344
0.5656530965241546 -0.6741191099447007
0.6101348969611718 -0.701879909607178
0.6557479942316811 -0.7282819289678464
0.6683583928612487 -0.716726627586787
0.6807652030498172 -0.704953004331878
0.6929646455628166 -0.6929646455628165
0.7409199943488107 -0.7154981215727672
0.7898619977487042 -0.7365582288674984
0.8025964115155859 -0.7226610548675668
0.8150863466405939 -0.7085437513097479
0.8656302207244451 -0.7263499989457893
0.9170322345192257 -0.7425980614388081
0.969253226936268 -0.7572636146505596
0.9823216773581702 -0.7402324784770193
0.9950909030811853 -0.7229758603197419
1.0485146166899095 -0.7341778385293389
1.1026199714982057 -0.7437265616160933
1.1573653837646851 -0.7516018683207372
1.2127087775036893 -0.7577845478534829
1.2686076050391262 -0.7622563508668799
1.325018867790191 -0.765
1.3381681519232755 -0.7417587189768957
1.3950571967171046 -0.7417650692017075
1.496890960636458 -0.7627040395624386
1.554913700097559 -0.7583820839451039
1.6585432502770694 -0.7733914189854799
1.7357363695209418 -0.7727996218440203
1.7949844642322588 -0.7619257005540836
1.9470860945902537 -0.7866738461734151
2.0071979169689835 -0.7704910915223957
2.161293027807589 -0.7866463296490381
2.3165205102183264 -0.7976419784200339
2.472746942367399 -0.8034441853748633
2.6776533166964995 -0.8186407732236628
2.8837850878149567 -0.8269120674509973
3.090962644125019 -0.8282209443280663
3.3960350419659875 -0.8467266345988367
3.751324749423156 -0.8660615592238797
4.108219923081983 -0.8732291014345895
4.613647762204021 -0.8968022782697609
4.7073810593983545 -0.8300382892479271
4.898934169351883 -0.7759149465995451
6.139662026197737 -0.8628732259524056
10.372107284651815 -1.2735346385837907
10.541932090903696 -1.1080017106371258
11.3566195582459 -0.993575467323302
22.99385135848895 -1.6078867198020854
28.61073617071854 -1.4994251463603427
28.632547194097093 -0.9998705805266541
11.54824087905632 -0.20157529435062485
23.4 0.0
4.7792719828475505 0.0834225027702153
4.897015052393569 0.171007533842255
11.584102603153056 0.6070970924181492
10.424544325215162 0.7289551506261104
10.758902739390853 0.9412820216747096
10.541932090903696 1.1080017106371283
10.47136189981595 1.2857215729243054
5.892095009012344 0.8280799507123893
5.87674562654107 0.9307850669893737
4.82555798975982 0.8508760705679588
4.76089183972117 0.9254236275762425
4.744015863558957 1.008371700466133
4.220786409300584 1.052360245858555
3.3163528509872005 0.950948877568647
3.2992514080724726 1.0086823812934418
3.233592155403522 1.0506577808748212
3.1674872282577113 1.090653317431475
3.1009856485934972 1.128666472974707
2.9407783434661856 1.128859041067696
2.503396407330326 1.0114378022229629
2.3012621336311008 0.9768278212231847
2.192509098342242 0.9761679433819207
2.1751386888879596 1.0142838281776785
2.139129830192017 1.0433233293580046
2.138415658052083 1.0895771993749124
2.0307794635755316 1.0797845944075493
1.9678943410636405 1.0908216455542583
1.8879353802500765 1.0899999999999996
1.8257663504954988 1.0970310995584156
1.7639400400053662 1.1022320696050663
1.7025012529292105 1.1056172410805052
1.6829462722867345 1.135161594045616
1.5400058432633044 1.0783237003399668
1.520951949424901 1.1050362743098494
1.4615029833865458 1.1013214923682488
1.402659141419965 1.0958774260796718
1.3833198113934084 1.1201902960687105
1.225671108990365 1.028460175498463
1.1924411367519798 1.0365732658050013
1.137011582980413 1.0237698277290532
1.118971163477331 1.0434574908956227
1.100589894518136 1.062827306802266
1.0465180361560904 1.0465180361560902
1.0280943882793157 1.064622904501204
0.9411577368862478 1.0092681082344552
0.9568567670931674 1.0626971004326735
0.9053614600069 1.0414992207074254
0.8549075208830975 1.0188391093482407
0.8369961200962838 1.0336041287377713
0.8188297621831258 1.0480543022969402
0.7703232296346216 1.022253452860535
0.7817543855489894 1.0759926025186801
0.7341778385293388 1.0485146166899098
0.7157669164425559 1.0611680928704534
0.6699060130684834 1.0315647985728715
0.6782966582185023 1.0855015630802252
0.607744928393864 1.0114574148284923
0.6149999999999999 1.0652112466548596
0.5720753518906778 1.0320512544244869
0.5539764440873509 1.0418781595735338
0.5357087896926652 1.051387698542274
0.5172779532111111 1.0605769746330171
0.49868954885402533 1.069443188703247
0.4596124066756544 1.0323063671361388
0.44152617519287923 1.0401704844012576
0.4345436483624581 1.0755332712974732
0.4049557829861891 1.0549458819418378
0.38648276195800574 1.0618526614880763
0.35161360681372905 1.0211600616472623
0.3491892036436906 1.0746938634135235
0.3303800263366923 1.08062437423823
0.319739332747719 1.11506356728845
0.2795245687107227 1.0431998923921937
0.26853330411563114 1.0770282561663562
0.24969567032169032 1.0815507719116113
0.23494021062406792 1.1053067888292003
0.21179798486796486 1.0896061736269071
0.18754003188028465 1.063592373253185
0.1689492222434494 1.0667034078427489
0.15448214206567243 1.0991975563031433
0.13527497117971374 1.1017262283218674
0.11602659422709559 1.1039193038587833
0.09674287444990054 1.1057761148818377
0.07394186216877299 1.0574178932754137
0.05547611361752037 1.0585473068398483
0.03699346650465115 1.0593542766402415
0.01937217114538455 1.1098309416235943
