# .PCD v0.7 - Point Cloud Data file format
VERSION 0.7
FIELDS x y
SIZE 4 4
TYPE F F
COUNT 1 1
WIDTH 179
HEIGHT 1
VIEWPOINT 0 0 0 1 0 0 0
POINTS 179
DATA ascii
9.307315673519885e-17 -1.52
0.02652765778467107 -1.5197684966377147
0.0547922098229267 -1.5690435984199804
0.08216745130142203 -1.567848369564681
0.10602984009107069 -1.516297356394933
0.13683451611382327 -1.5640256760040405
0.16410968733021594 -1.5613993757281892
0.19133486914608155 -1.5582974580768756
0.2185017685073028 -1.5547208679242654
0.24560211011316258 -1.5506706947343663
0.27262763893708075 -1.5461481722291666
0.2995701227411755 -1.5411546780128325
0.32642135458388233 -1.5356917331520747
0.36442070803706156 -1.5784795049520812
0.37981737609147825 -1.5233642902533144
0.4192868530660836 -1.5647998385882909
0.4465325164235387 -1.5572439474200768
0.4736421616508336 -1.5492137046601175
0.5067878707749138 -1.5597326867240517
0.5436988179434518 -1.5790160212508588
0.5711736393538669 -1.569286676712467
0.6163928732179167 -1.605758333575187
0.6330851428728915 -1.5669407142178704
0.6603356071468726 -1.5556532023346241
0.6995870260903766 -1.5712981871452734
0.7142248623417821 -1.5316601600919384
0.7408472380735409 -1.5189619382455921
0.803563184538998 -1.5770815478134113
0.8309646661310268 -1.5628172393603006
0.8678092202409434 -1.5655692757795183
0.8949999999999998 -1.5501854727741453
0.9219181540889971 -1.534329468256781
0.9750514461890971 -1.5604084969278238
1.00213582442765 -1.54315384501958
1.0568745875597116 -1.5668810121290286
1.084059464703477 -1.5481973637061943
1.140303389447398 -1.569492969087398
1.1976118960725761 -1.5892846649941128
1.2251663358980602 -1.5681413996773765
1.2523475781891764 -1.546520463299372
1.2470079627918864 -1.4861262196508174
1.2071486133425335 -1.3886656276099005
1.2312003157002993 -1.3673864788784054
1.2889769005181222 -1.382258496060232
1.3476372386904547 -1.395519212656983
1.4071424945612296 -1.4071424945612294
1.431486202673916 -1.3823701572134046
1.491961551303108 -1.3912766545274968
1.590329926521624 -1.4319394976079565
1.6150785016767322 -1.4039663220396856
6.480735988786555 -5.437983177948123
6.496940237780277 -5.26111846917664
6.548369362471861 -5.11614685995622
6.516865761985909 -4.910810588920714
6.520676974662077 -4.737549133477334
6.520450272540375 -4.565668433354326
6.516235320282628 -4.39525622128007
6.5080836072564905 -4.226398911716609
6.538450821366045 -4.08567752723801
6.565901523378181 -3.945191653811014
6.677055863178022 -3.855
7.0494348395435305 -3.907565539185477
7.337294496657684 -3.901308686750753
7.448814542214755 -3.795360577822611
7.603797631690954 -3.708619901835595
7.7579946570337235 -3.617612320500387
7.911303663184925 -3.5223393290364293
8.017597273570756 -3.403268129141574
8.168489758733397 -3.300284087994184
8.271522578765207 -3.1751400329713606
8.41964588224174 -3.0645004841979926
8.519122366149844 -2.9333690716589818
8.616572037634091 -2.7996939690370235
8.711936326823253 -2.6635062300241312
8.805157134795001 -2.524838179283712
8.89617686012232 -2.383723405394216
8.984938425315727 -2.240196753252922
9.022666799911278 -2.0830467632241887
9.15546154286842 -1.946053426054228
9.188030437070134 -1.7859721967244597
9.217800568194267 -1.625346942962468
9.343531702030004 -1.4798700392805841
12.23971332964581 -1.7201795278664085
14.550726583061783 -1.7866045743194614
21.278718751239683 -1.8616466650899763
27.94176904777768 -1.9538788295729463
29.869009384509305 -1.565368451226452
29.791840553439243 -1.0403539967015554
29.85545217736984 -0.5211288562172863
29.91 0.0
25.056183240619163 0.4373573053183254
19.797932283248286 0.6913590296765452
13.541416491272022 0.7096755666543194
9.287321307918964 0.6494327705578075
9.224762904329564 0.8070621778433158
9.20927275111021 0.9679335698584725
9.141350056616577 1.122416652761408
9.070855509672784 1.2748256047941993
8.997840782821704 1.4251179765165032
8.922358242290604 1.5732524896623892
8.844460922863453 1.719189048342669
8.764202502574898 1.8628887497271245
8.632918773997183 1.9930663414866445
8.54830534849153 2.1313319002330737
8.461510238292238 2.267254835098083
8.324526286825842 2.3870195013752125
8.185968711043584 2.5027017924266266
8.093490953671756 2.6297346221308024
7.904535292010288 2.72174977126183
7.808845678730899 2.842187391036308
7.664695301542027 2.942200865766916
7.519461060536645 3.038059472603047
7.373243876154047 3.129756339199084
6.952080932660193 3.0952658538068407
6.670425312589744 3.110470406411548
2.031274544636117 0.9907187917433152
1.5681714825715276 0.7990232795416023
1.5363288115745328 0.8168805192474503
1.4518687138513968 0.8047839696089195
1.4202816622064793 0.8199999999999997
1.3628960081163586 0.8189105391069863
1.3059940680808961 0.8160756669191356
1.291552674635953 0.8387441139231419
1.3181697403625163 0.8891167165184874
1.3024517504194968 0.9119865337981636
1.2863370210561664 0.9345785511450323
1.30976223647756 0.9869766379693594
1.252937098234688 0.9789017457677968
1.235662078716584 1.0006194217692412
1.1797084424032263 0.9898929189172706
1.1245172745319303 0.9775279531958556
1.1072857899613173 0.9970046034746989
1.0897170154125642 1.0161775564931228
1.0358493124876573 1.000308053460956
1.0182337649086284 1.0182337649086284
0.965575134938006 0.9998823224707253
0.9479777204868728 1.0165816452506469
0.8966350125208702 0.9958140661397082
0.8791190988472798 1.0113108374985145
0.8291960164956359 0.9881973316234817
0.8118233044542903 1.0025182902794925
0.7634202294038164 0.9771333344723352
0.7763413798661422 1.030239807961008
0.7288537128426666 1.0031810730249349
0.7112347810752969 1.01574853491835
0.6654395551301887 0.9865547113404997
0.6481204516678823 0.9980179758550545
0.6306039244375138 1.009177234426147
0.6128953091429645 1.0200290878355136
0.5699999999999998 0.98726896031426
0.5526829670808243 0.997066466138911
0.5351975815759152 1.0065602558591766
0.5175491697030834 1.0157474375747393
0.4778245500000942 0.9796855104660921
0.46065390529736244 0.9878754878699485
0.4636797731064124 1.0414418217125647
0.42589693005330836 1.0033502902631601
0.4083211868233443 1.0106304014777983
0.3727026675271122 0.9709236435570898
0.36596155335846564 1.005471104240922
0.35486928835830067 1.0306152474032555
0.32137767414994534 0.9890987769469597
0.3128377240533281 1.023246088880448
0.2866628500496791 0.9997121637758517
0.2691718069066218 1.004562859340631
0.2515987714236544 1.0091075553270363
0.24069762814793572 1.0425759693202017
0.2162281584504696 1.017273504763158
0.18890090542277946 0.9718109116131873
0.18580355010361535 1.0537442957230627
0.15956315434103555 1.0074421074070405
0.1489152180272698 1.0595868335534804
0.12430673027325044 1.0123970746741484
0.10661903253300675 1.0144123332756387
0.09325664473999422 1.0659283269581679
0.07115160321900797 1.0175153312650207
0.05599947317994981 1.0685336021873941
0.034550501735476066 0.9893969187489048
0.017801454566029044 1.0198446490595192
