# .PCD v0.7 - Point Cloud Data file format
VERSION 0.7
FIELDS x y
SIZE 4 4
TYPE F F
COUNT 1 1
WIDTH 180
HEIGHT 1
VIEWPOINT 0 0 0 1 0 0 0
POINTS 180
DATA ascii
4.71489017671731e-17 -0.77
0.01431097327857255 -0.8198751100282408
0.027570602394975854 -0.7895187533450857
0.04291548411921405 -0.8188762184987505
0.053712484782976605 -0.7681243187000647
0.07146770905307967 -0.8168796524352313
0.08048691671609316 -0.7657818594335705
0.09627678129006652 -0.7841114597966444
0.10994674975845173 -0.7823117743058406
0.12358322738178244 -0.7802737890701589
0.13718206035687502 -0.7779981248796444
0.15073910634747048 -0.7754854749236546
0.16425023574602998 -0.7727366045797064
0.17771133293165348 -0.7697523511803359
0.20321439230372085 -0.815048410071837
0.20446704563099138 -0.763081402768364
0.21775351109542934 -0.759396739791272
0.24559223196709887 -0.8032959950089498
0.25957427527495586 -0.7988874736879289
0.25719884202115384 -0.7469596747234603
0.2872969203935618 -0.789341801460163
0.3010290776180523 -0.7842075582576494
0.31466953846936624 -0.7788344378361013
0.3282141479309899 -0.7732240769000499
0.3416587801836723 -0.7673781844197846
0.37613025294922253 -0.8066139304626184
0.39015032064227895 -0.7999267012062585
0.38135201978121935 -0.748445480318229
0.4178296908794429 -0.7858233576444449
0.43148056201924 -0.7784115393540623
0.46999999999999986 -0.8140638795573724
0.48413579041545096 -0.8057372626599855
0.49812410837921256 -0.7971652103870404
0.5119606929141254 -0.7883503338686985
0.5256413292625021 -0.779295318201739
0.5391618501699833 -0.7700029216316523
0.5525181371549247 -0.7604759747124505
0.5957968729205277 -0.7906491549468199
0.6402879343386848 -0.8195311837509908
0.6544932066918309 -0.8082317999152497
0.668499114074001 -0.7966862208437372
0.6823013901501276 -0.7848979634316829
0.6958958306132126 -0.7728706184964901
0.7433782124681235 -0.7971755347648958
0.7571776238003071 -0.7840803823691297
0.7707463914933369 -0.7707463914933368
0.8200473723860623 -0.7919105423232567
0.8337432198458544 -0.7774781304712481
0.8471851010442295 -0.7628088912490982
0.8981044004650987 -0.7807102444987036
0.9115928873115838 -0.7649172555269816
0.9636609922066439 -0.7803572849017983
1.0165338721526713 -0.7942033031700991
1.0701715834633725 -0.8064321310237448
1.0840827724624296 -0.7876322380719141
1.1386213415616986 -0.797271246527954
1.19381410447926 -0.8052377809978754
1.2496191462386819 -0.8115121621723902
1.2635916632730748 -0.7895797037074753
1.320037643081253 -0.7931586353614832
1.3336791218280355 -0.77
1.3469143489946696 -0.7466068151793591
1.3332508652169797 -0.7089020598066951
1.389970177733854 -0.708225179593693
1.4290825336156756 -0.6970101233946331
1.504470926480839 -0.701546314489561
1.4982145505338655 -0.6670480946443123
1.5372431052655753 -0.652520984577087
1.6318435840375458 -0.659307604412005
2.063212742558816 -0.7919931684951137
2.1706899540154483 -0.7900665310822949
2.278699767194354 -0.7846192522417477
2.4347046817155933 -0.7910835055998654
2.256879224072764 -0.6899972231456586
2.297415453292582 -0.658773280402628
2.859140445815642 -0.7661043735034612
3.066134495032149 -0.7644731900949497
3.225164914439129 -0.7445879898781927
6.5144630208871455 -1.3846918608462777
6.046823450037611 -1.1753834115195163
5.96793498325398 -1.0523079566615978
5.936006926976778 -0.9401711348917875
5.951511093136838 -0.8364303367699931
5.975127832880759 -0.7336534472989875
6.7229680126895275 -0.7066124116893369
7.780280592096532 -0.6806863508592095
7.840853435042219 -0.5482858836288239
19.782851083488108 -1.0367752931727188
19.747962741897332 -0.6896140548414201
25.75607662722864 -0.4495739898244239
26.81 0.0
25.9060537815021 0.4521918507900164
8.704694103336324 0.3039746162787839
8.947720631400982 0.46893016793677744
10.733789180795709 0.7505796574867892
10.719054951467182 0.9377957919648032
10.70105559416262 1.1247262647599527
1.4987446889783964 0.18402270854177263
1.3764726155507827 0.1934506103344909
1.3827636768331928 0.2190082510563232
1.3491866216267252 0.2378980034036946
1.4331756878335893 0.2785811332497555
1.5259102571447367 0.3243422376757047
1.6174543075434904 0.37341875021081605
1.610690905618154 0.4015903466954486
1.7483257455832135 0.46846247163556287
1.7398836696483573 0.4989036140287684
1.8265420838893978 0.5584299560204271
1.816517946123743 0.5902224592561495
1.853216408174661 0.6381135827360271
1.8887821677796754 0.6874604880845941
1.9231756785842355 0.7382379760633186
3.0226193658877265 1.2212174945358734
1.896239998112027 0.8049061246879042
1.7905490969794977 0.7972038204285686
1.7763632625918337 0.8283317930117707
1.7616363307463672 0.8592074477065921
4.241191055136631 2.1609947787602426
4.158683162365546 2.2112110607215465
4.1631898059835235 2.3076937923725644
1.8706148721743878 1.0799999999999996
1.9371980995867735 1.1639860492967224
1.7469790780822378 1.0916336843204022
1.6857278415703019 1.0947244603802047
1.5005580063246255 1.0121391552820518
1.4007499957341758 0.9808157061602891
1.3429682106624128 0.9757235188055053
1.3257349466785058 0.9990129384324005
1.2923376359150238 1.0096848195340795
1.2745193767894323 1.032085441321733
1.218010664559175 1.0220322994015976
1.162252753543069 1.010330904645381
1.1072857899613173 0.9970046034746989
1.0531493303316055 0.9820776384899977
1.0358493124876573 1.000308053460956
1.0182337649086284 1.0182337649086284
1.0003080534609559 1.0358493124876578
0.9479777204868728 1.0165816452506469
0.8966350125208702 0.9958140661397082
0.8791190988472798 1.0113108374985145
0.8291960164956359 0.9881973316234817
0.8118233044542903 1.0025182902794925
0.7634202294038164 0.9771333344723352
0.7462506287085398 0.9903080324586432
0.7288537128426666 1.0031810730249349
0.6825559592577446 0.9747909327039004
0.6654395551301887 0.9865547113404997
0.6481204516678823 0.9980179758550545
0.6041079612258535 0.9667748296183255
0.6128953091429645 1.0200290878355136
0.5699999999999998 0.98726896031426
0.5526829670808243 0.997066466138911
0.5351975815759152 1.0065602558591766
0.5175491697030834 1.0157474375747393
0.4778245500000942 0.9796855104660921
0.4817848183843973 1.0331908772217808
0.44334294095262244 0.9957645488304349
0.42589693005330836 1.0033502902631601
0.3895908571525487 0.9642712087494588
0.3727026675271122 0.9709236435570898
0.3557009490586956 0.9772803256173447
0.3385908806354428 0.9833393186232896
0.32137767414994534 0.9890987769469597
0.304066572911646 0.994556946201557
0.2728809822588292 0.9516490789789357
0.2691718069066218 1.004562859340631
0.239502676643671 0.9605927690132365
0.22270154380042648 0.9646263641373829
0.20583257390958165 0.9683661247264677
0.18890090542277946 0.9718109116131873
0.17191169589026092 0.9749596754820861
0.15956315434103555 1.0074421074070405
0.14195656297926654 1.0100734301164018
0.12430673027325044 1.0123970746741484
0.10661903253300675 1.0144123332756387
0.0888988576026113 1.0161185920535805
0.0676637795318017 0.9676371287520295
0.05338267536780262 1.0186021254496653
0.033852511801426045 0.9694091022085228
0.016928834244164876 0.9698522643016995
