# .PCD v0.7 - Point Cloud Data file format
VERSION 0.7
FIELDS x y
SIZE 4 4
TYPE F F
COUNT 1 1
WIDTH 178
HEIGHT 1
VIEWPOINT 0 0 0 1 0 0 0
POINTS 178
DATA ascii
1.1144285872240914e-16 -1.82
0.03176337971585615 -1.8197228051846321
0.06177210916342691 -1.7689217638237995
0.09525144036215802 -1.8175057532533245
0.12695678221430834 -1.8155665714728801
0.1586234518007378 -1.8130743505269769
0.1902418031471293 -1.8100298495702574
0.22180220499736844 -1.806433995987206
0.25329504374731915 -1.8022878851096582
0.29253244962523184 -1.8469771969129076
0.3247220922371599 -1.841590498132829
0.356812821354139 -1.8356428330471317
0.39295309564556535 -1.8486989653868924
0.41390993999271186 -1.792840919204833
0.45239394477137856 -1.8144530081361134
0.47622704298863816 -1.7773035203718859
0.5209546024941284 -1.8167846053234227
0.5672011071621094 -1.8552312265682886
0.599492969087398 -1.8450496416125979
0.6316022196468841 -1.8343060366626744
0.6635190780517976 -1.823003684324662
0.6952338221178828 -1.8111460274045714
0.7454671208976652 -1.8450958705879068
0.7775549456936547 -1.8318046583703564
0.8297427518746328 -1.8636327335909055
0.8621412539510269 -1.848867885554766
0.894277139449718 -1.8335398544503005
0.9261406194686757 -1.8176533093442706
0.9811955662225118 -1.845360469075157
1.0229482987197713 -1.845447582064125
1.0799999999999998 -1.8706148721743878
1.1021814803075163 -1.8343380235025202
1.2241135003787034 -1.958991102121344
1.3125800743862153 -2.021196068748472
1.3476548973645002 -1.9979805498576504
1.4109980334235732 -2.01511402895092
1.4459517206394839 -1.9901818061623706
1.510555708111641 -2.0045751302187047
1.5760933768336856 -2.017307529233208
1.6425262206400755 -2.028350959402694
1.7098150417661948 -2.0376782186964815
1.7779199685642746 -2.045262962403712
1.8802570038683917 -2.088236959591478
1.916415391775621 -2.055103901549869
1.9867229395127322 -2.057311828968542
2.093036072312181 -2.0930360723121804
2.16521279901934 -2.0909216950815814
2.2745100120356203 -2.1210148997943703
2.3111804072346964 -2.0809961857760486
2.347146794492821 -2.0403435801604775
2.344095995944073 -1.96693008564081
2.339209343985482 -1.8942543770600104
2.4507134437169054 -1.9147071882627968
2.5236882117494455 -1.9017354731604725
2.6373954016623284 -1.9161799224734624
2.6540526234963338 -1.8583876537773893
2.6860817350783353 -1.8117850072452197
2.6753591117459026 -1.737398521697936
2.6628710219311778 -1.6639464896922636
2.6657903051835694 -1.601768412970268
2.82324281633727 -1.63
2.7200672892035205 -1.5077579189661081
2.65767225450537 -1.4131094039855312
2.5037283329693136 -1.2757133042681266
2.660430377045534 -1.297578594495669
2.727986438980316 -1.272080967839505
2.704094554622099 -1.2039404635043685
2.7707196088918455 -1.1761006967527137
2.883541787702709 -1.165026505523486
2.856756105081437 -1.096605925608619
3.044604091346343 -1.1081452643751668
3.063480184941787 -1.0548408204411879
3.147997068936958 -1.0228462513810759
3.4331340739072975 -1.0496144199546247
3.6143439767280787 -1.0363964578719165
3.8733625634191635 -1.037864370861108
4.279004152877144 -1.0668755595945343
4.540564501899197 -1.0482719132424103
11.649737924739625 -2.4762282376395146
11.789342473206444 -2.2916160344723036
11.87678150132723 -2.09419702266318
11.911521387577363 -1.8865996483851843
11.94263290902334 -1.6784275975783889
11.920479281212279 -1.4636508142958207
13.982977848877923 -1.4696701935432066
14.554404539120402 -1.2733454015432843
33.41414423288804 -1.751161095888903
37.087393590678644 -1.2951203226298127
36.95437081298022 -0.6450409419219995
29.81 0.0
31.40521610486225 0.5481800861950759
19.882714036963566 1.0420088887970131
12.08050064864647 0.8447508970413585
12.014108058986452 1.0510982575367591
12.043660152909789 1.2658396901712852
12.118988511540543 1.4880246829768502
11.992146312460417 1.685386252626392
11.862136970547605 1.8787779251331727
11.778300726026009 2.0768322048964873
11.593017036516912 2.253454235396995
11.454108404592864 2.4346458994759628
11.31243645215658 2.6116817409322737
4.812666802328942 1.1999326021743524
4.501214350507058 1.2060967501777475
4.2391640790879865 1.2155607391529661
4.073858260402531 1.2455034621188583
2.7675744624188967 0.8992394536310969
3.649701701813363 1.256693076204625
2.5465670023298115 0.9268745884125623
2.4366449131576964 0.9353403483132338
2.4663090531476546 0.9964535384863263
2.448542910183491 1.0393448017814686
2.9324809190327485 1.305624624273319
2.4560941028693213 1.1452954893172953
2.4357318654707423 1.1879858077984002
2.414627680550477 1.2303142542941718
2.3486405970047457 1.24879435701047
2.326488420990793 1.2895935898552566
2.3036275740666072 1.3299999999999996
2.194348289797407 1.3184974717697389
2.1710031261604508 1.3565933164370045
2.105063125543014 1.3670439778877181
2.0808843071131546 1.4035741877115744
2.137986835594268 1.4970344988762307
2.1519852050373602 1.5635087710979787
2.204234007730528 1.6610094638996538
2.174909679954552 1.6992256718988168
2.1837801516940885 1.7683902988500428
2.2674915516321748 1.9026513246721566
2.196204878448267 1.909131774362376
2.147688545629669 1.9337874523771008
2.0770445125984445 1.9368753425774956
2.006958042944836 1.9380968535806027
1.9374725804511406 1.9374725804511401
1.9033639350576523 1.9709910529279047
1.800475670564996 1.9307737722746101
1.733048270469443 1.9247450979864507
1.6663899336358885 1.916962333765841
1.6326805286038102 1.9457528855222042
1.598473793266587 1.973950742100706
1.5329970735608895 1.9621467764807377
1.4684286564909974 1.9486706445153947
1.404806752979011 1.9335506165561245
1.370847682879 1.9577733858506907
1.3085113941215474 1.9399479197787974
1.2744553419351636 1.9624891289922919
1.2400110783056995 1.9844325450060367
1.1794371915440243 1.962913118607837
1.1449999999999998 1.9831981746663647
1.0859735493517952 1.9591481439922467
1.0281427225011004 1.93365522836105
0.9942391944296076 1.9513042879725258
0.9600328114680792 1.9683589613951757
0.9255339932121317 1.9848140536102634
0.8704164161822129 1.9549872793551657
0.8361646149670457 1.9698803863882226
0.8016581099100522 1.984173448772925
0.7669074120269423 1.997862112704012
0.7148220995506478 1.9639575774425482
0.6804374428154571 1.976133823002572
0.6458455182436401 1.9877081190568708
0.6110568628705193 1.9986769399627442
0.5623002058666783 1.9609738597141706
0.5409318042642688 2.0187849769441524
0.4935206670233221 1.979403281603033
0.4656486824918008 2.0169460341054366
0.42413984926822884 1.9954211054969637
0.38543417066062075 1.9828869105642812
0.3542422824405377 2.0090078161449045
0.3113045854300595 1.9654997977843243
0.2811296639393318 2.000341498857972
0.24617607367839794 2.0049432263154703
0.21114749580066045 2.0089342286439122
0.17605460035026943 2.0123132901453262
0.14090807696313343 2.015079381524845
0.10571863161074636 2.017231660204239
0.07049698333905219 2.0187694705785733
0.03525386100331242 2.0196923442159105
