# .PCD v0.7 - Point Cloud Data file format
VERSION 0.7
FIELDS x y
SIZE 4 4
TYPE F F
COUNT 1 1
WIDTH 180
HEIGHT 1
VIEWPOINT 0 0 0 1 0 0 0
POINTS 180
DATA ascii
3.91886975727153e-17 -0.64
0.011169540119861503 -0.6399025249000905
0.022335677889600693 -0.6396101292922213
0.03506509068277246 -0.6690817882855645
0.04673683740856406 -0.6683679136740822
0.05839434764093095 -0.6674504477214696
0.06480764722594515 -0.6166035751283294
0.08165246008144883 -0.6650059215996857
0.08628732259524059 -0.6139662026197736
0.09698936832494318 -0.6123667711689854
0.11634427903684338 -0.6598211945181794
0.11257730727216149 -0.5791600382341218
0.13306348212336605 -0.6260144644696356
0.1439686747800737 -0.6235968414625506
0.14757235631579727 -0.5918803930283578
0.15787961751253765 -0.5892147540363316
0.1681387870483695 -0.5863696345223746
0.17834673988086944 -0.5833459011374516
0.20395121628746532 -0.6276973007548013
0.21487498194172347 -0.6240422598955491
0.22573329459494143 -0.6201971297186996
0.23652284669989826 -0.6161630814881531
0.2659706813252976 -0.658300536742419
0.27741910122738433 -0.6535584459512326
0.2887830165838183 -0.6486172749262465
0.3211898789229316 -0.688793918147854
0.311243514220245 -0.6381437728724085
0.32233325481507824 -0.6326146321737411
0.35679838771727707 -0.6710401705727844
0.3684553113872162 -0.6647109774259408
0.3799999999999999 -0.6581793068761734
0.39142893693164127 -0.6514471485336053
0.429234604028896 -0.6869189578867051
0.441157618362172 -0.6793231600357934
0.42498660663776766 -0.6300685551418317
0.42444656289977406 -0.606172512773854
0.43496108669643013 -0.5986725758374611
0.45737941759555667 -0.6069629876359426
0.43711964748121745 -0.5594876350607725
0.47828349719787644 -0.5906309307072979
0.4885185833617699 -0.5821937767704233
0.49860486203278553 -0.5735792809693068
0.5085392608327323 -0.5647900673628197
0.5524186716506239 -0.5923964983115281
0.5626732800717879 -0.5826652382743074
0.5727564927611035 -0.5727564927611035
0.5826652382743075 -0.5626732800717879
0.5923964983115282 -0.5524186716506237
0.6391045499105591 -0.575452321468618
0.7245211970138611 -0.629816667830887
0.7354026653942188 -0.6170761052990776
0.7849174210715406 -0.6356135949603358
0.7564903234624532 -0.5910350163126318
0.8066218651477658 -0.6078331733835688
0.8171071643186969 -0.5936631048153979
0.8683011669463313 -0.6079910225321088
0.8787798269083443 -0.5927444776789916
0.8889908020221495 -0.5773173771159287
0.8989309819258117 -0.5617144200871972
0.9085973387442391 -0.5459403594046573
0.961288198200727 -0.555
1.014558860281699 -0.5623791594857509
1.0242192077163552 -0.5445870128316332
1.078117894267925 -0.5493285046848516
1.087540796021992 -0.5304290876147837
1.141947811666179 -0.5324990097932812
1.1510672766296772 -0.5124881702755082
1.205861358022697 -0.5118577783209485
1.2146108494824917 -0.49073463737484463
1.3630274226859145 -0.5232172063361384
1.371951226347426 -0.4993494092554764
1.4750089779349342 -0.5078863209531644
1.4836481654204396 -0.48206651122491795
1.5396506571004873 -0.4707184446036061
1.6437575000545253 -0.4713398784470685
1.7000294542687602 -0.4555215193804364
1.7562352645595536 -0.4378786310353984
1.8123283205005376 -0.4184089610795887
1.8682619174015687 -0.39711132946192046
2.022151997902188 -0.3930665304756824
2.17642513415698 -0.3837624726439161
2.281560066774768 -0.36136361424293334
2.436059449104263 -0.3423658283617609
3.831228145335503 -0.4704156655438691
3.789128421353121 -0.3982534450497594
3.7955017997295504 -0.33206337986857726
3.7508408289769393 -0.26228434127791067
3.7548470506771974 -0.19678319547346906
3.957587674995619 -0.13820200694190402
4.609297874670964 -0.08045559367587711
5.51 0.0
5.709130339342994 0.09965324075688899
5.706521622279037 0.19927612617128082
5.7021746434486165 0.2988383101472097
5.696090726983596 0.39830946507895604
5.6384619911992795 0.49330150395174593
5.6289939277844265 0.5916311020949194
11.573088128137815 1.420996544104019
12.88338757432783 1.8106420434904509
12.602903225993957 1.9961037739133458
13.944877782652865 2.458858195763734
11.642098395689294 2.262994685165822
11.649737924739625 2.4762282376395146
11.556028968352889 2.66791950451824
11.507707313633318 2.8691936818120602
11.552472882417257 3.0954757794261503
11.496689883422295 3.2966227755713096
9.524795369391835 2.9120221790384577
8.616572037634091 2.7996939690370235
7.857259363230323 2.7054713635389724
7.057091582102172 2.5685712763757724
5.237386192649302 2.010444196949135
4.9697054604779805 2.007891340709289
4.611729315796725 1.957562953731262
4.34847637837878 1.9360664210408094
4.087448119535291 1.9060083604505542
3.873802339549409 1.8893796426609242
3.7065871406236104 1.8886004789165147
3.4081777084354576 1.812160232353539
3.332301084201098 1.8471246531385441
3.2129542480402677 1.8549999999999993
3.0086572254644137 1.8077836429342904
2.8494416030855914 1.7805287278235684
1.4760601995839462 0.9585647016264479
1.4176542490691213 0.956219864934977
1.384366954848396 0.9693441774332682
1.3429682106624128 0.9757235188055053
1.4055984976832352 1.0591944407476053
1.4105392489560322 1.1020340408329283
1.4299485690808267 1.1579495195317007
1.4095217753389195 1.1827292018232325
1.9320565253702964 1.6795111142156984
1.8281362706743896 1.6460612916427915
1.7625624209022013 1.6436160477506214
1.6976419287992162 1.6393937542832338
1.633416664540925 1.6334166645409247
1.5699279172373335 1.6257079487653519
1.5072163757381216 1.6162916805783667
1.478778640053077 1.642350064305041
1.515496356968072 1.7433791303146033
1.4848393783759062 1.7695626636048392
1.4851961228776163 1.8340644690384513
1.4837441555348367 1.8991059161922
1.4503742057964362 1.9247115792139762
1.4459517206394839 1.9901818061623706
1.4396768552411252 2.0560716311653695
1.459493478058649 2.1637880643686587
1.4106151006889203 2.172156770978648
2.575407624173376 4.121513747320231
2.94086740773641 4.894425287009061
2.9299999999999997 5.074908866176811
2.9137058176804858 5.256464439907768
2.3989996858359013 4.5118621995091175
2.297191928682107 4.508493012393141
2.678447706881262 5.491631622887911
2.0539247520597996 4.404655844998119
2.0580874139635497 4.622540015671559
2.0161726230046524 4.749805043814592
2.1951946374172455 5.433297387761374
2.0641993893809287 5.3774232566238815
0.4993494092554765 1.371951226347426
0.4590510977845907 1.3331811915950367
0.4357139620686759 1.3409896879761665
0.4122441036590585 1.34838970590788
0.3886486717019688 1.3553789912730296
0.35199390133942854 1.3136591237531328
0.32901377801554804 1.3196021877353552
0.3059334339076566 1.32514328810792
0.2723643149712646 1.2813733569612855
0.2595002337121011 1.335012969488823
0.2361615216270251 1.3393385440966032
0.20492914920270253 1.2938717261796304
0.18231676225768548 1.2972511700514573
0.15721145299264028 1.2803845356173054
0.13170586371724363 1.2530975881640243
0.10981623586204925 1.2552053195955994
0.08789315691759808 1.2569307033273784
0.06594330486610912 1.258273213790763
0.04327537591110134 1.2392446255036786
0.021640983982231386 1.239811141993925
