# .PCD v0.7 - Point Cloud Data file format
VERSION 0.7
FIELDS x y
SIZE 4 4
TYPE F F
COUNT 1 1
WIDTH 180
HEIGHT 1
VIEWPOINT 0 0 0 1 0 0 0
POINTS 180
DATA ascii
8.38883057415937e-17 -1.37
0.02390979681907853 -1.369791342364256
0.04955728531755153 -1.419134974367116
0.07170026005283324 -1.3681224626137662
0.09556636902945188 -1.3666627488559593
0.11940336756429167 -1.3647867363856916
0.1484304178400679 -1.412221091422948
0.17305446763530943 -1.4094155353306772
0.19762580336329294 -1.4061806576130298
0.2221369403571279 -1.4025174436450956
0.24658041228704117 -1.3984270092773352
0.28048922320352104 -1.442991959668066
0.3056301855021064 -1.4378769730786942
0.3306780498854818 -1.4323239952342959
0.3556251865315115 -1.4263347176257148
0.3804639963007055 -1.4199109646449304
0.40518691305098875 -1.4130546930293288
0.4356338400368778 -1.4248940863849229
0.4697058314499201 -1.4456059047686334
0.4948635947748783 -1.4371882349109615
0.5198706178550166 -1.4283327835945807
0.5447192833088566 -1.4190422482757468
0.5581638241897091 -1.381503943304513
0.6134478717281597 -1.4451926199203315
0.6385765296290066 -1.4342663684988832
0.6719630361677121 -1.4410293813882735
0.6970101233946332 -1.4290825336156754
0.7218448945858795 -1.416700373459505
0.7464597848295665 -1.4038866726456938
0.7950877772039928 -1.434376319708609
0.8199999999999997 -1.4202816622064793
0.8704143465979917 -1.4486127381865697
0.8955635565541162 -1.4332012825043599
0.9476719209261472 -1.4592867882250375
0.9729956520390997 -1.4425253762457724
1.0267018210683725 -1.4662821592772954
1.052135601603527 -1.448140419931156
1.1073396425997688 -1.469489338487019
1.1636001883654943 -1.4893403243167043
1.1894155390841925 -1.468805867153675
1.2470079627918864 -1.4861262196508174
1.3055574676911095 -1.5018720646433164
1.3315699066541278 -1.4788582027000146
1.391276654527497 -1.4919615513031075
1.4518359942593042 -1.5034201827077807
1.513208511739212 -1.5132085117392116
1.575354162741646 -1.521301831305204
1.6382322916269423 -1.5276763265399966
1.7018016503432332 -1.5323090885617852
1.7660204177212864 -1.535178127837787
1.8308462190543575 -1.536262387150829
1.9117790651841484 -1.5481281619826
2.096108604593881 -1.6376595243662508
2.1643022322281635 -1.6309187127420508
2.2733377541936024 -1.6516765589418496
2.424690051095416 -1.6977862515990962
2.4954030933906752 -1.6831706394469477
2.608265466310269 -1.6938273988967338
2.7222343886621276 -1.7010408381885878
2.794365400288886 -1.679024124206776
2.82324281633727 -1.63
2.9824532013453395 -1.6532008050400095
3.0991460509348334 -1.6478451853784766
3.305634204738845 -1.6843047540337186
3.4693450187147845 -1.6921126266058388
3.6796096153687983 -1.7158301426672393
3.89170364955748 -1.7326980995029087
4.105451646397884 -1.7426608330621605
4.413395147737908 -1.7831273846597406
4.677237936750981 -1.7954234272219545
5.036752447412469 -1.8332279682255848
5.446186995452065 -1.8752725696732224
5.8109553145633885 -1.8880938356309287
6.3211744369156655 -1.9325769682172897
6.93069682771528 -1.9873453354405635
7.592176994632077 -2.0343176945058126
8.49979056217773 -2.1192358054530884
9.509851832303896 -2.195522290396121
11.307386264482792 -2.4034591458532986
11.347610240654996 -2.2057519865528588
11.384377624821125 -2.007372933829715
11.417677217279794 -1.808382415865069
11.397985471215474 -1.6018823920503529
11.374578897809553 -1.3966226754229898
11.397220920920413 -1.1978961890473079
11.46620097503599 -1.0031625990255444
11.481962218490578 -0.8028970127948808
11.494225945025144 -0.6023868563562843
11.552957960340747 -0.4034381818809118
11.558239356007883 -0.20174981841499767
11.56 0.0
11.558239356007883 0.20174981841499767
9.754054471706375 0.3406190878164099
8.548268817499153 0.44799578543959984
7.591462422477263 0.5308467651927943
6.7342761591002 0.58917282097417
6.22570706500539 0.6543481800555115
5.865947756200214 0.7202478195244214
5.901997689699759 0.8294716817219898
5.59031600776848 0.8854190721277068
5.455834951687632 0.9620109042747942
5.516744770975872 1.072346554016182
5.340685900006578 1.1351978318649663
3.8585054565495316 0.8908061752017057
3.5997971444839467 0.8975302326747677
3.4386959415890828 0.9213958005649744
3.2298392983527515 0.9261415155451169
3.069738266641344 0.9385131721599849
2.957785765677927 0.9610428525060863
2.798734983773978 0.9636817371931838
2.6875208954476975 0.9781776099114127
2.5766819771322766 0.9890955407450288
2.4663090531476546 0.9964535384863263
2.310467182165625 0.9807351325080773
2.2473218258007983 1.0005721419664688
2.1842017667583264 1.0185100107950855
2.1031780683400503 1.0257884834864415
2.084955266600781 1.0623377693905394
1.9778026080039963 1.0516163006403958
1.9154171586352766 1.0617330683394781
1.8099930939094768 1.0449999999999995
1.7486212934323089 1.0506776728165108
1.687615711351288 1.0545393358240778
1.6270209018141224 1.0565997279291528
1.5668810121290289 1.0568745875597114
1.5072397614917448 1.0553806428859251
1.4885912696499033 1.0815248642181505
1.5094211139893832 1.1374303937573715
1.5287408619970404 1.1943832621317771
1.5465204632993723 1.2523475781891762
1.5627306639627152 1.3112867237605403
1.539607543654455 1.3383604191406346
1.6274871677954932 1.4653960279258997
1.6382322916269423 1.5276763265399966
1.6472881427755108 1.590767668351104
1.6546298679765212 1.654629867976521
1.6602335053970032 1.7192221228093767
1.6640759985524962 1.784503031950776
1.6795178219607343 1.8652935119482592
1.6795111142156987 1.9320565253702964
1.677675661281868 1.9993759965405324
1.7054582597450594 2.106065555548391
1.699225671898817 2.174909679954552
1.6911002150572554 2.2441657832328934
1.6516765589418496 2.2733377541936024
1.6404286079639914 2.342774846666517
1.5992917039263357 2.3710474575074194
1.6393634953952319 2.524398409515726
1.6480489117652672 2.6374295790464846
1.6532722204612742 2.75150703525378
1.5949999999999995 2.7626210380723593
1.5319983999784252 2.7637982745604908
1.5304772946820033 2.878409152720102
1.4709292191561318 2.886861138370312
1.4203225155966104 2.9120927100093015
1.348152254952831 2.8911218406469135
1.2974898914118032 2.914210009879896
1.2268957434563195 2.890385239840663
1.1762647033259643 2.911357303339712
1.1073569640949774 2.8847635178763533
1.0568422428763167 2.9036501982284566
1.0060055972726136 2.9216523986018887
0.9548625126185876 2.9387646353520243
0.8888099823571192 2.907166458127628
0.8379375616836775 2.9222355556524895
0.7868098971116637 2.9364145119187675
0.7233464678430064 2.9011842215652295
0.6726036524881568 2.9133664937078536
0.607102137187857 2.8561909941427124
0.5609784464070421 2.885983919336132
0.5105256423407748 2.8953347938558918
0.4520956039662674 2.8544193043199484
0.4022102617745886 2.8618747186631386
0.3302659206279497 2.6898000709479826
0.28327213545534147 2.6951543364480206
0.23880673512858333 2.729573472771383
0.18904004384658 2.7033985762041235
0.14183044141837756 2.706286039184895
0.09457763606377792 2.7083491412217495
0.04729602144503795 2.70958725387382
