# .PCD v0.7 - Point Cloud Data file format
VERSION 0.7
FIELDS x y
SIZE 4 4
TYPE F F
COUNT 1 1
WIDTH 179
HEIGHT 1
VIEWPOINT 0 0 0 1 0 0 0
POINTS 179
DATA ascii
6.368163355566237e-17 -1.04
0.017277882372910763 -0.9898492182048273
0.034550501735476066 -0.9893969187489048
0.04919579886836733 -0.9387117626692993
0.06557108531947792 -0.9377102072442347
0.08628418532018156 -0.9862327511108281
0.10348317863497693 -0.9845766764145906
0.12065064997109601 -0.9826206901249087
0.14474002499846808 -1.0298787914912333
0.16269184364184017 -1.0271958742189433
0.18927651365695417 -1.0734404507833069
0.20798180496043397 -1.0699736299579539
0.22662374299135782 -1.0661808847998482
0.25644420195200623 -1.110781873855168
0.2757909609836211 -1.106137127954636
0.3079946636719997 -1.1494517332839913
0.34179032121307895 -1.1919645029635155
0.3625409138561936 -1.185817897394164
0.3986319227436822 -1.226862906020748
0.41998291924973224 -1.2197189625231186
0.4412059848901128 -1.2122034808138218
0.48021305239070255 -1.2509977715062504
0.5207031648481178 -1.2887855578478342
0.5626528250245542 -1.325526988971514
0.6060375981829426 -1.3611827318874752
0.6297012099936422 -1.3503986026846084
0.6750915660551793 -1.3841428313007171
0.7218448945858795 -1.416700373459505
0.7934069411081556 -1.4921814319315865
0.8193282582163097 -1.4781073050655789
0.8699999999999998 -1.5068842025849234
0.9476700578344999 -1.5771878332918865
1.0280433726124174 -1.6452133065434662
1.083831679679904 -1.6689544302113937
1.1519373811497386 -1.7078173994633858
1.2676039243358117 -1.8103260178786718
1.3283946701809892 -1.828378407287381
1.4202834546388339 -1.884779803711611
1.5145272293011196 -1.9385064538725358
1.6425262206400755 -2.028350959402694
1.8062331832191756 -2.152584885164328
1.9747376772614267 -2.2716758364705436
2.1479092464119347 -2.3854948897824353
2.3256144078131205 -2.493916122521371
2.5771825544028797 -2.6687506592563954
2.8354981925580556 -2.835498192558055
3.172288519493452 -3.063443413724178
3.5178113047882102 -3.2804121119006173
4.020413505832703 -3.6199965804014225
4.573540056149998 -3.9757177156824737
5.676389323511628 -4.763056187777256
6.419225641634579 -5.198186430071657
7.966788718963959 -6.224337515542404
10.430179761217644 -7.859704202365751
12.143345085567962 -8.822656636910022
27.163081788622964 -19.019794629400685
34.62060902989854 -23.351895648938385
12.42071111127173 -8.06610410857255
14.151832134591876 -8.503278616764993
12.869137500236757 -7.43
10.722837609528991 -5.943765944220092
8.83830540451786 -4.6994103434867665
7.671566173261847 -3.908858202757498
6.705003585391786 -3.2702487550465174
6.0360098616640885 -2.814637623193058
5.444730927549902 -2.424150392731769
5.0259564998503246 -2.133391961551434
4.598831918651266 -1.858048703342923
4.677237936750981 -1.7954234272219545
4.425952243901628 -1.6109148750639
3.79152948815326 -1.3055282993731983
3.6710781528992924 -1.192805598287297
3.6913363580173173 -1.1285547802297637
3.4701547223373312 -0.9950508544993667
3.3421033589601765 -0.8955138960547215
3.066134495032149 -0.7644731900949497
2.7866983852857725 -0.6433600154234534
2.650779997988613 -0.563440682116128
2.562046948798403 -0.49801147793278205
2.471867460060642 -0.43585692594399517
2.3803289008342823 -0.3770070607469564
2.2875192387930277 -0.3214898632177511
2.1935269951273217 -0.2693312489253758
2.1780029508565186 -0.22891733455616092
2.1318566539163357 -0.18651328947998827
2.0849088650430327 -0.1457910301252216
2.0372042508993307 -0.10676535073560557
1.9388182044170457 -0.06770502360285197
1.8897121438455795 -0.03298504816646588
1.84 0.0
1.83971975908776 0.03211242784460171
1.7389400390132266 0.06072512426235177
1.6876839137352297 0.0884477660505752
1.6858832449391028 0.11788844062757192
1.6337593048704626 0.1429354181061596
1.5812898136355547 0.16620025659556925
1.5781483811097021 0.19377225601418444
1.5250128258620184 0.21432657547850073
1.4716556274867554 0.233087352909944
1.46736355198819 0.2587357847237262
1.413543144164636 0.27476495334222456
1.3596251650199898 0.28899725023668554
1.3543743900514769 0.31268196553797245
1.3001962732098353 0.3241753401035549
1.2943406072273516 0.346817520437378
1.2880906725573473 0.36935405679477884
1.233633135192316 0.3771594990923304
1.226862906020748 0.39863192274368214
1.2197189625231188 0.41998291924973213
1.2122034808138218 0.4412059848901127
1.15763972885653 0.4443762574361724
1.1497079796628162 0.464512175835731
1.0954007756084039 0.4649700429022359
1.087119094594695 0.48401660526020235
1.0785062665736134 0.5029157314714322
1.0695649150960085 0.5216616646790023
1.0157474375747393 0.5175491697030833
1.0065602558591766 0.5351975815759157
0.997066466138911 0.5526829670808242
0.98726896031426 0.5699999999999997
0.9343123577653024 0.5613915016519592
0.9243724248105045 0.5776119980141934
0.9393110360988749 0.6099957192168305
0.9285220812616468 0.6262960518872365
0.8764926873892211 0.6137267868956195
0.8656481839811938 0.6289302199529463
0.8545399957506032 0.6439420747726919
0.8195311837509908 0.6402879343386847
0.8315461787589591 0.673372818423326
0.7966862208437372 0.668499114074001
0.7471624844205443 0.6494984387006021
0.758007721986942 0.6825132184860355
0.745980775651554 0.6956383272637484
0.7696935863623566 0.7432844563911272
0.7212489168102786 0.7212489168102785
0.7085515378681772 0.7337265963454244
0.6956383272637484 0.7459807756515539
0.6825132184860355 0.758007721986942
0.6494984387006022 0.7471624844205443
0.7134942467520589 0.8503093318620657
0.8558757318277789 1.0569185075814804
0.9912149752743101 1.2686973133068224
1.2698296988508215 1.685120926199788
1.6516765589418496 2.2733377541936024
2.5007932624905607 3.571502913100005
3.752184382288711 5.56284211184433
3.6545279249508327 5.627479510913795
3.555758263004805 5.690402725209618
3.455905482646464 5.751592587711173
3.354999999999999 5.811030459393583
3.253072551852922 5.868698234905345
3.150154186293326 5.9245783480834
3.0462762532523593 5.978653777303949
2.963388952294162 6.075847752982369
2.878030362454163 6.171956029719586
2.7698765393462006 6.221244566546111
2.6608789850119536 6.268638052011118
2.5698012308331575 6.360481242328161
2.458404133880759 6.404361725770804
2.3633591903803715 6.493276009630627
2.2496759472989516 6.5335333573912795
2.1507582808496344 6.619353353414269
1.7717725306197833 5.795206821135995
1.670362376251015 5.825245877386212
1.4649157952802687 5.467140176796126
1.332989644754169 5.346329451780741
1.2282327567175038 5.320060553727385
1.1351978318649654 5.340685900006579
1.0608980142935898 5.457847139969012
0.9741662767114786 5.524771494398488
0.8384887326156378 5.294009505589939
0.7250918560019399 5.159296638143582
0.6227523448003037 5.071910834887156
0.5289140241343275 5.032280790563463
0.4584392068526818 5.239984111962581
0.2518208702162929 3.601206221437965
0.18893280203702692 3.6050526204640114
0.12249723342577878 3.507861802837026
0.06387580756045716 3.6594425642723922
