# .PCD v0.7 - Point Cloud Data file format
VERSION 0.7
FIELDS x y
SIZE 4 4
TYPE F F
COUNT 1 1
WIDTH 179
HEIGHT 1
VIEWPOINT 0 0 0 1 0 0 0
POINTS 179
DATA ascii
1.598164072887296e-16 -2.61
0.04555078080131019 -2.609602484358181
0.09108768639352781 -2.6084100585198398
0.13398004798193655 -2.556491608971709
0.17857657278496117 -2.55376396866515
0.22573337371643457 -2.5801442680576208
0.27072871986322244 -2.5758117090038275
0.315641599419332 -2.5706945327510238
0.3562831384577676 -2.53508625597842
0.4082939537550027 -2.5778665689533096
0.44453933482734187 -2.5211078477112525
0.4846548482564241 -2.4933330459570664
0.5177001101362211 -2.435587525827176
0.5713756780334175 -2.4748999645544973
0.6144816148231559 -2.464551144741031
0.6444594223052766 -2.4051553074597805
0.4299942750745187 -1.4995682456637776
0.41224410365905884 -1.34838970590788
0.4048122626311812 -1.2458840363466512
0.39393746689315967 -1.144077476475173
0.362541351925209 -0.9960741780330629
0.3619516290407534 -0.9429162307621738
0.35962232967927565 -0.8900965003841158
0.35556532692523907 -0.8376594166417207
0.3497935130451883 -0.7856490935726367
0.33386842677515255 -0.7159831517589534
0.34631320596337123 -0.7100472965763419
0.35865249479424205 -0.7038951541088107
0.3708825346008538 -0.6975285983585523
0.40724008100692316 -0.7346805539970924
0.3949999999999999 -0.6841600689897066
0.43263198292444555 -0.7200205325897743
0.4451321819558921 -0.7123604007713977
0.45749678941262273 -0.704483277074156
0.4697220389154274 -0.6963915609462349
0.48180420653487865 -0.6880877172027531
0.4937396119256774 -0.6795742752749558
0.5055246194477205 -0.670853828439726
0.547938713039836 -0.7013295707099825
0.5600951480343553 -0.6916599056967041
0.5720809726210201 -0.6817795543758904
0.5838925358015515 -0.6716915263982671
0.5955262396593839 -0.6613988946748809
0.6410784584587487 -0.6874724795220201
0.6182459497085075 -0.6402124223013995
0.6646803743153546 -0.6646803743153545
0.6761794123183321 -0.6529788682314573
0.7240401646029788 -0.6751783764618735
0.7357133772226204 -0.6624393002952695
0.7471624844205443 -0.6494984387006022
0.7966862208437372 -0.6684991140740009
0.8082317999152497 -0.6544932066918309
0.8195311837509909 -0.6402879343386846
0.8705127059515493 -0.6559783752357327
0.8818285238686928 -0.6406859249987957
0.9338333304894506 -0.6538771374401925
0.9451028327127475 -0.6374799099566513
0.9980179758550546 -0.648120451667882
1.009177234426147 -0.6306039244375138
1.0200290878355136 -0.6128953091429643
1.0738715006927038 -0.62
1.1282594222098206 -0.6254044101177748
1.1831497744309623 -0.6290918941330937
1.2384990686218313 -0.63104679463797
1.3122393075967838 -0.640021874312053
3.0451941644431435 -1.4199973594487498
3.1151900105612693 -1.3869719528884785
4.381603102433616 -1.8598801716089426
4.367035955009569 -1.764397054988945
3.790336531578639 -1.4549738751539192
3.7681674093514923 -1.3715007747359318
3.79152948815326 -1.3055282993731983
3.766183804528808 -1.2237072977247916
3.739151595815469 -1.1431733654659006
3.7393079972000605 -1.0722293141281265
3.7284736894758037 -0.9990415140957298
3.7938562897391463 -0.9459146117947004
3.225164914439129 -0.7445879898781927
3.2865759384655866 -0.6985832811476715
3.4945927730736837 -0.6792800235404998
3.702877151325902 -0.6529171480276581
3.8618614117269887 -0.6116587583073028
4.169028569402011 -0.5859187550418754
4.327501221156164 -0.5313503372464429
4.286389369037257 -0.45051767668358605
4.293599148775423 -0.3756412512424062
4.299501056619842 -0.3006504018371795
4.4538877250054 -0.23341836484352982
5.436686098983881 -0.18985326206160555
5.559153185069535 -0.09703537979129645
6.46 0.0
7.458863805866679 0.13019495202213519
8.854602727389189 0.309209540784159
11.344431514811959 0.5945364629198427
12.08050064864647 0.8447508970413585
17.692417838109403 1.5478859911984113
35.66355516790628 3.7483906927780586
35.44382307511161 4.351954252997815
11.89311950558626 1.6714689425303855
17.490185693496816 3.0839916353646832
17.335536059685747 3.369686858349782
11.698645304776315 2.4866238221804027
9.120103806389801 2.105541868658577
7.820583553784532 1.9498904785333229
6.867732624915275 1.8402034106789238
6.065561301370792 1.7392717152052644
5.460500156548933 1.6694424339668266
5.050110101527265 1.6408802401309706
4.59522027741268 1.5822612306617816
4.191029088705151 1.5254098392324826
3.8836945742283593 1.4908106701084494
3.6252888713561386 1.4647117802562164
3.3690477636359315 1.4300759302707424
3.160867283443399 1.4073087850422692
2.9545633857394784 1.37773553327468
2.8851288886203257 1.407171381192939
2.860130942644661 1.4573095041639452
2.7018196341483165 1.4365829821248264
2.5451433477756416 1.410795994916841
2.4335313846342728 1.4049999999999996
2.322923384902724 1.395753183006247
2.0013935069291655 1.2506094635903635
1.895395483556658 1.2308842191339613
1.8736249139743941 1.2637759618438877
1.8103260178786715 1.2676039243358121
1.7879275575686338 1.2990054075663655
1.7250527017021524 1.299920450008425
1.6627026901101831 1.2990457129371389
1.6009206806013603 1.2964000055626648
1.5397493306691457 1.292003095469944
1.4641365856321777 1.2727545162415839
1.4045437201522748 1.2646568460182421
1.3822584960602322 1.288976900518122
1.323585232623118 1.2781714016445551
1.2657211383239202 1.26572113832392
1.208705564598655 1.2516512525892534
1.1866771465087473 1.2725554408173565
1.1308307247464706 1.255914755056796
1.0759368075444318 1.237723711565346
1.0220322994015978 1.218010664559175
1.0006194217692415 1.2356620787165837
0.8988657539754612 1.150495700265814
0.8365228821813468 1.1101033589657372
0.8170215006865376 1.1245336221811768
0.7972712465279538 1.1386213415616986
0.7493184906508007 1.110910347223756
0.7025843551693851 1.081885032649597
0.6835958508608343 1.0939820440417896
0.6386472128884673 1.0628874528706191
0.6199999999999999 1.073871500692704
0.601163929105458 1.0845284368528507
0.5586711597152099 1.050707635502123
0.5629482196770381 1.1048480899935762
0.5216616646790019 1.0695649150960087
0.5029157314714323 1.0785062665736134
0.4636797731064124 1.0414418217125647
0.4649700429022357 1.095400775608404
0.42705151649413986 1.0569895942061374
0.40853946248164213 1.0642816862068099
0.372801956224979 1.0242649566566402
0.35486928835830067 1.0306152474032555
0.3368285238686927 1.0366516027617174
0.31868515814778287 1.0423721839997089
0.3004447178405291 1.0477752485727676
0.2821127591617479 1.0528591506550844
0.2515987714236544 1.0091075553270363
0.23394909651761975 1.0133448673766448
0.2162281584504696 1.017273504763158
0.20798180496043397 1.0699736299579539
0.18059410477360743 1.0242000631326964
0.16269184364184017 1.0271958742189433
0.1489152180272698 1.0595868335534804
0.1267441171413534 1.032247997706975
0.11184545569638944 1.0641384280440525
0.09325664473999422 1.0659283269581679
0.07115160321900797 1.0175153312650207
0.05599947317994981 1.0685336021873941
0.034550501735476066 0.9893969187489048
0.017801454566029044 1.0198446490595192
