# .PCD v0.7 - Point Cloud Data file format
VERSION 0.7
FIELDS x y
SIZE 4 4
TYPE F F
COUNT 1 1
WIDTH 178
HEIGHT 1
VIEWPOINT 0 0 0 1 0 0 0
POINTS 178
DATA ascii
3.588215121501745e-16 -5.86
0.1013984814006177 -5.809115108858633
0.20451105067665634 -5.856430246331901
0.22818476921923572 -4.354024771529942
0.40528511245336885 -5.795847132009579
0.27976993421998264 -3.1977849808745034
0.6020839484216839 -5.728446117321254
0.6958739508433922 -5.667438525871948
0.8920995771540197 -6.347618320633466
1.1738616810284495 -6.657300410362526
1.2898688087454435 -6.635799760106209
0.9168905565063192 -4.313630919236083
1.4756789164957553 -6.391867624991143
1.2967013604142188 -5.200785092839341
1.0896281798816123 -4.066547728676977
1.0915239290353167 -3.8065963159157428
1.026224683576806 -3.356629693430254
1.6408802401309708 -5.050110101527265
1.7287669001675023 -5.020703636432372
1.8161269610593014 -4.989767816373173
1.9208522095628102 -5.003991086025001
1.6332847472933771 -4.042521605911193
2.5631962028896353 -6.038511838648009
2.7088660428848303 -6.084212747899721
1.559461385823181 -3.344275734165238
1.4729270532113001 -3.0199479955652007
2.683083853460722 -5.265848557953254
4.018676577447226 -7.5580313948724145
4.149970349308646 -7.486744693113228
2.1799999999999997 -3.775870760500153
3.3786497714099557 -5.623017492605856
1.9924964335168502 -3.1886608415481614
3.055424986434302 -4.704941886173828
2.9413546722561286 -4.360737631639519
2.8449391243011886 -4.0629941396734
2.7390792756829248 -3.770019193787255
2.684095003258135 -3.561914374810926
2.561151737354739 -3.278124735003963
1.8942543770600104 -2.339209343985482
1.8383725637035024 -2.190887107320277
1.351481599720445 -1.5547017352589103
1.298113376336185 -1.441700961426145
1.3230768185212471 -1.4188261811411904
1.222598732007835 -1.2660380485960259
1.2798632739476512 -1.279863273947651
0.61863222829124 -0.5974061985947376
0.5923964983115282 -0.5524186716506237
0.5870844121271416 -0.5286131790234979
0.6339560473871285 -0.551089584352026
0.6051751100639926 -0.507802211652366
0.613945309551007 -0.49716310892937154
0.6225284953493104 -0.48637256550727
0.6069629876359426 -0.45737941759555667
0.6553037654437075 -0.4761060543569033
0.9338333304894506 -0.6538771374401925
0.7129723123973358 -0.48090589698484226
0.5954561032412511 -0.3866937148606691
0.5597117434632413 -0.34974671439391525
0.5657304184633941 -0.3399251294406357
0.5715767664977295 -0.33
0.5597566125692133 -0.3102781569576557
0.5650864594297133 -0.30046180018297014
0.5702441754805555 -0.29055391983330997
0.5932040705574503 -0.2893249568807911
0.598163139444189 -0.2789280527488616
0.6942945478083767 -0.3091198487376081
1.2334765036262703 -0.5235797121756267
1.2887855578478344 -0.5207031648481175
1.2976767928311104 -0.4981314498679674
1.353157373931708 -0.492509006388963
1.4088226776429822 -0.4850965501411635
1.4170742092797788 -0.4604353216186716
1.4727093241830749 -0.45025242527301457
1.528406096541927 -0.4382633957490286
1.5841183551140718 -0.4244632339681339
1.639799777406434 -0.40884800356343826
1.6954039127263094 -0.3914148345583249
1.6726323972548076 -0.35552899129836857
2.267558793764104 -0.4407687793198186
2.3733866847594216 -0.4184921081773022
5.59031600776848 -0.8854190721277068
5.55540386564021 -0.780761096385967
5.5185566031257505 -0.6775935493326197
5.479815643479186 -0.5759518326047701
5.4890327864855175 -0.48022814253959595
5.3968215119056495 -0.3773825229557172
5.352654306284516 -0.2805207254621793
5.356734832822354 -0.18706130232540547
5.359183646038257 -0.09354489850383976
3.11 0.0
5.259198876522618 0.09179965786011139
5.256795750120443 0.18357135265515534
5.202859876071329 0.27267033202573776
4.19974465159386 0.2936747544627679
4.044550474252486 0.3538523155554926
4.037758895195189 0.4243855608666736
4.823774296976826 0.5922850089490166
4.961243024395268 0.6972572358099277
5.096471837470911 0.8072018396075913
6.066415758555202 1.069672774428291
6.095904809209993 1.1849238612883435
8.519665602391447 1.8109108270226846
8.438044761040137 1.9480761306178718
10.974044664181521 2.7361366392322433
11.214398843216081 3.004889113640268
15.389799751972488 4.4129540666301565
24.39533432461704 7.458402187477014
24.02562700597864 8.272686804756352
23.830604863130635 8.67363083473896
18.354191184934987 7.045513888060604
18.27479377351138 7.3834959562276286
12.02179338608887 5.102948538069917
9.372976395413085 4.173117957957711
7.893940825089222 3.681005059761492
6.660063883076827 3.2483301977070647
5.755902146256856 2.932778628317472
5.350662412725097 2.844997670482499
4.513037688839282 2.5016176404710992
4.078979651824707 2.354999999999999
4.037257986306948 2.4258293328263556
3.9519041280889455 2.469423771326735
3.111467807077523 2.020610819905751
2.8684700010404445 1.9348074460087838
2.6704356643821128 1.8698591825044106
2.475592002787339 1.7986228720149677
2.284097558735257 1.7211909662148586
2.174909679954552 1.6992256718988168
1.9894936613298457 1.6110602010875834
1.9227715522286346 1.6133969003132136
1.781114609325742 1.5482993084175969
1.7166645468527806 1.5456917006889628
1.5797239954974085 1.4731164577349969
1.5178069787145534 1.4657291616684844
1.4212846301849604 1.4212846301849602
1.3823701572134044 1.4314862026739161
0.7570181796693733 0.8118026087972793
0.642365382104504 0.7134190324582983
0.6166954872510768 0.7094270054094056
0.604220353105347 0.7200817765318392
0.5915611675868471 0.7305172037695526
0.5787217868061189 0.7407301083903185
0.5777424222259662 0.7666900896454012
0.5642738422007741 0.7766563145999495
0.8546288901630584 1.220536545990598
0.8331974261714127 1.235265983107012
0.6045493288666802 0.9309243304194207
0.5352184568755369 0.8565285771179902
0.5098876941609537 0.8485956276950911
0.5199999999999999 0.9006664199358163
0.47996152404387377 0.8658735100680017
0.46477684715803175 0.8741181169303377
0.45853040473694234 0.8999165894302515
0.48659197293587575 0.9976613913920755
0.6085702969066071 1.3050832133327759
0.5857007660291526 1.315505459005345
0.5821893814490179 1.3715522316441362
0.5768941538605048 1.4278631360328524
0.5518866422997623 1.4377138568056906
0.5438120278878135 1.4941112670495944
0.5339317733097367 1.5506504639828795
0.5222387204936612 1.6072855125388095
0.4941081809814247 1.61615503757753
0.47960899912157856 1.672595350932675
0.4632860907335125 1.729007229057432
0.44513628790338855 1.7853441363478335
0.43640504542709835 1.8902779256833564
0.4137442647273409 1.9465137254602733
0.38925035056815166 2.0025194542332345
0.36292469132388416 2.058248203795515
0.3347697551860942 2.1136530488735947
0.3047890911025429 2.168687070544039
0.27908079639778777 2.2729306872586275
0.24668717331166268 2.347071673069125
0.21004534002185613 2.4008292224011067
0.17508874909775488 2.5038857661521585
0.14183044141837756 2.706286039184895
0.09457763606377792 2.7083491412217495
0.050786502732494625 2.9095567929050987
