# .PCD v0.7 - Point Cloud Data file format
VERSION 0.7
FIELDS x y
SIZE 4 4
TYPE F F
COUNT 1 1
WIDTH 169
HEIGHT 1
VIEWPOINT 0 0 0 1 0 0 0
POINTS 169
DATA ascii
1.9655581126315019e-16 -3.21
0.05340436369808781 -3.0595339471785574
0.10330251023940319 -2.9581968479765233
0.15229763266696694 -2.90601194613581
0.19252786753378623 -2.7532767787171144
0.23619206284615354 -2.6996876318286303
0.2759551430266051 -2.6255378037722417
0.315641599419332 -2.5706945327510238
0.3534996764385663 -2.5152808946035887
0.38952181795017504 -2.4593439680818934
0.4063367357406171 -2.304450142048567
0.43695259941228787 -2.2479262500951505
0.47611777197266913 -2.239958005680415
0.5038903617302579 -2.182588945118927
0.5298089513632722 -2.1249476405444323
0.5409318042642683 -2.018784976944153
0.5760820736575282 -2.0090369445110863
0.5964382776343831 -1.9508617021645924
0.6149438188061455 -1.8926024674273556
0.6316022196468841 -1.8343060366626744
0.6635190780517976 -1.823003684324662
0.6773154246406177 -1.7644670060797112
0.7080064615560739 -1.752377485131228
0.7189452764202636 -1.6937289303524903
0.7280585911056827 -1.6352463691802555
0.756486688515852 -1.6222909387956035
0.7846843527524486 -1.6088413428755088
0.7899434695468115 -1.55035135208776
0.7934069411081556 -1.4921814319315865
0.8193282582163097 -1.4781073050655789
0.8349999999999997 -1.4462624243200126
0.8446624428524889 -1.405754373151464
0.869067593342456 -1.3907988776965385
0.8932080174246444 -1.3754197314304952
0.8891167165184877 -1.3181697403625163
0.9005150050711423 -1.286068709533717
0.9522121087138066 -1.310607530887415
0.9448495863487159 -1.2538577507742499
0.948118672001514 -1.2135365605543518
0.9691534022167496 -1.1968047806437352
1.0091765472078669 -1.2026897756967956
0.9972097240655711 -1.1471585619386135
1.0170785216654645 -1.1295801347256393
1.0025375892918729 -1.0750899413801804
1.021147804574726 -1.057429506497817
1.039446968344225 -1.0394469683442247
1.0574295064978172 -1.021147804574726
1.0750899413801807 -1.0025375892918726
1.1072857899613175 -0.9970046034746985
1.1396114661363856 -0.990649133775666
1.2716337755775033 -1.0670274320796551
1.3677768921642688 -1.1076038882477137
1.2371768831625536 -0.9665885162612834
1.2298986854728309 -0.9267951356541544
1.3429682106624128 -0.9757235188055053
2.056071631165369 -1.4396768552411254
2.039432428485403 -1.375614542538037
1.962489128992292 -1.274455341935163
2.0268349498138583 -1.2665070415173598
3.7886794691033363 -2.276468291102439
4.208883462392372 -2.43
5.343926410621708 -2.9621867797051196
6.939968079871166 -3.690046483497102
10.478236724455206 -5.338928276937071
17.580411545611707 -8.574539631194353
17.68206492508504 -8.245282286561046
20.015780976949387 -8.91159984979078
20.16826133914297 -8.560919025199986
18.22843458078304 -7.364765626556828
18.21415412096041 -6.99175869562881
13.869863082800007 -5.048217315486871
11.922989238307386 -4.105414427704746
10.328473766965367 -3.3559245589119286
9.19008870480477 -2.8096920823855
8.276463202028925 -2.3732376335843623
7.543880703317623 -2.0213767422506863
6.850287827508534 -1.7079685829336533
2.591824372328726 -0.5983698045546806
2.4844949058638663 -0.5280956946771089
2.4933330459570664 -0.48465484825642396
4.7339242219529805 -0.4975554851540301
4.343408883680011 -0.3799990383797892
2.9559434228735384 0.15491443047911396
2.7532767787171144 0.1925278675337861
2.799307101637805 0.2449076371209198
2.8443326207532613 0.29895140494548933
2.838681993694181 0.34854632213872166
2.6836264662896556 0.37715910360177723
2.676635403012823 0.42393740025902565
2.6195886230124734 0.4619041525940348
2.51296558962602 0.4884710281639549
2.5040578578785424 0.5322539284934641
2.3969503593716786 0.5533795936859081
2.3384127003251516 0.5830317683951995
2.2795849500422007 0.6108129464419493
2.2205145176175165 0.6367222919372679
2.017803035082005 0.6169042969649744
1.9591764235680162 0.6365750084123917
1.9004923369546267 0.6543919904588849
1.8417975367403803 0.6703594809183108
1.8298176359345153 0.7024011811087886
1.8636395476792422 0.7529592527659833
1.9422652407846488 0.8244426811123678
2.110290007154408 0.9395616455050988
2.138886377406494 0.9973790977080504
2.121153949266034 1.034555906422223
2.147325723293967 1.094117104372308
2.083756319147067 1.1079528881747027
2.0203715234920043 1.1199102227690387
2.0871212231204974 1.2049999999999996
2.108631559727196 1.2669936642787334
2.043795911736987 1.2771054268020239
1.9792625403512003 1.2853481226354642
1.9565286712298984 1.3196952521909624
1.9331988245220202 1.3536403897884692
1.909280106724876 1.3871731954102364
1.8847798037116108 1.4202834546388343
1.8203048408315277 1.4221780080022708
1.7563498728927542 1.4222640837726321
1.6929582192929413 1.420560617407252
1.6679081722923261 1.4498904540690207
1.642350064305041 1.478778640053077
1.5797239954974085 1.4731164577349969
1.5537739687314862 1.5004620801914343
1.4919953083036153 1.491995308303615
1.465729161668484 1.517806978714554
1.4731164577349969 1.5797239954974083
1.411865579417191 1.5680355817573015
1.3842845511699702 1.592437214270049
1.3241424759542713 1.5780515528250947
1.296400005562665 1.60092068060136
1.2682626391708562 1.6233021524298472
1.2096481965356167 1.6052573751950587
1.2108376197224946 1.6665750084123918
1.1528886370656022 1.6464956090208736
1.1239777359762009 1.6663655208356336
1.0674925086294533 1.6437943131730308
1.0386417578970817 1.6621742684665948
1.0094746268237063 1.68004790937614
0.9799999999999998 1.6974097914175
0.9647711442902108 1.7404932172073975
0.9342484099439223 1.7570657097892648
0.9034410944816983 1.7731029831348522
0.8723585821102637 1.7886001521353423
0.8198794277769569 1.758237106851101
0.8216080190131168 1.8453618244380536
0.758018389269191 1.7857794156977342
0.7267367912268696 1.7987366778595673
0.7131522195951473 1.8578250487294314
0.6806200852180809 1.8699883153639576
0.6478806273697415 1.8815819654426404
0.605673308974897 1.8640707719385008
0.5730485412565636 1.8743573216875495
0.5402492174013184 1.884072924039105
0.5202262806560671 1.941510910841027
0.4644900395513619 1.8629677944499132
0.4319060243402211 1.8707905243876517
0.4199816154518736 1.9758581534822874
0.38543417066062075 1.9828869105642812
0.3594517277705455 2.0385520487352706
0.33007672123488724 2.0840223986557405
0.30061389807374095 2.138979028481792
0.26933124892537597 2.1935269951273217
0.23100790382151462 2.197893388763884
0.1882564043349416 2.1517805478781704
0.15416180697451726 2.2046165510742113
0.11566246329690567 2.206971271807608
0.07712788771252739 2.2086537277122016
0.0403150588701246 2.309648175811264
