# .PCD v0.7 - Point Cloud Data file format
VERSION 0.7
FIELDS x y
SIZE 4 4
TYPE F F
COUNT 1 1
WIDTH 180
HEIGHT 1
VIEWPOINT 0 0 0 1 0 0 0
POINTS 180
DATA ascii
5.3272135762909864e-17 -0.87
0.016056213922300912 -0.91985987954388
0.03036256213117594 -0.8694700195066133
0.048149079743508454 -0.918739171974208
0.06417595584459543 -0.9177589262390383
0.07756861104541575 -0.8866132813016535
0.09303033230821157 -0.8851244868777632
0.10846371563058127 -0.8833660749607766
0.12803925288326024 -0.9110466232422447
0.13922667388580554 -0.8790426231296726
0.15454687812356807 -0.8764789001808652
0.16982000588512497 -0.8736481932684209
0.18504140482780593 -0.870551364653087
0.20020643836604 -0.8671893576588594
0.21531048708370423 -0.8635631963856368
0.2432899023963695 -0.9079702767117241
0.2590991144679792 -0.9035859941820197
0.27482940243937254 -0.8989264706052532
0.29047597471245057 -0.8939931253174442
0.3223124729125852 -0.9360633898433236
0.33859994189241216 -0.9302956945780492
0.3368658725725823 -0.8775656009073696
0.3783526593500713 -0.9364556931124552
0.4063603736288447 -0.957325047590538
0.4026692766450424 -0.9044100030661747
0.4395229922103274 -0.942560098518116
0.4559059926606406 -0.9347458081511336
0.47215011972912874 -0.9266467851559026
0.511724003436621 -0.9624128762162304
0.5042020050561906 -0.9096044954249716
0.5449999999999999 -0.9439676901250382
0.5871434053974618 -0.9771707228004078
0.5776119980141934 -0.9243724248105044
0.5936565481663796 -0.9141509190605122
0.6374799099566514 -0.9451028327127474
0.6538771374401925 -0.9338333304894506
0.6700751876134193 -0.92227937358744
0.7161598775509374 -0.9503762569562785
0.7634202294038164 -0.9771333344723352
0.7803572849017983 -0.9636609922066439
0.7970566360113088 -0.9498951094675328
0.8463161473977544 -0.973575358487376
0.8966350125208701 -0.9958140661397084
0.9138778024837482 -0.9800139601696883
0.9308422164150564 -0.9639153324537925
0.9828784258493011 -0.9828784258493009
1.0358493124876578 -1.000308053460956
1.0531493303316055 -0.9820776384899977
1.1072857899613175 -0.9970046034746985
1.162252753543069 -1.0103309046453812
1.1797084424032263 -0.9898929189172705
1.2356620787165837 -1.0006194217692415
1.292337635915024 -1.0096848195340793
1.3896257874822895 -1.047158140284564
1.448140419931156 -1.052135601603527
1.4662821592772954 -1.0267018210683725
1.5668810121290289 -1.0568745875597114
1.6270209018141226 -1.0565997279291524
1.687615711351288 -1.0545393358240778
1.748621293432309 -1.0506776728165104
1.8273136019851652 -1.055
1.9329095527780646 -1.071429260744405
2.0837563191470676 -1.1079528881747023
2.191876049503385 -1.1168166293592852
2.2559730562109093 -1.1003115784405841
2.410778713517489 -1.1241645762302603
2.5670627359757088 -1.1429299670429984
2.7246943662192233 -1.15656414032825
2.883541787702709 -1.165026505523486
3.090151211705738 -1.186197912994944
3.298321098958538 -1.2004907030730974
3.4416876151815132 -1.1850680822240505
3.5093985451291165 -1.1402727092435558
3.605268929980644 -1.1022413268047173
4.383353333478734 -1.2569063425255158
4.356325476563698 -1.1672738934123683
7.9661279127259315 -1.9861787628732714
7.999578231886782 -1.8468481561631307
7.962121469973178 -1.6924011632565616
8.599054127001537 -1.671486799498533
9.857925607652202 -1.7382182584459729
10.676910961833439 -1.6910565670848958
9.863069964666042 -1.3861640855622517
10.183523515839964 -1.2503794633368126
10.253520741246898 -1.0776884562895064
10.818674421276356 -0.9465113662395666
3.5613036594275727 -0.24903061126652687
3.5151759623361 -0.18422256597516254
3.6577704268898907 -0.12773215793115372
3.6594425642723922 -0.06387580756045774
3.76 0.0
3.759427333788031 0.06562104820418609
4.107496299048484 0.1434369314472792
4.054435911103569 0.21248398234635224
5.297065106879666 0.37040687558130586
5.339603581771756 0.46715478112744846
5.280911264405531 0.5550461399512406
5.27042006521542 0.6471262134813328
3.7234079384683043 0.5232908596098459
3.5655549095484473 0.5647284187952334
3.4074348254222397 0.600822694727579
3.1510232588670015 0.612496875158709
2.9931316582454452 0.6362097739023438
2.835416888525035 0.6546075681406475
2.67801620452175 0.6677044318550832
2.5210664066144677 0.6755177077175796
2.3647037720082644 0.6780678953098178
2.3046944618709158 0.7046158083817955
2.196940552641805 0.7138292570061285
2.0423201232945245 0.7032272136274585
1.9827514298582665 0.721662502417161
1.9045040700542917 0.7310706170724127
1.8172803549509031 0.7342289230951877
1.785779415697734 0.7580183892691913
1.7266009149445156 0.7687322554132625
1.667606328147436 0.777617601602887
1.5639016405605504 0.7627657954129949
1.5058010258783416 0.767243944559834
1.44803405228864 0.7699333629688612
1.434376319708609 0.7950877772039927
1.3769803920172576 0.7949999999999998
1.3200376430812528 0.7931586353614836
1.2635916632730748 0.7895797037074753
1.2076856178414104 0.7842802104216391
1.19381410447926 0.8052377809978754
1.1386213415616984 0.7972712465279542
1.0840827724624296 0.7876322380719141
1.0701715834633723 0.806432131023745
1.0322940872248056 0.8065165326766124
1.0569185075814806 0.8558757318277788
1.0264995537794306 0.8613353969799628
1.0113108374985145 0.8791190988472797
0.9958140661397082 0.8966350125208702
0.9800139601696887 0.9138778024837481
0.9639153324537924 0.9308422164150565
0.9121677477306463 0.9121677477306462
0.8613763793691565 0.8919813524199276
0.8797778844806231 0.9434462750887299
0.8297219518849843 0.9214995835919687
0.813513195948229 0.9358398794762373
0.764917255526982 0.9115928873115838
0.7488912653493065 0.9248036941337954
0.7018540818712505 0.8983322591116629
0.6860691263933348 0.9104444814539139
0.6700751876134193 0.92227937358744
0.6538771374401923 0.9338333304894507
0.609520264783114 0.9036509540849955
0.5936565481663797 0.9141509190605122
0.5776119980141934 0.9243724248105044
0.5613915016519592 0.9343123577653024
0.5449999999999999 0.9439676901250382
0.5284424860685075 0.9533354807819414
0.48825042529732626 0.918265496573284
0.47215011972912874 0.9266467851559026
0.45590599266064036 0.9347458081511337
0.41839207912329246 0.8972447091662834
0.4026692766450424 0.9044100030661747
0.4063603736288447 0.957325047590538
0.3895908571525487 0.9642712087494588
0.3727026675271122 0.9709236435570898
0.3557009490586956 0.9772803256173447
0.32231247291258497 0.9360633898433237
0.30592682443119795 0.941545951132202
0.28944798767550917 0.9467417084034052
0.2728809822588292 0.9516490789789357
0.25623085465149575 0.9562665680261775
0.239502676643671 0.9605927690132365
0.21145399108323323 0.915907860898121
0.21206992463411442 0.9977105527484819
0.18508472551524857 0.952178367944234
0.1684387323369223 0.9552635204218418
0.151741431089024 0.9580576903772836
0.12803925288326004 0.9110466232422447
0.1121197959327357 0.9131424595100163
0.0909397630428587 0.8652340489703978
0.07756861104541575 0.8866132813016535
0.06417595584459543 0.9177589262390383
0.048149079743508245 0.918739171974208
0.032107536966301 0.9194395608575682
0.014660021407318036 0.8398720639313686
