# .PCD v0.7 - Point Cloud Data file format
VERSION 0.7
FIELDS x y
SIZE 4 4
TYPE F F
COUNT 1 1
WIDTH 180
HEIGHT 1
VIEWPOINT 0 0 0 1 0 0 0
POINTS 180
DATA ascii
5.939536975864663e-17 -0.97
0.01692883424416509 -0.9698522643016995
0.033852511801426045 -0.9694091022085228
0.05076587755565565 -0.9686706487119366
0.0676637795318017 -0.9676371287520295
0.08628418532018156 -0.9862327511108281
0.10139260936962385 -0.964686238507225
0.11455718280083864 -0.9329933825428426
0.1377813699504648 -0.9803653880541546
0.14704839713781706 -0.9284270401594295
0.16322928700691458 -0.9257192878314755
0.1793604556539522 -0.9227295524408041
0.20583257390958185 -0.9683661247264675
0.22270154380042648 -0.9646263641373829
0.239502676643671 -0.9605927690132365
0.25623085465149553 -0.9562665680261776
0.2728809822588292 -0.9516490789789357
0.2894479876755094 -0.9467417084034051
0.30592682443119795 -0.941545951132202
0.3223124729125852 -0.9360633898433236
0.3557009490586956 -0.9772803256173447
0.35478427004984736 -0.9242446222322297
0.3708605274817531 -0.9179120160211194
0.4063603736288447 -0.957325047590538
0.4230061087988324 -0.9500872759483048
0.4395229922103274 -0.942560098518116
0.4559059926606406 -0.9347458081511336
0.4948496447161061 -0.971197111365321
0.48825042529732654 -0.9182654965732839
0.5284424860685075 -0.9533354807819414
0.5449999999999999 -0.9439676901250382
0.5613915016519592 -0.9343123577653024
0.6041079612258535 -0.9667748296183255
0.6208884999171308 -0.9560844474577832
0.6374799099566514 -0.9451028327127474
0.6825559592577448 -0.9747909327039002
0.699464450228043 -0.9627302233061874
0.686069126393335 -0.9104444814539138
0.7326371556375335 -0.9377327967919991
0.7803572849017983 -0.9636609922066439
0.7970566360113088 -0.9498951094675328
0.813513195948229 -0.9358398794762373
0.8297219518849842 -0.9214995835919688
0.8797778844806232 -0.9434462750887298
0.8961092978921065 -0.92794834243686
0.9475230867899738 -0.9475230867899737
0.9639153324537927 -0.9308422164150564
0.9800139601696887 -0.9138778024837481
1.032971307413578 -0.9300915428388127
1.0867817955207917 -0.9447250017463305
1.1031039980913282 -0.9256141579486165
1.1579474825708866 -0.9376873826642577
1.213536560554352 -0.9481186720015137
1.2298986854728309 -0.9267951356541544
1.2863370210561664 -0.9345785511450323
1.3434093526339466 -0.9406653556157155
1.3596216189902683 -0.9170763616920247
1.4173532598277665 -0.9204399691753955
1.4756036873121814 -0.9220595197657765
1.5343294682567812 -0.9219181540889968
1.593486742963367 -0.92
1.6530312464934578 -0.916290182265577
1.7570657097892648 -0.9342484099439227
1.8176533093442706 -0.9261406194686755
1.878479556765259 -0.9161956967891717
1.9848140536102634 -0.9255339932121316
2.0189354613901482 -0.8988879811975183
2.1263662114751374 -0.9025889068102222
2.262328605142961 -0.914040087934825
2.623360998457137 -1.007013938222294
2.7345055264869935 -0.9952786170776962
2.8932868413339095 -0.9962385526388995
3.0528914173074426 -0.9919445519435811
3.1653687422376477 -0.9677503426322586
3.1817762135558354 -0.912359647754267
3.1972144850168163 -0.8566910392893434
3.502767571856347 -0.8733380431148001
3.7123499468317465 -0.8570635170501252
3.97127925897925 -0.8441214647201031
4.328975879004198 -0.8414676696105629
4.68768490433811 -0.8265653256945885
5.145856254500668 -0.8150235628596029
5.6544306725143665 -0.7946784064819735
6.3125935244388085 -0.7750890240567377
7.071050676068423 -0.7431973738330157
8.577236350569928 -0.750410945057336
9.287321307918965 -0.6494327705578055
11.544157421762874 -0.6050036541684316
13.651678697080849 -0.47672712495616393
13.657919515836305 -0.2383998719332931
19.36 0.0
19.307058993469916 0.3370059683039451
19.298236869738737 0.6739092813252946
19.28353631611082 1.0106073150512467
19.262961810517204 1.3469975079990615
19.286329355056193 1.6873351795946645
15.623938976235575 1.6421421579348383
8.793958903542114 1.079762382569606
7.4369131962491934 1.0451899882100912
6.38046668024459 1.0105666441598915
6.046719603494957 1.0661998108749524
5.212440344107096 1.0131957654494532
5.047241619786437 1.0728243246196385
4.199534979224364 0.9695390442220584
3.842371076052946 0.9580107065746847
3.53528852421799 0.9472777050752266
3.3259654679465833 0.9537052511268169
3.0219230288431924 0.9238945869238481
2.8626801140484117 0.9301411530685916
2.704183126214046 0.9311249217474681
2.4995823712905163 0.9097735812462789
2.3899658918328366 0.9174219508359689
2.2345130895059575 0.9028018901323482
2.126366211475137 0.9025889068102226
2.018935461390148 0.8988879811975187
1.9123094306473312 0.8917245322728756
1.8065760330613254 0.8811260050460458
1.7018224611997825 0.8671218545025343
1.6687709505033717 0.8873012536653339
1.6093002611364882 0.8920497012532602
1.5068842025849234 0.8699999999999997
1.4486127381865697 0.8704143465979917
1.43320128250436 0.8955635565541162
1.3754197314304952 0.8932080174246445
1.3181697403625163 0.8891167165184874
1.2614941482050472 0.8833077119806113
1.2054353216186717 0.875800025915785
1.1500351344681015 0.8666136333389498
1.1347354851936795 0.886552524468948
1.0802328864251896 0.8747553435592738
1.0264995537794306 0.8613353969799628
0.973575358487376 0.8463161473977543
0.9586568248658385 0.8631784822029273
0.9068785900077715 0.8456779664774982
0.8919813524199272 0.8613763793691567
0.8414570696119916 0.8414570696119914
0.8613763793691565 0.8919813524199276
0.7774781304712481 0.8337432198458542
0.7628088912490985 0.8471851010442293
0.7479072930491782 0.86036892145396
0.700638494558328 0.8349884429996861
0.6859592262443228 0.8470890979880984
0.6402879343386848 0.8195311837509908
0.6258876240781301 0.8305809304491847
0.6112966623841721 0.8413776741499454
0.5965194938050878 0.8519181260605516
0.5536009744360393 0.8207471968294913
0.5391926446648769 0.8302838622659697
0.5246200715908729 0.8395676151948617
0.48413579041545096 0.8057372626599855
0.46999999999999986 0.8140638795573724
0.45572104303155686 0.822142524711032
0.4413032690187372 0.8299707372873913
0.426751069755174 0.8375461327370658
0.4120688779817326 0.844866403521217
0.37613025294922253 0.8066139304626184
0.36199561233746236 0.8130554573019146
0.34775070435545363 0.819249319572672
0.33339986814016187 0.8251936305644407
0.3189474750953171 0.8308865795825096
0.30439792755984524 0.8363264324994584
0.2734772497440115 0.7942356035034261
0.27502512499370324 0.8464402995026866
0.2455922319670987 0.8032959950089499
0.24531724667712926 0.8555229093851038
0.2174079978861176 0.8113776940828172
0.20321439230372085 0.815048410071837
0.18895888564884672 0.8184708544195975
0.17464582028691775 0.8216439846163968
0.15073910634747048 0.7754854749236546
0.14586446924022137 0.8272385125302548
0.13140495063379398 0.8296582060999157
0.1169054048064548 0.8318251777429191
0.10237024846032389 0.8337387673787104
0.08257748598144642 0.7856722973409359
0.07146770905307967 0.8168796524352313
0.05859543794506538 0.8379538022182523
0.04134540543192556 0.7889173324561134
0.028617587296050885 0.8195004781556585
0.014310973278572368 0.8198751100282408
