# .PCD v0.7 - Point Cloud Data file format
VERSION 0.7
FIELDS x y
SIZE 4 4
TYPE F F
COUNT 1 1
WIDTH 556
HEIGHT 1
VIEWPOINT 0 0 0 1 0 0 0
POINTS 556
DATA ascii
-6.947217504290223 19.08745252316811
-6.853580270420212 19.176052032166442
-6.759463142792578 19.265105616627626
-6.66485602109056 19.354622833198942
-6.569748633569391 19.444613401025357
-6.474130531743645 19.535087206526384
-6.377991085002034 19.62605430826827
-6.281319476195202 19.717524941604932
-6.18410469522165 19.80950952407048
-6.086335535215931 19.90201866003588
-5.9880005842182875 19.995063146889652
-5.889088222582455 20.088653979546283
-5.789586614644156 20.182802356840913
-5.689483703153428 20.27751968718322
-5.588767203817733 20.37281759433325
-5.487424596334462 20.468707924287948
-5.385443121336264 20.565202750671514
-5.282809769925131 20.66231438230829
-5.179511277888075 20.76005536965413
0.5081298207828446 5.852328729711763
0.53539396332968 5.776739014117789
0.5644722931272973 5.728178003651925
0.594110767821865 5.690069269893401
0.6240206268169084 5.658111959010255
0.6540894064255856 5.63039056024361
0.6842643936237549 5.605846897264753
0.7145188514504994 5.583819598123597
0.7448389873613477 5.563859743118177
0.7752179501382078 5.545643288960585
0.805652653872806 5.528924095527764
0.8361418402563484 5.513506052781813
0.8666846568607482 5.499224732727685
0.8972793293857694 5.485933589074538
0.9279215601259947 5.473491435754112
0.958602146509926 5.461748032132505
0.9893028576633797 5.450522928482739
1.0199883391127764 5.439567211162716
1.0505879048139737 5.428480171579658
1.0809461511940803 5.416484939702997
0.8202252802921769 3.9891631501367697
0.8400584391286272 3.9686196694487084
0.8603118131188875 3.9508791447512657
0.8809604994713189 3.935597387106088
0.9019915987195903 3.922517907397482
0.9234009784568024 3.9114470132424426
0.9451913017875603 3.90223783718099
0.9673708218225866 3.894779768883715
0.9899526708123371 3.888991326700675
1.0129544916508173 3.8848153251785495
1.0363983262383136 3.8822156524010865
1.0603107160093013 3.8811752417991427
1.0847229967945728 3.881694990814158
1.1096717915908672 3.8837934951174606
1.1351997236444933 3.8875075525019023
1.1613563930465152 3.892893466467757
1.1881996864571995 3.9000292596962796
1.2157975251947089 3.909018002401272
1.244230209530236 3.9199925913102343
1.273593596911524 3.933122506054744
1.3040034794185433 3.94862337069584
1.3356017319222595 3.966770628919479
1.3685651514690051 3.9879194543977587
1.4031185117375595 4.012534417884886
1.4395544338773365 4.041234926354817
1.4782646245649231 4.074866930886255
1.5197905070956788 4.114619274360939
1.5649065653780028 4.16221448484166
1.6147505533727882 4.220201754290017
1.6709489126237314 4.292206820495654
1.7350976567562648 4.381527861749036
1.8044605786527241 4.480478566154986
1.8671109272178323 4.559429059052909
1.9175493845801612 4.606119272652257
1.9598200577496592 4.631643549215986
1.99758954888747 4.645524255555806
2.0328473255508346 4.652853064968611
2.066671001740077 4.656354165368247
2.0996912323176438 4.657594689968333
2.132310215015666 4.657548466089678
2.1648072384338453 4.656866825031495
2.1973935478782365 4.656018304045514
2.2302434649280705 4.655366680829656
2.2635140210438807 4.655218691949286
2.2973592391814863 4.65585683930554
2.3319426596797386 4.657565900496638
2.3674509022237316 4.660659216963624
2.404111463396071 4.66551094563998
2.4422199153719677 4.672603521308804
2.482186956626391 4.682608495564936
2.5246302441457034 4.696543795270774
2.5705818635784183 4.716129873468299
2.622069023515638 4.744791530074389
7.014153145709888 12.520177156451135
7.108252085522929 12.51706081535751
7.204694587477967 12.516996970401571
7.303293457743586 12.519521633549047
7.404051521605256 12.524514719783868
7.507276078469229 12.532368884353607
7.613688612171179 12.544136869966811
7.724563087724397 12.561713174048558
7.842005644206936 12.588227706383746
7.969682754312317 12.629118608839013
8.115127268530623 12.69558967908565
8.300932772278893 12.821530054427562
13.848678799311788 17.99620201129404
13.940387371715422 17.8992789343136
14.031933596330735 17.802527436137332
14.123324066103606 17.70594054894768
14.214565330575441 17.60951135079951
14.30566389781122 17.51323296358245
14.39662623630286 17.417098551009293
14.487458776848962 17.321101316629388
14.578167914412242 17.225234501865554
14.668760009955786 17.129491384073454
14.759241392259266 17.033865274622105
14.849618359716144 16.93834951699448
14.939897182113164 16.842937484906816
15.030084102393065 16.747622580445707
15.12018533840155 16.652398232221774
15.210207084619759 16.557257893538722
15.655101018997962 16.84409848781145
20.091224991962815 13.78136585973725
19.455201577098002 13.179560787073335
18.86274902620775 12.618982446477622
18.309502275496452 12.095500616736926
17.79166044896792 11.60551891014041
17.305898557197565 11.145891224051383
16.849295278569755 10.713853404592339
16.4192735029787 10.306966991363328
16.013551084366043 9.923072619178434
15.630099813670052 9.560251196917367
15.2671110529903 9.216791392884534
14.922966805209805 8.89116225846005
14.59621523907421 8.58199007151698
14.28554989089785 8.28803865709216
13.989791914336218 8.008192590843818
13.707874868004636 7.741442806924268
13.438831629646408 7.486874214328466
13.181783095840503 7.243655005756418
12.935928390677436 7.011027392794573
12.700536352897146 6.788299551187082
12.474938111233225 6.574838595093582
12.258520588509375 6.370064431184801
12.050720802243406 6.173444365686069
11.851020849834331 5.984488359386286
11.6589434843468 5.802744841447123
11.474048201301326 5.6277970067256895
11.295927768911564 5.45925953268656
11.124205144228311 5.296775661458611
10.958530726027535 5.140014600518887
10.798579902309626 4.988669202137485
10.644050856195824 4.842453887317756
10.494662599007748 4.701102784696949
10.350153203551361 4.564368058880388
10.210278214228225 4.432018406089368
10.074809213664217 4.303837697905908
9.943532528169559 4.179623756379622
9.816248056591428 4.059187245888549
9.692768209051858 3.942350668973457
9.572916943727565 3.828947454939315
9.45652889126488 3.7188211313771067
9.34344855766669 3.6118245699358136
9.233529597567092 3.50781929869519
9.126634150747426 3.4066748743775563
9.022632235564853 3.3082683084101703
8.92140119367812 3.2124835415249913
8.822825181079583 3.1192109621734434
8.726794700990133 3.028346964551731
8.633206174653811 2.9397935424869686
8.541961546492718 2.853457915834885
8.452967920454949 2.7692521863924124
8.36613722471798 2.687093020640184
8.281385902201048 2.6069013569054817
8.198634624598096 2.528602134780339
8.117808027871874 2.452124044846172
8.038834467353299 2.3773992969489055
7.961645790771379 2.3043634054399864
7.886177127700493 2.2329549899514998
7.812366694056079 2.1631155904100607
7.740155610398633 2.0947894951161574
7.669487732921411 2.0279235808247704
7.600309496100648 1.9624671638611078
7.532569766080107 1.898371861393097
7.466219703945056 1.8355914620613043
7.401212638116134 1.7740818052380598
7.337503945161115 1.7138006682516065
7.275050938383712 1.6547076609688725
7.213812763603721 1.596764127182684
7.153750301592636 1.5399330522964028
7.0948260766741065 1.4841789768417026
7.037004171039408 1.4294679154039178
6.980250144365298 1.3757672805644892
6.924530958355306 1.323045811501962
6.869814905856115 1.2712735069219518
6.816071544228639 1.2204215620128684
6.76327163267872 1.1704623091482595
6.711387073275553 1.1213691620784816
6.660390855407148 1.0731165633744595
6.610257003441256 1.0256799349044918
6.560960527378031 0.9790356311418196
6.512477376296714 0.9331608951159023
6.464784394413471 0.8880338168343549
6.417859279581029 0.8436332940153325
6.3716805440732465 0.7999389949818989
6.326227477509097 0.756931323580723
6.2814801117811 0.7145913859973737
6.237419187862847 0.6729009593496139
6.194026124379156 0.6318424619484956
6.151282987830541 0.591398925124771
6.109172464371295 0.5515539665253169
6.067677833047321 0.5122917647907889
6.026782940406358 0.4735970355318369
5.9864721763991655 0.4354550085267965
5.946730451495624 0.3978514060689695
5.907543174944893 0.36077242239638807
5.868896234113378 0.32420470414141334
5.830775974838636 0.2881353317416016
5.7931691827413605 0.25255180175712133
5.756063065441329 0.21744201004348762
5.7194452356266705 0.18279423573170772
5.683303694928997 0.14859712597093835
5.647626818559958 0.11483968139160632
5.6124033406675675 0.08151124224956303
5.577622340373186 0.04860147521428863
5.543273228452511 0.016100360766450435
5.5093457346261205 -0.016001818827781823
5.475829895427222 -0.04771449099625919
5.442716042616221 -0.07904680382299603
5.409994792113491 -0.11000763651996782
5.377657033423477 -0.14060560943402445
5.345693919524811 -0.17084909361285494
5.314096857202612 -0.2007462199525652
5.282857497800513 -0.23030488794810108
5.251967728371267 -0.25953277406654696
5.221419663205969 -0.2884373397621652
5.191205635723098 -0.3170258391509901
5.161318190699592 -0.3453053263617722
5.131750076827223 -0.37328266257913534
5.102494239578427 -0.400964522793928
5.073543814366629 -0.42835740227492153
5.044892119986923 -0.45546762277523295
5.016532652323738 -0.4823013384861215
4.988459078312871 -0.5088645417501295
4.960665230145858 -0.5351630685448849
4.933145099705419 -0.5612026037482891
4.905892833221213 -0.5869886861952442
4.878902726135727 -0.6125267135355298
4.852169218170716 -0.6378219469019571
4.825686888584997 -0.6628795153974254
4.799450451614982 -0.6877044204090931
4.7734547520897195 -0.7123015397574285
4.747694761212625 -0.7366756316875239
4.722165572502537 -0.7608313387096775
4.696862397887023 -0.7847731912959
4.67178056394128 -0.8085056114386627
4.646915508266281 -0.8320329160779018
4.622262776000115 -0.855359320401978
4.597818016456794 -0.8784889410280392
4.573576979887073 -0.9014257990669365
4.5495355143560605 -0.9241738230776207
4.525689562732703 -0.9467368519156917
4.502035159786422 -0.9691186374805639
4.47856842938641 -0.991322847365485
4.455285581799336 -1.013353067414452
4.432182911081354 -1.0352128041898847
4.409256792560572 -1.0569054873547192
4.386503680406239 -1.0784344719724357
4.363920105281157 -1.099803040728352
4.341502672073915 -1.1210144060753777
4.319248057707754 -1.1420717123072681
4.297153009022974 -1.1629780375622851
4.275214340730991 -1.1837363957563591
4.253428933429462 -1.2043497384763826
4.231793731697742 -1.2248209567567248
4.210305742243211 -1.245152882840502
4.188962032110264 -1.2653482918744798
4.167759726924968 -1.2854099036210402
4.146696009244837 -1.3053403839514597
4.12576811695223 -1.3251423463303436
4.104973341613088 -1.3448183535203544
4.084309027022048 -1.3643709188052282
4.063772567684803 -1.3838025075164782
4.043361407418047 -1.4031155382953409
4.02307303792081 -1.422312384528536
4.002904997489862 -1.4413953754481008
3.9828548697039237 -1.4603667974073509
3.962920282033515 -1.4792288954196098
3.943098904821741 -1.4979838737485618
3.9233884499834466 -1.5166338973454436
3.9037866698003763 -1.535181093066658
3.8842913559182626 -1.553627550426441
3.8649003381949956 -1.5719753227953674
3.8456114836448405 -1.5902264283964045
3.8264226954123446 -1.60838285127398
3.807331911734673 -1.6264465423310568
3.7883371051061845 -1.6444194199295237
3.769436281196191 -1.6623033711158177
3.750627477992105 -1.680100252346081
3.7319087648727916 -1.6978118904092316
3.7132782418383274 -1.7154400830337644
3.694734038569194 -1.7329865999052076
3.676274313577979 -1.7504531834958685
3.6578972535163414 -1.767841549593016
3.6396010723884427 -1.7851533880605879
3.621384010710509 -1.8023903637285867
3.6032443348454417 -1.8195541169412501
3.58518033613119 -1.8366462645395414
3.5671903305262793 -1.8536683998406367
3.5492726575006612 -1.8706220941233422
3.5314256797444785 -1.8875088965293427
3.5136477822110876 -1.9043303352674605
3.4959373716356295 -1.921087917918236
3.4782928760487613 -1.9377831317839251
3.460712743795008 -1.9544174451469145
3.4431954434290364 -1.9709923069508488
3.425739462658642 -1.9875091482051328
3.4083433081040186 -2.003969381943347
3.391005504737378 -2.0203744037723137
3.3737245950966988 -2.0367255928020054
3.3564991390233025 -2.0530243116945557
3.3393277130419645 -2.0692719073321793
3.3222089098470597 -2.0854697113095546
3.3051413378127648 -2.101619040393781
3.2881236205610898 -2.1177211969012015
3.271154396429549 -2.133777469239883
3.2542323180378885 -2.149789132300424
3.2373560518288333 -2.165757447894124
3.220524277623291 -2.181683665173856
3.2037356881840573 -2.1975690210468817
3.186988988787731 -2.2134147405799074
3.1702828968045047 -2.229222037396689
3.1536161412855477 -2.2449921140684443
3.1369874625576744 -2.2607261624973822
3.1203956118250202 -2.276425364293597
3.103839350777447 -2.29209089114559
3.087317451205405 -2.3077239051846927
3.0708286946209866 -2.3233255593436213
3.0543718718849266 -2.338896997709413
3.037945782839273 -2.3544393558709884
3.0215492359455203 -2.3699537612615513
3.005181047927932 -2.3854413334960802
2.9888400434218374 -2.400903184704104
2.9725250546266766 -2.4163404198579927
2.9562349209635563 -2.431754137096981
2.939968488737112 -2.4471454280471097
2.923724610801457 -2.462515378137309
2.9075021462300037 -2.477865066911808
2.8912999599889644 -2.493195568339073
2.875116922614312 -2.508507951117465
2.858951909892018 -2.523803278977799
2.842803802541364 -2.5390826109829936
2.8266714859011346 -2.5543470018249947
2.810553849618508 -2.5695975021191515
2.7944497873404464 -2.584835158696216
2.7783581964074204 -2.6000610148921446
2.7622779775492696 -2.6152761108358766
2.7462080345830198 -2.6304814837352537
2.7301472741124964 -2.6456781681612513
2.7140946052295365 -2.66086719633069
2.698048939216643 -2.6760495983875803
2.6820091892508926 -2.6912264026832915
2.665974270108942 -2.7063986360556678
2.6499430978729466 -2.7215673241072933
2.6339145896372336 -2.7367334914830344
2.6178876632155546 -2.7518981621470386
2.601861236848755 -2.767062359659338
2.5858342289126797 -2.7822271074522287
2.5698055576261627 -2.797393429106567
2.5537741407589323 -2.8125623486281586
2.537738895339241 -2.8277348907243884
2.5216987373610893 -2.8429120810812525
2.5056525814908435 -2.858094946640952
2.489599340773094 -2.873284515880215
2.4735379263355806 -2.888481819089488
2.4574672470930206 -2.9036878886531836
2.4413862094496492 -2.918903759331127
2.425293717000328 -2.9341304685413743
2.4091886702300176 -2.9493690566445667
2.3930699662114647 -2.9646205672299826
2.376936498300903 -2.979886047403462
2.3607871558316056 -2.995166548077368
2.344620823805098 -3.0104631242627637
2.328436382579848 -3.025776835363967
2.3122327075572535 -3.0411087454756798
2.2960086688647228 -3.056459923682843
2.2797631310356756 -3.0718314443634323
2.2634949526862527 -3.087224387494349
2.2472029861885394 -3.102639838960615
2.2308860773401062 -3.118078890868058
2.2145430650296634 -3.1335426418596635
2.198172780898593 -3.1490321974358384
2.181774048998184 -3.1645486702787293
2.1653456854423223 -3.180093180580854
2.1488864980554174 -3.1956668563782245
2.1323952860153526 -3.211270833888196
2.1158708394912016 -3.2269062578522534
2.099311939275491 -3.2425742818839667
2.0827173564107566 -3.2582760688223424
2.0660858518101377 -3.2740127910908177
2.0494161758717704 -3.2897856310621227
2.032707068086686 -3.3055957814292833
2.0159572566399673 -3.321444445583008
1.9991654580048928 -3.3373328379957137
1.9823303765297384 -3.353262184612483
1.9654507040170015 -3.3692337232492147
1.9485251192946935 -3.385248703998257
1.9315522877794307 -3.4013083896418146
1.9145308610309744 -3.417414056073443
1.8974594762979 -3.4335669927279353
1.8803367560540671 -3.4497685030199134
1.8631613075255211 -3.4660199047914744
1.8459317222074798 -3.4823225307692187
1.8286465753710222 -3.498677729031019
1.8113044255591066 -3.5150868634828862
1.7939038140715144 -3.531551314346321
1.7764432644383055 -3.5480724786565268
1.758921281881368 -3.5646517707718846
1.7413363527636356 -3.5812906228951196
1.7236869440254965 -3.5979904856065525
1.7059715026079387 -3.6147528284099324
1.6881884548619615 -3.6315791402912443
1.6703362059437257 -3.6484709302910203
1.6524131391949495 -3.6654297280906105
1.634417615507989 -3.6824570846129387
1.6163479726750782 -3.6995545726382555
1.5982025247211222 -3.716723787435446
1.5799795612194707 -3.733966347409447
1.561677346590036 -3.7512838947653684
1.5432941193791299 -3.768678096189908
1.5248280915203403 -3.78615064355071
1.5062774475757708 -3.803703254614307
1.4876403439569095 -3.821337673783328
1.4689149081244126 -3.83905567285367
1.4500992377659934 -3.856859051792376
1.431191399951648 -3.874749639536954
1.4121894302653724 -3.892729294816957
1.3930913319124967 -3.9107999069986157
1.3738950748017555 -3.9289633969533813
1.3545985946011396 -3.947221717951286
1.3351997917665799 -3.9655768565799967
1.3156965305424246 -3.9840308336905608
1.296086637932685 -4.0025857053708185
1.276367902641929 -4.021243563947527
1.2565380739847065 -4.0400065390182585
1.236594860762297 -4.058876798514226
1.216535930105564 -4.07785654979517
1.1963589062826037 -4.096948040777563
1.1760613694698758 -4.116153561097364
1.1556408544853949 -4.135475443308675
1.1350948494825188 -4.154916064119671
1.1144207946028502 -4.174477845667233
1.093616080586617 -4.194163256831797
1.0726780473389108 -4.213974814593986
1.0516039824500394 -4.233915085434644
1.030391119668201 -4.253986686780001
1.009036637322585 -4.2741922884937225
0.9875376566949459 -4.294534614417735
0.9658912403375844 -4.315016443963745
0.9440943903356047 -4.3356406137575005
0.9221440465111831 -4.356410019337897
0.9000370845675236 -4.377327616913176
0.8777703141700328 -4.39839642517651
0.8553404769621583 -4.419619527183428
0.8327442445131963 -4.441000072293582
0.8099782161952633 -4.462541278179562
0.7870389169864979 -4.484246432905512
0.763922795197394 -4.506118897078467
0.7406262201170524 -4.528162106075469
0.7171454795759676 -4.550379572349653
0.6934767774218012 -4.572774887818679
0.6696162309044298 -4.595351726338985
0.6455598679663724 -4.618113846269601
0.6213036244345036 -4.64106509312933
0.5968433411087762 -4.664209402351412
0.5721747607434367 -4.687550802139888
0.5472935249160176 -4.711093416432162
0.5221951707791398 -4.734841467972441
0.49687512768990644 -4.758799281501006
0.4713287137114187 -4.782971287064473
0.445551131980628 -4.807362023452526
0.41953746693649757 -4.8319761417668365
0.39328268040207814 -4.856818409128197
0.36678160751379263 -4.881893712528231
0.34002895249087906 -4.907207062832344
0.3130192842375516 -4.932763598940957
0.2857470317700529 -4.9585685921164275
0.25820647946034553 -4.984627450483468
0.23039176208774312 -5.010945723711284
0.20229685968932445 -5.037529107886124
0.17391559219943864 -5.064383450583358
0.14524161386811144 -5.091514756148798
0.11626840744757116 -5.1189291911993875
0.08698927813552185 -5.14663309035409
0.057397347263143876 -5.174632962206286
0.027485545715125067 -5.202935495549746
-0.0027533929317105047 -5.231547565870853
-0.033326939565357636 -5.260476242120513
-0.06424277700621388 -5.289728793779968
-0.09550880780117642 -5.3193126982355885
-0.12713316236108746 -5.349235648478503
-0.15912420745937877 -5.379505561146017
-0.19149055511078947 -5.410130584922654
-0.22424107185022724 -5.4411191093198035
-0.25738488843297413 -5.472479773854063
-0.29093140997886324 -5.5042214776456415
-0.3248903265842893 -5.536353389459442
-0.35927162442752875 -5.568884958212918
-0.3940855973943764 -5.60182592397624
-0.4293428592528089 -5.635186329491951
-0.46505435640721315 -5.668976532243024
-0.5012313812647233 -5.703207217100075
-0.5378855862482057 -5.737889409580446
-0.5750289984927953 -5.773034489754061
-0.612674035265239 -5.8086542068332045
-0.650833520147894 -5.844760694485808
-0.6895207000320941 -5.881366486914568
-0.7287492629685165 -5.918484535746957
-0.7685333569254589 -5.9561282277842995
-0.8088876095094402 -5.99431140366139
-0.8498271487062473 -6.033048377471658
-0.8913676247046346 -6.072353957416755
-0.9335252328692438 -6.112243467543518
-0.9763167379339958 -6.152732770635737
-1.01975949949239 -6.19383829233307
-1.0638714988665425 -6.235577046554525
-1.1086713674428552 -6.277966662309641
-1.1541784165686026 -6.321025411986631
-1.20041266911073 -6.364772241213312
-1.2473948927858072 -6.40922680039388
-1.295146635378144 -6.45440947803228
-1.3436902619722049 -6.500341435961505
-1.393048994335049 -6.547044646607236
-1.443246952595087 -6.5945419324242565
-1.494309199374955 -6.642857007654989
-1.5462617865488473 -6.692014522571223
-1.5991318048082368 -6.742040110373202
-1.6529474362348486 -6.7929604369341385
-1.7077380100959336 -6.8448032535936845
-1.763534062094757 -6.8975974532207145
-1.820367397328562 -6.951373129784112
-1.878271157227545 -7.006161641690418
-1.9372798907717566 -7.061995679169214
-1.9974296303083512 -7.1189093360113835
-2.058757972319735 -7.176938185991879
-2.121304163523939 -7.2361193643378785
-2.1851091927226074 -7.296491654635296
-2.250215888849321 -7.358095581602074
-2.316669025712135 -7.420973510195511
-2.384515433969796 -7.485169751564119
-2.4538041209313106 -7.55073067640192
-2.5245863988241104 -7.617704836315724
-2.596916022237629 -7.686143093874192
-2.6708493355173117 -7.7560987620719635
-2.7271897577562036 -7.772747274579703
-2.764072408104252 -7.733767494770322
-2.8007381510675056 -7.695016955593554
