# .PCD v0.7 - Point Cloud Data file format
VERSION 0.7
FIELDS x y
SIZE 4 4
TYPE F F
COUNT 1 1
WIDTH 662
HEIGHT 1
VIEWPOINT 0 0 0 1 0 0 0
POINTS 662
DATA ascii
-2.0090620361912124 5.519889971519915
-1.9761649329051403 5.529232909270096
-1.9438918456113825 5.540274563511095
-1.912162982916229 5.552887146074085
-1.8808951063447983 5.56692199818375
-1.8500000000013819 5.582203070343011
-1.819383070277735 5.598520046348309
-1.7889426294434647 5.615622808047035
-1.7585705868001458 5.633219763385507
-1.7281553465920814 5.650983215813809
-1.697587469264649 5.668564684975968
-1.6667679049139816 5.685621006259509
-1.6356173958612839 5.701847960712836
-1.6040845467655216 5.7170136472868425
-1.5721499170303124 5.730981864609667
-1.5398247424677123 5.743718634278334
-1.5071449246796174 5.75528146010598
-1.4741624711904582 5.765796944600073
-1.4409368642365645 5.775434685012244
-1.4075280684731728 5.784383867001451
-1.3739918215418034 5.792835802535324
-1.34037705128316 5.800972882518507
-1.3067248977954882 5.808962862523736
-1.2730687664102849 5.816956929942638
-1.2394349509606848 5.825090139611
-1.2058435082392756 5.833483164789123
-1.1723091875751037 5.842244673387795
-1.1388423149714972 5.851473922857842
-1.1054495803149984 5.8612633668231435
-1.0721347160248704 5.8717011925675715
-1.038899070109074 5.88287378894003
-1.0057420854328847 5.894868195226509
-0.9726617008046282 5.907774618019008
-0.9396546927435835 5.921689137219559
-0.90671697362173 5.936716763545778
-0.8738438641186836 5.952975068142456
-0.8410303627893236 5.970598696296355
-0.808271437422196 5.989745222112036
-0.7755623725896276 6.010603050316392
-0.7428992322339271 6.033402490170408
-0.710279525951294 6.058431892945155
-0.677703243117309 6.086062188989872
-0.6451745731809693 6.1167860599637205
-0.6127049564729528 6.151284290763883
-0.5803189479816605 6.190546895792242
-0.5480666645950559 6.236117437929665
-0.5160542232545667 6.290660953979758
-1.1980220315611247 15.724210220091216
-1.1042842162048043 15.697117559085022
-1.0109450521537802 15.670140118642738
-0.9179957422736258 15.643275356115197
-0.8254276147555977 15.616520765221184
-0.7332321202312144 15.589873874988507
-0.641400828402786 15.56333224876608
-0.5499254241355419 15.53689348328461
-0.4587977047097541 15.510555207689373
-0.36800957625014297 15.484315082635195
-0.27755305018840853 15.458170799390757
-0.1874202418181767 15.43212007892466
-0.09760336568175494 15.406160671087964
-0.008094733387106758 15.380290353757767
0.08111324896767985 15.354506932022359
0.17002808430224553 15.328808237382592
0.25865718673223753 15.303192126966655
0.34700788435129526 15.277656482765332
0.43508742182300414 15.252199210882859
0.5229029629179326 15.226818240803647
0.6104615929977485 15.20151152467432
0.6977703214483258 15.176277036600478
0.7848360840636994 15.151112771957669
0.8716657453826621 15.12601674671605
0.9582661009797723 15.100986996778245
1.0446438797124182 15.076021577329858
1.1308057459256486 15.05111856220224
1.2167583016163213 15.026276043246986
1.3025080885581413 15.001492129721743
1.388061590389102 14.976764947686892
1.473425234662786 14.952092639412657
1.5586053948649856 14.927473362796263
1.6436083923969826 14.902905290788706
1.7284404985269102 14.878386610830765
1.813107936310471 14.853915524297856
1.8976168824823234 14.82949024595339
1.981973469319392 14.805109003410212
2.066183786477326 14.780770036599817
2.1502538828013162 14.756471597248986
2.234189768112452 14.732211948363476
2.31799741497073 14.70798936371847
2.401682760415893 14.683802127355419
2.4852517076871674 14.65964853308501
2.5687101279229827 14.635526883995887
2.652063861841749 14.611435491968868
2.7353187214047114 14.587372677196342
2.8184804914619193 14.563336767706534
2.901554931382329 14.539326098892367
2.984547776668977 14.515339013044638
3.0674647405602644 14.491373858889192
3.1503115156182715 14.467428991127877
3.2330937753050595 14.443502769982938
3.315817175547895 14.419593560744628
3.398487356294325 14.39569973332176
3.4811099430580232 14.371819661794904
3.5636905484562766 14.347951723972024
3.6462347737400655 14.324094300946244
3.7287482103175806 14.300245776655506
3.8112364412720834 14.276404537443874
3.8937050428749744 14.252568971624212
3.976159586094953 14.22873746904201
4.058605638104127 14.204908420640066
4.141048763781957 14.181080218023816
4.22349452721786 14.157251253027036
4.305948493213378 14.133419917277681
4.388416228784767 14.109584601763597
4.470903304666808 14.085743696397877
4.553415296818824 14.06189558958359
4.635957787933625 14.038038667777647
4.718536368950389 14.014171315053549
4.801156640572215 13.99029191266277
4.8838242147893505 13.966398838594502
4.966544716408889 13.942490467133542
5.049323784591887 13.918565168416013
5.132167074398703 13.89462130798273
5.215080258343616 13.870657246329873
5.298069027959473 13.846671338456758
5.381139095373416 13.822661933410423
5.464296194894532 13.79862737382674
5.547546084614436 13.774565995467817
5.630894548021736 13.750476126755379
5.7143473956312905 13.726356088299845
5.797910466629363 13.702204192424873
5.881589630535561 13.678018742686987
5.965390788882672 13.653798033390077
6.049319876915358 13.629540349094421
6.133382865308838 13.605243964119948
6.217585761908595 13.580907142043419
6.301934613492234 13.5565281351892
6.386435507554568 13.53210518411333
6.471094574117154 13.507636517080508
6.555917987563389 13.483120349533717
6.640911968500412 13.458554883556076
6.726082785648976 13.433938307324624
6.811436757762631 13.409268794555617
6.896980255577464 13.384544503941019
6.982719703793691 13.35976357857575
7.068661583090496 13.334924145375362
7.154812432175527 13.310024314483673
7.241178849870418 13.285062178670003
7.327767497233824 13.26003581271555
7.414585099723522 13.234943272788502
7.501638449399076 13.2097825958074
7.588934407166702 13.184551798792313
7.676479905067914 13.159248878203368
7.764281948613742 13.133871809266092
7.852347619166179 13.108418545283117
7.940684076368702 13.082887016931691
8.029298560627678 13.0572751315465
8.118198395646624 13.031580772387189
8.20739099101526 13.00580179789005
8.296883844855351 12.979936040903334
8.386684546525553 12.953981307905451
8.476800779387322 12.927935378205566
8.567240323634183 12.901796003125867
8.65801105918666 12.875560905164848
8.749120968655316 12.849227777140916
8.840578140374316 12.822794281315616
8.932390771508125 12.796258048495712
9.02456717123399 12.769616677113369
9.11711576400296 12.742867732283626
9.2100450928823 12.716008744838362
9.303363822982208 12.689037210335886
9.397080744970005 12.661950588045228
9.49120477867485 12.634746299904307
9.585744976786328 12.607421729450927
9.68071052865033 12.579974220725672
9.776110764165752 12.552401077145664
9.871955157785699 12.524699560348104
9.968253332626972 12.496866889002531
10.065015064691854 12.468900237590606
10.162250287206255 12.44079673515229
10.259969095078551 12.412553463997112
10.358181749483467 12.384167458379306
10.456898682575723 12.355635703135466
10.556130502338151 12.326955132283286
10.655887997569355 12.298122627580005
10.756182143015995 12.269135017039073
10.857024104655231 12.239989073403338
10.958425245132851 12.210681512573323
11.060397129362913 12.181208991988772
11.162951530295123 12.15156810896172
11.26610043485614 12.121755398959326
11.369856050071506 12.091767333834445
11.474230809375078 12.061600320002064
11.5792373791131 12.031250696559441
11.684888665250442 12.000714733347834
11.791197820286804 11.969988628953542
11.898178250390982 11.939068508645908
12.005843622761718 11.907950422249847
12.114207873224029 11.87663034195032
7.102393078477828 6.882649330899828
7.049749078729331 6.752669201695381
7.028939118216289 6.654875689484431
7.019599073643236 6.569126297376952
7.015335910871207 6.489108158118732
7.012130890460163 6.410962032662963
7.005752160959328 6.3308106786135845
6.989542125448055 6.242789197642448
6.950762659009599 6.1359400728261475
6.8745317528973695 5.9979534837720205
6.785872865270312 5.851522978967135
6.720732616060885 5.727620388844524
6.67893194945428 5.6253494512524655
6.653651007023721 5.538308217933884
6.640298380326068 5.462209022484952
6.636084952798253 5.39441720640745
6.639272333624347 5.333256333021298
6.648742769365162 5.277614082124914
6.663767685253269 5.226729752388381
6.683880110071063 5.180076112608214
6.708802712862976 5.137291456881178
6.738407671659883 5.098140055952512
6.7726966210942035 5.062490055579173
6.81179516171451 5.030303401021519
6.855960115672152 5.00163551218564
6.905600510052868 4.976644608081467
6.9613161345263865 4.955612581164848
7.023961135168163 4.938981618296609
7.094744388823126 4.927413262626534
7.175378591475505 4.921875972759655
7.268253995177745 4.923742114196197
7.376356084662328 4.934705319038852
7.501282345351722 4.955446842263189
7.634448147646804 4.979958593529764
7.751440911045427 4.992327727949236
7.84119084830603 4.985927771889159
7.9126161041575775 4.967032980240371
7.975223167777418 4.94198433758221
8.03505841722784 4.914695220526953
8.096454804697945 4.887849095864311
8.164012842647072 4.864150930013829
8.246611708278909 4.848677458156894
17.692169084727844 10.264454810763976
17.851093100248278 10.218521646299578
18.01181595953641 10.172068569509333
18.17437941136461 10.125083513673578
18.33882641741525 10.077554061720647
18.50520119795097 10.02946743285233
18.673549279338587 9.980810468928592
18.8439175440839 9.931569619575134
19.016354282603437 9.881730927626634
19.1909092477548 9.83128001321622
19.36763371178753 9.780202057333325
19.54658052597311 9.728481784589068
19.72780418304958 9.676103445168133
19.911360882637428 9.623050795921893
20.09730859979306 9.569307080554674
20.28570715687735 9.514855008851857
20.476618298927974 9.459676734895348
20.670105772736743 9.403753834208171
20.866235409846485 9.347067279766199
21.065075213696268 9.28959741681094
21.266695451159144 9.231323936392743
21.471168748733344 9.172225847569054
21.67857019366526 9.112281448177251
21.838031485171374 9.030401266235012
21.78949373078373 8.862465637621089
21.741398563246687 8.696061313903925
21.693736754542897 8.53115636709438
21.646499300183308 8.367719642588256
21.599677412088635 8.205720734536754
21.553262511735102 8.045129962131607
21.50724622355313 7.885918346765105
21.461620368567907 7.728057590027198
21.416376958271538 7.571520052503777
21.37150818871687 7.416278733341818
21.32700643482352 7.262307250548936
21.28286424488724 7.109579821996276
21.239074335283995 6.958071247095259
21.195629585360738 6.807756889120038
21.15252303250498 6.6586126581488925
21.109747867385945 6.5106149945989875
21.067297429360128 6.363740853330177
21.025165202034675 6.21796768829461
20.98334480898201 6.073273437709975
20.941830009599798 5.929636509735253
20.900614695110253 5.787035768628767
20.859692884693292 5.645450521369337
20.819058721748206 5.50486050472198
20.77870647027875 5.365245872730757
20.738630511396806 5.226587184621816
20.698825339940015 5.088865393100637
20.659285561198843 4.9520618330281145
20.620005887748913 4.816158210460791
20.580981136384565 4.681136592041163
20.54220622514966 4.546979394724649
20.503676170461986 4.41366937583035
20.4653860843277 4.2811896234032405
20.42733117164236 4.14952354687606
20.3895067275753 4.018654868019529
20.35190813503425 3.8885676121701214
20.314530862207107 3.7592460997249972
20.277370460178144 3.630674937894122
20.240422560615684 3.502839012700077
20.20368287352883 3.3757234812163843
20.167147185090503 3.2493137640355907
20.130811355524518 3.123595537958645
20.09467131705423 2.9985547288975574
20.05872307191064 2.874177504983524
20.022962690397677 2.750450269873068
19.98738630901267 2.6273596562450816
19.951990128620025 2.504892519481842
19.916770412676094 2.383035931527427
19.881723485503596 2.261777174917155
19.846845730613584 2.141103736971947
19.812133589073465 2.0210033041517708
19.777583557919325 1.9014637565624304
19.743192188611015 1.7824731626103645
19.70895608552849 1.6640197738001439
19.67487190450798 1.5460920196696746
19.640936351416467 1.428678502858216
19.607146180763323 1.311767994302584
19.57349819434758 1.1953494285569866
19.539989239939736 1.079411899232206
19.50661620999686 0.9639446545498767
19.473376040409743 0.8489370930079062
19.4402657092811 0.7343787591530612
19.407282235733625 0.6202593394570335
19.374422678746924 0.5065686582923191
19.341684136022288 0.39329667400443596
19.309063742874308 0.28043347507709127
19.276558671148457 0.16796927638702738
19.24416612816364 0.05589441554542248
19.211883355678893 -0.0558006506772466
19.179707628883342 -0.16712534984577682
19.147636255408674 -0.27808899727714503
19.11566657436318 -0.38870079938245694
19.083795955386744 -0.4989698569366578
19.05202179772596 -0.6089051682785424
19.020341529328654 -0.7185156324436073
18.988752605957124 -0.8278100522321349
18.95725251031941 -0.9367971372148931
18.925838751217963 -1.0454855066786979
18.894508862715035 -1.1538836925140767
18.86326040331417 -1.2620001420471638
18.832090955157256 -1.3698432208179083
18.800998123236443 -1.4774212153066295
18.769979534620507 -1.5847423356108752
18.739032837694943 -1.6918147180744998
18.70815570141539 -1.798646427870817
18.677345814573748 -1.905245461541636
18.646600885076626 -2.0116197494939536
18.61591863923543 -2.11777715845599
18.5852968210678 -2.223725493894278
18.554733191609763 -2.329472502393394
18.52422552823831 -2.4350258739999693
18.493771624003756 -2.5403932445324755
18.463369286971616 -2.6455821978583605
18.43301633957347 -2.750600268139975
18.40271061796642 -2.8554549420507653
18.372449971400755 -2.960153660963124
18.34223226159537 -3.0647038231093284
18.312055362120603 -3.1691127857168873
18.28191715778807 -3.2733878671196597
18.251815544047112 -3.377536348846042
18.22174842638753 -3.481565477685527
18.191713719748154 -3.585482467734878
18.161709347931 -3.689294502425186
18.131733243020566 -3.793008736531018
18.10178334480794 -3.8966322981628765
18.07185760021945 -4.000172290744163
18.041953962749357 -4.103635794973791
18.01207039189647 -4.207029870775673
17.98220485260412 -4.310361559236147
17.952355314703368 -4.413637884530552
17.922519752358976 -4.516865855840045
17.89269614351792 -4.620052469259761
17.862882469360027 -4.723204709699455
17.83307671375051 -4.826329552777714
17.803276862698297 -4.929433966695502
9.444433403525059 -2.6741720803648277
9.218980184843648 -2.6682775310486218
9.075861690155563 -2.684089004362399
8.967673799705446 -2.708840671642097
8.879848689833121 -2.738700452146603
8.805729309964155 -2.771959664468993
8.74164893444304 -2.8077024329571945
8.685344782431157 -2.845380492891537
8.635307014942333 -2.8846401406439175
8.590467646034094 -2.9252401484893293
8.550034932056295 -2.9670083025788228
8.513397541579554 -3.0098162881132704
8.480065101304472 -3.053564006186498
8.449628889817607 -3.098168998063658
8.42173417935041 -3.143558704452568
8.396059503492602 -3.189664282548312
8.372300139324837 -3.236415244609185
8.350154300855717 -3.2837345098876636
8.329311409816999 -3.3315337333426593
8.309442602621662 -3.3797090673769237
8.290194484419533 -3.428137871373068
8.271188037284375 -3.4766773192048213
8.252025287122574 -3.525166259895095
8.2323062589055 -3.5734318006454506
8.211657098835031 -3.6213015049318837
8.18976656013557 -3.6686205028566237
8.16642321279583 -3.715270470517875
8.141542487595139 -3.761185510846296
8.1151741428795 -3.8063600515488156
8.087487426812295 -3.8508465106805767
8.058739463515943 -3.894744295306043
8.029237256570793 -3.938184379834662
7.999303143251674 -3.9813140112450687
7.969249414675729 -4.024284570762215
7.9393633461879665 -4.067243671299859
7.90990102673148 -4.110331162777056
7.881087363653889 -4.153678111207353
7.853119827641646 -4.197407756647767
7.826174158146434 -4.241637688870995
7.800410957449748 -4.286482751875681
7.7759826685297115 -4.332058450822009
7.753040852510287 -4.378484843115418
7.731744008624464 -4.425891068540563
7.712266472958046 -4.474420876275269
7.694809314146313 -4.524239746852135
7.6796147279840605 -4.575544629926372
7.666986501323146 -4.628578055721463
7.6573212165787305 -4.683649829466417
7.651159333031047 -4.741172603254648
7.6492757006485075 -4.801724762062904
7.652856400786962 -4.866172753730637
7.663893180198689 -4.935942474000967
7.686258450662527 -5.013754509013612
16.145315348542397 -10.665809961222187
16.112561315615615 -10.779135540013286
16.07968589517727 -10.892881107086053
16.046686179983244 -11.007056721205515
16.013559223922467 -11.121672575612438
15.980302040878081 -11.236739001963404
15.946911603560752 -11.352266474367605
15.913384842312883 -11.468265613523979
15.879718643882875 -11.584747190962272
15.845909850168207 -11.701722133391751
15.8119552569263 -11.819201527161605
15.777851612451885 -11.937196622836947
15.74359561621982 -12.05571883989472
15.709183917491883 -12.174779771543834
15.674613113886487 -12.294391189674036
15.639879749909694 -12.414565049938254
15.60498031544633 -12.535313496973274
15.569911244209653 -12.656648869763774
15.534668912147993 -12.778583707155063
15.499249635806928 -12.90113075351989
15.463649670645221 -13.024302964585086
15.42786520930288 -13.148113513423874
15.39189237981957 -13.272575796620067
15.355727243801464 -13.397703440610433
15.319365794534725 -13.523510308211998
15.282803955043514 -13.650010505341049
15.24603757609049 -13.777218387931212
15.209062434117675 -13.905148569057909
15.17187422912532 -14.03381592627716
15.134468582486566 -14.163235609186692
15.096841034695338 -14.293423047218013
15.058987043044963 -14.424393957668093
15.020901979234884 -14.556164353979955
14.98258112690262 -14.688750554281759
14.944019679078203 -14.822169190194295
14.90521273555791 -14.956437215917472
14.866155300194333 -15.09157191760653
14.826842278099313 -15.227590923049453
14.787268472756491 -15.364512211657402
14.747428583039733 -15.502354124780542
14.707317200133803 -15.641135376362215
14.66692880435333 -15.780875063945071
14.626257761855952 -15.921592680043089
14.585298321245489 -16.063308123894462
14.544044610060482 -16.20604171361067
14.502490631143637 -16.349814198737963
14.460630258887175 -16.49464677324809
14.418457235348937 -16.640561088976042
14.375965166234023 -16.787579269523267
14.333147516736268 -16.935723924645732
14.289997607233682 -17.08501816514723
14.246508608831753 -17.235485618299066
14.202673538748158 -17.38715044380856
14.158485255532089 -17.540037350359604
14.113936454111164 -17.69417161274988
14.069019660658467 -17.84957908965039
14.023727227271927 -18.00628624201424
13.978051326457843 -18.164320152163025
13.931983945410018 -18.323708543580523
13.885516880075425 -18.484479801444813
13.83864172899697 -18.646662993931713
13.791349886923403 -18.81028789432385
13.74363253817586 -18.97538500396164
13.69548064976015 -19.1419855760742
13.646884964213104 -19.31012164053014
13.597835992170877 -19.479826029550576
13.54832400464636 -19.651132404428335
13.498339025002293 -19.824075283300353
13.358910122183861 -19.866394224837087
13.152327190487808 -19.80668639700983
12.948555706615602 -19.7477911505572
12.747525190446838 -19.689688114895535
12.549167410380557 -19.632357569321613
12.353416293207163 -19.575780416963365
12.160207838266318 -19.519938159969204
11.96948003565448 -19.46481287586793
11.781172788260783 -19.41038719503507
11.595227837423659 -19.356644279205675
11.411588692013005 -19.303567800977287
11.23020056075513 -19.251141924250028
11.051010287628406 -19.19935128555432
10.87396629016812 -19.148180976219376
10.699018500528457 -19.09761652533854
10.526118309158676 -19.047643883490302
10.355218510959045 -18.998249407175923
10.186273253789674 -18.949419843937168
10.01923798921296 -18.901142318119593
9.854069425357112 -18.853404317248884
9.690725481794736 -18.80619367898959
9.529165246336389 -18.759498578657336
9.369348933644607 -18.713307517257228
9.211237845579385 -18.667609310022623
9.054794333190829 -18.62239307543007
8.899981760279466 -18.577648224667247
8.746764468448891 -18.53336445153231
8.595107743579879 -18.489531722744015
8.444977783658421 -18.446140268643187
8.296341667894236 -18.403180574267193
8.149167327069287 -18.360643370779858
8.00342351505948 -18.31851962724052
7.859079781475189 -18.276800542696424
7.716106445369563 -18.23547753858376
7.5744745699658775 -18.194542251423172
7.434155938357974 -18.153986525796586
7.295123030139937 -18.113802407592573
7.157348998923592 -18.073982137508327
7.020807650704325 -18.034518144796813
6.885473423037965 -17.99540304124834
6.751321364992965 -17.95662961539626
6.61832711784425 -17.91819082693694
6.48646689647656 -17.880079801354878
6.355717471466686 -17.84228982474399
6.22605615181563 -17.80481433881677
6.097460768302897 -17.76764693609322
5.969909657436785 -17.730781355262113
5.843381645975401 -17.69421147670711
5.717856035994674 -17.657931318191075
5.593312590480515 -17.62193503069181
5.46973151942355 -17.586216894383075
5.347093466395625 -17.55077131475487
5.2253794955885144 -17.515592818867248
5.104571079295853 -17.4806760517323
4.984650085820582 -17.446015772819088
4.8655987677905745 -17.411606852676538
4.747399750866157 -17.377444269669642
4.630036022824038 -17.343523106824428
4.5134909230025215 -17.309838548777343
4.39774813209392 -17.276385878824993
4.282791662270466 -17.243160476070294
4.168605847630743 -17.210157812661226
4.055175334954155 -17.17737345111864
3.9424850747515534 -17.144803041749658
3.830520312600577 -17.11244232014335
3.7192665807548932 -17.08028710474562
3.6087096900167897 -17.048333294510126
3.498835721863197 -17.016576866622543
3.3896310208155387 -16.98501387429521
3.281082187044252 -16.953640444629677
3.173176069199171 -16.92245277654449
3.0658997574573488 -16.891447138765823
2.9592405767802834 -16.860619867878643
2.8531860803727347 -16.829967366436147
1.3696435875522601 -8.37395169590838
1.3173638132419347 -8.358841484538345
1.2653674913134243 -8.343813198261888
1.2136488418409983 -8.328865166530491
1.16220218375046 -8.313995747366294
1.1110219320888515 -8.299203326572968
1.0601025953716783 -8.284486316968998
1.0094387730048249 -8.269843157642548
0.9590251527785109 -8.255272313227143
0.9088565084307033 -8.240772273197443
0.858927697277506 -8.226341551184355
0.809233657908157 -8.21197868430883
0.7597694079423067 -8.197682232533662
0.7105300418474213 -8.183450778032658
0.661510728814155 -8.169282924576562
0.6127067106876433 -8.155177296935149
0.564113299952769 -8.141132540294915
0.5157258777714877 -8.127147319691815
0.4675398920703919 -8.113220319458511
0.4195508556767501 -8.099350242685647
0.37175434450131295 -8.085535810696632
0.32414599576627207 -8.07177576253547
0.27672150627675807 -8.058068854467182
0.22947663073437607 -8.044413859490371
0.18240718009129758 -8.030809566861514
0.13550901994348716 -8.01725478163056
0.0887780689616918 -8.003748324187455
0.04221029735886667 -7.990289029819171
-0.0041982746072542956 -7.976875748276924
-0.05045157809765719 -7.963507343353182
-0.09655349712284993 -7.950182692468122
-0.14250786994210216 -7.936900686265216
-0.1883184904322458 -7.923660228215615
-0.23398910942714676 -7.910460234231001
-0.27952343602886215 -7.897299632284635
-0.32492513889155045 -7.884177362040266
-0.3701978474790475 -7.871092374488667
-0.41534515329717475 -7.8580436315914595
-0.4603706111015959 -7.845030105932017
-0.5052777400821952 -7.832050780373142
-0.550070025024837 -7.819104647721294
-0.5947509174513439 -7.806190710397106
-0.6393238367385065 -7.793307980111956
-0.6837921712169865 -7.780455477550357
-0.7281592792508106 -7.767632232057964
-0.7724284902982776 -7.754837281334932
-0.8166031059549996 -7.742069671134457
-0.8606864009797648 -7.7293284549662715
-0.9046816243039851 -7.716612693804894
-0.9485920000253583 -7.703921455802429
-0.9924207283864239 -7.691253816005737
-1.036170986738686 -7.67860885607779
-1.0798459304929107 -7.665985664022992
-1.1234486940562336 -7.653383333916351
-1.1669823917566877 -7.640800965636251
-1.2104501187557166 -7.62823766460072
-1.25385495194931 -7.6156925415069745
-1.2971999508582706 -7.603164712074113
-1.340488158508216 -7.590653296788768
-1.3837226022998397 -7.578157420653582
-1.4269062948699625 -7.565676212938341
-1.4700422349439604 -7.553208806933597
-1.5131334081799923 -7.540754339706668
-1.5561827880056187 -7.528311951859833
-1.5991933364473006 -7.515880787290584
-1.6614060344344934 -7.5913631698031425
-1.8701117180051985 -8.313463328904641
-2.1234265514752297 -9.189906549913092
-3.5527208129625216 -14.978494049040153
-3.638705789554835 -14.95364215960304
-3.724648129287595 -14.928802593324715
-3.8105536599513363 -14.903973665822484
-3.8964281993789442 -14.87915369559168
-3.9822775570244318 -14.854341003549344
-4.068107535536953 -14.829533912579299
-4.153923932330878 -14.80473074707836
-4.239732541152899 -14.779929832503385
-4.325539153646972 -14.755129494918988
-4.411349560918085 -14.73032806054556
-4.497169555095746 -14.705523855307371
-4.583004930898015 -14.680715204380537
-4.668861487197033 -14.655900431740534
-4.754745028586934 -14.631077859709036
-4.84066136695506 -14.606245808499793
-4.926616323057342 -14.581402595763295
-5.012615728098804 -14.556546536129982
-5.09866542532006 -14.53167594075169
-5.184771271590755 -14.506789116841112
-5.270939139010864 -14.48188436720898
