# .PCD v0.7 - Point Cloud Data file format
VERSION 0.7
FIELDS x y
SIZE 4 4
TYPE F F
COUNT 1 1
WIDTH 603
HEIGHT 1
VIEWPOINT 0 0 0 1 0 0 0
POINTS 603
DATA ascii
-1.3449962253856047 3.695371791661061
-1.3147646036686618 3.6786604161937
-1.2849287675790806 3.6621678222550775
-1.2554790207168638 3.645888649968586
-1.226405967568565 3.6298177056927896
-1.1977005016721023 3.6139499555569623
-1.1693537943431964 3.598280519288594
-1.14135728412416 3.582804664257014
-1.1137026663800063 3.567517799898225
-1.0863818838599062 3.5524154722333607
-1.0593871169100717 3.5374933588760755
-1.0327107751631361 3.522747263939599
-1.0063454886239516 3.508173113469186
-0.98028409965833 3.493766950916323
-0.9545196553818658 3.47952493280033
-0.9290453998161323 3.465443324714193
-0.9038547674126449 3.451518497216984
-0.8789413756499938 3.437746922232272
-0.8542990187588564 3.424125169374387
-0.8299216614727843 3.4106499024958605
-0.8058034331384432 3.3973178763555203
-0.7819386216440974 3.384125933526639
-0.7583216683957156 3.3710710012408254
-0.7349471626089592 3.358150088572722
-0.7118098363608165 3.3453602836112335
-0.6889045600922854 3.332698750696737
-0.666226337282658 3.3201627279841763
-0.6437703005894527 3.307749524835506
-0.6215317071527267 3.2954565195232726
-0.5995059345436154 3.2832811569263898
-0.5776884769525027 3.271220946304014
-0.5560749413361955 3.2592734591933645
-0.5346610434097652 3.247436327437167
-0.5134426044751218 3.235707241166023
-0.4924155481015994 3.2240839469107834
-0.47157589645455344 3.2125642458589216
-0.45091976734766825 3.2011459920795384
-0.4304433714973755 3.1898270908086896
-0.4101430089603139 3.1786054969265742
-0.39001506687622084 3.167479213323524
-0.37005601676257555 3.156446289406873
-0.3502624112893978 3.1455048197309967
-0.33063088269209556 3.1346529424947356
-0.31115813937864634 3.123888838310187
-0.2918409642017223 3.1132107288371382
-0.2726762123088075 3.1026168755290975
-0.2536608083317573 3.0921055784875957
-0.23501321276054665 3.084581973113167
-0.21903255329197394 3.1134916970080226
-0.2027629365320128 3.1429241575048392
-0.1861953254521759 3.172895703040947
-0.16932030785526697 3.203423360603636
-0.15212807675352896 3.2345248714475554
-0.13460840937556615 3.2662187291006552
-0.11675064468716996 3.298524219826359
-0.09854365967765026 3.331461465712629
-0.07997584388784082 3.365051470609633
-0.061035072230726725 3.399316169126102
-0.0417086764292987 3.4342784789189635
-0.021983413779737594 3.4699623565640643
-0.001845434297869739 3.5063928572654977
0.018719754530796665 3.543596198734487
0.03972732572091671 3.581599829575488
0.06119317316904827 3.6204325025544435
0.08313395511192567 3.660124353162676
0.10556714073144806 3.7007069839273856
0.12851106021081649 3.742213554965436
0.15198495854372254 3.7846788813265584
0.17600905342905382 3.8281395377274614
0.2006045976176674 3.8726339713399125
0.22579394611585868 3.9182026233648
0.25160062869273747 3.9648880602012033
0.2780494281863949 4.01273511510574
0.3051664651572606 4.061791041334244
0.33297928949710226 4.11210567786653
0.3615169796697205 4.163731628937215
0.3908102503355448 4.216724458733412
0.4208915691982678 4.271142902775486
0.45179528400881935 4.327049097672883
0.48355776077195217 4.384508831146008
0.5162175343255225 4.443591814430832
0.549815472604297 4.504371979439427
0.5843949560615377 4.5669278033416
0.6200020739057134 4.631342663565829
0.6566858390200695 4.697705226598326
0.6944984236737082 4.766109874394871
0.7334954184092825 4.836657172720167
0.7737361168102946 4.909454386304544
0.8152838292174048 4.984616046370727
0.85820622888633 5.062264576848868
0.9025757345699432 5.142530986484592
0.9484699340759152 5.225555635073598
0.9959720540129975 5.3114890832536
4.471106210307716 22.404149758239043
4.558114325965899 22.168375128326428
4.66063002045614 22.017834843003445
4.769765131077969 21.904576101797122
4.882539963989274 21.81222828520569
4.997100625392743 21.731041304591777
5.111676155306778 21.652619930890243
5.224286121046049 21.568551186675453
5.33322421587897 21.472359213595972
5.438293888387189 21.36413021304563
5.541190537971772 21.251203384828532
5.64417950325057 21.142374951541786
5.748964439256008 21.043584782018158
5.856611457600934 20.95795832234917
5.9678612212607405 20.88720355562742
6.083411624485923 20.83272938020294
6.204151194461958 20.796458171244367
6.331458211769925 20.781752902218475
6.467844361607146 20.79533764654017
6.619117261489563 20.85377000760102
6.811728546796543 21.036037647731867
8.001408224562937 13.357254804058103
6.921810733657209 11.404214915251286
6.833297766535842 11.112334199522621
6.8997086595914245 11.075623718634585
6.966159846175146 11.038890964370502
7.032655851959056 11.002133435038411
7.099201214776249 10.96534862222399
7.1658004858663515 10.928534010102089
7.232458231128748 10.891687074743958
7.299179032384311 10.8548052834198
7.365967488646385 10.817886093896206
7.4328282174017435 10.780926953728047
7.499765855902333 10.743925299544456
7.566785062468525 10.706878556328393
7.63389051780473 10.66978413668942
7.701086926328122 10.632639440129203
7.768379017511281 10.59544185229933
7.83577154723967 10.558188744250927
7.90326929918467 10.520877471675682
7.970877086193094 10.483505374137739
8.03859975169408 10.446069774296006
8.106442171124202 10.40856797711639
8.174409253371756 10.370997269073417
8.24250594224111 10.333354917340777
8.31073721793812 10.29563816897022
8.379108098577557 10.257844250058278
8.447623641713555 10.219970364900275
8.516288945894093 10.182013695131038
8.585109152240568 10.143971398851743
8.654089446053538 10.105840609742303
8.723235058445752 10.067618436158646
8.792551268003518 10.029301960214383
18.624430517661864 16.634622348806378
18.415536465956166 16.256723716150066
18.213337741237613 15.89093722785274
18.01750452185318 15.536666222093803
17.827728264293633 15.193352529652692
17.6437200135918 14.8604734181519
17.465208872458852 14.537538822544649
17.29194061195015 14.224088831115152
17.123676407944036 13.919691400728047
16.96019169156184 13.623940275831327
16.80127510013025 13.336453092254098
16.646727520262704 13.056869644871574
16.496361212349857 12.78485030458478
16.34999900944822 12.52007456862737
16.207473583004663 12.262239731624067
16.0686267682622 12.011059666806414
15.933308945246552 11.76626370494484
15.801378468590427 11.527595603907496
15.672701143385023 11.294812598231546
15.54714974036482 11.06768452483842
15.424603549893947 10.845993013971158
15.304947968110747 10.6295307440086
15.188074117178719 10.418100747832845
15.073878489282217 10.211515776856112
14.962262620904596 10.0095977055335
14.853132787888384 9.812176982921734
14.74639972371332 9.619092121329906
14.641978356471279 9.430189222868703
14.539787565840955 9.2453215365312
14.439749955166219 9.064349048357002
14.341791639875682 8.887138098341829
14.24584205055021 8.713561022544052
14.151833747873061 8.543495821063129
14.05970225138792 8.376825845319471
13.969385878072957 8.213439507926545
13.880825591840148 8.053230010475623
13.793964863116067 7.896095087873745
13.708749536195013 7.741936770710488
13.625127706175494 7.590661160250109
13.543049602443528 7.442178219189728
13.46246747979762 7.296401574353829
13.383335516028472 7.153248331604375
13.30560971589316 7.012638901393183
13.229247820413521 6.874496835379752
13.15420922176209 6.738748672197695
13.080454883031022 6.6053237923440955
13.007947262637753 6.474154281425987
12.936650243050313 6.3451748012212965
12.866529063546983 6.218322468038036
12.797550256746261 6.093536737894212
12.729681588662725 5.970759298076222
12.662892002062355 5.849933964666076
12.59715156290718 5.7310065856574255
12.532431409694496 5.613924949307921
12.468703705509624 5.498638697400538
12.405941592624107 5.385099243109681
12.344119149482962 5.273259693189228
12.283211349935604 5.163074774219436
12.223194024574903 5.054500762667585
12.164043824058309 4.947495418534274
12.105738184293372 4.842017922372452
12.048255293377974 4.738028815480842
11.991574060192859 4.635489943086449
11.935674084550904 4.5343644003432235
11.880535628813691 4.434616480985207
11.826139590891934 4.336211628483079
11.772467478551514 4.2391163895626764
11.71950138495212 4.143298369953247
11.667223965349816 4.048726192241413
11.615618414899526 3.955369455714829
11.564668447497125 3.8631986980866153
11.51435827560477 3.7721853589984913
11.464672591006515 3.6823017452067797
11.415596546444384 3.593520997361309
11.367115738088314 3.505817058292716
11.319216188795957 3.4191646427286884
11.271884332121088 3.3335392083644857
11.225106997031807 3.248916928217462
11.178871393301929 3.165274664199457
11.133165097541184 3.082589941844787
11.087976039831771 3.0008409261352065
11.043292490940729 2.9200063983664895
10.999103050079302 2.840065734004596
10.955396633182117 2.7609988814821724
10.912162461680534 2.682786341889044
10.869390051745945 2.6054091495128695
10.827069203980178 2.528848853188615
10.78518999353136 2.453087498417717
10.743742760614852 2.3781076102200385
10.702718101419942 2.3038921766836493
10.662106859383988 2.2304246331793918
10.621900116816791 2.1576888472089695
10.582089186858752 2.0856691038569264
10.542665605757403 2.0143500918185104
10.503621125447534 1.9437168899768398
10.46494770642109 1.8737549545041863
10.426637510873576 1.8044501064635385
10.388682896114487 1.7357885198877805
10.351076408229906 1.667756710315028
10.313810775985946 1.6003415237597156
10.276878904962425 1.5335301261001197
10.24027387190653 1.4673099928639064
10.203988919296858 1.40166889939425
10.168017450108694 1.3365949113799473
10.132353022771717 1.2720763757337294
10.096989346311936 1.2081019118037812
10.061920275669907 1.144660402904194
10.027139807187746 1.0817409881507711
9.992642074257791 1.0193330545892736
9.958421343126115 0.9574262296037626
9.924472008844385 0.8960103735933612
9.890788591363926 0.8350755729062304
9.857365731766093 0.7746121330201363
9.824198188623324 0.7146105719594446
9.791280834485551 0.6550616139388836
9.758608652486863 0.5959561832248276
9.726176733067522 0.5372853982053106
9.69398027080674 0.47904056566034364
9.662014561361728 0.4212131752245409
9.630274998508808 0.3637948940343562
9.598757071282545 0.30677756155264063
9.567456361209022 0.25015318456350666
9.536368539629555 0.19391393233082638
9.50548936511133 0.1380521319139682
9.47481468094161 0.08256026363465678
9.444340412702198 0.027430956689126054
9.414062565921167 -0.02734301510004915
9.383977223798816 -0.08176873739777056
9.35408054500507 -0.13585315934102962
9.324368761545601 -0.1896030973991985
9.294838176694041 -0.24302523911472115
9.265485162987869 -0.29612614672868304
9.236306160285494 -0.3489122606955921
9.207297673882346 -0.4013899030914874
9.178456272683707 -0.4535652809193552
9.149778587432218 -0.5054444893156378
9.121261308988057 -0.5570335146614948
9.092901186659809 -0.6083382376023057
9.06469502658422 -0.6593644359787724
9.036639690153045 -0.7101177876728483
9.008732092485236 -0.760603873371583
8.980969200942884 -0.8108281792518571
8.953348033689325 -0.8607960995888627
8.92586565828784 -0.9105129392910674
8.898519190339583 -0.9599839163643089
8.871305792159244 -1.0092141643075414
8.844222671487184 -1.0582087344426847
8.817267080236656 -1.1069725981809069
8.790436313274954 -1.1555106492276153
8.763727707237237 -1.203827705728299
8.737138639371869 -1.2519285123573431
8.710666526416196 -1.2998177423518036
8.684308823501675 -1.347499999492095
8.658063023087301 -1.3949798200314436
8.631926653920374 -1.4422616745759245
8.605897280023616 -1.4893499699167958
8.579972499707743 -1.5362490508168203
8.554149944608573 -1.5829632017521682
8.528427278747818 -1.6294966486114766
8.502802197616754 -1.6758535603535498
8.47727242728193 -1.7220380506251596
8.451835723512172 -1.7680541793403364
8.42648987092612 -1.8139059542225136
8.40123268215959 -1.8595973323108173
8.376061997052036 -1.9051322214317692
8.350975681851475 -1.9505144816376276
8.325971628437204 -1.9957479266125329
8.301047753559661 -2.0408363250476107
8.27620199809687 -2.0857834019861294
8.251432326326809 -2.130592840139783
8.226736725215204 -2.1752682811771327
8.202113203718126 -2.2198133269852143
8.177559792100862 -2.2642315408982423
8.153074541257647 -2.3085264489478834
8.128655522073696 -2.3527015409841012
8.104300824777718 -2.396760271856693
8.080008558311519 -2.4407060625565338
8.055776849668684 -2.4845423014741006
8.031603843340088 -2.5282723453173572
8.007487700752032 -2.57189952008851
7.983426599547967 -2.615427122563428
7.959418733145629 -2.658858420910281
7.935462310090161 -2.7021966559662527
7.911555553556111 -2.745445042067112
7.887696700716743 -2.788606768280881
7.863884002320645 -2.8316849990477415
7.840115722136276 -2.8746828752236957
7.816390136179962 -2.9176035157026234
7.792705532606721 -2.960450017229226
7.769060210983342 -3.003225455930777
7.745452481686544 -3.0459328884740127
7.721880665640705 -3.0885753523524087
7.698343093703076 -3.1311558671044883
7.6748381061823965 -3.1736774351806103
7.651364052362055 -3.2161430428028437
7.627919289946905 -3.2585556610067092
7.604502184863731 -3.3009182458528605
7.581111110518576 -3.34323373993192
7.557744447456817 -3.3855050729103944
7.5344005828369465 -3.427735162513505
7.51107791017462 -3.4699269149096037
7.4877748286993775 -3.5120832259603296
7.464489742854368 -3.5542069821320834
7.441221062069995 -3.596301060831653
7.417967200309303 -3.638368331248026
7.394726575464259 -3.6804116554901083
7.371497609070487 -3.722433889064068
7.348278725564269 -3.7644378822703497
7.3250683525623606 -3.806426479580168
7.301864919562522 -3.8484025221258364
7.2786668582863925 -3.8903688469759667
7.255472601623497 -3.9323282891146323
7.232280583520101 -3.9742836816022993
7.209089238830487 -4.016237855852968
7.1858970021124335 -4.058193643820486
7.162702308210851 -4.100153876947251
7.139503590837144 -4.142121388711738
7.116299282813835 -4.184099014203266
7.0930878156306605 -4.226089590945481
7.069867618500418 -4.268095960544535
7.046637118482787 -4.310120968523209
7.023394739836919 -4.352167465471664
7.000138903570161 -4.394238307857438
6.976868027012975 -4.436336358791958
6.953580523492404 -4.478464488645471
6.930274801770765 -4.520625576035185
6.906949265670364 -4.5628225085175576
6.883602313621247 -4.605058183403878
6.8602323382176555 -4.6473355085626835
6.836837725771057 -4.6896574032283045
6.813416855859562 -4.732026798816035
6.7899681008733666 -4.774446639744413
6.766489825556037 -4.816919884265079
6.742980386541278 -4.859449505300761
6.7194381318849645 -4.902038491291878
6.695861400592104 -4.944689847052259
6.672248522138467 -4.987406594634554
6.648597815986563 -5.0301917742058455
6.624907591095684 -5.073048444934005
6.601176145425665 -5.115979685885399
6.577401765434116 -5.158988596934454
6.553582725566699 -5.202078299685725
6.52971728774022 -5.245251938409035
6.505803700818135 -5.288512680988285
6.481840200078151 -5.3318637198846215
6.457825006671547 -5.375308273114513
6.43375632707387 -5.418849585243475
6.40963235252664 -5.462490928396074
6.385451258469642 -5.506235603282903
6.361211203963459 -5.550086940245262
6.33691033110182 -5.594048300318253
6.312546764413349 -5.638123076313029
6.288118610252287 -5.682314693919004
6.263623956177775 -5.726626612826774
6.239060870321201 -5.771062327872602
6.2144274007411955 -5.815625370205253
6.189721574765772 -5.860319308476119
6.164941398321111 -5.905147750053443
6.140084855246514 -5.950114342261624
6.115149906594972 -5.995222773646508
6.09013448991883 -6.040476775267645
6.065036518539983 -6.085880122018571
6.039853880804018 -6.131436633976048
6.014584439317738 -6.177150177779466
5.989226030169417 -6.223024668041391
5.963776462131191 -6.269064068790514
5.938233515842906 -6.31527239494809
5.912594942976732 -6.361653713839182
5.886858465381888 -6.408212146739894
5.861021774208722 -6.454951870461963
5.835082529011383 -6.501877118976059
5.809038356828336 -6.548992185075157
5.782886851239912 -6.596301422079493
5.756625571402037 -6.643809245584585
5.730252041055295 -6.691520135253873
5.703763747508434 -6.739438636657617
5.677158140595358 -6.787569363159729
5.650432631604683 -6.835916997854275
5.623584592180803 -6.884486295553458
5.596611353195505 -6.933282084828971
5.569510203588962 -6.982309270108638
5.542278389179072 -7.03157283383041
5.514913111437928 -7.081077838655766
5.487411526234236 -7.130829429744747
5.45977074254041 -7.180832837094862
5.431987821103075 -7.23109337794623
5.40405977307557 -7.281616459255422
5.375983558611101 -7.332407580240524
5.347756085415022 -7.383472335000111
5.319374207254772 -7.434816415208855
5.290834722425847 -7.486445612892634
5.262134372172155 -7.538365823286199
5.233269839059048 -7.590583047776399
5.204237745297251 -7.643103396934309
5.175034651015769 -7.695933093639577
5.145657052481911 -7.749078476300521
5.116101380266307 -7.802546002173657
5.0863639973508885 -7.8563422507864695
5.0564411971775876 -7.910473927467405
5.026329201635437 -7.964947866987262
4.996024158983751 -8.019771037316309
4.965522141708773 -8.074950543501645
4.934819144311267 -8.130493631669587
4.9039110810222954 -8.186407693157888
4.872793783444328 -8.242700268783139
4.841462998114695 -8.299379053248531
4.809914383988293 -8.356451899697758
4.778143509836317 -8.41392682442087
4.746145851557555 -8.471812011718228
4.713916789398724 -8.530115818929024
4.681451605080169 -8.588846781631073
4.64874547882295 -8.648013619018874
4.615793486273329 -8.70762523946742
4.5825905953203225 -8.767690746289343
4.549131662801909 -8.828219443693532
4.515411431095197 -8.8892208429537
4.481424524585626 -8.95070466879573
4.447165446010104 -9.01268086601311
4.412628572668686 -9.075159606320172
4.377808152499139 -9.1381512954534
4.342698300008443 -9.201666580531471
4.307292992055103 -9.265716357685317
4.271586063475625 -9.330311779969959
4.2355712025484085 -9.395464265570567
4.199241946287787 -9.461185506315719
4.162591675560727 -9.527487476511542
4.125613610018175 -9.594382442111106
4.088300802832746 -9.661882970234194
4.050646135233951 -9.730001939053325
4.012642310831731 -9.798752548062682
3.974281849718596 -9.868148328747685
3.935557082340093 -9.938203155673532
3.896460143122859 -10.008931258012353
3.8569829638489206 -10.080347231529384
3.8171172667642415 -10.152466051049938
3.7768545574089445 -10.225303083429809
3.73618611715592 -10.29887410105331
3.695102995443762 -10.373195295884203
3.6535960016892837 -10.448283294096337
3.5890088370775737 -10.458163535746936
3.5057394461385094 -10.412134048053275
3.4235206687386293 -10.366685316414479
3.3423273009106964 -10.321803408631851
3.2621349001836415 -10.277474813445025
3.182919756535481 -10.23368642447539
3.1046588646590974 -10.190425524895193
3.027329897472204 -10.147679772784466
2.9509111808065662 -10.105437187139753
2.8753816692157463 -10.063686134501197
2.8007209228438734 -10.022415316166056
2.7269090853014615 -9.981613755959001
2.6539268624974346 -9.941270788530883
2.5817555023792673 -9.901376048159538
2.510376775536071 -9.861919458027607
2.4397729566218835 -9.822891219953737
2.3699268065588828 -9.7842818045549
2.3008215554824507 -9.746081941818812
2.232440886392146 -9.708282612066542
2.1647689194745903 -9.670875037286546
2.097790197066192 -9.633850672822415
2.0314896692252478 -9.597201199397402
1.9658526798847589 -9.560918515460063
1.9008649535586764 -9.524994729835708
1.8365125825758797 -9.489422154669668
1.7727820148174174 -9.454193298648672
1.7096600419339305 -9.419300860487736
1.6471337880213237 -9.384737722670298
1.5851906987338726 -9.350496945430189
1.5238185308150765 -9.316571760964523
1.463005342027528 -9.282955567867143
1.4027394814640333 -9.249641925772831
1.3430095802231221 -9.21662455020293
1.283804542432916 -9.183897307603532
1.2251135366081232 -9.151454210567815
1.166925987325715 -9.119289413234558
1.109231567205475 -9.087397206855133
1.052020189182374 -9.05577201552188
0.9952819990582855 -9.024408392050816
0.9390073683212119 -8.993301014012316
0.8831868872207244 -8.962444679903307
0.8278113580888501 -8.931834305455261
0.7728717888962121 -8.901464920072124
0.7183593870336351 -8.87133166339295
0.6642655533099108 -8.841429781973986
0.610581876156881 -8.811754626085383
0.5573001260333612 -8.78230164661779
0.5044122500198469 -8.75306639209444
0.45191036659630024 -8.724044505784422
0.3997867605956555 -8.695231722913078
0.3480338783260573 -8.666623867965718
0.29664432285508563 -8.638216852080795
0.24561084944959707 -8.61000667052919
0.194926361165047 -8.58198940027606
0.14458390457844836 -8.554161197622134
0.09457666565937062 -8.526518295921264
0.044897965773634044 -8.499057003371389
-0.00445874218543206 -8.47177370087595
-0.0534998775430339 -8.444664839973175
-0.10223173547098693 -8.417726940830558
-0.15066049050227906 -8.390956590302071
-0.19879219993642205 -8.364350440045792
-0.2466328071397326 -8.337905204699545
-0.2941881447444478 -8.311617660112534
-0.3414639377505061 -8.285484641630712
-0.38846580653353985 -8.259503042434066
-0.43519926976266526 -8.233669811923692
-0.48166974723129025 -8.207981954157017
-0.5278825626042057 -8.182436526329235
-0.5738429460840201 -8.157030637299396
-0.6195560369998626 -8.131761446159404
-0.6650268863211757 -8.106626160844453
-0.7102604590993695 -8.081622036783333
-0.7552616368398629 -8.056746375587228
-0.8000352198070837 -8.031996523775547
-0.8445859292648138 -8.007369871537522
-0.8889184096541682 -7.982863851528267
-0.9330372307114899 -7.958475937698045
-0.9769468895282543 -7.934203644153614
-1.0206518125550486 -7.910044524050448
-1.0641563575516377 -7.88599616851481
-1.1074648154849893 -7.862056205594538
-1.1505814123771168 -7.8382222992376285
-1.1935103111045016 -7.814492148297522
-1.236255613150784 -7.790863485564287
-1.2788213603144014 -7.767334076820646
-1.321211536372713 -7.743901719922108
-1.363430068704167 -7.72056424390025
-1.4054808298699657 -7.697319508088423
-1.4473676391566348 -7.674165401269048
-1.4890942640809268 -7.651099840841732
-1.530664421858281 -7.62812077201155
-1.572081780836192 -7.605226166996691
-1.6133499618937115 -7.582414024254865
-1.6544725398082392 -7.5596823677277545
-1.6954530445907583 -7.53702924610294
-1.736294962790662 -7.514452732092603
-1.7770017387712111 -7.491950921728499
-1.8175767759566772 -7.469521933672552
-1.85802343805216 -7.447163908542573
-1.8983450502370767 -7.42487500825252
-1.9385449003332627 -7.402653415366805
-1.9786262399485586 -7.380497332468134
-2.0185922855968217 -7.358404981538401
-2.0584462197951794 -7.33637460335214
-2.0981911921393896 -7.314404456882093
-2.1378303203580677 -7.292492818716465
-2.1773666913465997 -7.270637982487382
-2.2168033621815146 -7.248838258310188
-2.256143361116001 -7.227091972233125
-2.2953896885573273 -7.205397465697058
-2.334545318026848 -7.183753095004785
-2.373613197103282 -7.162157230799629
-2.4125962483499075 -7.140608257552893
-2.4514973702263383 -7.119104573059858
-2.4903194379854834 -7.097644587943962
-2.529065304556317 -7.076226725168822
-2.567737801413047 -7.054849419557777
