# .PCD v0.7 - Point Cloud Data file format
VERSION 0.7
FIELDS x y
SIZE 4 4
TYPE F F
COUNT 1 1
WIDTH 582
HEIGHT 1
VIEWPOINT 0 0 0 1 0 0 0
POINTS 582
DATA ascii
-3.9385437621722237 10.821133356549892
-3.869739234222498 10.82738043160276
-3.803716791332343 10.84095055668627
-3.7402456847420193 10.861606657758898
-3.679169501204057 10.889309862208226
-3.620397242092162 10.924212216569265
-3.563901761986705 10.966670946681283
-3.509725779350014 11.017287984601328
-3.4579978498237023 11.076986033762916
-3.408964357610513 11.147146236681255
-3.363051433530253 11.229862929022024
-3.3209905975323846 11.328448218406807
-3.2841009355566793 11.448547973114776
-3.255035260417466 11.601059958921688
-3.2403322092644475 11.81203199862973
-3.2608902607199215 12.163485647605432
-3.2794040835237537 12.522945347218176
-3.2457173725917348 12.694765791190038
-3.2043281091805356 12.843302273154068
-3.1895122330145855 13.107634240123136
-4.167415270268606 22.823453850171617
-3.9546449636521226 22.393587472159552
-3.8007865622107304 22.277218132695392
-3.6587357509471965 22.222511882192652
-3.522039287063041 22.19583635150653
-3.387478697443504 22.179469618770916
-3.251986026483366 22.153833805456387
-3.11230146473105 22.094687528492084
-2.9685680852760705 21.998756459841143
-2.8254453442395264 21.897181973749962
-2.6860010781465378 21.814163873555867
-2.5507672942932644 21.757138369616243
-2.4194792978413036 21.727948952852863
-2.2918496053394493 21.728620903882838
-2.1678507692911393 21.764254134036282
-2.0480889259329795 21.84796927075618
-1.9356118745885653 22.024150972772684
-1.882843214054946 22.951712737516843
-1.7661486411406464 23.180953089014235
5.842558321331385 23.52301458252787
5.916264275775208 23.241818657935074
6.015741214378305 23.07116840346773
6.126274944714216 22.948242851381497
6.243496743477618 22.8537773099582
6.365167647499862 22.777833092877387
6.4895456891702805 22.71307203162623
6.614734893104712 22.65225344857066
6.738486958065285 22.58756399843564
6.858778156524101 22.51257579099963
6.975104128600144 22.426273324544567
7.088909892990229 22.333868803490287
7.202427460304956 22.242597333284234
7.317574302386058 22.15818083559786
7.435756225374994 22.084382412540585
7.558108193265999 22.023888793321508
7.685807403151038 21.979302871706576
7.820448318930426 21.954202038119966
7.964743976433951 21.954981065787397
8.124712578067575 21.99651782023863
8.325331681009462 22.143057534836668
3.063704570964187 6.491629400828479
2.898133056009353 6.0495063779918326
2.7529219208711173 5.661751358450152
2.624524956414093 5.318894955497781
2.510174293526162 5.0135461716011225
2.407677968132362 4.739851839426187
2.3152775427366823 4.493116430871921
2.231545977344634 4.269529343394493
2.215387495706353 4.179295310802134
2.2413554163820577 4.169570533433795
2.2673643199131797 4.15983040831583
2.29341606294295 4.1500742401502855
2.3195125140281947 4.140301329177665
2.345655554190033 4.130510970970692
2.371847077472048 4.120702456225282
2.39808899150628 4.110875070548587
2.4243832180874185 4.101028094243955
2.4507316937555683 4.091160802092698
2.4771363703879814 4.081272463132488
2.5035992158001394 4.071362340432261
2.530122214356606 4.061429690863451
2.5567073675920624 4.051473764867426
2.583356694842944 4.041493806218935
2.6100722338901354 4.0314890517854325
2.636856041613165 4.021458731282084
2.6637101946563515 4.011402067022298
2.6906367901074044 4.0013182736636015
2.717637946188951 3.9912065579486633
2.744715802963495 3.981066118441291
2.7718725230523433 3.9708961452572074
2.79911029236901 3.960695819789386
2.8264313208676786 3.9504643144277654
2.853837843307272 3.940200792273111
2.8813321200317086 3.929904406844808
2.908916437767 3.919574301782364
2.9365931104357466 3.9092096105403824
2.9643644799897206 3.8988094560767665
2.9922329172612017 3.8883729505339018
3.0202008228337363 3.877899194912563
3.0482706279330523 3.8673872787382773
3.076444795338842 3.856836279719863
3.1047258203182055 3.8462452633998683
3.1331162315815106 3.835613282796603
3.161618592261521 3.8249393780374694
3.190235500916596 3.814222575983269
3.2189695925588757 3.8034618898431565
3.2478235397083295 3.7926563187799034
3.2768000534736315 3.7818048475051227
3.3059018846608 3.7709064458640946
3.3351318249106603 3.75996006840979
3.3644927078661357 3.7489646539657286
3.3939874103704635 3.7379191251772674
3.4236188536974828 3.7268223880508553
3.4533900048151316 3.7156733314808705
3.483303877683394 3.704470826763547
3.513363534587945 3.6932137270975387
3.5435720875108068 3.6819008670706146
3.573932699539377 3.670531062131994
3.604448586315244 3.659103108049772
3.635123017524264 3.647615780352902
3.6659593184294157 3.636067833757152
3.696960871448043 3.6244580015744408
3.728131117775128 3.6127849951049313
3.75947355905431 3.601047503011256
3.7909917590984654 3.5892441906741643
3.8226893456616975 3.57737369952893
3.854570012264672 3.5654346463817825
3.886637520075353 3.553425622705577
3.9188956998472206 3.541345193913958
3.9513484539108705 3.529191898620212
3.9839997582669984 3.5169642478287937
4.01685366465052 3.5046607242069534
4.0499143027511595 3.492279781232251
19.2397466172644 15.639826936713103
19.14079369719265 15.37559450417669
19.043758613008453 15.116483238860143
18.948579782963446 14.862328699767065
18.8551982048338 14.612973334483467
18.763557321984948 14.368266120885455
18.67360289776816 14.128062230852207
18.58528289679514 13.892222715558482
18.498547374399198 13.66061420848373
18.41334837190239 13.433108647266911
18.32963981926083 13.209583010457319
18.247377441640925 12.98991907213701
18.16651867318887 12.77400316839507
18.08702257372678 12.561725980094177
18.00884975382401 12.352982322868366
17.931962298880347 12.147670956429808
17.85632370249636 11.945694397320034
17.781898800225623 11.746958746810106
17.708653708682487 11.551373525744452
17.63655576652721 11.358851520533868
17.565573480620085 11.169308634428136
17.495676473044355 10.98266374980148
17.426835431903875 10.798838596273786
17.359022065169512 10.61775762498372
17.292209055403397 10.439347891858379
17.22637001878408 10.263538943731328
17.16147946456688 10.090262712979625
17.097512757226543 9.919453416512047
17.034446081089122 9.751047458819832
16.972256405370352 9.584983342188488
16.91092145254546 9.421201578587523
16.850419666945598 9.259644608177656
16.79073018551419 9.100256720692766
16.73183280979435 8.942983980936772
16.673707979569237 8.787774157266288
16.616336747276566 8.634576654350289
16.55970075394548 8.483342448516481
16.503782206163457 8.334024026294108
16.44856385412158 8.18657532578863
16.39402897067026 8.040951680754523
16.340161331331426 7.8971097672221475
16.28694519521657 7.755007552543463
16.23436528680297 7.614604246729433
16.18240677852341 7.475860255959599
16.131055274127206 7.338737138151248
16.08029679277287 7.203197560482349
16.030117753815105 7.069205258768517
15.980504962250974 6.936724998600089
15.931445594791999 6.805722538150692
15.882927186530983 6.6761645925739215
15.834937618174074 6.548018799909218
15.787465103810154 6.421253688422755
15.740498179191345 6.295838645313001
15.694025690499773 6.171743886714783
15.6480367835771 6.048940428939141
15.60252089359473 5.927400060889753
15.557467735143618 5.807095317599961
15.512867292723914 5.687999454837396
15.468709811615629 5.570086424726059
15.424985789112538 5.453330852338399
15.381685966102546 5.337708013212407
15.33880131897845 5.223193811751131
15.296323051864107 5.109764760464257
15.254242589141523 4.9973979600134175
15.212551568265436 4.886071080024976
15.17124183285233 4.7757623406357945
15.130305426031729 4.666450494739281
15.08973458404811 4.558114810900679
15.049521730102404 4.450735056912111
15.00965946842256 4.3442914839593305
14.970140578553249 4.238764811373565
14.930958009855171 4.134136211943132
14.892104876204987 4.0303872977607575
14.853574450887285 3.9275001065836275
14.815360161670391 3.8254570886844728
14.777455586058311 3.724241094172828
14.739854446711322 3.623835360766764
14.702550607028234 3.5242235019962553
14.665538066883578 3.4253894958202395
14.628810958513295 3.3273176736402683
14.592363542542865 3.2299927096944616
14.55619020415202 3.1333996108162254
14.520285449370528 3.0375237065428804
14.484643901499673 2.9423506395600882
14.449260297654483 2.8478663564685323
14.414129485421771 2.754057098859991
14.379246419629448 2.6609093946904823
14.34460615922269 2.5684100499386915
14.310203864242713 2.4765461405384808
14.276034792904161 2.3853050045747093
14.242094298767292 2.29467423473211
14.208377828001206 2.204641670987371
14.174880916734683 2.115195393535076
14.141599188491174 2.0263237159384646
14.10852835170481 1.9380151784964261
14.075664197314294 1.8502585418185025
14.043002596431721 1.7630427805999953
14.010539498083517 1.6763570775896282
13.978270927020779 1.5901908177425212
13.94619298159641 1.5045335825515511
13.914301831706577 1.419375144550453
13.882593716794087 1.3347054619822507
13.851064943911393 1.2505146736269621
13.819711885841048 1.1667930937826603
13.788530979271494 1.0835312073943009
13.757518723026143 1.0007196653248858
13.726671676343843 0.9183492797638055
13.695986457208836 0.8364110197673587
13.665459740728432 0.7548960069266863
13.635088257556685 0.6737955111585021
13.604868792362376 0.593100946614241
13.574798182339793 0.5128038677033382
13.544873315760688 0.43289596522659834
13.515091130566011 0.35336906261570444
13.485448612995977 0.2742151122751093
13.45594279625711 0.19542619202267025
13.426570759224962 0.11699450162552663
13.397329625181237 0.03891235942787698
13.368216560584113 -0.03882780093261592
13.339228773870603 -0.11623343372287735
13.310363514289795 -0.1933118842299704
13.281618070765942 -0.27007039179700665
13.25298977079029 -0.34651609278224477
13.224475979340694 -0.42265602344403796
13.196074097828017 -0.49849712275425506
13.167781563068383 -0.5740462351426557
13.139595846280367 -0.6493101131746624
13.111514452106274 -0.7242954201648384
13.08353491765664 -0.799008732728349
13.055654811577137 -0.8734565432725669
13.027871733137118 -0.9476452624309297
13.000183311339022 -1.0215812214410864
12.972587204047903 -1.095270674469293
12.945081097140385 -1.168719800882961
12.91766270367233 -1.2419347074731957
12.890329763064578 -1.3149214306291062
12.863080040306114 -1.3876859384656113
12.835911325173996 -1.4602341329064001
12.808821431469504 -1.5325718517236817
12.781808196269855 -1.6047048705362672
12.754869479194983 -1.6766389047675352
12.728003161688763 -1.748379611564709
12.70120714631421 -1.819932591680926
12.674479356062072 -1.8913033913214452
12.647817733672372 -1.9624975039553698
12.621220240968348 -2.0335203720941673
12.594684858202376 -2.104377389038292
12.568209583413351 -2.1750739005931172
12.54179243179513 -2.2456152067554
12.515431435075557 -2.316006563371445
12.489124640905667 -2.386253183768112
12.46287011225864 -2.456360240357773
12.43666592683811 -2.526332866218314
12.410510176495405 -2.596176156649228
12.384400966655384 -2.665895170704847
12.35833641575043 -2.735494932705706
12.332314654662275 -2.8049804337290345
12.30633382617128 -2.874356633079343
12.280392084412817 -2.9436284597400357
12.254487594340404 -3.0128008138069866
12.228618531195263 -3.0818785679049756
12.20278307998196 -3.1508665685878796
12.176979434949812 -3.2197696377234757
12.151205799079703 -3.2885925738637383
12.125460383578963 -3.3573401535910117
12.099741407361881 -3.426017132920272
12.074047096577788 -3.494628248533083
12.048375684110313 -3.5631782191243913
12.02272540908765 -3.6316717467121986
11.997094516332737 -3.7001135181441325
11.971481255958714 -3.768508206119187
11.945883882940477 -3.8368604703173306
11.920300656439963 -3.90517495929993
11.89472983952939 -3.9734563111477983
11.869169698598032 -4.041709155100653
11.84361850296919 -4.109938112549267
11.818074524307068 -4.178147798651524
11.792536036322414 -4.246342823079516
11.76700131426961 -4.314527791389352
11.74146863410734 -4.382707307279543
11.715936272643136 -4.450885972153585
11.690402506741016 -4.5190683872789545
11.664865612705574 -4.587259155404806
11.639323866167047 -4.6554628810892025
11.61377554142652 -4.7236841724444485
11.58821891099194 -4.791927642372383
11.562652245111494 -4.860197909807201
11.537073811182248 -4.928499601251266
11.511481873684325 -4.996837351073754
11.485874693285295 -5.065215803781419
11.46025052654428 -5.133639614858302
11.434607625325496 -5.2021134522841015
11.408944236613246 -5.27064199716266
11.38325860173109 -5.339229945681034
11.357548955768785 -5.407882010574548
11.331813527417667 -5.476602921733667
11.306050538451691 -5.5453974275967575
11.280258202972862 -5.6142702970126726
11.254434727133598 -5.683226320116008
11.228578308152935 -5.752270310623553
11.20268713488677 -5.821407105063878
11.176759385978533 -5.890641566780782
11.150793230511422 -5.959978585043415
11.124786826514152 -6.029423078309557
11.098738320904156 -6.09897999472726
11.07264584936797 -6.168654312829565
11.046507534613301 -6.238451045179814
11.02032148735857 -6.308375237066771
10.994085804236638 -6.378431970747283
10.967798568249663 -6.44862636514186
10.9414578481597 -6.518963577467734
10.915061697099397 -6.5894488061667165
10.888608152821252 -6.660087291058407
10.86209523675106 -6.730884315544021
10.835520953335617 -6.801845208308028
10.808883289423292 -6.872975344975405
10.782180213789813 -6.944280149556862
10.755409676292883 -7.015765096495545
10.728569607307032 -7.087435712279948
10.701657917031486 -7.159297577272324
10.674672494803639 -7.231356327541981
10.647611208399237 -7.303617656733932
10.620471903318865 -7.376087317974236
10.593252402060095 -7.4487711258135
10.565950503374879 -7.521674958209922
10.538563981511484 -7.594804758553467
10.511090585440524 -7.6681665377326595
10.483528038064385 -7.741766376245589
10.455874035409476 -7.815610426356841
10.428126245800671 -7.889704914301982
10.400282309017266 -7.964056142541394
10.372339835429763 -8.038670492065288
10.344296405116816 -8.113554424751715
10.31614956696158 -8.188714485779622
10.28789683772669 -8.264157306098818
10.259535701107175 -8.339889604959058
10.231063606760404 -8.415918192500332
10.202477969312287 -8.492249972406569
10.17377616733886 -8.568891944625111
10.144955542322359 -8.645851208154303
10.116013397580849 -8.72313496390168
10.086946997170445 -8.800750517615331
10.05775356475916 -8.878705282891085
10.028430282471303 -8.957006784258253
9.998974289701396 -9.035662660346828
9.969382681896484 -9.114680667139078
9.939652509305663 -9.194068681308625
9.909780775695697 -9.273834703650165
9.879764437031382 -9.353986862603211
9.71819860757771 -9.308668961190488
9.535117213538735 -9.240106452102882
9.356847492295655 -9.173345875765069
9.183190648840748 -9.108312785046044
9.013958651824474 -9.044936763718225
8.848973514147229 -8.983151157044793
8.688066630483988 -8.922892823688041
8.531078166553653 -8.86410190699565
8.377856495478325 -8.80672162392176
8.228257677050097 -8.750698070016561
8.082144976142429 -8.695980039075291
7.939388416875163 -8.642518856176537
7.799864369474539 -8.590268222964687
7.663455167064248 -8.539184074141255
7.530048749888004 -8.48922444422909
7.399538334699535 -8.44034934376158
7.271822107267037 -8.392520644128066
7.146802936128386 -8.345701970377451
7.024388105903102 -8.299858601345688
6.90448906861968 -8.254957376529859
6.787021211654183 -8.210966609183048
6.671903640999734 -8.167856005150515
6.55905897869801 -8.125596587009412
6.4484131733646795 -8.084160623112085
6.339895322831731 -8.043521561167054
6.233437508012187 -8.003653966022693
6.128974637167199 -7.964533461346494
6.026444299823494 -7.926136674918343
5.925786629650475 -7.888441187279084
5.826944175662304 -7.851425483496742
5.729861781161106 -7.815068907831724
5.6344864698837664 -7.779351621099717
5.540767338857091 -7.744254560546799
5.448655457504557 -7.709759402065729
5.358103772583079 -7.675848524595544
5.26906701856048 -7.642504976558622
5.181501633073714 -7.609712444200488
5.095365677134805 -7.577455221707555
5.010618759776377 -7.545718182987521
4.927221966850947 -7.51448675500522
4.845137793719456 -7.483746892575084
4.764330081583067 -7.453485054517852
4.684763957230371 -7.42368818109643
4.606405775987924 -7.394343672651296
4.529223067677118 -7.365439369361803
4.453184485394061 -7.3369635320646465
4.3782597569419215 -7.308904824065666
4.304419638756603 -7.281252293885388
4.231635872177747 -7.253995358882856
4.159881141926787 -7.227123789706022
4.089129036663109 -7.200627695520309
4.01935401149793 -7.174497509970396
3.9505313523532823 -7.148723977832915
3.882637142061075 -7.12329814232085
3.8156482281036586 -7.098211333002603
3.7495421919039855 -7.07345515430145
3.684297319578965 -7.049021474542865
3.6198925740753882 -7.024902415519676
3.556307568612566 -7.001090342546536
3.4935225413606963 -6.977577854977182
3.4315183312882978 -6.954357777159479
3.370276355116164 -6.931423149804879
3.3097785853190143 -6.908767221750203
3.2500075291195816 -6.8863834420911
3.1909462084233127 -6.864265452667767
3.1325781406446556 -6.842407080884513
3.0748873203791254 -6.820802332846139
3.017858201877697 -6.7994453867947
2.9614756822829054 -6.778330586831595
2.905725085588071 -6.757452436910388
2.8505921472835527 -6.736805595086992
2.796062999655741 -6.716384868014227
2.7421241577066513 -6.696185205668845
2.6887625056635867 -6.67620169629949
2.6359652840501955 -6.65642956158493
2.583720077291687 -6.636864151992292
2.5320148018286392 -6.617500942325789
2.480837694715015 -6.598335527456771
2.4301773026775098 -6.579363618226531
2.3800224716144798 -6.5605810375137485
2.3303623365138573 -6.5419837164588115
2.2811863117706435 -6.52356769083782
2.2324840818854375 -6.505329097579237
2.184245592526631 -6.487264171416773
2.136461041939579 -6.469369241672166
2.0891208726871215 -6.451640729162101
2.0422157637064666 -6.434075143223551
1.9957366226683544 -6.416669078852361
1.9496745786250005 -6.399419213949956
1.904020974934117 -6.3823223066734505
1.8587673624468235 -6.365375192884562
1.8139054929480096 -6.348574783693093
1.7694273128381375 -6.331918063090813
1.725324957046066 -6.315402085671857
1.6815907431630706 -6.299023974435968
1.6382171657885254 -6.282780918670993
1.595196891078364 -6.26667017191134
1.552522751487724 -6.250689049969116
1.5101877406996762 -6.234834929035008
1.4681850087322559 -6.219105243845876
1.426507857216443 -6.203497485916416
1.385149734838014 -6.188009201832161
1.3441042329365958 -6.172637991601359
1.3033650812554738 -6.157381507063321
1.2629261438360735 -6.142237450350926
1.222781415051275 -6.1272035724051355
1.1829250157719935 -6.112277671539408
1.1433511896617137 -6.097457592052032
1.1040542995938893 -6.082741222884467
1.0650288241873864 -6.068126496323906
1.0262693544552899 -6.053611386748258
0.9877705905626839 -6.039193909411999
0.9495273386891386 -6.024872119271152
0.9115345079918701 -6.010644109846063
0.8737871076656798 -5.996508012120332
0.8362802440959762 -5.98246199347467
0.7990091181013096 -5.968504256654234
0.7619690222620452 -5.954633038768246
0.7251553383318868 -5.940846610320621
0.6885635347291502 -5.92714327427048
0.6521891641047923 -5.913521365121386
0.6160278609843259 -5.899979248038267
0.5800753394808846 -5.886515317990972
0.544327391076775 -5.8731279989234855
0.50877988247103 -5.859815742947851
0.4734287534905092 -5.84657702956189
0.43827001506222407 -5.8334103648898665
0.4032997472446623 -5.820314280945217
0.36851409731596335 -5.807287334914609
0.3339092779168838 -5.794328108462469
0.2994815652465793 -5.781435207055347
0.2652272973092908 -5.7686072593052895
0.23114287221013038 -5.755842916331643
0.19722474649818306 -5.743140851140547
0.1634694335552558 -5.730499758021539
0.12987350202864117 -5.717918351960639
0.0964335743063344 -5.7053953680693255
0.06314632503320032 -5.692929561028853
0.03000847966664312 -5.680519704549365
-0.0029831869296216007 -5.668164590843272
-0.035831851855016576 -5.655863030112401
-0.0685406455060922 -5.64361385004843
-0.10111265287628385 -5.6314158953461355
-0.13355091482263864 -5.619268027229022
-0.165858429300686 -5.607169122986859
-0.19803815256854246 -5.595118075524771
-0.2300930003613612 -5.583113792923401
-0.26202584903711373 -5.571155198009826
-0.2938395366947827 -5.559241227938817
-0.3255368642658552 -5.547370833784064
-0.3571205965801039 -5.535542980139061
-0.3885934634065463 -5.523756644727274
-0.4199581604704506 -5.512010818021279
-0.4512173504472196 -5.500304502870559
-0.48237366393401543 -5.488636714137642
-0.513429700399851 -5.477006478342297
-0.5443880291149642 -5.46541283331349
-0.5752511900601934 -5.453854827848834
-0.6060216948170565 -5.442331521381256
-0.6367020274392637 -5.430841983652626
-0.6672946453063049 -5.4193852943940986
-0.6978019799597667 -5.407960543012911
-0.7282264379230304 -5.39656682828542
-0.7585704015049447 -5.3852032580561255
-0.7888362295880745 -5.373868948942488
-0.8190262584021122 -5.362563026045283
-0.8491428022829857 -5.351284622664326
-0.8791881544182524 -5.340032880019325
-0.9091645875792651 -5.328806946975695
-0.9390743548406573 -5.317605979775115
-0.9689196902876314 -5.306429141770647
-0.9987028097115384 -5.2952756031662584
-1.0284259112942613 -5.284144540760522
-1.0580911762818004 -5.273035137694358
-1.0877007696475678 -5.261946583202641
-1.1172568407458274 -5.250878072369492
-1.1467615239556874 -5.239828805887109
-1.176216939316071 -5.22879798981797
-1.2056251931521076 -5.217784835360262
-1.2349883786933116 -5.206788558616372
-1.26430857668397 -5.195808380364305
-1.293587855986098 -5.184843525831882
-1.3228282741753732 -5.173893224473566
-1.3520318781304057 -5.162956709749784
-1.3812007046156933 -5.1520332189086195
-1.4103367808586487 -5.141121992769718
-1.4394421251210319 -5.130222275510286
-1.468518747265155 -5.119333314453059
-1.4975686493151625 -5.108454359856102
-1.5265938260137641 -5.097584664704319
-1.5555962653747457 -5.086723484502541
-1.5845779492315601 -5.0758700770700855
-1.6135408537823483 -5.065023702336649
-1.6424869501316983 -5.05418362213942
-1.6714182048294686 -5.043349100021299
-1.7003365804069808 -5.032519401030097
-1.7292440359108996 -5.021693791518597
-1.758142527435108 -5.01087153894538
-1.7870340086508816 -5.00005191167627
-1.8159204313356754 -4.9892341787863135
