# .PCD v0.7 - Point Cloud Data file format
VERSION 0.7
FIELDS x y
SIZE 4 4
TYPE F F
COUNT 1 1
WIDTH 167
HEIGHT 1
VIEWPOINT 0 0 0 1 0 0 0
POINTS 167
DATA ascii
4.898587196589413e-17 -0.8
0.013787401085454043 -0.7898796791735492
0.027570602394975854 -0.7895187533450857
0.04134540543192573 -0.7889173324561134
0.056502743732741445 -0.8080268807104577
0.0688530367706501 -0.786993811492479
0.08257748598144624 -0.7856722973409359
0.097495474724118 -0.7940369213130576
0.11133848076805238 -0.7922144549932564
0.12514757203218474 -0.7901506724761103
0.13718206035687502 -0.7779981248796444
0.15073910634747048 -0.7754854749236546
0.1621711188378522 -0.7629551285723685
0.17771133293165348 -0.7697523511803359
0.1886990785677408 -0.7568306664952773
0.20446704563099138 -0.763081402768364
0.21775351109542934 -0.759396739791272
0.23389736377818943 -0.7650438047704284
0.2441234255562085 -0.7513346478731713
0.25719884202115384 -0.7469596747234603
0.2736161146605351 -0.7517540966287267
0.2866943596362401 -0.7468643411977615
0.29968527473272977 -0.7417470836534299
0.31649221407631173 -0.7456089312964768
0.32945668089139835 -0.7399718206905067
0.3465469746273735 -0.7431723853700529
0.3594643403670435 -0.7370111179653169
0.3722722097864284 -0.7306253498344616
0.3896613971122894 -0.7328465020729092
0.4023919848044598 -0.7259343569256984
0.4200000000000001 -0.7274613391789284
0.4377823636735462 -0.7285922055967954
0.45043137459822413 -0.7208408817329621
0.46838957011292337 -0.7212566884330646
0.4864978260195497 -0.7212626881228863
0.5047472639889206 -0.7208537989743128
0.5231288745403011 -0.7200251249937032
0.5416335208368435 -0.7187719590425635
0.560251942546349 -0.7170897857821169
0.5789747597658506 -0.7149742845404131
0.5977924770084816 -0.7124213321006496
0.623256077540982 -0.7169741012116333
0.6423653821045039 -0.7134190324582984
0.6615384092606235 -0.7094130905705953
0.6807652030498174 -0.704953004331878
0.7000357133746821 -0.700035713374682
0.7265331983420377 -0.7016049541635873
0.7532943126677456 -0.7024583108643735
0.7728706184964901 -0.6958958306132126
0.7999921550361384 -0.6954225707299377
0.8196675541373065 -0.687782742364597
0.8470890979880982 -0.6859592262443229
0.8668118289673942 -0.6772276228582241
0.8944717712529681 -0.6740328259302941
0.92227937358744 -0.6700751876134193
0.9502163713752304 -0.6653486661672133
0.99484508706605 -0.6710314841648961
1.0147913872139631 -0.6590132323681827
1.0515796392339682 -0.657099887649174
1.0886024718916827 -0.6540983551357687
1.1258330249197703 -0.6499999999999999
1.1632442104953964 -0.6447967949276283
1.20963820221673 -0.6431760410166705
1.2384990686218313 -0.63104679463797
1.2942634266708004 -0.6312544513762715
1.3322724469438754 -0.6212488447588281
1.3794536410403273 -0.6141723310444582
1.4543976684548559 -0.6173551830130525
1.5020378443981957 -0.6068626813337775
1.5590793122503268 -0.5984744757406514
1.6350651601674806 -0.5951150493866636
1.7019334360787703 -0.5860226780228821
1.7784756854719372 -0.5778617794811517
1.8647942741279193 -0.5701248242093366
1.9417486257954042 -0.5567874587503383
2.0767405265214967 -0.5564609469704196
2.2316801704347915 -0.5564203598792358
2.3872066587238265 -0.5511300831424693
2.611654093959261 -0.5551242144834173
2.885983919336132 -0.5609784464070418
3.2400175074101645 -0.5713025045242008
3.733461927449621 -0.5913222778520727
6.75362822881751 -0.9491605485476463
6.779090215710229 -0.8323676154571573
5.977076591163322 -0.6282160642385972
6.465303590615429 -0.5656407704323015
6.873216306290188 -0.48062210409702333
6.920502675849196 -0.3626881767636007
9.364723330090714 1.8203178158922373
9.341309587007846 1.9855566473096016
7.268800683297855 1.6781348654052326
2.086135811493392 0.5201320755392856
1.9028738777894645 0.5098735188519659
1.8936855409984883 0.5430055909594883
1.8743573216875495 0.5730485412565639
1.883091902264404 0.6118536488623958
1.8815819654426404 0.6478806273697418
1.8136067581168032 0.6600988766185406
1.8111460274045714 0.6952338221178825
1.7987366778595675 0.7267367912268693
1.205861358022697 0.5118577783209486
0.9226809122190269 0.41080400950655815
0.8972447091662834 0.41839207912329246
0.8538543439842087 0.4164525894496235
0.7929958065276475 0.4040515447681966
0.7681644057872665 0.408440259623725
0.7259343569256984 0.40239198480445976
0.6841600689897066 0.39499999999999996
0.6514471485336054 0.39142893693164116
0.6190751101941909 0.38684106289023956
0.5870693975617968 0.38124732451051885
0.5637455493374284 0.38025117436010786
0.5488318696736245 0.3842962123552009
0.5177708763999663 0.3761825614671828
0.5031403713297945 0.3791434645857904
0.4806865597001003 0.37555349994865156
0.4585161172596127 0.3712990307194041
0.4443057770090072 0.37281681361819274
0.42263736492475235 0.3673930562346841
0.4012982057577929 0.36133052743378347
0.39493099887435207 0.3682791144337492
0.38125009417948513 0.3681689363432686
0.36769552621700474 0.3676955262170047
0.3542757689340887 0.36686329817271207
0.33417919643062427 0.35836331379339353
0.32118269105225195 0.3567095162291492
0.31490833391544354 0.3622605985069305
0.2956823004558081 0.3523804438347299
0.2894873798829253 0.35748714227020656
0.2770476638965462 0.3546048391230249
0.26479861018690126 0.35139962442080885
0.2586255110086882 0.35596747752497687
0.2523736319944603 0.3604268994871564
0.24045294849242113 0.3564861561986679
0.23419478505646169 0.3606283442165323
0.2278652836202781 0.3646606813472632
0.21631599146222283 0.36001026629488714
0.20500000000000004 0.3550704155516198
0.1987719443009982 0.35859407992715225
0.19248334074221524 0.36200851307216
0.18159619989581877 0.35640260967534715
0.17534845871563098 0.35951761851966685
0.1690473046962798 0.36252311481466
0.15862729079956214 0.3562827284806144
0.15238514011081675 0.35899689284645175
0.14235050549804662 0.3523298647353792
0.13617982082721405 0.3547605620689367
0.12996765446375416 0.3570831958986452
0.12371589869371957 0.35929705872774037
0.11433628791873056 0.3518909110292068
0.10525381370018523 0.3442697121466927
0.10198582165228968 0.355666827497178
0.09317485623690747 0.34773329746406456
0.08709188241588035 0.34930646145935873
0.08098237956379145 0.3507732233226847
0.07484820869439332 0.35213313626417003
0.06869123833555617 0.353385786041159
0.060776862183425644 0.34468271355427277
0.05631640741448313 0.3555678026142496
0.05149404735522422 0.36639918543438105
0.04387296362585309 0.3573166145908759
0.03763024677635524 0.3580278823325784
0.031376067389157006 0.35863009131302837
0.025112330547885083 0.3591230580935367
0.01884094424745983 0.35950663251164655
0.012563818812900389 0.3597806977268745
0.006108342253049259 0.34994669330473693
