# .PCD v0.7 - Point Cloud Data file format
VERSION 0.7
FIELDS x y
SIZE 4 4
TYPE F F
COUNT 1 1
WIDTH 175
HEIGHT 1
VIEWPOINT 0 0 0 1 0 0 0
POINTS 175
DATA ascii
2.2655965784226033e-17 -0.37
0.006282866317422095 -0.35994517025630085
0.012563818812900389 -0.3597806977268745
0.01884094424745983 -0.35950663251164655
0.025112330547885083 -0.3591230580935367
0.031376067389157006 -0.35863009131302837
0.03763024677635524 -0.3580278823325784
0.04631035049395605 -0.37716753762370236
0.05149404735522422 -0.36639918543438105
0.05788075206488544 -0.36544468602020097
0.06251334396009495 -0.3545307910843949
0.06869123833555617 -0.353385786041159
0.07692732560257091 -0.3619146122715081
0.0832318901072301 -0.36051692397053703
0.08709188241588035 -0.34930646145935873
0.09317485623690747 -0.34773329746406456
0.0992294480941197 -0.3460542105377948
0.1081775307474126 -0.3538327597063231
0.11433628791873056 -0.3518909110292068
0.120460217149148 -0.3498418729717472
0.12654745303049747 -0.3476862696907861
0.13259614133176106 -0.34542475780396464
0.13860443956388752 -0.3430580261897113
0.148477828825924 -0.34979184431192734
0.15455992436880414 -0.3471472739041883
0.1605949394614658 -0.344396959073927
0.17096474724774022 -0.3505296780566752
0.18159619989581877 -0.35640260967534715
0.18778862511435634 -0.3531790371435708
0.19392384809853486 -0.3498478828557583
0.20000000000000007 -0.34641016151377546
0.2111656107131223 -0.351438593287866
0.217266898335614 -0.3476997194241347
0.22330200435616113 -0.3438549328576238
0.24604487752712859 -0.3647765319242184
0.2523736319944603 -0.3604268994871564
0.2645033635316129 -0.3640576474687264
0.32498011250210607 -0.43126317542553816
0.3263005819225989 -0.41764569941156265
0.3272466033459155 -0.4041158999576248
0.3149659287464043 -0.3753617771282992
0.31490833391544354 -0.3622605985069305
0.31449138498866336 -0.3492780679743753
0.3205392292293743 -0.3437362397610101
0.3403826015249087 -0.352476502165939
0.3464823227814083 -0.3464823227814082
0.35247650216593907 -0.3403826015249086
0.36567685080958523 -0.34099918003124924
0.37900386099347105 -0.3412566092430177
0.39244898171584147 -0.3411506950750638
0.41366399928424813 -0.34710530923073124
0.5284592537907402 -0.42793786591388955
0.543727419988638 -0.4248064179747042
0.5590448570331049 -0.42127051620643374
0.5824922359499621 -0.42320538165058064
0.597980992330964 -0.4187107985362636
0.6217781794162813 -0.4193946776030601
0.6457763373179766 -0.41937205696157076
0.6699579959635765 -0.4186362187442319
0.68573384056169 -0.4120304599280433
0.7274613391789285 -0.41999999999999993
0.7696653422826683 -0.4266324658167766
0.7946528335730343 -0.4225244065073017
0.8286360674951821 -0.4222111647577785
0.8538543439842087 -0.4164525894496235
0.8881816312959169 -0.4141658965058854
0.9226809122190269 -0.41080400950655815
0.9665300961250625 -0.41026768491373744
1.0199022400234663 -0.4120672527575032
1.15763972885653 -0.4443762574361723
1.1652188497745264 -0.4241049777238292
1.1629878479871596 -0.40044882998230275
1.1602889498800872 -0.3770007331374358
1.1571287547152729 -0.35376976271451144
1.1535140351259827 -0.330764826980399
1.1494517332839913 -0.3079946636719997
1.1546519142684357 -0.28788705576360457
1.2082188803336917 -0.27893930738639255
1.2911548329686235 -0.2744434318794423
1.3742780568267294 -0.26713259352716273
1.5067558621086783 -0.2656817118304034
1.8469771969129076 -0.2925324496252317
2.000341498857972 -0.2811296639393322
2.6401727633659164 -0.3241724534576923
2.9238943723827235 -0.3073136820069012
2.928812412389732 -0.256237883678115
2.89293574575349 -0.20229377385796338
3.405326713513097 -0.17846561078843845
4.267398831371539 -0.14902085091967912
4.689285690283476 -0.08185178619085967
7.471460235688092 0.6536680706074363
6.613570604199018 0.6951142807298956
6.332444447471634 0.7775264109248409
5.0305617892071774 0.7069993528771324
4.256936747965043 0.674232544323395
3.6930290737957803 0.6511806662509887
3.2295534335428147 0.6277615947888324
2.875753946157389 0.6112603710042124
2.572336971033021 0.5938707834678035
2.3384127003251516 0.5830317683951992
2.134696076098841 0.5719900896765708
1.9609738597141706 0.5623002058666783
1.8265420838893978 0.5584299560204271
1.702391164168325 0.5531404199311558
1.5979263927628453 0.5502101810325948
1.4941112670495944 0.5438120278878132
1.4097064440107747 0.5411356038134034
1.325872912030506 0.5356874285847542
1.2702966977643677 0.5392089573151977
1.1967445495118072 0.5328250024292982
1.141947811666179 0.5324990097932814
1.0785528555590005 0.5260453761468928
1.024657502816623 0.5220890747004787
0.9800718280734091 0.5211134346923388
0.9270968895677595 0.5138981974611173
0.8833459118601275 0.5099999999999999
0.8485956276950912 0.5098876941609536
0.8141261723101689 0.5087224936638767
0.7883503338686986 0.5119606929141253
0.7461338152995376 0.5032736131236721
0.7208537989743128 0.5047472639889206
0.6957546151624548 0.5054953169715269
0.670853828439726 0.5055246194477205
0.6461688179575119 0.5048424097670398
0.6139453095510069 0.49716310892937166
0.6051751100639926 0.507802211652366
0.5811263767715344 0.5051654523226906
0.5573586191080457 0.5018479547691437
0.5412017391981861 0.5046787864462489
0.5179246562438289 0.500154026730478
0.5020458146424488 0.5020458146424487
0.47931427561670814 0.4963444622336692
0.463758884842499 0.497320517101036
0.4550088123240236 0.5053384813246281
0.43955954942363995 0.5056554187492572
0.424239822393116 0.5055893324585256
0.4090582541823944 0.5051448749470311
0.39402334420842133 0.504326882308302
0.3791434645857904 0.5031403713297945
0.3644268564213333 0.5015905365124674
0.3498816261741381 0.499682747016285
0.33551574208244805 0.497422543533025
0.32133703065886604 0.4948156350878001
0.3126523658975909 0.5003483767322914
0.2987220834478315 0.49715703440722503
0.28500000000000003 0.49363448015712996
0.27634148354041216 0.4985332330694555
0.2629040751600989 0.4944506520009991
0.2542346798541463 0.498963653545486
0.24110413073399262 0.49433672546454194
0.2324400439573847 0.4984692828701575
0.21963778726093222 0.4933145471270045
0.2109948093842078 0.49707262086431786
0.19854149451043346 0.4914074429203973
0.1899350132590091 0.49479762604351696
0.1778504745293478 0.48864016280867234
0.1692954403177215 0.49166965931164475
0.1575986671312232 0.48503882331052833
0.14910956940859577 0.4877154255411481
0.14057505146666957 0.49024346492854265
0.12940952255126037 0.48296291314453416
0.12096094779983384 0.48514786313799824
0.11247552717193257 0.4871850323926176
0.10395584540887962 0.48907380036690284
0.093496407734507 0.48099731988935535
0.0850876070567959 0.48255579897598194
0.07665288786971315 0.4839672868916175
0.06819481947043207 0.48523135368336945
0.05971597826852227 0.4863476143042478
0.05226423163382673 0.49726094768413664
0.04357787137382918 0.4980973490458728
0.034878236872062617 0.4987820251299121
0.026167978121471983 0.4993147673772869
0.01744974835125054 0.4996954135095479
0.0087262032186418 0.49992384757819563
