# .PCD v0.7 - Point Cloud Data file format
VERSION 0.7
FIELDS x y
SIZE 4 4
TYPE F F
COUNT 1 1
WIDTH 176
HEIGHT 1
VIEWPOINT 0 0 0 1 0 0 0
POINTS 176
DATA ascii
1.4818226269682973e-16 -2.42
0.042060299513853476 -2.409632945326903
0.08410778705302761 -2.408531893116021
0.12560629498306553 -2.396710883410977
0.16741553698590056 -2.394153720623578
0.20220132317456738 -2.3111716995728493
0.24355131941363256 -2.317236016208077
0.28151818326589073 -2.292781610291454
0.32148986321775125 -2.2875192387930277
0.36136361424293345 -2.281560066774768
0.4011272904106093 -2.2749059094582007
0.4426768692735842 -2.27737506559858
0.48027600578902385 -2.259520957695091
0.5218864460777671 -2.2605385503017454
0.561258797791229 -2.2510860849603116
0.6004601846378481 -2.2409479169906383
0.6422350390536081 -2.239739751536283
0.6812260720039767 -2.2281900813938726
0.723099766837377 -2.225472248130659
0.7618294814297467 -2.212513466902401
0.800327135382065 -2.1988807326390254
0.8421646814314554 -2.193914002268424
0.8840715604615527 -2.1881538967776177
0.9182181519497933 -2.163186405613235
0.9639658440896469 -2.1651027346129643
1.0058314629428646 -2.1570125331472267
0.894277139449718 -1.8335398544503008
0.8807415694947209 -1.7285526569254335
0.873217106781757 -1.642282522717604
0.9065939898606504 -1.6355388523506702
0.9300000000000003 -1.6108072510390559
0.9682715808309021 -1.611474525319971
1.0068466020430893 -1.6112913826972095
1.0457069472288523 -1.610247490455214
1.0736503746638337 -1.5917521393056802
1.4683556770586779 -2.097029233379819
1.5164859509145807 -2.0872638454873647
1.570737210426846 -2.084438681223434
1.6191896801064813 -2.0724682819856786
1.6739922401925678 -2.0672082574755426
1.7355265461536564 -2.068319996421241
1.78448055885418 -2.0528100582059396
1.8401091674868602 -2.043648270062834
1.8959554409737456 -2.0331632905012937
1.9519900209897827 -2.0213448389516095
2.0152543263816605 -2.0152543263816605
2.0860854209820885 -2.014509274331092
2.098985123647019 -1.9573352933793706
2.2145715799226346 -1.9940092069493975
1.3358359569943066 -1.161224481313198
1.3022755533022625 -1.0927389364671167
2.440238318974888 -1.9760660278964899
2.4979940889333085 -1.9516468767823367
2.5955654076537016 -1.955898825244157
2.572674042112333 -1.8691571022900646
2.563945898624544 -1.7952942457787742
2.536854972018428 -1.7111302846204852
2.5327851151951806 -1.6448098857453815
2.5187028455845852 -1.5738602147726186
2.52007186406421 -1.5142119402355592
2.4941531628991833 -1.4399999999999997
2.4839199682758837 -1.3768593214995972
2.4545943081478168 -1.3051309445447763
2.468088072001779 -1.2575536842785444
2.462695686859718 -1.2011369422020721
2.447031024998955 -1.1410693066998885
2.439166371905744 -1.0859868370123864
2.430132813114443 -1.0315301792116827
2.4199498604193153 -0.9777232088155303
2.4086375003627807 -0.9245893098268747
2.4150100354197845 -0.8789917683469686
2.4016171820222647 -0.826943112321178
2.3871518559008353 -0.7756326558811178
2.381198842347959 -0.7280055447596144
1.5956944152576094 -0.4575580106562186
1.5841183551140718 -0.424463233968134
1.591284991092634 -0.39675190878345507
1.5784795049520812 -0.3644207080370613
1.5748176371814273 -0.33473782221659254
1.5706034935162625 -0.3052943926024717
1.565844327289411 -0.27610060249041923
1.5605475781403177 -0.24716645476356477
1.5448181872368498 -0.21711003749770208
1.5483719965604623 -0.19011617571203007
1.5415089378208235 -0.16201911806486285
1.5341398350612883 -0.13421984383139357
1.5362486374001294 -0.10742496956595297
1.5378894835220438 -0.0805973726141335
1.5290679653392165 -0.053396229954826485
1.5197684966377147 -0.02652765778467094
1.5 0.0
1.489773065783023 0.026004085591552432
1.4890923322584526 0.05200025008672644
1.4979443021318608 0.07850393436441575
1.5063217158923345 0.10533227535362921
1.5241778880803707 0.133348286403917
1.5116732809597755 0.15888326416683327
1.488819227461983 0.1828040151077212
1.4754994224249398 0.2073679204304975
1.4716556274867554 0.233087352909944
1.477211629518312 0.2604722665003955
1.4626245033370193 0.28430540311105174
1.6335064932254555 0.347212523665658
1.6466854094870476 0.3801672818411318
1.639799777406434 0.4088480035634385
1.6324146464285254 0.43740418622326005
1.6245322661357589 0.46582713133072856
1.6257180851371604 0.4970318980286524
1.6263066428647126 0.52841906038116
1.626291950030825 0.5599772256663095
1.6162713077517625 0.5882746465201502
1.615094137840159 0.6199765527133695
1.6132999069462102 0.6518154725436869
2.1355712600096615 0.9064962180951149
2.12856091630726 0.9476963783666144
2.1207602216657606 0.9889267324732366
2.1121660088030425 1.0301721949543319
2.102775397084548 1.0714175793853302
2.101415271004246 1.1173423194304202
2.090341100063156 1.1586949923887457
2.078460969082653 1.1999999999999997
2.0743448676991116 1.2463921412823311
2.0692373546216793 1.29300300472902
2.063129597145743 1.3398120261369664
2.047722804210953 1.3812064715727448
2.0478801107224793 1.4339410908776151
2.0387228258248675 1.4812188357770324
2.0365205506205966 1.534628309037723
2.0251876367692754 1.5822499915869417
2.0128080401735544 1.629939812819079
2.014696885402912 1.6905314134755982
1.9999803875903457 1.7385564268248441
1.9916281322794167 1.7932700250417402
1.9746549943717604 1.841395572168746
1.9709910529279044 1.9033639350576526
1.9657568516986021 1.9657568516986017
1.9519900209897827 2.0213448389516095
1.9436953261781207 2.084358049614636
1.9404787584406888 2.155119993884443
1.9288135452320916 2.2188461658549494
1.9219349529627527 2.2904728849257445
1.913133988791506 2.362523722829191
1.8962373440030276 2.4270731211087035
1.8174813699191859 2.411879240342824
1.733966494262796 2.386600133406095
2.0132532915921715 2.875223675454361
4.455000000000001 7.716286347719348
4.18390702272589 7.547968072612986
3.891919255495035 7.319635544800503
3.6273840929189793 7.119142128265059
3.3842252532116777 6.938690037429569
2.878030362454163 6.171956029719586
2.9529080287303104 6.632340022485282
2.8640591718263764 6.747300575806388
3.0567898022738436 7.5658202532649845
2.9493682247578206 7.683366910071971
2.435183420478762 6.690611459995667
2.7152384081726875 7.8856249204983015
2.6019230926370573 8.007895867205193
2.4822357730960354 8.119027378126171
2.359455765793513 8.22840011723201
2.236196549685779 8.345599139137551
2.111978148585099 8.47068169038945
1.981818788769452 8.584200270757924
1.8483349313698796 8.695732170523533
1.7153728684351388 8.8248283791945
1.5593606354490352 8.843573622049629
1.3969597728092622 8.82005688151458
1.237248867534982 8.80348313111256
0.8006815861718191 6.521028216283486
0.6825708651377771 6.494227976754825
0.44536584544053426 5.09055490724882
0.3543628866201562 5.067625375319907
0.2627265003395787 5.01312026446796
0.1737994935784554 4.976966318555097
0.08586583967143531 4.919250660169445
