# .PCD v0.7 - Point Cloud Data file format
VERSION 0.7
FIELDS x y
SIZE 4 4
TYPE F F
COUNT 1 1
WIDTH 175
HEIGHT 1
VIEWPOINT 0 0 0 1 0 0 0
POINTS 175
DATA ascii
4.763876048683205e-16 -7.78
0.7285633889755446 -6.931817610716864
0.851866710401981 -6.937897599972841
0.9797786307588608 -6.971487203940655
0.5287484918359805 -3.338386591211566
0.553937686757508 -3.1415367321089436
0.5781512559909311 -2.9743303658464217
0.5946274357387914 -2.797502138098684
0.6163658889021906 -2.6697739775115448
0.6314161475151326 -2.5324718455803508
0.6470476127563018 -2.4148145657226707
0.656016906844458 -2.287802836333199
0.6783023549567493 -2.218627033834242
0.6891078974561328 -2.1208560313381923
0.6967158505383155 -2.023409751782538
0.7114018981173912 -1.9545606512346894
0.7167358990906003 -1.8671608529944035
0.7229907252927105 -1.7894648393138994
0.7345745215598345 -1.7305491244905877
0.7443280568287147 -1.6717881874859597
0.748034323281038 -1.6041647830548704
0.758382083945104 -1.554913700097559
0.7627040395624387 -1.4968909606364578
0.765238647341002 -1.4392045763600507
0.7756953923941394 -1.3993915314230332
0.7750000000000002 -1.34233937586588
0.7828578738632826 -1.3028942970672106
0.7842805110651433 -1.2551111823115106
0.7897266007717894 -1.2160723235208646
0.7996458519631678 -1.1855237287537097
0.7915354821644435 -1.1304298211188086
0.8052657956406882 -1.1083532822936781
0.8244865817183062 -1.0941306487647913
0.8742392949624347 -1.118975270121545
0.8118233044542904 -1.0025182902794922
0.816340264301905 -0.9728764427611021
0.8200737862381342 -0.9433869752784649
0.8230306458213956 -0.9140681353371949
0.8320379992762481 -0.892251515975388
0.8335900445507968 -0.8632077604063813
0.8273149339882606 -0.8273149339882605
0.8344341683928354 -0.8058037097324368
0.8337432198458542 -0.7774781304712481
0.8397536527894555 -0.7561175851855098
0.8452747298495047 -0.7347861124693682
0.8503093318620657 -0.7134942467520586
0.854860557602668 -0.6922524301548213
0.8510516138952597 -0.664914393351711
0.8545399957506034 -0.6439420747726917
0.8656481839811938 -0.6289302199529463
0.8683011669463313 -0.6079910225321088
0.8704894511827939 -0.5871525486442841
0.872217390663241 -0.566424596415628
0.8734895390411188 -0.5458168421602011
0.8743106467161545 -0.5253388364082553
0.8746856578222831 -0.5049999999999999
0.8833659042107898 -0.4896577164488004
0.882947592858927 -0.4694715627858908
0.8820964589464843 -0.44945059474215127
0.8898061058361754 -0.4339874353211866
0.8972447091662834 -0.41839207912329246
0.8952745484897489 -0.39860191021428415
0.8928897078488671 -0.3790091946345955
0.8993683389297837 -0.36336839561343465
0.9149088179672576 -0.35120059055439423
0.9115018421623311 -0.33175953902589866
0.9076978325753441 -0.31254542827887044
0.9035036904803958 -0.2935661446562
0.9180525657245141 -0.28067683653382725
0.9131986111414029 -0.2618554880261492
0.9176295349746149 -0.2458780928473947
0.9217809399621966 -0.22982580081968434
0.9256515615459734 -0.2137035016266717
0.9292402206971153 -0.19751610627687133
0.9325458242752808 -0.18126854560771755
0.9257192878314755 -0.1632292870069145
0.9383039235653808 -0.14861274178821932
0.9308519846170761 -0.1308227149024615
0.9329933825428426 -0.11455718280083863
0.9348505816461768 -0.09825675547159424
0.9364230162062408 -0.08192639818279868
0.9377102072442347 -0.06557108531947778
0.9387117626692993 -0.049195798868367197
0.93942737739795 -0.032805526900350906
0.9398568334470078 -0.0164052620510465
0.95 0.0
0.9498553103985716 0.016579786115419336
0.9494212856681409 0.03315452186737592
0.9486980580168451 0.049719158430796634
0.947685847746833 0.06626865005691904
0.9563469101680757 0.08366951303775183
0.9547410195535423 0.10034732473694731
0.9726952286084956 0.11943195653704453
0.9605600266793233 0.13499790793126348
0.9580576903772836 0.15174143108902394
0.9454154428917196 0.16670225056025312
0.9718109116131873 0.18890090542277935
0.9781476007338057 0.20791169081775931
0.9743700647852352 0.22495105434386498
0.9702957262759965 0.24192189559966773
0.975585084551959 0.26140723555354595
0.9804869298570853 0.28115010293333914
0.9754308510822963 0.2982191388171915
0.9795882117840081 0.31828750420619584
0.9833393186232896 0.33859088063544296
0.9772803256173448 0.3557009490586955
0.9895952520870339 0.3798700265180183
0.9920867243864626 0.40082905495502585
0.9849401931941113 0.4180823074835229
0.986629094254009 0.4392755745218642
0.9878754878699485 0.46065390529736244
0.9886734509290839 0.4822082614679852
0.9979273070909721 0.5084693597082924
0.9977307799305875 0.5305028659480565
1.005812663210305 0.5575310632832876
0.9959292143521045 0.5749999999999998
0.9943140688144503 0.5974441668956628
1.0006967534645825 0.6253047317951818
1.006404681534509 0.6535668420180324
1.0114258385171508 0.6822153422343111
1.0239400553612397 0.7169705454388076
1.0274515828561832 0.7464872704114409
1.022253452860535 0.7703232296346219
1.0322940872248056 0.8065165326766124
1.0336041287377713 0.8369961200962839
1.04182044264181 0.8741911491736934
1.049046316509653 0.9119220502968051
1.0478342039231259 0.9434741549659901
1.0604628673477972 0.9888976220906227
1.0574295064978172 1.021147804574726
1.067731239591687 1.0677312395916867
1.062827306802266 1.1005898945181363
1.0843773924993727 1.162852385574481
1.0839915823013504 1.2038946172733787
1.0956185784141472 1.260364998972029
1.112022564757713 1.3252568865958319
1.126483499979209 1.3910912710079777
1.9454902620290804 2.4901139813972413
1.883681022465911 2.4997291464480265
1.8280121346295914 2.5160428525060863
1.7723511883247323 2.5311798168529847
1.7167222136551925 2.545145347743978
1.6665954471459832 2.5663319379129974
1.4837739398529737 2.3745346692379927
1.4318058482499512 2.382925095951872
1.3800000000000001 2.39023011444505
1.3235302632725003 2.38771180049055
1.2628785038940464 2.3751290247905135
1.2620935892759402 2.4769981372436622
1.280043748624106 2.6244786151935675
1.2974380635439473 2.782364906202515
1.3137593571348352 2.950751828185601
1.3441150820031016 3.166536695876395
1.3748061978363977 3.402764746260109
1.4048023622175765 3.6596352718690306
1.436484601967809 3.9467090073008153
1.4813351027800632 4.3021095189768905
1.52963412215599 4.70772975566101
1.5846546395972332 5.183171777319652
1.6483113877856552 5.748344941711148
1.7392639830889394 6.491021552662539
2.078109083201145 8.33484028871081
1.916582983009731 8.301632951970204
1.769328488859131 8.324036082244687
1.6199683707468664 8.334014787470668
1.4708000648389008 8.341321668013402
1.324999918890756 8.365720244840817
1.1787961651317547 8.387570542241102
1.0322333386415994 8.406865904401998
0.8853560838770248 8.423600453769275
0.7382091410726663 8.437769092837085
0.5908373326127407 8.449367505700712
0.44380890894016484 8.468378454718787
0.2962967270042342 8.484828121392123
0.14834545471691057 8.498705408829325
