# .PCD v0.7 - Point Cloud Data file format
VERSION 0.7
FIELDS x y
SIZE 4 4
TYPE F F
COUNT 1 1
WIDTH 180
HEIGHT 1
VIEWPOINT 0 0 0 1 0 0 0
POINTS 180
DATA ascii
4.3474961369731035e-17 -0.71
0.012391208570471355 -0.7098918635610377
0.025127637625800777 -0.719561395453749
0.038205248057349095 -0.7289995603708389
0.05092222583321142 -0.7282217566896716
0.06275213477831401 -0.7172601826260567
0.07421520892003396 -0.706110545711474
0.08652723381765472 -0.7047077676653386
0.09881290168164647 -0.7030903288065149
0.11106847017856394 -0.7012587218225478
0.12329020614352058 -0.6992135046386676
0.13547438671734688 -0.6969553002478414
0.14761730048060906 -0.694484796521002
0.1619647591275829 -0.7015464466453694
0.1741837648317607 -0.6986129229187175
0.18634971247381493 -0.6954665949281291
0.20121526974640938 -0.7017210380349728
0.21343134444759784 -0.6981024718530159
0.22558240589371165 -0.6942712568954621
0.23766475275372442 -0.6902285601875012
0.25309490606099494 -0.6953725393815722
0.2651922826635221 -0.6908495156079293
0.27720887912777503 -0.6861160523794226
0.2930483463669553 -0.6903786400893303
0.3091198487376083 -0.6942945478083766
0.3211898789229316 -0.688793918147854
0.33754578302758964 -0.6920714156503587
0.3495726847994511 -0.6860750236250432
0.3661878189729949 -0.688699122429963
0.3829995999946063 -0.6909495686401227
0.39500000000000013 -0.6841600689897065
0.41203045992804355 -0.6857338405616898
0.42393541138656393 -0.6784384769251409
0.44660400871232225 -0.6877098657152476
0.45853818084601233 -0.6798108094951342
0.4760684421713682 -0.6798961967598631
0.4937396119256774 -0.6795742752749558
0.5115427696792411 -0.6788401835401989
0.5294688687800662 -0.6776892481017808
0.5475087402133586 -0.6761169864675646
0.5656530965241546 -0.6741191099447007
0.5838925358015515 -0.671691526398267
0.6089088517865611 -0.6762617911844288
0.6274384912574986 -0.6728454054896369
0.6529788682314575 -0.676179412318332
0.6646803743153546 -0.6646803743153545
0.6905662083251051 -0.6668720356406374
0.7094130905705953 -0.6615384092606235
0.7357133772226203 -0.6624393002952697
0.7622566760249997 -0.6626196192804124
0.7890257764125473 -0.6620712379771354
0.8160032595298193 -0.6607864106023295
0.8431715063591925 -0.6587577785984544
0.8705127059515493 -0.6559783752357327
0.9060990336999413 -0.65831948256757
0.9338333304894506 -0.6538771374401925
0.9616835841638484 -0.6486637680260663
0.9896312701756004 -0.6426740613177317
1.0346186773108397 -0.64650150236451
1.0714591258776405 -0.6437975936375677
1.1085125168440815 -0.6399999999999999
1.1544980134240024 -0.6399486987251649
1.20963820221673 -0.6431760410166705
1.2384990686218313 -0.63104679463797
1.2852754862078088 -0.6268707399083807
1.3413355248142418 -0.6254750273762352
1.3885890956167533 -0.6182396974752162
1.4451926199203315 -0.6134478717281597
1.4927660058525278 -0.6031166153996184
1.493728682395523 -0.5733887192724805
1.4847143408417354 -0.5403918264545566
1.4844641636909275 -0.511142002497736
1.493158730583391 -0.48515668116866745
1.4918354193023355 -0.4560998593674693
1.4899556287043942 -0.4272379015163487
1.4875257724851652 -0.39858132945788194
1.4845524612022747 -0.3701405002674916
1.4810424984735575 -0.3419256026026748
1.4867843531153846 -0.31602577004299415
1.4822570470059726 -0.28812158301858265
1.477211629518312 -0.2604722665003955
1.4815325108927067 -0.23465169756034632
1.4754994224249398 -0.2073679204304975
1.4689683044291566 -0.18036662823961827
1.4718924051450444 -0.15470212563612712
1.464406206194866 -0.1281189418390575
1.4664191538819416 -0.10254201640386419
1.4579991207416778 -0.07641049611469798
1.4591106074478797 -0.050953265185651415
1.4597776349283311 -0.025480513398433928
1.46 0.0
1.4497791579767674 0.025305989334061092
1.4491166991776887 0.0506042702186264
1.448012825394132 0.07588713655226854
1.446467872876745 0.10114688692898169
1.444482312233031 0.12637582698410435
1.4420567482839963 0.1515662717380975
1.4391919198799168 0.17671054793746382
1.4457913803626927 0.20319272740169553
1.442024977268901 0.22839431895873707
1.4378193193978237 0.25352633939371827
1.442991959668066 0.2804892232035209
1.4378769730786944 0.3056301855021062
1.4420676958821481 0.33292756042892013
1.4360376748884747 0.3580444054875082
1.4392294811707118 0.3856403772027559
1.4322799269480952 0.41069966016732873
1.4344571339445533 0.43855755708410504
1.4265847744427302 0.46352549156242107
1.4182778633989752 0.48835223168573505
1.4189358573867217 0.5164504164217597
1.4190422482757468 0.5447192833088564
1.4185912974871848 0.5731480879263454
1.4175774743167582 0.6017259378734815
1.4159954593460313 0.6304417967674902
1.4047770699068074 0.6550583056980841
1.4111066526896923 0.6882427004588515
1.4077903082176213 0.7173049895884839
1.403886672645694 0.7464597848295664
1.3993915314230332 0.7756953923941393
1.4029611541307907 0.8099999999999999
1.4057543731514641 0.8446624428524888
1.3992793586581027 0.874366785984788
1.400579848468858 0.909547188475095
1.39278312189247 0.9394440778308546
1.392558475291286 0.9750799417967783
1.38341906038116 1.005112781420129
1.3896257874822895 1.047158140284564
1.3868989263478306 1.0835641965731586
1.3755483517788383 1.1138970921582123
1.3712195531829707 1.1505898213389052
1.3735714360054452 1.1940274327627234
1.3673864788784054 1.2312003157002993
1.367631422027849 1.2753369333168723
1.3667456206434372 1.3198509038720947
1.3576450198781713 1.357645019878171
1.3545838223950448 1.4027126106603696
1.3571767365243719 1.4553938662221493
1.344952518781305 1.4937210992095622
1.34492100943054 1.5471546394566822
1.3434261042448672 1.601032886118664
1.3404524329361538 1.6553208979033478
1.3236721719501652 1.694223120254452
1.3239930509345064 1.7569981221040443
1.3225168176580646 1.8202882373436318
1.3192258036074058 1.884049701864681
1.314103323156255 1.9482382955043482
1.3125800743862157 2.021196068748472
1.303601390013684 2.086198316544808
1.297895948773337 2.1600615977693227
1.0100000000000002 1.749371315644566
0.6447967949276284 1.1632442104953964
0.619702462877376 1.1654908225737834
0.5856477446640155 1.1493984162029944
1.069625598165349 2.1930574729699677
1.0269623760298998 2.2023279224990593
0.9802353098126789 2.201644552918668
0.9260327745195788 2.1815965026822837
0.8803254945273936 2.17888205823195
0.8242462839541903 2.147234980943564
0.8105877396818352 2.227071511262603
0.8008976599646056 2.325975695974319
0.794173675543615 2.4442152468785445
0.7835561686569346 2.562896745980935
0.7772973434039376 2.7107579825460593
0.7635161830524362 2.8494811875527515
0.718508029931013 2.88177830703971
0.6658551208578408 2.8841353917642962
0.6112603710042122 2.875753946157389
0.5628865363608075 2.895800191170609
0.5087891605641062 2.8854867163257696
0.45678863791747426 2.884049954537802
0.4049937237937905 2.88168008003797
0.35220240244087625 2.8684583782434205
0.3020872588435185 2.87416827761431
0.2501369816857795 2.85907878352331
0.20020107964563943 2.8630088242456955
0.06751338355339771 1.2882320998334003
0.045718340680276415 1.3092019833950155
0.04991388241063109 2.859564408147279
