# .PCD v0.7 - Point Cloud Data file format
VERSION 0.7
FIELDS x y
SIZE 4 4
TYPE F F
COUNT 1 1
WIDTH 176
HEIGHT 1
VIEWPOINT 0 0 0 1 0 0 0
POINTS 176
DATA ascii
1.4022205850237194e-16 -2.29
0.04048958293449795 -2.3196466527628274
0.08236281221790255 -2.358562351765066
0.1266530141079244 -2.4166834741060685
0.33413350923435986 -4.778331800744558
0.44536584544053426 -5.09055490724882
0.5268234548689734 -5.012390352656097
0.6105654104597888 -4.972656219723023
0.7000406978291294 -4.981048385770099
1.2530400649722497 -7.911383608167053
0.8699773701113214 -4.933886842591162
0.6506586742340182 -3.3473486955565344
0.6902668135149607 -3.247450034436235
0.7310909266175617 -3.1667027105520145
0.7717308469629399 -3.0952433668204287
0.8178681825239655 -3.052325611073456
0.8765267914980573 -3.056812193083854
0.9648266255850313 -3.155805694678017
1.0537479508185708 -3.2431027205664735
1.1427442221446202 -3.3187702003536015
1.2381129188389213 -3.401687287244988
1.3402961312994226 -3.4915907950995346
1.4534735824537393 -3.5974733557191345
1.5668318252419875 -3.6912244623442856
1.6920244351953295 -3.8003491037932196
1.8341632559546355 -3.9333757957390607
0.6444055857799439 -1.3212272480597755
0.6673660346171338 -1.3097795905569005
0.6901231972952595 -1.2979329615026225
0.7078220455596522 -1.2769447724235177
0.7250000000000001 -1.2557368354874359
0.7416548278704783 -1.2343209130110415
0.7577845478534829 -1.2127087775036893
0.7733874297213386 -1.190912206482502
0.7884619938937529 -1.1689429773026088
0.8087427752549748 -1.1550043824474783
0.8228993532094624 -1.1326237921249263
0.8365228821813471 -1.110103358965737
0.8496128359494084 -1.087454839977276
0.8684621396487757 -1.0724614268106196
1.4976951305696367 -1.7848835524672189
1.522056947257977 -1.7509262261168308
1.5456917006889626 -1.7166645468527808
1.5822361953449964 -1.6967405877564754
2.264586287696331 -2.3450477491040025
2.849640328181787 -2.8496403281817866
2.970873375398629 -2.8689390699956587
3.020490787687174 -2.8166532270581186
3.0691881292216383 -2.7635094042620842
3.1169505663200483 -2.709523789730795
3.163763550081379 -2.654712828005407
3.209612820817289 -2.599093215035829
3.2623645199318285 -2.548838507848225
3.306351011595792 -2.4915141958494798
3.3574205266560324 -2.439308797013764
3.407672504242206 -2.386077975220352
3.4239251746523225 -2.309466691334184
3.547576502409144 -2.303823118113564
3.6296458515495034 -2.2680544509181173
3.677247720012062 -2.2095133413641324
3.7239092362730863 -2.1499999999999995
3.7696109377707954 -2.0895294632617127
3.823163077079154 -2.0328118668629074
3.8758783802194 -1.9748586738670282
3.92772998232736 -1.9156819114682684
3.98775426296126 -1.8595203516590777
4.037870922780296 -1.7977759623950367
4.0962465978633595 -1.738753521777268
4.1166963142765365 -1.6632532747666495
4.107753876587688 -1.5768189779993214
4.1628383100815745 -1.5151492349327123
4.217012847172953 -1.4520339688789188
4.2797543233281905 -1.3905764746872633
4.332060544512551 -1.3244438223939974
4.373740716519351 -1.254149968967346
2.8494811875527515 -0.7635161830524362
2.7750457771493497 -0.6918966214150497
2.6990050794551017 -0.623114420532506
2.6312170459739375 -0.5592824482997726
2.562046948798403 -0.49801147793278194
2.5014116926510086 -0.44106637127400306
2.4395902012699904 -0.38639312864937025
2.3766433649797687 -0.33401544230415703
2.31263253332428 -0.28395557013399364
2.277455140393346 -0.23937018088292641
2.2215141767445927 -0.1943573063272777
2.184665270069015 -0.1527666774996344
2.1270809090272422 -0.11147558679747034
2.08872682846991 -0.07293994810822702
2.049687775070602 -0.035777433196431195
2.01 0.0
1.9597014825065269 0.03420671661707568
1.9388182044170457 0.06770502360285188
1.8874098206861445 0.09891495729916383
1.8754204144884694 0.13114217063895556
1.832998244488812 0.16036656665569105
1.8000846306165748 0.18919651851445277
1.7766576114379664 0.218146124695214
1.7428718009851638 0.24494465768971518
1.7087008292295884 0.2706316245195994
1.6840212576508757 0.29693838381045085
1.6589499400265522 0.3224672021863607
1.6237250172181175 0.34513340675748044
1.5979669062477857 0.36891972912393856
1.5718790765671145 0.3919134708714617
1.5551405803254001 0.4166986626150584
1.528406096541927 0.4382633957490287
1.5013984668619658 0.45902357641469665
1.4836481654204396 0.48206651122491795
1.4466434206669547 0.49811927631944974
1.428332783594581 0.5198706178550164
1.4097064440107747 0.5411356038134034
1.3907757818501811 0.561909890123868
1.3715522316441362 0.5821893814490179
1.3429118227346233 0.5979028653214262
1.3322724469438754 0.6212488447588281
1.3122393075967838 0.640021874312053
1.2919594600731334 0.6582862246223428
1.2714445337168547 0.6760390504116828
1.2507061812093359 0.693277756952262
1.2297560733739028 0.7099999999999999
1.2086058939899784 0.7262036856231763
1.1872673346189964 0.7418869699264868
1.1657520894441393 0.7570482586708874
1.1440718501259575 0.7716862067896305
1.1304298211188086 0.7915354821644435
1.1083532822936781 0.8052657956406882
1.0861442936643184 0.8184684314867857
1.0716946249051418 0.8372996064428954
1.0569185075814804 0.8558757318277791
1.0341599982106204 0.8677632730768281
1.0339521249051977 0.898800869716995
1.025539859158804 0.9234002367752243
1.0458357933154137 0.9752576548893728
1.0718163025045904 1.035040971983906
1.0960155108391487 1.0960155108391485
1.1183999764389858 1.1581370785452283
1.1457572449049973 1.2286742187202064
1.1910524793187678 1.3227977893497618
1.226830384212249 1.4113069150165836
1.2662915910824826 1.5091075529443867
1.327866025115157 1.6397779786742084
1.3852383194827311 1.7730241956151243
1.4804649569540387 1.9646433547163404
1.5870201811896776 2.1843458848123585
1.7207293090531381 2.4574561328669753
1.8844800846964167 2.793856619510491
2.243912824261912 3.4553227399351467
4.253412358840172 7.9995051913018775
4.108614022642899 8.063609043904728
3.4718994825694933 7.118448846689403
3.1485060499682107 6.751993013423042
2.8674933336843926 6.440495476380336
2.606176627023456 6.1397673725277775
2.375005802256883 5.878345637953432
2.168126094749066 5.64816158030807
1.9802966298556226 5.4408202743504095
1.80690325723722 5.247628094576208
1.6408802401309708 5.050110101527265
1.4998668452276396 4.905843398090371
1.361648537735976 4.7486327779352955
1.234566845139024 4.6074661913988555
1.1152599387144682 4.473063298132344
1.0032817023736385 4.345690488942149
0.89817850433272 4.225597635170041
0.8013977805814887 4.122834170480189
0.7084845648810761 4.018015632289809
0.6210448262097168 3.9211227121626973
0.5385999007154534 3.8323374260298775
0.45457265090120014 3.7021971456221308
0.39407230651905356 3.7493475455383902
0.33293493729605494 3.8054637467104677
0.4729488919851691 6.763484260761608
0.35954801938902503 6.860584903763923
0.24290049704940753 6.955760156052906
0.11082278087675085 6.349032864243084
