# .PCD v0.7 - Point Cloud Data file format
VERSION 0.7
FIELDS x y
SIZE 4 4
TYPE F F
COUNT 1 1
WIDTH 171
HEIGHT 1
VIEWPOINT 0 0 0 1 0 0 0
POINTS 171
DATA ascii
5.0822842164615156e-17 -0.83
0.014485497342945386 -0.8298735869798047
0.028966582263075896 -0.8294943864258495
0.04343884368164349 -0.8288625138462963
0.05859543794506519 -0.8379538022182523
0.07321082390803302 -0.8368035463970662
0.0878039091448289 -0.8353983921093495
0.10358894189437537 -0.8436642288951237
0.11829713581605564 -0.8417278584303348
0.1345336399345986 -0.8494119729118185
0.14933743279356015 -0.8469346675904988
0.16409573602382863 -0.844199377764991
0.18296228791962812 -0.860769888645749
0.19795692782260133 -0.8574456570110071
0.21531048708370423 -0.8635631963856368
0.23293714059226867 -0.8693332436601615
0.24807362023529925 -0.865135526344487
0.2631345342504631 -0.8606742803667319
0.2812054648812022 -0.8654614298285898
0.29952270210058424 -0.8698770895513714
0.31465853185961534 -0.8645172111230357
0.33328219307712914 -0.8682297966423976
0.34838413187679834 -0.8622809847471122
0.2930483463669553 -0.6903786400893303
0.3050524823068503 -0.6851590932319507
0.40571353127107146 -0.8700554755551839
0.42522001238540513 -0.871830224910192
0.4494505947421514 -0.8820964589464841
0.46947156278589086 -0.8829475928589269
0.4848096202463371 -0.8746197071393957
0.5100000000000001 -0.8833459118601273
0.5356395979064565 -0.8914539927301968
0.5564152274448652 -0.8904505009642474
0.5827637674660792 -0.8973775077016036
0.6039283357484065 -0.8953605783594452
0.6309340799861507 -0.901067248717891
0.65831948256757 -0.9060990336999413
0.6740328259302941 -0.8944717712529681
0.7018540818712504 -0.8983322591116629
0.7300116536178115 -0.901489315290086
0.7649172555269818 -0.9115928873115838
0.800392015368419 -0.9207456878717817
0.8230306458213956 -0.9140681353371949
0.8524979500781231 -0.914192127023963
0.8891627141875167 -0.9207549444334734
0.9263098833543774 -0.9263098833543773
0.9639153324537927 -0.9308422164150564
0.994641034202072 -0.927517769684998
1.032971307413578 -0.9300915428388129
1.079234699718564 -0.9381644114564254
1.1260853313848977 -0.9448977862392127
1.1734904018000258 -0.9502737904852546
1.2292967756264863 -0.9604319015080269
1.2778168160756687 -0.9629040370432773
1.3267878707749137 -0.9639678137596559
1.400749995734176 -0.9808157061602887
1.4591061276968735 -0.9841795101085143
1.5179937279812177 -0.9857966533771989
1.5858499398125165 -0.9909490241160932
1.6629045633620978 -0.999173865325505
1.7407110616067216 -1.0049999999999997
1.8367013849927312 -1.0181002025173078
1.924825752432461 -1.023448006873242
1.55035135208776 -0.7899434695468114
2.1391298301920174 -1.0433233293580042
2.2657694675916247 -1.0565456543517486
2.3934890990236144 -1.0656500048585964
2.54979844406326 -1.0823252259152882
2.7166486938806873 -1.0975973187086223
2.8940993221413254 -1.1109406435904308
3.110382574801357 -1.1320866744079634
3.384956500645554 -1.165533992956621
2.7865955927448 -0.9054197935185959
4.026043022604379 -1.2308848768827216
4.450641652194417 -1.276200957432706
3.921658854733617 -1.0508053231162342
4.8029638450661825 -1.1975133832183553
4.823131820686915 -1.1135077190021316
4.8418306236323385 -1.0291628695479087
5.752335295003311 -1.1181407129065526
6.978936912191611 -0.12181779693223892
5.98 0.0
5.129218676152287 0.08953084502326442
4.557222171207076 0.1591417049634044
4.054435911103569 0.2124839823463519
3.661060064453555 0.25600625864093984
3.3372522386073475 0.2919717382046549
3.053182218780599 0.3209023822316961
2.8089056091449414 0.34489024183656736
2.6242103821651614 0.3688087175441734
2.4395902012699904 0.38639312864937025
2.1961212892172237 0.38723543619725465
2.189028619088291 0.4255040596896949
2.1812691496363867 0.46364307052360326
2.1728452444710746 0.5016408511868189
2.1928683413837518 0.546743484055249
2.250607175253529 0.6030483750888733
5.104299605432473 1.4636343593882655
5.976904724768972 1.8273231545171045
4.479476191750173 1.4554700435060022
6.013498140811655 2.0706134623475165
8.222310431876698 2.9926762540996013
1.2790051843011665 0.4909640908770614
1.2238826880281595 0.4944807033090039
1.1782462124191238 0.5001358444662704
1.141931822053251 0.5084208038447502
1.0966324223143464 0.5113680967062463
1.0605769746330171 0.5172779532111114
1.0157474375747393 0.5175491697030833
0.9889013040019983 0.5258081503201978
0.9795740719961233 0.5429867746758975
0.9786087062764156 0.5649999999999998
0.977170722800408 0.5871434053974617
0.9922162725030184 0.6200055391528497
0.9896312701756004 0.6426740613177317
0.99484508706605 0.6710314841648961
1.00755701447546 0.7054990167117866
1.0031810730249349 0.7288537128426666
1.0142670977600619 0.7643050794031013
1.0165338721526713 0.7942033031700992
1.0258326691232016 0.8307029161857855
1.0264995537794306 0.8613353969799626
1.02640502910297 0.8922402794270899
1.025539859158804 0.9234002367752243
1.0312087192830304 0.9616176876881228
1.0358493124876578 1.000308053460956
1.039446968344225 1.0394469683442247
1.041987555688496 1.0790097005079766
1.0434574908956227 1.1189711634773307
1.0505350519834076 1.166737375999509
1.056255036674717 1.2150824241586629
1.0670274320796553 1.2716337755775033
1.0635514608742254 1.3133766748622806
1.065094352313389 1.3632586037396288
1.0772488914421665 1.4295575629846542
1.0874027167410754 1.496681439593653
1.084059464703477 1.5481973637061943
1.0960180908026638 1.6249136422078818
1.100170850730355 1.6941145472497563
1.1128304548897303 1.7809010019284948
1.1227830033039186 1.8686247155306048
1.1300000000000001 1.957217412552831
1.1393026075788923 2.05535631177758
1.1502053288254328 2.163221602504371
1.1667555843306354 2.289886767164105
1.1792183848626183 2.417755984544759
1.2002358633435863 2.5739141151840856
1.2120751963658851 2.7223654637749504
1.2268957434563195 2.890385239840663
1.2436938901408283 3.078250397161734
1.2650388618949095 3.295538905535122
1.2825755374712582 3.523847327947156
1.3055282993731985 3.7915294881532597
1.2669696769372845 3.899331716810129
1.1928765552687661 3.901723404329185
1.1218440381751866 3.9123351024689583
1.0508053231162342 3.921658854733617
0.9773644582226574 3.9199947341550256
0.9088022595492152 3.9364550617323504
0.8378841139955697 3.941934830957237
0.768960251367476 3.955957549294086
0.6980656742210601 3.958927167109076
0.6288665494617283 3.9705071291924536
0.5594758658594631 3.9808776363411122
0.48991476048869287 3.990035529598114
0.42020442233596683 3.9979780193804584
0.3503660858455866 4.004702686328817
0.2804210244513834 4.010207482044493
0.2103905440966347 4.014490729713386
0.14064497171107937 4.027545032886956
0.0703331979422529 4.029386211480257
