# .PCD v0.7 - Point Cloud Data file format
VERSION 0.7
FIELDS x y
SIZE 4 4
TYPE F F
COUNT 1 1
WIDTH 139
HEIGHT 1
VIEWPOINT 0 0 0 1 0 0 0
POINTS 139
DATA ascii
8.756224613903575e-17 -1.43
0.02513146526968838 -1.4397806810252034
0.04990628028457654 -1.429128882637307
0.07484041742740986 -1.4280402346990406
0.09975175745409907 -1.4265165918715486
0.12463271212915145 -1.4245584182711961
0.14947570247274444 -1.4221663103766307
0.17549185450341237 -1.4292664583635035
0.20180099639209492 -1.4358886996752769
0.22839431895873713 -1.442024977268901
0.2552628211703877 -1.4476673969279457
0.28048922320352104 -1.442991959668066
0.3056301855021061 -1.4378769730786944
0.3329275604289204 -1.4420676958821481
0.3604636244435048 -1.4457406321512347
0.3882285676537811 -1.4488887394336025
0.41621240728366876 -1.4515051608668614
0.44148127413133254 -1.4440201815041835
0.4697058314499201 -1.4456059047686334
0.49811927631944986 -1.4466434206669547
0.5232908192882733 -1.4377297098024397
0.5518866422997623 -1.4377138568056906
0.5806402197946638 -1.4371349745785205
0.6134478717281597 -1.4451926199203315
0.6426438960597646 -1.4434018230753094
0.6719630361677121 -1.4410293813882735
0.7057775463304148 -1.447058414541659
0.7354646095780659 -1.4434305691851559
0.765238647341002 -1.4392045763600507
0.7999358734064562 -1.4431225167800028
0.8250000000000002 -1.4289419162443235
2.4000774290808535 -3.994399621271843
2.416431844903414 -3.8670993184733025
1.1655275349321583 -1.7947550154032073
1.1966728134273983 -1.7741404052677894
2.5983012566702386 -3.7107587606291332
2.7096900130683013 -3.729568344068508
2.383187491682111 -3.1625966197872795
2.4257062127830937 -3.1047623692104844
2.466935932915363 -3.0464121689113255
2.494015925583773 -2.9722524393016347
2.5258272616134536 -2.905631883857672
2.509239773845718 -2.7867930955402285
2.5506738666337445 -2.735262844055698
2.57718255440288 -2.6687506592563954
1.1313708498984762 -1.131370849898476
1.150943680541842 -1.1114533927343957
3.0278043247033657 -2.8234732106587437
3.269837232100535 -2.9441746679789764
3.569776314453712 -3.1031592071250995
3.8915057710444083 -3.2653610572076195
5.245735239834553 -4.247912639586403
5.303312371773239 -4.14340172894168
5.358844272417335 -4.038178805350244
5.412323692368399 -3.9322833378366453
5.471935655850465 -3.8314905948249876
5.529680608942129 -3.729816666149881
5.577159276837071 -3.6218495828499297
5.639519839440233 -3.523963107150813
5.7087342226760684 -3.4301535789009607
5.767729189204362 -3.3299999999999996
5.824967249548376 -3.228832070840605
3.7172093659360828 -1.9764752793286002
3.7244072711073777 -1.8976802889113054
3.738983232604535 -1.823623970642562
3.7521142383317305 -1.7496396036064956
3.782078194640367 -1.6838897023338124
4.16068193760503 -1.766104700771517
4.496841694648919 -1.8168419780671732
5.106684932939693 -1.9602726840127924
5.929460437159082 -2.1581471043849696
9.808685220001593 -1.7295358495626263
9.353408585435956 -1.4814343839309865
8.932217980048964 -1.2553413706597902
8.545822365631782 -1.0492950467183197
8.214750855741936 -0.8634051065908175
7.86993811492479 -0.6885303677064996
7.581486781974664 -0.5301492004553523
7.299981899055934 -0.3825758401359194
7.055699238754816 -0.24639044671965682
7.028929296949431 -0.1226904172541031
7.1 0.0
9.948484566806092 0.17365144405097094
9.973920453650576 0.3482969770909597
9.526925761558633 0.4992850225576841
9.377102072442348 0.6557108531947778
9.443925737909748 0.8262364412477995
9.527519757628058 1.0013826781041202
9.694724392979973 1.3625046583990406
9.629961320802593 1.525236034142251
9.673879771257338 2.05624662218764
1.9394986642584309 0.9044030801250968
2.067226306488084 1.0082536376148779
1.9424847042896396 1.0328374381289598
2.072848705920368 1.148998799983819
1.1701659225906729 1.0911973760999976
1.1437502825384553 1.1045068090298056
2.5314422766478404 2.53144227664784
2.5007701336523906 2.589623281219144
5.367327093691863 5.755753631742872
3.2921225832855825 3.6562725413487795
3.0178715333563337 3.4716640690247504
4.988031851167546 5.9445048786032695
4.833180603262752 5.968480983989536
2.530368663588456 3.238724197323627
2.196624834504976 2.915019611672619
4.49655718003742 6.1889800069683485
4.387859738085503 6.2665131388107875
4.266641853481798 6.325556678594968
4.161042227514808 6.407443139103038
4.027386408172357 6.445165530788838
2.1168064878803237 3.5229576058856815
1.8200000000000005 3.1523324697753567
3.679705017669699 6.638363577188014
3.558594445917053 6.692742753870665
3.4457878930231605 6.7627395185897115
1.8017054133031085 3.694043530289577
1.9355916387724035 4.150889664627857
2.5217671870699623 5.663981837384125
1.3259614133176107 3.4542475780396464
1.4296441991012956 3.9279151548850963
1.6669089508206427 4.8410551070685015
1.4092316167635912 4.6093889237418315
1.8743340195555942 6.536579532380569
1.2449196069431248 4.646103224450418
1.6111998246937866 6.462169536998137
1.4846769586695099 6.430842427582553
1.3555842241317901 6.377522356784413
0.95595306683649 4.917952189072796
0.6928562288910524 3.9293829345187103
0.5944509671528775 3.7532156942615233
0.6485466504739051 4.614649200335718
0.5995971695533256 4.883327066075304
0.6501670415248044 6.18592618919066
0.06623836448822036 0.7571079705497267
0.05301492004553518 0.7581486781974665
0.039775326744637414 0.7589584464134761
0.02617462252687581 0.7495431202643218
0.013089304827962698 0.7498857713672935
