# .PCD v0.7 - Point Cloud Data file format
VERSION 0.7
FIELDS x y
SIZE 4 4
TYPE F F
COUNT 1 1
WIDTH 179
HEIGHT 1
VIEWPOINT 0 0 0 1 0 0 0
POINTS 179
DATA ascii
2.3207056843842345e-16 -3.79
0.06649366852605051 -3.809419718545851
0.1333160774035541 -3.8176729592129455
0.2004467124104754 -3.8247511181100178
0.26856242391488216 -3.840621593500323
0.3372927244334379 -3.8552734816150553
0.4055704374784954 -3.8587449540289
0.4765091327141267 -3.880855452917569
0.5469502867730573 -3.8917535101543717
0.6179161369089122 -3.9013689453507943
0.6893832653377138 -3.909686779458466
0.7651440714599451 -3.9363250056251324
0.835804997087392 -3.9321533549498984
0.9133012806360924 -3.955942463028055
0.9870413340466442 -3.958806563206066
1.1824842564549265 -4.123812675575388
1.789314832903149 -5.852585106493777
1.4214781741247582 -4.3748599749577055
1.5008691920474928 -4.358840633512851
1.58013306216459 -4.341379908030897
1.6520762474038337 -4.3038057661521005
1.8692869011454019 -4.626647434288269
1.9419337085916903 -4.574909121658629
2.0174137496559696 -4.5311854699073
2.0750556651468344 -4.449971234349952
2.2926810977068754 -4.700692862144644
2.378910218635226 -4.668874186747048
2.469420420253786 -4.644304338437955
2.5404024100908065 -4.5830072654104335
2.5200000000000005 -4.3647680350735705
4.16665802602234 -6.934483462680088
4.29234604028896 -6.869189578867051
4.433361745022322 -6.826778423075751
4.037372763058792 -5.9856512738474015
4.026506583184343 -5.750447350908722
4.0439625357722155 -5.566036921299639
4.146505509517612 -5.5025986642258475
4.297317097773095 -5.500315060174919
4.443001960811853 -5.486650487886213
5.418699549657527 -6.457754655492985
5.556819975549598 -6.392390144486878
5.680918847986707 -6.309299568303078
5.483266814902487 -5.88008376101813
5.446121624398539 -5.639624034655024
5.7346359954229005 -5.7346359954229
5.661204228665185 -5.466961375512309
1.0970305524287558 -1.0229975400937477
1.0701285486874477 -0.9635480731567558
1.0565934123118808 -0.9184826405867101
1.0264995537794306 -0.8613353969799626
1.0258326691232016 -0.8307029161857855
1.0480543022969402 -0.8188297621831255
1.0701715834633725 -0.8064321310237448
1.1002631123499287 -0.7993879431177635
1.1304298211188086 -0.7915354821644435
1.1523622258515078 -0.777278135824338
1.1909122064825022 -0.7733874297213382
1.212708777503689 -0.7577845478534829
1.2428925860180629 -0.7468052086195786
1.273057343563125 -0.7349999999999999
1.3031833636376997 -0.7223663341670422
1.3332508652169797 -0.7089020598066951
1.3721500472500865 -0.6991453695989021
1.393130771763709 -0.67947527752307
1.4410293813882735 -0.6719630361677121
1.4616727322281615 -0.6507786289212802
1.5004229111274776 -0.6368917394375161
1.548397037126535 -0.625593011004573
1.596422529310215 -0.6128091937224635
1.6350651601674806 -0.5951150493866636
1.6735678788107908 -0.5762556333891674
1.7214122944942278 -0.5593207598186548
1.7404746558527247 -0.5321165025953808
1.7398836696483573 -0.4989036140287685
1.7193479707945416 -0.4606979002824869
1.6980175209829937 -0.4233633172994185
1.6954039127263094 -0.39141483455832504
1.6726323972548076 -0.3555289912983684
1.6589499400265522 -0.3224672021863607
1.6544770250605094 -0.29172893848044296
1.6494395287938801 -0.2612455566171855
1.633942313423591 -0.22963561658410797
1.6178502271753548 -0.19864702975039036
1.60118025154292 -0.1682908258609221
1.593911516946793 -0.13944918839625306
1.5761511994105224 -0.11021522851571798
1.567848369564681 -0.0821674513014218
1.5590496901497894 -0.05444321485590151
1.5497639274924064 -0.027051229977789443
1.53 0.0
1.5197684966377147 0.02652765778467094
1.5090801487988346 0.052698240020776464
1.4979443021318608 0.07850393436441575
1.486370434887138 0.1039371458787467
1.4743681531757833 0.12899049926653408
1.4619471861913618 0.1536568410034506
1.44911738139633 0.1779292413715153
1.4358886996752769 0.20180099639209487
1.4321480938629498 0.22682997430833476
1.4181231643375796 0.2500533758403797
1.413543144164636 0.2747649533422245
1.4085325450566801 0.2993928347775734
1.3933491926428863 0.3216800077117269
1.3778199313119148 0.3435290917515282
1.371614673330477 0.36752304404557945
1.3553789912730296 0.3886486717019688
1.3579527534675104 0.4151678207062861
1.3409896879761665 0.4357139620686758
1.3331811915950367 0.4590510977845909
1.3155696691002716 0.4788282006559362
1.3163484013610545 0.5052988088588733
1.3073292349391703 0.528195296716436
1.2979118433679409 0.5509308911698759
1.297234549852493 0.5775660331676362
1.2778939797216764 0.5958917490543861
1.2672996052818255 0.6181033169725991
1.247409133863715 0.6355866996353654
1.244956105931087 0.661954903528106
1.2332137870665478 0.6835815645473352
1.2297560733739028 0.7099999999999999
1.2171775669969995 0.7313540663722768
1.212708777503689 0.7577845478534829
1.2076856178414106 0.7842802104216388
1.19381410447926 0.8052377809978754
1.1795789437761481 0.8259500683455063
1.1730746418436737 0.852288615824086
1.1660078446690476 0.8786499338019904
1.158375807801881 0.9050223687287177
1.142404563341747 0.9251009748432611
1.1414062202472772 0.9577535384329435
1.132064370334158 0.9840885434857609
1.1221486864708654 1.010387215601876
1.111657626461139 1.0366375072949976
1.1005898945181363 1.0628273068022658
1.0889444430272832 1.0889444430272832
1.076720474211446 1.1149766905249092
1.0707374252981225 1.1482253115420977
1.057226358046996 1.174168824254283
1.0431338560949068 1.1999882325542073
1.028460175498463 1.225671108990365
1.0132058295902384 1.2512049979457232
1.0219980490405927 1.3080978509871584
1.0050310886639207 1.333721301778979
0.9933570763742796 1.3672387204936611
0.9750799417967783 1.392558475291286
0.9618117939696845 1.4259446247946717
0.9476719209261473 1.4592867882250375
0.9326579050504407 1.49256464923531
0.9167677733398968 1.5257577952497599
0.8850000000000002 1.5328649646984562
0.7514549113818225 1.3556605460660633
0.7089020598066952 1.3332508652169797
0.6719059396145294 1.3186896557987844
0.6356381628441623 1.3032513671337922
0.6043441142892002 1.2960201354624095
0.5694313003061204 1.2789636406996412
0.5392089573151977 1.2702966977643677
0.5094649670456406 1.2609700422108308
0.47662937289524926 1.2416619672412783
0.4480463877566262 1.2309973332295399
0.4167272377051607 1.2102637767671254
0.3893614129124338 1.1983312105318935
0.3625409138561936 1.185817897394164
0.336277574096739 1.1727392690447491
0.3157592350250753 1.1784295080726632
0.2903062747196012 1.1643548715311958
0.26544224412576084 1.1497566764465774
0.2432566782567783 1.1444326928585526
0.2213384346367921 1.13868753279929
0.19795892254030065 1.122680838433917
0.17520660084505865 1.1062109414665544
0.15587387307527334 1.109100236990559
0.13527497117971374 1.1017262283218674
0.11498130959441881 1.0939740849051007
0.0958713170224242 1.0958141679009201
0.07533699164365526 1.0773691742806102
0.05599947317995005 1.0685336021873941
0.03699346650465115 1.0593542766402415
0.01832502675914778 1.049840079914211
