# .PCD v0.7 - Point Cloud Data file format
VERSION 0.7
FIELDS x y
SIZE 4 4
TYPE F F
COUNT 1 1
WIDTH 180
HEIGHT 1
VIEWPOINT 0 0 0 1 0 0 0
POINTS 180
DATA ascii
4.163799117101001e-17 -0.68
0.012216684506098517 -0.6998933866094739
0.025476632592825788 -0.7295553037239398
0.039775326744637414 -0.7589584464134761
0.056502743732741445 -0.8080268807104577
0.07408238133550961 -0.8467654933779837
0.0878039091448289 -0.8353983921093495
0.10237024846032389 -0.8337387673787104
0.11551367379685433 -0.8219224970555034
0.12984060598339167 -0.8197813226939643
0.14239150568688294 -0.8075423574700106
0.15646337620876682 -0.8049342904270844
0.17048758647056256 -0.8020810326017206
0.18221035401853078 -0.7892397524760406
0.19595673543573083 -0.7859395382835572
0.2096434265330418 -0.7823999192941454
0.22326625821176935 -0.7786219737100384
0.2368210808254168 -0.7746068523300588
0.24721359549995797 -0.7608452130361228
0.25719884202115384 -0.7469596747234603
0.2701959132272784 -0.7423571704208676
0.28311068014078716 -0.7375285369327894
0.29593920879857066 -0.732475245107762
0.312584902791419 -0.7364038827619523
0.32538931446064034 -0.7308363661140808
0.33386842677515255 -0.7159831517589534
0.34631320596337123 -0.710047296576342
0.35865249479424205 -0.7038951541088105
0.3708825346008538 -0.6975285983585523
0.3829995999946063 -0.6909495686401227
0.39500000000000013 -0.6841600689897065
0.406880079178943 -0.6771621675546687
0.4186362187442319 -0.6699579959635766
0.4357112280120218 -0.6709364543563392
0.4473543227765975 -0.6632300580440335
0.45886114908083686 -0.6553216354311935
0.4702282018339785 -0.647213595499958
0.4874701687531591 -0.6468947631383072
0.49868579501378324 -0.6382887104214447
0.5160427206608668 -0.637259688394716
0.5270858399429622 -0.6281564433575619
0.537968403772216 -0.6188618557826729
0.5553784032778523 -0.6168102051462372
0.5728786224524987 -0.6143371093601032
0.5904596148901478 -0.6114388302878534
0.6010407640085654 -0.6010407640085653
0.61863222829124 -0.5974061985947376
0.6289641833924866 -0.5865185896537487
0.646535998165333 -0.5821436275322066
0.6565973347938117 -0.5707713552217413
0.6817795543758904 -0.57208097262102
0.6994313653112737 -0.5663883519448538
0.7092096782460497 -0.5540953277930925
0.7267583141430365 -0.547651671068364
0.7442956348249516 -0.5407624321090753
0.7618114011887624 -0.5334260858064729
0.7710049424761889 -0.5200494002277946
0.7548035111508816 -0.49017513151352426
0.7462823246176549 -0.46632895252522033
0.7371638786038166 -0.4429327444226466
0.7188010851410841 -0.4149999999999999
0.7084419627829106 -0.39269579239953306
0.6975285983585523 -0.37088253460085374
0.694985088866927 -0.35411258979684646
0.6920714156503587 -0.3375457830275896
0.6797308402774874 -0.31696369630552457
0.6851590932319507 -0.3050524823068501
0.6995836886238547 -0.296955657651848
0.7046597294707585 -0.28470101099609313
0.7095211241378734 -0.2723596416544282
0.7423571704208677 -0.2701959132272783
0.7847804177474329 -0.27022156819944004
0.817908604013832 -0.26575461516245474
0.8511112328071017 -0.2602108172032357
0.8939733772226366 -0.25634274090980924
0.9369480515003963 -0.2510544737494451
0.9799986835387564 -0.2443411145556644
0.9841137654330876 -0.22720056488730364
0.9781476007338057 -0.20791169081775931
0.981627183447664 -0.1908089953765448
0.974959675482086 -0.17191169589026103
0.9778114571891864 -0.15487012038982856
0.9704627073667389 -0.13638963894086412
0.9627697670920823 -0.11821326310299304
0.964686238507225 -0.10139260936962385
0.9563469101680757 -0.08366951303775183
0.9576614882494312 -0.06696621479436028
0.9486980580168451 -0.049719158430796634
0.9494212856681409 -0.03315452186737592
0.9598537873501356 -0.016754310179792172
0.95 0.0
0.9498553103985716 0.016579786115419336
0.9494212856681409 0.03315452186737592
0.9486980580168451 0.049719158430796634
0.947685847746833 0.06626865005691904
0.9463849631871583 0.08279795561027525
0.9447958005998596 0.09930204010427078
0.9429188440592559 0.1157758762348901
0.9506573459919075 0.13360617692166282
0.9481808069713322 0.15017708643862163
0.9355673653615976 0.1649657687835838
0.9325458242752808 0.18126854560771755
0.9390216967044535 0.19959522318504894
0.9256515615459734 0.2137035016266717
0.9217809399621966 0.22982580081968434
0.9176295349746149 0.2458780928473947
0.9131986111414029 0.2618554880261492
0.9180525657245141 0.28067683653382725
0.9130142556433474 0.2966563145999495
0.8226011607714057 0.2832442943777263
0.7705479490444449 0.2804565175270483
0.7188569284028453 0.27594332114988124
0.6675723752880869 0.26971674725945666
0.6351483488821839 0.26960447865759885
0.6303463657733945 0.2806482837223021
0.6978569960182205 0.3254160615403386
0.9077819867621587 0.4427548582569682
0.9088266546721353 0.4630703097343377
0.9094360206446949 0.48355570966946754
0.9096044954249716 0.5042020050561905
0.9093266739736606 0.5249999999999999
0.9085973387442391 0.5459403594046575
0.9074114628873758 0.5670136127295293
0.9057642133810581 0.5882101578162292
0.9036509540849955 0.609520264783114
0.909258769160781 0.6366698443496611
0.8980088637561917 0.6524416300446453
0.8944717712529681 0.6740328259302941
0.8983322591116629 0.7018540818712504
0.8937178556755163 0.723718449707313
0.8962719984492042 0.7520615033332508
0.890557304662871 0.7741496542087986
0.8917737905728731 0.8029567276306299
0.8849379789591962 0.8252180156756231
0.8847879544165409 0.8544297956645666
0.5939696961966999 0.5939696961966998
0.5696198637763779 0.5898586362776939
0.5524186716506237 0.5923964983115281
0.528613179023498 0.5870844121271415
0.5117260426125958 0.5886734725737621
0.4949464594586353 0.5898542212016131
0.48457670110837486 0.5984023903218675
0.46174610649424375 0.5910080652050415
0.44534311713251573 0.5909902774349967
0.42320538165058064 0.5824922359499621
0.41297503417275316 0.5897894718880741
0.3914350324295227 0.5803263007885292
0.381247324510519 0.5870693975617968
0.3709434849632434 0.5936336673094982
0.3553762716879375 0.5914454374844574
0.3400000000000001 0.5888972745734183
0.32482244556504586 0.5859952037833952
0.31454594706654687 0.591574887215481
0.29963372982810094 0.5880643059643228
0.2805575339450096 0.5752281896314669
0.27047568751404766 0.580036983703456
0.26031145156851226 0.5846690928912646
0.2500679222331352 0.5891231062095619
0.23225608791786556 0.5748539898314081
0.2221881287180861 0.578819864428265
0.21205248886191466 0.5826094248872632
0.19859657421886562 0.5767663311155832
0.18850036656871794 0.5801444749400436
0.17834673988086944 0.5833459011374516
0.1681387870483695 0.5863696345223746
0.16046780796356286 0.5988740122992223
0.1548300131837873 0.6209892648166377
0.15071720641038966 0.6528279434061076
0.14969641738878664 0.7042662725283401
0.1469229264399396 0.7558529312547013
0.13891854213354435 0.7878462024097664
0.13609798458500091 0.8592888563177699
0.12664752187365957 0.9011439425548291
0.11943195653704454 0.9726952286084956
0.3627137675387575 3.4509909769279083
0.3006873124794214 3.4368717084165223
0.24065983441723207 3.4415959733963937
0.18003568947572723 3.435285599555734
0.12005426865660371 3.4379044449456893
0.05968723001550991 3.419479117434858
