# .PCD v0.7 - Point Cloud Data file format
VERSION 0.7
FIELDS x y
SIZE 4 4
TYPE F F
COUNT 1 1
WIDTH 174
HEIGHT 1
VIEWPOINT 0 0 0 1 0 0 0
POINTS 174
DATA ascii
4.3046334990029467e-16 -7.03
0.10803039584678548 -6.189057233018063
0.19788014630318113 -5.666545989198273
0.27476377027545584 -5.242805057461513
0.3425042860836549 -4.898039486775737
0.40265953149418166 -4.602419505183865
0.4578346691123221 -4.356005901713037
0.508195161999465 -4.138917452344312
0.5566924038402619 -3.9610722749662814
0.597579656453682 -3.7729694610734263
0.6372888120376347 -3.6142444535548033
0.675463843632969 -3.4749602294047306
0.7131370995049142 -3.3550462705169535
0.7468375004216322 -3.234908615086981
0.77898850383093 -3.124352238608709
0.8101036111708899 -3.023347836284784
0.8379375616836775 -2.9222355556524895
0.8683439630265283 -2.8402251252102153
0.8961492836873476 -2.758063897255945
0.918102195569182 -2.666362383190073
0.9405553941455893 -2.584154707161248
0.9604261047814044 -2.5019955430125007
0.985215340683849 -2.4384935375106505
1.0080863115023262 -2.374902521907296
1.024976340551017 -2.302134553259354
1.0480932891169346 -2.247643311850892
1.069625598165349 -2.1930574729699677
1.085037294377517 -2.129505592810199
1.1079528881747023 -2.083756319147067
1.1199102227690387 -2.0203715234920043
1.1450000000000002 -1.9831981746663645
1.1588356685476224 -1.9286264265797526
1.1711215739553829 -1.8741862925057016
1.1927594866829094 -1.8366885438004783
1.207856671496813 -1.7907211567188903
1.210246280700707 -1.7284108134497727
1.2284711772912689 -1.6908455182436402
1.2457570979247399 -1.653175505797896
1.2621060244175994 -1.6154220448937797
1.2712271899206717 -1.569834842143081
1.2855752193730787 -1.532088886237956
1.2924362871112995 -1.4867778730388606
1.3114959884633621 -1.4565638579356928
1.329896802121872 -1.4261397181573823
1.3406906549858648 -1.3883258146535966
1.3505739520663058 -1.3505739520663056
1.3595522226400507 -1.3129043201675048
1.3749449590440403 -1.2821569169174971
1.3822493753879534 -1.2445829278274765
1.3962127234121282 -1.2137092036324386
1.4095217753389195 -1.1827292018232323
1.4144056498516868 -1.1453631117107044
1.4262994640281668 -1.1143472703394415
1.4455302731856001 -1.0892851919052073
1.4562305898749055 -1.0580134541264516
1.5400058432633046 -1.0783237003399666
1.6580751451100835 -1.1183858069414936
3.0779209843597064 -1.998825258505149
3.231063246355983 -2.018992396728511
3.3772391647663227 -2.0292500151456134
3.5507041555161982 -2.0499999999999994
3.752118543628008 -2.079833270856786
3.796674649293386 -2.0187277199793305
3.8224179887680982 -1.9476192438826556
4.08951291066121 -1.9945887178903021
4.341214299905554 -2.0243414737379504
4.62254001567156 -2.0580874139635488
4.924700965970556 -2.0904115374176144
5.257132455393685 -2.124019384668221
5.666833188838015 -2.1752934537399726
6.0986051089005455 -2.21971073018359
6.618630029195218 -2.2789770812000967
7.209008393517264 -2.3423488173621014
7.468740144071307 -2.2834230138845735
7.4978412283188876 -2.1499713753725933
9.137658316694587 -2.448428166669846
9.198403485096447 -2.29341957028485
8.664927903828742 -1.0639193679269374
8.70206658447239 -0.9146240535919677
8.69677971434094 -0.7608696341870558
8.708734158768266 -0.6089740157862139
8.738008429102521 -0.4579396171257585
8.754663644687279 -0.3057195911139085
6.559000880225926 -0.11448778622857983
5.58 0.0
4.899253706266317 0.08551679154268921
4.327362280992685 0.1511148207218292
3.8946551855428377 0.20411022934748094
3.521401097417179 0.2462403523167623
3.227670821817256 0.2823846065024125
3.053182218780599 0.3209023822316961
3.0669676085716846 0.37657627112190567
3.0698310130988684 0.4314366129762029
3.08158762265683 0.4880755309255203
3.092296344458333 0.5452552778741613
3.111758171529095 0.604864515343647
3.1398537983555164 0.6673965275250074
3.14721530925631 0.7265919055306839
3.143758153134229 0.7838269417429234
3.1585774519652534 0.8463382774852428
3.162550979637069 0.9068469006379273
3.1653687422376477 0.9677503426322586
3.1670181992628614 1.0290265912685748
3.1769424140137046 1.0939089989760464
4.858210849463147 1.7682441409937073
5.3774232566238815 2.0641993893809296
5.377666356487367 2.1727182418122895
1.2610916492298434 0.5353016460303051
1.2058800040882331 0.5368923688600562
1.1510108895365454 0.5367251924106883
1.0965287364849838 0.5348127990826744
1.0692078290260414 0.5447885996874561
1.015389731787766 0.5398922972037744
0.9795740719961233 0.5429867746758975
0.9526279441628827 0.5499999999999999
0.9085973387442391 0.5459403594046575
0.881970020002683 0.5511160348025331
0.8470572736248783 0.5500854253651772
0.8207471968294913 0.5536009744360393
0.794577482960322 0.5563691432605147
0.7685661446562 0.5583959896778494
0.7587037345449281 0.5717242719944459
0.7328500008542514 0.5725651720528623
0.6994313653112737 0.5663883519448538
0.6817795543758904 0.57208097262102
0.6641444305960393 0.5773319455116465
0.6391045499105591 0.575452321468618
0.6143371093601032 0.5728786224524987
0.604245432284467 0.5835130311855576
0.5868986283848344 0.5868986283848344
0.5696198637763779 0.5898586362776939
0.5524186716506237 0.5923964983115281
0.5353044850870866 0.5945158603819154
0.5182866329025009 0.5962205683759898
0.5078022116523662 0.6051751100639926
0.4908699050188733 0.6061738499364372
0.4740593360007569 0.6067682802771759
0.4633975678270772 0.6149493427364154
0.45259464426520435 0.6229430856687096
0.435918091626795 0.6225555536596338
0.42498660663776755 0.6300685551418317
0.4084792762612704 0.6290029259590679
0.39214025553257165 0.6275555911557553
0.38112817543344024 0.6343038025195631
0.37000000000000005 0.6408587988004846
0.3490629265773627 0.6297261891403649
0.34271424083370033 0.6445517427870167
0.32233325481507824 0.6326146321737411
0.3068598027523542 0.6291558324094169
0.30428514845330357 0.6525416066663879
0.2887830165838183 0.6486172749262465
0.2735117899424916 0.6443533974167083
0.2584785494569794 0.6397568596510832
0.2472738851862571 0.6441704942830692
0.23599389889471148 0.6483879083422767
0.2278977081200097 0.6618630029195217
0.21322172611871373 0.6562289962436559
0.20466019330591573 0.6694133291741248
0.1901897755137294 0.66327057019744
0.1759969506697141 0.6568295618765665
0.16450688900777402 0.6598010938676776
0.1529667169538283 0.66257164405396
0.1413799497560763 0.6651403684989879
0.12975011685605056 0.6675064847444115
0.11634427903684338 0.6598211945181794
0.10481109157695473 0.6617511881987423
0.09324597764324387 0.6634796060568522
0.08165246008144883 0.6650059215996857
0.07003407038932782 0.6663296698967431
0.05752279021345452 0.6574885007405521
0.04673683740856391 0.6683679136740822
0.03506509068277246 0.6690817882855645
0.023382662790675725 0.6695918541027942
0.011693112312980012 0.6698979557547822
