# .PCD v0.7 - Point Cloud Data file format
VERSION 0.7
FIELDS x y
SIZE 4 4
TYPE F F
COUNT 1 1
WIDTH 168
HEIGHT 1
VIEWPOINT 0 0 0 1 0 0 0
POINTS 168
DATA ascii
7.347880794884119e-17 -1.2
0.0198957433385033 -1.139826372478286
0.03769145643870117 -1.0793420931806235
0.05495275405509117 -1.0485610114923025
0.071849167956449 -1.027490971767619
0.08802730017513495 -1.0061566450726631
0.10452846326765346 -0.9945218953682733
0.1267441171413534 -1.032247997706975
0.14613175600806874 -1.039781472178649
0.1658205329426448 -1.046949641030846
0.18754003188028487 -1.0635923732531847
0.20798180496043397 -1.0699736299579539
0.22870285989953518 -1.0759623608071864
0.24969567032169032 -1.0815507719116113
0.27337174202762443 -1.0964341706918759
0.29505371141687364 -1.1011554419695377
0.314226585631379 -1.0958383333696835
0.342074894525602 -1.1188765644767513
0.36773022330618743 -1.1317572543912326
0.6348579011914557 -1.8437612224186677
0.6806200852180809 -1.8699883153639576
0.7203195785860532 -1.8764966572593753
0.7604513846343016 -1.882183224770578
0.8400719262519385 -1.9790854349227467
1.2242772956581591 -2.749771827504228
1.2129144111958075 -2.6011033487951853
1.363334266514031 -2.795249483990409
1.4209902641847816 -2.788850420709591
1.492919569659133 -2.8077733452913876
1.565935073395669 -2.825021654060248
1.6550000000000005 -2.866544086526492
1.7356783124468833 -2.888653803366118
1.828221461604557 -2.92576593173967
1.9225757936030459 -2.960507104847346
2.018686381529396 -2.9928256369237007
2.1107612857718494 -3.01447952298349
2.2218282536655485 -3.058084238737301
2.329024139598427 -3.0907194238830233
2.438019442289607 -3.1205225842826185
2.4732291368258617 -3.0541836285258954
2.4875880494869076 -2.964591994870445
2.5127060810336435 -2.8905376922532167
2.536004998100073 -2.816518888559324
1.5685962281437464 -1.682113513724092
1.569927917237334 -1.6257079487653512
2.6092240225783607 -2.6092240225783603
1.6185145507619652 -1.5629813335327438
1.638232291626942 -1.5276763265399966
1.6497815125598154 -1.4854699461166654
1.6679081722923261 -1.449890454069021
1.6852977748617517 -1.4141327413103866
1.6864067363616266 -1.3656252485781473
1.7651440880790572 -1.3790817047294748
1.7889435425059361 -1.3480656518605882
1.9659112963311225 -1.4283181630707098
1.99873098806514 -1.3995265046965524
2.8435988738637934 -1.9180316589046615
2.859866636693896 -1.857219109401242
2.874883045970284 -1.7964263057505647
2.8972254763731398 -1.740828693195983
2.927165864791403 -1.6899999999999997
2.4226965887761263 -1.3429226480823537
2.304493217361799 -1.2253207788711749
2.2987968324059893 -1.1712954893280307
2.3009127585258677 -1.1222301357800382
2.32921101268419 -1.0861289326735974
2.366082735294336 -1.0534479055663224
2.3841075704418206 -1.0119936227872188
2.3921343447823116 -0.9664850110130531
2.399301696097808 -0.9210056303314217
2.4150100354197845 -0.8789917683469686
2.250334209926374 -0.7748522076080329
2.16840885715295 -0.70455874717488
2.1899378911553513 -0.669531203815067
2.210901900658133 -0.633965918379098
2.221629400464857 -0.5952838037357977
2.241383127697552 -0.5588395788352325
2.2605385503017454 -0.5218864460777667
2.2888653857171053 -0.48651335651355676
2.3068238811020105 -0.44840113913488033
2.3241462971088107 -0.40980969929395555
2.3408213672104767 -0.3707496821453472
2.2380058353559487 -0.31453120816974783
2.2729306872586275 -0.2790807963977877
1.8796463822460365 -0.19755879557586503
1.882807979393399 -0.16472435379307393
1.905347335996264 -0.13323486485127933
3.435285599555734 -0.18003568947572676
3.4478983532158805 -0.12040326362362835
3.4594730252411137 -0.06038532627300095
3.48 0.0
3.529462363902061 0.061606994723610795
3.517855711107217 0.12284622839280342
3.545134848378737 0.18579264466245057
3.561303659427572 0.2490306112665273
3.586300913130284 0.3137606738915694
3.6001692612331495 0.37839303702890553
3.6327189150072385 0.4460417968628398
3.6540891736563945 0.5135487425426415
3.664323743607961 0.5803718652992566
3.702877151325902 0.652917148027658
3.730183297101123 0.7250741824308702
3.756086786817814 0.7983808927401957
3.780555851366713 0.872810090854196
3.7938562897391463 0.9459146117947008
3.6705181398984594 0.9835123713895788
3.55666827497178 1.0198582165228969
3.4522601690265584 1.0554618540490794
3.357229502521892 1.0908299901435643
3.25258390006165 1.119954451332619
3.1667641320485114 1.1526078830075035
3.071479603175794 1.179030554004038
2.9855320117050557 1.2062332307992367
2.0711359202679906 0.8791450391008658
1.6991945512152378 0.7565301561209883
1.6041647830548704 0.748034323281038
1.554913700097559 0.7583820839451039
1.5414412868458764 0.7854035645494158
1.6069646190032472 0.8544382442703213
1.5743154728509123 0.8726573164434067
1.4722431864335457 0.8499999999999999
1.4400410651795488 0.865263965848891
1.4332012825043599 0.8955635565541162
1.4844469052634006 0.9640110919765977
1.4922676305990752 1.0065472262473443
1.5563888841490843 1.0897952290669874
1.8121980673998825 1.31663896513514
1.8288753180083006 1.3781564030181905
1.8439451634397293 1.4406478522620403
1.8573788478821602 1.5040757346091118
1.8768088856414962 1.5748296437320213
1.8263971841391082 1.5876628501570276
1.7835475811457462 1.6059134552612597
1.733308272837434 1.6163361133481216
1.6976419287992168 1.6393937542832335
1.647558800164656 1.6475588001646557
1.4657291616684844 1.5178069787145536
1.4731164577349969 1.5797239954974083
1.5122351703710195 1.679507305578911
1.502375176388262 1.7282849387101478
3.2010822962389662 3.8149013267325107
3.1277223435176924 3.8624154284411447
3.053680917615265 3.9085333378893408
2.978984364602639 3.9532457747340994
2.8977812938018923 3.9884537822684907
4.2846159795423135 6.119065770838769
4.4959109439048035 6.665462083342534
4.667556530078783 7.187406767292283
4.864658845660821 7.785081522715991
5.104027322358639 8.494527949957932
0.8899689437998486 2.739042766930042
0.628599165153884 2.056055225320526
0.5760820736575282 2.0090369445110863
0.499520757047865 1.8642368447379019
0.4741669153753486 1.901779623500953
0.4768962352089941 2.065664537344699
0.428298083084584 2.0149840575116396
0.3587209113079044 1.8454591048816082
0.2552628211703877 1.4476673969279457
0.23152300825954175 1.4617787440808039
0.2087596514400982 1.4854021031123557
0.18402270854177272 1.4987446889783962
0.15888326416683327 1.5116732809597755
0.13421984383139388 1.5341398350612883
0.10742496956595286 1.5362486374001294
0.08059737261413372 1.5378894835220438
0.054443214855901687 1.5590496901497894
0.027225754042162414 1.5597624044439704
