# .PCD v0.7 - Point Cloud Data file format
VERSION 0.7
FIELDS x y
SIZE 4 4
TYPE F F
COUNT 1 1
WIDTH 176
HEIGHT 1
VIEWPOINT 0 0 0 1 0 0 0
POINTS 176
DATA ascii
2.510525938252074e-17 -0.41
0.007155486639286275 -0.4099375550141204
0.014308793648025443 -0.40975023907782926
0.021457742059607026 -0.40943810924937524
0.028600154235091345 -0.4090012606065279
0.035733854526539925 -0.40843982621761565
0.04285666993973791 -0.40775397710099204
0.04996643079611047 -0.406943922172942
0.057060971393626835 -0.4060099081840438
0.06413813066649468 -0.40495221964400646
0.07119575284344147 -0.4037711787350053
0.08013977805814886 -0.41228341704801885
0.08524379323528128 -0.4010405163008603
0.09222993228098471 -0.3994917265619464
0.09918797719586374 -0.3978212477731585
0.10870399894305871 -0.4056888470414087
0.11301131588496965 -0.39411729533471074
0.11987239893632207 -0.3920849499448445
0.12669696769372846 -0.38993317168101294
0.13348294332743427 -0.38766261599571983
0.1402282587635242 -0.3852739745222224
0.15051453880902607 -0.3921037791288247
0.153588703300524 -0.38014538037238277
0.16410707396549495 -0.38661203845002495
0.17082939009183615 -0.38368909220989234
0.17749966993109376 -0.38064927055539294
0.18411588165141252 -0.37749349944565014
0.19521591488800516 -0.38313280540099814
0.20187277199793308 -0.37966746492933856
0.20846813670592496 -0.37608647406994017
0.22000000000000006 -0.381051177665153
0.22661675296042394 -0.37715361230892935
0.23316447626261017 -0.3731411623088275
0.24508756575676224 -0.37740175557544076
0.25163680656183607 -0.3730669076497688
0.25810939635797076 -0.3686184199300463
0.27038121605453763 -0.3721478174124758
0.2768349106499422 -0.3673723346217547
0.28936089340305937 -0.37036505419515925
0.2957805837934236 -0.36525860188477627
0.3085380526495389 -0.3677013326971094
0.31490833391544354 -0.3622605985069305
0.32787399711584053 -0.3641409644839232
0.33417919643062427 -0.35836331379339353
0.3473291852294987 -0.35966990016932554
0.3606244584051393 -0.36062445840513924
0.3668632981727121 -0.35427576893408863
0.3803039248419687 -0.35463914723249923
0.38643530924824504 -0.3479479153066063
0.3999960775180692 -0.34771128536496887
0.41366399928424813 -0.34710530923073124
0.427430278801334 -0.34612621507741065
0.4412860220197643 -0.3447704261823687
0.44723588562648403 -0.33701641296514706
0.45304951684997063 -0.329159741283785
0.4751081856876152 -0.33267433308360667
0.4891321678074746 -0.3299238130477406
0.5032023407672545 -0.3267834210090162
0.5173093386554198 -0.323250751182255
0.5400153994423308 -0.32447398719333415
0.5629165124598852 -0.32499999999999996
0.5772490067120012 -0.31997434936258246
0.5915748872154811 -0.31454594706654687
0.6147945016899738 -0.3132534448202872
0.7010593561133504 -0.3419294944954804
0.7522354632404195 -0.35077315724478053
0.7856490935726367 -0.34979351304518813
0.9849401931941113 -0.4180823074835229
1.0291740785691341 -0.4158133186916624
1.0642816862068099 -0.40853946248164225
1.108837292527372 -0.40358376912428906
1.1440774764751733 -0.3939374668931596
1.1888206453689418 -0.38627124296868426
1.2431961827519462 -0.38008321613955776
1.2880906725573473 -0.3693540567947789
1.342636898541805 -0.35975847269250383
1.4069288031001947 -0.3507867486195182
1.4712987978257053 -0.3396760920592361
1.545473209159413 -0.32850047149205974
1.6098685808541688 -0.3129267524175335
1.6938693351809977 -0.29867486558712014
1.777839013071248 -0.2815820370724156
1.8716066499215678 -0.26303716081452366
1.995017764799057 -0.2449573802443464
2.1083864181807397 -0.22160034212742535
2.2613619646682626 -0.19784353603718405
2.4041293611261763 -0.16811310172334198
2.6064230857094377 -0.13659684579408338
2.838269948734232 -0.09911457063510275
3.1395217627910688 -0.05480055621307023
3.49 0.0
3.9294014419646177 0.06858795729852421
4.467276996775357 0.15600075026017932
5.152928399333601 0.2700535342135902
6.065189425579732 0.4241193603642818
7.451536341726257 0.6519249557524831
7.67770903224307 0.8069597364262847
6.979369274312891 1.3566519571272335
4.587512247441549 0.9751058299352913
4.160560176632954 0.9605410020483034
2.76534281988659 0.6894774024590531
2.3278812413566548 0.623753898697075
1.9417486257954042 0.5567874587503383
1.807415988770137 0.5525825219259723
1.8260285112866947 0.593312629199899
1.8248508509066814 0.6283465381023124
1.794812905701085 0.6532584737520272
1.7551312018147391 0.6737317451451644
1.5947562298548743 0.6443233406753687
1.4636027169893802 0.6212624942979452
1.3703181864639014 0.6101049646137002
1.3503986026846084 0.6297012099936422
1.204384022040884 0.5874173366973637
1.1315782857192271 0.5765679346692244
1.0595371114307124 0.5633658753430689
0.997066466138911 0.5526829670808242
0.9439676901250382 0.5449999999999999
0.8914539927301969 0.5356395979064563
0.8565285771179902 0.5352184568755369
0.8051237452276071 0.5228534736144259
0.7627145667506384 0.514457471193087
0.7126622785314228 0.4990114996254101
0.7038447851062043 0.5113731694944517
0.7027992488416177 0.5295972203738025
0.7013295707099825 0.5479387130398359
0.7072028249258434 0.5726815558553522
0.7124213321006496 0.5977924770084815
0.6415031431893562 0.5576501746419311
0.5945158603819154 0.5353044850870866
0.5485152762143779 0.5114987700468738
0.5395048502539884 0.5209937778442479
0.5232590180780452 0.5232590180780451
0.507100610435068 0.5251180542472152
0.49103881924499887 0.5265746651658028
0.4817740365783779 0.5350642743437238
0.4723625008731653 0.5433908977603957
0.46923495507117374 0.559212443476854
0.4908699050188733 0.6061738499364372
0.4863725655072701 0.6225284953493103
0.48145201852163866 0.6389084080378343
0.48198390687982795 0.6633939353874568
0.4760684421713682 0.6798961967598631
0.47531396795013475 0.7046819366717855
0.46838957011292337 0.7212566884330646
0.46632895252522033 0.746282324617655
0.4583838866699484 0.7628788976248799
0.4550000000000001 0.7880831174438392
0.4508729468290935 0.8133963276396381
0.4506927002744552 0.8476296891445698
0.44037078474736047 0.8642763284627167
0.43837114678907746 0.898794046299167
0.43529680959292044 0.9334970206477494
0.43114084166034844 0.968358185101157
0.4219896187684156 0.9941452417286357
0.3970829890208669 0.9828148858407946
0.3762863470225652 0.9802594478220619
0.3557009490586956 0.9772803256173447
0.33533519909087145 0.9738841328672962
0.31210716431869695 0.9605670814581051
0.29529542176996415 0.9658678035226658
0.27563735581699916 0.9612616959383189
0.25881904510252074 0.9659258262890683
0.239502676643671 0.9605927690132365
0.22045203325698784 0.9548826634895305
0.20167434009322646 0.9488031727117915
0.18508472551524857 0.952178367944234
0.1667022505602532 0.9454154428917196
0.15017708643862168 0.9481808069713322
0.1322144459120622 0.9407546653044918
0.11455718280083864 0.9329933825428426
0.09721147083891772 0.9249053626924942
0.08105484075532228 0.9264610692253235
0.06417595584459522 0.9177589262390383
0.048149079743508454 0.918739171974208
0.032107536966301 0.9194395608575682
0.016056213922300912 0.91985987954388
