# .PCD v0.7 - Point Cloud Data file format
VERSION 0.7
FIELDS x y
SIZE 4 4
TYPE F F
COUNT 1 1
WIDTH 172
HEIGHT 1
VIEWPOINT 0 0 0 1 0 0 0
POINTS 172
DATA ascii
1.702259050814821e-16 -2.78
0.04921578615313974 -2.8195705003410234
0.09981256056915308 -2.858257765274614
0.15229763266696694 -2.90601194613581
0.2050840328077282 -2.932838307763883
0.2605956708154985 -2.9786221472943195
0.31672124370099 -3.0134013429658677
0.37535757768785427 -3.057042147055272
0.4370035370146056 -3.109441735848531
0.500590288128739 -3.160602689904441
0.36639765487722314 -2.077944358855759
0.63730204455766 -3.2786347927151978
0.30978841931846124 -1.4574399250933705
0.3306780498854818 -1.4323239952342959
0.35804440548750815 -1.4360376748884747
0.9032784674077974 -3.3710811337488487
0.9509488775686472 -3.3163528509872005
0.9911400790100777 -3.2418731227146904
1.0382971010998234 -3.1955498947517156
1.077630591253189 -3.1296664852337384
1.108145264375167 -3.044604091346343
1.1539447975358665 -3.00612897332099
1.198741098930919 -2.9669883346137196
1.2425249885958904 -2.9272054339787603
1.2771530592580131 -2.868532736997767
1.3143427940135752 -2.818617217683981
1.3457994206424677 -2.7592977221384425
1.384671024205618 -2.7175698987745216
1.4224988352412493 -2.6753312063625483
1.4592769569414745 -2.632605318489581
1.4900000000000002 -2.580755703277627
1.524512701733761 -2.5372152100782523
1.5526634442032905 -2.4847809217383285
1.1600811445820078 -1.7863683097237528
1.1798970263232758 -1.7492692780911379
1.210246280700707 -1.7284108134497727
1.2284711772912689 -1.6908455182436402
1.2517752481562605 -1.6611618608983691
1.2805758686773694 -1.6390623675019815
1.308986413383662 -1.6164635998304993
1.3305703520511363 -1.5857119972562843
1.3514815997204452 -1.55470173525891
1.3717177430356593 -1.5234468922286581
1.3844566709268717 -1.4846480142869158
1.4032099083271747 -1.4530663966840751
1.4142135623730951 -1.414213562373095
1.4386796006773024 -1.3893167409179945
1.462707403238341 -1.363996720124997
1.4937210992095622 -1.344952518781305
1.5169662562477715 -1.3186786482709194
1.5397493306691457 -1.2920030954699437
1.562063382528511 -1.2649339860101732
1.5760215072134438 -1.2313229506513166
1.6052573751950585 -1.209648196535617
1.618033988749895 -1.1755705045849463
1.6383040885779836 -1.147152872702092
1.6746558965611844 -1.1295696650109086
1.685727841570302 -1.094724460380204
1.704576673274416 -1.0651377211087418
1.7229062744112456 -1.0352265305692088
1.7407110616067216 -1.0049999999999997
1.7579856113501853 -0.9744673366951374
1.7835541375750326 -0.9483325568274994
2.49481826772743 -1.2711733992707308
2.5256112701006592 -1.2318229224773076
2.555787959443353 -1.1917834981087723
2.5853336451285607 -1.1510646999045144
2.6142337838049303 -1.1096764049095373
2.6332021469696762 -1.06388272530119
2.6700400197819967 -1.0249323356995588
2.706314747863416 -0.9850180127779259
2.742003869238019 -0.9441476479257545
1.8260285112866947 -0.593312629199899
1.8265420838893978 -0.5584299560204271
2.2205145176175165 -0.636722291937268
2.859140445815642 -0.7661043735034614
2.8914812643024694 -0.7209272488870099
2.9231101943557056 -0.6748531630315949
2.954005754216093 -0.6278933062696331
2.993962909515375 -0.5819674358984617
3.0233598017474783 -0.5330999054374761
3.0519569724389757 -0.48338249697431335
3.0995390551611153 -0.4356118060050048
3.1463713007029908 -0.38632581859431747
3.1725248462247917 -0.3334457978238145
2.2912478056110146 -0.20045820831961378
2.2844216750949973 -0.15974232487404694
2.29684792993552 -0.12037269935877079
3.3579531787841614 -0.11726230892040325
3.3894836865801667 -0.05916365782239111
3.42 0.0
3.349489778773911 0.058465561564899765
3.258014096082252 0.11377235925015315
3.1856282158670903 0.1669517004149908
3.132351117815848 0.21903532755655347
3.0483557761607414 0.266696572807834
2.8841134965679927 0.303132543476195
2.8783838397598336 0.35342109587492765
2.88168008003797 0.40499372379379045
2.814911770696143 0.445838225364658
2.7673097859643048 0.4879513792440742
2.7092910263155523 0.5266328272392636
2.6703429500032896 0.5675989159324829
2.6113117736244305 0.6028688256415582
2.561580717368631 0.6386738043831228
2.521066406614468 0.6755177077175791
2.499280409439629 0.7166571251241979
2.4194510325864798 0.7397004129485238
2.3776412907378837 0.7725424859373685
1.4844641636909275 0.511142002497736
1.428332783594581 0.5198706178550164
1.4097064440107747 0.5411356038134034
1.3907757818501811 0.561909890123868
1.3807572801786605 0.5860966927339106
1.3611827318874752 0.6060375981829422
1.3503986026846084 0.6297012099936422
1.330215188522767 0.6487892972478345
1.3097795905569007 0.6673660346171337
1.2891034855740333 0.6854284816674006
1.2681985753521239 0.7029739493571887
1.2470765814495917 0.7199999999999999
1.2343209130110417 0.741654827870478
1.212708777503689 0.7577845478534829
1.1992989121619564 0.7788338200714885
1.210394855930361 0.8164216390672903
1.499048241048855 1.0496448785224144
1.6423044985811432 1.1932040621537203
1.7170663466016796 1.2939022997769036
1.686343012718385 1.3175155571969088
1.6630923575179175 1.3467456368466524
1.6316746638434232 1.3691376086323286
1.5999843100722768 1.3908451414598755
1.4342695131713707 1.2914220702725963
1.411512644124999 1.316256834920622
1.532193774721327 1.479622329077664
5.696198637763778 5.898586362776938
5.5855665689118625 5.989786816261006
5.4801796660790485 6.086356120659858
6.554029699615169 7.539548706425491
4.841841021283592 7.45578134903482
4.700383873748527 7.522186612907499
3.172634541445935 5.280150572325011
2.7550000000000003 4.771799974852256
2.370719043004588 4.276890367911645
2.0328118668629074 3.8231630770791534
1.9703187688696333 3.866968314977516
1.9112982000003778 3.9187420418643684
1.8510679864242634 3.969628107220527
1.7855738631027636 4.010464559051018
1.723124276637697 4.059426403725262
1.659507208832491 4.107424475730867
1.5983210549720386 4.16376870217752
0.7729655239160115 2.1237053229761527
0.7097385767166018 2.0612304948065105
0.6458455182436401 1.9877081190568708
0.6052094287760651 1.979550844843483
0.5815948207738681 2.028262178429853
0.5823428514806717 2.173333109150404
0.5467434840552489 2.1928683413837518
0.5106388933605739 2.211820047062484
0.47611777197266864 2.239958005680415
0.3930665304756825 2.022151997902188
0.34555987355719153 1.9597674284942939
0.30035417287724336 1.8963616139426644
0.2588619677857218 1.841898607859321
0.21814612469521402 1.7766576114379664
0.18292481071839356 1.7404133168944782
0.1490363200984958 1.703492933736885
0.11509818167780662 1.6459806829287098
0.08478424911356923 1.6177798463024098
0.053745224921851666 1.5390618736094075
0.02740027810653525 1.5697608813955344
