# .PCD v0.7 - Point Cloud Data file format
VERSION 0.7
FIELDS x y
SIZE 4 4
TYPE F F
COUNT 1 1
WIDTH 179
HEIGHT 1
VIEWPOINT 0 0 0 1 0 0 0
POINTS 179
DATA ascii
2.596251214192389e-16 -4.24
0.07260201077909977 -4.159366411850588
0.1420409515791794 -4.06752066596772
0.20882046540934643 -3.9845318436707498
0.2734453770769709 -3.910451077018511
0.33642116700596125 -3.8453115346341376
0.3961628757844066 -3.769237983445756
0.45457265090120014 -3.7021971456221308
0.5093735495138396 -3.6243811315941477
0.5788075206488544 -3.6544468602020097
0.6563901115809969 -3.722573306386146
1.181107681380813 -6.07627226554104
1.607157370021279 -7.5610809536723185
1.8119949980415109 -7.267514989807214
1.9152609337586535 -7.1478511145391055
1.8054246806013445 -6.296264108395989
2.116771142192614 -6.923646433172377
1.9282660448996722 -5.934592661681759
2.3017668520120984 -6.68481632948717
2.397561204712938 -6.587245271709217
1.1181080025813366 -2.9127709306712695
1.1575343736551686 -2.864998110611373
1.1917299418922849 -2.8075398030299428
1.2324120285196751 -2.7680427366570806
1.2678547852220983 -2.7189233611099497
1.319497151835123 -2.7053700793604927
1.4119104541899907 -2.771030290225824
1.530477294682004 -2.8784091527201014
1.6532008050400095 -2.9824532013453395
1.7900000000000005 -3.10037094554829
1.9468439231600054 -3.240092396653984
2.114377864290488 -3.3837119036641403
2.3092695084637156 -3.5559632080885977
2.5163680656183605 -3.730669076497688
2.8219960668471464 -4.03022805790184
3.097628279581333 -4.263519560355973
3.4122911812721135 -4.528263341968151
3.7801614584995415 -4.8383860271452725
3.908079628419491 -4.826076420647788
3.9852831800565442 -4.7494755473376635
4.061005389451241 -4.671652301578958
4.1285358412341555 -4.585203573195522
4.201109897984991 -4.50513880197409
4.272148978322834 -4.423939772082704
4.341635636485402 -4.341635636485401
4.409552976075932 -4.258255810913653
4.483198190925515 -4.180649947183116
4.548046331921653 -4.095079310916213
4.618822630963365 -4.015081257421905
4.688191991888146 -3.93386017128162
4.7639047437312305 -3.857733997135504
4.830505919609205 -3.7740048437462854
4.895635676589905 -3.6891260919220557
3.4625927359247752 -2.515720879811785
2.9243727981117007 -2.0476678777732342
2.818727746687142 -1.901255871800539
2.8430932253349877 -1.8463263287009415
2.883363526931848 -1.8017254983928965
2.922940495394203 -1.7562798354432847
2.96180688094278 -1.7099999999999997
2.9999455954881276 -1.6628969974449361
3.037339719434709 -1.6149821759834644
3.082882573691753 -1.5708071290988317
3.11881534065811 -1.5211478793580986
3.1630141767579083 -1.474937733475041
3.206544556325529 -1.4276456171960585
3.1849467929454436 -1.351929704572887
3.0504348815247306 -1.2324556923383505
2.9221067349362415 -1.1216916820767897
2.8096809361498662 -1.0226402285437495
2.704183126214046 -0.9311249217474681
2.605894854648721 -0.8467065645873559
2.5150815081827833 -0.7689375834207975
2.499280409439629 -0.7166571251241979
2.559703439666031 -0.68587046952168
2.5809866318941506 -0.6435122422951162
2.621055474272283 -0.6051183361849968
2.6703429500032896 -0.5675989159324829
6.115537352878947 -1.1887400411958742
6.184592688916666 -1.0905105557483226
6.2619440793731735 -0.9917945083550637
6.416937085445376 -0.9018416942212241
6.4416245241521795 -0.7909320386994071
6.524063633615873 -0.6857067190358066
6.594808901367355 -0.576971016989497
7.511657298456477 -0.5252662472932635
7.609557054829852 -0.39879998657123195
7.725291092857611 -0.2697731095103325
7.8488044069776715 -0.13700139053267557
7.95 0.0
8.078769376863642 0.14101544401325078
8.195004781556584 0.28617587296050795
6.3412975456915435 0.3323333221426933
8.100220088109772 0.5664225668022974
7.90978590284846 0.6920165974164059
7.806996878640945 0.8205484366510796
7.67238175218742 0.9420500245217901
7.5359400031233506 1.059107298306098
6.419974213868396 1.0168240227615006
6.312617696808253 1.1130848188450235
6.194067527554759 1.2040047608259976
6.09385955257161 1.2952898337946406
4.131329074689398 0.9537924704179875
4.0752420503591855 1.0160719615186045
4.008592179099634 1.074099037175461
3.970010804225257 1.1383822795242065
3.9017234043291853 1.192876555268766
3.8422683258324204 1.2484286572747876
3.79152948815326 1.3055282993731983
3.5238473279471565 1.2825755374712577
3.4729191865695905 1.333128772308517
3.4120365848057777 1.3785522637705563
3.3874578607049806 1.4378905528405272
3.489743648194735 1.5537339765495566
3.579915758794767 1.6693421338757628
3.505296780566751 1.7096474724774018
3.4571053138508674 1.7614831389894414
3.3905187565782797 1.8027708010978207
3.3410472812724916 1.8519727493410074
3.290896534380867 1.8999999999999997
3.2315207236469634 1.941693542410904
3.1801803605865975 1.9871972408745184
3.1282412184364317 2.0315036006060505
3.0840197699047556 2.0801976009111782
3.1127777682981685 2.179590458133975
3.2846089971622865 2.3864081243074406
3.5060098891076152 2.6419679516374917
3.7666914022401308 2.9428618520566467
4.134416514951085 3.3479844803851355
4.496680881108401 3.7731632688599857
4.415051044303216 3.8379453195944673
4.339965780787982 3.907722741135732
4.263792080439764 3.976050439164366
4.18655763797095 4.042911716071364
4.108290398693841 4.108290398693841
4.029018548662185 4.172170841964176
3.948770504761866 4.234537932374997
3.8742662108177894 4.302808539514113
3.7985817778550377 4.369768469489849
3.721740260085063 4.435397325658883
3.637471860268061 4.491903657221291
3.5646799421355615 4.56258226338292
3.49052713428188 4.632085958274298
3.4150323158192686 4.700388737318445
3.3324790951995773 4.759273377319042
3.2545026981997465 4.824998672270343
3.180691964487759 4.897836116801276
2.8456664489323105 4.554018276360008
2.5082354248119647 4.174404754419287
2.1550000000000002 3.73256949031093
1.9149979999730318 3.454747843200613
1.7041817729127837 3.2050997620779045
1.5254080791248774 2.9937819212729155
1.380869112385594 2.831201245842376
1.2382715069002495 2.6554818160173843
1.1225931348892089 2.521385463093578
1.0237155566418972 2.411722716045394
0.951500747276417 2.35504699059964
0.9174219508359684 2.3899658918328366
0.8789917683469688 2.415010035419784
0.8399658384994645 2.4394379250462372
0.8065343553186128 2.482257507530351
0.7689375834207977 2.5150815081827833
1.7502972094379445 6.1040117692083244
1.6564418886561327 6.181925288250038
1.5628154455738532 6.268110391742937
1.4666808743220006 6.352892822399733
1.3680589255808557 6.436211212828441
1.2650636393464927 6.508188226258012
0.2500533758403798 1.4181231643375796
0.22057259570672558 1.3926405602391443
0.1906671483152897 1.3566672541759515
0.16208622672884618 1.3200863816829582
0.1358870022479495 1.2928784639787554
0.11068779328952612 1.2651672665765168
0.08580046270527404 1.2270037818195838
0.0633265070539622 1.2083417370530343
0.041181406108951275 1.179281175882533
0.020593839595994645 1.1798202802845417
