# .PCD v0.7 - Point Cloud Data file format
VERSION 0.7
FIELDS x y
SIZE 4 4
TYPE F F
COUNT 1 1
WIDTH 172
HEIGHT 1
VIEWPOINT 0 0 0 1 0 0 0
POINTS 172
DATA ascii
8.817456953860943e-17 -1.44
0.02513146526968838 -1.4397806810252034
0.05060427021862657 -1.4491166991776887
0.07641049611469819 -1.4579991207416778
0.10114688692898159 -1.446467872876745
0.1272473844115812 -1.4544442592139484
0.15261155637077403 -1.452001967237679
0.17914793480556682 -1.4590428429127433
0.20458445841129624 -1.4556940610501083
0.23152300825954175 -1.4617787440808039
0.25699930294705703 -1.4575154744580678
0.2843054031110519 -1.4626245033370193
0.3118675362266389 -1.4672214011007085
0.3396760920592364 -1.4712987978257053
0.3677212813114949 -1.4748495039395146
0.39599313900685673 -1.4778665142222744
0.4272379015163487 -1.4899556287043942
0.45902357641469677 -1.5013984668619658
0.488246851112417 -1.5026692957463426
0.5176533655868792 -1.5033745352029138
0.5506524307543268 -1.5129051194653125
0.5805560782633863 -1.512400290925467
0.614354813202096 -1.520581521489531
0.6486136732921943 -1.528038056731051
0.6792501939365866 -1.5256209142631434
0.718451044959189 -1.5407232379623048
0.7539983724772132 -1.5459257596345672
0.794483374544207 -1.5592614173296435
0.8309646661310268 -1.5628172393603006
0.8775054126458702 -1.5830616699223063
0.9150000000000003 -1.5848264889255228
0.9528204385836007 -1.5857595062989076
0.9962482167584251 -1.594330420774081
1.0457069472288523 -1.610247490455214
1.0904261617679563 -1.6166232664823315
1.1299455796115607 -1.6137295272493137
1.1814483571078709 -1.6261241586936441
1.2337207974616988 -1.6372027955969501
1.2867324834306257 -1.6469424750380486
1.3404524329361538 -1.6553208979033478
1.4012769891166559 -1.6699768859993722
1.4630116346488315 -1.6830023638967813
1.5189264764346082 -1.6869387538336849
1.5890561789456215 -1.7040541247726673
1.6532869216924138 -1.7120287248059896
1.725340546095176 -1.7253405460951758
1.8055428988500144 -1.743592509852083
1.8868925501774598 -1.7595557689612462
1.9693337875150947 -1.7731961068509743
2.0679042498103954 -1.79760173943399
3.0718382169071017 -2.5775783148430222
3.0852694669841743 -2.498401952467855
3.096882261674417 -2.419549598029837
3.106692134083969 -2.341060440061468
3.122805598287297 -2.2688510738489462
3.1373523296268386 -2.1967977512245063
3.1586331514347092 -2.130524962223545
3.1701747468337027 -2.058735552356802
3.1801803605865975 -1.9871972408745184
3.197234031618879 -1.921092019414502
3.2042939940024233 -1.8499999999999999
3.2186005222729763 -1.7840994025065204
3.2315881898636727 -1.7182659197963603
3.2432637480456594 -1.6525254190519503
3.253634447602985 -1.5869035513764602
3.2717711112023062 -1.5256519248839249
3.2704927383605114 -1.4561171822113645
3.286202326825212 -1.3949101287067072
3.3007745222577634 -1.3335994725606468
3.323546318330038 -1.275789900381269
3.561435032778593 -1.2962563432042844
4.491213234096755 -1.5464487336714943
4.508007887239028 -1.4647405533372506
5.087541301723349 -1.5554174691249594
5.921372046980045 -1.697926111832715
7.1092140814875435 -1.9049081719545526
8.839394066374327 -2.203908468912973
4.721962868954874 -0.41311822062389975
3.820670312495127 -0.2671672944399999
3.475230780945917 -0.1821291277254445
3.2080445547312975 -0.11202738441502812
2.969547654614482 -0.051833647118732035
2.78 0.0
2.629599438261309 0.04589982893005563
2.50847097581793 0.08759773672327742
2.396710883410977 0.1256062949830652
2.2943973155975956 0.1604398896114882
2.2015902827827576 0.19261419147232453
2.1083864181807397 0.22160034212742535
2.024794149348297 0.24861346054650085
1.9409254147334778 0.27277927788172823
1.8864847305367132 0.29878982822684097
1.831742420602707 0.32298561046049046
1.7767452020402719 0.3453642816315461
1.721539777291498 0.3659245758392564
1.6564291101348998 0.38241679238457044
1.620393862880914 0.4040095656514451
1.5647998385882909 0.4192868530660836
1.518793479582544 0.4355070221908587
1.4727093241830749 0.45025242527301457
1.436095339605682 0.46661566150617056
1.399367491886989 0.4818408685965919
1.3625543001395672 0.4959292078222196
1.3256842056260265 0.5088824883543264
1.2980573963935023 0.5244492307822768
1.2702966977643677 0.5392089573151977
1.2515572769703633 0.5572292010138462
1.214452434629111 0.5663084707325373
1.1774202006519088 0.5742662022936914
1.140488350961111 0.5811078396666198
1.1213434429308373 0.5962288847380813
1.1020208309956387 0.6108601215103847
1.0652112466548596 0.6149999999999999
1.0543157798635983 0.6334968321393666
1.0261381963492753 0.641202309722178
0.9980179758550546 0.648120451667882
0.9782643356149492 0.6598476260954812
0.9502163713752304 0.6653486661672133
0.9303695435311895 0.675953040136344
0.9104444814539138 0.686069126393335
0.8825720440395286 0.6895408523647374
0.8704034768318074 0.704838837975818
0.8503093318620657 0.7134942467520586
0.8301805382450493 0.721664931889558
0.8100278597703597 0.7293523609311555
0.7898619977487041 0.7365582288674984
0.7625001883589703 0.7363378726865372
0.7495331880577405 0.7495331880577404
0.7293912889819473 0.7553067903555837
0.7092782944649985 0.7606078496839374
0.6958958306132126 0.7728706184964901
0.6757407998602226 0.777350867629455
0.6556433618802702 0.7813653319813576
0.6419067988708342 0.7926888806861102
0.6279747048321714 0.8037709686788563
0.6078331733835688 0.8066218651477658
0.5936631048153979 0.8171071643186969
0.573576436351046 0.8191520442889918
0.5591929034707468 0.8290375725550417
0.5391926446648769 0.8302838622659697
0.5193208789485408 0.8310871342332975
0.5047373134118532 0.84002395468807
0.4900000000000001 0.8487048957087499
0.47511342784141036 0.8571273129966078
0.45538741590231413 0.856459165073159
0.4449106897447559 0.8731863937046004
0.4296037238532959 0.8808181653731837
0.4141658965058854 0.8881816312959169
0.4026692766450424 0.9044100030661748
0.38682381720438097 0.911299804917916
0.3671144615475939 0.9086401774754516
0.34761691105894116 0.9055730137022857
0.3317595390258988 0.911501842162331
0.3190567913680136 0.9266082040873304
0.3028366544874485 0.9320353859692504
0.2894479876755094 0.9467417084034051
0.2701246087006592 0.9420364620195525
0.2536426642004703 0.9466073097632869
0.239502676643671 0.9605927690132365
0.22270154380042648 0.9646263641373829
0.20791169081775923 0.9781476007338057
0.19271708533031037 0.9914434552821406
0.1753846594435997 0.9946558305423301
0.15956315434103555 1.0074421074070405
0.1419565629792668 1.0100734301164018
0.1267441171413534 1.032247997706975
0.10766431716568306 1.0243575522293216
0.0906419724575647 1.0360424860154154
0.0732442974313315 1.0474422527728156
0.055476113617520605 1.0585473068398483
0.03734246147167616 1.0693481849104325
0.018848598952266288 1.0798355107689026
