# .PCD v0.7 - Point Cloud Data file format
VERSION 0.7
FIELDS x y
SIZE 4 4
TYPE F F
COUNT 1 1
WIDTH 167
HEIGHT 1
VIEWPOINT 0 0 0 1 0 0 0
POINTS 167
DATA ascii
3.061616997868383e-17 -0.5
0.0087262032186418 -0.49992384757819563
0.01779874331827555 -0.5096893217797388
0.026691337683901424 -0.5093010627248327
0.03557580160950387 -0.5087576656325103
0.044449428801305764 -0.5080592960267902
0.053309516266503265 -0.5072061666378194
0.06215336513662522 -0.5061985373370742
0.06958655048003273 -0.4951340343707852
0.07978157717051777 -0.5037210537035203
0.08682408883346521 -0.492403876506104
0.09731258764203791 -0.5006298635583086
0.10395584540887962 -0.48907380036690284
0.11247552717193257 -0.4871850323926176
0.12338016675583052 -0.49485082040075823
0.13199771300228558 -0.49262217140742487
0.14057505146666957 -0.49024346492854265
0.15203328645582312 -0.49727847310077844
0.16068883707497267 -0.49454938847347985
0.1692954403177215 -0.49166965931164475
0.1778504745293478 -0.48864016280867234
0.1899350132590091 -0.49479762604351696
0.19854149451043346 -0.4914074429203973
0.20318018681442235 -0.478662523795269
0.21557042083017422 -0.4841790925505785
0.22398767872257072 -0.4803431271294245
0.23672041926610185 -0.4853487850015502
0.24515486985935533 -0.48114352306171865
0.25820935953224 -0.48562117607240984
0.2666452911354854 -0.4810408389266677
0.2800000000000001 -0.48497422611928565
0.2884213219496305 -0.48001368839318287
0.30205398061292676 -0.4833874148091628
0.31044424995856545 -0.4780422237288916
0.32433188401303314 -0.4808417920819242
0.33841009744711714 -0.48329970613050516
0.3467932988525591 -0.477320026681219
0.36108901389122894 -0.47918130602837566
0.37555349994865156 -0.4806865597001003
0.3901786424508992 -0.4818304961033219
0.4049561941025198 -0.48260799916495617
0.41331718826401964 -0.4754670355403463
0.4282435880696693 -0.4756126883055323
0.44329893404062404 -0.47537990605246083
0.4584745245029383 -0.47476426822350976
0.4737615433949869 -0.47376154339498683
0.4891510642302829 -0.4723676919121182
0.5046340541172276 -0.4705788684431239
0.5276328260889499 -0.47508273051478933
0.5433908977603958 -0.4723625008731652
0.559212443476854 -0.46923495507117363
0.5828594710927281 -0.4719902932873781
0.5988881727411086 -0.4679027212475003
0.6229356978368884 -0.46941571805859766
0.6391234255562085 -0.4643503493110538
0.6553216354311935 -0.45886114908083686
0.6881011852206846 -0.46413010988071984
0.7128699827536105 -0.46294317976277294
0.7462823246176549 -0.46632895252522033
0.7714505706319011 -0.46353426741904874
0.7967433714816836 -0.45999999999999996
0.8308887217824259 -0.4605691392340202
0.8652886410017484 -0.46008213153017297
0.8999165894302515 -0.45853040473694223
0.925757867688142 -0.45152228119274973
0.960686254258849 -0.44797535744514144
1.014035457983287 -0.4514776738141382
1.049375532935782 -0.445433486477772
1.103348786934477 -0.44578184616493527
1.15763972885653 -0.4443762574361723
1.221600407021681 -0.44462618632336937
1.285905262815071 -0.44277269006173314
1.3790319486279725 -0.44807464184367374
1.4631462766234444 -0.4473287082257872
1.5956944152576094 -0.4575580106562186
1.738666487320323 -0.46587428118453733
1.921185538026473 -0.4790053532873421
2.1436141425275177 -0.494892319556503
2.4160245738125004 -0.5135418763198656
2.8761676475016555 -0.5590703564532763
5.948238828193737 -1.0488349931082592
5.975514460600583 -0.9464285134933967
6.010927177261332 -0.8447807228275972
5.459003834027271 -0.6702813887283111
6.0765287807001505 -0.6386689105653627
6.1166354462833175 -0.5351362604706211
6.1948727521135085 -0.43318770195101813
8.764789001808651 1.54546878123568
8.667768029842874 1.6848434291748906
7.277418149459515 1.5468629796841293
6.606229039243895 1.5251681484514046
6.044942374699459 1.5071734095859302
5.583051275950815 1.4959740806925699
5.200425775026305 1.4911980949699655
4.8389020651729595 1.4794008258970477
4.536539582727882 1.4740110631684988
4.245378404440933 1.4618010135126336
4.0030905645479695 1.4570058105673487
3.771664923048695 1.4478065161630131
3.5789296786277993 1.4459814505854203
3.396662909239505 1.4417978641254199
1.4342663684988834 0.6385765296290062
1.377587836295708 0.6423797578458632
1.3032513671337922 0.6356381628441622
1.220678938138064 0.6219669846431791
1.1654908225737837 0.6197024628773758
1.1632442104953964 0.6447967949276283
1.160474041071148 0.6699999999999999
1.1486041829408307 0.6901510203794726
1.144864929811175 0.7153910067148267
1.1573653837646851 0.7516018683207372
1.1606526015770584 0.7828700648590454
1.105855259790139 0.7743281890739122
1.0921729424061792 0.7935100905948388
1.0861442936643184 0.8184684314867857
1.079574732441209 0.8434562211961519
1.0646899671960501 0.8621689357382775
1.0571413315041895 0.8870469013674241
1.049046316509653 0.9119220502968051
1.0478342039231259 0.9434741549659901
1.038522256299222 0.9684376712887478
1.028655914484271 0.9933614697563661
1.0111626970967629 1.0111626970967629
1.0072546371655462 1.043042710491044
0.9957176056912478 1.0677764043639888
0.9903132974111102 1.0998543417065434
0.9840885434857611 1.1320643703341577
0.9770371667235398 1.1643875535408466
0.9628601983062514 1.1890333210291653
0.9542752867547704 1.221416668090419
0.9448495863487159 1.2538577507742499
0.9345785511450323 1.2863370210561664
0.9291938268886947 1.3270263117481669
0.9170763616920247 1.3596216189902683
0.9041007981249451 1.3921931427894036
0.8955635565541162 1.43320128250436
0.880715108096193 1.4657560842006119
0.8700000000000002 1.5068842025849232
0.8581130278360167 1.5480768816367305
0.8450488130146036 1.5893056671460684
0.8353425195207662 1.6394520045065968
1.2537414798167614 2.5705509724156177
1.2467238721350635 2.6736079717581176
1.2446141278119491 2.795449100386359
1.2386176773109976 2.918000385444236
0.24724035165450206 0.6119413440140796
0.2293554877089921 0.5974914729582091
0.21547269029517135 0.5920063510951222
0.20185225576343718 0.5862215168715764
0.20086104634371585 0.6181867355918498
0.18711789102255152 0.6120350438163427
0.17640790772287948 0.6152074854005241
0.16305599841458807 0.608533270562113
0.14999157527179396 0.6015833502911178
0.1394696536931964 0.6041094401668459
0.12890524830701072 0.6064515124549595
0.11639348717969239 0.598792581903075
0.10766187015349686 0.610580806867569
0.09698936832494318 0.6123667711689854
0.08628732259524059 0.6139662026197736
0.07434029947713997 0.6054531525012063
0.0637623625932686 0.6066583561746467
0.05403656050354818 0.6176407128168823
0.04255144898391639 0.6085140706584927
0.03192493330819582 0.60916401620029
0.02128869298852566 0.6096284044816485
0.010645967926742994 0.6099070940453987
