# .PCD v0.7 - Point Cloud Data file format
VERSION 0.7
FIELDS x y
SIZE 4 4
TYPE F F
COUNT 1 1
WIDTH 167
HEIGHT 1
VIEWPOINT 0 0 0 1 0 0 0
POINTS 167
DATA ascii
2.8962896799834905e-16 -4.73
0.08237535838397858 -4.719281121138167
0.1643766294687801 -4.707130795259941
0.24650235390426609 -4.703545108694042
0.3278554265973886 -4.688551036221174
0.4096319909139943 -4.682115081031204
0.49128377735797124 -4.674252908230884
0.5727859140041932 -4.664966912714213
0.6541135745123077 -4.654259923085381
0.7352419856890854 -4.6421352007971475
0.8178829168112423 -4.6384445166875
0.9006184581772919 -4.633280305872974
0.9813431806598235 -4.616856675463563
1.0662679975899207 -4.6185141070820155
1.1491290040984214 -4.608904699810983
1.2319786546879987 -4.597806933135965
1.314790187247086 -4.5852182896257805
1.397536748574682 -4.57113673350331
1.4801914030559984 -4.555560713053786
1.5659828229389239 -4.547944348632713
1.6519572922629804 -4.538715358395938
1.7380845552947057 -4.527865068511428
1.8280801758696514 -4.524657210285922
1.9106752183125484 -4.5012687333824335
1.9970769175021799 -4.485508197025171
2.0877342129990555 -4.477160467961051
2.1918557339453875 -4.493970231495835
3.3368301730856693 -6.548897952784503
3.436531839592721 -6.463176379727345
3.524565939190871 -6.358485270903406
3.630000000000001 -6.287344431475024
3.7185749008505926 -6.18874791106925
3.8207178951214074 -6.114426773287832
3.785241293354439 -5.828760447220697
4.009413117885255 -5.944199395219649
3.7167753075547787 -5.3081052469926675
4.396633687147699 -6.051447117924607
4.6339756782707715 -6.149493427364155
4.722123515747799 -6.044042480163557
4.7324893406947774 -5.84413763015642
4.049561941025198 -4.826079991649562
4.572731432063836 -5.26032577415272
4.724062080893539 -5.246602467870403
6.54939682318483 -4.4176239374189
6.482923490218128 -4.210059740666159
4.918678957707271 -3.0735317325525884
4.954426998058209 -2.9769200729801133
1.879275126212232 -1.0849999999999997
1.9241633557066709 -1.0665811645419416
1.7305772820034968 -0.9201642630603459
1.7374627221673173 -0.8852814744921161
1.743660449820384 -0.8504400247708102
1.7401109511103678 -0.8114270625421429
1.7357363695209416 -0.7727996218440203
1.7305491244905877 -0.7345745215598345
1.7245619694942247 -0.6967682637535964
1.7271237890198232 -0.6629807066588055
1.7384313484539307 -0.6327372651524872
1.8059404793946952 -0.6218351750131693
1.902113032590307 -0.6180339887498948
1.9986769399627442 -0.6110568628705197
1.9898117105923199 -0.5705693265411882
1.9898072021554807 -0.5331672329111927
1.9891062388657925 -0.4959398859793188
1.9779712315140274 -0.45665064031804586
1.9758581534822874 -0.41998161545187385
1.9730706387298045 -0.383526080706855
1.9597674284942939 -0.34555987355719137
1.9556229143783728 -0.3097402407796571
1.8617039692341522 -0.261645429804923
1.846135842052859 -0.2266769787335743
1.8398655064313056 -0.1933776570451589
1.8230362975078944 -0.15949500922821444
1.8355178524780766 -0.12835191168919055
1.8175057532533245 -0.09525144036215777
1.8088973969045634 -0.06316808903152675
1.8097243282330682 -0.03158885565148316
1.83 0.0
1.8297212821361961 0.03193790378022883
1.8288852134449454 0.06386607896557678
1.8175057532533245 0.09525144036215777
2.2046165510742113 0.15416180697451692
1.4544442592139484 0.12724738441158093
1.3227141208398034 0.13902285614597912
1.3200863816829582 0.16208622672884615
1.5844289099865128 0.22267696153610472
1.8963616139426644 0.30035417287724325
1.8908308857834393 0.33340450112050624
1.933805551391898 0.37589372089179324
2.5334022859005567 0.5384912792179966
2.5333621684416117 0.584872741294049
2.5227688883175907 0.6289969285591361
2.4920886318257964 0.6677531363645035
2.4896677924802457 0.7139007515660278
2.5055184606231533 0.7660138663735703
2.4917680726933025 0.8096245252623622
2.4961690395821967 0.8594999277668938
2.4901854450826573 0.9063533798130221
2.4739881302175846 0.9496750662950457
2.4663090531476546 0.996453538486326
2.4577479587180155 1.0432521130663608
2.4574372810585965 1.0941215698739024
2.4560941028693213 1.1452954893172955
2.4357318654707427 1.1879858077983998
2.4324478110342445 1.2393940642889627
2.4369353562906384 1.2957415132890586
2.43144278584752 1.347770744284817
2.4248711305964283 1.3999999999999997
2.400068441965914 1.4421066097481516
2.4084565930842494 1.5049707104223018
2.3818244129650044 1.5467748594426765
2.3793378332329698 1.6048836329610434
2.3837324488809664 1.669107429781544
2.370419793518596 1.7222107892169465
2.37194746484046 1.7873906187615836
2.3719123683562326 1.8531410407302313
2.362523722829191 1.913133988791506
2.3594168848064525 1.979785837834541
2.354693890295049 2.0469041704503828
2.348337648508566 2.114452716093992
2.2964506230841955 2.141474850596245
2.2011797890362725 2.1256546136045316
1.499066376115481 1.4990663761154808
1.4379428268501244 1.4890333867010077
0.5933385732543737 0.6362777204086782
0.5419957911506752 0.6019473086366893
0.531407813482311 0.6113147599804453
0.5078022116523662 0.6051751100639926
0.4908699050188733 0.6061738499364372
0.48021595075401347 0.6146483878132432
0.4633975678270772 0.6149493427364154
0.45259464426520435 0.6229430856687096
0.4416538559903055 0.6307470741025237
0.43057853567247506 0.6383589308673822
0.41392566661142066 0.6373896316385222
0.3974394481749037 0.6360360721173195
0.3862785561825408 0.6428754755265842
0.37000000000000005 0.6408587988004846
0.35875911898228946 0.6472185832831528
0.3380195252058414 0.6357222668584274
0.3268731598124737 0.6415246974156248
0.3156272256881358 0.6471317133354002
0.3085113310707106 0.6616046845367545
0.3050524823068503 0.6851590932319507
0.2930483463669553 0.6903786400893303
0.28095494506193414 0.6953878909250905
0.2651922826635221 0.6908495156079293
0.25309490606099494 0.6953725393815722
0.240920434298296 0.6996837459434944
0.22867257583746112 0.7037818220584136
0.2163550614948252 0.7076655194126462
0.20397164330457937 0.711333654994356
0.21740799788611742 0.8113776940828173
0.4814245722433387 1.930888495289233
0.44540308760085295 1.9292527282747658
0.40958603091098567 1.9269507734455973
0.37589372089179346 1.933805551391898
0.3403504282271836 1.9302231959039278
0.3066115514788526 1.93586914756647
0.269995815862527 1.9211200533586466
0.23642652620598612 1.9255395341841646
0.20173993410657118 1.9194272580607674
0.16821058350298063 1.9226557673170688
0.13393242958872045 1.9153229764988624
0.1004850359864524 1.9173687067287817
0.06944999843797715 1.9887877457680005
0.034555764745821525 1.9796984364096546
