# .PCD v0.7 - Point Cloud Data file format
VERSION 0.7
FIELDS x y
SIZE 4 4
TYPE F F
COUNT 1 1
WIDTH 175
HEIGHT 1
VIEWPOINT 0 0 0 1 0 0 0
POINTS 175
DATA ascii
1.5491782009214017e-16 -2.53
0.04432911235070034 -2.539613145697234
0.08969170652542777 -2.568434425439076
0.13502676710679543 -2.5764641996668005
0.1799717022598431 -2.5737152496703466
0.2274764885713883 -2.600068162019456
0.27490985839392856 -2.615592584818559
0.32417245345769236 -2.6401727633659164
0.3743756415825761 -2.6638211049148244
0.4239374002590258 -2.676635403012823
0.47579600680738937 -2.6983732432534504
0.526632827239264 -2.7092910263155523
0.5800736173815483 -2.7290318060473178
0.6343619732496997 -2.747723582694363
0.6918966214150495 -2.7750457771493497
0.7531634212483354 -2.810844154501189
0.8103738261019775 -2.8261093860586577
0.8712676800737555 -2.8497881727698458
0.9363214929560907 -2.881701244374315
0.9994942341834712 -2.9027420270899023
1.05342204144306 -2.8942532720205976
1.0786875281313535 -2.810077083756577
1.1125815824452592 -2.7537360480633586
1.3792808835671362 -3.2493821326871144
4.494185179683545 -8.107724685182198
4.730000000000001 -8.192600319800789
4.346921352240859 -7.2344920179258265
4.297645232931291 -6.877670059828615
4.259077253817513 -6.558403841333216
4.020596975954669 -5.96078014667075
4.169900692272105 -5.95523536198097
4.279076636689204 -5.889643719049618
4.48352192248276 -5.949834549852332
5.0299542534106285 -6.438047856966918
4.461881572543348 -5.509964866729923
5.322281408204545 -6.342847989025137
5.478092892070737 -6.301824994860145
5.627388399477998 -6.249847982264885
5.790166076930612 -6.209192926746757
5.939329067424428 -6.150355292895467
6.109402589451771 -6.10940258945177
6.265449660949653 -6.050474406697867
6.428599037232508 -5.994765584949361
6.599126050239262 -5.9418797844666615
6.7621978387960375 -5.878288899754946
6.817795543758905 -5.7208097262102
6.885513218508761 -5.57577866470156
5.12995000597976 -4.007956204370036
5.183144460206931 -3.905779500256793
4.093625991537234 -2.974193376599914
4.095760221444959 -2.8678821817552302
4.103735984147456 -2.768004872180197
4.109485782932578 -2.668731271573632
4.121513747320231 -2.575407624173376
4.131546389384182 -2.4824835210664613
4.130941176051772 -2.3849999999999993
4.145697411840736 -2.297997599967638
4.149853686436957 -2.2065163450936867
4.1520904027177945 -2.115595728786288
4.161416434365143 -2.0296584096334285
4.169015820368589 -1.9440440040072173
4.184038196003112 -1.8628538252871647
4.188297083208604 -1.7778266346261953
4.190871022641879 -1.6932218022399221
4.201111919237408 -1.6126557729538513
4.20982294112087 -1.532250242098996
4.20755766141696 -1.4487782873343473
4.222690932350482 -1.3720354550247666
4.236430068916247 -1.2952066519217236
4.248776696047369 -1.2183171127111363
4.259732893934792 -1.1413919889021165
4.259598238351624 -1.0620371216825413
4.2677408837593305 -0.9852856180261286
4.2745050152067305 -0.9085740888736082
4.289710791666292 -0.8338353097955008
4.293761803133227 -0.7571060546278163
4.296444281588849 -0.6804899229250042
4.30766609902583 -0.6054029891762847
4.31757575963975 -0.5301316438123915
4.346060682759354 -0.4567893844796456
4.3533708306609284 -0.3808705958072662
4.36933054013803 -0.3055333549992688
4.383983657572579 -0.2297548479065234
4.397319638884022 -0.15355778549100427
4.409328335639685 -0.07696511238842028
4.43 0.0
2.179667975440933 0.03804624603327806
2.108714645010292 0.07363793804227704
2.0272179555517846 0.10624199117317595
1.935274257504059 0.13532755906360308
2.1617424948590878 0.18912796176241822
2.168057731902836 0.22787204992348456
2.074421456930363 0.2547069277167582
1.9607307761083093 0.27556273990092955
2.1729143493093033 0.34415582308850795
2.186273211687102 0.38549895442058535
2.257742521929627 0.438860689366053
2.259520957695091 0.480276005789024
2.2800259515974504 0.526385467164644
2.2898979140113513 0.5709356736152158
2.318221983093764 0.6211657082460498
2.335865921130115 0.669798774635308
2.3525096996690675 0.7192343936179323
2.3681307255749324 0.7694523159936191
2.373251624754285 0.8171760676874632
2.3116438471333347 0.841369552581145
2.2592646321232284 0.8672504378996266
2.188153896777618 0.8840715604615523
2.1355712600096615 0.9064962180951149
2.092019098001556 0.9314269126435823
2.0391925208324624 0.9508910889165737
1.986334842321159 0.9688002344038611
1.9334841574887582 0.9851593844348164
1.8895078487181038 1.0046691443618063
1.8367013849927312 1.0181002025173078
1.853294364098699 1.0699999999999998
1.8857680615446473 1.1330837648021193
1.8996277353903943 1.1870191518823792
1.920555600595021 1.2472233901844119
1.9399479197787974 1.3085113941215474
2.113412274265599 1.479827205785699
2.888190669918562 2.098393350684129
2.9309923218735645 2.208661134968017
2.9786806486334085 2.327200376730988
2.92206881507821 2.3662446703473887
2.857345772833788 2.3975977841307916
2.777331255219801 2.414297226685067
2.705047164737715 2.4356354071462443
2.6401868628452054 2.4620140798256194
2.5752364852123715 2.4868769662432104
2.5102290732122436 2.510229073212243
2.4451974640156706 2.5320760971920517
2.3597143258162445 2.5304838076023297
2.3151918980016495 2.5712810961517842
2.2568430597273452 2.5962009559663355
2.1983336251279644 2.6198719954669047
2.1396893295694475 2.6422962689537006
2.0809357866007248 2.66347634719072
2.022098477790882 2.683415313758904
1.9632027426568601 2.7021167612123245
1.9100095330489835 2.7277763074823427
1.8565204395228794 2.7524047408827386
1.80275520589974 2.775999579899353
1.748733571969576 2.798558717316206
1.6893248857049783 2.811508746302928
1.6350000000000005 2.8319030703751142
1.5804793620030588 2.85126024527443
1.530477294682004 2.8784091527201014
1.4754691241535274 2.8957712036121954
1.4247062270645017 2.921080650472293
1.0523194717343416 2.2567063897212587
1.0168416076895008 2.283863644106502
0.9729205099382916 2.2920570850965767
0.9290243516714622 2.2994159593256325
0.8887525148723444 2.31527945771306
0.844789754014402 2.3210407733411937
0.7129942582611732 2.070685680562504
0.7694523159936192 2.3681307255749324
0.5613536730676546 1.836105131449028
0.5733257000993582 1.9994243275517034
0.6496358032073271 2.4244738239855614
0.5999663010871759 2.406333401164471
0.5623776358596628 2.435925161963088
0.5260165777689308 2.474713429856528
0.4846548482564241 2.4933330459570664
0.4428028530506725 2.5112597701811303
0.39734354120218657 2.5087283851116498
0.3562831384577676 2.53508625597842
0.31442290598528055 2.5607690712346107
0.2634117274344867 2.5061951763280486
0.21004534002185665 2.4008292224011067
0.16950823119822434 2.424080642131373
0.12717637367035384 2.4266697694536146
0.08899371659137775 2.548446608898694
0.043631016093209 2.499619237890978
