# .PCD v0.7 - Point Cloud Data file format
VERSION 0.7
FIELDS x y
SIZE 4 4
TYPE F F
COUNT 1 1
WIDTH 170
HEIGHT 1
VIEWPOINT 0 0 0 1 0 0 0
POINTS 170
DATA ascii
1.8737096026954504e-16 -3.06
0.05427698401995199 -3.109526331936377
0.11063140454692842 -3.1680689216505336
0.16904513866470902 -3.2255733972572735
0.23089392809305453 -3.301937006360018
0.2937148530596087 -3.3571761325691827
0.3595779136407279 -3.42115532006686
0.21205265752495664 -1.7270303038559003
0.499631432446635 -3.5550623667822374
0.5772431759984521 -3.6445699767960584
0.6581265933576663 -3.7324213839162685
0.7403389020609943 -3.808713471776936
0.8274885294546818 -3.8930274509205467
0.9155507911795312 -3.9656861636759078
0.9894605530026408 -3.9685095204688254
1.0585698944693098 -3.9506366295222892
1.1328695324078666 -3.950785570306491
1.2045714234576754 -3.939975594567706
1.2793303567122825 -3.9373739774619354
1.354363522541772 -3.933357274493158
1.4296441991012956 -3.9279151548850963
1.5015617085948079 -3.911701987023276
1.5770937582809903 -3.9034440277261746
1.6566999847945207 -3.9029405786383475
1.7326980995029095 -3.8917036495574795
1.8130323428676005 -3.888060406387228
1.8937633541288148 -3.8827902800124017
1.9249197188956788 -3.7778676625586796
2.051590729374343 -3.8584809807935105
1.8713651341508613 -3.3760320695580677
2.2200000000000006 -3.845152792802908
2.302220194847943 -3.8315378341384414
2.389935881691754 -3.8246969136654814
2.4835539996685236 -3.824337789831133
2.572287355965435 -3.8135728337531916
2.6671304290323645 -3.8090570059438122
2.7625906857746236 -3.8023798735622534
2.7081676041842173 -3.5938597952128175
2.6965972619263834 -3.4514871007974417
2.2403805921374214 -2.766639622786816
2.5518668104555613 -3.0411964391823427
2.053464760740288 -2.362240986097276
1.9605526766314547 -2.177414338648765
1.9505153097787455 -2.0916715866308273
1.9450434372851926 -2.014151440948223
1.8526197667087547 -1.8526197667087545
1.8487032868703335 -1.7852720120796228
1.8430113280803095 -1.7186358673574962
1.8652935119482594 -1.679517821960734
1.9245094295680685 -1.6729505239257934
1.984055107678153 -1.6648199090881366
2.0438938786318332 -1.6551126284610727
2.111868819666015 -1.6499727538727644
2.1802749424291092 -1.6429550132050919
2.2571574143061035 -1.6399208538960002
2.3263918057807365 -1.6289570792369708
2.4124993361351716 -1.6272513490998732
2.474078175439001 -1.6066851532943296
2.5695857313539703 -1.6056553706266108
2.6572186321765483 -1.5966180322211678
2.7539607840345153 -1.5899999999999999
2.842514048203036 -1.5756312658005955
2.940215484220227 -1.5633403040770164
3.0472423127242183 -1.5526475091092498
3.163755042973068 -1.5430664366975524
3.2808341890726727 -1.5298781075013321
3.4166600115833274 -1.5211950451034926
4.989136305712226 -2.1177627164118635
4.997520976114984 -2.019129538511766
4.975983673230085 -1.9101011710764504
4.970973963957456 -1.8092865581927875
4.963972521896413 -1.7092328109000727
4.95500444989775 -1.609978540693476
4.944095588328894 -1.5115617134165489
4.940885117122959 -1.4167760088993757
4.93588097233714 -1.322565320473881
4.929102289482062 -1.228963229646312
4.920568827165438 -1.1360028244365181
2.406243097805162 -0.511462759411688
2.3853540557778237 -0.4636658587650039
2.3733866847594216 -0.41849210817730215
2.350698250616428 -0.37231402679574943
2.3370326422301058 -0.32844851826575444
2.322557994840693 -0.2851742635680451
2.3967977678375387 -0.25191359647504485
2.4805247982484464 -0.21701779944166885
2.5637396091677482 -0.179274137522402
2.6563545624471665 -0.1392136436062306
2.758318682572704 -0.09632261089890266
2.869562885098843 -0.05008840647500368
2.97 0.0
3.119524808887941 0.05445150808432456
3.258014096082252 0.11377235925015315
3.4252993042081883 0.17951232991329732
3.641108783448358 0.2546111291660573
3.8851593225578074 0.33990739671586684
4.167046741593065 0.43797426109146803
4.535935913000841 0.556942899361524
5.0305617892071774 0.7069993528771324
5.896499393352972 0.9339137562901783
8.682759816061795 3.160266124329179
8.09414229773074 3.1070501225577534
7.565820253264985 3.0567898022738422
7.087887371583791 3.0086296893674076
6.70542365909669 2.985446960176373
6.326028353515817 2.949875466950082
5.976980407889461 2.915168126147365
5.66680149383802 2.8873795783435177
5.3948097923680445 2.868471248621793
5.125271483836859 2.8409843746435355
4.8757230233063895 2.8149999999999995
4.65441844281247 2.796656746761594
4.452252504821236 2.7820761372243257
4.2520597794833 2.761319907526187
4.2032204928540615 2.8351080205966865
4.202249987202528 2.942447118480866
6.47213595499958 4.702282018339785
6.333179594675032 4.772393133595743
6.0834430178438925 4.752906589514082
5.85968054938556 4.745075748515775
5.707031101236386 4.7887676921647175
5.690510234879701 4.946685078588425
5.6776264666472915 5.112157832581676
5.646050576499996 5.265027339682488
5.646817432658412 5.4530682081031285
5.5437171645025325 5.543717164502532
5.46696137551231 5.661204228665184
6.288024879776237 6.743081128928752
6.2697537815825015 6.963267014723184
6.24568195598963 7.184835203720788
5.161584505782911 6.1513368782453925
5.053442740130195 6.240482070499475
5.707181876268852 7.304859685934312
5.494571161378201 7.291542206731784
5.295945123155183 7.289243119318276
5.087622990433778 7.265878632843356
4.898529834403742 7.262369135582166
4.20461335031601 6.474536784538673
4.043283986099353 6.470606973673531
3.847334419578106 6.403039736244778
3.880000000000001 6.720357133367243
3.8639326733633066 6.970719065900984
3.8261932367050107 7.196022881800254
3.6773230478903294 7.217152845925779
1.2186717880736353 2.4986474487116843
1.1622002197869234 2.4923464143507874
1.102256302735419 2.4757081902114484
0.8752377278159732 2.0619308717334666
0.8278805714491659 2.0490763185925998
0.7776584505133013 2.0258695254989276
0.7216625024171611 1.9827514298582665
0.6804374428154576 1.9761338230025718
0.6365750084123918 1.9591764235680162
0.5905908435399283 1.9317356070453315
0.5485183380758283 1.9129107749172547
0.5072853284009406 1.8932146195265738
0.4644900395513619 1.8629677944499132
0.4251574927099051 1.8415594224440945
0.3887948618292098 1.8291360133722168
0.3510885514928427 1.806194017543702
0.3143032015771441 1.7825020329520966
0.28001769242201335 1.7679621296652965
0.24633638869931587 1.7527744816725797
0.21449004439305958 1.7468812268887266
0.181879526085717 1.7304680979407956
0.1490363200984958 1.703492933736885
0.11928357010245415 1.7058345259442993
0.0858309682384281 1.637752436997501
0.05793316452615179 1.658988772851699
0.028796470621517935 1.6497486970080455
