# .PCD v0.7 - Point Cloud Data file format
VERSION 0.7
FIELDS x y
SIZE 4 4
TYPE F F
COUNT 1 1
WIDTH 178
HEIGHT 1
VIEWPOINT 0 0 0 1 0 0 0
POINTS 178
DATA ascii
2.020667218593133e-17 -0.33
0.005933818188676424 -0.33994821635317307
0.011865828878850368 -0.3397928811864926
0.018317584685030388 -0.3495203371641008
0.02371720107300258 -0.33917177708834023
0.030504509961680425 -0.3486681443321109
0.036584962143678706 -0.34808266337889565
0.04509165705990457 -0.36724207610728915
0.050102316345623565 -0.3564965047469653
0.05631640741448313 -0.3555678026142496
0.06598630751343355 -0.374226946144639
0.07250741824308707 -0.37301832971011234
0.08732291014345887 -0.4108219923081984
0.11022601662849392 -0.4774413317447653
0.1137032909318438 -0.4560389913497183
0.12164495119818475 -0.4539851383558621
0.12679318367581963 -0.4421803801316267
0.13156726712523156 -0.43033714018336594
0.13905764746872637 -0.4279754323328191
0.14324998796114896 -0.41602817326369934
0.1402282587635242 -0.3852739745222224
0.14693085931357305 -0.38276797486385267
0.14984263736636488 -0.37087354182671495
0.15238514011081675 -0.35899689284645175
0.15862729079956214 -0.3562827284806144
0.1690473046962798 -0.36252311481466
0.17534845871563098 -0.35951761851966685
0.18159619989581877 -0.35640260967534715
0.19248334074221524 -0.36200851307216
0.18907575189607148 -0.34110168578436434
0.19500000000000006 -0.3377499074759311
0.22146637221132337 -0.36858193930190825
0.23316447626261017 -0.3731411623088275
0.24508756575676224 -0.37740175557544076
0.2572287355965435 -0.3813572833753192
0.27531668944850207 -0.39319298125871605
0.2997704786691613 -0.41259866713122323
0.43330681666947474 -0.5750175672340508
1.1266604998459546 -1.442059679100301
1.1453631117107044 -1.4144056498516868
1.1570176974357709 -1.3788799976141604
1.167785071603103 -1.343383052796534
1.184361173255179 -1.3153663410949878
1.2003171137099973 -1.28718251484974
1.2225987320078353 -1.2660380485960259
1.2374368670764582 -1.237436867076458
1.2444578545858664 -1.2017589808940652
1.2579283667849732 -1.1730371793074974
1.270777651566344 -1.1442133368736476
1.2754591905764847 -1.1087397589939572
1.286954664439883 -1.0798831842733858
1.2978337556331412 -1.0509650530532286
1.3159779585232256 -1.0281546637938492
1.325734946678506 -0.9990129384324
1.3429682106624128 -0.9757235188055053
1.3516008730768363 -0.9464011199792259
1.3679119947158187 -0.9226682907267322
1.367033025751041 -0.8877616270744939
1.3823183967349741 -0.863768400700124
1.3886110271374221 -0.8343616813542878
1.3943009000929465 -0.8049999999999999
1.4168839255658212 -0.7853915847990661
1.4303751004314618 -0.7605439317131432
1.443430569185156 -0.7354646095780658
1.447058414541659 -0.7057775463304147
1.468218614999373 -0.6846415840199331
1.4799436413810134 -0.6589133617827962
1.4912178625929535 -0.6329844281526235
1.4927660058525278 -0.6031166153996184
1.512400290925467 -0.5805560782633865
1.5223020456731717 -0.5540726321875834
1.5317400924708935 -0.5274204102205939
1.5407115563981488 -0.5006075308874148
1.5492137046601178 -0.4736421616508335
1.5668565643794596 -0.44928888998170863
1.5841183551140718 -0.424463233968134
1.6009879483553942 -0.39917112773945174
1.6174543075434904 -0.37341875021081583
1.6237250172181175 -0.34513340675748044
1.6393173963575989 -0.3186510222788298
1.6544770250605094 -0.29172893848044296
1.6494395287938801 -0.2612455566171855
1.6636503554858382 -0.23381080961290993
1.6774029962738342 -0.20595919035469923
1.6906872221260645 -0.17769838755501088
1.703492933736885 -0.14903632009849546
1.7158101664468977 -0.11998113483989552
1.7376153904729585 -0.09106456386272226
1.7489339472834176 -0.061074119229376694
1.7697304204268125 -0.030890759393991815
1.77 0.0
1.7897273743299404 0.031239807522737487
1.7989034886343724 0.06281909406450174
1.8175057532533245 0.09525144036215777
1.8355178524780766 0.12835191168919055
1.8429601914697293 0.16123812408316762
1.859755944338671 0.19546822631051197
1.8759122266020984 0.2303330590357287
1.8914120112963992 0.265820622833725
8.168182576721788 1.2937130258827092
7.937550489278397 1.3996043119954586
7.7155896618986395 1.4997587036596423
7.512173573635628 1.5967617854803915
7.317519186537116 1.689382418122426
7.112267673603054 1.7732874947455646
6.9256881744926195 1.8557325533850737
6.748057105486998 1.934974237835334
6.636755006383467 2.029059630775793
6.666906179229026 2.1662091305683813
9.124415347831171 3.3210155916922437
5.785627252496754 2.337545142915291
5.679514945801557 2.410811062778819
5.517814564161309 2.456689324177833
5.519414423053198 2.5737452140008594
5.581511027517827 2.7222848215601707
5.6489813633542525 2.878299768348726
5.712670925797258 3.0374810112247133
5.798728658334194 3.2142877822332148
5.871652237658495 3.3899999999999997
5.94874106687266 3.5743642398757762
0.6784384769251408 0.42393541138656393
0.6541630429974308 0.4248184473117211
0.6383589308673822 0.43057853567247506
0.6307470741025237 0.4416538559903055
0.5986725758374611 0.43496108669643013
0.5909902774349967 0.44534311713251573
0.575247850132907 0.44943287698773055
0.5673165518635886 0.4594038854663814
0.5285706657520948 0.4435234506837121
0.4905612271448018 0.42643836884382974
0.4756126883055323 0.4282435880696693
0.4607528320200774 0.42965896683937405
0.4531840742133503 0.4376347733891683
0.43840620433565947 0.4384062043356594
0.43068818968457834 0.4459906762099637
0.41601899963812405 0.446125757987694
0.4081696698789035 0.4533183435412105
0.3936354173943044 0.4528257481336631
0.3856725658119236 0.4596266658713868
0.3712990307194041 0.4585161172596127
0.3570836556888818 0.4570462370918987
0.34905271342818794 0.4632085958274298
0.33503759380670967 0.46113968679372
0.32693856872009625 0.4669166652447253
0.31314802594361824 0.4642610406308234
0.30499785960841524 0.46965551804943745
0.2914555953282627 0.46642645288603435
0.2884213219496305 0.48001368839318287
0.2750000000000001 0.4763139720814413
0.26179719493302206 0.47229464185527376
0.25820935953224 0.48562117607240984
0.24515486985935533 0.48114352306171865
0.23672041926610185 0.4853487850015502
0.22398767872257072 0.4803431271294245
0.21557042083017422 0.4841790925505785
0.2070874980993151 0.48786757232979344
0.19854149451043346 0.4914074429203973
0.1899350132590091 0.49479762604351696
0.1778504745293478 0.48864016280867234
0.1692954403177215 0.49166965931164475
0.16068883707497267 0.49454938847347985
0.1549570035030505 0.5068415206604088
0.14608779858300958 0.509468698847309
0.137174093904336 0.5119406879332062
0.13063782362382056 0.5239596921890382
0.11922405880224853 0.5164161343361747
0.1101931961334124 0.518418228388917
0.10303685750333426 0.5300786790617386
0.09377001594014243 0.5317961866265923
0.0829102664713224 0.523474820515423
0.0737617435088347 0.5248420764330323
0.0633720585706767 0.5161239988534875
0.0543548008991798 0.5171513855915021
0.04532098622878235 0.5180212430077077
0.03697093108438638 0.5287089466377068
0.027738056808760302 0.5292736534199242
0.018496733252325575 0.5296771383201208
0.009249775411760308 0.5299192784328874
