# .PCD v0.7 - Point Cloud Data file format
VERSION 0.7
FIELDS x y
SIZE 4 4
TYPE F F
COUNT 1 1
WIDTH 173
HEIGHT 1
VIEWPOINT 0 0 0 1 0 0 0
POINTS 173
DATA ascii
8.327598234202002e-17 -1.36
0.0242588449478242 -1.3897882962673838
0.04955728531755153 -1.419134974367116
0.07536377698983932 -1.4380265300465862
0.1025420164038641 -1.4664191538819416
0.13160517154896412 -1.5042539941185358
0.16201911806486285 -1.5415089378208235
0.19255356258013304 -1.5682229195932889
0.22546042355530607 -1.604234271361344
0.25968121196678334 -1.6395626453879286
0.2952019020337817 -1.6741731801207536
0.3339157419089536 -1.717847571033412
0.37424104347196663 -1.7606656813208503
0.41615945053615055 -1.8025846198526854
0.4596516016393686 -1.8435618799243931
0.5098735188519659 -1.9028738777894645
0.5623002058666783 -1.9609738597141706
0.619828014012202 -2.027366082641635
0.6798373876248844 -2.0923243358493377
0.7390397106177459 -2.146327166610449
0.8071675382485783 -2.2176745850547435
0.8851688353768915 -2.3059436534480886
0.9589928791447352 -2.3735906676909755
1.0510667356361463 -2.4761580557870646
1.155132066335273 -2.594469099704986
1.2678547852220983 -2.7189233611099497
1.3896365353213755 -2.8491771267683594
1.520868174127482 -2.9848718560310323
1.5680350197048754 -2.949044960148816
1.6144160354203025 -2.912483624774188
1.6600000000000004 -2.875204340564336
1.7099264087013804 -2.8457954383310122
1.7964263057505647 -2.8748830459702845
2.047842771656502 -3.153401335474794
2.343018265542429 -3.473667429005625
2.707280779576937 -3.8663976490440413
3.174040362379355 -4.368691769624717
3.8094890965524657 -5.055362778599363
5.9780729254121425 -7.651584417521271
6.104407793183423 -7.538315826132616
4.592901246168391 -4.28294970119249
3.886647437246772 -3.499553071256829
3.3584576319913357 -2.9194626790077574
2.987573328164014 -2.506871677777503
2.688925026641119 -2.1774485530324377
2.4901139813972413 -1.9454902620290804
2.284097558735257 -1.721190966214858
2.1358048651498613 -1.5517530660521293
1.99873098806514 -1.3995265046965524
1.8819152896999447 -1.2693678908785953
1.786368309723753 -1.1600811445820074
1.6791352303897233 -1.0492401431817457
1.6200461983269923 -0.9734219615800023
1.5415252187363009 -0.8899999999999999
1.4781073050655789 -0.8193282582163096
1.4215456245028726 -0.7558492160852842
1.3543299167663192 -0.6900655596041111
1.3212272480597755 -0.6444055857799438
1.2778939797216764 -0.5958917490543861
1.2241509132410853 -0.5450271017215722
1.1966563094881726 -0.5079504670360558
1.1497079796628165 -0.4645121758357309
1.1202965117966421 -0.4300415394543603
1.0900434401116537 -0.3967433662577757
1.0495256189152418 -0.36138065144744397
1.027141037598766 -0.3337383539249432
1.0041199937611873 -0.30699028995887356
0.9804869298570853 -0.28115010293333914
0.9562665680261776 -0.25623085465149553
0.9217809399621966 -0.22982580081968434
0.9061641602502688 -0.20920448053979443
0.8901143166677632 -0.18919963864416098
0.8638319214339443 -0.16791191593135943
0.8469346675904988 -0.14933743279356007
0.8395350895058671 -0.13296929528419624
0.8120198163680876 -0.11412194278725366
0.7940369213130576 -0.09749547472411799
0.7956175162946186 -0.08362277061412277
0.786993811492479 -0.06885303677064995
0.7681243187000647 -0.05371248478297649
0.7489721510659304 -0.03925196718220787
0.7295553037239398 -0.025476632592825708
0.7198903405126017 -0.012565732634844128
0.71 0.0
0.7098918635610377 0.012391208570471293
0.719561395453749 0.025127637625800697
0.7190132650232931 0.03768188849491955
0.7381973971922698 0.051619790570652725
0.7471460235688092 0.06536680706074363
0.7558366404798877 0.07944163208341663
0.7940369213130576 0.09749547472411799
0.8120198163680876 0.11412194278725366
2.686512286418775 0.425501744909428
2.708221320783572 0.4775324885840584
2.748556113653459 0.5342651870543255
4.440790107331478 0.9439190763126273
4.365177890237854 1.0077807234605152
4.3178159819281845 1.0765524354185214
4.250073635671901 1.1388037984510913
2.912622938693106 0.8351811881255075
2.5533336984213046 0.780632451609707
4.080032454906209 1.3256829058685244
4.0279091320530895 1.3869203379874875
3.974899785924393 1.4467452062675787
3.9210377912882475 1.5051453880902612
3.8756285120891714 1.565855560478512
3.829300190362152 1.6254414945153788
3.7729427400639417 1.6798223359030546
3.7158619268502644 1.7327348731368675
3.6670797089006015 1.7885542788994357
3.6263965534466576 1.8477413339399553
3.575937751078654 1.9013598292828577
3.5247174197717652 1.9537827695927386
3.472761869175599 2.0049999999999994
3.4200975298014282 2.0550019188911164
3.3752314227025755 2.1090786716481555
3.3295221547433336 2.1622169690096573
3.282988787317965 2.214403897744157
3.2438420953844074 2.2713626879501425
3.187526957837293 2.315873894032344
3.1546102646868066 2.377169341450591
3.1126424767465517 2.4318628275363503
3.069726547755035 2.4858155446468584
3.0258755503199635 2.5390110582618304
2.9735557460777216 2.5848725742225986
2.9279906123809334 2.636374589053901
2.87422004736334 2.6802535550456192
2.827005415330899 2.730007395903859
2.778929650063132 2.7789296500631315
2.7369539796084497 2.834198813334285
2.687073538646244 2.8815335843795316
2.636374589053901 2.9279906123809334
2.584872574222599 2.973555746077721
2.5390110582618304 3.0258755503199635
2.297019427331907 2.836582759317943
2.0255262538214156 2.592555379366115
1.8054450694561448 2.3959065301418785
1.616409443804301 2.2247967345311057
1.456884148331657 2.080646192494039
1.32528718122567 1.964819046955449
0.920439969175396 1.4173532598277665
0.8001780889921394 1.2805526251962034
0.7159029241249756 1.191462547975936
0.6550000000000001 1.1344932789576145
0.601163929105458 1.0845284368528507
0.5445870128316334 1.0242192077163552
0.503929454710897 0.9890172418490883
0.4602897041285314 0.9437337486141254
0.42261826174069944 0.9063077870366499
0.3863998109220103 0.8678681847604708
0.3516580156403464 0.8284543681071963
0.32216167033768445 0.797378114927437
0.2974453981225991 0.7748717539926774
0.27703631609379176 0.7611510228365858
0.26371020511029697 0.7658700462354466
0.25030376544370747 0.7703557781990744
0.23974479787264413 0.784169899889689
0.2260226317699393 0.7882345906694215
0.2096434265330418 0.7823999192941454
0.18386064065574745 0.7374247519697573
0.1664637802144602 0.7210338479410741
0.15177553429696425 0.7140477485356781
0.13738247667111234 0.706771572082318
0.1250266879201899 0.7090615821687898
0.11106847017856394 0.7012587218225478
0.09742117067204582 0.6931876481190992
0.08408984694955177 0.6848568446325121
0.07316992428735741 0.6961653267577913
0.06275213477831401 0.7172601826260567
0.05231735530809392 0.7481730376948681
0.039775326744637414 0.7589584464134761
0.026872612460925833 0.7695309368047037
0.013612877021081207 0.7798812022219852
