# .PCD v0.7 - Point Cloud Data file format
VERSION 0.7
FIELDS x y
SIZE 4 4
TYPE F F
COUNT 1 1
WIDTH 173
HEIGHT 1
VIEWPOINT 0 0 0 1 0 0 0
POINTS 173
DATA ascii
2.841180574021859e-16 -4.64
0.08516774341394395 -4.879256752363189
0.17938341305085553 -5.136868850878152
0.2847076019616152 -5.432544669064882
0.40179728876616133 -5.745968929496587
0.5360078178980989 -6.126597393264236
0.6867520036684832 -6.534008852569555
0.8457732432317236 -6.888270292390775
0.9616861276340524 -6.842752355004252
1.0793978087775935 -6.815049550106451
1.5767254532157282 -8.94205439735085
1.63523309037699 -8.41254496214648
2.5491986493995373 -7.40341044694265
2.6711773193734736 -7.3389993683379435
2.802437365444247 -7.300598935208118
2.925677494578274 -7.241305904166609
3.0516101135012277 -7.189142905463559
3.180680548852759 -7.143925478765139
3.309100989429677 -7.0963899724969695
2.450494710550943 -5.0242587188123435
2.160994778760243 -4.24119105513663
2.0046435730957537 -3.7701862215076174
1.8180360759237641 -3.279823901772734
1.6950000000000005 -2.935826118829247
1.6069187937193696 -2.67436197819059
1.5049707104223018 -2.40845659308425
1.4269542717393713 -2.197316888017011
1.3644306844686223 -2.0228516770343017
1.3192258036074058 -1.884049701864681
1.2754939974746666 -1.755566877793636
1.2758478490823424 -1.6931072813002608
1.3421420162099351 -1.7178634428626538
1.378211656399144 -1.701949655590766
1.420560617407252 -1.6929582192929413
1.4630116346488315 -1.6830023638967813
1.505543864307431 -1.672075857324137
1.5685962281437464 -1.682113513724092
1.6116074194648737 -1.6688683367856705
1.6546298679765212 -1.654629867976521
1.6976419287992168 -1.6393937542832335
1.7406218098536257 -1.6231560969487464
1.7835475811457462 -1.6059134552612597
1.8263971841391082 -1.5876628501570276
1.8614879967791167 -1.5619738915382906
1.9117790651841482 -1.5481281619826002
1.9621467764807377 -1.5329970735608893
1.996588775118232 -1.5045375578801208
3.931822592662245 -2.8566363261414196
3.882780689929821 -2.718752308303958
3.838443960929843 -2.5890631430695574
3.799177672792771 -2.467214828618072
3.7398921040498387 -2.336943955268434
3.7886794691033363 -2.2764682911024394
3.8797938089542856 -2.2399999999999998
3.997012061627039 -2.2155799645257606
4.0880473549368315 -2.1736533356986745
4.169910533201562 -2.1246755387810787
4.134452612976168 -2.0165072752297557
4.105574275276024 -1.9144607256853685
4.065277286509574 -1.8099780616873107
4.022606209587164 -1.707495031498126
4.005434251728522 -1.61830048355674
3.9677168126131073 -1.5230637855675262
3.927915154885097 -1.4296441991012951
3.9049917172251787 -1.344596477908057
3.8803105864842267 -1.2607893370497854
3.834782071411772 -1.1724105359381742
3.8065963159157428 -1.0915239290353167
3.7960884973160387 -1.0171588472529065
3.7550444606881066 -0.9362377359707141
3.731837348127451 -0.8615625381370029
3.7071794067811235 -0.7879853081993078
3.68110193792874 -0.715533732662043
3.6536367636752916 -0.6442347391443115
3.634693093390107 -0.5756788313480496
3.6045757702193164 -0.5065900874946382
3.5830916074251724 -0.43994832969258235
3.5603883854184186 -0.37421189849819936
3.5265292312447793 -0.3085313293267099
3.5114254569145813 -0.24554278757932108
0.6790680836331102 -0.035588450245201804
0.6496040375624123 -0.02268467285662563
0.6399025249000905 -0.011169540119861448
0.64 0.0
0.6399025249000905 0.011169540119861448
0.6396101292922213 0.02233567788960062
0.6291366068953815 0.03297165243305461
0.6384409921662875 0.044644143196240195
0.6375646067787172 0.05577967535850123
0.636494013035695 0.06689821649129822
0.635229537050446 0.07799637977929438
0.6238688833071894 0.08767905360484123
0.6123667711689854 0.09698936832494313
0.610580806867569 0.1076618701534968
0.598792581903075 0.11639348717969233
0.6064515124549595 0.12890524830701078
0.5943657395189935 0.13722014314975764
0.5918803930283578 0.14757235631579732
0.5988740122992223 0.16046780796356286
0.5863696345223746 0.1681387870483695
0.5833459011374517 0.17834673988086938
0.570633909777092 0.18541019662496844
0.5767663311155833 0.1985965742188656
0.563815572471545 0.20521208599540122
0.5601482558983211 0.21502076972718015
0.5563103127400725 0.22476395604954721
0.5615079606059886 0.23834598837845697
0.5572627291619865 0.2481093522762381
0.5528477500923564 0.25779713966182666
0.5392764277795002 0.2630226880734464
0.5346039145130207 0.27239429984372804
0.5385980316439455 0.2863776532993934
0.5422642184264254 0.30058196455272895
0.536935750346352 0.30999999999999994
0.5314437264353097 0.3193236064442336
0.5257898196169841 0.328549943824587
0.5199757521261629 0.3376762017093167
0.5222936707096762 0.3522915291865705
0.5160657879020648 0.361353154901159
0.5177708763999663 0.3761825614671828
0.5031403713297945 0.3791434645857904
0.504326882308302 0.39402334420842133
0.4973734153324613 0.402765050271896
0.49026844359614596 0.4113840701993851
0.4830141313425741 0.41987777855392466
0.48304413656030626 0.43493489413325787
0.47537990605246083 0.44329893404062404
0.4747642682235098 0.4584745245029382
0.46669047558312143 0.4666904755831213
0.4584745245029383 0.47476426822350976
0.463758884842499 0.497320517101036
0.4550088123240236 0.5053384813246281
0.4592413202933551 0.5282967061559403
0.44995132678057753 0.5362311101832846
0.4468174776453846 0.5517736326344492
0.443276262234474 0.5673677425968398
0.43330681666947474 0.5750175672340508
0.42320538165058064 0.5824922359499621
0.4187107985362636 0.597980992330964
0.41380274856835264 0.6134878036907309
0.4084792762612704 0.6290029259590679
0.4027386408172357 0.6445165530788838
0.3965793176807419 0.6600188215406264
0.3900000000000001 0.6754998149518622
0.37815150379214296 0.6822033715687287
0.3755772502287127 0.7063580742871416
0.37681211478382387 0.7395354150763452
0.3638480518349343 0.7459990584283086
0.3549993398621875 0.7612985411107859
0.3538608794759463 0.7947845481490627
0.35556532692523907 0.8376594166417207
0.3408920000084801 0.8437373076557765
0.32611483408622316 0.8495581881124536
0.318078733292872 0.8739141373308947
0.3060340651897273 0.8887874610633577
0.299746484543699 0.9225248208062989
0.29237170472273677 0.9563047559630354
0.28115010293333914 0.9804869298570853
0.2717599973576468 1.0142221176035218
0.2588564282916444 1.0382164271153163
0.24744615977825168 1.0718070712637588
0.2370193275322455 1.1150882648365383
0.22324652459055755 1.1485038046337668
0.2101142949769858 1.1916173811447717
0.19554308130028866 1.2346104257439223
0.17953330023848446 1.2774458086766258
0.16208622672884618 1.3200863816829582
0.1452945639420383 1.3823854345618998
0.12550426955662802 1.4345203652521135
0.10463471061618784 1.4963460753897362
0.08112073217656315 1.5478757788695894
0.056886179625076756 1.629007048041126
0.029843615007754953 1.709739558717429
