# .PCD v0.7 - Point Cloud Data file format
VERSION 0.7
FIELDS x y
SIZE 4 4
TYPE F F
COUNT 1 1
WIDTH 173
HEIGHT 1
VIEWPOINT 0 0 0 1 0 0 0
POINTS 173
DATA ascii
1.7328752207935048e-16 -2.83
0.05514960434181617 -3.1595187166941967
0.1228462283928038 -3.517855711107217
1.320306884939549 -8.336089594622962
1.4638541377322234 -8.301929357892913
1.3833652164799506 -7.116797079995564
1.4158786144689404 -6.661185160997216
1.4419362583441755 -6.245712115273358
1.4684659062899827 -5.889695058495299
1.4882095093394943 -5.554073501162143
1.5104927098771554 -5.267714093741988
1.5261802986526858 -4.991910826127045
1.5481751418184866 -4.764793146638719
1.559471459849781 -4.5290339771207275
1.5767128607313334 -4.331982981823038
1.5839863369902267 -4.126425485117632
1.6033162198201043 -3.96834689754585
1.6098122493758078 -3.7924799962240545
1.6188118394416855 -3.6359109214175516
1.6228541250842858 -3.4802219022207357
1.6395080889911497 -3.361489733158885
1.647985514054555 -3.234353682803775
1.6525399010063357 -3.107975526863423
1.6628969974449364 -2.9999455954881276
1.6750000000000005 -2.901185102677869
1.6790241242067772 -2.7943654002888856
1.6586472970499313 -2.6543905409696134
1.704720179597035 -2.625038877669177
1.7614576459328524 -2.6114683535483816
1.8411803606868578 -2.6294780621676637
3.673657826827957 -5.056356214843421
3.827543547247027 -5.079321843900782
3.971016515850496 -5.082669360763356
4.115755357465937 -5.082534587928589
3.6510336230195435 -4.351132436915795
4.4349590359758295 -5.101836762305938
3.104766013505102 -3.448191990215109
4.876501760622161 -5.04976539837733
4.879036790187178 -4.879036790187178
1.740802316819536 -1.6810732565107733
1.733308272837434 -1.6163361133481216
1.7389588916171024 -1.5657656188797282
1.7358320345123754 -1.5089357666781666
1.7389208858800802 -1.4591278739884441
1.7641213325073237 -1.4285572876831312
1.7966645182233258 -1.4037081637425008
1.868807093510665 -1.4082471541757928
1.9497309564436234 -1.4165624580248604
2.0314970698367 -1.4224695621505943
2.114045810015356 -1.4259419038504042
2.205703593696465 -1.4324006620895209
2.306690821545479 -1.4413803987143174
2.4086401149729357 -1.447256990497252
2.511473670974872 -1.4499999999999997
2.632605318489581 -1.4592769569414745
2.7547964897198525 -1.4647512758919794
2.895771203612196 -1.475469124153527
3.0469118169541765 -1.4860781876149725
3.199266488239374 -1.491842463944669
3.3618472841247713 -1.4967908465189446
3.55314873432642 -1.5082221559685964
3.773638288086825 -1.524648835202762
4.014395833937967 -1.5409821830447912
4.294395276991602 -1.563032054998306
4.59522027741268 -1.5822612306617816
4.935983319571847 -1.603798200805977
5.125793491961871 -1.567112337313869
5.133137456310623 -1.4719034800627755
5.138725395857843 -1.3769173199454103
5.152270306525541 -1.2846052656342355
5.164161343361747 -1.1922405880224842
5.174400807881832 -1.0998528444259468
5.173175256769189 -1.005563405634391
5.180088780844214 -0.9133894145280536
5.195240671530424 -0.8228452861116143
5.198907360893244 -0.7306587800403436
5.200941834600528 -0.6385953594429729
5.211294731729752 -0.5477291475225041
5.21009827101983 -0.45582453457025224
5.217259982858881 -0.36482635768177535
5.222832466766421 -0.27371705115059625
5.226814025309872 -0.1825243677540801
5.239201922619491 -0.09145060973136561
3.86 0.0
3.069532424130121 0.05357888776246038
2.578428333709267 0.0900407014924525
2.50656013223398 0.131363250169789
2.463983204141766 0.1722984901479895
2.470562851267529 0.21614624201419225
2.4763595194670005 0.26027587353645715
2.481365379103305 0.3046733585128687
2.475670171853926 0.3479327524001636
2.488974618299747 0.3942148519013818
2.4817155375907642 0.43759340772066446
2.48351677412259 0.48274675830265834
2.494276381871204 0.5301748115852862
2.4943873658502023 0.5758746991202943
2.4936600165293106 0.6217392716911461
2.5017478900886867 0.6703413268155287
2.5088930263990123 0.7194134986823678
2.5150815081827833 0.7689375834207975
2.4442152468785445 0.7941736755436147
2.325975695974319 0.8008976599646055
2.227071511262603 0.8105877396818348
2.1285633724136197 0.8170789249632845
2.0305326415012646 0.8203884395808473
1.942265240784649 0.8244426811123675
1.8636327335909058 0.8297427518746323
1.7854263404622004 0.8325579756291779
1.7256845688944007 0.8416726018350286
1.6483620697484807 0.8398824245181615
1.5893056671460686 0.8450488130146034
1.5305844874939425 0.8484168354310898
1.498223948547079 0.8649999999999999
1.52575779524976 0.9167677733398965
1.534967054043131 0.9591538682621009
1.5431538450195803 1.0021358244276497
1.5503002606779281 1.0456907294902966
1.5563888841490843 1.0897952290669874
1.5371322893124 1.1167919793556988
5.390789692819227 4.062251406276326
5.4057537697421125 4.223437720734016
5.408935891740517 4.380069921706869
5.408273768419985 4.538080524386967
5.426361881801731 4.717064418441748
5.4472515707493 4.904727344610431
5.44858507706282 5.080887782465614
5.452595686566976 5.265510448079199
5.275016587651645 5.275016587651644
3.9248197930933353 4.064269871913379
4.937668126852489 5.295000799722795
4.777592529402248 5.3060540539085945
4.625216154383077 5.320702540570542
4.473801763418314 5.331669324108087
4.323431086512383 5.338992755209389
3.6200894749148707 4.633503231207524
3.5025634347449213 4.648058668475245
3.373887348158796 4.643757547712198
3.2636499228374523 4.6609751320043635
3.142664117505597 4.659191157759334
3.0336394250337015 4.6713950634560115
2.919855145924959 4.672745009821908
2.7966567467615953 4.654418442812469
1.8400000000000005 3.186973485926734
1.7744032101015939 3.2011081281301887
1.7041817729127837 3.2050997620779045
1.6434456090571596 3.2254436175618917
1.5737524169727881 3.2266706262140095
1.512973377031704 3.244581877591207
1.4479824493498494 3.252221829207659
1.3870955061369217 3.267792229756163
1.32236127475817 3.2729590066207592
1.1897815924903965 3.0994870159707095
1.1286664729747071 3.1009856485934972
1.0678635466194741 3.1013009279657586
1.010485571606078 3.1099548082851523
0.9502080403488945 3.107990456879865
0.9344106362196272 3.258677149230901
0.9162194196629234 3.419377425063302
0.8539842914668269 3.425143913754267
0.7918277112904053 3.4297826280440282
0.7297700347703349 3.4332980785756577
0.6678314838179072 3.435695142066824
0.6077686218342564 3.446827135542728
0.545956282990406 3.447032308677031
0.4857141223506285 3.4560355599080808
0.4253240084839648 3.463986069228214
0.363759052171434 3.460936195881591
0.3033019847618511 3.4667575493592744
0.24624035231676206 3.521401097417179
0.2977915910223512 5.682202052753525
0.19857813623723117 5.686533805738655
0.09930419262814368 5.689133385439867
