# .PCD v0.7 - Point Cloud Data file format
VERSION 0.7
FIELDS x y
SIZE 4 4
TYPE F F
COUNT 1 1
WIDTH 180
HEIGHT 1
VIEWPOINT 0 0 0 1 0 0 0
POINTS 180
DATA ascii
1.3960973510279825e-16 -2.28
0.03996601074137944 -2.289651221908136
0.07887286254765244 -2.2586232690631562
0.11775590154662392 -2.246916453197791
0.15695206592428176 -2.2445191130846043
0.1961004211822313 -2.2414380707064274
0.2362343269848968 -2.2476194835322976
0.2802994898318392 -2.2828561487750405
0.32148986321775125 -2.2875192387930277
0.36292795889333573 -2.2914369501807195
0.40286377218727853 -2.2847539869883224
0.4464930491811151 -2.2970076092675336
0.48859247342173423 -2.2986468617244435
0.5263854671646444 -2.2800259515974504
0.5104551997152987 -2.0473239824423524
0.5383436138132431 -2.009125718681262
0.5788384472156982 -2.0186495614704696
0.698768374287341 -2.285568366751655
1.0012150617748299 -3.0814231127962977
1.0548408204411879 -3.0634801849417865
1.118405868674937 -3.07279486996992
1.1826142334994905 -3.0808154074407654
1.2436938901408283 -3.078250397161734
1.308949280439067 -3.0836912590656755
1.3747698535962052 -3.087783646831991
0.8536888887162128 -1.830741729814033
0.8679748706423733 -1.7796122116723507
1.579886939093623 -3.1007027041755197
1.6478451853784768 -3.099146050934833
1.72592224807696 -3.113646157416249
1.8000000000000005 -3.117691453623979
1.874738592672598 -3.1200889745556886
1.955402085020526 -3.129297474817212
2.036949990956202 -3.136627924115886
2.1193411041541306 -3.142052399983608
2.191061986860996 -3.1291608091839485
2.1983168435738496 -3.0257235589623037
2.196624834504976 -2.915019611672619
2.2040680816658567 -2.8210784979120644
2.202621368674431 -2.7200108650993977
2.2111893773216953 -2.6351928843292844
2.1781159762484843 -2.5056358063396025
2.221513613111409 -2.4672408205849488
2.2233146538037447 -2.3842130672784956
2.222906785468792 -2.3018873610836836
2.2273863607376247 -2.2273863607376243
2.229953381049819 -2.1534409484228916
2.2306287899384696 -2.0800949981906203
2.2368659246869567 -2.014083125140163
2.2565816448660887 -1.961616496681617
2.244510218338606 -1.8833676963815602
1.647549438288778 -1.3341592290256556
1.654822582574116 -1.2928890981838825
1.653175505797896 -1.2457570979247399
1.6665750084123918 -1.2108376197224946
1.6628786499066532 -1.1643601657926235
1.6663655208356336 -1.1239777359762009
1.668954430211394 -1.0838316796799037
1.6706547494281592 -1.0439409505394137
1.6800479093761402 -1.009474626823706
1.6541085212282778 -0.9549999999999998
1.7404932172073975 -0.9647711442902107
1.8277015172179787 -0.9718061349667939
1.915664027004991 -0.9760795744400255
2.022286604173126 -0.9863350802754242
2.1298232995361275 -0.9931529150906437
2.2564572803772243 -1.0046395083972264
2.282852036562052 -0.9690131986533989
2.2901441207799653 -0.9252782857373028
2.296607849183116 -0.8815851558814386
2.3022469209254757 -0.8379493511478884
2.307065324462333 -0.7943862968754624
2.3205778997601745 -0.7540014662748716
2.3238205569901766 -0.7104632424762503
2.4704425585614795 -0.7083880044496879
2.463110857037124 -0.6599885650114279
2.474254102003791 -0.6169008337791527
2.4748999645544973 -0.571375678033417
2.4844949058638663 -0.5280956946771087
2.48351677412259 -0.48274675830265834
2.491563615120886 -0.4393298894973337
2.488974618299747 -0.3942148519013818
2.4855728525413414 -0.34932448340976424
2.491290840619718 -0.30589205194692015
2.4962499573743657 -0.26236644280181015
2.500448692210281 -0.21876091429662198
2.5038857661521585 -0.1750887490977545
2.50656013223398 -0.131363250169789
2.2286415442525835 -0.07782587764657715
1.3497943884611283 -0.023560748690332742
1.33 0.0
1.3297974345580004 0.02321170056158707
2.518464884088121 0.08794673169030244
2.5265327229290717 0.13240996929464788
2.5238370471573552 0.176483878572637
2.5203725861721162 0.22050402915157513
2.5260856142354142 0.26550229669983977
2.3821107639391728 0.29248642417235393
2.3865460456671848 0.33540717331375774
2.3210676003985737 0.3676209928445426
2.1074885914461254 0.3716071002072309
1.7669289302057951 0.34345619167778063
1.7704471573281884 0.3763201603801444
1.7830972185569807 0.41166042944927295
1.7562352645595536 0.4378786310353986
1.7483257455832137 0.46846247163556254
1.730271052688974 0.4961472404705985
1.7596007509719855 0.5379639366898356
1.7784756854719372 0.5778617794811517
1.7586645506147294 0.6055567672903115
1.794812905701085 0.6532584737520272
1.8018102231395994 0.6916501426224295
1.8080085164052355 0.7304828571610285
2.411722716045394 1.0237155566418972
2.4026245536000403 1.0697173712893544
2.410778713517489 1.1241645762302606
2.408768044081768 1.1748346733947275
2.423537745792361 1.2348541592915672
2.41927640443346 1.286352082033341
2.43144278584752 1.347770744284817
2.4335313846342728 1.4049999999999998
2.434355133993999 1.4627081327445537
2.4338980359689426 1.520868288349298
2.4405313527211843 1.5848995918937285
2.445660839037373 1.649619065238703
2.4492646124240856 1.7149935446896278
2.45941166289984 1.7868671669691183
2.4597973709456618 1.8535902713083088
2.4664736587890395 1.9270204177693104
2.4635526978185975 1.9949456396279848
2.474323551274299 2.0762039792875218
2.48299451893292 2.158434205378769
2.4895351653492708 2.241587531302175
1.6967405877564754 1.5822361953449964
2.4961091071751196 2.4104645454927205
1.1879393923933999 1.1879393923933996
1.1183999764389858 1.1581370785452283
1.1252972941031225 1.2067336076716313
2.4624006314005986 2.7347729577568107
2.381494275235542 2.739595776208662
2.2947517665809456 2.7347786619347514
2.2215009804059265 2.7433252439431066
2.142501934133291 2.742277422551392
2.070243679643046 2.747306154562687
1.9808363002256346 2.726387271043573
1.9272168261395146 2.7523508688110123
1.8621123685575869 2.760695116608289
1.7918624251994395 2.7592261685404447
1.727536801400248 2.7646367934699487
1.658422601210375 2.7600787082608016
1.5950000000000004 2.7626210380723593
1.5319983999784252 2.7637982745604908
1.4788354227755562 2.78128491750562
1.4119104541899907 2.771030290225824
1.3545668435782492 2.777273603064426
0.9804743672384226 2.1026340659250278
0.9232921797820669 2.073748188848704
0.8791450391008658 2.0711359202679906
0.8353727033174841 2.067619995683936
0.7919931684951134 2.063212742558816
0.745603912449958 2.0485299133132804
0.722761302894888 2.0990512378304835
0.6829275575686339 2.1018349010122894
0.6402940333427936 2.0943074155590478
0.6008894356810582 2.095550497145535
0.5642255183234952 2.1057183013101692
0.5225512944952823 2.0958387687561526
0.47914574575243274 2.075408237992551
0.4428519014418271 2.083454389563006
0.40260698024450975 2.0712333570745707
0.3646611731005539 2.0680962813256367
0.32851237658448496 2.074145515249789
0.2922635120161375 2.079562944357298
0.2571443145848612 2.094272379963189
0.22055505749474877 2.0984411992270564
0.18389861719755912 2.101970812973583
0.14858128907498674 2.1248114270534253
0.11095222723504121 2.1170946136796966
0.0739869330093023 2.118708553280483
0.03682457758266839 2.1096786367799854
