# .PCD v0.7 - Point Cloud Data file format
VERSION 0.7
FIELDS x y
SIZE 4 4
TYPE F F
COUNT 1 1
WIDTH 180
HEIGHT 1
VIEWPOINT 0 0 0 1 0 0 0
POINTS 180
DATA ascii
2.3390753863714446e-16 -3.82
0.06614462039730484 -3.789422764642723
0.13157110256842908 -3.7677034178619913
0.19625983591103988 -3.744860755329652
0.2601916470655871 -3.720913907469144
0.328577150158672 -3.7556540118058805
0.4118421452745546 -3.9184162677509966
0.508195161999465 -4.138917452344312
0.6165368372530899 -4.386887544525156
0.7414993642906946 -4.6816427344209535
0.8821327425480066 -5.002823385302017
1.1181407129065533 -5.752335295003311
1.214204274375714 -5.712381988285425
1.3092151362812952 -5.67083377705007
1.4055662134340692 -5.6374181696635395
1.498562271143595 -5.592710534213706
1.5931839166222552 -5.556092602523483
1.6840610192029637 -5.5083153943470835
1.7799378875996972 -5.478085533860084
1.8720168881286514 -5.436731809696071
1.9666158241225957 -5.4032325695189725
2.060615709885476 -5.36808745235891
2.150241846207336 -5.322035325213359
2.2427966775284314 -5.283697858817008
2.334668331255094 -5.243750926868529
2.430055005009022 -5.211269775460737
2.520634094037195 -5.16806576622021
2.6104453735023943 -5.123287514083115
2.704156201646731 -5.085778134867419
2.57433908350805 -4.644230644910191
2.3500000000000005 -4.070319397786862
2.0498515381420166 -3.4115258567944067
1.8918117733125415 -3.027531703278441
1.7646304734486882 -2.7172926401431736
1.660802923308118 -2.4622415904884742
1.5601279068748453 -2.228093560466058
1.4812188357770324 -2.0387228258248675
1.4744468067225183 -1.9566569996158676
1.5206838440543762 -1.9463865614086033
1.560714569803597 -1.9273219844132876
1.6005411481194831 -1.9074506633662554
1.6401475724762684 -1.8867739505569299
1.679517821960734 -1.8652935119482594
1.725455850958121 -1.8503248650965012
4.279095562027424 -4.431133170086091
4.39113311116846 -4.391133111168459
0.9495285364470196 -0.9169490490058764
0.9288192010563465 -0.8661379172793731
0.899205238827647 -0.8096480336942184
0.8830102088606432 -0.7675890639188935
0.8732906651556349 -0.7327778750426547
0.854860557602668 -0.6922524301548213
0.8352913988231253 -0.6526011638451978
0.8225945753487116 -0.6198694738466097
0.8090169943749475 -0.5877852522924731
0.8273435647318818 -0.5793122007145565
1.1440718501259575 -0.7716862067896305
1.1741387951235935 -0.7624946490210377
1.2042282965421247 -0.7524853552111509
1.2343209130110417 -0.741654827870478
1.2643970895252805 -0.7299999999999999
1.2856909694949117 -0.7126701417621155
1.3155919133598013 -0.6995126285509773
1.3543299167663192 -0.6900655596041111
1.393130771763709 -0.67947527752307
1.4229032256475405 -0.6635106709328982
1.4616727322281615 -0.6507786289212802
1.4912178625929535 -0.6329844281526235
1.5205815214895313 -0.6143548132020956
1.5590793122503268 -0.5984744757406514
1.6068743815439033 -0.5848544450868934
1.6452023215428113 -0.5664885887554526
1.6928805990053732 -0.5500502499874064
1.721348560733464 -0.5262690685009261
1.77833413748589 -0.5099291082614484
1.7773035203718859 -0.47622704298863816
1.7562352645595536 -0.4378786310353986
1.7538661166134235 -0.404911897818957
1.731321253298836 -0.368003692747434
1.717847571033412 -0.3339157419089534
1.7037174127111199 -0.3004113473637895
1.6889470624176857 -0.26750293521879476
1.6834557168606696 -0.23659427163211125
2.1041978414796025 -0.25836300801891265
2.386852548883856 -0.2508683118423683
2.470562851267529 -0.21614624201419225
2.5637396091677482 -0.179274137522402
2.6463682670996205 -0.13869028404380113
2.638391783330413 -0.09213467129460257
2.6196009613097453 -0.045725304865682805
2.6 0.0
2.5796070535034894 0.04502720860819146
2.558440517168885 0.08934271155840248
2.556491608971709 0.1339800479819362
3.4016934113860007 0.2378695754674673
3.3771000265310174 0.2954579679145612
3.351538787391081 0.35226092121199215
3.3349550695148418 0.4094809938412955
3.3570087530339237 0.47179681225462183
3.3285097078056145 0.527184147185578
3.308954050121019 0.5834578769608859
3.2884510645496743 0.6392101345114252
3.267012986450911 0.694425047331316
3.2446523157348333 0.7490870109650704
3.221381811236308 0.8031806933908968
3.1972144850168163 0.8566910392893436
3.172163596596452 0.9096032741960972
3.1558056946780173 0.9648266255850311
3.128975938611055 1.016665911493577
3.1107561137217523 1.0711192281640456
3.0821917961777796 1.1218260701081932
3.0434721903808777 1.1682795155176788
3.022619365887727 1.2212174945358731
3.0928963076001996 1.3128565917239596
3.078648192255565 1.3707024871654465
3.0451941644431435 1.41999735944875
3.028935936028193 1.477310764679191
2.993781921272916 1.525408079124877
2.975533387934584 1.582119166588452
2.947468413059764 1.633808420230156
2.9358261188292474 1.6949999999999998
2.914368822387182 1.751129454694184
2.8918440078934124 1.8070246910352288
2.8682533423733503 1.8626654997513923
2.8435988738637934 1.9180316589046615
2.817883032354132 1.9731029410475984
2.791108630593569 2.0278591204090324
2.747306154562687 2.070243679643046
2.66347634719072 2.0809357866007248
2.65783918818284 2.152275737390444
2.6351928843292844 2.211189377321695
2.6112951475707913 2.269964240307155
2.5787125444065584 2.321883204065238
1.4480803292059574 1.350356752923747
1.3667456206434372 1.3198509038720947
1.2869343417595167 1.2869343417595165
1.2156521483032454 1.2588446505926394
1.1525772285056224 1.235987755736398
1.0839915823013504 1.2038946172733787
1.0234520852251916 1.1773469451475242
0.9770371667235398 1.1643875535408466
0.9188077709327628 1.1346331037271773
0.8803959097156914 1.1268553776576122
0.8365228821813471 1.110103358965737
0.7876322380719141 1.0840827724624296
0.7456493672563599 1.0648976575756894
0.7157669164425559 1.0611680928704534
0.6753524034186337 1.0399515042523257
0.641202309722178 1.0261381963492755
0.6077449283938642 1.0114574148284923
0.5750000000000001 0.9959292143521044
0.5478348708783609 0.9883202690675171
0.521113434692339 0.9800718280734089
0.4948496447161061 0.9711971113653209
0.4646734155964221 0.9527216890771171
0.4437491748277344 0.9516231763884825
0.4148713759373164 0.9318163667954529
0.3907311284892737 0.9205048534524404
0.3671144615475939 0.9086401774754516
0.34761691105894116 0.9055730137022857
0.32833933759264206 0.902104915954472
0.3060340651897273 0.8887874610633577
0.2842956348249517 0.8749719949915413
0.26605825129769045 0.8702373279263623
0.24531724667712926 0.8555229093851038
0.23034895014124346 0.8596739853972708
0.21047204917171086 0.844157281860117
0.19345790673572402 0.8379582557153022
0.17672493719509536 0.8314254606237348
0.1602795561162977 0.8245668340960377
0.14239150568688294 0.8075423574700106
0.12827626133298936 0.8099044392880129
0.11273021177765304 0.802117135680672
0.09871416815816947 0.8039623828294709
0.08362277061412277 0.7956175162946186
0.0688530367706501 0.786993811492479
0.05441004952041768 0.778099959202663
0.04029868630706686 0.7689447417610219
0.026523617493900822 0.7595370285345128
0.013089304827962698 0.7498857713672935
