# .PCD v0.7 - Point Cloud Data file format
VERSION 0.7
FIELDS x y
SIZE 4 4
TYPE F F
COUNT 1 1
WIDTH 167
HEIGHT 1
VIEWPOINT 0 0 0 1 0 0 0
POINTS 167
DATA ascii
2.2104874724609725e-16 -3.61
0.0616069947236111 -3.529462363902061
0.12040326362362873 -3.4478983532158805
0.1768955321011506 -3.3753678274704595
0.23159149283049577 -3.3119126468626163
0.28412772135736625 -3.24759471577909
0.33449108245649106 -3.1824700651784745
0.38145104485811165 -3.1066694546373377
0.4286531509570016 -3.0500256517240367
0.47399642907189965 -2.992695672003267
0.519208051224122 -2.944575181506502
0.5609784464070421 -2.885983919336132
0.6029439033715017 -2.8366280421280363
0.6411105048800156 -2.7769546846379205
0.6798005266350662 -2.72653099083555
0.7195169453850077 -2.68527379708361
0.7524899813804077 -2.6242444299116108
0.7923273197986166 -2.591585888659826
0.8250753749811097 -2.53932089850806
0.8562442462223222 -2.486713853826203
0.8926725740799956 -2.4525977402512207
0.9210056303314214 -2.399301696097808
0.955246813210576 -2.3643188291453074
0.9846424437929697 -2.31967223070015
1.0168416076895008 -2.283863644106502
1.0480932891169346 -2.247643311850892
1.0783930211011306 -2.211033353895951
1.1258964393540762 -2.209696179987152
1.2159313476154572 -2.2868342655046203
1.2944416860577201 -2.3352346180621866
1.8750000000000004 -3.2475952641916446
1.9056408771672013 -3.171519012597815
1.9501028923781942 -3.120816993855648
1.9661469164042482 -3.0276007502829803
2.007502523459981 -2.9762448854725996
2.0591394065002553 -2.9407558389974806
2.192438991050925 -3.017633389018554
2.3952237921451522 -3.1785693299882256
2.616561270134048 -3.349045702828568
2.8571145753662623 -3.5282426650146475
3.1432314113671773 -3.7459573268518023
3.4705522633597843 -3.9924136793784633
3.8742662108177894 -4.302808539514113
4.35114953719874 -4.666036616330308
4.911234679145111 -5.085732388394264
5.649783181680515 -5.649783181680514
6.639506357125751 -6.411696759336545
2.76683812076232 -2.010225562840258
1.7366023338926626 -1.2159820450642176
1.7658500295422388 -1.1910808843926906
1.777981604044299 -1.1546347542318574
1.8063424448131873 -1.1287280328167264
1.8343380235025204 -1.102181480307516
1.8619546181365432 -1.0749999999999997
1.8804323703497008 -1.0423406835296247
1.898337324646693 -1.0093638599896653
1.9245740922468748 -0.980619479437421
1.9593710209321842 -0.9556491000001888
4.531538935183249 -2.1130913087034973
4.585998197365856 -2.0418179482405168
4.620934364331251 -1.961470265016154
4.7749968510189555 -1.929223956091947
4.835946609255505 -1.8563459786446552
4.895798554294583 -1.781924946726734
4.9545173361404204 -1.7059771293555013
5.012067840875459 -1.6285195603559726
5.077978254163718 -1.5524937520777318
5.133137456310623 -1.4719034800627755
5.1870216871722965 -1.3898582722005364
5.2201910073648605 -1.3015397983262125
5.193392445305304 -1.1989891196528004
5.272215567955213 -1.1206440135077227
5.330235606120815 -1.0360928448946383
5.4065945640370225 -0.9533284953914476
5.461916523491112 -0.8650825916724767
3.9610722749662814 -0.5566924038402618
3.8709299914011557 -0.47529043928007514
3.759292764492073 -0.39511759115173006
3.665996488977624 -0.3207331333113821
3.5912305809353673 -0.2511233054788511
3.505189666988554 -0.18369920641273282
3.4079227201351165 -0.11900728375552831
3.339491301822347 -0.05829103750052693
3.26 0.0
3.199512624500452 0.05584770059930724
3.118099380299579 0.10888642971180303
3.04582008100145 0.15962466654097868
3.0026677912820707 0.20996698596981714
2.9387743593706497 0.2571094411055916
2.87416827761431 0.3020872588435185
2.8188310706613544 0.3461089352706188
2.7628479117889815 0.3882929516785826
2.7062660532306775 0.4286304342102326
2.6589809331329617 0.4688500797007119
2.611128307970786 0.5075519277016092
2.562746713922571 0.5447286299425295
2.513874767145907 0.5803737202071717
2.464551144741031 0.614481614823156
2.4244738239855614 0.6496358032073271
2.3935416228864144 0.686337015984328
2.342946652109437 0.716310676570705
2.3110673345972232 0.7509112963311222
2.26924458143836 0.7813635706971761
2.227071511262603 0.8105877396818348
2.184578198003452 0.8385810019360026
2.151066542594947 0.8690872967249158
2.117161162940613 0.8986815955253294
2.08288364342513 0.9273595462128242
2.0391925208324624 0.9508910889165737
2.0043107232471424 0.9775676573396426
1.969124418456293 1.0033190044243983
1.9601436561468182 1.0422268693846777
1.9678943410636405 1.0908216455542583
1.991858428704209 1.1499999999999997
2.0057714836429428 1.2051890952895266
2.0268349498138583 1.2665070415173598
2.054742891466289 1.334365635786816
2.0725939313876043 1.3979822586768669
2.097029233379819 1.4683556770586779
2.1115343553186126 1.5341195084833548
2.148329522027218 1.6188824122790098
2.1827897874906195 1.7053822866520736
2.1993230709232274 1.7809767066710402
2.244510218338606 1.8833676963815602
2.2792229322727713 1.981298267551332
2.311180407234696 2.080996185776049
2.354958919213729 2.1960347194012453
2.3954015351277085 2.313212373628461
2.4465894629054548 2.4465894629054543
2.5077167173569803 2.5968166792225302
2.5711338174356193 2.7572034551042726
2.6564485072446673 2.9502849571452554
2.762008512050036 3.1773273327378697
2.8668327392019655 3.416558216310642
2.9829786535762297 3.6836718573060416
3.1829698274336535 4.074015596146753
3.4062730310405933 4.520276986867677
3.791214877286452 5.218159613718411
4.634779969554983 8.361364400252624
3.9200875492621887 7.372612400372039
3.414008558041392 6.7003690618965255
3.0247609128446347 6.2016789194642525
2.6793997794360345 5.74599136981236
2.395678827716464 5.380782745514919
2.1412065841212202 5.044366596919374
1.929223956091948 4.774996851018955
1.7345008757992526 4.518529264246457
1.5630320549983066 4.294395276991601
1.4064544272549173 4.084640246589049
1.2731500168247836 3.9183528471360325
1.160715667749265 3.796529881173251
1.0970366761516566 3.8258215498345094
1.0430407517631586 3.8926810799449454
1.5918460730458133 6.3845458788960565
1.4914254902998259 6.46007352952611
1.3888500946626317 6.534025972901822
0.5876917057597584 3.0234117250188053
0.5174715694474527 2.93472710397638
0.4489669146654628 2.8346655375080454
0.3994267997553879 2.842069357288307
0.3534210958749277 2.8783838397598336
0.3073136820069012 2.9238943723827235
0.25885255596054535 2.9586982533324844
0.20926942123237569 2.9926921507794724
0.15910130697854966 3.0358337856539044
0.10714145487667831 3.068129838948624
0.05445150808432483 3.119524808887941
