# .PCD v0.7 - Point Cloud Data file format
VERSION 0.7
FIELDS x y
SIZE 4 4
TYPE F F
COUNT 1 1
WIDTH 179
HEIGHT 1
VIEWPOINT 0 0 0 1 0 0 0
POINTS 179
DATA ascii
6.980486755139913e-17 -1.14
0.01919764708101196 -1.0998324646720306
0.03699346650465115 -1.0593542766402415
0.05338267536780285 -1.0186021254496653
0.06975647374412523 -0.9975640502598242
0.08279795561027543 -0.9463849631871583
0.09616618620624119 -0.9149601437388115
0.10968240906463274 -0.8932915364771898
0.12386405985445827 -0.8813385811799976
0.14235536318661016 -0.8987963899415754
0.159756323453576 -0.9060231327712314
0.17745236570018677 -0.9129132806063276
0.19751610627687127 -0.9292402206971153
0.21370350162667187 -0.9256515615459734
0.23466423873167763 -0.9411868544877166
0.2510544737494451 -0.9369480515003963
0.2728809822588292 -0.9516490789789357
0.29529542176996415 -0.9658678035226658
0.3151973342624464 -0.9700776466210567
0.338590880635443 -0.9833393186232895
0.35912115049195226 -0.9866772518252038
0.3834537060134712 -0.998931056352006
0.4083211868233443 -1.0106304014777983
0.4298042413382011 -1.0125553387976844
0.45554504024489645 -1.023170912559713
0.4817848183843973 -1.0331908772217808
0.5128942417432206 -1.0515890341700254
0.5402486946900608 -1.0602977637841575
0.5727553065987868 -1.0771960632878907
0.6108601215103847 -1.1020208309956387
0.6400000000000001 -1.1085125168440815
0.6746998781321712 -1.1228891639197671
0.7100918140724947 -1.136384448849611
0.7461554779705873 -1.148978678085231
0.7940539229284604 -1.1772333530281591
0.8374215970725272 -1.195961984661928
0.8816778784387097 -1.2135254915624212
0.9267951356541544 -1.2298986854728309
0.9789017457677968 -1.252937098234688
1.0320854413217335 -1.274519376789432
1.092738936467117 -1.3022755533022625
1.154663891023293 -1.3282888611920785
1.2245090096367106 -1.3599550306236314
1.295796884118747 -1.3895720330764239
1.3754235735088147 -1.4242928046705292
1.4495689014324225 -1.4495689014324222
1.5393871727247137 -1.4865689127822541
1.6455458286431335 -1.5344963101406215
1.7686846846361983 -1.5925308431340826
1.8943210463591575 -1.646708162766173
2.0376782186964815 -1.7098150417661946
2.207094530537797 -1.7872699105815384
2.3955526909644345 -1.8716108849900013
4.3605498848582185 -3.2859100264101837
4.740839587037192 -3.444421578433893
5.201615481235097 -3.642210370829142
5.75352075353199 -3.880798750086983
6.541630429974307 -4.2481844731172105
7.2932136269452625 -4.557305672405562
7.500213881143483 -4.506583155462974
7.560401775038151 -4.364999999999999
7.617937649184138 -4.222691792345596
7.681644057872664 -4.08440259623725
7.742846695196917 -3.945177442736661
7.80153232187677 -3.8050615541291917
7.866751591478121 -3.668326511909271
7.920439117761349 -3.526406695467187
7.980777079432658 -3.387638884002003
8.038684019094047 -3.2478391649159573
6.282996270326168 -2.411816300439871
5.562980315052577 -2.0247592484879586
5.597469967547956 -1.9273634743863677
5.649275706793213 -1.8355609465871876
5.6804502504204315 -1.736687926053056
5.729119707792381 -1.642798640669315
5.776236441208629 -1.547737889713074
5.618012255138019 -1.4007277755220762
5.105699139474633 -1.1787435247618525
4.900519479676366 -1.041637570996974
4.957217276410703 -0.9635854266515512
5.002823385302017 -0.8821327425480061
6.331082263214833 -1.0027449209078798
6.357521001320881 -0.8934913081636201
7.692232675220246 -0.9444874113898929
8.940751839360777 -0.9397108847762046
9.025523964711216 -0.789631029293783
8.468378454718787 -0.44380890894016367
8.524803754472886 -0.29769270687233323
8.658681040054349 -0.15113783974687522
8.69 0.0
1.949703005554963 0.034032192552702845
1.9588060209574276 0.0684030135369019
1.9673001834665105 0.10310183379859934
1.975176819514452 0.1381178180133681
1.992389396183491 0.17431148549531633
2.0089342286439122 0.21114749580065997
2.03471961086471 0.2498321539805523
2.0597575829824666 0.2894800499969361
2.014884214814081 0.319126308682071
1.949919350964172 0.34382339178052207
1.8945404640539913 0.36826136107673146
1.8389174893795546 0.3908739787373875
1.7830972185569807 0.41166042944927295
1.7368293500340337 0.43304019312340525
1.6903701960058695 0.4529333289294113
1.6437575000545253 0.47133987844706854
1.6065919900178998 0.4911844639341977
1.5597326867240517 0.5067878707749137
1.4655537921789412 0.5046306394085929
1.0900434401116537 0.3967433662577757
1.073617490471782 0.41212314197709526
1.0848051098431413 0.438289714296617
1.095400775608404 0.4649700429022357
1.114525458323973 0.4962187045524762
1.123821655925446 0.5240466445584673
1.141468438799942 0.5567313564221283
1.1583084814448783 0.5901876496614108
1.1654908225737837 0.6197024628773758
1.1807366046381844 0.6544929873325551
1.186454803184681 0.6849999999999999
1.1486041829408307 0.6901510203794726
1.1194234869264823 0.6994934287878305
1.0986584440085057 0.7134771358696854
1.0777488443215544 0.7269507745119709
1.0567061371327995 0.7399136028928495
1.0274515828561832 0.7464872704114409
1.006280742659589 0.7582869291715808
0.9771333344723352 0.7634202294038163
0.9636609922066438 0.7803572849017985
0.9345742206051532 0.7842008838175779
0.9131985920695541 0.7938314250785138
0.8917737905728731 0.8029567276306299
0.8703109049268128 0.8115780484743732
0.8488209643996084 0.8196968771416168
0.8273149339882606 0.8273149339882605
0.8058037097324369 0.8344341683928352
0.7842981140718732 0.841056756862046
0.7628088912490983 0.8471851010442294
0.7479072930491784 0.8603689214539599
0.7263499989457894 0.8656302207244451
0.7111320418863163 0.8781749364463769
0.6895408523647374 0.8825720440395286
0.6740328259302941 0.8944717712529681
0.6524416300446453 0.8980088637561917
0.6309340799861507 0.901067248717891
0.6151121938178216 0.911941329810546
0.59910293851653 0.9225376247399664
0.5776119980141934 0.9243724248105045
0.5613915016519593 0.9343123577653024
0.5450000000000002 0.9439676901250381
0.5284424860685075 0.9533354807819414
0.5070292878087622 0.9535834002876411
0.49030973971871067 0.9622870461234373
0.4734408385322037 0.9706975700031004
0.46065390529736244 0.9878754878699485
0.43927557452186444 0.986629094254009
0.4219896187684156 0.9941452417286357
0.4045751208891852 1.0013585629321304
0.3870373855089242 1.008266860616978
0.36938175479172236 1.0148680304487812
0.338590880635443 0.9833393186232895
0.2441234255562085 0.7513346478731713
0.23389736377818943 0.7650438047704284
0.21775351109542934 0.759396739791272
0.21999618833714263 0.8210369523457081
0.2661140851596345 1.0673252989035962
0.24744615977825168 1.0718070712637588
0.23078197680771276 1.0857438368145245
0.21179798486796486 1.0896061736269071
0.19448595898696208 1.1029846833736732
0.17677094549546093 1.1160878248725057
0.15726560408487397 1.1190029176779743
0.13771235804781665 1.1215771513546937
0.11916244812512493 1.1337549607198314
0.10022910415980711 1.1456239028055073
0.08021994480574401 1.1471986577987978
0.060709709241815 1.1584102603153055
0.04083241114192626 1.169287267612342
0.020593839595994645 1.1798202802845417
