# .PCD v0.7 - Point Cloud Data file format
VERSION 0.7
FIELDS x y
SIZE 4 4
TYPE F F
COUNT 1 1
WIDTH 180
HEIGHT 1
VIEWPOINT 0 0 0 1 0 0 0
POINTS 180
DATA ascii
1.1205518212198283e-16 -1.83
0.03281052410209316 -1.8797136668940155
0.06561105380070202 -1.8788547547959
0.09943831686159353 -1.8973961160336903
0.1332348648512792 -1.905347335996264
0.1699536983579338 -1.9425796612789037
0.2059210726372773 -1.9592081338754983
0.2425199933762435 -1.9751668417662307
0.28112966393933225 -2.000341498857972
0.3206906533324734 -2.0247610982200324
0.36292469132388455 -2.0582482037955145
0.40451507019827526 -2.0810496289090477
0.44701013525818234 -2.103017341577682
0.49714183009994195 -2.1533578431753697
0.5443242650992522 -2.183165384120992
0.5926956132847725 -2.2119701422019666
0.644991412611778 -2.249352368495666
0.6899972231456587 -2.2568792240727635
0.7509112963311223 -2.3110673345972232
0.8106647045983204 -2.354341253242299
0.8276887468481186 -2.274056142301898
0.9353403483132333 -2.4366449131576964
0.9964535384863265 -2.4663090531476546
1.0510667356361463 -2.4761580557870646
1.081919470581629 -2.4300309173293186
1.1072598457606326 -2.374526402036023
1.1353812701837105 -2.3278765799148426
0.8989011894843028 -1.7641929178929683
0.9154695474324872 -1.7217478060749074
0.9356825670754306 -1.6880160347790338
0.9550000000000002 -1.6541085212282776
0.9785723423291033 -1.6286178713340131
0.9962482167584251 -1.594330420774081
1.0130286051279507 -1.5599272563784885
1.028914942386174 -1.5254291335012768
1.0496448785224144 -1.499048241048855
1.075647011695226 -1.4805010997061538
1.095303342136728 -1.453516628286073
1.1143472703394415 -1.4262994640281668
1.139069907800206 -1.406634190237117
1.1570176974357709 -1.3788799976141604
0.9316038211665204 -1.071687603916336
0.6758219124224468 -0.7505762737321682
0.6615384092606235 -0.7094130905705953
0.6946583704589974 -0.7193398003386511
1.605132393293463 -1.6051323932934627
1.6400947447721246 -1.5838210846465135
1.660172902675517 -1.5481362773418716
1.6646444090693633 -1.4988525582438426
1.6905494596990094 -1.4695722249387364
1.7312604414488901 -1.4526999978915787
1.7485784132781843 -1.4159708798621344
1.7730241956151243 -1.3852383194827311
1.7969298976064088 -1.3540838020921087
1.8121980673998825 -1.31663896513514
1.8349005792073418 -1.2848112174263433
1.8570441625232936 -1.252592103774473
1.87862207219775 -1.2199914384336605
1.8996277353903943 -1.1870191518823792
1.920054753572732 -1.1536852877985213
1.9398969044771428 -1.1199999999999999
1.9591481439922467 -1.085973549351795
1.9778026080039965 -1.0516163006403956
2.0047646794238276 -1.0214786244139802
2.022286604173126 -0.9863350802754242
2.0391925208324624 -0.9508910889165737
2.064612734272278 -0.9192248133513082
2.0895460173370397 -0.8869596616706513
2.1047073498666076 -0.8503569670541202
2.1285633724136197 -0.8170789249632845
2.0955145443525756 -0.7627049196162412
1.976133823002572 -0.6804374428154575
1.8450496416125979 -0.5994929690873979
1.7309116082930944 -0.5291927855481535
1.6341448830951422 -0.46858350488889855
1.5454813220625094 -0.4141104721640332
1.4748495039395146 -0.36772128131149495
1.5200173010649671 -0.3509236447764294
1.545473209159413 -0.32850047149205974
1.5706034935162625 -0.3052943926024717
1.565844327289411 -0.27610060249041923
1.6099319951700746 -0.2549881780155763
1.6240396327361752 -0.2282438855745073
1.637701150208181 -0.20108441661849333
1.6608515652650164 -0.17456253365698127
1.6736070927941324 -0.1464216478160657
1.6759076044365047 -0.1171908758901305
1.6976702090827755 -0.0889711256130045
1.6889704976622717 -0.05898014942722664
1.7397349895721208 -0.03036718720087331
1.8 0.0
1.7597319434752487 0.03071623532961898
1.7189522224728446 0.060027134328301666
1.6677113230401381 0.0874010469257162
1.6260294019235133 0.11370305220292423
1.593911516946793 0.13944918839625306
1.5514541567745064 0.1630644026975394
1.5185956120112227 0.18646009540987565
1.4754994224249398 0.2073679204304975
1.442024977268901 0.22839431895873707
1.4181231643375796 0.2500533758403797
1.3840943286612062 0.26904068348092813
1.3596251650199898 0.28899725023668543
1.32514328810792 0.30593343390765637
1.3098992304725954 0.3265945590595515
1.2750220907015701 0.3416411395353274
1.2496402047198145 0.35832856256209894
1.2240700876326855 0.374235782045103
1.1983312105318935 0.3893614129124337
1.1724430337431528 0.4037045115268743
1.1464249973588083 0.41726457485731583
1.1296323160616142 0.4336252189498133
1.103348786934477 0.44578184616493527
1.0861957270738796 0.46106273161734296
1.068848185441843 0.4758818723986861
1.0513170329625139 0.4902371836192113
1.0246252127810502 0.4997431073395482
1.0068373723328556 0.5130092647056878
0.9889013040019983 0.5258081503201978
0.9533354807819414 0.5284424860685074
0.9353074360871939 0.5399999999999999
0.6771621675546687 0.4068800791789428
0.6614775150020122 0.4133370261018998
0.6373896316385222 0.4139256666114205
0.6217781794162813 0.4193946776030601
0.6143640332167438 0.43018232726328454
0.5986725758374611 0.43496108669643013
0.5830039223345238 0.4393249669009952
0.575247850132907 0.44943287698773055
0.5595450922490189 0.45311068155588297
0.5438915546144744 0.4563792028774428
0.535843801958168 0.46580191058326015
0.520201377834176 0.46839142445120074
0.5046340541172276 0.4705788684431239
0.4891510642302829 0.4723676919121182
0.4808326112068524 0.48083261120685233
0.47236769191211825 0.48915106423028276
0.463758884842499 0.497320517101036
0.46170011838761216 0.512769929579402
0.4592413202933551 0.5282967061559403
0.44995132678057753 0.5362311101832846
0.42793786591388955 0.5284592537907402
0.443276262234474 0.5673677425968398
0.4513612673640362 0.5989766325354696
0.4702282018339785 0.647213595499958
0.5047472639889206 0.7208537989743128
0.4193946776030601 0.6217781794162813
0.40303288591112013 0.6206162202796137
0.38684106289023956 0.619075110194191
0.3759777946843397 0.6257321295125419
0.36500000000000005 0.6321985447626401
0.3490629265773627 0.6297261891403649
0.3380195252058414 0.6357222668584274
0.3314130648098692 0.6504347626575084
0.3200109371560265 0.6561196537983919
0.3127375136881176 0.6706677624071209
0.3009851158760923 0.6760236386555246
0.28914103508206257 0.6811735915548058
0.27720887912777503 0.6861160523794226
0.26877596215897515 0.7001853198729013
0.2565151074942516 0.7047694655894312
0.24417611584286758 0.7091389316994876
0.23485291572496006 0.7228029523843167
0.22220249558927996 0.726791614531907
0.21224076397908936 0.7401715058725056
0.19670247427791576 0.734103627979692
0.18386064065574745 0.7374247519697573
0.1754618223882148 0.7600086505324836
0.1621711188378522 0.7629551285723685
0.16409573602382863 0.844199377764991
0.18580355010361554 1.0537442957230627
0.1689492222434494 1.0667034078427489
0.15030694903687072 1.069489514240896
0.13283758431161077 1.081875305289041
0.11498130959441881 1.0939740849051007
0.09674287444990079 1.1057761148818377
0.07812725059342027 1.1172717362910032
0.05913963055452667 1.1284513742726683
0.03978542624085123 1.139305542801769
0.020244791467248974 1.1598233263814137
