# .PCD v0.7 - Point Cloud Data file format
VERSION 0.7
FIELDS x y
SIZE 4 4
TYPE F F
COUNT 1 1
WIDTH 172
HEIGHT 1
VIEWPOINT 0 0 0 1 0 0 0
POINTS 172
DATA ascii
7.776507174585693e-17 -1.27
0.021640983982231663 -1.239811141993925
0.04257738597705132 -1.219256808963297
0.06280314749153276 -1.1983554417054885
0.08231263901806778 -1.1771255793065925
0.10110066158728369 -1.1555858497864246
0.12020773275780147 -1.1437001796735142
0.13771235804781665 -1.1215771513546937
0.15587387307527334 -1.109100236990559
0.16112749899143786 -1.0173189908129918
0.1701752141135918 -0.9651115979519639
0.18508472551524857 -0.952178367944234
0.19959522318504885 -0.9390216967044535
0.21145399108323323 -0.915907860898121
0.22498736290769095 -0.9023750254366768
0.23811352149431908 -0.8886517601859429
0.25358636735163925 -0.8843607602632534
0.2631345342504631 -0.8606742803667319
0.27502512499370324 -0.8464402995026866
0.2864999759222979 -0.8320563465273987
0.29755752469333185 -0.8175325800837402
0.3081964366089581 -0.8028791667875935
0.31841560440352534 -0.7881062763817692
0.33212145921588265 -0.7824291254345743
0.3416587801836723 -0.7673781844197847
0.35077315724478053 -0.7522354632404195
0.3594643403670435 -0.7370111179653169
0.36773230478903296 -0.7217152845925779
0.38027196585657164 -0.7151875502157308
0.3878476961970697 -0.6996957657115166
0.40000000000000013 -0.6928203230275509
0.41203045992804355 -0.6857338405616898
0.42393541138656393 -0.6784384769251409
0.4302648376618715 -0.662549748676885
0.44176239374188997 -0.654939682318483
0.4473896203538159 -0.6389385945454136
0.45847249678812907 -0.631033255612459
0.46941571805859766 -0.6229356978368884
0.48021595075401347 -0.6146483878132432
0.4908699050188733 -0.6061738499364372
0.5013743355555007 -0.5975146656328029
0.5051654523226907 -0.5811263767715343
0.5152305668963209 -0.5722215156175936
0.5319587208487488 -0.5704558872629529
0.534886945253428 -0.5538916462607614
0.5444722215136416 -0.5444722215136416
0.561085044264148 -0.5418335289580178
0.5704558872629529 -0.5319587208487488
0.5796529638723675 -0.5219218729599094
0.5886734725737622 -0.5117260426125957
0.5975146656328029 -0.5013743355555006
0.6061738499364372 -0.4908699050188733
0.6067682802771759 -0.4740593360007569
0.6149493427364154 -0.4633975678270772
0.631033255612459 -0.45847249678812907
0.6307470741025237 -0.4416538559903055
0.6383589308673822 -0.43057853567247506
0.6541630429974308 -0.4248184473117211
0.6614775150020122 -0.4133370261018998
0.6685904945476476 -0.40172969842984224
0.6754998149518622 -0.38999999999999996
0.6909495686401227 -0.3829995999946063
0.6886991224299631 -0.36618781897299485
0.7038951541088107 -0.35865249479424194
0.710047296576342 -0.3463132059633712
0.72504622962932 -0.3380946093925596
0.7308363661140808 -0.3253893144606401
0.7456089312964768 -0.31649221407631173
0.7510189221990978 -0.30343134066688876
0.7655359497277053 -0.2938617186271462
0.7799448752523039 -0.28387671896030503
0.7847804177474329 -0.27022156819944004
0.7988874736879289 -0.2595742752749558
0.8128590425685802 -0.2485159490143262
0.8170724415475711 -0.23429175244444927
0.8210369523457081 -0.21999618833714263
0.8344543245973569 -0.20805283021571425
0.8477019563631547 -0.19570741727916252
0.860769888645749 -0.1829622879196282
0.9423620961097574 -0.183176635561483
0.9552635204218417 -0.16843873233692241
0.967934573783235 -0.15330577573942625
0.9704627073667389 -0.13638963894086412
0.9826206901249087 -0.120650649971096
0.9845766764145906 -0.10348317863497693
0.9862327511108281 -0.08628418532018159
0.9975640502598242 -0.0697564737441253
1.0086158301021195 -0.052859315805373265
1.0193786435594776 -0.03559748663655099
1.029843126011083 -0.01797597863040202
1.03 0.0
1.039841602962647 0.01815050269477485
1.0593542766402415 0.03699346650465103
1.0585473068398483 0.05547611361752046
1.0773691742806102 0.07533699164365533
1.0758902739390852 0.09412820216747082
1.0939740849051007 0.11498130959441881
1.081875305289041 0.13283758431161075
1.0496841528660645 0.14752348701766937
1.0568265244367974 0.16738487759304704
1.0832885283134288 0.19101299543362338
1.0994224454613837 0.2137060748217302
1.0955253128218625 0.23286109371589045
1.1010381732073158 0.2541946914085674
1.1158400852173957 0.2782101799396179
1.1204739584953192 0.30023009231892406
1.1342888012072163 0.325252079864059
1.1571287547152729 0.35376976271451144
1.169799515043039 0.3800909030811853
1.1724430337431528 0.4037045115268743
1.1840127021902447 0.4309453805903426
1.2136545544463624 0.46587833440889037
1.2331545265738273 0.498226769243163
1.2426815521607946 0.5274870234605196
1.2424218223939372 0.5531618345830882
1.2688309018513098 0.5916655664369792
1.2852754862078088 0.6268707399083807
1.3097795905569007 0.6673660346171337
1.3244213892883905 0.7042073441788362
1.3381681519232755 0.7417587189768957
7.430497964470484 4.289999999999999
5.580156472709283 3.4868687586544884
5.811553383610843 3.919942253329935
5.234381563006657 3.665153428283184
4.991634855293426 3.6266350066445594
4.87966296638896 3.6770897914590153
4.869906457289541 3.8047879175125683
4.794990582189509 3.8829068127774975
4.703512880750525 3.9467159234753506
4.905612271448018 4.264383688438297
7.334839427461881 6.60431908476193
6.876888491237506 6.640934021588014
5.0536078480631135 5.419330928998053
2.7300528739441416 3.0320308879477684
4.8514124255661875 6.209524738420969
4.712211631280538 6.253316043670303
2.498087322243011 3.4383222260935264
2.420492561401414 3.4568216268995453
2.113749175119423 3.1337620242580577
2.3092695084637156 3.5559632080885977
2.3740383037647583 3.799255470780789
2.4515812365718586 4.080116351342054
2.4350000000000005 4.217543716430216
2.336782369587345 4.215666988411888
2.2393793544886993 4.2116600179370804
2.1519149687654524 4.223370924652864
0.9556491000001889 1.9593710209321842
0.8621412539510269 1.848867885554766
0.7768669882747787 1.7448718240973675
0.7072233425655855 1.6661137847489171
0.6518154725436872 1.61329990694621
0.5948907962451983 1.5497435079853548
0.5403918264545567 1.4847143408417351
0.4948635947748783 1.4371882349109615
0.45425498173117274 1.3980530789538756
0.4151678207062862 1.3579527534675102
0.37762317746928886 1.316928523435497
0.3416411395353274 1.2750220907015701
0.3096600263675746 1.2419785296332755
0.27668979684295414 1.1984751796858393
0.24741491207313349 1.1639956448732287
0.2213384346367921 1.13868753279929
0.19448595898696208 1.1029846833736732
0.17207791154425403 1.0864571746546516
0.14891521802727006 1.0595868335534804
0.1267441171413534 1.032247997706975
0.10661903253300653 1.0144123332756387
0.08628418532018177 0.9862327511108281
0.06836134426924273 0.9776127692546277
0.049719158430796766 0.9486980580168451
0.032107536966301 0.9194395608575682
0.015707165793555238 0.8998629256407522
