# .PCD v0.7 - Point Cloud Data file format
VERSION 0.7
FIELDS x y
SIZE 4 4
TYPE F F
COUNT 1 1
WIDTH 119
HEIGHT 1
VIEWPOINT 0 0 0 1 0 0 0
POINTS 119
DATA ascii
2.5533885762222313e-16 -4.17
0.07347463110096394 -4.209358796608408
0.14832286098562958 -4.247411014831157
0.2245212522822296 -4.284120704097122
0.3027430960495035 -4.329427978127637
0.38087059580726706 -4.3533708306609284
0.4620158076430283 -4.395786777527768
0.5447559650210092 -4.436681297836709
0.2449446576897152 -1.7428718009851638
0.20336480455230022 -1.2839948427736791
0.19274947721029279 -1.093136605843551
0.21752225472926118 -1.1190549891303367
0.2390984444404231 -1.1248697408438764
1.0820145713939913 -4.686720011616981
1.1805788505263781 -4.735043144226863
1.2837424637085029 -4.790992098393779
1.3864558997595058 -4.835146330569744
1.4267739190469555 -4.666767209099612
1.4894619128872468 -4.584092408542641
1.5334260074932082 -4.453392491072782
1.604074472197387 -4.40715839148591
1.5015617085948079 -3.911701987023276
1.5171567033344442 -3.7550946109954886
1.5512025801024167 -3.6544042682061884
1.6228792058724435 -3.6450463759939775
1.7031515948150189 -3.6524203817576995
1.5079967449544265 -3.0918515192691345
1.5435676991144593 -3.0294221822404506
1.5727297353327345 -2.957874436077405
1.5998717468129124 -2.8862450335600056
1.5950000000000004 -2.7626210380723593
1.627520316715772 -2.708648670218675
1.6480489117652672 -2.637429579046485
1.682934618196434 -2.59149205495136
1.733498000759315 -2.5700164749206293
1.8239730675963266 -2.604903500838994
1.9279356275193118 -2.6535757415498273
2.0401529284854436 -2.707374379060323
2.1609717783930606 -2.7659177451595935
2.2907262234214087 -2.8288112997033736
2.4297371646151187 -2.8956479949897367
2.5783119839326942 -2.966008650275494
2.7434354860713186 -3.0468937844573163
2.9257729646681185 -3.1375073799462414
3.174588752997618 -3.287382887547636
4.29920922961421 -4.299209229614209
4.344812394045453 -4.195736557572343
4.388122209715023 -4.091990160374991
4.4365746081000434 -3.9947097199623833
4.490522002325494 -3.9035512224935185
4.54264354769554 -3.8117305254411775
4.585161172596128 -3.7129903071940413
4.633503231207524 -3.6200894749148707
4.680004088877136 -3.526636035671003
4.7327494170934425 -3.4385437259109675
4.7756564182048225 -3.3439506239265984
2.78556624378494 -1.8788881556617092
2.792772991258262 -1.81364798660004
2.7985587173162054 -1.748733571969576
2.8115087463029282 -1.6893248857049776
2.82324281633727 -1.6299999999999997
2.9212298218455817 -1.6192641316227656
3.0903165750062445 -1.6431504697506178
3.2878140742550777 -1.6752249440389275
3.49630884010376 -1.7052637610095112
3.7793034719428302 -1.7623181514587167
4.092683650238852 -1.822180160979585
4.464448539244335 -1.8950459731729774
4.923346267749641 -1.9891610110384927
5.722848014427846 -2.1967955307126905
9.78682301897321 -1.9023656839041518
9.247344800784633 -1.6305563882924758
8.75091869767292 -1.3860093602564454
8.308349096741775 -1.1676623170549492
7.930443751614163 -0.9737360538071284
7.56831162375256 -0.7954616054668429
7.24233545512699 -0.6336222497754749
6.943045789808377 -0.4855050572591121
6.6708452921605526 -0.3496041877028648
6.416089109462595 -0.22405476883005623
6.179058756066498 -0.1078558717824121
6.04 0.0
6.079073986550859 0.10611063113868376
6.126265769627057 0.21393391478633095
8.967693222096074 0.4699768870616356
8.828441844799444 0.6173447926355089
8.56727440358901 0.7495393876298602
8.344038702139814 0.8769938068156126
8.406865904401998 1.0322333386415992
8.486597349115259 1.1927134752277608
8.563257912959845 1.3562868118988016
8.006487031989252 1.4117596844321438
8.599054127001537 1.6714867994985325
8.588135934442814 1.8254646453799266
9.388999455701216 3.232891773759566
9.180796905078324 3.341536800291783
8.98104370290308 3.447499674625788
1.9505106211597796 1.2188143077363711
1.028655914484271 0.9933614697563661
0.9263098833543774 0.9263098833543773
0.9655751349380063 0.999882322470725
1.0371524398562304 1.1518744794899611
0.9250432308766153 1.0641405081141084
1.0281546637938492 1.3159779585232256
0.3054064732209745 1.1397924750211006
0.27821017993961783 1.1158400852173957
0.26094322303888356 1.1302692751508727
0.2411775613486007 1.1346512168512146
0.21752225472926118 1.1190549891303367
0.19795892254030065 1.122680838433917
0.17677094549546093 1.1160878248725057
0.14613175600806874 1.039781472178649
0.7494964619416571 6.1041588325941305
0.11707187885977188 1.1138645228124662
0.3338064947235315 3.8154256936913855
0.45690490302402026 6.534044529201848
0.24283883696726 4.633641041261222
0.22545074869815698 6.456064742543359
0.08202631025523291 4.699284167235039
