# .PCD v0.7 - Point Cloud Data file format
VERSION 0.7
FIELDS x y
SIZE 4 4
TYPE F F
COUNT 1 1
WIDTH 173
HEIGHT 1
VIEWPOINT 0 0 0 1 0 0 0
POINTS 173
DATA ascii
5.694607616035192e-17 -0.93
0.016230737986673748 -0.9298583564954439
0.032456531933326004 -0.9294334691277591
0.04867243930593789 -0.9287254673217538
0.06487352058203646 -0.9277345667416366
0.08105484075532228 -0.9264610692253235
0.09721147083891772 -0.9249053626924942
0.11333848936678717 -0.9230679210264295
0.13082271490246153 -0.9308519846170761
0.14704839713781706 -0.9284270401594295
0.16322928700691458 -0.9257192878314755
0.1793604556539522 -0.9227295524408041
0.19543698936869366 -0.9194587446897773
0.21370350162667187 -0.9256515615459734
0.2298258008196843 -0.9217809399621966
0.2484662832984199 -0.9272887932375056
0.2646118615843192 -0.9228112281007861
0.2806768365338273 -0.918052565724514
0.29665631459994957 -0.9130142556433474
0.31580110982344206 -0.9171530183313372
0.33517974045915544 -0.9208987683701901
0.3512005905543941 -0.9149088179672576
0.3671144615475939 -0.9086401774754516
0.38682381720438097 -0.911299804917916
0.4026692766450424 -0.9044100030661748
0.42261826174069944 -0.9063077870366499
0.44275485825696825 -0.9077819867621587
0.45853040473694234 -0.8999165894302514
0.47416627841374975 -0.8917770687875162
0.49450581265126387 -0.8921121012821837
0.5150000000000001 -0.8920061658979718
0.5356395979064565 -0.8914539927301968
0.5564152274448652 -0.8904505009642474
0.5773173771159289 -0.8889908020221494
0.5983364067136991 -0.8870702026338947
0.6194625512591297 -0.8846842078321112
0.6406859249987957 -0.8818285238686928
0.6619965254672532 -0.8784990610520221
0.6895408523647374 -0.8825720440395286
0.7111320418863163 -0.8781749364463769
0.7392057511395203 -0.8809511095868247
0.7610284736289885 -0.8754631130584154
0.7895741155034527 -0.8769108940633251
0.8183980320749982 -0.8776244419430045
0.8474832119599768 -0.8775945564131543
0.8697413408594535 -0.8697413408594533
0.8919813524199275 -0.8613763793691566
0.9288192010563465 -0.8661379172793731
0.9586568248658386 -0.8631784822029271
0.9886695500918313 -0.8594373279775646
1.0188391093482407 -0.8549075208830973
1.0569185075814804 -0.8558757318277791
1.0953349475133434 -0.855769450702665
1.1340624242671558 -0.8545773328759085
1.1649844718999243 -0.8464107633011613
1.204153505104818 -0.8431573614360377
1.2435563588325627 -0.8387893552061202
1.283165968956499 -0.8332977235729913
1.2551111823115104 -0.7842805110651433
1.380039354130401 -0.8292113006051872
1.4289419162443238 -0.8249999999999998
1.4868535021369726 -0.824176354418773
1.536328811574533 -0.81688051924745
1.585991613055295 -0.8081030895363932
1.6537810451904673 -0.8066029100919024
1.7129217174992684 -0.7987485146899219
1.7814136424030715 -0.7931364539978103
1.8686248525084537 -0.7931841908332256
1.9378142560445857 -0.782927780239256
2.016533721233956 -0.7740747710178486
2.104911470560435 -0.766125121049498
2.2030582811464083 -0.7585737998851751
2.3015567694342716 -0.7478211263873726
2.4098879850268498 -0.7367766959012966
2.547343494236545 -0.7304389929150478
2.675614538820719 -0.7169287549339824
2.78474873441211 -0.6943158403710464
2.9718286975949675 -0.6861007157487882
3.1789797023848685 -0.6757129951577178
3.1804720743704316 -0.6182211450200052
3.180929042229432 -0.560883613864185
3.1803564567163436 -0.5037189774295434
3.149052458598194 -0.4425704610530081
3.1761476852522303 -0.38998189889647195
3.4808266337889564 -0.3658496214367871
3.8652354285959727 -0.3381642818609137
4.2995010566198415 -0.30065040183718
4.853339538907229 -0.254352747340707
5.556612998226172 -0.19404120166590538
6.469014587661851 -0.11291706964922432
9.58 0.0
9.578540919598229 0.16719405366917603
6.084160178066049 0.9636363046478221
5.081608005542994 0.8960245967613605
4.348608422673151 0.8452838495180934
3.785431214839828 0.8046182434647285
3.361576723509062 0.7760811374863342
3.0176197087183487 0.7523770953149667
2.743229346660954 0.7350460880911589
2.4896677924802457 0.7139007515660278
2.2951314143112853 0.7016920913345681
2.111345466175241 0.6860177275123833
1.9666786372465792 0.6771817612708859
1.8417975367403805 0.6703594809183107
1.7177879847548512 0.6593970271633525
1.6132999069462102 0.6518154725436869
1.5188330081965264 0.6447063620073016
1.4434018230753094 0.6426438960597642
1.3685247584253415 0.6381535752284562
1.2852754862078088 0.6268707399083807
1.220678938138064 0.6219669846431791
1.1654908225737837 0.6197024628773758
1.1107670280670325 0.6157082177128481
1.0478907385791707 0.6049999999999999
1.0028857418214714 0.6025945476447633
0.9498138676951972 0.5935095759411896
0.9141509190605123 0.5936565481663795
0.8704894511827939 0.5871525486442841
0.8273435647318818 0.5793122007145565
0.7928366544874484 0.5760295472466237
0.7666900896454011 0.5777424222259663
0.7407301083903185 0.5787217868061187
0.7072028249258434 0.5726815558553522
0.6741191099447007 0.5656530965241545
0.6490502389915839 0.5642107649318362
0.6242416534010111 0.5620697093414408
0.5923964983115281 0.5524186716506237
0.575471840270921 0.5557266963671978
0.5656854249492381 0.565685424949238
0.541833528958018 0.5610850442641478
0.5251387372481239 0.5631423502467613
0.4951566487055551 0.5499271708532717
0.47892309116307036 0.5509379935626235
0.46923495507117374 0.559212443476854
0.4594038854663814 0.5673165518635886
0.443276262234474 0.5673677425968398
0.42728866643795427 0.5670312121335779
0.4055718240818064 0.5582217261187137
0.3900319767187113 0.5570233901165145
0.37465924532540035 0.555455173611878
0.3485689824096174 0.5367491634850713
0.3338491364669191 0.5342703005785484
0.32447398719333426 0.5400153994423307
0.31500000000000006 0.5455960043841963
0.31027815695765576 0.5597566125692133
0.309851231438688 0.5827454112868917
0.3041736348254964 0.5969743712062064
0.2937086683486819 0.602192011020442
0.29160660060108257 0.6253523730552885
0.2969177494453343 0.6668881840790987
0.30086296893674075 0.7087887371583791
1.6332847472933771 4.042521605911193
1.5481495420356968 4.033067442467912
1.2449533217054345 3.420481139660706
1.37064193026463 3.9806332032731233
1.3040517162622782 4.013458498765548
1.225037442788267 4.006916927485118
1.1466514001987165 3.998848655103407
1.074099037175461 4.008592179099634
0.9967182098706309 3.9976183922571056
0.922299322809847 3.9949172656194643
0.8462005816282802 3.9810607349865896
0.7727764312750068 3.975590092963039
0.6998021559977297 3.9687752446391986
0.6273022048113259 3.9606302457865024
0.5566924038402619 3.9610722749662814
0.4862586801865385 3.960259145048875
0.41602328380526077 3.9581971435657275
0.3468798561356803 3.964854898405147
0.2762356360267359 3.950353639028904
0.20672702715962868 3.944586662280567
0.13750401700785425 3.937599858455237
0.06858795729852454 3.9294014419646177
