# .PCD v0.7 - Point Cloud Data file format
VERSION 0.7
FIELDS x y
SIZE 4 4
TYPE F F
COUNT 1 1
WIDTH 180
HEIGHT 1
VIEWPOINT 0 0 0 1 0 0 0
POINTS 180
DATA ascii
1.7757378587636622e-16 -2.9
0.049739358346258256 -2.8495659311957153
0.09771859076700302 -2.798294315653468
0.14444723923052533 -2.7562175159226237
0.18973760858402064 -2.713374216706722
0.23357739056372442 -2.669801790885878
0.2770004276592817 -2.635483022725924
0.3180789862874349 -2.5905454557838503
0.3590666004769689 -2.5548916173532517
0.39890788585258885 -2.518605268517601
0.43759340772066463 -2.4817155375907642
0.4751143984875969 -2.4442516867846833
0.5135418763198654 -2.4160245738125004
0.5466310620555923 -2.3677192574281216
0.5830317683951991 -2.3384127003251516
0.6185775177950246 -2.3085627248308733
0.650504159728118 -2.2685776024144326
0.684149789051204 -2.2377531289535026
0.7200095968936275 -2.215961682967708
0.7488067552514605 -2.174692723878428
0.7798059267825248 -2.1424991753918707
0.8134952454678314 -2.119227568148648
0.8428648351858024 -2.0861636727752715
0.8674231052461877 -2.043520774664418
0.6304417967674906 -1.4159954593460313
0.6001179316717932 -1.2869570575920428
0.62248702844049 -1.276287545744817
0.640126604632761 -1.2563191991055984
0.6525654722723883 -1.2272971540739084
0.6738853721424085 -1.21572139292376
0.6850000000000002 -1.1864548031846809
0.700451781877674 -1.1657475289548727
0.7206901993571587 -1.1533454107727394
0.7407090876204371 -1.1405919724057767
0.7716862067896305 -1.1440718501259575
0.797271246527954 -1.1386213415616986
0.8052657956406882 -1.1083532822936781
0.8305047319498265 -1.1021170038652641
0.8496128359494084 -1.087454839977276
0.8684621396487757 -1.0724614268106196
0.8870469013674243 -1.0571413315041895
1.3908451414598757 -1.5999843100722766
1.4118655794171908 -1.5680355817573017
1.5208563429393716 -1.6309187546107502
1.549088166123564 -1.604127754755192
1.576848122046001 -1.5768481220460009
1.611321152758579 -1.556034749828154
1.638232291626942 -1.5276763265399966
1.6646444090693633 -1.4988525582438426
1.698096555501237 -1.4761328152286413
1.7235999970177005 -1.4462721217947134
1.7563498728927538 -1.4222640837726326
1.7887844106872588 -1.3975515489892443
1.8129026078073547 -1.3661201025551495
1.84455874717488 -1.3401503752268387
1.8676666609789012 -1.307754274880385
1.8984960411510456 -1.2805517489480103
1.920555600595021 -1.2472233901844119
1.8996277353903943 -1.1870191518823792
1.7057629283972036 -1.0249257690710079
1.723390553531033 -0.9949999999999999
2.0378639176347924 -1.1296064151739653
2.0749268432184786 -1.1032581725468433
2.102775397084548 -1.0714175793853302
2.1391298301920174 -1.0433233293580042
2.1660756110175936 -1.0100576455602717
0.995764548830435 -0.4433429409526222
0.957325047590538 -0.4063603736288447
0.9179120160211195 -0.3708605274817529
0.9149088179672576 -0.35120059055439423
0.8833110635387539 -0.32149893472612856
0.8887874610633578 -0.30603406518972726
0.8939931253174442 -0.2904759747124505
0.9276156132841444 -0.2836005535810546
0.9516490789789357 -0.2728809822588292
0.9659258262890683 -0.25881904510252074
0.9799986835387564 -0.2443411145556644
0.9938574660809399 -0.22945007543074228
1.0074920287558198 -0.2141490415422921
1.0208922707855705 -0.1984413551916066
1.0340481406628184 -0.18233058655027687
1.046949641030846 -0.16582053294264473
1.069489514240896 -0.1503069490368707
1.0918007668054543 -0.13405627774566223
1.1138645228124662 -0.11707187885977188
1.9226557673170688 -0.16821058350298027
1.9552255385092554 -0.1367226885384856
1.9872727741616019 -0.10414855292345822
2.368556260035257 -0.0827118071849273
2.93955222375979 -0.05131007492561352
2.87 0.0
3.069532424130121 0.05357888776246038
3.1280932885697696 0.10923542467882803
3.1856282158670903 0.1669517004149908
3.2420831633444287 0.22670853966840723
3.317328344645513 0.2902286233497017
3.381374444252129 0.35539677511002177
3.4540606077118006 0.4241053150499132
3.5253543247199906 0.49545623941783296
3.605062443172253 0.5709857973968426
3.6930290737957803 0.6511806662509887
3.7890809281079827 0.7365227221534629
3.8441200708838563 0.8170929449137941
3.7708121507188603 0.8705605803107574
3.7259355888998265 0.9289800791027241
3.6705181398984594 0.9835123713895788
3.6143439767280787 1.0363964578719167
3.5574536921824924 1.0876227415685806
2.149387726827047 0.6983784072873811
2.136871980854456 0.7357840290731741
2.3116438471333347 0.841369552581145
2.091220155353732 0.8027442069814726
2.0583481571382682 0.8316266373833248
2.034315726129893 0.8635157939612949
2.0098000068137223 0.8948206147667604
1.9848140536102634 0.9255339932121317
1.9683589613951757 0.9600328114680795
2.0136747446657113 1.0260185294113755
1.995461559861175 1.061005731896113
2.1340720854201254 1.1829354734010624
2.0438199529312753 1.1799999999999997
2.9400838414082453 1.7665805969414858
2.900324488854977 1.8123238836775608
2.851479931014442 1.8517727190510918
2.8104373709615915 1.8956639427658317
2.7687339096967922 1.9386883548665357
2.1115343553186126 1.5341195084833548
2.0684659710224884 1.558700909963805
2.0409478518414095 1.5945632210934548
2.0438938786318332 1.6551126284610727
2.0070364409717225 1.684103537378733
1.9622449085792073 1.705753475375319
1.939607994495999 1.74643088259662
1.9088331612260347 1.780015719763121
1.8774768788838796 1.8130583468979828
1.8243354954612927 1.8243354954612925
1.6393937542832338 1.6976419287992164
1.5754162117443715 1.6894270507402838
1.5456917006889626 1.7166645468527808
1.5286175375478823 1.7584733219190587
1.5041230066665021 1.7925439968984085
1.4789029189671181 1.8262930094238814
1.4529610817685534 1.8597053785118636
1.4263016048703545 1.892766158812084
1.398928900456086 1.9254604466123748
1.3765834472425105 1.9659649062935802
1.2805517489480103 1.8984960411510456
1.1709739252823084 1.8031417210826615
1.0015474094007573 1.602810901735645
0.9682715808309021 1.611474525319971
0.9450000000000002 1.636788013152589
1.7016817670646431 3.0699151720592788
1.643150469750618 3.090316575006244
1.598046559083205 3.1363429651430548
1.5518338596333343 3.1817309238990514
1.5298781075013321 3.2808341890726727
1.4845887472266712 3.334440920395493
1.4261686189858491 3.3598427151014074
1.3673140659680794 3.3842210691687735
1.3080430158403455 3.407568556714786
1.2620543288717179 3.467465770700002
1.2208805792143378 3.5456946584974376
1.171174408681051 3.604504196758632
1.113936194993627 3.643521120219165
1.0639601934536167 3.710470146321911
1.011982466350856 3.7767699807902573
0.9555914876186874 3.832668118790186
0.897554706832022 3.887736558493089
0.810855594189261 3.814775642861842
0.7231660924771053 3.7203670252666465
0.6424982573676425 3.64378868614517
0.5647284187952336 3.5655549095484473
0.4912810463890311 3.4956462826577432
0.42044923474775886 3.424284223162561
0.35330620584466865 3.3614840063447637
0.28935706592222576 3.307366397664595
0.1771814433100781 2.5338126876599536
0.12089605892120056 2.306834225283066
0.06770502360285209 1.9388182044170457
0.032112427844601825 1.83971975908776
