# .PCD v0.7 - Point Cloud Data file format
VERSION 0.7
FIELDS x y
SIZE 4 4
TYPE F F
COUNT 1 1
WIDTH 178
HEIGHT 1
VIEWPOINT 0 0 0 1 0 0 0
POINTS 178
DATA ascii
6.796789735267811e-17 -1.11
0.019372171145384795 -1.1098309416235943
0.028268592329025878 -0.8095065698854677
0.04186876499435518 -0.7989036278036591
0.07952238006830276 -1.1372230172961995
0.10022910415980711 -1.1456239028055073
0.121253017390478 -1.1536453986271968
0.14136843834997107 -1.1513535359039335
0.1628325281232766 -1.1586136404276373
0.1845926687474725 -1.1654722419022625
0.20664133142364718 -1.1719212260845275
0.22706270449808844 -1.16813634830272
0.24949402898131107 -1.1737771208805667
0.27444028629951545 -1.188731479037987
0.29998315054358793 -1.2031667005822355
0.3209356159271257 -1.1977480245984446
0.34454669477124894 -1.2015771199228986
0.3713120649978757 -1.214507040073055
0.39554175279993276 -1.2173523408577966
0.41998291924973224 -1.2197189625231186
0.4480463877566262 -1.2309973332295399
0.47662937289524926 -1.2416619672412783
0.5057189011114814 -1.251698203665163
0.5313943347454123 -1.251886600695319
0.5653639338753624 -1.269828186123215
0.5916655664369792 -1.2688309018513098
0.6268707399083807 -1.2852754862078088
0.6537463196249474 -1.2830493948312496
0.6901231972952595 -1.2979329615026225
0.7223663341670423 -1.3031833636376997
0.7650000000000002 -1.325018867790191
0.7983090161105844 -1.328609316088274
0.651800695006842 -1.043099158272404
0.5337462543147267 -0.8218971565865154
0.6822153422343111 -1.0114258385171508
0.8431573614360377 -1.204153505104818
0.8581664683470107 -1.1811648117874232
0.87263178357047 -1.1580214895685745
0.8803959097156914 -1.1268553776576122
0.8873417513802708 -1.0957758056543287
0.8999026535611551 -1.0724622203665692
0.9119220502968052 -1.0490463165096529
0.9167089307116358 -1.0181084109040301
0.927517769684998 -0.994641034202072
0.9447353838242365 -0.9783021284605655
0.9475230867899738 -0.9475230867899737
0.9567219344504061 -0.9238956327104664
0.9653868861373051 -0.900237835282498
0.9735197213753864 -0.8765610943301043
0.9886695500918313 -0.8594373279775646
0.9958577760546714 -0.835623892592501
1.0025182902794922 -0.8118233044542904
1.008653764616604 -0.7880466884168427
1.022253452860535 -0.7703232296346219
1.0274515828561832 -0.7464872704114409
1.0321315758041296 -0.722706309802318
1.0445873414193525 -0.704583058373141
1.0567249156112344 -0.686245184118934
1.0600601201955324 -0.6623990802915061
1.0714591258776405 -0.6437975936375677
1.1258330249197703 -0.6499999999999999
1.1457518163526084 -0.6351006025227016
1.1743202985023729 -0.6243971785052348
1.3454198515244356 -0.6855256546067156
1.581877521486534 -0.7715332183487762
2.0029402093509963 -0.9339863584469458
2.521385463093578 -1.1225931348892084
6.066126984251582 -2.574918136744314
6.073054247412458 -2.4536731868742234
6.058936967966839 -2.3258079925489987
6.070414330276968 -2.2094501258838197
6.089139626859601 -2.0966589147040895
6.058230008800128 -1.968438254168415
6.072535200365276 -1.856560324989378
6.065561301370792 -1.7392717152052646
6.056354930832458 -1.622795412792805
6.054645331962218 -1.5095926285419268
6.050838102316311 -1.3969460474754014
6.044952172534919 -1.2848942492537525
6.037007178203134 -1.1734753215657505
6.046719603494957 -1.0661998108749522
6.054529527848194 -0.9589432706966152
6.040635219323579 -0.8489559158563991
6.04460606349565 -0.7421843013373481
6.046693123839102 -0.6355330566673331
6.036939870435978 -0.5281638010508084
6.045238144574534 -0.4227242308893993
6.051694980612717 -0.31715589483223955
6.0463145034655295 -0.21114195505013086
6.039080078744603 -0.10541253488119241
6.04 0.0
6.049078555696167 0.10558705894556525
6.026326686925148 0.21044396511608085
7.1801463548853866 0.37629552538676614
9.556663601489117 0.6682670184687204
9.59335494262351 0.8393098026599483
9.179437094249163 0.9647977159604415
9.82749898892162 1.556522927150297
9.79883714247147 1.7277993677859567
9.747557931635303 1.8947333240890898
9.683661247264677 2.0583257390958174
5.92416999389423 1.3677024104106992
5.4530619816711 1.3596010532701326
5.061451329754719 1.3562117963372087
4.729407544016529 1.3561357906196359
4.418127972549224 1.3507572758190436
4.137095845883917 1.344223925531021
3.9049917172251787 1.344596477908057
3.6929919996886205 1.344139163269878
3.5942846420142267 1.3797166057494061
3.616017032810471 1.460965714322057
3.626789122602615 1.5394806462477384
3.6176400122646992 1.6106771065801686
3.842745017035396 1.7919014297805658
3.8288626372344514 1.8674610853214697
3.8224179887680982 1.9476192438826556
3.805504125221975 2.023422435607189
6.0436221763332245 3.350034475902189
2.3902301144450506 1.3799999999999997
2.2886366928746398 1.3751516600098446
2.196444569045143 1.3724908943640006
2.105063125543014 1.3670439778877175
2.0311420527598525 1.3700226135033298
1.9495818654078003 1.3651119185154896
1.876919426949878 1.3636617853185375
1.8049162527068816 1.3601019523236288
1.7415037654708554 1.3606118604697048
1.678635276747057 1.3593320446676491
1.6163537749810435 1.3562818564385977
1.562248831061138 1.3580421900103499
1.4937210992095622 1.344952518781305
1.4480803292059574 1.350356752923747
1.3955192126569833 1.3476372386904547
1.3435028842544403 1.34350288425444
1.2990111527583252 1.3451654266332775
1.2548769825149972 1.3456908109792738
1.2245090096367106 1.3599550306236314
1.167785071603103 1.343383052796534
1.1248783169514438 1.3405777754582116
1.0824310726057205 1.3366910537059897
1.0343112785471058 1.3238580660592927
1.0050310886639207 1.333721301778979
0.9698456662825806 1.3348780407186631
0.934929591252205 1.3352178321910566
0.9003005745879024 1.3347504918136173
0.860529675323743 1.32509949735377
0.8319732448461318 1.3314355109655889
0.7983090161105844 1.328609316088274
0.7700000000000002 1.3336791218280355
0.7369106227744324 1.3294219548518815
0.7042073441788363 1.3244213892883903
0.6764458446119248 1.327599721040668
0.6444055857799439 1.3212272480597755
0.6212488447588281 1.3322724469438754
0.5938354988906686 1.3337763681581973
0.5665601363094469 1.3347320375060385
0.5356874285847544 1.3258729120305057
0.5088824883543261 1.3256842056260265
0.482248402089193 1.3249665953081307
0.459051097784591 1.3331811915950365
0.4326237921249264 1.3314791228132148
0.4063966695646041 1.329263610788619
0.3803795510274588 1.32654114039488
0.3571702822414786 1.3329776402789142
0.3338522159275414 1.339008102260875
0.31043245499453387 1.3446306894036246
0.28483901642033016 1.340062213005314
0.2614083236658666 1.3448292413232998
0.23789800340369469 1.3491866216267252
0.21275087245471408 1.3432561432093875
0.18927541730568906 1.3467645734885358
0.16452361359694911 1.3399373047157848
0.14111342541133218 1.342604558747169
0.11853181013681538 1.354824789404774
0.09417123955456908 1.3467114678507628
0.07065354092797436 1.3481498719186749
0.04746331551540147 1.3591715247459704
0.02356074869033286 1.3497943884611283
