# .PCD v0.7 - Point Cloud Data file format
VERSION 0.7
FIELDS x y
SIZE 4 4
TYPE F F
COUNT 1 1
WIDTH 179
HEIGHT 1
VIEWPOINT 0 0 0 1 0 0 0
POINTS 179
DATA ascii
1.8186004967338196e-16 -2.97
0.05131007492561378 -2.93955222375979
0.10155753540427814 -2.9082273066255686
0.15125091354210807 -2.8860393554407184
0.19950351490819815 -2.853033183743097
0.24752230940334974 -2.829192942580557
0.2947702664147827 -2.8045517449385304
0.34123416153441294 -2.7791292245957013
0.38550948965938137 -2.74304255041415
0.4317591235110373 -2.72601982004258
0.47579600680738937 -2.6983732432534504
0.5209085573779676 -2.6798422108121227
0.5634406821161275 -2.6507799979886135
0.6051183361849972 -2.621055474272283
0.650769899163106 -2.6100955036824303
0.6962232313257808 -2.598340472717594
0.7331953664732178 -2.5569561111959285
0.7777087345624798 -2.543770650861674
0.8188950350936107 -2.5202997681821566
0.8594999277668939 -2.4961690395821963
0.899512976946509 -2.4713915926669388
0.9425077073041394 -2.4553165216876405
0.9777232088155308 -2.419949860419315
1.0198082453570043 -2.4025176675108693
1.0615826384278388 -2.384353644447188
1.1030336631432256 -2.365463324165656
1.1397649816516013 -2.3368645203778344
1.1803752993228218 -2.316616962889756
1.2206260632433164 -2.29566374143321
1.2605050126404764 -2.274011238562429
1.3050000000000002 -2.2603263038773846
1.3442493755152418 -2.2372066548325127
1.3830892796486647 -2.213405530968272
1.4269542717393713 -2.197316888017011
1.4650854070933566 -2.1720784400942095
1.5027702632397406 -2.146178356037159
1.5399973610062796 -2.1196245252623624
1.5827735108898868 -2.1004113914243803
1.625346294859738 -2.080348389521746
1.6676990362820694 -2.0594367978609727
1.7033871656693294 -2.030017774265292
1.7516776074046547 -2.015074579194801
1.8133439432325058 -2.0139224770437383
3.7032510951393665 -3.9712505997920955
3.7858881190015357 -3.9204019118456483
3.6628131265463164 -3.6628131265463155
3.9707556978693543 -3.8345142049336647
4.051699506970205 -3.7782709147462414
3.9535304715397377 -3.559774825829126
3.9773194877740083 -3.4574310827799732
4.429731980304734 -3.587126228984074
4.515301618166517 -3.527740253616022
4.608126892972879 -3.472472683587318
4.700388737318445 -3.4150323158192686
4.808422499976382 -3.3668936813806405
4.907902429525847 -3.310421988546821
5.015249996313636 -3.2569414293898618
3.332829017894754 -2.082582708436495
3.274379088682069 -1.9674454461564068
2.9011851026778697 -1.6749999999999998
2.85126024527443 -1.5804793620030586
2.8254322971485664 -1.5023090009148508
2.869041007886545 -1.4618494091613405
2.930068590935284 -1.4290899385323923
2.981752619350578 -1.3904140811269012
3.051241828526287 -1.3585003878731725
3.1205114532037728 -1.324578525578638
3.180240621164081 -1.2849006154165783
3.2581956884752343 -1.250704143913098
3.326511877582116 -1.2107513073728673
3.4133220579135335 -1.1753010375903357
3.490377414803213 -1.134092369356057
3.5670167397421224 -1.090546458615808
3.6431818276062287 -1.044665578546427
3.7381329477386944 -1.0016297045467553
3.822965161527426 -0.9531722686626909
3.9267113610844984 -0.9065527490057759
4.010405163008603 -0.8524379323528131
4.103201626811235 -0.7975816006739572
4.205129105362128 -0.7414777186377924
4.316198048400752 -0.6836186122258089
4.42649826727482 -0.6221037612914925
4.545861374517255 -0.5581615927955754
4.674252908230884 -0.49128377735797124
4.8016584448022135 -0.42009068004371236
4.947917689288728 -0.3459921097708615
5.093010627248326 -0.2669133768390135
5.236807933580062 -0.18287336272110508
5.409176030796077 -0.0944175188257038
5.58 0.0
5.759122724100814 0.10052586107875303
5.9563693290338104 0.20800100034690577
6.171530524783266 0.32343620958139285
6.394385562165473 0.4471389966998432
6.624694742310108 0.5795856892719269
6.882091515948451 0.7233369658121619
7.414319752760675 0.9103639952364516
8.24893301261728 1.1593119309973452
8.17805946012774 1.2952773705331115
8.09511972976035 1.4273880204221674
8.039526632436367 1.5627256721339018
7.962121469973179 1.692401163256561
7.902141225408258 1.8243530507287449
7.820583553784532 1.949890478533322
7.823999192941453 2.096434265330418
2.9414607895712557 0.8434503088000175
2.6489641740176086 0.8098696220819807
2.4347046817155933 0.7910835055998654
2.240879024170381 0.7715965260634614
2.0391329871054213 0.7421837110167011
1.8764966572593753 0.7203195785860534
1.7431056465855603 0.7042603956219146
1.638498639145344 0.6955014087109073
1.5712981871452734 0.6995870260903763
1.5407232379623048 0.718451044959189
1.500986057319609 0.7320798151377592
1.4879808953945743 0.7581641345650431
1.4833519560029973 0.7887122254802965
1.4781073050655789 0.8193282582163096
1.4722431864335457 0.8499999999999999
1.465756084200612 0.8807151080961926
1.467123206350617 0.9167603271234445
1.467673493904492 0.9531183112762972
1.4591061276968735 0.9841795101085143
1.4662821592772954 1.0267018210683725
1.448140419931156 1.052135601603527
1.453516628286073 1.095303342136728
1.4499397866363684 1.1328171145992114
1.4454914883099657 1.1705359273526978
1.4325031086324889 1.2020128301138284
1.4339482024232668 1.2465121550819638
1.4342695131713707 1.2914220702725963
1.4188261811411906 1.323076818521247
1.4602597946874618 1.4101564920317642
1.4071424945612296 1.4071424945612294
1.3406906549858648 1.3883258146535966
1.295796884118747 1.3895720330764239
1.2445829278274765 1.3822493753879534
1.2005880230526285 1.3811185318076726
1.1505898213389054 1.3712195531829707
1.107603888247714 1.3677768921642686
1.0712509670666455 1.371138711275696
1.0291036895900025 1.3656667221808707
0.9874792238513548 1.3591485505499117
0.9521368843427364 1.3597923935197263
0.9114844326573173 1.351331243264718
0.8768688463741938 1.3502596143921326
0.8478708227731279 1.3568769538502818
0.8086097776087854 1.3457526621023161
0.7800000000000002 1.3509996299037244
0.7466068151793591 1.3469143489946696
0.7135967754345541 1.3420803411455688
0.6855256546067158 1.3454198515244353
0.6531730087157254 1.3392031289857589
0.6254750273762352 1.3413355248142418
0.5979028653214266 1.3429118227346233
0.5665601363094469 1.3347320375060385
0.5394334945189135 1.3351447505761738
0.5124661678497792 1.3350200098909983
0.482248402089193 1.3249665953081307
0.4557954162400194 1.3237260058390434
0.4295336221811769 1.3219685576502633
0.4034729525173767 1.3197005632289889
0.37762317746928886 1.316928523435497
0.3545820917904534 1.3233183820160237
0.32659455905955137 1.3098992304725954
0.30368392336421796 1.3153995874600677
0.27860166569579736 1.3107177849832996
0.25377596385080475 1.305564153985393
0.23095207629701747 1.3097943115062367
0.20649349385310484 1.303748609585582
0.18370849326728642 1.307153850738873
0.15843014642669173 1.2903099971337186
0.13484171761527297 1.2829332450250726
0.11243090814447929 1.2850911605383517
0.09068341586736281 1.2968332653377714
0.06751338355339771 1.2882320998334003
0.04467135577920139 1.2792202585844425
0.022513604304095842 1.2898035267517447
