# .PCD v0.7 - Point Cloud Data file format
VERSION 0.7
FIELDS x y
SIZE 4 4
TYPE F F
COUNT 1 1
WIDTH 173
HEIGHT 1
VIEWPOINT 0 0 0 1 0 0 0
POINTS 173
DATA ascii
8.939921633775678e-17 -1.46
0.02565503746280689 -1.469776111879895
0.051651255119701596 -1.4790984239882616
0.07798057480198652 -1.487958006784315
0.1039371458787466 -1.486370434887138
0.13160517154896412 -1.5042539941185358
0.1578379795341567 -1.5017280620060927
0.1852414019758242 -1.5086701504948095
0.2143265754785008 -1.5250128258620184
0.24247342081235795 -1.5309169279224635
0.27089115716041146 -1.5363000946990446
0.30147821269494096 -1.5509709498473092
0.3305795884002372 -1.555254685166751
0.3599216869501842 -1.5589921036563765
0.39191347087146167 -1.5718790765671145
0.424463233968134 -1.5841183551140718
0.4548016370980486 -1.586081798298226
0.48533702983974303 -1.5874658948986387
0.5222387204936612 -1.6072855125388095
0.556721544121738 -1.6168367642748316
0.5916948479534071 -1.6256682339596213
0.6307275911997283 -1.643101550635075
0.6705458022144828 -1.6596590996745493
0.7072233425655855 -1.6661137847489171
0.7483954232594727 -1.6809236420623856
0.7945223320725149 -1.7038586396289017
0.8329051788992471 -1.7077086879684173
0.8852814744921164 -1.7374627221673171
0.7276809223181309 -1.3685687689313366
0.8968977974557237 -1.6180464582078822
1.0300000000000002 -1.7840123317959435
1.0764295765620135 -1.7914796584674144
1.1340272254590587 -1.814822925774752
1.1927594866829094 -1.8366885438004783
1.252592103774473 -1.8570441625232936
1.3192258036074058 -1.884049701864681
1.3812953428873118 -1.9011899367811267
1.4563923560279568 -1.9326979343144486
1.5391536883141457 -1.9700268840168047
1.611060201087584 -1.9894936613298453
1.5362623871508292 -1.8308462190543575
1.3055574676911097 -1.5018720646433161
1.572456924943317 -1.7463903398718765
1.5890561789456215 -1.7040541247726673
1.6116074194648737 -1.6688683367856705
1.6263455967290592 -1.626345596729059
1.6400947447721246 -1.5838210846465135
1.660172902675517 -1.5481362773418716
1.679507305578911 -1.5122351703710195
1.698096555501237 -1.4761328152286413
1.7159395525865109 -1.439844245697848
1.7330354940490449 -1.4033844720411377
1.7493838730069229 -1.3667684752229616
1.7649844772045171 -1.3300112011660266
1.7798373876248845 -1.293127555043441
1.8103260178786718 -1.2676039243358117
1.8736249139743941 -1.2637759618438877
2.063129597145743 -1.3398120261369664
2.357573707314864 -1.4731755545683096
2.794365400288886 -1.6790241242067765
6.599113576837423 -3.8099999999999996
6.620871183045226 -3.670008825264772
6.622106946441953 -3.521036720894181
6.6469086704452245 -3.386769128057019
6.651075942613836 -3.243946486239173
6.679488390460111 -3.114696589028955
6.668881840790986 -2.969177494453341
6.673660187530193 -2.8328006815472344
6.694267429972205 -2.7046596044628846
6.684435853719965 -2.56591451874435
6.690611459995668 -2.4351834204787615
6.713181886755149 -2.3115338966458125
6.714459005043784 -2.1816599802871286
6.732385481979771 -2.0582968012480665
6.738444488527615 -1.9322178642771641
6.751821525760588 -1.80914512526662
6.753258254880936 -1.6837763933736873
6.762128249609533 -1.561160317146423
6.778562873085273 -1.440828017367072
6.783043837623358 -1.3184901580519246
6.7853254182541125 -1.19643594412515
6.795295783294548 -1.0762691194767884
6.803141632254588 -0.9561192035956496
6.818792061775882 -0.8372423891933631
7.130721989790519 -0.7494690816290753
7.979519531714882 -0.6981174994087419
6.6808315875080995 0.3501275472652942
5.835749694019971 0.408075371403133
5.150326589134324 0.4505951900053927
4.634472032416154 0.4871026388272651
4.466457682385949 0.5484120453231637
4.4958170320867294 0.6318458783586971
4.493981949707877 0.7117768159330504
4.608900284097134 0.8126734714812339
3.2393697053772907 0.6296696847425978
3.0126946102601218 0.6403680077186987
2.81592948722933 0.6501085470537699
2.66831324725899 0.6652852128990863
2.521066406614468 0.6755177077175791
2.3935416228864144 0.686337015984328
2.2664422716323944 0.6929209401928861
2.1588982919899986 0.7014685772311305
2.0517753090505173 0.70648289517203
1.9451637250268303 0.7079816966841341
1.8578250487294314 0.7131522195951475
1.7801930007682318 0.7192446593585511
1.6937289303524903 0.7189452764202636
1.6352463691802557 0.7280585911056823
1.5679124715734043 0.73112959281141
1.500986057319609 0.7320798151377592
1.4523406344270395 0.7400045145754611
1.3950571967171046 0.7417650692017075
1.3381681519232755 0.7417587189768957
1.299038105676658 0.7499999999999999
1.2428925860180629 0.7468052086195786
1.2042282965421247 0.7524853552111509
1.1573653837646851 0.7516018683207372
1.1192007229493064 0.7549104196855082
1.0812806984614691 0.7571208959833808
1.0436319227436823 0.7582429754572904
0.998294387559116 0.7522687789400604
0.9692532269362679 0.7572636146505597
0.9481180729775044 0.7677708770808017
0.9192533317427736 0.7713451316238471
0.8981044004650987 0.7807102444987036
0.8694794458085512 0.7828828094398641
0.8703109049268128 0.8115780484743732
0.8056605763792895 0.778017374914077
0.7778174593052024 0.7778174593052023
0.7571776238003072 0.7840803823691297
0.7297382452668734 0.7825484607325124
0.7092784427403898 0.7877335150060379
0.6757407998602226 0.777350867629455
0.668499114074001 0.7966862208437372
0.6356135949603359 0.7849174210715405
0.6156614753256583 0.7880107536067219
0.5897787226890073 0.782662799846347
0.5819073997695484 0.800926824431198
0.5621049076240251 0.802769003403212
0.5424171163666244 0.8041664453783904
0.5228534736144261 0.805123745227607
0.5034233010215446 0.8056456913486048
0.4789854096663506 0.7971655896529644
0.46500000000000014 0.8054036255195279
0.44117675442416676 0.7959039334968502
0.4272191221351607 0.8034823095016235
0.4131313547629877 0.8108159370114147
0.39453403211016974 0.8089146416692503
0.3803564355666295 0.815677008332985
0.36199561233746236 0.8130554573019148
0.34775070435545363 0.819249319572672
0.3296538022060027 0.8159217920187728
0.31178011610441114 0.8122149710525655
0.29755752469333185 0.8175325800837402
0.28324429437772636 0.8226011607714055
0.2688447851062043 0.8274191691767836
0.2514396660615536 0.8224220901282104
0.23704812600261926 0.8266850585069543
0.22258437878816784 0.8306962106085988
0.20563361125971752 0.824751367334597
0.19120839619228536 0.8282145550674499
0.17672493719509536 0.8314254606237348
0.16218764607006317 0.8343831059305143
0.14586446924022153 0.8272385125302547
0.13140495063379398 0.8296582060999157
0.11690540480645499 0.8318251777429191
0.10358894189437537 0.8436642288951237
0.0878039091448289 0.8353983921093495
0.07321082390803302 0.8368035463970662
0.05859543794506519 0.8379538022182523
0.04448556280650237 0.8488351045413878
0.029315577230100906 0.8394882946960404
0.014660021407318221 0.8398720639313686
