# .PCD v0.7 - Point Cloud Data file format
VERSION 0.7
FIELDS x y
SIZE 4 4
TYPE F F
COUNT 1 1
WIDTH 177
HEIGHT 1
VIEWPOINT 0 0 0 1 0 0 0
POINTS 177
DATA ascii
1.3164953090834046e-16 -2.15
0.03752267384015973 -2.1496725445862412
0.07503391791037732 -2.1486902780910557
0.10205511467374073 -1.9473275927714189
0.1360251238010442 -1.945249898006657
0.4052742037766114 -4.632305346126617
0.485012069561912 -4.614581594508787
0.5654737533998843 -4.605414143615734
0.6457631884547037 -4.5948438389608866
0.7258559177866715 -4.582873900361439
0.8092005079278958 -4.589204129036889
0.8910780084084647 -4.584198946700591
0.9709475961189356 -4.567949295426873
1.0550204448727276 -4.569795603842754
1.1346136903624415 -4.550686956234424
1.2164495119818475 -4.539851383558621
2.839866178305767 -8.740209384752461
3.1059201935212752 -9.02024721121748
2.6574965136404467 -7.301411663506507
2.605334993194332 -6.787129700634656
2.5735472967673165 -6.369753080873829
2.531937712610494 -5.964871450371814
2.4973629884854143 -5.609169109925569
2.463864465948278 -5.283774398423669
2.4417272876151617 -5.006282837886361
2.4152294586143896 -4.740154708682117
2.3896102545801843 -4.494203247651938
2.4240481012316857 -4.373098535696979
2.5000000000000004 -4.330127018922193
2.595791897546674 -4.320123195538645
2.691989862304681 -4.308084328474645
4.515057600274575 -6.952579008267564
4.680444602050151 -6.9390444822856985
4.783627479167724 -6.8317280493701915
4.966785381871397 -6.836193602468305
5.139500297718492 -6.82034725580388
4.373776717796371 -5.401164432125947
4.33881636538414 -5.1707999910531015
4.323429001047444 -4.973536133668067
4.302509798887458 -4.778421227819645
4.276129717591865 -4.585587709152199
4.265202394618243 -4.416746374079318
4.256782822743016 -4.256782822743015
4.2369114239946555 -4.091537802003494
4.2199108583426135 -3.935130537560616
4.221062608711599 -3.8006618441183146
4.20373236184084 -3.6542487914771256
4.1826026594296195 -3.5096203488885043
4.181045272638503 -3.3857437038481257
4.176456994115626 -3.263005819225989
4.168877362446868 -3.141474420853692
4.166437521030979 -3.027094049306237
4.218633028088308 -2.9539186472078875
4.294414625835116 -2.896619239978468
4.394633776034023 -2.8539085434787417
2.018354468852294 -1.2612078488750276
2.0486298486780488 -1.2309409990350295
2.130422493309719 -1.2299999999999998
2.1778030707770957 -1.2071759544133793
2.1632216025043713 -1.1502053288254326
2.165145853777734 -1.1031969143670988
2.157105711118001 -1.0520907522937857
2.1570125331472267 -1.0058314629428646
2.146831825460112 -0.9558311112281304
2.1355712600096615 -0.9064962180951149
2.132522865503611 -0.8615951648565976
2.1285633724136197 -0.8170789249632845
2.1237053229761527 -0.7729655239160113
2.11796160934247 -0.7292726659840311
2.1208560313381923 -0.6891078974561327
2.132559605797569 -0.6519889015317029
2.114775731064302 -0.6064021827973982
2.1153775595730595 -0.5668137087745204
2.1249476405444323 -0.5298089513632723
2.1046393399361083 -0.4858942773827484
2.103017341577682 -0.4470101352581825
2.100682172578001 -0.4083312501058059
2.1074885914461254 -0.3716071002072309
2.1136530488735947 -0.3347697551860941
2.099368305732129 -0.29504697403533875
2.094272379963189 -0.25714431458486114
2.088495980273374 -0.21950977286207227
2.082046919011748 -0.18215550234260555
2.094884505545631 -0.14648859486266314
1.3281772812235833 -0.0696068218031153
1.2992080751248245 -0.04536934571325126
1.2998020037033087 -0.022688128368468567
1.3 0.0
1.3098004806548726 0.022862652432841402
1.3092019833950155 0.04571834068027627
1.3082046905284919 0.06856010267825642
1.2968332653377714 0.0906834158673629
1.3050150545001866 0.1141740229994322
1.302823682932438 0.13693228688062603
1.300235458650132 0.1596488398607432
1.2972511700514573 0.18231676225768573
1.2938717261796304 0.20492914920270244
1.2900981564459926 0.22747911274367874
1.2957478821509165 0.25186787389703913
1.2618104049466095 0.2682060811549095
1.2569373835729536 0.29018686010358585
1.3778199313119148 0.3435290917515282
2.018784976944153 0.5409318042642683
2.0186495614704696 0.5788384472156982
2.0082399875223746 0.6139805799177471
2.006729249382774 0.652025858131139
2.004499380270552 0.6902044874491723
1.992148356066126 0.7250827038504177
1.9885263084390397 0.7633237325314896
1.9749016102272572 0.7979120439758925
1.9698803863882226 0.8361646149670457
1.973258188508018 0.8785511490437284
1.957624819999164 0.9128554453599108
1.9593710209321842 0.9556491000001888
1.9602143532144096 0.9987790994270029
1.9601436561468182 1.0422268693846777
1.9504019469208524 1.0811254531493317
1.9398969044771428 1.1199999999999999
1.945769772593795 1.169136430045823
1.933549659236651 1.208215922451707
1.920555600595021 1.2472233901844119
1.9150767926021464 1.291735607017425
1.9168157836362407 1.3421688610614477
1.909280106724876 1.3871731954102364
1.90873886901303 1.4383379053333953
1.8991059161922 1.4837441555348365
1.888464686340439 1.5292485502511053
1.5857119972562843 1.330570352051136
1.5547017352589103 1.351481599720445
1.5160154439738842 1.3650264369720708
1.4773344772707244 1.377636687326247
1.431486202673916 1.3823701572134046
1.4071424945612296 1.4071424945612294
1.4101564920317644 1.4602597946874616
1.4321965561312469 1.535842773400258
1.4520134157987223 1.6126242712859455
1.0365732658050018 1.1924411367519796
0.9577535384329436 1.1414062202472772
0.9313941787537595 1.1501760229563167
1.8654542702367445 2.387672583428367
1.7934087689931038 2.379933819940933
0.7993879431177635 1.1002631123499287
0.797271246527954 1.1386213415616986
0.693399200303726 1.0280065899682518
0.6590132323681829 1.014791387213963
0.6200055391528497 0.9922162725030185
0.5922937861465625 0.985742395807429
0.5700000000000001 0.9872689603142599
0.639948698725165 1.1544980134240024
0.661954903528106 1.2449561059310867
0.6446665096301565 1.2652292643474823
0.6356381628441623 1.3032513671337922
1.0649980195865627 2.283895623332358
1.012774241258743 2.274728189530076
0.9651058873685061 2.273646988027528
0.9177861538689849 2.2716004436886292
0.8708341173950794 2.2686004363882004
0.8208483439816051 2.25526228988618
0.7813635706971762 2.26924458143836
0.7323702766686255 2.254003943619514
0.6870735060984314 2.2473161765131335
0.644991412611778 2.249352368495666
0.6004601846378481 2.2409479169906383
0.5540011409232389 2.221977213172032
0.5151379144474512 2.231307448358189
0.474038655064491 2.2301765296730767
0.43122832955099144 2.2184774345917204
0.3924448815272627 2.22566552180759
0.3504132016901173 2.212421882933109
0.3131394771601473 2.2281031546685335
0.2717686357934789 2.213377918160148
0.2330984730868672 2.2177838266712495
0.19435730632727813 2.2215141767445927
0.15485937171195804 2.21459219157681
0.08373752998871035 1.5978072556073182
0.0547922098229267 1.5690435984199804
0.026876705913416742 1.5397654505408427
