# .PCD v0.7 - Point Cloud Data file format
VERSION 0.7
FIELDS x y
SIZE 4 4
TYPE F F
COUNT 1 1
WIDTH 180
HEIGHT 1
VIEWPOINT 0 0 0 1 0 0 0
POINTS 180
DATA ascii
4.861847792614993e-16 -7.94
0.14049187182013298 -8.04877394600895
0.2847798930924088 -8.15502914847582
0.33338004126755305 -6.3612701363866355
0.4485341261747252 -6.414336843170669
0.7120624182483688 -8.138910683409561
0.8383182754065807 -7.976065600853551
0.9615491194666137 -7.83118913645003
1.0827667254693094 -7.7042855748094174
1.0903482213304094 -6.88418773394811
1.135659081941725 -6.44064270469984
1.2288099302249493 -6.321679061402956
1.3181601197845936 -6.201455788652328
0.9650400231351814 -4.18004757792866
1.025748837342591 -4.114053879410225
1.087039989430587 -4.056888470414087
1.1494077737568864 -4.00846127206279
1.2045714234576754 -3.939975594567706
1.2607893370497856 -3.8803105864842267
1.2469260315709103 -3.621336144545383
1.2962563432042848 -3.5614350327785926
1.3402961312994226 -3.4915907950995346
1.382298329704716 -3.4213084233514452
1.4730563544045618 -3.4703032975157004
1.5862729079956215 -3.562827284806143
1.6693421338757628 -3.579915758794767
1.709647472477402 -3.505296780566751
1.7614831389894419 -3.457105313850867
1.8027708010978207 -3.3905187565782793
1.8471246531385443 -3.332301084201098
1.8950000000000005 -3.2822362803430223
1.941693542410905 -3.231520723646963
1.9871972408745184 -3.180180360586598
2.0315036006060514 -3.128241218436431
2.1081572460847156 -3.1254716485325074
2.2140050443150376 -3.1619268909555083
2.4157973869220646 -3.325059846881034
2.6419679516374917 -3.5060098891076152
2.912078778290364 -3.727290864559795
3.259879625638158 -4.025616080347109
3.766735392763121 -4.489020436677212
3.831384729304563 -4.407503948500988
3.901031435072144 -4.332534332533209
3.962410471963116 -4.24916500640738
4.029018548662185 -4.172170841964176
4.09414826307011 -4.09414826307011
4.1577840459574045 -4.0151253812530046
4.2199108583426135 -3.935130537560616
4.287945643004565 -3.8608835986906116
4.354674277885394 -3.7854605972752267
4.412415992365313 -3.702456631794466
4.468589278377582 -3.6185922485365656
4.538941940774718 -3.546210097875792
4.608126892972879 -3.472472683587318
4.668028057543446 -3.3915209057275697
4.726507295547482 -3.3095360377455356
4.791837169368142 -3.2321349820609164
4.847515882724551 -3.148013622386856
4.613381643090958 -2.882760797428635
4.12297471637716 -2.47733314031736
3.611325933781109 -2.0849999999999995
3.2973162959155218 -1.8277322683286907
3.037339719434709 -1.6149821759834644
2.806670551193359 -1.4300700741795722
2.615490674730576 -1.2756600371562152
2.4560941028693213 -1.1452954893172955
2.302134553259354 -1.0249763405510164
2.2920570850965767 -0.9729205099382916
2.3179596364169686 -0.93651648353978
2.3432868705079763 -0.8995035533587036
2.3680254043804894 -0.8618907611806852
2.4016171820222647 -0.826943112321178
2.41568355138969 -0.7849031657123664
2.5437706508616746 -0.7777087345624797
6.007885599614493 -1.7227334738562448
6.085332705621131 -1.6305599841458807
6.161377861852578 -1.53620403705789
6.235968414625506 -1.439686747800736
1.3009363089759616 -0.2765225487876199
1.25648279481301 -0.24423551408197736
1.2113135362050158 -0.21358725853032431
1.1951028921201168 -0.18928570269867934
1.1586136404276373 -0.16283252812327656
1.1215771513546937 -0.13771235804781665
1.0939740849051007 -0.11498130959441881
1.0559663799772503 -0.09238508731251766
1.0574178932754137 -0.07394186216877283
1.1084787835775771 -0.05809291142966765
1.4691045157180707 -0.05130226015267642
1.489773065783023 -0.026004085591552432
1.5 0.0
1.5197684966377147 0.02652765778467094
1.5490557818795985 0.054094219888876506
1.567848369564681 0.0821674513014218
1.596102480415719 0.11161035799060048
1.623797357889545 0.1420638606786828
1.6409611273576508 0.1724719643916282
1.6674775347574209 0.20474049692064775
1.6933583975480853 0.23798600264171188
1.728454596041491 0.273760313820404
1.7431097228316081 0.3073572744704667
1.7669289302057951 0.34345619167778063
1.8095730613575407 0.38463662801285475
1.8415594224440945 0.42515749270990477
1.8532648371871532 0.46207082059536536
1.825599811686339 0.4891679952437642
1.7975593714046565 0.5154418553777884
1.7691637985316158 0.5408876537370629
1.7309228596571795 0.5624109297624043
1.7113886218347636 0.5892783595674537
1.6820497912067762 0.612216056552947
1.652437354900047 0.6343112706951815
1.6782027767658854 0.6780379340828008
2.282852036562052 0.9690131986533989
2.329540916988632 1.0371784398432904
2.392652557776756 1.1157122109954465
2.453707746396726 1.1967532307341813
2.423537745792361 1.2348541592915672
2.383958500719103 1.2675732195219052
2.3352346180621866 1.29444168605772
2.2949673200287624 1.3249999999999997
2.2629216738535765 1.359700517762543
2.3236517834686072 1.4519787839989815
2.9101868707706218 1.8898974515021436
2.8684700010404445 1.9348074460087838
2.817883032354132 1.9731029410475984
2.77492829070607 2.016103415363183
2.7632788647636333 2.082279980106087
2.718637099943191 2.124032089873521
2.66561064779741 2.158568941300943
2.6198719954669047 2.1983336251279644
2.5735596685596525 2.2371612888576298
2.5341238548779144 2.281735367683707
2.4866025855051794 2.318794424212495
2.4385619231480278 2.354891875856001
2.3900209204105307 2.3900209204105303
2.3479452921514112 2.4313685251446406
2.29833447341062 2.4646619744566047
2.2549701434293525 2.5043980618588186
2.2043583374081046 2.5358241895485136
2.140482740256176 2.5509279955861968
2.164862145211441 2.6733821074119795
2.124032089873521 2.718637099943191
2.070243679643046 2.747306154562687
2.0219812678861078 2.7830184606498194
1.9731029410475984 2.817883032354132
1.923623587939369 2.8518892495893433
1.879004670801844 2.893413459411713
1.833520654246889 2.934246412701234
1.782031739188788 2.965798860429308
1.7400000000000004 3.0137684051698463
1.6919855746597166 3.052422777916491
1.643150469750618 3.090316575006244
1.5935066540858094 3.1274328999011707
1.5474501481654432 3.1727429834360596
1.4791639160924481 3.1720772546282747
1.3991740521807532 3.1425963742905467
1.3636516384275654 3.212561938549017
1.3148691428898516 3.254415329529423
1.2650388618949095 3.295538905535122
0.7661251210494983 2.104911470560435
0.6446249458251704 1.8721267796866472
0.5840421193686507 1.7974968157978402
0.5291927855481535 1.7309116082930942
0.47960899912157856 1.672595350932675
0.43481599577223484 1.6227553881656347
0.389494251915465 1.5621761193043544
0.3509236447764296 1.5200173010649671
0.31394665313481646 1.4770028771080466
0.2785811332497556 1.4331756878335893
0.24658041228704117 1.3984270092773352
0.21587956175551865 1.36300991002129
0.18649195528648774 1.3269592121137044
0.15843014642669173 1.2903099971337186
0.13275114834991988 1.2630428071177071
0.10720156357961978 1.225319478652847
0.08440533323039152 1.2070525008143873
0.06123306880424444 1.1683965556628513
0.04013442120787624 1.14929945107196
0.01954669520975763 1.1198294185751583
