# .PCD v0.7 - Point Cloud Data file format
VERSION 0.7
FIELDS x y
SIZE 4 4
TYPE F F
COUNT 1 1
WIDTH 176
HEIGHT 1
VIEWPOINT 0 0 0 1 0 0 0
POINTS 176
DATA ascii
1.0593194812624605e-16 -1.73
0.031414331587110475 -1.7997258512815044
0.06526205883367703 -1.8688608465257093
0.10205511467374073 -1.9473275927714189
0.14160564170057421 -2.025055022027443
0.1856417320525123 -2.121894706935418
0.2320531884541907 -2.2078386077175667
0.28395557013399364 -2.31263253332428
0.3409740973521604 -2.4261567684168477
0.4051652644541981 -2.5581128021414066
0.4827419339140665 -2.7377655533739382
0.5686108062221038 -2.9252490066740386
0.6653174106168296 -3.1300723223481786
0.7828296691166506 -3.390807825452619
1.0571986837705478 -4.240192323826105
1.2086849406287719 -4.510873608769949
1.2982519458980661 -4.527542587869482
1.4238502019997281 -4.657204161539982
1.5327242920997393 -4.7172403208239615
1.611562364562926 -4.680316949216618
1.689579508028804 -4.6420815466823875
1.7667539912583297 -4.602551502631204
1.8430644396062879 -4.561744564468594
1.918489840882334 -4.5196788304514826
1.9970769175021799 -4.485508197025171
2.0750556651468344 -4.449971234349952
2.1524023307343705 -4.41307876732891
2.2290933537211752 -4.374842033764886
2.2581582170001346 -4.246977921651438
2.336782369587345 -4.215666988411888
2.67294207859017 -3.9627995968131
2.466378676309498 -3.5223537904426645
2.321751746555269 -3.1956171277810426
2.1785703838104147 -2.8910605463712002
2.1363453193800344 -2.7343973150153253
2.1900349608534344 -2.7044679458702583
2.230473005612292 -2.6581742176228538
2.2765248305970607 -2.6188422433730185
2.1880570827934664 -2.4300835793110793
1.6504360313512463 -1.7698759579183925
1.5977142520556937 -1.6544815407788973
1.56270598642227 -1.5627059864222699
1.5178069787145538 -1.4657291616684842
1.4700209402545326 -1.3708167037256218
1.4491324096809188 -1.3048046823997734
1.4264011066210391 -1.2399515647920587
1.39420088647654 -1.1698734496295016
1.3677768921642686 -1.107603888247714
1.3474983886674945 -1.0527811228068757
1.333721301778979 -1.0050310886639207
1.3025173609436655 -0.9463342561908819
1.286068709533717 -0.9005150050711423
1.268427486009214 -0.8555651423102426
1.2412324405592277 -0.8060657718222399
1.2296697394268177 -0.7683829331381471
1.2086058939899784 -0.7262036856231763
1.1951150572225253 -0.6899999999999998
1.1719904075667904 -0.6496448911300917
1.1566613466451945 -0.615007747249517
1.140488350961111 -0.5811078396666198
1.1324804983369505 -0.5523476449542375
1.1147585780550795 -0.5198204619410604
1.105390003747547 -0.4921513381217182
1.0861957270738796 -0.46106273161734296
1.0755332712974734 -0.4345436483624579
1.0549458819418378 -0.4049557829861893
1.0430588090723585 -0.3796423590914923
1.0306152474032555 -0.35486928835830084
1.027141037598766 -0.3337383539249432
1.0328091364400784 -0.31576144110055565
1.0093247807352348 -0.2894192236078491
0.9949036010777403 -0.26658361645559636
0.9897016408015165 -0.2467603335116611
0.9743700647852352 -0.22495105434386498
0.9585846487191295 -0.20375345700140413
0.952178367944234 -0.18508472551524846
0.9454154428917196 -0.16670225056025312
0.9383039235653808 -0.14861274178821932
0.9407546653044918 -0.13221444591206216
0.9230679210264295 -0.11333848936678716
0.9149601437388115 -0.09616618620624119
0.9065371752634884 -0.07931172590036893
0.8978076452338418 -0.06278082636971277
0.8887802859315708 -0.04657900105622001
0.8794639277768043 -0.030711557098200854
0.8698674947860604 -0.015183593600436656
0.86 0.0
0.8498705408829326 0.014834545471690984
0.8394882946960404 0.029315577230100812
0.8288625138462963 0.04343884368164337
0.8279781617156541 0.057897873207624
0.8268415994161488 0.07233926648055627
0.8254531731556668 0.08675862451215237
0.813887844345884 0.09993286159222092
0.802117135680672 0.11273021177765301
0.7901506724761103 0.1251475720321847
0.7878462024097664 0.13891854213354426
0.7853017467581312 0.15264719630123585
0.7727366045797065 0.16425023574602987
0.7697523511803359 0.17771133293165334
0.7665336237580372 0.19111829752373752
0.7534221445054733 0.20187885517996618
0.7497841228318888 0.21499713753725935
0.7363546620915374 0.22512621263650728
0.7323135175472683 0.2379430856687095
0.7185941174554809 0.2474317973874391
0.7141663917972905 0.2599353089275082
0.7095211241378734 0.2723596416544282
0.7046597294707585 0.28470101099609313
0.6995836886238547 0.296955657651848
0.6942945478083766 0.3091198487376081
0.6978569960182205 0.3254160615403386
0.6920714156503587 0.3375457830275896
0.6771649583831596 0.34503277980205554
0.6798696465013738 0.3614931033451359
0.6734571744973348 0.37330340758967956
0.6668395609140179 0.38499999999999995
0.6600188215406265 0.3965793176807417
0.652997034040448 0.4080378334595678
0.6541630429974308 0.4248184473117211
0.654939682318483 0.44176239374188997
0.6471301149883035 0.4531253847173264
0.6391234255562085 0.4643503493110538
0.6389084080378343 0.48145201852163866
0.6382887104214447 0.49868579501378324
0.6294882287801464 0.5097495167503684
0.6281564433575619 0.5270858399429622
0.618861855782673 0.5379684037722159
0.6168102051462372 0.5553784032778523
0.6070235723439115 0.5660586388518737
0.5970520342810804 0.5765664474809677
0.5939696961966999 0.5939696961966998
0.5835130311855578 0.6042454322844669
0.5796986060531237 0.6216506463762949
0.575452321468618 0.6391045499105591
0.5773319455116465 0.6641444305960392
0.5720809726210201 0.6817795543758904
0.5600951480343553 0.691659905696704
0.5540953277930925 0.7092096782460497
0.5416335208368435 0.7187719590425635
0.5348845795861505 0.7362054648812022
0.5276903214429624 0.7536198807458725
0.5200494002277946 0.7710049424761889
0.5119606929141255 0.7883503338686985
0.5087224936638767 0.814126172310169
0.4995869326627527 0.8314522816810488
0.4850000000000001 0.8400446416709054
0.47996152404387377 0.8658735100680017
0.46947156278589086 0.8829475928589269
0.4630703097343378 0.9088266546721352
0.4559059926606406 0.9347458081511337
0.44797535744514144 0.960686254258849
0.43114084166034844 0.968358185101157
0.4219896187684156 0.9941452417286357
0.4083211868233443 1.0106304014777983
0.4013721034907362 1.045610077676866
0.3899029633912624 1.0712495876959354
0.3776590591703018 1.0968015476952073
0.364640053362438 1.1222466892282812
0.3537697627145115 1.1571287547152729
0.33903394765490896 1.1823518860041322
0.3235238063781509 1.2074072828613354
0.3096600263675746 1.2419785296332755
0.290186860103586 1.2569373835729536
0.2619687304303766 1.2324659769245951
0.23851124422068115 1.22703397930958
0.21532374030699372 1.221161613735138
0.19241439199948404 1.2148566589320196
0.16979118317127986 1.2081270438647158
0.146243212086177 1.1910553819695864
0.12334358665583108 1.1735358365345625
0.10197221901476028 1.1655477967673422
0.08091750954318526 1.157174298301396
0.05966299011695612 1.138437669620214
0.03943643127382622 1.1293116345315781
0.01954669520975763 1.1198294185751583
