# .PCD v0.7 - Point Cloud Data file format
VERSION 0.7
FIELDS x y
SIZE 4 4
TYPE F F
COUNT 1 1
WIDTH 180
HEIGHT 1
VIEWPOINT 0 0 0 1 0 0 0
POINTS 180
DATA ascii
1.0960588852368812e-16 -1.79
0.031414331587110475 -1.7997258512815044
0.06316808903152696 -1.8088973969045634
0.09525144036215802 -1.8175057532533245
0.10044932219154033 -1.4364922323741467
0.12550426955662802 -1.4345203652521135
0.1515662717380975 -1.4420567482839963
0.17792924137151533 -1.44911738139633
0.20458445841129624 -1.4556940610501083
0.22995866360913944 -1.4519018606748526
0.2587357847237263 -1.46736355198819
0.28621349306481736 -1.472440775171496
0.3118675362266389 -1.4672214011007085
0.341925602602675 -1.4810424984735575
0.37014050026749157 -1.4845524612022747
0.40375771035993235 -1.5068442890109466
0.5154418553777884 -1.7975593714046565
0.5525825219259725 -1.8074159887701369
0.5871322893124001 -1.8070073809607916
0.6218351750131694 -1.805940479394695
0.6532584737520274 -1.7948129057010849
0.6701480656497113 -1.7457953975497673
0.7005143296877558 -1.7338338080398923
0.74238914412962 -1.7489592215596366
0.7850017211362947 -1.7631427332502196
0.8283317930117708 -1.7763632625918337
0.8723585821102642 -1.7886001521353423
0.9170608094738847 -1.7998331788605029
0.9577219880832174 -1.801213089432211
1.0084040101123812 -1.8192089908499431
1.0500000000000003 -1.818653347947321
1.1691364300458233 -1.9457697725937948
1.2241135003787034 -1.9589911021213442
1.7755232541489885 -2.734066051502082
1.8565204395228794 -2.7524047408827386
1.9501598835935565 -2.785116950582572
2.033736972931957 -2.7991988005373183
2.1244070317267303 -2.8191833504669437
2.2102246964191132 -2.8289586054481317
1.1201902960687107 -1.383319811393408
1.1505898213389054 -1.3712195531829707
1.1809062521829132 -1.3584772444009894
1.2378916217638878 -1.3748179271331795
1.3026168677193721 -1.3968855700926155
2.848099318881889 -2.949293181388469
2.849640328181787 -2.8496403281817866
2.862972405347832 -2.7647403144268092
2.8815335843795316 -2.687073538646244
2.8982648193618377 -2.609609364799547
2.8980847880554443 -2.519266671323548
2.9416106615768753 -2.4683044211963105
2.9453831939219195 -2.385124282078884
2.4743537663251067 -1.933177032522567
2.475770081146608 -1.8656265717713496
2.4998625126185874 -1.816256429583742
2.490222214638535 -1.74367236650718
2.5700164749206293 -1.733498000759315
2.70890593446372 -1.759184083098537
2.8664025650087197 -1.7911271131082325
3.05151559049952 -1.833535546679793
3.091710691510446 -1.7849999999999997
2.7375596833463085 -1.517454111371035
3.0903165750062445 -1.6431504697506178
3.1096127694174043 -1.5844268440910183
3.11881534065811 -1.5211478793580986
2.4379679471285884 -1.1368431240824814
2.183373643765816 -0.9721005769511624
2.0159056290608444 -0.8557011713915094
1.9285424174989179 -0.779181714305097
1.9605188956441237 -0.7525726940451306
1.9733545036504079 -0.7182423009839043
1.9855890087585655 -0.683693124360029
2.0162398145457257 -0.6551160280748886
2.0273660826416355 -0.6198280140122019
2.0571000293080024 -0.5898639414483783
2.0767405265214967 -0.5564609469704196
2.105541726018912 -0.524970513451279
2.1338704418796652 -0.4926428090130643
2.386680145790486 -0.5073045255953327
3.3964300547289175 -0.660199124002845
3.417282902952362 -0.6025591765042483
3.427278541865128 -0.5428275936896011
3.4362301985332495 -0.4829306603314271
2.977638454923966 -0.3656080302154424
3.470881414835274 -0.36480433680411056
3.476719496340192 -0.304173542189327
3.4814985354067867 -0.24345009336699733
3.505189666988554 -0.18369920641273282
3.517855711107217 -0.12284622839280342
3.529462363902061 -0.061606994723610795
3.54 0.0
3.559457794756753 0.0621305669167293
3.4478983532158805 0.12040326362362835
3.4252993042081883 0.17951232991329732
2.9827165102768745 0.20857185649493468
2.89892657144698 0.2536232113956853
2.87416827761431 0.3020872588435185
2.828756532177768 0.3473276287046703
2.8519720379757225 0.40081853076498847
2.992695672003267 0.4739964290718995
2.905182871386014 0.5122621241174445
2.827086288329272 0.549529906684449
2.8366280421280363 0.6029439033715019
2.8549042898207393 0.6591065892275244
2.8720753497769493 0.7160888109750164
2.8784589623414236 0.7712807544055118
2.8933977047743396 0.8296684410091674
2.907166458127628 0.8888099823571196
3.6520570225733895 1.186625258399798
3.659156887569356 1.2599487577491966
3.683595073480761 1.3407189618366213
3.7063142931938913 1.4227207596948421
3.7180072568128173 1.502172439597807
3.70042951087881 1.5707391365268801
3.672452739723255 1.6350813051647164
3.607104992405867 1.6820206817279837
2.975008293250243 1.4510084958718463
2.940321529821614 1.4981686491405042
2.9225565323630485 1.5539508728212985
3.708387558271038 2.0555927898444692
3.6632874580081762 2.1149999999999998
2.4772134990291046 1.4884600364900566
2.4763004407767637 1.5473642515609582
2.4573047640800927 1.595792372594029
2.77727586805939 1.873296226627002
2.7359678279252324 1.9157452974124938
3.5677649451935185 2.5921329626098064
2.875087836170254 2.166534083347374
2.2537107553152245 1.7607918194313827
2.2226374497669363 1.7998563184025351
2.190887107320277 1.8383725637035022
2.7395957762086622 2.3814942752355415
2.749635854266359 2.4757832435277756
2.7498899180880807 2.5643138338349942
2.841392211337672 2.7439005633130393
2.764787514439401 2.7647875144394005
2.077028527672402 2.150826003012567
2.011895162184371 2.157493419776553
1.9471700645042775 2.1625514421392174
1.9025711840724713 2.1886577826460383
1.8383725637035024 2.190887107320277
1.7809767066710402 2.1993230709232274
1.5576235325739154 1.9936672066250063
1.510555708111641 2.0045751302187047
1.4577074256853333 2.0063621460498697
1.4109980334235732 2.01511402895092
1.375614542538037 2.039432428485403
1.3234728550865162 2.0379694801073804
1.2718062341596916 2.0353154307754227
1.2566929027805327 2.091488213713154
1.2550000000000001 2.173723763498941
1.2702012050454032 2.2915036327052167
1.2910467976612 2.428105880362049
1.3483517842264543 2.6462893768394524
1.3896365353213755 2.8491771267683594
1.4073188115965292 3.0180049308320442
1.3503656550116572 3.032970919373435
1.293320035299496 3.046871064927578
1.2399478242066693 3.0689785586160663
1.1790305540040376 3.071479603175794
1.1355068758412203 3.1197795010092153
0.6641590350925998 1.9288578942226062
0.6365750084123918 1.9591764235680162
0.5876671264927008 1.922172559485701
0.5319800967268083 1.8552350731609555
0.5150498997540163 1.922192394315246
0.48626301015533197 1.9502944098147528
0.47014770357867813 2.0364334354011415
0.428298083084584 2.0149840575116396
0.38734226061438615 1.9927031823987578
0.3525058006638687 1.9991597386147821
0.31443327473086413 1.9852535645962268
0.2755627399009296 1.9607307761083093
0.3985127529348323 3.245625915867123
0.3428533595179033 3.2620318168079363
0.2858708362123194 3.2675186097409252
0.09556636902945158 1.3666627488559593
0.06960682180311548 1.3281772812235833
0.045020350746226394 1.2892141668546335
0.022339080239723006 1.279805049800181
