# .PCD v0.7 - Point Cloud Data file format
VERSION 0.7
FIELDS x y
SIZE 4 4
TYPE F F
COUNT 1 1
WIDTH 180
HEIGHT 1
VIEWPOINT 0 0 0 1 0 0 0
POINTS 180
DATA ascii
5.5109105961630896e-17 -0.9
0.015881689857928077 -0.9098614025923161
0.032107536966301 -0.9194395608575682
0.04867243930593789 -0.9287254673217538
0.06557108531947771 -0.9377102072442347
0.08366951303775202 -0.9563469101680757
0.10139260936962385 -0.964686238507225
0.11943195653704454 -0.9726952286084956
0.1377813699504648 -0.9803653880541546
0.15799880969063324 -0.9975652240010892
0.17712114122026903 -1.0045039080724523
0.19844135519160672 -1.0208922707855705
0.2203863922668248 -1.036836456777834
0.24294713869137438 -1.0523196699680541
0.2661140851596345 -1.0673252989035962
0.287289140063798 -1.0721776671808658
0.311470212073209 -1.0862257164103002
0.33622746043114726 -1.0997504693574907
0.3615498834186885 -1.1127361240653295
0.38742610380401654 -1.1251671049631868
0.41726457485731594 -1.146424997358808
0.4013721034907362 -1.045610077676866
0.28470101099609324 -0.7046597294707584
0.296955657651848 -0.6995836886238547
0.49215133812171846 -1.105390003747547
0.5705346533499442 -1.2235155124994774
0.6049521825689268 -1.2403357838928504
0.6446665096301565 -1.2652292643474823
0.6854284816674007 -1.2891034855740333
0.7223663341670423 -1.3031833636376997
0.7650000000000002 -1.325018867790191
0.813760158357886 -1.3543243351093375
0.863768400700124 -1.3823183967349744
0.9149935788252457 -1.408966554148312
0.9674037230043919 -1.4342350005202222
1.0267018210683725 -1.4662821592772954
1.0932805692640002 -1.5047716095374024
1.1615029946834532 -1.541366534391275
1.237479565404573 -1.5839016147495109
1.139069907800206 -1.406634190237117
1.0477438037890592 -1.248652442283934
1.167785071603103 -1.343383052796534
1.3917916612264252 -1.5457412369929802
1.418556588929997 -1.5212156993678747
1.6185540031694639 -1.6760617347890572
1.725340546095176 -1.7253405460951758
1.7479957148229226 -1.6880198402153634
1.8868925501774598 -1.7595557689612462
1.8950193049673552 -1.7062830462150884
1.9245094295680685 -1.6729505239257934
1.8997902189350655 -1.5941132720226174
1.9739507421007059 -1.5984737932665873
1.8833457011200654 -1.4714309260283234
1.9646433547163404 -1.4804649569540387
1.9982719761061203 -1.4518295731624087
2.0233055493938097 -1.4167337977870837
2.0311420527598525 -1.3700226135033298
2.105063125543014 -1.3670439778877175
2.128600721352629 -1.3300973532253442
2.142918251755281 -1.2875951872751354
1.7060700454553441 -0.9849999999999999
1.7230008230646097 -0.955074951885284
1.836530993146568 -0.9765008505946529
2.2364263757128033 -1.1395161543462622
2.2559730562109093 -1.1003115784405841
2.274832545461991 -1.0607718369691554
2.302134553259354 -1.0249763405510164
2.31967223070015 -0.9846424437929697
2.336503313508304 -0.9440086154080983
2.3619584790379204 -0.9066709123496096
2.3868192567962074 -0.8687311640471985
2.4016171820222647 -0.826943112321178
2.425194116552641 -0.7879933356561158
2.4385771277057406 -0.7455478470429786
2.4608299416020962 -0.7056316308915179
2.4824293735629053 -0.6651649459134783
2.503362973792071 -0.6241584906471428
2.523618467793759 -0.5826232307506103
2.5529652379152328 -0.5426495130343518
2.581679492467356 -0.5018276578403128
2.5998924679522295 -0.4584311890406961
2.617374102577115 -0.4145513323566118
2.6440157435399927 -0.3715921795633747
2.669949147915156 -0.3278285337598467
2.6951543364480206 -0.28327213545534086
2.7196115257904654 -0.23793517770110678
2.7433011382145165 -0.19183030279634458
2.7662038112701697 -0.1449705987929544
2.798294315653468 -0.0977185907670027
2.8095720233894594 -0.04904126208876667
2.84 0.0
2.879561362050407 0.05026293053937651
2.8982333983553774 0.1012085404372528
2.9259845368309017 0.15334435179182543
2.962765229271678 0.20717672702005216
2.9786221472943195 0.26059567081549795
3.0134013429658677 0.31672124370099
3.0371912240224455 0.3729201908197513
3.0698310130988684 0.4314366129762029
3.1013413894687325 0.49120422022632493
3.131688654578822 0.5522012049808385
3.1804720743704316 0.6182211450200052
3.2083241304068824 0.6819503458822506
2.0072023334575846 0.4633991719483619
3.2893025120756283 0.8201152260828737
3.3131255841715044 0.8877493247016461
3.3548033188247333 0.9619743718013272
1.3005744681097284 0.397625518422922
1.3124579924873119 0.42644345223742736
3.488963543961479 1.2013464899469082
1.7008436436224943 0.6190564594194604
1.652437354900047 0.6343112706951815
1.6040280684005421 0.6480694066095278
1.5464481538000998 0.6564282958619798
1.5164854596867174 0.6751828275058283
1.468218614999373 0.6846415840199331
1.447058414541659 0.7057775463304147
1.4256104387013888 0.7263847995832748
1.403886672645694 0.7464597848295664
1.3818991372802454 0.7659991999892126
1.3683201379794132 0.7899999999999999
1.3457526621023164 0.808609777608785
1.3229550300040245 0.8266740522037996
1.2999393803154073 0.8441905042732918
1.2601371102836634 0.8499732132755351
1.2533026277621575 0.8775719476171004
1.2539763412811686 0.9110671410533334
1.2538577507742499 0.9448495863487159
4.90142688743381 3.8294143765255946
2.2692662074543546 1.8376155418655256
3.3629351052923133 2.821837606523907
2.264128740668316 1.9681770869715218
4.837872813857836 4.356040247396167
4.731858449476032 4.412529389604365
0.8632077604063814 0.8335900445507967
1.1172287142747452 1.117228714274745
1.1253465601435757 1.1653304765486148
1.2480569989143722 1.338377273963082
1.204435091445945 1.3376606858593096
1.2989968774012046 1.4943249688410885
1.292003095469944 1.5397493306691457
1.441143695504128 1.7796642517364631
2.45033267179612 3.136282799354753
3.74328944400574 4.9675128724941615
2.0219812678861078 2.7830184606498194
3.5561739053764856 5.07874267459175
3.46699600151863 5.140032949841259
2.243912824261912 3.4553227399351467
3.274901052961206 5.240937234246712
3.1777849221950354 5.288722245332032
3.0100000000000007 5.21347293078232
2.9137058176804858 5.256464439907768
2.8121346610874864 5.2888560812249725
2.719403093439886 5.3371290798883235
2.6214594577986836 5.374788396869019
2.53148338782679 5.428783644349533
2.4322851255932862 5.4630018367027535
2.3404794596507497 5.513824072180118
2.247639560495473 5.563103127400724
1.859929658140108 4.8452824135204775
1.5698724578648198 4.313189129407319
1.3511078409972006 3.9239020887371647
1.1680842387373014 3.5949936315956803
1.0116060983406692 3.3088144556321026
0.8875522857307374 3.095262660921387
0.773868944856537 2.8881182206043143
0.6773813076790695 2.71682803357279
0.5916212729243653 2.5625932703851686
0.5177001101362205 2.4355875258271764
0.45030922908864596 2.316640152936487
0.38897191797392416 2.2059693667473463
0.33320541053569186 2.1037761654676435
0.28252139494893286 2.0102441795453876
0.2376452196400376 1.9354649957005778
0.19442294167783544 1.8498107253849885
0.15600877951830847 1.7831885095842246
0.12067869957733665 1.7257858069494958
0.08740104692571642 1.6677113230401381
0.05618818969102674 1.6090192315007443
0.027051229977789578 1.5497639274924064
