# .PCD v0.7 - Point Cloud Data file format
VERSION 0.7
FIELDS x y
SIZE 4 4
TYPE F F
COUNT 1 1
WIDTH 180
HEIGHT 1
VIEWPOINT 0 0 0 1 0 0 0
POINTS 180
DATA ascii
5.878304635907295e-17 -0.96
0.016754310179792255 -0.9598537873501356
0.033154521867376024 -0.9494212856681409
0.04919579886836733 -0.9387117626692993
0.06487352058203646 -0.9277345667416366
0.08018328332784569 -0.916499122244406
0.09512090157356465 -0.9050149247851287
0.11090110249868422 -0.903216997993603
0.12664752187365957 -0.9011439425548291
0.14079101853620785 -0.888919506535624
0.15628335990023737 -0.8863269777109872
0.16982000588512497 -0.8736481932684209
0.18296228791962812 -0.860769888645749
0.19795692782260133 -0.8574456570110071
0.21289126812770756 -0.8538602391228769
0.22517256923919304 -0.8403554688714894
0.23980449956078928 -0.8362976754663375
0.2514396660615536 -0.8224220901282104
0.2657546151624548 -0.817908604013832
0.27673293128858323 -0.8036907892594192
0.29071712182681847 -0.798738727668022
0.3046127571135051 -0.7935433625226215
0.31841560440352534 -0.7881062763817692
0.3282141479309899 -0.7732240769000499
0.3416587801836723 -0.7673781844197847
0.3549993398621875 -0.7612985411107859
0.36823176330282503 -0.7549869988913003
0.38135201978121935 -0.7484454803182289
0.3943561127401483 -0.7416759780014985
0.40724008100692316 -0.7346805539970924
0.4200000000000001 -0.7274613391789284
0.43263198292444566 -0.7200205325897743
0.4451321819558921 -0.7123604007713978
0.45749678941262284 -0.704483277074156
0.4697220389154273 -0.696391560946235
0.48753997089838913 -0.696279237645643
0.49961746444860217 -0.6876644452187053
0.5115427696792411 -0.6788401835401989
0.5233122540268096 -0.6698091405657136
0.5412155363028602 -0.6683455268529949
0.5527973443304238 -0.6587982210823211
0.5642107649318363 -0.6490502389915839
0.5821436275322066 -0.646535998165333
0.5933385732543737 -0.6362777204086782
0.6112993660039177 -0.6330190242980129
0.6222539674441618 -0.6222539674441617
0.6402124223013995 -0.6182459497085075
0.6582183314572534 -0.6137985240562487
0.6688303429296548 -0.6022175457229725
0.6867857180027226 -0.5970137163813617
0.69710044323827 -0.5849367248147508
0.7072028249258434 -0.5726815558553522
0.7249698933181842 -0.5664085572996057
0.7427310243439824 -0.5596879715314049
0.7604759747124505 -0.5525181371549247
0.7863859625174321 -0.5506333788970041
0.8041664453783904 -0.5424171163666244
0.8135104509070613 -0.5282998639645762
0.8395676151948617 -0.5246200715908729
0.8485956276950912 -0.5098876941609536
0.8660254037844387 -0.49999999999999994
0.8921121012821837 -0.4945058126512638
0.918265496573284 -0.48825042529732643
0.9355568503977864 -0.4766900247265241
0.9527216890771171 -0.46467341559642206
0.9697493321292154 -0.4522015400625484
0.995764548830435 -0.4433429409526222
1.0125553387976844 -0.4298042413382011
1.038445917114802 -0.4195593846258215
1.0642816862068099 -0.40853946248164225
1.0900434401116537 -0.3967433662577757
1.1157119192071938 -0.38417042225944487
1.141267819554184 -0.3708203932499369
1.1571287547152729 -0.35376976271451144
1.1919645029635155 -0.34179032121307895
1.217066541124226 -0.32611199682917613
1.2516814868960355 -0.3120792453235714
1.2861684855165105 -0.29693539173390177
1.3107177849832996 -0.2786016656957975
1.3546455131577761 -0.2633164136196318
1.3885789317472133 -0.24484393051037176
1.4222712104569983 -0.22526562965793245
1.4655967417375242 -0.20597618942089685
1.488819227461983 -0.1828040151077212
1.531563718867141 -0.16097383343218633
1.7333787746796372 -0.15165099238092522
2.38417808012098 -0.1667179722484595
2.3467794066732486 -0.122989497170918
2.3085928104141114 -0.08061783738277724
2.0896816828768574 -0.03647552945392254
2.09 0.0
2.2196618832471886 0.0387443422907694
2.1886659111718196 0.07642989777847713
2.1570397950698794 0.11304566548475868
2.134787067556024 0.14927885381242817
2.1119327599545006 0.1847701746250353
2.0984411992270564 0.22055505749474877
2.074421456930363 0.2547069277167582
2.039952221607635 0.2866965879777348
2.014884214814081 0.319126308682071
1.9893116610846602 0.35076931888719926
1.9730706387298045 0.383526080706855
1.9562952014676114 0.41582338163551863
1.9292527282747658 0.4454030876008526
1.901779623500953 0.4741669153753487
1.8738961030007926 0.5021089474988902
1.8552350731609555 0.5319800967268083
1.8456681790086586 0.5642773901148819
1.816517946123743 0.5902224592561495
1.796485293638702 0.6185794934685978
1.7760190532853668 0.6464180708855138
1.7457953975497673 0.6701480656497115
1.7245619694942247 0.6967682637535964
1.7029339788870148 0.7228525877051564
1.6900590966388116 0.7524627896902303
1.6766694060178025 0.781843784220294
1.6537810451904673 0.8066029100919024
1.639452004506597 0.8353425195207661
1.6157940949318363 0.8591329598981802
1.5918078669937004 0.8823535088483335
1.5761662348876786 0.9099999999999999
1.5600444872778445 0.9373692963362986
1.534967054043131 0.9591538682621009
1.5179937279812177 0.9857966533771989
1.5005580063246255 1.0121391552820518
1.4826652001630751 1.0381733497953933
1.464320759818655 1.0638913066493765
1.4455302731856001 1.0892851919052073
0.9692532269362679 0.7572636146505597
0.9403466133629347 0.7614776731703033
0.9345742206051532 0.7842008838175779
0.9207456878717818 0.8003920153684189
0.906636687082421 0.816339339757807
0.8995650529915796 0.8388579828768731
0.8847879544165409 0.8544297956645666
0.8768124086713189 0.8768124086713188
0.8613763793691567 0.8919813524199274
0.8456779664774982 0.9068785900077714
0.8364132579485728 0.9289310318467427
0.8200737862381342 0.9433869752784649
0.8099123882050396 0.9652159983299123
0.7992368966332937 0.9869753710503529
0.7880466884168427 1.008653764616604
0.7703232296346219 1.022253452860535
0.7582429754572904 1.0436319227436823
0.7399136028928495 1.0567061371327995
0.7269507745119709 1.0777488443215544
0.7080307455195354 1.0902717383290512
0.6994934287878305 1.1194234869264825
0.6850006396303724 1.1400325099338093
0.6650000000000001 1.1518137870333034
0.6496448911300917 1.1719904075667904
0.6337866097609527 1.1919792503595514
0.6219669846431792 1.220678938138064
0.6049521825689268 1.2403357838928504
0.5874393838195722 1.2597678239809433
0.5694313003061204 1.2789636406996412
0.5509308911698759 1.2979118433679409
0.5356874285847544 1.3258729120305057
0.5196335268406852 1.3536916184209424
0.5027696106887332 1.381348152555285
0.481840868596592 1.3993674918869887
0.4604353216186717 1.4170742092797788
0.4444049911785599 1.453583229063814
0.42448152795817873 1.4803430117450112
0.40116951990890715 1.4971850307480559
0.37981737609147825 1.5233642902533144
0.3576721764067456 1.549248403008524
0.33681693912476995 1.5845991131887653
0.31292675241753365 1.6098685808541688
0.28999245670377377 1.6446289475303872
0.2659385905683926 1.6790701790117342
0.2393777336513126 1.703261078235501
0.21449004439305958 1.7468812268887266
0.18606066461642315 1.7702489737555265
0.15862345180073822 1.8130743505269769
0.12835191168919044 1.8355178524780766
0.09525144036215802 1.8175057532533245
0.06247009909747694 1.7889095803641815
0.030890759393991968 1.7697304204268125
