# .PCD v0.7 - Point Cloud Data file format
VERSION 0.7
FIELDS x y
SIZE 4 4
TYPE F F
COUNT 1 1
WIDTH 180
HEIGHT 1
VIEWPOINT 0 0 0 1 0 0 0
POINTS 180
DATA ascii
5.817072295949927e-17 -0.95
0.016230737986673748 -0.9298583564954439
0.032107536966301 -0.9194395608575682
0.04762572018107901 -0.9087528766266623
0.06278082636971272 -0.8978076452338418
0.07844016847289252 -0.896575228282571
0.09198504767553504 -0.8751792679240805
0.10602632876247832 -0.8635151519279501
0.12108059783525696 -0.8615332198051662
0.1345336399345986 -0.8494119729118185
0.14760095101689086 -0.8370865900603768
0.1602795561162977 -0.8245668340960377
0.17256670337874017 -0.8118625086090587
0.18670937510540805 -0.8087271537717452
0.20079517334772415 -0.805345452809077
0.212231616984067 -0.7920591775570359
0.2260226317699393 -0.7882345906694215
0.2368210808254168 -0.7746068523300588
0.25030376544370747 -0.7703557781990744
0.2604545235657254 -0.7564148604794534
0.2701959132272784 -0.7423571704208676
0.27952700064533414 -0.7281927326678174
0.2921931428644115 -0.7232034065620941
0.3047702802216335 -0.7179937856929035
0.3131872151683663 -0.7034300023848027
0.3254160615403386 -0.6978569960182205
0.33316207155969885 -0.683083475187367
0.3450327798020556 -0.6771649583831595
0.35679838771727707 -0.6710401705727844
0.3636072151847528 -0.6559647803545468
0.3750000000000001 -0.649519052838329
0.3862785561825408 -0.6428754755265842
0.3974394481749037 -0.6360360721173195
0.4084792762612704 -0.6290029259590679
0.4193946776030601 -0.6217781794162813
0.43018232726328454 -0.6143640332167438
0.44083893921935485 -0.6067627457812106
0.4513612673640362 -0.5989766325354696
0.46174610649424375 -0.5910080652050415
0.4719902932873781 -0.5828594710927281
0.48209070726490455 -0.5745333323392335
0.49204427174288057 -0.5660321851670789
0.5018479547691437 -0.5573586191080457
0.5114987700468738 -0.5485152762143779
0.520993777844248 -0.5395048502539883
0.5374011537017762 -0.5374011537017761
0.5466982482573749 -0.5279403615488379
0.5558288132305695 -0.5183187536474988
0.5647900673628197 -0.5085392608327323
0.5811263767715344 -0.5051654523226906
0.5898542212016131 -0.49494645945863525
0.5984023903218675 -0.48457670110837486
0.6067682802771759 -0.4740593360007569
0.6229356978368884 -0.46941571805859766
0.6391234255562085 -0.4643503493110538
0.6553216354311935 -0.45886114908083686
0.6632300580440335 -0.4473543227765975
0.6793231600357935 -0.4411576183621719
0.6869189578867051 -0.429234604028896
0.7028771865757321 -0.4223312214262444
0.7188010851410841 -0.4149999999999999
0.7259343569256984 -0.40239198480445976
0.7328465020729094 -0.38966139711228936
0.748445480318229 -0.38135201978121924
0.763974939354292 -0.37261547477071577
0.7794246968515189 -0.36345170509700153
0.7947845481490627 -0.35386087947594613
0.8008392225036232 -0.33993608178566814
0.8251936305644408 -0.3333998681401617
0.8402223838474816 -0.32253115459077025
0.8551202849151767 -0.31123833042635857
0.8698770895513716 -0.2995227021005842
0.8749719949915413 -0.2842956348249516
0.8989264706052533 -0.2748294024393725
0.9228112281007861 -0.2646118615843192
0.9466073097632869 -0.2536426642004703
0.9605927690132365 -0.23950267664367106
0.9743700647852352 -0.22495105434386498
0.9879290767411437 -0.20999080772593692
1.011075998951094 -0.19653326523784115
1.0340481406628184 -0.18233058655027687
1.0568265244367974 -0.16738487759304704
1.069489514240896 -0.1503069490368707
1.0918007668054543 -0.13405627774566223
1.1238097417661488 -0.1181171634924484
1.1456239028055073 -0.10022910415980689
1.1771255793065925 -0.08231263901806785
1.1983554417054885 -0.0628031474915326
1.219256808963297 -0.04257738597705118
1.239811141993925 -0.021640983982231556
1.28 0.0
1.3197989576064366 0.023037176497214238
1.3391837082055884 0.046765325581351304
1.338163576571129 0.07013018136554473
1.236979422322182 0.08649802744271537
1.1954336377100947 0.1045868912971898
1.1834810554882451 0.1243888712885076
1.1712044589367598 0.143805825218074
1.1586136404276373 0.16283252812327656
1.1555953584963112 0.1830283240970701
1.132528915964039 0.19969540431696986
1.1190549891303367 0.21752225472926107
1.1053067888292003 0.234940210624068
1.0912944725594635 0.2519451808651288
1.086731213429116 0.27095252307162787
1.0818369254437565 0.28987733051482323
1.057387865532151 0.3032010913986991
1.051935231559339 0.3216088751950104
1.0366516027617174 0.33682852386869266
1.0306152474032555 0.35486928835830084
1.0148680304487812 0.36938175479172225
0.998931056352006 0.3834537060134713
0.9828148858407947 0.39708298902086675
0.9757351446595869 0.4141749961986302
0.968358185101157 0.43114084166034816
0.960686254258849 0.44797535744514144
0.9437337486141254 0.4602897041285313
0.9355568503977864 0.4766900247265241
0.918265496573284 0.48825042529732643
0.9183506924963656 0.5090501012586539
0.9006664199358163 0.5199999999999999
0.900025665737218 0.5407899786555569
0.8904505009642473 0.5564152274448652
0.8806040963426953 0.5718709867657783
0.8704894511827939 0.5871525486442841
0.8601096465034415 0.6022552581685984
0.8494678440936949 0.6171745149070968
0.8385672855496575 0.6319057743096507
0.827411291287058 0.6464445490919413
0.8160032595298193 0.6607864106023295
0.8043466652749269 0.6749269901708662
0.7924450592339106 0.6888619804400327
0.780302066751264 0.7025871366768012
0.767921386700129 0.7160982780656234
0.7553067903555838 0.7293912889819472
0.7495331880577405 0.7495331880577404
0.7432844563911272 0.7696935863623567
0.7229182616662484 0.7752349237163207
0.7159697488039783 0.7951649632608119
0.7019831610198429 0.807539250838366
0.6942106184614626 0.8273279985684963
0.6733728184233262 0.8315461787589588
0.664914393351711 0.8510516138952597
0.6559783752357327 0.8705127059515493
0.6406859249987957 0.8818285238686928
0.6309340799861507 0.901067248717891
0.620704122852529 0.9202317055360965
0.5664245964156283 0.8722173906632409
0.5246200715908729 0.8395676151948618
0.48928617116455164 0.8143089356670066
0.46000000000000013 0.7967433714816835
0.42663246581677666 0.7696653422826683
0.3943561127401483 0.7416759780014985
0.3722722097864284 0.7306253498344616
0.35069691743126197 0.7190352370393337
0.3254160615403386 0.6978569960182205
0.3050524823068503 0.6851590932319507
0.2813264125122771 0.662763494485757
0.2659706813252976 0.658300536742419
0.2472738851862571 0.6441704942830692
0.22915349602819812 0.6295940559265586
0.2116193003971519 0.6145870741395559
0.1946807064562169 0.5991656052659468
0.1812704569280968 0.592908948697082
0.1681387870483695 0.5863696345223746
0.15529142706151244 0.579555495773441
0.14031469944780725 0.5627715212400779
0.13047161151944178 0.5651346375754364
0.11643054685794518 0.5477626564109312
0.10494494745709972 0.5398949508962152
0.09377001594014243 0.5317961866265923
0.0844746111217247 0.5333517039213744
0.07654520552803601 0.5446474378078637
0.0682468323068826 0.5558258449191403
0.060626508695239 0.5768226993135984
0.04880721593868868 0.5578690309313775
0.03906362529671013 0.5586358681455016
0.029308135496048625 0.5592325394625614
0.019892713120425613 0.5696527714008845
0.010122395733624487 0.5799116631907069
