# .PCD v0.7 - Point Cloud Data file format
VERSION 0.7
FIELDS x y
SIZE 4 4
TYPE F F
COUNT 1 1
WIDTH 176
HEIGHT 1
VIEWPOINT 0 0 0 1 0 0 0
POINTS 176
DATA ascii
5.0822842164615156e-17 -0.83
0.014834545471691059 -0.8498705408829326
0.03036256213117594 -0.8694700195066133
0.04605564149379069 -0.878793990584025
0.06208326163227146 -0.8878320047312436
0.07844016847289252 -0.896575228282571
0.09616618620624119 -0.9149601437388115
0.11333848936678717 -0.9230679210264295
0.13360617692166285 -0.9506573459919075
0.1533057757394263 -0.967934573783235
0.1684387323369225 -0.9552635204218417
0.19080899537654492 -0.981627183447664
0.21206992463411442 -0.9977105527484819
0.23394909651761975 -1.0133448673766448
0.25643720933564773 -1.0285134698525562
0.2795245687107224 -1.043199892392194
0.3004447178405291 -1.0477752485727676
0.32745630928946523 -1.0710613266785998
0.35536954353118955 -1.0937149937394264
0.384170422259445 -1.1157119192071936
0.4138443734240593 -1.137028071150949
0.4407925779407192 -1.148303924591558
0.4757503736382085 -1.17752349529982
0.5118577783209486 -1.205861358022697
0.5450271017215725 -1.2241509132410853
0.5832132012021651 -1.250704746110577
0.62248702844049 -1.276287545744817
0.6673660346171338 -1.3097795905569005
0.7089020598066952 -1.3332508652169797
0.7563030075842859 -1.3644067431374574
0.8100000000000003 -1.4029611541307907
0.8652639658488913 -1.4400410651795486
0.9273587124081086 -1.4840841682737456
0.9857966533771992 -1.5179937279812175
1.062466516594419 -1.5751713878545792
1.1414171083385816 -1.6301125681350936
1.2284711772912689 -1.6908455182436402
1.3179749007029857 -1.7490117670035712
1.416021393249014 -1.8124247332954602
1.5292485502511053 -1.888464686340439
1.6648199090881368 -1.984055107678153
1.8238441005936104 -2.0980926330193057
1.9940092069493975 -2.2145715799226346
2.1960347194012453 -2.354958919213729
2.5285564684707507 -2.61839687323269
3.1678383797157332 -3.167838379715733
3.330543275567955 -3.2162682552251574
3.5251248418044017 -3.287232095501243
3.596820955310588 -3.238592134776874
3.720718230498266 -3.2343710129232006
3.7689386601453716 -3.162515039657773
3.815786670753727 -3.089963120054702
3.85337258513687 -3.010584614342469
3.897341289030789 -2.9368573129819953
3.9480029325497434 -2.868392031187269
3.99746197613028 -2.7990530093931048
4.0374129783430535 -2.723269439902537
4.1010990772531235 -2.6632848812234817
4.138474709243359 -2.58600600945804
4.105831370363118 -2.4670323788191593
4.148261684127461 -2.3949999999999996
4.3140250662944535 -2.0116629258857293
3.9373809224396092 -1.7530349316566984
3.6359941711371397 -1.5433879575326312
3.3749492306231064 -1.3635680000339199
3.220852471415346 -1.236369425931286
3.2607333941271026 -1.1868098973400705
3.2620390858176433 -1.1232101328771906
3.28114498121828 -1.0661086305935685
3.1653687422376477 -0.9677503426322586
2.499280409439629 -0.7166571251241979
2.279584950042201 -0.610812946441949
2.1928683413837518 -0.546743484055249
2.1046393399361083 -0.4858942773827484
2.034547009526316 -0.4324563169009394
1.963254366895328 -0.3816179907530896
1.9006789633135615 -0.33514098289717553
1.8469771969129076 -0.2925324496252317
1.7923852044222424 -0.25190331273771843
1.7468812268887266 -0.21449004439305955
1.6906872221260645 -0.17769838755501088
1.6536831988322975 -0.14467853296111255
1.606078120918317 -0.11230792272804174
1.5778346649122268 -0.08269081086385126
1.5290679653392165 -0.053396229954826485
1.489773065783023 -0.026004085591552432
1.46 0.0
1.4197837271220755 0.024782417140942585
1.389153249556543 0.048510300416476346
1.3581361672662204 0.07117690049040361
1.3267601868455663 0.09277611007968666
1.3050150545001866 0.1141740229994322
1.27298802607139 0.13379643298259644
1.2406826895516525 0.15233667925643435
1.2081270438647158 0.16979118317127984
1.1852260087141653 0.18772135804827703
1.1620731485544054 0.20490484964697778
1.1288712609648135 0.2194303446830265
1.1053067888292003 0.234940210624068
1.0815507719116113 0.24969567032169016
1.0673252989035962 0.26611408515963453
1.0528591506550846 0.2821127591617476
1.0285500146540012 0.29493197072418914
1.0136830413208178 0.30991400700610094
0.9890987769469597 0.3213776741499453
0.9644289471113032 0.33207951754629983
0.9396926207859084 0.3420201433256687
0.9242446222322297 0.35478427004984725
0.9086401774754517 0.36711446154759375
0.8928897078488671 0.3790091946345955
0.8861390939133228 0.39453454378352615
0.8700554755551839 0.40571353127107146
0.8538543439842087 0.4164525894496235
0.8286360674951821 0.4222111647577785
0.8123117854302129 0.43191383776301956
0.8046501305682441 0.4460248506266301
0.7794228634059949 0.44999999999999996
0.7714505706319011 0.46353426741904874
0.7632432865407833 0.47692733780988444
0.7464168054714274 0.484728741163374
0.7295530638484368 0.49208975505425717
0.7126622785314228 0.4990114996254101
0.7038447851062043 0.5113731694944517
0.6868265386406718 0.5175609199107615
0.6698091405657136 0.5233122540268096
0.6605740672384252 0.5349223323923619
0.6434773322199415 0.5399415921366929
0.6339560473871285 0.551089584352026
0.6168102051462372 0.5553784032778523
0.6070235723439115 0.5660586388518737
0.5970520342810804 0.5765664474809677
0.5868986283848344 0.5868986283848344
0.5765664474809677 0.5970520342810803
0.5592386552512487 0.5997100353277197
0.5486870972142637 0.6093787568914633
0.537968403772216 0.6188618557826729
0.5335137160398277 0.6358168877887517
0.5160427206608668 0.637259688394716
0.5109990245202963 0.6540489254935792
0.49348831898467954 0.65488111823878
0.48198390687982795 0.6633939353874568
0.47033267780785776 0.6717046763169733
0.45853818084601233 0.6798108094951342
0.44660400871232225 0.6877098657152476
0.43983298931356 0.7038799198098336
0.4274816021753451 0.7114488595827531
0.4150000000000001 0.718801085141084
0.3975438886019964 0.7171881598543045
0.3896613971122894 0.7328465020729092
0.37681211478382387 0.7395354150763452
0.3638480518349343 0.7459990584283086
0.35077315724478053 0.7522354632404195
0.3416587801836723 0.7673781844197847
0.3282141479309899 0.7732240769000499
0.31466953846936624 0.7788344378361013
0.3046127571135051 0.7935433625226215
0.2941373232600752 0.8081356538758812
0.2799886128331548 0.8131459750154124
0.2688447851062043 0.8274191691767836
0.25728710015600836 0.8415481852474712
0.24256087311895927 0.8459102924257206
0.23034895014124346 0.8596739853972708
0.21531048708370423 0.8635631963856368
0.20020643836604 0.8671893576588594
0.18712052173598331 0.8803328406604252
0.17363618579265588 0.8932807369373742
0.159756323453576 0.9060231327712314
0.14548405248741478 0.9185501567534782
0.13082271490246153 0.9308519846170761
0.11699456966894159 0.952844305575669
0.10034732473694731 0.9547410195535423
0.08366951303775202 0.9563469101680757
0.06766377953180147 0.9676371287520295
0.051289237118085085 0.9786569440594823
0.034550501735476066 0.9893969187489048
0.0174524064372836 0.9998476951563913
