# .PCD v0.7 - Point Cloud Data file format
VERSION 0.7
FIELDS x y
SIZE 4 4
TYPE F F
COUNT 1 1
WIDTH 142
HEIGHT 1
VIEWPOINT 0 0 0 1 0 0 0
POINTS 142
DATA ascii
9.797174393178826e-17 -1.6
0.028098374364026596 -1.60975478920179
0.056886179625076756 -1.629007048041126
0.0858309682384281 -1.637752436997501
0.11440061694036538 -1.6360050424261117
0.14467853296111288 -1.6536831988322975
0.1756078182896578 -1.670796784218699
0.20717788378875074 -1.6873284577902474
0.23798600264171194 -1.6933583975480853
0.2690672798691972 -1.698823945823637
0.3021478291404589 -1.713565490241242
0.3358238318627191 -1.7276638428678885
0.3700828096556114 -1.741102729306174
0.40491189781895726 -1.7538661166134235
0.4427170689473919 -1.7756411790850737
0.47881523343966337 -1.7869627786347764
0.5181982289359583 -1.8071719883640394
0.5555062389731998 -1.8169790363297673
0.5964027991436486 -1.8355390764496462
0.6348579011914557 -1.8437612224186677
0.6806200852180809 -1.8699883153639576
0.7203195785860532 -1.8764966572593753
0.7641974505684609 -1.8914550633162461
0.816628058542582 -1.9238551437156002
0.8582143168899388 -1.9275809156258876
1.7200563252846468 -3.6886726932391656
2.0734955243123365 -4.251295838995061
2.3244313586664798 -4.561953403844443
2.413083832719479 -4.538350627294884
2.4919214480661727 -4.495545294696494
2.5050000000000003 -4.338787272960037
2.4670323788191606 -4.105831370363117
2.442927808115075 -3.9095017232811244
2.5107859514192756 -3.8662713182284048
2.5890631430695574 -3.838443960929843
2.6843377221228955 -3.8336315672724814
2.329024139598427 -3.0907194238830233
2.3887665242635543 -3.057481723994081
2.6225734475210807 -3.1254613279254304
5.36656285714235 -6.173524366222274
6.970402665281529 -6.731239609747683
4.739576163799009 -4.120050702060386
4.780117325062423 -4.010994684444005
4.826076420647788 -3.908079628419491
4.822625812073138 -3.767848228993029
4.887649321489432 -3.6831079416905355
5.0159053651246746 -3.6442685642133337
4.478500832828565 -2.908372446980244
4.52009635251375 -2.8244696783629823
3.9649790326382375 -2.020257723840983
4.017609386957276 -1.959519026147176
4.123700431016757 -1.9229130909201824
4.25712183261452 -1.8953927567332287
4.2987576656228965 -1.8247143700449082
2.9082273066255686 0.10155753540427782
2.8860393554407184 0.15125091354210768
2.9428139482664815 0.20578159754516964
2.9686602003134017 0.2597241133880213
2.9835656861048196 0.31358538980296036
2.9974893779567924 0.3680454170835454
3.0302202903492055 0.42586968893780025
3.0519569724389757 0.48338249697431335
3.062752111867967 0.5400458325441533
3.0921256278601414 0.6010483354361161
3.1202908463408403 0.6632382937086522
2.9425975956514105 0.6793521841184722
2.8526694352514297 0.7112503730630231
2.7818663797125165 0.7453988498952597
2.7588210673429754 0.7910792111947876
2.983670838604671 0.9121997187349385
3.014849156655637 0.9795838721685832
2.9027420270899027 0.999494234183471
2.8284747885655843 1.0294806314102627
2.763398062431717 1.0607691306540887
2.7073768553350193 1.093851252774463
2.641848929408504 1.1213983387642157
2.4483018264821705 1.0900542034431444
2.428904869258222 1.1326169414650746
2.408768044081768 1.1748346733947275
2.378987419582942 1.2121546343045897
2.5782069711480666 1.3708569633348011
2.623859121418187 1.4544288607390112
2.580755703277627 1.4899999999999998
2.5286435370712317 1.5193623209846598
2.255807935776093 1.409585242860325
2.205703593696465 1.4324006620895209
2.2052399429964114 1.4874531232321866
2.244476601351838 1.5715994356018663
2.2895180940811013 1.663432263987699
2.6035517627541744 1.9619169754756771
2.655596239654653 2.0747791718474686
2.696696486255689 2.1837417569429363
4.083016881824153 3.4260579596292544
4.0301491583896025 3.5033552148093086
4.124453781399538 3.713674865291663
4.110207803099738 3.8328307835512416
4.013916085889674 3.876193707161205
3.9173715677734737 3.917371567773473
2.375731626969771 2.4601421171581865
2.3597143258162445 2.5304838076023297
3.6333791925286 4.035276402342251
3.4049463604607335 3.9169427213561865
3.0660968982047927 3.654031993677525
2.9892718574867283 3.691443316920611
2.912078778290364 3.727290864559795
2.966948064139598 3.9372730645331533
3.1035061321042585 4.271609730299723
2.999804762115971 4.284165191631428
2.918986956117298 4.327576128737317
2.8321229820781415 4.361086953316205
2.3051487994144413 3.6890092182804533
2.075603441887519 3.4543842218295127
1.8950000000000005 3.2822362803430223
1.842276556936081 3.3235548871297036
1.798076085469962 3.38168928064969
1.74332351899986 3.4214650528833324
1.69649633807373 3.4783329591777767
1.6439850381713208 3.5255372915725682
1.5944076408571375 3.5810981939589954
2.0239872455744377 4.768215140883641
1.940462153894425 4.802812366655958
1.7022477603401758 4.434507025861708
1.7066805151950875 4.689066177721683
1.6896987216326438 4.907241407360455
1.6068883707497268 4.945493884734798
1.5203328645582312 4.972784731007785
1.4360706238065657 5.008173435838642
1.3510354154351583 5.042132813228936
1.1467097851424248 4.599201742548224
1.0212777867211478 4.423640094124968
0.9356026086799165 4.401664203302126
0.8586404791944521 4.417322325514488
0.7796803177245176 4.421786811024814
0.7008264033802346 4.424843765866218
0.6262789543202946 4.456206309337067
0.5532868190593696 4.506159528451602
0.4756045078678232 4.525074623925644
0.3983017443567987 4.552609770279277
0.370406875581305 5.297065106879666
0.2794740063373208 5.332681715589424
0.1870613023254058 5.356734832822354
0.09441751882570427 5.409176030796077
