# .PCD v0.7 - Point Cloud Data file format
VERSION 0.7
FIELDS x y
SIZE 4 4
TYPE F F
COUNT 1 1
WIDTH 169
HEIGHT 1
VIEWPOINT 0 0 0 1 0 0 0
POINTS 169
DATA ascii
3.9801020972288984e-17 -0.65
0.011344064184234339 -0.6499010018516543
0.022335677889600693 -0.6396101292922213
0.032448292870625256 -0.6191503115478357
0.043946578458798895 -0.6284653516636892
0.053165003076071596 -0.6076787658359648
0.06480764722594515 -0.6166035751283294
0.07434029947713997 -0.6054531525012063
0.08489559158563993 -0.6040635219323579
0.09229633437373624 -0.5827361209511313
0.10245242482348894 -0.5810365742772027
0.11257730727216149 -0.5791600382341218
0.12266789758247794 -0.5771070844329453
0.13047161151944178 -0.5651346375754364
0.14031469944780725 -0.5627715212400779
0.14752685570843682 -0.5505777209847689
0.15435691925751954 -0.5383065497254587
0.16665187169195994 -0.5450937108989301
0.17613968679372002 -0.5421022142882375
0.1823181664960078 -0.5294904023356174
0.19153128026237456 -0.5262278676401088
0.20426973124082107 -0.5321408431034049
0.20977969231291085 -0.519222958557401
0.2188094319539933 -0.5154827179333666
0.22777252012244822 -0.5115854562798565
0.23666622657479172 -0.507532360740524
0.2454878422018834 -0.5033246659275336
0.2587745848515417 -0.5078737187873696
0.2629040751600989 -0.4944506520009991
0.2714933873379488 -0.48978703599806167
0.28500000000000003 -0.49363448015712996
0.2884213219496305 -0.48001368839318287
0.2967547879705948 -0.47490693384759863
0.31044424995856545 -0.4780422237288916
0.31873995497832563 -0.47255141635637377
0.3212028043565858 -0.45872514480183546
0.329159741283785 -0.45304951684997063
0.3430345631966675 -0.4552222407269569
0.3447704261823687 -0.4412860220197643
0.35871262289840733 -0.4429731980304733
0.3663889375213274 -0.43664533257781746
0.3739536465245892 -0.43018446072697997
0.37471313956096064 -0.4161611022673408
0.38873906523562407 -0.4168716099229271
0.40290185486621843 -0.4172170841964176
0.41012193308819755 -0.4101219330881975
0.4172170841964177 -0.4029018548662184
0.42418514693911885 -0.3955590488362491
0.43845544703166256 -0.39478705775172634
0.4452786523314355 -0.3870748271043993
0.4596266658713868 -0.38567256581192355
0.46628757687418243 -0.3775922346299025
0.4806865597001003 -0.37555349994865156
0.48716766112884863 -0.3671071641227494
0.5015905365124674 -0.3644268564213333
0.507874267459175 -0.35561739053764857
0.5222936707096762 -0.3522915291865705
0.5367491634850714 -0.34856898240961726
0.5512312625016769 -0.3444475217515832
0.557158745456373 -0.33477474869153523
0.5629165124598852 -0.32499999999999996
0.5772490067120012 -0.31997434936258246
0.5827454112868918 -0.3098512314386879
0.5969743712062066 -0.30417363482549636
0.6111799514834336 -0.29809237981657266
0.616289295184922 -0.28738041798367564
0.6212109111969686 -0.2765809172915441
0.662763494485757 -0.2813264125122771
5.702180705585743 -2.303830549507859
5.582810950453267 -2.143040338280896
5.54418646263686 -2.0179188456214456
4.4155717480488095 -1.5204032813149218
4.355838844631803 -1.415297834237259
4.31293444939329 -1.3185963882995426
4.258389313006752 -1.2210734862693062
4.201777344357446 -1.1258628461959652
4.162568665724025 -1.0378449321225747
4.10209797274584 -0.9470439387876716
2.1127988175850203 -0.44908925216636014
2.0810496289090477 -0.404515070198275
2.0680962813256367 -0.36466117310055374
2.044514865031935 -0.3238193426332779
2.039952221607635 -0.2866965879777348
2.024794149348297 -0.24861346054650085
2.0188794475975946 -0.2121927804333365
2.0023513431644084 -0.1751830429227929
1.98515246001705 -0.13881538275080935
1.9673001834665105 -0.10310183379859934
1.9687999292276186 -0.0687520085039269
1.6997410817658651 -0.02966909094338197
1.68 0.0
1.6797441278627372 0.029320042814636297
1.658988772851699 0.057933164526151604
1.6477387323450468 0.0863543278008573
1.6260294019235133 0.11370305220292423
1.6038734639277104 0.14032074582372966
1.5812898136355547 0.166200256595569
1.5682229195932889 0.192553562580133
1.5943315906739284 0.22406869254570536
1.6790701790117342 0.2659385905683925
1.7529578003617303 0.309093756247136
1.8356428330471317 0.35681282135413883
1.9465137254602733 0.41374426472734105
2.046177136048994 0.4723972141221165
2.163759469595472 0.539485827187259
2.2989034665679826 0.6159893273439994
2.480055175520863 0.7111443780078579
2.668090269136869 0.8157170561764354
2.872190679211364 0.9332313230123411
3.1202112994777456 1.074374909708617
3.4580688444921432 1.258634127438461
3.8743587699633877 1.4872269906129962
4.32067676228123 1.7456667253181501
5.007546402781276 2.1255773389816492
6.805913659437377 3.0301879909147114
6.733866857682309 3.1400536847333966
6.669051823539819 3.2527139091749544
6.61126840947769 3.3686095080674368
6.542641663084649 3.4787842802434508
6.480932029902923 3.592439286025358
6.417248242042691 3.7049999999999996
6.351609698202653 3.8164321350835015
6.292516873480681 3.93200094061038
6.2229356141550465 4.0412216398115
6.14316841263286 4.143619414718234
6.110874250395879 4.278880215178804
6.035266778037108 4.38487798210185
5.981779970254223 4.507594523408842
5.917960759586482 4.623617679695694
5.84413763015642 4.7324893406947774
5.783635545548284 4.853046453133371
5.713151522286385 4.96636684945814
5.647900673628196 5.085392608327322
5.587542280370462 5.2104674708774885
2.345047749104003 2.2645862876963307
2.2556706319850868 2.2556706319850863
2.1812272832412516 2.2587269730633643
2.114194916193745 2.2671964750194284
2.0876874918396378 2.31861185548947
2.0797071218999084 2.392429369306187
2.076203979287522 2.474323551274299
2.070464086553965 2.556810213193434
2.0686225570942116 2.6477161321185854
2.0642255294115257 2.7393197994622147
2.0631262355465805 2.8396496502560655
2.041932113409724 2.916181277668811
2.018686381529396 2.9928256369237007
1.944361355003647 2.9940539275651634
1.8547174248162173 2.968168336547491
1.761430216192386 2.9315121684012238
1.6350000000000005 2.8319030703751142
1.541694592383352 2.781290668703279
1.544561441565581 2.9048975805058697
1.461849409161341 2.8690410078865445
1.3589505550461403 2.786261543527418
1.1960096807261795 2.564851037313719
1.118525768458451 2.512250008517152
1.0549740469210391 2.485363104321589
0.9365164835397805 2.317959636416968
0.8923361943677974 2.3246152619780327
0.9302947898458193 2.555963928537671
0.9050794693908957 2.6285416401661004
0.8652475842498528 2.6629582456264296
0.8244882073181177 2.69677941181576
0.7938355847529576 2.7684336843023583
0.7557516116993606 2.8205034127640793
0.4990259434783366 3.1507258064984893
0.44674565408181016 3.1787605006604407
0.06946057762038872 3.979393826722437
