# .PCD v0.7 - Point Cloud Data file format
VERSION 0.7
FIELDS x y
SIZE 4 4
TYPE F F
COUNT 1 1
WIDTH 150
HEIGHT 1
VIEWPOINT 0 0 0 1 0 0 0
POINTS 150
DATA ascii
9.123618653647781e-17 -1.49
0.025829561527179724 -1.479774588831459
0.051651255119701596 -1.4790984239882616
0.07745721523955706 -1.4779717114367692
0.10323958114130534 -1.4763947943845397
0.12899049926653436 -1.4743681531757833
0.1536568410034506 -1.4619471861913618
0.18036662823961827 -1.4689683044291566
0.20597618942089688 -1.4655967417375242
0.23308735290994406 -1.4716556274867554
0.2587357847237263 -1.46736355198819
0.2843054031110519 -1.4626245033370193
0.3118675362266389 -1.4672214011007085
0.33742658151579774 -1.4615550971778528
0.3628828433995015 -1.4554435894139948
0.3908167581048063 -1.4585479976964932
0.41621240728366876 -1.4515051608668614
0.4444049911785599 -1.453583229063814
0.4727960013936696 -1.4551164699315848
0.49811927631944986 -1.4466434206669547
0.52671102072153 -1.4471266360102988
0.5554703217952153 -1.4470496610706627
0.5806402197946638 -1.4371349745785205
0.609540560443267 -1.435987571385807
0.6345091631982486 -1.4251309139224575
0.6635106709328982 -1.4229032256475405
0.6970101233946332 -1.4290825336156756
0.7263847995832751 -1.4256104387013886
0.7558492160852843 -1.4215456245028724
0.7902396810015294 -1.425630122637215
0.8200000000000002 -1.4202816622064791
0.8498128236015897 -1.414326046158485
0.87966597862712 -1.407759839619667
0.9149935788252457 -1.408966554148312
0.9450360068655621 -1.4010734976180206
0.9865514705237992 -1.408941516177066
1.0168684864659785 -1.3995994002686591
1.0531762905160844 -1.3976121425827626
1.0958774260796718 -1.402659141419965
1.126483499979209 -1.3910912710079777
1.1698734496295016 -1.39420088647654
1.2137092036324386 -1.396212723412128
1.251274233891065 -1.3896808236427274
1.288976900518122 -1.382258496060232
1.333744071281275 -1.38113241665021
1.3788582233137678 -1.3788582233137676
1.4242928046705294 -1.3754235735088145
1.462707403238341 -1.363996720124997
1.50858399571911 -1.3583351309084821
1.562248831061138 -1.3580421900103499
1.6086933305498539 -1.3498539803417324
1.6708638171324872 -1.3530388407571505
1.7257435503987208 -1.3482986309631917
1.780957187405463 -1.3420475016290676
1.84455874717488 -1.3401503752268387
1.908624263193351 -1.3364330966979374
1.9731094226809993 -1.3308791102603774
2.0379694801073804 -1.3234728550865156
2.1031592784679365 -1.314199775298348
2.1857766167903865 -1.313347091020638
2.260326303877385 -1.3049999999999997
2.343980815133581 -1.2992897822601834
2.4369353562906384 -1.2957415132890586
2.5215484634530814 -1.2847931142629174
2.615490674730576 -1.2756600371562152
2.7189233611099497 -1.2678547852220983
5.042770926187156 -2.245186269778417
4.068631452259786 -1.7270315879225897
4.061065283002529 -1.6407768791616946
5.074340152243906 -1.8469087739586112
4.53848916287672 -1.5627271413943522
4.821856537616429 -1.5667161614809835
8.314913669866458 -2.384263127817043
7.238292245430163 -1.538546512051419
7.116797079995564 -1.38336521647995
7.120160054278265 -1.2554763245319063
7.071848518661186 -1.120070769688053
7.129930094939307 -1.002046326912471
7.959595637753047 -0.6963743845537888
5.529157754214844 0.09651180759817782
5.626570356117509 0.19648416643508046
5.526504838439426 0.3864508645424542
4.597293723448887 0.9771849468434688
3.6175840740680907 1.5355733349628458
3.6176400122646992 1.6106771065801686
3.5980419145355005 1.6777944991105769
3.595176185196668 1.7534845871563096
3.590756292479123 1.8295817139503736
3.584767227007243 1.9060545449107165
3.585940799271522 1.9877194430099818
3.576684917629732 2.0649999999999995
3.342952472738238 2.008648492149211
3.2056218034712898 2.0030948188015145
3.346295566102242 2.173109749709958
3.3410214173968185 2.25354740098711
3.276608177155967 2.294305745404184
3.171346617949794 2.304118188986495
3.042801293280186 2.292915238209304
2.923519895880938 2.284104073458192
2.813268380474234 2.278139815600412
2.7960622173842697 2.3461747753558684
2.7924254468242564 2.4274184072648772
2.7793616472854548 2.50254846778213
2.7572034551042726 2.5711338174356193
2.4241751271412544 2.3409987084468207
2.3970919882223964 2.397091988222396
2.389624794378951 2.4745289131649595
2.386994260218745 2.5597379556670967
2.629683282990313 2.9205591641261597
2.5783119839326942 2.966008650275494
2.5518668104555613 3.0411964391823427
2.5424543798413435 3.139669684286162
2.530368663588456 3.238724197323627
2.5456775479331646 3.378228207500049
2.6038886676556556 3.583945285081017
3.1833492217483053 4.546293845803905
3.1706237626791345 4.700643036387087
2.1295386269087566 3.279201920666608
2.056086745224835 3.290426613086933
2.0395507766438152 3.3943825107803645
3.095000000000001 5.360697249425675
2.9718829721100466 5.3614188047644955
2.8496923861103576 5.359491888653686
2.7239429984372814 5.346039145130207
2.608308323395011 5.347824575480044
0.3000589658358966 0.6434785287960214
0.2928503830145763 0.6577527295026726
0.2813264125122771 0.662763494485757
0.26971674725945677 0.6675723752880869
0.2544412441771631 0.6628421028130133
0.24283430176122486 0.6671817607579948
0.22464202657543814 0.6524078171635285
0.21322172611871373 0.6562289962436559
0.20173647625868835 0.6598502816144944
0.1901897755137294 0.66327057019744
0.1734087602186889 0.6471703036136758
0.16450688900777402 0.6598010938676776
0.15071720641038966 0.6528279434061076
0.1413799497560763 0.6651403684989879
0.1278420269022851 0.6576902129099349
0.11634427903684338 0.6598211945181794
0.10324674692655242 0.651874304792791
0.09324597764324387 0.6634796060568522
0.08043376664739735 0.6550804600832726
0.06898878575665128 0.6563844509430604
0.05752279021345452 0.6574885007405521
0.04603927267112266 0.658392273171484
0.03454173112034302 0.6590954929380187
0.022684672856625704 0.6496040375624123
0.011344064184234339 0.6499010018516543
