# .PCD v0.7 - Point Cloud Data file format
VERSION 0.7
FIELDS x y
SIZE 4 4
TYPE F F
COUNT 1 1
WIDTH 180
HEIGHT 1
VIEWPOINT 0 0 0 1 0 0 0
POINTS 180
DATA ascii
4.4087284769304716e-17 -0.72
0.01256573263484419 -0.7198903405126017
0.029315577230100906 -0.8394882946960404
0.040822045869496296 -0.7789310371085676
0.05231735530809392 -0.7481730376948681
0.06449524963326718 -0.7371840765878916
0.07526049355271049 -0.7160557646651567
0.08652723381765472 -0.7047077676653386
0.09602943966244516 -0.6832849674316835
0.10793978087775932 -0.681504955010645
0.1250266879201899 -0.7090615821687898
0.14119865657864322 -0.7264041157512713
0.15385465120514183 -0.7238292245430162
0.16871329075789887 -0.7307775485889264
0.18386064065574745 -0.7374247519697573
0.19670247427791576 -0.734103627979692
0.21775351109542934 -0.759396739791272
0.2280499296837347 -0.7459177096511677
0.24721359549995797 -0.7608452130361228
0.26696588665486853 -0.7753252319914397
0.5574928336208401 -1.5316989718810305
0.5877234372542922 -1.5310718994554107
0.6255930110045733 -1.5483970371265348
0.6603356071468726 -1.5556532023346241
0.6955196596596186 -1.5621627325688474
0.73112959281141 -1.5679124715734043
0.6005684711010362 -1.231347843429859
0.5947275546588064 -1.167218546686762
0.6478707566445293 -1.218467678145319
0.8872016050507969 -1.6005540640650944
0.9300000000000003 -1.6108072510390559
0.9682715808309021 -1.611474525319971
1.0068466020430893 -1.6112913826972095
1.0565997279291528 -1.6270209018141224
1.1016100198373713 -1.6332040179334322
0.6366698443496611 -0.909258769160781
0.6524416300446453 -0.8980088637561917
0.686069126393335 -0.9104444814539138
1.311358942443652 -1.6784629051823177
1.3656252485781473 -1.6864067363616266
1.420560617407252 -1.6929582192929413
1.4892539958084519 -1.7131907471056922
1.5256177824981967 -1.6943702020884588
1.5140363593387467 -1.6236052175945586
1.5143552476006144 -1.5681607647382594
1.513208511739212 -1.5132085117392116
1.5034201827077809 -1.4518359942593042
1.4992750883192993 -1.3980966381281217
1.5011525474643364 -1.3516438248448936
1.4943249688410887 -1.2989968774012044
1.493786664082007 -1.2534358388887514
1.4843487863828142 -1.2020019469051897
1.481460216780637 -1.1574435736122375
1.4774756935874918 -1.1133577928312894
1.4562305898749055 -1.0580134541264516
0.7372368398600926 -0.5162187927159415
0.7378434395739871 -0.4976816840889646
1.0734983269701428 -0.6971379648192345
1.4501622444274884 -0.9061619418387804
1.4486127381865699 -0.8704143465979916
1.454922678357857 -0.8399999999999999
1.4518687138513968 -0.8047839696089195
1.3597392930027477 -0.7229862066902718
1.443430569185156 -0.7354646095780658
1.0246252127810502 -0.4997431073395482
1.0331908772217808 -0.4817848183843973
1.4434018230753094 -0.6426438960597642
1.435987571385807 -0.609540560443267
1.4371349745785205 -0.5806402197946636
1.2136545544463624 -0.46587833440889037
1.1840127021902447 -0.4309453805903426
1.181898219499146 -0.4069601930714459
1.1888206453689418 -0.38627124296868426
1.1762548498345338 -0.35961719680896614
1.1727392690447491 -0.336277574096739
1.1687702498097727 -0.3131710445740501
1.1740578287939556 -0.29272549367559797
1.1692440777422823 -0.26994126521263795
1.1639956448732287 -0.24741491207313357
1.1583200764682435 -0.22515461454432287
1.1522250710242834 -0.20316836787030848
1.1457184750903597 -0.18146397944666778
1.1388082790528058 -0.16004906610407524
1.1910553819695864 -0.14624321208617697
1.2829332450250726 -0.13484171761527297
1.4145964712902785 -0.12376115470167459
1.406565310866352 -0.09835662797921667
1.408067644003949 -0.0737936983025508
1.409141066096925 -0.04920829035052637
1.3997867732189477 -0.024433369012196914
1.4 0.0
1.3997867732189477 0.024433369012196914
1.399147157826734 0.04885929538350135
1.3980813486564032 0.07327033874012136
1.3866140298611556 0.09696149850433416
1.3847106303475263 0.12114648241924485
1.3923306535155826 0.14633984857471483
1.2903099971337186 0.15843014642669173
1.26754312798921 0.17814156922888377
1.2938717261796304 0.20492914920270244
1.378730854217091 0.24310744873370244
1.3742780568267294 0.26713259352716273
1.3596251650199898 0.28899725023668543
1.3738617913471816 0.3171809866248496
1.368116974049155 0.34110987279553145
1.371614673330477 0.36752304404557945
1.3649916082324127 0.3914050452601388
1.3579527534675104 0.4151678207062861
1.350500253139118 0.4388041320124253
1.352091563107023 0.46556246087373404
1.343760447723849 0.4890888049557062
1.3536916184209424 0.5196335268406854
1.3351447505761738 0.5394334945189133
1.3347320375060385 0.5665601363094469
1.3337763681581973 0.5938354988906682
1.3322724469438754 0.6212488447588281
1.330215188522767 0.6487892972478345
1.336509786282552 0.6809857496093201
1.3244213892883905 0.7042073441788362
1.3294219548518815 0.7369106227744323
1.3163586137523469 0.7599999999999999
1.320037643081253 0.7931586353614835
1.3144745490424603 0.8213748595614676
1.3083260859948616 0.8496368946234422
1.309879364636966 0.8835247874837799
1.302451750419497 0.9119865337981633
1.3025173609436655 0.9463342561908819
1.3017758813770872 0.9809584877378386
1.2923376359150238 1.0096848195340795
0.9558895325920741 0.7740640809913001
0.9422346650363429 0.7906287599144433
3.1094034705178206 2.70296319944089
2.994873646673899 2.696596343626199
2.87422004736334 2.6802535550456192
2.769458231303807 2.6744347262671395
2.6728636328851496 2.672863632885149
2.5702359706982905 2.661557261253009
2.4824740306274946 2.6621274738937806
0.6825132184860354 0.7580077219869421
0.6560590289905074 0.7547095802227719
0.6620712379771355 0.7890257764125473
2.1271029217484507 2.626753349724561
2.0439960980811853 2.6161957019743167
1.9679351257071978 2.6115381178546477
1.8926685123817637 2.605034721887331
1.8411803606868578 2.6294780621676637
1.8061930782105122 2.677791359352785
1.7700768637988384 2.725679345822628
2.6231003579543644 4.1978380759743095
2.5185361863101656 4.191548100433328
2.4150000000000005 4.182902700278839
2.3125418885750277 4.171936003054918
2.2159057763494046 4.167512638294134
2.1155957287862885 4.152090402717794
2.016507275229756 4.134452612976168
1.9313654561549967 4.141826586757491
1.8343822602718596 4.12009001396813
1.754382766916839 4.133066792001458
1.6632532747666502 4.116696314276536
1.576818977999321 4.107753876587688
1.491207824899916 4.097059826626561
1.4097101087994888 4.094095432345042
1.328773075812274 4.08954302006916
1.2513508962133135 4.092984355521792
1.1687023886640766 4.075749590778472
1.0896281798816123 4.066547728676977
1.0136527425626076 4.065539093096426
0.9380458966139176 4.063123170154431
0.8150138280056162 3.834338594876518
0.7441550819685252 3.8283460154458893
0.6754914111243593 3.8309021592174894
0.6054013797056937 3.822353878103183
0.5358164386962521 3.812532064655046
0.46797827867576636 3.811377222302676
0.3982534450497597 3.789128421353121
0.3372927244334379 3.8552734816150553
0.2804210244513834 4.010207482044493
0.20934382497177587 3.9945181390182953
0.13959798681000432 3.997563308076383
0.06963510168476156 3.9893923036740015
