# .PCD v0.7 - Point Cloud Data file format
VERSION 0.7
FIELDS x y
SIZE 4 4
TYPE F F
COUNT 1 1
WIDTH 180
HEIGHT 1
VIEWPOINT 0 0 0 1 0 0 0
POINTS 180
DATA ascii
4.3474961369731035e-17 -0.71
0.012391208570471355 -0.7098918635610377
0.024778642658775767 -0.709567487183558
0.03715852893249021 -0.7090269696757474
0.050224661095770166 -0.7182461161870733
0.061880577350837435 -0.7072982356451393
0.07421520892003396 -0.706110545711474
0.08774592725170619 -0.7146332291817518
0.09881290168164647 -0.7030903288065149
0.11263281482896625 -0.7111356052284992
0.1250266879201899 -0.7090615821687898
0.13738247667111234 -0.706771572082318
0.15177553429696425 -0.7140477485356781
0.16421426967102154 -0.7112901472932217
0.17902220274375408 -0.7180188374442373
0.19152609337586535 -0.7147851114539105
0.2067280168627494 -0.7209462719537392
0.22220249558927996 -0.726791614531907
0.23485291572496006 -0.7228029523843167
0.24743179738743915 -0.7185941174554807
0.263355510360765 -0.7235633180051494
0.2759433211498811 -0.7188569284028453
0.2884470769302524 -0.7139315680164262
0.30086296893674075 -0.7087887371583791
0.3172545815991243 -0.7125654569612287
0.32964224415774557 -0.706920073888587
0.34192949449548043 -0.7010593561133504
0.35865249479424205 -0.7038951541088105
0.3755772502287127 -0.7063580742871416
0.39269579239953306 -0.7084419627829106
0.4100000000000001 -0.7101408311032396
0.4274816021753451 -0.7114488595827531
0.4451321819558921 -0.7123604007713978
0.4629431797627731 -0.7128699827536104
0.4864978260195497 -0.7212626881228863
0.4990114996254101 -0.7126622785314228
0.5172510220173764 -0.7119349550499537
0.5356153706053229 -0.7107856039420907
0.560251942546349 -0.7170897857821169
2.8697009831872586 -3.5437855842437864
2.8732606152988307 -3.4242186607418317
2.866977956688517 -3.2980808655735134
2.870570301279502 -3.188091301298021
2.8780330794637434 -3.0863126208328993
2.875885653700249 -2.9780667734020154
2.8637824638055176 -2.863782463805517
2.8557790073444456 -2.757793730722219
2.8595929733309564 -2.666613587844369
2.861107578087968 -2.5761528344816043
2.8452551174398506 -2.4733425392942125
2.880327106127357 -2.4168814124213873
2.960926113151059 -2.397710689899881
5.988881727411086 -4.6790272124750025
6.213384268167938 -4.682120880122936
4.344421259793468 -3.156406804810581
6.217364016153447 -4.353445151904439
6.2094914184372625 -4.188354846995893
6.206162202796138 -4.0303288591112
6.2077120638650385 -3.87900901418706
4.26869315749652 -2.56488961305207
6.209402145134425 -3.5849999999999995
6.201053723618315 -3.4373002075465298
2.8254322971485664 -1.5023090009148508
2.8423108121608935 -1.4482296941691541
2.831201245842376 -1.3808691123855938
2.836743373424714 -1.3227951592483893
2.8319909186920627 -1.2608835935349805
2.8627700942370895 -1.2151738096016411
2.948444657522384 -1.1912489670626003
3.108822820235682 -1.1933652719858499
3.2607333941271026 -1.1868098973400705
3.4416876151815132 -1.1850680822240505
3.6425464574104383 -1.1835350884560485
3.8634712140906635 -1.1811816870798564
4.094974824697238 -1.1742151357804165
4.375643993089479 -1.172450274314419
4.686528357913063 -1.1684827557463953
5.095955438826781 -1.176494014218414
5.506970992131326 -1.1705428193039848
5.978109547196273 -1.1620267818431578
6.204288843976911 -1.0939835193016612
6.192805895531514 -0.9808440958022475
6.208980791009646 -0.8726153430196102
6.203413447758263 -0.7616833962821717
6.195871408144343 -0.651212326157481
6.206292969111575 -0.5429802773179104
6.204848392616106 -0.43388526668845934
6.2014894108259035 -0.32500628826868116
6.206217035788585 -0.21672587452253103
6.199055709969626 -0.10820491991115777
6.2 0.0
6.199055709969626 0.10820491991115777
6.206217035788585 0.21672587452253103
6.2014894108259035 0.32500628826868116
5.197308701853684 0.36343122820689283
3.984778792366982 0.34862297099063266
3.4907718527426392 0.3668949060694636
3.4441351461953875 0.42288662161586177
3.4362301985332495 0.4829306603314271
3.4371554252710794 0.5443919383400034
3.4369790580126063 0.6060321400575869
3.435695142066824 0.6678314838179068
3.42351660256832 0.7276909178621576
3.4297826280440282 0.7918277112904047
3.425143913754267 0.8539842914668271
3.4290366833261925 0.9188076101139486
3.422091637540415 0.981268986708517
3.4044449312284066 1.0408432688129428
3.1955498947517156 1.0382971010998232
3.0067490704058275 1.0353067311737583
2.8284747885655843 1.0294806314102627
2.6887116283119408 1.0320996946904648
2.549755600058665 1.030168131893758
2.411722716045394 1.0237155566418972
2.4300309173293186 1.0819194705816284
2.447031024998955 1.1410693066998885
2.4447198059337345 1.1923695192662906
2.4502679415180117 1.2484738742837536
2.4369353562906384 1.2957415132890586
5.448880775478436 3.02036393413468
5.447299789804119 3.1449999999999996
5.434440686451392 3.2653413949297434
5.563195510786154 3.476270373369824
5.468132103004164 3.5510465082979756
5.446776851686624 3.6738973758028064
5.4227865331931255 3.797076008643925
5.582217261187138 4.055718240818065
6.061643521258953 4.567776025724046
6.044042480163557 4.722123515747799
6.038424120520663 4.889819438457237
6.036430211777547 5.065166364329929
6.037676641782176 5.248472231924058
6.026904534621667 5.42664921757034
6.033668038358156 5.626486470515612
4.582194528157208 4.424973819823813
5.72049385979917 5.720493859799169
5.522534045149029 5.718751412692276
5.333227175688738 5.719185946661913
5.14561436289962 5.714783707921162
4.297186639887824 4.943347750459155
4.158835834671909 4.9563075469797875
4.002477687076967 4.942648314866334
3.866354065045134 4.9487075326502135
2.551695698164685 3.3862145626005216
2.462820207105463 3.38978120643103
2.386077975220352 3.407672504242206
2.303874762299477 3.415634798926772
2.216680872511161 3.4133892115378757
2.1408738275021477 3.4261143084719614
1.9571446846582066 3.2572357426680263
1.8700000000000006 3.2389350101538006
1.7986436911139108 3.244839113487158
1.7229606354242195 3.2404176657922616
1.6706850390415324 3.2789040090131936
1.6658103577984942 3.4154173759368347
1.6439850381713208 3.5255372915725682
1.5781381751341055 3.544556375653291
1.5043148446837038 3.5439436857918953
1.4309971868487845 3.5418423244451276
1.3617982082721405 3.5476056206893665
1.2894159403377714 3.5426411803628746
1.2176248976697663 3.536239472741445
1.1495432190748045 3.537930240617971
1.0846990245213535 3.5478906446228615
1.017101842964727 3.547055658012397
0.9653950382324024 3.602903332058225
0.9483338307506972 3.803559247001906
0.9470439387876722 4.10209797274584
0.933523491771739 4.391882727294788
0.9273317175300083 4.770708111555647
1.0123688757982043 5.741429200061173
0.9104485865341441 5.748346142263702
0.8085957165779804 5.753457479388524
0.7044048048817525 5.736916756486841
0.6031292330543604 5.738391336274937
0.5020170782265121 5.738081461008454
0.4010997240287201 5.735993288993989
0.3009317483969278 5.7421198248388
0.2006721060393812 5.746497255359801
0.10017681295000785 5.739125770197686
