# .PCD v0.7 - Point Cloud Data file format
VERSION 0.7
FIELDS x y
SIZE 4 4
TYPE F F
COUNT 1 1
WIDTH 137
HEIGHT 1
VIEWPOINT 0 0 0 1 0 0 0
POINTS 137
DATA ascii
1.2613862031217737e-16 -2.06
0.16183501908637052 -2.314348596602792
0.10720156357961978 -1.225319478652847
0.12647944055386068 -1.2033714933956106
0.1498992923883314 -1.220831766518826
0.4397869990338069 -3.1292470972233626
0.47712511837270427 -3.01244943881517
0.49837026990409034 -2.826398251145037
0.5247247372854985 -2.6994747544810758
0.5426495130343516 -2.5529652379152328
0.5646271464031014 -2.4456688626109404
0.5951278631751825 -2.3869274866389514
0.636694850952201 -2.376177532671108
0.6835806424261579 -2.383929005927031
0.7309292618068419 -2.3907618899075884
0.7787228258248676 -2.396662421063787
0.8236874307766066 -2.392161996266271
0.8755715669137122 -2.4056131092119255
0.4909640908770613 -1.2790051843011665
0.5169570989139588 -1.2795137193021664
0.6994087199958 -1.6477036876798683
0.7117891253826507 -1.5987045508745514
0.7269034101940031 -1.5588493937030379
0.7408472380735409 -1.5189619382455923
0.7536242295676477 -1.4790708301526905
0.769933362968861 -1.44803405228864
0.8047839696089196 -1.4518687138513968
0.8450000000000002 -1.4635829323957013
0.8858654888452935 -1.474327757207633
0.9326579050504407 -1.49256464923531
0.980350263027049 -1.509607022301763
1.028914942386174 -1.5254291335012768
1.0783237003399666 -1.5400058432633046
1.1344255369244731 -1.5614027991436485
1.1915937458410555 -1.5812983098936397
1.2559494096643429 -1.6075419373577127
1.321572821204659 -1.6320065190596387
1.3884212369229252 -1.6546559971369925
1.4630116346488315 -1.6830023638967813
1.5323090885617854 -1.701801650343233
1.6163361133481216 -1.733308272837434
1.7088595913291336 -1.7695759088330816
1.796051224213831 -1.7960512242138307
1.9062504708974255 -1.8408446817163426
2.0258497534851023 -1.8891354573731207
2.1476885456296695 -1.9337874523771004
6.203712749431187 -5.39280521830197
6.312206211300379 -5.296569903817083
6.419225641634578 -5.198186430071658
6.264685491173439 -4.894508728838984
4.807785770484703 -3.6229264393753304
4.748929756980941 -3.4502994309568176
2.580328939510324 -1.806765774505795
2.644629856450583 -1.7838253620716822
9.076177855041061 -3.8526089269042387
8.836062134021484 -3.570000835253641
8.607611532304201 -3.304152494807669
8.410248956033879 -3.0610802827647348
8.519122366149844 -2.9333690716589818
4.064422206451116 -0.2130073419087814
4.207435381750393 -0.14692688111752908
4.13936945794746 -0.07225296265035373
4.159366411850588 0.0726020107790994
7.351916871917082 0.6432093814777172
7.38929768258627 0.7766464820786652
7.4242452142770885 0.9115826886705032
1.9211200533586466 0.26999581586252697
1.8963616139426644 0.30035417287724325
1.8711347307231951 0.3299315375671676
1.8552753767160848 0.36062900126166963
1.8291360133722168 0.3887948618292099
1.8025846198526854 0.4161594505361502
1.7756411790850737 0.442717068947392
1.7290072290574323 0.4632860907335121
1.6629827339732917 0.47685262556340857
1.61615503757753 0.494108180981425
1.616796077701761 0.5253288904374106
1.626291950030825 0.5599772256663095
1.6350651601674806 0.5951150493866636
1.633765746370103 0.6271439117042754
1.6411154225832139 0.6630536703461642
1.6569087362143926 0.7033160312806928
8.432024574041206 3.7541792155896356
8.338031640737178 3.8880880080144347
4.979319016497385 2.428576153211489
6.629088539961457 3.377689318062228
8.025993619087647 4.267496505723748
7.915308349611532 4.387527063229351
4.641896164284592 2.6799999999999997
4.688705134840554 2.817258269757996
2.1031592784679365 1.314199775298348
7.514488288791 4.879965753734642
5.185232440349318 3.6307388421021214
4.0208144620434885 2.921292703893591
5.830039223345238 4.393249669009952
3.8376123700647358 2.998271384835956
0.6894399988070802 0.5785088487178853
0.6716915263982671 0.5838925358015515
3.879215988991998 3.49286176519324
3.8908016926139872 3.628231275532492
5.359081512522952 5.175204859919529
5.183092706097394 5.183092706097393
5.022380018418551 5.200826756448448
3.635051259133117 3.8981152296301786
4.703988162702774 5.2243081231060815
4.579292022353742 5.267872869954949
4.415950878546526 5.262725324227379
4.273085455228396 5.276821078292832
4.124931884681911 5.279672049165037
0.5596879715314049 0.7427310243439824
0.5583959896778494 0.7685661446562
0.5276903214429624 0.7536198807458725
0.5312332582972095 0.7875856939272896
0.5459403594046577 0.908597338744239
0.33993608178566814 0.8008392225036232
0.32216167033768445 0.797378114927437
0.30102907761805214 0.7842075582576494
0.2872969203935618 0.789341801460163
0.2702215681994401 0.7847804177474329
0.2533939353874569 0.7798663433620259
0.23974479787264413 0.784169899889689
0.22326625821176935 0.7786219737100384
0.212231616984067 0.7920591775570359
0.19353751647973416 0.7762365810207972
0.17771133293165348 0.7697523511803359
0.1642502357460298 0.7727366045797065
0.15073910634747048 0.7754854749236546
0.13718206035687502 0.7779981248796444
0.12514757203218474 0.7901506724761103
0.10994674975845173 0.7823117743058406
0.09627678129006652 0.7841114597966444
0.08048691671609316 0.7657818594335705
0.061880577350837435 0.7072982356451393
0.05301492004553518 0.7581486781974665
0.03768188849491966 0.7190132650232931
0.02198668292257568 0.6296162210220303
0.010122395733624487 0.5799116631907069
