# .PCD v0.7 - Point Cloud Data file format
VERSION 0.7
FIELDS x y
SIZE 4 4
TYPE F F
COUNT 1 1
WIDTH 180
HEIGHT 1
VIEWPOINT 0 0 0 1 0 0 0
POINTS 180
DATA ascii
2.4492935982947064e-16 -4.0
0.0698096257491344 -3.999390780625565
0.1392489918429793 -3.9875693998061923
0.20882046540934643 -3.9845318436707498
0.2776307655016184 -3.9703049200341
0.3468798561356803 -3.964854898405147
0.4170685684379373 -3.9681423625194108
0.4862586801865385 -3.960259145048875
0.5553006728306612 -3.951169594278866
0.6257378601609237 -3.950753362380551
0.6945927106677217 -3.939231012048832
0.7632359815061797 -3.926508733790656
0.8316467632710369 -3.9125904029352228
0.9020537279188992 -3.907223959788793
0.9725260203106639 -3.9005888196295055
1.0430407517631586 -3.8926810799449454
1.1135749175006766 -3.8834972515908084
1.1841054041270838 -3.8730342616502935
1.2576991671060362 -3.870800021321275
1.331573751729771 -3.8671709742012053
1.405702789068499 -3.8621366714300835
1.4764759521266366 -3.846351357168471
1.105089450576941 -2.735192370972023
1.0588813582059318 -2.494568152856113
1.0453131727048068 -2.347811826141484
1.0311885586473066 -2.2113910003694257
1.030172194954332 -2.1121660088030425
1.0123988144191896 -1.9869445489400601
1.0093638599896653 -1.8983373246466928
1.0035559139099177 -1.8104627937785491
0.9900000000000002 -1.7147302994931883
0.9888731038273044 -1.6457612173480554
0.9803506388314291 -1.5688889778893882
0.9749038726768987 -1.5012203166223088
0.9618117939696845 -1.4259446247946717
0.9636084130697573 -1.3761754344055062
0.9580899612367312 -1.3186977008311642
0.9568858868117568 -1.2698304609751956
0.9542752867547704 -1.221416668090419
0.9502737904852546 -1.1734904018000258
0.9770371667235398 -1.1643875535408466
0.9709673629059509 -1.1169701787297024
0.9903132974111102 -1.0998543417065434
1.0298175236943727 -1.1043440894449474
1.062827306802266 -1.1005898945181363
1.0960155108391487 -1.0960155108391485
1.1365568845350689 -1.0975602253252157
1.1701659225906729 -1.0911973760999976
1.2038946172733787 -1.0839915823013504
1.2452708073675738 -1.0824973978343368
1.2792942200086932 -1.0734553081765206
1.32891959409142 -1.076137868695222
1.371138711275696 -1.0712509670666455
1.4055984976832354 -1.059194440747605
1.464320759818655 -1.0638913066493765
1.499048241048855 -1.0496448785224144
1.5585906364034783 -1.051282658525004
1.6018607847757598 -1.0402605568787016
1.6028109017356449 -1.0015474094007573
1.594331179305929 -0.9579708193327008
1.5848264889255228 -0.9149999999999999
1.5830616699223063 -0.8775054126458701
1.5804761912174794 -0.8403540973867446
1.5770815478134113 -0.8035631845389978
1.5728895810235424 -0.7671495068808855
1.576975549443771 -0.735355775428817
1.5712981871452734 -0.6995870260903763
1.574063299403673 -0.668150229716658
1.5669407142178706 -0.6330851428728913
1.5684151165152989 -0.6020581552361044
1.5598897505046079 -0.5677534379206101
1.5601056497388728 -0.5371874548543085
1.5502221215611 -0.5036977008311643
1.5587767522197478 -0.47656587869806083
1.5476313304606935 -0.4437761428653687
1.5454813220625094 -0.4141104721640332
1.5427702047788345 -0.3846558140034717
1.549248403008524 -0.3576721764067453
1.545473209159413 -0.32850047149205974
1.5411546780128325 -0.29957012274117534
1.5363000946990446 -0.27089115716041134
1.540793811328415 -0.24403776546276015
1.5448181872368498 -0.21711003749770208
1.538446535044049 -0.1888974822779786
1.5415089378208235 -0.16201911806486285
1.5441017820422056 -0.13509140125887015
1.5462242779027275 -0.10812253430339422
1.527903188174498 -0.08007401305170406
1.5590496901497894 -0.05444321485590151
6.199055709969626 -0.10820491991115777
3.87 0.0
3.8694105802552343 0.0675408129122872
3.8776364088340913 0.13541004720570377
3.8746825948477466 0.20306351022262203
3.870548515008118 0.27065511812720616
3.8652354285959727 0.3381642818609137
3.8587449540289 0.4055704374784954
3.8709299914011557 0.47529043928007514
3.8818508294669556 0.5455585557634565
4.37545934883646 0.6930046801282227
3.6536367636752916 0.6442347391443115
3.6418368505908334 0.7079013728469812
3.6582720267444335 0.7775897236584198
3.64414404229678 0.8413169432460551
3.958806563206066 0.9870413340466444
3.9506366295222892 1.0585698944693098
3.941172953347107 1.1301131588496964
3.9399755945677066 1.2045714234576752
3.927863412298984 1.2762401867685327
3.923902088737165 1.3511078409972004
3.909121302469379 1.422803796234782
3.902366182758303 1.497978029099355
3.903444027726175 1.5770937582809896
6.010896693044436 2.5514742690349577
6.001993656711888 2.6722597450080072
5.990694472312256 2.7935067101060236
5.967992467426469 2.910784414679474
5.951923581578297 3.0326565382601722
5.951066775869168 3.164238333176904
5.938667811476497 3.2918573214726288
5.92361376188556 3.4199999999999995
5.845880990788406 3.5125596708865694
5.580156472709283 3.4868687586544884
5.3255581064534425 3.458457872345421
5.098581071213507 3.439036356345093
4.882146183962391 3.4185155606522346
4.676118227487197 3.3973987582504948
4.488331566465786 3.382200430114511
4.310418822228769 3.3676682700313507
4.142187974565655 3.354277684295634
3.975770659787496 3.336067694273139
3.8263775717294544 3.326219276981872
3.6785668861131016 3.3121965014763486
3.5324383788205935 3.2940520791018675
3.4024772556018203 3.285734092271057
3.273904396893715 3.2739043968937147
3.1606955855884378 3.2729960915408625
3.0348927022781185 3.2545239722053085
2.9241007497882108 3.247542887336213
2.8079326440793717 3.230157003353464
2.7125637128771958 3.232707549962087
2.605386418946327 3.2173842804318586
2.567308352107995 3.2860048425400303
2.557713848396205 3.3942009177009944
2.5274765848576344 3.4787730758122737
3.928998589004665 5.611191503379594
3.8696148920175677 5.736940002080889
5.440943959800122 8.378318973774785
3.6458445379244497 5.834570901556211
2.7039498932777857 4.500128328686089
2.5450000000000004 4.408069305262792
2.457984774648929 4.434321915196737
2.4365574108587738 4.582498006937831
2.4152294586143896 4.740154708682117
2.4022738844041447 4.925391373719436
1.4157711768313432 3.0361310865727775
1.3503656550116572 3.032970919373435
1.2855054127297105 3.028460967858529
1.2174714286017145 3.013347527342059
1.1539447975358665 3.00612897332099
1.0944644586421404 3.007016386514907
1.2794828470166262 3.715888002105315
1.2638795069935351 3.889821151647178
1.2133425745993578 3.9686647372465975
1.1356259059660365 3.960398187265874
1.0559817040182846 3.940977371259399
0.9870413340466442 3.958806563206066
1.1315038033496416 4.901081425869734
1.039558454088796 4.8907380036690284
0.9483207070214282 4.87868710173489
0.9151258963047232 5.1899368583743355
0.905755552582937 5.718715492045848
0.8044205235491785 5.723749437326277
0.7019674180136495 5.717065833454014
0.6010386637890074 5.718500898367571
0.500273963371559 5.71815756704662
0.3983094650789551 5.696090726983596
0.29831495058478064 5.692188348101071
0.19822914127020613 5.676539897468464
0.098955144499398 5.669136431536739
