# .PCD v0.7 - Point Cloud Data file format
VERSION 0.7
FIELDS x y
SIZE 4 4
TYPE F F
COUNT 1 1
WIDTH 180
HEIGHT 1
VIEWPOINT 0 0 0 1 0 0 0
POINTS 180
DATA ascii
5.449678256205722e-17 -0.89
0.015532641729182404 -0.8898644486891882
0.031060552065225962 -0.8894578360469952
0.04657900105622013 -0.8887802859315708
0.06208326163227146 -0.8878320047312436
0.07756861104541594 -0.8866132813016535
0.09303033230821157 -0.8851244868777632
0.10846371563058127 -0.8833660749607766
0.12386405985445827 -0.8813385811799976
0.13922667388580554 -0.8790426231296726
0.15454687812356807 -0.8764789001808652
0.16982000588512497 -0.8736481932684209
0.1850414048278057 -0.870551364653087
0.19795692782260133 -0.8574456570110071
0.21531048708370423 -0.8635631963856368
0.23034895014124346 -0.8596739853972708
0.24807362023529925 -0.865135526344487
0.26605825129769045 -0.8702373279263623
0.2812054648812022 -0.8654614298285898
0.29952270210058424 -0.8698770895513714
0.31465853185961534 -0.8645172111230357
0.33328219307712914 -0.8682297966423976
0.34838413187679834 -0.8622809847471122
0.36728726077991725 -0.8652745622452939
0.3863998109220103 -0.8678681847604708
0.4014873486536645 -0.8609923976848174
0.42083630091751434 -0.8628422844472003
0.44037078474736047 -0.8642763284627167
0.45538741590231413 -0.856459165073159
0.47511342784141036 -0.8571273129966078
0.4950000000000001 -0.8573651497465942
0.5150380749100544 -0.8571673007021122
0.5352184568755369 -0.8565285771179904
0.5555318157153277 -0.8554439793043325
0.5815606196095767 -0.8621990754572434
0.6022552581685984 -0.8601096465034415
0.6230523674300216 -0.8575580140374444
0.6499602250042121 -0.8625263508510763
0.6710710081049676 -0.8589317214313269
0.6985456340653197 -0.8626320172172377
0.7134942467520587 -0.8503093318620657
0.7347861124693683 -0.8452747298495046
0.7628088912490983 -0.8471851010442294
0.7911180976724982 -0.8483702938782377
0.8196968771416169 -0.8488209643996082
0.848528137423857 -0.8485281374238569
0.8775945564131544 -0.8474832119599767
0.914192127023963 -0.8524979500781231
0.9437939283562907 -0.84979587007575
0.973575358487376 -0.8463161473977544
1.0035182204858613 -0.8420517686893665
1.041375588352341 -0.8432893240067822
1.079574732441209 -0.8434562211961519
1.110103358965737 -0.8365228821813471
1.1568943019561748 -0.8405329107782366
1.187770464219038 -0.8316858327090167
1.2435563588325627 -0.8387893552061202
1.283165968956499 -0.8332977235729913
1.3314355109655889 -0.8319732448461318
1.3886110271374221 -0.8343616813542878
1.454922678357857 -0.8399999999999999
1.4955996992083667 -0.8290244506212363
1.5628172393603008 -0.8309646661310267
1.6305419392647134 -0.8308026145233706
1.7077086879684173 -0.832905178899247
1.7763632625918337 -0.8283317930117708
1.8636327335909058 -0.8297427518746323
1.9606753378536979 -0.832257303682153
2.067619995683936 -0.8353727033174838
2.165906589473508 -0.8314136429450966
2.2834530685097576 -0.831108948281375
2.420527553534251 -0.8334544754103211
2.586873724322818 -0.8405262246998569
2.7637207447331726 -0.8449542266487091
2.989523874368172 -0.8572321765908674
3.2744885511199415 -0.8773965628975453
3.628906016272227 -0.9047878895427574
4.10209797274584 -0.9470439387876716
4.704889959529605 -1.0000552328334222
9.070235175056416 -1.763075117279274
9.070079405242437 -1.5992997163124285
9.037348316445511 -1.4313753551181125
9.021342106235705 -1.267866949746196
9.00239359538679 -1.1053549446846875
8.980532715175507 -0.9438920233069107
8.96575228282571 -0.7844016847289235
6.314580438144687 -0.4415584788003132
6.291366068953815 -0.3297165243305461
6.26618048540973 -0.21881984432468107
6.25904657167901 -0.10925206429739479
6.25 0.0
6.229051140824318 0.10872849210427629
6.226204852328967 0.21742386445658105
6.211475706173449 0.3255296478311106
6.1948727521135085 0.43318770195101813
6.196331022130657 0.5421087198904337
6.175980970236977 0.6491217568921279
6.16371160169261 0.7568086225459658
6.149564706885152 0.8642649569620063
6.133544595095805 0.9714580278998337
6.115656146205811 1.0783551833116374
6.115537352878947 1.1887400411958742
6.09385955257161 1.2952898337946406
6.0800692042598685 1.4036945791057176
6.074051246487738 1.51443106645392
6.066014189095349 1.6253836032438302
6.1040117692083244 1.7502972094379445
4.982347778567415 1.5232565816054582
4.498497322076076 1.4616503833935013
4.113005803857028 1.4162214718886315
3.7869612617672113 1.378341177602445
3.4915907950995346 1.340296131299423
3.245143490983756 1.311123076955692
3.028460967858529 1.2855054127297105
2.8411263732684886 1.2649509599657385
2.6826710496284836 1.2509500547524703
2.507635389174676 1.223055499541526
2.361167289099175 1.2030748243097988
2.2426868858616746 1.1924577694761627
2.1253258883487316 1.1780873771985991
2.0178391908177424 1.1649999999999998
1.9114830805657106 1.1485349070494209
1.8317838876978803 1.1446256107437227
1.744434781326482 1.132849192831256
1.6663655208356336 1.1239777359762009
1.589154965920644 1.1127382865210294
1.5290421193686505 1.1109141268327742
1.469489338487019 1.1073396425997688
1.3947790338838977 1.0897208113264152
1.3444625133205594 1.0887242765162188
1.286954664439883 1.0798831842733858
1.2301766157631182 1.0693762172545267
1.1816002725090569 1.0639176641105847
1.1335982375097142 1.0570974580968726
1.0862030985113633 1.0489341393930858
1.039446968344225 1.0394469683442247
1.0072546371655462 1.043042710491044
0.9616176876881228 1.0312087192830304
0.9300915428388129 1.032971307413578
0.885679689137185 1.0188579333007421
0.8613353969799628 1.0264995537794306
0.8244097122752871 1.0180612095086319
0.7880466884168427 1.008653764616604
0.7582869291715808 1.006280742659589
0.7229758603197419 0.9950909030811853
0.6997632523482762 0.99936549403257
0.6710314841648961 0.99484508706605
0.6426740613177321 0.9896312701756002
0.6147063465105176 0.9837357915414542
0.5922937861465625 0.985742395807429
0.5650000000000001 0.9786087062764155
0.5381386784734342 0.9708278749247293
0.521113434692339 0.9800718280734089
0.4948496447161061 0.9711971113653209
0.4734408385322037 0.9706975700031004
0.4522015400625484 0.9697493321292154
0.43114084166034844 0.968358185101157
0.4063603736288447 0.957325047590538
0.38584479121838955 0.954999370203791
0.3655353085362062 0.9522520350271458
0.3454403447589255 0.9490895469937675
0.3288238360017283 0.9549737613553099
0.31210716431869695 0.9605670814581051
0.2894479876755094 0.9467417084034051
0.27563735581699916 0.9612616959383189
0.25623085465149553 0.9562665680261776
0.2370834576876743 0.9508898117504765
0.21820252271354917 0.9451389628416782
0.20167434009322646 0.9488031727117915
0.18508472551524857 0.952178367944234
0.18580355010361554 1.0537442957230627
0.17833529014586325 1.125964708278457
0.1683994521616792 1.1982243631773002
0.6678440018602083 5.439152910994445
0.5707254094413878 5.4300895487107725
0.4741272405472615 5.419299157619096
0.3773825229557175 5.396821511905649
0.28261416371189746 5.392599487674699
0.1874102972924308 5.366728741092544
0.07993202148275888 4.579302443816272
