# .PCD v0.7 - Point Cloud Data file format
VERSION 0.7
FIELDS x y
SIZE 4 4
TYPE F F
COUNT 1 1
WIDTH 173
HEIGHT 1
VIEWPOINT 0 0 0 1 0 0 0
POINTS 173
DATA ascii
5.878304635907295e-17 -0.96
0.016754310179792255 -0.9598537873501356
0.033154521867376024 -0.9494212856681409
0.0502425179932262 -0.9586843533643908
0.06696621479436023 -0.9576614882494312
0.08366951303775202 -0.9563469101680757
0.10034732473694731 -0.9547410195535423
0.11821326310299306 -0.9627697670920823
0.1349979079312635 -0.9605600266793233
0.1533057757394263 -0.967934573783235
0.1701752141135918 -0.9651115979519639
0.18890090542277946 -0.9718109116131873
0.20583257390958165 -0.9683661247264677
0.22495105434386514 -0.9743700647852352
0.24434111455566435 -0.9799986835387564
0.26140723555354595 -0.975585084551959
0.27839372937516915 -0.9708743128977021
0.29529542176996415 -0.9658678035226658
0.3151973342624464 -0.9700776466210567
0.3320795175462999 -0.9644289471113031
0.3522807476254389 -0.9678833994094856
0.3727026675271122 -0.9709236435570898
0.3895908571525487 -0.9642712087494588
0.41026768491373744 -0.9665300961250625
0.43114084166034844 -0.968358185101157
0.4522015400625484 -0.9697493321292154
0.47782455000009444 -0.9796855104660921
0.4993895497135016 -0.9801071766072047
0.521113434692339 -0.9800718280734089
0.5429867746758976 -0.9795740719961233
0.5600000000000002 -0.9699484522385713
0.5871434053974619 -0.9771707228004078
0.6147063465105176 -0.9837357915414542
0.6372276709675818 -0.9812445644961459
0.6598476260954812 -0.9782643356149492
0.6882917236212552 -0.9829824531467901
0.7112201552738925 -0.9789105631936864
0.7402324784770193 -0.9823216773581702
0.7695768441570728 -0.9850134420084024
0.7992368966332937 -0.9869753710503529
0.8291960164956358 -0.9881973316234817
0.8659979182674697 -0.996216645894059
0.9033263185844587 -1.0032455143944823
0.927517769684998 -0.994641034202072
0.9586285512334163 -0.9926889244673384
0.997020561473032 -0.9970205614730319
1.0358493124876578 -1.000308053460956
1.0750899413801807 -1.0025375892918726
1.1221486864708654 -1.010387215601876
1.1547056577408412 -1.0037703143554761
1.1950293312656057 -1.0027486711110012
1.2356620787165835 -1.0006194217692417
1.2923376359150238 -1.0096848195340795
1.341707656879452 -1.011049238895441
1.3995994002686591 -1.0168684864659785
1.4417075979486256 -1.0094945279778411
1.4922676305990752 -1.0065472262473443
1.5683139620579432 -1.0184749954781005
1.6282523446203379 -1.0174449873277533
1.6971912553901825 -1.0197753883219072
1.766691823720255 -1.0199999999999998
1.854193779135519 -1.0277963949222346
1.93365522836105 -1.0281427225011008
2.0136747446657113 -1.0260185294113755
2.130141889729026 -1.0389396178901136
2.2385802339805254 -1.0438671064995277
2.347811826141484 -1.0453131727048064
2.3841075704418206 -1.0119936227872188
2.3921343447823116 -0.9664850110130531
2.3899658918328366 -0.9174219508359687
2.3962161830040665 -0.8721513654804551
2.4016171820222647 -0.826943112321178
2.396662421063787 -0.7787228258248674
2.4098879850268498 -0.7367766959012966
2.9414607895712557 -0.8434503088000175
4.153481053042993 -1.1129218939408392
4.521578084446143 -1.1273560334944517
4.959543629756848 -1.1450008666102727
4.245160587184716 -0.9023367381490754
6.125353624713424 -1.1906481311496395
6.962590813796311 -1.2276926161051975
6.647142532205278 -1.0528039497207538
7.4369131962491934 -1.0451899882100915
7.722009059769485 -0.9481434916920474
8.128761761621462 0.14188806433511497
6.446070834273168 0.22510175373113125
5.292736534199241 0.27738056808760225
4.738429238734165 0.3313432502845952
3.765615958786798 0.32944870758614786
3.5206075096036873 0.37003075996749324
3.5334642998431063 0.433854862522325
3.535257005407406 0.4968479704274336
3.526047375924642 0.5584710401936241
3.5354598333138267 0.6233969578242798
3.5338578604115902 0.6869123833555613
3.5408943146563767 0.7526403207602888
3.5467070358182564 0.8188218378116685
3.541579400907387 0.8830149189387871
3.5449477824808806 0.9498658955262511
3.547055658012397 1.017101842964727
3.5574536921824924 1.0876227415685806
3.5569513709438745 1.1557235589623034
3.5551498442534313 1.224136260758909
3.561435032778593 1.2962563432042844
3.5569414249543385 1.365381887767594
3.5603860015364637 1.4384893187171022
3.5623537828609444 1.5121294672534893
3.5719627393825695 1.5903402744263786
3.570852680924401 1.6651159512583558
3.5772003042706846 1.7447171642205281
3.5818462272372384 1.8250418089529776
3.584767227007243 1.9060545449107165
2.1340720854201254 1.1829354734010624
2.0438199529312753 1.1799999999999997
1.9714847916148581 1.1845875722931245
1.89114725442883 1.181719959240047
1.81991513244157 1.1818667059826085
1.7492692780911379 1.1798970263232758
1.6956447316782128 1.1873032232466652
1.6342143286373938 1.1873262096307957
1.5733119547931669 1.185575595609535
1.5208607544609731 1.1882266473785206
1.4688058671536748 1.1894155390841927
1.4248426642012992 1.195584954016963
1.3735714360054452 1.1940274327627234
1.3302292376045357 1.1977437853823563
1.28718251484974 1.2003171137099973
1.23726445658248 1.1948123971894753
1.2162236636408619 1.2162236636408617
1.1809192297802955 1.2228776605757068
1.1252972941031225 1.2067336076716313
1.0839915823013504 1.2038946172733787
1.0431338560949068 1.1999882325542073
1.0091765472078669 1.2026897756967956
0.9754466061272482 1.2045762402583047
0.9419620572482572 1.2056564530182845
0.9147588351911133 1.2139259752718852
0.875800025915785 1.2054353216186717
0.8431573614360377 1.204153505104818
0.8164216390672903 1.210394855930361
0.7842802104216391 1.2076856178414104
0.7630837404958151 1.2211892584652535
0.7365044471213777 1.2257492400040204
0.7050000000000001 1.2210958193360584
0.6738853721424085 1.21572139292376
0.6478707566445293 1.218467678145319
0.6219669846431792 1.220678938138064
0.5961847596331454 1.2223599029668673
0.5705346533499442 1.2235155124994774
0.5450271017215725 1.2241509132410853
0.5196724008907341 1.2242714550917457
0.4982267692431632 1.2331545265738273
0.47304569339979624 1.2323261629763063
0.4480463877566262 1.2309973332295399
0.4264942823388754 1.238629334035105
0.4017220926874317 1.2363734711836996
0.3800832161395578 1.2431961827519462
0.35557218900392895 1.2400275877604314
0.33387656818225175 1.2460443159128982
0.3096600263675746 1.2419785296332755
0.2879373495601474 1.2471936829251011
0.2661269642467318 1.2520289289392712
0.2442355140819775 1.25648279481301
0.22053318563700164 1.2507058463255043
0.2002361152514956 1.2642410759617764
0.17674983821928314 1.2576404473017944
0.1547740661245373 1.260533612584479
0.13275114834991988 1.2630428071177071
0.11068779328952612 1.2651672665765168
0.0892882863924803 1.276881984332575
0.06646666442853884 1.2682595091383089
0.04432236081217637 1.2692263503142516
0.02216455617535017 1.269806572848617
