# .PCD v0.7 - Point Cloud Data file format
VERSION 0.7
FIELDS x y
SIZE 4 4
TYPE F F
COUNT 1 1
WIDTH 171
HEIGHT 1
VIEWPOINT 0 0 0 1 0 0 0
POINTS 171
DATA ascii
4.3474961369731035e-17 -0.71
0.012216684506098517 -0.6998933866094739
0.024778642658775767 -0.709567487183558
0.036635169370060776 -0.6990406743282016
0.04882953162088766 -0.6982948351818768
0.06100901992336085 -0.6973362886642218
0.07421520892003396 -0.706110545711474
0.08652723381765472 -0.7047077676653386
0.09881290168164647 -0.7030903288065149
0.11106847017856394 -0.7012587218225478
0.12329020614352058 -0.6992135046386676
0.13738247667111234 -0.706771572082318
0.14969641738878664 -0.7042662725283401
0.1619647591275829 -0.7015464466453694
0.1741837648317607 -0.6986129229187175
0.18634971247381493 -0.6954665949281291
0.20121526974640938 -0.7017210380349728
0.21343134444759784 -0.6981024718530159
0.22558240589371165 -0.6942712568954621
0.23766475275372442 -0.6902285601875012
0.24967470462773825 -0.685975613173713
0.2651922826635221 -0.6908495156079293
0.28095494506193414 -0.6953878909250905
0.28914103508206257 -0.6811735915548058
0.3009851158760923 -0.6760236386555246
0.31696369630552457 -0.6797308402774874
0.33316207155969885 -0.683083475187367
0.3450327798020556 -0.6771649583831595
0.36149310334513596 -0.6798696465013737
0.37330340758967956 -0.6734571744973348
0.39500000000000013 -0.6841600689897065
0.406880079178943 -0.6771621675546687
0.42393541138656393 -0.6784384769251409
0.4357112280120218 -0.6709364543563392
0.45853818084601233 -0.6798108094951342
0.46459691344434734 -0.6635131558740834
0.48786175940275267 -0.6714841053312064
0.5115427696792411 -0.6788401835401989
0.5294688687800662 -0.6776892481017808
0.5475087402133586 -0.6761169864675646
0.5592252204272893 -0.6664586655135109
0.5838925358015515 -0.671691526398267
0.6089088517865611 -0.6762617911844288
0.6274384912574986 -0.6728454054896369
0.6529788682314575 -0.676179412318332
0.6788225099390857 -0.6788225099390855
0.7049530043318781 -0.6807652030498172
0.7386672386353622 -0.6888183436631234
0.7505762737321682 -0.6758219124224468
0.7773508676294552 -0.6757407998602225
0.8043466652749269 -0.6749269901708662
0.8393176383735285 -0.6796660223338246
0.8589317214313269 -0.6710710081049676
0.8864854161524951 -0.6680146756987736
0.92227937358744 -0.6700751876134193
0.9584078918181204 -0.6710844305307239
1.0031354627916005 -0.6766234131996036
1.0315647985728715 -0.6699060130684832
1.077021082118661 -0.6729974655761702
1.1228891639197671 -0.6746998781321709
1.1691342951089922 -0.6749999999999999
1.206975195852366 -0.6690372759399451
1.2626150577882655 -0.6713443347838238
1.3186896557987844 -0.6719059396145292
1.366166950374734 -0.6663241431193977
1.4319663035179069 -0.6677368535503051
1.4982145505338653 -0.6670480946443123
1.574063299403673 -0.668150229716658
1.6503872611288817 -0.6667997362803234
1.7457953975497673 -0.6701480656497115
1.8230036843246622 -0.6635190780517973
1.919402708466613 -0.660903353548028
2.206451117804756 -0.7169194269498779
2.6394011264579778 -0.8069459050347533
6.382777661030437 -1.8302320426248744
6.37511045350785 -1.7082056976766369
6.365139964370536 -1.5870076351338203
6.382123924343291 -1.4734294059523156
6.357959404769737 -1.3514259903154355
6.360944148740863 -1.2364422900400105
5.593708037109341 -0.9863216491481642
5.560685357550626 -0.8807260381764997
5.575209227015041 -0.7835445584051683
5.588034833740642 -0.6861244033709802
6.335104473495901 -0.6658463110149525
6.425455802691759 -0.5621545407223952
6.444263764678464 -0.45062682038704943
6.441160499167001 -0.3375669177669877
5.166850575688725 -0.18043039795193
5.069227814442904 -0.08848370063702742
5.07 0.0
5.059229337491339 0.08830917657265457
5.076905401257006 0.17728944324870494
6.411201613124364 0.33599683907969935
6.30460479764209 0.4408609140628719
5.648423938180197 0.4941730613792218
5.6289939277844265 0.5916311020949185
5.647587602839122 0.6934365639752892
1.970633456795725 0.2769544709105302
1.9259922641605187 0.3050472068284502
1.9203751183738056 0.3386139464505141
1.9141730077229446 0.3720775409842624
1.917169297438259 0.40750691400280825
1.909765326979061 0.44090406651397535
1.911482580763713 0.47658613433134545
1.9028738777894645 0.5098735188519659
1.9032981579578714 0.5457619645176583
1.9030464643664406 0.581819692398246
1.902113032590307 0.6180339887498948
1.9004923369546267 0.6543919904588849
1.8981790939875351 0.6908806895178508
1.8951682657893194 0.7274869375769595
1.8914550633162464 0.7641974505684606
1.8870349495775025 0.800998813403011
1.8819036427437579 0.8378774847361483
1.8760571191658653 0.8748198018032478
1.8694916163022675 0.911811985321281
1.8711137007955727 0.9533800494530482
1.8718488968609253 0.9952797131060885
1.871686173278307 1.0374925873271614
1.8706148721743878 1.0799999999999998
1.868624715530605 1.1227830033039181
1.8741862925057013 1.1711215739553829
1.8702353665182956 1.21454504808351
1.8736249139743941 1.2637759618438877
1.8676666609789012 1.307754274880385
1.8688292570061287 1.357783932795613
1.868807093510665 1.4082471541757928
1.867585486047931 1.4591176965218102
1.8729217671112997 1.5166621424301086
1.8691484412103063 1.5684017676351558
1.864132663150247 1.6204658016065532
1.8578620636934855 1.6728265158971456
1.857638402112693 1.7322758345587461
1.8558966848737202 1.792218595784213
1.85969083452062 1.8596908345206198
1.8477912654209332 1.913443868900812
1.855035539369996 1.989282068404144
1.8534917796140373 2.058511166572382
1.8500864617532307 2.128281016228217
1.8576561919940988 2.2138684406138465
1.8502019496865223 2.284809126683494
1.8531410407302313 2.3719123683562326
1.8535902713083088 2.4597973709456618
1.8574013972442152 2.556493702224834
1.8583876537773893 2.6540526234963338
1.8509285104881719 2.744114365157188
1.8463263287009422 2.843093225334987
1.844119039531553 2.951207374624363
1.838685927428894 3.0600872635065404
1.8300000000000005 3.1696529778510456
1.827732268328691 3.2973162959155218
1.8262443792371155 3.434666136221226
1.8205019039555828 3.572936161995355
1.8192402591746717 3.7299952921415436
1.8130323428676005 3.888060406387228
1.8059106952565538 4.056141831933148
1.801270502335552 4.24352737441575
1.7906195165280603 4.431938824829244
1.7846723887355949 4.649230523956065
1.7750845438602214 4.877004701878865
1.777602123336076 5.162531422772269
2.051872842649651 6.3150152681998195
1.9150346659339257 6.263796151557882
1.7943991863686646 6.257813640558456
1.7289112212848385 6.452384519610976
1.7128070208456472 6.869693742034055
1.6983804602961818 7.356493989128526
1.6757682279911394 7.883869661914474
1.6600382597759407 8.540156495994676
1.6357658336224845 9.276889033375
