# .PCD v0.7 - Point Cloud Data file format
VERSION 0.7
FIELDS x y
SIZE 4 4
TYPE F F
COUNT 1 1
WIDTH 168
HEIGHT 1
VIEWPOINT 0 0 0 1 0 0 0
POINTS 168
DATA ascii
1.9165722406656076e-16 -3.13
0.05253174337622363 -3.0095415624207376
0.10085954547022813 -2.8882394900851867
0.14601731791781367 -2.786176401965261
0.18904004384657938 -2.7033985762041235
0.2283480459988649 -2.6100301090003732
0.2675928659651929 -2.54597605214278
0.3022359716447658 -2.4615144560704785
0.3354071733137578 -2.3865460456671848
0.3676209928445427 -2.3210676003985737
0.39939080863393994 -2.265057831928078
0.42932023959722604 -2.208661162757244
0.45740571979907035 -2.151924721614373
0.48589427738274876 -2.1046393399361083
0.5104551997152987 -2.0473239824423524
0.5357554233622179 -1.9994664604183712
0.5595438323085082 -1.951361242754787
0.5818196923982462 -1.9030464643664404
0.605673308974897 -1.8640707719385008
0.6283465381023126 -1.8248508509066812
0.6498382723187708 -1.7854159794932256
0.6665643861542583 -1.7364595932847953
0.6892761318852785 -1.7060182924028888
0.7072233425655855 -1.6661137847489171
0.7280585911056827 -1.6352463691802557
0.735355775428817 -1.576975549443771
0.7627657954129948 -1.5639016405605506
0.7763237545546251 -1.523621156362109
0.7981016567360144 -1.5010109078601757
0.8096320658113829 -1.4606149109227908
0.8300000000000002 -1.437602170282168
0.8446624428524891 -1.405754373151464
0.863768400700124 -1.3823183967349744
0.8768688463741938 -1.3502596143921326
0.8891167165184874 -1.3181697403625163
0.9005150050711423 -1.286068709533717
0.9169449935762581 -1.262066511224918
0.9328132858856748 -1.237885040573304
0.9481186720015138 -1.2135365605543518
0.9628601983062514 -1.1890333210291653
0.9706092906266744 -1.1567271091096567
0.9840885434857611 -1.1320643703341577
0.9970046034746988 -1.1072857899613173
1.0161775564931228 -1.089717015412564
1.028094388279316 -1.0646229045012037
1.039446968344225 -1.0394469683442247
1.0502361084944307 -1.0142012208701359
1.0604628673477972 -0.9888976220906227
1.0775599969422216 -0.9702393792203444
1.0867817955207917 -0.9447250017463305
1.1031039980913282 -0.9256141579486165
1.1190901844980379 -0.9062213631117659
1.1268553776576122 -0.8803959097156914
1.1500351344681017 -0.8666136333389495
1.3348780407186631 -0.9698456662825806
2.3837324488809664 -1.669107429781544
3.8135728337531916 -2.572287355965435
3.8243377898311333 -2.4835539996685227
3.824696913665481 -2.389935881691754
3.822966161131421 -2.2970698140988417
3.827832284727219 -2.2099999999999995
3.8308343172705532 -2.1234661366789562
3.840822028936332 -2.042201298118625
3.840238119251865 -1.9566990538774462
3.8378505776974428 -1.8718447967893603
3.842745017035396 -1.7919014297805658
3.8460263766753497 -1.7123612673491186
3.86612038450025 -1.6410707396549498
4.023977928819857 -1.6257926154250582
4.266462549092212 -1.6377415294220223
4.51992150598022 -1.6451168893964663
4.812689549800522 -1.6571419061869275
5.1261946228308775 -1.6656015996809663
5.4700632041085635 -1.672366151014054
5.8733089621831285 -1.684144244041865
6.35579193698207 -1.7030293167745865
6.879396699296815 -1.7152262398016442
7.512393199494164 -1.734372628991199
8.265347226200657 -1.756853787410066
9.138949077897752 -1.7764317469556323
8.55478547928346 0.2987396917734083
6.870571199111468 0.3600713789514535
5.755944569999185 0.402494853503603
4.941125702535058 0.4322924840283845
4.286389369037257 0.45051767668358633
3.8610045298847426 0.4740717458460237
3.8917535101543717 0.5469502867730572
3.9112458287567455 0.6194804815593142
3.909686779458466 0.6893832653377134
2.6798422108121227 0.5209085573779673
2.4844949058638663 0.5280956946771087
2.3190007541888598 0.5353835093383986
2.163759469595472 0.539485827187259
2.018784976944153 0.5409318042642683
1.9129107749172547 0.5485183380758283
1.807415988770137 0.5525825219259723
1.7119017293312764 0.5562305898749054
1.6168367642748318 0.5567215441217379
1.5410958980888898 0.5609130350540966
1.4657212696006068 0.5626376807861214
1.400047620395849 0.5656559560580271
1.3163219404369897 0.5587455137396614
1.269828186123215 0.5653639338753622
1.2053893567587446 0.5620822881151303
1.1504563792629339 0.5611150678900191
1.1048480899935762 0.562948219677038
1.0595371114307124 0.5633658753430689
1.014558860281699 0.5623791594857509
0.9786087062764156 0.5649999999999998
0.9343123577653025 0.5613915016519591
0.8989309819258116 0.5617144200871972
0.8638306849837868 0.5609782060654778
0.8373279482805922 0.5647848325054543
0.8109605238461018 0.5678406719875356
0.7766563145999495 0.5642738422007741
0.7427310243439824 0.5596879715314049
0.7170897857821169 0.560251942546349
0.6994313653112737 0.5663883519448538
0.6817795543758904 0.57208097262102
0.6565973347938117 0.5707713552217413
0.631673101655785 0.5687610154050294
0.6070235723439115 0.5660586388518737
0.589858636277694 0.5696198637763777
0.5727564927611035 0.5727564927611035
0.555726696367198 0.5754718402709209
0.5387787044493738 0.5777694242791447
0.5219218729599094 0.5796529638723675
0.5051654523226907 0.5811263767715343
0.4885185833617699 0.5821937767704233
0.4719902932873781 0.5828594710927281
0.4555894917409871 0.5831279576689742
0.4393249669009952 0.5830039223345238
0.42908323417350536 0.5905824058937116
0.41297503417275316 0.5897894718880741
0.3970269614642302 0.5886166765140796
0.39758649556096987 0.6122295146001595
0.4027386408172357 0.6445165530788838
0.350225890938837 0.5828737644774363
0.3400000000000001 0.5888972745734183
0.32967054176750926 0.5947414008547891
0.3192406626944058 0.6004043631440703
0.3041736348254964 0.5969743712062064
0.28932495688079113 0.5932040705574503
0.2789280527488616 0.598163139444189
0.26437881799927027 0.5938045474676906
0.2539752335180279 0.5983281547440863
0.2397482197861838 0.5933976669227439
0.2293554877089921 0.5974914729582091
0.21547269029517135 0.5920063510951222
0.20510793730800875 0.5956767026275696
0.1946807064562169 0.5991656052659468
0.18711789102255152 0.6120350438163427
0.17365153416470946 0.6055948684411409
0.16305599841458807 0.608533270562113
0.14999157527179396 0.6015833502911178
0.1394696536931964 0.6041094401668459
0.12682613139883314 0.5966700364476215
0.11830157713345785 0.6086088537375517
0.10592538837682755 0.6007327293374469
0.09542502367454087 0.602489887763034
0.08489559158563993 0.6040635219323579
0.07434029947713997 0.6054531525012063
0.0637623625932686 0.6066583561746467
0.053165003076071596 0.6076787658359648
0.04324901372135764 0.618489711161091
0.03192493330819582 0.60916401620029
0.02128869298852566 0.6096284044816485
0.010645967926742994 0.6099070940453987
