# .PCD v0.7 - Point Cloud Data file format
VERSION 0.7
FIELDS x y
SIZE 4 4
TYPE F F
COUNT 1 1
WIDTH 180
HEIGHT 1
VIEWPOINT 0 0 0 1 0 0 0
POINTS 180
DATA ascii
6.674325055353075e-17 -1.09
0.018848598952266288 -1.0798355107689026
0.03769145643870117 -1.0793420931806235
0.056522832742379486 -1.0785198975349397
0.07533699164365526 -1.0773691742806102
0.09674287444990079 -1.1057761148818377
0.11707187885977188 -1.1138645228124662
0.1364936646137652 -1.1116516898382807
0.16004906610407527 -1.1388082790528058
0.18146397944666787 -1.1457184750903597
0.20316836787030856 -1.1522250710242834
0.22515461454432298 -1.1583200764682435
0.14761730048060906 -0.694484796521002
0.15521622749726693 -0.6723153447018123
0.16934532691976736 -0.6792070083931975
0.1785851411207393 -0.6664888201394571
0.18467702839738945 -0.6440453362786737
0.4765658786980609 -1.5587767522197478
0.49133702105616645 -1.5121798609092942
0.5436988179434518 -1.5790160212508588
0.725082703850418 -1.9921483560661257
0.7489890145496773 -1.9511830913791515
0.4682582417698902 -1.158979818208484
0.47669197675691394 -1.1230159212119772
0.8663490497514548 -1.9458518247787397
0.9128554453599108 -1.957624819999164
0.8898934279818271 -1.824551913987309
0.930680524466071 -1.8265633745861538
0.6384813253888116 -1.2008087262881406
0.6593410835350185 -1.1894828017095782
0.8350000000000002 -1.4462624243200124
0.9579708193327012 -1.5943311793059287
0.9326579050504407 -1.49256464923531
0.80061938147209 -1.2328457348797732
0.8387893552061202 -1.2435563588325627
0.8661004188900795 -1.2369195868763776
0.8993114360074839 -1.2377960013936695
0.9267951356541544 -1.2298986854728309
0.9542752867547704 -1.221416668090419
0.9754466061272482 -1.2045762402583047
1.0027486711110014 -1.1950293312656057
1.0300126755150967 -1.184894040949752
1.0706089701741732 -1.1890317207638308
1.0980173597006226 -1.1774794596068645
1.1253465601435757 -1.1653304765486148
1.159655121145938 -1.1596551211459378
1.179717272555388 -1.1392397275527555
1.214047144687823 -1.1321172777037474
1.1890317207638308 -1.0706089701741732
1.215082424158663 -1.0562550366747168
1.2563128867151239 -1.0541716798859244
1.2822908364040018 -1.038378645232232
1.3159779585232256 -1.0281546637938492
1.333721301778979 -1.0050310886639207
1.3672387204936611 -0.9933570763742796
2.3182002853378467 -1.6232213148734604
2.38762820895852 -1.6104755619957507
2.4656914697595465 -1.6012387629441793
2.544144288469278 -1.5897577926996147
2.622931940148464 -1.5760165092247658
2.5547749411640943 -1.4749999999999999
2.5626357419184296 -1.4204921873217677
2.5605480192908883 -1.3614675320790832
2.557188724420616 -1.3029527342524991
2.660430377045534 -1.297578594495669
2.7642387504617822 -1.2889856983091332
2.877668191574193 -1.2812204256887705
3.1205114532037728 -1.324578525578638
3.2729590066207592 -1.3223612747581694
3.267531492740206 -1.2542878234085508
3.2607333941271026 -1.1868098973400705
3.186397599769698 -1.097164680520618
3.233592155403522 -1.0506577808748212
3.23231007515506 -0.98821636196285
3.210614064433985 -0.9206287684287772
3.1972144850168163 -0.8566910392893436
3.1922729394480283 -0.7959230365229069
3.1861901118477194 -0.7355899477044385
3.1887611783922063 -0.6777921120658953
3.1706558025359546 -0.6163130550662397
3.17108096469931 -0.5591471320875157
3.1704795733103923 -0.5021546327791411
3.1589551392856094 -0.44396219206260873
3.1463713007029908 -0.38632581859431747
3.132743970410061 -0.3292646592931084
3.1380132989889984 -0.27454058965512323
3.132351117815848 -0.21903532755655347
3.125710443781816 -0.16381154304041418
3.118099380299579 -0.10888642971180303
3.109526331936377 -0.05427698401995172
3.1 0.0
2.999543085469174 0.052357219311850535
3.0881176554890057 0.10783944481072799
1.8774235253385987 0.09839159773673439
1.8554691334832731 0.12974704116407307
1.882807979393399 0.16472435379307393
2.3072907972543937 0.242506034780956
2.302707071807867 0.28273687669994213
2.2974219194804433 0.3228815942273518
2.301313833586671 0.36449230354373796
2.2847539869883224 0.4028637721872783
2.27737506559858 0.4426768692735839
2.2790839097097675 0.48443423960537924
2.2507948496538934 0.5196369355343281
2.2607890422230716 0.5636780167472258
2.250607175253529 0.6030483750888733
2.239739751536283 0.6422350390536081
2.237753128953503 0.6841497890512038
2.2444933784565624 0.7292801067248759
2.2314238384143876 0.7683408445188897
2.236468437470462 0.8140079411150914
2.22192141506334 0.8529157199178146
2.22524125096029 0.8990558241981889
2.2184166968203813 0.9416620196591498
2.9142100098798966 1.2974898914118025
2.90018491851728 1.3523784375702383
2.3278765799148426 1.1353812701837105
2.2096961799871524 1.125896439354076
1.9424847042896396 1.0328374381289598
2.230280253205459 1.2362645316281593
2.8405633244129587 1.6399999999999997
2.1000598867201754 1.2618432835296327
2.2388469738529646 1.398986857575661
1.8283018381210245 1.187313096332759
1.7326885266400371 1.1687131682538607
1.7447938543355523 1.2217178094277281
1.6261241586936441 1.1814483571078709
1.6052573751950585 1.209648196535617
1.7021032277905195 1.329828786703422
1.6941781959761963 1.3719184524886459
1.6086933305498539 1.3498539803417324
1.5773430226655933 1.37116337059016
2.7347729577568107 2.4624006314005986
2.727949307039506 2.5438538830331194
2.711911047276715 2.6188620566304195
2.7011479041326116 2.701147904132611
2.6813813099717296 2.7766516293071932
2.5711338174356193 2.7572034551042726
2.4624006314005986 2.7347729577568107
2.3683730946557318 2.7245015846042064
2.2690402621934838 2.7041368842099924
2.1774485530324377 2.688925026641119
2.0932490161072383 2.6792365622628544
2.0100621773278413 2.667442603557958
1.9279356275193118 2.6535757415498273
1.8583876537773893 2.6540526234963338
1.778233433036975 2.6363394807250327
1.704720179597035 2.625038877669177
1.6321513338382712 2.6119881361617923
1.153685287798522 1.9200547535727315
1.1100000000000003 1.922576396401454
1.056884972137015 1.9066709615638828
1.0187532912453832 1.9159962765038712
0.9669997644452347 1.8978438965212232
0.9118119853212812 1.8694916163022675
0.8663674365684337 1.8579309634251322
0.8256753854438746 1.8544972790144796
0.7853695682634401 1.850214755439405
0.7454671208976652 1.8450958705879068
0.7059848606042413 1.8391534401994873
0.6669392794850542 1.8324006105325212
0.6283465381023126 1.8248508509066812
0.5933126291998991 1.8260285112866947
0.5555062389731998 1.8169790363297673
0.5485183380758283 1.9129107749172547
0.5409318042642683 2.018784976944153
0.5298089513632722 2.1249476405444323
0.5128884039040125 2.221563747710336
0.4969089410544446 2.3377727657537957
0.4732063085338314 2.4344354149502068
0.4271745170606488 2.4226270724100316
0.35823492494212883 2.2618062999628656
0.3159229391793486 2.2479085160433647
0.2949238110404569 2.4019616869719993
0.25818530427110403 2.4564690815596353
0.21527468458671617 2.4606009042866117
0.18555222015937314 2.6535203736911326
0.1502041944172492 2.866066764745627
0.10888642971180337 3.118099380299579
0.05986175407988274 3.429477594386422
