# .PCD v0.7 - Point Cloud Data file format
VERSION 0.7
FIELDS x y
SIZE 4 4
TYPE F F
COUNT 1 1
WIDTH 167
HEIGHT 1
VIEWPOINT 0 0 0 1 0 0 0
POINTS 167
DATA ascii
1.0225800772880399e-16 -1.67
0.029320042814636443 -1.6797441278627372
0.05932914439425183 -1.6989644059324627
0.09001784473786362 -1.717642799777867
0.15555693644939927 -2.224567832079408
0.1978435360371845 -2.2613619646682626
0.16097383343218633 -1.531563718867141
0.3521079454289656 -2.5053782139161727
0.39421485190138195 -2.488974618299747
0.43759340772066463 -2.4817155375907642
0.4789305783951277 -2.4638842304536364
0.5904692019224362 -2.777939186084008
0.6478590365103316 -2.8061857865814774
0.7015734972390363 -2.8138576062003895
0.8178681825239655 -3.052325611073456
0.8710140443817174 -3.037586959165088
0.9209708698766208 -3.0123599812835615
0.9734035322810844 -2.9958280263297334
1.0255396865400437 -2.9783835131378478
1.0773634514758568 -2.9600317554756113
1.1252753615722426 -2.9314425392012136
1.1800107692601234 -2.92062914188538
1.230803054741212 -2.899590288375187
1.2812204256887711 -2.877668191574193
1.3354737071006102 -2.8639326070358138
1.385252823853485 -2.840189186305368
1.4391498841743635 -2.824490681677126
1.492919569659133 -2.8077733452913876
1.5465426885858153 -2.7900368657746726
1.6000000000000005 -2.7712812921102037
1.6532722204612746 -2.75150703525378
1.7116392234732518 -2.739195350585256
0.6045493288666802 -0.9309243304194207
0.609520264783114 -0.9036509540849955
0.6194625512591297 -0.8846842078321112
0.6818308926592688 -0.938459713474939
0.6981054268563759 -0.9264171916548596
0.6218180900789149 -0.7958908611427892
0.6104407793183424 -0.7538315826132617
0.6170761052990777 -0.7354026653942188
0.6823013901501277 -0.7848979634316828
0.7092784427403898 -0.7877335150060379
0.6956383272637484 -0.7459807756515539
0.7016049541635874 -0.7265331983420376
0.7141778489984131 -0.714177848998413
0.7409199943488107 -0.7154981215727672
0.7898619977487041 -0.7365582288674984
0.8174593080251338 -0.7360436669947441
0.8301805382450493 -0.721664931889558
0.8886115540180144 -0.7456336272363855
1.0569185075814804 -0.8558757318277791
1.0716946249051418 -0.8372996064428954
1.110103358965737 -0.8365228821813471
1.1245336221811768 -0.8170215006865376
1.1631959028903682 -0.8144785396184854
1.1855237287537097 -0.7996458519631678
1.2076856178414106 -0.7842802104216388
1.2381502203883819 -0.7736821257804791
1.260035932032105 -0.7571059701177796
1.2903778516388136 -0.7449999999999999
1.3294219548518815 -0.7369106227744323
1.3597392930027477 -0.7229862066902718
1.389970177733854 -0.7082251795936929
1.420094593152684 -0.6926264119267423
1.45009245925864 -0.6761892187851192
1.4342663684988834 -0.6385765296290062
1.4175774743167582 -0.6017259378734815
1.400047620395849 -0.5656559560580271
1.4003706397458027 -0.5375519243179504
1.3907450787631443 -0.5061898121219897
1.2669948913030846 -0.43626132697259
1.1317572543912326 -0.3677302233061874
1.185817897394164 -0.3625409138561935
1.2304149708010481 -0.35281581544575896
1.2653628324386796 -0.33905294908430217
1.2904933159470753 -0.3217561211475581
1.3446306894036246 -0.31043245499453365
1.3694066410273278 -0.291076367144863
4.083569083142282 -0.7937654207664264
4.057407942410297 -0.715430491987753
4.0396453130341134 -0.6398169620145442
4.030391039778191 -0.5664345209074664
4.029737375663767 -0.4947895342248987
4.0178684572878245 -0.42229499160131995
4.004702686328817 -0.3503660858455858
4.000231841541895 -0.27972345971394247
3.9845318436707498 -0.20882046540934587
3.977575491536001 -0.13889999687595386
3.9693953497708736 -0.06928605355601554
4.17 0.0
6.499010018516543 0.11344064184234283
6.705912449298133 0.2341756228737815
7.120228582800111 0.37315536801218946
7.54158421996427 0.5273589415055873
8.02932926661947 0.7024752865461249
8.632450051796612 0.907307061163232
9.300157440879186 1.1419157477062318
9.857129639139476 1.5612159611015042
5.517460320598462 2.117954581812725
4.765725012473287 1.9254778901577876
2.9087953369097117 1.234710366026105
2.347811826141484 1.0453131727048064
1.957624819999164 0.9128554453599108
1.6447931047274758 0.8022191986240117
1.4345205039432725 0.7309247045806703
1.2802740096454441 0.6807337660395416
1.1457518163526084 0.6351006025227016
1.0565509926170151 0.6099999999999999
1.0628874528706194 0.6386472128884672
1.0515796392339682 0.657099887649174
1.006404681534509 0.6535668420180324
0.9368124569871971 0.6318879809219439
0.8683011669463313 0.6079910225321088
0.784746484543699 0.570151694723699
0.8066218651477658 0.6078331733835688
0.9613731194002006 0.7511069998973031
0.9170322345192254 0.7425980614388082
0.8656302207244451 0.7263499989457893
0.7999921550361384 0.6954225707299377
0.7580077219869421 0.6825132184860354
0.7094130905705953 0.6615384092606235
0.6761794123183321 0.6529788682314573
0.6434671708797584 0.6434671708797582
0.6043527822993277 0.6258256262946265
0.5728786224524987 0.6143371093601032
0.5419957911506752 0.6019473086366893
0.5182866329025009 0.5962205683759898
0.4949464594586353 0.5898542212016131
0.46569708937687976 0.5750880114781584
0.443276262234474 0.5673677425968398
0.42127051620643374 0.5590448570331049
0.39969397155888176 0.5501315561749643
0.36708891926466947 0.5242573083449548
0.38025117436010786 0.5637455493374284
0.37580093416036875 0.5786826918823424
0.36564429232091133 0.5851531863479339
0.360526652437038 0.6000171104914785
0.35000000000000003 0.606217782649107
0.3490629265773627 0.6297261891403649
0.34271424083370033 0.6445517427870167
0.3359529698072647 0.6593448278993922
0.3287783600918081 0.6740955347243753
0.3211898789229316 0.688793918147854
0.3172545815991243 0.7125654569612287
0.312584902791419 0.7364038827619523
0.3109234725352071 0.7695625992904335
0.30102907761805214 0.7842075582576494
0.29071712182681847 0.798738727668022
0.2864999759222979 0.8320563465273987
0.27502512499370324 0.8464402995026866
0.26898196834491783 0.8798003754859927
0.25634274090980924 0.8939733772226366
0.5357554233622179 1.9994664604183712
0.5104551997152987 2.0473239824423524
0.48814378792618734 2.1143830405839603
0.4636430705236031 2.1812691496363867
0.43886068936605327 2.257742521929627
0.41328266284729437 2.343842452169055
0.3832644393485658 2.419836434458088
0.3521079454289656 2.5053782139161727
0.3180789862874349 2.5905454557838503
0.28327213545534086 2.6951543364480206
0.24577919454839656 2.8092690486187224
0.20438646807028693 2.922862667261285
0.15282099222939638 2.9159982414833556
0.10120854043725314 2.8982333983553774
0.05026293053937676 2.879561362050407
