# .PCD v0.7 - Point Cloud Data file format
VERSION 0.7
FIELDS x y
SIZE 4 4
TYPE F F
COUNT 1 1
WIDTH 162
HEIGHT 1
VIEWPOINT 0 0 0 1 0 0 0
POINTS 162
DATA ascii
9.674709713264091e-17 -1.58
0.027225754042162414 -1.5597624044439704
0.05409421988887667 -1.5490557818795985
0.08059737261413372 -1.5378894835220438
0.10742496956595286 -1.5362486374001294
0.13421984383139388 -1.5341398350612883
0.16097383343218633 -1.531563718867141
0.18646009540987565 -1.5185956120112227
0.21154311345929952 -1.505207464487187
0.23778038686115102 -1.5012862777046094
0.2622087482770649 -1.4870597070484342
0.2881215830185828 -1.4822570470059726
0.3118675362266389 -1.4672214011007085
0.33742658151579774 -1.4615550971778528
0.3628828433995015 -1.4554435894139948
0.3856403772027559 -1.4392294811707118
0.41069966016732873 -1.4322799269480952
0.4356338400368778 -1.4248940863849229
0.4604353216186717 -1.4170742092797788
0.48509655014116354 -1.408822677642982
0.5061898121219899 -1.3907450787631443
0.5303845653270443 -1.3816990312158586
0.5544177582555501 -1.3722321047588453
0.5782820701641251 -1.3623471831096117
0.6019702317521846 -1.3520472773110492
0.6297012099936422 -1.3503986026846084
0.6531730087157254 -1.3392031289857589
0.6764458446119248 -1.327599721040668
0.6995126285509774 -1.315591913359801
0.7272144303695056 -1.3119295607090935
0.7550000000000002 -1.3076983597145022
0.7777074931141821 -1.2943226240601895
0.8001780889921394 -1.2805526251962034
0.8278513332228413 -1.2747792632770445
0.8555651423102426 -1.268427486009214
0.883307711980611 -1.2614941482050475
0.9051892885304087 -1.2458861713374192
0.9267951356541544 -1.2298986854728309
0.9542752867547704 -1.221416668090419
0.9817398100377466 -1.2123476998728744
1.0091765472078669 -1.2026897756967956
1.0431338560949068 -1.1999882325542073
1.0706089701741732 -1.1890317207638308
1.0980173597006226 -1.1774794596068645
1.1322931438481656 -1.1725238745520012
1.1525840533340725 -1.1525840533340723
1.1869106705587744 -1.1461863112573454
1.214047144687823 -1.1321172777037474
1.2484833068020222 -1.1241394186828817
1.2830062863787124 -1.1153003492838622
1.3099359977334524 -1.0991668125639822
1.3366910537059897 -1.0824310726057205
1.371138711275696 -1.0712509670666455
1.4135848527837083 -1.0652125909791255
1.431960080043657 -1.0403798965576774
1.4744736797201852 -1.032437585431883
1.508848382050176 -1.0177310843167593
1.5431538450195803 -1.0021358244276497
1.5858499398125165 -0.9909490241160932
1.6200461983269923 -0.9734219615800023
1.6627687752661222 -0.9599999999999999
1.7055084289218216 -0.9453787594803572
1.7482362338606754 -0.9295536943160638
1.7909231136186192 -0.9125209044764888
1.8425277949132923 -0.8986608509176086
1.885120197036232 -0.8790459844206548
1.9275809156258876 -0.8582143168899383
1.9790854349227467 -0.8400719262519385
2.0305326415012646 -0.8203884395808473
2.08188435108876 -0.7991605274860196
2.142499175391871 -0.7798059267825246
2.2030582811464083 -0.7585737998851751
2.2635145087824653 -0.7354604466123748
2.3238205569901766 -0.7104632424762503
2.3935416228864144 -0.686337015984328
2.463110857037124 -0.6599885650114279
2.5324718455803508 -0.6314161475151328
2.6113117736244305 -0.6028688256415582
2.6996873780253035 -0.5738362666570157
2.7976374728258424 -0.5438056368231527
2.8854867163257696 -0.508789160564106
2.9729419051913646 -0.47086773977109486
3.0698310130988684 -0.4314366129762029
3.1860731467686434 -0.3912005923305234
3.301812692622667 -0.3470344980486095
3.4269097614356046 -0.2998157550519441
3.5513280189249743 -0.24833304652908608
3.6949292785919234 -0.19364303809889216
3.8376607757533274 -0.1340140673376037
4.009389257577129 -0.06998414981350688
4.21 0.0
4.409328335639685 0.07696511238842028
4.637173437368604 0.1619336646996045
4.893284720297412 0.25644618559042476
5.167381780345889 0.36133853399456906
5.498994733466435 0.481099699967073
5.867679182672813 0.6167179332791555
6.272891678373155 0.770214250320532
8.724261685613236 1.2261150194581765
8.968462948663298 2.914030256955754
9.01079202546149 3.102664511976703
3.6734027699854623 2.0362004050346156
3.2562555182294894 1.8799999999999997
2.922940495394203 1.7562798354432847
2.6713515028927417 1.6692456823345954
2.4405313527211843 1.5848995918937285
2.238401445898613 1.5098208393710164
2.0642631516082592 1.445412619604636
1.9173702766686256 1.3930510479331615
1.7889435425059361 1.3480656518605882
1.6705827976462506 1.3052023276903957
1.569834842143081 1.2712271899206717
1.493786664082007 1.2534358388887514
1.3886656276099005 1.2071486133425335
1.293071996330666 1.1642872550644132
1.2286742187202064 1.1457572449049973
1.1437502825384553 1.1045068090298056
1.0889444430272832 1.0889444430272832
1.035040971983906 1.0718163025045901
0.9752576548893728 1.0458357933154137
0.9234002367752243 1.025539859158804
0.8725585085573748 1.0037637416962868
0.8291960164956358 0.9881973316234817
0.7866504888122969 0.9714324518212135
0.7449503851440465 0.9534930118641335
0.7041235770878964 0.9344035467553325
0.6700751876134193 0.92227937358744
0.6309340799861507 0.901067248717891
0.5983364067136991 0.8870702026338947
0.5718709867657786 0.8806040963426952
0.5458168421602011 0.8734895390411189
0.5098876941609538 0.8485956276950911
0.4900000000000001 0.8487048957087499
0.4654172354364836 0.8396349188538199
0.4413032690187374 0.8299707372873912
0.4222111647577786 0.828636067495182
0.3989177435780605 0.817902582132242
0.3803564355666295 0.815677008332985
0.35792824590670436 0.8039200027254888
0.3360287705007754 0.7916341739690987
0.32216167033768445 0.797378114927437
0.3046127571135051 0.7935433625226215
0.2872969203935618 0.789341801460163
0.26696588665486853 0.7753252319914397
0.25030376544370747 0.7703557781990744
0.23389736377818943 0.7650438047704284
0.21499713753725935 0.7497841228318888
0.20187885517996618 0.7534221445054733
0.18386064065574745 0.7374247519697573
0.1709628013013375 0.7405212492367788
0.15385465120514183 0.7238292245430162
0.14119865657864322 0.7264041157512713
0.1267631696968592 0.7189096596989119
0.11263281482896625 0.7111356052284992
0.10159636370084779 0.7228956901813464
0.08774592725170619 0.7146332291817518
0.07526049355271049 0.7160557646651567
0.06275213477831401 0.7172601826260567
0.049527096358328915 0.7082704756844751
0.036635169370060776 0.6990406743282016
0.024080652724725742 0.689579670643176
0.012042160441725682 0.6898949096579099
