# .PCD v0.7 - Point Cloud Data file format
VERSION 0.7
FIELDS x y
SIZE 4 4
TYPE F F
COUNT 1 1
WIDTH 180
HEIGHT 1
VIEWPOINT 0 0 0 1 0 0 0
POINTS 180
DATA ascii
7.347880794884119e-17 -1.2
0.021291935853485988 -1.2198141880907973
0.04327537591110134 -1.2392446255036786
0.06646666442853884 -1.2682595091383089
0.09068341586736281 -1.2968332653377714
0.11591713785438562 -1.3249389484620215
0.14111342541133218 -1.342604558747169
0.16817969389910353 -1.3697136892650241
0.1962340723536923 -1.3962779769256142
0.22682997430833482 -1.4321480938629498
0.22400614919034023 -1.2704020013857484
0.2404193341744466 -1.2368502511440567
0.2682060811549094 -1.2618104049466095
0.29468588119046335 -1.2764247848686583
0.3241753401035547 -1.3001962732098353
0.3571702822414786 -1.3329776402789142
0.3941614188183088 -1.374604225191796
0.42978640594242307 -1.405767991265662
0.4635254915624212 -1.4265847744427302
0.5013749578640214 -1.4560986064229477
0.5438120278878135 -1.4941112670495944
0.5877234372542922 -1.5310718994554107
0.6405772747412098 -1.5854843913092063
0.6876867861411218 -1.6200885420762952
0.7443280568287147 -1.6717881874859597
0.8072008799247359 -1.7310478732400012
0.8635911591744826 -1.770624271209359
0.9669997644452347 -1.8978438965212232
1.7605183604470906 -3.311053473220976
1.8131879797213009 -3.2710777047013404
1.8600000000000005 -3.2216145020781117
1.9056408771672013 -3.171519012597815
1.9501028923781942 -3.120816993855648
1.9988252585051498 -3.077920984359706
2.046646026702933 -3.034277515551453
2.093553992681318 -2.98990496165482
2.139538318344602 -2.944821859524809
2.1845885340419353 -2.899046901471673
2.228694540678883 -2.8525989280563335
2.1837417569429363 -2.696696486255689
2.320463270968407 -2.7654204396595103
2.3618125043658265 -2.7169544888019788
2.40887018289189 -2.6753213717186193
2.448374112624369 -2.6255597888128217
2.4938235499478005 -2.5824298832157573
2.5385133444597057 -2.5385133444597052
2.5824298832157577 -2.4938235499478
2.6255597888128217 -2.448374112624369
2.6753213717186193 -2.40887018289189
2.716954488801979 -2.3618125043658265
2.7577599952283207 -2.3140353948715413
1.562063382528511 -1.2649339860101732
1.544501077069175 -1.2066964916382903
1.5733119547931669 -1.185575595609535
1.601853648862396 -1.1638147995390968
1.6219210476922037 -1.1356813439750713
1.6414943936589825 -1.1072019488720786
1.668954430211394 -1.0838316796799037
1.696096192312852 -1.0598385284664098
1.7229062744112456 -1.0352265305692088
1.7493713156445663 -1.0099999999999998
1.775478005492973 -0.9841635291000641
1.8012130894322111 -0.9577219880832173
1.835473439828038 -0.9352204294634663
1.8605036758392757 -0.9074282738533902
1.885120197036232 -0.8790459844206548
1.9001745518966098 -0.8460122175976643
1.933060192250125 -0.8205353698274749
1.9656297716815894 -0.7941659780417335
1.9885263084390397 -0.7633237325314896
2.020339134689703 -0.7353433081501877
2.0517753090505173 -0.70648289517203
2.082813770686386 -0.6767472176811348
2.1134335106783086 -0.6461414674372481
2.134000964983068 -0.6119149299137382
2.173333109150404 -0.5823428514806717
2.202571298646512 -0.5491627030112457
2.241051149006041 -0.5173874249908894
2.2693024337024292 -0.4823551226972016
2.2970076092675336 -0.4464930491811148
2.3339943746389333 -0.4115461810706249
2.3704520174283306 -0.37544271609655405
2.4162540877294316 -0.33958236634255967
2.4515889945540654 -0.3010172782107143
2.4863047384206833 -0.26132115816913365
2.5203725861721162 -0.22050402915157513
2.5637396091677482 -0.179274137522402
2.6064230857094377 -0.13659684579408338
2.6483856916006037 -0.09248366626162756
2.6995887769222566 -0.047121497380665484
2.73 0.0
2.7795765925347675 0.048517689895648156
2.838269948734232 0.09911457063510275
2.8860393554407184 0.15125091354210768
2.9428139482664815 0.20578159754516964
2.9985460412561538 0.26233878567045105
3.053182218780599 0.3209023822316961
3.1066694546373377 0.3814510448581116
3.1589551392856094 0.44396219206260873
1.491409394298658 0.2362160422107486
3.318802127651141 0.5851943587375552
3.376797511059964 0.6563829440953142
3.452861030590334 0.7339282685866904
3.536963335170404 0.8165723272682298
3.619203059009467 0.9023686705867606
3.718814431212913 0.9964533236447048
3.816208932875126 1.0942803025934866
3.9112864518888153 1.195800272315993
4.013458498765548 1.304051716262278
4.131916175369015 1.4227328349777748
4.247410645952305 1.5459310478320225
1.3163484013610545 0.5052988088588733
1.2795137193021666 0.5169570989139586
1.251886600695319 0.5313943347454123
1.2241509132410853 0.5450271017215722
0.815677008332985 0.3803564355666295
0.790938760743267 0.3857666091743881
1.1493984162029947 0.5856477446640154
1.1301729188594265 0.6009236003659403
1.1020208309956387 0.6108601215103847
1.0825317547305484 0.6249999999999999
1.0714591258776405 0.6437975936375677
1.0261381963492753 0.641202309722178
1.0231780928934173 0.6644596227183329
1.0031354627916005 0.6766234131996036
0.99936549403257 0.6997632523482762
0.9950909030811853 0.7229758603197419
0.9823216773581702 0.7402324784770193
0.9692532269362679 0.7572636146505597
0.9558895325920741 0.7740640809913001
0.9422346650363429 0.7906287599144433
0.9131985920695541 0.7938314250785138
0.906636687082421 0.816339339757807
0.914192127023963 0.8524979500781231
0.9063681484267005 0.8752695467783366
0.8980256121069154 0.8980256121069153
0.9169490490058766 0.9495285364470195
4.180649947183116 4.483198190925515
4.101770616979801 4.555477780176426
4.02164184771181 4.626369726765592
2.532583182164965 3.0182151058887734
3.857733997135504 4.7639047437312305
2.0809357866007248 2.66347634719072
3.5988538384492488 4.775840350082811
1.0168684864659785 1.3995994002686591
0.9980229992508202 1.4253245570628457
3.321605846616236 4.9244831809769485
3.1697991837874584 4.881062705442368
2.8721624121439704 4.596420681167829
2.8172582697579975 4.6887051348405535
2.5500000000000003 4.416729559300636
2.3125418885750277 4.171936003054918
0.5821447378545047 1.0948550151450693
1.9249197188956788 3.7778676625586796
1.7447171642205284 3.5772003042706846
1.6017232119972509 3.434906512868903
1.4642519150728814 3.2887636475133633
1.336300459433316 3.148126598807346
1.2324556923383512 3.05043488152473
1.1324427205631487 2.9501141477311577
1.0363210342767766 2.847268640981302
0.9506590110148977 2.760914240750005
0.8745180940811013 2.6914899411152846
0.7981747538930714 2.610711983779087
0.7304389929150478 2.547343494236545
0.6677531363645035 2.4920886318257964
0.6023855200431726 2.4160363584272315
0.5466310620555923 2.3677192574281216
0.49067159032991176 2.3084283377317814
0.43886068936605327 2.257742521929627
0.38897191797392416 2.2059693667473463
0.3425914784381057 2.1630374659033516
0.2978304360545401 2.1191736671069608
0.2534882342827068 2.06449599541395
0.21323806506601306 2.0288246665512775
0.17343992806784014 1.9824274492025735
0.13672268853848546 1.9552255385092554
0.1004850359864524 1.9173687067287817
0.06561105380070202 1.8788547547959
0.03228695190897466 1.8497182360393238
