# .PCD v0.7 - Point Cloud Data file format
VERSION 0.7
FIELDS x y
SIZE 4 4
TYPE F F
COUNT 1 1
WIDTH 180
HEIGHT 1
VIEWPOINT 0 0 0 1 0 0 0
POINTS 180
DATA ascii
7.715274834628325e-17 -1.26
0.0218155080466045 -1.249809618945489
0.04292638094407633 -1.2292507172334877
0.06541994530367996 -1.2482869184432173
0.0892882863924803 -1.276881984332575
0.33293493729605494 -3.8054637467104677
0.2979061203128124 -2.834387401799579
0.46066611807145746 -3.751824453204197
0.5260743216290474 -3.7432132998431356
0.5913222778520728 -3.733461927449621
0.6615995569110049 -3.7521175389765125
1.163934871796924 -5.98792581903075
1.2682613139883312 -5.966700364476214
1.3699519209541386 -5.933913694542083
1.4733043442019762 -5.909100973020818
0.424463233968134 -1.5841183551140718
0.9123596477542673 -3.1817762135558354
1.7863911158559218 -5.843022058934147
1.835560946587188 -5.649275706793213
1.738533944801217 -5.049069193700351
0.4001635676910325 -1.0994403663195127
0.41570682147254817 -1.082953294736754
2.180210373680609 -5.396210033578702
2.1177627164118635 -4.989136305712226
2.204512605470838 -4.951416380422897
2.1130913087034973 -4.531538935183249
2.0296584096334285 -4.161416434365143
1.947619243882656 -3.822417988768098
1.8778862511435634 -3.5317903714357075
1.8180360759237641 -3.279823901772734
1.7700000000000005 -3.0657299293969125
1.7253775509486822 -2.871510457352076
1.6851432602615917 -2.696792945777435
1.6448098857453821 -2.53278511519518
1.6160674910304582 -2.395918584684071
1.583070964328887 -2.2608596422376173
1.5576309185750539 -2.143895035093611
1.5406464592692437 -2.04450690572107
1.5145272293011194 -1.9385064538725358
1.5040757346091118 -1.8573788478821602
1.4784115022790405 -1.7619022191736493
1.4695722249387366 -1.6905494596990092
1.4520134157987223 -1.6126242712859455
1.4321965561312469 -1.535842773400258
1.4171030757363547 -1.4674531926908483
1.4000714267493641 -1.400071426749364
1.3883258146535968 -1.3406906549858646
1.382258496060232 -1.288976900518122
1.3673864788784054 -1.2312003157002993
1.350930148598762 -1.1743456618930082
1.3405777754582116 -1.1248783169514436
1.32891959409142 -1.076137868695222
1.33173817359536 -1.0404678933003624
1.3177485915780331 -0.9929947882008796
1.3025173609436655 -0.9463342561908819
1.294260229976607 -0.9062507694346528
1.2850082374603147 -0.8667490003796575
1.2747792632770445 -0.827851333222841
1.2635916632730746 -0.7895797037074753
1.260035932032105 -0.7571059701177796
1.2470765814495917 -0.7199999999999999
1.2507061812093359 -0.693277756952262
1.244956105931087 -0.661954903528106
1.2384990686218313 -0.63104679463797
1.231347843429859 -0.6005684711010361
1.214452434629111 -0.5663084707325373
1.2058800040882331 -0.5368923688600562
1.205861358022697 -0.5118577783209486
1.1960671723911558 -0.48324250550652653
1.1949829459164183 -0.45871097541798433
1.1840127021902447 -0.4309453805903426
1.1724430337431528 -0.4037045115268743
1.169799515043039 -0.3800909030811853
1.1571287547152729 -0.35376976271451144
1.1631266520853658 -0.333521200538569
1.159110991546882 -0.3105828541230249
1.1546519142684357 -0.28788705576360457
1.1497566764465774 -0.2654422441257607
1.1444326928585526 -0.24325667825677838
1.13868753279929 -0.22133843463679195
1.132528915964039 -0.19969540431696986
1.125964708278457 -0.17833529014586316
1.1190029176779743 -0.15726560408487392
1.1215771513546937 -0.13771235804781665
1.1138645228124662 -0.11707187885977188
1.1057761148818377 -0.09674287444990057
1.0973204552858067 -0.07673212111853783
1.0885061928824855 -0.05704619230480878
1.0893360014508144 -0.03804045140572606
1.0798355107689026 -0.018848598952266194
1.08 0.0
1.0698370338173386 0.01867407488789336
1.0593542766402415 0.03699346650465103
1.0585473068398483 0.05547611361752046
1.0574178932754137 0.07394186216877283
1.0559663799772503 0.09238508731251766
1.0541932090903698 0.11080017106371268
1.0520989207398013 0.12918150400945633
1.0496841528660645 0.14752348701766937
1.046949641030846 0.16582053294264473
1.0438962181929405 0.18406706832694616
1.0405248144545238 0.2022575350991375
1.027054980770496 0.2183072753586473
1.023088568024497 0.23619860706105825
1.0188105125897964 0.2540179903796511
1.0238813758664125 0.274348187808672
1.0093247807352348 0.2894192236078491
1.0136830413208178 0.30991400700610094
1.0081199072728628 0.3275580140374443
1.002249690135276 0.34510224372458614
0.996074178033063 0.36254135192520887
0.9895952520870339 0.3798700265180183
0.9828148858407947 0.39708298902086675
0.9757351446595869 0.4141749961986302
0.968358185101157 0.43114084166034816
0.9697493321292154 0.4522015400625484
0.9706975700031004 0.47344083853220364
0.971197111365321 0.494849644716106
0.9624128762162305 0.511724003436621
0.9620816778533354 0.5332905822709708
0.9526279441628827 0.5499999999999999
0.9514557037793447 0.5716922631501602
0.9498138676951972 0.5935095759411896
0.9476977417783291 0.6154421095669804
0.9451028327127475 0.6374799099566513
0.9420248509323405 0.6596129018037029
0.938459713474939 0.6818308926592688
0.9344035467553325 0.7041235770878964
0.9298526892559318 0.7264805408842767
0.9170322345192254 0.7425980614388082
0.9115928873115838 0.7649172555269816
0.9056514962673263 0.7872708347886087
0.899205238827647 0.8096480336942184
0.892251515975388 0.8320379992762481
0.8847879544165409 0.8544297956645666
0.8838834764831844 0.8838834764831843
0.8752695467783367 0.9063681484267003
0.872957900879998 0.9361327380725382
0.8698697882665157 0.9660882731206125
0.8594373279775647 0.9886695500918312
0.8613353969799628 1.0264995537794306
0.8495825279172807 1.0491470479669107
0.8434562211961519 1.079574732441209
0.8305047319498265 1.1021170038652641
0.7876322380719141 1.0840827724624296
0.7513851316198703 1.0730891780185794
0.7213588454772634 1.0694584685960038
0.6862451841189343 1.0567249156112342
0.657099887649174 1.0515796392339682
0.6283464513902663 1.045744106856577
0.6000000000000001 1.0392304845413263
0.5720753518906778 1.0320512544244869
0.5492817284594923 1.0330486836449444
0.5220890747004788 1.024657502816623
0.4953593958716575 1.0156372723180587
0.47333245314958344 1.015064721481048
0.44741030738338045 1.0049000034068611
0.4219896187684156 0.9941452417286357
0.4045751208891852 1.0013585629321304
0.3834537060134712 0.998931056352006
0.362541351925209 0.9960741780330629
0.34184656218001463 0.9927945043792826
0.3182875042061959 0.9795882117840081
0.29821913881719153 0.9754308510822962
0.27839372937516915 0.9708743128977021
0.25881904510252074 0.9659258262890683
0.239502676643671 0.9605927690132365
0.22045203325698784 0.9548826634895305
0.20167434009322646 0.9488031727117915
0.18508472551524857 0.952178367944234
0.1667022505602532 0.9454154428917196
0.14861274178821937 0.9383039235653808
0.13082271490246153 0.9308519846170761
0.11333848936678717 0.9230679210264295
0.09721147083891772 0.9249053626924942
0.08018328332784569 0.916499122244406
0.06417595584459522 0.9177589262390383
0.04762572018107901 0.9087528766266623
0.03175854199927598 0.9094456525873772
0.015707165793555238 0.8998629256407522
