# .PCD v0.7 - Point Cloud Data file format
VERSION 0.7
FIELDS x y
SIZE 4 4
TYPE F F
COUNT 1 1
WIDTH 180
HEIGHT 1
VIEWPOINT 0 0 0 1 0 0 0
POINTS 180
DATA ascii
7.715274834628325e-17 -1.26
0.02216455617535017 -1.269806572848617
0.04467135577920139 -1.2792202585844425
0.06751338355339771 -1.2882320998334003
0.09138098060480405 -1.3068089058403698
0.11504558042690904 -1.3149770014811042
0.14006814077865565 -1.3326593397934863
0.16452361359694911 -1.3399373047157848
0.18927541730568906 -1.3467645734885358
0.21275087245471408 -1.3432561432093875
0.22921559452034815 -1.2999462339761148
0.24614360403574295 -1.2662990666474865
0.259889613522199 -1.2226845009172571
0.27444028629951545 -1.188731479037987
0.29272549367559786 -1.1740578287939556
0.30281828276994927 -1.1301332167582099
0.316982959189549 -1.1054509503290666
0.32745630928946523 -1.0710613266785998
0.3399186938124422 -1.0461621679246689
0.35161360681372933 -1.0211600616472623
0.362541351925209 -0.9960741780330629
0.36911898803165916 -0.9615878392921178
0.3783526593500713 -0.9364556931124552
0.3907311284892737 -0.9205048534524404
0.4026692766450424 -0.9044100030661748
0.40993971388847844 -0.8791185534255505
0.41645258944962354 -0.8538543439842087
0.426751069755174 -0.8375461327370657
0.4272191221351607 -0.8034823095016235
0.4363286582217034 -0.7871577364254562
0.4500000000000001 -0.7794228634059948
0.4532335059208479 -0.7543072246178587
0.46632895252522033 -0.746282324617655
0.47383596046307364 -0.7296433941125188
0.47531396795013475 -0.7046819366717855
0.48180420653487865 -0.6880877172027531
0.48786175940275267 -0.6714841053312064
0.4995064692162 -0.662867473339253
0.5109990245202963 -0.6540489254935792
0.5160427206608668 -0.637259688394716
0.520657963846097 -0.6204959989263722
0.524847223192406 -0.6037676641782176
0.528613179023498 -0.5870844121271415
0.5387787044493738 -0.5777694242791447
0.534886945253428 -0.5538916462607614
0.5444722215136416 -0.5444722215136416
0.5466982482573749 -0.5279403615488379
0.5558288132305695 -0.5183187536474988
0.5573586191080457 -0.5018479547691437
0.566032185167079 -0.49204427174288046
0.5745333323392335 -0.48209070726490444
0.5828594710927281 -0.4719902932873781
0.5910080652050415 -0.46174610649424375
0.5909902774349967 -0.44534311713251573
0.5905824058937116 -0.42908323417350536
0.597980992330964 -0.4187107985362636
0.6051974279651805 -0.40821081953364513
0.6122295146001595 -0.3975864955609697
0.6190751101941909 -0.38684106289023956
0.6171604565055209 -0.370827413935239
0.6235382907247958 -0.35999999999999993
0.6297261891403649 -0.34906292657736265
0.6357222668584274 -0.3380195252058414
0.6415246974156249 -0.32687315981247367
0.6471317133354002 -0.3156272256881357
0.6525416066663879 -0.30428514845330357
0.6577527295026726 -0.2928503830145761
0.662763494485757 -0.2813264125122771
0.6675723752880869 -0.26971674725945666
0.6721779070779852 -0.2580249236726162
0.676578686965854 -0.24625450319448147
0.6807733744315081 -0.2344090712091528
0.6847606917325105 -0.22249223594996212
0.6885394242933855 -0.21050762740037043
0.6921084210755896 -0.1984588961882394
0.6954665949281291 -0.18634971247381493
0.6986129229187175 -0.17418376483176076
0.7112901472932217 -0.16421426967102143
0.7140477485356781 -0.1517755342969643
0.7165878439167946 -0.1392905666248777
0.7287577372290339 -0.12849965147352843
0.7308893720404019 -0.11576150412977085
0.7327983708687621 -0.10298809471044842
0.7444096137309915 -0.0914020075538606
0.7458914215262049 -0.07839634745074009
0.7471460235688092 -0.06536680706074363
0.7481730376948681 -0.05231735530809398
0.7589584464134761 -0.03977532674463731
0.7595370285345128 -0.026523617493900736
0.7598842483188574 -0.01326382889233547
0.77 0.0
0.7798812022219852 0.01361287702108114
0.7795248450748947 0.027221607427950757
0.7889173324561134 0.04134540543192563
0.7980512402078594 0.05580517899530024
0.806917705454314 0.07059615162560312
0.8155079542019841 0.08571333987947583
0.8238133058622972 0.1011515550262724
0.8219224970555034 0.1155136737968543
0.8296582060999157 0.13140495063379393
0.8370865900603768 0.14760095101689077
0.844199377764991 0.16409573602382854
0.850988412638411 0.1808831710114506
0.8671893576588594 0.20020643836603982
0.8732661536483969 0.21772970603970096
0.8789925019230522 0.23552533104329387
0.8843607602632534 0.25358636735163925
0.8989264706052533 0.2748294024393725
0.9130142556433474 0.2966563145999495
0.9171530183313373 0.315801109823442
0.9208987683701902 0.33517974045915533
0.9242446222322297 0.35478427004984725
0.9549993702037911 0.3858447912183894
0.957325047590538 0.4063603736288447
0.968358185101157 0.43114084166034816
0.978812409999582 0.4564277226799554
0.9886734509290839 0.4822082614679852
0.9979273070909721 0.5084693597082924
1.015389731787766 0.5398922972037744
1.0233050573530929 0.5672272556882143
1.0478907385791707 0.6049999999999999
1.0543157798635983 0.6334968321393666
1.077021082118661 0.6729974655761702
1.0986584440085057 0.7134771358696854
1.1026199714982057 0.7437265616160933
1.122238300675919 0.7857997178009332
1.0517220926874318 0.7641208279802151
0.9823216773581702 0.7402324784770193
0.9692532269362679 0.7572636146505597
0.9403466133629347 0.7614776731703033
0.9115928873115838 0.7649172555269816
0.890557304662871 0.7741496542087986
0.8694794458085512 0.7828828094398641
0.8556838308944293 0.7979380812731232
0.8344341683928354 0.8058037097324368
0.8202438661763951 0.820243866176395
0.791910542323257 0.8200473723860622
0.7842981140718732 0.841056756862046
0.7628088912490983 0.8471851010442294
0.7347861124693683 0.8452747298495046
0.7199221228489242 0.8579697762932554
0.7111320418863163 0.8781749364463769
0.6895408523647374 0.8825720440395286
0.6680146756987736 0.8864854161524951
0.65831948256757 0.9060990336999413
0.6366698443496611 0.909258769160781
0.6151121938178216 0.911941329810546
0.59910293851653 0.9225376247399664
0.5829111906565254 0.9328529057720687
0.5613915016519593 0.9343123577653024
0.5450000000000002 0.9439676901250381
0.5284424860685075 0.9533354807819414
0.511724003436621 0.9624128762162304
0.49030973971871067 0.9622870461234373
0.4734408385322037 0.9706975700031004
0.46065390529736244 0.9878754878699485
0.44334294095262244 0.995764548830435
0.4219896187684156 0.9941452417286357
0.4083211868233443 1.0106304014777983
0.3906210650043772 1.01760266488195
0.372801956224979 1.0242649566566402
0.3548692883583009 1.0306152474032553
0.3368285238686927 1.0366516027617174
0.3157614411005557 1.0328091364400784
0.3004447178405291 1.0477752485727676
0.2847009496127728 1.0625184089179753
0.2636948662036378 1.0576223416408361
0.24744615977825168 1.0718070712637588
0.22870285989953518 1.0759623608071864
0.21179798486796486 1.0896061736269071
0.19274947721029279 1.093136605843551
0.17364225619465634 1.096334058060603
0.15587387307527334 1.109100236990559
0.1364936646137652 1.1116516898382807
0.11707187885977188 1.1138645228124662
0.09848598930485394 1.1257000088436724
0.07882481533086151 1.1272473767936013
0.05966299011695612 1.138437669620214
0.03838944637275119 1.0993299097210054
0.018674074887893452 1.0698370338173386
