# .PCD v0.7 - Point Cloud Data file format
VERSION 0.7
FIELDS x y
SIZE 4 4
TYPE F F
COUNT 1 1
WIDTH 161
HEIGHT 1
VIEWPOINT 0 0 0 1 0 0 0
POINTS 161
DATA ascii
1.7696146247679255e-16 -2.89
0.04729602144503855 -2.70958725387382
0.08864472162435275 -2.538452700628503
0.12612965454549496 -2.406697178758523
0.1597423248740468 -2.2844216750949973
0.1908710766173718 -2.181666388820923
0.2184644882293957 -2.078550761319691
0.2425199933762435 -1.9751668417662307
0.2644288918241244 -1.8815093306089836
0.2847107263732203 -1.7975927798831508
0.30562079269379755 -1.7332616453014862
0.3205591122325954 -1.6491336681920754
0.33889605603294753 -1.5943805891961031
0.35542266586330695 -1.5395047023606718
0.3677212813114949 -1.4748495039395146
0.3804639963007055 -1.4199109646449304
0.3941614188183088 -1.374604225191796
0.4063966695646041 -1.329263610788619
0.4171729424061791 -1.2839262969984573
0.4264942823388754 -1.238629334035105
0.4377857834568561 -1.2028065546059628
0.4551272959225312 -1.1856471416514462
0.48324250550652675 -1.1960671723911556
0.5118577783209486 -1.205861358022697
0.5368923688600565 -1.2058800040882331
0.5663084707325373 -1.214452434629111
0.6005684711010362 -1.231347843429859
0.6310467946379701 -1.2384990686218311
0.666649619155965 -1.2537855818596761
0.7029739493571888 -1.2681985753521239
0.7300000000000001 -1.2643970895252803
0.767406731615981 -1.2771792780461473
0.8054772816344714 -1.2890331061577676
0.8387441139231419 -1.291552674635953
0.8779328584490725 -1.3015889889114156
0.9177222981616737 -1.310643270862387
0.9580899612367312 -1.3186977008311642
1.0050310886639207 -1.333721301778979
1.0527811228068757 -1.3474983886674945
1.0950174804267172 -1.3522339729351291
1.1505898213389054 -1.3712195531829707
1.2005880230526285 -1.3811185318076726
1.251274233891065 -1.3896808236427274
1.309436851319997 -1.4041991071088071
1.3754235735088147 -1.4242928046705292
1.4354267658086914 -1.4354267658086912
1.5106135807111676 -1.4587825779638943
1.5724104584812164 -1.4662964741343716
1.6497815125598154 -1.4854699461166654
1.7358320345123754 -1.5089357666781666
1.8308462190543575 -1.536262387150829
1.919550524798718 -1.5544213658930988
2.017307529233208 -1.5760933768336853
2.124370456725799 -1.6008279615844485
2.2490672443623536 -1.6340430013730751
2.375540928438076 -1.6633716654180335
2.5119838448417764 -1.6943544975163627
2.666972406066449 -1.731952131347786
2.849441603085591 -1.7805287278235684
3.05151559049952 -1.833535546679793
3.264915772267334 -1.8849999999999998
3.5159712227003705 -1.9489346733902748
3.796674649293386 -2.0187277199793305
4.1520904027177945 -2.115595728786288
4.529921993347802 -2.20939057981695
4.957503595090475 -2.311721891721626
5.499543655008456 -2.448554591316317
6.121357275458728 -2.59836200445367
6.93533523215957 -2.802057318751022
5.5523802132354305 -0.2909879167107677
5.096893217797388 -0.17798743318275492
4.709282644186603 -0.08220083431960534
4.42 0.0
4.119372504044332 0.07190391452160808
3.8776364088340913 0.13541004720570377
3.635011506506649 0.19050288072431554
3.4715228949041883 0.24275252862955604
3.317328344645513 0.2902286233497017
3.112853532502695 0.3271740900277553
2.967712993407553 0.36438933678139096
2.8222639959134757 0.3966433377361865
2.7062660532306775 0.4286304342102326
2.590044390422107 0.4566947072640268
2.48351677412259 0.48274675830265834
2.386680145790486 0.5073045255953327
2.289769652245303 0.5286349777080828
2.212274255909272 0.5515819219672424
2.1250368178359507 0.5694018992255456
2.0571000293080024 0.5898639414483783
1.9795508448434835 0.605209428776065
1.9211341629162102 0.6242143286373938
1.843761222418668 0.6348579011914556
1.7854159794932258 0.6498382723187706
1.7177879847548512 0.6593970271633525
1.6689309382202173 0.6742918681486416
1.6200885420762952 0.6876867861411218
1.5712981871452734 0.6995870260903763
1.5225970822215718 0.709998679724375
1.4740222359306339 0.7189286807340869
1.4256104387013888 0.7263847995832748
1.3862277207885154 0.7370703535738486
1.3556605460660633 0.7514549113818224
1.3163586137523469 0.7599999999999999
1.2857509510531684 0.7725571123650812
1.2381502203883819 0.7736821257804791
1.2076856178414106 0.7842802104216388
1.1689429773026088 0.7884619938937529
1.1386213415616986 0.797271246527954
1.1083532822936781 0.8052657956406882
1.0781579385638453 0.8124502812552652
1.0559344098330075 0.8249863769363822
1.0258326691232016 0.8307029161857855
1.0035182204858613 0.8420517686893665
0.973575358487376 0.8463161473977544
0.9512253766110647 0.8564871761393386
0.9288192010563465 0.8661379172793731
0.9207549444334735 0.8891627141875165
0.9333809511662429 0.9333809511662426
0.9516819675288265 0.9854955264639521
0.9684376712887478 1.038522256299222
0.9836219913475216 1.0924228934517695
1.1415427104434828 1.313194669587623
1.3177145998574056 1.5703911083939048
1.3341592290256556 1.647549438288778
2.7581634094589496 3.5302881761581144
3.5807993877546873 4.751881284781392
3.4738108410485165 4.781290436755939
3.36115791701713 4.8002309795334925
3.2600946272344538 4.833289047995893
3.164352793437308 4.8726759997629125
3.0523349619832603 4.884757033861014
2.946017788485511 4.902996960016082
2.8450000000000006 4.927684547533456
2.428896197434149 4.381844732768372
2.3379683826737367 4.397079012437456
2.2563327837055476 4.428302425216188
2.1699371766059334 4.449030529180877
2.083508030381648 4.4680973900906835
2.253321002639934 5.061041835340009
2.1646504518305765 5.09959688812652
2.067828395655835 5.118054877208666
1.9781910814900567 5.153363954264553
1.9255734069235155 5.290469455024664
1.829693028049221 5.31381439486816
1.7366755083872047 5.3449376215787625
1.6402052634945534 5.364869680952629
1.5463255661333655 5.392678114213969
1.4519748430251413 5.418843885481674
1.0692947785505311 4.288707110139904
1.2619754148690836 5.46621606344517
1.1663845854876294 5.48740804011665
1.070438464062417 5.506928499141395
0.8526125523446284 4.8354060672899415
0.7634001893963269 4.819919102104272
0.6749895396563175 4.802800133396616
0.5922850089490168 4.823774296976826
0.5111441853788253 4.863212068350856
0.48284281482202734 5.51891862742827
0.38784599401733627 5.546456119444622
0.2915112762731979 5.5623665085829765
0.19508818656698104 5.586594723036745
