# .PCD v0.7 - Point Cloud Data file format
VERSION 0.7
FIELDS x y
SIZE 4 4
TYPE F F
COUNT 1 1
WIDTH 179
HEIGHT 1
VIEWPOINT 0 0 0 1 0 0 0
POINTS 179
DATA ascii
7.960204194457797e-17 -1.3
0.023037176497214353 -1.3197989576064366
0.06107411922937689 -1.7489339472834176
0.09263464255001082 -1.7675742765155957
0.12625921747686666 -1.8055909309702818
0.15775189437326165 -1.8031124035460595
0.19233237241248238 -1.829920287477623
0.22180220499736844 -1.806433995987206
0.2505115817281178 -1.7824825237348267
0.27845334777161107 -1.7580852462593453
0.3038843109171282 -1.723413567771364
0.2938458528798792 -1.5117058625094026
0.2973137178693957 -1.398751069049342
0.3801672818411321 -1.6466854094870476
0.404009565651445 -1.620393862880914
0.4270514244191592 -1.5937776133769626
0.4465325164235387 -1.5572439474200768
0.19881275921146102 -0.6502872340548641
0.20086104634371585 -0.6181867355918498
0.21487498194172347 -0.6240422598955491
0.46514739492290963 -1.2779819642688355
0.5518866422997623 -1.4377138568056906
0.5694020219921865 -1.4093194589415168
0.5900040040188033 -1.389962328713185
0.6182396974752166 -1.3885890956167533
0.6592844883154911 -1.413840147777174
0.7101612577983055 -1.4560463550046507
0.7763237545546251 -1.523621156362109
1.9154439761664348 -3.602426178864422
1.948934673390275 -3.5159712227003705
1.9750000000000005 -3.4208003449485327
1.951994303909106 -3.248664069661005
2.0136932040861786 -3.222582765394419
2.0750747234072535 -3.1953348638720653
2.1473007493276675 -3.1835042786113603
2.2025335155880166 -3.1455438500697284
2.2453396637572474 -3.0904449185122993
1.011049238895441 -1.341707656879452
1.0343112785471058 -1.3238580660592927
0.48457670110837486 -0.5984023903218675
0.46280707897430834 -0.5515519990456641
0.4723625008731653 -0.5433908977603957
0.5018479547691437 -0.5573586191080457
6.056145437354987 -6.494420870378234
6.1338334111529464 -6.351770436990289
6.3356767594314665 -6.335676759431466
4.445519966092864 -4.292988729436603
5.14873005939896 -4.801268454839989
5.276328260889499 -4.750827305147893
6.633897210158166 -5.766758864826558
1.218010664559175 -1.0220322994015976
1.2123476998728744 -0.9817398100377466
4.814745704537071 -3.7616916142397723
6.932156227210502 -5.223754400959779
2.912461179749811 -2.1160269082529033
2.98171344121193 -2.0878182283178077
1.1192007229493064 -0.7549104196855082
1.1405919724057767 -0.7407090876204367
3.0275317032784406 -1.8918117733125415
3.05151559049952 -1.833535546679793
3.0743901834347573 -1.7749999999999997
3.104899960344855 -1.7210741518744965
3.14329343057778 -1.6713187635177713
3.136342965143055 -1.5980465590832045
3.1727429834360596 -1.5474501481654432
3.181140332498641 -1.483390098709855
3.1425963742905467 -1.3991740521807525
3.000845822254955 -1.2737834788750322
3.1431532669814093 -1.2699163516799419
3.183509254355458 -1.222034707949474
3.2889241727506793 -1.1970705016398404
3.328225386109595 -1.1459999036891917
3.3286978070330373 -1.0815594803123159
0.9276156132841444 -0.2836005535810546
0.9324238450601693 -0.2673682351424892
3.380740392011739 -0.9058666578588226
3.3960350419659875 -0.846726634598837
3.4200389273961753 -0.789578200746966
3.443079554582996 -0.7318491516785128
3.4651439575702536 -0.6735557536792032
3.4960675231933385 -0.6164510307176027
3.506293609112739 -0.5553423508928196
3.545159686094822 -0.4982397014370343
3.563240684392346 -0.43751094282447944
3.580278823325784 -0.3763024677635525
3.596262860111201 -0.31463223131904594
3.621157502443162 -0.25321599969117486
3.635011506506649 -0.19050288072431554
3.6577704268898907 -0.12773215793115356
3.6894379951270837 -0.06439937975357615
3.68 0.0
3.6994364720786477 0.064573903817949
3.7177338765110366 0.12982612773330363
3.734874459982106 0.19573647634860994
3.740865188474341 0.2615867765404699
3.7556540118058805 0.3285771501586713
3.7791832023994383 0.3972081604170831
3.8014517607862635 0.46675958524171485
3.812532064655046 0.535816438696252
3.822353878103183 0.6054013797056935
3.8309021592174894 0.6754914111243591
3.8381622872803662 0.7460631719222902
3.8539015468911946 0.8191720618219717
3.868249157197384 0.893055685745144
3.910291776892266 0.974945239266661
7.420940292643822 2.1279203869072334
4.32249749695292 1.3215201053467698
4.2797543233281905 1.3905764746872633
4.254833590196926 1.4650566950572053
4.5011276535645015 1.638276486529953
4.499857655716513 1.7273335168083475
4.459754340466247 1.8018577143305365
4.436833393640763 1.8833240393182995
4.485508197025171 1.9970769175021788
4.277772754812988 1.9947581954161013
4.296235541310018 2.09541408165179
4.3124715770717 2.197314018739406
4.326443205008743 2.300410657650865
4.206920791340493 2.331934273384881
6.9541839923890425 4.014999999999999
6.908768443659026 4.151206883775036
6.097465811364703 3.8101195098367433
5.887467386976876 3.823366025805489
5.695488123453137 3.8416552468440304
5.5620423807222545 3.8945840028236027
5.574127091243388 4.04984038829514
5.582462215230577 4.206687011832818
6.587769900152194 5.146929933722503
6.535797535853124 5.292584488729133
6.480735988786555 5.437983177948123
6.067865024991086 5.274714593083678
5.811392535233224 5.232601341726272
5.755753631742872 5.367327093691863
5.646817432658412 5.4530682081031285
5.57907250356186 5.579072503561859
5.5433737962628 5.740331606702436
5.544646667308113 5.9459055941638566
5.955262396593839 6.613988946748809
5.327199315402919 6.128241791408907
0.9384699101423475 1.118424886953708
0.8999281592012676 1.1113187248834682
0.8496128359494084 1.087454839977276
0.8004139807922243 1.0621852283628994
0.7582429754572904 1.0436319227436823
0.7456493672563599 1.0648976575756894
0.7325427035466783 1.0860392200471047
0.7298163069201364 1.123818561046868
0.7206901993571587 1.1533454107727394
0.710752543375875 1.1828908749689149
0.7000000000000001 1.212435565298214
0.693277756952262 1.2507061812093359
0.6807337660395417 1.280274009645444
0.6673660346171338 1.3097795905569005
0.6575567201836162 1.3481910694487507
0.6466059404632701 1.3866509141660743
0.6345091631982486 1.4251309139224575
0.6212624942979452 1.4636027169893802
0.6106087472679368 1.5113096829438633
0.5948907962451983 1.5497435079853548
0.5780140422203803 1.588080529128185
0.5632329072108812 1.6357471357868179
0.546960080043657 1.6833700338424218
0.5291927855481535 1.7309116082930942
0.5099291082614484 1.77833413748589
0.4839916143417138 1.8062812951605578
0.44513628790338855 1.7853441363478335
0.4116604294492732 1.7830972185569807
0.37424104347196663 1.7606656813208503
0.33964001177024994 1.7472963865368418
0.30562079269379755 1.7332616453014862
0.2737603138204041 1.728454596041491
0.24076946466091326 1.7131637589229167
0.20961527065685367 1.7071793808230737
0.17769838755501088 1.6906872221260645
0.14642164781606604 1.6736070927941324
0.11788844062757164 1.6858832449391028
0.08740104692571642 1.6677113230401381
0.05793316452615179 1.658988772851699
0.0286219465571451 1.6397502200564815
