# .PCD v0.7 - Point Cloud Data file format
VERSION 0.7
FIELDS x y
SIZE 4 4
TYPE F F
COUNT 1 1
WIDTH 172
HEIGHT 1
VIEWPOINT 0 0 0 1 0 0 0
POINTS 172
DATA ascii
8.878689293818311e-17 -1.45
0.025305989334061217 -1.4497791579767674
0.05060427021862657 -1.4491166991776887
0.07536377698983932 -1.4380265300465862
0.10114688692898159 -1.446467872876745
0.1272473844115812 -1.4544442592139484
0.15261155637077403 -1.452001967237679
0.17792924137151533 -1.44911738139633
0.20319272740169558 -1.4457913803626927
0.22995866360913944 -1.4519018606748526
0.25699930294705703 -1.4575154744580678
0.28239731315728644 -1.4528082315025426
0.30770930241028366 -1.4476584490860325
0.33517707097235905 -1.4518113965300006
0.3628828433995015 -1.4554435894139948
0.3908167581048063 -1.4585479976964932
0.41896878084183875 -1.4611177778262447
0.44732870822578724 -1.4631462766234442
0.47588617133741906 -1.4646270350945365
0.5013749578640214 -1.4560986064229477
0.5301312221547867 -1.456523562218158
0.5590540012906683 -1.4563854653356347
0.5881323516629822 -1.455678651669856
0.6134478717281597 -1.4451926199203315
0.6507786289212807 -1.4616727322281615
0.6804154014025261 -1.4591555371290066
0.7145449692661963 -1.465034295467642
0.7400045145754613 -1.4523406344270393
0.7746280785967199 -1.4568635282172293
0.8047839696089196 -1.4518687138513968
0.8400000000000002 -1.4549226783578568
0.880715108096193 -1.4657560842006119
0.9114611344811124 -1.4586427253890528
0.9476719209261473 -1.4592867882250375
0.9841795101085143 -1.4591061276968735
1.020966056704862 -1.4580906388344055
1.0580134541264516 -1.4562305898749055
1.1073396425997688 -1.469489338487019
1.1512869588589811 -1.47358010924457
1.1831223351736944 -1.461034407539105
1.2341522105981555 -1.4708053307884377
1.2727545162415843 -1.4641365856321775
1.3248786005905393 -1.4714267544452406
1.3708167037256218 -1.4700209402545326
1.4240496594409444 -1.4746465906942345
1.4778531726798843 -1.477853172679884
1.5250003767179405 -1.4726757453730743
1.5870375325136 -1.4799364413356217
1.6126242712859455 -1.4520134157987223
1.6301726932811877 -1.4170875026194958
1.6316746638434232 -1.3691376086323286
1.6630923575179175 -1.3467456368466524
1.7178634428626538 -1.3421420162099351
1.8208889629078275 -1.37213825278667
1.8850095968936276 -1.3695396378414624
1.9659649062935802 -1.3765834472425105
2.039432428485403 -1.375614542538037
2.1218365369019225 -1.3779367585880182
2.2049250500067075 -1.3777900870063329
2.2886366928746398 -1.3751516600098446
2.3902301144450506 -1.3799999999999997
2.4839199682758837 -1.3768593214995972
2.5958659230052454 -1.380246394590519
2.6997497682907547 -1.3755912142108266
2.831201245842376 -1.3808691123855938
2.9636264636098453 -1.3819617158920872
3.096919101408417 -1.3788372200269625
3.258587181221639 -1.383188194852029
3.4305802618971137 -1.3860443956388746
3.631627859074115 -1.394051323731218
3.8433428190143655 -1.3988623862019849
4.075185060833055 -1.4031987457103452
4.327307149142948 -1.4060273244060106
4.6285150188610915 -1.4150790508580458
4.960110351041726 -1.4222887560157158
5.3222513028527665 -1.4260929385148893
5.317220579992461 -1.3257319878861793
5.320060553727385 -1.2282327567175026
5.340685900006579 -1.1351978318649658
7.587978128050443 -1.4749535342606914
8.42010628825438 -1.4846919190522545
9.560823136960934 -1.5142856215894347
6.43 0.0
6.429020679855595 0.11221897339173298
6.426083017732785 0.2244037637970812
6.441160499167001 0.3375669177669877
6.4342881241758665 0.44992925564960823
6.435417749672676 0.5630260981498717
6.434556663032728 0.6762991573417179
6.4416245241521795 0.7909320386994071
6.436742446820207 0.9046251562404254
4.889057285945932 0.7743506019491428
4.421786811024814 0.7796803177245172
4.073752811307806 0.791857330812661
3.756086786817814 0.7983808927401957
3.4785011312832896 0.8030752640075979
3.250490683024588 0.8104383502588869
3.0426663528105653 0.8152799920729403
2.845334619977424 0.8158865732183175
2.69677941181576 0.8244882073181174
2.5488314636710117 0.828165544924859
2.411072367778258 0.8301987938657496
2.2834530685097576 0.831108948281375
2.17524239373848 0.8349973224405497
2.067619995683936 0.8353727033174838
1.9698803863882226 0.8361646149670457
1.8910390973201836 0.8419448511669062
1.8035524962029335 0.8410103408639918
1.7256845688944007 0.8416726018350286
1.6483620697484807 0.8398824245181615
1.6069646190032472 0.8544382442703213
1.5218382904225485 0.8435687392286265
1.4722431864335457 0.8499999999999999
1.4057543731514641 0.8446624428524888
1.3483964728887174 0.8425716301307958
1.2915526746359531 0.8387441139231415
1.251846734558113 0.8443812842408277
1.195961984661928 0.8374215970725272
1.1568943019561748 0.8405329107782366
1.110103358965737 0.8365228821813471
1.0716946249051418 0.8372996064428954
1.041375588352341 0.8432893240067822
1.011178664917051 0.8484796447862318
0.973575358487376 0.8463161473977544
0.9363624801015168 0.8431045640121614
0.9068785900077714 0.8456779664774982
0.870401158409768 0.8405366282553867
0.8414570696119916 0.8414570696119914
0.8127502934370269 0.8416275663962217
0.7842981140718732 0.841056756862046
0.7695001973126869 0.8546165492990033
0.7413467027592733 0.8528218256517321
0.7134942467520587 0.8503093318620657
0.6922524301548213 0.854860557602668
0.6772276228582241 0.8668118289673942
0.6619965254672532 0.8784990610520221
0.675953040136344 0.9303695435311895
0.6825559592577448 0.9747909327039002
0.6822153422343111 1.0114258385171508
0.6916915744690846 1.0651116212906884
0.6835958508608343 1.0939820440417896
0.710752543375875 1.1828908749689149
0.7300000000000001 1.2643970895252803
0.732062526571969 1.3206757577804875
0.7370703535738486 1.3862277207885152
0.7263847995832751 1.4256104387013886
0.7320798151377593 1.500986057319609
0.735355775428817 1.576975549443771
0.7321259575364407 1.6443818237566816
1.4730563544045618 3.4703032975157004
1.4047747253096707 3.4769394546254526
1.3331287723085166 3.4729191865695905
1.2654745303049748 3.476862696907861
1.1948351268577653 3.4700531724494925
1.1310021994123076 3.480866849640262
1.0642330051907618 3.4809493117054493
0.997807228057537 3.4797673392967146
0.9343367528200999 3.4869922329035363
0.8709188241588036 3.4930646145935875
0.8053247745510372 3.488244831931142
0.7422447362194005 3.4919869346196863
0.6773719335867344 3.484776501239207
0.6147145489409337 3.4862194456632163
0.5522136615920151 3.4865398423008362
0.4912810463890311 3.4956462826577432
0.42898008878611915 3.493762453777453
0.3668949060694636 3.4907718527426392
0.30591665704428084 3.496643390302027
0.2441476581044383 3.4914741759093846
0.1831758468503039 3.4952033716410082
0.12214823845875378 3.497867894566835
0.06108342253049259 3.4994669330473696
