# .PCD v0.7 - Point Cloud Data file format
VERSION 0.7
FIELDS x y
SIZE 4 4
TYPE F F
COUNT 1 1
WIDTH 172
HEIGHT 1
VIEWPOINT 0 0 0 1 0 0 0
POINTS 172
DATA ascii
6.245698675651501e-17 -1.02
0.017103358308537927 -0.9798507412532634
0.033154521867376024 -0.9494212856681409
0.04762572018107901 -0.9087528766266623
0.060688132157388955 -0.8678807237260471
0.07408238133550961 -0.8467654933779837
0.08571333987947583 -0.8155079542019841
0.097495474724118 -0.7940369213130576
0.1071632877392504 -0.7625064129310092
0.11576150412977088 -0.7308893720404019
0.1250266879201899 -0.7090615821687898
0.13356629676358142 -0.6871390284133647
0.1413799497560763 -0.6651403684989879
0.148467695866951 -0.6430842427582553
0.15966845109578068 -0.6403951793421577
0.1734087602186889 -0.6471703036136758
0.18743340195555944 -0.6536579532380569
0.20173647625868835 -0.6598502816144944
0.2163118960624632 -0.6657395614066074
0.2311533896645813 -0.6713181886755148
0.24625450319448156 -0.676578686965854
0.2616086031680691 -0.6815137113429572
0.27720887912777503 -0.6861160523794226
0.2930483463669553 -0.6903786400893303
0.3091198487376083 -0.6942945478083766
0.32964224415774557 -0.706920073888587
0.35069691743126197 -0.7190352370393337
0.36773230478903296 -0.7217152845925779
0.3896613971122894 -0.7328465020729092
0.8290244506212364 -1.4955996992083667
0.8900000000000002 -1.5415252187363007
0.9322189155871985 -1.5514728142708232
0.969752253546765 -1.5519280159662598
1.0130286051279507 -1.5599272563784885
1.0568745875597114 -1.5668810121290289
1.1012667577940083 -1.5727719250348642
1.1520590944932474 -1.585673308974897
1.1915937458410555 -1.5812983098936397
1.2436361801578297 -1.5917817222855783
1.2964000055626652 -1.6009206806013598
1.3498539803417327 -1.6086933305498539
1.4039663220396859 -1.615078501676732
1.4653960279258995 -1.6274871677954934
1.5208563429393716 -1.6309187546107502
1.576874500941924 -1.6329013467687379
1.647558800164656 -1.6475588001646557
1.7120287248059898 -1.6532869216924133
1.7918165689669678 -1.6708959821531213
1.8652935119482594 -1.679517821960734
1.939603621172524 -1.6860717045056035
2.030017774265292 -1.703387165669329
2.113837015162961 -1.7117514636555582
2.2064301100988213 -1.723852130911843
2.308056624036676 -1.7392454169094196
2.402780473293594 -1.7457221993086454
2.4328815715383056 -1.7035220159626068
2.4539512147629234 -1.6552109942734106
2.541171820874635 -1.6502562760955317
2.68831246481587 -1.6798440676192594
2.8286520923169705 -1.6996256472031785
2.9877876430563135 -1.7249999999999999
3.1573771427732185 -1.7501627290892767
3.3375419010067437 -1.774602507330667
3.555116031511588 -1.8114220939607917
3.7929108753824847 -1.8499262394499065
4.051195808053825 -1.8891036299809263
4.34847637837878 -1.9360664210408087
4.685369704072921 -1.988821444010403
5.043880168843324 -2.0378598681825615
5.498788712068518 -2.1107872228218185
6.014032773029815 -2.18892891728428
6.098594812615594 -2.0999145962486607
6.1248039649407895 -1.9900694437746613
6.158602628401949 -1.8828737784144245
9.324238450601692 -2.6736823514248917
7.364692445178609 -0.9042705280661942
7.369407244678905 -0.7745559128133122
7.391764659840752 -0.6466956111876235
7.411900893430493 -0.518290599918851
7.42980373857403 -0.3893795144475021
7.455455569562455 -0.2603502454006572
7.468862282818242 -0.13036947608650784
7.49 0.0
5.529157754214844 0.09651180759817782
5.056917584716624 0.1765914533146549
4.59369585987104 0.24074539871754158
4.249622854106851 0.29716257814997377
3.964854898405147 0.3468798561356795
3.6797310128626113 0.3867553140903178
3.4441351461953875 0.42288662161586177
3.2282739040975192 0.4537043091298133
3.0519569724389757 0.48338249697431335
2.8953347938558913 0.5105256423407751
2.748556113653459 0.5342651870543255
2.592091141944585 0.5509659806670621
2.455412563258793 0.5668766569465398
2.3384127003251516 0.5830317683951992
2.250607175253529 0.6030483750888733
2.1628388158612175 0.6201840505882481
2.065618272880157 0.6315228822011113
1.9877081190568708 0.64584551824364
1.90994752271062 0.6576476720034565
1.8417975367403805 0.6703594809183107
1.7644670060797112 0.6773154246406174
1.7801930007682318 0.7192446593585511
1.7857794156977342 0.758018389269191
1.7905490969794977 0.7972038204285683
1.8035524962029335 0.8410103408639918
1.8155639735243174 0.8855097165139364
1.8176533093442706 0.9261406194686754
1.8718488968609253 0.9952797131060885
1.8804323703497008 1.0423406835296247
1.8879353802500765 1.0899999999999999
1.8943397345516682 1.1382341455512197
1.8996277353903943 1.1870191518823792
1.8953954835566582 1.2308842191339608
1.9150767926021464 1.291735607017425
1.9168157836362407 1.3421688610614477
1.9335506165561245 1.404806752979011
3.458091758504778 2.605859050248369
3.483007530941711 2.7212237209394097
3.504928286170938 2.838234963634767
3.5084835494849194 2.9439672523643496
3.516946643838118 3.057235075095764
3.4110347489412396 3.071309483187159
3.3057187313186502 3.0826325874824927
3.2154489075137707 3.1051229159517177
3.1112698372208096 3.111269837220809
3.0287104952012287 3.1363215294765188
2.9394129318693683 3.1521344539786242
2.8438050770251477 3.1583655082789255
2.768569102339941 3.1848744285400974
2.680424332392869 3.1944053278061384
2.599093215035829 3.209612820817289
2.5180554340819423 3.2229639822514926
2.4373508437657954 3.234473815691536
2.357018861692817 3.2441581474435393
2.2713626879501425 3.2438420953844074
2.2032200396747426 3.2664080358668643
2.124092236558606 3.270815214987153
2.050787552582503 3.281946132125369
1.9777462076546088 3.2915224346961107
1.9050000000000005 3.299556788418711
1.8374284607336178 3.31480869005831
1.7652130760749496 3.319882949149565
1.6979244690259054 3.332364400464496
1.6307406660553683 3.3435138522329018
1.563687568440588 3.353338812035605
1.4967908465189455 3.3618472841247713
1.2542469224505686 2.9548205795823335
1.3673140659680794 3.3842210691687735
1.3044593363448926 3.3982327524498146
1.2381129188389213 3.401687287244988
1.1753010375903359 3.4133220579135335
1.1093710098060614 3.414292893499601
1.0466907029073977 3.423571026347667
0.986781733824857 3.4413168714591817
0.923983991015999 3.448355199851974
0.8636611672908135 3.4639557428053074
0.80082575346416 3.4687574306354376
0.7380865024030452 3.47242398260501
0.6773719335867344 3.484776501239207
0.553937686757508 3.1415367321089436
0.5537780062424175 3.4964167257067875
0.45092084711061214 3.208468542722688
0.39607536606672933 3.2257749928342965
0.33971750561987374 3.2321961599468882
0.28412772135736625 3.24759471577909
0.22740610440584824 3.2520588038470266
0.1700918577895679 3.245545987952365
0.12005426865660371 3.4379044449456893
0.02041931553162181 1.1698218033329777
