# .PCD v0.7 - Point Cloud Data file format
VERSION 0.7
FIELDS x y
SIZE 4 4
TYPE F F
COUNT 1 1
WIDTH 180
HEIGHT 1
VIEWPOINT 0 0 0 1 0 0 0
POINTS 180
DATA ascii
2.3635683223543916e-16 -3.86
0.0678898610410332 -3.8894075341583623
0.13715502204082924 -3.9276059501850464
0.20725038672205812 -3.9545729576281126
0.2783283302390597 -3.980280560536699
0.3503660858455866 -4.004702686328817
0.424385560866673 -4.037758895195189
0.5008830013951562 -4.079364683245833
0.5775683689842718 -4.109612485277517
0.23934473151155333 -1.5111631611105607
0.2587357847237263 -1.46736355198819
0.28048922320352104 -1.442991959668066
0.2973137178693957 -1.398751069049342
0.31718098662484984 -1.3738617913471816
0.3338522159275414 -1.339008102260875
0.3442293299863526 -1.2846813489644608
0.3721104303529489 -1.2977032895167306
0.46487101050915147 -1.5205245619812264
0.5006075308874149 -1.5407115563981488
0.5371874548543086 -1.5601056497388726
0.5711736393538669 -1.569286676712467
0.6056418347315572 -1.577750920780271
0.648069406609528 -1.6040280684005421
0.6876867861411218 -1.6200885420762952
0.7321259575364407 -1.6443818237566816
0.77339141898548 -1.6585432502770694
0.8197540444955749 -1.6807448665794424
0.87166175949993 -1.7107325264416662
0.9154695474324872 -1.7217478060749074
0.9696192404926742 -1.7492394142787915
1.0200000000000002 -1.7666918237202547
1.0764295765620135 -1.7914796584674144
1.1393264181013905 -1.823303406736316
1.19820587703306 -1.8450752494799327
1.2693678908785953 -1.8819152896999447
1.3364330966979374 -1.908624263193351
1.4106846055019355 -1.9416407864998737
1.4503742057964364 -1.9247115792139757
1.4714309260283234 -1.8833457011200654
1.4914893267881149 -1.8418359286530208
1.5041230066665021 -1.7925439968984085
1.5286175375478823 -1.7584733219190587
1.552383006752551 -1.7240959951075545
1.5685962281437464 -1.682113513724092
1.569927917237334 -1.6257079487653512
1.5980613254815974 -1.5980613254815972
1.6185145507619652 -1.5629813335327438
1.6309187546107502 -1.5208563429393716
1.6497815125598154 -1.4854699461166654
1.6603610764900987 -1.443329863779116
1.6776373304305618 -1.407704865213521
1.6864067363616266 -1.3656252485781473
1.7099833353265865 -1.3359854014566785
1.7330390568026255 -1.3059386002399447
1.7151160280748887 -1.2461047348600431
1.8594751405360115 -1.3020185105168744
2.0725939313876043 -1.3979822586768669
3.799177672792771 -2.467214828618072
3.833177394627045 -2.395235074334086
3.8658245261665263 -2.322821717844344
3.897114317029974 -2.2499999999999996
2.9824532013453395 -1.6532008050400095
2.993192339791763 -1.5915085978441699
2.9848718560310323 -1.5208681741274817
3.0648876978801596 -1.494845610550754
3.0451941644431435 -1.41999735944875
3.0147000102205825 -1.3422309221501405
2.9548205795823335 -1.2542469224505686
2.9948038502507233 -1.2099792967333958
3.00612897332099 -1.153944797535867
4.200426014913011 -1.5288300406657391
4.23592321868494 -1.4585453319680621
4.260733193002288 -1.3843961347997644
4.29380835427403 -1.3127489542050879
4.325677631722435 -1.2403681011764962
4.2114366026203385 -1.1284510366469904
3.7744503752136263 -0.9410761738827075
3.8097869533102697 -0.8795586224845121
3.8441200708838563 -0.8170929449137941
3.867611102783796 -0.7517874417835865
3.889990624398222 -0.6859103017843748
3.9211227121626973 -0.6210448262097166
4.515622393461561 -0.6346293403778983
4.019811914147354 -0.49357084079084723
4.027813676241506 -0.4233402762339965
4.0545124212334045 -0.35472387298296876
4.070061325060083 -0.2846064128760312
4.0843947971462065 -0.21405406103364025
4.117490207318674 -0.143785926414304
4.8292643676053695 -0.08429512309207936
4.87 0.0
4.909252183217881 0.08569131560706204
4.936990685474333 0.1724035137103548
4.983161378425324 0.2611564216522897
5.027722813309514 0.35157262767039155
5.060669066306067 0.4427511731581035
5.101897323239242 0.5362310165630623
5.1413890655020476 0.6312831988386639
5.179101999518413 0.7278753180211422
5.214994438342328 0.825973975412419
5.25887340108519 0.9272812687414079
3.573122947749497 0.6945447431706231
5.350467376013917 1.1372769487731433
5.407753859558055 1.2484783516084506
5.365735366306261 1.3378280826661626
5.225658720223859 1.4002110340046372
5.09468698847309 1.4608779858300955
4.905843398090372 1.4998668452276394
4.83136710277938 1.5698063314247328
4.7181376922405915 1.624585090741212
4.595096915643092 1.6724785008625198
3.4635833823046185 1.3295450928130639
3.4027647462601096 1.374806197836397
1.2979118433679409 0.5509308911698759
1.297234549852493 0.5775660331676362
1.2688309018513098 0.5916655664369792
1.2403357838928504 0.6049521825689268
1.2117688728961804 0.6174270796457836
1.1831497744309623 0.6290918941330937
1.1719904075667904 0.6496448911300917
1.1431535329954592 0.6599999999999999
1.114317490912746 0.6695494973830705
1.1024625250033537 0.6888950435031664
1.081885032649597 0.7025843551693848
1.0611680928704534 0.7157669164425559
1.0403230962470196 0.7284420741658285
1.0112712429686843 0.7347315653655915
0.9903080324586431 0.7462506287085399
0.9692532269362679 0.7572636146505597
0.9481180729775044 0.7677708770808017
0.9269137761739634 0.7777730077207125
0.9056514962673263 0.7872708347886087
0.8917737905728731 0.8029567276306299
0.8629973679106211 0.8047580648737481
0.8560143624029949 0.8266434608462067
0.8273149339882606 0.8273149339882605
0.6946583704589974 0.7193398003386511
0.6478984420593735 0.6947860165382119
0.6356740760409153 0.7059875842035245
0.6166954872510769 0.7094270054094055
0.6042203531053469 0.7200817765318392
0.5915611675868472 0.7305172037695525
0.5725651720528623 0.7328500008542514
0.5536698212998844 0.7347446692435095
0.5407624321090753 0.7442956348249516
0.5219545570794519 0.7454283603029825
0.5088655421583796 0.754424191025088
0.4901751315135245 0.7548035111508815
0.46632895252522033 0.746282324617655
0.46353426741904896 0.771450570631901
0.4550000000000001 0.7880831174438392
0.4363286582217034 0.7871577364254562
0.4788609940416087 0.9006065447161055
0.5493285046848517 1.078117894267925
0.62248702844049 1.276287545744817
0.5113680967062463 1.0966324223143464
0.49215133812171846 1.105390003747547
0.4727846654720212 1.1138108726774527
0.4532739780332537 1.1218924640258126
0.43362521894981315 1.1296323160616142
0.4138443734240593 1.137028071150949
0.39393746689315967 1.144077476475173
0.37391056319368643 1.1507783847171358
0.3537697627145115 1.1571287547152729
0.336277574096739 1.1727392690447491
0.3157592350250753 1.1784295080726632
0.29514471263159453 1.1837607860567156
0.27444028629951545 1.188731479037987
0.25573137970584386 1.203121548902581
0.2366031542669157 1.2172177074751034
0.21532374030699372 1.221161613735138
0.19554308130028866 1.2346104257439223
0.17535810720968248 1.2477377666143787
0.15355537269048583 1.2506081510680658
0.13275114834991988 1.2630428071177071
0.11068779328952612 1.2651672665765168
0.08998585112992155 1.2868576248351733
0.06751338355339771 1.2882320998334003
0.04536934571325141 1.2992080751248245
0.022862652432841513 1.3098004806548726
