# .PCD v0.7 - Point Cloud Data file format
VERSION 0.7
FIELDS x y
SIZE 4 4
TYPE F F
COUNT 1 1
WIDTH 180
HEIGHT 1
VIEWPOINT 0 0 0 1 0 0 0
POINTS 180
DATA ascii
1.622657008870243e-16 -2.65
0.04781959363815706 -2.739582684728512
0.09771859076700302 -2.798294315653468
0.1517742731045375 -2.896025650788264
0.20926942123237569 -2.9926921507794724
0.26931124509026433 -3.0782416171034934
0.33449108245649106 -3.1824700651784745
0.40582491353914113 -3.305178684965602
0.48014719831222585 -3.416424837158418
0.5631640741448314 -3.555678026142496
0.651180666250989 -3.6930290737957803
0.7498793518298216 -3.8577948309493197
0.856596166169168 -4.029968115023279
0.9785370863958133 -4.238509781815773
1.1055830628904812 -4.434251469081304
1.2526841782962004 -4.675080999239091
1.372674031968656 -4.787083245772829
1.4472399383775472 -4.733708542017026
1.5234537822684908 -4.6887086253351065
1.5985396383846397 -4.642496206192646
1.6724785008625205 -4.595096915643091
1.7488355937810647 -4.555872481306344
1.8243341099354924 -4.515385371740254
1.8989532844578705 -4.473653587778861
1.9726727189176316 -4.430695469566614
2.045472386824985 -4.386529689257386
2.117332638991244 -4.341175243624977
2.188234208744616 -4.294651446587933
2.2581582170001346 -4.246977921651438
2.3319342733848814 -4.206920791340493
2.4050000000000002 -4.165582192203149
2.4773331403173615 -4.1229747163771595
2.5489116609617155 -4.079111342512409
2.6197137584222805 -4.034005431817489
1.7055383555857777 -2.528564596292877
1.3479046254249583 -1.925007304079131
1.2284711772912689 -1.6908455182436402
1.2277026472301784 -1.6292164404964773
1.2559494096643429 -1.6075419373577127
1.2901068016521668 -1.59314922098679
1.3177145998574056 -1.5703911083939048
1.3514815997204452 -1.55470173525891
1.3851003551628365 -1.538309788738206
1.418556588929997 -1.5212156993678747
1.4518359942593044 -1.5034201827077807
1.4778531726798843 -1.477853172679884
1.5106135807111676 -1.4587825779638943
1.5431563104164496 -1.4390165397318717
1.5754670300120759 -1.4185568854807795
1.6075314058745043 -1.3974057317497803
1.6469955527058027 -1.3819933608260593
1.678635276747057 -1.3593320446676491
1.7178634428626538 -1.3421420162099351
1.7490117670035712 -1.3179749007029857
1.7798373876248845 -1.293127555043441
1.7366023338926626 -1.2159820450642176
1.6746558965611844 -1.1295696650109086
1.643794313173031 -1.0674925086294529
1.5943304207740807 -0.9962482167584251
1.5600444872778445 -0.9373692963362986
1.524204710660612 -0.8799999999999999
1.4868535021369726 -0.824176354418773
1.4568635282172295 -0.7746280785967198
1.4256104387013888 -0.7263847995832748
1.4111066526896923 -0.6882427004588515
1.3685247584253415 -0.6381535752284562
1.3429118227346233 -0.5979028653214262
1.325526988971514 -0.5626528250245542
1.3073292349391703 -0.528195296716436
1.2790051843011665 -0.4909640908770614
1.2591881118531174 -0.4583069920563961
1.3048156343270572 -0.4492840531508762
1.3124579924873119 -0.42644345223742736
1.34838970590788 -0.4122441036590587
1.374604225191796 -0.3941614188183088
1.400592448119149 -0.37528761539865507
1.4263347176257148 -0.35562518653151154
1.4615550971778528 -0.33742658151579746
1.5063473051300609 -0.32018400385934936
6.832125196795741 -1.3280306078207518
6.992135046386677 -1.2329020614352053
7.101479168879041 -1.12476380363926
7.011097926690319 -0.9853455547972633
5.280345526731833 -0.6483449069153846
5.280911264405531 -0.5550461399512399
6.784085894004787 -0.5935306081115521
6.703630417746019 -0.468763503560522
6.640886406117916 -0.34803410901557646
6.5759916417856505 -0.22963868830245637
5.869105970568016 -0.10244562578685422
5.55 0.0
5.479165369457024 0.09563918727631365
5.436686098983881 0.1898532620616053
5.3826131923271525 0.2820908041494672
5.326992028387461 0.3724995697936291
5.289793846867169 0.46279699399006485
5.221239950683435 0.5487744321551806
5.21086729611694 0.6398140528770242
5.050367150582009 0.7097828148963337
5.027333653629251 0.7962514270547751
3.3877386703619954 0.5973497311742403
3.357164967391011 0.6525667641877833
3.325701842494939 0.7068997487803816
3.3031145196219476 0.7625840742257023
3.269896597550108 0.8152767881708802
3.2455107763312694 0.8696319915444697
3.220226681393368 0.9233851419869472
3.1940578849165386 0.9765214937739406
3.1575076340999098 1.0259364213248252
3.1202112994777456 1.074374909708617
3.1009856485934977 1.1286664729747067
2.9034351264062974 1.114524323085884
2.864998110611373 1.157534373655168
2.8351549486335164 1.203451875746963
2.8045845549627844 1.2486814942427065
2.782364906202515 1.2974380635439473
2.867153007694343 1.3984039582571568
3.0294221822404506 1.543567699114459
2.993192339791763 1.5915085978441699
2.9649608072025515 1.6435046126350827
2.9358261188292474 1.6949999999999998
2.905797149380161 1.7459790739450836
2.874883045970284 1.7964263057505647
2.8430932253349877 1.8463263287009415
2.8104373709615915 1.8956639427658317
2.7769254301396824 1.9444241192300462
2.750657780874821 1.9984698577944087
2.7153607341607957 2.0461710787169642
2.7580376376235267 2.154815163639804
4.3753317630027455 3.543073801610585
4.3204906591910355 3.625322118632081
4.279203319863117 3.7198546943761763
4.221062608711599 3.8006618441183146
4.168716099229272 3.8873906523562414
4.114623657937084 3.9734458790254643
4.058792924010783 4.058792924010783
4.001232213843824 4.14339724995063
3.948770504761866 4.234537932374997
3.894340129008555 4.325102884278435
3.837945319594468 4.415051044303215
3.7795911449568513 4.504341325539591
3.725576715015038 4.600704091825267
3.607776245408358 4.617743016135391
3.3581278291884296 4.456386146063894
3.1505289522876563 4.336331089849718
2.9539186472078875 4.218633028088308
2.7791887302496114 4.120316735598557
2.6088209777219804 4.0172320204585805
2.4535261933997385 3.926462685204253
2.307370575597044 3.840109507145463
2.1750000000000003 3.7672105064623076
2.0410485012370794 3.682148967056856
1.9154439761664348 3.602426178864422
1.802342283966001 3.53729590102782
1.7008800495416205 3.487320899640768
1.5932708467624368 3.4167803571281703
1.4967908465189455 3.3618472841247713
1.4027247512764927 3.3046124238942607
1.3148691428898516 3.254415329529423
1.2327857464358325 3.211516667150374
1.152607883007504 3.166764132048511
1.0711192281640458 3.1107561137217523
0.9981248918310802 3.071912547633346
0.9268183039710756 3.0314860764028224
0.8544758030326974 2.9799112574087885
0.7971626589157639 2.9750515449703303
0.7475386574029731 2.998213794192829
0.7085958211831752 3.0692657040734908
0.6653174106168296 3.1300723223481786
0.6220373249275364 3.200104618039384
0.9377001594014243 5.317961866265923
0.8556965237700631 5.402655223055404
0.7584934002323568 5.3969609746415586
0.6629692281240024 5.399451064928792
0.44215539962217415 4.2068276174077965
0.36343944725773536 4.154131891042579
0.28251371866370717 4.040134403552288
0.2103905440966347 4.014490729713386
0.13994698177702933 4.007557216346574
0.07207843858598126 4.129370980995896
