# .PCD v0.7 - Point Cloud Data file format
VERSION 0.7
FIELDS x y
SIZE 4 4
TYPE F F
COUNT 1 1
WIDTH 158
HEIGHT 1
VIEWPOINT 0 0 0 1 0 0 0
POINTS 158
DATA ascii
2.2166107064567093e-16 -3.62
0.06317771130296662 -3.6194486564661363
0.129477132766279 -3.7077399682408454
0.19416639766132213 -3.704915573939469
0.26298190601535215 -3.760816469479537
0.11853181013681538 -1.354824789404774
0.12334358665583108 -1.1735358365345625
0.146243212086177 -1.1910553819695864
0.5873104860514762 -4.178931250089427
0.6507673745673607 -4.108783496875773
0.713694010211084 -4.047559864880175
0.4426768692735842 -2.27737506559858
0.4823551226972014 -2.2693024337024292
0.88405764357139 -3.8292743546059747
0.9386569549267105 -3.764747417950866
0.5124617093029911 -1.9125331360523552
0.5457619645176583 -1.9032981579578714
1.0934701756630356 -3.576579787301753
0.5315092303249096 -1.635817208027664
0.5013749578640214 -1.4560986064229477
1.2346927174056643 -3.392290361037129
0.6199765527133693 -1.615094137840159
1.3298534066264882 -3.291502683712095
1.3714662609973507 -3.2309720356180653
0.37419771162973636 -0.8404618210311928
0.3888088008014435 -0.833803164073718
1.5036130334865359 -3.082863578806143
1.5435676991144593 -3.0294221822404506
1.0657004475239722 -2.004291035789764
1.2120240506158428 -2.1865492678484895
1.6650000000000005 -2.883864594602181
1.7099264087013804 -2.8457954383310122
1.7434343793272442 -2.790078236354642
0.9367791402258467 -1.4425133768661291
1.0065472262473443 -1.4922676305990752
1.8641234181408997 -2.6622441439392235
1.8985463649046883 -2.61312489183108
1.9378443745495955 -2.571606342352283
1.9701167210421067 -2.5216344115415104
2.01382525135948 -2.486867076662307
2.0504924749000604 -2.4436817735495397
2.0862677121898137 -2.3999764651084146
2.1278353282211695 -2.3632005450181137
2.1619348013981203 -2.31839123413277
2.195120450650432 -2.2731137690701377
2.2273863607376247 -2.2273863607376243
2.265920371066751 -2.1881738669458413
2.2964506230841955 -2.141474850596245
2.326043303744244 -2.094378797903226
2.362240986097276 -2.0534647607402876
2.43602132911835 -2.044064598803195
2.580124592037143 -2.0893436982854605
2.624075809510384 -2.0501527128344423
2.6594562484574853 -2.0040440270963207
2.6859364213248256 -1.9514470376110107
2.7277763074823427 -1.9100095330489835
2.7689854923338393 -1.8677042975922942
2.801159696937716 -1.81909437695019
2.840961122124027 -1.7752295351812364
2.8715104573520764 -1.7253775509486815
2.9185056107535585 -1.6849999999999998
2.947468413059764 -1.633808420230156
2.984362863863173 -1.586813882216311
3.0294221822404506 -1.543567699114459
3.0648876978801596 -1.494845610550754
3.099572631665343 -1.445354455153192
3.151731828866973 -1.4032414186115105
3.1849467929454436 -1.351929704572887
3.2173279753467527 -1.2998848791532147
3.2581956884752343 -1.250704143913098
3.2983210989585383 -1.2004907030730971
3.3376805718655884 -1.1492555852337631
3.3857611980107465 -1.1001004999748127
3.4235710263476675 -1.0466907029073975
3.4509294884185646 -0.9895381073830269
3.4869922329035363 -0.9343367528200999
2.221977213172032 -0.5540011409232392
3.5661944371139613 -0.8233208588985459
1.5650361611740893 -0.3326587053084149
1.0012597271166173 -0.1946251752840757
0.984807753012208 -0.17364817766693033
1.7877158964771993 -0.28314638172281786
1.9409254147334778 -0.27277927788172823
3.662495299556478 -0.44969787716499415
3.719511888677342 -0.39093645262102394
2.540296480133951 -0.2222471440065283
2.5437883281625515 -0.17787900804751952
3.864696299500201 -0.20254015066019262
3.9076181336446645 -0.1364570321067788
3.9693953497708736 -0.06928605355601554
4.02 0.0
4.08937707318964 0.07138034232848955
2.2386354525227747 0.07817487261360218
1.3181909858760374 0.06908346224068586
4.229671573101655 0.2957674486750913
1.2552053195955994 0.10981623586204929
1.27298802607139 0.13379643298259644
1.2803845356173054 0.15721145299264025
1.2873484893640414 0.18092503124808507
4.612504550579294 0.7305489517378781
4.68768490433811 0.8265653256945883
4.7903406552246 0.9311478974375387
4.871175051654353 1.0354002202724415
4.949799929108995 1.142751356066834
2.241383127697552 0.5588395788352325
5.119406879332062 1.37174093904336
5.229263625904455 1.4994672156444755
5.37443272851226 1.6431289805417804
5.430532708045327 1.7644870378809496
5.55019403876799 1.91108506666351
1.7854159794932258 0.6498382723187706
1.7177879847548512 0.6593970271633525
1.7245619694942247 0.6967682637535964
5.771565431146801 2.449884175627746
1.5895690962981255 0.7077217589518923
6.171956029719586 2.878030362454163
6.147751276686303 2.9984586440372896
3.60857642296289 1.8386615239451642
3.567108275150065 1.8966651136549988
4.285636564983039 2.375567139207052
3.4814221232134432 2.0099999999999993
1.9114830805657106 1.1485349070494209
1.8826667734672657 1.1764207665977149
6.01326797216869 3.9050618810577435
0.8704894511827939 0.5871525486442841
0.9256418100465607 0.648141373076682
5.978635588430861 4.343733014441376
2.7552925096631604 2.0762618298745665
1.2686973133068224 0.9912149752743099
5.937395145531257 4.808007787620759
5.91386310087851 4.962320346780083
5.901828917342077 5.130381606705767
5.8857070177809625 5.299514402362157
4.578274172136007 4.26930973399124
2.4241751271412544 2.3409987084468207
2.3688077169749344 2.368807716974934
5.508640877739849 5.704364616685503
3.873750685154991 4.154089025196888
3.7002922531644864 4.1095908848899905
4.894200356269185 5.630133468461878
4.673065922421141 5.56914310147497
3.3857437038481257 4.181045272638503
3.318415352005298 4.247377961940231
2.166534083347374 2.875087836170254
4.1673974387536346 5.735930490118378
2.105025521408339 3.0062880025406
2.3147158988138656 3.564349913768052
2.1514722127868118 3.4430752703950893
2.36917514458625 3.942969583229716
2.8143427623858774 5.770257777240652
1.563687568440588 3.353338812035605
2.5461713856545103 5.718794564842681
2.449884175627746 5.771565431146801
0.8593130275935648 3.7220936474795985
0.6678314838179072 3.435695142066824
0.6060321400575872 3.4369790580126063
0.15386771135425525 2.9359708321784472
0.10190653037130315 2.9182212148957594
