# .PCD v0.7 - Point Cloud Data file format
VERSION 0.7
FIELDS x y
SIZE 4 4
TYPE F F
COUNT 1 1
WIDTH 159
HEIGHT 1
VIEWPOINT 0 0 0 1 0 0 0
POINTS 159
DATA ascii
3.214697847761802e-16 -5.25
0.09127608566699323 -5.229203445667927
0.18392034762218068 -5.266789658390635
0.3375669177669886 -6.441160499167001
0.4541146440742552 -6.494141967191456
0.6135764289435148 -7.013210674565888
1.5124756274789641 -8.577675528736332
1.4367917351853832 -7.39165269136091
1.5385465120514183 -7.238292245430163
1.6646378021446022 -7.2103384794107415
1.7926412463935375 -7.189891331705134
1.871261696091225 -6.983643724069965
1.7282462209725846 -6.027110833533259
1.724993057864147 -5.64219806018191
1.8324707766434383 -5.63976514163026
2.396181616804674 -6.9590167164109715
2.5206884563101792 -6.925534615192144
2.655506506130674 -6.917830960344265
2.7833269890802272 -6.888976039431229
1.2894127240146032 -3.037666016393053
1.2527488606734651 -2.8137200095392108
1.2255929590480283 -2.6282925824062846
1.2011369422020723 -2.462695686859718
1.1758353943254263 -2.3077068976478725
1.1689841913368684 -2.198539506218728
1.148998799983819 -2.072848705920368
1.1400000000000001 -1.9745379206285198
1.1227830033039186 -1.8686247155306048
1.1128304548897303 -1.7809010019284948
1.0947244603802047 -1.6857278415703019
1.0848342327332487 -1.6083328907567809
1.072587935976456 -1.5318143228204149
1.069769159172301 -1.4724109297624044
1.059194440747605 -1.4055984976832354
1.0466245080536192 -1.3396182811314272
1.0446718491427303 -1.2900622960185715
1.0348880515953285 -1.2333315534215548
1.0365732658050018 -1.1924411367519796
1.057226358046996 -1.174168824254283
1.0843773924993727 -1.162852385574481
1.1253465601435757 -1.1653304765486148
1.159655121145938 -1.1596551211459378
1.194104068562161 -1.1531328949619355
1.235987755736398 -1.1525772285056224
1.2782090998211182 -1.150904642937236
1.3056475737853956 -1.1349821201535775
1.3482382198894014 -1.131306193048309
1.3988627306225474 -1.1327767038897076
1.4262994640281668 -1.1143472703394415
1.4774756935874918 -1.1133577928312894
1.5128617794811519 -1.0991584217869248
1.5645804045919742 -1.095530993430498
1.6166232664823315 -1.0904261617679563
1.6605677245319397 -1.0783852893297534
1.7215376351975444 -1.0757361063934059
1.7743363124533724 -1.066128815063812
1.8273136019851655 -1.0549999999999997
1.8804323703497008 -1.0423406835296247
1.9424847042896396 -1.0328374381289598
2.0136747446657113 -1.0260185294113755
2.0852021874140676 -1.0170210605506596
2.1479494552768603 -1.0016052803254578
2.2381863712243724 -0.9965047755357105
2.3012621336311008 -0.9768278212231842
2.3828625062366435 -0.9627389450788938
2.4739881302175846 -0.9496750662950457
2.56536085474553 -0.9337149912790755
2.6663623831900733 -0.9181021955691818
2.7675744624188967 -0.8992394536310969
2.8880403630083675 -0.8829625482626648
3.008749108286938 -0.8627449237072073
3.139258935439472 -0.8411618965831924
3.279599554812868 -0.817696007126877
3.4395263286918802 -0.7940772218338433
3.609364646707743 -0.7671941391175319
3.7988971999424597 -0.7384308121072284
4.008167554759687 -0.7067480831044065
4.247059864559092 -0.6726681996729927
4.505719712774145 -0.6332376093682978
4.813848835460411 -0.5910663155149652
5.141678199053973 -0.5404121550937684
5.528880574409188 -0.4837143722495028
5.9554573800511506 -0.41644614825242804
6.451146794514547 -0.3380902773294171
7.025717513944244 -0.24534346181858183
7.758818114413596 -0.13543067395332004
5.106667396842609 1.561264903219414
4.584092408542641 1.4894619128872466
4.150826546881 1.4292441980669177
3.7775643355593513 1.374920976169188
3.4729191865695905 1.333128772308517
3.2080561368010843 1.2961388132190557
2.964025628116858 1.2581542337354614
2.7680427366570806 1.2324120285196745
2.5739141151840856 1.2002358633435863
2.408768044081768 1.1748346733947275
2.2542465061965706 1.1485959643410533
2.1190742228614248 1.1267317506861378
2.0203715234920043 1.1199102227690387
1.9052558883257653 1.0999999999999999
1.800051331474436 1.0815799573111138
1.7215376351975444 1.0757361063934059
1.6270209018141226 1.0565997279291524
1.5503002606779281 1.0456907294902966
1.4826652001630751 1.0381733497953933
1.4076895702124086 1.0227463389889033
1.3496940119799248 1.0170673891269615
1.2765774208428895 0.9973715900275665
1.220119159487444 0.9880330139482449
1.1720479979720364 0.983465042820405
1.1169701787297026 0.9709673629059508
1.0626971004326737 0.9568567670931672
1.0238951822668385 0.9547977040874978
0.9783021284605657 0.9447353838242364
0.9333809511662429 0.9333809511662426
0.8961092978921066 0.92794834243686
0.8661379172793731 0.9288192010563465
0.8297219518849842 0.9214995835919688
0.800392015368419 0.9207456878717817
0.7649172555269818 0.9115928873115838
0.7363048575283099 0.9092607749046557
0.708010696624507 0.9062123666477301
0.6800509761618144 0.9024581263534408
0.65831948256757 0.9060990336999413
0.6768201948942343 0.9665994122610103
0.6822153422343111 1.0114258385171508
0.680798793768784 1.04833820993178
0.6676982729338382 1.0685406011570968
0.6592487358848697 1.0971741448987036
0.6600000000000001 1.143153532995459
0.6544929873325551 1.1807366046381844
0.8121858036195911 1.5274993356459434
0.803563184538998 1.577081547813411
0.7934517756882302 1.6268172238014924
0.786069966837701 1.6857324838881689
0.7768669882747787 1.7448718240973675
0.7658330118389765 1.804189512766783
2.270115956100428 5.618734158674731
2.150207697271801 5.601482558983211
2.028179449921216 5.572377241260436
1.3966873826212025 4.056274689321069
1.7984789072621943 5.535148924837793
1.686984736250191 5.517878441906714
1.5766456752732352 5.498416900767184
1.472680366633343 5.496117951584799
1.3668587101381224 5.4821708534593805
1.2597259043256448 5.456472362797317
1.158068117854919 5.448282136087298
1.0551737444322935 5.428398324465582
0.953328495391448 5.4065945640370225
0.7508854321931084 4.740904034856661
0.6624639605699116 4.713676007209875
0.5788793811744506 4.71459422029628
0.4923290619906478 4.684198127184567
0.41050354834147085 4.692077028012122
0.3571531455699212 5.1075279373303
0.27738056808760303 5.292736534199241
0.18426934258920571 5.276783566660826
0.09179965786011172 5.259198876522618
