# .PCD v0.7 - Point Cloud Data file format
VERSION 0.7
FIELDS x y
SIZE 4 4
TYPE F F
COUNT 1 1
WIDTH 180
HEIGHT 1
VIEWPOINT 0 0 0 1 0 0 0
POINTS 180
DATA ascii
7.776507174585693e-17 -1.27
0.0218155080466045 -1.249809618945489
0.04257738597705132 -1.219256808963297
0.06227978792910332 -1.1883691463579429
0.08161507428062652 -1.1671499388039943
0.10022910415980711 -1.1456239028055073
0.11707187885977188 -1.1138645228124662
0.13405627774566226 -1.0918007668054543
0.15169868004647136 -1.0793921949283118
0.1673848775930471 -1.0568265244367974
0.18233058655027695 -1.0340481406628184
0.19653326523784126 -1.011075998951094
0.2099908077259368 -0.9879290767411437
0.22945007543074245 -0.9938574660809399
0.24192189559966767 -0.9702957262759965
0.2536426642004703 -0.9466073097632869
0.2673682351424892 -0.9324238450601693
0.2777531194865999 -0.9084895181648837
0.29047597471245057 -0.8939931253174442
0.3027783836451558 -0.8793322753073646
0.3112383304263586 -0.8551202849151766
0.32611483408622316 -0.8495581881124536
0.337145934074321 -0.8344654691101085
0.3438433930705609 -0.8100442710381476
0.3538608794759463 -0.7947845481490627
0.36345170509700153 -0.7794246968515189
0.3769991862386066 -0.7729628798172836
0.36773230478903296 -0.7217152845925779
0.2722935064158167 -0.5121096038581776
0.2811895797428755 -0.5072794301408495
0.29500000000000004 -0.5109549882328187
0.3141732256951332 -0.5228720534282885
0.3338491364669191 -0.5342703005785484
0.35946176310991795 -0.5535225748439798
0.3914350324295227 -0.5803263007885292
0.4187107985362636 -0.597980992330964
0.45259464426520435 -0.6229430856687096
0.46941571805859766 -0.6229356978368884
0.48021595075401347 -0.6146483878132432
0.4908699050188733 -0.6061738499364372
0.4949464594586353 -0.5898542212016131
0.5051654523226907 -0.5811263767715343
0.5152305668963209 -0.5722215156175936
0.5251387372481239 -0.5631423502467613
0.534886945253428 -0.5538916462607614
0.5374011537017762 -0.5374011537017761
0.5538916462607615 -0.534886945253428
0.5558288132305695 -0.5183187536474988
0.5647900673628197 -0.5085392608327323
0.5735792809693068 -0.49860486203278553
0.5745333323392335 -0.48209070726490444
0.5828594710927281 -0.4719902932873781
0.5988881727411086 -0.4679027212475003
0.6069629876359426 -0.45737941759555667
0.6229430856687096 -0.45259464426520435
0.6225555536596338 -0.435918091626795
0.6300685551418317 -0.42498660663776755
0.629002925959068 -0.40847927626127023
0.6445165530788838 -0.4027386408172357
0.6514471485336054 -0.39142893693164116
0.6581793068761734 -0.37999999999999995
0.6647109774259408 -0.36845531138721616
0.6710401705727845 -0.356798387717277
0.6771649583831596 -0.34503277980205554
0.6920714156503587 -0.3375457830275896
0.6978569960182205 -0.3254160615403386
0.7034300023848027 -0.3131872151683661
0.7087887371583791 -0.30086296893674075
0.7139315680164263 -0.28844707693025223
0.7281927326678174 -0.2795270006453342
0.7329602442130086 -0.2667757117940216
0.728049303211474 -0.25068747893201065
0.7418240827102198 -0.24103325561245897
0.7554807572107981 -0.23097364673096202
0.7690093567506552 -0.22050988465359933
0.7727406610312547 -0.2070552360820166
0.7762365810207972 -0.1935375164797342
0.7892397524760406 -0.18221035401853064
0.8020810326017206 -0.17048758647056264
0.8147505622615611 -0.15837146616253217
0.8272385125302547 -0.14586446924022148
0.8395350895058671 -0.13296929528419624
0.8417278584303348 -0.11829713581605562
0.8535896904115369 -0.10480763532842682
0.855288830016715 -0.08989447841018197
0.8666893873398186 -0.07582549619046261
0.8778563642286453 -0.06138569689483027
0.8887802859315708 -0.04657900105622001
0.8994517443171862 -0.03140954703225087
0.8998629256407522 -0.01570716579355516
0.89 0.0
0.8698674947860604 0.015183593600436656
0.8494822029662313 0.029664572197125823
0.8288625138462963 0.04343884368164337
0.8180025212130558 0.057200308470182745
0.786993811492479 0.06885303677064995
0.7657818594335705 0.08048691671609316
0.764260536763818 0.09383939442196355
0.7526037322435934 0.10577155672964973
0.7308893720404019 0.11576150412977085
0.7287577372290339 0.12849965147352843
0.7264041157512713 0.14119865657864317
0.7336107005503543 0.1559337681133195
0.7210338479410741 0.16646378021446007
0.7471277092325173 0.18627985961174415
0.7727406610312547 0.2070552360820166
0.8170724415475711 0.23429175244444927
0.8511112328071017 0.2602108172032357
0.8844825601544928 0.28738580476870107
0.9455185755993168 0.3255681544571567
0.9396926207859084 0.3420201433256687
0.9242446222322297 0.35478427004984725
0.9086401774754517 0.36711446154759375
0.911299804917916 0.38682381720438097
0.8952745484897489 0.39860191021428415
0.8881816312959169 0.4141658965058854
0.871830224910192 0.4252200123854051
0.8642763284627168 0.44037078474736036
0.8476296891445699 0.4506927002744552
0.8396349188538199 0.46541723543648356
0.8313843876330611 0.4799999999999999
0.8228806086740278 0.494436551913652
0.8141261723101689 0.5087224936638767
0.8051237452276071 0.5228534736144259
0.8041664453783904 0.5424171163666244
0.794577482960322 0.5563691432605147
0.784746484543699 0.570151694723699
0.774676444745874 0.5837605724574868
0.7643704309985202 0.5971916310658886
0.7538315826132617 0.6104407793183424
0.7354026653942188 0.6170761052990776
0.7245211970138611 0.629816667830887
0.7208504807130725 0.6490566881680925
0.7020995535544036 0.6547184256599985
0.6977596063284917 0.6738186193452274
0.6929646455628166 0.6929646455628165
0.6807652030498174 0.704953004331878
0.6683583928612485 0.7167266275867871
0.6557479942316811 0.7282819289678464
0.6494984387006023 0.7471624844205442
0.6427876096865394 0.766044443118978
0.6356135949603359 0.7849174210715405
0.5787217868061187 0.7407301083903185
0.5356153706053229 0.7107856039420907
0.4937396119256774 0.6795742752749558
0.4531253847173264 0.6471301149883035
0.42498660663776755 0.6300685551418317
0.40303288591112013 0.6206162202796137
0.39214025553257165 0.6275555911557553
0.5459403594046577 0.908597338744239
0.5350000000000001 0.9266471820493494
0.5235943898660441 0.9445892837105475
0.511724003436621 0.9624128762162304
0.4993895497135016 0.9801071766072047
0.486591972935876 0.9976613913920755
0.4691062705321764 1.0060016436106816
0.4596124066756544 1.032306367136139
0.445433486477772 1.049375532935782
0.4345436483624581 1.0755332712974732
0.41929050096800113 1.092289099001726
0.4070039705575459 1.1182342187352308
0.38742610380401654 1.1251671049631868
0.37391056319368643 1.1507783847171358
0.3566934797617389 1.166691802274903
0.34179032121307895 1.1919645029635155
0.32611199682917613 1.217066541124226
0.30724080741157794 1.2322755723705154
0.22945007543074245 0.9938574660809399
0.18088317101145054 0.850988412638411
0.16409573602382863 0.844199377764991
0.14933743279356015 0.8469346675904988
0.12984060598339167 0.8197813226939643
0.11412194278725367 0.8120198163680876
0.09871416815816947 0.8039623828294709
0.08362277061412277 0.7956175162946186
0.0697245941981267 0.7969557584733965
0.05441004952041768 0.778099959202663
0.04029868630706686 0.7689447417610219
0.026523617493900822 0.7595370285345128
0.012914780763589862 0.7398872944157295
