# .PCD v0.7 - Point Cloud Data file format
VERSION 0.7
FIELDS x y
SIZE 4 4
TYPE F F
COUNT 1 1
WIDTH 180
HEIGHT 1
VIEWPOINT 0 0 0 1 0 0 0
POINTS 180
DATA ascii
1.879832836691187e-16 -3.07
0.05427698401995199 -3.109526331936377
0.05549019975697672 -1.5890314149603624
0.08269081086385147 -1.5778346649122268
0.11021522851571787 -1.5761511994105224
0.2823846065024131 -3.227670821817256
0.33030994392578494 -3.1426891893637436
0.3790136579900087 -3.086818531604511
0.4216944959089983 -3.000512248286958
0.4661747058198881 -2.9433112549735108
0.5070526787874368 -2.8756386387956474
0.5476218167306839 -2.817270016494796
0.5883900850142586 -2.7681577100766703
0.625363931075945 -2.7087487801029537
0.6652852128990862 -2.66831324725899
0.698811421776806 -2.6079997309804845
0.7331953664732178 -2.5569561111959285
0.7601664322791156 -2.4863923655038924
0.794173675543615 -2.4442152468785445
0.8269431123211781 -2.4016171820222647
0.8584705597474287 -2.35862847817263
0.8851688353768915 -2.3059436534480886
0.9140400879348257 -2.262328605142961
0.9416620196591498 -2.2184166968203813
0.9721005769511629 -2.183373643765816
1.0016052803254578 -2.1479494552768603
1.030172194954332 -2.1121660088030425
1.0532579593957487 -2.067135136117013
1.07508987877969 -2.0219499876469427
1.1005178379591853 -1.9853867352064283
1.1300000000000001 -1.957217412552831
1.153685287798522 -1.9200547535727315
1.181719959240047 -1.8911472544288301
1.2036522673832102 -1.853461955159387
1.2302243876356431 -1.823882659621092
1.2503966312452806 -1.7857514565500023
0.7876322380719141 -1.0840827724624296
0.8004139807922243 -1.0621852283628994
0.812673147429869 -1.040174194760873
0.8369961200962839 -1.0336041287377713
0.8420517686893666 -1.0035182204858613
0.8528767376876596 -0.9811224542896035
0.8698697882665157 -0.9660882731206125
0.8865978680812481 -0.9507598121049217
0.8961092978921066 -0.92794834243686
0.905096679918781 -0.9050966799187807
0.9063681484267005 -0.8752695467783366
0.914192127023963 -0.8524979500781231
0.9214995835919688 -0.8297219518849842
0.9358398794762373 -0.813513195948229
0.9575555538987225 -0.8034845121081741
0.9714324518212135 -0.7866504888122969
0.9850134420084024 -0.7695768441570728
1.006280742659589 -0.7582869291715808
1.5775831390311474 -1.1461812419703226
1.7693684156642224 -1.2389251025182595
1.7907211567188903 -1.207856671496813
1.8115284267621161 -1.1764203156324584
1.8317838876978803 -1.1446256107437227
1.8600530425235837 -1.1176326225548174
1.8706148721743878 -1.0799999999999998
1.8979247644924886 -1.0520368759345513
1.9159962765038716 -1.018753291245383
1.942394222730642 -0.989699289432212
1.9593710209321842 -0.9556491000001888
1.9848140536102634 -0.9255339932121317
2.0098000068137223 -0.8948206147667604
2.025110677595369 -0.8596084826764022
1.7152901309485569 -0.6930221978194373
1.7364595932847953 -0.6665643861542585
2.0955145443525756 -0.7627049196162412
2.11796160934247 -0.7292726659840311
2.1398771616640953 -0.6952882373436317
2.16124874847646 -0.6607600526733849
2.1820640497799837 -0.6256967977045881
1.0818369254437565 -0.28987733051482323
1.0479193843780763 -0.2612756472476412
1.0523196699680541 -0.2429471386913742
1.0563994087925102 -0.22454462608318007
2.189028619088291 -0.4255040596896949
2.17642513415698 -0.38376247264391605
2.202544999527157 -0.34884885703971485
2.2281031546685335 -0.31313947716014723
2.263005225742214 -0.2778621029637362
2.2476194835322976 -0.2362343269848968
2.1517805478781704 -0.18825640433494165
2.0849088650430323 -0.14579103012522188
2.017231660204239 -0.10571863161074653
1.9588060209574276 -0.0684030135369019
1.9097090977487072 -0.03333409629521151
1.86 0.0
1.8097243282330682 0.03158885565148316
1.7589278555536085 0.06142311419640171
1.6876839137352297 0.08844776605057507
1.6858832449391028 0.11788844062757176
1.7433407216605548 0.1525225498084018
1.750358535848161 0.1839700953510701
1.7766576114379664 0.218146124695214
1.7923852044222424 0.25190331273771843
1.807469663289102 0.2862750710236225
1.841590498132829 0.32472209223715975
1.8650916485505615 0.3625370912154351
1.887824869416245 0.40126956327827545
2.0266897347532895 0.46789819303523916
2.930293093353509 0.7306041247109966
2.984710803233221 0.7997508493667891
3.0279743422057046 0.8682576708235473
3.0793013142009746 0.9414368892072122
3.128975938611055 1.016665911493577
3.1769424140137046 1.0939089989760464
3.232542615503525 1.1765492930403003
3.295538905535122 1.2650388618949098
3.3656773920774383 1.3598219340997606
3.4334831033776028 1.4574271092649909
3.489743648194735 1.5537339765495566
3.4892849800911026 1.6270803077016929
3.4244053163998265 1.670194069266385
3.350184530948263 1.7070042790206956
3.2933945213637976 1.7511289291913728
3.22734671934437 1.7889474987089837
3.1696529778510456 1.8299999999999998
3.120088974555689 1.8747385926725972
2.976648817509055 1.860016617458549
2.943733693488438 1.9116830129027444
1.807301908169991 1.219040529566228
1.802134497435782 1.2618681599723014
2.370419793518596 1.7222107892169465
2.316042979137149 1.74526356714094
2.269470970387359 1.773105048937896
2.2381803689960758 1.8124427262235319
2.229189329476226 1.8705119441878293
2.4377119441195534 2.1190706636393384
2.5341238548779144 2.281735367683707
2.4866025855051794 2.318794424212495
2.431368525144641 2.347945292151411
2.3900209204105307 2.3900209204105303
2.334052124742231 2.4169817291378677
2.28469450620937 2.450034900424221
2.2348962252385864 2.4821037170944966
1.856647052043136 2.1358281120304445
1.6519641568944061 1.9687342188157733
1.6236466089085808 2.0050365805589845
1.5945632210934548 2.0409478518414095
1.5526827597322845 2.0604796159220156
1.5164859509145807 2.0872638454873647
1.4740914414221882 2.105220753822709
1.4371257619198192 2.1306265614664572
1.4051687103387702 2.163770065299194
1.3671917017216686 2.187964088083579
1.3236478525188398 2.2029199628044283
1.2900000000000003 2.234345541763852
1.2508088202355498 2.256518844419641
1.2112366319875985 2.2780047895760314
1.1758353943254263 2.3077068976478725
1.1353812701837105 2.3278765799148426
1.0988074805258186 2.3564002462952898
1.0615826384278388 2.384353644447188
1.0276228679267898 2.420927764579918
1.0526445274987133 2.6053866313326726
1.2184510284540204 3.174173450090486
1.1697088901737873 3.2137487630878065
1.113443088243476 3.233673528549663
1.0630184606498192 3.271634416055328
1.0116060983406692 3.3088144556321026
0.9647307453594971 3.364415935784116
0.9058666578588226 3.380740392011739
0.8491458535548335 3.4057379992287475
0.7963267323772826 3.4492700293397327
0.7401656193112228 3.482205458612348
0.6850042934017962 3.5240415885771137
0.34382339178052224 1.949919350964172
0.31286893008046185 1.9753766811902755
0.27834620192013093 1.9805361374831407
0.24373868681029498 1.985092303282644
0.19755879557586503 1.8796463822460365
0.16559591122055087 1.8927699263743165
0.13672268853848546 1.9552255385092554
0.10519527204831736 2.007245364856693
0.06910100347095213 1.9787938374978096
0.034206716617075854 1.9597014825065269
