# .PCD v0.7 - Point Cloud Data file format
VERSION 0.7
FIELDS x y
SIZE 4 4
TYPE F F
COUNT 1 1
WIDTH 179
HEIGHT 1
VIEWPOINT 0 0 0 1 0 0 0
POINTS 179
DATA ascii
2.020667218593133e-17 -0.33
0.005759294124303588 -0.32994973940160915
0.011516833911825357 -0.3297989729163016
0.01727086556017151 -0.32954774646900936
0.02301963633556133 -0.329196136585742
0.02876139510672726 -0.32874425037027605
0.03553967751100218 -0.33813744442521293
0.04143557675775015 -0.3374656915580495
0.04871058533602291 -0.3465938240595496
0.05475206276408082 -0.3456909192082982
0.060776862183425644 -0.34468271355427277
0.06487505842802528 -0.33375324237220577
0.07068997487803814 -0.33257018424949397
0.0787328690203528 -0.34102952267483233
0.08467266345988368 -0.33960350419659874
0.09058666578588226 -0.3380740392011739
0.09647307453594971 -0.3364415935784116
0.10233009665295786 -0.3347066645870624
0.11124611797498107 -0.34238034586625526
0.11720453560457643 -0.340386687215754
0.12312725159724078 -0.338289343482927
0.12901246183630805 -0.3360889535389926
0.13485837362972838 -0.33378618764404344
0.14457051754103128 -0.3405867957774029
0.15049255793804614 -0.3380118193277623
0.1563687568440588 -0.33533388120356045
0.16219732431195866 -0.3325537971306918
0.16797648490363234 -0.3296724139496961
0.1737044782307796 -0.3266906093578029
0.17937955949114473 -0.3236092916415764
0.19000000000000006 -0.32908965343808666
0.19571446846582066 -0.32572357426680265
0.20136932040861785 -0.3222582765394419
0.20696283330571033 -0.3186948158192611
0.21249330331888377 -0.31503427757091584
0.22943057454041843 -0.32766081771559674
0.23511410091698925 -0.323606797749979
0.23470785902929883 -0.3114678489184442
0.24626459013026333 -0.3152043014426888
3.908079628419491 -4.826076420647788
3.908148666894159 -4.657550214163386
3.896990632203614 -4.482974906523266
3.894340129008555 -4.325102884278435
3.8873906523562414 -4.168716099229272
3.890086874570385 -4.028302881896446
3.8537319574666844 -3.853731957466684
3.9275953098490355 -3.792834702706125
4.0663265810025875 -3.791910881947491
6.651146188022678 -5.988718926911781
6.150883078815593 -5.346881086272634
5.369971546264035 -4.50594114390264
7.305172037695526 -5.9156116758684725
7.296979578398244 -5.701025261515595
3.8254640931265325 -2.8826939608983113
3.8266503833935017 -2.7802242433433983
3.8336315672724814 -2.6843377221228955
3.8301535852042927 -2.58347121403485
3.9752984920613104 -2.581589025971228
4.121513747320231 -2.575407624173376
4.26869315749652 -2.56488961305207
4.442710321414171 -2.5649999999999995
4.600499659553221 -2.5500986024957326
4.776746477366795 -2.5398411546716693
4.9629063397292095 -2.5287270835492754
5.159077825757219 -2.5162503825693046
5.374405177127334 -2.5061262921223477
5.609169109925569 -2.497362988485413
5.863615916492045 -2.4889572884766737
6.128685278686465 -2.4761495824791786
6.432369138565719 -2.4691551723671186
6.746993017242822 -2.4557046290783013
7.100844502750869 -2.445016839973247
7.1614555677025065 -2.326897967643354
7.153159574603507 -2.186940351326071
7.151787017781093 -2.050741927278474
7.1478511145391055 -1.9152609337586535
7.1316735881285735 -1.7781259326575578
4.394408992181411 -1.014529255090831
4.352756823265436 -0.925207024139029
4.348608422673151 -0.8452838495180934
4.343002190783838 -0.7657884635111628
4.335951815212654 -0.6867473015266135
4.337374141088078 -0.6095781822050866
4.34735214418899 -0.5337877241145459
3.31175791157635 -0.34807978268128603
3.32729029162643 -0.29110018077717825
3.3119126468626163 -0.231591492830496
3.3354226460802763 -0.1748020938514324
3.3579531787841614 -0.11726230892040325
4.619296351622528 -0.08063011774024982
4.61 0.0
4.609297874670964 0.080455593675877
4.59719780428784 0.16053768483150443
4.5837095645234935 0.24022203915511217
4.59877027169779 0.32157734396041765
4.592457558202947 0.4017879740667042
4.564855499740374 0.47978564639852933
6.977599446038494 0.8567414841381867
5.80760744269941 0.9198346544365575
5.702036889940684 1.0054229486915267
5.6443563048240675 1.0971517234151327
6.954629441217358 1.4782521217142688
6.947258561918727 1.6039010174717572
6.821178955720256 1.700710926065664
6.326814162193397 1.6952647454215108
6.296264108395989 1.8054246806013445
6.292485294236774 1.9238058170756076
6.295994137873916 2.0456925027621518
6.401160756807375 2.204096405674951
6.277146706849868 2.284694557415467
6.264324661796223 2.404648941448965
6.258491018325815 2.528594505557406
6.876171255289729 2.9187615298148746
6.878997296048785 3.0627269223607754
6.869813025737806 3.2034464239945017
6.857798573262644 3.3447718500006607
6.842930105766666 3.486647037999719
6.842843844656684 3.6384046115906536
6.839526109830075 3.791211230326356
3.4121400909106883 1.9699999999999998
3.3086657807101534 1.9880469691528089
3.1886608415481614 1.9924964335168502
2.8766400480528045 1.8681118901015425
2.6860817350783353 1.8117850072452197
2.580328939510324 1.806765774505795
2.5160428525060863 1.8280121346295914
2.4997291464480265 1.883681022465911
2.4901139813972413 1.9454902620290804
2.486867076662307 2.01382525135948
2.4819839957054888 2.0826318553843874
2.430164848317326 2.1125100733494335
2.333474751999018 2.101070103966815
2.2598829380032366 2.10737493259312
2.1724061970227266 2.0978682787861715
2.0859650045003155 2.085965004500315
2.0145092743310924 2.086085420982088
1.9436953261781207 2.084358049614636
1.873565697804803 2.080805511336704
1.8435258714633258 2.120733920425989
1.8126610593160408 2.1602453295955177
1.793563114492037 2.214865990152367
1.7915748931976656 2.293111292995561
1.7873906187615836 2.37194746484046
1.7809893144461935 2.4513214929560907
1.7780869526882428 2.539371337295875
1.778233433036975 2.6363394807250327
1.7646304734486882 2.7172926401431736
1.7646311498965723 2.824000160200899
1.7562798354432856 2.9229404953942026
1.7500000000000004 3.031088913245535
1.7453146328868137 3.1486309457018247
1.7370447823077964 3.2669060935780294
1.7342437090050689 3.4036449223995646
1.7227986068810746 3.5322606019557266
1.8003537950153796 3.8608711727761285
1.9157295888870198 4.30279910549665
1.8247143700449082 4.2987576656228965
1.7381745934498325 4.302133085189893
1.6520762474038337 4.3038057661521005
1.5630320549983066 4.294395276991601
1.4780794212354917 4.292654333220898
1.3936666446310129 4.289264888491142
1.309825237157861 4.284245306714399
1.2265862333856463 4.277614546925519
1.1465683698041669 4.279051410460572
1.0668755595945345 4.279004152877144
0.9852856180261294 4.2677408837593305
0.9064949719654303 4.264723539199393
0.8300191298879703 4.270078247997338
0.7518966092978087 4.26421757054286
0.6757968889737976 4.2668136313709955
0.12108059783525696 0.8615332198051662
0.10480763532842684 0.8535896904115369
0.0909397630428585 0.8652340489703978
0.07582549619046278 0.8666893873398186
0.060688132157388955 0.8678807237260471
0.04553228193136125 0.8688076952364793
0.030013567164150927 0.8594761112364223
0.015009069536063895 0.8598690178344964
