# .PCD v0.7 - Point Cloud Data file format
VERSION 0.7
FIELDS x y
SIZE 4 4
TYPE F F
COUNT 1 1
WIDTH 143
HEIGHT 1
VIEWPOINT 0 0 0 1 0 0 0
POINTS 143
DATA ascii
1.0164568432923031e-16 -1.66
0.028447422492772264 -1.6297517431049178
0.05618818969102674 -1.6090192315007443
0.08321417042628092 -1.5878209602597724
0.10951766377827662 -1.566175558907924
0.13596295868634706 -1.5540637290231232
0.16097383343218633 -1.531563718867141
0.1852414019758242 -1.5086701504948095
0.2087596514400982 -1.4854021031123557
0.23152300825954175 -1.4617787440808039
0.2535263393937184 -1.4378193193978237
0.27667304329599013 -1.4233594159991128
0.2993928347775733 -1.4085325450566801
0.3194304971682885 -1.383605491995034
0.34352909175152807 -1.3778199313119148
0.36752304404557945 -1.371614673330477
0.3886486717019688 -1.3553789912730296
0.40932038661183145 -1.3388266583482495
0.42644345223742747 -1.3124579924873119
0.44602837160630476 -1.2953604485710641
0.46514739492290963 -1.2779819642688355
0.48379673188615524 -1.2603335757712224
0.5019728351773224 -1.2424263651194951
0.5235797121756268 -1.2334765036262703
0.5409597352908145 -1.2150154586646593
0.5578561054977232 -1.196326278888378
0.5786499137615823 -1.1864081411149006
0.5947275546588064 -1.167218546686762
0.615007747249517 -1.1566613466451943
0.6302525063202382 -1.1370056192812146
0.6500000000000001 -1.12583302491977
0.6695494973830707 -1.114317490912746
0.6835958508608343 -1.0939820440417896
0.6971379648192348 -1.0734983269701426
0.7157669164425559 -1.0611680928704534
0.7341778385293389 -1.0485146166899095
0.7464872704114409 -1.0274515828561832
0.7643050794031013 -1.0142670977600619
0.7818900736635861 -1.0007736570805368
0.7992368966332937 -0.9869753710503529
0.8227681403987704 -0.9805368871922919
0.8397555571078494 -0.9660282626851481
0.8564871761393386 -0.9512253766110647
0.872957900879998 -0.9361327380725382
0.9030558815966966 -0.9351417404402464
2.9627774131716347 -2.9627774131716342
3.042807355432495 -2.9384049070415585
3.1301938429300495 -2.9189529810674935
3.225248542571891 -2.9040268315974447
3.2754395781668304 -2.8472961858188013
3.3246328831363643 -2.7896982260395804
3.4971568265563686 -2.831941759724269
3.6012091439827194 -2.8135729422382587
3.3143373666962654 -2.4975323460810004
1.3591485505499117 -0.9874792238513548
1.3597923935197263 -0.9521368843427364
4.045703354068603 -2.7288613689372445
4.075938960214761 -2.646945710173031
4.045189418666151 -2.527714890392387
4.020114640292907 -2.4155285713281542
4.001037365484107 -2.3099999999999996
0.9270968895677595 -0.5138981974611173
0.9270949725018733 -0.4929451409251854
0.9355568503977864 -0.4766900247265241
0.9617096295401087 -0.46905712706431285
3.6252311481465997 -1.6904730469627978
3.6450463759939775 -1.6228792058724426
3.70042951087881 -1.5707391365268801
3.170968782618413 -1.281154549482419
3.155501841560542 -1.2112836694631148
3.138573353424934 -1.1423472787077336
3.1202112994777456 -1.074374909708617
3.0624019824703947 -0.9950347218873307
3.0314860764028224 -0.9268183039710753
3.0183617252463213 -0.8655012972653774
3.0040293197590024 -0.8049272302688395
2.998213794192829 -0.7475386574029732
3.0302909014820814 -0.69959777900942
3.1496352743628546 -0.6694756444331851
3.2786347927151978 -0.6373020445576596
3.446827135542728 -0.6077686218342562
3.614939326578204 -0.572550142047245
3.7927267032802146 -0.5330329766770506
3.990035529598114 -0.4899147604886928
4.216772836361479 -0.4432006842548507
4.46295224745102 -0.39045772750950863
6.0851407065849275 -0.42551448983916434
6.061681275960264 -0.31767925439466904
6.036320595195338 -0.21079296008310586
6.02908160179304 -0.10523801081681958
6.01 0.0
5.999086170938348 0.10471443862370107
5.976357145574193 0.20869899028095582
5.961818322484805 0.3124456587703746
5.945481739548552 0.4157485835149868
5.927358453645886 0.518576669348566
5.89751483953386 0.619853787177185
5.875873217716626 0.7214665129584731
3.4263275178458334 0.4815389293218264
3.397647891647274 0.5381345597383942
3.3778905928318737 0.5956132493975711
3.357164967391011 0.6525667641877833
3.325701842494939 0.7068997487803816
3.390807825452619 0.7828296691166501
3.590094187221187 0.8951110137187707
3.8637033051562732 1.035276180410083
4.162263143412921 1.1935097506876065
4.542447590824419 1.3887655974329993
5.0596206666902175 1.6439704100747203
8.732351693374788 4.64307375595246
8.168948064681956 4.528121853100788
7.698965839643661 4.444999999999999
7.277350382960934 4.37267325598636
6.852228616943922 4.281747655004295
6.474536784538674 4.204613350316008
6.1597491640839594 4.154803272787649
5.807787994008952 4.0666569337289165
5.53367624152464 4.020451125680516
5.263008011211659 3.965961002571998
5.019628500474819 3.921763597824443
4.896019557178916 3.964718463613976
4.833740436080751 4.055989817122063
4.815047121821285 4.185656604959436
6.7923437048633835 6.115853742119965
6.494420870378234 6.056145437354987
6.222289272929333 6.008794904470326
6.1164736572636365 6.116473657263636
6.092153908925407 6.308610048969969
6.042505470153736 6.47979379634585
5.930773622074186 6.822574605213857
5.80437211546945 6.917381321364371
5.903025268047476 7.289629118466387
5.542716363230365 7.355433047535568
5.407624321090752 7.442956348249516
5.293893449689717 8.472000480602697
4.563237343703081 7.594502284220714
4.425000000000001 7.664324823492281
0.9245893098268745 2.4086375003627807
0.8755715669137122 2.4056131092119255
0.2778370842670887 1.5756924048195329
0.2487307994139672 1.570424461546269
0.21570873782711106 1.7568066884051399
0.17978895682036394 1.71057766003343
