# .PCD v0.7 - Point Cloud Data file format
VERSION 0.7
FIELDS x y
SIZE 4 4
TYPE F F
COUNT 1 1
WIDTH 167
HEIGHT 1
VIEWPOINT 0 0 0 1 0 0 0
POINTS 167
DATA ascii
9.184850993605148e-17 -1.5
0.026178609655925396 -1.499771542734587
0.05234924505375162 -1.4990862405286436
0.07850393436441595 -1.4979443021318608
0.1053322753536291 -1.5063217158923345
0.13160517154896412 -1.5042539941185358
0.15888326416683327 -1.5116732809597755
0.1852414019758242 -1.5086701504948095
0.21154311345929952 -1.505207464487187
0.23934473151155333 -1.5111631611105607
0.26741819360707286 -1.5166039396388005
0.2938458528798792 -1.5117058625094026
0.3201840038593492 -1.5063473051300609
0.348674134232991 -1.5102736004171147
0.3773981571354816 -1.5136613329905546
0.40634590081095756 -1.5165035472738373
0.4327506486326887 -1.5091808626231606
0.46487101050915147 -1.5205245619812264
0.49442719099991594 -1.5216904260722457
0.5241647286760224 -1.5222849067149
0.5540726321875835 -1.5223020456731715
0.5877234372542922 -1.5310718994554107
0.614354813202096 -1.520581521489531
0.6486136732921943 -1.528038056731051
0.6833175603673446 -1.5347563688395693
0.7142248623417821 -1.5316601600919384
0.7496146610093224 -1.5369378191715757
0.7854035645494161 -1.5414412868458762
0.821575234875309 -1.545158287503122
0.8532649316335533 -1.5393306845653365
0.8900000000000002 -1.5415252187363007
0.9322189155871985 -1.5514728142708232
0.969752253546765 -1.5519280159662598
1.0075822147778004 -1.5515405506990343
1.051282658525004 -1.5585906364034783
1.095530993430498 -1.5645804045919742
1.1344255369244731 -1.5614027991436485
1.185575595609535 -1.5733119547931669
1.2313229506513166 -1.5760215072134438
1.27752039383117 -1.5776063017576505
1.3305703520511363 -1.5857119972562843
1.3842845511699704 -1.5924372142700487
1.4386308036715452 -1.5977613747763975
1.4935764085368717 -1.6016646065459832
1.549088166123564 -1.604127754755192
1.619274528917194 -1.6192745289171937
1.6688683367856707 -1.6116074194648735
1.733308272837434 -1.6163361133481216
1.8058419259100682 -1.6259873734520256
1.8792268547547024 -1.6335869821863633
1.9534133299533938 -1.639108404700675
2.0361224190172638 -1.6488194245505743
2.1276290347381495 -1.6622859833792776
2.212220362831001 -1.6670276141311737
2.3137886039123496 -1.681065821556473
2.424690051095416 -1.6977862515990962
2.536854972018428 -1.7111302846204852
2.658585700386994 -1.7265057409976354
2.7900782363546415 -1.7434343793272442
2.9400838414082453 -1.7665805969414858
3.1176914536239795 -1.7999999999999998
3.3060624929869156 -1.832580364531154
3.540619847364297 -1.882580966771422
3.813507923526215 -1.9430793388852603
4.134452612976168 -2.0165072752297557
4.513412779442517 -2.104638943468683
5.015364562457879 -2.232984170486143
5.808385625284898 -2.465513420767317
8.805195835525547 -1.711556688527607
8.626915916386942 -1.5211580363623096
7.289139953592117 -1.1544863519969037
6.7239201867552625 -0.9449853555188443
6.223264370791089 -0.7641207831502747
5.817953087904399 -0.6114915101157727
5.449184998561848 -0.47674191282969014
5.147430499340693 -0.3599434045196866
4.863325834254774 -0.25487610690313645
4.587203896017649 -0.16018868986447946
4.36933442783343 -0.07626701613092894
4.19 0.0
3.979393826722437 0.06946057762038838
3.7976851426725635 0.13261808746950368
3.635011506506649 0.19050288072431554
3.4914741759093846 0.24414765810443856
3.3571761325691827 0.29371485305960804
3.222250940993206 0.33867222098719724
3.0967439931209246 0.38023235142406014
3.010414928974374 0.42308622691859893
2.9433112549735108 0.466174705819888
3.0036636466872344 0.5296269418841375
3.0332279968532814 0.5895997957135234
3.051820514289474 0.648684475351409
5.79750188547215 1.3384587733459967
5.627715212400779 1.4031469944780728
5.467140176796127 1.4649157952802674
5.296551944620137 1.5187618305516652
5.192734824879283 1.5875783566444603
5.20227914413449 1.690322959230962
5.257083280332202 1.8101589387817911
5.2810725288168054 1.9221532054902581
5.32140843103405 2.0426973124082117
4.7037798011419705 1.9966360665801888
4.649946379400839 2.0702895132558226
5.347215943516235 2.493447744270127
6.61126840947769 3.3686095080674368
6.6750838020134875 3.549205014661334
6.743317942044741 3.7378821720992588
5.308735725198609 3.0649999999999995
6.437326428272863 3.8679359425745066
6.2670754305959875 3.916103362683384
6.130681851681049 3.981311345959847
5.9856512738474015 4.037372763058792
5.848745596223401 4.0953357555464684
5.703569810343379 4.143886028661935
5.5744758601301045 4.200668861601297
5.437274199886382 4.248064179747042
4.973734153324614 4.02765050271896
4.55030399212673 3.818158401538043
4.445239427512127 3.8641876807540876
4.325102884278435 3.894340129008555
4.285732691488339 3.9965103899662413
3.596699001693256 3.4732918522949863
4.4547727214752495 4.454772721475249
4.480546489460533 4.6397417121843
4.385249455201865 4.702604301411266
4.282435880696693 4.756126883055323
4.152853653509911 4.7773116428101465
4.043134064928332 4.8184195472183715
3.9332524440614844 4.857162259106067
3.823257761772338 4.893546779897743
3.701162392385097 4.911608386790851
3.591367891507011 4.943093835630929
3.48734473301436 4.98044442927707
3.3887089950327254 5.023967689683553
3.284173381140614 5.057183524710907
3.1795155853992294 5.088288576938556
2.7709048430160923 4.611560077777364
2.6850000000000005 4.650556418322435
2.5937314683179036 4.6792154331957665
2.779271651692474 5.227049749724847
2.188234208744616 4.294651446587933
2.082262947248118 4.2692717199210435
2.4976739268875336 5.356279021386602
2.3916114612857062 5.371647290938493
1.351929704572887 3.1849467929454436
1.2998848791532154 3.2173279753467523
1.2399531054267385 3.230188275680318
1.087624055775627 2.988222534099189
1.0320510496291868 2.997293884649834
0.9795838721685834 3.014849156655637
0.9268183039710756 3.0314860764028224
0.8737704179398873 3.047199576124471
0.8204563729749907 3.0619848693363463
0.7693116280069432 3.085540409557669
0.7153443528134912 3.098496806017048
0.6611591768004744 3.110509370333502
0.6697395737716726 3.4455114139013006
0.553937686757508 3.1415367321089436
0.45365994861666964 2.8642961877258997
0.3688087175441735 2.6242103821651614
0.2997985847766628 2.441663533037652
0.15261155637077403 1.452001967237679
0.12986205669401096 1.4843301001567009
0.10463471061618784 1.4963460753897362
0.07850393436441595 1.4979443021318608
0.05269824002077663 1.5090801487988346
0.02652765778467107 1.5197684966377147
