# .PCD v0.7 - Point Cloud Data file format
VERSION 0.7
FIELDS x y
SIZE 4 4
TYPE F F
COUNT 1 1
WIDTH 180
HEIGHT 1
VIEWPOINT 0 0 0 1 0 0 0
POINTS 180
DATA ascii
6.306931015608869e-17 -1.03
0.017626930501656434 -1.0098461721079552
0.03489949670250108 -0.9993908270190958
0.052335956242943966 -0.9986295347545738
0.06905890900668397 -0.987588409757226
0.08541262789270519 -0.9762708041299106
0.10139260936962385 -0.964686238507225
0.11821326310299306 -0.9627697670920823
0.13360617692166285 -0.9506573459919075
0.14861274178821937 -0.9383039235653808
0.16322928700691458 -0.9257192878314755
0.1793604556539522 -0.9227295524408041
0.19335787246051608 -0.9096772686824394
0.20695496999635593 -0.8964204596024165
0.22256814395169428 -0.8926720681739168
0.23811352149431908 -0.8886517601859429
0.25358636735163925 -0.8843607602632534
0.26605825129769045 -0.8702373279263623
0.27811529493745274 -0.8559508646656382
0.2930113390114411 -0.8509667180393851
0.30781812899310196 -0.8457233587073175
0.3189474750953171 -0.8308865795825096
0.33339986814016187 -0.8251936305644407
0.3438433930705609 -0.8100442710381476
0.35792824590670436 -0.8039200027254888
0.3719040703318155 -0.797550852592252
0.3813828977064974 -0.7819508202802753
0.39497173477340575 -0.7751756760438799
0.40844025962372504 -0.7681644057872664
0.4217843696143133 -0.7609191452112742
0.4350000000000001 -0.7534421012924616
0.4480831251717473 -0.7457355516108376
0.46102975988288825 -0.7378018436560907
0.47383596046307364 -0.7296433941125188
0.4864978260195497 -0.7212626881228863
0.4990114996254101 -0.7126622785314228
0.5113731694944517 -0.7038447851062043
0.5295972203738025 -0.7027992488416177
0.5417820982865793 -0.6934494631739153
0.5600951480343553 -0.691659905696704
0.5720809726210201 -0.6817795543758904
0.5838925358015515 -0.671691526398267
0.6022175457229725 -0.6688303429296548
0.6137985240562487 -0.6582183314572534
0.6251925334130977 -0.647405820304786
0.6434671708797584 -0.6434671708797582
0.6545992183081726 -0.6321391171176876
0.6728454054896369 -0.6274384912574986
0.6836932394392027 -0.6156001578501497
0.6943328138049503 -0.6035743066712668
0.7124213321006496 -0.5977924770084815
0.7305172037695525 -0.5915611675868472
0.7486102159263858 -0.5848784015593753
0.7587037345449281 -0.5717242719944459
0.784746484543699 -0.570151694723699
0.802769003403212 -0.5621049076240251
0.8207471968294913 -0.5536009744360393
0.838670567945424 -0.544639035015027
0.848048096156426 -0.5299192642332049
0.8657389737091334 -0.5201884556591547
0.8833459118601275 -0.5099999999999999
0.9008582983535777 -0.49935390885372716
0.9270949725018733 -0.4929451409251854
0.94446691563967 -0.4812299297239196
0.9617096295401087 -0.46905712706431285
0.978812409999582 -0.4564277226799554
0.995764548830435 -0.4433429409526222
1.0125553387976844 -0.4298042413382011
1.0291740785691341 -0.4158133186916624
1.0549458819418378 -0.4049557829861893
1.0806465139037946 -0.393323164824519
1.1062567334512006 -0.3809147407148733
1.1317572543912326 -0.3677302233061874
1.1571287547152729 -0.35376976271451144
1.1823518860041322 -0.33903394765490896
1.2074072828613354 -0.3235238063781509
1.2322755723705154 -0.307240807411578
1.2666810842208058 -0.2924363706470245
1.3009363089759616 -0.2765225487876199
1.3251966976543466 -0.2575921437583355
1.3491866216267252 -0.23789800340369457
1.3827636768331928 -0.2190082510563232
1.4259860189878613 -0.20040926538249423
1.4590428429127433 -0.1791479348055668
1.4917828430524098 -0.15679269490148018
1.5241778880803707 -0.133348286403917
1.566175558907924 -0.10951766377827674
1.6177798463024098 -0.08478424911356901
1.658988772851699 -0.057933164526151604
1.709739558717429 -0.029843615007754804
1.75 0.0
1.8097243282330682 0.03158885565148316
1.8688608465257093 0.06526205883367682
1.9373412974238733 0.10153175511131102
2.0051037410222463 0.14021051222569184
2.082046919011748 0.18215550234260555
2.1481672939954706 0.22578148065813147
2.2332288411929744 0.27420602266158184
2.3172272808552745 0.3256650562465531
2.400082667646185 0.380135750047761
2.5014116926510086 0.44106637127400306
2.6307608516397396 0.5113681076091401
2.748594758061994 0.5842318511979037
2.8841353917642962 0.6658551208578403
3.046728580506629 0.7596347521829567
3.226192259805488 0.8644556106424193
3.422091637540415 0.981268986708517
3.681773310457687 1.1256310631825364
3.9563951077878388 1.2855106965997811
4.273743961708912 1.4715680581463482
4.6796692515138245 1.7032603137618303
5.078677520144778 1.9495216455264337
5.284947971030689 2.1352575824706985
5.237672616144386 2.2232601211039675
5.188938199409972 2.310264132670545
5.138765152497805 2.3962455440697656
5.087174302053286 2.481180690826178
5.043096926906163 2.569586228525835
4.997483375581527 2.657209045368142
4.941601345337586 2.7391743543918046
1.2297560733739028 0.7099999999999999
1.7571929664393302 1.0558280535656108
1.7130571542359805 1.0704369137510739
2.1218365369019225 1.3779367585880182
0.7129723123973358 0.48090589698484226
0.6880877172027531 0.48180420653487865
2.77492829070607 2.016103415363183
2.747306154562687 2.070243679643046
2.710756992407123 2.1178754751202646
2.6733821074119795 2.164862145211441
2.6505137731916637 2.2240451295154258
2.618842243373019 2.2765248305970602
2.6084383374256537 2.348648428319592
2.57436502969948 2.4006342274199945
2.546462893198825 2.4590906314248504
2.5173001410241094 2.517300141024109
3.966499295320875 4.107430259933698
3.9214905703593663 4.20528378431023
3.8608835986906116 4.287945643004565
2.486463719874023 2.8603493090443055
0.6492154857834047 0.7737048875501678
0.6230271871393391 0.7693745018424011
0.5971916310658886 0.7643704309985202
0.5717242719944459 0.7587037345449281
0.5642738422007741 0.7766563145999495
0.5448976145334937 0.7781944420745421
0.525641329262502 0.7792953182017391
0.5174070832642758 0.7967370395481527
0.5034233010215446 0.8056456913486048
0.4995869326627527 0.8314522816810488
0.4850000000000001 0.8400446416709054
0.47996152404387377 0.8658735100680017
0.46947156278589086 0.8829475928589269
0.45853040473694234 0.8999165894302514
0.44275485825696825 0.9077819867621587
0.43107062697551346 0.924433942777383
0.4189387423680744 0.9409518213718789
0.40245306234395195 0.9481199990560136
0.3895908571525487 0.9642712087494588
0.3762863470225652 0.9802594478220619
0.36596155335846564 1.005471104240922
0.3548692883583009 1.0306152474032553
0.3430088637561917 1.0556727330876206
0.33915117747837464 1.109313516917121
0.322495706305889 1.124676184247833
0.3157592350250753 1.1784295080726632
0.30482158845558127 1.2225726151077556
0.2991849022773407 1.295912186164363
0.3492916405738355 1.6432879692327935
0.3339157419089536 1.717847571033412
0.5261539783307991 2.98396749162699
0.46930339512069275 2.9630650217854133
0.10855501874885107 0.7724090936184249
0.09871416815816947 0.8039623828294709
0.30104197421084194 2.864223058660627
0.24752230940334974 2.829192942580557
0.1960156912209919 2.803154981230106
0.1449705987929548 2.7662038112701697
0.09597361593187798 2.7483247743025134
0.04729602144503855 2.70958725387382
