# .PCD v0.7 - Point Cloud Data file format
VERSION 0.7
FIELDS x y
SIZE 4 4
TYPE F F
COUNT 1 1
WIDTH 180
HEIGHT 1
VIEWPOINT 0 0 0 1 0 0 0
POINTS 180
DATA ascii
1.598164072887296e-16 -2.61
0.0528807915049693 -3.0295385163238655
0.11272537434907849 -3.2280323712716794
0.11880262067148281 -2.2668890438928826
0.16602040751101804 -2.3742024396183816
0.20917378259438005 -2.3908672754201894
0.2487777425770152 -2.3669621109764902
0.27420602266158184 -2.2332288411929744
0.32288159422735185 -2.2974219194804433
0.500590288128739 -3.160602689904441
0.553937686757508 -3.1415367321089436
0.6086806952511783 -3.131390715198048
0.6549218260759415 -3.0811649423114877
0.5646271464031014 -2.4456688626109404
0.7717308469629399 -3.0952433668204287
0.8282209443280664 -3.090962644125019
0.8792831650562273 -3.0664248100432374
0.9355894551127577 -3.0601752190817137
0.9888543819998319 -3.0433808521444914
1.045073775807473 -3.035114627673807
1.0978846600753969 -3.0164133127227655
1.1539447975358665 -3.00612897332099
1.2099792967333964 -2.994803850250723
1.250339611165676 -2.9456155310478094
1.2161425627966431 -2.7315009183513768
1.1622002197869234 -2.4923464143507874
1.1046952899084752 -2.264960996673901
1.1576757743358443 -2.2720666366803375
1.2018472007318806 -2.260345837718853
1.2508088202355498 -2.256518844419641
1.2950000000000002 -2.243005795801696
1.3390989947661414 -2.228634981825492
1.3830892796486647 -2.213405530968272
1.443293442789822 -2.2224770050553735
1.4874531232321866 -2.2052399429964114
1.5257133206937825 -2.178944437808718
1.5399973610062796 -2.1196245252623624
1.522592008574682 -2.020547840419651
1.4960573850413497 -1.9148661312643342
1.4789029189671181 -1.8262930094238814
1.4655557500853096 -1.7465813303112698
1.4498904540690214 -1.667908172292326
1.4319394976079567 -1.5903299265216237
1.418556588929997 -1.5212156993678747
1.4032099083271747 -1.4530663966840751
1.3859292911256331 -1.385929291125633
1.3739390186468237 -1.3267974875766848
1.360317885011657 -1.2685169497162472
1.3450921341140836 -1.2111263975095334
1.3433830527965342 -1.167785071603103
1.3329173310270217 -1.1184504408545783
1.32891959409142 -1.076137868695222
1.3080978509871584 -1.0219980490405927
1.2937895262766144 -0.9749403375063183
1.3025173609436655 -0.9463342561908819
1.286068709533717 -0.9005150050711423
1.2767178617347643 -0.8611570713449501
1.2663925575975903 -0.8224049428726907
1.2635916632730746 -0.7895797037074753
1.2686076050391262 -0.7622563508668802
1.255736835487436 -0.7249999999999999
1.2507061812093359 -0.693277756952262
1.2361266300024978 -0.6572601879002471
1.2295890033799477 -0.6265068896405744
1.2223599029668673 -0.5961847596331453
1.214452434629111 -0.5663084707325373
1.2150154586646593 -0.5409597352908142
1.205861358022697 -0.5118577783209486
1.1960671723911558 -0.48324250550652653
1.1856471416514462 -0.45512729592253137
1.1746157759823856 -0.4275251791570859
1.1629878479871596 -0.40044882998230275
1.169799515043039 -0.3800909030811853
1.1666918022749033 -0.35669347976173876
1.1631266520853658 -0.333521200538569
1.1494517332839913 -0.3079946636719997
1.1449489570056757 -0.2854678368076079
1.1400129757987252 -0.263192733582322
1.1346512168512146 -0.2411775613486008
1.1288712609648135 -0.2194303446830265
1.122680838433917 -0.19795892254030056
1.1160878248725057 -0.17677094549546085
0.8417278584303348 -0.11829713581605562
0.635229537050446 -0.07799637977929438
0.6563844509430604 -0.06898878575665128
0.9961946980917455 -0.08715574274765817
1.0873448147832085 -0.07603455638109659
1.0885061928824855 -0.05704619230480878
1.0893360014508144 -0.03804045140572606
1.0798355107689026 -0.018848598952266194
1.08 0.0
1.0698370338173386 0.01867407488789336
1.0593542766402415 0.03699346650465103
1.0585473068398483 0.05547611361752046
1.0574178932754137 0.07394186216877283
1.0559663799772503 0.09238508731251766
1.044247990136687 0.10975488643103613
1.0421734592233882 0.12796281057540485
1.039781472178649 0.14613175600806871
1.0370727576248946 0.16425618829224242
1.0340481406628184 0.18233058655027687
1.0307085426200473 0.20034944514537206
1.027054980770496 0.2183072753586473
1.0133448673766448 0.23394909651761958
1.0091075553270363 0.25159877142365444
1.004562859340631 0.26917180690662157
0.9997121637758517 0.2866628500496791
0.994556946201557 0.3040665729116462
0.9986093421099113 0.3244678440936948
0.9927945043792827 0.3418465621800145
0.9866772518252039 0.35912115049195215
0.9802594478220619 0.3762863470225653
0.9828148858407947 0.39708298902086675
0.9757351446595869 0.4141749961986302
0.977493639677583 0.43520820809110616
0.978812409999582 0.4564277226799554
0.9706975700031004 0.47344083853220364
0.971197111365321 0.494849644716106
0.9624128762162305 0.511724003436621
0.9533354807819414 0.5284424860685074
0.9526279441628827 0.5499999999999999
0.9428840307723236 0.5665418824010596
0.9413333867336329 0.5882103832988574
0.939311036098875 0.6099957192168303
0.9368124569871971 0.6318879809219439
0.9338333304894506 0.6538771374401925
0.9303695435311895 0.675953040136344
0.9264171916548596 0.6981054268563759
0.9219725817198646 0.7203239261310201
0.9170322345192254 0.7425980614388082
0.9115928873115838 0.7649172555269816
0.9131985920695541 0.7938314250785138
0.906636687082421 0.816339339757807
0.892251515975388 0.8320379992762481
0.8632077604063814 0.8335900445507967
0.6363961030678928 0.6363961030678927
0.5904596148901478 0.6114388302878534
0.7160982780656234 0.767921386700129
0.689204524549624 0.765439170241716
0.6691802095703175 0.7698037718272274
0.6427876096865394 0.766044443118978
0.6293203910498375 0.7771459614569708
0.6156614753256583 0.7880107536067219
0.6018150231520483 0.7986355100472928
0.5936631048153979 0.8171071643186969
0.596519493805088 0.8519181260605515
0.5927444776789916 0.8787798269083443
0.5827637674660792 0.8973775077016036
0.5723128053718614 0.9158919438489402
0.5665418824010598 0.9428840307723235
0.5600000000000002 0.9699484522385713
0.5526829670808243 0.997066466138911
0.5492817284594923 1.0330486836449444
0.7581641345650432 1.4879808953945741
0.7496146610093224 1.5369378191715757
0.7395819580462241 1.5860386273141374
0.7239912246749247 1.6261109146038295
0.7111306538504781 1.6753188332834414
0.6967682637535967 1.7245619694942245
0.6880664631269763 1.7924744188746273
0.6737796823515676 1.8511944629482393
0.6641590350925998 1.9288578942226062
0.6489356881873897 1.9972186842198225
0.628599165153884 2.056055225320526
0.6119149299137382 2.134000964983068
0.5952838037357977 2.221629400464857
0.5709356736152157 2.2898979140113513
0.5128884039040125 2.221563747710336
0.4781968888808462 2.2497394816877527
0.4407687793198188 2.267558793764104
0.39765432685727065 2.2552097543979563
0.3551062356413242 2.2420525331509626
0.3159229391793486 2.2479085160433647
0.2754247160956333 2.2431543027093874
0.2330984730868672 2.2177838266712495
0.19348574889980158 2.2115522297636754
0.15346424223707553 2.1946409105716134
0.11304566548475897 2.1570397950698794
0.07991984744872747 2.2886049938737294
0.03961696261263377 2.269654268005008
