# .PCD v0.7 - Point Cloud Data file format
VERSION 0.7
FIELDS x y
SIZE 4 4
TYPE F F
COUNT 1 1
WIDTH 170
HEIGHT 1
VIEWPOINT 0 0 0 1 0 0 0
POINTS 170
DATA ascii
2.0329136865846063e-16 -3.32
0.09302132631072157 -5.3291882151835654
0.1874102972924308 -5.366728741092544
0.3752898287433937 -5.366894590397854
0.395687072074369 -4.522723929336525
0.4630610922757048 -4.4057319964814505
0.5252568700761856 -4.277873913574098
0.5900939480706776 -4.198736611464258
0.647638685266556 -4.08902973006387
0.7154304919877533 -4.057407942410297
0.7956735107201923 -4.093385354976759
0.8836246859754767 -4.157127303118674
0.9695390442220587 -4.199534979224364
1.3716971480501157 -5.5015767679849
1.4778567475353934 -5.51543646811058
1.5821584223895753 -5.517642134685951
1.6928321703446458 -5.537004537025975
1.7799378875996972 -5.478085533860084
1.8817839327623662 -5.465097366964051
1.9871370327221358 -5.459614126766127
1.7201661578174408 -4.4811860471865685
1.7456667253181508 -4.320676762281229
2.0591530471384725 -4.85106057769436
1.9686053524868738 -4.421560014990188
2.0412462042075785 -4.377466611387019
2.139251196330698 -4.386114945939935
2.0474971538253564 -4.0184394240895385
2.1220114637922265 -3.990923119722349
2.259212830347931 -4.075727835269585
2.3250000000000006 -4.02701812759764
3.255040633431544 -5.41729734043735
3.359688135238519 -5.376624929631741
3.594617631099179 -5.535225748439798
3.7913278855316634 -5.620874741923183
3.946205882095197 -5.635766064708264
3.197551772471054 -4.401052449399715
4.176596260675216 -5.542530439728212
3.8601974502918774 -4.940827425114146
3.2850524412801514 -4.056701918805388
3.7474517644725247 -4.4660391033836415
3.896990632203614 -4.482974906523266
4.028166250280326 -4.473731849373913
3.573671406727492 -3.832293396484453
3.598330358977606 -3.7261801657542124
3.394112549695428 -3.3941125496954276
3.3808970615916607 -3.2648943411572873
3.386167638496759 -3.1576524070893677
3.4333290937055616 -3.091383401377925
3.4867582606292067 -3.030992713936144
2.1066222185771895 -1.7676659266379828
2.1293799343921003 -1.724337871476555
2.1433892498102836 -1.6745992128857907
2.1563158771276907 -1.6249005625105304
2.1762557148686086 -1.5811423286667527
2.203518999137388 -1.5429206137843139
2.2052399429964114 -1.4874531232321866
2.2140902993759197 -1.4378470524396714
2.2303664928914 -1.3936876649333287
2.160061597769323 -1.2978959487733366
2.165063509461097 -1.2499999999999998
2.1690568737057014 -1.2023278582109158
2.1720510784329603 -1.1549000444532913
2.165145853777734 -1.1031969143670988
2.148117770655009 -1.047707040825895
2.2657694675916247 -1.0565456543517486
2.3934890990236144 -1.0656500048585964
2.5405933955287354 -1.0784179146303954
2.7166486938806873 -1.0975973187086223
2.9034351264062974 -1.114524323085884
3.1197795010092157 -1.1355068758412201
3.366046129133568 -1.159022629867478
3.6520570225733895 -1.186625258399798
3.987790832365858 -1.219190008693812
4.364128099559967 -1.2513935954091762
4.848947647971123 -1.2992716064146541
5.39484423809454 -1.3450857395341524
6.1190440068512775 -1.4126926212794721
7.003536821254049 -1.4886477062551566
8.422361233980958 -1.6371411803307545
9.80402401305733 -0.3423640626515345
9.698522643016995 -0.16928834244165006
9.8 0.0
9.898492182048274 0.17277882372910677
8.78793990584025 0.4605564149379057
8.818466204296845 0.6166472278980677
6.843857575890292 0.5987599526764116
6.255542721866439 0.6574840339535403
5.766693141036081 0.7080608851839068
5.327642209829649 0.748751283165152
4.958195469787591 0.7853010145019589
4.648292594217621 0.8196193985879111
4.348608422673151 0.8452838495180934
4.098438447074646 0.8711499845264116
3.868249157197384 0.893055685745144
3.6677178453232666 0.9144647653667439
3.4869922329035363 0.9343367528200999
3.3259654679465833 0.9537052511268171
3.1749317897972777 0.9706740596794858
3.0338702869815397 0.9857642120560822
2.9027420270899027 0.999494234183471
2.7814901575262887 1.0123796242439793
2.660704215517025 1.0213486562041059
2.5682992771500013 1.0376602637620762
2.4669530072525405 1.0471594243512536
2.366082735294336 1.0534479055663224
2.283895623332358 1.0649980195865627
2.1930574729699677 1.0696255981653489
2.1295055928101996 1.0850372943775168
2.0484384154327104 1.0891740256632665
1.9853867352064283 1.1005178379591851
1.9139161423636095 1.1049999999999998
1.8514813695165628 1.112482241805717
1.7893814828900587 1.1181296475320623
1.7276613699675736 1.1219564121309555
1.6663655208356336 1.1239777359762009
1.6219210476922037 1.1356813439750713
1.569492969087398 1.140303389447398
1.5174074690898562 1.1434485439888917
1.465700001708503 1.1451303441057246
1.4221771094662565 1.1516563156212027
1.3788799976141604 1.1570176974357707
1.3358359569943066 1.161224481313198
1.307934892840214 1.1776698671915906
1.2579283667849732 1.1730371793074974
1.2156842625723205 1.1739726460757054
1.1808683245815343 1.1808683245815341
1.1392397275527557 1.1797172725553877
1.1116573269018724 1.1921065336392478
1.0706089701741732 1.1890317207638308
1.0431338560949068 1.1999882325542073
1.0027486711110014 1.1950293312656057
0.9691534022167497 1.196804780643735
0.9481186720015138 1.2135365605543518
0.9207769854226339 1.221912330372358
0.8875557309616344 1.2216156615061706
0.8546288901630587 1.2205365459905977
0.8276054971367053 1.2269756073814617
0.80061938147209 1.2328457348797732
0.7683829331381471 1.2296697394268177
0.7416548278704783 1.2343209130110415
0.7100000000000001 1.2297560733739028
0.6884296607497987 1.2419599841379418
0.6572601879002472 1.2361266300024976
0.6310467946379701 1.2384990686218311
0.6049521825689268 1.2403357838928504
0.5789870185847583 1.2416416682402105
0.5572292010138465 1.2515572769703633
0.5313943347454123 1.251886600695319
0.5094649670456406 1.2609700422108308
0.48379673188615524 1.2603335757712224
0.45830699205639625 1.2591881118531172
0.4330056454280185 1.2575397055470914
0.40790243257493064 1.2553946015096027
0.3859306502340126 1.2623222778712069
0.3638413096784389 1.268865438638581
0.3416411395353274 1.2750220907015701
0.3169176832355647 1.2710874014215554
0.29468588119046335 1.2764247848686583
0.2723643149712646 1.2813733569612855
0.24995978394327384 1.2859316103164398
0.22574263096700956 1.2802500789158704
0.20336480455230022 1.2839948427736791
0.18092503124808512 1.2873484893640414
0.2242395918654714 1.8262849190200325
0.3804836062942586 3.6200596991405147
0.31724690360147645 3.6261487010539537
0.2532159996911746 3.621157502443162
0.1899795211618866 3.625025211159103
0.12738316296412894 3.6477765186196995
0.06963510168476156 3.9893923036740015
