# .PCD v0.7 - Point Cloud Data file format
VERSION 0.7
FIELDS x y
SIZE 4 4
TYPE F F
COUNT 1 1
WIDTH 168
HEIGHT 1
VIEWPOINT 0 0 0 1 0 0 0
POINTS 168
DATA ascii
1.5001923289555077e-16 -2.45
0.045376256736937355 -2.5996040074066173
0.09597361593187798 -2.7483247743025134
0.15282099222939638 -2.9159982414833556
0.21694263334422947 -3.102424196308053
0.2928432956321321 -3.347214185588265
0.37943832166158203 -3.610114480186832
0.47894651958222967 -3.9007063759503957
0.5984443341282815 -4.258152695588753
0.7446280535914992 -4.701396501232856
1.0418890660015825 -5.908846518073248
1.21163712064106 -6.2333326148926655
1.5260718106023528 -7.179603389386133
1.9750702571391359 -8.554969168814365
4.278502392661396 -8.77222989187987
0.5720280296718291 -1.1226682204773435
0.5727553065987868 -1.0771960632878907
0.6593410835350185 -1.1894828017095782
0.7650000000000002 -1.325018867790191
0.7828578738632826 -1.3028942970672106
0.8107764742768035 -1.297513587119332
0.8332977235729916 -1.2831659689564987
0.8555651423102426 -1.268427486009214
0.883307711980611 -1.2614941482050475
0.9110671410533334 -1.2539763412811686
0.9328132858856748 -1.237885040573304
0.9542752867547704 -1.221416668090419
0.9188077709327628 -1.1346331037271773
0.880619025270559 -1.049480887073
0.977527953195856 -1.12451727453193
0.976930685283933 -1.0849914451969955
1.5276763265399966 -1.638232291626942
1.0906136416206258 -1.1293634865316822
1.4283556979968262 -1.428355697996826
1.2588446505926396 -1.2156521483032452
1.2725554408173565 -1.1866771465087473
1.270777651566344 -1.1442133368736476
1.320741765389851 -1.1481033007333878
1.463144886357248 -1.2277243345012898
1.1734904018000258 -0.9502737904852546
1.2135365605543518 -0.9481186720015138
1.5812983098936397 -1.1915937458410555
1.4076895702124086 -1.0227463389889033
1.3843669548483961 -0.9693441774332678
1.39278312189247 -0.9394440778308546
1.4592867882250378 -0.9476719209261469
1.5095256111584383 -0.9432562903351047
1.5857595062989078 -0.9528204385836002
1.6454482671904336 -0.9499999999999998
1.9154171586352766 -1.0617330683394781
1.8453604690751573 -0.9811955662225117
1.8622036355536888 -0.9488401444556527
1.9234192590802175 -0.9381142541286257
1.8760571191658653 -0.8748198018032478
2.146831825460112 -0.9558311112281304
3.2401770841525903 -1.3753735722822436
3.1895124597097486 -1.2886466813507373
3.174173450090486 -1.2184510284540209
3.1479702796327933 -1.1457674801409903
1.7775749221267156 -0.6120681303794545
1.7974968157978402 -0.5840421193686506
3.069738266641344 -0.9385131721599849
3.047199576124471 -0.8737704179398873
3.023347836284784 -0.8101036111708899
3.007916751455589 -0.7499578763589699
2.991316098890672 -0.6905997368356654
2.963787230223431 -0.6299724231778107
2.944881550342992 -0.5724269861296344
2.944575181506502 -0.5192080512241217
2.9334343715675595 -0.46461036116948573
2.8915827607253854 -0.40638545480339106
2.888309301276247 -0.35463978930897916
2.87416827761431 -0.3020872588435185
2.869040730504227 -0.2510085391132555
2.843057543240499 -0.1988059501707571
2.826121583355444 -0.14811075616753103
2.81828213219385 -0.09841658070105273
2.7995735464378955 -0.04886673802439383
2.79 0.0
2.769578115583204 0.04834316583127533
1.9787938374978096 0.06910100347095192
1.9673001834665105 0.10310183379859934
1.945249898006657 0.13602512380104434
1.9326177142979863 0.16908214093045684
1.9194272580607674 0.20173993410657118
1.905688611151338 0.23398913933788315
1.901314691983815 0.26721235384332565
1.8766078471307617 0.29722548357643863
1.861286653193073 0.3281950557904983
1.8650916485505615 0.3625370912154351
1.8584804413942306 0.39503221255374266
1.831815721796242 0.42290798216646613
1.8338589226616333 0.45723238268337196
1.8352590699492297 0.4917561856947894
1.8071719883640394 0.5181982289359583
1.807415988770137 0.5525825219259723
1.7879862506348885 0.580951949424901
1.7870301078827087 0.6153238119240261
1.7666221270775078 0.6429978694522571
1.7644670060797112 0.6773154246406174
1.7523774851312282 0.7080064615560737
1.7489592215596366 0.74238914412962
1.7266009149445156 0.7687322554132623
1.6947955617585355 0.790296149455108
1.7796122116723507 0.8679748706423732
2.378987419582942 1.2121546343045897
2.3662995488619245 1.2581837882661875
2.3527270122049746 1.3041378784626467
2.3382685902179845 1.3499999999999999
2.3143517118957035 1.3906028022571464
2.306690821545479 1.4413803987143174
2.2895706504910076 1.4868645655910235
2.2715629488008147 1.5321885555098462
2.2690511626805074 1.5888067286923975
1.893099766837377 1.375417490364387
1.7330390568026255 1.3059386002399447
1.694223120254452 1.3236721719501652
1.6708638171324872 1.3530388407571505
1.4478239974948683 1.2148685823075591
1.7358320345123754 1.5089357666781666
1.7166645468527808 1.5456917006889626
1.6894270507402838 1.5754162117443715
1.8990570728940392 1.8338980980117527
1.9304015126392748 1.9304015126392746
1.9103105187622427 1.9781844509312905
1.8959554409737456 2.0331632905012937
1.8802570038683917 2.088236959591478
1.9747376772614271 2.271675836470543
1.9990694661251374 2.3823982181000214
1.9760660278964899 2.440238318974888
1.9578034915355935 2.505874196469376
1.9378443745495955 2.571606342352283
1.9220577749963872 2.6454855716060783
1.8928022399584519 2.7032017461536726
1.828560794349342 2.7109528622549863
1.7428449120480871 2.683745817425357
1.6586472970499313 2.6543905409696134
1.5760165092247664 2.6229319401484634
1.5050000000000003 2.60673646539116
1.4301883797266945 2.5801281360612176
1.3567728164512247 2.551718543362299
1.289333019260313 2.5304585286949646
1.2274392110094168 2.5166233296376674
1.1622002197869234 2.4923464143507874
1.098188936304661 2.4665727356350224
1.0393448017814682 2.4485429101834915
0.9777232088155308 2.419949860419315
0.9245893098268745 2.4086375003627807
0.8687311640471989 2.386819256796207
0.8171760676874634 2.373251624754285
0.7663621460498696 2.3586201604119807
0.7192343936179324 2.352509699669067
0.44101976930719866 1.5380187135013104
0.40893409126198277 1.526162805536728
0.37981737609147825 1.5233642902533144
0.3509236447764296 1.5200173010649671
0.32226312076752683 1.516128781137399
0.28621349306481736 1.472440775171496
0.2604722665003956 1.477211629518312
0.22839431895873713 1.442024977268901
0.20180099639209492 1.4358886996752769
0.1596488398607432 1.300235458650132
0.14006814077865565 1.3326593397934863
0.11766025270933879 1.3448628424238567
0.09626393376689281 1.3766383893585572
0.07170026005283324 1.3681224626137662
0.047114320548376463 1.3491776164757794
0.023037176497214353 1.3197989576064366
