# .PCD v0.7 - Point Cloud Data file format
VERSION 0.7
FIELDS x y
SIZE 4 4
TYPE F F
COUNT 1 1
WIDTH 180
HEIGHT 1
VIEWPOINT 0 0 0 1 0 0 0
POINTS 180
DATA ascii
9.613477373306724e-17 -1.57
0.026876705913416742 -1.5397654505408427
0.053047234987801645 -1.5190740570690255
0.07745721523955706 -1.4779717114367692
0.09975175745409907 -1.4265165918715486
0.11155935071700271 -1.2751292135574344
0.13379643298259644 -1.27298802607139
0.1608675332947947 -1.3101609201665452
0.18092503124808512 -1.2873484893640414
0.20492914920270253 -1.2938717261796304
0.22400614919034023 -1.2704020013857484
0.2442355140819775 -1.25648279481301
0.2661269642467318 -1.2520289289392712
0.2879373495601474 -1.2471936829251011
0.30724080741157794 -1.2322755723705154
0.32611199682917613 -1.217066541124226
0.34730306832941893 -1.2111897368822817
0.3625409138561936 -1.185817897394164
0.3770007331374359 -1.1602889498800872
0.384170422259445 -1.1157119192071936
0.4001635676910325 -1.0994403663195127
0.41570682147254817 -1.082953294736754
0.4382897142966172 -1.084805109843141
0.4571554203324502 -1.0769906785393553
0.4758818723986864 -1.068848185441843
0.4902371836192113 -1.0513170329625139
0.5172779532111114 -1.0605769746330171
0.5357087896926652 -1.0513876985422739
0.5539764440873511 -1.0418781595735336
0.5817715442956045 -1.049543648567275
0.5300000000000001 -0.9179869280115049
0.5407899786555571 -0.9000256657372179
0.5458168421602011 -0.8734895390411189
0.560978206065478 -0.8638306849837867
0.5759686905748692 -0.853908699731693
0.5907837294415774 -0.8437266056176616
0.6054188098612473 -0.8332875042061959
0.6258876240781303 -0.8305809304491846
0.6526011638451978 -0.8352913988231253
0.6733728184233262 -0.8315461787589588
0.7006384945583279 -0.8349884429996861
0.7216649318895582 -0.8301805382450491
0.7494262791219213 -0.8323222045346816
0.7638381632699983 -0.819116145813471
0.791910542323257 -0.8200473723860622
0.5161879502661797 -0.5161879502661796
0.46037747221673675 -0.44458135709375823
0.4534392950038857 -0.4228389832387491
0.4607497917959844 -0.4148609759424921
0.46791993973811863 -0.4067565979741145
0.49026844359614596 -0.4113840701993851
1.6164635998304993 -1.308986413383662
1.6390623675019815 -1.2805758686773694
1.669148215998842 -1.2577933983877807
1.6827553482998907 -1.2225933247683443
0.9911739735896801 -0.6940274879847657
0.99484508706605 -0.6710314841648961
1.7108879586086652 -1.111063631430655
1.704576673274416 -1.0651377211087418
1.7143346014042247 -1.0300761498201083
1.7493713156445663 -1.0099999999999998
1.1544980134240024 -0.6399486987251649
1.1743202985023729 -0.6243971785052348
1.3186896557987844 -0.6719059396145292
1.554913700097559 -0.7583820839451039
1.468218614999373 -0.6846415840199331
1.3429118227346233 -0.5979028653214262
1.3531421345750874 -0.5743747588792324
1.3722321047588453 -0.5544177582555497
1.3910348354808306 -0.5339682448224974
1.4001420049710036 -0.5096100135552464
1.4277330491549685 -0.4916079132303066
1.4551164699315848 -0.4727960013936695
1.4727093241830749 -0.45025242527301457
1.4899556287043942 -0.4272379015163487
1.5068442890109466 -0.40375771035993235
1.5233642902533144 -0.37981737609147836
1.549248403008524 -0.3576721764067453
1.5748176371814273 -0.33473782221659254
1.600052309019692 -0.311018662463768
1.6150847149400211 -0.2847830113737657
1.5803013449522205 -0.2502951440643694
1.574526229299097 -0.22128523052650406
1.5979993041425284 -0.19620964288228745
1.6210706894502853 -0.17038139512627512
1.6337593048704626 -0.1429354181061594
1.6459806829287098 -0.11509818167780675
1.6677113230401381 -0.0874010469257162
2.8282760404640412 -0.09876557566807774
2.8895598390019708 -0.05043745460374935
2.95 0.0
3.0195400393723015 0.052706267440596206
2.9581968479765233 0.10330251023940287
2.9359708321784472 0.15386771135425484
2.89293574575349 0.20229377385796338
2.869040730504227 0.2510085391132555
2.8841134965679927 0.303132543476195
2.977638454923966 0.3656080302154424
3.0698310130988684 0.4314366129762029
3.160602689904441 0.5005902881287388
3.397586747892118 0.5990862129509097
3.435695142066824 0.6678314838179068
3.394172174546306 0.7214535671376249
3.351833022861209 0.7738316269428955
3.308708426601148 0.824953663994867
3.264829292857051 0.8748083724465201
3.201001447474602 0.9178723948706072
3.1749317897972777 0.9706740596794858
3.1384865037740064 1.0197560814373263
3.0918457422097663 1.0646078650749025
3.063397943762061 1.11498566724168
3.0341363861159056 1.164695836022226
2.9855320117050557 1.2062332307992367
2.9548205795823335 1.2542469224505686
2.9142100098798966 1.2974898914118025
2.87299568490618 1.3396998897180172
2.8491771267683594 1.3896365353213753
2.8155806164352426 1.4346099791769678
2.772455441577031 1.4741407071476973
2.7463058804177027 1.5223022075734984
2.7193197678831376 1.5699999999999998
2.6743619781905905 1.606918793719369
2.6374295790464846 1.6480489117652672
2.608265466310269 1.6938273988967338
2.545145347743978 1.7167222136551925
2.5475628577387646 1.783822717051753
1.5290421193686505 1.1109141268327742
1.4934484037884377 1.1253940932943303
1.5602612921413093 1.2190097211448034
1.8262930094238814 1.4789029189671181
1.8002044413295983 1.5105508827633674
1.7660204177212864 1.535178127837787
1.7389588916171024 1.5657656188797282
1.7186811988050505 1.6026961461468714
1.6904485307958304 1.6324471705786436
1.661700935788387 1.6617009357883865
1.6393937542832338 1.6976419287992164
1.6026961461468714 1.7186811988050505
1.5791482310069054 1.7538217881266502
1.5482993084175973 1.7811146093257415
1.5298345110539635 1.8231857746231677
1.51036893851961 1.8651503074967297
1.47758754078158 1.8912258086561324
1.4563923560279568 1.9326979343144486
1.4283181630707098 1.9659112963311225
1.3995265046965524 1.99873098806514
1.5489643426139685 2.2964340759774657
1.759184083098538 2.7089059344637194
1.398986857575661 2.238846973852965
1.3287982332679402 2.21149163581145
1.2550000000000001 2.173723763498941
1.2508088202355498 2.256518844419641
1.4084146883576727 2.6488427785767805
1.171295489328031 2.298796832405989
1.0915441555048029 2.237997175284926
1.0945812979084115 2.3473371684249233
0.8500795840284228 1.9093100064730357
0.8127207472576894 1.914650095181076
0.7641974505684609 1.8914550633162461
0.7274869375769593 1.8951682657893194
0.7182423009839045 1.9733545036504077
0.6934601689937439 2.0139545660265443
0.6612963679623876 2.0352609448716286
0.619828014012202 2.027366082641635
1.0336400843137468 3.604731359768696
0.9783359904875284 3.651199623372678
0.9265608601467272 3.7162326316370664
0.8728100908541967 3.780555851366713
0.8046182434647282 3.785431214839828
0.7212580025233397 3.7105507534321696
0.6424982573676425 3.64378868614517
0.5678571080960383 3.58530867636035
0.49545623941783307 3.5253543247199906
0.42654270191801624 3.473911530744627
0.3585326290080514 3.4112101011131775
0.2928432956321321 3.347214185588265
0.23019636335561325 3.2919613658574196
0.1706152173519973 3.2555322832999103
0.11167838944800346 3.1980506464611067
0.054975080277443335 3.1495202397426323
