# .PCD v0.7 - Point Cloud Data file format
VERSION 0.7
FIELDS x y
SIZE 4 4
TYPE F F
COUNT 1 1
WIDTH 180
HEIGHT 1
VIEWPOINT 0 0 0 1 0 0 0
POINTS 180
DATA ascii
5.204748896376251e-17 -0.85
0.015009069536063895 -0.8598690178344964
0.030013567164150927 -0.8594761112364223
0.04500892236893181 -0.8588213998889335
0.060688132157388955 -0.8678807237260471
0.07844016847289252 -0.896575228282571
0.09721147083891772 -0.9249053626924942
0.11699456966894159 -0.952844305575669
0.13917310096006547 -0.9902680687415704
0.16112749899143786 -1.0173189908129918
0.18580355010361554 -1.0537442957230627
0.21179798486796486 -1.0896061736269071
0.22870285989953518 -1.0759623608071864
0.24744615977825168 -1.0718070712637588
0.2588564282916444 -1.0382164271153163
0.2769363782596972 -1.0335406341293032
0.29493197072418914 -1.0285500146540012
0.3128377240533284 -1.023246088880448
0.32755801403744433 -1.0081199072728628
0.34184656218001463 -0.9927945043792826
0.3557009490586956 -0.9772803256173447
0.3727026675271122 -0.9709236435570898
0.38584479121838955 -0.954999370203791
0.40245306234395195 -0.9481199990560136
0.4189387423680744 -0.9409518213718789
0.43107062697551346 -0.924433942777383
0.447138569724859 -0.9167699272251504
0.45853040473694234 -0.8999165894302514
0.47416627841374975 -0.8917770687875162
0.48965771644880046 -0.8833659042107898
0.5000000000000001 -0.8660254037844386
0.5150380749100544 -0.8571673007021122
0.5299192642332049 -0.8480480961564261
0.5446390350150272 -0.8386705679454239
0.5591929034707468 -0.8290375725550417
0.573576436351046 -0.8191520442889918
0.5877852522924731 -0.8090169943749475
0.6018150231520483 -0.7986355100472928
0.6218180900789149 -0.7958908611427892
0.6356135949603359 -0.7849174210715405
0.6492154857834047 -0.7737048875501678
0.6363772581207922 -0.7320682928160888
0.5419957911506752 -0.6019473086366893
0.4978588028456239 -0.5338882021819944
0.507100610435068 -0.5251180542472152
0.5232590180780452 -0.5232590180780451
0.7409199943488107 -0.7154981215727672
0.7532943126677456 -0.7024583108643735
0.7728706184964901 -0.6958958306132126
0.7924450592339106 -0.6888619804400327
0.8120071097061168 -0.6813548662677317
0.823774719144389 -0.6670796145128278
0.8431715063591925 -0.6587577785984544
0.8545399957506034 -0.6439420747726917
0.8656481839811938 -0.6289302199529463
0.8846842078321112 -0.6194625512591297
0.9036509540849955 -0.609520264783114
0.9225376247399665 -0.5991029385165297
0.9413333867336329 -0.5882103832988574
0.9514557037793447 -0.5716922631501602
0.9699484522385714 -0.5599999999999999
0.997066466138911 -0.5526829670808242
1.015389731787766 -0.5398922972037744
1.0335675680585066 -0.5266289796978741
1.0515890341700254 -0.5128942417432205
1.0785062665736134 -0.5029157314714323
0.7765136389962107 -0.34572614661443013
0.7364038827619523 -0.312584902791419
0.7232034065620943 -0.2921931428644114
0.7095211241378734 -0.2723596416544282
0.7047694655894313 -0.25651510749425155
0.6902285601875012 -0.2376647527537244
0.675250126569559 -0.21940206600621265
0.6598502816144944 -0.20173647625868832
0.66327057019744 -0.1901897755137294
0.6568295618765665 -0.1759969506697141
0.6403951793421577 -0.1596684510957807
0.6333405421104029 -0.14621818532351225
0.6260144644696356 -0.13306348212336597
0.6184251255720283 -0.12020966708722322
0.610580806867569 -0.1076618701534968
0.6123667711689854 -0.09698936832494313
0.5941608412449422 -0.08350386057603926
0.5955276909847932 -0.07312160604308848
0.5768226993135984 -0.060626508695239
0.5678309779122949 -0.04967877336616515
0.5686115086480997 -0.03976119003415142
0.5592325394625614 -0.029308135496048545
0.5496649548605027 -0.019194723186375533
0.5499162323360153 -0.009598823540505933
0.55 0.0
0.5399177553844513 0.009424299476133097
0.5296771383201208 0.018496733252325516
0.5292736534199242 0.02773805680876023
0.5087576656325103 0.0355758016095039
0.5180212430077077 0.04532098622878225
0.5370418234988676 0.05644537016453287
0.5459003834027272 0.06702813887283111
0.5644527991826951 0.07932866754723729
0.5926130043570826 0.09386067902413851
0.6204288843976911 0.10939835193016612
0.6380576692409816 0.12402584699475412
0.6651403684989879 0.14137994975607635
0.691802745997517 0.15971524858414413
0.7180188374442373 0.1790222027437541
0.7534221445054733 0.20187885517996618
0.7978472076288047 0.2287790053281093
0.8511112328071017 0.2602108172032357
0.8939931253174442 0.2904759747124505
3.25258390006165 1.119954451332619
3.1949549106720885 1.1628684873072737
3.164837645825514 1.214867348958568
3.1246095898900736 1.2624242198116236
3.102101356134724 1.3167639030088525
3.0695127376791387 1.3666351207346885
3.0270680087024107 1.411544994213936
2.992984174176226 1.4597759188076278
2.967051725547265 1.5117883641326908
3.0814870990776555 1.6384557541227591
3.209854325201582 1.779251306304057
3.8191720306893746 2.2049999999999996
4.594416731763323 2.7606040815178905
4.528576833475315 2.829768871005314
4.478500832828565 2.908372446980244
4.4270606374439225 2.9860901045337878
4.374271916503216 3.0628981701145856
4.740839587037192 3.444421578433893
4.488331566465786 3.382200430114511
4.176456994115626 3.263005819225989
4.103330676492806 3.322811664743142
4.060035548530584 3.406774331338658
4.022602062587375 3.4967946245194037
2.4821037170944966 2.2348962252385864
2.4354078263918377 2.27105453900812
2.4097883311344814 2.327105541037641
2.3758787847867997 2.3758787847867993
2.340998708446821 2.4241751271412544
2.31197444061187 2.479289048488988
2.2750440616201177 2.52669240662314
2.132191844219149 2.4528061357240087
1.9347907051564834 2.305793773788124
1.8879611731495125 2.3314378843709123
0.7449503851440465 0.9534930118641335
0.7281961780139784 0.9663489671572243
0.7112201552738925 0.9789105631936864
0.6882917236212552 0.9829824531467901
0.7940539229284604 1.1772333530281591
0.980350263027049 1.509607022301763
1.096932876962734 1.7554595590438018
1.0249257690710083 1.7057629283972033
0.9600000000000002 1.662768775266122
0.901745893658187 1.6267926552792762
0.8450488130146036 1.5893056671460684
0.7990232795416025 1.5681714825715274
0.7452309495414317 1.527949878708584
0.7015463144895611 1.504470926480839
0.6507786289212807 1.4616727322281615
0.6056332491583742 1.4267825228512827
0.5694020219921865 1.4093194589415168
0.5339682448224973 1.3910348354808306
0.4959292078222198 1.362554300139567
0.4623067793291626 1.3426363773510297
0.42644345223742747 1.3124579924873119
0.39762551842292204 1.3005744681097282
0.3665976832366089 1.2784780555979642
0.33646475863327696 1.255703574175789
0.30724080741157794 1.2322755723705154
0.2811888179298314 1.217962580981544
0.2536522627976663 1.193340072895243
0.23087888440561935 1.1877688919716733
0.2049048496469779 1.1620731485544054
0.18302832409707018 1.1555953584963112
0.16004906610407527 1.1388082790528058
0.13771235804781665 1.1215771513546937
0.11602659422709535 1.1039193038587833
0.09499975959494762 1.0858522209200028
0.0760345563810965 1.0873448147832085
0.056522832742379486 1.0785198975349397
0.03699346650465115 1.0593542766402415
0.01832502675914778 1.049840079914211
