# .PCD v0.7 - Point Cloud Data file format
VERSION 0.7
FIELDS x y
SIZE 4 4
TYPE F F
COUNT 1 1
WIDTH 141
HEIGHT 1
VIEWPOINT 0 0 0 1 0 0 0
POINTS 141
DATA ascii
2.1615016004950782e-16 -3.53
0.06108342253049259 -3.4994669330473696
0.06665803870177706 -1.9088364796064727
0.09996167642402297 -1.9073824113812359
0.37943832166158203 -3.610114480186832
0.43629224939042804 -3.553315222875933
0.4286531509570016 -3.0500256517240367
0.44583822536465817 -2.814911770696143
0.4584311890406963 -2.5998924679522295
0.4846548482564241 -2.4933330459570664
0.4927507072380894 -2.3182098137391196
0.4926428090130647 -2.1338704418796652
0.500778323891312 -2.0085121533913126
0.5202262806560667 -1.9415109108410271
0.5567874587503383 -1.9417486257954042
0.5905908435399283 -1.9317356070453315
0.6303946685248928 -1.9401552932421133
0.3027783836451558 -0.8793322753073646
0.3009777261265886 -0.8269295062915993
0.33328219307712914 -0.8682297966423976
0.7866738461734156 -1.9470860945902535
0.7502037666994055 -1.7673693186286854
0.5450271017215725 -1.2241509132410853
0.5536299228803163 -1.1872632010180115
0.5654987793579099 -1.1594443197259254
0.5674881246744335 -1.1137581552354598
0.5774500222266458 -1.0860255392164802
0.5817715442956045 -1.049543648567275
0.5900000000000001 -1.0219099764656374
0.597444166895663 -0.9943140688144501
0.6200055391528497 -0.9922162725030185
0.6535668420180326 -1.0064046815345087
0.6766234131996036 -1.0031354627916005
0.7054990167117866 -1.00755701447546
0.7406094178885162 -1.0193614129124338
0.7763413798661423 -1.0302398079610078
0.812673147429869 -1.040174194760873
0.8495825279172807 -1.0491470479669107
0.8870469013674243 -1.0571413315041895
0.9250432308766153 -1.0641405081141084
0.9635480731567558 -1.0701285486874477
1.0161775564931228 -1.089717015412564
1.062827306802266 -1.1005898945181363
1.1030865786510142 -1.103086578651014
1.1581370785452285 -1.1183999764389856
1.2213606817040146 -1.1389372613043725
1.270777651566344 -1.1442133368736476
1.3433830527965342 -1.167785071603103
1.4095217753389195 -1.1827292018232323
1.4765773267682445 -1.195708742994691
1.5681413996773765 -1.22516633589806
1.653175505797896 -1.2457570979247399
1.7474767078498865 -1.269616144951742
1.8430920996502316 -1.2905469817898536
1.964819046955449 -1.32528718122567
2.105063125543014 -1.3670439778877175
6.614775150020122 -4.133370261018998
6.471613120300948 -3.888537465570909
6.027536810339694 -3.4799999999999995
4.722946418552738 -2.6179719493302205
4.759087525509616 -2.5304517234159514
4.802525165375303 -2.4470087935961566
2.462695686859718 -1.2011369422020721
2.4560941028693213 -1.1452954893172955
9.543921464511095 -2.9178696131329125
9.276175365804777 -2.659900483634042
9.012087959277007 -2.4147816908065187
8.771473365535007 -2.186973936220996
8.525738066870808 -1.9683217255088186
8.392506414296053 -1.783882307216375
8.471442593153341 -1.646681630099582
3.7828463444793776 0.5991440011040843
3.899838701928344 0.6876467835610441
3.7988971999424597 0.7384308121072284
2.854947236936807 0.8186429467764875
3.014849156655637 0.9795838721685832
5.4556421812080576 1.878528251217794
5.835491175080492 2.123945090052403
7.748717539926775 2.9744539812259925
7.639994961630329 3.086758329747115
4.749805043814592 2.0161726230046524
4.732165470588672 2.106895811132645
5.59191904601613 2.6075546749401157
8.574495201694052 4.182060740367798
1.8711137007955727 0.9533800494530482
1.57164671528889 0.8356593817588857
1.5393306845653365 0.8532649316335532
1.5155444566227678 0.8749999999999999
1.4914711032216754 0.8961662503434942
1.467123206350617 0.9167603271234445
1.4509000825455836 0.9422255305759967
1.4342350005202222 0.9674037230043919
1.408941516177066 0.9865514705237992
1.3915092303249097 1.0109906339430539
1.3496940119799248 1.0170673891269615
1.300217743451091 1.015841434287336
1.2589764575602929 1.0194990335007368
1.2409919978527444 1.0413159276921937
1.2452708073675738 1.0824973978343368
1.2559147550567962 1.1308307247464704
1.2506148297687814 1.1662171957068723
1.2588446505926396 1.2156521483032452
5.071006104350681 5.251180542472153
3.4031718167118674 3.6494549710796607
1.6401475724762684 1.8867739505569299
5.084449992620526 6.059411545071116
3.7885087541200213 4.6784186879709635
3.552366712629048 4.546822048310785
4.585830476418608 6.085602586560372
3.456177283479742 4.757019926924691
4.221522571543699 6.02895904596698
4.070924337267037 6.035393528200704
3.915954661758046 6.030041383527599
2.882760797428635 4.613381643090958
3.6155672858685817 6.017314450928827
3.470000000000001 6.010216302264004
3.3257939948898727 5.999891190976255
3.18301719568834 5.986384679583525
1.8840605739191196 3.6976770753817267
2.9239355490831467 5.994956288815444
1.9524963692420314 4.187141976109323
2.6641250121464926 5.983722747559035
2.5475669577500644 6.00169164450991
2.4087203956643153 5.961792184864442
1.4298881186857477 3.7249859017238354
1.5527714506985364 4.266204498368023
2.152005500961806 6.249877784711484
1.4276585140122573 4.39388110528361
1.3653758610551807 4.465943210347375
0.8188218378116692 3.5467070358182564
1.3077645352437055 6.152548408615638
0.7155337326620435 3.68110193792874
0.6976977140794299 4.405089999054314
0.1475234870176694 1.0496841528660645
0.1450245186521255 1.181129920453173
0.12020773275780147 1.1437001796735142
0.10110066158728369 1.1555858497864246
0.08301020375550902 1.1871012198091908
0.061756428366673874 1.178382851010397
0.03978542624085123 1.139305542801769
0.020244791467248974 1.1598233263814137
