# .PCD v0.7 - Point Cloud Data file format
VERSION 0.7
FIELDS x y
SIZE 4 4
TYPE F F
COUNT 1 1
WIDTH 168
HEIGHT 1
VIEWPOINT 0 0 0 1 0 0 0
POINTS 168
DATA ascii
3.490243377569956e-17 -0.57
0.00994787166925165 -0.569913186239143
0.020241708087450624 -0.5796466796710755
0.02983149505847806 -0.569218834810107
0.04045875477159263 -0.578587149150698
0.050550330793641844 -0.5777929248932123
0.06167179332791554 -0.5867679182672813
0.07068421917498553 -0.5756767679519668
0.08072039855683796 -0.5743554798701108
0.09073198972333393 -0.5728592375451799
0.10245242482348894 -0.5810365742772027
0.11257730727216149 -0.5791600382341218
0.12266789758247794 -0.5771070844329453
0.13497063260631909 -0.5846220388711412
0.1451531373598006 -0.5821774357655979
0.15787961751253765 -0.5892147540363316
0.1681387870483695 -0.5863696345223746
0.17834673988086944 -0.5833459011374516
0.1915905365124674 -0.5896550401029952
0.20185225576343718 -0.5862215168715764
0.21205248886191466 -0.5826094248872632
0.2221881287180861 -0.578819864428265
0.23225608791786556 -0.5748539898314081
0.24616061094824243 -0.5799180576750375
0.25624408513775426 -0.5755336383148385
0.27047568751404766 -0.580036983703456
0.2805575339450096 -0.5752281896314669
0.29509382483070545 -0.579154240722439
0.309851231438688 -0.5827454112868917
0.32482244556504586 -0.5859952037833952
0.3350000000000001 -0.5802370205355739
0.350225890938837 -0.5828737644774363
0.36564429232091133 -0.5851531863479339
0.381247324510519 -0.5870693975617968
0.4026188904989377 -0.59690705223963
0.4072392698092427 -0.5815979514451841
0.42320538165058064 -0.5824922359499621
0.44534311713251573 -0.5909902774349967
0.4679027212475003 -0.5988881727411086
0.48457670110837486 -0.5984023903218675
0.5013743355555007 -0.5975146656328029
0.5182866329025009 -0.5962205683759898
0.5353044850870866 -0.5945158603819154
0.5592386552512487 -0.5997100353277197
0.5904596148901478 -0.6114388302878534
0.6010407640085654 -0.6010407640085653
0.633019024298013 -0.6112993660039175
0.6655318684734451 -0.6206185076568737
0.6911246876939767 -0.6222914639137382
0.7169741012116334 -0.6232560775409819
0.7507235542565984 -0.6299318574928084
0.7926888806861102 -0.6419067988708342
0.8195311837509908 -0.6402879343386847
0.8625263508510763 -0.6499602250042121
0.8980088637561917 -0.6524416300446453
0.9420248509323405 -0.6596129018037029
0.99484508706605 -0.6710314841648961
1.0483382099317802 -0.6807987937687837
1.1024625250033537 -0.6888950435031664
1.1400325099338096 -0.685000639630372
1.2037753112603697 -0.6949999999999998
1.2681985753521239 -0.7029739493571887
1.342080341145569 -0.713596775434554
1.416700373459505 -0.7218448945858794
1.500986057319609 -0.7320798151377592
1.5860386273141374 -0.7395819580462241
1.6900590966388116 -0.7524627896902303
1.804189512766783 -0.7658330118389765
1.9378142560445857 -0.782927780239256
2.08188435108876 -0.7991605274860196
2.25526228988618 -0.8208483439816049
2.429982739290244 -0.8367101569548927
2.6534476804634783 -0.8621574143061033
2.9167295056872584 -0.8917336994043469
3.239451915312135 -0.9288978891032872
3.6222218485840063 -0.9705714191344528
4.114053879410225 -1.0257488373425911
4.871850323926176 -1.1247552717193248
7.365451433525557 -1.5655750318577277
7.381836419526433 -1.434883645231617
7.3860581475915605 -1.3023613325019774
7.407662554463533 -1.1732584878017316
7.427010515561777 -1.0437982572004907
9.806355978216262 -1.2040691128428571
9.835821545192223 -1.0337865017170929
9.71289830639452 -0.8497684917896671
9.656420006515098 -0.6752426658431329
9.876446098722736 -0.5176026072427145
4.018015632289809 0.7084845648810758
3.111758171529095 0.604864515343647
2.748594758061994 0.5842318511979037
2.426181461315236 0.5601281253162238
2.212274255909272 0.5515819219672424
1.9994664604183712 0.5357554233622179
1.8648476901203386 0.5347364702849784
1.7309116082930944 0.5291927855481535
1.635817208027664 0.5315092303249095
1.5317400924708935 0.5274204102205939
1.447126636010299 0.5267110207215299
1.3816990312158586 0.5303845653270444
1.3073292349391703 0.528195296716436
1.2610916492298434 0.5353016460303051
1.1876090949353812 0.5287576359985402
1.141947811666179 0.5324990097932814
1.087540796021992 0.5304290876147837
1.051387698542274 0.5357087896926651
1.0065602558591766 0.5351975815759155
0.9620816778533354 0.5332905822709708
0.9266471820493495 0.5349999999999999
0.8914539927301969 0.5356395979064563
0.8565285771179902 0.5352184568755369
0.8302838622659698 0.5391926446648767
0.7958760696528401 0.5368251873319169
0.7781944420745421 0.5448976145334937
0.7362054648812022 0.5348845795861505
0.7187719590425635 0.5416335208368435
0.6934494631739153 0.5417820982865793
0.6683455268529949 0.5412155363028602
0.6511377766511313 0.5463694682335584
0.6264089515849007 0.544528994062121
0.6019473086366893 0.5419957911506752
0.5850829612953364 0.5455986880499988
0.5682784422675344 0.5487801126626078
0.5515432893255071 0.551543289325507
0.527940361548838 0.5466982482573748
0.5114987700468738 0.5485152762143779
0.4951566487055551 0.5499271708532717
0.47892309116307036 0.5509379935626235
0.45637920287744294 0.5438915546144744
0.4468174776453846 0.5517736326344492
0.43096303272796077 0.5516075275247053
0.4152523659749133 0.5510585019326321
0.39969397155888176 0.5501315561749643
0.3842962123552009 0.5488318696736245
0.37465924532540035 0.555455173611878
0.3649081534600682 0.561909280523434
0.34974671439391525 0.5597117434632413
0.33477474869153534 0.557158745456373
0.33000000000000007 0.5715767664977295
0.31027815695765576 0.5597566125692133
0.29107236892725236 0.5474275075725347
0.28147410983851906 0.552424044996788
0.271790111009228 0.5572523087054836
0.26202332227923364 0.561910827962723
0.24810935227623823 0.5572627291619865
0.23834598837845697 0.5615079606059886
0.2247639560495473 0.5563103127400724
0.2150207697271801 0.5601482558983211
0.20521208599540128 0.563815572471545
0.1920852111297225 0.5578559596035968
0.17922985673746952 0.551612779451189
0.16957558873918732 0.5546567584585606
0.1598696663738595 0.557531783644225
0.14752685570843682 0.5505777209847689
0.13789548049181055 0.553068563977318
0.12822210097600312 0.555390936927584
0.11850966376612275 0.5575441324182692
0.10876112736463059 0.5595274945651684
0.09897946127015032 0.5613404192169585
0.08916764507293162 0.5629823541392285
0.0793286675472373 0.5644527991826951
0.06946552574093406 0.5657513064355535
0.059581224062562464 0.5668774803599157
0.04967877336616526 0.5678309779122949
0.03906362529671013 0.5586358681455016
0.02983149505847806 0.569218834810107
0.019892713120425613 0.5696527714008845
0.00994787166925165 0.569913186239143
