# .PCD v0.7 - Point Cloud Data file format
VERSION 0.7
FIELDS x y
SIZE 4 4
TYPE F F
COUNT 1 1
WIDTH 147
HEIGHT 1
VIEWPOINT 0 0 0 1 0 0 0
POINTS 147
DATA ascii
0.07155486639286275 -4.099375550141204
0.05618818969102674 -1.6090192315007443
0.07588713655226875 -1.448012825394132
0.09765906324177533 -1.3965896703637537
0.1220180398467217 -1.3946725773284436
0.14633984857471483 -1.3923306535155826
0.17183577420125795 -1.399490073814264
0.19762580336329294 -1.4061806576130298
0.2237012850075302 -1.412394327051047
0.2483168940637105 -1.4082750868074574
0.27667304329599013 -1.4233594159991128
0.3035510685939285 -1.4280954970713562
0.3306780498854818 -1.4323239952342959
0.35804440548750815 -1.4360376748884747
0.3830521867517307 -1.429570222907821
0.4134560337254988 -1.4418925439074783
0.43855755708410515 -1.434457133944553
0.4666156615061707 -1.436095339605682
0.4948635947748783 -1.4371882349109615
0.5232908192882733 -1.4377297098024397
0.5518866422997623 -1.4377138568056906
0.5881323516629822 -1.455678651669856
0.6212624942979452 -1.4636027169893802
0.6467112624905226 -1.4525372776517353
0.6804154014025261 -1.4591555371290066
0.718928680734087 -1.4740222359306339
0.7536242295676477 -1.4790708301526905
0.7840175098524377 -1.474522480074408
0.8241763544187731 -1.4868535021369726
0.8650000000000002 -1.4982239485470787
0.9013166310925952 -1.5000427762286963
0.9432562903351047 -1.5095256111584385
0.9857966533771992 -1.5179937279812175
1.0233230133514666 -1.5171387577757265
1.072587935976456 -1.5318143228204149
1.1109141268327742 -1.5290421193686505
1.1675211449149736 -1.549352889491748
1.2128531063915469 -1.5523811846052422
1.258640782099675 -1.5542919229139416
1.3177145998574056 -1.5703911083939048
1.3711633705901602 -1.5773430226655931
1.425248191544368 -1.5828984782668496
1.4935764085368717 -1.6016646065459832
1.5560347498281542 -1.6113211527585787
1.6263455967290592 -1.626345596729059
3.179481917496838 -3.0703899974287676
3.832293396484453 -3.573671406727492
5.573586191080457 -5.018479547691436
5.652774755868562 -4.9138821271388995
5.7300124345299555 -4.808051320455314
5.8130517916981415 -4.707316525052785
5.89432043697828 -4.6051478354359245
5.965807260053277 -4.4955582229458
1.9497309564436234 -1.4165624580248604
1.9659649062935802 -1.3765834472425105
6.2094914184372625 -4.188354846995893
6.29002925959068 -4.084792762612702
6.377321683096323 -3.9849928670337005
4.34583821455971 -2.6112430397939748
4.382088543149259 -2.5299999999999994
4.416829521053948 -2.448288582244002
4.4677148198661705 -2.3755261076966074
5.069827122631814 -2.583205943518021
9.506878172829975 -2.726053449030122
9.147317574957478 -2.4510163571208716
8.849097023637087 -2.2063276878689697
8.525738066870808 -1.9683217255088186
8.265347226200657 -1.756853787410066
7.9806290014295085 -1.5512771324113095
7.917854334218152 -1.3961313484421196
8.010152442226566 -1.2686835114762722
3.08158762265683 0.4880755309255203
3.210473274819798 0.5660930591941928
3.1019418996946184 0.6029564253898816
3.1398537983555164 0.6673965275250074
3.1146492813459488 0.7765692848749334
2.325975695974319 0.8008976599646055
4.050075195587265 1.474106817733632
4.574544089836289 1.7560029527719714
6.2677628568714825 2.532340571491565
4.6393444614003 1.9692848875859394
5.015364562457879 2.232984170486143
4.1146373531463905 1.9186869083027756
6.7409553472437524 3.2877836009180808
3.938248836912586 2.0066380088487965
3.9114578363650465 2.079759023141496
1.2419599841379418 0.6884296607497986
0.8920061658979719 0.5149999999999999
0.8828823197231758 0.5304892171573558
0.8650090580795545 0.540517649517869
0.8470572736248783 0.5500854253651772
0.8373279482805922 0.5647848325054543
0.8191520442889918 0.573576436351046
0.800926824431198 0.5819073997695484
0.7906491549468199 0.5957968729205277
0.7801306460706546 0.6095048605724017
0.7693745018424011 0.6230271871393391
0.7583839986877883 0.6363597335896739
0.7396153886183165 0.6429378484106971
0.7282819289678464 0.6557479942316811
0.7094130905705953 0.6615384092606235
0.6977596063284917 0.6738186193452274
0.6788225099390857 0.6788225099390855
0.6529788682314575 0.676179412318332
0.6274384912574986 0.6728454054896369
0.6022175457229725 0.6688303429296548
0.5838925358015515 0.671691526398267
0.5592252204272893 0.6664586655135109
0.5475087402133586 0.6761169864675646
0.5417820982865793 0.6934494631739153
0.5416335208368435 0.7187719590425635
0.5407624321090753 0.7442956348249516
0.5391618501699833 0.7700029216316523
0.5424171163666244 0.8041664453783904
0.5391926446648769 0.8302838622659697
0.5352184568755369 0.8565285771179904
0.530489217157356 0.8828823197231757
0.7050000000000001 1.2210958193360584
2.4337442936366123 4.3905909298397665
0.8450488130146036 1.5893056671460684
2.1337553487758703 4.187730663685329
2.8888658573400203 5.92305276511151
2.7554710665493602 5.909126771478957
1.7774391302412478 3.992193649898166
2.492864599761566 5.87282096502657
1.7943655824622193 4.441210663374911
2.243383364153579 5.844213469872483
2.1171046871858903 5.816697322664773
2.0054998314560857 5.824394425691791
1.8850036656871794 5.801444749400436
1.7717725306197847 5.795206821135994
1.653824134901995 5.767570175629913
0.9084548483098478 3.3903996502746296
1.429758402994036 5.734447742291139
1.3249617100853657 5.7390396815850355
1.214204274375714 5.712381988285425
1.125773072721615 5.791600382341218
1.0366796206715745 5.879302285482882
0.935478100940581 5.906376276758924
0.3924681447073846 2.7925559538512283
0.3887632054624205 3.166222223735817
0.4264761301320261 4.057649333102555
0.510732652501278 5.837700930817629
0.4080753714031326 5.835749694019971
0.30407190577150445 5.802037596924073
0.20206808590748127 5.7864728884405645
0.10104943327187203 5.7891181549555055
