# .PCD v0.7 - Point Cloud Data file format
VERSION 0.7
FIELDS x y
SIZE 4 4
TYPE F F
COUNT 1 1
WIDTH 176
HEIGHT 1
VIEWPOINT 0 0 0 1 0 0 0
POINTS 176
DATA ascii
0.47992453935958157 -6.863240665787591
0.5996315101038895 -6.853819522871209
0.7191558272814558 -6.84231064013372
0.8384610826274147 -6.828717523292295
0.9575109346052504 -6.813044312942004
1.077833464127191 -6.805172666700499
1.1981724259018198 -6.795173495784236
1.3184901580519255 -6.783043837623358
1.0936154937014135 -5.145056379859818
1.0482719132424116 -4.540564501899197
0.9942989909146343 -3.987915434994346
0.9602186573303519 -3.5835848155324435
0.9344106362196272 -3.258677149230901
0.9121997187349388 -2.9836708386046706
0.8899689437998486 -2.739042766930042
0.8692669724006085 -2.5245345968501756
0.8550503583141721 -2.349231551964771
0.8457483609269083 -2.203249806533396
0.8391187692516434 -2.076891834229604
0.8244426811123675 -1.942265240784649
0.8134732861516007 -1.8270909152852017
0.802974697307329 -1.7219847953696348
0.7934517756882302 -1.6268172238014924
0.7854035645494161 -1.5414412868458762
0.7793227942245788 -1.4656930041458185
0.7756953923941394 -1.3993915314230332
0.7700000000000002 -1.3336791218280355
0.7622563508668805 -1.2686076050391262
0.7524853552111509 -1.204228296542125
0.7516018683207375 -1.157365383764685
0.7437265616160933 -1.1026199714982057
0.7341778385293389 -1.0485146166899095
0.7523651229343656 -1.0355417527999327
0.7883776803291833 -1.0462125181619537
0.812673147429869 -1.040174194760873
0.8432893240067822 -1.041375588352341
0.8741911491736936 -1.04182044264181
0.9053614600069001 -1.0414992207074252
0.9300915428388129 -1.032971307413578
0.9616176876881228 -1.0312087192830304
1.000308053460956 -1.0358493124876575
1.0606601717798214 -1.0606601717798212
1.1005898945181363 -1.0628273068022658
1.1409117745259059 -1.0639174416974977
1.174168824254283 -1.057226358046996
1.2075353283564354 -1.0496944463848117
1.2563128867151239 -1.0541716798859244
1.2900622960185715 -1.0446718491427303
1.33173817359536 -1.0404678933003624
1.3816394323818166 -1.0411399900530436
1.415779740156158 -1.028624191511828
1.4662821592772954 -1.0267018210683725
1.508848382050176 -1.0177310843167593
3.371455683140604 -2.189448920760408
3.460036232318218 -2.162070598071476
3.454384221829513 -2.075603441887518
3.446781107062066 -1.9899999999999998
3.4460016461292193 -1.910149903770568
3.4346661362212263 -1.8262443792371152
3.421465052883333 -1.7433235189998595
3.4154173759368347 -1.665810357798494
3.4167803571281703 -1.5932708467624368
3.4166600115833274 -1.5211950451034926
3.4058679577740296 -1.4457051754103127
3.4027647462601096 -1.374806197836397
3.388896948184842 -1.30087565684944
3.3828934348292705 -1.2312725159724074
3.375501314889561 -1.1622783114120494
3.3667400676848436 -1.0939201600873139
3.3661927409898853 -1.0291484006240332
3.374028552743499 -0.967487118917667
3.3614218754859575 -0.9006902769567722
3.3572232129149477 -0.8370497587748503
3.351833022861209 -0.7738316269428955
3.3452647945096152 -0.7110579825967368
3.3375324237220574 -0.6487505842802523
3.328650205181263 -0.5869308405142245
3.338386591211566 -0.5287484918359803
3.3372033916590924 -0.46901335023542057
3.3250296079984287 -0.40826230040724404
3.321703130530033 -0.34912506731396253
3.317328344645513 -0.2902286233497017
3.3119126468626163 -0.231591492830496
3.3054637600376395 -0.17323201516414408
3.297989729163016 -0.1151683391182532
3.299497394016091 -0.057592941243035586
3.27 0.0
3.279500440112963 0.057243893114289915
3.278001912622634 0.11447034918420317
3.275504873995002 0.17166193647685574
3.2720100848522233 0.22880123388073098
3.257556662760008 0.2849992787848422
3.2520865978542535 0.3418080748852268
3.255551377383536 0.3997314463688837
3.2480792654723505 0.4564877711490146
3.2396177571520517 0.5131050453319572
3.2400175074101645 0.5713025045242008
3.2393697053772907 0.6296696847425978
3.2278870824215584 0.6861085796986057
3.225164914439129 0.7445879898781931
3.182569982185268 0.7935038175669101
3.1295996771765817 0.8385737061321672
2.9222355556524895 0.8379375616836775
2.8976034105679975 0.8858862653098922
2.8912118095372668 0.9394116628998401
2.8743764698219234 0.9897271895497564
2.87545941960488 1.0465816385765463
2.8754277136113813 1.103773284599525
2.8557262720657053 1.153788307721009
3.1573316473418704 1.340207770718209
3.151731828866973 1.4032414186115105
3.1448880210171755 1.4664853682402272
3.1457791620470847 1.534299013761771
3.127432899901171 1.593506654085809
3.1256344787206016 1.6619293322620534
3.122392354487643 1.7307703442794231
3.1176914536239795 1.7999999999999998
3.1115173015486675 1.8695882119234966
3.1038560319325192 1.93950450709353
3.094694395718615 2.0097180392054494
1.268427486009214 0.8555651423102426
1.212345025547708 0.8488931257995481
1.1649844718999243 0.8464107633011613
1.1180897140662098 0.8425410324128675
1.0716946249051418 0.8372996064428954
1.0336041287377713 0.8369961200962839
0.9958577760546714 0.835623892592501
0.9584811668829205 0.8331949668179442
0.8694794458085512 0.7828828094398641
0.8337432198458542 0.7774781304712481
0.7984671783759029 0.7710707912094871
0.7707463914933369 0.7707463914933368
0.7432844563911272 0.7696935863623567
0.7160982780656234 0.767921386700129
0.6825132184860354 0.7580077219869421
0.6560590289905074 0.7547095802227719
0.6170761052990777 0.7354026653942188
0.6104407793183424 0.7538315826132617
0.5971916310658886 0.7643704309985202
0.5837605724574868 0.774676444745874
0.5760295472466237 0.7928366544874484
0.573576436351046 0.8191520442889918
0.5703767615401617 0.8456183240061426
0.5718709867657786 0.8806040963426952
0.5670136127295293 0.907411462887376
0.5716922631501604 0.9514557037793446
0.5600000000000002 0.9699484522385713
0.5575310632832876 1.005812663210305
0.563365875343069 1.0595371114307122
0.5538684096822472 1.0870279595098087
0.5523476449542376 1.1324804983369505
0.5494037402629093 1.1782001231476449
0.5450271017215725 1.2241509132410853
0.5392089573151977 1.2702966977643677
0.5356874285847544 1.3258729120305057
0.5339682448224973 1.3910348354808306
0.5301312221547867 1.456523562218158
0.5241647286760224 1.5222849067149
0.5222387204936612 1.6072855125388095
0.5174979173592441 1.6926594180545727
0.5071727347032785 1.7687215205265068
0.4943443761458146 1.8449183282121204
0.48626301015533197 1.9502944098147528
0.4723972141221168 2.046177136048994
0.46572218743178073 2.191050625643725
0.45030922908864596 2.316640152936487
0.4358569259439953 2.471867460060642
0.4192443663078189 2.6470047527949694
0.40221026177458924 2.8618747186631386
0.9006144477640399 7.334916060629369
0.7693294896499295 7.319681149910492
0.5708701149971622 6.525075272500933
0.4541146440742552 6.494141967191456
0.3401837155791358 6.49109197590473
0.22719572353328202 6.506034283894313
0.11378968997108906 6.519006972419671
