# .PCD v0.7 - Point Cloud Data file format
VERSION 0.7
FIELDS x y
SIZE 4 4
TYPE F F
COUNT 1 1
WIDTH 172
HEIGHT 1
VIEWPOINT 0 0 0 1 0 0 0
POINTS 172
DATA ascii
5.939536975864663e-17 -0.97
0.017103358308537927 -0.9798507412532634
0.03420150676845106 -0.9794030104787138
0.05181259668051453 -0.9886432394070281
0.06905890900668397 -0.987588409757226
0.06798147934317353 -0.7770318645115616
0.10452846326765346 -0.9945218953682733
0.12308803683919897 -1.0024716131577351
0.14056483196966613 -1.000170749428986
0.15799880969063324 -0.9975652240010892
0.17712114122026903 -1.0045039080724523
0.19653326523784126 -1.011075998951094
0.2162281584504696 -1.017273504763158
0.23394909651761975 -1.0133448673766448
0.25401799037965106 -1.0188105125897964
0.274348187808672 -1.0238813758664125
0.29493197072418914 -1.0285500146540012
0.3128377240533284 -1.023246088880448
0.3368285238686927 -1.0366516027617174
0.35812496990287246 -1.0400704331592485
0.3796423590914924 -1.0430588090723583
0.4013721034907362 -1.045610077676866
0.4233054505599807 -1.0477177556604695
0.445433486477772 -1.049375532935782
0.4677471395371704 -1.050577276288991
0.4902371836192113 -1.0513170329625139
0.5128942417432206 -1.0515890341700254
0.5402486946900608 -1.0602977637841575
0.5727553065987868 -1.0771960632878907
0.5963158329029946 -1.0757822397814567
0.6250000000000001 -1.0825317547305482
0.6489479743866685 -1.0800307988846614
0.6835958508608343 -1.0939820440417896
0.7134771358696856 -1.0986584440085054
0.7437265616160933 -1.1026199714982057
0.7743281890739122 -1.105855259790139
0.8111436481636128 -1.1164434522374274
0.848559182644388 -1.126076069166683
0.886552524468948 -1.1347354851936795
0.9188077709327628 -1.1346331037271773
0.9577535384329436 -1.1414062202472772
0.9972097240655713 -1.1471585619386133
1.0371524398562304 -1.1518744794899611
1.0843773924993727 -1.162852385574481
1.1322931438481656 -1.1725238745520012
1.1808683245815343 -1.1808683245815341
1.222877660575707 -1.1809192297802953
1.2798689778335484 -1.1934971301093724
1.3450921341140836 -1.2111263975095334
1.403759819214356 -1.2202697939223437
1.4708053307884377 -1.2341522105981553
1.220119159487444 -0.9880330139482449
1.5366209695331077 -1.2005398768850337
1.6931072813002608 -1.2758478490823424
1.7636570477373856 -1.2813718499975915
1.8512836200931213 -1.296282746153364
1.9565286712298984 -1.3196952521909624
2.054742891466289 -1.334365635786816
2.154042164237322 -1.3459949311523405
2.168633270776344 -1.3030463295224368
2.173723763498941 -1.2549999999999997
2.1778030707770957 -1.2071759544133793
2.189710030290139 -1.1642894757090092
2.2007861147452688 -1.1213565343566805
2.211033353895951 -1.0783930211011303
2.3473371684249233 -1.0945812979084115
2.5487918268228564 -1.1347952341814824
2.7707196088918455 -1.176100696752714
3.0411630429790626 -1.2287096264041912
3.3608895353899264 -1.290124618363081
3.7117858521043385 -1.3509795661363915
4.150826546881 -1.4292441980669177
4.6887086253351065 -1.5234537822684906
5.38399577607189 -1.6460526975890077
8.584066944729187 -2.4614415874458024
8.538784304395364 -2.2879603587062833
8.693849707432928 -2.167620184573023
5.389413316676343 -0.4715125682648307
4.42918438315362 -0.30971874342391637
3.8946551855428377 -0.20411022934748094
3.4478983532158805 -0.12040326362362835
3.099527854984813 -0.054102459955578885
2.8 0.0
2.5796070535034894 0.04502720860819146
2.378550168305448 0.0830608021519523
2.206971271807608 0.11566246329690585
2.064957584037836 0.14439590065033936
1.9326177142979863 0.16908214093045684
1.8100298495702574 0.1902418031471293
1.7071793808230737 0.20961527065685365
1.6240396327361752 0.2282438855745073
1.540793811328415 0.24403776546276015
1.4575154744580678 0.25699930294705686
1.3840943286612062 0.26904068348092813
1.3204992609906379 0.2806807826039751
1.2569373835729536 0.29018686010358585
1.2128696578449956 0.30240236949958466
1.159110991546882 0.3105828541230249
1.1054509503290666 0.316982959189549
1.0614982791189695 0.3245325922422378
1.0081199072728628 0.3275580140374443
0.9738841328672964 0.3353351990908714
0.9302956945780493 0.33859994189241205
0.8962372094373137 0.34403323156348825
0.8715528232927802 0.3521301978109573
0.8284543681071963 0.3516580156403464
0.8039200027254888 0.35792824590670413
0.7703616189811524 0.3592255224795945
0.7459990584283086 0.36384805183493424
0.7306253498344616 0.37227220978642833
0.7063580742871416 0.3755772502287127
0.6822033715687287 0.3781515037921429
0.6581793068761734 0.37999999999999995
0.6343038025195631 0.3811281754334401
0.6190751101941909 0.38684106289023956
0.6038428089207053 0.3921401052108194
0.59690705223963 0.4026188904989377
0.5734064310022943 0.4015035054457322
0.5501315561749643 0.39969397155888176
0.5430721468321592 0.40923421574339286
0.5279672049165037 0.4124931884681911
0.5129163345616008 0.41535145809289276
0.4979288880273357 0.4178119462962505
0.4830141313425741 0.41987777855392466
0.4681812400507584 0.4215522820060807
0.4607528320200774 0.42965896683937405
0.44599067620996374 0.4306881896845783
0.431335136523794 0.43133513652379396
0.4237416059799884 0.43879727820657716
0.41601899963812405 0.446125757987694
0.40147836381531493 0.44588689528643655
0.3936354173943044 0.4528257481336631
0.3792446897150582 0.451966221440197
0.3712990307194041 0.4585161172596127
0.3570836556888818 0.4570462370918987
0.34905271342818794 0.4632085958274298
0.3409154463296344 0.4692298567374695
0.32693856872009625 0.4669166652447253
0.31873995497832563 0.47255141635637377
0.30499785960841524 0.46965551804943745
0.2967547879705948 0.47490693384759863
0.2832709412005299 0.47144201538616176
0.2750000000000001 0.4763139720814413
0.26179719493302206 0.47229464185527376
0.2535146439043811 0.47679170014382055
0.2496947748567508 0.49005358830360235
0.24110413073399262 0.49433672546454194
0.2282138613399777 0.489406204999791
0.22370515369169022 0.5024500017034306
0.2109948093842078 0.49707262086431786
0.2022875604445926 0.5006792814660652
0.1899350132590091 0.49479762604351696
0.1812706759626045 0.49803708901653143
0.1725511218622931 0.5011248450676379
0.16686917696247164 0.513570518799383
0.15788072055027785 0.5164045682200392
0.14884417214117956 0.5190813158066923
0.137174093904336 0.5119406879332062
0.12821860466782387 0.5142567349262781
0.11922405880224853 0.5164161343361747
0.1101931961334124 0.518418228388917
0.10112876754956882 0.5202624072272619
0.09203353416347312 0.5219481090964703
0.0844746111217247 0.5333517039213744
0.07515347451843536 0.534744757120448
0.06580944543877965 0.5359749218863139
0.05644537016453287 0.5370418234988676
0.047064101083735516 0.5379451369695426
0.03766849582182763 0.5386845871403051
0.028261416371189743 0.5392599487674699
0.018845728219350585 0.5396710465903117
0.009424299476133144 0.5399177553844513
