# .PCD v0.7 - Point Cloud Data file format
VERSION 0.7
FIELDS x y
SIZE 4 4
TYPE F F
COUNT 1 1
WIDTH 180
HEIGHT 1
VIEWPOINT 0 0 0 1 0 0 0
POINTS 180
DATA ascii
9.552245033349355e-17 -1.56
0.027225754042162414 -1.5597624044439704
0.05409421988887667 -1.5490557818795985
0.08112073217656315 -1.5478757788695894
0.10812253430339411 -1.5462242779027275
0.13509140125887045 -1.5441017820422056
0.16201911806486285 -1.5415089378208235
0.18889748227797862 -1.538446535044049
0.21571830648810147 -1.5349155065494342
0.24090907616195564 -1.5210400445165122
0.26741819360707286 -1.5166039396388005
0.2938458528798792 -1.5117058625094026
0.32226312076752683 -1.516128781137399
0.348674134232991 -1.5102736004171147
0.37255971922348824 -1.4942554184650345
0.40116951990890715 -1.4971850307480559
0.4299942750745187 -1.4995682456637776
0.4560998593674694 -1.4918354193023353
0.48206651122491806 -1.4836481654204396
0.5111420024977361 -1.4844641636909273
0.5369716250213 -1.4753174146338761
0.5626376807861213 -1.4657212696006068
0.5918784175971413 -1.464950490215524
0.6212624942979452 -1.4636027169893802
0.6507786289212807 -1.4616727322281615
0.6761892187851192 -1.45009245925864
0.7057775463304148 -1.447058414541659
0.7354646095780659 -1.4434305691851559
0.765238647341002 -1.4392045763600507
0.7999358734064562 -1.4431225167800028
0.8300000000000002 -1.437602170282168
0.8549632043506902 -1.4228977191655061
0.8849651712694522 -1.4162403205812315
0.920439969175396 -1.4173532598277665
0.9506279359002695 -1.409363873343571
0.9808157061602887 -1.400749995734176
1.0227463389889033 -1.4076895702124086
1.047158140284564 -1.3896257874822895
1.0835641965731586 -1.3868989263478306
1.1201902960687107 -1.383319811393408
1.1634455735326363 -1.3865404420453502
1.1940274327627234 -1.373571436005445
1.2312003157002993 -1.3673864788784054
1.2753369333168723 -1.367631422027849
1.305957736462915 -1.352358824636664
1.322289680818844 -1.3222896808188438
1.3379720286298913 -1.292064569053735
1.3530043479954654 -1.2616969661156223
1.3673864788784054 -1.2312003157002993
1.3886656276099005 -1.2071486133425335
1.40186133090773 -1.1763013257263668
1.4221771094662565 -1.1516563156212027
1.442059679100301 -1.1266604998459546
1.4615029833865458 -1.1013214923682484
1.4724109297624044 -1.069769159172301
1.490856720605965 -1.0439091141589039
1.508848382050176 -1.0177310843167593
1.5263804336606719 -0.9912430437273492
1.5434475350046952 -0.964453060904433
1.5600444872778445 -0.9373692963362986
1.5675059808498342 -0.9049999999999999
1.5830616699223063 -0.8775054126458701
1.6069646190032472 -0.8544382442703213
1.6216318740228297 -0.8262627095259751
1.635805164264484 -0.7978354871561208
1.6585432502770694 -0.77339141898548
1.6717881874859597 -0.7443280568287143
1.684523881817966 -0.7150379651353709
1.696746453857221 -0.685530065951119
1.7177879847548512 -0.6593970271633525
1.7290344222460716 -0.6293170637192305
1.7492093648587363 -0.6023010857457399
1.7689651203089856 -0.5747716095374021
1.7882898936508766 -0.5467350878315177
1.8071719883640394 -0.5181982289359583
1.825599811686339 -0.4891679952437642
1.8435618799243931 -0.4596516016393687
1.7538661166134235 -0.404911897818957
1.878043393408907 -0.3991904463700979
1.8945404640539913 -0.36826136107673146
1.9105270408436834 -0.33687746467384483
1.9259922641605187 -0.3050472068284502
1.4061806576130298 -0.1976258033632929
1.627775688691768 -0.19986572318444185
1.9989890096902292 -0.21010221116798342
2.0123132901453262 -0.17605460035026949
2.025055022027443 -0.14160564170057435
2.0471905462468762 -0.10728871029803484
2.068739011929528 -0.072241958174177
2.0896816828768574 -0.03647552945392254
2.11 0.0
2.1396740676346773 0.03734814977578672
2.158684186361247 0.07538291287740209
2.1869986811125166 0.11461574417204698
2.21459219157681 0.15485937171195818
2.23147612372551 0.19522886375475432
2.2575647024859804 0.23727961161757335
2.2828561487750405 0.28029948983183917
2.138979028481792 0.3006138980737414
2.0840223986557405 0.3300767212348871
2.0385520487352706 0.35945172777054574
1.9828869105642812 0.3854341706606205
1.9367322494529353 0.4116651478191634
1.9000216263312086 0.4386545559705367
1.8629677944499132 0.46449003955136203
1.8352590699492297 0.4917561856947894
1.8456224562015722 0.5292237231686384
1.8743573216875495 0.5730485412565639
1.902113032590307 0.6180339887498948
1.9288578942226065 0.6641590350925997
1.33436352151599 0.48566860352244956
1.2323261629763063 0.47304569339979635
1.1404361411171484 0.4607661099015718
1.4912178625929535 0.6329844281526235
1.4342663684988834 0.6385765296290062
1.214452434629111 0.5663084707325373
1.1324804983369505 0.5523476449542375
1.1315782857192271 0.5765679346692244
1.1213434429308373 0.5962288847380813
1.1107670280670325 0.6157082177128481
1.1085125168440815 0.6399999999999999
1.105745817905725 0.6643991166339699
1.1024625250033537 0.6888950435031664
1.0986584440085057 0.7134771358696854
1.0611680928704534 0.7157669164425559
1.089472218904359 0.7628566603468913
1.1245336221811768 0.8170215006865376
1.30976223647756 0.9869766379693591
0.8904521515755957 0.6956974671179939
0.8859463960609466 0.7174252457968147
1.1337457758160874 0.9513256623360781
1.5245133520499994 1.3252392385608247
1.5011525474643364 1.3516438248448936
1.462707403238341 1.363996720124997
0.6833728103217186 0.6599254519360473
0.5091168824543142 0.5091168824543142
0.4932074430258881 0.5107312582404422
0.4705788684431239 0.5046340541172276
0.46170011838761216 0.512769929579402
0.45268073000345005 0.5207496103537126
0.44352345068371213 0.5285706657520948
0.43423106982438786 0.5362307134053098
0.43711964748121734 0.5594876350607725
0.42728866643795427 0.5670312121335779
0.42908323417350536 0.5905824058937116
0.4187107985362636 0.597980992330964
0.4026188904989377 0.59690705223963
0.3866937148606693 0.595456103241251
0.38154187024790753 0.6105946292326268
0.37082741393523916 0.6171604565055208
0.36500000000000005 0.6321985447626401
0.3490629265773627 0.6297261891403649
0.3380195252058414 0.6357222668584274
0.3268731598124737 0.6415246974156248
0.3156272256881358 0.6471317133354002
0.3085113310707106 0.6616046845367545
0.2928503830145763 0.6577527295026726
0.27741910122738433 0.6535584459512326
0.2622246153911385 0.6490286981967511
0.24369020569080413 0.6348346900180972
0.24625450319448156 0.676578686965854
0.24743179738743915 0.7185941174554807
0.21322172611871373 0.6562289962436559
0.19881275921146102 0.6502872340548641
0.18743340195555944 0.6536579532380569
0.1759969506697141 0.6568295618765665
0.16450688900777402 0.6598010938676776
0.15521622749726693 0.6723153447018123
0.14345906666425387 0.6749218445063259
0.131658206809816 0.6773227565788881
0.12155372436685129 0.6893654271085455
0.10950412552816163 0.6913818384165964
0.09881290168164647 0.7030903288065149
0.08774592725170619 0.7146332291817518
0.07526049355271049 0.7160557646651567
0.06275213477831401 0.7172601826260567
0.05092222583321142 0.7282217566896716
0.038205248057349095 0.7289995603708389
0.025825627559850798 0.7395492119941308
0.012914780763589862 0.7398872944157295
