# .PCD v0.7 - Point Cloud Data file format
VERSION 0.7
FIELDS x y
SIZE 4 4
TYPE F F
COUNT 1 1
WIDTH 161
HEIGHT 1
VIEWPOINT 0 0 0 1 0 0 0
POINTS 161
DATA ascii
2.828934106030386e-16 -4.62
0.09633728353380545 -5.519159277263279
0.2198668292257568 -6.296162210220303
0.3783889636364849 -7.220091536275569
0.6236228752724795 -8.918222609322827
2.014441045539656 -6.5889397685853135
1.94062672467467 -5.972634922333564
1.8948066589406525 -5.502918109988023
1.8640097811248952 -5.1213247832832005
1.8455949401582958 -4.807939196460589
1.8280801758696514 -4.524657210285922
1.816899747475123 -4.280347568553848
1.8059106952565538 -4.056141831933148
1.8045799776327864 -3.869934250646495
1.7973217018352174 -3.6850555898265847
1.7978023789686055 -3.5283858357859366
1.8027708010978207 -3.3905187565782793
1.7986436911139108 -3.244839113487158
1.8050000000000004 -3.126351707661823
1.8026332621851904 -3.0000855524573926
1.8123238836775608 -2.9003244888549773
1.8136479866000406 -2.792772991258262
1.8229688653146345 -2.702662486529436
1.8239730675963266 -2.604903500838994
1.8221342821066668 -2.5079526825623373
1.8295176703822267 -2.4278519505437703
1.8285145817172053 -2.340391938211964
1.8313223379550272 -2.261494747839785
1.8383725637035024 -2.190887107320277
1.8500864617532307 -2.128281016228217
1.8468004735504486 -2.051079718317608
1.848215555769371 -1.9819685313879518
1.8547378491255229 -1.9206372669041982
1.85969083452062 -1.8596908345206198
1.8702834808804931 -1.806111763193393
1.879579013161268 -1.752735785360621
1.8727249602030336 -1.6862091280243228
1.8792268547547024 -1.6335869821863633
1.8921297745038759 -1.587685395925752
1.888464686340439 -1.5292485502511053
1.8912258086561324 -1.47758754078158
1.892766158812084 -1.4263016048703545
1.8850095968936276 -1.3695396378414624
1.9004327427504608 -1.3306973323344267
1.8984960411510456 -1.2805517489480103
1.9037821892361126 -1.2363306094841113
1.8996277353903943 -1.1870191518823792
1.9029114075586895 -1.1433845263003204
1.9139161423636095 -1.1049999999999998
1.9154171586352766 -1.0617330683394781
1.9159962765038716 -1.018753291245383
1.9245740922468748 -0.980619479437421
1.9144313186172257 -0.9337305426607349
1.921372508517698 -0.8959507148902829
1.9275809156258876 -0.8582143168899383
1.933060192250125 -0.8205353698274749
1.9285424174989179 -0.779181714305097
1.9418472871141796 -0.7454053350542246
1.9451637250268303 -0.7079816966841341
1.9477682657345927 -0.6706703981817428
1.9877081190568708 -0.64584551824364
2.132559605797569 -0.6519889015317029
3.970010804225257 -1.1383822795242065
4.134162536517213 -1.1077455130387888
4.3178159819281845 -1.0765524354185214
4.452871196068525 -1.028026318351463
4.470134535353492 -0.9501564270371601
4.711810480548787 -0.915883177807415
4.983127230241772 -0.8786597789946674
5.274255738778035 -0.8353600433148328
5.614819949764704 -0.789111482443571
5.994978755913585 -0.7360908341670908
6.414666225125363 -0.6742085880763649
6.913591204756714 -0.6048608546687477
7.461779095943485 -0.5217784236060573
8.078912936164501 -0.42339788600541556
8.065083974044104 -0.28163893838918286
8.058772422960514 -0.1406663958845051
8.952766287804724 1.0992614775144303
8.94212066073638 1.2567331016693908
8.908948832168143 1.4110388746628824
8.873117854639995 1.5645700807790421
8.844460922863453 1.7191890483426686
8.832672834626266 1.8774425680843665
6.830334154144499 1.5769068909504935
5.7247447850283795 1.4273391840380396
4.916562455811357 1.3173889395718306
4.316065014763052 1.2376117276183263
3.815655976292512 1.1665631018437195
3.414292893499601 1.1093710098060612
3.1202112994777456 1.074374909708617
3.138573353424934 1.1423472787077336
3.1368302330305977 1.2041163104722088
3.1338814284357412 1.2661702857457826
3.1205114532037728 1.324578525578638
3.1425963742905467 1.3991740521807525
3.1448880210171755 1.4664853682402272
3.127803281121101 1.5255315908259894
3.1185228346592875 1.5889667490884136
3.107975526863423 1.6525399010063357
3.104899960344855 1.7210741518744965
3.1003709455482906 1.7899999999999998
3.077230609520583 1.8489866889270943
1.3653574348118458 0.8531700154154599
1.2747792632770445 0.827851333222841
1.2186852316559114 0.8220135681019978
1.1631959028903682 0.8144785396184854
1.1083532822936781 0.8052657956406882
1.0541988732624266 0.7943958305607037
1.008653764616604 0.7880466884168427
0.9636609922066438 0.7803572849017985
0.9192533317427736 0.7713451316238471
0.8754631130584155 0.7610284736289884
0.8323222045346816 0.7494262791219213
0.8044890717810875 0.7501981960687484
0.7696935863623569 0.7432844563911271
0.7353910524340095 0.7353910524340094
0.7085515378681774 0.7337265963454241
0.6751783764618735 0.7240401646029787
0.6557479942316811 0.7282819289678464
0.6298166678308871 0.724521197013861
0.6042203531053469 0.7200817765318392
0.5789747597658506 0.7149742845404131
0.560251942546349 0.7170897857821169
0.5416335208368435 0.7187719590425635
0.5172510220173764 0.7119349550499537
0.4990114996254101 0.7126622785314228
0.48090589698484226 0.7129723123973358
0.46838957011292337 0.7212566884330646
0.45043137459822413 0.7208408817329621
0.4274816021753451 0.7114488595827531
0.40500000000000014 0.7014805770653953
0.3878476961970697 0.6996957657115166
0.3661878189729949 0.688699122429963
0.3450327798020556 0.6771649583831595
0.3287783600918081 0.6740955347243753
0.31696369630552457 0.6797308402774874
0.3050524823068503 0.6851590932319507
0.28914103508206257 0.6811735915548058
0.27720887912777503 0.6861160523794226
0.2616086031680691 0.6815137113429572
0.24967470462773825 0.685975613173713
0.23440907120915286 0.680773374431508
0.21940206600621268 0.675250126569559
0.2075839103531431 0.6789763767337551
0.19294614907189941 0.6728831871568232
0.1785851411207393 0.6664888201394571
0.1669261079637707 0.6695040511304375
0.1529667169538283 0.66257164405396
0.1413799497560763 0.6651403684989879
0.1278420269022851 0.6576902129099349
0.11634427903684338 0.6598211945181794
0.10793978087775932 0.681504955010645
0.09185424663364321 0.6535769253694365
0.08165246008144883 0.6650059215996857
0.07003407038932782 0.6663296698967431
0.058394347640931106 0.6674504477214696
0.04603927267112266 0.658392273171484
0.03454173112034302 0.6590954929380187
0.023033667823650714 0.6595979458326032
0.011344064184234339 0.6499010018516543
