# .PCD v0.7 - Point Cloud Data file format
VERSION 0.7
FIELDS x y
SIZE 4 4
TYPE F F
COUNT 1 1
WIDTH 170
HEIGHT 1
VIEWPOINT 0 0 0 1 0 0 0
POINTS 170
DATA ascii
7.715274834628325e-17 -1.26
0.0218155080466045 -1.249809618945489
0.04397336584515136 -1.2592324420440606
0.06541994530367996 -1.2482869184432173
0.08719559218015654 -1.2469550628247803
0.10894467843457295 -1.2452433726146819
0.13066057908456682 -1.2431523692103417
0.15355537269048583 -1.2506081510680658
0.17535810720968248 -1.2477377666143787
0.19554308130028866 -1.2346104257439223
0.21706022208366302 -1.23100969126526
0.23851124422068115 -1.22703397930958
0.259889613522199 -1.2226845009172571
0.2834383284732701 -1.2277062816293964
0.30724080741157794 -1.2322755723705154
0.32870018728020134 -1.2267257993871168
0.3500594418875889 -1.220802353841665
0.36838834795064834 -1.2049439925134247
0.39245158285618326 -1.207841775694845
0.41347155616058906 -1.2008085910111324
0.4377857834568561 -1.2028065546059628
0.46229465491343724 -1.2043187501813903
0.48698857144068586 -1.2053390109368236
0.5118577783209486 -1.205861358022697
0.5328250024292985 -1.1967445495118072
0.5578561054977232 -1.196326278888378
0.5874173366973638 -1.204384022040884
0.6128871746483883 -1.2028588076542965
0.6384813253888116 -1.2008087262881406
0.6593410835350185 -1.1894828017095782
0.6800000000000002 -1.1777945491468367
0.7056021626267746 -1.1743192019618938
0.7365877772841548 -1.1787868536574322
0.762494649021038 -1.1741387951235935
0.7940539229284604 -1.1772333530281591
0.8259500683455063 -1.1795789437761481
0.852288615824086 -1.1730746418436737
0.8786499338019904 -1.1660078446690476
0.9173355982352308 -1.1741360228740156
0.9439805865747563 -1.1657189421854561
0.9770371667235398 -1.1643875535408466
1.0037703143554764 -1.154705657740841
1.0371524398562304 -1.1518744794899611
1.0707374252981225 -1.1482253115420977
1.1045068090298058 -1.1437502825384553
1.145512985522207 -1.145512985522207
1.1869106705587744 -1.1461863112573454
1.2213606817040146 -1.1389372613043725
1.26334620331157 -1.1375220308100589
1.3056475737853956 -1.1349821201535775
1.3405777754582116 -1.1248783169514436
1.3910912710079777 -1.126483499979209
1.442059679100301 -1.1266604998459546
1.4854620486879648 -1.1193759430628099
1.5371322893124 -1.1167919793556988
1.589154965920644 -1.1127382865210294
1.6414943936589825 -1.1072019488720786
1.7025012529292107 -1.1056172410805047
1.7724205209669301 -1.107531262247398
1.8343380235025204 -1.102181480307516
1.9052558883257653 -1.0999999999999999
1.9678943410636405 -1.0908216455542583
2.0484384154327104 -1.0891740256632665
2.1295055928101996 -1.0850372943775168
2.2020454134329595 -1.0740093096332397
2.311084856943457 -1.0776765674387836
2.4026245536000403 -1.0697173712893544
2.5129782499251623 -1.0666959807757173
2.6424739855153443 -1.0676287912353493
2.7820696709616612 -1.0679364896449948
2.922444050644175 -1.0636826457428297
3.0918457422097663 -1.0646078650749025
3.300166111544183 -1.0722889704810674
3.5383275970632315 -1.0817753074741259
3.8065963159157428 -1.0915239290353167
4.124503278254322 -1.1051573225877636
4.608904699810983 -1.1491290040984217
5.125186540770337 -1.1832425458487297
7.411900893430493 -0.518290599918851
7.220091536275569 -0.3783889636364839
5.856430246331901 -0.2045110506766557
5.239201922619491 -0.09145060973136561
4.79 0.0
4.36933442783343 0.07626701613092894
4.047532849427338 0.1413429616451289
3.7548470506771974 0.19678319547346879
3.501449816411983 0.2448452228418798
3.28744250370276 0.28761395106727194
3.083017875641647 0.3240382361297257
2.888309301276247 0.35463978930897916
2.733139869726734 0.3841177586497806
2.597620335765212 0.41142264305580717
2.46201938253052 0.4341204441673258
2.3559052402743936 0.4579415889037075
2.239958005680415 0.47611777197266886
2.1436141425275177 0.494892319556503
2.0473239824423524 0.5104551997152988
1.9704886856296995 0.5279908520091423
1.884072924039105 0.5402492174013184
1.8169790363297675 0.5555062389731997
1.740433424820131 0.5655010997061538
1.692478250322777 0.5827669964783105
1.6068743815439033 0.5848544450868934
1.577750920780271 0.6056418347315574
1.5854843913092065 0.6405772747412095
1.574063299403673 0.668150229716658
1.5804336417216995 0.7036543925211343
1.6132278609252368 0.7522605058984451
4.215344077143094 2.055960678440773
4.241191055136631 2.1609947787602426
4.255807397580028 2.262852932627994
4.276890367911645 2.370719043004588
4.295486002770816 2.4799999999999995
4.320123195538646 2.595791897546673
4.333525771359337 2.7078874402316773
4.352700247636752 2.82667659172799
3.4239251746523225 2.309466691334184
4.407037998274776 3.0858412275686278
2.5807642120560823 1.8750349548129892
3.0930409265987437 2.5046951563783533
4.197923548292 3.522476101082235
4.0754317332029695 3.5427187565487395
3.9609619197945114 3.5664661318927147
3.854234007533028 3.5941313575293665
2.0285382369549962 1.9589366046943721
3.6345288552988544 3.634528855298854
2.9939775766782786 3.1003545394595857
3.4304517511143673 3.6787091191444277
3.325579113603525 3.6934297826226494
0.6626196192804125 0.7622566760249996
0.636359733589674 0.7583839986877883
0.6293203910498375 0.7771459614569708
0.6156614753256583 0.7880107536067219
0.5957968729205277 0.7906491549468199
0.5819073997695484 0.800926824431198
0.5621049076240251 0.802769003403212
0.5424171163666244 0.8041664453783904
0.5228534736144261 0.805123745227607
0.5087224936638767 0.814126172310169
0.4944365519136522 0.8228806086740277
0.4750000000000001 0.8227241335952167
0.45572104303155686 0.822142524711032
0.4366085533908785 0.821141261358802
0.4222111647577786 0.828636067495182
0.4033014550459513 0.8268905225952337
0.3888088008014435 0.833803164073718
0.39453454378352637 0.8861390939133228
0.41026768491373744 0.9665300961250625
0.43079758242829896 1.0662614327518054
0.4515436164270782 1.1763113373864742
0.482248402089193 1.3249665953081307
0.5143976840423077 1.4939193494469205
0.5562305898749055 1.7119017293312764
0.6052094287760651 1.979550844843483
0.669798774635308 2.335865921130115
0.7997508493667891 2.984710803233221
0.9313992980587206 3.7356385461625865
0.9605410020483041 4.160560176632954
0.8857038028836542 4.166908779126012
0.8128463203040813 4.181731801487048
0.7397412368611235 4.195281027832006
0.6664108210713837 4.207552330935287
0.5928774100898788 4.218541972839089
0.5203820963399798 4.238172067508445
0.4473818227855568 4.25655371217621
0.3730265789599778 4.263713307832671
0.29925527236229726 4.279549775614646
0.22504461184465904 4.294106999444668
0.15041683078777965 4.307374464452303
0.07539439580906515 4.31934204307561
