# .PCD v0.7 - Point Cloud Data file format
VERSION 0.7
FIELDS x y
SIZE 4 4
TYPE F F
COUNT 1 1
WIDTH 172
HEIGHT 1
VIEWPOINT 0 0 0 1 0 0 0
POINTS 172
DATA ascii
1.1817841611771958e-16 -1.93
0.03438124068144869 -1.9696999594580908
0.07014798837202717 -2.008775562308382
0.10781206986046457 -2.0571768415944223
0.14718615960010423 -2.104860146048229
0.18825640433494206 -2.1517805478781704
0.23100790382151415 -2.197893388763884
0.27786210296373626 -2.263005225742214
0.32705678725615384 -2.3271299615426906
0.3566705802917265 -2.251929416556914
0.3959178450806013 -2.245361676867834
0.43313641950475695 -2.2282937064261974
0.46572218743178073 -2.191050625643725
0.5038903617302579 -2.182588945118927
0.5394858271872589 -2.163759469595472
0.5719900896765708 -2.134696076098841
0.6008894356810582 -2.095550497145535
0.6344465992483388 -2.075181320439787
0.6520258581311391 -2.006729249382774
0.6836931243600293 -1.9855890087585653
0.7661251210494983 -2.104911470560435
0.8027442069814724 -2.091220155353732
0.8353727033174841 -2.067619995683936
0.8596084826764022 -2.025110677595369
0.8866858819052449 -1.99152909766087
0.9170816279773177 -1.9666878978695304
0.9424979655965166 -1.932407199543209
0.9624598594478394 -1.8889338312793398
0.9952797131060886 -1.871848896860925
1.0277963949222346 -1.854193779135519
1.1750000000000003 -2.035159698893431
1.4163547060026496 -2.3572100769308086
1.4625771692836453 -2.3406127453917356
1.4977573462913247 -2.306344061849916
0.8276054971367053 -1.2269756073814617
0.8488931257995481 -1.212345025547708
0.8816778784387097 -1.2135254915624212
1.6489731634366125 -2.1882612975295825
1.6869124423923039 -2.159149464882418
1.724337871476555 -2.1293799343921003
1.761238050541118 -2.098961774146
1.8107229200138002 -2.0829984414148504
1.8401091674868602 -2.043648270062834
1.8754954901718708 -2.0112226794527186
1.9172571024668326 -1.9853778489346767
1.9516147160748711 -1.951614716074871
1.9853778489346772 -1.9172571024668323
2.0258497534851023 -1.8891354573731207
2.065942614827156 -1.8601830856776258
2.105639728821534 -1.8304046908835154
2.137263996301949 -1.7933774310254444
2.1682372324649486 -1.7558038910290465
2.2143102176348886 -1.7300087456650999
2.244165783232893 -1.6911002150572556
2.2976082640248507 -1.6693101165106237
2.3263918057807365 -1.6289570792369708
2.3710474575074194 -1.5992917039263357
2.406984530003367 -1.5631140304931275
2.450858997892071 -1.5314666736339622
2.4857851720361257 -1.493610417239157
2.528794179050561 -1.4599999999999997
2.5713819389898234 -1.425340283524231
2.613524874862424 -1.3896358258462367
2.6551994420813365 -1.3528916892238494
2.7053700793604927 -1.3194971518351228
2.6736079717581176 -1.2467238721350635
1.8088200061323496 -0.8053385532900843
1.528038056731051 -0.6486136732921943
1.5020378443981957 -0.6068626813337775
1.4563854653356347 -0.5590540012906684
1.456523562218158 -0.5301312221547865
1.4655537921789412 -0.5046306394085929
1.493158730583391 -0.48515668116866745
1.1953809449537944 -0.3654646309034209
1.1631266520853658 -0.333521200538569
1.159110991546882 -0.3105828541230249
1.1255430424801558 -0.28062939889561456
1.1010381732073158 -0.2541946914085674
1.0759623608071864 -0.22870285989953526
1.0699736299579539 -0.20798180496043386
1.0438962181929405 -0.18406706832694616
1.0271958742189433 -0.1626918436418401
1.0100734301164018 -0.14195656297926676
0.992546151641322 -0.12186934340514748
0.9746314574609078 -0.10243789400230038
0.9264610692253235 -0.0810548407553221
0.947685847746833 -0.06626865005691904
0.9786569440594823 -0.05128923711808495
0.9993908270190958 -0.03489949670250097
1.029843126011083 -0.01797597863040202
1.05 0.0
1.0798355107689026 0.018848598952266194
1.0993299097210054 0.03838944637275107
1.1184650789251227 0.05861627099209709
1.157174298301396 0.08091750954318534
1.1854716907291771 0.10371533386971321
1.2133167123492934 0.1275247251865372
1.2406826895516525 0.15233667925643435
1.2774458086766258 0.17953330023848443
1.2741179593677276 0.20180045990189782
1.2704020013857484 0.22400614919034012
1.305564153985393 0.2537759638508046
1.3302807369979759 0.2827598995121527
1.3738617913471816 0.3171809866248496
1.4263347176257148 0.35562518653151154
1.4488887394336025 0.3882285676537811
6.632705701974401 1.9018977551372944
6.875831195374226 2.102152556956477
7.132923872213651 2.3176274578121054
8.358384208297961 2.878022485401265
8.231707358084558 2.9960964555328577
8.187500340380458 3.1428869175122833
8.474460430740438 3.423904263821436
8.901281932885098 3.7783700124912767
3.426114308471961 2.1408738275021477
2.8850267537322587 1.8735582804516928
2.470531966214024 1.6663948523428254
2.408307010209636 1.6863147228720754
2.386600133406095 1.733966494262796
2.3639611097399866 1.781372468530063
2.340391938211964 1.8285145817172053
2.3236664247563428 1.8816679692390144
2.298133329356934 1.9283628290596178
2.7320486804064346 2.3749336849456366
2.690184268228167 2.422252795019067
2.6328733258290136 2.4551940962249947
2.5896232812191444 2.50077013365239
2.5597265478953024 2.559726547895302
2.5910757218120604 2.6831374552631684
2.5506738666337445 2.735262844055698
2.515931079909307 2.794224543795002
2.473342539294213 2.84525511743985
2.4361650407119844 2.9033084394209268
2.385124282078884 2.9453831939219195
2.3456702209907583 3.0023209712416103
2.304951538672345 3.0587740034811315
2.2629732213260216 3.1147154283435476
2.2197408086785484 3.1701184113983985
2.1696684654664975 3.2166657815135618
2.124092236558606 3.270815214987153
2.082582708436495 3.3328290178947544
2.034400395894715 3.3858108377733434
1.9850000000000005 3.4381208530242215
1.9392384809853485 3.498478828557583
1.8919703980271403 3.5582787992214757
1.84320142894256 3.617486488204773
1.7929379903673268 3.676067649363593
1.7411872383716818 3.7339880825909977
1.6879570687645717 3.791213649216794
1.6410707396549498 3.86612038450025
1.5883319560834677 3.9312595433631783
1.5302311445584316 3.986388421143051
1.4433250048343222 3.965502859716533
1.3738976118092014 3.9900883890291166
1.316412396037276 4.051500759417354
1.2688931984966776 4.150362640879574
1.2100479920366263 4.21993884516922
1.149156560255192 4.288710668723463
1.0862293112425079 4.356627810979225
1.0235272972645864 4.43338379477282
0.9584728946698702 4.509260439382844
0.3491804615390772 1.7963777457092251
0.3038843109171282 1.723413567771364
0.2737603138204041 1.728454596041491
0.24076946466091326 1.7131637589229167
0.2083965772228022 1.6972539193066605
0.17456253365698127 1.6608515652650164
0.14206386067868312 1.623797357889545
0.11230792272804163 1.606078120918317
0.08635432780085754 1.6477387323450468
0.056886179625076756 1.629007048041126
0.02792385029965376 1.599756312250226
