# .PCD v0.7 - Point Cloud Data file format
VERSION 0.7
FIELDS x y
SIZE 4 4
TYPE F F
COUNT 1 1
WIDTH 180
HEIGHT 1
VIEWPOINT 0 0 0 1 0 0 0
POINTS 180
DATA ascii
1.6042873068830328e-16 -2.62
0.04747054550941139 -2.7195857308253846
0.09946356560212809 -2.848263857004423
0.1554377900415436 -2.9659297182210844
0.21833776281911196 -3.1223754773132497
0.2911001807771789 -3.32729029162643
0.3752571831308759 -3.570333604372101
0.47407174584602374 -3.8610045298847426
0.5928774100898788 -4.218541972839089
0.7352419856890854 -4.6421352007971475
1.6670225056025318 -9.454154428917196
1.8203178158922384 -9.364723330090714
1.9710028289523576 -9.272839254956478
2.121288442462648 -9.188309710924768
2.1869739362209955 -8.771473365535007
2.3397241677267875 -8.731969469653176
2.560671035539922 -8.930121155266981
1.9384244023117447 -6.340300532034925
2.0364219929309035 -6.267462442385062
2.1357270932389483 -6.202601855931517
2.236811737349874 -6.14558973993984
2.336559031035357 -6.086944380761755
2.438688923137588 -6.035966893229785
2.5358450238953867 -5.974076498906339
2.6356534471311868 -5.919774565524054
2.7385663360797325 -5.872874459997492
2.836261319725331 -5.815197479555611
2.9327786283174726 -5.755902146256856
3.0280915799689962 -5.695011973940079
3.1270220505888746 -5.641297111049103
3.225000000000001 -5.585863854409629
3.321995583169851 -5.528729089528624
3.417979254304172 -5.4699102202089485
3.518368166197076 -5.417811868927439
3.6179780854557317 -5.36387309443112
3.7167753075547787 -5.3081052469926675
3.8088484348552263 -5.24243012354966
3.1535107213167333 -4.184850072647815
2.8505126307577977 -3.648489789199122
2.605386418946327 -3.2173842804318586
2.4104535363245225 -2.8726666616961674
2.2568430597273452 -2.5962009559663355
2.1412179403483464 -2.3780634415276616
2.011895162184371 -2.157493419776553
1.903363935057653 -1.9709910529279042
1.8172644276494272 -1.817264427649427
1.7336089188161494 -1.6741266728061834
1.6674864396917084 -1.5549562609424963
1.6051928230311716 -1.4453221097351339
1.5471546394566824 -1.3449210094305397
1.5091075529443867 -1.2662915910824823
1.437720028695396 -1.1642427234421995
1.4184193564920995 -1.108190655586185
1.3736530772813436 -1.035121839821523
1.3267878707749137 -0.9639678137596559
1.302451750419497 -0.9119865337981633
1.2601371102836634 -0.8499732132755351
1.2328457348797732 -0.8006193814720897
1.2042282965421247 -0.7524853552111509
1.1828908749689149 -0.7107525433758747
1.1518137870333036 -0.6649999999999999
1.1282594222098206 -0.6254044101177748
1.1036844910736587 -0.5868394534823635
1.078117894267925 -0.5493285046848515
1.0695649150960087 -0.5216616646790021
1.0513170329625139 -0.4902371836192113
1.023170912559713 -0.4555450402448962
1.0125553387976844 -0.4298042413382011
0.9828148858407947 -0.39708298902086675
0.9709236435570898 -0.3727026675271123
0.9584864732016266 -0.3488605461921821
0.9455185755993168 -0.3255681544571567
0.9320353859692504 -0.30283665448744845
0.9371786608437748 -0.28652427062828195
0.9228112281007861 -0.2646118615843192
0.9079702767117241 -0.2432899023963695
0.9023750254366768 -0.224987362907691
0.8866767589545641 -0.20470545945291713
0.8901143166677632 -0.18919963864416098
0.8834644651028976 -0.17172809583889032
0.8764789001808652 -0.154546878123568
0.8592888563177699 -0.13609798458500086
0.8714359004925819 -0.12247232884485759
0.8833660749607766 -0.10846371563058126
0.9249053626924942 -0.09721147083891772
0.9463849631871583 -0.08279795561027525
0.9776127692546277 -0.0683613442692428
1.0086158301021195 -0.052859315805373265
1.0393664600998596 -0.03629547657060101
1.0698370338173386 -0.01867407488789336
1.1 0.0
5.7791196780039416 0.1008749092074987
5.716515530549228 0.19962512113830552
5.672215757405979 0.29726823145992093
5.61628560296281 0.39272894717942547
5.55876641535194 0.4863290445319326
5.519596519293916 0.5801329711354767
4.31757575963975 0.5301316438123915
5.406863655328974 0.7598851312419573
5.363147689431598 0.8494391451684535
5.337658021326168 0.9411731229547624
5.251705431445002 1.0208281252645146
5.213526711911184 1.108169312058657
5.154417642713894 1.1899910774790456
5.113458477474501 1.2749283898102488
5.071110588017609 1.3587999867882339
5.017786052798025 1.4388269973647356
4.963221683448155 1.5174091475110036
4.251222627839336 1.3813059648560149
4.131916175369015 1.4227328349777748
4.097059826626561 1.4912078248999157
4.051739050997855 1.555316901026603
4.014706090274189 1.622046549490899
3.976580966914543 1.6879584750736625
4.238850923461667 1.8872580238717125
4.721863570460946 2.201841143669044
4.68271698121866 2.2839136747710933
4.633233925779513 2.360750598645643
4.59132748286642 2.4412521264866323
3.5159712227003705 1.9489346733902748
3.4814221232134432 2.0099999999999993
4.448698290643963 2.673047608783181
4.409850100013415 2.7555801740126658
4.361086953316205 2.83212298207814
4.319285753011767 2.913395027082591
4.169483905430968 2.9195040610268244
4.117896501368483 2.9918269341686883
4.073041101241193 3.069256618075446
3.4908876384777776 2.7273803356926662
3.434985149639811 2.781596128440282
3.4088977718794524 2.8604048631051
3.3735518235957906 2.9325838595875675
3.3367202663935003 3.004396422551274
3.3057187313186502 3.0826325874824927
3.754953757767759 3.6261166937959657
3.7123106012293747 3.7123106012293743
3.660849612318916 3.790920747784691
3.621411291931867 3.883488155597795
3.573157437956303 3.968393368049285
3.5164763953891196 4.045243349994058
3.471053092307313 4.136639992842482
3.4172097234006173 4.219902570711351
0.9604319015080269 1.2292967756264863
0.9027225347280724 1.1979532650709392
0.8405329107782366 1.1568943019561748
0.7915354821644435 1.1304298211188086
0.7437265616160933 1.1026199714982057
0.5827637674660792 0.8973775077016036
0.5458168421602011 0.8734895390411189
0.5150380749100544 0.8571673007021122
0.4850000000000001 0.8400446416709054
0.4508729468290935 0.8133963276396381
0.4225244065073018 0.7946528335730342
0.39497173477340575 0.7751756760438799
0.3638480518349343 0.7459990584283086
0.35077315724478053 0.7522354632404195
0.3457261466144303 0.7765136389962107
0.33212145921588265 0.7824291254345743
0.31841560440352534 0.7881062763817692
0.31178011610441114 0.8122149710525655
0.3009777261265886 0.8269295062915993
0.28975565746686954 0.8415115322833919
0.27811529493745274 0.8559508646656382
0.2719056853921452 0.889363423045623
0.25634274090980924 0.8939733772226366
0.2458780928473947 0.9176295349746149
0.23466423873167763 0.9411868544877166
0.22045203325698784 0.9548826634895305
0.20791169081775923 0.9781476007338057
0.19271708533031037 0.9914434552821406
0.18059410477360763 1.0242000631326964
0.1658205329426448 1.046949641030846
0.15169868004647136 1.0793921949283118
0.1364936646137652 1.1116516898382807
0.11916244812512493 1.1337549607198314
0.10197221901476028 1.1655477967673422
0.08440533323039152 1.2070525008143873
0.06437322617882107 1.2283143277481259
0.04432236081217637 1.2692263503142516
0.022862652432841513 1.3098004806548726
