# .PCD v0.7 - Point Cloud Data file format
VERSION 0.7
FIELDS x y
SIZE 4 4
TYPE F F
COUNT 1 1
WIDTH 174
HEIGHT 1
VIEWPOINT 0 0 0 1 0 0 0
POINTS 174
DATA ascii
0.572815978706741 -5.449979986618138
0.5545055124934211 -4.516084989968014
0.5274660526386481 -3.7531159805305516
0.5084120113807505 -3.209987106934198
0.49837026990409034 -2.826398251145037
0.488471028163955 -2.51296558962602
0.47611777197266864 -2.239958005680415
0.4678981930352395 -2.0266897347532895
0.46207082059536525 -1.8532648371871532
0.4555215193804365 -1.7000294542687602
0.4520452635398786 -1.576469181338843
0.4502524252730146 -1.4727093241830747
0.4449844718999243 -1.369521383465021
0.4427726900617332 -1.285905262815071
0.43436558202359943 -1.1934096283981035
0.43362521894981315 -1.1296323160616142
0.43079758242829896 -1.0662614327518054
0.4298042413382011 -1.0125553387976844
0.4230061087988324 -0.9500872759483049
0.41839207912329246 -0.8972447091662834
0.42083630091751434 -0.8628422844472003
0.4131313547629877 -0.8108159370114147
0.40844025962372504 -0.7681644057872664
0.40724008100692316 -0.7346805539970924
0.40000000000000013 -0.6928203230275509
0.3965793176807419 -0.6600188215406264
0.3974394481749037 -0.6360360721173195
0.39758649556096987 -0.6122295146001595
0.3970269614642302 -0.5886166765140796
0.41297503417275316 -0.5897894718880741
0.42320538165058064 -0.5824922359499621
0.43330681666947474 -0.5750175672340508
0.44943287698773055 -0.575247850132907
0.46569708937687976 -0.5750880114781584
0.46923495507117374 -0.559212443476854
0.49204427174288057 -0.5660321851670789
0.5085392608327323 -0.5647900673628197
0.5319587208487488 -0.5704558872629529
0.541833528958018 -0.5610850442641478
2.8284271247461903 -2.82842712474619
2.9205195893749236 -2.8203129840635284
3.020490787687174 -2.8166532270581186
3.121208267005056 -2.8103485467072047
3.2301570033534643 -2.8079326440793713
3.3399537719987444 -2.8025539782333113
2.4946385362768764 -2.0201184552699782
3.5696887138384503 -2.7889464832252324
3.697682411518966 -2.7864035571939834
3.818560213449752 -2.774346390820473
1.892241222307571 -1.3249615679709164
1.8736249139743941 -1.2637759618438877
2.557945232233543 -1.6611490567958322
3.833177394627045 -2.395235074334086
3.840109507145464 -2.3073705755970426
3.836492538765063 -2.2149999999999994
3.839580514341947 -2.1283142328814195
3.840822028936332 -2.042201298118625
3.831328054009982 -1.952159148880051
3.8288626372344514 -1.8674610853214697
3.8336819391650296 -1.7876752471631587
2.941616373609175 -1.3096919907040765
3.8200951418276277 -1.6215341832304861
1.8172803549509033 -0.7342289230951875
3.818343944373555 -1.4657249136402781
3.815152040390788 -1.388601781902215
3.810439859665247 -1.3120396624623416
3.804226065180614 -1.2360679774997896
3.8060929287328813 -1.163639384796492
3.8065963159157428 -1.0915239290353167
2.9267552536558767 -0.7842217066606378
3.1340551958714684 -0.7814077227869267
3.8097869533102697 -0.8795586224845121
3.804994166854504 -0.8087764772810837
2.3264564247709636 -0.4522173190424112
2.2946020645184446 -0.40460025396394766
2.3111907169926225 -0.3660566481941402
3.7630186612179672 -0.5288577836482486
3.79152629926985 -0.46554089180766334
3.789128421353121 -0.3982534450497597
3.785539852748633 -0.331191822441101
3.780767750484734 -0.2643770354902349
3.774819641372289 -0.19782991459832766
3.7776973261321816 -0.13192009753545367
2.4196314222784667 -0.0422348235782261
3.77 0.0
3.769425810739595 0.06579557226855884
3.7677034178619913 0.13157110256842866
3.774819641372289 0.19782991459832766
3.760816469479537 0.2629819060153524
3.765615958786798 0.32944870758614786
3.759292764492073 0.39511759115173006
3.751824453204197 0.4606661180714574
3.7531159805305516 0.527466052638648
3.743338810855572 0.592886622502475
3.2892578950607745 0.5799849134075473
2.905616463005085 0.5647946263145727
2.601872617951923 0.5530450975752398
2.357975556780269 0.5443815515121532
2.144353555069952 0.5346473892752657
1.3909331898562582 0.37269942494762986
1.2111897368822817 0.34730306832941893
1.0710613266786 0.3274563092894652
0.9795882117840081 0.31828750420619584
0.8793322753073647 0.30277838364515575
0.8081356538758813 0.2941373232600751
0.7562001454627335 0.29027803913169326
0.7139315680164263 0.28844707693025223
0.662763494485757 0.2813264125122771
0.6212109111969686 0.2765809172915441
0.580036983703456 0.27047568751404766
0.5572523087054836 0.271790111009228
0.5435139797549045 0.2769342048411235
0.5385980316439455 0.2863776532993934
0.5422642184264254 0.30058196455272895
0.536935750346352 0.30999999999999994
0.5400153994423308 0.32447398719333415
0.5257898196169841 0.328549943824587
0.5115890464467087 0.33222981135916646
0.47255141635637377 0.31873995497832563
0.45872514480183546 0.3212028043565858
0.43686917696247163 0.3174040362379355
0.43126317542553816 0.32498011250210607
0.42552580694762987 0.3324571966758555
0.4118873595721945 0.3335398072564139
0.3983431104218686 0.33424955703700043
0.38490188591361374 0.3345901047851587
0.37900386099347105 0.3412566092430177
0.36567685080958523 0.34099918003124924
0.3668632981727121 0.35427576893408863
0.36769552621700474 0.3676955262170047
0.36816893634326864 0.3812500941794851
0.3682791144337492 0.39493099887435207
0.36802183349737205 0.4087296540125669
0.36739305623468416 0.4226373649247523
0.3599610614244621 0.4289848881466277
0.35871262289840733 0.4429731980304733
0.3570836556888818 0.4570462370918987
0.36108901389122894 0.47918130602837566
0.3585490038984086 0.49350036656871793
0.35561739053764857 0.507874267459175
0.36347538725598544 0.5388744221607772
0.35946176310991795 0.5535225748439798
0.34974671439391525 0.5597117434632413
0.3656770331861386 0.6085887834984997
1.2800000000000002 2.217025033688163
1.2314164354256962 2.221534056134065
1.178373622592586 2.2161984580759064
1.1258964393540762 2.209696179987152
1.0783930211011306 2.211033353895951
1.0311885586473066 2.2113910003694257
0.9843026762434369 2.210780007495094
0.9494766422289352 2.2368267938894304
0.9102940220006667 2.253056766597293
0.8780014763859855 2.2872720449181445
0.8755715669137122 2.4056131092119255
0.8692669724006085 2.5245345968501756
0.8652475842498528 2.6629582456264296
0.8595728118848461 2.811535982531324
0.8213993203346575 2.8645598538961905
0.7661043735034614 2.859140445815642
0.7136695920190197 2.8623723925141897
0.6591065892275249 2.8549042898207393
0.607102137187857 2.8561909941427124
0.5552541765457457 2.8565351038327025
0.5035797152340982 2.855942483735403
0.4520956039662674 2.8544193043199484
0.3994267997553879 2.842069357288307
0.3497650155727733 2.848607455210594
0.2989514049454889 2.8443326207532613
0.2492654242583029 2.8491168365423922
0.19880595017075692 2.843057543240499
0.14915747529239032 2.8460941740505357
0.09946356560212809 2.848263857004423
0.049739358346258256 2.8495659311957153
