# .PCD v0.7 - Point Cloud Data file format
VERSION 0.7
FIELDS x y
SIZE 4 4
TYPE F F
COUNT 1 1
WIDTH 180
HEIGHT 1
VIEWPOINT 0 0 0 1 0 0 0
POINTS 180
DATA ascii
1.6349034768617165e-16 -2.67
0.04694697331629288 -2.6895902999706927
0.09492663103080294 -2.7183430494919407
0.14340052010566648 -2.7362449252275325
0.19392299700866814 -2.773228059722311
0.2440360796934434 -2.7893451546568873
0.2947702664147827 -2.8045517449385304
0.3473276287046704 -2.828756532177768
0.40221026177458924 -2.8618747186631386
0.45522429326707203 -2.874173071131851
0.5122621241174448 -2.905182871386014
0.5686108062221038 -2.9252490066740386
0.6278933062696329 -2.954005754216093
0.6861007157487886 -2.9718286975949675
0.7547963142709632 -3.027322665981109
0.8178681825239655 -3.052325611073456
0.8847959121725673 -3.0856500439620036
0.9560554744433493 -3.127116551999126
1.0259364213248254 -3.1575076340999098
1.0971646805206183 -3.1863975997696974
1.1697088901737873 -3.2137487630878065
1.2507041439130977 -3.2581956884752343
1.3298534066264882 -3.291502683712095
1.4066320625613855 -3.313817472428785
2.8349544022383286 -6.367411839768928
2.835768536280093 -6.0813252510159215
2.9283192605510373 -6.003944229278436
3.0644358732419414 -6.0142940382714825
3.3097745176405304 -6.224780529655434
3.4469963999514572 -6.218546117761104
2.8400000000000003 -4.919024293495611
2.832709412005299 -4.714420153861617
2.829768871005314 -4.528576833475315
2.8266765917279915 -4.352700247636751
2.8295160915619784 -4.194930117128511
2.8277318312106567 -4.03841957834473
2.8331249160497207 -3.8994619128872468
2.828530608814627 -3.7535868972222763
2.8258861717447714 -3.6169693590548535
2.819355351903272 -3.4816139073272296
2.8218376065239075 -3.3629351052923133
2.8144932343692766 -3.2377040991556916
2.817039852770793 -3.1286397152598298
2.809833243457494 -3.0131772506709824
2.820312984063529 -2.920519589374923
2.8142849891224593 -2.814284989122459
2.8126186193241263 -2.7161142284946793
2.823025288249998 -2.632513669841244
2.8388132333236458 -2.556078916290838
2.8150667342309394 -2.4471001781345922
2.80372266181546 -2.3526026514527336
2.813268380474234 -2.278139815600412
2.80531828283993 -2.1917548521593435
2.795224285165525 -2.106352581032169
2.8072889704810677 -2.039614825454882
2.801499991468352 -1.9616314123205774
2.793856619510491 -1.8844800846964167
2.7843862855788077 -1.8082015962498894
2.7900782363546415 -1.7434343793272442
2.785793727281865 -1.673873743457676
2.779941546148048 -1.6049999999999998
2.781290668703279 -1.5416945923833518
2.78128491750562 -1.478835422775556
2.779940355467708 -1.4164503591873858
2.777273603064426 -1.3545668435782492
2.782364906202515 -1.2974380635439473
2.7680427366570806 -1.2324120285196745
2.789129705960894 -1.1839153193224994
2.7722797251546947 -1.120073714313577
2.763398062431717 -1.0607691306540887
2.77209323131843 -1.0089594228107228
2.7703694265059986 -0.9539146925594691
2.7675744624188967 -0.8992394536310969
2.773283792292803 -0.8478779436959365
2.7780463012617416 -0.7965919583111276
2.7818663797125165 -0.7453988498952597
2.7750457771493497 -0.6918966214150497
2.7769546846379205 -0.6411105048800152
2.777939186084008 -0.5904692019224365
2.778004929156889 -0.5399894569156218
2.7771578634944265 -0.4896878610207435
2.7852811204782886 -0.44114519141345104
2.7727505924763967 -0.3896846826881832
2.789054686112115 -0.3424528549684644
2.784661307031165 -0.29267969714942965
2.7893451546568873 -0.24403607969344285
2.803154981230106 -0.1960156912209921
3.355395236775368 -0.17584881297629126
3.637782610349509 -0.12703416799710354
3.9393999189161817 -0.06876248136289703
3.91 0.0
6.409023725952468 0.11186992526298731
6.316150026760686 0.22056481915980614
6.311338659648907 0.33076324345540503
6.3544830001550805 0.44434873775007816
5.937320400626803 0.5194482267760426
7.299790712003126 0.7672389203845763
7.265437830014477 0.8920835937256796
7.298275666625374 1.0257057540756822
6.578004348363618 1.0418535371679376
6.5588196350613055 1.156496863261756
6.5376370417614424 1.2707879092077885
6.5046815448798085 1.3826127439380995
6.46007352952611 1.4914254902998247
6.423357707947097 1.6015229488698004
6.829095591863713 1.8298506488748216
6.9403094446746625 1.9901017089987338
6.9810247185301595 2.134313444475978
7.132923872213651 2.3176274578121054
2.7136383119700396 0.9343806032920398
2.555963928537671 0.9302947898458189
2.4273091088927248 0.9317566688177807
2.280872282234297 0.9215322198031436
2.163186405613235 0.9182181519497933
2.055477279695852 0.9151574469205503
1.975750975739897 0.9213078105947249
1.8874674972282508 0.9205794082570626
1.799833178860503 0.9170608094738845
1.7217478060749076 0.9154695474324871
1.644285049422064 0.9114420860631136
1.5761662348876786 0.9099999999999999
1.52575779524976 0.9167677733398965
1.4586427253890526 0.9114611344811124
1.400579848468858 0.909547188475095
1.3430408675391676 0.9058925036226099
1.302451750419497 0.9119865337981633
1.2458861713374192 0.9051892885304087
1.1979532650709392 0.9027225347280724
1.150495700265814 0.8988657539754611
1.1035472652688985 0.8936349552907692
1.0724622203665692 0.8999026535611548
1.0339521249051977 0.898800869716995
0.9883826178849344 0.8899437064572815
0.9507598121049217 0.8865978680812481
0.913561546430087 0.8822161304829266
0.8838834764831844 0.8838834764831843
0.8544297956645668 0.8847879544165408
0.8320379992762481 0.892251515975388
0.7962654215670413 0.8843423423180992
0.7675890639188936 0.8830102088606431
0.7392057511395203 0.8809511095868247
0.7174252457968147 0.8859463960609466
0.6895408523647374 0.8825720440395286
0.6619965254672532 0.8784990610520221
0.6406859249987957 0.8818285238686928
0.6137267868956193 0.8764926873892213
0.5927444776789916 0.8787798269083443
0.5718709867657786 0.8806040963426952
0.5511160348025331 0.8819700200026831
0.530489217157356 0.8828823197231757
0.5150000000000001 0.8920061658979718
0.48965771644880046 0.8833659042107898
0.46947156278589086 0.8829475928589269
0.45399049973954686 0.8910065241883678
0.43398743532118667 0.8898061058361754
0.4141658965058854 0.8881816312959169
0.39453454378352637 0.8861390939133228
0.3790091946345955 0.8928897078488671
0.3633683956134348 0.8993683389297836
0.35478427004984714 0.9242446222322297
0.362541351925209 0.9960741780330629
0.361380651447444 1.0495256189152418
0.3615498834186885 1.1127361240653295
0.3537697627145115 1.1571287547152729
1.0115890958483869 3.5278304240936302
0.9446895146242007 3.525629265955099
0.8805956999827904 3.5318764436446273
0.8143228167247918 3.5272196345225515
0.7484820869439333 3.5213313626417007
0.6850042934017962 3.5240415885771137
0.6233969578242802 3.5354598333138267
0.5396989043887968 3.4075247750532256
0.49684797042743367 3.535257005407406
0.4338548625223251 3.5334642998431063
0.37107604460016974 3.53055272855737
0.3085313293267106 3.5265292312447793
0.24624035231676206 3.521401097417179
0.18526928510002164 3.5351485530311915
0.12319522335982881 3.527849619377408
0.0616069947236111 3.529462363902061
