# .PCD v0.7 - Point Cloud Data file format
VERSION 0.7
FIELDS x y
SIZE 4 4
TYPE F F
COUNT 1 1
WIDTH 169
HEIGHT 1
VIEWPOINT 0 0 0 1 0 0 0
POINTS 169
DATA ascii
1.8369701987210297e-16 -3.0
0.05200817118310512 -2.979546131566046
0.10365150520642821 -2.9681907562467145
0.1570078687288319 -2.9958886042637216
0.21554750386934696 -3.0824729153028567
0.276283704510077 -3.1579371929508335
0.3428533595179033 -3.2620318168079363
0.4399483296925824 -3.5830916074251724
0.4982397014370344 -3.545159686094822
0.5537780062424175 -3.4964167257067875
0.6095051036109257 -3.4566752130728498
0.6621072139566109 -3.406246326563394
0.7152162164130917 -3.3648277465242917
0.7603345636822642 -3.293370818974095
0.8152767881708801 -3.269896597550108
0.8696319915444697 -3.2455107763312694
0.9206287684287772 -3.210614064433985
0.9648266255850313 -3.155805694678017
1.0135757415498277 -3.1194653734481035
1.061352183530331 -3.082390556453772
1.108145264375167 -3.044604091346343
1.1539447975358665 -3.00612897332099
1.198741098930919 -2.9669883346137196
1.2542469224505686 -2.9548205795823335
1.2893551585502872 -2.8959391007270447
1.3312475244832032 -2.8548695291654473
1.380869112385594 -2.831201245842376
1.4255301691821771 -2.797760485951475
1.4694459915198383 -2.763625965648441
1.5126060151685718 -2.7288134862749147
1.5550000000000004 -2.693339005769604
0.9682715808309021 -1.611474525319971
0.9909490241160932 -1.5858499398125168
1.2526697805345623 -1.9289423062744748
1.3196952521909624 -1.9565286712298984
1.3536403897884686 -1.9331988245220206
1.3812953428873118 -1.9011899367811267
1.4142653044073135 -1.8767934486111382
1.446804467015297 -1.8518252709757965
1.4789029189671181 -1.8262930094238814
1.5105508827633676 -1.8002044413295983
1.5351781278377872 -1.7660204177212862
1.5657656188797282 -1.7389588916171024
1.6095161297474962 -1.7259947358212422
1.6255005868740537 -1.6832551327924434
1.6546298679765212 -1.654629867976521
1.6832551327924437 -1.6255005868740535
1.7259947358212422 -1.6095161297474962
1.7686846846361983 -1.5925308431340826
1.8037558967324252 -1.5679810792873126
1.8385066634855471 -1.5426902632476942
1.8806932267258694 -1.5229553463406067
2.4979940889333085 -1.9516468767823367
2.539660921950391 -1.9137717736235136
2.1034441853748636 -1.5282416559604302
1.818517538321562 -1.2733396886993222
1.807301908169991 -1.219040529566228
2.1469966539402856 -1.394275929638469
2.7731172744315127 -1.73283599404258
2.091488213713154 -1.256692902780532
2.2256852877260074 -1.2849999999999997
1.871686173278307 -1.0374925873271614
1.8806783727895144 -0.9999744287339474
1.7641929178929685 -0.8989011894843025
1.7886001521353423 -0.8723585821102641
1.9304355863880642 -0.9001768975076898
1.9823936430844438 -0.8826185154744863
1.942265240784649 -0.8244426811123675
1.9099987404075822 -0.7716895824367788
3.370225339654898 -1.293708297858534
3.392290361037129 -1.234692717405664
3.4511428009375065 -1.188323763768622
3.4998879799661653 -1.1371825392998065
3.5670167397421224 -1.090546458615808
3.6335692106468453 -1.0419092049882568
3.6705181398984594 -0.9835123713895788
3.609500101746707 -0.899949451630764
3.536963335170404 -0.8165723272682298
3.482205458612348 -0.7401656193112232
3.3375324237220574 -0.6487505842802523
3.318802127651141 -0.5851943587375552
3.2988790575877602 -0.522491113234371
3.2381765847849353 -0.45509604013941396
3.195998608285057 -0.3924192857645749
3.1526344083174265 -0.33135522855846145
3.0981655110653286 -0.27105435994521687
3.0425703532924637 -0.21275724491958217
2.626395676404529 -0.13764356491894225
2.178672002901629 -0.07608090281145212
2.1496725445862412 -0.037522673840159546
2.12 0.0
2.099680159828422 0.036650053518295374
2.008775562308382 0.07014798837202695
1.9972590695091477 0.10467191248588766
1.9652011790118535 0.13742025327592686
1.9425796612789037 0.16995369835793342
1.9194272580607674 0.20173993410657118
1.8858376881185117 0.2315517524697802
1.8716066499215678 0.26303716081452366
1.8469771969129076 0.2925324496252317
1.821894343072585 0.3212491286838211
1.806194017543702 0.35108855149284246
1.8291360133722168 0.3887948618292099
1.8902779256833564 0.436405045427098
1.940591452551993 0.48384379119933546
2.038103493469934 0.5461081851663188
2.1051631141049185 0.6036458092392282
2.180374843595721 0.6666074867678397
2.273025073945417 0.7385506165561243
2.2597893956823674 0.7781078891526045
2.067323765728999 0.7524443153164713
2.0352053297639 0.7812421300087546
2.132522865503611 0.8615951648565976
2.2000065997513327 0.9338473970893643
2.183373643765816 0.9721005769511624
2.2567063897212587 1.0523194717343416
2.399780103618776 1.1704509619268366
2.5660987896624996 1.3074926392498947
2.7636259656484414 1.4694459915198381
3.0086917925595213 1.6677450936473994
3.2995567884187116 1.9049999999999998
3.651532700990998 2.1940621991168308
4.045189418666151 2.527714890392387
5.057183524710907 3.284173381140613
5.952489770945199 4.015005046919962
7.298644714614917 5.11056604788782
6.75860374821936 7.24771518304598
6.343358148281976 7.045012945525698
4.789230911630704 5.509379935626235
4.563792028774429 5.438915546144743
1.5040757346091118 1.8573788478821602
1.3852383194827311 1.7730241956151243
1.3360293513975472 1.7729708323049902
1.2343490298141937 1.6989356881873898
0.722706309802318 1.0321315758041296
0.7101749874078485 1.052877717144903
0.7025843551693851 1.081885032649597
0.8319732448461318 1.3314355109655889
0.8086097776087854 1.3457526621023161
0.7950000000000003 1.3769803920172574
0.770847296191676 1.3906453343516394
0.7464597848295665 1.4038866726456938
0.7263847995832751 1.4256104387013886
0.7057775463304148 1.447058414541659
0.6761892187851192 1.45009245925864
0.5938354988906686 1.3337763681581973
0.5665601363094469 1.3347320375060385
0.5207031648481178 1.2887855578478342
0.4945477703725142 1.2883409885661383
0.5574928336208401 1.5316989718810305
0.5729999518445958 1.6641126930547974
0.6211241586936443 1.9116235977532583
0.5818196923982462 1.9030464643664404
0.5485183380758283 1.9129107749172547
0.5176380902050415 1.9318516525781366
0.389494251915465 1.5621761193043544
0.36442070803706156 1.5784795049520812
0.3492916405738355 1.6432879692327935
0.3415481017240154 1.7571126583713186
0.30909375624713614 1.7529578003617303
0.28001769242201335 1.7679621296652965
0.26164542980492306 1.8617039692341522
0.23033305903572873 1.8759122266020984
0.19755879557586503 1.8796463822460365
0.17692615777774645 2.022275237126243
0.14230320643801547 2.0350306625300414
0.10990550811018233 2.097122022984605
0.07573190784442733 2.1686780946314377
0.04275839577134482 2.4496268531331586
