# .PCD v0.7 - Point Cloud Data file format
VERSION 0.7
FIELDS x y
SIZE 4 4
TYPE F F
COUNT 1 1
WIDTH 174
HEIGHT 1
VIEWPOINT 0 0 0 1 0 0 0
POINTS 174
DATA ascii
5.572142936120457e-17 -0.91
0.015881689857928077 -0.9098614025923161
0.032107536966301 -0.9194395608575682
0.04762572018107901 -0.9087528766266623
0.06347839110715396 -0.9077832857364401
0.08018328332784569 -0.916499122244406
0.09616618620624119 -0.9149601437388115
0.11333848936678717 -0.9230679210264295
0.13082271490246153 -0.9308519846170761
0.14704839713781706 -0.9284270401594295
0.16496576878358388 -0.9355673653615976
0.18317663556148311 -0.9423620961097574
0.20167434009322646 -0.9488031727117915
0.22045203325698784 -0.9548826634895305
0.2370834576876743 -0.9508898117504765
0.25623085465149553 -0.9562665680261776
0.27563735581699916 -0.9612616959383189
0.29237170472273677 -0.9563047559630354
0.3151973342624464 -0.9700776466210567
0.33533519909087145 -0.9738841328672962
0.3557009490586956 -0.9772803256173447
0.3762863470225652 -0.9802594478220619
0.3970829890208669 -0.9828148858407946
0.4219896187684156 -0.9941452417286357
0.43927557452186444 -0.986629094254009
0.46065390529736244 -0.9878754878699485
0.48220826146798523 -0.9886734509290839
0.503929454710897 -0.9890172418490883
0.5351975815759156 -1.0065602558591766
0.562379159485751 -1.014558860281699
0.5850000000000001 -1.013249722427793
0.6128953091429646 -1.0200290878355136
0.641202309722178 -1.0261381963492755
0.6699060130684834 -1.0315647985728715
0.6989911293384334 -1.0362969656938021
0.7341778385293389 -1.0485146166899095
0.7699986805031398 -1.0598122626311812
0.7943958305607037 -1.0541988732624266
0.8311429916896388 -1.0638145173690747
0.8684621396487757 -1.0724614268106196
0.8999026535611551 -1.0724622203665692
0.9447250017463306 -1.0867817955207915
0.9836219913475216 -1.0924228934517695
1.0298175236943727 -1.1043440894449474
1.069773890506856 -1.1077832925215227
1.1242997820866107 -1.1242997820866105
1.1725238745520015 -1.1322931438481654
1.2286742187202064 -1.1457572449049973
1.2856405480758921 -1.1575959490008247
1.350930148598762 -1.1743456618930082
1.4095217753389195 -1.1827292018232323
1.492120245997384 -1.208295150815688
1.5523811846052422 -1.2128531063915469
1.6372027955969501 -1.2337207974616988
1.723206198018638 -1.2519825873829677
1.818517538321562 -1.2733396886993222
1.9233671683276967 -1.2973275360521326
2.0379694801073804 -1.3234728550865156
2.1710031261604503 -1.3565933164370045
2.348638403923788 -1.4112043252535484
2.5374544330884055 -1.4649999999999999
2.7637982745604908 -1.5319983999784252
3.0285102435061195 -1.6102874603556054
3.350184530948263 -1.7070042790206956
3.7659470539935103 -1.8367751050462344
4.585917402405449 -2.138448404407939
7.1234133070507 -2.314537287868356
7.143596527043876 -2.184016634278843
7.161399634740476 -2.053498300836644
7.186488147590668 -1.9256136955627543
7.209297246230654 -1.7974796843055312
7.2200821800585935 -1.6668873126880395
7.248073721437501 -1.5406256289595965
7.254224885678236 -1.410078475832666
7.28757737229034 -1.2849965147352844
7.308893720404019 -1.1576150412977084
7.318081028000205 -1.0284892160948835
7.344841522145783 -0.9018331411980913
7.369407244678905 -0.7745559128133122
7.381802712859835 -0.6458240537601471
7.411900893430493 -0.518290599918851
7.439790033921575 -0.3899028740099315
7.4454616612922635 -0.2600012504336322
6.459016110710287 -0.11274254558485149
5.66 0.0
5.089224768346031 0.08883274876577307
4.627179529098413 0.16158466973257948
4.2541618180544845 0.22295117359494068
3.920426717521109 0.27414294181441246
3.636110648034871 0.3181184610289523
3.3714292252984466 0.3543514904773452
3.1761476852522303 0.38998189889647195
2.9906095675995426 0.4203027648993976
2.824788654102094 0.4474025700150603
2.668829010663084 0.4705865614773812
2.51296558962602 0.4884710281639547
2.386680145790486 0.5073045255953327
2.2702822509495983 0.5241359566212054
2.173462426858232 0.5419050461432557
2.0767405265214967 0.5564609469704196
1.9898117105923199 0.5705693265411882
1.9030464643664406 0.581819692398246
1.8260285112866947 0.593312629199899
1.7492093648587363 0.6023010857457399
1.6914467174146353 0.6156362579862037
1.643101550635075 0.6307275911997284
1.5947562298548743 0.6443233406753687
1.6108834935417706 0.683779474856229
1.6261109146038295 0.7239912246749243
1.63135401666597 0.760712871133259
1.635805164264484 0.7978354871561208
1.639452004506597 0.8353425195207661
1.6511119986461935 0.8779118224096158
1.9329095527780646 1.071429260744405
1.948557158514987 1.1249999999999998
1.9629131186078372 1.179437191544024
1.9674715830829081 1.2294126930210352
1.962489128992292 1.274455341935163
3.5814423134377806 2.415713342993626
3.596077474428674 2.518000555581092
3.6001256249685163 2.6156443727015057
3.6178188605142365 2.7262220548787788
3.6406096816630553 2.8443560160045416
3.652586018847763 2.9578058379342362
3.761278215714182 3.156087163560908
4.573540056149998 3.9757177156824737
4.592635021450296 4.135227147297743
4.6221553942331575 4.3102296355949905
4.654128508191073 4.494439656869712
4.6174072811481555 4.6174072811481555
4.480546489460533 4.6397417121843
4.35114953719874 4.666036616330308
4.215522820060807 4.681812400507583
3.227810422633296 3.713171134696038
3.9659995517659477 4.726494214044094
3.8388543854040087 4.740590364887521
3.7185953109669763 4.759584951784601
0.6018150231520483 0.7986355100472928
0.570151694723699 0.784746484543699
0.5506333788970041 0.7863859625174321
0.5368251873319169 0.7958760696528401
0.5174070832642758 0.7967370395481527
0.49812410837921256 0.7971652103870405
0.4841357904154511 0.8057372626599855
0.46500000000000014 0.8054036255195279
0.4508729468290935 0.8133963276396381
0.4319138377630196 0.8123117854302128
0.4176712597603831 0.8197260022532984
0.3989177435780605 0.817902582132242
0.3845826181840365 0.8247400862033515
0.37013034519897836 0.8313263664547668
0.3516580156403464 0.8284543681071963
0.337145934074321 0.8344654691101085
0.3189474750953171 0.8308865795825096
0.30439792755984524 0.8363264324994584
0.28975565746686954 0.8415115322833919
0.27193495504995374 0.8369297343397352
0.25728710015600836 0.8415481852474712
0.24256087311895927 0.8459102924257206
0.22517256923919304 0.8403554688714894
0.21047204917171086 0.844157281860117
0.19570741727916266 0.8477019563631547
0.18088317101145054 0.850988412638411
0.16600382597759408 0.8540156495994676
0.15107391457022945 0.856782745120621
0.13609798458500091 0.8592888563177699
0.12108059783525696 0.8615332198051662
0.10602632876247832 0.8635151519279501
0.0909397630428585 0.8652340489703978
0.07582549619046278 0.8666893873398186
0.060688132157388955 0.8678807237260471
0.04553228193136125 0.8688076952364793
0.03036256213117594 0.8694700195066133
0.015358117664809566 0.8798659717376244
