# .PCD v0.7 - Point Cloud Data file format
VERSION 0.7
FIELDS x y
SIZE 4 4
TYPE F F
COUNT 1 1
WIDTH 179
HEIGHT 1
VIEWPOINT 0 0 0 1 0 0 0
POINTS 179
DATA ascii
8.939921633775678e-17 -1.46
0.02513146526968838 -1.4397806810252034
0.04955728531755153 -1.419134974367116
0.07274697917769211 -1.3880950533088576
0.09556636902945158 -1.3666627488559593
0.11853181013681538 -1.354824789404774
0.14006814077865565 -1.3326593397934863
0.16208622672884618 -1.3200863816829582
0.18370849326728642 -1.307153850738873
0.20336480455230022 -1.2839948427736791
0.22226966741367093 -1.2605539238556263
0.24232742412821204 -1.2466665229785332
0.2619687304303766 -1.2324659769245951
0.2789393073863928 -1.2082188803336917
0.29514471263159453 -1.1837607860567156
0.18893790292484014 -0.7051258531910198
0.19294614907189941 -0.6728831871568232
0.21050762740037046 -0.6885394242933854
0.3615498834186885 -1.1127361240653295
0.384170422259445 -1.1157119192071936
0.4001635676910325 -1.0994403663195127
0.41570682147254817 -1.082953294736754
0.43079758242829896 -1.0662614327518054
0.445433486477772 -1.049375532935782
0.4636797731064124 -1.041441821712565
0.4775586357669903 -1.0241277993514144
0.4953593958716575 -1.0156372723180587
0.5130092647056879 -1.0068373723328554
0.5258081503201978 -0.9889013040019982
0.5381386784734342 -0.9708278749247293
0.5550000000000002 -0.961288198200727
0.5716922631501604 -0.9514557037793446
0.5829111906565254 -0.9328529057720687
0.59910293851653 -0.9225376247399664
0.6151121938178216 -0.911941329810546
0.6309340799861507 -0.901067248717891
0.6465637775217205 -0.8899186938124423
0.6619965254672532 -0.8784990610520221
0.6772276228582241 -0.8668118289673942
0.6859592262443229 -0.8470890979880982
0.7006384945583279 -0.8349884429996861
0.7151043415996531 -0.8226334424428214
0.7293523609311555 -0.8100278597703597
0.7433782124681234 -0.7971755347648959
0.7571776238003072 -0.7840803823691297
0.7778174593052024 -0.7778174593052023
0.7912737803725164 -0.7641242075048971
0.8044890717810875 -0.7501981960687484
0.8174593080251338 -0.7360436669947441
0.8301805382450493 -0.721664931889558
0.8426488874308758 -0.7070663706551933
0.854860557602668 -0.6922524301548213
0.8746919365034614 -0.6833842376114808
0.8864854161524951 -0.6680146756987736
0.8980088637561917 -0.6524416300446453
0.9174502896036709 -0.6424056087131716
0.9368124569871971 -0.6318879809219439
0.9476977417783291 -0.6154421095669804
0.9667748296183255 -0.6041079612258535
0.977170722800408 -0.5871434053974617
0.9959292143521045 -0.5749999999999998
1.014558860281699 -0.5623791594857509
1.0330486836449446 -0.5492817284594922
1.0424776333003904 -0.5311688846952697
1.0605769746330171 -0.5172779532111114
1.0785062665736134 -0.5029157314714323
1.032306367136139 -0.4596124066756541
0.7695625992904336 -0.31092347253520697
0.7842075582576494 -0.3010290776180522
0.9678833994094858 -0.35228074762543876
0.9455185755993168 -0.3255681544571567
0.9320353859692504 -0.30283665448744845
0.9180525657245141 -0.28067683653382725
0.9228112281007861 -0.2646118615843192
0.9272887932375056 -0.2484662832984199
0.9314838972249566 -0.23224501977568102
0.9353952621938258 -0.21595301217011037
0.9390216967044535 -0.19959522318504894
0.9619946397787107 -0.18699281546901392
0.984807753012208 -0.17364817766693033
1.0074421074070405 -0.1595631543410355
1.0298787914912333 -0.14474002499846805
1.0421734592233882 -0.12796281057540485
1.0541932090903698 -0.11080017106371268
1.0758902739390852 -0.09412820216747082
1.0973204552858067 -0.07673212111853783
1.1084787835775771 -0.05809291142966765
1.5790375066901714 -0.055141204789951534
1.619753266153354 -0.02827289842839929
1.65 0.0
1.6897426048143012 0.029494566879009133
1.7189522224728446 0.060027134328301666
1.75758798116805 0.09211128298758113
1.7956152904676836 0.12556165273942554
1.8230362975078944 0.15949500922821444
1.8697011632923537 0.19651351094318847
1.9156140726677513 0.23520783277193463
1.9607307761083093 0.27556273990092955
2.014884214814081 0.319126308682071
2.0582482037955145 0.3629246913238844
2.1104984444124772 0.4102393400595713
2.171487673629049 0.46156395361542574
2.241051149006041 0.5173874249908894
2.183165384120992 0.5443242650992524
2.173333109150404 0.5823428514806717
2.1436135819424513 0.6146713034719081
2.122996558237939 0.6490651844844756
2.082813770686386 0.6767472176811348
2.070685680562504 0.7129942582611731
2.0391329871054213 0.7421837110167011
2.0071979169689835 0.7704910915223956
1.9841734487729252 0.8016581099100517
1.9606753378536979 0.832257303682153
1.936716370202314 0.8622816833206963
1.9848140536102634 0.9255339932121317
1.9773469018581677 0.9644165229359704
1.9602143532144096 0.9987790994270029
1.9424847042896396 1.0328374381289598
1.8804323703497008 1.0423406835296247
1.853294364098699 1.0699999999999998
1.8171946774884782 1.091880718809315
1.7893814828900587 1.1181296475320623
1.777981604044299 1.1546347542318574
1.7658500295422388 1.1910808843926906
1.8349005792073418 1.2848112174263433
2.2167065645873563 1.6105315912813765
2.212220362831001 1.6670276141311737
2.1827897874906195 1.7053822866520736
2.1449228536212392 1.7369242792975514
2.1066222185771895 1.7676659266379828
1.1396114661363856 0.990649133775666
1.1147172382160915 1.0036959095382874
1.0970305524287558 1.0229975400937477
1.9853778489346772 1.9172571024668323
1.9516147160748711 1.951614716074871
1.9242036861714227 1.9925712469380634
1.8891354573731207 2.0258497534851023
1.8534917796140373 2.058511166572382
1.8238441005936104 2.0980926330193057
1.793377431025445 2.137263996301949
1.7495106871185482 2.1604657728503787
1.7176955161585867 2.198550002562754
1.6911002150572556 2.244165783232893
1.6575544114647742 2.281427924137352
1.6174855505099497 2.3100087648949565
1.5881078458569209 2.3544667060563182
1.5522212497928276 2.390211118644458
1.520868288349298 2.433898035968943
1.4781592749918562 2.4600701530150624
1.4500000000000002 2.5114736709748717
1.4107959949168412 2.5451433477756416
1.3755516789626603 2.587036447076656
1.3347320692342677 2.619559181113801
1.30196230596356 2.6694183175085264
1.2678547852220983 2.7189233611099497
1.2283446620889171 2.7589072820806546
1.187822630607392 2.7983347544954187
1.1537883077210096 2.855726272065705
1.1001896051040714 2.8660919093464092
1.0123796242439798 2.7814901575262887
0.9311249217474683 2.704183126214046
0.5655010997061538 1.740433424820131
0.5116504832647893 1.673533322935312
0.46582713133072856 1.6245322661357589
0.424463233968134 1.5841183551140718
0.3943326898274583 1.581582033829874
0.36891972912393883 1.5979669062477857
0.3472125236656579 1.6335064932254555
0.28048922320352104 1.442991959668066
0.23095207629701747 1.3097943115062367
0.20492914920270253 1.2938717261796304
0.1781415692288838 1.26754312798921
0.15355537269048583 1.2506081510680658
0.1296152944518903 1.2332071502566588
0.10545844872466661 1.205395584691012
0.08370776849295028 1.197076860311789
0.061756428366673874 1.178382851010397
0.04013442120787624 1.14929945107196
0.019721219274130463 1.129827895526722
