# .PCD v0.7 - Point Cloud Data file format
VERSION 0.7
FIELDS x y
SIZE 4 4
TYPE F F
COUNT 1 1
WIDTH 172
HEIGHT 1
VIEWPOINT 0 0 0 1 0 0 0
POINTS 172
DATA ascii
2.828934106030386e-16 -4.62
0.08010654554713172 -4.589300920767836
0.1580947200623299 -4.527240446396504
0.2349884435308184 -4.483846611048037
0.3097187434239161 -4.42918438315362
0.3834852680896968 -4.3832566716036805
0.4557440998469691 -4.336115463805672
0.5289129503783401 -4.307650298123337
0.5984443341282815 -4.258152695588753
0.6664108210713837 -4.207552330935287
0.7345317915311157 -4.16573679524164
0.8013977805814887 -4.122834170480189
0.8690708676182335 -4.088656971067308
0.8818081330279514 -3.819530653958122
0.9410761738827073 -3.7744503752136263
1.0042178949977805 -3.747792206001585
1.0639601934536167 -3.710470146321911
1.1256310631825366 -3.6817733104576864
1.1804449185122992 -3.633035892247486
1.2371589869371955 -3.5929705872774034
1.3030967460707983 -3.5802288851943107
1.4263044391902946 -3.715650097458863
1.4834421099270123 -3.6716480640844775
1.5472952688175239 -3.645199219671664
1.6025423737186535 -3.5993691031118473
1.660889768640949 -3.5617896030540344
1.7227986068810746 -3.5322606019557266
1.7841826639764193 -3.5016556400602856
1.840328526120692 -3.461154564006993
1.9004537113656415 -3.4285092519864313
1.9550000000000005 -3.386159328797155
2.0137988728983127 -3.351524145745259
2.071984323151831 -3.315868055971626
2.1295386269087566 -3.279201920666608
2.1864442525706203 -3.2415369086902133
2.2484196304961004 -3.211076013612848
2.304118188986495 -3.171346617949794
2.36513304098755 -3.138637554485861
2.419549598029837 -3.096882261674417
2.4732291368258617 -3.0541836285258954
2.5261553060681 -3.0105546614575838
2.5914331645125044 -2.9811028418799492
2.6497572011810786 -2.9428535088904813
1.814115637766246 -1.9454008463069936
1.6880198402153637 -1.7479957148229222
1.7182694782833108 -1.7182694782833103
1.7551891128263089 -1.6949664239199533
1.7918165689669678 -1.6708959821531213
1.835567718929164 -1.65275259770638
1.8716797589524745 -1.627026391896458
1.9074506633662554 -1.600541148119483
1.9506363632569965 -1.579594181535092
1.9936672066250063 -1.5576235325739154
2.0285341955201237 -1.5286101588062027
2.062993335656116 -1.4988523933458064
2.097029233379819 -1.4683556770586779
2.147207312917558 -1.448309619989234
2.1889301823375567 -1.4215078813892204
2.2218860119298363 -1.388388472290997
2.2714933468605976 -1.3648508985116434
0.8746856578222831 -0.5049999999999999
0.8658735100680017 -0.4799615240438737
0.7593349298586772 -0.4037455439958661
0.7662656108019964 -0.3904318297760102
0.9167699272251504 -0.44713856972485894
0.815677008332985 -0.3803564355666295
0.959222730524731 -0.42707347522959016
0.9665300961250625 -0.41026768491373744
0.9828148858407947 -0.39708298902086675
1.008266860616978 -0.3870373855089243
1.0148680304487812 -0.36938175479172225
1.0400704331592485 -0.3581249699028724
1.0746938634135235 -0.34918920364369055
1.0997504693574909 -0.3362274604311472
1.1054509503290666 -0.316982959189549
1.159110991546882 -0.3105828541230249
1.1643548715311958 -0.29030627471960124
1.1789877783901346 -0.2721907757560766
1.212903024909919 -0.25781049661402156
0.8932807369373742 -0.17363618579265577
0.5219481090964703 -0.09203353416347308
0.4839672868916175 -0.07665288786971312
1.3697136892650241 -0.1681796938991035
1.3823854345618998 -0.1452945639420383
1.1257000088436724 -0.09848598930485372
1.1372230172961995 -0.07952238006830284
1.5179168928269522 -0.07955065348927462
1.5290679653392165 -0.053396229954826485
1.5797593583470984 -0.02757480217090795
1.61 0.0
1.6397502200564815 0.028621946557144957
1.7389400390132266 0.06072512426235169
1.7476016858205041 0.0915879234251517
1.717847571033412 0.3339157419089534
1.731321253298836 0.368003692747434
1.7051476133741617 0.39366434510176374
0.8538602391228769 0.21289126812770762
0.8306962106085988 0.22258437878816784
1.6629827339732917 0.47685262556340857
1.6544072278160515 0.5058030491703345
1.635817208027664 0.5315092303249095
1.6168367642748318 0.5567215441217379
1.5974774553360442 0.5814342436536368
1.577750920780271 0.6056418347315574
1.5576688756722028 0.6293390769387321
1.5464481538000998 0.6564282958619798
1.5256209142631434 0.6792501939365863
1.504470926480839 0.7015463144895611
1.4919981168566172 0.7276961036698685
1.4612506996689232 0.7445444195728567
1.4480340522886401 0.7699333629688608
1.792970399635761 0.9938597215049909
1.97453792062852 1.1399999999999997
1.9629131186078372 1.179437191544024
1.3992793586581027 0.874366785984788
1.1405919724057767 0.7407090876204367
1.0611680928704534 0.7157669164425559
1.00755701447546 0.7054990167117866
0.9627302233061874 0.699464450228043
0.9184308365543867 0.6920872766248555
0.8746919365034614 0.6833842376114808
0.8393176383735285 0.6796660223338246
0.7966862208437372 0.6684991140740009
0.7773508676294552 0.6757407998602225
0.7357133772226203 0.6624393002952697
0.7020995535544036 0.6547184256599985
0.6761794123183321 0.6529788682314573
0.6576093065034893 0.6576093065034891
0.6668720356406375 0.690566208325105
0.6547184256599985 0.7020995535544036
0.6557479942316811 0.7282819289678464
0.6494984387006023 0.7471624844205442
0.6492154857834047 0.7737048875501678
0.6482000027813326 0.8004603403006799
0.6402879343386847 0.8195311837509908
0.6379239245411712 0.8465536406501304
0.634808072475871 0.8737383539249433
0.6309340799861507 0.901067248717891
0.6262960518872365 0.9285220812616468
0.6208884999171309 0.9560844474577832
0.6094071538681856 0.9752553105798899
0.6077449283938642 1.0114574148284923
0.6050000000000001 1.0478907385791707
0.5963158329029946 1.0757822397814567
0.5915341691102225 1.112513967002248
0.5811078396666199 1.1404883509611108
0.6049521825689268 1.2403357838928504
0.6381535752284562 1.3685247584253415
0.5612965674446044 1.260692731546789
0.5313943347454123 1.251886600695319
0.5207031648481178 1.2887855578478342
0.5733887192724803 1.493728682395523
0.5438120278878135 1.4941112670495944
0.5143976840423077 1.4939193494469205
0.48206651122491806 1.4836481654204396
0.4502524252730146 1.4727093241830747
0.42172515440000874 1.4707303947856278
0.3934049485558315 1.468207255959384
0.3628828433995015 1.4554435894139948
0.33517707097235905 1.4518113965300006
0.30770930241028366 1.4476584490860325
0.27476495334222467 1.413543144164636
0.2483168940637105 1.4082750868074574
0.22682997430833482 1.4321480938629498
0.11829713581605564 0.8417278584303348
0.09505808785601505 0.7741859982802312
0.08362277061412277 0.7956175162946186
0.12288959727419828 1.4046345243093612
0.09905419271665783 1.4165409513689502
0.07431705786498043 1.4180539393514948
0.03978542624085123 1.139305542801769
0.018674074887893452 1.0698370338173386
