# .PCD v0.7 - Point Cloud Data file format
VERSION 0.7
FIELDS x y
SIZE 4 4
TYPE F F
COUNT 1 1
WIDTH 180
HEIGHT 1
VIEWPOINT 0 0 0 1 0 0 0
POINTS 180
DATA ascii
1.5124387969469814e-16 -2.47
0.04153672732073496 -2.3796375144722113
0.0806178373827775 -2.3085928104141114
0.1172325419841945 -2.2369301578502454
0.15067398328731052 -2.1547383485612204
0.18389861719755912 -2.101970812973583
0.21323806506601306 -2.0288246665512775
0.24130129994219202 -1.9652413802498174
0.26860408485292636 -1.9112173726712307
0.2940967942756341 -1.856854080318859
0.3212491286838213 -1.821894343072585
0.34345619167778085 -1.7669289302057951
0.36592457583925625 -1.721539777291498
0.3891653240148867 -1.685660212078457
0.40884800356343837 -1.639799777406434
0.4270514244191592 -1.5937776133769626
0.4465325164235387 -1.5572439474200768
0.46487101050915147 -1.5205245619812264
0.3430088637561917 -1.0556727330876206
0.3646363329920156 -1.0589808046712348
0.5027696106887332 -1.381348152555285
0.5268008858315912 -1.3723632269508865
0.5469256263872317 -1.3536884276675094
0.5626528250245542 -1.325526988971514
0.5734986667368785 -1.2880990952760671
0.5874393838195722 -1.2597678239809433
0.6005684711010362 -1.231347843429859
0.6128871746483883 -1.2028588076542965
0.6290918941330937 -1.183149774430962
0.6351006025227016 -1.1457518163526084
0.6500000000000001 -1.12583302491977
0.6592487358848697 -1.0971741448987036
0.6729974655761702 -1.0770210821186612
0.6862451841189343 -1.0567249156112342
0.6989911293384334 -1.0362969656938021
0.7054990167117866 -1.00755701447546
0.7170980077968172 -0.9870007331374359
0.7281961780139784 -0.9663489671572243
0.73879377039079 -0.9456129043280662
0.7488912653493066 -0.9248036941337952
0.7584893794301164 -0.903932442880394
0.7675890639188936 -0.8830102088606431
0.7761915033762755 -0.8620479975537773
0.7842981140718732 -0.841056756862046
0.7988571260278469 -0.8272407703894487
0.8061017305526642 -0.806101730552664
0.8128539743826758 -0.7849639586186669
0.8264296828296626 -0.7706581468706232
0.8323222045346816 -0.7494262791219213
0.8452747298495047 -0.7347861124693682
0.8426488874308758 -0.7070663706551933
0.854860557602668 -0.6922524301548213
0.8668118289673942 -0.6772276228582241
0.8784990610520221 -0.6619965254672532
0.8818285238686928 -0.6406859249987957
0.8928757282750012 -0.6251983156226403
0.8704894511827939 -0.5871525486442841
0.6457763373179766 -0.41937205696157076
0.6275555911557552 -0.39214025553257165
0.9171690117512602 -0.551090740153758
0.9353074360871939 -0.5399999999999999
0.9445892837105475 -0.523594389866044
0.9535834002876412 -0.5070292878087621
0.9622870461234374 -0.4903097397187105
0.9706975700031004 -0.47344083853220364
0.978812409999582 -0.4564277226799554
0.986629094254009 -0.4392755745218642
0.9941452417286357 -0.4219896187684156
1.0013585629321304 -0.404575120889185
1.008266860616978 -0.3870373855089243
1.0242649566566402 -0.3728019562249789
1.0306152474032555 -0.35486928835830084
1.0366516027617174 -0.33682852386869266
1.0423721839997089 -0.31868515814778303
1.057387865532151 -0.3032010913986991
1.0625184089179753 -0.2847009496127728
1.0673252989035962 -0.26611408515963453
1.0718070712637588 -0.2474461597782515
1.0759623608071864 -0.22870285989953526
1.0896061736269071 -0.21179798486796475
1.1029846833736732 -0.194485958986962
1.1062109414665544 -0.1752066008450586
1.1190029176779743 -0.15726560408487392
1.081875305289041 -0.13283758431161075
0.8055627352483015 -0.08466805524679931
0.8168796524352313 -0.0714677090530797
1.157174298301396 -0.08091750954318534
1.1683965556628513 -0.06123306880424428
1.179281175882533 -0.041181406108951144
1.1798202802845417 -0.02059383959599454
1.2 0.0
1.1998172341876694 0.020942887724740213
1.219256808963297 0.04257738597705118
1.2283143277481259 0.06437322617882091
1.2270037818195838 0.08580046270527412
1.2352814256337645 0.10807312100709612
1.0343027711830042 0.1087096017983596
1.0123970746741484 0.12430673027325043
1.000170749428986 0.1405648319696661
0.9975652240010892 0.15799880969063318
0.984807753012208 0.17364817766693033
0.9718109116131873 0.18890090542277935
0.9585846487191295 0.20375345700140413
0.9548826634895305 0.22045203325698767
0.9314838972249566 0.23224501977568102
0.9272887932375056 0.2484662832984199
0.9420364620195525 0.2701246087006592
0.9467417084034052 0.28944798767550933
0.9510565162951535 0.3090169943749474
1.0306152474032555 0.35486928835830084
1.0994403663195127 0.4001635676910324
1.4657212696006068 0.5626376807861214
1.474222328761192 0.5956244835313002
1.5004229111274776 0.6368917394375161
1.5073500051102913 0.6711154610750703
1.5316601600919384 0.7142248623417821
1.5639016405605506 0.7627657954129947
1.5681714825715276 0.7990232795416022
1.598135143074658 0.8497435286424624
1.6180464582078822 0.8968977974557236
1.6367880131525891 0.9449999999999998
1.671476236369119 1.0043242460746056
1.6876157113512877 1.0545393358240778
1.7192746642881191 1.1165100217808053
1.7492692780911379 1.1798970263232758
1.7775599361071122 1.2446608668817698
1.8202882373436318 1.3225168176580646
1.8528343833097192 1.3962108537127518
1.8833457011200654 1.4714309260283234
1.9273219844132876 1.560714569803597
1.8691484412103063 1.5684017676351558
1.8339442799413361 1.5942234404469329
1.8058419259100682 1.6259873734520256
1.7625624209022008 1.6436160477506214
1.7264155208127627 1.6671800891015933
1.6758430714121177 1.6758430714121175
1.6393937542832338 1.6976419287992164
1.6026961461468714 1.7186811988050505
1.5590743128161397 1.7315274433623287
1.5154963569680722 1.7433791303146031
1.4976951305696367 1.7848835524672189
1.6236466089085808 2.0050365805589845
1.4591176965218102 1.867585486047931
1.4142653044073135 1.8767934486111382
1.3695396378414624 1.8850095968936276
1.3249615679709164 1.892241222307571
1.2861436779827176 1.9067864168765958
1.2581161708847128 1.9373290119539293
1.3671917017216686 2.187964088083579
1.534813463231962 2.5543585560922946
1.2600000000000002 2.1823840175367852
1.0084040101123812 1.8192089908499431
1.3943305414740959 2.622354350791013
1.3483517842264543 2.6462893768394524
1.30196230596356 2.6694183175085264
0.8241056103943639 1.7673001847214673
0.7890690875670527 1.7722781878266456
0.7541110779842982 1.77657436716321
0.7229907252927105 1.7894648393138994
0.8636667584041734 2.2499288278582563
0.8276887468481186 2.274056142301898
0.6902044874491724 2.0044993802705515
0.6396651783561412 1.9686869887309677
0.6081331458232925 1.9891138924031138
0.8296684410091674 2.8933977047743396
0.7790453257585874 2.9074367371300953
0.733023343666993 2.9399960506162692
0.68385120520535 2.962084996947115
0.6341306569941656 2.983350182238107
0.5857836158059928 3.0135954531843283
0.5348363872141457 3.033207879277601
0.4833824969743135 3.0519569724389757
0.43143661297620295 3.0698310130988684
0.3802323514240602 3.0967439931209246
0.3282193746604319 3.1227987514563784
0.2754121470826004 3.147975245969916
0.2225231512437595 3.182229320328839
0.16799841953985012 3.205600806562182
0.11237637938205348 3.2180384630014887
0.05689484498554453 3.2595034862098355
