# .PCD v0.7 - Point Cloud Data file format
VERSION 0.7
FIELDS x y
SIZE 4 4
TYPE F F
COUNT 1 1
WIDTH 176
HEIGHT 1
VIEWPOINT 0 0 0 1 0 0 0
POINTS 176
DATA ascii
5.939536975864663e-17 -0.97
0.01692883424416509 -0.9698522643016995
0.03420150676845106 -0.9794030104787138
0.051289237118085085 -0.9786569440594823
0.06905890900668397 -0.987588409757226
0.08628418532018177 -0.9862327511108281
0.10348317863497693 -0.9845766764145906
0.11943195653704454 -0.9726952286084956
0.1377813699504648 -0.9803653880541546
0.1548701203898286 -0.9778114571891864
0.17364817766693041 -0.984807753012208
0.22324652459055755 -1.1485038046337668
0.2432566782567783 -1.1444326928585526
0.8053247745510372 -3.488244831931142
0.8660803862468103 -3.4736587000680674
0.8722201819954949 -3.25517003459416
0.8296684410091674 -2.8933977047743396
0.8858862653098923 -2.897603410567997
0.9795838721685834 -3.014849156655637
1.0353067311737585 -3.0067490704058275
1.0978846600753969 -3.0164133127227655
1.1575284770313194 -3.0154647775859615
1.2212174945358736 -3.0226193658877265
1.277690790159925 -3.01005087078948
1.3381635557193832 -3.005564555644157
1.411544994213936 -3.0270680087024107
1.4071713811929387 -2.885128888620326
1.829581713950374 -3.5907562924791225
1.9107492605385759 -3.5935967029358324
1.9974156354149089 -3.6034331934143107
2.0800000000000005 -3.602665679743265
2.1734606761204294 -3.6172460089629133
2.257456065633453 -3.612684889626375
2.347394240914767 -3.6146701478447767
2.438081059132456 -3.614603816339982
2.5352078486716234 -3.6206520357573435
2.5039651747659355 -3.446412396037276
2.509568646544041 -3.330310076897211
2.4995855898221726 -3.199323659643291
2.510988360288852 -3.1008123862133137
2.513299553874369 -2.995233772595204
2.5127060810336435 -2.8905376922532167
2.5226223859728956 -2.8016559920497763
1.0843773924993727 -1.162852385574481
1.055880723097676 -1.0933964965147496
1.067731239591687 -1.0677312395916867
1.0718163025045904 -1.035040971983906
1.089717015412564 -1.0161775564931228
1.1221486864708654 -1.010387215601876
1.1848940409497521 -1.0300126755150965
1.225671108990365 -1.0284601754984628
1.2667479171748623 -1.0257922374112352
1.3159779585232256 -1.0281546637938492
1.3656667221808707 -1.0291036895900025
1.415779740156158 -1.028624191511828
1.4662821592772954 -1.0267018210683725
1.4591061276968735 -0.9841795101085143
1.4592867882250378 -0.9476719209261469
1.467123206350617 -0.9167603271234445
1.465756084200612 -0.8807151080961926
1.4635829323957015 -0.8449999999999999
1.4693611079941848 -0.8144801620138462
1.4656930041458187 -0.7793227942245787
1.470160764910807 -0.7490843245702521
1.4740222359306339 -0.7189286807340869
1.4772816928697392 -0.6888677666373401
1.4890790959574394 -0.6629807282135542
1.4543976684548559 -0.6173551830130525
1.4649504902155241 -0.591878417597141
1.5217360951904388 -0.5841397577588394
1.5598897505046079 -0.5677534379206101
1.796485293638702 -0.6185794934685978
1.7974968157978402 -0.5840421193686506
1.7882898936508766 -0.5467350878315177
1.7879467544452732 -0.5126854818196185
1.796622036897667 -0.4814034238906886
1.7950470936105936 -0.44755550685938533
1.792840919204833 -0.4139099399927116
1.7900101093428644 -0.38047839419649954
2.0516008134056176 -0.3987908003369786
2.3241462971088107 -0.40980969929395555
3.1210951562806355 -0.49433290952712955
3.1391497779107778 -0.4411787300434074
3.811377222302676 -0.4679782786757663
4.883102506258222 -0.5132347546441784
6.136559340245153 -0.5368793753255743
8.79 0.0
8.548697793587147 0.14921807503877405
6.516028192164504 0.2275447185003063
5.362640601632061 0.28104408502460837
4.548892069184798 0.31808952027321136
3.9150451635005603 0.3425220689982966
3.4410457579742255 0.36166848290608095
3.057042147055272 0.3753575776878542
2.7529452311015654 0.3869012206689819
2.4988515017056985 0.39577919655178406
2.2946020645184446 0.40460025396394766
1.6098685808541688 0.3129267524175335
1.4280954970713562 0.3035510685939286
1.4225802945864434 0.32842853934204286
1.4166317603629548 0.35320596757551487
1.400592448119149 0.37528761539865507
1.3938294591105624 0.3996741659346488
1.3866418961464015 0.42393897184796825
1.3790319486279725 0.44807464184367374
1.3615467488630162 0.4688181424183056
1.3625543001395672 0.4959292078222196
1.3443558141559704 0.5160498473452324
1.3444165891218418 0.5431795604530724
1.3347320375060385 0.5665601363094469
1.3155054590053452 0.5857007660291522
1.3050832133327759 0.6085702969066071
1.2942634266708004 0.6312544513762715
1.2830493948312498 0.6537463196249473
1.2802740096454441 0.6807337660395416
1.2681985753521239 0.7029739493571887
1.255736835487436 0.7249999999999999
1.2428925860180629 0.7468052086195786
1.2296697394268177 0.7683829331381471
1.2160723235208648 0.7897266007717891
1.210394855930361 0.8164216390672903
1.195961984661928 0.8374215970725272
1.1811648117874232 0.8581664683470107
1.1739941997695205 0.8846680840335109
1.1662559153379484 0.9111789834819742
1.1579474825708864 0.9376873826642579
1.1414062202472772 0.9577535384329435
1.132064370334158 0.9840885434857609
1.1221486864708654 1.010387215601876
1.111657626461139 1.0366375072949976
1.1005898945181363 1.0628273068022658
1.0889444430272832 1.0889444430272832
1.076720474211446 1.1149766905249092
1.1116573269018724 1.1921065336392478
1.5657656188797282 1.7389588916171024
1.5679810792873128 1.803755896732425
1.568401767635156 1.8691484412103063
1.5733009776245939 1.942864903642427
1.5637801473271722 2.0015473141610736
1.7031365155202967 2.2601384934338387
1.704577231648172 2.3461492836873474
1.7092577803261173 2.4410730919811954
1.7167222136551925 2.545145347743978
1.7101665699471855 2.633425583348631
1.7222376087579159 2.7561563125083848
1.7253775509486822 2.871510457352076
1.6900000000000004 2.9271658647914025
1.6338084202301562 2.947468413059764
1.5821191665884522 2.9755333879345836
1.598046559083205 3.1363429651430548
1.5649849940370064 3.2086947452880263
1.538330472736146 3.298960344813406
1.5211950451034935 3.4166600115833274
1.4417978641254199 3.396662909239505
1.3635680000339203 3.374949230623106
1.2901246183630806 3.3608895353899264
1.217591710239381 3.3453057299978335
1.1459999036891917 3.3282253861095947
1.0784693103685667 3.319187241870086
0.41809153775351354 1.3675158010271407
0.3969177923764788 1.3842168421511791
0.37269942494762986 1.3909331898562582
0.3483675296635214 1.397225845837435
0.3216800077117271 1.3933491926428863
0.2973137178693957 1.398751069049342
0.27094877343469376 1.3939106004956827
0.24658041228704117 1.3984270092773352
0.2221369403571279 1.4025174436450956
0.1962340723536923 1.3962779769256142
0.17427316106936092 1.4193409968470905
0.1484304178400679 1.412221091422948
0.12288959727419828 1.4046345243093612
0.09835662797921657 1.406565310866352
0.07431705786498043 1.4180539393514948
0.04955728531755153 1.419134974367116
0.02478241714094271 1.4197837271220755
