# .PCD v0.7 - Point Cloud Data file format
VERSION 0.7
FIELDS x y
SIZE 4 4
TYPE F F
COUNT 1 1
WIDTH 180
HEIGHT 1
VIEWPOINT 0 0 0 1 0 0 0
POINTS 180
DATA ascii
2.982014955923805e-16 -4.87
0.13159114453711834 -7.53885162147919
0.2652361749390082 -7.595370285345127
0.4019401439458096 -7.669474826915127
0.2741429418144122 -3.920426717521109
0.3355496095784847 -3.8353495876532206
0.39407230651905356 -3.7493475455383902
0.45822873120335456 -3.7319735301713703
0.5302495146578494 -3.7729213419053833
0.6038370350552913 -3.812476994697232
0.6807008564543672 -3.8604463918078555
0.7575117116448834 -3.8970599182872263
0.835804997087392 -3.9321533549498984
0.9200498122664084 -3.9851735649716122
1.001556647782624 -4.017024306782625
1.0896281798816123 -4.066547728676977
1.1797278828967566 -4.114200058616005
1.2718169155439047 -4.159925688439204
1.3658551151372678 -4.203669802024579
1.4650566950572055 -4.254833590196926
1.5664522564315633 -4.30379220319946
1.6735783243765516 -4.359820591741932
1.783127384659742 -4.413395147737908
1.8950459731729774 -4.464448539244335
2.0174137496559696 -4.5311854699073
2.146900769642753 -4.604043558146182
2.275146251835312 -4.6647411002926775
2.4106895536169937 -4.731244643440233
2.5539253015552466 -4.8032349051525625
2.705237680974561 -4.880377965837829
2.8650000000000007 -4.962325563684834
3.0335742612202203 -5.048715401135441
3.2113107412532216 -5.1391714627079415
1.6665954471459832 -2.5663319379129974
1.6943544975163627 -2.5119838448417764
1.1528886370656024 -1.6464956090208733
1.0932805692640002 -1.5047716095374024
1.1133577928312894 -1.4774756935874918
1.1451303441057246 -1.465700001708503
1.1642427234421995 -1.437720028695396
1.1827292018232325 -1.4095217753389195
1.1940274327627234 -1.373571436005445
1.204435091445945 -1.3376606858593096
1.2275970481124974 -1.3164366629145068
1.7227527587383134 -1.7839627048398548
1.8526197667087547 -1.8526197667087545
1.9925712469380639 -1.9242036861714225
2.157493419776553 -2.011895162184371
2.2740231659608265 -2.0475396554581065
2.3018642196794543 -2.000980038421047
2.321114662650503 -1.947646457350214
2.3469808036000517 -1.9005475809705092
2.3719123683562326 -1.8531410407302313
2.3959065301418785 -1.8054450694561448
2.4108706432373435 -1.75160005183157
2.424690051095416 -1.6977862515990962
2.4539512147629234 -1.6552109942734106
2.4908515867979095 -1.6175779339946301
2.5187028455845852 -1.5738602147726186
2.5372152100782523 -1.5245127017337603
2.5634351952019387 -1.4799999999999998
2.5888743331326114 -1.4350364759291576
2.648842778576781 -1.4084146883576725
4.766884904407768 -2.428849173606575
3.846838518160435 -1.8762285082572514
3.851808094905762 -1.7961276123979726
3.9282454678631837 -1.7489675652259407
3.9121456271728716 -1.6606072960794134
3.829269319360832 -1.5471252308077166
3.855687161433443 -1.48005963162209
3.8809305238458016 -1.4125431919350118
3.9144469029811715 -1.3478521594526287
5.1547263183197325 -1.6748721095122148
5.202297872438914 -1.590502073691688
4.9216598832041925 -1.4112632617830358
4.684740257501981 -1.2552723687472256
4.715637229701343 -1.1757404126143853
4.754925916151948 -1.0977611451980611
4.78314176758831 -1.0166881680988429
4.839422014396983 -0.9406883472063658
5.11115223813336 -0.9012340420913685
4.938441702975689 -0.7821723252011543
4.961243024395268 -0.6972572358099278
5.002432604272263 -0.6142214907619433
5.042226009517146 -0.529959308767003
5.0706310132869845 -0.44362273058558005
5.805822772512177 -0.40598267719080927
5.861955369009348 -0.3072120631460803
5.906399787682856 -0.20625602551178074
5.97908921703522 -0.10436539049495541
6.02 0.0
6.069075509599295 0.10593610707431092
6.136259677897248 0.21428290975335593
6.1915031154783575 0.3244829287062517
4.658624114713379 0.32576273238506515
4.602419505183865 0.4026595314941807
6.345049692449583 0.666891595647629
6.431699062635767 0.7897133452653557
6.387229043383129 0.8976665011924221
6.212559662343416 0.9839727851030522
2.343842452169055 0.41328266284729415
2.3068238811020105 0.44840113913488033
2.259520957695091 0.480276005789024
2.221563747710336 0.5128884039040121
2.173462426858232 0.5419050461432557
2.1153775595730595 0.5668137087745204
2.085937880186152 0.5981330621228882
2.046492177760896 0.6256754481066567
1.9972186842198225 0.6489356881873896
1.9572234514905857 0.6739260797263144
1.6820497912067762 0.612216056552947
1.661773159165019 0.6378949501906345
1.6132999069462102 0.6518154725436869
1.5832683479381975 0.6720575410015508
1.5621627325688474 0.6955196596596183
1.5135340043512053 0.705772497106968
1.4560463550046507 0.7101612577983054
1.4523406344270395 0.7400045145754611
1.4745224800744081 0.7840175098524376
1.4955996992083667 0.8290244506212363
1.5155444566227678 0.8749999999999999
1.5514728142708234 0.932218915587198
1.5773694588509524 0.9856498314737612
1.6018607847757598 1.0402605568787016
1.5420098849523778 1.0400988004555891
1.515431281934635 1.0611164072494352
1.4805010997061538 1.075647011695226
1.4455302731856001 1.0892851919052073
1.4105392489560322 1.1020340408329283
1.3910912710079777 1.126483499979209
1.355898664320591 1.1377340691451745
1.3358359569943066 1.161224481313198
1.30050344458544 1.170978561128002
1.2652419038011649 1.1798571629081223
1.23726445658248 1.1948123971894753
1.2162236636408619 1.2162236636408617
1.1878658134848854 1.2300710585790933
1.1593972121062475 1.2433012927525897
1.1375220308100589 1.26334620331157
1.1087397589939574 1.2754591905764845
1.079883184273386 1.286954664439883
1.057258256963727 1.305605215247711
1.0343112785471058 1.3238580660592927
1.035121839821523 1.3736530772813436
1.0109906339430539 1.3915092303249097
1.0611164072494352 1.515431281934635
1.1687131682538607 1.7326885266400371
1.3234728550865162 2.0379694801073804
1.5261674809916301 2.442378516930507
1.998347730651011 3.325809126724195
1.9350000000000005 3.3515183126457773
1.8762132303533248 3.3847782666294615
1.8168549479813978 3.417007184364047
1.7569432339920463 3.4481952486089833
1.69649633807373 3.4783329591777767
1.635532672936507 3.5074111358318354
1.5740708087033475 3.5354209210768652
1.516036778538382 3.5715588313954685
1.4534735824537393 3.5974733557191345
1.3940513237312178 3.631627859074115
1.3338785589701083 3.6648012210650425
1.2762271654720545 3.7064328163493214
1.211346617949794 3.7281415438770016
1.1519445166075828 3.7678407384943595
1.0887675554771468 3.79698369895636
1.022335228154957 3.81540701384182
0.9604299255306807 3.852074033315706
0.897554706832022 3.887736558493089
0.8337258801792145 3.9223718789425606
0.768960251367476 3.955957549294086
0.7032751195510681 3.988471399699442
0.63668827271374 4.019891546222211
0.5706097139362684 4.0600990818404386
0.5033203882632591 4.099215606278659
0.4107968606418781 3.908471048797314
0.328577150158672 3.7556540118058805
0.2532159996911746 3.621157502443162
0.182129127725445 3.475230780945917
0.11761130388742864 3.3679470870543526
0.05689484498554453 3.2595034862098355
