# .PCD v0.7 - Point Cloud Data file format
VERSION 0.7
FIELDS x y
SIZE 4 4
TYPE F F
COUNT 1 1
WIDTH 174
HEIGHT 1
VIEWPOINT 0 0 0 1 0 0 0
POINTS 174
DATA ascii
8.450062914116737e-17 -1.38
0.024084320883451363 -1.3797898193158198
0.048161305449451484 -1.379159341286352
0.07222361961526266 -1.3781087579613118
0.09626393376689281 -1.3766383893585572
0.12027492499176853 -1.3747486833666087
0.1452945639420383 -1.3823854345618998
0.169398387333155 -1.3796391507814374
0.19484234134409165 -1.3863752962381983
0.21744390640592096 -1.3728867934272415
0.24310744873370257 -1.378730854217091
0.2690406834809283 -1.3840943286612062
0.2952346009612181 -1.388969593042004
0.3194304971682885 -1.383605491995034
0.34594831070752474 -1.3875228885746749
0.37269942494762986 -1.3909331898562582
0.3996741659346488 -1.3938294591105624
0.4268626888951957 -1.3962049437060318
0.45425498173117274 -1.3980530789538756
0.481840868596592 -1.3993674918869887
0.5096100135552466 -1.4001420049710034
0.5339682448224973 -1.3910348354808306
0.5619098901238683 -1.390775781850181
0.5900040040188033 -1.389962328713185
0.6223070639059746 -1.3977245501931794
0.6508321230806772 -1.395713992036441
0.6838589889909609 -1.4021187122267007
0.7173049895884841 -1.407790308217621
0.7464597848295665 -1.4038866726456938
0.7756953923941394 -1.3993915314230332
0.8100000000000003 -1.4029611541307907
0.8498128236015897 -1.414326046158485
0.8849651712694522 -1.4162403205812315
0.920439969175396 -1.4173532598277665
0.956219864934977 -1.4176542490691213
0.9922872348873096 -1.4171330366199557
1.0345020440347528 -1.4238699100999075
1.0712307412106459 -1.4215712078841813
1.0835641965731586 -1.3868989263478306
1.107603888247714 -1.3677768921642686
1.112022564757713 -1.3252568865958319
1.1415427104434828 -1.313194669587623
1.170978561128002 -1.30050344458544
1.2139570809112472 -1.3018095888821235
1.2781714016445551 -1.3235852326231181
1.3293607486307093 -1.329360748630709
1.3667456206434372 -1.3198509038720947
1.4261397181573823 -1.329896802121872
1.4788582027000146 -1.3315699066541278
1.532060447852227 -1.3317998288507296
1.5933724416874744 -1.3369982281480017
1.647549438288778 -1.3341592290256556
1.7178634428626538 -1.3421420162099351
1.780957187405463 -1.3420475016290676
1.84455874717488 -1.3401503752268387
1.9168157836362407 -1.3421688610614477
1.9979805498576506 -1.3476548973645
2.088289714184106 -1.3561511971874174
2.1710031261604503 -1.3565933164370045
2.2543500008465553 -1.3545501370134423
2.346928844255829 -1.3549999999999998
2.457681377061702 -1.3623150328922071
2.5693774952194777 -1.3661622477069424
2.690839703048871 -1.371051309213431
2.8132253649163927 -1.3721016894498121
2.9545633857394784 -1.3777355332746801
3.106054555984843 -1.3829045864577205
3.276997278290688 -1.3910028174218145
3.458395777534117 -1.3972825934413518
3.6596352718690306 -1.404802362217577
3.8903274500536607 -1.4159633933682683
4.150826546881 -1.4292441980669177
4.431923365935416 -1.4400191937872548
4.752834637136287 -1.4530873724720015
4.8063084796915945 -1.3781867790849958
4.810310614919561 -1.2889188446105533
4.812666802328942 -1.199932602174352
5.320060553727385 -1.2282327567175026
7.316544053488867 -1.5551794473168397
8.157321894450089 -1.5856227515790875
9.296585188435243 -1.6392387971758222
9.81762210551567 -1.5549585824998948
9.853167283978625 -1.384772354552651
6.219052663872754 -0.10855396803990344
5.92 0.0
5.949093786180528 0.10384181830183689
5.9563693290338104 0.20800100034690577
5.961818322484805 0.3124456587703746
5.965433020553749 0.41714371298986935
5.967206241569556 0.5220628990584725
5.967131372209639 0.6271707796059207
5.965202371364345 0.7324347538649363
5.981219135199085 0.8406055297987952
5.985391344006534 0.947992858143799
4.323306035723593 0.7623154999578241
3.975590092963039 0.7727764312750064
3.7267423587957995 0.792143542015663
3.4687574306354376 0.8008257534641593
3.250490683024588 0.8104383502588869
3.052325611073456 0.8178681825239655
2.8837850878149567 0.8269120674509975
2.715905506935021 0.8303356414125722
2.586873724322818 0.8405262246998569
2.4583482965582237 0.8464772015886074
2.3398346257569123 0.8516301568809151
2.2405930235932843 0.8600830789087206
2.132522865503611 0.8615951648565976
2.034315726129893 0.8635157939612949
1.9458518247787397 0.8663490497514543
1.8669940412954988 0.8705936191858409
1.7796122116723507 0.8679748706423732
1.7107325264416664 0.8716617594999297
1.6511119986461935 0.8779118224096158
1.5830616699223063 0.8775054126458701
1.5328649646984565 0.8849999999999999
1.465756084200612 0.8807151080961926
1.4247208015427955 0.8902643639117842
1.3754197314304955 0.8932080174246442
1.3181697403625163 0.8891167165184874
1.2778771890908271 0.8947792407076318
1.22970583144992 0.8934335834845591
1.1819805548699933 0.8906862342650315
1.150495700265814 0.8988657539754611
1.1113187248834682 0.8999281592012676
1.0724622203665692 0.8999026535611548
1.0339521249051977 0.898800869716995
1.0032455143944823 0.9033263185844587
0.9580733491211133 0.893417851681873
0.9279483424368601 0.8961092978921065
0.8909545442950499 0.8909545442950498
0.8613763793691567 0.8919813524199274
0.8320379992762481 0.892251515975388
0.8096480336942184 0.899205238827647
0.7872708347886088 0.9056514962673262
0.7584893794301164 0.903932442880394
0.7300116536178115 0.901489315290086
0.7018540818712504 0.8983322591116629
0.6800509761618144 0.9024581263534408
0.65831948256757 0.9060990336999413
0.6366698443496611 0.909258769160781
0.6151121938178216 0.911941329810546
0.5882101578162294 0.905764213381058
0.5723128053718614 0.9158919438489402
0.5459403594046577 0.908597338744239
0.5250000000000001 0.9093266739736605
0.509050101258654 0.9183506924963656
0.48825042529732654 0.9182654965732839
0.46761021473173325 0.9177367199140188
0.4515222811927498 0.925757867688142
0.43107062697551346 0.924433942777383
0.4108040095065584 0.9226809122190269
0.3985457510590592 0.9389149505214892
0.3783526593500713 0.9364556931124552
0.35836794954530016 0.9335804264972017
0.3420201433256688 0.9396926207859083
0.3223124729125852 0.9360633898433236
0.30592682443119795 0.941545951132202
0.286524270628282 0.9371786608437747
0.2728809822588292 0.9516490789789357
0.2510544737494451 0.9369480515003963
0.2370834576876743 0.9508898117504765
0.21595301217011054 0.9353952621938258
0.20167434009322646 0.9488031727117915
0.21179798486796486 1.0896061736269071
0.26915467538374216 1.5264520171689224
0.561599729494429 3.5458011427365443
0.4982397014370344 3.545159686094822
0.43507355595637653 3.5433897613595193
0.3731666138655228 3.5504431664647353
0.31114600160914035 3.5564150721875314
0.24833304652908583 3.5513280189249743
0.1863160042248805 3.555121143726283
0.12424220826090385 3.557831344187981
0.062130566916729614 3.559457794756753
