# .PCD v0.7 - Point Cloud Data file format
VERSION 0.7
FIELDS x y
SIZE 4 4
TYPE F F
COUNT 1 1
WIDTH 180
HEIGHT 1
VIEWPOINT 0 0 0 1 0 0 0
POINTS 180
DATA ascii
5.878304635907295e-17 -0.96
0.016579786115419416 -0.9498553103985716
0.033154521867376024 -0.9494212856681409
0.04919579886836733 -0.9387117626692993
0.06557108531947771 -0.9377102072442347
0.08105484075532228 -0.9264610692253235
0.09721147083891772 -0.9249053626924942
0.1121197959327357 -0.9131424595100163
0.12803925288326024 -0.9110466232422447
0.14391970783701247 -0.9086732733475268
0.1580198416769067 -0.8961750552411093
0.17554427574642134 -0.903097008771851
0.1891996386441609 -0.8901143166677632
0.20245594890947863 -0.8769330583067118
0.16208767005177735 -0.6500981366049177
0.16564418886561327 -0.6181925288250038
0.17640790772287948 -0.6152074854005241
0.18711789102255152 -0.6120350438163427
0.1946807064562169 -0.5991656052659468
0.2116193003971519 -0.6145870741395559
0.9542361998786161 -2.621742411992684
1.0034302587268404 -2.614025194192165
1.0526445274987133 -2.6053866313326726
1.0979544710548592 -2.5866186382013576
1.146997333473757 -2.5761981905521343
1.1917834981087723 -2.555787959443353
1.2405903454130893 -2.543587151026643
1.2938729242577085 -2.539368593936848
1.3098256601726355 -2.463423784076406
1.2459607240330863 -2.247772647348247
1.2900000000000003 -2.234345541763852
1.4833096557409566 -2.468641826022083
1.5367658662762942 -2.4593394788536354
1.5848995918937292 -2.440531352721184
1.6328432781345805 -2.420789711860722
1.6863147228720754 -2.408307010209636
1.7398443467857205 -2.3946903033498446
1.7934087689931038 -2.379933819940933
1.846984425976975 -2.364032260820166
1.8942543770600107 -2.3392093439854817
1.9540743334470796 -2.328775107081693
2.0009800384210474 -2.3018642196794543
2.0609222675852834 -2.2888860624703744
2.10737493259312 -2.2598829380032366
2.077028527672402 -2.150826003012567
2.0364675298172568 -2.0364675298172568
2.057311828968542 -1.9867229395127322
2.0404768275174856 -1.9027754245743709
2.0139224770437383 -1.8133439432325058
1.9848861959858903 -1.725435246245034
1.9687342188157733 -1.6519641568944057
1.942864903642427 -1.5733009776245939
1.9227462388004013 -1.5022139997946062
1.892766158812084 -1.4263016048703545
1.8850095968936276 -1.3695396378414624
1.8676666609789012 -1.307754274880385
1.8155922838955414 -1.2246324586009354
1.845075249479933 -1.1982058770330595
1.89114725442883 -1.181719959240047
1.920054753572732 -1.1536852877985213
1.8965956342879207 -1.0949999999999998
1.8804323703497008 -1.0423406835296247
1.8630194209323359 -0.9905849974782296
1.8443835050699213 -0.9397603344608617
1.8335398544503008 -0.8942771394497179
1.821678651943666 -0.8494627060988058
1.7996845515559237 -0.8012711868593263
1.7949844642322588 -0.7619257005540837
1.770921162222564 -0.7154985934243919
1.7644670060797112 -0.6773154246406174
1.7478282746617897 -0.6361574665857438
1.7302989933467499 -0.5957897226565968
1.740433424820131 -0.5655010997061538
1.7309116082930944 -0.5291927855481535
1.7110458187702076 -0.4906344933542585
1.6903701960058695 -0.4529333289294113
1.6786116064574739 -0.41852487938742516
1.6759165114306045 -0.38691581347144777
1.555254685166751 -0.3305795884002373
1.531338406178356 -0.2976620327874099
1.5363000946990446 -0.27089115716041134
1.540793811328415 -0.24403776546276015
1.5349155065494342 -0.21571830648810145
1.528521073527636 -0.1876787888439271
1.5116732809597755 -0.15888326416683327
1.5142159410994533 -0.13247672897644042
1.516297356394933 -0.10602984009107046
1.4979443021318608 -0.07850393436441575
1.4890923322584526 -0.05200025008672644
1.489773065783023 -0.026004085591552432
1.48 0.0
1.469776111879895 0.02565503746280676
1.4491166991776887 0.0506042702186264
1.4380265300465862 0.0753637769898391
1.4364922323741467 0.10044932219154043
1.464406206194866 0.1281189418390575
1.5912350325892373 0.16724554122824553
1.5781483811097021 0.1937722560141845
1.604234271361344 0.22546042355530602
1.7580852462593453 0.27845334777161096
1.9302231959039278 0.3403504282271834
2.2479262500951505 0.4369525994122876
3.883245974913209 0.8254094125465046
3.3810641248047664 0.7805801585732115
3.366926170177708 0.839468977730847
3.3421033589601765 0.8955138960547218
3.3259654679465833 0.9537052511268171
3.308814455632103 1.011606098340669
3.290655546381231 1.069198800537318
3.271494271573636 1.126465814421762
3.251336467919243 1.1833896959068138
3.687642684663947 1.415553400703936
3.671648064084478 1.4834421099270116
3.645199219671664 1.5472952688175239
3.042106373949861 1.3544330214424145
3.008941852961678 1.4030926289791221
3.082863578806143 1.5036130334865356
3.0650624432079856 1.5617273191040408
3.0549986712918873 1.6243716072391823
3.0349303837737036 1.6822893822547897
3.013768405169847 1.7399999999999998
2.9915138794503724 1.797482881436089
2.976648817509055 1.860016617458549
2.9605071048473466 1.9225757936030452
2.818727746687142 1.901255871800539
3.2929912180417467 2.305777274131205
3.3816910364872803 2.4569423545825377
3.35426914219863 2.5276230972386027
1.2371768831625534 0.9665885162612835
1.196804780643735 0.9691534022167497
1.1643875535408466 0.9770371667235397
1.1471585619386135 0.9972097240655711
1.1518744794899611 1.0371524398562304
1.1335982375097142 1.0570974580968726
1.1293634865316824 1.0906136416206258
1.1172287142747452 1.117228714274745
1.111453392734396 1.1509436805418418
1.0980173597006226 1.1774794596068645
1.0906828883649389 1.2113260655281526
1.075936807544432 1.2377237115653459
1.0670274320796553 1.2716337755775033
1.0635514608742254 1.3133766748622806
1.0343112785471058 1.3238580660592927
0.9929947882008796 1.3177485915780331
0.9463342561908819 1.3025173609436655
0.9005150050711423 1.286068709533717
0.8555651423102426 1.268427486009214
0.8278513332228413 1.2747792632770445
0.7842805110651433 1.2551111823115106
0.7468052086195788 1.2428925860180626
0.7100000000000001 1.2297560733739028
0.6641891797374819 1.1982289987809722
0.6337866097609527 1.1919792503595514
0.6174270796457838 1.2117688728961802
0.6049521825689268 1.2403357838928504
0.5874393838195722 1.2597678239809433
0.5857007660291526 1.3155054590053452
0.6368917394375161 1.5004229111274776
0.614354813202096 1.520581521489531
0.5805560782633863 1.512400290925467
0.5438120278878135 1.4941112670495944
0.5111420024977361 1.4844641636909273
0.47897634128116856 1.474137600257488
0.4502524252730146 1.4727093241830747
0.41896878084183875 1.4611177778262447
0.3882285676537811 1.4488887394336025
0.3604636244435048 1.4457406321512347
0.33517707097235905 1.4518113965300006
0.31394665313481646 1.4770028771080466
0.2995701227411755 1.5411546780128325
0.28304652959709653 1.605236637409899
0.26280990126758796 1.6593164121998314
0.24216119567051392 1.7230664396103323
0.21936481812926548 1.7865830729543797
0.20173993410657118 1.9194272580607674
0.1699536983579338 1.9425796612789037
0.16183501908637052 2.314348596602792
0.12822309279521274 2.446642360148706
0.08934271155840277 2.558440517168885
0.04781959363815706 2.739582684728512
