# .PCD v0.7 - Point Cloud Data file format
VERSION 0.7
FIELDS x y
SIZE 4 4
TYPE F F
COUNT 1 1
WIDTH 167
HEIGHT 1
VIEWPOINT 0 0 0 1 0 0 0
POINTS 167
DATA ascii
1.175660927181459e-16 -1.92
0.03350862035958451 -1.9197075747002712
0.06700703366880208 -1.9188303878766637
0.1004850359864524 -1.9173687067287817
0.1799717022598431 -2.5737152496703466
0.22399025886148197 -2.560220374095786
0.2477324579443387 -2.357016892022808
0.3034546650788173 -2.471439917586892
0.36741698653457283 -2.614307701477746
0.7477567428923039 -4.721150268044759
0.8265653256945887 -4.68768490433811
0.9063427280385884 -4.662729121376404
0.9855014144761788 -4.636419627478239
1.0617689765030434 -4.59902670578631
1.1394521282744348 -4.570092870759943
1.2164495119818475 -4.539851383558621
1.2927391987817263 -4.508317353950716
1.368299578102408 -4.475506257907005
1.446199533674754 -4.450944496261318
1.5236589628594934 -4.425026933804802
1.60065427076413 -4.397761465278051
1.6735783243765516 -4.359820591741932
1.7494127912523099 -4.329948600826897
1.8247143700449082 -4.2987576656228965
1.8994601231639878 -4.266257287190946
1.9778534649464732 -4.241520443331521
2.0559606784407736 -4.215344077143094
2.1337553487758703 -4.187730663685329
2.211211060721546 -4.158683162365546
2.2931495037651746 -4.136951214769343
2.3750000000000004 -4.113620667976083
2.4515812365718586 -4.080116351342054
2.5330140830347196 -4.0536698996277165
2.6088209777219804 -4.0172320204585805
2.6897178656942917 -3.9876707239897504
2.7703741875755523 -3.9565043739158305
2.8507584736184945 -3.9237324227184947
2.9368573129819953 -3.897341289030789
3.022897843848982 -3.869132800209005
3.1025495278756985 -3.831329589982866
4.756628311680392 -5.6687288790804375
4.828594453370134 -5.554662510439601
4.898036038546842 -5.439820122494526
4.971768044855614 -5.331568484803753
5.0362731858277305 -5.215213552455221
5.105310960166873 -5.1053109601668725
5.179246562438289 -5.00154026730478
5.236492503593261 -4.883108258047489
5.3060540539085945 -4.777592529402248
4.8678767924368795 -4.231580736988772
4.55796443655792 -3.824586277634909
5.9840239032186755 -4.8457670110837485
5.768238716401204 -4.5066419993838185
6.109561651861791 -4.603884927113169
5.363782672705901 -3.8970162226990968
5.7340643100229425 -4.015035054457322
5.828134135061943 -3.93112611139935
7.479953261455831 -2.722480340872323
7.431776004210631 -2.558965694033252
7.332645740635634 -2.3825210266308443
5.460500156548933 -1.6694424339668266
5.57531783644225 -1.598696663738595
2.134696076098841 -0.5719900896765708
2.144353555069952 -0.5346473892752657
1.9000216263312086 -0.4386545559705367
1.897606345423583 -0.40334868018645303
1.8847241922195148 -0.366353271122966
1.8711347307231951 -0.3299315375671676
1.856854080318859 -0.294096794275634
1.841898607859321 -0.25886196778572174
1.8362103805364458 -0.22545828529952283
1.829920287477623 -0.19233237241248238
1.8230362975078944 -0.15949500922821444
1.9153229764988624 -0.13393242958872056
2.0272179555517846 -0.10624199117317595
2.078732920199719 -0.07259095314120202
2.059686252022166 -0.03595195726080404
2.05 0.0
2.029690821167474 0.035428385067685524
2.0187694705785733 0.07049698333905195
2.007245364856693 0.10519527204831708
1.98515246001705 0.13881538275080935
1.9724655022216562 0.17256837064036318
1.9592081338754983 0.2059210726372773
1.8659867650856852 0.22911436560167725
1.8518012885467368 0.2602536987953224
1.8371003135069564 0.29096810497482944
1.8120462655424627 0.3195126469071518
1.7963777457092251 0.349180461539077
1.7997915853502024 0.3825575111046772
1.7830972185569807 0.41166042944927295
1.7756411790850737 0.442717068947392
1.7676442621089952 0.47363885253761295
1.7687215205265068 0.5071727347032785
1.7404746558527247 0.5321165025953808
1.740433424820131 0.5655010997061538
2.193603095390415 0.7553181183406035
1.8324006105325215 0.6669392794850539
1.2509977715062504 0.4802130523907024
1.2238826880281595 0.4944807033090039
1.4912178625929535 0.6329844281526235
1.7631427332502196 0.7850017211362943
1.758237106851101 0.8198794277769569
1.7796122116723507 0.8679748706423732
2.2987968324059893 1.1712954893280307
2.2868342655046208 1.2159313476154572
2.274011238562429 1.2605050126404764
2.2516660498395407 1.2999999999999998
2.237206654832513 1.3442493755152414
2.2218860119298363 1.388388472290997
2.205703593696465 1.4324006620895209
2.18865919154531 1.4762692651627716
2.178944437808718 1.5257133206937825
2.1600753749811097 1.5693866236209033
2.140343166926745 1.6128642620474896
2.1276290347381495 1.6622859833792776
2.106065555548391 1.7054582597450596
2.08364088528362 1.748382298347387
2.075451345612623 1.8041623297238951
2.051079718317608 1.8468004735504486
2.0404768275174856 1.9027754245743709
2.02134483895161 1.9519900209897822
2.00111219075793 2.0011121907579295
1.9797763558081425 2.0501184309651554
1.9641552769799955 2.106298660663211
1.9204048402499232 2.1328256491201216
1.9288135452320916 2.2188461658549494
1.8962234485752911 2.259831107200985
1.8816679692390144 2.3236664247563428
1.8654542702367445 2.387672583428367
1.8415539708452677 2.443824660744716
1.8280121346295914 2.5160428525060863
1.8010300101422847 2.572137419067434
1.778233433036975 2.6363394807250327
1.7537376927483876 2.700519228784265
1.6692456823345954 2.671351502892742
1.5863172707229676 2.6400752861625056
1.0800000000000003 1.8706148721743876
1.0035559139099177 1.8104627937785491
0.9530272724553583 1.7923836135036213
0.38589192477861484 0.7573555455601126
0.36823176330282503 0.7549869988913003
0.35077315724478053 0.7522354632404195
0.3375914137529143 0.7582427298433587
0.31649221407631173 0.7456089312964768
0.30343134066688887 0.7510189221990978
0.2938617186271461 0.7655359497277053
0.2701959132272784 0.7423571704208676
0.2604545235657254 0.7564148604794534
0.2441234255562085 0.7513346478731713
0.23097364673096205 0.755480757210798
0.21775351109542934 0.759396739791272
0.20446704563099138 0.763081402768364
0.1886990785677408 0.7568306664952773
0.17321231184477617 0.7502649498846311
0.15801288502149702 0.7433921765576923
0.14501483648617414 0.7460366594202247
0.13370909680353643 0.7583019698194002
0.12045453808097782 0.7605200222582561
0.1071632877392504 0.7625064129310092
0.09383939442196357 0.764260536763818
0.08048691671609316 0.7657818594335705
0.06710992191569694 0.7670699175306441
0.05301492004553518 0.7581486781974665
0.04029868630706686 0.7689447417610219
0.026872612460925833 0.7695309368047037
0.013438352956708371 0.7698827252704213
