# .PCD v0.7 - Point Cloud Data file format
VERSION 0.7
FIELDS x y
SIZE 4 4
TYPE F F
COUNT 1 1
WIDTH 178
HEIGHT 1
VIEWPOINT 0 0 0 1 0 0 0
POINTS 178
DATA ascii
1.047073013270987e-16 -1.71
0.03001813907212779 -1.7197380356689929
0.06072512426235188 -1.7389400390132266
0.09158792342515194 -1.7476016858205041
0.12277139378966041 -1.7557127284572907
0.1551372220908319 -1.773226562603307
0.18710594924909968 -1.7801941927092093
0.22058351156331696 -1.796508534470793
0.25329504374731915 -1.8022878851096582
0.28783941567402493 -1.8173465466950536
0.3004113473637896 -1.7037174127111199
0.26522450357339744 -1.364461784992253
0.3929530956455649 -1.8486989653868926
0.4296565137967824 -1.8610468237397992
0.4669092585073586 -1.872670751712673
0.5072853284009406 -1.8932146195265738
0.5430055909594883 -1.8936855409984883
0.5350402196426083 -1.7500377034123549
0.5562305898749055 -1.7119017293312764
0.5729999518445958 -1.6641126930547974
0.5916948479534071 -1.6256682339596213
0.6092255142270102 -1.587086725045243
0.6293390769387325 -1.5576688756722026
0.6407990507224088 -1.5096279596620021
0.6589133617827967 -1.4799436413810134
0.6761892187851192 -1.45009245925864
0.6926264119267425 -1.420094593152684
0.7036852745962977 -1.3810601124919701
0.7182914910624131 -1.3509098170741582
0.732062526571969 -1.3206757577804875
0.7550000000000002 -1.3076983597145022
0.7622563508668805 -1.2686076050391262
0.7736821257804791 -1.238150220388382
0.7897266007717894 -1.2160723235208646
0.8164216390672903 -1.210394855930361
0.8488931257995481 -1.212345025547708
0.875800025915785 -1.2054353216186717
0.9027225347280724 -1.1979532650709392
0.9542752867547704 -1.221416668090419
1.0132058295902384 -1.2512049979457232
1.079883184273386 -1.286954664439883
1.1349821201535777 -1.3056475737853954
1.204435091445945 -1.3376606858593096
1.2821569169174971 -1.3749449590440403
1.3545838223950448 -1.4027126106603696
1.4495689014324225 -1.4495689014324222
1.5393871727247137 -1.4865689127822541
1.660172902675517 -1.5481362773418716
1.7761161328909723 -1.5992221491976712
1.8943210463591575 -1.646708162766173
2.045338663127671 -1.7162429178630598
2.207094530537797 -1.7872699105815384
5.61063656567986 -4.383509704318687
5.630380345833414 -4.24279591322194
5.630758280849634 -4.090985355955613
5.635766064708264 -3.946205882095197
5.645745869099834 -3.8081036726357853
5.6526396279521585 -3.670867096001282
5.664961282324925 -3.5398606850778087
5.657304184633941 -3.399251294406357
5.681126648825917 -3.2799999999999994
5.685028096406072 -3.151262531601191
5.695011973940079 -3.028091579968996
5.69353168956367 -2.9009992933357034
5.698354253536719 -2.7792730706427506
5.709739058330895 -2.6624950489664063
5.709659110266255 -2.5421040192237507
5.7163351399396545 -2.42644030791839
5.711452544131411 -2.307576615442018
5.722848014427846 -2.1967955307126905
5.722728060586182 -2.082902672853322
5.729842568131859 -1.9729430160103694
5.734870793259776 -1.863372476080933
5.747391583337843 -1.7571539453836476
5.748344941711148 -1.6483113877856552
5.756917924682847 -1.5425615088110236
5.76355661407942 -1.4370160598620265
5.7585270828807404 -1.329460731172242
5.761289368322116 -1.2245998589166023
5.771967838672264 -1.1219568928140835
5.780821510181661 -1.019314802904881
5.787853675887508 -0.916705965135753
5.793068202138186 -0.8141626406163828
5.79646952558532 -0.7117169654860612
5.808007868950716 -0.6104462254830961
6.7342761591002 -0.5891728209741692
6.982948351818769 -0.4882953162088771
9.476994284820906 -0.49666822474553696
9.344304232628545 -0.32631029416838403
9.028624687262212 -0.1575952301286701
9.883975279218857 0.34515602238773463
9.646761305729184 0.5055653373068374
9.636468725509902 0.6738475363682505
5.767967301951207 0.5046317505089408
5.09195210428556 0.5351857319303858
4.585563220582908 0.5630363665317814
4.1492232080271805 0.5831352930226742
3.7828463444793776 0.5991440011040843
3.4960675231933385 0.6164510307176027
3.4651439575702536 0.6735557536792032
3.47242398260501 0.7380865024030455
3.4785011312832896 0.8030752640075979
3.483361657330827 0.8684996052028071
3.6994959146871316 0.9912769427426544
3.7008575293625277 1.0612038198954468
3.6913363580173173 1.1285547802297637
2.2349828132936107 0.7261899367811264
2.127416795098463 0.7325283475286026
2.020339134689703 0.7353433081501877
1.9231756785842355 0.7382379760633185
1.8265521934965712 0.7379749890293467
1.758164270094161 0.7462964554145127
1.6809236420623856 0.7483954232594723
1.6041647830548704 0.748034323281038
1.5459257596345672 0.7539983724772131
1.4879808953945743 0.7581641345650431
1.4303751004314618 0.7605439317131432
1.3731529402088514 0.7611511037867492
1.3250188677901913 0.7649999999999999
1.2771792780461473 0.7674067316159807
1.2211892584652533 0.7630837404958151
1.1825255008030477 0.767941039371188
1.1440718501259575 0.7716862067896305
1.105855259790139 0.7743281890739122
1.0759926025186801 0.7817543855489894
1.022253452860535 0.7703232296346219
0.9850134420084024 0.7695768441570728
0.9558895325920741 0.7740640809913001
0.9192533317427736 0.7713451316238471
0.890557304662871 0.7741496542087986
0.8620479975537773 0.7761915033762755
0.8264296828296626 0.7706581468706232
0.8128539743826758 0.7849639586186669
0.7707463914933369 0.7707463914933368
0.7502310400957172 0.7768869843657432
0.7229182616662484 0.7752349237163207
0.7025871366768012 0.780302066751264
0.6823013901501277 0.7848979634316828
0.6620712379771355 0.7890257764125473
0.6356135949603359 0.7849174210715405
0.6156614753256583 0.7880107536067219
0.5957968729205277 0.7906491549468199
0.5760295472466237 0.7928366544874484
0.5621049076240251 0.802769003403212
0.5368251873319169 0.7958760696528401
0.5228534736144261 0.805123745227607
0.49812410837921256 0.7971652103870405
0.4789854096663506 0.7971655896529644
0.46000000000000013 0.7967433714816835
0.44602485062663016 0.8046501305682441
0.4319138377630196 0.8123117854302128
0.4085914497655922 0.801905871769531
0.3989177435780605 0.817902582132242
0.37613025294922253 0.8066139304626184
0.36606297876822036 0.8221909118783408
0.3438433930705609 0.8100442710381476
0.3296538022060027 0.8159217920187728
0.31178011610441114 0.8122149710525655
0.2941373232600752 0.8081356538758812
0.2799886128331548 0.8131459750154124
0.2626644452187053 0.8083980388508805
0.24851594901432625 0.8128590425685801
0.23704812600261926 0.8266850585069543
0.21999618833714263 0.8210369523457081
0.20563361125971752 0.824751367334597
0.18895888564884672 0.8184708544195975
0.17464582028691775 0.8216439846163968
0.1602795561162977 0.8245668340960377
0.14586446924022153 0.8272385125302547
0.13140495063379398 0.8296582060999157
0.11690540480645499 0.8318251777429191
0.10237024846032389 0.8337387673787104
0.0878039091448289 0.8353983921093495
0.07233926648055644 0.8268415994161488
0.05859543794506519 0.8379538022182523
0.04343884368164349 0.8288625138462963
0.028966582263075896 0.8294943864258495
0.014485497342945386 0.8298735869798047
