# .PCD v0.7 - Point Cloud Data file format
VERSION 0.7
FIELDS x y
SIZE 4 4
TYPE F F
COUNT 1 1
WIDTH 172
HEIGHT 1
VIEWPOINT 0 0 0 1 0 0 0
POINTS 172
DATA ascii
7.59281015471359e-17 -1.24
0.0218155080466045 -1.249809618945489
0.04362437087812635 -1.2492385337738696
0.0659433048661094 -1.258273213790763
0.06487352058203646 -0.9277345667416366
0.07756861104541594 -0.8866132813016535
0.1181171634924484 -1.1238097417661488
0.1316188908775593 -1.0719498437726278
0.14613175600806874 -1.039781472178649
0.16269184364184017 -1.0271958742189433
0.17712114122026903 -1.0045039080724523
0.19462517528407583 -1.0012597271166173
0.21206992463411442 -0.9977105527484819
0.22945007543074245 -0.9938574660809399
0.24676033351166105 -0.9897016408015165
0.26917180690662157 -1.004562859340631
0.29217559716601915 -1.018937397694618
0.3128377240533284 -1.023246088880448
0.3337383539249433 -1.027141037598766
0.3548692883583009 -1.0306152474032553
0.3796423590914924 -1.0430588090723583
0.4013721034907362 -1.045610077676866
0.4233054505599807 -1.0477177556604695
0.44152617519287923 -1.0401704844012576
0.49215133812171846 -1.105390003747547
0.6761892187851192 -1.45009245925864
0.7145449692661963 -1.465034295467642
0.7490843245702523 -1.4701607649108068
0.7934069411081556 -1.4921814319315865
0.8338725468236998 -1.5043458962797607
0.8700000000000002 -1.5068842025849232
0.9167677733398968 -1.5257577952497599
0.9591538682621009 -1.5349670540431313
1.0075822147778004 -1.5515405506990343
1.0568745875597114 -1.5668810121290289
1.1127382865210294 -1.589154965920644
1.1638147995390968 -1.601853648862396
1.2277026472301784 -1.6292164404964773
1.2867324834306257 -1.6469424750380486
1.3467456368466524 -1.6630923575179175
1.4141327413103868 -1.6852977748617517
1.4892539958084519 -1.7131907471056922
1.5256177824981967 -1.6943702020884588
1.5481362773418716 -1.660172902675517
1.549088166123564 -1.604127754755192
1.576848122046001 -1.5768481220460009
1.589740958748419 -1.5351949987143838
1.5943510695297918 -1.4867564249362468
1.6126242712859455 -1.4520134157987223
1.6226255974789598 -1.4105269123295905
1.639335108274613 -1.375565484729194
1.647549438288778 -1.3341592290256556
1.6311822599659143 -1.2744192539241126
1.669148215998842 -1.2577933983877807
1.7717472176811349 -1.287249702520516
1.793942976992892 -1.2561323956087909
1.8155922838955414 -1.2246324586009354
1.8115284267621161 -1.1764203156324584
1.8148229257747517 -1.1340272254590587
1.8171946774884782 -1.091880718809315
1.8186533479473213 -1.0499999999999998
1.8192089908499431 -1.008404010112381
1.836530993146568 -0.9765008505946529
1.8532935703118052 -0.9443002394582573
2.0852021874140676 -1.0170210605506596
2.465157180739688 -1.1495216719347026
2.5031145539407267 -1.1144584020276924
2.522183298459687 -1.0706032920606101
1.3722321047588453 -0.5544177582555497
1.3256842056260265 -0.5088824883543264
1.353157373931708 -0.49250900638896294
2.5623553398741485 -0.8822896985788946
2.596384289485769 -0.8436163946436064
2.610711983779087 -0.7981747538930712
2.6242444299116108 -0.7524899813804077
2.6466367640320474 -0.7091641835809068
2.6489073327334705 -0.6604467749870929
2.6600302768636923 -0.6141163783587513
2.680124426010628 -0.5696780328406605
2.6896584826465997 -0.5228166473317328
2.708221320783572 -0.4775324885840584
2.7161429366366288 -0.4301947788606349
2.733139869726734 -0.3841177586497806
2.7394273785300483 -0.336359387798207
2.754825650170117 -0.2895438432514001
2.77938320767597 -0.2431645222659663
2.7931793407275074 -0.19531812648355085
2.7961626973128064 -0.14654067748024271
2.8082882239236593 -0.09806758573402773
2.839567454244151 -0.04956483428188517
2.85 0.0
2.859564408147279 0.04991388241063084
2.878245581814996 0.10051055050320279
2.896025650788264 0.1517742731045371
2.9029113862560885 0.20299133859540464
2.9188504654088145 0.25536632625063843
2.9437848102900888 0.30940425127225424
2.9577875318911393 0.36317064334733945
2.9807068869121265 0.41891103388979695
2.9334343715675595 0.46461036116948573
2.826398251145037 0.49837026990409006
1.904356735888468 0.3701694510304969
1.6237250172181175 0.34513340675748044
1.5784795049520812 0.3644207080370613
1.5233642902533144 0.37981737609147836
1.4488887394336025 0.3882285676537811
1.4803430117450112 0.42448152795817873
1.5013984668619658 0.45902357641469665
1.3124579924873119 0.42644345223742736
1.1724430337431528 0.4037045115268743
1.137028071150949 0.4138443734240591
1.11096070753167 0.4264578599589073
1.0755332712974734 0.4345436483624579
1.0401704844012576 0.44152617519287923
1.014035457983287 0.4514776738141382
0.996938565740315 0.4648800879147694
0.9527216890771171 0.46467341559642206
0.9266467851559026 0.4721501197291286
0.9094360206446949 0.48355570966946754
0.8833659042107898 0.4896577164488004
0.8660254037844387 0.49999999999999994
0.8143089356670067 0.4892861711645514
0.8056456913486046 0.5034233010215446
0.8470572736248783 0.5500854253651772
0.853908699731693 0.5759686905748692
0.8601096465034415 0.6022552581685984
0.8737383539249433 0.634808072475871
0.8784990610520221 0.6619965254672532
0.8904521515755957 0.6956974671179939
0.9170322345192254 0.7425980614388082
0.9192533317427736 0.7713451316238471
0.9358398794762373 0.813513195948229
0.9586568248658386 0.8631784822029271
0.9653868861373051 0.900237835282498
0.9495285364470196 0.9169490490058764
0.9333809511662429 0.9333809511662426
0.9377888001196465 0.971108730457179
0.9479777204868728 1.0165816452506469
0.976930685283933 1.0849914451969955
0.977527953195856 1.12451727453193
4.570219904871295 5.446575990575934
4.656970893768798 5.750880114781584
4.783689663280365 6.122843555524229
5.3140266544325865 7.051951553717596
5.184265925219613 7.135529890387037
5.185130984613456 7.405134480372485
5.340292228145632 7.917308817900649
1.9440440040072173 4.169015820368589
1.5008582129497035 3.3709827387011972
1.293320035299496 3.046871064927578
1.1238197802477365 2.781551563700362
1.0715201691404475 2.7914054752266333
1.0260604299770064 2.819077862357725
0.9767044633714703 2.8365557267979504
0.9332313230123414 2.872190679211364
0.8858862653098923 2.897603410567997
1.008832722290217 3.5182178071342474
0.9472777050752259 3.5352885242179903
0.883014918938787 3.541579400907387
0.8188218378116692 3.5467070358182564
0.7588776714848212 3.5702387426783906
0.7212580025233397 3.7105507534321696
0.6581265933576663 3.7324213839162685
0.5928866225024753 3.743338810855572
0.5302495146578494 3.7729213419053833
0.4667595852417149 3.8014517607862635
0.40138929894778924 3.818964078214169
0.33642116700596125 3.8453115346341376
0.2706551181272059 3.870548515008118
0.2030635102226226 3.8746825948477466
0.13610803713975422 3.8976242253744733
0.06858795729852454 3.9294014419646177
