# .PCD v0.7 - Point Cloud Data file format
VERSION 0.7
FIELDS x y
SIZE 4 4
TYPE F F
COUNT 1 1
WIDTH 163
HEIGHT 1
VIEWPOINT 0 0 0 1 0 0 0
POINTS 163
DATA ascii
1.1021821192326179e-16 -1.8
0.03333409629521167 -1.9097090977487072
0.07049698333905219 -2.0187694705785733
0.11252230592232952 -2.147053499722334
0.16043988961148803 -2.2943973155975956
0.21527468458671617 -2.4606009042866117
0.2801362815573113 -2.6653186795869726
0.35951456304518514 -2.9280111473419
0.4537043091298134 -3.2282739040975192
0.5725501420472452 -3.614939326578204
0.7189034555410918 -4.077104097470541
0.9196993577149466 -4.73144302421774
1.1747010531203397 -5.526533944146003
1.5409147222554762 -6.674434943778861
4.722899146925198 -7.860224147438369
4.859359653018489 -7.776601041754427
3.0390858153838516 -4.679781769135466
2.952538530325543 -4.37731838309062
2.86214641739172 -4.087568701002069
2.7919799483892476 -3.8428307232810006
2.732240205110299 -3.6258052156147094
2.6658141881601005 -3.412086563117106
2.605386418946327 -3.2173842804318586
2.564722562649292 -3.0565173280447224
2.5127060810336435 -2.8905376922532167
2.469091937464187 -2.742204406011585
2.4279141618224944 -2.603619177764247
2.403517961788131 -2.488915709171733
2.3617366491630687 -2.3617366491630682
2.316274157090457 -2.236799952877971
2.2891370860680036 -2.13465486699562
2.2517288211965045 -2.0274657372673404
2.21884616585495 -1.9288135452320914
2.190887107320277 -1.8383725637035022
2.1604657728503787 -1.7495106871185482
2.1355091422742163 -1.668442598132534
2.108397746524853 -1.5887916611214075
2.0791736755436148 -1.5106080983916559
2.0642631516082592 -1.445412619604636
2.047722804210953 -1.3812064715727448
2.0295827744279262 -1.3180264647363653
2.018354468852294 -1.2612078488750276
1.9886281376289006 -1.1948883337913256
1.97453792062852 -1.1399999999999997
1.9591481439922467 -1.085973549351795
1.9424847042896396 -1.0328374381289598
1.9245740922468748 -0.980619479437421
1.8964554376912424 -0.9249631197249533
1.8760571191658653 -0.8748198018032478
1.8636327335909058 -0.8297427518746323
1.8594198039739296 -0.7892768795483329
1.835824032042239 -0.7417210549635058
1.8298176359345153 -0.7024011811087885
1.8042098319089441 -0.6566786751852839
1.796485293638702 -0.6185794934685978
1.7974968157978402 -0.5840421193686506
1.7787268460912462 -0.5438113707842903
1.7687215205265068 -0.5071727347032785
1.7579850038461045 -0.47105066208658775
1.7562352645595536 -0.4378786310353986
1.7343787153177188 -0.40041287673207965
1.731321253298836 -0.368003692747434
1.7276638428678885 -0.33582383186271886
1.713565490241242 -0.3021478291404588
1.7185777126355397 -0.2721959691700017
1.703261078235501 -0.23937773365131254
1.6972539193066605 -0.2083965772228022
1.6906872221260645 -0.17769838755501088
1.6935309867559674 -0.14816476267101888
1.6858832449391028 -0.11788844062757176
1.6876839137352297 -0.08844776605057507
1.7789156720939905 -0.06212110413045173
1.8697151899424518 -0.032636000037720166
6.25 0.0
6.20905418692119 0.1083794439755306
6.1762353109780115 0.21567888962145598
6.141571638740629 0.32186613089410454
5.456675354921238 0.3815679113803654
5.429261104600013 0.47499879797473704
5.400253891849724 0.5675895555433582
5.379600141895965 0.6605318412558994
5.367252932579311 0.7543182072035547
5.945883810382729 0.9417354795421897
5.908846518073248 1.041889066001582
5.879946828851508 1.1429458823055034
5.868885604402834 1.247470144906556
5.96314479648564 1.3767004525844537
5.938209844809099 1.4805620010699665
5.9018067986262075 1.5813843655764017
5.8733089621831285 1.684144244041865
5.584819774824127 1.7074507555807823
4.726750885986913 1.5358144620434884
5.767663311155832 1.9859657421886558
5.75091883920976 2.0931632771530926
5.582810950453267 2.143040338280896
5.006792814660653 2.022875604445925
4.952316111574129 2.1021334712722926
4.924010016693618 2.1923105061785626
4.89406204999791 2.282138613399777
4.889439611867469 2.3847390385325813
5.408409601823394 2.755722333419049
5.377150840510866 2.859081817366075
5.343926410621708 2.9621867797051196
1.6541085212282778 0.9549999999999998
1.52575779524976 0.9167677733398965
1.3907988776965385 0.869067593342456
1.3754197314304955 0.8932080174246442
1.3596216189902683 0.9170763616920247
1.3597923935197263 0.9521368843427364
1.3510583806061622 0.9816013713284301
1.333721301778979 1.0050310886639207
1.33173817359536 1.0404678933003624
1.3133766748622806 1.0635514608742254
1.3022755533022625 1.0927389364671167
1.2830062863787124 1.1153003492838622
1.2782090998211182 1.150904642937236
1.2725554408173565 1.1866771465087473
1.2588446505926396 1.2156521483032452
1.2445079348883237 1.2445079348883235
1.2364918994170153 1.280424844602799
1.2275970481124974 1.3164366629145068
1.2178177035731221 1.3525235823688575
1.2005880230526285 1.3811185318076726
1.189157077920098 1.4171822197701094
1.1831223351736944 1.461034407539105
1.163600188365494 1.4893403243167043
1.1554848444519326 1.5333801792908022
1.140303389447398 1.569492969087398
1.1356813439750713 1.6219210476922037
1.1239777359762009 1.6663655208356336
1.1056172410805052 1.7025012529292105
1.0916336843204022 1.7469790780822378
1.0815799573111142 1.8000513314744357
1.0700000000000003 1.8532943640986987
1.056884972137015 1.9066709615638828
1.0375321537568187 1.9513141802182283
1.0260185294113757 2.013674744665711
1.008253637614878 2.067226306488084
0.9847005498558298 2.1116971437953946
0.9680332105204048 2.17423818918939
0.9533839535138279 2.2460318424239545
0.9252782857373032 2.290144120779965
0.9066709123496093 2.3619584790379204
0.8858321712134822 2.4338038878355026
0.8627556093114653 2.505624225338189
0.8436163946436065 2.596384289485769
0.8186407732236629 2.677653316696499
0.7938355847529576 2.7684336843023583
0.7635161830524362 2.8494811875527515
0.7378617815789864 2.959401965141789
0.7063463106397366 3.0595220034256387
0.6736338782495399 3.1691982263775307
0.63730204455766 3.2786347927151978
0.6008226947275792 3.4074348254222397
0.561599729494429 3.5458011427365443
0.5149404735522423 3.6639918543438106
0.46919697210981787 3.8213026838190896
0.4170685684379373 3.9681423625194108
0.3625678898302588 4.1441699440616615
0.304138225524386 4.349379259132834
0.23917532003025394 4.563736973828402
0.16681959423795517 4.777088153151278
0.08761108031516365 5.019235429685084
