# .PCD v0.7 - Point Cloud Data file format
VERSION 0.7
FIELDS x y
SIZE 4 4
TYPE F F
COUNT 1 1
WIDTH 177
HEIGHT 1
VIEWPOINT 0 0 0 1 0 0 0
POINTS 177
DATA ascii
8.021436534415164e-17 -1.31
0.023037176497214353 -1.3197989576064366
0.04641633061432644 -1.3291897999353974
0.07013018136554491 -1.338163576571129
0.09417123955456908 -1.3467114678507628
0.11853181013681538 -1.354824789404774
0.14320399467668524 -1.3624949966545346
0.17061708076720647 -1.3895646122978507
0.1962340723536923 -1.3962779769256142
0.2221369403571279 -1.4025174436450956
0.2500533758403798 -1.4181231643375796
0.2728568633884592 -1.4037268723301595
0.30147195168575086 -1.4183140210640182
0.32617902879860444 -1.412836593938591
0.3411098727955314 -1.368116974049155
0.3545820917904534 -1.3233183820160237
0.3693540567947789 -1.2880906725573473
0.3859306502340126 -1.2623222778712069
0.39554175279993276 -1.2173523408577966
0.40696019307144593 -1.1818982194991459
0.4241049777238293 -1.1652188497745264
0.4443762574361722 -1.15763972885653
0.46076610990157196 -1.1404361411171484
0.4727846654720212 -1.1138108726774527
0.4840166052602024 -1.087119094594695
0.4944633662366183 -1.0603801108328803
0.49974310733954824 -1.0246252127810502
0.5175491697030834 -1.0157474375747393
0.521113434692339 -0.9800718280734089
0.5332905822709708 -0.9620816778533354
0.5450000000000002 -0.9439676901250381
0.5510907401537583 -0.9171690117512601
0.5564152274448652 -0.8904505009642474
0.5664245964156283 -0.8722173906632409
0.5759686905748692 -0.853908699731693
0.585047965078067 -0.8355350851747716
0.5936631048153979 -0.8171071643186969
0.5957968729205277 -0.7906491549468199
0.6033482458191451 -0.7722505385345875
0.6104407793183424 -0.7538315826132617
0.6235039813959432 -0.7430631098254087
0.6298166678308871 -0.724521197013861
0.6356740760409153 -0.7059875842035245
0.6410784584587486 -0.6874724795220202
0.6460322845268676 -0.6689860143149455
0.6505382386916237 -0.6505382386916236
0.6545992183081726 -0.6321391171176876
0.6582183314572534 -0.6137985240562487
0.6688303429296548 -0.6022175457229725
0.6792386222004948 -0.5904531260914566
0.6817795543758904 -0.57208097262102
0.6838884460821343 -0.553801944123857
0.6934494631739153 -0.5417820982865793
0.6948128937411447 -0.523579070142282
0.7038447851062043 -0.5113731694944517
0.7126622785314228 -0.4990114996254101
0.7129723123973358 -0.48090589698484226
0.7128699827536105 -0.46294317976277294
0.7038799198098336 -0.43983298931356
0.7114488595827532 -0.4274816021753449
0.7188010851410841 -0.4149999999999999
0.7171881598543045 -0.39754388860199635
0.7416759780014986 -0.39435611274014826
0.7840857412857638 -0.3995116397708011
0.8358784630582254 -0.407685166513842
0.8428662419440844 -0.3930349834188505
0.8404618210311928 -0.37419771162973614
0.8468644651762451 -0.3594726382101318
0.8530091462014444 -0.34463806594263907
0.8588939923774256 -0.32969851358167623
0.8645172111230358 -0.31465853185961523
0.8698770895513716 -0.2995227021005842
0.8844825601544928 -0.28738580476870107
0.8893634230456231 -0.27190568539214516
0.8843607602632534 -0.25358636735163925
0.8983110184488335 -0.2407017119453443
0.8926720681739168 -0.22256814395169433
0.8964204596024165 -0.2069549699963558
0.8998957926751012 -0.1912787555523386
0.903097008771851 -0.17554427574642123
0.9158712103013535 -0.16149280523024523
0.9086732733475268 -0.1439197078370124
0.9209493039296605 -0.12943098389286087
0.9230679210264295 -0.11333848936678716
0.9249053626924942 -0.09721147083891772
0.9364230162062408 -0.08192639818279868
0.9377102072442347 -0.06557108531947778
0.9486980580168451 -0.049719158430796634
0.9594151939383319 -0.03350351683440093
0.9598537873501356 -0.016754310179792172
0.96 0.0
0.9798507412532634 0.01710335830853784
0.9794030104787138 0.03420150676845095
0.9786569440594823 0.05128923711808495
0.987588409757226 0.06905890900668404
0.9961946980917455 0.08715574274765817
0.9945218953682733 0.10452846326765346
1.0123970746741484 0.12430673027325043
1.0100734301164018 0.14195656297926676
1.0271958742189433 0.1626918436418401
1.0340481406628184 0.18233058655027687
1.0307085426200473 0.20034944514537206
1.0466179327851721 0.2224655091750025
1.0425759693202017 0.24069762814793555
1.0576223416408361 0.26369486620363786
1.0721776671808658 0.287289140063798
1.0766130994509173 0.3087138385150391
1.0997504693574909 0.3362274604311472
1.103225558902378 0.35845971347493893
1.1062567334512006 0.3809147407148733
1.108837292527372 0.40358376912428906
1.101624903266698 0.4228741804634543
1.0848051098431413 0.438289714296617
1.0585805814703064 0.4493407977626647
1.032306367136139 0.4596124066756541
1.015064721481048 0.47333245314958344
1.0515890341700254 0.5128942417432205
1.078117894267925 0.5493285046848515
1.0860255392164802 0.5774500222266457
1.1020208309956387 0.6108601215103847
1.117172770881926 0.6449999999999999
1.1314608369267882 0.6798502588812715
1.144864929811175 0.7153910067148267
1.1657520894441393 0.7570482586708874
1.1772333530281591 0.7940539229284604
1.187770464219038 0.8316858327090167
1.1892549817311728 0.8640443208699355
3.466078113605251 2.6118772004798894
3.412086563117106 2.6658141881601005
3.365042013108684 2.7249572932457964
3.4242186607418317 2.8732606152988303
3.34336344038688 2.906341498427947
3.254974335590987 2.930792055851799
2.2452558639708533 2.0937349653918704
2.2011797890362725 2.1256546136045316
1.6899852070358488 1.6899852070358485
1.6185540031694639 1.6760617347890572
1.5685962281437464 1.682113513724092
1.5323090885617854 1.701801650343233
1.5089357666781669 1.7358320345123752
1.5426902632476944 1.8385066634855471
1.579594181535092 1.9506363632569965
1.625346294859738 2.080348389521746
1.5827735108898868 2.1004113914243803
1.5341195084833548 2.1115343553186126
1.4912987345127198 2.129795315151379
1.448309619989234 2.147207312917558
1.4106151006889203 2.172156770978648
1.3671917017216686 2.187964088083579
1.3287982332679402 2.21149163581145
1.2700000000000002 2.199704525612474
1.2314164354256962 2.221534056134065
1.225320778871175 2.304493217361799
1.298412829255104 2.548278659178732
1.2537414798167614 2.5705509724156177
1.2086882285784004 2.592040270924819
1.159199432766031 2.6036045542814126
1.2542469224505686 2.9548205795823335
1.5808398242151493 3.912715866271842
2.569498198239802 6.693771657984937
2.824310667621637 9.237903942602923
2.1858042316288033 7.622805248790868
1.7082056976766369 6.37511045350785
1.3596010532701324 5.4530619816711
1.1000106557415004 4.7646696167998
0.89817850433272 4.225597635170041
0.7365227221534634 3.7890809281079827
0.6060321400575872 3.4369790580126063
0.39421485190138195 2.488974618299747
0.34654102139056303 2.4657674911665106
0.3022359716447658 2.4615144560704785
0.25818530427110403 2.4564690815596353
0.21440312715923956 2.450638957305694
0.17090336067310682 2.4440319231365693
0.12769973323278327 2.43665606480116
0.08515477195410263 2.438513617926594
0.04240934764259915 2.429629899230031
