# .PCD v0.7 - Point Cloud Data file format
VERSION 0.7
FIELDS x y
SIZE 4 4
TYPE F F
COUNT 1 1
WIDTH 139
HEIGHT 1
VIEWPOINT 0 0 0 1 0 0 0
POINTS 139
DATA ascii
1.0899356512411444e-16 -1.78
0.030716235329619132 -1.7597319434752487
0.06037612929532687 -1.7289461307430356
0.08949448517543418 -1.7076565044303211
0.11858600536501289 -1.6958588854417012
0.14642164781606604 -1.6736070927941324
0.17142667975895165 -1.6310159084039682
0.19742833631633894 -1.6079247656589417
0.2240686925457054 -1.5943315906739284
0.2502951440643695 -1.5803013449522205
0.27436412071375005 -1.5559962497592887
0.2976620327874101 -1.531338406178356
0.32226312076752683 -1.516128781137399
0.34417511314611365 -1.49078619912141
0.3677212813114949 -1.4748495039395146
0.3934049485558315 -1.468207255959384
0.41621240728366876 -1.4515051608668614
0.43855755708410515 -1.434457133944553
0.4604353216186717 -1.4170742092797788
0.481840868596592 -1.3993674918869887
0.5027696106887332 -1.381348152555285
0.5232172063361382 -1.3630274226859145
0.5431795604530727 -1.3444165891218416
0.5626528250245542 -1.325526988971514
0.5816333995983946 -1.3063700044289193
0.6001179316717932 -1.2869570575920428
0.62248702844049 -1.276287545744817
0.640126604632761 -1.2563191991055984
0.661954903528106 -1.2449561059310867
0.6835815645473353 -1.2332137870665478
0.7000000000000001 -1.212435565298214
0.721053304874076 -1.200034220982957
0.7418869699264868 -1.1872673346189964
0.762494649021038 -1.1741387951235935
0.7828700648590454 -1.1606526015770584
0.797271246527954 -1.1386213415616986
0.8170215006865376 -1.1245336221811768
0.8365228821813471 -1.110103358965737
0.855769450702665 -1.0953349475133434
0.8747553435592741 -1.0802328864251893
0.8999026535611551 -1.0724622203665692
0.9119220502968052 -1.0490463165096529
0.9300915428388129 -1.032971307413578
0.9479777204868728 -1.0165816452506469
0.9655751349380063 -0.999882322470725
0.9899494936611666 -0.9899494936611664
1.0070757204741116 -0.9725217186425961
1.0238951822668385 -0.9547977040874978
1.0478342039231259 -0.9434741549659901
1.0641405081141084 -0.9250432308766152
1.0801226647977589 -0.9063305296580203
1.1035472652688985 -0.8936349552907692
1.1268553776576122 -0.8803959097156914
1.1420487793676286 -0.860595483107429
1.1649844718999243 -0.8464107633011613
1.187770464219038 -0.8316858327090167
1.2021044802048104 -0.8108297100325829
1.2328457348797732 -0.8006193814720897
1.246630701349946 -0.7789813184228112
1.2686076050391262 -0.7622563508668802
1.299038105676658 -0.7499999999999999
1.3119295607090935 -0.7272144303695056
1.342080341145569 -0.713596775434554
1.3543299167663192 -0.6900655596041111
1.3751548908377256 -0.6707078545872884
1.395713992036441 -0.6508321230806772
1.4159954593460313 -0.6304417967674902
1.4451926199203315 -0.6134478717281597
1.474222328761192 -0.5956244835313002
1.493728682395523 -0.5733887192724805
1.5223020456731717 -0.5540726321875834
1.5317400924708935 -0.5274204102205939
1.5692432518870032 -0.5098780407186632
1.5970289424582693 -0.4882607468869703
1.6245322661357589 -0.46582713133072856
1.6517331629543068 -0.44258056712531046
1.6786116064574739 -0.41852487938742516
1.7148913140220141 -0.3959138556452024
1.731321253298836 -0.368003692747434
1.7669289302057951 -0.34345619167778063
1.8021981880123408 -0.3177761651304825
1.8371003135069564 -0.29096810497482944
1.8617039692341522 -0.261645429804923
1.905688611151338 -0.23398913933788315
1.9393176959681329 -0.20383050337192424
1.9824274492025735 -0.17343992806783975
2.015079381524845 -0.14090807696313312
2.0571768415944223 -0.1078120698604643
4.657161253908987 -0.16263165463365453
5.059229337491339 -0.08830917657265457
3.83 0.0
3.879409057206798 0.06771533697666002
4.877027235853188 0.1703095439082047
4.763462880779317 0.24964251127884204
4.59877027169779 0.32157734396041765
3.6261487010539537 0.3172469036014757
3.381374444252129 0.35539677511002177
4.615339605132148 0.5666924468339358
4.604746519648303 0.6471549194643044
3.791509849097001 0.6685454840176818
3.7890809281079827 0.7365227221534629
5.844213469872483 2.2433833641535794
5.776355413951086 2.333799076981132
5.707130091405131 2.422532996633497
5.600033655349144 2.4932956220546547
5.56472981240503 2.5948761270878946
5.581511027517827 2.7222848215601707
6.118826818512364 3.253437930106223
4.670469236124373 2.58888337211544
4.6159154021710584 2.6649999999999996
3.661609637971793 2.563886670489176
3.6163059648560147 2.627400077747355
2.37188627974333 2.8267039951090287
2.328485446884399 2.875440057390792
1.2678547852220983 2.7189233611099497
1.2120751963658851 2.7223654637749504
1.1800080080376065 2.77992465742637
1.138804043984373 2.8186389178830336
1.1109406435904305 2.8940993221413254
1.06368264574283 2.9224440506441747
1.0222840049954722 2.9689283273818545
0.9857642120560823 3.0338702869815397
0.9472843233016672 3.098427409320235
0.8958214064052473 3.1241005117995364
0.7971626589157639 2.9750515449703303
0.733023343666993 2.9399960506162692
0.6681046314012795 2.8938790924121487
0.6154186048205673 2.895316898172065
0.6124968751587092 3.1510232588670015
0.5660930591941931 3.210473274819798
0.5021546327791413 3.1704795733103923
0.44396219206260884 3.1589551392856094
0.3790136579900087 3.086818531604511
0.32194766686437265 3.063127437734282
0.2614672282429751 2.988584094275237
0.20647916228261068 2.9527895887690794
0.15282099222939638 2.9159982414833556
0.10190653037130315 2.9182212148957594
0.05218269524747796 2.98954460851761
