# .PCD v0.7 - Point Cloud Data file format
VERSION 0.7
FIELDS x y
SIZE 4 4
TYPE F F
COUNT 1 1
WIDTH 179
HEIGHT 1
VIEWPOINT 0 0 0 1 0 0 0
POINTS 179
DATA ascii
5.388445916248354e-17 -0.88
0.015358117664809566 -0.8798659717376244
0.028268592329025878 -0.8095065698854677
0.038205248057349095 -0.7289995603708389
0.050224661095770166 -0.7182461161870733
0.06275213477831401 -0.7172601826260567
0.07526049355271049 -0.7160557646651567
0.08774592725170619 -0.7146332291817518
0.10020463269124713 -0.7129930094939306
0.11263281482896625 -0.7111356052284992
0.1250266879201899 -0.7090615821687898
0.1392905666248778 -0.7165878439167946
0.14969641738878664 -0.7042662725283401
0.16421426967102154 -0.7112901472932217
0.17902220274375408 -0.7180188374442373
0.19152609337586535 -0.7147851114539105
0.20121526974640938 -0.7017210380349728
0.21343134444759784 -0.6981024718530159
0.22558240589371165 -0.6942712568954621
0.240920434298296 -0.6996837459434944
0.25309490606099494 -0.6953725393815722
0.26877596215897515 -0.7001853198729013
0.28095494506193414 -0.6953878909250905
0.2930483463669553 -0.6903786400893303
0.3091198487376083 -0.6942945478083766
0.3211898789229316 -0.688793918147854
0.33754578302758964 -0.6920714156503587
1.9930182938566106 -3.9115186411869343
2.0750643075136375 -3.9026283604364567
2.1574028100962 -3.892057696770311
2.2450000000000006 -3.8884540629921296
2.327972098593446 -3.874396199173547
2.4111326522610823 -3.8586188375117385
2.5053395610691247 -3.8578846125489497
2.5890631430695574 -3.838443960929843
2.690073486486406 -3.841823087715372
2.786102095866323 -3.834740553337251
2.8826939608983113 -3.8254640931265325
2.0686225570942116 -2.6477161321185854
2.064170882643467 -2.549038753578864
2.0504924749000604 -2.4436817735495397
2.040343580160478 -2.3471467944928204
2.034157043330929 -2.2591602694512787
2.0255351293856205 -2.1721204938089365
2.0214558580356825 -2.0932788189854747
2.0152543263816605 -2.0152543263816605
1.9997646449414501 -1.9311502698760121
1.9965956054203353 -1.8618555229706208
1.9990595805341904 -1.7999613311053286
1.9924332917881182 -1.7319958365349393
1.9763946632469633 -1.6583920329912714
1.9817222017152754 -1.6047669971770855
1.9700268840168047 -1.5391536883141457
1.9726297098168135 -1.4864831071855593
1.9578211263873728 -1.422440310547785
1.9577733858506905 -1.3708476828790002
1.9565286712298984 -1.3196952521909624
1.9541024233128381 -1.269008951585013
1.9420301401982154 -1.2135151150940393
1.9629131186078372 -1.179437191544024
1.97453792062852 -1.1399999999999997
2.01162532642061 -1.1150621265665752
2.0837563191470676 -1.1079528881747023
2.165145853777734 -1.1031969143670988
2.237997175284926 -1.0915441555048029
2.32921101268419 -1.0861289326735974
2.4208954627528922 -1.0778521041508704
2.522183298459687 -1.0706032920606101
2.577571115695669 -1.0414063296962353
2.5673461728673046 -0.9855118612495757
2.584154707161248 -0.940555394145589
2.581265711386135 -0.8888010616680377
2.5678525939969146 -0.834345884812358
2.5724597935405655 -0.7864798857041617
2.5569561111959285 -0.7331953664732178
2.559703439666031 -0.68587046952168
2.5518777601058704 -0.6362545854271261
2.5528495697373166 -0.5893717623809263
2.5529652379152328 -0.5426495130343518
2.5424144051294495 -0.49419529802525103
2.540804002771497 -0.44801229838068024
2.538359035329504 -0.4020365751533933
2.53508625597842 -0.35628313845776755
2.5309926866853707 -0.310766825683126
2.5260856142354142 -0.26550229669983977
2.5203725861721162 -0.22050402915157513
2.5238370471573552 -0.176483878572637
2.516546427581526 -0.13188660973221844
2.4984770675477392 -0.08724874175625243
4.899253706266317 -0.08551679154268921
4.88 0.0
4.879256752363189 0.08516774341394354
4.877027235853188 0.1703095439082047
4.87331212960232 0.2553994664655659
4.868112565267942 0.34041159187133146
4.841506232725884 0.4235769097536187
4.853266849397174 0.5100989007461488
4.734445143329105 0.5813167680425534
4.6740652844602115 0.6568970365315089
4.652012084203099 0.7368063303394874
4.6384445166875 0.8178829168112418
4.957217276410703 0.9635854266515512
4.949426859713056 1.0520331555378621
4.949799929108995 1.142751356066834
4.929102289482062 1.228963229646312
4.926221714074248 1.3199771300228558
4.91204726624481 1.408506888224866
4.905843398090372 1.4998668452276394
4.926472754408895 1.6007080308622275
7.006292645190938 2.4124600245275314
6.991313098647159 2.544629866342975
6.983181590199069 2.680592262598846
6.963150747796574 2.813295516553499
6.959016692100449 2.953927331378909
6.942945478083766 3.091198487376081
6.933254570830372 3.233029702316351
6.911726216040595 3.3710741188080053
6.842930105766666 3.486647037999719
6.480835331584524 3.4459212708484386
6.148576541189953 3.4082116303317496
5.86299198362065 3.3849999999999993
5.597302473584794 3.3631986291626537
5.3257420438623555 3.327892979384527
5.099117053108178 3.311405332891364
4.866450550898095 3.282462343373284
4.677358172890143 3.275121451564473
4.490044318780958 3.2622081502232256
4.296659044054436 3.2377648245580195
4.13705645643529 3.232222745459706
3.9789873226596906 3.222120402175168
3.8149013267325107 3.201082296238966
3.6754356556849 3.1950074711837706
3.5670951622914924 3.2118269105225195
3.5543789898691687 3.3145120299037427
3.5463452156695503 3.4246657663628564
5.876057351660211 5.87605735166021
6.599254519360475 6.833728103217185
4.777592529402248 5.3060540539085945
4.920442717428806 5.66032185167079
3.7410238883756595 4.458378658952452
3.5493670055210833 4.383103222617315
2.3456702209907583 3.0023209712416103
2.256806336820181 2.994883162677348
2.1689275809592257 2.985272709243556
2.093553992681318 2.98990496165482
2.309466691334184 3.4239251746523225
2.303823118113565 3.5475765024091435
2.2892512214874454 3.663567775395761
2.2764682911024403 3.788679469103336
2.2650000000000006 3.923095079143507
2.1767951949060538 3.927042485055887
2.0891484543972143 3.929116788222225
2.006638008848797 3.9382488369125856
2.1918557339453875 4.493970231495835
2.172257865347195 4.65842202536838
2.171973674024774 4.878332743811488
2.0708749809931506 4.878675723297934
1.966684615433539 4.867715236475633
0.6414786296860873 1.6711089634299912
0.5916948479534071 1.6256682339596213
0.556721544121738 1.6168367642748316
0.5191485505499117 1.5977749473758578
0.47948959574528827 1.568339799779378
0.4465325164235387 1.5572439474200768
0.4141104721640332 1.5454813220625094
0.3846558140034716 1.5427702047788345
0.3531731553198683 1.5297610017128194
0.3201840038593492 1.5063473051300609
0.29193776292611373 1.501889590674926
0.2622087482770649 1.4870597070484342
0.23308735290994406 1.4716556274867554
0.20597618942089688 1.4655967417375242
0.17792924137151533 1.44911738139633
0.15052098710542097 1.4321115293303135
0.12550426955662802 1.4345203652521135
0.10044932219154033 1.4364922323741467
0.07431705786498043 1.4180539393514948
0.04920829035052652 1.409141066096925
0.024433369012197035 1.3997867732189477
