# .PCD v0.7 - Point Cloud Data file format
VERSION 0.7
FIELDS x y
SIZE 4 4
TYPE F F
COUNT 1 1
WIDTH 168
HEIGHT 1
VIEWPOINT 0 0 0 1 0 0 0
POINTS 168
DATA ascii
1.2062770971601428e-16 -1.97
0.03315957223083883 -1.8997106207971433
0.064215073932602 -1.8388791217151363
0.09263464255001082 -1.7675742765155957
0.12067869957733665 -1.7257858069494958
0.14642164781606604 -1.6736070927941324
0.17038139512627512 -1.6210706894502853
0.19255356258013304 -1.5682229195932889
0.21571830648810147 -1.5349155065494342
0.2362160422107487 -1.491409394298658
0.25699930294705703 -1.4575154744580678
0.27476495334222467 -1.413543144164636
0.2931554840530405 -1.379188117034666
0.31043245499453387 -1.3446306894036246
0.32659455905955137 -1.3098992304725954
0.33646475863327696 -1.255703574175789
0.35832856256209894 -1.2496402047198145
0.37423578204510305 -1.2240700876326853
0.3862712429686843 -1.1888206453689418
0.39719314843773124 -1.1535326622311664
0.4138443734240593 -1.137028071150949
0.42645785995890717 -1.11096070753167
0.44203578023077633 -1.0940769483888089
0.4493407977626647 -1.0585805814703064
0.4677471395371704 -1.050577276288991
0.47333245314958344 -1.015064721481048
0.48220826146798523 -0.9886734509290839
0.4948496447161061 -0.9711971113653209
0.5070292878087622 -0.9535834002876411
0.509050101258654 -0.9183506924963656
0.5250000000000001 -0.9093266739736605
0.5356395979064565 -0.8914539927301968
0.540517649517869 -0.8650090580795546
0.5446390350150272 -0.8386705679454239
0.5536009744360393 -0.8207471968294913
0.5621049076240251 -0.802769003403212
0.5760295472466237 -0.7928366544874484
0.5897787226890073 -0.782662799846347
0.5971916310658886 -0.7643704309985202
0.604147575407844 -0.746060122998692
0.6106482292022124 -0.7277422209630291
0.6166954872510769 -0.7094270054094055
0.6289827699773267 -0.6985561359487505
0.6342584748581236 -0.6801589425058285
0.6390857008222776 -0.6617926163115591
0.6505382386916237 -0.6505382386916236
0.6545992183081726 -0.6321391171176876
0.6655318684734451 -0.6206185076568737
0.6762617911844288 -0.6089088517865611
0.6792386222004948 -0.5904531260914566
0.6817795543758904 -0.57208097262102
0.6994313653112737 -0.5663883519448538
0.7013295707099825 -0.5479387130398359
0.7107856039420907 -0.5356153706053229
0.7200251249937032 -0.5231288745403011
0.794577482960322 -0.5563691432605147
0.9533932084382979 -0.6430718389913588
1.9708758346717465 -1.2799017322853135
3.4515557513566537 -2.156771405429144
3.445812548822491 -2.0704530611384175
3.446781107062066 -1.9899999999999998
3.4460016461292193 -1.910149903770568
3.4434956121498153 -1.8309390948649742
3.4571053138508674 -1.7614831389894414
3.4513691377888014 -1.6833452036700571
3.4530326686096364 -1.610175577232065
3.4532018298890312 -1.5374645108265246
3.4518932004466514 -1.4652417318347764
3.4491239389884494 -1.3935365275071927
3.4449117737746744 -1.322377733822158
3.4486719182842838 -1.2552139260052042
3.479508358205486 -1.1980908084023367
3.6996098483881474 -1.2020761081185454
3.9208494994484453 -1.1987239893632204
4.19110099429107 -1.2017788713621165
4.491555092244168 -1.2035085597267214
4.8223697595917026 -1.2023518211303486
5.222623547248861 -1.2057376512831164
5.663474608248735 -1.2038086898348264
6.194067527554759 -1.2040047608259976
6.824717728374601 -1.2033818712318272
7.605200222582561 -1.2045453808097777
8.546013433239754 -1.2010638612853648
9.726952286084956 -1.1943195653704453
8.184915198880889 0.860269252692788
7.136406830301105 0.8762405790830105
6.238688833071893 0.8767905360484123
5.560685357550626 0.8807260381764997
5.002823385302017 0.8821327425480061
4.574382674866114 0.8891699184546988
4.166908779126012 0.8857038028836547
3.8292743546059747 0.8840576435713894
3.560985315432907 0.8878533568507806
3.4290366833261925 0.9188076101139486
3.4317042544997984 0.984025360266687
3.4235710263476675 1.0466907029073975
3.433314023825504 1.11555134969356
3.5646050300094245 1.2273919423034807
3.6460073686493244 1.3270381561035947
2.3432868705079763 0.8995035533587036
2.2437849280516255 0.9065479560665071
2.1355712600096615 0.9064962180951149
2.037206370543 0.9070227140590343
1.9485617421287973 0.9086292627425038
1.8694916163022675 0.911811985321281
1.7820130483767358 0.9079809994790935
1.7129183301463182 0.9107748318046281
1.6355388523506702 0.9065939898606503
1.5588457268119897 0.8999999999999999
1.5086144492357176 0.9064670118416953
1.441681763465924 0.9008627491964483
1.3921931427894039 0.9041007981249447
1.3430408675391676 0.9058925036226099
1.294260229976607 0.9062507694346528
1.2458861713374192 0.9051892885304087
1.1979532650709392 0.9027225347280724
1.182016130410083 0.9234922129884875
1.1113187248834682 0.8999281592012676
1.0724622203665692 0.8999026535611548
1.0339521249051977 0.898800869716995
0.9958140661397084 0.8966350125208701
0.9580733491211133 0.893417851681873
0.9279483424368601 0.8961092978921065
0.8909545442950499 0.8909545442950498
0.8613763793691567 0.8919813524199274
0.8388579828768731 0.8995650529915796
0.7962654215670413 0.8843423423180992
0.7807102444987037 0.8981044004650985
0.7584893794301164 0.903932442880394
0.7300116536178115 0.901489315290086
0.708010696624507 0.9062123666477301
0.6740328259302941 0.8944717712529681
0.6524416300446453 0.8980088637561917
0.6309340799861507 0.901067248717891
0.609520264783114 0.9036509540849955
0.5882101578162294 0.905764213381058
0.5670136127295293 0.907411462887376
0.5459403594046577 0.908597338744239
0.5200000000000001 0.9006664199358162
0.5042020050561906 0.9096044954249716
0.4835557096694676 0.9094360206446948
0.4630703097343378 0.9088266546721352
0.447138569724859 0.9167699272251504
0.4268444443581064 0.9153708649070165
0.4067366430758004 0.9135454576426009
0.38682381720438097 0.911299804917916
0.3708605274817531 0.9179120160211194
0.34761691105894116 0.9055730137022857
0.3317595390258988 0.911501842162331
0.31580110982344206 0.9171530183313372
0.299746484543699 0.9225248208062989
0.2806768365338273 0.918052565724514
0.2646118615843192 0.9228112281007861
0.2458780928473947 0.9176295349746149
0.2298258008196843 0.9217809399621966
0.21145399108323323 0.915907860898121
0.19335787246051608 0.9096772686824394
0.17745236570018677 0.9129132806063276
0.16149280523024528 0.9158712103013535
0.14548405248741478 0.9185501567534782
0.1294309838928609 0.9209493039296605
0.1121197959327357 0.9131424595100163
0.09616618620624119 0.9149601437388115
0.08018328332784569 0.916499122244406
0.06417595584459522 0.9177589262390383
0.048149079743508454 0.918739171974208
0.032107536966301 0.9194395608575682
0.016056213922300912 0.91985987954388
