# .PCD v0.7 - Point Cloud Data file format
VERSION 0.7
FIELDS x y
SIZE 4 4
TYPE F F
COUNT 1 1
WIDTH 180
HEIGHT 1
VIEWPOINT 0 0 0 1 0 0 0
POINTS 180
DATA ascii
5.0822842164615156e-17 -0.83
0.014660021407318221 -0.8398720639313686
0.029664572197125916 -0.8494822029662313
0.04500892236893181 -0.8588213998889335
0.060688132157388955 -0.8678807237260471
0.07756861104541594 -0.8866132813016535
0.09407561694088812 -0.895069705831446
0.11090110249868422 -0.903216997993603
0.12664752187365957 -0.9011439425548291
0.13140495063379398 -0.8296582060999157
0.1319726150268671 -0.748453892289278
0.14119865657864322 -0.7264041157512713
0.15177553429696425 -0.7140477485356781
0.17321231184477617 -0.7502649498846311
0.18627985961174412 -0.7471277092325173
0.19929066472894097 -0.7437628862425826
0.20948439042091938 -0.7305588889131224
0.20466019330591573 -0.6694133291741248
0.21322172611871373 -0.6562289962436559
0.21813066348629503 -0.6334974456515422
0.22915349602819812 -0.6295940559265586
0.2723596416544281 -0.7095211241378734
0.2884470769302524 -0.7139315680164262
0.30867759150652624 -0.7271988342274279
0.32945668089139835 -0.7399718206905067
0.3465469746273735 -0.7431723853700529
0.3726154747707158 -0.763974939354292
0.39497173477340575 -0.7751756760438799
0.4178296908794429 -0.7858233576444449
0.44117675442416676 -0.7959039334968502
0.4700000000000001 -0.8140638795573722
0.4995869326627527 -0.8314522816810488
0.5299192642332049 -0.8480480961564261
0.560978206065478 -0.8638306849837867
0.5927444776789916 -0.8787798269083443
0.6309340799861507 -0.901067248717891
0.6700751876134193 -0.92227937358744
0.7101417273194169 -0.9423899018558055
0.7449503851440465 -0.9534930118641335
0.7992368966332937 -0.9869753710503529
0.848479644786232 -1.011178664917051
0.9184826405867103 -1.0565934123118805
0.976930685283933 -1.0849914451969955
1.1389372613043725 -1.2213606817040146
1.1600794786665256 -1.2012974665655471
1.1808683245815343 -1.1808683245815341
1.2012974665655474 -1.1600794786665254
1.2213606817040146 -1.1389372613043725
1.2410518585472483 -1.1174481126192932
1.2603649989720291 -1.095618578414147
1.2792942200086932 -1.0734553081765206
1.2978337556331412 -1.0509650530532286
1.3159779585232256 -1.0281546637938492
1.341707656879452 -1.011049238895441
1.3591485505499117 -0.9874792238513548
1.3761754344055062 -0.9636084130697573
1.4010734976180206 -0.9450360068655621
1.425739965507221 -0.9258863595255459
1.441681763465924 -0.9008627491964483
1.465756084200612 -0.8807151080961926
1.48090344047139 -0.8549999999999999
1.5043458962797607 -0.8338725468236997
1.5186698597173545 -0.8074910879917322
1.5414412868458764 -0.7854035645494158
1.5639016405605506 -0.7627657954129947
1.5860386273141374 -0.7395819580462241
1.6078400054509776 -0.7158564918134083
1.6108834935417706 -0.683779474856229
1.6318435840375458 -0.6593076044120052
1.652437354900047 -0.6343112706951815
1.672652864998917 -0.6087958551196904
1.5695608354948658 -0.5404431363988801
1.493158730583391 -0.48515668116866745
1.4248940863849229 -0.4356338400368777
1.374604225191796 -0.3941614188183088
1.313659123753133 -0.3519939013394282
1.2710874014215554 -0.31691768323556474
1.2277062816293964 -0.2834383284732699
1.1737771208805667 -0.24949402898131118
1.13868753279929 -0.22133843463679195
1.112832760903795 -0.19622244076363127
1.0667034078427489 -0.16894922224344935
1.0496841528660645 -0.14752348701766937
1.0223225361905617 -0.1255254237073019
1.0343027711830042 -0.1087096017983596
1.0360424860154154 -0.0906419724575645
1.0474422527728156 -0.07324429743133157
1.0585473068398483 -0.05547611361752046
1.0793420931806235 -0.037691456438701046
1.0898339877204666 -0.01902312301663903
1.1 0.0
1.1198294185751583 0.019546695209757534
1.1293116345315781 0.039436431273826095
1.1584102603153055 0.06070970924181483
1.1671499388039943 0.0816150742806266
1.1954336377100947 0.1045868912971898
1.2033714933956106 0.12647944055386068
1.220831766518826 0.14989929238833138
1.237835085926963 0.1739663762000818
1.2642410759617764 0.2002361152514955
1.2802500789158704 0.22574263096700944
1.305564153985393 0.2537759638508046
1.3204992609906379 0.2806807826039751
1.3446306894036246 0.31043245499453365
1.368116974049155 0.34110987279553145
1.3909331898562582 0.37269942494762986
1.4034420760699455 0.40243053949281876
1.4344571339445533 0.43855755708410504
1.4551164699315848 0.4727960013936695
1.4939193494469207 0.5143976840423076
1.5129051194653127 0.5506524307543267
1.5310718994554107 0.5877234372542924
1.5762125527635387 0.6368312088070505
1.6108834935417706 0.683779474856229
1.6443818237566816 0.7321259575364403
1.6766694060178025 0.781843784220294
1.716696628431409 0.8372888903671378
1.7641929178929685 0.8989011894843025
1.8100425653608 0.962416703711076
1.8629399762069128 1.032644491124698
1.9225763964014542 1.1099999999999999
1.9886281376289006 1.1948883337913256
2.0437959117369866 1.2771054268020239
2.1218365369019225 1.3779367585880182
2.1969495672708605 1.4818611941974789
2.6130950212818838 1.829708831959837
2.6859364213248256 1.9514470376110107
2.6275108280555934 1.9799714261702388
2.576795164293981 2.0132130243149025
2.5179529151205857 2.0389980670014736
2.4590026624119194 2.063348227093791
2.415070656712871 2.0993888927696234
2.3632005450181137 2.1278353282211695
2.3110776971165787 2.1551148177974953
2.258726973063365 2.1812272832412516
2.2061731573020285 2.206173157302028
2.153440948422892 2.2299533810498184
2.10737493259312 2.2598829380032366
2.0542309615216947 2.2814546142156003
2.0075406287109527 2.309411315481682
1.960502209543945 2.3364355515128827
1.913133988791506 2.362523722829191
1.8654542702367445 2.387672583428367
1.8174813699191859 2.411879240342824
1.769233609400344 2.435141153068592
1.7264650734166485 2.465647653309865
1.6775787104122404 2.4871127176651253
1.3125800743862157 2.021196068748472
1.2718062341596916 2.0353154307754227
1.2360913797841304 2.0572015216850694
1.2000000000000002 2.0784609690826525
1.1586949923887457 2.090341100063156
1.126731750686138 2.1190742228614243
1.0895771993749124 2.138415658052083
1.052090752293786 2.157105711118001
1.0142838281776787 2.1751386888879596
0.9761679433819208 2.192509098342242
0.9416620196591498 2.2184166968203813
0.9028018901323485 2.2345130895059575
0.8672504378996263 2.2592646321232284
0.8276887468481186 2.274056142301898
0.791130615330891 2.29761013870634
0.7540014662748717 2.3205778997601745
0.7133869595234777 2.333383604549806
0.675311521751648 2.3550911550488816
0.636694850952201 2.376177532671108
0.5975470821311792 2.3966304439017114
0.5578786147727856 2.4164377606673835
0.519779227044398 2.4453690018345142
0.4789305783951277 2.4638842304536364
0.43759340772066463 2.4817155375907642
0.39734354120218657 2.5087283851116498
0.3562831384577676 2.53508625597842
0.31442290598528055 2.5607690712346107
0.26968343523054594 2.565866490050145
0.22660493114391175 2.5901062150385386
0.1827619612096081 2.6136178116807396
0.13816692448137208 2.636381971752075
0.09178567632757784 2.6283978750602217
0.04450363641507317 2.5496116226487975
