# .PCD v0.7 - Point Cloud Data file format
VERSION 0.7
FIELDS x y
SIZE 4 4
TYPE F F
COUNT 1 1
WIDTH 151
HEIGHT 1
VIEWPOINT 0 0 0 1 0 0 0
POINTS 151
DATA ascii
0.10051055050320311 -2.878245581814996
0.45944742463740607 -3.741898991687784
0.639025293814304 -3.6240925310849255
0.7079013728469816 -3.6418368505908334
0.765115022209354 -3.599583170700405
0.8188218378116692 -3.5467070358182564
0.8854341378947838 -3.5512823581701474
1.4152978342372593 -4.355838844631803
1.9110850666635102 -5.550194038767989
1.877690586857922 -5.158912488114637
1.953105325021886 -5.08801332440975
2.0416059341167214 -5.053152007388991
2.1880943195399327 -5.154827179333666
2.285859934085998 -5.134125471951417
3.7480733050466126 -7.684689095857879
4.006996222800224 -6.668761599462433
4.412529389604365 -4.731858449476032
2.9870309929736885 -3.0931611414561995
3.7123106012293747 -3.7123106012293743
3.5031848276492314 -3.3829862641353166
3.4227353235777174 -3.1917523250924926
3.5002121279985268 -3.151605155950222
3.5773234102559397 -3.109719797415005
3.6923342158334744 -3.0982362786891193
4.2587598687842005 -3.44867574295311
3.483007530941711 -2.7212237209394097
3.537955309509507 -2.6660405525635738
4.473863978893459 -3.2504524451773764
4.546293845803905 -3.1833492217483053
4.609448903406031 -3.109112543297352
4.68816847481492 -3.0445322057340007
4.75754981943755 -2.9728470723482796
4.825851902952892 -2.899664361743605
4.901703785419923 -2.8299999999999996
4.967839936551767 -2.7537186429991944
5.050460231153062 -2.6853773391352953
5.114377448841232 -2.6059054685049983
5.195029587609186 -2.5337852284408675
5.274711320553303 -2.4596382833308708
5.353376381785641 -2.383476728424189
5.4309786353693985 -2.305313658086715
5.516743934672386 -2.2289092308246765
5.582810950453267 -2.143040338280896
5.666346503339028 -2.0623814642537823
5.682566639351894 -1.9566646082875117
3.4428245889884557 -1.1186415196373096
2.046492177760896 -0.6256754481066567
2.0090369445110863 -0.5760820736575282
1.9898072021554807 -0.5331672329111927
1.979403281603033 -0.4935206670233222
1.9584838302183227 -0.45215161923116853
1.9367322494529353 -0.4116651478191634
1.9239892795574214 -0.37398563093802784
1.9105270408436834 -0.33687746467384483
1.8963616139426644 -0.30035417287724325
1.8815093306089836 -0.2644288918241243
1.8659867650856852 -0.22911436560167725
1.859755944338671 -0.19546822631051197
1.832998244488812 -0.16036656665569105
1.8255422119754783 -0.12765434695174932
1.8075194579057787 -0.09472808079972833
1.7989034886343724 -0.06281909406450174
1.7897273743299404 -0.031239807522737487
1.77 0.0
1.7697304204268125 0.030890759393991815
1.7589278555536085 0.06142311419640171
1.7476016858205041 0.0915879234251517
1.7257858069494958 0.12067869957733678
1.7234168276987198 0.15077943495344862
1.71057766003343 0.17978895682036394
1.6972539193066605 0.2083965772228022
1.6933583975480853 0.23798600264171188
1.6790701790117342 0.2659385905683925
1.6643251025906316 0.29346542025711225
1.6393173963575989 0.3186510222788298
1.6432879692327935 0.34929164057383566
1.6271980081913429 0.37566826075425447
1.620393862880914 0.4040095656514451
1.6034368716398533 0.4296396148701844
1.5956944152576094 0.4575580106562186
1.5874658948986389 0.4853370298397429
1.5787538170499549 0.5129682106624126
1.579016021250859 0.5436988179434517
1.569286676712467 0.5711736393538668
1.5590793122503268 0.5984744757406514
1.5391251985808672 0.6218469450704139
1.528038056731051 0.6486136732921943
1.5073500051102913 0.6711154610750703
1.504470926480839 0.7015463144895611
1.500986057319609 0.7320798151377592
1.4879808953945743 0.7581641345650431
1.4745224800744081 0.7840175098524376
1.4693611079941848 0.8144801620138462
1.4635829323957015 0.8449999999999999
1.4486127381865699 0.8704143465979916
1.4501622444274884 0.9061619418387804
1.4341266711866751 0.9313327498756961
1.4259446247946717 0.9618117939696845
1.4171330366199557 0.9922872348873096
1.4076895702124086 1.0227463389889033
1.3976121425827626 1.0531762905160844
1.3868989263478306 1.0835641965731586
1.3755483517788383 1.1138970921582123
1.3635591087517809 1.14416194524204
1.350930148598762 1.1743456618930082
1.3376606858593096 1.204435091445945
1.3310637369468903 1.2412370153137473
1.3163918346197316 1.271224817939965
1.3152186130069785 1.3152186130069783
1.2920645690537351 1.337972028629891
1.2753369333168723 1.367631422027849
1.2713481520818306 1.411975168407049
1.2596333356617742 1.449042394027722
1.2470079627918864 1.4861262196508174
1.2334679664576815 1.5232060844556627
1.22516633589806 1.5681413996773765
1.2156663467671376 1.6132437302955316
1.1990819146766452 1.650394668524893
1.1815674588831548 1.687453211235323
1.1687131682538607 1.7326885266400371
1.1600811445820078 1.7863683097237528
1.1393264181013905 1.823303406736316
1.1227830033039186 1.8686247155306048
1.1100000000000003 1.922576396401454
1.0956697417567218 1.9766405381350343
1.07508987877969 2.0219499876469427
1.0577978643931443 2.076045201358897
1.0433233293580042 2.1391298301920174
1.0311885586473066 2.2113910003694257
1.0087068748279848 2.26559273495365
0.9885497550778625 2.328877279234674
0.9664850110130535 2.392134344782311
0.9496750662950454 2.4739881302175846
0.9268745884125625 2.5465670023298115
0.9050794693908957 2.6285416401661004
0.8837886039123497 2.7200216366041388
0.8595728118848461 2.811535982531324
0.8351811881255075 2.912622938693106
0.8049272302688395 3.0040293197590024
0.77898850383093 3.124352238608709
0.7490870109650709 3.2446523157348333
0.7152162164130917 3.3648277465242917
0.6830962034480308 3.514225316742637
0.6477077026976504 3.673332918735536
0.6132231029577052 3.87173829513294
0.5733931759554697 4.07990444321527
0.5301316438123915 4.31757575963975
0.485012069561912 4.614581594508787
0.4349071563108152 4.97101154347781
0.3745922640059525 5.356918949895256
0.31244565877037545 5.961818322484805
