# .PCD v0.7 - Point Cloud Data file format
VERSION 0.7
FIELDS x y
SIZE 4 4
TYPE F F
COUNT 1 1
WIDTH 180
HEIGHT 1
VIEWPOINT 0 0 0 1 0 0 0
POINTS 180
DATA ascii
1.2246467991473532e-16 -2.0
0.0349048128745672 -1.9996953903127825
0.07049698333905219 -2.0187694705785733
0.10624199117317625 -2.0272179555517846
0.14439590065033922 -2.064957584037836
0.24142140741101367 -2.759459313714135
0.2905891278840766 -2.7647708691237995
0.34123416153441294 -2.7791292245957013
0.3924681447073846 -2.7925559538512283
0.44270953606385355 -2.79515800388424
0.496633788127421 -2.8165501736149148
0.5457137267769184 -2.807453744660319
0.5987856695551466 -2.8170650901133603
0.6546075681406476 -2.835416888525035
0.7088311541070264 -2.8429664779886696
0.7635161830524362 -2.8494811875527515
0.8186429467764875 -2.854947236936807
0.874191397120983 -2.859351220329476
0.9332313230123414 -2.872190679211364
0.992982871094328 -2.8838316555779158
1.0568422428763167 -2.9036501982284566
1.1181080025813366 -2.9127709306712695
1.1837568351942827 -2.929900980431048
1.246432299880783 -2.936410482513285
1.3137593571348352 -2.950751828185601
1.3819617158920872 -2.9636264636098453
1.4553922073397372 -2.9839962337132344
1.5254080791248774 -2.9937819212729155
1.6055927447277467 -3.0196807675775297
1.68228938225479 -3.0349303837737036
1.7550000000000003 -3.039749167283379
1.838685927428894 -3.0600872635065404
1.928906121808866 -3.086895070009391
2.0097180392054503 -3.0946943957186144
2.1081572460847156 -3.1254716485325074
2.2082692799515273 -3.1537353705126185
2.3099960415094194 -3.1794367878935437
2.407260092608193 -3.1945420401891713
2.4995855898221726 -3.199323659643291
4.4996407960063385 -5.556593624417341
4.608787161452487 -5.492538657163072
4.749867369891273 -5.464097360812869
5.05193607800938 -5.610743432354327
4.248849783189366 -4.556333561087432
4.209629724981523 -4.359199190052225
4.164858941188765 -4.164858941188764
4.121817055940472 -3.9803924627300544
4.07364011801878 -3.7987308655481167
4.042707850597025 -3.640070498592189
4.015054966785147 -3.490234034229499
3.975770659787496 -3.336067694273139
3.932358564972272 -3.1843611787121775
3.9006532303532735 -3.0475243028620085
3.865395868628897 -2.9127847120559136
3.8428307232810006 -2.7919799483892476
3.817248526386702 -2.672866193395875
3.788701706576541 -2.555511568861313
3.7656308500749542 -2.445429267217471
3.7398921040498387 -2.336943955268434
3.7201060850471674 -2.235265245109635
3.7239092362730863 -2.1499999999999995
3.6734027699854623 -2.0362004050346156
3.6465735585073684 -1.9389175543057289
3.6263965534466576 -1.8477413339399553
3.6041641256596595 -1.7578682986242002
3.570852680924401 -1.6651159512583558
3.5536918302297176 -1.5822055415648626
3.5255335887228467 -1.4965002221139183
3.5047549702624563 -1.4160129231121474
3.4915907950995346 -1.340296131299423
3.467465770700002 -1.2620543288717174
3.4511428009375065 -1.188323763768622
3.4238034586625528 -1.1124611797498107
3.4140079787880366 -1.04376698586017
3.402866403621649 -0.975756239592177
3.3903996502746296 -0.9084548483098478
3.366926170177708 -0.839468977730847
3.351833022861209 -0.7738316269428955
3.3354833185022774 -0.7089788656885593
3.3178998800531043 -0.6449344043727214
3.308954050121019 -0.5834578769608859
3.289002174181809 -0.5209267685839688
3.277787307534598 -0.4606629641778166
3.255551377383536 -0.3997314463688837
3.2421413789005706 -0.34076279025255024
3.237632768798173 -0.28325616392988906
3.232107522841831 -0.226010974930966
3.215587101909728 -0.16852177910227914
3.2080445547312975 -0.11202738441502812
3.189514147548888 -0.0556731765349344
3.19 0.0
3.1695171936457602 0.05532412840618873
3.1480811051101516 0.10993341461287805
3.2355596926048196 0.16956849822713801
3.6111818619405636 0.2525184349537336
3.8353495876532206 0.33554960957848395
4.25655371217621 0.4473818227855568
4.218321144475619 0.5179447094718768
4.2383473342139215 0.5956608721090801
6.66689629901718 1.0559326390215584
6.637604255302282 1.1703887174751104
6.527820769926966 1.268879819254023
6.485118592865132 1.3784545101217442
6.1190440068512775 1.4126926212794721
6.064348289224978 1.5120118474979234
7.118873339750434 1.9074963624055778
7.344039356968756 2.1058693984418735
7.315731383117222 2.236643541128936
6.619353353414269 2.150758280849634
6.542988543147272 2.252931628843524
6.512069862046345 2.370199593246884
6.460376551360636 2.479906210853478
6.36975308087383 2.5735472967673156
2.8167448515644677 1.1956372531771775
2.5305209176700045 1.1266605013199664
2.283895623332358 1.0649980195865627
2.0941901278770594 1.0214047720185504
1.9245740922468748 0.980619479437421
1.8012130894322111 0.9577219880832173
1.6705236406362458 0.9259863746705037
1.5501854727741453 0.8949999999999999
1.4486127381865699 0.8704143465979916
1.3568769538502816 0.8478708227731279
1.2747792632770445 0.827851333222841
1.210394855930361 0.8164216390672903
1.1386213415616986 0.797271246527954
1.0679024325749307 0.7758765330260646
1.006280742659589 0.7582869291715808
0.9613731194002006 0.7511069998973031
0.901489315290086 0.7300116536178115
0.8579697762932554 0.719922122848924
0.8226334424428215 0.715104341599653
0.780302066751264 0.7025871366768012
0.7386672386353622 0.6888183436631234
0.7121464023352647 0.6877117867544073
0.6717514421272202 0.67175144212722
0.6460322845268676 0.6689860143149455
0.6137985240562487 0.6582183314572534
0.5888349335957953 0.653967446420107
0.5707713552217414 0.6565973347938115
0.5527973443304238 0.6587982210823211
0.5412155363028602 0.6683455268529949
0.5417820982865793 0.6934494631739153
0.547651671068364 0.7267583141430365
0.5466402846320001 0.7523858047687012
0.5391618501699833 0.7700029216316523
0.5368251873319169 0.7958760696528401
0.5282998639645764 0.8135104509070612
0.5246200715908729 0.8395676151948618
0.5150380749100544 0.8571673007021122
0.5100000000000001 0.8833459118601273
0.5042020050561906 0.9096044954249716
0.6431760410166706 1.20963820221673
0.6310467946379701 1.2384990686218311
0.62248702844049 1.276287545744817
0.6127964795240142 1.3141462912031423
0.6019702317521846 1.3520472773110492
1.5238514011081674 3.5899689284645175
1.4422353846512619 3.5696578400821313
1.3617982082721405 3.5476056206893665
1.2825755374712582 3.523847327947156
1.2111135345806232 3.5173291012294583
1.1371825392998067 3.4998879799661653
1.0642330051907618 3.4809493117054493
0.992294480941197 3.460542105377948
0.923983991015999 3.448355199851974
0.8564035104228236 3.4348468710170277
0.787328690203528 3.4102952267483233
0.7256118009539798 3.413735126560982
0.6601991240028454 3.3964300547289175
0.5973497311742406 3.3877386703619954
0.5318771811367852 3.3581403580234683
0.4704050812450213 3.3471060723465076
0.4082623004072441 3.3250296079984287
0.34912506731396253 3.321703130530033
0.28935706592222576 3.307366397664595
0.226708539668407 3.2420831633444287
0.1716619364768562 3.275504873995002
0.11377235925015351 3.258014096082252
0.05672032092117169 3.2495050092582716
