# .PCD v0.7 - Point Cloud Data file format
VERSION 0.7
FIELDS x y
SIZE 4 4
TYPE F F
COUNT 1 1
WIDTH 168
HEIGHT 1
VIEWPOINT 0 0 0 1 0 0 0
POINTS 168
DATA ascii
5.327213576290986e-16 -8.7
0.15113783974687597 -8.658681040054349
0.11237637938205348 -3.2180384630014887
0.6806940886196295 -2.5403849231402496
0.7607591020549176 -2.65308228078976
0.850801660743164 -2.782846839852433
0.8930591137435981 -2.748553332092994
0.9343806032920399 -2.713638311970039
0.9781776099114128 -2.6875208954476975
1.0141812972131994 -2.642032606987081
1.0638827253011904 -2.633202146969676
1.1018617823397518 -2.5958236867358817
1.142929967042999 -2.5670627359757083
1.1875573154913655 -2.5467248815729864
1.2274392110094168 -2.5166233296376674
1.2620935892759402 -2.4769981372436622
1.3004362289169178 -2.4457648322192274
1.3380745518798904 -2.413950391704732
1.3800000000000001 -2.39023011444505
1.4163547060026496 -2.3572100769308086
1.4466795913566495 -2.3151713025070433
1.4814181752408742 -2.2811839448115534
1.5098208393710164 -2.238401445898613
1.5486563781478244 -2.211710519580278
1.5870201811896776 -2.1843458848123585
1.6249005625105304 -2.1563158771276907
1.6622859833792776 -2.1276290347381495
1.6991650558345615 -2.0982940959338214
1.7355265461536564 -2.068319996421241
1.77135937827437 -2.0377158666014843
1.8133439432325058 -2.0139224770437383
1.848215555769371 -1.9819685313879518
1.889470767648473 -1.956604256921131
1.9233304448274096 -1.9233304448274093
1.9566042569211315 -1.8894707676484728
1.9965956054203353 -1.8618555229706208
2.043648270062834 -1.8401091674868602
2.0905455372170785 -1.8172835103037053
2.114282663008379 -1.7740938027348483
2.152694313235809 -1.7432174832080498
2.1906698950266867 -1.71153890140533
2.228193073031947 -1.6790639145942148
2.2652475842498525 -1.6457987064189248
2.3100087648949565 -1.6174855505099497
2.329595578879667 -1.5713320587527986
2.3818244129650044 -1.5467748594426765
2.4169370740458143 -1.510269903064634
2.4514984800080413 -1.4730088942427548
2.502813416937028 -1.4449999999999998
2.5363971507042478 -1.4059478987143774
2.5782069711480666 -1.3708569633348011
2.6106491158719183 -1.3301921642368721
2.660430377045534 -1.297578594495669
2.6917341274988504 -1.2551762373698774
2.7406363729278027 -1.2202099292274005
4.105451646397884 -1.7426608330621607
4.571016403014262 -1.8468105055404462
3.2395240799452902 -1.243536784922192
3.251336467919243 -1.1833896959068138
3.271494271573636 -1.126465814421762
3.290655546381231 -1.069198800537318
3.2992514080724726 -1.0086823812934418
3.604731359768696 -1.0336400843137468
3.6318811068468966 -0.973159609585478
3.6483119307977465 -0.9096263274547506
3.673375144240337 -0.848065474876371
3.6876164547664474 -0.7838270743829526
3.9952226366319925 -0.7765926111825374
3.722573306386146 -0.6563901115809966
3.812476994697232 -0.6038370350552912
4.07990444321527 -0.5733931759554696
4.138917452344312 -0.508195161999465
3.9184162677509966 -0.4118421452745546
5.01085933140148 -0.4383933860207206
6.962997070813573 -0.48690018673399466
7.0003930386295625 -0.3668750532630362
6.166241402707821 -0.21532989465443098
6.02908160179304 -0.10523801081681958
5.91 0.0
5.7891181549555055 0.10104943327187153
5.766485071900182 0.20137009597343059
5.851969073661803 0.30668870358365086
5.935506099045954 0.4150510187775456
7.312069083993412 0.6397231517678109
7.34951680677154 0.772465343547959
7.384543368211436 0.9067079149342973
7.327983708687621 1.0298809471044843
6.795295783294548 1.0762691194767884
6.676996565422771 1.1773346445817876
6.891022827802601 1.3394791475433445
6.7296554930485835 1.4304324328261842
6.75238454896168 1.5589108066029842
6.792070083931975 1.693453269197674
6.829095591863713 1.8298506488748216
7.642030482709635 2.191316978745143
6.483746245429381 1.982280158020155
6.838096352162154 2.221832189555872
7.573603790550528 2.6078009172018253
6.408703673759896 2.3325773774810608
7.608680475952195 2.9206987887941973
7.639994961630329 3.086758329747115
7.851906399949316 3.3329365260135044
6.815049114013802 3.034255357345469
6.70667762407121 3.127375136881176
6.731967406780761 3.2833998894501897
6.014294038271483 3.0644358732419406
3.6995504140789044 1.9670858480728826
3.6296717846284925 2.011959924022299
3.5593644095540435 2.0549999999999997
3.4886709138575975 2.0962049648839205
3.417633827510397 2.135574634859816
3.237268392269337 2.102306675158004
3.1503427757091584 2.124933033188838
3.0636286456408297 2.145175871952912
3.0742645786248 2.2335839587113977
3.098705778983496 2.335042289829947
3.1205225842826185 2.438019442289607
3.1629840631298713 2.561333991572839
3.1867448833749488 2.6739964562960035
3.2150628117490085 2.7948114634995607
3.2624057838457605 2.9374833619153873
3.298405194302459 3.075812603881868
3.352123469578115 3.2371080063389273
3.4011836175072934 3.401183617507293
3.438558933772037 3.560732011676323
3.4850116199193675 3.7372174152739612
3.5330096015747716 3.923804678520642
3.601764069157886 4.143355595423018
3.6510336230195435 4.351132436915795
3.731869918925536 4.608475551439836
3.7863180732527986 4.84626613468134
3.8696705988676703 5.135226329604093
3.9440390428824945 5.428504032255898
0.4015035054457322 0.5734064310022943
0.38584310339481526 0.5720359250629787
0.37580093416036875 0.5786826918823424
0.36034509967857936 0.5766727053863697
0.350225890938837 0.5828737644774363
0.3400000000000001 0.5888972745734183
0.32482244556504586 0.5859952037833952
0.31454594706654687 0.591574887215481
0.3041736348254964 0.5969743712062064
0.2937086683486819 0.602192011020442
0.28315423536626866 0.6072262173145555
0.27251355086078627 0.6120754566205426
0.2617898560878134 0.6167382518131351
0.2509864175886612 0.6212131825597476
0.23652284669989812 0.6161630814881531
0.22915349602819812 0.6295940559265586
0.21813066348629503 0.6334974456515422
0.20395121628746532 0.6276973007548013
0.342074894525602 1.1188765644767513
0.40243053949281876 1.4034420760699455
0.37528761539865507 1.400592448119149
0.35078674861951814 1.4069288031001947
0.3284285393420431 1.4225802945864434
0.30147195168575086 1.4183140210640182
0.2785811332497556 1.4331756878335893
0.2552628211703877 1.4476673969279457
0.22995866360913944 1.4519018606748526
0.20597618942089688 1.4655967417375242
0.17914793480556682 1.4590428429127433
0.1536568410034506 1.4619471861913618
0.12811894183905778 1.464406206194866
0.10323958114130534 1.4763947943845397
0.07798057480198652 1.487958006784315
0.05234924505375162 1.4990862405286436
0.026353133720298235 1.5097700196861508
