# .PCD v0.7 - Point Cloud Data file format
VERSION 0.7
FIELDS x y
SIZE 4 4
TYPE F F
COUNT 1 1
WIDTH 180
HEIGHT 1
VIEWPOINT 0 0 0 1 0 0 0
POINTS 180
DATA ascii
2.510525938252074e-17 -0.41
0.007155486639286275 -0.4099375550141204
0.014308793648025443 -0.40975023907782926
0.021457742059607026 -0.40943810924937524
0.028600154235091345 -0.4090012606065279
0.035733854526539925 -0.40843982621761565
0.04285666993973791 -0.40775397710099204
0.04996643079611047 -0.406943922172942
0.057060971393626835 -0.4060099081840438
0.06570247531689699 -0.41482910304995785
0.07293223462011077 -0.41361925626512736
0.08013977805814886 -0.41228341704801885
0.08940202705163647 -0.42060346831553647
0.09672895336786201 -0.4189791278576511
0.1040264151078571 -0.41722716229867846
0.11388037984510913 -0.42500736356719004
0.11852406300130963 -0.41334252925347714
0.12864355007800418 -0.4207740926237356
0.13596747752497687 -0.4184648671698676
0.14324998796114896 -0.41602817326369934
0.1504888630632943 -0.41346475314579967
0.16126557729538507 -0.4201111919237408
0.1685729670371605 -0.4172327345550543
0.1758290078201732 -0.41422718405359815
0.18709885581486818 -0.4202309105155964
0.19440440040072174 -0.416901582036859
0.20165072752297564 -0.41344526129761683
0.20883562988019155 -0.4098630011266492
0.2206516345093687 -0.4149853686436956
0.22786052151577843 -0.411071262355516
0.24000000000000005 -0.4156921938165305
0.2472182759568261 -0.41144030433701384
0.2596604394742704 -0.41554356711664875
0.2723195175075136 -0.41933528397271197
0.2795964517353734 -0.41451878627752087
0.2925239825390335 -0.4177675425873858
0.3115261837150108 -0.4287790070187222
0.3189619622705856 -0.4232768203250652
0.3324571966758555 -0.42552580694762987
0.34612621507741065 -0.427430278801334
0.3535331853275967 -0.4213244437154379
0.36739305623468416 -0.4226373649247523
0.37471313956096064 -0.4161611022673408
0.38873906523562407 -0.4168716099229271
0.40290185486621843 -0.4172170841964176
0.41719300090006306 -0.417193000900063
0.4387972782065772 -0.42374160597998833
0.4534392950038857 -0.4228389832387491
0.4681812400507584 -0.4215522820060807
0.4905612271448018 -0.42643836884382974
0.5055893324585256 -0.4242398223931159
0.5284592537907402 -0.42793786591388955
0.5516075275247053 -0.43096303272796077
0.5750175672340508 -0.43330681666947474
0.5824922359499621 -0.42320538165058064
0.606172512773854 -0.42444656289977406
0.6300685551418317 -0.42498660663776755
0.662549748676885 -0.43026483766187135
0.6953994388482693 -0.434533796671228
0.7200205325897744 -0.4326319829244455
0.7534421012924617 -0.43499999999999994
0.7871577364254562 -0.43632865822170336
0.8211412613588022 -0.43660855339087845
0.8642763284627168 -0.44037078474736036
0.9167699272251504 -0.44713856972485894
0.9516231763884825 -0.4437491748277344
1.0049000034068611 -0.4474103073833802
1.0677856300048307 -0.45324810904755747
1.112620625480145 -0.44952791209909443
1.1763113373864742 -0.45154361642707835
1.2403942594373991 -0.45146658918988275
1.3331811915950367 -0.4590510977845909
1.4170742092797788 -0.4604353216186716
1.5109615144215962 -0.46194729346192404
1.6341448830951422 -0.46858350488889855
1.7676442621089952 -0.47363885253761295
1.921185538026473 -0.4790053532873421
2.1046393399361083 -0.4858942773827484
2.3182098137391196 -0.4927507072380896
2.611128307970786 -0.5075519277016092
2.954423259036624 -0.520944533000791
3.417401658459177 -0.5412632490391988
3.8719481487795404 -0.5441668247538559
3.851079068368329 -0.4728530524119722
4.186937179500431 -0.44006483035682104
7.760356698134697 -0.6789432360042571
7.771023951524031 -0.5434029304667362
7.7893103710856755 -0.4082204586949619
7.785254542478756 -0.27186707931248255
7.518854667576062 -0.131242096408372
7.8 0.0
7.808810499171416 0.13630329427518423
7.815236267289329 0.2729140642135576
7.8092829617807675 0.40926717781982075
3.700962626463948 0.2587965175907049
3.227670821817256 0.2823846065024125
3.2123057220395226 0.3376269363545207
3.166222223735817 0.38876320546242044
2.208297793293702 0.3103560151409459
2.044514865031935 0.3238193426332779
1.9203751183738056 0.3386139464505141
1.9239892795574214 0.37398563093802784
1.9562952014676114 0.41582338163551863
1.7636098172612757 0.4071614083623956
1.5524731620415944 0.3870750329594684
1.5454813220625094 0.4141104721640332
1.4707303947856278 0.42172515440000874
1.4631462766234444 0.4473287082257872
1.4551164699315848 0.4727960013936695
1.456098606422948 0.5013749578640213
1.4189358573867217 0.5164504164217597
1.3630274226859145 0.5232172063361383
1.2887855578478344 0.5207031648481176
1.2426815521607946 0.5274870234605196
1.1876090949353812 0.5287576359985402
1.0513170329625139 0.4902371836192113
1.006649331855067 0.49097568440376677
0.9622870461234374 0.4903097397187105
0.9359244484304626 0.49763985655304427
0.9008582983535777 0.49935390885372716
0.6581793068761734 0.37999999999999995
0.625732129512542 0.3759777946843395
0.5936336673094982 0.3709434849632434
0.5954561032412511 0.3866937148606691
0.59690705223963 0.4026188904989377
0.606172512773854 0.42444656289977406
0.6067627457812106 0.44083893921935485
0.6069629876359426 0.45737941759555667
0.6067682802771759 0.4740593360007569
0.5984023903218675 0.48457670110837486
0.5285706657520948 0.4435234506837121
0.5056554187492572 0.4395595494236399
0.49047558481508025 0.44162620019684645
0.48269344306865253 0.450118917641249
0.46037747221673675 0.44458135709375823
0.44547727214752497 0.4454772721475249
0.43763477338916834 0.45318407421335016
0.41601899963812405 0.446125757987694
0.4081696698789035 0.4533183435412105
0.3936354173943044 0.4528257481336631
0.3792446897150582 0.451966221440197
0.3712990307194041 0.4585161172596127
0.3570836556888818 0.4570462370918987
0.34905271342818794 0.4632085958274298
0.3409154463296344 0.4692298567374695
0.32693856872009625 0.4669166652447253
0.31873995497832563 0.47255141635637377
0.30499785960841524 0.46965551804943745
0.2967547879705948 0.47490693384759863
0.2832709412005299 0.47144201538616176
0.2750000000000001 0.4763139720814413
0.2666452911354854 0.4810408389266677
0.2535146439043811 0.47679170014382055
0.24515486985935533 0.48114352306171865
0.23233670779821106 0.47636084453855854
0.22398767872257072 0.4803431271294245
0.21557042083017422 0.4841790925505785
0.2070874980993151 0.48786757232979344
0.20603362637875172 0.509951120011733
0.16126557729538507 0.4201111919237408
0.1504888630632943 0.41346475314579967
0.14324998796114896 0.41602817326369934
0.13596747752497687 0.4184648671698676
0.12864355007800418 0.4207740926237356
0.12128043655947963 0.4229551462128603
0.11388037984510913 0.42500736356719004
0.1040264151078571 0.41722716229867846
0.09672895336786201 0.4189791278576511
0.08940202705163647 0.42060346831553647
0.08204786801191431 0.4220996888824955
0.07293223462011077 0.41361925626512736
0.06570247531689699 0.41482910304995785
0.058452702403227495 0.41591258887145954
0.04996643079611047 0.406943922172942
0.04285666993973791 0.40775397710099204
0.03660541195401651 0.4184017731985331
0.03627336634694512 0.5187333061351086
0.027214697246330865 0.5192873580723784
0.01814773828530056 0.5196832300499298
0.009249775411760308 0.5299192784328874
