# .PCD v0.7 - Point Cloud Data file format
VERSION 0.7
FIELDS x y
SIZE 4 4
TYPE F F
COUNT 1 1
WIDTH 175
HEIGHT 1
VIEWPOINT 0 0 0 1 0 0 0
POINTS 175
DATA ascii
8.939921633775678e-17 -1.46
0.025480513398434053 -1.4597776349283311
0.050953265185651575 -1.4591106074478797
0.07693385567712763 -1.4679854160892236
0.1025420164038641 -1.4664191538819416
0.12811894183905778 -1.464406206194866
0.15470212563612712 -1.4718924051450444
0.18158532167366975 -1.4788937659455696
0.2087596514400982 -1.4854021031123557
0.2362160422107487 -1.491409394298658
0.2622087482770649 -1.4870597070484342
0.2900296729723483 -1.4920733188404494
0.3181048869511716 -1.4965658291227226
0.34417511314611365 -1.49078619912141
0.37014050026749157 -1.4845524612022747
0.40116951990890715 -1.4971850307480559
0.4272379015163487 -1.4899556287043942
0.453176142320242 -1.4822723717427049
0.48206651122491806 -1.4836481654204396
0.5143976840423077 -1.4939193494469205
0.5438120278878135 -1.4941112670495944
0.5733887192724803 -1.493728682395523
0.6031166153996187 -1.4927660058525276
0.6368917394375161 -1.5004229111274776
0.6711154610750706 -1.5073500051102913
0.7015463144895611 -1.504470926480839
0.7276961036698686 -1.4919981168566172
0.7627040395624387 -1.4968909606364578
0.8027963723638734 -1.5098403837887648
0.8338725468236998 -1.5043458962797607
0.8650000000000002 -1.4982239485470787
0.9064670118416958 -1.5086144492357174
0.9485554829774367 -1.5180060921200027
0.980350263027049 -1.509607022301763
1.0177310843167593 -1.508848382050176
1.0611164072494352 -1.515431281934635
1.0991584217869248 -1.5128617794811519
1.1434485439888917 -1.5174074690898562
1.1882266473785206 -1.5208607544609731
1.2334679664576815 -1.5232060844556627
1.2791473432762133 -1.5244284418067662
1.325239238560825 -1.5245133520499992
1.378409049099248 -1.530878340483432
1.4253765725306218 -1.5285292363840661
1.4657291616684844 -1.5178069787145536
1.5273506473629428 -1.5273506473629426
1.589740958748419 -1.5351949987143838
1.6455458286431335 -1.5344963101406215
1.7092330985980067 -1.5390003946253739
1.7735675135235143 -1.5417387181276923
1.8385066634855471 -1.5426902632476942
1.919550524798718 -1.5544213658930988
2.0015473141610736 -1.5637801473271722
2.0764523261229613 -1.5647190601953256
2.1519852050373602 -1.5635087710979787
2.244476601351838 -1.5715994356018663
2.089174682838705 -1.409166116746282
2.088289714184106 -1.3561511971874174
2.0777178355832437 -1.298302197371352
2.0743448676991116 -1.2463921412823311
2.078460969082653 -1.1999999999999997
2.090341100063156 -1.1586949923887457
2.092585795075657 -1.1126476038025612
2.0938653318426645 -1.066877674387935
2.0941901278770594 -1.0214047720185504
2.0935709880546614 -0.9762481846210157
2.092019098001556 -0.9314269126435823
2.098751065871564 -0.890866972955544
2.0954355113209395 -0.8466109011199611
2.091220155353732 -0.8027442069814726
2.104911470560435 -0.766125121049498
2.0990512378304835 -0.7227613028948879
2.0923243358493377 -0.6798373876248843
2.103870463118678 -0.6432177503900208
2.095550497145535 -0.6008894356810582
2.096059043047278 -0.56163732787247
2.105541726018912 -0.524970513451279
2.1241267412318128 -0.4903932984696257
2.455150477841852 -0.5218583439525758
2.4638842304536364 -0.4789305783951274
2.46201938253052 -0.4341204441673258
2.4593439680818934 -0.3895218179501749
2.4657674911665106 -0.346541021390563
2.471439917586892 -0.30345466507881724
2.4863047384206833 -0.26132115816913365
2.4606009042866117 -0.2152746845867157
2.4440319231365693 -0.170903360673107
2.286861634587974 -0.11984933979634137
2.2286415442525835 -0.07782587764657715
2.199664929344061 -0.03839529416202373
2.16 0.0
2.1296755906831133 0.03717362571141388
2.108714645010292 0.07363793804227704
2.0771494322895134 0.10885878898532317
2.054981943535238 0.14369833591289813
2.032237184107161 0.17779771520522267
2.0089342286439122 0.21114749580065997
1.985092303282644 0.24373868681029495
1.9607307761083093 0.27556273990092955
1.93586914756647 0.3066115514788525
1.9105270408436834 0.33687746467384483
1.8945404640539913 0.36826136107673146
1.878043393408907 0.3991904463700979
1.8513031230919468 0.4274070032533434
1.8338589226616333 0.45723238268337196
1.8159405534234483 0.486579804792739
1.7879467544452732 0.5126854818196185
1.7691637985316158 0.5408876537370629
1.7499439899830826 0.5685912696499033
1.7208438075907566 0.5925340411120252
1.7102405698303533 0.6224766608527171
1.6897805719599353 0.6486459886769935
1.6689309382202173 0.6742918681486416
1.6477036876798683 0.6994087199958
1.6261109146038295 0.7239912246749243
1.6041647830548704 0.748034323281038
1.5908654619495257 0.775916929816667
1.5681714825715276 0.7990232795416022
1.5451582875031222 0.8215752348753089
1.5305844874939425 0.8484168354310898
1.5068842025849234 0.8699999999999999
1.4828994302146543 0.8910158695943937
1.0939820440417896 0.6835958508608343
1.3418729087126786 0.8714224560240432
1.4591061276968735 0.9841795101085143
1.9331988245220206 1.3536403897884686
1.9011899367811267 1.3812953428873118
1.884779803711611 1.4202834546388339
1.8518252709757965 1.446804467015297
1.5309775440702325 1.23976117036818
1.807864885760788 1.5169787588602326
0.8301805382450493 0.721664931889558
0.8100278597703597 0.7293523609311555
0.8118026087972793 0.7570181796693733
1.7048353268026033 1.6463403379878236
1.6829141392239833 1.6829141392239828
1.6532869216924138 1.7120287248059896
1.6299760805493715 1.7479353468698176
1.3048046823997734 1.4491324096809188
1.5679810792873128 1.803755896732425
1.4655557500853096 1.7465813303112698
1.3719184524886459 1.6941781959761963
1.2928890981838825 1.654822582574116
1.2156663467671376 1.6132437302955316
1.1520590944932474 1.585673308974897
1.084059464703477 1.5481973637061943
1.0233230133514666 1.5171387577757265
1.0021358244276501 1.54315384501958
0.9909490241160932 1.5858499398125168
0.9682715808309021 1.611474525319971
0.9500000000000002 1.6454482671904334
0.9308344708729672 1.6792698377076398
0.9107748318046283 1.712918330146318
0.31325344482028733 0.6147945016899737
0.28932495688079113 0.5932040705574503
0.28738041798367564 0.616289295184922
0.2847156501530602 0.6394818203498206
2.1763723856852546 5.1272120337300935
0.5951150493866637 1.6350651601674804
1.4092316167635912 4.6093889237418315
2.3070846681882826 8.045760395003729
0.3054064732209745 1.1397924750211006
0.27821017993961783 1.1158400852173957
0.2973137178693957 1.398751069049342
0.2785811332497556 1.4331756878335893
1.2520033609785683 7.10046389921802
1.4720483160285731 9.294147285000246
0.5636510588882652 4.01058567840336
0.461884811505509 3.7617499147206104
0.39511759115173006 3.759292764492073
0.3294487075861486 3.765615958786798
0.26367947075279335 3.770792109982135
0.19730655503589875 3.7648333460247434
0.129477132766279 3.7077399682408454
0.06439937975357647 3.6894379951270837
