# .PCD v0.7 - Point Cloud Data file format
VERSION 0.7
FIELDS x y
SIZE 4 4
TYPE F F
COUNT 1 1
WIDTH 177
HEIGHT 1
VIEWPOINT 0 0 0 1 0 0 0
POINTS 177
DATA ascii
1.5491782009214017e-16 -2.53
0.043805540157581827 -2.509617714842542
0.08655075182220268 -2.4784892510073573
0.12874645235764215 -2.4566286554962518
0.16950823119822434 -2.424080642131373
0.20917378259438005 -2.3908672754201894
0.2487777425770152 -2.3669621109764902
0.28761165043614806 -2.3424089178735197
0.32705678725615384 -2.3271299615426906
0.36449230354373807 -2.301313833586671
0.4011272904106093 -2.2749059094582007
0.43695259941228787 -2.2479262500951505
0.474038655064491 -2.2301765296730767
0.5083893828171352 -2.2020763464146316
0.5443242650992522 -2.183165384120992
0.5771664705786212 -2.1540145926246224
0.6119149299137382 -2.134000964983068
0.6461414674372482 -2.113433510678308
0.6798373876248844 -2.0923243358493377
0.7129942582611732 -2.070685680562504
0.7421837110167013 -2.039132987105421
0.7776584505133013 -2.0258695254989276
0.8091502417783704 -2.002717125864261
0.8400719262519385 -1.9790854349227467
0.8744837826129708 -1.9641227339315919
0.9044030801250968 -1.9394986642584309
0.9381142541286258 -1.9234192590802175
0.9715396694426304 -1.906753961763107
1.0140585756175244 -1.9071668005752822
2.3222380809799548 -4.189428397197705
2.3900000000000006 -4.139601430089617
2.46188199807006 -4.097259697356097
2.5330140830347196 -4.0536698996277165
2.60337458737183 -4.008845314779126
2.67294207859017 -3.9627995968131
2.7416953657580003 -3.915546771701381
2.821369211003871 -3.8832815729997474
2.6901131534896554 -3.569900729911399
2.967488311069673 -3.7982118323844
2.970392245755233 -3.6681289380769018
3.1110920308828502 -3.7076551046958537
3.1687651100241507 -3.6452472724759883
3.0579268710599825 -3.3961718524316917
3.321332013504368 -3.56169252688536
3.2232148389297475 -3.337736673571341
3.2597622612699846 -3.259762261269984
3.2873828875476363 -3.1745887529976176
3.371540564464376 -3.1440124398881184
3.4779177832342048 -3.1315312377594564
3.7509066137071767 -3.260613374082821
3.845543104457269 -3.2267938006264267
3.916815645743133 -3.171774770891181
3.9873344132500126 -3.115247065147831
4.073041101241193 -3.069256618075446
2.127714695206112 -1.5458752135292042
2.0478801107224793 -1.4339410908776151
1.9731094226809993 -1.3308791102603774
1.9960359517101092 -1.296240903335764
2.0268349498138583 -1.2665070415173598
2.065773194692091 -1.2412417605332307
2.1131019852340303 -1.2199999999999998
2.1515644795629134 -1.1926316658059892
2.1808805543615497 -1.1595947600811505
2.2275163104709197 -1.1349762493488669
2.264960996673901 -1.104695289908475
2.311084856943457 -1.0776765674387836
2.35694728071791 -1.0493805391355644
2.4025176675108693 -1.0198082453570043
2.4570372146019865 -0.9927074725521668
2.5019955430125007 -0.9604261047814048
2.546567002329812 -0.9268745884125622
2.6096312686541143 -0.8985681063017524
2.6439371153005267 -0.8590672443623537
2.715905506935021 -0.8303356414125722
2.7684336843023583 -0.7938355847529576
2.8205034127640793 -0.7557516116993606
2.88177830703971 -0.7185080299310133
2.9523412962992626 -0.6816016946619108
3.0224760862674596 -0.6424471246268763
3.072493084191188 -0.5972321555285852
3.1415367321089436 -0.5539376867575078
3.2001102235282466 -0.5068476667303481
3.277787307534598 -0.4606629641778166
3.364731454064082 -0.41313707414344997
3.4410457579742255 -0.36166848290608095
3.5165672842638616 -0.3076597718992333
3.6111818619405636 -0.2525184349537336
3.6949292785919234 -0.19364303809889216
3.7976851426725635 -0.13261808746950368
3.899406011109926 -0.06806438510540569
4.01 0.0
4.129370980995896 0.0720784385859809
4.237417106560966 0.14797386601860413
4.364011066877488 0.22870812878166452
4.489038226169209 0.31390413184856386
4.632305346126617 0.4052742037766105
4.773705097767712 0.5017366236847366
4.9528052966901965 0.6081280235916859
5.1295885960813346 0.7209166629731389
5.30388638899589 0.8400530772660398
5.495227261808121 0.9689568313814713
5.713070207665405 1.1105083530914908
5.947137412461538 1.2641030801719766
7.259056982650002 1.675885354861794
7.180188374442374 1.7902220274375413
7.1092140814875435 1.9049081719545526
7.036435614268495 2.017665444580434
6.9810247185301595 2.134313444475978
6.904670308302815 2.243463379162118
6.836099301583062 2.353857756725243
6.765786869658541 2.4625450319448148
6.684435853719965 2.56591451874435
6.879704200885563 2.7795809231460673
7.704625623396925 3.2704195454552205
8.304128209971243 3.697236085559023
1.9866320839325857 1.0563110162682543
1.8629399762069128 1.032644491124698
1.7320508075688774 0.9999999999999999
1.6371895443410345 0.9837227230782034
1.5519280159662596 0.969752253546765
1.467673493904492 0.9531183112762972
1.39278312189247 0.9394440778308546
1.3270263117481669 0.9291938268886947
1.2701566811686675 0.9228228460991829
1.1979532650709392 0.9027225347280724
1.150495700265814 0.8988657539754611
1.0957758056543287 0.8873417513802708
1.04182044264181 0.8741911491736934
1.0037637416962868 0.8725585085573747
0.9512253766110647 0.8564871761393386
0.914192127023963 0.8524979500781231
0.8775945564131544 0.8474832119599767
0.8414570696119916 0.8414570696119914
0.7988571260278469 0.8272407703894487
0.7638381632699983 0.819116145813471
0.7360436669947441 0.8174593080251338
0.708543751309748 0.8150863466405938
0.6749269901708663 0.8043466652749269
0.6482000027813326 0.8004603403006799
0.6218180900789149 0.7958908611427892
0.5897787226890073 0.782662799846347
0.570151694723699 0.784746484543699
0.5506333788970041 0.7863859625174321
0.5368251873319169 0.7958760696528401
0.5228534736144261 0.805123745227607
0.5034233010215446 0.8056456913486048
0.48928617116455164 0.8143089356670066
0.4800000000000001 0.831384387633061
0.47511342784141036 0.8571273129966078
0.47416627841374975 0.8917770687875162
0.46761021473173325 0.9177367199140188
0.4646734155964221 0.9527216890771171
0.46065390529736244 0.9878754878699485
0.44741030738338045 1.0049000034068611
0.44152617519287923 1.0401704844012576
0.4382897142966172 1.084805109843141
0.4300415394543602 1.1202965117966421
0.4241049777238293 1.1652188497745264
0.4102158746160175 1.191353405255139
0.4017220926874317 1.2363734711836996
0.39470180137569466 1.291011420550098
0.3803795510274588 1.32654114039488
0.37269942494762986 1.3909331898562582
0.37255971922348824 1.4942554184650345
0.34417511314611365 1.49078619912141
0.31394665313481646 1.4770028771080466
0.28621349306481736 1.472440775171496
0.2587357847237263 1.46736355198819
0.23152300825954175 1.4617787440808039
0.20458445841129624 1.4556940610501083
0.17671054793746385 1.4391919198799168
0.15052098710542097 1.4321115293303135
0.12550426955662802 1.4345203652521135
0.09975175745409907 1.4265165918715486
0.07484041742740986 1.4280402346990406
0.04955728531755153 1.419134974367116
0.02460789307656987 1.4097852501705117
