# .PCD v0.7 - Point Cloud Data file format
VERSION 0.7
FIELDS x y
SIZE 4 4
TYPE F F
COUNT 1 1
WIDTH 180
HEIGHT 1
VIEWPOINT 0 0 0 1 0 0 0
POINTS 180
DATA ascii
3.0554937638726463e-16 -4.99
0.08604036373580813 -4.929249137121008
0.17240351371035534 -4.936990685474333
0.28627768064890347 -5.462503555107519
0.4262120545766052 -6.095116347087526
0.1220180398467217 -1.3946725773284436
0.14633984857471483 -1.3923306535155826
0.7312160604308849 -5.955276909847932
0.8308634127315908 -5.911900370387174
0.9292207223389718 -5.866868743135119
0.7189034555410918 -4.077104097470541
0.3930665304756825 -2.022151997902188
0.6029439033715017 -2.8366280421280363
0.839067432702617 -3.6344003416489277
0.8902725758067771 -3.570688272695667
1.5787961751253765 -5.892147540363316
1.1053057968261666 -3.8546594007126584
1.169486818890947 -3.8252190238521417
0.45734515167492223 -1.407563644116827
0.47532950550744885 -1.3804571203750025
0.4856686035224497 -1.3343635215159897
0.5088824883543261 -1.3256842056260265
0.5356874285847544 -1.3258729120305057
0.5548382024547687 -1.3071168919024652
0.5816333995983946 -1.3063700044289193
0.6043441142892002 -1.2960201354624095
0.6268707399083807 -1.2852754862078088
0.649206414627552 -1.274139329589366
0.6713443347838239 -1.2626150577882653
0.693277756952262 -1.2507061812093359
0.7000000000000001 -1.212435565298214
0.7468052086195788 -1.2428925860180626
0.7789813184228112 -1.2466307013499462
0.8115121621723905 -1.2496191462386816
0.620704122852529 -0.9202317055360965
0.6251983156226403 -0.8928757282750012
0.8816778784387097 -1.2135254915624212
0.9388314361171953 -1.2458713956737768
0.9727451310145402 -1.2450569906986206
1.0132058295902384 -1.2512049979457232
2.8154097304270422 -3.3552746608611237
1.3908451414598757 -1.5999843100722766
2.7434354860713186 -3.0468937844573163
2.707533489448119 -2.9034741954281067
2.6813813099717296 -2.7766516293071932
2.6587214972614186 -2.658721497261418
2.6327836692394633 -2.54244963587993
2.603619177764247 -2.4279141618224944
2.5712810961517842 -2.3151918980016495
2.5509183811529694 -2.2174795179879143
2.535607106723817 -2.127626988062445
1.3444625133205594 -1.0887242765162188
1.3790188188117634 -1.077407581819902
2.4677837260461346 -1.859608421539829
2.45941166289984 -1.7868671669691183
2.4410730919811954 -1.7092577803261173
2.420789711860722 -1.6328432781345805
2.3985978243239128 -1.557667640142977
2.391495631161121 -1.4943723251376377
2.3743534229448513 -1.42665546750085
2.3555890982936734 -1.3599999999999999
2.343980815133581 -1.2992897822601834
2.322152169218978 -1.2347102101268927
2.3077068976478725 -1.175835394325426
2.3009127585258677 -1.1222301357800382
2.283895623332358 -1.0649980195865627
2.26559273495365 -1.0087068748279844
2.255236890958479 -0.9572912647987206
2.2437849280516255 -0.9065479560665071
2.2312572193283122 -0.8564993994132677
2.217674585054744 -0.8071675382485781
2.2030582811464083 -0.7585737998851751
2.196940552641805 -0.7138292570061285
2.1899378911553513 -0.669531203815067
2.191676666739367 -0.628453171262758
2.173333109150404 -0.5823428514806717
2.163759469595472 -0.539485827187259
2.1436141425275177 -0.494892319556503
2.1421432456070346 -0.4553266028908929
2.1301309880814308 -0.4140555199671022
2.117336668976247 -0.3733435819839002
2.1037761654676435 -0.33320541053569175
2.0894656250447134 -0.29365524302573803
2.0843469184467764 -0.2559256211508097
2.078550761319691 -0.2184644882293957
2.062123025049913 -0.1804123874876524
2.054981943535238 -0.14369833591289813
2.0571768415944223 -0.1078120698604643
2.048751195389146 -0.07154396824012699
2.0396892981190384 -0.035602909132058366
2.03 0.0
2.0196923442159105 0.035253861003312695
2.008775562308382 0.07014798837202695
1.9972590695091477 0.10467191248588766
1.9951281005196484 0.1395129474882506
1.992389396183491 0.17431148549531633
1.9790985717828637 0.20801164190263038
1.9751668417662307 0.24251999337624347
1.9607307761083093 0.27556273990092955
1.9556229143783728 0.3097402407796571
1.949919350964172 0.34382339178052207
1.9436218232263747 0.3778018108455587
1.9367322494529353 0.4116651478191634
1.9292527282747658 0.4454030876008526
1.911482580763713 0.47658613433134545
1.9028738777894645 0.5098735188519659
1.9032981579578714 0.5457619645176583
1.8934834168068104 0.5788959753510187
1.883091902264404 0.6118536488623958
1.8626715939306542 0.6413692642805987
1.8605913891560986 0.6771998837848241
1.8484892444644594 0.7095685400996945
1.835824032042239 0.7417210549635058
1.8318046583703564 0.7775549456936547
1.8270909152852017 0.8134732861516003
1.821678651943666 0.8494627060988058
1.8155639735243174 0.8855097165139364
1.8087432441023867 0.9216007144712798
1.7923836135036215 0.9530272724553582
1.7842242025643673 0.9890116253025276
1.7840123317959438 1.0299999999999998
1.7657646394463515 1.0609784343147115
1.7554595590438016 1.096932876962734
1.7025012529292107 1.1056172410805047
1.6000425150312305 1.0792423036985412
1.507239761491745 1.0553806428859247
1.431960080043657 1.0403798965576774
1.3576803670803979 1.0230855393584821
1.2765774208428895 0.9973715900275665
1.220119159487444 0.9880330139482449
1.1567271091096567 0.9706092906266742
1.0943288913230194 0.9512855920362355
1.0478342039231259 0.9434741549659901
1.0019545712182636 0.934337753285623
0.9567219344504061 0.9238956327104664
0.9192388155425119 0.9192388155425117
0.8683229630737467 0.8991747504233139
0.8320379992762481 0.892251515975388
0.8029567276306299 0.8917737905728731
0.7610284736289885 0.8754631130584154
0.7327778750426548 0.8732906651556349
0.6985456340653197 0.8626320172172377
0.664914393351711 0.8510516138952597
0.6319057743096507 0.8385672855496575
0.6171745149070968 0.8494678440936949
0.585047965078067 0.8355350851747716
0.5591929034707468 0.8290375725550417
0.5337462543147267 0.8218971565865154
0.5140216863062087 0.8226066532717332
0.48928617116455164 0.8143089356670066
0.46500000000000014 0.8054036255195279
0.44117675442416676 0.7959039334968502
0.4225244065073018 0.7946528335730342
0.4040515447681967 0.7929958065276473
0.3813828977064974 0.7819508202802753
0.36345170509700153 0.7794246968515189
0.3457261466144303 0.7765136389962107
0.32430683664609716 0.7640190283655255
0.307177406601048 0.7602907607447655
0.2938617186271461 0.7655359497277053
0.27703631609379176 0.7611510228365858
0.2604545235657254 0.7564148604794534
0.2441234255562085 0.7513346478731713
0.2280499296837347 0.7459177096511677
0.21224076397908936 0.7401715058725056
0.19670247427791576 0.734103627979692
0.18144142169975075 0.7277217947069974
0.16871329075789887 0.7307775485889264
0.15177553429696425 0.7140477485356781
0.1392905666248778 0.7165878439167946
0.1267631696968592 0.7189096596989119
0.11419715947936857 0.7210124886344506
0.10020463269124713 0.7129930094939306
0.08774592725170619 0.7146332291817518
0.07526049355271049 0.7160557646651567
0.061880577350837435 0.7072982356451393
0.04882953162088766 0.6982948351818768
0.036635169370060776 0.6990406743282016
0.024429647691750756 0.699573578913367
0.012042160441725682 0.6898949096579099
