# .PCD v0.7 - Point Cloud Data file format
VERSION 0.7
FIELDS x y
SIZE 4 4
TYPE F F
COUNT 1 1
WIDTH 155
HEIGHT 1
VIEWPOINT 0 0 0 1 0 0 0
POINTS 155
DATA ascii
5.3272135762909864e-17 -0.87
0.01518359360043673 -0.8698674947860604
0.03036256213117594 -0.8694700195066133
0.04553228193136125 -0.8688076952364793
0.061385696894830206 -0.8778563642286453
0.07582549619046278 -0.8666893873398186
0.09721147083891772 -0.9249053626924942
0.1852414019758242 -1.5086701504948095
1.5142856215894354 -9.560823136960934
1.6531306513891775 -9.37536980867622
1.822225905846004 -9.374539601925191
1.744379085961 -8.20665837015663
1.8041074558377983 -7.814447919577586
1.8652178150734378 -7.480980049587933
1.9204373146607039 -7.167169631064887
1.962537973417034 -6.84418327508083
2.0056698943979745 -6.5602506259064235
2.051872842649651 -6.3150152681998195
2.093403233159518 -6.079684441103606
2.1410460972186867 -5.8824758061197855
2.164542415253613 -5.638825776043099
2.1989407033514046 -5.442569226307041
2.2271674323888604 -5.246877664678911
2.257388369070692 -5.070177289916435
2.286364796017184 -4.903125127868276
2.3233670779821103 -4.763608445385585
2.347130883653457 -4.606503730053862
2.36613667644089 -4.450055868008992
2.3901114278144417 -4.311875156197221
2.4100000000000006 -4.174242446240994
2.4309797135754567 -4.045829659313969
2.4588253860420703 -3.9349431661658167
2.4726612189682236 -3.807564378472225
2.488408420444823 -3.6892171978699357
2.5122647912175817 -3.587885953985784
2.533354437380559 -3.486863245756023
2.6178953507114096 -3.4740644687057234
2.7335369504459233 -3.4987677460138458
4.424122349080358 -5.463336109042505
4.602359285355622 -5.484878212731883
5.094527749666863 -5.463212151095203
6.484169183480641 -6.48416918348064
6.51721859106818 -6.293604836358515
5.602169354402846 -5.224107438078739
6.5842631537297125 -5.928497172339483
6.626350114355938 -5.760198274536654
6.656926210703919 -5.585824328176026
6.683455268529949 -5.412155363028602
6.705971513193203 -5.239279155021352
6.740483704799151 -5.079318795403287
6.116168477474602 -4.443656507331097
6.151831852610329 -4.307559036996356
6.176329915535061 -4.165987130857063
6.331962787987951 -4.112024714363454
5.664961282324925 -3.5398606850778087
6.94305513568711 -4.171808406771438
6.98882500854042 -4.034999999999999
7.0144500512579535 -3.888173154375623
7.028262839157059 -3.7369936397756907
7.065681736813757 -3.6001446629346057
7.055533263448461 -3.4412135022942576
7.078263816756236 -3.3006486241948623
7.098248205883008 -3.160343716698967
7.124707565721889 -3.0242589345069786
7.148587518709931 -2.8882168352366815
6.581742006805272 -2.526494044294367
6.615436050332796 -2.4078218090127077
6.769913001291108 -2.331067985913242
6.2008884862444 -2.014790803324657
6.263796151557883 -1.9150346659339255
4.950497734082343 -1.4195323824575459
4.94554023060003 -1.3251535109249062
4.667122443387543 -1.1636443178344016
4.676976310969129 -1.0797650608505518
4.695108483522267 -0.9979761159252447
4.721626752383263 -0.9177912677611805
3.062752111867967 -0.5400458325441533
3.0322032056270727 -0.4802538076735087
3.0401229710366207 -0.42726141994740086
3.0471166855388585 -0.3741388842538027
3.053182218780599 -0.3209023822316961
3.0682796701225765 -0.26843968766278714
4.5389164286822 -0.3173919555357701
3.8447237088051094 -0.20149343153533375
2.7183430494919407 -0.09492663103080265
2.6995887769222566 -0.047121497380665484
2.71 0.0
2.6995887769222566 0.047121497380665484
2.678367416411177 0.09353065116270261
2.666340857794712 0.13973700316866003
2.6634960141937305 0.18624978489681454
2.649877896924043 0.23183427570877074
2.635483022725924 0.2770004276592817
2.6203218403330903 0.32173506658958934
2.5945023401029146 0.36463352451537145
2.5778665689533096 0.40829395375500255
2.560500157831741 0.4514852619340189
2.562046948798403 0.49801147793278194
2.5529652379152328 0.5426495130343518
2.5431058690894637 0.5871222518374876
2.5324718455803508 0.6314161475151328
2.511407148351578 0.6729295172665539
2.5088930263990123 0.7194134986823678
2.495955413063523 0.7630901493263428
2.5107892030192054 0.8158048651498612
2.486713853826203 0.8562442462223221
2.46199466645908 0.8960927755132521
2.4366449131576964 0.9353403483132336
2.4292216989649833 0.9814692747496895
2.411722716045394 1.0237155566418972
2.4117600081764663 1.0737847377201124
2.4017156356471223 1.1199383936128535
2.3907921631557842 1.166067250458946
2.387897484824826 1.2166945393019855
2.3751290247905135 1.2628785038940462
2.361473209276369 1.3089859746651102
2.346928844255829 1.3549999999999998
2.3314950579097458 1.4009035637553473
2.3236517834686072 1.4519787839989815
2.306344061849916 1.497757346291324
2.288143700251915 1.543372413579261
2.2690511626805074 1.5888067286923975
2.2490672443623536 1.6340430013730751
2.212220362831001 1.6670276141311737
2.2143102176348886 1.7300087456650999
2.0982940959338214 1.6991650558345615
1.9763946632469633 1.6583920329912714
2.0603571540081678 1.7910411491440847
1.9017354731604725 2.5236882117494455
3.8659051810060503 5.521084778507805
1.6557026664456826 2.549558526554089
3.364987327880851 5.385105410593305
3.898838227069112 6.48875646631499
4.390000000000001 7.603703045227371
4.28571704297762 7.731638211112259
1.938917554305729 3.646573558507368
4.090454402653317 8.027968782937194
2.9107844146794744 5.967992467426469
3.875409460162214 8.31084240712608
1.8425169931333758 4.138360923120982
2.7155813430004523 6.397508731494461
1.4197589890463072 3.514026808808124
1.3259614133176107 3.4542475780396464
1.251793724571948 3.4392749920764247
1.2013464899469084 3.4889635439614786
1.1557235589623036 3.5569513709438745
1.096393892710263 3.586142834861383
1.0308837107555768 3.595118742809313
0.9653950382324024 3.602903332058225
0.9749452392666608 3.910291776892266
0.922299322809847 3.9949172656194643
1.4824103555306234 6.974192393232035
0.9171507353268314 6.525866573006948
0.7191558272814558 6.84231064013372
0.4192191226162367 4.791696497821295
