# .PCD v0.7 - Point Cloud Data file format
VERSION 0.7
FIELDS x y
SIZE 4 4
TYPE F F
COUNT 1 1
WIDTH 176
HEIGHT 1
VIEWPOINT 0 0 0 1 0 0 0
POINTS 176
DATA ascii
1.8369701987210297e-16 -3.0
0.0548005562130705 -3.1395217627910688
0.11412135421717853 -3.2680080043524433
0.17951232991329782 -3.4252993042081883
0.2532159996911746 -3.621157502443162
0.3338064947235315 -3.8154256936913855
0.42124970696864344 -4.007923238334142
0.5228194832080827 -4.258022990541272
0.6346293403778984 -4.515622393461561
0.7649645340467291 -4.8297959855102235
0.9168623780813926 -5.199784935904459
1.087611273646306 -5.595274945651685
1.2994480676109952 -6.1134225045862856
1.5409147222554762 -6.674434943778861
2.073270645289152 -8.31543437418529
2.1999618833714263 -8.21036952345708
2.3346484037699833 -8.141886564597561
2.467617187859898 -8.071212140328019
2.6081034325245565 -8.026916997531096
2.74128386052926 -7.961266406546247
2.8798096068021315 -7.912211867017348
3.0138744556759742 -7.851411386841467
3.1504414506278215 -7.797616216906682
3.2821414793098995 -7.7322407690005
3.4206551682674813 -7.6829172987742735
3.5542195812392823 -7.622048488978226
3.6910850559640322 -7.567845869838987
1.8568211439347466 -3.644216683930424
1.8731915355157047 -3.5229608955071186
1.9295422885804216 -3.480986434414795
2.0050000000000003 -3.4727618691755984
2.0910545841348207 -3.480099240850575
2.1832673686408044 -3.4939581561644757
2.265698385662513 -3.4888695626529636
2.3653859816812592 -3.506828931907827
2.4549071475824773 -3.505970749556885
2.539232289903484 -3.494953415699773
2.6118772004798894 -3.466078113605251
2.6411877291470742 -3.380566132972837
2.6934912736933048 -3.326184715035835
2.7382752172646576 -3.2633493276868464
2.8013720537894664 -3.2226099075512358
2.101070103966815 -2.333474751999018
2.1687547849987454 -2.325704771148962
2.2715328714009213 -2.352241147107389
2.319310242291876 -2.3193102422918757
2.3810147391209355 -2.299319206219281
2.450034900424221 -2.28469450620937
2.52669240662314 -2.2750440616201177
2.5962009559663355 -2.256843059727345
2.6658346620540434 -2.2369008817091567
2.65783918818284 -2.152275737390444
2.934793006844848 -1.9795428782864437
1.4509000825455836 -0.9422255305759967
1.4247208015427955 -0.8902643639117842
1.4057543731514641 -0.8446624428524888
1.3943009000929465 -0.8049999999999999
1.3818991372802454 -0.7659991999892126
1.3597392930027477 -0.7229862066902718
1.3454198515244356 -0.6855256546067156
1.330215188522767 -0.6487892972478345
1.3141462912031423 -0.6127964795240142
1.3063700044289193 -0.5816333995983942
1.2887067948334165 -0.5470235798849832
1.2702418807564988 -0.5132110329797995
1.2603335757712224 -0.4837967318861554
1.2497911856452584 -0.4548867906231394
1.2480845197910984 -0.4297499638834469
1.226862906020748 -0.39863192274368214
1.214507040073055 -0.3713120649978756
1.2015771199228986 -0.34454669477124894
1.188088766335554 -0.3183474254761005
1.1837607860567156 -0.29514471263159464
1.1692440777422823 -0.26994126521263795
1.1639956448732287 -0.24741491207313357
1.1583200764682435 -0.22515461454432287
1.132528915964039 -0.19969540431696986
1.125964708278457 -0.17833529014586316
1.1190029176779743 -0.15726560408487392
1.1116516898382807 -0.1364936646137652
1.1039193038587833 -0.11602659422709535
1.0958141679009201 -0.09587131702242399
1.0873448147832085 -0.07603455638109659
1.0785198975349397 -0.05652283274237934
1.0693481849104325 -0.03734246147167604
1.0598385568657749 -0.018499550823520523
1.05 0.0
1.039841602962647 0.01815050269477485
1.0293725518296686 0.035946481603576
1.0186021254496653 0.0533826753678027
1.0175153312650207 0.0711516032190078
1.0161185920535805 0.08889885760261133
0.9945218953682733 0.10452846326765346
0.992546151641322 0.12186934340514748
0.9902680687415704 0.13917310096006544
0.9778114571891864 0.15487012038982856
0.974959675482086 0.17191169589026103
0.9718109116131873 0.18890090542277935
0.9683661247264677 0.2058325739095817
0.9548826634895305 0.22045203325698767
0.9508898117504765 0.23708345768767436
0.9369480515003963 0.2510544737494451
0.9324238450601693 0.2673682351424892
0.9276156132841444 0.2836005535810546
0.9225248208062989 0.29974648454369895
0.9076978325753441 0.31254542827887044
0.9021049159544721 0.32833933759264194
0.8962372094373137 0.34403323156348825
0.8900965003841159 0.35962232967927554
0.8836846593143427 0.37510188334970274
0.8770036393368968 0.39046717735276815
0.8700554755551839 0.40571353127107146
0.8628422844472003 0.4208363009175143
0.8553662632208332 0.4358308797499649
0.8564591650731591 0.4553874159023141
0.8483811159252138 0.47026533163894696
0.8400446416709055 0.48499999999999993
0.8314522816810489 0.4995869326627525
0.8310871342332974 0.5193208789485408
0.8218971565865155 0.5337462543147264
0.8207471968294913 0.5536009744360393
0.8109605238461018 0.5678406719875356
0.800926824431198 0.5819073997695484
0.7986355100472928 0.6018150231520483
0.7880107536067219 0.6156614753256583
0.7849174210715405 0.6356135949603359
0.7737048875501678 0.6492154857834046
0.7698037718272275 0.6691802095703174
0.765439170241716 0.689204524549624
0.7532943126677456 0.7024583108643735
0.7481133923521973 0.7224447052773572
0.742462120245875 0.7424621202458749
0.7363378726865373 0.7625001883589702
0.7297382452668734 0.7825484607325124
0.7293523609311555 0.8100278597703597
0.7216649318895582 0.8301805382450491
0.7070663706551934 0.8426488874308758
0.6922524301548213 0.854860557602668
0.6833842376114808 0.8746919365034614
0.6800509761618144 0.9024581263534408
0.6700751876134193 0.92227937358744
0.6653486661672133 0.9502163713752304
0.6598476260954812 0.9782643356149492
0.6481204516678823 0.9980179758550545
0.6359031170798458 1.0176577153877113
0.6283464513902663 1.045744106856577
0.6200000000000001 1.0738715006927038
0.6108601215103847 1.1020208309956387
0.6009236003659403 1.1301729188594265
0.5811078396666199 1.1404883509611108
0.5742662022936915 1.1774202006519088
0.5578561054977232 1.196326278888378
0.5490944681523305 1.2332863678175112
0.5353016460303051 1.2610916492298434
0.524449230782277 1.2980573963935023
0.5124661678497792 1.3350200098909983
0.4959292078222198 1.362554300139567
0.4785851870520204 1.3899123061309955
0.4666156615061707 1.436095339605682
0.44732870822578724 1.4631462766234442
0.4327506486326887 1.5091808626231606
0.4141104721640332 1.5454813220625094
0.3991711277394516 1.6009879483553942
0.37791777129769344 1.636941708839195
0.35760810820654587 1.6824138732621459
0.3377319218164845 1.7374801147023653
0.3143032015771441 1.7825020329520966
0.29253244962523184 1.8469771969129076
0.2672123538433257 1.901314691983815
0.24130129994219202 1.9652413802498174
0.2121927804333365 2.0188794475975946
0.18477017462503573 2.1119327599545006
0.15137154802475175 2.1647139890638183
0.11775590154662392 2.246916453197791
0.08131582731682752 2.3285806269544933
0.042234823578226305 2.4196314222784667
