# .PCD v0.7 - Point Cloud Data file format
VERSION 0.7
FIELDS x y
SIZE 4 4
TYPE F F
COUNT 1 1
WIDTH 169
HEIGHT 1
VIEWPOINT 0 0 0 1 0 0 0
POINTS 169
DATA ascii
2.9391523179536474e-17 -0.48
0.008377155089896128 -0.4799268936750678
0.01710075338422553 -0.4897015052393569
0.025644618559042542 -0.48932847202974117
0.034878236872062617 -0.4987820251299121
0.042706313946352596 -0.4881354020649553
0.05121894700115019 -0.4873157287304539
0.05971597826852227 -0.4863476143042478
0.06819481947043207 -0.48523135368336945
0.07508854321931084 -0.4740904034856661
0.0850876070567959 -0.48255579897598194
0.093496407734507 -0.48099731988935535
0.10187672850070202 -0.47929232435956476
0.11022601662849392 -0.4774413317447653
0.12096094779983384 -0.48514786313799824
0.12682133210023516 -0.47330365488164344
0.1350623043503296 -0.47101823100977624
0.14618585236136838 -0.4781523779815177
0.15450849718747373 -0.47552825814757677
0.16278407722857838 -0.47275928779965837
0.1710100716628344 -0.46984631039295416
0.17918397477265008 -0.46679021324860087
0.1873032967079561 -0.46359192728339366
0.19536556424463686 -0.4602524267262202
0.2033683215379002 -0.45677272882130043
0.21130913087034972 -0.45315389351832497
0.2235692848624295 -0.4583849636125752
0.2315351548671689 -0.4544133273360676
0.23943049702080435 -0.45030327235805273
0.2521010025280953 -0.4548022477124858
0.26000000000000006 -0.4503332099679081
0.26781979895322827 -0.4457269963650984
0.2808572100435986 -0.44946549096290583
0.28865868855796445 -0.4444954010110747
0.30196416787420327 -0.4476802891797226
0.31546703999307535 -0.4505336243589455
0.3232818887608602 -0.44495934690622113
0.33701641296514706 -0.44723588562648403
0.3447704261823687 -0.4412860220197643
0.35871262289840733 -0.4429731980304733
0.3728168136181928 -0.4443057770090072
0.38707482710439933 -0.4452786523314354
0.39478705775172634 -0.43845544703166256
0.4091990160374991 -0.43881222097150224
0.4167950222753984 -0.4316038802031906
0.4242640687119285 -0.42426406871192845
0.4387972782065772 -0.42374160597998833
0.4534392950038857 -0.4228389832387491
0.4607497917959844 -0.4148609759424921
0.4830141313425741 -0.41987777855392466
0.4979288880273357 -0.4178119462962505
0.5129163345616008 -0.41535145809289276
0.5279672049165037 -0.4124931884681911
0.5510585019326321 -0.4152523659749133
0.5663118960624631 -0.4114496766047312
0.5815979514451841 -0.4072392698092427
0.6051974279651805 -0.40821081953364513
0.629002925959068 -0.40847927626127023
0.652997034040448 -0.4080378334595678
0.6685904945476476 -0.40172969842984224
0.7014805770653953 -0.40499999999999997
0.7259343569256984 -0.40239198480445976
0.7505054539300879 -0.39905082836800715
0.7929958065276475 -0.4040515447681966
0.817902582132242 -0.3989177435780604
0.8519293198144509 -0.39726116603625744
0.8861390939133228 -0.39453454378352615
0.9205048534524404 -0.3907311284892737
0.9642712087494589 -0.3895908571525485
1.008266860616978 -0.3870373855089243
1.0618526614880763 -0.3864827619580056
1.1062567334512006 -0.3809147407148733
1.169799515043039 -0.3800909030811853
1.233633135192316 -0.3771594990923304
1.2880906725573473 -0.3693540567947789
1.3619554150675863 -0.36493485359455424
1.4263347176257148 -0.35562518653151154
1.5005298997692622 -0.34642462368955207
1.5943805891961031 -0.33889605603294765
1.6982150273644587 -0.3300995620014225
1.8120462655424627 -0.3195126469071518
1.9556229143783728 -0.3097402407796571
2.1092709864195447 -0.29643870504493935
2.292781610291454 -0.2815181832658907
2.4962499573743657 -0.26236644280181015
2.7494973667332174 -0.2405498499835365
3.032594712789866 -0.2120596801821409
3.4153130088606423 -0.1789889703508679
4.457283088505167 -0.1556517552931543
4.469319197349069 -0.0780122567746573
8.942623641208218 1.738269947880323
5.6830375602634104 1.2079669236511816
5.67083377705007 1.3092151362812943
5.666527041451819 1.4128238703020595
4.201777344357446 1.1258628461959652
4.854371564488511 1.3919686468758456
4.427691020108854 1.353680992866271
4.08954302006916 1.3287730758122738
3.1391216709897316 1.0808862727977602
3.5050534755314384 1.2757351346047443
3.2581956884752343 1.250704143913098
3.0597067200703982 1.2362017582725096
2.871975142771614 1.219081120886534
2.7223654637749504 1.2120751963658845
2.564851037313719 1.1960096807261795
2.4357318654707427 1.1879858077983998
2.3077068976478725 1.175835394325426
2.136733174718603 1.1361211819418557
2.090341100063156 1.1586949923887457
2.0005186827420536 1.1549999999999998
1.920054753572732 1.1536852877985213
1.8317838876978803 1.1446256107437227
1.7528214870059362 1.1382955831814063
1.6829462722867345 1.135161594045616
1.605538006806424 1.1242098152480502
1.5371322893124 1.1167919793556988
1.4774756935874918 1.1133577928312894
1.4184193564920995 1.108190655586185
1.3677768921642686 1.107603888247714
1.3099359977334524 1.0991668125639822
1.2603649989720291 1.095618578414147
1.2113260655281526 1.0906828883649389
1.1701659225906729 1.0911973760999976
1.1365568845350689 1.0975602253252157
1.0889444430272832 1.0889444430272832
1.048934139393086 1.086203098511363
1.0025375892918726 1.0750899413801807
0.7092784427403898 0.7877335150060379
0.6626196192804125 0.7622566760249996
0.636359733589674 0.7583839986877883
0.6167339832288408 0.7616030422278314
0.5971916310658886 0.7643704309985202
0.5777424222259663 0.7666900896454011
0.5525181371549247 0.7604759747124505
0.5276903214429624 0.7536198807458725
0.5032736131236721 0.7461338152995376
0.4847287411633742 0.7464168054714273
0.47162814516755236 0.7547628055792193
0.4532335059208479 0.7543072246178587
0.4300000000000001 0.7447818472546172
0.41208817720938656 0.7434267510684863
0.3943561127401483 0.7416759780014985
0.3722722097864284 0.7306253498344616
0.3594643403670435 0.7370111179653169
0.3380946093925596 0.72504622962932
0.32538931446064034 0.7308363661140808
0.312584902791419 0.7364038827619523
0.29593920879857066 0.732475245107762
0.27952700064533414 0.7281927326678174
0.263355510360765 0.7235633180051494
0.2506874789320107 0.7280493032114739
0.23485291572496006 0.7228029523843167
0.21927877854205258 0.7172285669722765
0.2067280168627494 0.7209462719537392
0.19152609337586535 0.7147851114539105
0.1766029837877574 0.7083158801814774
0.1619647591275829 0.7015464466453694
0.14969641738878664 0.7042662725283401
0.13738247667111234 0.706771572082318
0.12329020614352058 0.6992135046386676
0.11106847017856394 0.7012587218225478
0.09742117067204582 0.6931876481190992
0.08530854038360323 0.6947823061489253
0.07316992428735741 0.6961653267577913
0.06100901992336085 0.6973362886642218
0.04882953162088766 0.6982948351818768
0.036635169370060776 0.6990406743282016
0.024778642658775767 0.709567487183558
0.012391208570471355 0.7098918635610377
