# .PCD v0.7 - Point Cloud Data file format
VERSION 0.7
FIELDS x y
SIZE 4 4
TYPE F F
COUNT 1 1
WIDTH 163
HEIGHT 1
VIEWPOINT 0 0 0 1 0 0 0
POINTS 163
DATA ascii
3.0922331678470665e-16 -5.05
0.08813465250828217 -5.049230860539776
0.17833642814978054 -5.10688712606758
0.3386136368918474 -6.461133089862092
0.45271951459937276 -6.474190686186259
0.5665123278597793 -6.475265537596346
0.6825708651377771 -6.494227976754825
0.2863929570020966 -2.3324834563571066
0.3075725531217447 -2.1884924319188706
0.323819342633278 -2.044514865031935
0.3386139464505143 -1.9203751183738056
0.3510885514928427 -1.806194017543702
0.36384545893107867 -1.71175830128416
0.37566826075425475 -1.6271980081913429
0.3846558140034716 -1.5427702047788345
0.39599313900685673 -1.4778665142222744
0.40243053949281876 -1.4034420760699455
0.4151678207062862 -1.3579527534675102
0.4202631123499286 -1.293436862161409
0.4264942823388754 -1.238629334035105
0.4309453805903427 -1.1840127021902445
0.43362521894981315 -1.1296323160616142
0.44203578023077633 -1.0940769483888089
0.44152617519287923 -1.0401704844012576
0.44741030738338045 -1.0049000034068611
0.4522015400625484 -0.9697493321292154
0.4559059926606406 -0.9347458081511337
0.45853040473694234 -0.8999165894302514
0.460082131530173 -0.8652886410017483
0.4654172354364836 -0.8396349188538199
0.46500000000000014 -0.8054036255195279
0.4686846481681495 -0.7800222436389221
0.47162814516755236 -0.7547628055792193
0.46838957011292337 -0.7212566884330646
0.48090589698484226 -0.7129723123973358
0.48180420653487865 -0.6880877172027531
0.48198390687982795 -0.6633939353874568
0.4874701687531591 -0.6468947631383072
0.49252918026052667 -0.6304086028853776
0.4908699050188733 -0.6061738499364372
0.4949464594586353 -0.5898542212016131
0.49204427174288057 -0.5660321851670789
0.4951566487055551 -0.5499271708532717
0.5046787864462489 -0.5412017391981861
0.507100610435068 -0.5251180542472152
0.5161879502661797 -0.5161879502661796
0.5251180542472154 -0.5071006104350679
0.5558288132305695 -0.5183187536474988
0.5796529638723675 -0.5219218729599094
0.6037676641782177 -0.5248472231924058
0.6281564433575619 -0.5270858399429622
0.6528026076238554 -0.5286291284818635
0.6776892481017808 -0.5294688687800662
0.7107856039420907 -0.5356153706053229
0.7442956348249516 -0.5407624321090753
0.7863859625174321 -0.5506333788970041
0.8124568211039409 -0.5480090454013319
0.8554439793043326 -0.5555318157153275
0.8904505009642473 -0.5564152274448652
0.9428840307723236 -0.5665418824010596
0.98726896031426 -0.5699999999999998
1.0407974514958809 -0.5769234480931411
1.0860255392164802 -0.5774500222266457
1.1493984162029947 -0.5856477446640154
1.2133719625038757 -0.5918010481652546
1.2869570575920428 -0.6001179316717932
1.3429118227346233 -0.5979028653214262
1.4451926199203315 -0.6134478717281597
1.5298533600351991 -0.6181008791362548
1.643101550635075 -0.6307275911997284
1.757225200869649 -0.6395776680190005
1.8910371511986337 -0.6511363089143134
2.063792640360483 -0.6705668777936358
2.256879224072764 -0.6899972231456586
2.4896677924802457 -0.7139007515660278
2.7915256379754076 -0.7479870403462849
3.1534611103969885 -0.7862461606989202
3.6051692397053707 -0.8323189010723004
4.196253207148026 -0.8919411536081875
5.035747451086516 -0.9788501462816748
6.145200378796178 -1.0835646286416454
9.01143942554829 1.2664752187365955
8.997840782821704 1.4251179765165032
9.010990940061705 1.5888808256524125
5.428398324465582 1.0551737444322928
5.13527490385248 1.0915363767932365
4.852362922630472 1.1202562506324476
4.618607657073743 1.1515482230544183
4.394962509615261 1.1776266552164694
4.19110099429107 1.2017788713621165
3.987790832365858 1.219190008693812
3.8232471955065166 1.2422483173872885
3.659156887569356 1.2599487577491966
3.5050534755314384 1.2757351346047443
3.370225339654898 1.293708297858534
3.245143490983756 1.311123076955692
3.148126598807346 1.336300459433316
2.9964291010677306 1.3340961892886245
2.8911218406469135 1.348152254952831
2.786261543527418 1.35895055504614
2.681929637806987 1.3665114042160356
2.5958659230052454 1.380246394590519
2.5014123624186717 1.386555513904524
2.4248711305964283 1.3999999999999997
2.340066730916767 1.4060539445044478
2.2642884167376574 1.414884435502657
2.1889301823375567 1.4215078813892204
2.114045810015356 1.4259419038504042
2.0478801107224793 1.4339410908776151
1.9901818061623706 1.4459517206394839
1.9406842894149217 1.4624105062594774
1.867585486047931 1.4591176965218102
1.802978630580172 1.460023307235623
1.7465813303112698 1.4655557500853094
1.698096555501237 1.4761328152286413
1.6349186160502676 1.4720873339894882
1.5797239954974083 1.4731164577349969
1.532193774721327 1.479622329077664
1.48492424049175 1.4849242404917498
1.4379428268501244 1.4890333867010077
1.3912766545274968 1.4919615513031077
1.344952518781305 1.4937210992095622
1.3055574676911097 1.5018720646433161
1.2598637149856171 1.5014471085131968
1.2145883547261864 1.4998917056119536
1.1820700326252638 1.512980646924906
1.1434485439888917 1.5174074690898562
1.1050362743098494 1.520951949424901
1.072587935976456 1.5318143228204149
1.028914942386174 1.5254291335012768
0.9966894340774998 1.5347671393401259
0.9591538682621009 1.5349670540431313
0.9270685348380979 1.542901141263802
0.8950000000000002 1.550185472774145
0.8581130278360167 1.5480768816367305
0.8262699505031679 1.5539877634317114
0.794483374544207 1.5592614173296435
0.7671495068808856 1.5728895810235424
0.73112959281141 1.5679124715734043
0.6995870260903766 1.5712981871452734
0.6759648522864435 1.5924733964727218
0.7005143296877558 1.7338338080398923
0.7059848606042413 1.8391534401994873
2.1342056943521737 5.863681953704068
2.0217782391789436 5.871670354471757
1.7088639788934594 5.259342535112199
1.6109680930222796 5.269239205356325
1.5160054569934953 5.286939327660754
1.4183283671618137 5.293273528064095
1.3305704257981723 5.33662649451798
1.3722014314975772 5.943657395189935
1.2661821970801537 5.956918888468876
1.1620267818431584 5.978109547196273
1.0748822197582992 6.095959991145568
0.966764993948627 6.103913944877951
0.8600897639332046 6.119856664822905
0.75193384880976 6.124009755626957
0.6459859029940983 6.1461453133759285
0.4383933860207216 5.01085933140148
0.35017749819550864 5.007771532304317
0.3239595691438232 6.181516820130812
0.2160278845884817 6.186229219248204
0.09563918727631412 5.479165369457024
