# .PCD v0.7 - Point Cloud Data file format
VERSION 0.7
FIELDS x y
SIZE 4 4
TYPE F F
COUNT 1 1
WIDTH 179
HEIGHT 1
VIEWPOINT 0 0 0 1 0 0 0
POINTS 179
DATA ascii
5.021051876504148e-17 -0.82
0.014136449214199716 -0.809876633076677
0.028617587296050885 -0.8195004781556585
0.04291548411921405 -0.8188762184987505
0.05789787320762394 -0.8279781617156541
0.07321082390803302 -0.8368035463970662
0.08884919377750544 -0.8453436110630322
0.10358894189437537 -0.8436642288951237
0.1196888668256563 -0.8516305391177506
0.13609798458500091 -0.8592888563177699
0.15107391457022945 -0.856782745120621
0.16791191593135954 -0.8638319214339443
0.18712052173598331 -0.8803328406604252
0.2047054594529173 -0.8866767589545641
0.22256814395169428 -0.8926720681739168
0.2407017119453443 -0.8983110184488335
0.2618554880261492 -0.9131986111414029
0.2806768365338273 -0.918052565724514
0.29665631459994957 -0.9130142556433474
0.31580110982344206 -0.9171530183313372
2.530077723789819 -6.591077811070244
2.60351582424059 -6.443927789239172
2.680415541436418 -6.314663294683741
2.6315860807004285 -5.910639110947628
2.700530692523069 -5.7913067591641925
1.319497151835123 -2.7053700793604927
1.3937508342004088 -2.735390029258289
1.4694459915198383 -2.763625965648441
1.541694592383352 -2.781290668703279
1.5950000000000004 -2.7626210380723593
1.6223699359666712 -2.7000769972116534
1.6480489117652672 -2.637429579046485
1.6720418374961334 -2.574718643592451
1.6887625684816554 -2.503693469116226
1.7149935446896278 -2.4492646124240856
1.733966494262796 -2.386600133406095
1.7572998676039808 -2.332015689338095
1.773105048937896 -2.269470970387359
1.7998563184025351 -2.2226374497669363
1.8190889354129065 -2.167905774026708
1.8369652811734205 -2.113186824623761
1.6460612916427912 -1.8281362706743898
1.711815883756871 -1.8356977910641177
1.8061117631933932 -1.870283480880493
1.9162593770155438 -1.9162593770155436
1.9350240629109716 -1.8686310165347026
1.952714383323185 -1.8209356213668708
1.9767652357698688 -1.779887412914563
1.9924332917881182 -1.7319958365349393
2.0070364409717225 -1.684103537378733
2.0205794997881243 -1.6362330167295775
2.0409478518414095 -1.5945632210934548
2.0604796159220156 -1.5526827597322845
2.0710835055998653 -1.5047302458687313
2.088837712936929 -1.4626199126951673
2.105755434289806 -1.420349974815697
2.1218365369019225 -1.3779367585880182
2.1370812023141936 -1.3353965458676764
2.1514899247623016 -1.292745568024236
2.165063509461097 -1.2499999999999998
2.1865492678484895 -1.2120240506158426
2.1985395062187285 -1.1689841913368682
2.2096961799871524 -1.125896439354076
1.9593710209321842 -0.9556491000001888
2.0935709880546614 -0.9762481846210157
2.2564572803772243 -1.0046395083972264
2.264441939493003 -0.9611985760836134
2.280872282234297 -0.9215322198031436
2.296607849183116 -0.8815851558814386
2.3022469209254757 -0.8379493511478884
2.3165205102183264 -0.7976419784200339
2.339599030086078 -0.7601818061623706
2.362072747228698 -0.7221581106651598
2.3647037720082644 -0.6780678953098179
2.385836790933999 -0.6392830414032262
2.406333401164471 -0.599966301087176
2.4164377606673835 -0.5578786147727851
2.4355875258271764 -0.5177001101362207
2.45406795861916 -0.477022488441362
2.471867460060642 -0.4358569259439951
2.488974618299747 -0.3942148519013818
2.5053782139161727 -0.3521079454289655
2.521067225168958 -0.30954813224907457
2.3669621109764902 -0.2487777425770152
2.2514000176873448 -0.19697197860970744
2.2544947535872026 -0.15764963066172316
2.1370672043747883 -0.11199894635989979
2.028763378848764 -0.07084597830607696
1.9197075747002712 -0.033508620359584344
1.84 0.0
1.7597319434752487 0.03071623532961898
1.6689826811218897 0.05828215949317662
1.607793550954864 0.08426088955113957
1.5063217158923345 0.10533227535362921
1.4942920471376184 0.13073361412148726
1.5017280620060927 0.1578379795341567
1.4987446889783962 0.1840227085417727
1.505207464487187 0.21154311345929946
1.4815325108927067 0.23465169756034632
1.4279712418677015 0.251789857617049
1.3742780568267294 0.26713259352716273
1.340062213005314 0.28483901642033027
1.295912186164363 0.29918490227734046
1.2613844441587954 0.31449846427956807
1.2267257993871168 0.32870018728020134
1.1919645029635155 0.34179032121307895
1.1571287547152729 0.35376976271451144
1.1127361240653295 0.36154988341868843
1.0873463619392143 0.37440337762573017
1.0618526614880763 0.3864827619580056
1.026938469146922 0.39420474449983034
0.9920867243864626 0.40082905495502585
0.9757351446595869 0.4141749961986302
0.9500872759483049 0.42300610879883216
0.9334970206477494 0.43529680959292044
0.898794046299167 0.4383711467890774
0.8731863937046005 0.4449106897447558
0.8564591650731591 0.4553874159023141
0.8396349188538199 0.46541723543648356
0.8140638795573724 0.4699999999999999
0.7885939166459434 0.4738350289172498
0.7717237675023476 0.4822265304522165
0.7548035111508816 0.49017513151352426
0.7295530638484368 0.49208975505425717
0.6553216354311935 0.45886114908083686
0.5905824058937116 0.42908323417350536
0.5750175672340508 0.43330681666947474
0.5831279576689742 0.4555894917409871
0.5750880114781584 0.46569708937687976
0.559212443476854 0.46923495507117363
0.5433908977603958 0.4723625008731652
0.5350642743437238 0.4817740365783779
0.519261128149611 0.4842188356443739
0.5107312582404423 0.49320744302588804
0.4949747468305833 0.4949747468305832
0.48626085932129814 0.5035378602370557
0.4705788684431239 0.5046340541172276
0.4550088123240236 0.5053384813246281
0.446120139713545 0.5132025145514849
0.4370955745868468 0.520910221320905
0.42793786591388955 0.5284592537907402
0.4124931884681911 0.5279672049165037
0.4032160655118724 0.5350857917316862
0.39381611903595704 0.5420413862312148
0.3842962123552009 0.5488318696736245
0.3690673162906929 0.5471647978863275
0.35946176310991795 0.5535225748439798
0.34974671439391525 0.5597117434632413
0.3399251294406359 0.5657304184633941
0.32500000000000007 0.562916512459885
0.3151262531601191 0.5685028096406073
0.3051565158108291 0.5739159353583025
0.29509382483070545 0.579154240722439
0.28494124541290033 0.5842161300944586
0.27470187013145464 0.5891000615738224
0.25624408513775426 0.5755336383148385
0.24616061094824243 0.5799180576750375
0.23600215385202467 0.584125828377076
0.2293554877089921 0.5974914729582091
0.21889289172842805 0.6014032773029814
0.21813066348629503 0.6334974456515422
0.24721359549995797 0.7608452130361228
0.23389736377818943 0.7650438047704284
0.22050988465359933 0.7690093567506552
0.2070552360820166 0.7727406610312547
0.6556083370750994 2.6295014182079504
0.6096173572718745 2.6405428755679874
0.5655197990243052 2.6605614739959518
0.5209085573779676 2.6798422108121227
0.47579600680738937 2.6983732432534504
0.4333234681614397 2.7358967034485318
0.4564877711490147 3.2480792654723505
0.3972940595007808 3.2357004543507095
0.3365816517218442 3.20236050308584
0.26495345795288144 3.0284318821989067
0.18415709068449063 2.633569092685936
0.1397370031686604 2.666340857794712
0.09667160586592799 2.7683125908428954
0.04869221396002124 2.7895750694863315
