# .PCD v0.7 - Point Cloud Data file format
VERSION 0.7
FIELDS x y
SIZE 4 4
TYPE F F
COUNT 1 1
WIDTH 180
HEIGHT 1
VIEWPOINT 0 0 0 1 0 0 0
POINTS 180
DATA ascii
4.469960816887839e-17 -0.73
0.012740256699217026 -0.7298888174641656
0.025825627559850798 -0.7395492119941308
0.038205248057349095 -0.7289995603708389
0.05092222583321142 -0.7282217566896716
0.0636236922057906 -0.7272221296069742
0.07630577818538702 -0.7260009836188395
0.08896462068575767 -0.724558690698165
0.10159636370084779 -0.7228956901813464
0.11419715947936857 -0.7210124886344506
0.12849965147352851 -0.7287577372290339
0.14119865657864322 -0.7264041157512713
0.15385465120514183 -0.7238292245430162
0.1664637802144602 -0.7210338479410741
0.18144142169975075 -0.7277217947069974
0.19411428382689055 -0.7244443697168013
0.2067280168627494 -0.7209462719537392
0.22220249558927996 -0.726791614531907
0.23485291572496006 -0.7228029523843167
0.2506874789320107 -0.7280493032114739
0.263355510360765 -0.7235633180051494
0.27952700064533414 -0.7281927326678174
0.2921931428644115 -0.7232034065620941
0.3047702802216335 -0.7179937856929035
0.3172545815991243 -0.7125654569612287
0.33386842677515255 -0.7159831517589534
0.35069691743126197 -0.7190352370393337
0.36773230478903296 -0.7217152845925779
0.3849666814844305 -0.72401702614432
0.3975438886019964 -0.7171881598543045
0.4200000000000001 -0.7274613391789284
0.4377823636735462 -0.7285922055967954
0.45043137459822413 -0.7208408817329621
0.46838957011292337 -0.7212566884330646
0.4864978260195497 -0.7212626881228863
0.510483028352431 -0.7290453194172027
0.5290067270632258 -0.7281152949374528
0.547651671068364 -0.7267583141430365
0.5664085572996057 -0.7249698933181842
0.5852679636763489 -0.7227457441549828
0.6106482292022124 -0.7277422209630291
0.6363772581207922 -0.7320682928160888
0.6557479942316811 -0.7282819289678464
0.6819983600624985 -0.7313537016191705
0.7085515378681774 -0.7337265963454241
0.7212489168102786 -0.7212489168102785
0.7481133923521973 -0.7224447052773572
0.7825484607325124 -0.7297382452668734
0.8025964115155858 -0.7226610548675669
0.8301805382450493 -0.721664931889558
0.8579697762932554 -0.719922122848924
0.8937178556755163 -0.723718449707313
0.9219725817198646 -0.7203239261310201
0.9583626120567513 -0.7221780277824579
0.9950909030811853 -0.7229758603197419
1.0321315758041296 -0.722706309802318
1.0694584685960038 -0.7213588454772634
1.115431855367414 -0.724369916569986
1.1618258917343036 -0.7259893919994908
1.191462547975936 -0.7159029241249752
1.2470765814495917 -0.7199999999999999
1.3031833636376997 -0.7223663341670422
1.342080341145569 -0.713596775434554
1.4077903082176213 -0.7173049895884839
1.4740222359306339 -0.7189286807340869
1.5316601600919384 -0.7142248623417821
1.5987045508745514 -0.7117891253826503
1.684523881817966 -0.7150379651353709
1.761649323676896 -0.7117525274902328
1.8391534401994873 -0.7059848606042415
1.9357667988189715 -0.7045614952508775
2.0423201232945245 -0.7032272136274585
2.149387726827047 -0.6983784072873811
2.2760053191920244 -0.6958446572401134
2.4319920907239467 -0.6973625102170078
2.6079997309804845 -0.698811421776806
9.557412903818564 -2.382930671656727
6.840077854792351 -1.579156401493932
6.778562873085273 -1.440828017367072
6.783043837623358 -1.3184901580519246
6.775477340723991 -1.1946994623484806
6.7854188998885965 -1.074704774826386
5.802970882825603 -0.8155543716259835
5.806394987101733 -0.7129356589201127
5.817953087904399 -0.6114915101157727
7.063020409470476 -0.6179342160808964
7.062753475839555 -0.49387583410840713
7.040338220019746 -0.36896849151275396
7.065693147025008 -0.24673944168668185
7.068923204755687 -0.12338851351159444
7.09 0.0
9.468557673131025 0.16527428896107488
9.464231131870838 0.3304982337726842
9.476994284820906 0.49666822474553696
9.47685847746833 0.6626865005691904
9.463849631871582 0.8279795561027525
9.467848443905961 0.9951109703080608
8.833660749607766 1.0846371563058126
8.823288492487393 1.240032329554183
8.810179998108628 1.3953954281588594
2.5998924679522295 0.4584311890406961
2.3264564247709636 0.4522173190424112
2.3182098137391196 0.4927507072380896
2.3092570535410077 0.53313399879496
2.3287097430623915 0.5806125494392025
2.2699256917793105 0.6082247559909237
2.2589649854550493 0.6477477861699481
2.2473161765131335 0.6870735060984313
1.3600108183020694 0.44189430195617474
1.3331811915950367 0.4590510977845909
1.2591881118531174 0.4583069920563961
1.1856471416514462 0.45512729592253137
1.1404361411171484 0.4607661099015718
1.0769906785393553 0.4571554203324502
1.032306367136139 0.4596124066756541
0.9697493321292154 0.4522015400625484
0.925757867688142 0.45152228119274973
0.8910065241883679 0.45399049973954675
0.8476296891445699 0.4506927002744552
0.8046501305682441 0.4460248506266301
0.7707626093681504 0.44499999999999995
0.7285922055967955 0.437782363673546
0.7038799198098336 0.43983298931356
0.6709364543563393 0.4357112280120216
0.654939682318483 0.44176239374188997
0.6225555536596338 0.435918091626795
0.5986725758374611 0.43496108669643013
0.5830039223345238 0.4393249669009952
0.5594876350607725 0.43711964748121734
0.5362307134053098 0.43423106982438786
0.520910221320905 0.4370955745868467
0.513202514551485 0.44612013971354497
0.49047558481508025 0.44162620019684645
0.4680663690362691 0.436478950439999
0.4531840742133503 0.4376347733891683
0.43840620433565947 0.4384062043356594
0.4237416059799884 0.43879727820657716
0.4091990160374991 0.43881222097150224
0.39478705775172634 0.43845544703166256
0.38707482710439933 0.4452786523314354
0.3728168136181928 0.4443057770090072
0.35871262289840733 0.4429731980304733
0.3509270409356252 0.44916612955583146
0.33701641296514706 0.44723588562648403
0.3232818887608602 0.44495934690622113
0.31546703999307535 0.4505336243589455
0.30196416787420327 0.4476802891797226
0.28865868855796445 0.4444954010110747
0.2808572100435986 0.44946549096290583
0.27297017970232884 0.4542986693721195
0.26500000000000007 0.45899346400575247
0.2521010025280953 0.4548022477124858
0.23943049702080435 0.45030327235805273
0.2315351548671689 0.4544133273360676
0.2235692848624295 0.4583849636125752
0.21130913087034972 0.45315389351832497
0.2074356879686582 0.46590818339772644
0.19536556424463686 0.4602524267262202
0.1873032967079561 0.46359192728339366
0.17560029527719706 0.4574544089836288
0.16758987022957772 0.46044938418509507
0.1595283956840068 0.4633041020436652
0.15141832724372425 0.4660176929846252
0.143262135314141 0.46858933042188733
0.1350623043503296 0.47101823100977624
0.12423314164920995 0.4636443966187528
0.11612250988784048 0.4657419486124783
0.10572699554161662 0.4579539304490605
0.09771849468434683 0.45972937234488864
0.09158831778074156 0.4711810480548787
0.08161464350345729 0.46285964391573775
0.07352419856890853 0.4642135200797147
0.06541135745123076 0.46542599230853804
0.05605989796636785 0.45657122975500813
0.048083093103120596 0.45748007186940576
0.040091641663922845 0.458249561122203
0.03208797792229761 0.45887946311951916
0.024597899434183664 0.46935588133464967
0.0160537684831505 0.4597197804287841
0.008028106961150456 0.45992993977194
