# .PCD v0.7 - Point Cloud Data file format
VERSION 0.7
FIELDS x y
SIZE 4 4
TYPE F F
COUNT 1 1
WIDTH 162
HEIGHT 1
VIEWPOINT 0 0 0 1 0 0 0
POINTS 162
DATA ascii
1.279755905108984e-16 -2.09
0.03682457758266839 -2.1096786367799854
0.07538291287740234 -2.158684186361247
0.11409238460961786 -2.177012385764971
0.15416180697451676 -2.2046165510742113
0.1961004211822313 -2.2414380707064274
0.23937018088292641 -2.277455140393346
0.28395557013399364 -2.31263253332428
0.32984024927535516 -2.346935322917522
0.37700706074695656 -2.3803289008342823
0.42891099883731815 -2.432475149940154
0.4808386683488932 -2.4737005022881133
0.5364121623098188 -2.523620809893219
0.593870783467804 -2.572336971033021
0.6580275560310961 -2.6392043754707104
0.7195169453850077 -2.68527379708361
0.7883228376366176 -2.749208450383592
0.8566490948376188 -2.801972934971694
0.9301411530685918 -2.8626801140484117
1.0027499157280428 -2.9121972128458955
1.0842038543423702 -2.9788256078913293
1.1682795155176784 -3.0434721903808777
1.266170285745783 -3.133881428435741
1.35583701585778 -3.194151841479968
1.4601845486421232 -3.279628192936937
1.572139933675402 -3.3714649677763378
1.6877289151379482 -3.460357078251793
1.8205019039555828 -3.572936161995355
1.943612269933588 -3.655403034435957
2.0992256556666398 -3.787103331913584
2.2600000000000002 -3.914434825105662
2.4361300943245574 -4.0544013323209915
2.6389979358813607 -4.223279518859002
3.344083674992267 -5.149437287184902
3.4110767111715554 -5.057129192585754
3.4988162617413807 -4.99682747016285
3.656024269259183 -5.032085705012173
3.99003360349808 -5.294953431613552
4.383509704318687 -5.61063656567986
4.820594195441755 -5.952938064760397
5.360848664785738 -6.388810655612277
5.9766977541035216 -6.875404275829451
4.271018284548433 -3.336885196265068
3.6258052156147094 -2.732240205110299
3.2522483173872883 -2.3628967142157418
3.01447952298349 -2.1107612857718494
2.802146995236041 -1.8900720137311242
2.616652171989723 -1.6992737892468843
2.4678199598151997 -1.5420650589186264
2.348638403923788 -1.4112043252535484
2.234345541763852 -1.2899999999999998
2.1603106766343076 -1.1974797620084525
2.092585795075657 -1.1126476038025612
2.0136747446657113 -1.0260185294113755
1.9593710209321842 -0.9556491000001888
1.9123094306473312 -0.8917245322728757
1.8544972790144796 -0.8256753854438742
1.8133945613013076 -0.7697403231238692
1.770921162222564 -0.7154985934243919
1.7177879847548512 -0.6593970271633525
1.6820497912067762 -0.612216056552947
1.635747135786818 -0.563232907210881
1.6072855125388095 -0.522238720493661
1.5779028473390087 -0.48241331279251554
1.5476313304606935 -0.4437761428653687
1.5165035472738373 -0.40634590081095756
1.4942554184650345 -0.3725597192234883
1.4712987978257053 -0.3396760920592361
1.4378769730786944 -0.3056301855021062
1.4037268723301595 -0.27285686338845905
1.3984270092773352 -0.24658041228704106
1.3728867934272415 -0.2174439064059209
1.3269592121137044 -0.1864919552864877
1.3200863816829582 -0.16208622672884615
1.302823682932438 -0.13693228688062603
1.2850911605383517 -0.11243090814447904
1.2569307033273784 -0.08789315691759789
1.2383006230956715 -0.06489658574125035
1.2292507172334877 -0.04292638094407619
1.1998172341876694 -0.020942887724740213
1.18 0.0
1.1698218033329777 0.02041931553162171
1.159293359342151 0.04048341617490112
1.138437669620214 0.05966299011695596
1.1272473767936013 0.07882481533086158
1.1057761148818377 0.09674287444990057
1.084028865951418 0.11393602496174228
1.081875305289041 0.13283758431161075
1.0595868335534804 0.14891521802727004
1.0568265244367974 0.16738487759304704
1.0438962181929405 0.18406706832694616
1.0307085426200473 0.20034944514537206
1.017273504763158 0.2162281584504697
1.0036011667287923 0.23169958597418094
0.9897016408015165 0.2467603335116611
0.9852443428148497 0.26399542600457115
0.9708743128977021 0.27839372937516915
0.9563047559630355 0.2923717047227367
0.941545951132202 0.3059268244311979
0.9266082040873305 0.31905679136801357
0.9208987683701902 0.33517974045915533
0.9055730137022857 0.34761691105894127
0.8900965003841159 0.35962232967927554
0.8928897078488671 0.3790091946345955
0.9409518213718789 0.41893874236807416
0.996938565740315 0.4648800879147694
1.0605769746330171 0.5172779532111114
2.646289376839453 1.3483517842264539
2.7371375378626737 1.4553618446362615
2.825021654060248 1.5659350733956687
2.927165864791403 1.6899999999999997
2.9915138794503724 1.797482881436089
2.934246412701234 1.833520654246889
2.9185735764500755 1.8953438418522939
3.0923101456303055 2.0857895299458855
3.2356505749415176 2.265626923586632
3.3978713763747797 2.4686980596283874
3.6018461503132904 2.7141857544157375
3.821852154992601 2.9859581553294423
4.064473378419957 3.2913456451906504
4.343471992484606 3.6446057469226774
4.70184068478787 4.08724775061086
5.1425621923035685 4.630383796003299
5.141416522382769 4.794448471239364
5.056958796380718 4.883448344326751
4.844610936373989 6.429015855880708
4.7199155759085585 6.4964064648308275
4.6058187838989 6.577790915640604
4.4959109439048035 6.665462083342534
4.38979062222112 6.759684777640118
4.276448462361964 6.843748135982358
4.16665802602234 6.934483462680088
3.335000000000001 5.776389443242206
2.9330982024903394 5.291449228193344
2.5961777422059766 4.882700188509866
2.3017318336795025 4.517403077635025
2.0691118128444455 4.242307898532069
1.8637465342764845 3.9968173408316265
1.6716876030415397 3.75467183091109
1.5082221559685964 3.55314873432642
1.3710601319022386 3.3934929077144416
1.2471204644176446 3.248859884210262
1.1252462715414504 3.091588722385638
1.015772641906329 2.9500179558698685
0.9239608131810929 2.8436589837225092
0.8332593584597998 2.725468554494651
0.7580027284967477 2.643469663830377
0.68587046952168 2.559703439666031
0.6120623958671592 2.454848187478271
0.5713756780334175 2.4748999645544973
0.530174811585286 2.494276381871204
0.4922872080714859 2.532598133294973
0.45322174371068835 2.570348235361863
0.4129869877062097 2.607497219171164
0.37159217956337476 2.6440157435399927
0.33392200093010416 2.7195764554972226
0.2905891278840766 2.7647708691237995
0.24490763712092 2.799307101637805
0.19741082069587443 2.8231062622353025
0.14968083485481973 2.8560804693980812
0.10120854043725314 2.8982333983553774
0.05131007492561378 2.93955222375979
