# .PCD v0.7 - Point Cloud Data file format
VERSION 0.7
FIELDS x y
SIZE 4 4
TYPE F F
COUNT 1 1
WIDTH 157
HEIGHT 1
VIEWPOINT 0 0 0 1 0 0 0
POINTS 157
DATA ascii
7.654042494670958e-17 -1.25
0.0218155080466045 -1.249809618945489
0.04362437087812635 -1.2492385337738696
0.06646666442853884 -1.2682595091383089
0.08789315691759779 -1.2569307033273784
0.11068779328952612 -1.2651672665765168
0.13275114834991988 -1.2630428071177071
0.15355537269048583 -1.2506081510680658
0.17535810720968248 -1.2477377666143787
0.19554308130028866 -1.2346104257439223
0.21706022208366302 -1.23100969126526
0.2404193341744466 -1.2368502511440567
0.2619687304303766 -1.2324659769245951
0.2834383284732701 -1.2277062816293964
0.3096600263675746 -1.2419785296332755
0.33128837773122655 -1.2363850576500075
0.35832856256209894 -1.2496402047198145
0.3800832161395578 -1.2431961827519462
0.4048122626311812 -1.2458840363466512
0.42974996388344694 -1.2480845197910981
0.45146658918988286 -1.2403942594373991
0.47304569339979624 -1.2323261629763063
0.4982267692431632 -1.2331545265738273
0.5196724008907341 -1.2242714550917457
0.5450271017215725 -1.2241509132410853
0.5663084707325373 -1.214452434629111
0.5961847596331454 -1.2223599029668673
0.6265068896405747 -1.2295890033799475
0.6478707566445293 -1.218467678145319
0.6690372759399452 -1.206975195852366
0.6900000000000001 -1.195115057222525
0.7159029241249756 -1.191462547975936
0.7471861625688189 -1.1957478155805608
0.7733874297213386 -1.190912206482502
0.7996458519631678 -1.1855237287537097
0.8316858327090167 -1.187770464219038
0.8699221733928603 -1.1973451516749223
0.8906862342650315 -1.1819805548699933
0.9234922129884875 -1.182016130410083
0.956566994395753 -1.1812618614145955
0.9898929189172706 -1.1797084424032263
1.0103309046453814 -1.1622527535430687
1.0371524398562304 -1.1518744794899611
1.0707374252981225 -1.1482253115420977
1.1183999764389858 -1.1581370785452283
1.1384419177103418 -1.1384419177103415
1.1869106705587744 -1.1461863112573454
1.214047144687823 -1.1321172777037474
1.2410518585472483 -1.1174481126192932
1.29055338218094 -1.1218609395737673
1.3252568865958319 -1.1120225647577129
1.3522339729351291 -1.0950174804267172
1.402659141419965 -1.0958774260796718
2.4267439250077514 -1.1836020963305092
2.564851037313719 -1.1960096807261795
2.6036045542814126 -1.1591994327660304
2.641848929408504 -1.1213983387642157
2.9762601731593876 -1.2024871648650775
3.0154647775859615 -1.15752847703132
3.0727948699699206 -1.1184058686749367
3.479508358205486 -1.1980908084023367
3.537930240617971 -1.1495432190748043
3.5574536921824924 -1.0876227415685806
3.4989925732154807 -1.003319975173877
3.4290366833261925 -0.9188076101139486
3.4639557428053074 -0.8636611672908138
5.63185897445866 -1.3002170941075397
7.130696009349443 -1.5156762260614653
7.234592342009283 -1.4062622959251352
7.041375434037287 -1.241584470318552
6.350836030026736 -1.0058736102086845
6.179272748947399 -0.8684401499908083
6.193487986241849 -0.7604647028481203
6.285378378727487 -0.6606198878515699
6.256102704016162 -0.5473380644552933
6.224799673621304 -0.4352803961633419
6.231448296868541 -0.3265763669559695
6.286168301950112 -0.2195178342587311
8.268740438943356 -0.14433140123633464
8.44 0.0
7.30888665159322 0.12757709105654247
8.594761112364223 0.30013567164150834
7.70942000830531 0.4040335821955263
7.172485521368136 0.501549046220261
7.820128380020202 0.6841725805691166
7.9362847250388215 0.8341371368758747
7.076854061202626 0.8689284184787015
6.96158452325324 0.9783868997492601
6.5582505815517145 1.038724847867133
6.470186937290207 1.1408685272717323
6.419841779747722 1.247890829762603
6.485118592865132 1.3784545101217442
6.606229039243895 1.5251681484514046
4.579795828022703 1.1418713472304316
4.530192125295731 1.2138613215308223
4.508317353950716 1.2927391987817263
4.456380162787746 1.3624521440079531
4.412902235609512 1.4338388538997557
4.358840633512851 1.5008691920474926
4.228616793536588 1.5390906449655093
4.16376870217752 1.5983210549720392
4.088880798639533 1.652015076964172
4.151476889070506 1.7621973894866243
4.339340923802354 1.9319990546100507
4.522475857312884 2.1088651260860902
4.754620504922594 2.3189833665142197
5.043096926906163 2.569586228525835
5.31534450901074 2.8262188079710624
5.658789505191891 3.1367182429938008
6.053517572453226 3.4949999999999997
6.497328139322011 3.9039886078182104
7.038799198098336 4.398329893135601
7.6486755796622665 4.9671079993370455
6.085207325220817 6.301416650966583
4.821728405641864 5.170670670447535
3.974635801771618 4.414280263335722
3.3590222284313977 3.8641130507405923
2.8989721196862925 3.4548604384665906
2.5298679720203463 3.124126765057022
2.2225379259256264 2.844718820520266
1.9739532759387182 2.61952447295512
1.7633557568774194 2.4270509831248424
1.594542493055908 2.277242683123397
1.4427176909545267 2.1389169371920076
1.3180264647363658 2.029582774427926
1.202916729809375 1.9250691782750873
1.0970310995584158 1.8257663504954988
1.0150000000000001 1.7580315696824103
0.9890116253025277 1.7842242025643673
0.9624167037110761 1.8100425653607999
0.9352204294634665 1.8354734398280377
0.9118119853212812 1.8694916163022675
0.8832721670380618 1.8941832749065983
1.2120751963658851 2.7223654637749504
1.176100696752714 2.7707196088918455
1.135057978050214 2.8093670793373655
1.0966059256086185 2.856756105081437
1.0568422428763167 2.9036501982284566
1.015772641906329 2.9500179558698685
0.9734035322810844 2.9958280263297334
0.9297420210183029 3.041049123962453
0.8875522857307374 3.095262660921387
0.8411618965831924 3.139258935439472
0.7983422554789033 3.2019758967107883
0.7513365215085095 3.2543960163826857
0.7027415149640261 3.306138890480263
0.6525667641877836 3.357164967391011
0.6008226947275792 3.4074348254222397
0.5490849722912106 3.4667860754889332
0.4940645084082324 3.5154516440325745
0.4399483296925824 3.5830916074251724
0.38361946019228815 3.649895356001563
0.3242193630212891 3.705844276901294
0.2643770354902346 3.780767750484734
0.20149343153533428 3.8447237088051094
0.13785301197487929 3.9475937667254284
0.06998414981350723 4.009389257577129
