# .PCD v0.7 - Point Cloud Data file format
VERSION 0.7
FIELDS x y
SIZE 4 4
TYPE F F
COUNT 1 1
WIDTH 173
HEIGHT 1
VIEWPOINT 0 0 0 1 0 0 0
POINTS 173
DATA ascii
6.613092715395707e-17 -1.08
0.018674074887893452 -1.0698370338173386
0.036644471537626136 -1.0493603683700505
0.05442939449266173 -1.0385747161447567
0.071849167956449 -1.027490971767619
0.08889885760261153 -1.0161185920535805
0.10557374790032999 -1.0044671143219561
0.12186934340514749 -0.992546151641322
0.1377813699504648 -0.9803653880541546
0.1533057757394263 -0.967934573783235
0.1701752141135918 -0.9651115979519639
0.18508472551524857 -0.952178367944234
0.19959522318504885 -0.9390216967044535
0.21370350162667187 -0.9256515615459734
0.2298258008196843 -0.9217809399621966
0.19670247427791576 -0.734103627979692
0.20948439042091938 -0.7305588889131224
0.2719056853921452 -0.889363423045623
0.2842956348249517 -0.8749719949915413
0.2962670205560127 -0.8604219037953783
0.3112383304263586 -0.8551202849151766
0.32253115459077014 -0.8402223838474816
0.337145934074321 -0.8344654691101085
0.3516580156403464 -0.8284543681071963
0.36606297876822036 -0.8221909118783408
0.37613025294922253 -0.8066139304626184
0.39015032064227895 -0.7999267012062586
0.39951163977080123 -0.7840857412857637
0.41313497525158394 -0.7769938817158557
0.42663246581677666 -0.7696653422826683
0.4400000000000001 -0.762102355330306
0.4532335059208479 -0.7543072246178587
0.46632895252522033 -0.746282324617655
0.47383596046307364 -0.7296433941125188
0.4864978260195497 -0.7212626881228863
0.5047472639889206 -0.7208537989743128
0.5113731694944517 -0.7038447851062043
0.5295972203738025 -0.7027992488416177
0.5417820982865793 -0.6934494631739153
0.553801944123857 -0.6838884460821343
0.5656530965241546 -0.6741191099447007
0.5838925358015515 -0.671691526398267
0.5955262396593839 -0.6613988946748809
0.6069785404556236 -0.6509047944410618
0.6182459497085077 -0.6402124223013995
0.6363961030678928 -0.6363961030678927
0.6474058203047861 -0.6251925334130976
0.6582183314572534 -0.6137985240562487
0.6688303429296548 -0.6022175457229725
0.6867857180027226 -0.5970137163813617
0.69710044323827 -0.5849367248147508
0.7149742845404131 -0.5789747597658506
0.7328500008542514 -0.5725651720528623
0.7427310243439824 -0.5596879715314049
0.7604759747124505 -0.5525181371549247
0.7700029216316523 -0.5391618501699833
0.7875856939272896 -0.5312332582972095
0.8051237452276071 -0.5228534736144259
0.8310871342332974 -0.5193208789485408
0.8400239546880701 -0.504737313411853
0.8573651497465943 -0.49499999999999994
0.8746197071393957 -0.48480962024633706
0.8917770687875163 -0.4741662784137497
0.8999165894302515 -0.45853040473694223
0.925757867688142 -0.45152228119274973
0.942560098518116 -0.4395229922103274
0.959222730524731 -0.42707347522959016
0.9757351446595869 -0.4141749961986302
0.9920867243864626 -0.40082905495502585
0.998931056352006 -0.3834537060134713
1.0242649566566402 -0.3728019562249789
1.0400704331592485 -0.3581249699028724
1.065183298250572 -0.3460990336999411
1.0901874217978604 -0.3333037433839198
1.1054509503290666 -0.316982959189549
1.1301332167582099 -0.30281828276994927
1.1546519142684357 -0.28788705576360457
1.188731479037987 -0.2744402862995153
1.203121548902581 -0.255731379705844
1.22703397930958 -0.238511244220681
1.2605539238556263 -0.22226966741367082
1.2938717261796304 -0.20492914920270244
1.307153850738873 -0.1837084932672864
1.3399373047157848 -0.16452361359694911
1.3624949966545346 -0.14320399467668524
1.4046345243093612 -0.122889597274198
1.4364922323741467 -0.10044932219154043
1.4679854160892236 -0.07693385567712742
1.4890923322584526 -0.05200025008672644
1.5397654505408427 -0.026876705913416607
1.55 0.0
1.619753266153354 0.02827289842839929
1.6689826811218897 0.05828215949317662
1.7076565044303211 0.08949448517543394
1.7557127284572907 0.12277139378966054
1.8130743505269769 0.15862345180073786
1.859755944338671 0.19546822631051197
1.9255395341841646 0.2364265262059861
1.9904388181705561 0.2797379329297315
2.0543917484378866 0.3253836872836802
2.1370328240364915 0.3768165455372388
2.208661162757244 0.4293202395972258
2.2888653857171053 0.48651335651355676
2.3872066587238265 0.5511300831424693
2.474254102003791 0.6169008337791527
2.5790219561918124 0.6910468504237304
2.6723075147085265 0.7662718491712576
2.1899378911553513 0.669531203815067
2.9768068960038305 0.9672231923935853
3.063480184941787 1.0548408204411879
3.035207165138484 1.1047250629419099
3.00612897332099 1.153944797535867
2.96698833461372 1.1987410989309184
2.9548205795823335 1.2542469224505686
3.078648192255565 1.3707024871654465
3.380528045646704 1.5763661162928089
3.7479711730675267 1.8280076821104527
4.223370924652864 2.1519149687654515
4.812064381081152 2.558620017183105
5.623804716906315 3.117325858183947
8.305183622292768 4.794999999999999
8.211662740726236 4.9340647576383185
4.794990582189509 3.8829068127774975
3.945128882062737 3.3103561898856775
3.3584576319913357 2.9194626790077574
2.9354220606357075 2.6430658951174903
2.5889921037318633 2.4142741946212447
2.3090807590870703 2.229853369173381
2.0718228688765845 2.071822868876584
1.8825241839438829 1.9494108589177443
1.711815883756871 1.8356977910641177
1.5657656188797282 1.7389588916171024
1.4367692734892112 1.6528139806878703
1.324142475954271 1.5780515528250947
1.2271747625471832 1.515434624841093
1.1328171145992114 1.4499397866363684
1.059194440747605 1.4055984976832354
0.9874792238513548 1.3591485505499117
0.9177222981616737 1.310643270862387
0.8555651423102426 1.268427486009214
0.7951729911219397 1.224459029200319
0.7418869699264868 1.1872673346189964
0.700451781877674 1.1657475289548727
0.6550000000000001 1.1344932789576145
0.6108601215103847 1.1020208309956387
0.5680605909709279 1.0683665873593016
0.5311688846952698 1.0424776333003902
0.4953593958716575 1.0156372723180587
0.46065390529736244 0.9878754878699485
0.43114084166034844 0.968358185101157
0.4063603736288447 0.957325047590538
0.3746065934159122 0.9271838545667873
0.3512005905543941 0.9149088179672576
0.32833933759264206 0.902104915954472
0.3060340651897273 0.8887874610633577
0.2812054648812022 0.8654614298285898
0.26021081720323574 0.8511112328071015
0.23980449956078928 0.8362976754663375
0.21999618833714263 0.8210369523457081
0.20321439230372085 0.815048410071837
0.18445986456196942 0.7989834531238929
0.16840846956238498 0.7922995565943827
0.15264719630123594 0.7853017467581312
0.13718206035687502 0.7779981248796444
0.12045453808097782 0.7605200222582561
0.1071632877392504 0.7625064129310092
0.0926207009879121 0.7543350752474047
0.07839634745074009 0.7458914215262049
0.06536680706074377 0.7471460235688092
0.05161979057065267 0.7381973971922698
0.03768188849491966 0.7190132650232931
0.023731657757700735 0.6795857623729852
0.011867636377352848 0.6798964327063461
