# .PCD v0.7 - Point Cloud Data file format
VERSION 0.7
FIELDS x y
SIZE 4 4
TYPE F F
COUNT 1 1
WIDTH 165
HEIGHT 1
VIEWPOINT 0 0 0 1 0 0 0
POINTS 165
DATA ascii
8.817456953860943e-17 -1.44
0.02513146526968838 -1.4397806810252034
0.05060427021862657 -1.4491166991776887
0.4631732127500541 -8.837871382577978
0.6145545336857433 -8.788539282789051
0.6789432360042587 -7.760356698134697
0.7881446130381071 -7.4986950910767805
0.9213322361429149 -7.503648906408394
1.056323836286897 -7.516134641748519
1.1920306236065596 -7.52618515533495
1.227692616105198 -6.962590813796311
1.2517070096701346 -6.439474323416675
1.274498664712864 -5.996044792498229
1.381199473671332 -5.982632197781344
1.848283282381461 -7.413059348748613
1.9903184568383845 -7.427969604162936
2.1306767604654038 -7.430552909603206
2.274651862742892 -7.4400510013924155
2.422693235899588 -7.456283087754003
2.5654770571223953 -7.450686375722616
2.7156399380058107 -7.461159409040112
2.7343474550306404 -7.123218654173649
2.7533584616069544 -6.814801331065887
2.766376389704058 -6.517174362443278
1.4276456171960592 -3.206544556325529
1.436902089918378 -3.0814464759246096
1.4510084958718463 -2.975008293250243
1.4527695991665501 -2.851220877402777
1.4647512758919796 -2.754796489719852
1.4689731493464013 -2.650097712632369
1.4800000000000002 -2.5634351952019383
1.4833096557409566 -2.468641826022083
1.4890731324953057 -2.383015150199557
1.4923109559411747 -2.297957356170462
1.4986369813016014 -2.221820694447512
1.5027702632397406 -2.146178356037159
1.5047302458687313 -2.0710835055998653
1.510555708111641 -2.0045751302187047
1.5145272293011194 -1.9385064538725358
1.5166621424301086 -1.8729217671112997
1.5234066349570983 -1.815525330191978
1.522056947257977 -1.7509262261168308
1.5189264764346082 -1.6869387538336849
1.5276763265399966 -1.638232291626942
1.5282484150097944 -1.5825475607450326
1.534421715174808 -1.5344217151748079
1.5393871727247137 -1.4865689127822541
1.5650969214650248 -1.4594764905337467
1.6200557195407195 -1.458704721862311
1.6905494596990094 -1.4695722249387364
1.7465813303112698 -1.4655557500853094
1.8185215498093115 -1.4726097150566198
1.8912258086561324 -1.47758754078158
1.9646433547163404 -1.4804649569540387
2.046812995768617 -1.487096688299957
2.1216037947084887 -1.4855629701492092
2.2052399429964114 -1.4874531232321866
2.306344061849916 -1.497757346291324
2.3999761121226855 -1.49967151777997
2.5115001910571895 -1.5090615594864587
2.615396719429005 -1.5099999999999998
2.7375596833463085 -1.517454111371035
2.851920724934334 -1.5163931477984274
2.993781921272916 -1.525408079124877
3.127803281121101 -1.5255315908259894
3.289897266943039 -1.534104290118739
3.4806081936183095 -1.5496666101187986
3.663609316740713 -1.5551098913873094
3.88490035063484 -1.5696016264126715
4.126425485117632 -1.5839863369902272
4.388364539070192 -1.5972340693308729
4.689772134972611 -1.6148180461074972
5.021578406038411 -1.6316097302997223
5.39355882363152 -1.648976414636235
5.825245877386212 -1.670362376251015
6.317154903930507 -1.6926765549704856
6.898802613822335 -1.7200646777136377
7.6000865053248345 -1.7546182238821468
8.441413794332744 -1.794277891757263
5.935506099045954 0.4150510187775456
5.289793846867169 0.46279699399006485
4.664307689277202 0.49023849272529474
4.228246605992031 0.5191634029059282
3.842240106717293 0.5399916317250539
3.5161704925186905 0.5569066955432219
3.2301694298800423 0.5695660227475314
3.003779181349852 0.5838755258522271
2.8170650901133603 0.5987856695551468
2.621055474272283 0.6051183361849968
2.464551144741031 0.614481614823156
2.318221983093764 0.6211657082460498
2.1820640497799837 0.6256967977045881
2.075181320439787 0.6344465992483387
1.9686869887309677 0.639665178356141
1.8626715939306542 0.6413692642805987
1.7854159794932258 0.6498382723187706
1.6991163762249073 0.6522296681724465
1.6132999069462102 0.6518154725436869
1.6108834935417706 0.683779474856229
1.6261109146038295 0.7239912246749243
1.6222909387956035 0.756486688515852
1.6268172238014924 0.7934517756882301
1.6305419392647134 0.8308026145233706
1.6422825227176043 0.8732171067817569
1.644285049422064 0.9114420860631136
1.853294364098699 1.0699999999999998
1.8600530425235837 1.1176326225548174
1.8572253305825728 1.1605231886707188
1.8702353665182956 1.21454504808351
1.865334538248844 1.2581840328091802
1.8676666609789012 1.307754274880385
1.8688292570061287 1.357783932795613
1.868807093510665 1.4082471541757928
1.8754655935839981 1.4652743112750666
1.8729217671112997 1.5166621424301086
3.4088977718794524 2.8604048631051
3.3886460152002464 2.9457050401673777
3.4110347489412396 3.071309483187159
3.4081082495453345 3.178112357891243
3.431250847615366 3.3135204270894167
3.2526911934581184 3.252691193458118
3.153749001883848 3.2658026935374758
3.150832423488743 3.3788541014805675
4.248979350378749 4.718969641781453
4.257823098148393 4.89806517564579
4.145980082478179 4.940986658117408
0.5915611675868472 0.7305172037695525
0.560251942546349 0.7170897857821169
0.5416335208368435 0.7187719590425635
0.5290067270632258 0.7281152949374528
0.510483028352431 0.7290453194172027
0.49208975505425717 0.7295530638484368
0.46838957011292337 0.7212566884330646
0.45043137459822413 0.7208408817329621
0.44293274442264674 0.7371638786038165
0.4250000000000001 0.7361215932167728
0.40724008100692316 0.7346805539970924
0.3943561127401483 0.7416759780014985
0.3722722097864284 0.7306253498344616
0.3594643403670435 0.7370111179653169
0.34232079200996657 0.7341093074996865
0.32945668089139835 0.7399718206905067
0.312584902791419 0.7364038827619523
0.29593920879857066 0.732475245107762
0.28311068014078716 0.7375285369327894
0.2701959132272784 0.7423571704208676
0.25719884202115384 0.7469596747234603
0.24103325561245903 0.7418240827102198
0.2280499296837347 0.7459177096511677
0.21499713753725935 0.7497841228318888
0.20187885517996618 0.7534221445054733
0.18627985961174412 0.7471277092325173
0.1709628013013375 0.7405212492367788
0.1600920019296746 0.7531736525650304
0.14501483648617414 0.7460366594202247
0.1319726150268671 0.748453892289278
0.11889019343057551 0.7506431388523047
0.10577155672964976 0.7526037322435934
0.09140200755386062 0.7444096137309915
0.07839634745074009 0.7458914215262049
0.06536680706074377 0.7471460235688092
0.05231735530809392 0.7481730376948681
0.03925196718220798 0.7489721510659304
0.026523617493900822 0.7595370285345128
0.013089304827962698 0.7498857713672935
