# .PCD v0.7 - Point Cloud Data file format
VERSION 0.7
FIELDS x y
SIZE 4 4
TYPE F F
COUNT 1 1
WIDTH 175
HEIGHT 1
VIEWPOINT 0 0 0 1 0 0 0
POINTS 175
DATA ascii
1.175660927181459e-16 -1.92
0.03333409629521167 -1.9097090977487072
0.06700703366880208 -1.9188303878766637
0.1004850359864524 -1.9173687067287817
0.1360251238010442 -1.945249898006657
0.1699536983579338 -1.9425796612789037
0.22578148065813147 -2.1481672939954706
0.3180789862874349 -2.5905454557838503
0.36602525552497217 -2.6044050207903298
0.41455133235661196 -2.617374102577115
0.46537711614737354 -2.6392847780727178
0.5170923774704367 -2.660209667143169
0.5696780328406603 -2.680124426010628
0.6231144205325064 -2.6990050794551017
0.6773813076790695 -2.71682803357279
0.7324578976401337 -2.7335700883980634
0.7938355847529576 -2.7684336843023583
0.850801660743164 -2.782846839852433
0.9085099634623455 -2.7961061579077513
0.9767044633714703 -2.8365557267979504
0.9576564013118727 -2.6311393382005432
0.6235602322088223 -1.624429942105131
0.6630536703461646 -1.6411154225832136
1.2386176773109976 -2.918000385444236
1.3137593571348352 -2.950751828185601
1.3777355332746801 -2.9545633857394784
1.4027876697250479 -2.876140948157335
1.4346099791769682 -2.815580616435242
1.4506671290084028 -2.728308061934084
1.4738212455488648 -2.658843909703763
1.4950000000000003 -2.5894159573154716
1.5142119402355598 -2.5200718640642097
1.5420650589186264 -2.4678199598152
1.5576676401429776 -2.3985978243239123
1.5769239877875059 -2.3378859546052175
1.594542493055908 -2.277242683123397
1.6105315912813765 -2.2167065645873563
1.6249005625105304 -2.1563158771276907
1.6438161391195076 -2.1039887121299476
1.661405832371571 -2.051665338246403
1.6841035373787332 -2.0070364409717225
1.699192885085414 -1.9546978127769792
1.7129743522786771 -1.9024507532221293
1.7322758345587461 -1.857638402112693
1.7574856772612633 -1.8199296948567871
1.1879393923933999 -1.1879393923933996
1.194104068562161 -1.1531328949619355
1.2067336076716313 -1.1252972941031225
1.2113260655281526 -1.0906828883649389
1.2301766157631182 -1.0693762172545267
1.2409919978527444 -1.0413159276921937
1.2512049979457232 -1.0132058295902384
1.2608172057707552 -0.9850583605210533
1.2698304609751956 -0.9568858868117568
1.278246851112417 -0.9287006986221076
1.2778771890908271 -0.8947792407076318
1.2932986131858653 -0.872340929414365
1.2999393803154073 -0.8441905042732918
1.3229550300040245 -0.8266740522037996
1.3286093160882742 -0.7983090161105839
1.3250188677901913 -0.7649999999999999
1.3294219548518815 -0.7369106227744323
1.3332508652169797 -0.7089020598066951
1.3454198515244356 -0.6855256546067156
1.3481910694487507 -0.6575567201836161
1.3685247584253415 -0.6381535752284562
1.3885890956167533 -0.6182396974752162
1.4083724257822339 -0.5978186265885888
1.3815039433045133 -0.5581638241897089
1.3910348354808306 -0.5339682448224974
1.4095389311788626 -0.5130302149885031
1.4182778633989752 -0.48835223168573505
1.4265847744427302 -0.46352549156242107
1.6065919900178998 -0.4911844639341977
1.6245322661357589 -0.46582713133072856
1.6324146464285254 -0.43740418622326005
1.639799777406434 -0.4088480035634385
1.6466854094870476 -0.3801672818411318
1.6530694452401316 -0.35137075748201324
1.6687662118610287 -0.32437529214012617
1.6840212576508757 -0.29693838381045085
1.6889470624176857 -0.26750293521879476
1.703261078235501 -0.23937773365131254
1.717104842339487 -0.21083396409090513
2.2973455783007113 -0.2414607501482795
2.321133646553767 -0.20307288060204354
2.3342998776079886 -0.1632301485612532
2.3467794066732486 -0.122989497170918
2.358562351765066 -0.08236281221790229
2.3696390375206473 -0.041362203256361925
2.38 0.0
2.3896359914237753 0.041711251385107596
2.39853798484583 0.08375879208600233
2.4266697694536146 0.1271763736703535
2.434056282633971 0.17020579593566573
2.450638957305694 0.2144031271592391
2.4664143005133177 0.2592305889037806
2.471439917586892 0.30345466507881724
2.4855728525413414 0.34932448340976424
2.5087283851116498 0.3973435412021864
2.5309559252413742 0.44627581660401094
2.5424144051294495 0.49419529802525103
2.562746713922571 0.5447286299425295
2.572336971033021 0.5938707834678035
2.5809866318941506 0.6435122422951162
2.6079997309804845 0.698811421776806
2.6242444299116108 0.7524899813804077
2.6489641740176086 0.8098696220819807
2.6629582456264296 0.8652475842498527
2.68527275470206 0.924613558658325
2.706314747863416 0.9850180127779259
2.726054845371829 1.0464344126722767
2.753736048063359 1.1125815824452587
2.77992465742637 1.1800080080376065
2.7589072820806546 1.2283446620889165
2.6917341274988504 1.2551762373698774
2.615490674730576 1.2756600371562152
7.522186612907498 4.700383873748527
7.2041801786511925 4.678449310779081
6.872721476481296 4.635709169772491
6.536833313426155 4.577139962081348
6.221340686743346 4.520068590129118
5.406762403020172 4.074287706739367
5.6973177485766 4.45123246660451
5.657622599406747 4.5814524468428175
6.212620433694911 5.213007514557833
6.165977270420047 5.360002266852445
5.254033916125177 4.730753386957128
6.070235723439115 5.6605863885187375
6.02087412883451 5.8142905607418065
5.967981233214461 5.96798123321446
5.9045961489014775 6.114388302878535
5.851545929336237 6.275014759892483
5.794671051067713 6.435634188634234
5.74051650366694 6.603708826949254
5.682242469629008 6.771832877171765
5.613537888164551 6.9321419761961796
5.516326818917899 7.060576352316229
5.350135555821709 7.099869684320434
5.207777335311311 7.167890570162034
3.7454541293723307 5.349062849207117
3.634753872559854 5.388744221607771
2.7722126882264884 4.268833190842208
2.6654938990930206 4.265681923666824
2.5700399938011715 4.27726483050354
2.4650000000000003 4.269505240657282
2.370719043004588 4.276890367911645
2.28163179513943 4.291125301294385
2.1836943037472203 4.285741381346049
2.0954140816517905 4.296235541310018
2.0032105606509156 4.295898910553721
1.9157295888870198 4.30279910549665
1.8247143700449082 4.2987576656228965
1.7419206593839918 4.311404923735561
1.6592436063947398 4.322477374682044
1.5732926592980765 4.322586055615178
1.491102147413778 4.330475076244871
1.4060273244060109 4.327307149142948
1.3244438223939976 4.332060544512551
1.245880848292836 4.344902865641201
1.1646857029613433 4.346666218300808
1.0862293112425079 4.356627810979225
1.005531212917077 4.355434189590001
0.9272861410472062 4.3625382992727735
0.8491000294256249 4.368240966342105
0.7709979088411711 4.372546423374204
0.6945690247786254 4.385336232242412
0.6165368372530899 4.386887544525156
0.5398811912848034 4.396979451771056
0.4630610922757048 4.4057319964814505
0.3860999403721265 4.4131425125464325
0.3097187434239161 4.42918438315362
0.23237164571867122 4.4339151343103085
0.1553027603261298 4.447289180234976
0.07783773271028485 4.459320720397505
