# .PCD v0.7 - Point Cloud Data file format
VERSION 0.7
FIELDS x y
SIZE 4 4
TYPE F F
COUNT 1 1
WIDTH 179
HEIGHT 1
VIEWPOINT 0 0 0 1 0 0 0
POINTS 179
DATA ascii
2.694222958124177e-17 -0.44
0.007679058832404783 -0.4399329858688122
0.015355778549100476 -0.43973196388840213
0.023027820746895345 -0.4393969952920125
0.030692848447415103 -0.43892818211432266
0.03834852680896968 -0.438325667160368
0.044947239205090986 -0.4276444150083575
0.05240381766421342 -0.42679484520576844
0.05984443341282815 -0.4258152695588753
0.0672668199672993 -0.42470598645590923
0.07466871639678008 -0.4234673337952494
0.08204786801191431 -0.4220996888824955
0.08940202705163647 -0.42060346831553647
0.09672895336786201 -0.4189791278576511
0.10160719615186042 -0.4075242050359185
0.11129218939408392 -0.4153481053042994
0.11852406300130963 -0.41334252925347714
0.1257198330307768 -0.4112110450641052
0.1328773075812274 -0.408954302006916
0.14324998796114896 -0.41602817326369934
0.1470686616300376 -0.4040678269379406
0.15409821830447906 -0.40143958339379676
0.16108083516884222 -0.3986890574637185
0.1680143852503877 -0.39581708698454937
0.17489675652259415 -0.39282454678631834
0.18172585254850077 -0.38971234842575947
0.19288330458719408 -0.3954693803716335
0.19975581988540062 -0.39204287064288185
0.2112622032536509 -0.3973264167865171
0.2181643291108517 -0.3935788682127281
0.22500000000000006 -0.3897114317029974
0.23691751445862502 -0.3942969583229716
0.24906205418960628 -0.39858260519352023
0.47928235081322396 -0.7380300997919731
0.5647848325054543 -0.8373279482805922
0.6022552581685984 -0.8601096465034415
0.6230523674300216 -0.8575580140374444
0.6559783752357327 -0.8705127059515493
0.6772276228582241 -0.8668118289673942
0.6985456340653197 -0.8626320172172377
0.7263499989457894 -0.8656302207244451
0.7544678833390834 -0.8679160172561876
0.7828828094398641 -0.8694794458085512
0.8115780484743732 -0.8703109049268128
0.8474832119599768 -0.8775945564131543
0.8768124086713189 -0.8768124086713188
0.913561546430087 -0.8822161304829266
0.9434462750887299 -0.8797778844806231
0.9883826178849344 -0.8899437064572815
1.02640502910297 -0.8922402794270899
1.0648017759353794 -0.8934747774642895
1.0957758056543287 -0.8873417513802708
1.1426155927297468 -0.8927091392222045
1.1899669099704664 -0.8967043844965519
1.2458861713374192 -0.9051892885304087
1.286068709533717 -0.9005150050711423
1.3430408675391676 -0.9058925036226099
1.400579848468858 -0.909547188475095
1.4586427253890526 -0.9114611344811124
1.5171861222427387 -0.9116173925907959
1.5848264889255228 -0.9149999999999999
1.6705236406362458 -0.9259863746705037
1.7305772820034968 -0.9201642630603459
1.2117688728961804 -0.6174270796457836
1.1324804983369505 -0.5523476449542375
2.0210663650917295 -0.9424387236817597
2.110290007154408 -0.9395616455050984
2.2276217453549054 -0.9455693309440424
2.364318829145308 -0.9552468132105756
2.520667151542445 -0.9675934637723108
2.537170076121953 -0.9234543869793056
2.5529001541181557 -0.8790340170343232
2.5678525939969146 -0.834345884812358
2.5628967459809355 -0.7835561686569344
2.5665687281553113 -0.7359517400313877
2.5693626979289217 -0.6884586599727052
2.5712836746313905 -0.6410930233391194
2.572336971033021 -0.5938707834678035
2.572528189929909 -0.546807746850707
2.5718632206328795 -0.4999195678865474
2.580196312891985 -0.4549582254873575
2.587743452359261 -0.4098582984054049
2.5945023401029146 -0.36463352451537145
2.5905454557838503 -0.3180789862874349
2.595702146911193 -0.2728192891285755
2.600068162019456 -0.2274764885713878
2.6036421711781412 -0.18206439647216702
2.6064230857094377 -0.13659684579408338
2.6084100585198398 -0.09108768639352753
2.609602484358181 -0.04555078080130996
2.62 0.0
2.6196009613097453 0.045725304865682805
2.618403966790031 0.09143668136055254
2.6164093810569837 0.13712020535651284
2.6235934521833375 0.18345952594704953
2.6199920559812906 0.22921960342634096
2.6255378037722417 0.2759551430266051
2.630247301849503 0.3229537600236408
2.6341130628525775 0.3702004485537741
2.587743452359261 0.4098582984054049
2.6195886230124734 0.4619041525940347
1.0208922707855705 0.1984413551916066
0.9743700647852352 0.22495105434386498
0.8829691109111568 0.22014892499569763
0.8983110184488335 0.2407017119453443
0.9228112281007861 0.2646118615843192
0.9180525657245141 0.28067683653382725
2.6629582456264296 0.8652475842498527
2.6569071974340805 0.9148465140246104
2.6405362644084027 0.9610766027451291
2.651368411252053 1.0177649767086527
2.6702895011523475 1.0788669890378266
2.669464075012077 1.1331202726188938
2.6766881908928206 1.1917383642120944
1.885120197036232 0.8790459844206548
2.6784062579715178 1.3063460174314507
2.690839703048871 1.371051309213431
2.7018196341483165 1.436582982124826
2.693828697989339 1.4932136303587182
2.6067364653911604 1.5049999999999997
2.2029199628044287 1.323647852518839
2.7137539077005632 1.6957416455462557
2.70890593446372 1.759184083098537
2.089174682838705 1.409166116746282
2.01511402895092 1.4109980334235732
1.9497309564436234 1.4165624580248604
1.900752513912557 1.4323197551018747
1.7178634428626538 1.3421420162099351
1.9040076055695785 1.541834958072102
1.9074506633662554 1.600541148119483
1.9245094295680685 1.6729505239257934
1.9247450979864509 1.7330482704694428
1.9380873092908018 1.8072956541656209
2.02134483895161 1.9519900209897822
1.887975105768082 1.8879751057680816
1.826951514307163 1.8918636748906523
1.7731957361624962 1.9015196242098433
2.214822307047821 2.459809372330175
1.948495316101807 2.241487453261633
2.0633482270937913 2.4590026624119194
2.0012388435384834 2.471324157433167
1.933177032522567 2.4743537663251067
1.1434485439888917 1.5174074690898562
1.0874027167410754 1.496681439593653
1.0496448785224144 1.499048241048855
1.0177310843167593 1.508848382050176
0.980350263027049 1.509607022301763
1.5473642515609582 2.476300440776764
1.5039111787373587 2.5029285180501675
1.4450000000000003 2.5028134169370277
1.386555513904524 2.5014123624186717
1.2675732195219054 2.383958500719103
1.2076147293071948 2.3700773543410585
1.2230554995415261 2.507635389174676
1.1706525850217375 2.5104725700915203
1.1225931348892089 2.521385463093578
1.0706032920606101 2.522183298459687
1.0189299340912812 2.5219400844216615
0.9747608227632165 2.539338760072389
0.9234543869793059 2.5371700761219524
0.8725226539451801 2.533989782606169
0.8250753749811097 2.53932089850806
0.7777087345624798 2.543770650861674
0.7304389929150478 2.547343494236545
0.6806940886196295 2.5403849231402496
0.636254585427126 2.5518777601058704
0.5916212729243653 2.5625932703851686
0.5447286299425292 2.562746713922571
0.4980114779327822 2.562046948798403
0.4514852619340191 2.560500157831741
0.40672960910460043 2.5679896855473583
0.3604583314865695 2.5647942980406673
0.31442290598528055 2.5607690712346107
0.27072871986322244 2.5758117090038275
0.22486181628895857 2.5701823210767034
0.1799717022598431 2.5737152496703466
0.13502676710679543 2.5764641996668005
0.09004070149245279 2.578428333709267
0.04520173267256452 2.5896055304550534
