# .PCD v0.7 - Point Cloud Data file format
VERSION 0.7
FIELDS x y
SIZE 4 4
TYPE F F
COUNT 1 1
WIDTH 180
HEIGHT 1
VIEWPOINT 0 0 0 1 0 0 0
POINTS 180
DATA ascii
3.5514757175273243e-16 -5.8
0.015532641729182404 -0.8898644486891882
0.031409547032250976 -0.8994517443171862
0.30564198445879276 -5.831996482966711
0.4115631950903389 -5.885627896532963
0.5177051119210907 -5.917396506664969
0.5100989007461488 -4.853266849397174
0.5569428993615241 -4.535935913000841
0.5984443341282815 -4.258152695588753
0.6351239280633375 -4.010014662816259
0.6702819657943514 -3.801357926627123
0.6983609230781544 -3.5927554914184503
0.7276909178621573 -3.42351660256832
0.7535860320519483 -3.264139717030538
0.7765692848749333 -3.1146492813459488
0.7971626589157639 -2.9750515449703303
0.8213993203346575 -2.8645598538961905
0.8361830755070271 -2.7350316020542813
0.8497967345311055 -2.615405419811672
0.866011290856037 -2.5150794110941828
0.8789917683469688 -2.415010035419784
0.8959198738632503 -2.3339510662430043
0.9065479560665074 -2.243784928051625
0.9182181519497933 -2.163186405613235
0.9314269126435829 -2.092019098001556
0.9382125410643528 -2.012003287221363
0.951265388532298 -1.9503830804691924
0.9624598594478394 -1.8889338312793398
0.971806134966794 -1.8277015172179785
0.9793154328976009 -1.7667318084215795
0.9900000000000002 -1.7147302994931883
0.9940234845764049 -1.6543328903550765
1.0068466020430893 -1.6112913826972095
1.0130286051279507 -1.5599272563784885
1.0233230133514666 -1.5171387577757265
1.0267018210683725 -1.4662821592772954
1.0345020440347528 -1.4238699100999075
1.047158140284564 -1.3896257874822895
1.0466245080536192 -1.3396182811314272
1.0509650530532286 -1.2978337556331412
1.0605995559827899 -1.2639733311463137
1.069376217254527 -1.2301766157631182
1.0706089701741732 -1.1890317207638308
1.0775574088987476 -1.1555388485582894
1.076720474211446 -1.1149766905249092
1.0889444430272832 -1.0889444430272832
1.0933964965147498 -1.0558807230976759
1.0970305524287558 -1.0229975400937477
1.1072857899613173 -0.9970046034746988
1.101875987125247 -0.9578461823261406
1.110764442522518 -0.9320420340454819
1.1113187248834682 -0.8999281592012676
1.118975270121545 -0.8742392949624347
1.1180897140662098 -0.8425410324128675
1.1245336221811768 -0.8170215006865376
1.1304298211188086 -0.7915354821644435
1.1357814744004073 -0.7660942777549231
1.1405919724057767 -0.7407090876204367
1.144864929811175 -0.7153910067148267
1.1314608369267882 -0.6798502588812715
0.9353074360871939 -0.5399999999999999
0.9445892837105475 -0.523594389866044
0.9359244484304626 -0.49763985655304427
0.9355568503977864 -0.4766900247265241
0.925757867688142 -0.45152228119274973
0.9334970206477494 -0.43529680959292044
0.9409518213718789 -0.41893874236807416
0.9297099019869648 -0.39463843977416646
0.9271838545667874 -0.374606593415912
0.9242446222322297 -0.35478427004984725
0.9208987683701902 -0.33517974045915533
0.9360633898433237 -0.32231247291258514
0.9320353859692504 -0.30283665448744845
0.9084895181648838 -0.27775311948659986
0.9228112281007861 -0.2646118615843192
0.9466073097632869 -0.2536426642004703
0.9799986835387564 -0.2443411145556644
1.023088568024497 -0.23619860706105825
1.0857438368145245 -0.23078197680771287
1.1779526201371968 -0.22897079445185375
1.2113135362050158 -0.21358725853032431
1.2346104257439223 -0.19554308130028858
1.2972511700514573 -0.18231676225768573
2.5607690712346107 -0.3144229059852805
2.565866490050145 -0.26968343523054594
2.560220374095786 -0.22399025886148147
2.5737152496703466 -0.1799717022598433
2.5764641996668005 -0.1350267671067951
2.578428333709267 -0.0900407014924525
2.5796070535034894 -0.04502720860819146
2.59 0.0
2.5996040074066173 0.04537625673693713
2.6084100585198398 0.09108768639352753
2.6164093810569837 0.13712020535651284
2.6235934521833375 0.18345952594704953
2.6399159499431257 0.23096271828129414
2.645428241679607 0.27804571229195824
2.6500982248823295 0.32539114689174375
2.6638211049148244 0.374375641582576
2.666758519606872 0.42237305560862337
2.678677088193206 0.47232304325405056
2.6896584826465997 0.5228166473317328
2.6899059020179656 0.5717571497488381
2.6892613788072492 0.6208649099890673
2.69742211904727 0.6725428697670762
2.714251571872282 0.7272815167380833
2.7107579825460593 0.7772973434039376
2.7254685544946513 0.8332593584597997
2.729532201767091 0.886878773856099
4.765413621020557 1.6408634984640698
4.792432366008133 1.7443027309609103
9.01838691996297 3.4618343926076007
8.687712717290797 3.510063780307095
8.367389117882682 3.551745957967498
8.084877300137018 3.599619291220831
1.4772816928697392 0.6888677666373401
1.3122393075967838 0.640021874312053
1.247409133863715 0.6355866996353654
1.2008087262881408 0.6384813253888115
1.1457518163526084 0.6351006025227016
1.0825317547305484 0.6249999999999999
1.0286007608425347 0.618045689892065
0.9922162725030184 0.6200055391528497
0.9476977417783291 0.6154421095669804
0.9202317055360965 0.620704122852529
0.8846842078321112 0.6194625512591297
0.8332875042061959 0.6054188098612473
0.8066218651477658 0.6078331733835688
0.7801306460706546 0.6095048605724017
0.746060122998692 0.604147575407844
0.7124213321006496 0.5977924770084815
0.6867857180027226 0.5970137163813617
0.653967446420107 0.5888349335957953
0.6289641833924866 0.5865185896537487
0.604245432284467 0.5835130311855576
0.5868986283848344 0.5868986283848344
0.5626732800717879 0.5826652382743074
0.5455986880499988 0.5850829612953364
0.528613179023498 0.5870844121271415
0.5051654523226907 0.5811263767715343
0.4885185833617699 0.5821937767704233
0.4719902932873781 0.5828594710927281
0.4555894917409871 0.5831279576689742
0.44534311713251573 0.5909902774349967
0.4467167917422796 0.61485291572496
0.5448976145334937 0.7781944420745421
0.6542556970607737 0.9699739598893987
0.6263348902672812 0.9644711531372374
0.6041079612258535 0.9667748296183256
0.5871434053974619 0.9771707228004078
0.5650000000000001 0.9786087062764155
0.5429867746758976 0.9795740719961233
0.521113434692339 0.9800718280734089
0.503929454710897 0.9890172418490883
0.486591972935876 0.9976613913920755
0.4648800879147694 0.996938565740315
0.44334294095262244 0.995764548830435
0.42589693005330836 1.0033502902631601
0.4045751208891852 1.0013585629321304
0.3870373855089242 1.008266860616978
0.36596155335846564 1.005471104240922
0.34835792526915776 1.011704875891269
0.32755801403744433 1.0081199072728628
0.309914007006101 1.0136830413208175
0.29217559716601915 1.018937397694618
0.2717599973576468 1.0142221176035218
0.25401799037965106 1.0188105125897964
0.2361986070610584 1.023088568024497
0.2183072753586472 1.027054980770496
0.20034944514537217 1.0307085426200473
0.18233058655027695 1.0340481406628184
0.1658205329426448 1.046949641030846
0.1475234870176694 1.0496841528660645
0.12796281057540487 1.0421734592233882
0.11080017106371268 1.0541932090903698
0.09151352988504129 1.046004432996333
0.0732442974313315 1.0474422527728156
0.05495275405509117 1.0485610114923025
0.036644471537626136 1.0493603683700505
0.01780145456602927 1.0198446490595192
