# .PCD v0.7 - Point Cloud Data file format
VERSION 0.7
FIELDS x y
SIZE 4 4
TYPE F F
COUNT 1 1
WIDTH 147
HEIGHT 1
VIEWPOINT 0 0 0 1 0 0 0
POINTS 147
DATA ascii
3.8576374173141627e-17 -0.63
0.010995016055488667 -0.6299040479485265
0.02198668292257568 -0.6296162210220303
0.0329716524330547 -0.6291366068953815
0.043946578458798895 -0.6284653516636892
0.05403656050354818 -0.6176407128168823
0.06585293185862168 -0.6265487940820121
0.07677768634524292 -0.6253040755340329
0.08767905360484124 -0.6238688833071894
0.09698936832494318 -0.6123667711689854
0.10766187015349686 -0.610580806867569
0.11830157713345785 -0.6086088537375517
0.12890524830701072 -0.6064515124549595
0.14171916423663505 -0.6138531408146982
0.15241079422779064 -0.6112863075538778
0.16305599841458807 -0.608533270562113
0.17365153416470946 -0.6055948684411409
0.18419417397532417 -0.6024719962567123
0.1946807064562169 -0.5991656052659468
0.20510793730800875 -0.5956767026275696
0.21547269029517135 -0.5920063510951222
0.2257718082135391 -0.5881556686932371
0.23600215385202467 -0.584125828377076
0.2500679222331352 -0.5891231062095619
0.26031145156851226 -0.5846690928912646
0.27047568751404766 -0.580036983703456
0.2805575339450096 -0.5752281896314669
0.29509382483070545 -0.579154240722439
0.3051565158108291 -0.5739159353583025
0.3199743493625825 -0.5772490067120012
0.33000000000000007 -0.5715767664977295
0.3450755101897365 -0.5743020914704152
0.35504590703624733 -0.5681922244248055
0.3649081534600682 -0.561909280523434
0.37465924532540035 -0.555455173611878
0.3900319767187113 -0.5570233901165145
0.39969397155888176 -0.5501315561749643
0.4152523659749133 -0.5510585019326321
0.4248064179747042 -0.543727419988638
0.44052427373488623 -0.5440021730198795
0.45637920287744294 -0.5438915546144744
0.4723625008731653 -0.5433908977603957
0.4817740365783779 -0.5350642743437238
0.4978588028456239 -0.5338882021819944
0.507100610435068 -0.5251180542472152
0.5232590180780452 -0.5232590180780451
0.5395048502539884 -0.5209937778442479
0.5558288132305695 -0.5183187536474988
0.5647900673628197 -0.5085392608327323
0.5811263767715344 -0.5051654523226906
0.5975146656328029 -0.5013743355555006
0.6139453095510069 -0.49716310892937166
0.6382887104214447 -0.49868579501378324
0.65488111823878 -0.49348831898467954
0.6795742752749558 -0.4937396119256774
0.704470758088533 -0.4932757352618996
0.7212626881228863 -0.4864978260195497
0.7380300997919732 -0.47928235081322373
0.7632432865407833 -0.47692733780988444
0.7885939166459434 -0.4738350289172498
0.8140638795573724 -0.4699999999999999
0.8308887217824259 -0.4605691392340202
0.8564591650731591 -0.4553874159023141
0.8820964589464843 -0.44945059474215127
0.9077819867621587 -0.4427548582569682
0.942560098518116 -0.4395229922103274
0.968358185101157 -0.43114084166034816
0.9941452417286357 -0.4219896187684156
1.0291740785691341 -0.4158133186916624
1.082953294736754 -0.4157068214725483
1.108837292527372 -0.40358376912428906
1.1440774764751733 -0.3939374668931596
1.1888206453689418 -0.38627124296868426
1.233633135192316 -0.3771594990923304
1.2880906725573473 -0.3693540567947789
1.3329776402789142 -0.3571702822414786
1.3778199313119148 -0.3435290917515282
1.4518113965300006 -0.3351770709723588
1.516128781137399 -0.32226312076752694
1.5706034935162625 -0.3052943926024717
1.6544770250605094 -0.29172893848044296
1.7383314794474425 -0.27532465847080634
1.8220932464844894 -0.2560785057665204
1.9255395341841646 -0.2364265262059861
2.03876988550496 -0.21428334969868956
2.1517805478781704 -0.18825640433494165
2.2844216750949973 -0.15974232487404694
2.43665606480116 -0.12769973323278294
2.6283978750602217 -0.09178567632757755
7.408871421108859 0.12932233170027083
7.065693147025008 0.24673944168668185
7.040338220019746 0.36896849151275396
7.012875273326564 0.4903880104212009
6.953438992680384 0.608347084378654
7.021324581300009 0.7379709506696334
7.753798978246496 1.0897253805173124
6.174744611386544 1.0887740739716532
6.044952172534919 1.2848942492537525
5.2692392053563255 1.6109680930222792
5.363958751904666 1.7428558482747032
5.22469097156965 1.9016319968907178
4.259397973768857 2.3610228505996615
3.1999686201445536 2.781690282919751
3.166761528011008 2.9530528990706184
3.153696244092002 3.1536962440920018
2.9241007497882108 3.247542887336213
2.8013720537894664 3.2226099075512358
2.7125637128771958 3.232707549962087
2.8571145753662623 3.5282426650146475
2.7273803356926662 3.4908876384777776
2.6178953507114096 3.4740644687057234
2.5039651747659355 3.446412396037276
2.403285268310883 3.432247065570876
2.3150586203688914 3.4322155503778724
2.2765911663628136 3.505642974011872
2.257456065633453 3.612684889626375
2.2352652451096358 3.720106085047167
2.1450000000000005 3.7152489822352415
1.9149979999730318 3.454747843200613
1.8731915355157047 3.5229608955071186
1.8568211439347466 3.644216683930424
1.9902050064224117 4.080524970198218
1.9482701866246246 4.178078898238956
1.9319990546100518 4.339340923802354
1.8950459731729774 4.464448539244335
2.3712597363227244 5.869073799407764
2.318640633558092 6.040265359436895
2.2881147588487245 6.286543633057727
1.5041248735920643 4.368295819268844
1.4307486839560066 4.4033916704465605
1.98812759211461 6.502872340548641
1.8522830310902343 6.459678596705503
1.7263230308338133 6.442725261348086
1.4466929356860128 5.802368443130459
1.3339597522591202 5.7780144841764445
1.228758092732957 5.780852320336792
1.163934871796924 5.98792581903075
1.1165577823983626 6.332313851868498
0.930785066989374 5.87674562654107
0.882357460086815 6.2782995558215555
0.5922850089490168 4.823774296976826
0.5111441853788253 4.863212068350856
0.427063139463526 4.881354020649553
0.34320185082109617 4.908015127278335
0.25801626427771374 4.923243606340049
0.21532989465443167 6.166241402707821
0.027051229977789578 1.5497639274924064
