# .PCD v0.7 - Point Cloud Data file format
VERSION 0.7
FIELDS x y
SIZE 4 4
TYPE F F
COUNT 1 1
WIDTH 164
HEIGHT 1
VIEWPOINT 0 0 0 1 0 0 0
POINTS 164
DATA ascii
0.04955728531755153 -1.419134974367116
0.625778232928187 -7.152677932298733
0.7431973738330161 -7.071050676068423
0.4960082276589503 -4.039662837180181
0.5316412456674501 -3.7828240225927985
0.5897579332016706 -3.7235850440436695
0.6546536298043276 -3.712725228856024
0.7193499125695744 -3.700734481597693
0.7838270743829523 -3.6876164547664474
0.8345684116157397 -3.6149129403532227
0.8878533568507804 -3.560985315432907
0.9705714191344528 -3.6222218485840063
1.0474219521045969 -3.6527944445656115
2.0933814058147955 -6.847142052695334
1.4152978342372593 -4.355838844631803
2.552454330944109 -7.412865632698643
2.3086359674482644 -6.342925190304881
3.4116628796712574 -8.88768566025336
3.5250480440437335 -8.724800071473469
3.184458697187581 -7.502114555637389
3.7216402841435734 -8.358940937429798
3.8204690861359225 -8.193022394811315
3.9190380522943524 -8.035218773914552
1.4119104541899907 -2.771030290225824
4.112570890004404 -7.734620913444199
4.208147503738206 -7.591699057969954
1.627520316715772 -2.708648670218675
1.738135186684912 -2.7815977553930775
1.785272012079623 -1.8487032868703333
1.9162593770155438 -1.9162593770155436
2.0141514409482233 -1.9450434372851921
2.0624174385660607 -1.9232353753762457
2.080805511336704 -1.873565697804803
2.105639728821534 -1.8304046908835154
2.114282663008379 -1.7740938027348483
2.1449228536212392 -1.7369242792975514
2.1670295724184854 -1.6930690571455602
2.1882612975295825 -1.6489731634366125
2.2005262246998574 -1.598775886235527
2.228093560466058 -1.5601279068748453
2.246691821624163 -1.5154127684057237
2.264410533452645 -1.470525394540573
2.2812493786607857 -1.4254828207873211
2.2972083658816613 -1.3803020407589452
2.3036275740666072 -1.3299999999999998
2.3177422239193985 -1.2847454936527931
2.322152169218978 -1.2347102101268927
2.334437093373524 -1.1894551093176124
2.3548404013038176 -1.1485324045873828
2.383589479906389 -1.1114860283780394
2.3934890990236144 -1.0656500048585964
2.411722716045394 -1.0237155566418972
2.438493537510651 -0.9852153406838485
2.445980717422669 -0.9389240278086868
2.46199466645908 -0.8960927755132521
2.467803482314217 -0.849732883133179
2.482257507530351 -0.8065343553186126
2.495955413063523 -0.7630901493263428
2.537730877277162 -0.7276826193568778
2.5403849231402496 -0.6806940886196295
2.5518777601058704 -0.6362545854271261
2.572336971033021 -0.5938707834678035
2.592091141944585 -0.5509659806670621
2.6209445798052626 -0.5094600176553746
2.6392847780727178 -0.4653771161473733
2.6568816362009207 -0.42080871095822103
2.6836264662896556 -0.37715910360177735
2.6898000709479826 -0.3302659206279497
2.7150447743553863 -0.2853627047206939
2.709649578809548 -0.23706362027363023
2.72334985720932 -0.19043517332146206
2.746231220575078 -0.14392387966809553
2.7683125908428954 -0.09667160586592768
2.7795765925347675 -0.048517689895648156
2.79 0.0
2.8095720233894594 0.04904126208876667
2.848263857004423 0.09946356560212777
2.8460941740505357 0.1491574752923899
2.8630088242456955 0.20020107964563963
2.8790026774851447 0.2518800965407321
2.8841134965679927 0.303132543476195
4.218321144475619 0.5179447094718768
4.753286729959537 0.6680308846083141
5.610069774580382 0.8885477614285113
3.328650205181263 0.5869308405142245
3.3375324237220574 0.6487505842802523
3.306138890480263 0.7027415149640265
3.283627118326243 0.758085053138825
3.570688272695667 0.8902725758067773
3.5546070407437718 0.9524540859772763
3.547055658012397 1.017101842964727
3.528764549503601 1.0788515904268985
3.5093985451291165 1.1402727092435558
3.4984187297174727 1.2046021714914799
3.7775643355593513 1.374920976169188
3.4355759695097023 1.318794054326705
3.467667616079785 1.401028659375511
3.7372497050169073 1.586368381666451
3.699859103452533 1.6472834044569906
3.4530326686096364 1.610175577232065
4.46700641010686 2.1787045995417147
6.174675212625389 3.146154163195059
5.889260444369043 3.1313753237818918
5.265210636979162 2.918553913882949
5.118210136366033 2.9549999999999996
4.954426998058209 2.9769200729801133
4.816913186168499 3.0099414208446036
4.839129177045097 3.1425672320367055
4.858160175172545 3.2768704143385765
5.95523536198097 4.169900692272105
5.922004398824615 4.302588046780904
5.885943709048548 4.435376720630596
5.783998931473339 4.518955228890332
5.346764214823959 4.329724290422882
5.193781324346671 4.358099993674736
5.116930953910394 4.448080216555639
5.105404951029699 4.596927265685356
5.009772856091318 4.671688766428114
4.977831418343466 4.807035923576261
4.970960671741429 4.9709606717414285
5.473907959216899 5.66839762666857
5.435526929698113 5.8288890019047885
4.777592529402248 5.3060540539085945
5.228790461054344 6.015035354375492
4.2873933566092175 5.109516435603584
4.3360174943333805 5.354535674438528
5.0237976386573715 6.430167749430851
5.019137293088082 6.660620153794422
4.6023585254500645 6.3346030659558386
4.22725833590721 6.03715056640987
4.1603952018223564 6.168039539809511
4.101131933663155 6.315189376629043
3.5292622997931447 5.648000320401798
2.147708772374927 3.5743876439278077
2.0600000000000005 3.568024663591887
1.9828713468075188 3.5771946022001284
1.901359829282858 3.5759377510786536
1.8114220939607921 3.5551160315115875
1.6745777807342759 3.433393256862818
1.5974970293798438 3.4258434349985367
1.5130603122419775 3.3983891024304755
1.4769636656894545 3.4795083460502245
1.4497275165195802 3.588201517173467
1.4191370801993886 3.696978488928919
1.3886017819022154 3.8151520403907875
1.3576192040863437 3.9428124602491508
1.3195025659810256 4.0610113245803054
1.2864355007800419 4.207740926237356
1.2513935954091762 4.364128099559967
1.2138613215308223 4.530192125295731
1.1684827557463948 4.686528357913063
1.1247552717193257 4.871850323926176
1.0749034415278151 5.057023095793776
1.0227362152182808 5.261521703279479
0.965483867828133 5.4755311067478765
0.9088842418837416 5.73846925885775
0.8406055297987954 5.981219135199085
0.7665581700183777 6.243115293823915
0.6888425729338362 6.553899290476921
0.6039892972412724 6.903629257775797
0.5078271288572317 7.262266285891521
0.4019401439458096 7.669474826915127
0.2840819031583588 8.13504133193544
0.16091118735175478 9.218595749341928
