# .PCD v0.7 - Point Cloud Data file format
VERSION 0.7
FIELDS x y
SIZE 4 4
TYPE F F
COUNT 1 1
WIDTH 174
HEIGHT 1
VIEWPOINT 0 0 0 1 0 0 0
POINTS 174
DATA ascii
8.450062914116737e-17 -1.38
0.024084320883451363 -1.3797898193158198
0.048161305449451484 -1.379159341286352
0.0711769004904038 -1.3581361672662204
0.09347367481712782 -1.3367358273481644
0.11591713785438562 -1.3249389484620215
0.13693228688062603 -1.302823682932438
0.15843014642669173 -1.2903099971337186
0.1781415692288838 -1.26754312798921
0.19867177060109328 -1.2543641925558249
0.21879670386033231 -1.2408577687953821
0.23851124422068115 -1.22703397930958
0.25781049661402144 -1.212903024909919
0.27668979684295414 -1.1984751796858393
0.29514471263159453 -1.1837607860567156
0.3131710445740501 -1.1687702498097727
0.330764826980399 -1.1535140351259827
0.34792232862005673 -1.1380026595960122
0.364640053362438 -1.1222466892282812
0.384170422259445 -1.1157119192071936
0.4001635676910325 -1.0994403663195127
0.41570682147254817 -1.082953294736754
0.4345436483624581 -1.0755332712974732
0.45324810904755747 -1.0677856300048307
0.4677471395371704 -1.050577276288991
0.48601100100180433 -1.0422539550921472
0.49974310733954824 -1.0246252127810502
0.5175491697030834 -1.0157474375747393
0.5351975815759156 -1.0065602558591766
0.5478348708783609 -0.9883202690675171
0.5650000000000001 -0.9786087062764155
0.5819930246483614 -0.9685990497933867
0.5988087685835215 -0.9582943486567613
0.6154421095669806 -0.947697741778329
0.6262960518872365 -0.9285220812616468
0.6424056087131716 -0.9174502896036709
0.6641973350904946 -0.9141892036436905
0.6740328259302941 -0.8944717712529681
0.6956974671179939 -0.8904521515755957
0.704838837975818 -0.8704034768318074
0.7199221228489242 -0.8579697762932554
0.7347861124693683 -0.8452747298495046
0.7427349730583327 -0.8248907562799077
0.7638381632699983 -0.819116145813471
0.7780173749140771 -0.8056605763792893
0.7990306627407987 -0.7990306627407986
0.8128539743826758 -0.7849639586186669
0.8337432198458542 -0.7774781304712481
0.8471851010442294 -0.7628088912490983
0.86036892145396 -0.7479072930491782
0.8732906651556349 -0.7327778750426547
0.8937178556755163 -0.723718449707313
0.9062123666477301 -0.708010696624507
0.9264171916548596 -0.6981054268563759
0.938459713474939 -0.6818308926592688
0.9584078918181204 -0.6710844305307239
0.9782643356149492 -0.6598476260954812
0.9980179758550546 -0.648120451667882
1.009177234426147 -0.6306039244375138
1.0200290878355136 -0.6128953091429644
1.0478907385791707 -0.6049999999999999
1.0670360427100627 -0.5914677367005312
1.0860255392164802 -0.5774500222266457
1.1048480899935762 -0.562948219677038
1.1234925578739587 -0.5479639334863468
1.1510108895365454 -0.5367251924106883
1.1602027312061032 -0.5165555367062662
1.1782462124191238 -0.5001358444662704
1.1960671723911558 -0.48324250550652653
1.2229903587113344 -0.4694620139043434
1.2497911856452584 -0.4548867906231394
1.2764500770590779 -0.4395170085171616
1.293436862161409 -0.42026311234992847
1.3197005632289889 -0.40347295251737664
1.3361537573542632 -0.3831359245856288
1.3619554150675863 -0.36493485359455424
1.3875228885746749 -0.34594831070752485
1.412836593938591 -0.3261790287986042
1.4280954970713562 -0.3035510685939286
1.4233594159991128 -0.27667304329598996
1.3984270092773352 -0.24658041228704106
1.3926405602391443 -0.22057259570672552
1.3863752962381983 -0.1948423413440916
1.399490073814264 -0.17183577420125792
1.4321115293303135 -0.15052098710542097
1.464406206194866 -0.1281189418390575
1.5362486374001294 -0.10742496956595297
1.567848369564681 -0.0821674513014218
1.5890314149603624 -0.05549019975697654
1.6297517431049178 -0.02844742249277212
1.66 0.0
1.709739558717429 0.029843615007754804
1.7489339472834176 0.061074119229376694
1.797533162558233 0.0942047212372989
1.8255422119754783 0.12765434695174932
1.8728460324124816 0.16385279636559735
1.92937247701445 0.2027852187392477
1.985092303282644 0.24373868681029495
2.039952221607635 0.2866965879777348
2.1037761654676435 0.33320541053569175
2.1567289790967354 0.3802895090905774
2.2282937064261974 0.43313641950475673
2.3084283377317814 0.490671590329912
2.3872066587238265 0.5511300831424693
2.454848187478271 0.6120623958671593
2.5500441814031403 0.6832822790706548
2.65308228078976 0.7607591020549176
2.744594649613912 0.8391067925542544
2.8531695488854605 0.9270509831248421
2.9878386988938415 1.0287953680846151
3.138573353424934 1.1423472787077336
3.295538905535122 1.2650388618949098
3.467667616079785 1.401028659375511
3.6820194138097615 1.5629245139570949
3.9282454678631837 1.7489675652259407
4.223394287590789 1.9694010997116596
4.287247600847026 2.091030370183899
4.223370924652864 2.1519149687654515
4.176342114222725 2.2206004919772635
4.136951214769343 2.2931495037651746
5.5252420761447185 3.1899999999999995
6.523043158343075 3.9194397500655125
8.268468937525153 5.166712826273748
8.16865133178843 5.304784201046363
6.358168877887518 5.3351371603982765
4.573540056149998 3.9757177156824737
4.280514194749791 3.8541922926270233
4.212597321326422 3.928310553959991
4.1577840459574045 4.0151253812530046
4.09414826307011 4.09414826307011
4.0359651323667745 4.179364239967563
3.9692304555637414 4.256478543423572
3.9144140471993203 4.347397229042756
3.8445059098843735 4.4225981401054435
3.7795911449568513 4.504341325539591
3.71928351110454 4.592932632210697
3.6508725486811535 4.672903768887861
2.6359498014059715 3.4980235340071424
2.421675239444989 3.3331500168247836
2.2254765730420587 3.178309931841288
2.0746056718764705 3.0757293941792048
1.9280221839531964 2.968893810526801
1.7858279204659007 2.8579220840471558
1.6635729819594756 2.7686503812678223
1.5500000000000005 2.68467875173176
1.4398845721316214 2.5976205302040056
1.3426886695676479 2.5252301155765307
1.2530137792811493 2.459178006759895
1.1704509619268368 2.399780103618776
1.0861289326735974 2.32921101268419
1.004639508397227 2.2564572803772243
0.9416620196591498 2.2184166968203813
0.8803254945273936 2.17888205823195
0.8170789249632843 2.1285633724136197
0.7592847181829848 2.0861176181447165
0.699971532082887 2.032864937538531
0.6458455182436401 1.9877081190568708
0.5993619946816103 1.9604247497242224
0.5512747116339983 1.9225233918766378
0.5046971379499154 1.883555361263683
0.4596516016393686 1.8435618799243931
0.4184089610795892 1.8123283205005376
0.3783992772883218 1.7802286333355264
0.33964001177024994 1.7472963865368418
0.3038843109171282 1.723413567771364
0.26750293521879487 1.6889470624176857
0.23381080961290998 1.6636503554858382
0.20108441661849336 1.637701150208181
0.17142667975895165 1.6310159084039682
0.1394491883962534 1.593911516946793
0.10951766377827662 1.566175558907924
0.08112073217656315 1.5478757788695894
0.053745224921851666 1.5390618736094075
0.026353133720298235 1.5097700196861508
