# .PCD v0.7 - Point Cloud Data file format
VERSION 0.7
FIELDS x y
SIZE 4 4
TYPE F F
COUNT 1 1
WIDTH 162
HEIGHT 1
VIEWPOINT 0 0 0 1 0 0 0
POINTS 162
DATA ascii
1.5736711369043487e-16 -2.57
0.046248877058801534 -2.6495963921644368
0.09422864109675293 -2.6983552329515588
0.14601731791781367 -2.786176401965261
0.20020107964563943 -2.8630088242456955
0.2579809985330687 -2.9487363063515666
0.31881181296634303 -3.0332917808732334
0.3863258185943175 -3.1463713007029908
0.4564877711490147 -3.2480792654723505
0.5334415257871875 -3.36801724142942
0.6129780671642643 -3.476371368133094
0.7098094628007471 -3.6516531224253104
0.8170929449137938 -3.8441200708838563
0.935796386070479 -4.053379469506579
1.0765524354185212 -4.3178159819281845
1.2423314164920995 -4.636443966187528
1.4360706238065657 -5.008173435838642
1.6986796044391006 -5.556130632145235
4.6250837771500555 -8.343872006109835
4.635000000000001 -8.028055493081746
4.06880079178943 -6.771621675546687
3.857812243617732 -6.173790140018782
3.665420705651133 -5.644252922272703
3.4949556466921674 -5.181484828469011
3.372629445744151 -4.816614020419272
3.2504524451773764 -4.473863978893459
3.1354562706221714 -4.160891007346396
3.0475243028620085 -3.9006532303532735
2.9766854496657316 -3.675900397691472
2.886116367492562 -3.4395395496042114
2.8079326440793717 -3.230157003353464
2.73674418000773 -3.039462336202542
2.673433571444994 -2.8669065103471483
2.62580864033501 -2.719104445280101
2.5667976157071677 -2.5667976157071672
2.5176893011852792 -2.4313042966064904
2.57436502969948 -2.4006342274199945
2.6530270269542973 -2.388796264701124
2.716954488801979 -2.3618125043658265
4.9563075469797875 -4.158835834671909
5.05144874947031 -4.090582541823943
4.972347855258415 -3.8848239093049037
4.9195947418913235 -3.7071805426166176
4.846011796305936 -3.520833661231914
4.841188581747942 -3.389836738834682
4.974225435330251 -3.3551574208244808
5.08234364174927 -3.3005125521910634
5.198534829438891 -3.248405089749546
5.005857036100336 -3.007822357474716
5.464620297879808 -3.1549999999999994
4.99407852776595 -2.7682629316065848
5.571399310939829 -2.962365561178971
5.76481221149874 -2.9373185333148673
7.010593561133502 -3.4192949449548036
7.187020751200634 -3.3513628156037463
7.381447297752215 -3.2864320760524652
6.066126984251582 -2.574918136744314
7.408198997988632 -2.993106681393137
6.1056159892916995 -2.343726390026264
7.273220884882932 -2.647235909340676
7.233217103334774 -2.490596381597249
7.180476698028409 -2.3330783075308528
7.124470431924615 -2.1781692001843886
7.065273465146643 -2.0259345652549436
7.022280757121527 -1.8816144578953258
6.151674904589817 -1.5337848181018934
6.0898129049077205 -1.4059440896491562
6.064515124549596 -1.2890524830701078
5.251705431445002 -1.0208281252645146
6.312617696808253 -1.1130848188450235
6.538496814739812 -1.0355961585663285
6.7239201867552625 -0.9449853555188443
6.709611985095337 -0.8238367614187969
6.69313235582848 -0.7034765577913078
6.624694742310108 -0.5795856892719269
6.5938983722174385 -0.46109029144866825
6.551009747990004 -0.3433238729537115
6.506034283894313 -0.2271957235332813
6.429020679855595 -0.11221897339173298
6.39 0.0
6.3290359103399565 0.11047373274800464
6.3061561184904935 0.2202158241927811
6.261407182911178 0.3281464456432578
5.586358681455015 0.3906362529671017
5.568728362332857 0.4872006019594091
5.638939146738109 0.592676386727595
6.094233371077717 0.7482777685076054
5.060269831269425 0.7111745459059344
3.634693093390107 0.5756788313480496
3.6043963760246815 0.635552330260965
3.2491859772117677 0.6315777746963633
3.2376685584288967 0.6881876966067834
3.2154212137912763 0.7423384793347544
3.1922729394480283 0.7959230365229069
1.5165035472738373 0.40634590081095756
1.5091808626231606 0.4327506486326887
1.4918354193023355 0.4560998593674693
1.4836481654204396 0.48206651122491795
1.4655537921789412 0.5046306394085929
1.4659204884260173 0.5335514235880432
1.4563854653356347 0.5590540012906684
1.4278631360328526 0.5768941538605045
1.4267825228512827 0.6056332491583742
3.7455363763346634 1.6676202366107804
2.9908156972209445 1.394640263744308
2.543587151026643 1.240590345413089
2.191876049503385 1.116816629359285
1.8718488968609253 0.9952797131060885
1.6355388523506702 0.9065939898606503
1.0565509926170151 0.6099999999999999
1.0200290878355136 0.6128953091429644
0.9922162725030184 0.6200055391528497
0.9728578588166918 0.6317812806174312
0.9616835841638484 0.6486637680260663
0.9420248509323405 0.6596129018037029
0.9303695435311895 0.675953040136344
0.9104444814539138 0.686069126393335
0.8983322591116629 0.7018540818712504
0.901489315290086 0.7300116536178115
0.8886115540180144 0.7456336272363855
0.8754631130584155 0.7610284736289884
0.8694794458085512 0.7828828094398641
0.8483702938782377 0.7911180976724982
0.8200473723860623 0.7919105423232567
0.8131727983645296 0.8131727983645295
0.8058037097324369 0.8344341683928352
0.7911180976724982 0.8483702938782377
0.7828828094398641 0.8694794458085512
0.7675890639188936 0.8830102088606431
0.7649172555269818 0.9115928873115838
0.755184469259805 0.9325751537483649
0.7449503851440465 0.9534930118641335
0.7342143282454988 0.9743353222576973
0.7229758603197419 0.9950909030811853
0.6997632523482762 0.99936549403257
0.6878072712690185 1.0197162142427014
0.6753524034186337 1.0399515042523257
0.6623990802915061 1.0600601201955326
0.6437975936375679 1.0714591258776403
0.6300000000000001 1.0911920087683926
0.6157082177128481 1.1107670280670325
0.6009236003659403 1.1301729188594265
0.5901876496614109 1.158308481444878
0.5654987793579099 1.1594443197259254
0.5451775576455022 1.1691370452772785
0.5328250024292985 1.1967445495118072
0.5196724008907341 1.2242714550917457
0.5057189011114814 1.251698203665163
0.48379673188615524 1.2603335757712224
0.46514739492290963 1.2779819642688355
0.4330056454280185 1.2575397055470914
0.4202631123499286 1.293436862161409
0.40932038661183145 1.3388266583482495
0.3886486717019688 1.3553789912730296
0.36493485359455424 1.3619554150675863
0.34594831070752474 1.3875228885746749
0.3239295182551658 1.4030928932907387
0.30147195168575086 1.4183140210640182
0.28239731315728644 1.4528082315025426
0.2587357847237263 1.46736355198819
0.2362160422107487 1.491409394298658
0.21154311345929952 1.505207464487187
