# .PCD v0.7 - Point Cloud Data file format
VERSION 0.7
FIELDS x y
SIZE 4 4
TYPE F F
COUNT 1 1
WIDTH 166
HEIGHT 1
VIEWPOINT 0 0 0 1 0 0 0
POINTS 166
DATA ascii
3.4290110376125894e-17 -0.56
0.00959882354050598 -0.5499162323360153
0.019194723186375596 -0.5496649548605027
0.028784775933619184 -0.5492462441150157
0.03836606055926888 -0.5486602276429033
0.0479356585112121 -0.5479070839504601
0.057490654797209405 -0.5469870424525504
0.06580944543877965 -0.5359749218863139
0.07654520552803601 -0.5446474378078637
0.0844746111217247 -0.5333517039213744
0.09377001594014243 -0.5317961866265923
0.10303685750333426 -0.5300786790617386
0.11227231304159 -0.5281997043962551
0.11922405880224853 -0.5164161343361747
0.12821860466782387 -0.5142567349262781
0.137174093904336 -0.5119406879332062
0.14608779858300958 -0.509468698847309
0.1549570035030505 -0.5068415206604088
0.16377900701872217 -0.5040599536364314
0.1725511218622931 -0.5011248450676379
0.1778504745293478 -0.48864016280867234
0.1863513337635561 -0.4854618217785449
0.19479542857627435 -0.4821356043747294
0.20318018681442235 -0.478662523795269
0.21557042083017422 -0.4841790925505785
0.22398767872257072 -0.4803431271294245
0.2279529963303203 -0.46737290407556686
0.23607505986456437 -0.46332339257795124
0.24881992827652216 -0.46796222421523126
0.25694909873055866 -0.46354844478387974
0.26500000000000007 -0.45899346400575247
0.26781979895322827 -0.4457269963650984
0.2808572100435986 -0.44946549096290583
0.2941050789081147 -0.452882106690529
0.30196416787420327 -0.4476802891797226
0.3097312756295649 -0.4423421039160556
0.3174040362379355 -0.43686917696247163
0.32498011250210607 -0.43126317542553816
0.33861381142911207 -0.4334059144836971
0.3398330111669123 -0.41965881918676423
0.3471053092307313 -0.41366399928424813
0.3608324659447791 -0.41509026912252456
0.36802183349737205 -0.4087296540125669
0.3750990980343742 -0.40224453589054376
0.38900868745703854 -0.40283028818964467
0.39597979746446665 -0.3959797974644666
0.41002368619303114 -0.3959552711616284
0.42418514693911885 -0.3955590488362491
0.43102399877688863 -0.38809575168813776
0.4452786523314355 -0.3870748271043993
0.4596266658713868 -0.38567256581192355
0.4740590364887522 -0.38388543854040086
0.4885666672361676 -0.38171011470190813
0.49515401622932154 -0.37312531435426993
0.5096807064562169 -0.3703047089442581
0.5242573083449548 -0.36708891926466947
0.5471647978863275 -0.3690673162906929
0.5535225748439799 -0.35946176310991784
0.5681922244248054 -0.35504590703624733
0.5828737644774364 -0.3502258909388368
0.5975575286112627 -0.3449999999999999
0.612233794997577 -0.3393667341724359
0.6268927909298382 -0.33332480957798244
0.6504347626575085 -0.3314130648098691
0.6651075942613836 -0.32439464862391726
0.6797308402774874 -0.31696369630552457
0.7034300023848027 -0.3131872151683661
0.7271988342274279 -0.30867759150652624
0.74174708365343 -0.2996852747327296
0.7655359497277053 -0.2938617186271462
0.7987387276680221 -0.2907171218268184
0.8131459750154125 -0.27998861283315474
0.8369297343397352 -0.2719349550499537
0.8702373279263623 -0.2660582512976904
0.9035859941820197 -0.2590991144679792
0.9369480515003963 -0.2510544737494451
0.9702957262759965 -0.24192189559966773
0.9938574660809399 -0.22945007543074228
1.036836456777834 -0.22038639226682488
1.0797899017924304 -0.2098898949141993
1.122680838433917 -0.19795892254030056
1.1555953584963112 -0.1830283240970701
1.2180297245521314 -0.1711829141808805
1.270459074100892 -0.15599275955858877
1.3326593397934863 -0.14006814077865565
1.3946725773284436 -0.12201803984672142
1.4564435133793432 -0.10184445166642293
1.527903188174498 -0.08007401305170406
1.6190131397709353 -0.056537184658051576
1.7197380356689929 -0.03001813907212764
1.84 0.0
1.9996953903127825 0.03490481287456702
2.1886659111718196 0.07642989777847713
2.476601246191343 0.1297931714825007
2.9029113862560885 0.20299133859540464
3.636110648034871 0.3181184610289523
5.09195210428556 0.5351857319303858
5.081836296403568 0.6239710382343551
5.07017251195684 0.7125662769155351
4.73102715145071 0.7493210875427059
4.667988749277867 0.8230923621412498
5.0750125384244225 0.9864825060967366
5.076586047808452 1.0790616753441709
5.076468037531075 1.1719949931315365
8.33502527658827 4.431811552698809
7.29432835754256 4.043312232854451
6.8156199277835325 3.9349999999999996
6.737334983518603 4.0481992687930255
5.452949258285819 3.4073808690195073
4.981703173595819 3.2351558679892602
4.57628740050383 3.086744827158522
4.194058466759638 2.9367113541173557
3.8832815729997474 2.821369211003871
3.6178188605142365 2.7262220548787788
3.412086563117106 2.6658141881601005
3.1629840631298713 2.561333991572839
2.964591994870445 2.487588049486907
2.7848783510220287 2.420857816974972
2.615869785680428 2.3553397343831812
2.4646619744566047 2.29833447341062
2.3378543511006162 2.257639703991741
2.2061731573020285 2.206173157302028
2.097868278786172 2.172406197022726
1.9777952441812454 2.1209257346955943
1.873565697804803 2.080805511336704
1.777919968564275 2.045262962403712
1.6841035373787332 2.0070364409717225
1.5984737932665873 1.9739507421007059
1.5206838440543762 1.9463865614086033
1.4383379053333953 1.90873886901303
1.3695396378414624 1.8850095968936276
1.3020185105168744 1.8594751405360115
1.2358163166703504 1.832173035346642
1.181866705982609 1.8199151324415699
1.1181296475320623 1.789381482890059
1.0764295765620135 1.7914796584674144
1.0300000000000002 1.7840123317959435
1.0374925873271614 1.871686173278307
1.0187532912453832 1.9159962765038712
0.9987790994270032 1.9602143532144094
0.9863350802754243 2.022286604173126
1.0142838281776787 2.1751386888879596
0.9924374091049529 2.229050916647946
0.9690131986533989 2.282852036562052
0.28470101099609324 0.7046597294707584
0.26877596215897515 0.7001853198729013
0.24967470462773825 0.685975613173713
0.23440907120915286 0.680773374431508
0.21940206600621268 0.675250126569559
0.20466019330591573 0.6694133291741248
0.1901897755137294 0.66327057019744
0.1759969506697141 0.6568295618765665
0.16208767005177735 0.6500981366049177
0.15071720641038966 0.6528279434061076
0.1372217159397211 0.6455774164843118
0.12593393694851965 0.6478739410754583
0.11460779726017407 0.6499731169880574
0.10168240227615011 0.6419974213868396
0.0890707846144419 0.633771563994605
0.0779963797792944 0.635229537050446
0.06585293185862168 0.6265487940820121
0.05229344564859501 0.5977168188550473
0.04185388424647514 0.5985384301558945
0.03140157374576638 0.5991777208527442
0.020590703054475638 0.5896405879412665
0.010296919797997323 0.5899101401422708
