# .PCD v0.7 - Point Cloud Data file format
VERSION 0.7
FIELDS x y
SIZE 4 4
TYPE F F
COUNT 1 1
WIDTH 170
HEIGHT 1
VIEWPOINT 0 0 0 1 0 0 0
POINTS 170
DATA ascii
1.365481181049299e-16 -2.23
0.038569818226396754 -2.2096634062956246
0.07642989777847736 -2.1886659111718196
0.11461574417204728 -2.1869986811125166
0.1388153827508092 -1.98515246001705
0.17779771520522306 -2.032237184107161
0.2236909113927784 -2.128276856088105
0.5471933518891122 -4.456532220869536
1.5169315132435321 -7.803936108408929
1.713192332338336 -8.059936230046558
1.8513471772500103 -8.019065633182487
2.2837426944608628 -9.159591656045405
2.461369118924972 -9.18595460800904
3.4657851096998575 -8.164878050123145
3.6565624212514454 -8.212773664206981
2.4004717266871727 -5.147828230368171
2.1304837733949165 -4.368139065013952
1.9612389588748427 -3.849148184493749
2.046896013746484 -3.8496515048649216
2.11376994427403 -3.8133419231277657
2.1900000000000004 -3.793191268575841
2.2610171488551387 -3.7629644500822725
2.336943955268434 -3.739892104049839
1.1764203156324589 -1.811528426762116
1.1631212392191534 -1.7243981509144868
1.147152872702092 -1.6383040885779836
1.287249702520516 -1.7717472176811349
1.3300112011660266 -1.7649844772045171
1.3667684752229616 -1.7493838730069229
1.4033844720411377 -1.7330354940490449
1.4398442456978484 -1.7159395525865109
1.3317998288507298 -1.5320604478522268
1.298113376336185 -1.441700961426145
1.2685169497162472 -1.360317885011657
1.2295453157124254 -1.2732314465994123
1.2091525958289964 -1.2091525958289961
1.179717272555388 -1.1392397275527555
1.162852385574481 -1.0843773924993727
1.1444430312351872 -1.0304611337926417
1.109423082927475 -0.9644067726160457
1.149066664678467 -0.9641814145298089
1.1812618614145955 -0.956566994395753
1.2135365605543518 -0.9481186720015138
1.237885040573304 -0.9328132858856748
1.278246851112417 -0.9287006986221076
1.310643270862387 -0.9177222981616737
1.3347504918136173 -0.9003005745879024
1.3754197314304955 -0.8932080174246442
1.3992793586581027 -0.874366785984788
1.4314693921725274 -0.8601135850997904
1.4635829323957015 -0.8449999999999999
2.448935179990308 -1.3574669366897436
2.5075711637193527 -1.3332992383119298
2.583918920146267 -1.3165724492446855
2.642454496119551 -1.2888111715598876
2.7189233611099497 -1.2678547852220983
2.7863136458099325 -1.2405467613811905
2.8627700942370895 -1.2151738096016411
2.939172818976716 -1.187502901128441
3.0154647775859615 -1.15752847703132
3.110382574801357 -1.1320866744079634
3.186397599769698 -1.097164680520618
3.300166111544183 -1.0722889704810674
3.3853188361091457 -1.034995834718488
3.4989925732154807 -1.003319975173877
3.448355199851974 -0.923983991015999
3.425143913754267 -0.8539842914668271
3.390807825452619 -0.7828296691166501
3.3648277465242917 -0.7152162164130921
3.3375324237220574 -0.6487505842802523
3.318802127651141 -0.5851943587375552
3.2988790575877602 -0.522491113234371
3.277787307534598 -0.4606629641778166
3.255551377383536 -0.3997314463688837
2.088495980273374 -0.21950977286207227
1.9824274492025735 -0.17343992806783975
2.0051037410222463 -0.14021051222569184
1.9573138881189647 -0.1025784742361699
1.9787938374978096 -0.06910100347095192
1.949703005554963 -0.034032192552702845
1.91 0.0
1.9896969133612186 0.03473028881019419
2.028763378848764 0.07084597830607696
3.055806376348996 0.16014802610340811
2.174689629566417 0.15206911276219318
1.9525416082598213 0.17082525578541
1.9194272580607674 0.20173993410657118
1.9751668417662307 0.24251999337624347
1.970633456795725 0.2769544709105302
1.8371003135069564 0.29096810497482944
1.8021981880123408 0.3177761651304825
1.9141730077229446 0.3720775409842624
1.9269507734455973 0.40958603091098583
2.0559208366968464 0.4746467246655551
2.0570269397051124 0.5128744186712956
2.1250368178359507 0.5694018992255456
2.1243883480236847 0.6091585563555681
2.0943074155590478 0.6402940333427933
2.073303205523435 0.6736570477373853
2.070685680562504 0.7129942582611731
2.0579268395211394 0.7490241138832144
2.0352053297639 0.7812421300087546
2.0119889644099285 0.8128963077125291
1.9882904834572714 0.8439792375368312
1.99152909766087 0.8866858819052444
1.9666878978695304 0.9170816279773177
1.932407199543209 0.9424979655965163
1.9245740922468748 0.980619479437421
1.924825752432461 1.023448006873242
1.9241633557066709 1.0665811645419416
1.9139161423636095 1.1049999999999998
1.9114830805657106 1.1485349070494209
1.89114725442883 1.181719959240047
1.87862207219775 1.2199914384336605
1.6746558965611844 1.1295696650109086
1.6219210476922037 1.1356813439750713
1.860739087062379 1.351906080272688
1.892766158812084 1.4263016048703545
2.4270731211087035 1.8962373440030276
2.4091524805166094 1.9508932122544964
2.3900586625312115 2.0054973422220024
2.3697880818995043 2.060025351030193
2.3557690967633396 2.1211440221575804
2.333018308165154 2.17557476859937
2.301887361083684 2.2229067854687914
1.3293607486307093 1.329360748630709
1.2920645690537351 1.337972028629891
2.250594588206245 2.4134672153432626
2.221513613111409 2.4672408205849488
2.2043583374081046 2.5358241895485136
2.1790499968373687 2.5968906621733354
2.152275737390444 2.65783918818284
2.1363453193800344 2.7343973150153253
2.106352581032169 2.795224285165525
2.0866376456382794 2.8720103300310633
2.064875170863766 2.9489473594403703
2.041054097668226 3.025987139825902
1.9879324778048493 3.061147573000797
1.8918117733125415 3.027531703278441
1.79748288143609 2.991513879450372
1.7100000000000004 2.9618068809427798
1.6289603240276926 2.9387222159883697
1.5351720103098632 2.887238628648691
1.4300700741795727 2.8066705511933585
1.3896365353213755 2.8491771267683594
1.3101166113961682 2.809554139813615
1.2405467613811911 2.7863136458099325
1.1721933854678213 2.761514560357321
1.105089450576941 2.735192370972023
1.0428507331768235 2.7167190411068574
0.9781776099114128 2.6875208954476975
0.918102195569182 2.666362383190073
0.8621574143061034 2.6534476804634783
0.6344465992483388 2.075181320439787
0.5374928438431483 1.8744603070797219
0.499520757047865 1.8642368447379019
0.4596516016393686 1.8435618799243931
0.42065847162302783 1.82207202114839
0.38671574492103217 1.8193545373648787
0.3529966414466081 1.8160102893781784
0.3177761651304827 1.8021981880123408
0.283146381722818 1.7877158964771993
0.2491198507185172 1.772579843047411
0.21205265752495664 1.7270303038559003
0.18919651851445277 1.8000846306165748
0.16559591122055087 1.8927699263743165
0.13811781801336795 1.975176819514452
0.10781206986046457 2.0571768415944223
0.07538291287740234 2.158684186361247
0.0392679144838881 2.2496573141018805
