# .PCD v0.7 - Point Cloud Data file format
VERSION 0.7
FIELDS x y
SIZE 4 4
TYPE F F
COUNT 1 1
WIDTH 169
HEIGHT 1
VIEWPOINT 0 0 0 1 0 0 0
POINTS 169
DATA ascii
5.0822842164615156e-17 -0.83
0.014485497342945386 -0.8298735869798047
0.028966582263075896 -0.8294943864258495
0.04291548411921405 -0.8188762184987505
0.05720030847018269 -0.8180025212130558
0.07146770905307985 -0.8168796524352313
0.08571333987947583 -0.8155079542019841
0.09993286159222094 -0.813887844345884
0.11412194278725367 -0.8120198163680876
0.12671191668258705 -0.8000275558820616
0.14239150568688294 -0.8075423574700106
0.15646337620876682 -0.8049342904270844
0.17256670337874017 -0.8118625086090587
0.18670937510540805 -0.8087271537717452
0.19837595439172748 -0.795642495546317
0.212231616984067 -0.7920591775570359
0.22326625821176935 -0.7786219737100384
0.2368210808254168 -0.7746068523300588
0.25030376544370747 -0.7703557781990744
0.26371020511029697 -0.7658700462354466
0.27703631609379176 -0.7611510228365858
0.2938617186271461 -0.7655359497277053
0.307177406601048 -0.7602907607447655
0.3203995253612044 -0.7548139798310011
0.3335240473221563 -0.7491072752669327
0.3465469746273735 -0.7431723853700529
0.3638480518349343 -0.7459990584283086
0.37681211478382387 -0.7395354150763452
0.3943561127401483 -0.7416759780014985
0.40724008100692316 -0.7346805539970924
0.4200000000000001 -0.7274613391789284
0.43263198292444566 -0.7200205325897743
0.45043137459822413 -0.7208408817329621
0.4629431797627731 -0.7128699827536104
0.47531396795013475 -0.7046819366717855
0.4932757352618996 -0.704470758088533
0.5113731694944517 -0.7038447851062043
0.5295972203738025 -0.7027992488416177
0.5479387130398359 -0.7013295707099825
0.5600951480343553 -0.691659905696704
0.6299318574928086 -0.7507235542565984
0.6429378484106972 -0.7396153886183164
0.6624393002952697 -0.7357133772226203
0.6751783764618735 -0.7240401646029787
0.6877117867544074 -0.7121464023352646
0.7000357133746821 -0.700035713374682
0.7193398003386512 -0.6946583704589973
0.7386672386353622 -0.6888183436631234
0.7580077219869421 -0.6825132184860354
0.7698037718272275 -0.6691802095703174
0.7890257764125473 -0.6620712379771354
0.8082317999152496 -0.654493206691831
0.827411291287058 -0.6464445490919413
0.8465536406501304 -0.6379239245411712
0.8656481839811938 -0.6289302199529463
0.8764926873892213 -0.6137267868956193
0.8953605783594452 -0.6039283357484065
0.9141509190605123 -0.5936565481663795
0.9158919438489401 -0.5723128053718614
0.900025665737218 -0.5407899786555569
0.9093266739736606 -0.5249999999999999
0.9533354807819414 -0.5284424860685074
0.9712423521448198 -0.5164187190644799
0.9979273070909721 -0.5084693597082924
1.006649331855067 -0.49097568440376677
1.0241277993514144 -0.4775586357669903
1.050577276288991 -0.4677471395371701
1.0677856300048307 -0.45324810904755747
1.0848051098431413 -0.438289714296617
1.1202965117966421 -0.4300415394543603
1.137028071150949 -0.4138443734240591
1.1629878479871596 -0.40044882998230275
1.1888206453689418 -0.38627124296868426
1.214507040073055 -0.3713120649978756
1.2496402047198145 -0.35832856256209894
1.2846813489644608 -0.3442293299863526
1.3098992304725954 -0.3265945590595515
1.3348869887557724 -0.30818294445109506
1.3694066410273278 -0.291076367144863
1.4037268723301595 -0.27285686338845905
1.4378193193978237 -0.25352633939371827
1.4716556274867554 -0.233087352909944
1.5151101451746027 -0.21293484446890013
5.429227449478031 -0.6666253084261566
8.523052643306102 -0.8958089302037902
6.553995810207045 -0.4583000324989033
6.179058756066498 -0.1078558717824121
6.07 0.0
6.069075509599295 0.10593610707431092
6.126265769627057 0.21393391478633095
6.111612752697992 0.32029605220681623
6.105091987590124 0.42690961931404686
6.435417749672676 0.5630260981498717
9.756259793562762 1.0254242246556804
3.955957549294086 0.7689602513674756
3.9614977829719127 0.8420423478119252
4.026043022604379 1.2308848768827216
3.9754162381137417 1.29169103648728
3.923902088737165 1.3511078409972004
3.5708319589864517 1.2996765446375411
3.9210377912882475 1.5051453880902612
4.107424475730868 1.65950720883249
4.32637281122647 1.8364363038995866
4.366747287531632 1.9442011539023247
4.304961988424087 2.007436743268322
4.242307898532069 2.0691118128444455
1.915664027004991 0.9760795744400255
1.7747246616464432 0.9436378411996404
1.6530312464934578 0.916290182265577
1.5501854727741453 0.8949999999999999
1.457184411193591 0.875564727347092
1.3738379157734102 0.858469208057792
1.2999393803154073 0.8441905042732918
1.2269756073814617 0.8276054971367053
1.1713874233332582 0.8202143039819958
1.1083532822936781 0.8052657956406882
1.0462125181619537 0.7883776803291833
1.0007736570805368 0.7818900736635861
0.9403466133629347 0.7614776731703033
0.9115928873115838 0.7649172555269816
0.86036892145396 0.7479072930491782
0.8174593080251338 0.7360436669947441
0.7898619977487041 0.7365582288674984
0.7553067903555838 0.7293912889819472
0.7212489168102786 0.7212489168102785
0.6877117867544074 0.7121464023352646
0.6615384092606235 0.7094130905705953
0.6289827699773267 0.6985561359487505
0.6035743066712668 0.6943328138049502
0.5785088487178854 0.6894399988070802
0.553801944123857 0.6838884460821343
0.5294688687800662 0.6776892481017808
0.4995064692162 0.662867473339253
0.48786175940275267 0.6714841053312064
0.47033267780785776 0.6717046763169733
0.4473543227765975 0.6632300580440335
0.42481844731172125 0.6541630429974307
0.4080378334595678 0.6529970340404481
0.38112817543344024 0.6343038025195631
0.37000000000000005 0.6408587988004846
0.3684553113872162 0.6647109774259408
0.36149310334513596 0.6798696465013737
0.35865249479424205 0.7038951541088105
0.35069691743126197 0.7190352370393337
0.3465469746273735 0.7431723853700529
0.3375914137529143 0.7582427298433587
0.3360287705007754 0.7916341739690987
0.3296538022060027 0.8159217920187728
0.32611483408622316 0.8495581881124536
0.32149893472612867 0.8833110635387538
0.3125454282788705 0.907697832575344
0.3028366544874485 0.9320353859692504
0.29529542176996415 0.9658678035226658
0.2894192236078491 1.0093247807352348
0.2795245687107224 1.043199892392194
0.26853330411563114 1.0770282561663562
0.25869371249544487 1.1205255745030205
0.24949402898131107 1.1737771208805667
0.2366031542669157 1.2172177074751034
0.22400614919034023 1.2704020013857484
0.21118652780431177 1.333379259803436
0.19484234134409165 1.3863752962381983
0.17792924137151533 1.44911738139633
0.16201911806486285 1.5415089378208235
0.14206386067868312 1.623797357889545
0.11928357010245415 1.7058345259442993
0.09472808079972858 1.8075194579057787
0.06770502360285209 1.9388182044170457
0.03630100538954988 2.079683205925294
