# .PCD v0.7 - Point Cloud Data file format
VERSION 0.7
FIELDS x y
SIZE 4 4
TYPE F F
COUNT 1 1
WIDTH 146
HEIGHT 1
VIEWPOINT 0 0 0 1 0 0 0
POINTS 146
DATA ascii
3.563722185518798e-16 -5.82
0.10244562578685472 -5.869105970568016
0.20660502047880638 -5.9163936959530465
0.31192229920794606 -5.95183202713726
0.41923640720219263 -5.995359942061543
0.527292243623333 -6.0269779234550604
0.6418047644633922 -6.106364437561198
0.5545055124934211 -4.516084989968014
0.8656566879716071 -6.159467387572567
0.9839727851030525 -6.212559662343416
0.6668090022410128 -3.7816617715668785
0.7002690130319198 -3.602571763252927
0.3617663420229011 -1.701976825276822
0.9830361074826907 -4.2579971831114785
1.4152430892580559 -5.676229998714579
0.48236537267974855 -1.682207967892058
0.5174979173592441 -1.6926594180545727
1.6532409199059688 -5.088152362179071
1.7059771293555015 -4.95451733614042
1.0842038543423702 -2.9788256078913293
1.1324427205631487 -2.9501141477311577
0.7754356483709381 -1.9192705789532496
0.7853695682634401 -1.850214755439405
0.7158564918134087 -1.6078400054509776
0.748034323281038 -1.6041647830548704
1.3282645747709045 -2.723345960286476
1.0214786244139804 -2.0047646794238276
1.0469215850125366 -1.968973132075407
2.4376286154727422 -3.9010212423195596
2.4835539996685236 -3.824337789831133
2.533143852722483 -3.755540203674339
2.5466793773986445 -3.637035076643124
2.6038886676556556 -3.583945285081017
1.0411399900530436 -1.3816394323818166
1.0466245080536192 -1.3396182811314272
2.6934912736933048 -3.326184715035835
2.6997079606834653 -3.2173866610997077
2.722644970310606 -3.1320447579245037
2.7434354860713186 -3.0468937844573163
2.7825533090549937 -2.9839231026062154
2.7994732329497594 -2.898939395364764
2.8354981925580556 -2.835498192558055
1.6541085212282778 -0.9549999999999998
1.6792698377076398 -0.9308344708729671
1.5438918234159955 -0.6873849267981023
1.5556532023346241 -0.6603356071468726
1.6040280684005421 -0.6480694066095278
1.5217360951904388 -0.5841397577588394
1.5223020456731717 -0.5540726321875834
1.4844641636909275 -0.511142002497736
1.436095339605682 -0.46661566150617056
1.4153310388252927 -0.43271012298965034
1.3842168421511791 -0.3969177923764788
1.371614673330477 -0.36752304404557945
1.358414016786395 -0.3386906538395348
1.3446306894036246 -0.31043245499453365
1.340062213005314 -0.28483901642033027
1.3251966976543466 -0.2575921437583355
1.3097943115062367 -0.23095207629701736
1.2938717261796304 -0.20492914920270244
1.2873484893640414 -0.18092503124808507
1.270459074100892 -0.15599275955858877
1.2630428071177071 -0.13275114834991988
1.2552053195955994 -0.10981623586204929
1.2469550628247803 -0.08719559218015663
1.2383006230956715 -0.06489658574125035
1.2392446255036786 -0.0432753759111012
1.2098157111392334 -0.02111741178911305
1.19 0.0
1.2098157111392334 0.02111741178911305
1.199268992422915 0.041879396043001164
1.3481498719186749 0.07065354092797417
1.3467114678507628 0.09417123955456916
1.334900895442939 0.11678869528186195
1.3624949966545346 0.14320399467668524
3.3548059925476683 0.41191838070939846
3.3669114337213393 0.4731885432642225
6.44960486408625 1.0215170567127076
6.519427324940817 1.1495509361550789
1.3153804258198698 0.25568405380457004
3.9321533549498984 0.8358049970873923
5.982632197781344 1.381199473671331
4.094647964884705 1.0209103994305977
4.066547728676977 1.0896281798816123
5.565705219482866 1.5959402901804252
3.0601752190817137 0.9355894551127575
5.597469967547956 1.9273634743863677
3.984296712132252 1.4501654077008355
3.19284505862043 1.225618387444927
3.0597067200703982 1.2362017582725096
3.037666016393053 1.2894127240146032
3.023835464797009 1.3462982885808985
3.008941852961678 1.4030926289791221
3.0109600551022098 1.4685433417434093
3.0026919865148 1.5299479841222725
2.984362863863173 1.586813882216311
2.9824532013453395 1.6532008050400095
2.979127389018469 1.7199999999999998
2.9657988604293086 1.7820317391887874
2.9596878555859267 1.8494182321738852
2.952120399167893 1.917129403252895
2.943083382570398 1.985134807321151
2.9407558389974806 2.0591394065002553
2.9367316895810593 2.1336604658216776
2.9230059667730917 2.202642984736497
2.9156397883448713 2.277947458704936
2.9065258958490707 2.3536582625263924
2.8956479949897367 2.4297371646151182
2.8905376922532167 2.512706081033643
2.8759704745975156 2.5895354466087817
2.8669065103471483 2.673433571444994
2.8557790073444456 2.757793730722219
3.146625176280137 3.1466251762801365
4.3555079827779135 4.510260548123342
4.2352098159881155 4.541706487055048
4.061622780598269 4.510889090647783
3.962596535102665 4.558445864545543
0.9384699101423475 1.118424886953708
0.8999281592012676 1.1113187248834682
0.855769450702665 1.0953349475133434
0.8124502812552652 1.0781579385638453
0.7817543855489894 1.0759926025186801
0.7571208959833808 1.0812806984614691
0.7381346325813858 1.094329595772655
0.7298163069201364 1.123818561046868
0.7206901993571587 1.1533454107727394
0.7056021626267746 1.1743192019618938
0.6950000000000001 1.2037753112603695
0.6690372759399452 1.206975195852366
0.6478707566445293 1.218467678145319
0.6265068896405747 1.2295890033799475
0.6049521825689268 1.2403357838928504
0.5832132012021651 1.250704746110577
0.5612965674446044 1.260692731546789
0.5353016460303051 1.2610916492298434
0.5169570989139588 1.2795137193021664
0.4945477703725142 1.2883409885661383
0.47198779778942296 1.2967758166845533
0.5664885887554527 1.645202321542811
0.5438699100999075 1.6738594686794703
0.4270514244191592 1.5937776133769626
0.3991711277394516 1.6009879483553942
0.5696780328406603 2.680124426010628
0.526632827239264 2.7092910263155523
0.5296269418841377 3.0036636466872344
0.02897099468589077 1.6597471739596095
