# .PCD v0.7 - Point Cloud Data file format
VERSION 0.7
FIELDS x y
SIZE 4 4
TYPE F F
COUNT 1 1
WIDTH 168
HEIGHT 1
VIEWPOINT 0 0 0 1 0 0 0
POINTS 168
DATA ascii
2.804441170047439e-16 -4.58
0.08115368993336874 -4.64929178247722
0.1643766294687801 -4.707130795259941
0.14340052010566648 -2.7362449252275325
0.20717672702005197 -2.962765229271678
0.31463223131904666 -3.596262860111201
0.2686381505978694 -2.5559212710964623
0.31686029285338346 -2.5806199942674373
0.6916903117715253 -4.921632301645604
0.283146381722818 -1.7877158964771993
0.3143032015771441 -1.7825020329520966
0.36062900126166986 -1.8552753767160848
0.3971113294619201 -1.8682619174015689
1.2169852040003104 -5.271342050488123
1.3112166741501987 -5.259002836415901
1.4053874149066876 -5.244977236749641
1.4994672156444755 -5.229263625904455
1.0320721176712608 -3.375755788549515
1.093920160087314 -3.3667400676848436
1.7873691679697907 -5.190896980040249
0.5472322293210702 -1.5035081932574534
0.5733887192724803 -1.493728682395523
2.086558725326631 -5.164414069937005
0.5079504670360558 -1.1966563094881726
1.5008582129497035 -3.3709827387011972
1.8679727168938915 -4.0058804187019925
2.4855644022940693 -5.096162242516277
2.596825658510208 -5.096557318357464
2.704156201646731 -5.085778134867419
2.807047701226292 -5.064048104337101
2.9100000000000006 -5.040267850025433
3.0284238804711197 -5.040143728128419
3.137122044260573 -5.020444729246043
3.2569414293898626 -5.015249996313636
2.0913814589805932 -3.1006005213558563
2.139440107589402 -3.0554371251979395
3.60312359655286 -4.959274175518428
3.749307594237261 -4.975499227594635
3.8601974502918774 -4.940827425114146
2.385124282078884 -2.9453831939219195
2.333319023162138 -2.78074132852189
1.1021791687040523 -1.2679120947742568
1.1375220308100589 -1.26334620331157
2.7825533090549937 -2.9839231026062154
0.9169490490058766 -0.9495285364470195
1.2162236636408619 -1.2162236636408617
1.2300710585790935 -1.1878658134848852
3.8761746185816035 -3.6145913083312418
3.86435309248245 -3.479479153066063
2.3697880818995043 -2.060025351030193
2.3823982181000214 -1.999069466125137
3.932358564972272 -3.1843611787121775
1.5681413996773765 -1.22516633589806
1.5892846649941128 -1.1976118960725761
1.431960080043657 -1.0403798965576774
2.0396885902795896 -1.4282053265141048
2.470531966214024 -1.6663948523428254
1.8618486608388416 -1.20909865773336
4.0536698996277165 -2.5330140830347196
4.04582965931397 -2.4309797135754554
3.3082170424565556 -1.9099999999999997
3.997012061627039 -2.2155799645257606
3.99092311972235 -2.122011463792226
2.673019572565104 -1.3619714992186402
2.2739489371368924 -1.1090790013763658
2.2929587012027244 -1.0692242022039695
3.98305819532174 -1.7733717638104889
1.5648582508691486 -0.6642429184317653
1.548397037126535 -0.625593011004573
3.902366182758303 -1.497978029099355
3.871533597637943 -1.409122990501755
3.857715788445213 -1.3283180701851993
3.8517788909953716 -1.251518827218537
3.8539081665310335 -1.178257970032629
3.8450467837532756 -1.1025494232679967
3.8347255303676016 -1.0275116090570073
2.836902560163749 -0.5514379966382145
2.2215141767445927 -0.1943573063272777
2.0771494322895134 -0.10885878898532317
2.048751195389146 -0.07154396824012699
1.9696999594580908 -0.034381240681448516
1.9 0.0
1.83971975908776 0.032112427844601665
1.8588669382555183 0.06491306386665181
1.703492933736885 0.14903632009849546
1.6509063463113336 0.17351724902430474
1.6575520732410076 0.20352180348659626
1.7230664396103323 0.24216119567051386
1.6198088785760258 0.2565525226659786
1.595388559879777 0.2813100478204272
1.5902360371852158 0.3091105725100026
1.4867843531153846 0.31602577004299415
1.4615550971778528 0.33742658151579746
1.4554435894139948 0.3628828433995016
1.400592448119149 0.37528761539865507
1.3649916082324127 0.3914050452601388
1.3292636107886193 0.406396669564604
1.3029474273243604 0.42335328229367797
1.2764500770590779 0.4395170085171616
1.2591881118531174 0.4583069920563961
1.2323261629763063 0.47304569339979635
1.2238826880281595 0.4944807033090039
1.1966563094881726 0.5079504670360558
1.178473640358955 0.5246902695677822
1.160073967406912 0.5409513750280953
1.141468438799942 0.5567313564221283
1.1137581552354598 0.5674881246744334
1.1036844910736587 0.5868394534823635
1.0845284368528507 0.6011639291054579
1.0565509926170151 0.6099999999999999
1.045744106856577 0.628346451390266
1.0261381963492753 0.641202309722178
0.9980179758550546 0.648120451667882
1.1274910986748568 0.7605023487202157
1.097663739347249 0.7685924247104018
1.1002631123499287 0.7993879431177635
1.1021170038652641 0.8305047319498265
5.161470436124028 4.032582663383062
2.486867076662307 2.01382525135948
2.4896444401366784 2.0890597314812527
4.784858738612375 4.159414243799816
4.6074979179598445 4.148609759424922
4.410062820763598 4.112450111176866
4.244104821998042 4.098484385708084
4.115361466505707 4.115361466505706
2.195120450650432 2.2731137690701377
3.988018413898795 4.429143159845269
3.05067448480586 3.5093995480358897
2.352602651452734 2.80372266181546
2.0830504943749624 2.5723531324225735
2.0439960980811853 2.6161957019743167
2.0040440270963207 2.6594562484574853
1.969080595179785 2.710206931156074
1.9386883548665357 2.7687339096967922
1.8956639427658317 2.8104373709615915
1.857219109401243 2.8598666366938956
1.8229222689622249 2.9172854507781056
1.782031739188788 2.965798860429308
1.7450000000000006 3.0224286592076908
1.7065298632671067 3.078661369130673
1.6666240478899124 3.13446395464919
1.6298258940649732 3.1987134218362403
1.5869035513764604 3.253634447602985
1.542556655353553 3.3080234226837724
1.5008582129497035 3.3709827387011972
1.4574271092649909 3.4334831033776028
1.4122668571779888 3.4954831317167883
1.3653818877675936 3.5569414249543385
1.3236179546703384 3.6366104424414654
1.272971483927483 3.6969776305933286
1.2237072977247918 3.766183804528808
1.1724105359381745 3.8347820714117717
1.2376117276183263 4.316065014763052
1.6305599841458807 6.085332705621131
1.5144310664539196 6.074051246487738
1.374450942041016 5.953401095837788
1.2620239632637986 5.937355936454201
0.7670521614137105 3.946141277459609
0.2587357847237263 1.46736355198819
0.22682997430833482 1.4321480938629498
0.19762580336329294 1.4061806576130298
0.16817969389910353 1.3697136892650241
0.14111342541133218 1.342604558747169
0.11766025270933879 1.3448628424238567
0.09556636902945158 1.3666627488559593
0.07274697917769211 1.3880950533088576
0.04920829035052652 1.409141066096925
0.024956941205315546 1.4297822040736394
