# .PCD v0.7 - Point Cloud Data file format
VERSION 0.7
FIELDS x y
SIZE 4 4
TYPE F F
COUNT 1 1
WIDTH 180
HEIGHT 1
VIEWPOINT 0 0 0 1 0 0 0
POINTS 180
DATA ascii
3.9801020972288984e-17 -0.65
0.011518588248607176 -0.6598994788032183
0.023382662790675725 -0.6695918541027942
0.03506509068277246 -0.6690817882855645
0.04673683740856391 -0.6683679136740822
0.058394347640931106 -0.6674504477214696
0.06898878575665128 -0.6563844509430604
0.08043376664739735 -0.6550804600832726
0.09046251562404256 -0.6436742446820207
0.08760330042252933 -0.5531054707332772
0.10071594304681963 -0.5711884967470806
0.11066921731839605 -0.569343766399645
0.12058878067430034 -0.5673256084256073
0.12822210097600312 -0.555390936927584
0.13789548049181055 -0.553068563977318
0.1423504748063864 -0.5312592044589877
0.15160054569934955 -0.5286939327660755
0.16080443759750523 -0.5259676157796696
0.1699593469062211 -0.5230810839623344
0.17906248495143623 -0.5200352165796243
0.19153128026237456 -0.5262278676401088
0.2006860517453681 -0.522805038838433
0.20977969231291085 -0.519222958557401
0.222716743238886 -0.524687766467891
0.2318398865532062 -0.5207209108562825
0.24089240919219865 -0.5165954386108904
0.2542552651376649 -0.5213005468535169
0.2678543948463326 -0.5256938492711369
0.27698822204367557 -0.5209390797867668
0.2860376759453389 -0.5160256272122434
0.30000000000000004 -0.5196152422706631
0.3090228449460326 -0.5143003804212674
0.323250751182255 -0.5173093386554198
2.9791755215321984 -4.5875280066614685
2.8742515238396384 -4.2612531229329145
2.7933172450295944 -3.9892704556873904
2.727323570637075 -3.753838853899756
2.6660405525635738 -3.537955309509507
2.616561270134048 -3.349045702828568
2.573920399393835 -3.1785269823590103
2.5390110582618304 -3.0258755503199635
2.5192666713235483 -2.898084788055444
2.482474549591364 -2.7570673025211327
2.4620140798256194 -2.6401868628452054
2.4382508803110805 -2.524882699188665
2.4183051916579927 -2.4183051916579923
2.4025949331310947 -2.3201589573330508
2.3842130672784956 -2.2233146538037447
2.3706319932728874 -2.1345266342847578
2.347146794492821 -2.0403435801604775
2.328775107081693 -1.9540743334470794
2.315894965141773 -1.8753747653285158
2.316751615603762 -1.8100447374574353
2.2920839138357305 -1.7272091164463785
2.281427924137352 -1.6575544114647742
2.277242683123397 -1.594542493055908
2.2549821973497135 -1.5210046974404314
2.2476371220937366 -1.4596326138402724
2.2303664928914 -1.3936876649333287
2.228634981825492 -1.339098994766141
2.217025033688163 -1.2799999999999998
2.221534056134065 -1.2314164354256962
2.2073689821473175 -1.173678906964727
2.2007861147452688 -1.1213565343566805
2.1930574729699677 -1.0696255981653489
2.1842017667583264 -1.0185100107950857
2.17423818918939 -0.9680332105204044
2.1815965026822837 -0.9260327745195788
2.1788820582319506 -0.8803254945273933
2.165906589473508 -0.8314136429450966
2.15189610159973 -0.7832261282157814
2.1463271666104493 -0.7390397106177458
2.149387726827047 -0.6983784072873811
2.15168570091683 -0.6578363356261576
2.1436135819424513 -0.6146713034719081
2.134696076098841 -0.5719900896765708
2.1249476405444323 -0.5298089513632723
2.1241267412318128 -0.4903932984696257
2.1127988175850203 -0.44908925216636014
2.1104984444124772 -0.4102393400595713
2.1074885914461254 -0.3716071002072309
2.1037761654676435 -0.33320541053569175
2.099368305732129 -0.29504697403533875
2.094272379963189 -0.25714431458486114
2.088495980273374 -0.21950977286207227
2.082046919011748 -0.18215550234260555
2.0749332245404344 -0.14509346538778065
2.0771494322895134 -0.10885878898532317
2.068739011929528 -0.072241958174177
2.059686252022166 -0.03595195726080404
2.06 0.0
2.049687775070602 0.035777433196431195
2.048751195389146 0.07154396824012699
2.0571768415944223 0.1078120698604643
2.054981943535238 0.14369833591289813
2.052161078068996 0.17954083006017582
2.0586603234123255 0.21637391896404265
2.0446450723811234 0.2510508474146038
2.039952221607635 0.2866965879777348
2.044514865031935 0.3238193426332779
2.0287039712051484 0.3577152459938765
2.031968269736664 0.3949746204294477
2.034547009526316 0.4324563169009394
2.0266897347532895 0.46789819303523916
2.0279180679168327 0.5056167618033055
2.0284442352070435 0.5435199947152936
2.028262178429853 0.5815948207738681
2.0273660826416355 0.6198280140122019
2.025750379708677 0.6582061980186379
2.023409751782538 0.6967158505383154
2.020339134689703 0.7353433081501877
2.016533721233956 0.7740747710178486
2.0119889644099285 0.8128963077125291
2.0159056290608444 0.8557011713915094
2.018935461390148 0.8988879811975183
2.0210663650917295 0.9424387236817597
2.013298663710134 0.9819513688075335
2.0047646794238276 1.0214786244139802
2.0042910357897643 1.0657004475239722
2.01162532642061 1.1150621265665752
2.0005186827420536 1.1549999999999998
2.0057714836429428 1.2051890952895266
2.0098739878907295 1.2559086562326958
1.9960359517101092 1.296240903335764
1.9979805498576506 1.3476548973645
1.99873098806514 1.3995265046965524
1.9982719761061203 1.4518295731624087
1.996588775118232 1.5045375578801208
1.9936672066250063 1.5576235325739154
1.9894936613298453 1.611060201087584
1.984055107678153 1.6648199090881366
1.9848861959858903 1.725435246245034
1.9916281322794167 1.7932700250417402
1.989282068404144 1.855035539369996
1.9925712469380639 1.9242036861714225
1.994041122946064 1.9940411229460637
1.9797763558081425 2.0501184309651554
1.9914352113824956 2.1355528087279776
1.987317900885809 2.207140131667861
1.9878588578412373 2.2867700280749985
1.9926415900282721 2.3747377736688318
1.9886524357174866 2.4557812382040276
1.9885865653018762 2.5452747341497117
1.9920077266332799 2.643483538256539
1.9867141527485592 2.7344774409873223
1.9903102341381298 2.8424575936828016
1.996318665390566 2.959664134021499
1.9879324778048493 3.061147573000797
1.9924964335168502 3.188660841548162
1.998347730651011 3.325809126724195
2.0050000000000003 3.4727618691755984
2.011959924022299 3.6296717846284925
2.0187277199793305 3.7966746492933856
2.0384173438305657 4.000619293605771
2.060344389908664 4.224332017606085
2.0623771172946133 4.422782000738851
2.09876107827113 4.71389456143582
2.1333919615514345 5.0259564998503246
0.2022875604445926 0.5006792814660652
0.1899350132590091 0.49479762604351696
0.1812706759626045 0.49803708901653143
0.1725511218622931 0.5011248450676379
0.1575986671312232 0.48503882331052833
0.15203328645582312 0.49727847310077844
0.14333142502483956 0.49985608188792585
0.13199771300228558 0.49262217140742487
0.12096094779983384 0.48514786313799824
0.11472503771537122 0.49692873304046997
0.10395584540887962 0.48907380036690284
0.09540449768827246 0.490813591723832
0.08682408883346521 0.492403876506104
0.07665288786971315 0.4839672868916175
0.06958655048003273 0.4951340343707852
0.058497284834470795 0.4764221527878345
0.050173662368473655 0.47737050977677115
0.04183475651887601 0.47817345508403786
0.032785542659738855 0.46885510362211735
0.024597899434183664 0.46935588133464967
0.0160537684831505 0.4597197804287841
0.007853582896777619 0.4499314628203761
