# .PCD v0.7 - Point Cloud Data file format
VERSION 0.7
FIELDS x y
SIZE 4 4
TYPE F F
COUNT 1 1
WIDTH 175
HEIGHT 1
VIEWPOINT 0 0 0 1 0 0 0
POINTS 175
DATA ascii
1.6287802428659799e-16 -2.66
0.04555078080131019 -2.609602484358181
0.08969170652542777 -2.568434425439076
0.13240996929464824 -2.5265327229290717
0.17508874909775432 -2.5038857661521585
0.21440312715923956 -2.450638957305694
0.2540041657403979 -2.4166882057449044
0.292486424172354 -2.3821107639391728
0.32984024927535516 -2.346935322917522
0.3676209928445427 -2.3210676003985737
0.40286377218727853 -2.2847539869883224
0.43886068936605327 -2.257742521929627
0.46988042124813584 -2.2106135776584006
0.5038903617302579 -2.182588945118927
0.5370666082312623 -2.1540565123327124
0.5719900896765708 -2.134696076098841
0.6036458092392282 -2.1051631141049185
0.6315228822011114 -2.065618272880157
0.664386537906137 -2.04477151003458
0.6934601689937439 -2.0139545660265443
0.725082703850418 -1.9921483560661257
0.7561563735405833 -1.9698546999090956
0.7829277802392564 -1.9378142560445855
0.8088134359727965 -1.9054450466465513
0.8378774847361488 -1.8819036427437579
0.8663674365684337 -1.8579309634251322
0.894277139449718 -1.8335398544503008
0.9170608094738847 -1.7998331788605029
0.9436378411996406 -1.774724661646443
0.9696192404926742 -1.7492394142787915
1.0000000000000002 -1.7320508075688772
1.0300761498201088 -1.7143346014042244
1.0545393358240778 -1.687615711351288
1.0838316796799041 -1.6689544302113937
1.1072019488720786 -1.6414943936589825
1.158624401429113 -1.6546871294637635
1.2225933247683443 -1.6827553482998907
1.2999204500084243 -1.7250527017021526
1.3852383194827311 -1.7730241956151243
1.4726097150566198 -1.8185215498093115
1.5619738915382908 -1.8614879967791167
1.6729505239257938 -1.9245094295680683
1.7932700250417402 -1.9916281322794167
1.9300553589768707 -2.0697309755822526
2.097868278786172 -2.172406197022726
2.283954903232549 -2.2839549032325484
2.510495903181893 -2.4243577129019007
2.764516992120464 -2.577953801036244
3.1286397152598298 -2.817039852770793
3.554682122849256 -3.0900380265452894
7.863859625174321 -5.506333788970042
7.411595898642073 -4.999184557028476
6.885485362831933 -4.471486477473372
6.504528897519787 -4.064480756668681
6.171604565055209 -3.70827413935239
5.871652237658495 -3.3899999999999997
5.61505851983492 -3.112477761981484
5.385980316439454 -2.8637765329939335
5.176747905534417 -2.6376848034867666
4.979319016497385 -2.428576153211489
4.812494349164611 -2.244102969843114
4.640810924824413 -2.0662221468250648
4.5012687333824335 -1.9106752183125484
4.348492277918234 -1.7569049231206275
4.229119332032324 -1.6234068114402103
4.115853679042279 -1.4980482277664289
3.952267646005144 -1.360874885630915
3.984926803276694 -1.2947812064310298
4.016479975044749 -1.2279611598354943
6.6903814037307 -1.9184359964863142
6.800117817075041 -1.822086077521746
6.898802613822335 -1.7200646777136377
7.015464466453694 -1.619647591275828
7.111133057334767 -1.51151799224511
3.298267336384151 -0.6411182244651905
3.249865584940286 -0.57303898630087
3.1704795733103923 -0.5021546327791411
3.1391497779107778 -0.4411787300434074
3.1761476852522303 -0.38998189889647195
3.2321961599468882 -0.33971750561987374
3.28744250370276 -0.28761395106727194
3.341839568370411 -0.23368418704281976
3.395340418165551 -0.177942251226009
3.4478983532158805 -0.12040326362362835
3.5194638869504975 -0.06143247065923796
3.59 0.0
3.6494440873208283 0.06370128349608481
3.7177338765110366 0.12982612773330363
3.7947922320673806 0.19887663372318654
3.86057287450552 0.2699575533897649
3.95489295142423 0.34600829870820293
4.037758895195189 0.424385560866673
4.119066529311486 0.5057577751313621
4.208639292151674 0.5914856790802782
4.3063211649948006 0.6820542675754067
4.402090655964569 0.7762073541711786
4.5056687720247774 0.8758132887783406
4.607075199456225 0.9792640637516463
4.715951113560538 1.0887631030243063
4.851478631379982 1.2096094779983386
4.984177263651593 1.335506272729007
5.104299605432473 1.4636343593882655
5.2501131102370655 1.6051206589278246
5.402001012556472 1.7552165280497012
5.52182848150001 1.9013180220297952
5.450217200558269 1.9837168312888784
5.36808745235891 2.0606157098854765
5.294219809576356 2.1390036484048576
5.237672616144386 2.2232601211039675
5.161531835680695 2.298062033378271
2.447031024998955 1.1410693066998885
2.417755984544759 1.179218384862618
2.387897484824826 1.2166945393019855
2.357470072933335 1.2534890726383283
2.326488420990793 1.2895935898552566
2.2863070659909184 1.3199999999999998
2.2543500008465553 1.3545501370134423
2.2218860119298363 1.388388472290997
2.1889301823375567 1.4215078813892204
2.1637880643686587 1.459493478058649
2.129795315151379 1.4912987345127198
1.2701566811686675 0.9228228460991829
1.2618441058747227 0.9508677365802363
1.252937098234688 0.9789017457677968
1.2356620787165835 1.0006194217692417
1.218010664559175 1.0220322994015976
1.2075353283564354 1.0496944463848117
1.1816002725090569 1.0639176641105847
1.1701659225906729 1.0911973760999976
1.150943680541842 1.1114533927343957
1.2091525958289964 1.2091525958289961
1.9797763558081425 2.0501184309651554
1.9573352933793706 2.098985123647019
1.9204048402499232 2.1328256491201216
1.8632076423330408 2.143375207832672
1.8319446876066372 2.1832266628890875
1.8061495223130337 2.2304089093815063
1.7792616636911525 2.2773510779234263
1.7512817173724606 2.3240293342376224
1.7104550841710968 2.3542394536310973
1.680578958508565 2.4001154897667463
2.343018265542429 3.473667429005625
2.303823118113565 3.5475765024091435
2.1832673686408044 3.4939581561644757
2.101355345633022 3.4972425868646178
2.0500000000000003 3.550704155516198
2.0168080202247625 3.6384179816998863
2.4975887140209396 4.697281194009491
2.279032308692525 4.472852751425606
2.165553465138043 4.440042588717885
2.100412760851276 4.50434970157215
2.03775058180976 4.57686274278943
1.9653775763010468 4.630139412865775
2.0228756044459257 5.006792814660652
1.8455949401582958 4.807939196460589
1.7682441409937077 4.858210849463146
1.6994657662663581 4.935606964628433
1.6192490505247248 4.983536145386605
1.5437226009360503 5.0492891114848275
1.6813878704836949 5.863696345223745
1.5943253178315278 5.950103089940661
1.5071734095859297 6.044942374699459
1.4171916423663504 6.1385314081469815
1.3243974705091264 6.230800216674342
1.2307180201787147 6.331495333237433
1.1339226001650557 6.4307946271697185
1.032467469265524 6.518743047927909
0.6777730016755188 4.822605494771448
0.5983784761192742 4.873401604558891
0.7097482655873669 6.752803669550576
0.5813288041268813 6.644618636271943
0.45690490302402026 6.534044529201848
0.33599683907970024 6.411201613124364
0.2198668292257568 6.296162210220303
0.10820491991115831 6.199055709969626
