# .PCD v0.7 - Point Cloud Data file format
VERSION 0.7
FIELDS x y
SIZE 4 4
TYPE F F
COUNT 1 1
WIDTH 173
HEIGHT 1
VIEWPOINT 0 0 0 1 0 0 0
POINTS 173
DATA ascii
2.620744150175336e-16 -4.28
0.07504534768031947 -4.2993450891724825
0.15041683078777965 -4.307374464452303
0.22713805009437682 -4.33405218083485
0.30553335499926854 -4.36933054013803
0.5830719189818344 -6.664542530233778
0.7034765577913078 -6.69313235582848
0.8250554548528485 -6.719537446611749
0.9505522795572472 -6.763530909504926
1.0747047748263865 -6.7854188998885965
1.2033818712318278 -6.824717728374601
1.3318467877282836 -6.851757740464695
1.4616191864488475 -6.876377633158654
1.5274176589948443 -6.615972739891747
1.5870076351338198 -6.365139964370536
1.6435009364010067 -6.133628996935584
1.697926111832715 -5.921372046980045
1.7454590771947385 -5.7091393930993215
1.7892083974309458 -5.506617229348939
1.8329487095937924 -5.323269580624153
1.8742703854246654 -5.149515561906778
1.9172685300673558 -4.994655281760029
1.9554464176310615 -4.83989972083863
1.988821444010403 -4.685369704072921
2.025548482517486 -4.549456379060152
2.0623771172946133 -4.422782000738851
2.099797793119681 -4.30522348177301
2.129215443778475 -4.178820598443445
2.1595691888150976 -4.061558927151063
2.1864913873109804 -3.9445348791986747
2.2200000000000006 -3.845152792802908
2.2404156258587364 -3.7286777580541877
2.2839520288451127 -3.655087294434196
2.380072583015669 -3.664990381921503
2.488408420444823 -3.6892171978699357
2.575358199216197 -3.6779926788575734
4.1615195862307095 -5.727840320174628
5.139500297718492 -6.82034725580388
4.346570015799148 -5.563355920463456
3.4235029273111164 -4.227674030325922
3.4067743313386587 -4.060035548530584
3.4377493119102587 -3.954678200367325
3.499553071256829 -3.886647437246772
3.710071078739992 -3.978564136808288
3.883140290865795 -4.021109483893059
2.4748737341529163 -2.474873734152916
2.4961091071751196 -2.4104645454927205
2.5158567335699464 -2.346074358614995
2.5341238548779144 -2.281735367683707
2.5433712853507418 -2.2109189276980095
2.573909328879766 -2.1597663685467716
3.18629844197358 -2.5802136033043337
3.3569258103646353 -2.622717884887304
3.4261463381028863 -2.581786449322287
3.446412396037276 -2.5039651747659355
3.4650131473424355 -2.426228325764925
3.506828931907827 -2.3653859816812592
4.335926836277842 -2.8157838110276896
4.358967214244029 -2.723785018158673
4.388696579594815 -2.6369949435394773
5.15285115251741 -2.9749999999999996
5.177748666265223 -2.8700729518583152
5.218220273796258 -2.774576936064615
5.248028427469487 -2.67400404346593
5.2669331113131195 -2.568854920183994
5.292837476294036 -2.468090648565685
5.335105472632789 -2.375341995562673
5.357338247093203 -2.2740551678075733
5.386938195033035 -2.1764643077464485
5.41476647368377 -2.0785341073627417
5.469011052973987 -1.990557234155392
5.55019403876799 -1.91108506666351
5.582701750652551 -1.8139297569809412
5.603945869943389 -1.7132981896752373
5.623380921239165 -1.612478531529445
5.641006825528159 -1.5115032233987211
5.676229998714579 -1.415243089258056
5.690321178345774 -1.3137141573681714
2.474713429856528 -0.5260165777689311
1.7767452020402719 -0.3453642816315461
1.7529578003617303 -0.309093756247136
1.7580852462593453 -0.27845334777161096
1.7626771623599953 -0.24772811970891648
1.7568066884051399 -0.21570873782711103
1.7603037548018436 -0.18501537998374662
1.7632646156223897 -0.15426566466335495
1.7557127284572907 -0.12277139378966054
1.7376153904729585 -0.09106456386272226
1.7389400390132266 -0.06072512426235169
1.7397349895721208 -0.03036718720087331
1.74 0.0
1.7397349895721208 0.03036718720087331
1.7289461307430356 0.06037612929532667
1.7276290951254127 0.09054120430029282
1.7357614474520942 0.12137626431477802
1.7234168276987198 0.15077943495344862
1.7304680979407956 0.181879526085717
1.717104842339487 0.21083396409090513
1.7131637589229167 0.2407694646609132
1.7185777126355397 0.2721959691700017
1.713565490241242 0.3021478291404588
1.7080312991989353 0.33200765195518794
1.71175830128416 0.3638454589310788
1.7148913140220141 0.3959138556452024
1.7174234355085138 0.4282017552114119
1.709688712531651 0.4581097098314617
1.7014332018108245 0.4878781197960885
1.7022224656142033 0.5204216344064714
1.6928805990053732 0.5500502499874064
1.692478250322777 0.5827669964783105
1.6914467174146353 0.6156362579862037
1.6897805719599353 0.6486459886769935
1.696746453857221 0.685530065951119
1.6937289303524903 0.7189452764202636
1.6900590966388116 0.7524627896902303
1.6857324838881689 0.786069966837701
1.689732807042434 0.8241377559634655
1.6840023307160152 0.8580420445077434
1.6776004264319613 0.8919959692931925
1.6792698377076398 0.9308344708729671
1.680089283341811 0.9699999999999999
1.6800479093761402 1.009474626823706
1.6876157113512877 1.0545393358240778
1.677341135890848 1.089278070030054
1.6746558965611844 1.1295696650109086
1.6792616907924331 1.1758316945196443
1.674665178356141 1.2167154722454192
1.677134571099315 1.2638115486193013
1.6705827976462506 1.3052023276903957
1.6708638171324872 1.3530388407571505
1.6699768859993722 1.4012769891166557
1.6679081722923261 1.449890454069021
1.672075857324137 1.505543864307431
1.6674864396917084 1.5549562609424963
1.6688683367856707 1.6116074194648735
1.6687720036002522 1.668772003600252
1.6602335053970039 1.7192221228093763
1.6640759985524962 1.784503031950776
1.6661352098335571 1.8504306154387118
1.6663899336358887 1.9169623337658406
1.6583920329912716 1.9763946632469633
1.661405832371571 2.051665338246403
1.6622859833792776 2.1276290347381495
1.6549913136681327 2.1962476526300554
1.6575544114647742 2.281427924137352
1.6633716654180335 2.375540928438076
1.660802923308118 2.4622415904884742
1.6502562760955324 2.5411718208746343
1.6586472970499313 2.6543905409696134
1.6635729819594756 2.7686503812678223
1.6700000000000004 2.892524848640025
1.6725931898498632 3.0174379896309156
1.6807081947734894 3.1609523824349584
1.6888446590311144 3.314544269980728
1.7052637610095114 3.49630884010376
1.7242825079020538 3.697735771109532
1.7367654659336673 3.9008391041339054
1.7739193233413026 4.179092034674079
1.805603780264697 4.469026179011915
1.8563459786446548 4.835946609255505
1.9255734069235155 5.290469455024664
2.0217782391789436 5.871670354471757
2.2032911698933755 6.781032961184445
1.3127802231619938 7.445146612772292
0.955814581395811 6.034775761036292
0.7014324288387299 4.990951066457515
0.5228194832080827 4.258022990541272
0.39302702188637695 3.7394023265847074
0.29022862334970234 3.317328344645513
0.2078742917574932 2.972740869774276
0.14183044141837814 2.706286039184895
0.08655075182220268 2.4784892510073573
0.03996601074137944 2.289651221908136
