# .PCD v0.7 - Point Cloud Data file format
VERSION 0.7
FIELDS x y
SIZE 4 4
TYPE F F
COUNT 1 1
WIDTH 172
HEIGHT 1
VIEWPOINT 0 0 0 1 0 0 0
POINTS 172
DATA ascii
3.245314017740486e-17 -0.53
0.009249775411760308 -0.5299192784328874
0.018845728219350585 -0.5396710465903117
0.028784775933619184 -0.5492462441150157
0.03836606055926888 -0.5486602276429033
0.0479356585112121 -0.5479070839504601
0.05853593942988594 -0.5569322614062331
0.0682468323068826 -0.5558258449191403
0.07793693653763667 -0.5545501184952795
0.08916764507293162 -0.5629823541392285
0.09897946127015032 -0.5613404192169585
0.11066921731839605 -0.569343766399645
0.12058878067430034 -0.5673256084256073
0.13272112206288042 -0.5748783382232887
0.14273391840380392 -0.5724744785028378
0.15529142706151244 -0.579555495773441
0.1681387870483695 -0.5863696345223746
0.17834673988086944 -0.5833459011374516
0.1915905365124674 -0.5896550401029952
0.20185225576343718 -0.5862215168715764
0.21547269029517135 -0.5920063510951222
0.2293554877089921 -0.5974914729582091
0.2397482197861838 -0.5933976669227439
0.2539752335180279 -0.5983281547440863
0.26844618443002827 -0.6029400020441166
0.29160660060108257 -0.6253523730552885
0.3068598027523542 -0.6291558324094169
0.31325344482028733 -0.6147945016899737
0.3192406626944058 -0.6004043631440703
0.3199743493625825 -0.5772490067120012
0.32000000000000006 -0.5542562584220407
0.3141732256951332 -0.5228720534282885
0.323250751182255 -0.5173093386554198
0.34312259205946716 -0.5283624578056171
0.35788345822127793 -0.5305840464352267
0.37282468362817994 -0.5324488287878447
0.3879382665130323 -0.5339512162874653
0.4032160655118724 -0.5350857917316862
0.4248064179747042 -0.543727419988638
0.43423106982438786 -0.5362307134053098
0.5527973443304238 -0.6587982210823211
0.5773319455116465 -0.6641444305960392
0.6022175457229725 -0.6688303429296548
0.6137985240562487 -0.6582183314572534
0.6390857008222776 -0.6617926163115591
0.6576093065034893 -0.6576093065034891
0.6545992183081726 -0.6321391171176876
0.6655318684734451 -0.6206185076568737
0.6911246876939767 -0.6222914639137382
0.7169741012116334 -0.6232560775409819
0.7507235542565984 -0.6299318574928084
0.7771459614569708 -0.6293203910498375
0.8195311837509908 -0.6402879343386847
0.8465536406501304 -0.6379239245411712
0.8818285238686928 -0.6406859249987957
0.9256418100465607 -0.648141373076682
0.9616835841638484 -0.6486637680260663
0.9980179758550546 -0.648120451667882
1.0855015630802252 -0.6782966582185023
1.045744106856577 -0.628346451390266
1.073871500692704 -0.6199999999999999
1.2594523782807299 -0.6981258531547253
1.2626150577882655 -0.6713443347838238
1.2652292643474823 -0.6446665096301564
1.3481910694487507 -0.6575567201836161
1.4229032256475405 -0.6635106709328982
1.5256209142631434 -0.6792501939365863
1.6292935906108195 -0.6915940974260145
1.7245619694942247 -0.6967682637535964
1.8671608529944035 -0.7167358990906005
2.0109422084818442 -0.7319231067169311
2.184147909634422 -0.752062436796032
3.0814231127962977 -1.0012150617748297
3.4044449312284066 -1.0408432688129428
7.757381886222234 -2.2243934614431833
7.785362159889891 -2.086081503526317
8.771473365535007 -2.186973936220996
4.263713307832671 -0.373026578959977
3.780767750484734 -0.2643770354902349
3.6150389158115575 -0.18945616159945666
3.6477765186196995 -0.12738316296412852
3.069532424130121 -0.05357888776246038
2.59 0.0
2.2396588371503166 0.03909339041951507
1.9887877457680005 0.06944999843797693
1.7875468672106871 0.09368136167486946
1.6559563234313082 0.115795746415248
1.5241778880803707 0.133348286403917
1.412221091422948 0.1484304178400679
1.3101609201665452 0.16086753329479467
1.2279324052395473 0.17257464519048113
1.1555953584963112 0.1830283240970701
1.093136605843551 0.19274947721029267
1.0208922707855705 0.1984413551916066
0.9683661247264677 0.2058325739095817
0.915907860898121 0.21145399108323307
0.8732661536483969 0.21772970603970096
0.8306962106085988 0.22258437878816784
0.7978472076288047 0.2287790053281093
0.7554807572107981 0.23097364673096202
0.7228029523843167 0.23485291572496003
0.6902285601875012 0.2376647527537244
0.6577848345501358 0.2394141003279681
0.6254988857531252 0.2401065261953512
0.6119413440140797 0.24724035165450195
0.5891231062095619 0.2500679222331352
0.5663981837384126 0.2521767187069961
0.5437846722219899 0.2535709570444197
0.5302884873165086 0.2586389766055557
0.5078737187873696 0.25877458485154164
0.49445065200099914 0.2629040751600989
0.47229464185527376 0.261797194933022
0.4589934640057525 0.26499999999999996
0.44572699636509844 0.26781979895322816
0.43250452903977726 0.2702588247589345
0.419335283972712 0.2723195175075135
0.40622841055197045 0.27400452270066594
0.39319298125871605 0.27531668944850207
0.3883281572999748 0.2821369211003871
0.37535868972222763 0.28285306088146267
0.37036505419515925 0.28936089340305937
0.35748714227020656 0.2894873798829253
0.3523804438347299 0.29568230045580807
0.3396193111002474 0.2952265630457283
0.3344151714648274 0.30110877286148624
0.321795628712435 0.3000792784274993
0.3165095121490065 0.30564968300195877
0.30405591591021547 0.3040559159102154
0.2917565155927789 0.30212271614223346
0.27961932762562436 0.29985501766385986
0.27434354860713184 0.30468937844573163
0.262423611596203 0.3018838320891088
0.25711504387461576 0.3064177772475912
0.24543495250943664 0.3030869249682186
0.24010797537700673 0.3073241939066216
0.22868970879777833 0.3034814938179713
0.2233583958711398 0.30742645786248
0.2179590458133975 0.3112777768298169
0.20690137428417632 0.30674390184536543
0.20151644295556007 0.31030811013980686
0.19607012776628582 0.31377779557787766
0.19056408771672012 0.31715190125978154
0.17500000000000002 0.3031088913245535
0.16968336708621798 0.3061168974987885
0.1690097626029207 0.3178611334292137
0.16343657990623686 0.3207623487078124
0.1534299013761771 0.31457791620470843
0.14369020899183782 0.308144647592461
0.13829045864577214 0.3106054555984843
0.13284858368635308 0.3129716501738298
0.12736624176141015 0.3152425105527077
0.11826142334994906 0.30808154074407657
0.11286664729747072 0.3100985648593498
0.10743749097086173 0.31202112994777453
0.10197560814373266 0.3138486503774007
0.09648266255850314 0.3155805694678017
0.09096032741960973 0.31721635965964523
0.08541028488383184 0.31875552267539253
0.07983422554789034 0.32019758967107886
0.0742338479334755 0.32154212137912763
0.06861085796986055 0.3227887082421559
0.06296696847425982 0.32393697053772913
0.05730389863008704 0.3249865584940287
0.05318771811367852 0.33581403580234687
0.047318854326422265 0.33669114337213396
0.040216883323698674 0.3275402300416363
0.03553967751100218 0.33813744442521293
0.029632952534203845 0.3387061973511935
0.02371720107300258 0.33917177708834023
0.01779422512260095 0.3395340418165551
0.011865828878850368 0.3397928811864926
0.005759294124303588 0.32994973940160915
