# .PCD v0.7 - Point Cloud Data file format
VERSION 0.7
FIELDS x y
SIZE 4 4
TYPE F F
COUNT 1 1
WIDTH 174
HEIGHT 1
VIEWPOINT 0 0 0 1 0 0 0
POINTS 174
DATA ascii
0.2320531884541907 -2.2078386077175667
0.23886391307408908 -1.945390457216991
0.2727792778817283 -1.9409254147334778
0.3347697551860942 -2.1136530488735947
0.2622087482770649 -1.4870597070484342
0.2900296729723483 -1.4920733188404494
0.3181048869511716 -1.4965658291227226
0.3396760920592364 -1.4712987978257053
0.36530206235549817 -1.4651465466767546
0.39858132945788194 -1.4875257724851652
0.41896878084183875 -1.4611177778262447
0.4444049911785599 -1.453583229063814
0.4697058314499201 -1.4456059047686334
0.4948635947748783 -1.4371882349109615
0.52671102072153 -1.4471266360102988
0.5590540012906683 -1.4563854653356347
0.5881323516629822 -1.455678651669856
0.6173551830130525 -1.4543976684548559
0.6426438960597646 -1.4434018230753094
0.9297601758295388 -1.99387713148063
0.9688002344038612 -1.986334842321159
1.007858909421794 -1.9780344836981767
1.042226869384678 -1.9601436561468177
1.0811254531493317 -1.9504019469208524
1.1250000000000002 -1.9485571585149868
1.163986049296723 -1.9371980995867735
1.208215922451707 -1.9335496592366512
1.2472233901844123 -1.9205556005950208
1.291735607017425 -1.9150767926021464
1.3364330966979374 -1.908624263193351
1.3812953428873118 -1.9011899367811267
1.4263016048703545 -1.892766158812084
1.4714309260283234 -1.8833457011200654
1.5166621424301086 -1.8729217671112997
1.5619738915382908 -1.8614879967791167
1.613905211316648 -1.856585567348019
1.6661352098335571 -1.8504306154387118
1.711815883756871 -1.8356977910641177
0.9377888001196465 -0.971108730457179
0.9404520189781084 -0.9404520189781082
1.028655914484271 -0.9933614697563661
1.0531493303316055 -0.9820776384899977
1.0626971004326737 -0.9568567670931672
1.071687603916336 -0.9316038211665203
1.0801226647977589 -0.9063305296580203
0.9248036941337952 -0.7488912653493066
0.9298526892559318 -0.7264805408842767
0.9663489671572243 -0.7281961780139784
1.1649844718999243 -0.8464107633011613
1.187770464219038 -0.8316858327090167
1.235265983107012 -0.8331974261714127
1.367033025751041 -0.8877616270744939
1.2890331061577676 -0.8054772816344714
1.2771792780461473 -0.7674067316159807
1.3076983597145024 -0.7549999999999999
2.6063667272753994 -1.4447326683340844
2.587036447076656 -1.37555167896266
2.5660987896624996 -1.3074926392498947
2.5615630319526264 -1.2493577683488706
2.555787959443353 -1.1917834981087723
2.53965637224643 -1.1307278677507244
2.522183298459687 -1.0706032920606101
2.512668245875994 -1.0151838681571215
2.4926597387475287 -0.9568424252859516
2.4807885188747982 -0.9029331783797655
2.4772586680702102 -0.8529885646777506
2.4632363772044474 -0.8003540154311137
2.457703222825001 -0.7513952811374333
2.451217324642713 -0.7028752573333478
2.434133082248452 -0.6522239936583523
2.4354422729527507 -0.6072239579551659
2.435925161963088 -0.5623776358596624
2.4160245738125004 -0.5135418763198656
2.4148028712812533 -0.4693901286263002
2.41277899487991 -0.42543803528397933
2.400082667646185 -0.380135750047761
2.3865460456671848 -0.33540717331375774
2.3920362254555863 -0.29370511760640544
2.386852548883856 -0.2508683118423683
2.380905328439272 -0.20830222516690303
1.945249898006657 -0.13602512380104434
1.5978072556073182 -0.08373752998871013
1.5790375066901714 -0.055141204789951534
1.5697608813955344 -0.027400278106535114
1.55 0.0
1.5497639274924064 0.027051229977789443
1.5290679653392165 0.053396229954826485
1.527903188174498 0.08007401305170406
1.5362486374001294 0.10742496956595297
1.5441017820422056 0.13509140125887015
1.531563718867141 0.16097383343218633
1.528521073527636 0.1876787888439271
1.5151101451746027 0.21293484446890013
1.5210400445165122 0.24090907616195553
1.5166039396388005 0.2674181936070727
1.501889590674926 0.29193776292611356
1.4965658291227226 0.3181048869511718
1.49078619912141 0.34417511314611343
1.4942554184650345 0.3725597192234883
1.4875257724851652 0.39858132945788194
1.4899556287043942 0.4272379015163487
1.4631462766234444 0.4473287082257872
1.4551164699315848 0.4727960013936695
1.4466434206669547 0.49811927631944974
1.447126636010299 0.5267110207215299
1.4563854653356347 0.5590540012906684
1.4556786516698563 0.5881323516629818
1.4451926199203315 0.6134478717281597
1.4434018230753094 0.6426438960597642
1.4410293813882735 0.6719630361677121
1.4380704740786674 0.7013938348625239
2.1205955275683155 1.0804973893801213
2.110244746932836 1.1220370350582791
2.09908729713455 1.1635430885912088
2.078460969082653 1.1999999999999997
2.0743448676991116 1.2463921412823311
2.0607568736601154 1.287703812086688
2.054742891466289 1.334365635786816
2.064303555662054 1.3923903296421596
2.0314970698367 1.4224695621505943
2.030632655881118 1.4753409832541073
2.012561485319178 1.5165738583431616
2.0015473141610736 1.5637801473271722
1.0569185075814804 0.8558757318277791
0.9805368871922919 0.8227681403987702
0.9358398794762373 0.813513195948229
0.9140681353371949 0.8230306458213956
0.9068785900077714 0.8456779664774982
0.899174750423314 0.8683229630737466
0.8838834764831844 0.8838834764831843
0.9100024653012866 0.9423351384436329
1.9164153917756208 2.055103901549869
1.907022228122746 2.1179627526105738
1.8960105937825664 2.181110686843811
0.7456336272363856 0.8886115540180144
0.723718449707313 0.8937178556755163
0.6833842376114808 0.8746919365034614
0.686069126393335 0.9104444814539138
1.880912807335914 2.588854381999832
1.783822717051753 2.5475628577387646
1.7111302846204852 2.536854972018428
1.6339171050450816 2.5160117038362717
1.5632618294879546 2.501741883661457
1.4936104172391576 2.4857851720361253
1.4250000000000003 2.46817240078565
1.3623150328922073 2.457681377061702
1.3004362289169178 2.4457648322192274
1.2348541592915676 2.4235377457923604
1.1792183848626183 2.417755984544759
1.1241645762302606 2.410778713517489
1.065650004858597 2.3934890990236144
1.0119936227872188 2.3841075704418206
0.9589928791447352 2.3735906676909755
0.9066709123496093 2.3619584790379204
0.8550503583141721 2.349231551964771
0.8074090230537487 2.3448860674863057
0.7601818061623707 2.339599030086078
0.7104632424762504 2.323820556990176
0.667042401077138 2.3262533041707316
0.6185775177950246 2.3085627248308733
0.575774111527209 2.3093038285368714
0.5286349777080831 2.289769652245303
0.484434239605379 2.2790839097097675
0.4407687793198188 2.267558793764104
0.39939080863393994 2.265057831928078
0.35823492494212883 2.2618062999628656
0.3173146701889492 2.2578111967307803
0.2754247160956333 2.2431543027093874
0.23518904235222027 2.2376742645786147
0.19522886375475473 2.23147612372551
0.15625450118684053 2.2345434725820064
0.11670918242176505 2.2269438625027
0.07747688267955241 2.218647635982393
0.038569818226396754 2.2096634062956246
