# .PCD v0.7 - Point Cloud Data file format
VERSION 0.7
FIELDS x y
SIZE 4 4
TYPE F F
COUNT 1 1
WIDTH 173
HEIGHT 1
VIEWPOINT 0 0 0 1 0 0 0
POINTS 173
DATA ascii
9.062386313690413e-17 -1.48
0.025829561527179724 -1.479774588831459
0.051651255119701596 -1.4790984239882616
0.07745721523955706 -1.4779717114367692
0.1039371458787466 -1.486370434887138
0.12986205669401096 -1.4843301001567009
0.15574741026880365 -1.4818376240987272
0.18158532167366975 -1.4788937659455696
0.20180099639209492 -1.4358886996752769
0.22682997430833482 -1.4321480938629498
0.2517898576170491 -1.4279712418677015
0.2785811332497556 -1.4331756878335893
0.3181048869511716 -1.4965658291227226
0.3599216869501842 -1.5589921036563765
0.3870750329594683 -1.5524731620415944
0.4141104721640332 -1.5454813220625094
0.4437761428653687 -1.5476313304606935
0.47071844460360623 -1.539650657100487
0.5006075308874149 -1.5407115563981488
0.5306760917651655 -1.541195278226886
0.5574928336208401 -1.5316989718810305
0.5877234372542922 -1.5310718994554107
0.6181008791362551 -1.529853360035199
0.6486136732921943 -1.528038056731051
0.6792501939365866 -1.5256209142631434
0.7142248623417821 -1.5316601600919384
0.7452309495414317 -1.527949878708584
0.7808636595520206 -1.5325312216039926
0.8074910879917323 -1.5186698597173542
0.8435687392286266 -1.5218382904225485
0.8750000000000002 -1.5155444566227676
0.9116173925907962 -1.5171861222427387
0.9485554829774367 -1.5180060921200027
0.980350263027049 -1.509607022301763
1.0177310843167593 -1.508848382050176
1.0553806428859247 -1.507239761491745
1.0932805692640002 -1.5047716095374024
1.1314122435258507 -1.5014347588889105
1.1697568031187506 -1.4972204318527715
1.2145883547261864 -1.4998917056119536
1.2534358388887517 -1.493786664082007
1.2924362871112995 -1.4867778730388606
1.3382612127177165 -1.4862896509547885
1.3844566709268717 -1.4846480142869158
1.4309962431455345 -1.4818399886976212
1.4778531726798843 -1.477853172679884
1.5250003767179405 -1.4726757453730743
1.5797239954974083 -1.4731164577349969
1.6349186160502676 -1.4720873339894882
1.6830023638967815 -1.463011634648831
1.7389208858800802 -1.4591278739884441
1.802978630580172 -1.460023307235623
1.8597053785118636 -1.4529610817685534
1.9247115792139757 -1.4503742057964364
1.9982719761061203 -1.4518295731624087
2.0642631516082592 -1.445412619604636
2.089174682838705 -1.409166116746282
2.1134498312224688 -1.372490368237868
2.128600721352629 -1.3300973532253442
2.1772049437833654 -1.3081967102715375
2.2776468119530735 -1.3149999999999997
2.3702194063477626 -1.3138340708675733
2.463423784076406 -1.3098256601726355
2.5660987896624996 -1.3074926392498947
2.651442436582543 -1.2931948830277784
2.7642387504617822 -1.2889856983091332
2.868532736997767 -1.2771530592580125
2.982435725185907 -1.265968856305247
3.1153377513444056 -1.2586781538774643
3.2395240799452902 -1.243536784922192
3.392290361037129 -1.234692717405664
3.5551498442534313 -1.224136260758909
3.7186309787140504 -1.2082564480060443
3.9112864518888153 -1.195800272315993
4.133425292534771 -1.1852406300130964
4.356325476563698 -1.1672738934123685
4.599201742548224 -1.146709785142425
4.891337725221881 -1.1292542928062022
5.213526711911184 -1.108169312058657
5.595274945651685 -1.0876112736463055
5.800517665241905 -1.0227877664582197
5.797730559293459 -0.9182703097861552
5.802970882825603 -0.8155543716259835
7.67238175218742 -0.9420500245217901
7.558366404798877 -0.7944163208341662
9.354268215081492 -0.8183924244005102
8.668831596757872 -0.6061837568364489
6.783435541766805 0.47434402146005206
6.774123947023869 0.5926590506840755
6.762748888504258 0.7107935502200435
6.74931383116099 0.8287115351550028
6.743725548130094 0.9477688175380455
6.73603448285884 1.0668830515743746
6.736085030603503 1.1877535352418034
6.714329934782022 1.3051335283755665
5.0374601437791 1.0707452077114605
4.491845998659935 1.0370243605252176
4.046133178570905 1.0088143046506144
3.6705181398984594 0.9835123713895788
3.364415935784116 0.9647307453594971
3.0984274093202355 0.947284323301667
2.872190679211364 0.9332313230123411
2.6758175689460666 0.9213578771137535
2.4901854450826573 0.9063533798130221
2.3246152619780327 0.8923361943677978
2.188153896777618 0.8840715604615523
2.0711359202679906 0.8791450391008658
1.9641227339315919 0.8744837826129703
1.848867885554766 0.8621412539510269
1.7616363307463674 0.8592074477065917
1.6572721349903643 0.844422329515557
1.5804761912174794 0.8403540973867446
1.5043458962797607 0.8338725468236997
1.4376021702821682 0.8299999999999998
1.380039354130401 0.8292113006051872
1.3144745490424603 0.8213748595614676
1.2663925575975903 0.8224049428726907
1.2021044802048104 0.8108297100325829
1.1550043824474783 0.8087427752549748
1.1083532822936781 0.8052657956406882
1.0701715834633725 0.8064321310237448
1.0244139796887386 0.8003599179233558
0.9869753710503529 0.7992368966332937
0.9652159983299123 0.8099123882050394
0.9811224542896037 0.8528767376876595
0.9809511696301605 0.8832524003936929
0.9800139601696884 0.9138778024837481
0.9783021284605657 0.9447353838242364
0.9758073580374356 0.9758073580374355
0.9725217186425963 1.0070757204741114
0.9752576548893728 1.0458357933154137
0.976930685283933 1.0849914451969955
1.0168914949352865 1.1697998493452966
1.0156044233047323 1.2103502201279852
1.00691262567974 1.2434335383311534
1.003528204780823 1.2844575283789565
0.9990129384324 1.325734946678506
0.9933570763742796 1.3672387204936611
0.9922872348873096 1.4171330366199557
0.978587581073807 1.450815751971323
0.980350263027049 1.509607022301763
0.9750514461890971 1.560408496927824
2.101355345633022 3.4972425868646178
2.0200000000000005 3.498742631289132
1.9343903847828852 3.489732631486189
1.854412673004269 3.4876429917927614
1.7705629489842327 3.4749254443346342
1.6921126266058388 3.4693450187147845
1.6144017598494718 3.4620957464800024
1.5415318772572835 3.462337284465457
1.4652417318347764 3.4518932004466514
1.4010286593755117 3.4676676160797846
1.3259614133176107 3.4542475780396464
1.2552139260052046 3.4486719182842833
1.1850680822240507 3.4416876151815132
1.1155513496935603 3.433314023825504
1.049614419954625 3.433134073907297
0.981268986708517 3.422091637540415
0.9162194196629234 3.419377425063302
0.8515650725108302 3.4154409564915076
0.7895782007469666 3.4200389273961753
0.7256118009539798 3.413735126560982
0.6621072139566109 3.406246326563394
0.6008226947275792 3.4074348254222397
0.5381345597383944 3.397647891647274
0.4773637362930246 3.3966194757835866
0.4167931544456044 3.394507838613321
0.35539677511002177 3.381374444252129
0.29632952534203844 3.3870619735119347
0.23647444599258455 3.381742130380804
0.1768955321011506 3.3753678274704595
0.11796029885445365 3.3779409953245434
0.058989133758018564 3.3794852096286023
