# .PCD v0.7 - Point Cloud Data file format
VERSION 0.7
FIELDS x y
SIZE 4 4
TYPE F F
COUNT 1 1
WIDTH 169
HEIGHT 1
VIEWPOINT 0 0 0 1 0 0 0
POINTS 169
DATA ascii
1.2552629691260368e-16 -2.05
0.03612648132517705 -2.06968472897373
0.07433592797632729 -2.1287024615506738
0.1119989463599001 -2.1370672043747883
0.149278853812428 -2.134787067556024
0.1856417320525123 -2.121894706935418
0.24459660404630906 -2.3271812351617593
0.44604179686283985 -3.6327189150072385
0.5149404735522423 -3.6639918543438106
0.5850648992504637 -3.6939543938258153
0.6581265933576663 -3.7324213839162685
0.730798452292167 -3.759632112604553
0.8066973603729058 -3.795212690847166
0.8593130275935648 -3.7220936474795985
0.9023686705867604 -3.619203059009467
0.9446895146242007 -3.525629265955099
0.981268986708517 -3.422091637540415
1.0057586642462144 -3.2896883605128417
1.0537479508185708 -3.2431027205664735
1.0906533174314752 -3.1674872282577113
1.1218260701081937 -3.082191796177779
1.1539447975358665 -3.00612897332099
1.1875029011284415 -2.939172818976716
1.2151738096016411 -2.8627700942370895
0.8988879811975188 -2.018935461390148
0.9170816279773177 -1.9666878978695304
0.9424979655965166 -1.932407199543209
0.9579199544504439 -1.880023766037456
0.9624167037110761 -1.8100425653607999
0.9793154328976009 -1.7667318084215795
0.9950000000000002 -1.7233905535310328
1.0146250075728072 -1.6886195823831611
1.0386417578970817 -1.662174268466595
1.0457069472288523 -1.610247490455214
1.062466516594419 -1.5751713878545792
1.0783237003399666 -1.5400058432633046
1.075647011695226 -1.4805010997061538
1.1133577928312894 -1.4774756935874918
1.1820700326252638 -1.512980646924906
1.258640782099675 -1.5542919229139416
1.3305703520511363 -1.5857119972562843
1.4039663220396859 -1.615078501676732
1.4854699461166654 -1.6497815125598154
1.5754162117443715 -1.6894270507402838
1.6671800891015935 -1.7264155208127625
1.6899852070358488 -1.6899852070358485
1.5825475607450328 -1.5282484150097941
1.6016646065459832 -1.4935764085368717
1.7166645468527808 -1.5456917006889626
1.7886617051279698 -1.5548598987075024
1.8308462190543575 -1.536262387150829
1.9350934440278575 -1.5670077737140955
2.0724682819856786 -1.6191896801064813
2.2361794281324197 -1.685082064825735
2.418960813181093 -1.7574779043544948
2.637669582610554 -1.8469161250503683
2.9099218796681963 -1.9627670911823212
3.2204949809104284 -2.0914138944577036
3.570282484818553 -2.2309601024217924
4.037257986306949 -2.425829332826355
5.161511406555254 -2.9799999999999995
5.676281899334678 -3.146414435398728
6.701572229799256 -3.563289161544911
8.366551262128775 -4.262970792554344
9.524028647210214 -2.5519557847108545
9.130482784257127 -2.2764850375928734
7.054439269045103 -1.6286456334495825
2.191050625643725 -0.4657221874317809
1.4037268723301595 -0.27285686338845905
1.1916173811447717 -0.2101142949769857
1.1852260087141653 -0.18772135804827703
1.3764726155507827 -0.19345061033449096
1.488819227461983 -0.1828040151077212
1.4917828430524098 -0.15679269490148018
1.4942920471376184 -0.13073361412148726
1.5063217158923345 -0.10533227535362921
1.5179168928269522 -0.07955065348927462
1.5190740570690255 -0.05304723498780147
1.5297669735892787 -0.026702181849043775
1.51 0.0
1.4597776349283311 0.025480513398433928
1.3391837082055884 0.046765325581351304
1.3481498719186749 0.07065354092797417
1.5063217158923345 0.10533227535362921
2.1318566539163357 0.1865132894799885
1.60118025154292 0.1682908258609221
1.637701150208181 0.20108441661849333
1.6735530361732538 0.2352025406225106
1.807469663289102 0.2862750710236225
1.6938693351809977 0.29867486558712014
1.6589499400265522 0.3224672021863607
1.8682619174015689 0.3971113294619203
1.5005298997692622 0.34642462368955207
1.4845524612022747 0.3701405002674916
1.8352590699492297 0.4917561856947894
1.6341448830951422 0.46858350488889855
1.61615503757753 0.494108180981425
1.616796077701761 0.5253288904374106
1.6641126930547976 0.5729999518445958
1.672652864998917 0.6087958551196904
1.7177879847548512 0.6593970271633525
1.7801930007682318 0.7192446593585511
1.9054450466465513 0.8088134359727965
1.9001745518966098 0.8460122175976643
2.030129442962096 0.9466649062991669
1.878479556765259 0.9161956967891717
2.245336440954687 1.1440560593436577
3.0814870990776555 1.6384557541227591
2.9999455954881276 1.6628969974449361
2.927165864791403 1.6899999999999997
2.862938784345055 1.7202271701995808
1.6452133065434662 1.0280433726124174
1.6102474904552142 1.0457069472288518
1.6000425150312305 1.0792423036985412
2.6130950212818838 1.829708831959837
2.5484035322810845 1.8515235447212903
2.4997291464480265 1.883681022465911
2.4349532286447704 1.9023939587562841
2.3780666420583305 1.9257203966125027
2.328775107081693 1.9540743334470794
2.2716758364705436 1.9747376772614267
2.2145715799226346 1.9940092069493975
2.1648069567927446 2.0187151457849954
2.107665614992248 2.035349025444862
2.0576807332528535 2.057680733252853
2.0214558580356825 2.0932788189854747
1.9641552769799955 2.106298660663211
1.9204048402499232 2.1328256491201216
1.8632076423330408 2.143375207832672
1.8190889354129065 2.167905774026708
1.7746835027605417 2.1915516113086575
1.3913949342359877 1.7809043031511913
1.2216844969986578 1.6212300853960042
1.1873262096307957 1.6342143286373938
1.158624401429113 1.6546871294637635
1.1239777359762009 1.6663655208356336
1.0947244603802047 1.6857278415703019
1.0545393358240778 1.687615711351288
1.0197753883219076 1.6971912553901822
0.9750000000000002 1.6887495373796553
0.9502268556828207 1.7142546259932157
0.924858978688205 1.739406757932086
0.8943612844869073 1.7552828526510844
0.8592074477065919 1.7616363307463674
0.8283317930117708 1.7763632625918337
0.7972038204285687 1.7905490969794977
0.7658330118389765 1.804189512766783
0.7342289230951878 1.8172803549509031
0.7024011811087882 1.8298176359345153
0.6737796823515676 1.8511944629482393
0.6446249458251704 1.8721267796866472
0.605673308974897 1.8640707719385008
0.5701248242093366 1.864794274127919
0.5374928438431483 1.8744603070797219
0.5098735188519659 1.9028738777894645
0.4814245722433387 1.930888495289233
0.6186153994456292 2.679517678159397
0.5738362666570155 2.6996873780253035
0.5285409171930294 2.7191072981500293
0.4827419339140665 2.7377655533739382
0.4364521574622443 2.7556504702604343
0.38829295167858263 2.7628479117889815
0.3436715484025159 2.798980147628528
0.2947702664147827 2.8045517449385304
0.19958665089213765 2.2812858586300973
0.15695206592428176 2.2445191130846043
0.11775590154662392 2.246916453197791
0.07852386758062743 2.2486293607929655
0.034206716617075854 1.9597014825065269
