# .PCD v0.7 - Point Cloud Data file format
VERSION 0.7
FIELDS x y
SIZE 4 4
TYPE F F
COUNT 1 1
WIDTH 169
HEIGHT 1
VIEWPOINT 0 0 0 1 0 0 0
POINTS 169
DATA ascii
1.3409882450663516e-16 -2.19
0.037871721968905404 -2.169669498489369
0.07573190784442733 -2.1686780946314377
0.11356902504718841 -2.167026090417425
0.15067398328731052 -2.1547383485612204
0.18738484690746546 -2.1418186008972526
0.22473619602545492 -2.1382220750417873
0.2620190883210671 -2.133974226028842
0.2978304360545401 -2.1191736671069608
0.3347697551860942 -2.1136530488735947
0.3716071002072311 -2.1074885914461254
0.4102393400595716 -2.1104984444124772
0.44701013525818234 -2.103017341577682
0.48139525629587143 -2.0851519386404034
0.5177128565832888 -2.0764328542306325
0.5538727565193944 -2.0670812682586064
0.5953766885647183 -2.076325263226769
0.6315228822011114 -2.065618272880157
0.670566877793636 -2.063792640360483
0.7097385767166018 -2.0612304948065105
0.745603912449958 -2.0485299133132804
0.7812421300087544 -2.0352053297639
0.8203884395808476 -2.030532641501264
0.8557011713915094 -2.0159056290608444
0.8948206147667609 -2.0098000068137223
0.9297601758295388 -1.99387713148063
0.9688002344038612 -1.986334842321159
1.0123988144191896 -1.9869445489400601
1.0516163006403956 -1.9778026080039963
1.0956697417567218 -1.9766405381350343
1.1350000000000002 -1.9658776665906756
1.1794371915440245 -1.962913118607837
1.2241135003787034 -1.9589911021213442
1.2690089515850134 -1.954102423312838
1.314103323156255 -1.9482382955043482
1.359376154151979 -1.9413903449649106
1.375417490364387 -1.893099766837377
1.3661201025551495 -1.8129026078073547
1.3790817047294748 -1.7651440880790572
1.6865786480135645 -2.082751176704682
1.7548101744442524 -2.0913013297148098
1.8041623297238953 -2.0754513456126227
1.8601830856776258 -2.065942614827156
4.63758884842499 -4.973205171010359
6.293604836358517 -6.517218591068179
6.441742776609448 -6.441742776609447
7.2041801786511925 -4.678449310779081
6.351880240211631 -3.9690952891067046
6.128746200020103 -3.6825222356068874
5.932274015923404 -3.4249999999999994
5.1690024691938286 -2.865224855655852
5.615546690582776 -2.9858391393182657
5.684621624321787 -2.8964593883383083
5.770257777240652 -2.814342762385877
6.5435422224046125 -3.0513038497678497
5.9563163838297575 -2.651922912854217
5.928051256233716 -2.516308467470923
6.814801331065887 -2.753358461606953
6.899159351814321 -2.648339147139769
6.991313098647159 -2.544629866342975
7.100844502750869 -2.445016839973247
7.189987263191361 -2.3361684774746023
7.277479192878701 -2.2249486729400263
7.382489824806289 -2.1168948926745537
7.485925153740279 -2.005847599544536
7.587712579478293 -1.8918292235894016
7.687779811155505 -1.7748638187730945
7.786054901841093 -1.6549770589093642
7.784303564739975 -1.5131153333360003
7.770133171266321 -1.3700841217920803
5.4717934068970635 -0.866646936322879
5.466279739453468 -0.7682355172995612
4.168693836893553 -0.5118512423016194
4.027813676241506 -0.4233402762339965
3.9947407393478995 -0.34949452841810924
3.960329279531502 -0.2769332007641775
3.9246140715854754 -0.20568030803476925
3.8876303171042825 -0.13575904217272877
3.8594121033036703 -0.06736628884791435
3.82 0.0
3.789422764642723 0.06614462039730451
3.7577095095918 0.13122210760140363
3.72488816463456 0.19521311678618047
3.700962626463948 0.2587965175907049
3.675958435958541 0.3216046907388586
3.6399501370478804 0.38257417555961165
3.612867991974412 0.4436044099947368
3.5847704088444847 0.5038066254754369
3.555678026142496 0.5631640741448312
3.5354598333138267 0.6233969578242798
3.4945927730736837 0.6792800235404995
3.482205458612348 0.7401656193112232
3.459013729987585 0.7985762429207206
3.425143913754267 0.8539842914668271
3.4000589085375204 0.911043038760873
3.374028552743499 0.967487118917667
3.3470666458706244 1.0233009665295785
3.319187241870086 1.0784693103685665
3.2904046430856226 1.1329771775109052
3.2607333941271026 1.1868098973400705
3.2395240799452902 1.243536784922192
3.2173279753467527 1.2998848791532147
3.194151841479968 1.35583701585778
3.179138192596251 1.4154435179037845
3.1448880210171755 1.4664853682402272
3.11881534065811 1.5211478793580986
3.10070270417552 1.5798869390936228
3.0903165750062445 1.6431504697506178
3.0699151720592788 1.701681767064643
3.048409421321224 1.7599999999999998
3.0258005714784564 1.818084404432491
3.0105707413553118 1.8812133880278774
2.9772805162062554 1.9334685743033457
2.9513737582959485 1.9907267363558585
2.932564318554591 2.053403642136745
2.92055134969356 2.121904760775828
2.8910605463712002 2.1785703838104147
2.8683591431284676 2.241007770185396
2.836582759317943 2.297019427331907
2.819043550677839 2.3654584036464645
2.799972542626484 2.433978997554782
2.7719301990306806 2.495857161718541
2.7498899180880807 2.5643138338349942
2.726297843283488 2.6327552240395997
2.7082189719444774 2.708218971944477
2.6883278936763197 2.78384502731058
2.659793604243744 2.8522794363147645
2.6430658951174903 2.9354220606357075
2.6111149353822194 3.0037441292866323
2.5904340670367536 3.0871591057694814
2.561333991572839 3.1629840631298713
2.5426818930949686 3.2544844123957613
0.9027225347280724 1.1979532650709392
0.852288615824086 1.1730746418436737
0.8316858327090167 1.187770464219038
0.7996458519631678 1.1855237287537097
0.7733874297213386 1.190912206482502
0.7418869699264868 1.1872673346189964
0.7056021626267746 1.1743192019618938
0.6750000000000002 1.1691342951089922
0.639948698725165 1.1544980134240024
0.7605439317131433 1.4303751004314615
0.6809857496093203 1.3365097862825517
0.6356381628441623 1.3032513671337922
0.73112959281141 1.5679124715734043
0.7443280568287147 1.6717881874859597
0.7345745215598345 1.7305491244905877
0.6817840000169602 1.687474615311553
0.7239032580815064 1.8858324615243476
0.7114018981173912 1.9545606512346894
0.677181761270886 1.966678637246579
0.6334848384686422 1.9496658584050646
0.5964382776343831 1.9508617021645924
0.5595438323085082 1.951361242754787
0.5202262806560667 1.9415109108410271
0.4814245722433387 1.930888495289233
0.44540308760085295 1.9292527282747658
0.4075069140028081 1.917169297438259
0.3720775409842626 1.9141730077229446
0.336877464673845 1.9105270408436834
0.30191851752764565 1.906238497348616
0.2672123538433257 1.901314691983815
0.2327704459038317 1.895763149634925
0.1996493648412181 1.899536820153402
0.1647243537930743 1.882807979393399
0.13114217063895542 1.8754204144884694
0.09734487861187578 1.8574509346435075
0.07049698333905219 2.0187694705785733
0.03839529416202392 2.199664929344061
