# .PCD v0.7 - Point Cloud Data file format
VERSION 0.7
FIELDS x y
SIZE 4 4
TYPE F F
COUNT 1 1
WIDTH 167
HEIGHT 1
VIEWPOINT 0 0 0 1 0 0 0
POINTS 167
DATA ascii
1.4267135210066664e-16 -2.33
0.07242748671472694 -4.149367934899024
0.1458798962164545 -4.17745365693982
0.2135307014712114 -4.074408501798661
0.29646501341253223 -4.239647213604253
0.29894419762446817 -3.416947814454687
0.44842710741823333 -4.266498931129893
0.5289129503783401 -4.307650298123337
0.6109699132146873 -4.347276821775494
0.6351239280633375 -4.010014662816259
0.6876467835610445 -3.899838701928344
0.7670521614137105 -3.946141277459609
0.7817479574747747 -3.677834978759109
0.8053247745510372 -3.488244831931142
0.8491458535548335 -3.4057379992287475
0.973159609585478 -3.6318811068468966
1.0529346992209367 -3.672019678484378
1.1314784972769913 -3.7008994055769473
1.211346617949794 -3.7281415438770016
1.250181713115482 -3.630791330301376
1.316777551803825 -3.6178165900257473
1.5087290675857137 -3.9303735955532195
1.1526568290433574 -2.7154893176846993
1.7855738631027636 -4.010464559051018
1.8130323428676005 -3.888060406387228
0.42083630091751434 -0.8628422844472003
0.426751069755174 -0.8375461327370657
0.4178296908794429 -0.7858233576444449
0.42663246581677666 -0.7696653422826683
0.4400000000000001 -0.762102355330306
0.4532335059208479 -0.7543072246178587
0.46102975988288825 -0.7378018436560907
0.47383596046307364 -0.7296433941125188
0.48090589698484226 -0.7129723123973358
0.4990114996254101 -0.7126622785314228
0.5290067270632258 -0.7281152949374528
0.547651671068364 -0.7267583141430365
0.5787217868061187 -0.7407301083903185
0.6104407793183424 -0.7538315826132617
0.6427876096865394 -0.766044443118978
0.6757407998602226 -0.777350867629455
0.7159697488039783 -0.7951649632608119
0.7638381632699983 -0.819116145813471
0.7988571260278469 -0.8272407703894487
0.848528137423857 -0.8485281374238569
0.899174750423314 -0.8683229630737466
0.9507598121049217 -0.8865978680812481
1.0106769626492562 -0.9100176246480473
1.0641405081141084 -0.9250432308766152
1.1260853313848977 -0.9448977862392127
1.2045762402583047 -0.9754466061272482
1.2923376359150238 -1.0096848195340795
1.3736530772813436 -1.035121839821523
1.4724109297624044 -1.069769159172301
1.589154965920644 -1.1127382865210294
1.7161077751889362 -1.1575293101844457
1.8702353665182956 -1.21454504808351
2.035315430775422 -1.2718062341596916
2.228634981825492 -1.339098994766141
2.4595121467478056 -1.4199999999999997
2.7375596833463085 -1.517454111371035
3.072657623149066 -1.6337610384949
3.4838355095765188 -1.7751028539816278
4.017609386957276 -1.959519026147176
4.749052804072046 -2.2145196915212653
5.892368201794776 -2.623451347838911
8.266133584002915 -3.508765533833678
8.32611101400975 -3.36396720887489
8.383552229944872 -3.2181441869167964
8.41964588224174 -3.064500484197992
4.357277605705403 -0.5350064175485973
3.2819222547153015 -0.3449439287832564
2.729573472771383 -0.2388067351285834
2.5038857661521585 -0.1750887490977545
2.2668890438928826 -0.11880262067148249
2.08872682846991 -0.07293994810822702
1.9197075747002712 -0.033508620359584344
1.83 0.0
1.6997410817658651 0.02966909094338197
1.6190131397709353 0.056537184658051576
1.5378894835220438 0.0805973726141335
1.4664191538819416 0.10254201640386419
1.4046345243093612 0.122889597274198
1.342604558747169 0.14111342541133218
1.2903099971337186 0.15843014642669173
1.237835085926963 0.1739663762000818
1.1852260087141653 0.18772135804827703
1.1522250710242834 0.20316836787030848
1.0994224454613837 0.2137060748217302
1.0661808847998482 0.22662374299135768
1.023088568024497 0.23619860706105825
0.9897016408015165 0.2467603335116611
0.9562665680261776 0.25623085465149553
0.9228112281007861 0.2646118615843192
0.8989264706052533 0.2748294024393725
0.8749719949915413 0.2842956348249516
0.841511532283392 0.2897556574668695
0.8269295062915994 0.30097772612658846
0.8028791667875935 0.30819643660895824
0.7881062763817693 0.31841560440352523
0.7640190283655255 0.32430683664609716
0.7308363661140808 0.3253893144606401
0.7159831517589534 0.33386842677515255
0.7010593561133504 0.3419294944954804
0.6860750236250432 0.34957268479945103
0.6622106946441952 0.3521036720894181
0.6472185832831528 0.3587591189822894
0.6321985447626403 0.36499999999999994
0.6085887834984998 0.3656770331861384
0.5936336673094982 0.3709434849632434
0.5786826918823426 0.3758009341603686
0.5637455493374284 0.38025117436010786
0.5570233901165145 0.3900319767187113
0.5420413862312148 0.39381611903595704
0.5270994366312133 0.39719791528035187
0.5122069898443693 0.4001799589616779
0.5051448749470311 0.4090582541823944
0.4979288880273357 0.4178119462962505
0.4830141313425741 0.41987777855392466
0.4756126883055323 0.4282435880696693
0.4607528320200774 0.42965896683937405
0.44599067620996374 0.4306881896845783
0.43840620433565947 0.4384062043356594
0.4237416059799884 0.43879727820657716
0.41601899963812405 0.446125757987694
0.40147836381531493 0.44588689528643655
0.3936354173943044 0.4528257481336631
0.3792446897150582 0.451966221440197
0.3712990307194041 0.4585161172596127
0.36324027044213836 0.4649263446279659
0.34905271342818794 0.4632085958274298
0.3409154463296344 0.4692298567374695
0.33267433308360667 0.4751081856876152
0.32433188401303314 0.4808417920819242
0.31044424995856545 0.4780422237288916
0.2967547879705948 0.47490693384759863
0.2884213219496305 0.48001368839318287
0.2800000000000001 0.48497422611928565
0.2714933873379488 0.48978703599806167
0.25820935953224 0.48562117607240984
0.2496947748567508 0.49005358830360235
0.24110413073399262 0.49433672546454194
0.2324400439573847 0.4984692828701575
0.22370515369169022 0.5024500017034306
0.21490212066910055 0.5062776693988422
0.20603362637875172 0.509951120011733
0.19710237224991511 0.513469234573461
0.18811107882911787 0.5168309414322496
0.17906248495143623 0.5200352165796243
0.1699593469062211 0.5230810839623344
0.16080443759750523 0.5259676157796696
0.15160054569934955 0.5286939327660755
0.1423504748063864 0.5312592044589877
0.13305704257981724 0.5336626494517981
0.12372307988912584 0.5359035356318794
0.11435142994976759 0.5379811804035932
0.10494494745709972 0.5398949508962152
0.09550649771681173 0.5416442641567144
0.08603895577212702 0.5432285873273258
0.07654520552803601 0.5446474378078637
0.0682468323068826 0.5558258449191403
0.05853593942988594 0.5569322614062331
0.04880721593868868 0.5578690309313775
0.04115631950903389 0.5885627896532962
0.0303548546209075 0.5792051301576527
0.020241708087450624 0.5796466796710755
0.010122395733624487 0.5799116631907069
