# .PCD v0.7 - Point Cloud Data file format
VERSION 0.7
FIELDS x y
SIZE 4 4
TYPE F F
COUNT 1 1
WIDTH 171
HEIGHT 1
VIEWPOINT 0 0 0 1 0 0 0
POINTS 171
DATA ascii
4.2250314570583685e-17 -0.69
0.012042160441725682 -0.6898949096579099
0.024080652724725742 -0.689579670643176
0.036635169370060776 -0.6990406743282016
0.04882953162088766 -0.6982948351818768
0.06100901992336085 -0.6973362886642218
0.07421520892003396 -0.706110545711474
0.08530854038360323 -0.6947823061489253
0.09881290168164647 -0.7030903288065149
0.11106847017856394 -0.7012587218225478
0.12329020614352058 -0.6992135046386676
0.13547438671734688 -0.6969553002478414
0.14761730048060906 -0.694484796521002
0.1619647591275829 -0.7015464466453694
0.1741837648317607 -0.6986129229187175
0.18893790292484014 -0.7051258531910198
0.20397164330457937 -0.711333654994356
0.2163550614948252 -0.7076655194126462
0.2317627457812106 -0.7132923872213651
0.24417611584286758 -0.7091389316994876
0.2599353089275083 -0.7141663917972904
0.2723596416544281 -0.7095211241378734
0.2884470769302524 -0.7139315680164262
0.3047702802216335 -0.7179937856929035
0.3172545815991243 -0.7125654569612287
0.33386842677515255 -0.7159831517589534
0.35069691743126197 -0.7190352370393337
0.36319239979163753 -0.7128052193506943
0.38027196585657164 -0.7151875502157308
0.3975438886019964 -0.7171881598543045
0.4100000000000001 -0.7101408311032396
0.4274816021753451 -0.7114488595827531
0.45043137459822413 -0.7208408817329621
0.46838957011292337 -0.7212566884330646
0.4864978260195497 -0.7212626881228863
0.510483028352431 -0.7290453194172027
0.5290067270632258 -0.7281152949374528
0.5536698212998844 -0.7347446692435095
0.5725651720528623 -0.7328500008542514
0.5978543714973455 -0.7382886633841222
0.6235039813959432 -0.7430631098254087
0.6494984387006023 -0.7471624844205442
0.6758219124224468 -0.7505762737321682
0.7092782944649985 -0.7606078496839374
0.7293912889819473 -0.7553067903555837
0.7636753236814714 -0.7636753236814713
0.7984671783759029 -0.7710707912094871
0.8337432198458542 -0.7774781304712481
0.8769108940633251 -0.7895741155034527
0.8981044004650987 -0.7807102444987036
0.9498951094675328 -0.7970566360113087
0.9947468306649226 -0.805530100543792
1.0322940872248056 -0.8065165326766124
1.0861442936643184 -0.8184684314867857
1.140713962068676 -0.8287772057323871
1.204153505104818 -0.8431573614360377
1.2435563588325627 -0.8387893552061202
1.3083260859948616 -0.8496368946234422
1.3738379157734102 -0.858469208057792
1.4486127381865699 -0.8704143465979916
1.524204710660612 -0.8799999999999999
1.6093002611364882 -0.8920497012532602
1.6952593782891399 -0.9013854005489104
1.8087432441023867 -0.9216007144712798
1.9054433781542341 -0.9293468311928441
2.0391925208324624 -0.9508910889165737
2.17423818918939 -0.9680332105204044
2.328877279234674 -0.9885497550778625
2.475580891693322 -1.000199604420485
2.6980474325769133 -1.0356833741859177
2.8848563458127385 -1.0500018400098028
3.79152948815326 -1.3055282993731983
3.8137366303435654 -1.239158147443539
3.8443451189714026 -1.1753342529854014
6.296264108395989 -1.8054246806013445
6.317154903930507 -1.6926765549704856
6.336031092582258 -1.5797499782658304
6.343149121751881 -1.4644313637785609
6.357959404769737 -1.3514259903154355
6.380576692409816 -1.2402584699475412
6.401250394579352 -1.128713154835047
8.74104181426697 -1.384445015606043
8.783677769737729 -1.2344654055157804
8.823735288091353 -1.0834184628717611
8.632450051796612 -0.907307061163232
8.637008032455434 -0.7556402896221963
8.96810081183582 -0.6271106989596865
8.987665812791164 -0.47102360618649447
9.004511351442053 -0.31444446528953374
9.028624687262212 -0.1575952301286701
9.14 0.0
9.365521731146098 1.6513941696125074
8.864093466532404 1.7230052282501995
3.3452647945096152 0.7110579825967368
2.7964420859336254 0.6456095259668925
2.464551144741031 0.614481614823156
2.173333109150404 0.5823428514806717
1.9609738597141706 0.5623002058666783
1.8169790363297675 0.5555062389731997
1.6928805990053732 0.5500502499874064
1.579016021250859 0.5436988179434517
1.4753174146338763 0.5369716250212999
1.4003706397458027 0.5375519243179504
1.325872912030506 0.5356874285847542
1.251886600695319 0.5313943347454123
1.2058800040882331 0.5368923688600562
1.141947811666179 0.5324990097932814
1.087540796021992 0.5304290876147837
1.0335675680585066 0.5266289796978741
0.9977307799305875 0.5305028659480565
0.9620816778533354 0.5332905822709708
0.917986928011505 0.5299999999999999
0.8828823197231758 0.5304892171573558
0.8565285771179902 0.5352184568755369
0.8218971565865155 0.5337462543147264
0.7875856939272896 0.5312332582972095
0.7536198807458725 0.5276903214429624
0.7281152949374528 0.5290067270632258
0.7027992488416177 0.5295972203738025
0.685569355637848 0.5356254835333227
0.6605740672384252 0.5349223323923619
0.6281564433575619 0.5270858399429622
0.6037676641782177 0.5248472231924058
0.5945158603819154 0.5353044850870866
0.5704558872629529 0.5319587208487488
0.5538916462607615 0.534886945253428
0.5374011537017762 0.5374011537017761
0.514047194139658 0.5323114522506018
0.4978588028456239 0.5338882021819944
0.4817740365783779 0.5350642743437238
0.4592413202933551 0.5282967061559403
0.44352345068371213 0.5285706657520948
0.42793786591388955 0.5284592537907402
0.4124931884681911 0.5279672049165037
0.4032160655118724 0.5350857917316862
0.39381611903595704 0.5420413862312148
0.3785604479916904 0.5406403492307346
0.36347538725598544 0.5388744221607772
0.3485689824096174 0.5367491634850713
0.3338491364669191 0.5342703005785484
0.3193236064442337 0.5314437264353096
0.31000000000000005 0.5369357503463519
0.29573386835026566 0.5335180213550313
0.2816829376715345 0.5297685557153561
0.2723942998437281 0.5346039145130207
0.2586389766055557 0.5302884873165086
0.2535709570444197 0.5437846722219899
0.2399746194147222 0.5389918200091345
0.22662405452377873 0.5338928150024154
0.21352575824706993 0.5284947971030687
0.20426973124082107 0.5321408431034049
0.1949514816956312 0.5356247938479677
0.1823181664960078 0.5294904023356174
0.17304951684997058 0.532591649125286
0.16372815464473262 0.5355306633392999
0.15160054569934955 0.5286939327660755
0.1423504748063864 0.5312592044589877
0.13063782362382056 0.5239596921890382
0.12147356934568719 0.5261598349840271
0.11227231304159 0.5281997043962551
0.10112876754956882 0.5202624072272619
0.09203353416347312 0.5219481090964703
0.0829102664713224 0.523474820515423
0.0737617435088347 0.5248420764330323
0.06459075200472818 0.5260494603699006
0.05540008553185634 0.5270966045451849
0.04619254365625893 0.5279831899886251
0.03766849582182763 0.5386845871403051
0.028261416371189743 0.5392599487674699
0.018845728219350585 0.5396710465903117
0.009424299476133144 0.5399177553844513
