# .PCD v0.7 - Point Cloud Data file format
VERSION 0.7
FIELDS x y
SIZE 4 4
TYPE F F
COUNT 1 1
WIDTH 178
HEIGHT 1
VIEWPOINT 0 0 0 1 0 0 0
POINTS 178
DATA ascii
5.3272135762909864e-17 -0.87
0.01518359360043673 -0.8698674947860604
0.030013567164150927 -0.8594761112364223
0.04448556280650237 -0.8488351045413878
0.05859543794506519 -0.8379538022182523
0.07233926648055644 -0.8268415994161488
0.08675862451215237 -0.8254531731556668
0.09993286159222094 -0.813887844345884
0.11273021177765304 -0.802117135680672
0.12671191668258705 -0.8000275558820616
0.13891854213354435 -0.7878462024097664
0.15264719630123594 -0.7853017467581312
0.1663293526542074 -0.7825180805870446
0.1799608434750921 -0.7794960518281883
0.19353751647973416 -0.7762365810207972
0.20446704563099138 -0.763081402768364
0.21499713753725935 -0.7497841228318888
0.2280499296837347 -0.7459177096511677
0.24103325561245903 -0.7418240827102198
0.2506874789320107 -0.7280493032114739
0.263355510360765 -0.7235633180051494
0.2723596416544281 -0.7095211241378734
0.28470101099609324 -0.7046597294707584
0.2930483463669553 -0.6903786400893303
0.3091198487376083 -0.6942945478083766
0.3211898789229316 -0.688793918147854
0.33754578302758964 -0.6920714156503587
0.3495726847994511 -0.6860750236250432
0.36149310334513596 -0.6798696465013737
0.3684553113872162 -0.6647109774259408
0.3800000000000001 -0.6581793068761733
0.3914289369316413 -0.6514471485336053
0.4027386408172357 -0.6445165530788838
0.41392566661142066 -0.6373896316385222
0.42498660663776755 -0.6300685551418317
0.4416538559903055 -0.6307470741025237
0.45259464426520435 -0.6229430856687096
0.4633975678270772 -0.6149493427364154
0.4740593360007569 -0.6067682802771759
0.49716310892937166 -0.6139453095510069
0.5013743355555007 -0.5975146656328029
0.5182866329025009 -0.5962205683759898
0.528613179023498 -0.5870844121271415
0.5387787044493738 -0.5777694242791447
0.555726696367198 -0.5754718402709209
0.5656854249492381 -0.565685424949238
0.575471840270921 -0.5557266963671978
0.5850829612953364 -0.5455986880499988
0.6019473086366893 -0.5419957911506752
0.618861855782673 -0.5379684037722159
0.6281564433575619 -0.5270858399429622
0.6528026076238554 -0.5286291284818635
0.6698091405657136 -0.5233122540268096
0.6868265386406718 -0.5175609199107615
0.6957546151624548 -0.5054953169715269
0.7126622785314228 -0.4990114996254101
0.7295530638484368 -0.49208975505425717
0.7464168054714274 -0.484728741163374
0.7632432865407833 -0.47692733780988444
0.7800222436389223 -0.4686846481681493
0.7967433714816836 -0.45999999999999996
1.0670360427100627 -0.5914677367005312
1.4656930041458187 -0.7793227942245787
1.496890960636458 -0.7627040395624385
1.527949878708584 -0.7452309495414315
1.5588493937030379 -0.7269034101940031
1.5895690962981255 -0.7077217589518923
1.6108834935417706 -0.683779474856229
1.5947562298548743 -0.6443233406753687
1.577750920780271 -0.6056418347315574
1.569286676712467 -0.5711736393538668
1.5601056497388728 -0.5371874548543085
1.3219685576502633 -0.42953362218117686
1.3388266583482498 -0.4093203866118314
1.518793479582544 -0.4355070221908587
1.5165035472738373 -0.40634590081095756
1.5039583757277946 -0.37497893817948497
1.5005298997692622 -0.34642462368955207
1.4867843531153846 -0.31602577004299415
1.4822570470059726 -0.28812158301858265
1.3984270092773352 -0.24658041228704106
0.5728592375451799 -0.09073198972333389
0.5545501184952795 -0.07793693653763666
0.5756767679519668 -0.07068421917498553
1.3227141208398034 -0.13902285614597912
1.4145964712902785 -0.12376115470167459
1.4564435133793432 -0.10184445166642293
1.527903188174498 -0.08007401305170406
1.5890314149603624 -0.05549019975697654
3.9693953497708736 -0.06928605355601554
3.93 0.0
3.7194334259817756 0.06492295194669467
3.7177338765110366 0.12982612773330363
3.734874459982106 0.19573647634860994
3.750840828976939 0.2622843412779111
3.7755779057677157 0.33032026501362444
3.729457107631025 0.39198173725370045
3.7121226071385443 0.4557913443352516
3.8323374260298775 0.5385999007154533
1.6000551117641233 0.25342383336517404
1.595388559879777 0.2813100478204272
8.775747020022115 1.7058324186663105
6.328614976747723 1.3451886395909027
8.584200270757924 1.9818187887694505
8.528899433966009 2.126493462321079
0.6664888201394571 0.1785851411207393
0.6344327193192905 0.18192065483921946
0.6502872340548642 0.198812759211461
6.68592730955493 2.1723894704558804
8.244921979226044 2.8389543068664067
8.165928874629543 2.972155045500061
8.066134884935824 3.0962990840713944
3.2173279753467527 1.2998848791532147
1.4175774743167582 0.6017259378734815
3.1425963742905467 1.3991740521807525
3.253644955461573 1.517199559649111
3.2086947452880263 1.5649849940370062
3.17198322611059 1.6162061790727864
3.107975526863423 1.6525399010063357
1.1544980134240024 0.6399486987251649
1.1518137870333036 0.6649999999999999
3.0172288984714353 1.8129340236833906
2.9936097794321834 1.8706150027432131
2.943733693488438 1.9116830129027444
2.893341128217096 1.9515832331129064
2.8506491141256913 1.9960459985016403
2.694026591268575 1.9573248901339355
2.7552925096631604 2.0762618298745665
2.553154841685779 1.994743180055133
2.7044679458702583 2.1900349608534344
2.612211551035715 2.191905749031099
2.6339364349774743 2.2896460111768704
2.60100688917088 2.341957122256004
2.567051492683288 2.3938142438193695
2.510495903181893 2.4243577129019007
2.4748737341529163 2.474873734152916
2.431304296606491 2.517689301185279
2.4074542110206196 2.5816785667156714
0.6490566881680925 0.7208504807130725
0.6363772581207922 0.7320682928160888
2.2883238904840804 2.7271182175035618
2.24667379604792 2.7744110824013855
2.2040680816658567 2.8210784979120644
2.160515933115853 2.8671014810697812
2.1160269082529033 2.912461179749811
2.0763466995907867 2.9653304003261503
2.029870239598811 3.0094063883748015
1.9933788681549995 3.0695342786802517
1.944803699735862 3.1123365128940836
1.8953401156690002 3.154375666583773
1.8500000000000005 3.204293994002423
1.7986436911139108 3.244839113487158
1.755823644819232 3.3022239972923866
1.7024643740233008 3.341274465706379
1.652659223394822 3.38845355454786
1.6017232119972509 3.434906512868903
1.5496666101187995 3.4806081936183095
1.500407533398811 3.534738637257371
1.4422353846512619 3.5696578400821313
1.3904676442357646 3.622292054809143
1.3372987604033653 3.6741981472729015
1.2827385285611976 3.725343187861308
1.2267974676685414 3.7756943696917595
1.1753342529854016 3.844345118971402
1.0508053231162342 3.921658854733617
1.8894100046334044 7.578009622215532
1.025776807808025 4.443127495420672
0.948077310128982 4.460353059346153
0.8700890189170447 4.476219956521347
0.793572171937872 4.500571431265791
0.7774792912499476 4.908811052757835
0.6930820427811261 4.931534982333021
0.6093467170257374 4.96273075820661
0.5111441853788253 4.863212068350856
0.4540814197153 5.1901743770579944
0.364826357681775 5.217259982858881
0.27476377027545584 5.242805057461513
0.1772894432487055 5.076905401257006
