# .PCD v0.7 - Point Cloud Data file format
VERSION 0.7
FIELDS x y
SIZE 4 4
TYPE F F
COUNT 1 1
WIDTH 174
HEIGHT 1
VIEWPOINT 0 0 0 1 0 0 0
POINTS 174
DATA ascii
7.470345474798854e-17 -1.22
0.043281967964463326 -2.47962228398785
0.08899371659137775 -2.548446608898694
0.1371202053565132 -2.6164093810569837
0.18694734963425563 -2.673471654696329
0.2396782925560605 -2.7395354197523
0.29581555104745927 -2.8144969638922133
0.35585848274303067 -2.89823476279266
0.4203027648993977 -2.9906095675995426
0.48807553092552053 -3.08158762265683
0.559147132087516 -3.17108096469931
0.63730204455766 -3.2786347927151978
0.7193744502294469 -3.384390698538968
0.7760811374863348 -3.361576723509062
0.8322113208628568 -3.3378172983894276
0.9291603719180495 -3.467673716377755
1.0391528314300869 -3.623956593687462
1.160715667749265 -3.796529881173251
1.2855106965997813 -3.9563951077878388
1.4357555611560613 -4.169736918392987
1.60065427076413 -4.397761465278051
1.7846723887355949 -4.649230523956065
1.9891610110384936 -4.923346267749641
2.2232601211039675 -5.237672616144386
2.5014303549161725 -5.618304564501996
2.8315423536626865 -6.072262173145555
3.05544689311987 -6.264594502705194
3.1506940681924553 -6.183585277867273
3.2487432144783646 -6.109997342583774
4.1790589265234255 -7.539221875541591
4.915000000000001 -8.51302971920103
4.9469194903098375 -6.564783892588747
4.869882269825957 -6.233165061029171
4.9779242932042145 -6.147224555124639
5.090877868717392 -6.067071989502306
5.202548099894724 -5.984846971166581
5.312897014489335 -5.900569914290511
5.4287069460974875 -5.821575464888597
5.536427212558209 -5.7331382086990486
4.1577878733769 -4.157787873376899
3.812500941794851 -3.6816893634326853
3.51781130478821 -3.2804121119006173
3.2847001286100825 -2.9575572801061534
3.064120895704454 -2.663599657701459
2.8726666616961674 -2.410453536324522
2.7200108650993977 -2.202621368674431
2.6083155944382495 -2.037839483327929
2.475770081146608 -1.8656265717713496
2.370419793518596 -1.7222107892169465
2.2690511626805074 -1.5888067286923975
2.18036881581976 -1.470677336128064
2.1134498312224688 -1.372490368237868
2.0437959117369866 -1.2771054268020239
1.9800564646218795 -1.1897379530422252
2.0438199529312753 -1.1799999999999997
2.072848705920368 -1.148998799983819
2.1190742228614248 -1.1267317506861378
2.15623578853585 -1.098657009369703
2.1930574729699677 -1.0696255981653489
2.274832545461991 -1.0607718369691554
2.329540916988632 -1.0371784398432904
2.3564924248382475 -1.0002716889325407
2.401406183327979 -0.9702310769472121
2.445980717422669 -0.9389240278086868
2.4901854450826573 -0.9063533798130221
2.524534596850176 -0.8692669724006084
2.586873724322818 -0.8405262246998569
2.6202750313387178 -0.8010984709402986
4.7486327779352955 -1.361648537735976
4.6654217409762 -1.2500959878451752
4.589498785285464 -1.1442905661864284
4.550308202547049 -1.0505214237858493
4.626638151470901 -0.9834222975680017
4.711810480548787 -0.915883177807415
4.815709912229697 -0.8491395887912893
4.918687936163787 -0.7790436359003498
4.832508175458863 -0.6791647326851193
4.7642215278783455 -0.5849728483447079
4.714033784045616 -0.4954649158886774
4.642267293107534 -0.4061457612040871
4.578818990692593 -0.32018221448553513
4.52379179243822 -0.23708188178053555
4.467276996775357 -0.15600075026017932
4.409328335639685 -0.07696511238842028
4.35 0.0
4.2993450891724825 0.07504534768031909
4.237417106560966 0.14797386601860413
4.19424404596921 0.21981101622036409
4.13989080857827 0.28948936603812003
4.0843982621761565 0.35733854526539843
4.037758895195189 0.424385560866673
3.999960991114528 0.4911334539227444
3.94126691359145 0.5539089418210604
3.9013689453507943 0.617916136908912
3.8505983142777334 0.6789643746776977
3.7988971999424597 0.7384308121072284
3.765868262825152 0.8004600096483734
3.7220936474795985 0.8593130275935642
3.5512823581701474 0.885434137894784
0.9466073097632869 0.2536426642004703
0.9035859941820197 0.2590991144679792
0.8989264706052533 0.2748294024393725
0.8939931253174442 0.2904759747124505
0.8793322753073647 0.30277838364515575
0.8645172111230358 0.31465853185961523
0.8495581881124536 0.32611483408622327
0.8437373076557766 0.34089200000847997
0.8376594166417207 0.35556532692523907
0.8313263664547668 0.37013034519897814
0.815677008332985 0.3803564355666295
0.8089146416692503 0.3945340321101697
0.8108159370114149 0.41313135476298757
0.785823357644445 0.4178296908794428
0.7784115393540623 0.43148056201924
0.7707626093681504 0.44499999999999995
0.7714505706319011 0.46353426741904874
0.7547628055792192 0.47162814516755236
0.7548035111508816 0.49017513151352426
0.7378434395739871 0.4976816840889646
0.7290453194172027 0.510483028352431
0.7281152949374528 0.5290067270632258
0.7107856039420907 0.5356153706053229
0.7092096782460497 0.5540953277930925
0.6994313653112737 0.5663883519448538
0.6894399988070802 0.5785088487178853
0.6792386222004948 0.5904531260914566
0.6688303429296548 0.6022175457229725
0.6582183314572534 0.6137985240562487
0.6474058203047861 0.6251925334130976
0.6363961030678928 0.6363961030678927
0.6321391171176877 0.6545992183081725
0.6206185076568737 0.6655318684734451
0.6089088517865611 0.6762617911844288
0.5970137163813617 0.6867857180027225
0.5849367248147508 0.69710044323827
0.5789747597658506 0.7149742845404131
0.5664085572996057 0.7249698933181842
0.5536698212998844 0.7347446692435095
0.5466402846320001 0.7523858047687012
0.5391618501699833 0.7700029216316523
0.5312332582972095 0.7875856939272896
0.5174070832642758 0.7967370395481527
0.5140216863062087 0.8226066532717332
0.4995869326627527 0.8314522816810488
0.4850000000000001 0.8400446416709054
0.47511342784141036 0.8571273129966078
0.45538741590231413 0.856459165073159
0.4494505947421514 0.8820964589464841
0.43398743532118667 0.8898061058361754
0.4268444443581064 0.9153708649070165
0.4148713759373164 0.9318163667954529
0.40245306234395195 0.9481199990560136
0.38584479121838955 0.954999370203791
0.36911898803165916 0.9615878392921178
0.36596155335846564 1.005471104240922
0.34835792526915776 1.011704875891269
0.3368285238686927 1.0366516027617174
0.32160887519501047 1.051935231559339
0.3059574649568691 1.067000482491534
0.29246552096584844 1.091496183706647
0.27821017993961783 1.1158400852173957
0.26094322303888356 1.1302692751508727
0.24533579516495588 1.1542141688658907
0.2289707944518539 1.1779526201371968
0.2101142949769858 1.1916173811447717
0.19397873664988635 1.2247335423379708
0.17535810720968248 1.2477377666143787
0.15721145299264028 1.2803845356173054
0.13797757151330256 1.3127689018861208
0.11678869528186221 1.334900895442939
0.09486880429201032 1.356687108353361
0.07274697917769211 1.3880950533088576
0.04955728531755153 1.419134974367116
0.025480513398434053 1.4597776349283311
