# .PCD v0.7 - Point Cloud Data file format
VERSION 0.7
FIELDS x y
SIZE 4 4
TYPE F F
COUNT 1 1
WIDTH 179
HEIGHT 1
VIEWPOINT 0 0 0 1 0 0 0
POINTS 179
DATA ascii
1.806354028742346e-16 -2.95
0.023037176497214353 -1.3197989576064366
0.045020350746226394 -1.2892141668546335
0.0659433048661094 -1.258273213790763
0.08440533323039152 -1.2070525008143873
0.10371533386971345 -1.1854716907291771
0.12020773275780147 -1.1437001796735142
0.13771235804781665 -1.1215771513546937
0.15309041105607202 -1.0892948756157275
0.1673848775930471 -1.0568265244367974
0.18233058655027695 -1.0340481406628184
0.19844135519160672 -1.0208922707855705
0.20583257390958165 -0.9683661247264677
0.22270154380042648 -0.9646263641373829
0.2515987714236544 -1.0091075553270363
0.2717599973576468 -1.0142221176035218
0.29493197072418914 -1.0285500146540012
0.3186851581477831 -1.0423721839997087
0.3430088637561917 -1.0556727330876206
0.3678920145365871 -1.0684359904272278
0.3933231648245191 -1.0806465139037944
0.42287418046345415 -1.101624903266698
0.4457818461649355 -1.103348786934477
0.4805992880418067 -1.1322209697465015
0.5084208038447504 -1.141931822053251
0.5451775576455022 -1.1691370452772785
0.5786499137615823 -1.1864081411149006
0.6128871746483883 -1.2028588076542965
0.6478707566445293 -1.218467678145319
0.693277756952262 -1.2507061812093359
0.7350000000000001 -1.2730573435631247
0.767406731615981 -1.2771792780461473
0.7789813184228112 -1.2466307013499462
0.7897266007717894 -1.2160723235208646
0.693399200303726 -1.0280065899682518
0.7112347810752971 -1.01574853491835
0.7464872704114409 -1.0274515828561832
0.7883776803291833 -1.0462125181619537
0.8311429916896388 -1.0638145173690747
0.8684621396487757 -1.0724614268106196
0.9191862818517512 -1.0954435536601386
2.493024310163928 -2.867896404846533
2.536004998100073 -2.816518888559324
2.5847737846368695 -2.7718305291366563
2.6327552240396 -2.7262978432834877
2.6799347006970153 -2.679934700697015
2.7334912412868744 -2.6397018077441894
2.7864576031690396 -2.598413751838119
2.831381785068872 -2.54938761022725
2.8754435006487613 -2.499584900453833
2.9186293282833065 -2.4490207929057144
2.9764690323801983 -2.4102970977208775
3.025961293849812 -2.3641400652505276
3.0747467136820776 -2.3169878391353858
3.1147154283435476 -2.2629732213260216
3.1701184113983985 -2.2197408086785484
3.2166657815135618 -2.1696684654664975
3.2708152149871537 -2.1240922365586052
3.366750941741011 -2.1037794790058237
4.020114640292907 -2.4155285713281542
4.078979651824707 -2.3549999999999995
4.145697411840736 -2.297997599967638
4.202830542008492 -2.2346846388608403
4.267921250862282 -2.1746144937524288
4.341175243624977 -2.1173326389912437
4.404655844998119 -2.0539247520597996
4.467237287872318 -1.9889421846406625
4.547293976055056 -1.9302117747370122
4.6266474342882695 -1.869286901145401
4.695909545280925 -1.8025907862128605
4.764241587384556 -1.7340421266611405
4.841055107068502 -1.6669089508206423
4.935983319571847 -1.603798200805977
5.011036921246307 -1.5320277327471405
5.085074371513707 -1.4581216122719256
5.196680945435188 -1.3924464626515616
5.288111708204181 -1.3184743310181892
5.3785227576144985 -1.2417298199781346
5.467845088101973 -1.1622263516712745
5.575642401982731 -1.0837950937387744
5.672492657350318 -1.0002135033615187
9.684821712292557 -1.3611129273894398
9.171126441165816 -1.1260727330635627
8.781628336101853 -0.92298633065338
8.786437237169196 -0.7687136510343451
1.4364922323741467 -0.10044932219154043
1.3980813486564032 -0.07327033874012136
1.3491776164757794 -0.04711432054837631
1.2998020037033087 -0.022688128368468567
1.25 0.0
1.239811141993925 0.021640983982231556
1.2392446255036786 0.0432753759111012
1.448012825394132 0.07588713655226854
1.4664191538819416 0.10254201640386419
1.4743681531757833 0.12899049926653408
1.4718924051450444 0.15470212563612712
1.4193409968470905 0.1742731610693609
1.3764726155507827 0.19345061033449096
1.333379259803436 0.21118652780431169
1.2999462339761148 0.22921559452034804
1.25648279481301 0.24423551408197736
1.212903024909919 0.25781049661402156
1.1789877783901346 0.2721907757560766
1.1449489570056757 0.2854678368076079
1.1108147002324285 0.29764190186789885
1.0862257164103002 0.311470212073209
1.051935231559339 0.3216088751950104
1.0366516027617174 0.33682852386869266
1.002249690135276 0.34510224372458614
0.9678833994094858 0.35228074762543876
0.9429162307621738 0.3619516290407533
0.9271838545667874 0.374606593415912
0.9205048534524404 0.3907311284892737
0.9409518213718789 0.41893874236807416
0.9516231763884825 0.4437491748277344
0.9527216890771171 0.46467341559642206
0.971197111365321 0.494849644716106
0.9889013040019983 0.5258081503201978
0.997066466138911 0.5526829670808242
1.0045894683899488 0.5799999999999998
1.0286007608425347 0.618045689892065
1.0261381963492753 0.641202309722178
1.0483382099317802 0.6807987937687837
1.0694584685960038 0.7213588454772634
1.0812806984614691 0.7571208959833808
1.0679024325749307 0.7758765330260646
1.0462125181619537 0.7883776803291833
1.0322940872248056 0.8065165326766124
1.0258326691232016 0.8307029161857855
1.011178664917051 0.8484796447862318
1.0188579333007424 0.8856796891371849
1.025539859158804 0.9234002367752243
1.0238951822668385 0.9547977040874978
1.4099060086637563 1.3615304060996345
1.4354267658086914 1.4354267658086912
1.4518359942593044 1.5034201827077807
1.4731164577349969 1.5797239954974083
1.505543864307431 1.672075857324137
2.0009800384210474 2.3018642196794543
1.960502209543945 2.3364355515128827
1.913133988791506 2.362523722829191
1.8531410407302313 2.3719123683562326
1.8114632196876652 2.4038928852423513
1.7633557568774194 2.4270509831248424
1.7149935446896278 2.4492646124240856
1.6663948523428254 2.470531966214024
1.623024324344781 2.4992382924773633
1.5738602147726186 2.5187028455845857
1.5296630824828616 2.5457868830852735
1.4850000000000003 2.5720954492397827
0.8823535088483335 1.5918078669937004
0.8497435286424625 1.5981351430746578
0.8217228045285798 1.6127218087809458
1.2975785944956693 2.660430377045534
1.2509500547524703 2.6826710496284836
1.1998730970736111 2.6949591000456725
1.1565641403282503 2.7246943662192233
1.1088355165111001 2.7444642095176905
1.0607691306540885 2.763398062431717
1.0157998256772365 2.7908870837341477
0.9669374187377556 2.8081901695299707
0.917780473293594 2.8246378533966063
0.8712676800737555 2.8497881727698458
0.8186429467764875 2.854947236936807
0.7712807544055118 2.8784589623414236
0.7233464678430064 2.9011842215652295
0.6748531630315955 2.9231101943557056
0.6258141893614553 2.944224278208755
0.5781512559909311 2.9743303658464217
0.5105256423407754 2.8953347938558913
0.4348878128118419 2.745773586854483
0.36602525552497217 2.6044050207903298
0.30101727821071433 2.4515889945540654
0.24459660404630906 2.3271812351617593
0.20481599545699716 2.341057540515602
0.1653228427735768 2.3642267991157833
0.12455957585820664 2.3767382927158858
0.08410778705302761 2.408531893116021
0.04240934764259915 2.429629899230031
