# .PCD v0.7 - Point Cloud Data file format
VERSION 0.7
FIELDS x y
SIZE 4 4
TYPE F F
COUNT 1 1
WIDTH 172
HEIGHT 1
VIEWPOINT 0 0 0 1 0 0 0
POINTS 172
DATA ascii
8.450062914116737e-17 -1.38
0.023386224625960024 -1.3397959115095643
0.04606733564730143 -1.3191958916652065
0.06803674311582716 -1.298218395180946
0.08440533323039152 -1.2070525008143873
0.0958713170224242 -1.0958141679009201
0.11289074032906574 -1.0740836469977353
0.1267441171413534 -1.032247997706975
0.14056483196966613 -1.000170749428986
0.1533057757394263 -0.967934573783235
0.16496576878358388 -0.9355673653615976
0.17554427574642134 -0.903097008771851
0.18712052173598331 -0.8803328406604252
0.20020643836604 -0.8671893576588594
0.22256814395169428 -0.8926720681739168
0.23811352149431908 -0.8886517601859429
0.25634274090980924 -0.8939733772226366
0.2777531194865999 -0.9084895181648837
0.29356614465620007 -0.9035036904803958
0.3190567913680136 -0.9266082040873304
0.33859994189241216 -0.9302956945780492
0.3619516290407532 -0.9429162307621738
0.38584479121838955 -0.954999370203791
0.41026768491373744 -0.9665300961250625
0.43520820809110644 -0.977493639677583
0.46065390529736244 -0.9878754878699485
0.4909756844037668 -1.006649331855067
0.5220890747004788 -1.024657502816623
0.5539764440873511 -1.0418781595735336
0.5866196404980679 -1.058289845638669
0.6200000000000001 -1.0738715006927038
0.6540983551357691 -1.0886024718916825
0.6941942361454985 -1.1109430059649181
0.7352626972702868 -1.1322052667263225
0.7828700648590454 -1.1606526015770584
0.8259500683455063 -1.1795789437761481
0.8699221733928603 -1.1973451516749223
0.9207769854226339 -1.221912330372358
0.9789017457677968 -1.252937098234688
1.038378645232232 -1.2822908364040018
1.092738936467117 -1.3022755533022625
1.167785071603103 -1.343383052796534
1.2378916217638878 -1.3748179271331795
1.329896802121872 -1.4261397181573823
1.4101564920317644 -1.4602597946874616
1.5061374439273463 -1.506137443927346
1.6041277547551922 -1.5490881661235638
1.7186811988050505 -1.6026961461468714
1.8504306154387118 -1.6661352098335571
1.9999803875903457 -1.7385564268248441
2.167905774026708 -1.819088935412906
2.3780666420583305 -1.9257203966125027
2.5846752718300476 -2.019369639068159
2.8191833504669437 -2.1244070317267303
3.1147154283435476 -2.2629732213260216
3.4895877086711047 -2.4434356188554562
3.9130573424597968 -2.639390504381925
4.461727421469656 -2.897479666279944
5.563195510786154 -3.476270373369824
6.240177949111378 -3.7494771853451945
7.655664569454438 -4.419999999999999
7.674031105806999 -2.9457845452623683
7.526937892495126 -2.739581348038606
7.592514162062514 -2.614312280290968
7.722578912316646 -2.5092179943245725
7.870388141575783 -2.4062191298681235
8.007309927166196 -2.296059173955603
8.06548064951372 -2.161139026606048
6.966723314661654 -1.7369992104056142
7.015464466453694 -1.619647591275828
7.111133057334767 -1.51151799224511
5.340051877955292 -1.0380009348484038
5.052063772952627 -0.8908151514313526
4.760657801668565 -0.7540141214939128
4.505719712774145 -0.6332376093682978
4.267948452057684 -0.5240381766421341
4.067594552056238 -0.4275214147647026
3.895121269538725 -0.3407789541433434
3.7308895479717425 -0.26088921180302865
3.58508002976892 -0.18788608291216832
3.457892261486071 -0.12075225859065335
3.329492824870783 -0.058116513436154094
3.22 0.0
3.119524808887941 0.05445150808432456
2.998172481057287 0.1046984901075029
2.90601194613581 0.15229763266696655
2.8231062622353025 0.19741082069587462
2.7395354197523 0.23967829255605996
2.6553734606332897 0.27909099692463474
2.5806199942674373 0.31686029285338346
2.5053782139161727 0.3521079454289655
2.4395902012699904 0.38639312864937025
2.3733866847594216 0.41849210817730215
2.3068238811020105 0.44840113913488033
2.259520957695091 0.480276005789024
2.192332645766779 0.5061398722736962
2.144353555069952 0.5346473892752657
2.086399784784388 0.5590491374214448
2.028262178429853 0.5815948207738681
1.989113892403114 0.6081331458232924
1.9496658584050646 0.6334848384686421
1.9004923369546267 0.6543919904588849
1.8511944629482395 0.6737796823515674
1.8111460274045714 0.6952338221178825
1.770921162222564 0.7154985934243919
1.7305491244905877 0.7345745215598345
1.6991945512152378 0.7565301561209883
1.649480172406703 0.769165236368073
1.6178292833385006 0.7890680642203394
1.585991613055295 0.8081030895363932
1.5451582875031222 0.8215752348753089
1.5130920933511547 0.8387206430261631
1.4895636945092345 0.8599999999999999
1.457184411193591 0.875564727347092
1.4162403205812313 0.8849651712694522
1.3838064371099497 0.8986544077747944
1.351331243264718 0.9114844326573173
1.3270263117481669 0.9291938268886947
1.3025173609436655 0.9463342561908819
1.2698304609751956 0.9568858868117568
1.2450569906986206 0.9727451310145402
1.2123476998728744 0.9817398100377466
1.1797084424032263 0.9898929189172705
1.1547056577408412 1.0037703143554761
1.1370115829804133 1.0237698277290532
1.1189711634773307 1.0434574908956227
1.0933964965147498 1.0558807230976759
1.067731239591687 1.0677312395916867
1.041987555688496 1.0790097005079766
1.0161775564931228 1.089717015412564
0.9903132974111102 1.0998543417065434
0.9644067726160458 1.1094230829274747
0.9448977862392128 1.1260853313848977
0.9188077709327628 1.1346331037271773
0.8927091392222045 1.1426155927297468
0.8666136333389495 1.1500351344681017
0.8464107633011613 1.1649844718999243
0.8202143039819958 1.1713874233332582
0.7996458519631678 1.1855237287537097
0.7788338200714888 1.1992989121619562
0.7524853552111509 1.204228296542125
0.7313540663722772 1.2171775669969993
0.7100000000000001 1.2297560733739028
0.6884296607497987 1.2419599841379418
0.666649619155965 1.2537855818596761
0.640126604632761 1.2563191991055984
0.6181033169725992 1.2672996052818255
0.5958917490543861 1.2778939797216764
0.5734986667368785 1.2880990952760671
0.5548382024547687 1.3071168919024652
0.5281952967164362 1.30732923493917
0.5088824883543261 1.3256842056260265
0.4856686035224497 1.3343635215159897
0.4623067793291626 1.3426363773510297
0.44189430195617485 1.3600108183020694
0.41809153775351354 1.3675158010271407
0.3941614188183088 1.374604225191796
0.37269942494762986 1.3909331898562582
0.3483675296635214 1.397225845837435
0.32617902879860444 1.412836593938591
0.30147195168575086 1.4183140210640182
0.28048922320352104 1.442991959668066
0.25699930294705703 1.4575154744580678
0.23152300825954175 1.4617787440808039
0.20597618942089688 1.4655967417375242
0.18280401510772123 1.488819227461983
0.1578379795341567 1.5017280620060927
0.13247672897644072 1.5142159410994533
0.1067274048285116 1.526272996897531
0.08007401305170427 1.527903188174498
0.05339622995482665 1.5290679653392165
0.027051229977789578 1.5497639274924064
