# .PCD v0.7 - Point Cloud Data file format
VERSION 0.7
FIELDS x y
SIZE 4 4
TYPE F F
COUNT 1 1
WIDTH 180
HEIGHT 1
VIEWPOINT 0 0 0 1 0 0 0
POINTS 180
DATA ascii
2.6329906181668094e-17 -0.43
0.007504534768031947 -0.4299345089172482
0.015006783582075463 -0.42973805561821116
0.023551180309324786 -0.44938329063955823
0.030692848447415103 -0.43892818211432266
0.03834852680896968 -0.438325667160368
0.04599252383776752 -0.43758963396204026
0.053622511098264894 -0.43672030672218165
0.06262789543202946 -0.4456206309337067
0.07039550926810392 -0.444459753267812
0.079878161726788 -0.4530115663856157
0.08777213787321067 -0.4515485043859255
0.09563937777616925 -0.4499478963375506
0.10122797445473931 -0.4384665291533559
0.10886485301985045 -0.43663307682419844
0.11646857029613433 -0.43466662183008076
0.12679318367581963 -0.4421803801316267
0.13449098417245892 -0.43990018774299633
0.14214781741247584 -0.43748599749577066
0.14976135105029212 -0.4349385447756857
0.16074946736306434 -0.4416555317693769
0.17201661578174407 -0.44811860471865683
0.17981116483963783 -0.4450482501920579
0.18755094167485137 -0.44184232965717135
0.19523358867638418 -0.4385018196684484
0.2070829482529427 -0.44409081564795844
0.21480186192664796 -0.44040908268659185
0.22699524986977343 -0.4455032620941839
0.23473578139294543 -0.44147379642946344
0.24725290632563193 -0.44605605064109183
0.25500000000000006 -0.44167295593006367
0.26781979895322827 -0.4457269963650984
0.27555801740126656 -0.44098501000134155
0.28865868855796445 -0.4444954010110747
0.30196416787420327 -0.4476802891797226
0.31546703999307535 -0.4505336243589455
0.3232818887608602 -0.44495934690622113
0.33701641296514706 -0.44723588562648403
0.3509270409356252 -0.44916612955583146
0.36500582680890575 -0.450744657645043
0.3792446897150582 -0.451966221440197
0.3936354173943044 -0.4528257481336631
0.4081696698789035 -0.4533183435412105
0.42965896683937405 -0.4607528320200774
0.43763477338916834 -0.45318407421335016
0.4525483399593905 -0.45254833995939037
0.4675708702201233 -0.45152794079834824
0.48269344306865253 -0.450118917641249
0.512769929579402 -0.46170011838761216
0.535843801958168 -0.46580191058326015
0.5515519990456641 -0.46280707897430823
0.5750880114781584 -0.46569708937687976
0.5910080652050415 -0.46174610649424375
0.6229356978368884 -0.46941571805859766
4.295880240130971 -3.1211396896730323
4.480761682260785 -3.137463106840222
4.659191157759334 -3.142664117505597
4.864289294083459 -3.1589064030871565
5.071327615015427 -3.1689172001145653
5.314437264353097 -3.1932360644423357
5.542562584220408 -3.1999999999999997
5.824967249548376 -3.228832070840605
6.109997342583775 -3.2487432144783646
6.424157039398133 -3.273271503122132
6.758931228169736 -3.296551023853862
7.123579206108069 -3.321779537281898
7.271821842835103 -3.237623678883369
7.281193390808803 -3.0906832263501554
7.2876650968949495 -2.9444078242490686
7.30993473947309 -2.806021044939701
7.320205515922226 -2.6643369165069593
4.642496206192646 -1.5985396383846395
4.660176929846252 -1.5141832724372424
4.657204161539983 -1.423850201999728
4.67173184226023 -1.339597549270616
4.675080999239091 -1.2526841782962004
4.676825400650303 -1.1660635367903984
3.683118844888189 -0.8503149854198095
3.697397930773785 -0.7859061912911302
3.7105507534321696 -0.7212580025233393
3.712725228856024 -0.6546536298043274
3.8026001112912806 -0.6022726904048888
4.990951066457515 -0.7014324288387298
5.012358065788676 -0.6154401841959948
5.012390352656097 -0.5268234548689734
5.01085933140148 -0.4383933860207206
5.017747172806916 -0.3508750629329503
5.023106559815506 -0.26324985990200744
5.036929768176242 -0.17589346338060488
5.069227814442904 -0.08848370063702742
7.44 0.0
6.3290359103399565 0.11047373274800464
6.336137843301067 0.22126280909385615
7.49970780600685 0.39304303138450813
7.491706017451279 0.523871117818381
7.511308023611761 0.6571543003173426
7.528530747937829 0.7912804669361367
6.898195753907188 0.846991936665775
6.892265758441329 0.9686447826820554
6.88418773394811 1.0903482213304092
6.893654271085456 1.2155372436685123
6.949920458809461 1.3509276872659373
6.915503537188006 1.4699356540815585
6.91802745997517 1.5971524858414412
6.918208528347855 1.724903115625631
7.592176994632077 2.034317694505813
7.59396739791272 2.1775351109542935
7.612185857465763 2.327278769592984
7.608452130361228 2.472135954999579
4.094095432345042 1.4097101087994885
3.9655028597165334 1.4433250048343218
3.818343944373555 1.4657249136402781
3.319318199349099 1.3410916044289651
3.1849467929454436 1.351929704572887
3.133460919714121 1.3951066857499945
3.1086357095357093 1.449580637770599
3.109827400195118 1.5167641678902077
3.127432899901171 1.593506654085809
3.1168050027920122 1.6572346166341945
3.0261841867023094 1.6774412860523262
2.9185056107535585 1.6849999999999998
2.82008041930995 1.694475266454078
2.7307148696236916 1.7063400308309198
2.6250388776691773 1.7047201795970344
2.536854972018428 1.7111302846204852
2.506605255524315 1.755143895234201
2.4836821727310885 1.8045007245378923
2.4597973709456618 1.8535902713083088
2.4664736587890395 1.9270204177693104
2.471324157433167 2.0012388435384834
2.474323551274299 2.0762039792875218
2.4679003273284645 2.1453130247989587
2.474672268839723 2.228204919174998
2.4866025855051794 2.318794424212495
2.4817223111683466 2.3965713780835407
2.4960869375885126 2.496086937588512
2.5007701336523906 2.589623281219144
0.6683583928612485 0.7167266275867871
0.6289827699773267 0.6985561359487505
0.6101348969611718 0.7018799096071779
0.5913646009116162 0.7047608876694598
0.5789747597658506 0.7149742845404131
0.5540953277930925 0.7092096782460497
0.5356153706053229 0.7107856039420907
0.5172510220173764 0.7119349550499537
0.4990114996254101 0.7126622785314228
0.48090589698484226 0.7129723123973358
0.46838957011292337 0.7212566884330646
0.45043137459822413 0.7208408817329621
0.4377823636735462 0.7285922055967954
0.4100000000000001 0.7101408311032396
0.3878476961970697 0.6996957657115166
0.3708825346008538 0.6975285983585523
0.35865249479424205 0.7038951541088105
0.35508062889915276 0.7280231775023254
0.3592255224795945 0.7703616189811524
0.3497935130451883 0.7856490935726367
0.35556532692523907 0.8376594166417207
0.34838413187679834 0.8622809847471122
0.3368658725725821 0.8775656009073696
0.318078733292872 0.8739141373308947
0.3027783836451558 0.8793322753073646
0.29665631459994957 0.9130142556433474
0.2894479876755094 0.9467417084034051
0.2866628500496791 0.9997121637758517
0.2795245687107224 1.043199892392194
0.2709525230716278 1.086731213429116
0.26544224412576084 1.1497566764465774
0.2536522627976663 1.193340072895243
0.2480516939895084 1.2761153384819632
0.2361615216270254 1.339338544096603
0.2237012850075302 1.412394327051047
0.2087596514400982 1.4854021031123557
0.19377225601418452 1.5781483811097021
0.17665310292233433 1.6807420031723819
0.3460082987082037 3.95489295142423
0.2776307655016184 3.9703049200341
0.21562413972092914 4.1143536831888445
0.14413492138132947 4.1274841155888655
0.07242748671472694 4.149367934899024
