# .PCD v0.7 - Point Cloud Data file format
VERSION 0.7
FIELDS x y
SIZE 4 4
TYPE F F
COUNT 1 1
WIDTH 172
HEIGHT 1
VIEWPOINT 0 0 0 1 0 0 0
POINTS 172
DATA ascii
9.123618653647781e-17 -1.49
0.025829561527179724 -1.479774588831459
0.05130226015267659 -1.4691045157180707
0.07693385567712763 -1.4679854160892236
0.10184445166642284 -1.4564435133793432
0.12637582698410463 -1.444482312233031
0.1515662717380975 -1.4420567482839963
0.17549185450341237 -1.4292664583635035
0.1990175343728936 -1.4160833383004456
0.2237012850075302 -1.412394327051047
0.24658041228704117 -1.3984270092773352
0.27094877343469376 -1.3939106004956827
0.2952346009612181 -1.388969593042004
0.31718098662484984 -1.3738617913471816
0.3411098727955314 -1.368116974049155
0.36493485359455424 -1.3619554150675863
0.3886486717019688 -1.3553789912730296
0.41224410365905884 -1.34838970590788
0.3399186938124422 -1.0461621679246689
0.3548692883583009 -1.0306152474032553
0.47882820065593634 -1.3155696691002716
0.5052988088588732 -1.3163484013610545
0.5281952967164362 -1.30732923493917
0.5509308911698759 -1.2979118433679409
0.5734986667368785 -1.2880990952760671
0.5958917490543861 -1.2778939797216764
0.62248702844049 -1.276287545744817
0.6446665096301565 -1.2652292643474823
0.6713443347838239 -1.2626150577882653
0.693277756952262 -1.2507061812093359
0.7150000000000001 -1.2384163274117472
0.7468052086195788 -1.2428925860180626
0.7630837404958151 -1.2211892584652535
0.7897266007717894 -1.2160723235208646
0.8164216390672903 -1.210394855930361
0.8431573614360377 -1.204153505104818
0.8699221733928603 -1.1973451516749223
0.8906862342650315 -1.1819805548699933
0.9234922129884875 -1.182016130410083
0.9439805865747563 -1.1657189421854561
0.8420517686893666 -1.0035182204858613
0.9972097240655713 -1.1471585619386133
1.0237698277290532 -1.1370115829804133
1.0570974580968726 -1.1335982375097142
1.083667057916036 -1.1221700885282957
1.1172287142747452 -1.117228714274745
1.1437502825384553 -1.1045068090298056
1.1701659225906729 -1.0911973760999976
1.1890317207638308 -1.0706089701741732
1.2301766157631182 -1.0693762172545267
1.2639733311463137 -1.0605995559827897
1.2978337556331412 -1.0509650530532286
1.3238580660592927 -1.0343112785471058
1.3576803670803979 -1.0230855393584821
1.3995994002686591 -1.0168684864659785
1.4335160775057356 -1.0037587636143306
1.467396503422424 -0.9897714391432219
1.5096070223017632 -0.9803502630270485
1.5434475350046952 -0.964453060904433
1.5857595062989078 -0.9528204385836002
1.6281277591147447 -0.9399999999999998
1.6705236406362458 -0.9259863746705037
1.7129183301463182 -0.9107748318046281
1.7641929178929685 -0.8989011894843025
1.8155639735243174 -0.8855097165139364
1.8579309634251322 -0.8663674365684337
1.9093100064730357 -0.8500795840284222
1.9698803863882226 -0.8361646149670457
2.0212608029555965 -0.8166423736466882
2.08188435108876 -0.7991605274860196
2.133102249184012 -0.776385725349268
2.193603095390415 -0.7553181183406035
2.2635145087824653 -0.7354604466123748
2.3333836045498066 -0.7133869595234775
2.335865921130115 -0.669798774635308
2.472770115300015 -0.6625767554624531
2.5518777601058704 -0.6362545854271261
2.6405428755679874 -0.609617357271874
2.7290318060473178 -0.5800736173815485
2.827086288329272 -0.549529906684449
2.9150309489161357 -0.5139986058941137
3.0322032056270727 -0.4802538076735087
3.149052458598194 -0.4425704610530081
3.275402300416362 -0.40216883323698666
3.3913196632058122 -0.3564420597426983
3.5265292312447793 -0.3085313293267099
3.152302398821045 -0.22043045703143596
3.8447237088051094 -0.20149343153533375
4.047532849427338 -0.1413429616451289
4.2393542274630995 -0.07399820329408209
4.47 0.0
4.739278075041295 0.08272440651272385
4.287386647911921 0.14971884085372916
5.222832466766421 0.27371705115059625
5.187333061351086 0.3627336634694516
5.1602885361152415 0.4514667474328693
5.2411303885908 0.5508650014205336
5.697214910421188 0.6995300311455466
6.238688833071893 0.8767905360484123
6.864433967136208 1.0872195320296045
7.661804318434979 1.3509828222487181
4.131916175369015 1.4227328349777748
2.104911470560435 0.766125121049498
1.2229903587113344 0.4694620139043434
0.9735430472951269 0.39333692308670765
0.9665300961250625 0.41026768491373744
0.968358185101157 0.43114084166034816
0.960686254258849 0.44797535744514144
0.9617096295401087 0.46905712706431285
0.9533769808815538 0.4857698347213151
0.9447539243590519 0.5023345721809032
0.9445892837105475 0.523594389866044
0.9353074360871939 0.5399999999999999
0.9343123577653025 0.5613915016519591
0.9328529057720686 0.5829111906565254
0.9225376247399665 0.5991029385165297
0.9202317055360965 0.620704122852529
0.9174502896036709 0.6424056087131716
0.9060990336999413 0.65831948256757
0.9024581263534408 0.6800509761618144
0.8983322591116629 0.7018540818712504
0.8859463960609466 0.7174252457968147
0.8732906651556349 0.7327778750426547
0.8754631130584155 0.7610284736289884
0.8694794458085512 0.7828828094398641
0.8629973679106211 0.8047580648737481
0.8560143624029949 0.8266434608462067
0.848528137423857 0.8485281374238569
0.8405366282553868 0.8704011584097677
0.8388579828768731 0.8995650529915796
0.8297219518849842 0.9214995835919688
0.8200737862381342 0.9433869752784649
0.816340264301905 0.9728764427611021
0.8118233044542904 1.0025182902794922
0.8003599179233558 1.0244139796887386
0.7943958305607037 1.0541988732624266
0.7876322380719141 1.0840827724624296
0.7743281890739122 1.105855259790139
0.7660942777549231 1.1357814744004073
0.7570482586708878 1.165752089444139
0.7471861625688189 1.1957478155805608
0.7365044471213777 1.2257492400040204
0.7300000000000001 1.2643970895252803
0.7126701417621155 1.2856909694949117
0.7042073441788363 1.3244213892883903
0.6855256546067158 1.3454198515244353
0.6794752775230701 1.393130771763709
0.6635106709328982 1.4229032256475405
0.6507786289212807 1.4616727322281615
0.6368917394375161 1.5004229111274776
0.6255930110045733 1.5483970371265348
0.6092255142270102 1.587086725045243
0.5916948479534071 1.6256682339596213
0.5762556333891674 1.6735678788107906
0.5624109297624044 1.7309228596571795
0.5438113707842904 1.778726846091246
0.5264673496104684 1.836009839242189
0.5072853284009406 1.8932146195265738
0.4886822291113287 1.9599973670775128
0.4656486824918008 2.0169460341054366
0.44493101835000476 2.0932358655703442
0.41977978982839886 2.159579803584861
0.39418136330393205 2.2355135993377124
0.3676209928445427 2.3210676003985737
0.3367989043233584 2.3964487263546004
0.30711074538097166 2.5012163021361316
0.2728192891285755 2.595702146911193
0.2379351777011073 2.7196115257904654
0.19741082069587443 2.8231062622353025
0.15491443047911413 2.9559434228735384
0.10783944481072834 3.0881176554890057
0.05654579685679886 3.239506532306708
