# .PCD v0.7 - Point Cloud Data file format
VERSION 0.7
FIELDS x y
SIZE 4 4
TYPE F F
COUNT 1 1
WIDTH 168
HEIGHT 1
VIEWPOINT 0 0 0 1 0 0 0
POINTS 168
DATA ascii
4.188292053083948e-16 -6.84
0.11291706964922488 -6.469014587661851
0.21498089968740666 -6.15624749443763
0.20725038672205812 -3.9545729576281126
0.26856242391488216 -3.840621593500323
0.3259624778762423 -3.7257681708631285
0.3815288909269351 -3.6300049180941976
0.4338548625223251 -3.5334642998431063
0.48432239134102784 -3.4461328792206647
0.5303128364863828 -3.348263474617517
0.576511949854209 -3.2695617400005306
0.6182211450200056 -3.1804720743704316
0.6611591768004744 -3.110509370333502
0.6995977790094206 -3.0302909014820814
0.7378617815789864 -2.959401965141789
0.7712807544055118 -2.8784589623414236
0.8103738261019775 -2.8261093860586577
0.8420305096014818 -2.7541576971735418
0.8745180940811013 -2.6914899411152846
0.9083351509354674 -2.6379968259220936
0.9542361998786161 -2.621742411992684
0.9998465792313874 -2.604689389927193
1.0638827253011904 -2.633202146969676
1.1370275839037867 -2.6786691235466016
1.2039404635043691 -2.7040945546220985
1.2847595156917264 -2.755175672591416
1.363334266514031 -2.795249483990409
1.443689789171759 -2.83340074691901
1.5539508728212987 -2.922556532363048
1.5950236506104492 -2.877498836488612
1.6250000000000004 -2.8145825622994254
1.6532722204612746 -2.75150703525378
1.6851432602615917 -2.696792945777435
1.7156129602973356 -2.6418122890280853
1.74468185882873 -2.5865972263717305
1.7723511883247323 -2.5311798168529847
1.8045007245378923 -2.4836821727310885
1.835535820613747 -2.435838305644243
1.8592976554834881 -2.3797924758923004
1.8816679692390144 -2.3236664247563428
1.909079200769022 -2.275151996063365
1.948495316101807 -2.241487453261633
1.9672439826950432 -2.184845786903539
1.9982551949831207 -2.1428663457441695
2.0214558580356825 -2.0932788189854747
2.0506096654409878 -2.0506096654409878
2.0788920229787022 -2.0075626906265023
2.106298660663211 -1.9641552769799955
2.1253942008653475 -1.9137135341863345
2.1509223036349003 -1.869768232622946
2.1755662184578974 -1.8255168115097713
2.207094530537797 -1.7872699105815384
2.23795054024309 -1.7484785899248694
2.2601384934338387 -1.7031365155202967
2.281427924137352 -1.6575544114647742
2.301817244452067 -1.6117497861464394
2.329595578879667 -1.5713320587527986
2.3650510016060955 -1.535882078742376
2.383015150199557 -1.4890731324953057
2.3914967689588935 -1.4369562289990512
2.4335313846342728 -1.4049999999999998
2.4664275741330957 -1.3671631290946704
2.489912211862174 -1.323909807056212
2.5126383982111973 -1.2802532092655217
2.543587151026643 -1.240590345413089
2.5739141151840856 -1.2002358633435863
2.6036045542814126 -1.1591994327660304
2.6234388323394553 -1.1135837161944302
2.6424739855153443 -1.0676287912353493
2.679375824046969 -1.028516015195012
2.706314747863416 -0.9850180127779259
2.742003869238019 -0.9441476479257545
2.7675744624188967 -0.8992394536310969
2.7924098874120635 -0.8537253777903911
2.8164967690992744 -0.8076174525438076
2.868799704078533 -0.7686925639544866
7.830286511047292 -1.9523096974893186
8.964204596024164 -2.0695496999635576
9.09 0.0
7.808810499171416 0.13630329427518423
6.855821073350997 0.23941054737915665
6.051694980612717 0.31715589483223955
5.696090726983596 0.3983094650789555
5.71815756704662 0.5002739633715579
4.624526813462471 0.4860573541945886
4.248097529024858 0.5216007897740312
3.94126691359145 0.5539089418210604
3.684077510419864 0.5835005546000611
3.4665232906029724 0.6112415853875948
3.2491859772117677 0.6315777746963633
3.051820514289474 0.648684475351409
2.874391691116444 0.6636056103144017
2.73623394809831 0.6822197455910629
2.6079997309804845 0.698811421776806
2.480055175520863 0.7111443780078579
2.371635794788328 0.725081827712387
2.2635145087824653 0.7354604466123748
2.155782352366442 0.7422953921623172
2.067323765728999 0.7524443153164713
1.997862112704012 0.7669074120269426
1.900726901861914 0.7679435165026196
1.822599609835832 0.7736476344087619
1.7631427332502196 0.7850017211362943
1.6857324838881689 0.786069966837701
1.6268172238014924 0.7934517756882301
1.5681714825715276 0.7990232795416022
1.509840383788765 0.8027963723638732
1.4518687138513968 0.8047839696089195
1.411621408168635 0.8149999999999998
1.3543243351093375 0.8137601583578856
1.3144745490424603 0.8213748595614676
1.258005851918136 0.8169585525225405
1.2269756073814617 0.8276054971367053
1.187770464219038 0.8316858327090167
1.140713962068676 0.8287772057323871
1.1021170038652641 0.8305047319498265
1.0716946249051418 0.8372996064428954
1.041375588352341 0.8432893240067822
1.011178664917051 0.8484796447862318
0.973575358487376 0.8463161473977544
0.9512253766110647 0.8564871761393386
0.914192127023963 0.8524979500781231
0.899174750423314 0.8683229630737466
0.862670273047588 0.8626702730475879
0.8335900445507968 0.8632077604063813
0.8115780484743732 0.8703109049268128
0.7828828094398641 0.8694794458085512
0.7544678833390834 0.8679160172561876
0.7327778750426548 0.8732906651556349
0.7111320418863163 0.8781749364463769
0.6895408523647374 0.8825720440395286
0.6619965254672532 0.8784990610520221
0.6406859249987957 0.8818285238686928
0.6137267868956193 0.8764926873892213
0.6039283357484065 0.8953605783594452
0.5773173771159289 0.8889908020221494
0.5564152274448652 0.8904505009642474
0.5407899786555571 0.9000256657372179
0.5200000000000001 0.9006664199358162
0.4993539088537272 0.9008582983535777
0.4835557096694676 0.9094360206446948
0.4630703097343378 0.9088266546721352
0.447138569724859 0.9167699272251504
0.4268444443581064 0.9153708649070165
0.4108040095065584 0.9226809122190269
0.3907311284892737 0.9205048534524404
0.3746065934159122 0.9271838545667873
0.35478427004984714 0.9242446222322297
0.33859994189241216 0.9302956945780492
0.3190567913680136 0.9266082040873304
0.3028366544874485 0.9320353859692504
0.2836005535810547 0.9276156132841443
0.2673682351424892 0.9324238450601693
0.2510544737494451 0.9369480515003963
0.23466423873167763 0.9411868544877166
0.21820252271354917 0.9451389628416782
0.20167434009322646 0.9488031727117915
0.18508472551524857 0.952178367944234
0.1667022505602532 0.9454154428917196
0.15017708643862168 0.9481808069713322
0.13360617692166285 0.9506573459919075
0.11699456966894159 0.952844305575669
0.10034732473694731 0.9547410195535423
0.08366951303775202 0.9563469101680757
0.06696621479436023 0.9576614882494312
0.0502425179932262 0.9586843533643908
0.03350351683440104 0.9594151939383319
0.016754310179792255 0.9598537873501356
