# .PCD v0.7 - Point Cloud Data file format
VERSION 0.7
FIELDS x y
SIZE 4 4
TYPE F F
COUNT 1 1
WIDTH 171
HEIGHT 1
VIEWPOINT 0 0 0 1 0 0 0
POINTS 171
DATA ascii
5.3272135762909864e-17 -0.87
0.01518359360043673 -0.8698674947860604
0.03036256213117594 -0.8694700195066133
0.04500892236893181 -0.8588213998889335
0.060688132157388955 -0.8678807237260471
0.07582549619046278 -0.8666893873398186
0.09198504767553504 -0.8751792679240805
0.10602632876247832 -0.8635151519279501
0.1224723288448576 -0.8714359004925819
0.1345336399345986 -0.8494119729118185
0.14760095101689086 -0.8370865900603768
0.16409573602382863 -0.844199377764991
0.18088317101145054 -0.850988412638411
0.19570741727916266 -0.8477019563631547
0.2080528302157142 -0.8344543245973569
0.12940952255126037 -0.48296291314453416
0.1350623043503296 -0.47101823100977624
0.143262135314141 -0.46858933042188733
0.15141832724372425 -0.4660176929846252
0.1595283956840068 -0.4633041020436652
0.16758987022957772 -0.46044938418509507
0.17560029527719706 -0.4574544089836288
0.18355723077379696 -0.4543200887377258
0.1914582529597441 -0.45104737819169577
0.2033683215379002 -0.45677272882130043
0.2070829482529427 -0.44409081564795844
0.21918557339453873 -0.4493970231495835
0.22699524986977343 -0.4455032620941839
0.23943049702080435 -0.45030327235805273
0.24725290632563193 -0.44605605064109183
0.25000000000000006 -0.4330127018922193
0.26266941820412776 -0.4371553233580772
0.27555801740126656 -0.44098501000134155
0.28865868855796445 -0.4444954010110747
0.2963722388394958 -0.43938991345417217
0.3039955112660544 -0.43415058347316565
0.3174040362379355 -0.43686917696247163
0.32498011250210607 -0.43126317542553816
0.3324571966758555 -0.42552580694762987
0.3398330111669123 -0.41965881918676423
0.3535331853275967 -0.4213244437154379
0.36739305623468416 -0.4226373649247523
0.37471313956096064 -0.4161611022673408
2.8234732106587437 -3.0278043247033657
2.820312984063529 -2.920519589374923
2.8142849891224593 -2.814284989122459
2.8198120173275125 -2.723060812199269
2.83033882526619 -2.639333653441869
2.823950336814098 -2.542696304163661
2.8226138300331676 -2.4536607684244975
2.8343644395402188 -2.3783141558401955
2.844354218932513 -2.3033126312424055
2.844718820520266 -2.2225379259256264
2.851128770868835 -2.1484796326528124
2.8558299901435644 -2.07488194059243
2.8588406345685815 -2.001781762865151
2.8684700010404445 -1.9348074460087838
2.8766400480528045 -1.8681118901015425
2.874883045970284 -1.7964263057505647
2.8800821303590975 -1.730527931697782
2.8925248486400252 -1.6699999999999997
2.8949912306314 -1.6047198430153757
2.8960681045772803 -1.5398667259377217
2.904681268854079 -1.4800090291509223
2.876140948157335 -1.4027876697250479
2.90018491851728 -1.3523784375702383
2.8959391007270447 -1.2893551585502865
2.899590288375187 -1.230803054741212
2.9020854647940446 -1.1725186373918046
2.9034351264062974 -1.114524323085884
2.913047124436316 -1.060262444309573
2.9216523986018887 -1.006005597272614
2.9197435050261213 -0.9486821727310885
2.926292553246889 -0.8946574164515744
2.9318481726118724 -0.8406939352418474
2.936414511918768 -0.786809897111663
2.9399960506162692 -0.7330233436669932
2.9523412962992626 -0.6816016946619108
3.2181056064142206 -0.6840294627904282
5.4382145963000585 -1.0570818343860582
5.455834951687632 -0.9620109042747941
5.8471149763232155 -0.9260920330381668
6.1990781103222306 -0.8712236120100096
6.620282831447618 -0.8128685205123336
7.071050676068423 -0.7431973738330161
7.610927493420935 -0.6658698745921083
8.239879055146147 -0.576188473126475
8.987665812791164 -0.47102360618649447
9.064474801063199 -0.3165384350916838
9.058620118116906 -0.15811880232178863
9.867006522545427 1.5627803057519065
9.84807753012208 1.7364817766693033
8.059159176105322 1.566541852041433
6.269926120703695 1.3327139381418371
4.9887747317004045 1.1517493982405886
4.201380494775065 1.0475218079465614
4.143821794780103 1.110333703489814
4.133425292534771 1.1852406300130964
4.131236545760314 1.2630457644022226
4.14660641104687 1.3473140954747707
2.3448860674863057 0.8074090230537486
2.114308396768294 0.7695453224827546
1.9325114828492074 0.7418216555587716
1.7987366778595675 0.7267367912268693
1.684523881817966 0.7150379651353709
1.5712981871452734 0.6995870260903763
1.468218614999373 0.6846415840199331
1.3841428313007174 0.6750915660551792
1.300869525315017 0.6628261296197382
1.2272971540739084 0.6525654722723881
1.1719904075667904 0.6496448911300917
1.0911920087683928 0.6299999999999999
1.0286007608425347 0.618045689892065
0.9837357915414541 0.6147063465105176
0.9225376247399665 0.5991029385165297
0.8870702026338947 0.5983364067136991
0.8355350851747716 0.585047965078067
0.7928366544874484 0.5760295472466237
0.7587037345449281 0.5717242719944459
0.7249698933181842 0.5664085572996057
0.6994313653112737 0.5663883519448538
0.6664586655135109 0.5592252204272892
0.6415031431893562 0.5576501746419311
0.6093787568914633 0.5486870972142637
0.5777694242791447 0.5387787044493738
0.561085044264148 0.5418335289580178
0.5374011537017762 0.5374011537017761
0.514047194139658 0.5323114522506018
0.49103881924499887 0.5265746651658028
0.47508273051478933 0.5276328260889499
0.4658019105832602 0.535843801958168
0.44352345068371213 0.5285706657520948
0.42793786591388955 0.5284592537907402
0.4001799589616779 0.5122069898443693
0.3911797650488314 0.5191130815307403
0.3703047089442581 0.5096807064562169
0.361353154901159 0.5160657879020648
0.346699600151863 0.5140032949841259
0.33222981135916657 0.5115890464467086
0.323250751182255 0.5173093386554198
0.3090228449460326 0.5143003804212674
0.29500000000000004 0.5109549882328187
0.2811895797428755 0.5072794301408495
0.2675987907879578 0.5032801279295883
0.2542346798541463 0.498963653545486
0.2454878422018834 0.5033246659275336
0.2282138613399777 0.489406204999791
0.22370515369169022 0.5024500017034306
0.2188094319539933 0.5154827179333666
0.21352575824706993 0.5284947971030687
0.21860444922263308 0.569484060163293
0.20521208599540128 0.563815572471545
0.19534089267429405 0.56731114535959
0.182320026681219 0.5611233446141406
0.17249930578641468 0.5642198060181909
0.1653824134901995 0.5767570175629914
0.15270323661048724 0.5698962375105503
0.14273391840380392 0.5724744785028378
0.13047161151944178 0.5651346375754364
0.12266789758247794 0.5771070844329453
0.11066921731839605 0.569343766399645
0.10071594304681963 0.5711884967470806
0.08916764507293162 0.5629823541392285
0.0793286675472373 0.5644527991826951
0.0682468323068826 0.5558258449191403
0.05853593942988594 0.5569322614062331
0.04880721593868868 0.5578690309313775
0.03836606055926888 0.5486602276429033
0.028261416371189743 0.5392599487674699
0.018496733252325575 0.5296771383201208
0.00907525134738747 0.5199208014813235
