# .PCD v0.7 - Point Cloud Data file format
VERSION 0.7
FIELDS x y
SIZE 4 4
TYPE F F
COUNT 1 1
WIDTH 156
HEIGHT 1
VIEWPOINT 0 0 0 1 0 0 0
POINTS 156
DATA ascii
8.38883057415937e-17 -1.37
0.02390979681907853 -1.369791342364256
0.048161305449451484 -1.379159341286352
0.07222361961526266 -1.3781087579613118
0.09626393376689281 -1.3766383893585572
0.12114648241924511 -1.3847106303475263
0.14633984857471483 -1.3923306535155826
0.17061708076720647 -1.3895646122978507
0.1962340723536923 -1.3962779769256142
0.22057259570672558 -1.3926405602391443
0.24484393051037187 -1.3885789317472133
0.27094877343469376 -1.3939106004956827
0.2973137178693957 -1.398751069049342
0.3216800077117271 -1.3933491926428863
0.3483675296635214 -1.397225845837435
0.37528761539865507 -1.400592448119149
0.40243053949281876 -1.4034420760699455
0.4327101229896504 -1.4153310388252924
0.4604353216186717 -1.4170742092797788
0.48835223168573516 -1.4182778633989752
0.5164504164217599 -1.4189358573867217
0.5483029628043092 -1.4283780525407186
0.5768941538605048 -1.4278631360328524
0.609540560443267 -1.435987571385807
0.6385765296290066 -1.4342663684988834
0.6719630361677121 -1.4410293813882735
0.7057775463304148 -1.447058414541659
0.7445444195728568 -1.4612506996689232
0.7793227942245788 -1.4656930041458185
0.8144801620138463 -1.4693611079941848
0.8500000000000002 -1.4722431864335457
0.8961662503434946 -1.4914711032216752
0.9326579050504407 -1.49256464923531
2.9519435697814473 -4.5455944782641975
2.974906246464373 -4.410479885992823
3.011276290842992 -4.300548232517207
3.0212161967833118 -4.1583473510872295
3.033147716686323 -4.025122970638356
3.0659941471217786 -3.9242935529614753
3.1466019552491877 -3.885729807284854
3.2332216767232933 -3.8532035488884597
3.2540527837929165 -3.7433595179049486
3.2720486650948164 -3.6339781965844575
3.3281519971049924 -3.569006063901552
3.4316123500674474 -3.5535386136729366
3.5779603128039303 -3.57796031280393
3.726180165754213 -3.5983303589776057
3.8761746185816035 -3.6145913083312418
3.879215988991998 -3.49286176519324
3.894301433949504 -3.3852645895910176
3.9221475487691677 -3.291072561595081
3.932358564972272 -3.1843611787121775
3.9400537680336094 -3.0783073766282913
3.9532457747340994 -2.978984364602639
3.956093102493493 -2.8742698837101934
3.97288741480161 -2.781845716302573
3.9959610997153012 -2.695309794729
4.000458609099672 -2.5979281970216785
4.00278701385833 -2.501218927180727
4.0115429672858856 -2.410378190579053
4.02701812759764 -2.3249999999999997
4.049489244055402 -2.2446685417405403
4.052729451222475 -2.1548744731872387
4.054079685057074 -2.0656567738149376
3.945705863253343 -1.9244493344040496
4.196205053979689 -1.9567225518594384
4.30279910549665 -1.9157295888870187
4.32637281122647 -1.8364363038995866
4.32067676228123 -1.7456667253181501
4.341148983211989 -1.6664109653856465
4.3225860556151785 -1.573292659298076
6.164896533856422 -1.0870375921949837
6.123667711689854 -0.9698936832494314
6.050537900010995 -0.8503476468659998
7.012875273326564 -0.4903880104212009
8.065083974044104 -0.28163893838918286
7.808810499171416 -0.13630329427518423
7.82 0.0
7.948789176493311 0.13874663117640393
8.105059607124867 0.28303491825728283
9.82749898892162 1.556522927150297
6.0898129049077205 1.4059440896491562
3.4797673392967146 0.997807228057537
3.0601752190817137 0.9355894551127575
2.7200216366041388 0.8837886039123495
2.4583482965582237 0.8464772015886074
2.25526228988618 0.8208483439816049
2.072548546823788 0.7955768479905667
1.9285424174989179 0.779181714305097
1.804189512766783 0.7658330118389765
1.6991945512152378 0.7565301561209883
1.6041647830548704 0.748034323281038
1.5099739977826006 0.7364635266056501
1.4345205039432725 0.7309247045806703
1.3685687689313368 0.7276809223181308
1.2944371665663057 0.7175182379645788
1.2470765814495917 0.7199999999999999
1.191462547975936 0.7159029241249752
1.1363844488496109 0.7100918140724947
1.0902717383290512 0.708030745519535
1.0445873414193525 0.704583058373141
0.99936549403257 0.6997632523482762
0.9627302233061874 0.699464450228043
0.9264171916548596 0.6981054268563759
0.8904521515755957 0.6956974671179939
0.8626320172172377 0.6985456340653197
0.8273279985684963 0.6942106184614625
0.7999921550361384 0.6954225707299377
0.765439170241716 0.689204524549624
0.7386672386353622 0.6888183436631234
0.7121464023352647 0.6877117867544073
0.6858935777509512 0.6858935777509511
0.6668720356406375 0.690566208325105
0.6410784584587486 0.6874724795220202
0.6222914639137382 0.6911246876939767
0.5970137163813617 0.6867857180027225
0.5785088487178854 0.6894399988070802
0.553801944123857 0.6838884460821343
0.5356254835333227 0.685569355637848
0.5115427696792411 0.6788401835401989
0.49961746444860217 0.6876644452187053
0.48180420653487865 0.6880877172027531
0.46413010988071984 0.6881011852206846
0.44115761836217204 0.6793231600357934
0.42393541138656393 0.6784384769251409
0.406880079178943 0.6771621675546687
0.3900000000000001 0.6754998149518622
0.37330340758967956 0.6734571744973348
0.35679838771727707 0.6710401705727844
0.3404928748046602 0.6682548931412758
0.3287783600918081 0.6740955347243753
0.31696369630552457 0.6797308402774874
0.3009851158760923 0.6760236386555246
0.2852337237971698 0.6719685430202814
0.26971674725945677 0.6675723752880869
0.2580249236726161 0.6721779070779852
0.24283430176122486 0.6671817607579948
0.2311533896645813 0.6713181886755148
0.2163118960624632 0.6657395614066074
0.20466019330591573 0.6694133291741248
0.1901897755137294 0.66327057019744
0.1785851411207393 0.6664888201394571
0.16450688900777402 0.6598010938676776
0.1529667169538283 0.66257164405396
0.1413799497560763 0.6651403684989879
0.131658206809816 0.6773227565788881
0.1180807608135127 0.6696692720483015
0.10481109157695473 0.6617511881987423
0.09324597764324387 0.6634796060568522
0.08165246008144883 0.6650059215996857
0.07003407038932782 0.6663296698967431
0.058394347640931106 0.6674504477214696
0.04673683740856391 0.6683679136740822
0.03506509068277246 0.6690817882855645
0.023382662790675725 0.6695918541027942
0.011693112312980012 0.6698979557547822
