# .PCD v0.7 - Point Cloud Data file format
VERSION 0.7
FIELDS x y
SIZE 4 4
TYPE F F
COUNT 1 1
WIDTH 166
HEIGHT 1
VIEWPOINT 0 0 0 1 0 0 0
POINTS 166
DATA ascii
3.0003846579110155e-17 -0.49
0.00907525134738747 -0.5199208014813235
0.019194723186375596 -0.5496649548605027
0.02983149505847806 -0.569218834810107
0.04603927267112266 -0.658392273171484
0.05665123278597794 -0.6475265537596346
0.06794350112397475 -0.6464392319893777
0.07921507321334587 -0.6451549985668593
0.09046251562404256 -0.6436742446820207
0.10481109157695473 -0.6617511881987423
0.12329020614352058 -0.6992135046386676
0.14883101639370505 -0.765669203089178
0.18088317101145054 -0.850988412638411
0.22270154380042648 -0.9646263641373829
0.2757909609836211 -1.106137127954636
0.3571702822414786 -1.3329776402789142
1.0722293141281267 -3.7393079972000605
1.137325931371446 -3.7200255006962077
1.205166278062295 -3.7091204135510987
1.2762271654720545 -3.7064328163493214
1.3441391632698785 -3.69299199968862
1.4155534007039356 -3.687642684663947
1.4834421099270123 -3.6716480640844775
1.5512025801024167 -3.6544042682061884
1.6228792058724435 -3.6450463759939775
1.6904730469627978 -3.6252311481465997
1.7666357215599822 -3.6221400065856435
1.8386615239451647 -3.6085764229628894
1.9107492605385759 -3.5935967029358324
1.7065298632671067 -3.078661369130673
2.0400000000000005 -3.5333836474405094
1.1794371915440245 -1.962913118607837
1.2241135003787034 -1.9589911021213442
2.2929303374132646 -3.5308030910502346
2.3486101945771365 -3.4819578047311754
2.4491713832189665 -3.4977792291139944
2.0513705305007313 -2.8234693103685666
2.6178953507114096 -3.4740644687057234
2.7089104914328965 -3.4672473158695767
2.7941825362612787 -3.450528068868951
2.5582946865524265 -3.0488568836135324
2.9719474013269984 -3.4188343984091567
2.5895354466087817 -2.8759704745975156
2.5847737846368695 -2.7718305291366563
2.4868769662432104 -2.575236485212371
2.6233661582020913 -2.623366158202091
2.7622648333004203 -2.6674881425625494
2.844965899298573 -2.6529736206431194
2.9354220606357075 -2.6430658951174903
3.17732733273787 -2.7620085120500355
3.0258755503199635 -2.5390110582618304
3.0230977900676166 -2.448056321183868
2.4901139813972413 -1.9454902620290804
2.4513214929560907 -1.7809893144461935
3.604268994871564 -2.523736319944603
3.598023064888881 -2.426897201063041
3.589510030806415 -2.3310550698643158
3.570282484818553 -2.2309601024217924
3.5658159709207875 -2.1425583916258253
3.5420439014783542 -2.0449999999999995
3.5247174197717652 -1.9537827695927386
0.918265496573284 -0.48825042529732643
0.9088266546721353 -0.4630703097343377
0.898794046299167 -0.4383711467890774
0.8881816312959169 -0.4141658965058854
0.8952745484897489 -0.39860191021428415
0.9020947563833915 -0.3829165059194882
0.8900965003841159 -0.35962232967927554
0.9055730137022857 -0.34761691105894127
0.9021049159544721 -0.32833933759264194
0.9455185755993168 -0.3255681544571567
0.9986093421099113 -0.3244678440936948
1.0328091364400784 -0.31576144110055565
1.0958383333696835 -0.314226585631379
1.1301332167582099 -0.30281828276994927
1.2031667005822355 -0.299983150543588
1.2569373835729536 -0.29018686010358585
1.3107177849832996 -0.2786016656957975
1.3840943286612062 -0.26904068348092813
1.4575154744580678 -0.25699930294705686
1.540793811328415 -0.24403776546276015
1.633942313423591 -0.22963561658410797
1.717104842339487 -0.21083396409090513
1.8199750685239402 -0.19128708777980583
1.9724655022216562 -0.17256837064036318
2.1148357865508274 -0.14788372433754565
2.306834225283066 -0.12089605892120024
2.4984770675477392 -0.08724874175625243
2.739582684728512 -0.047819593638156827
3.03 0.0
3.3994821635317303 0.05933818188676394
3.8476546840235186 0.13436306230462874
4.443901429657854 0.23289500528110005
5.217259982858881 0.36482635768177535
6.57488500740552 0.5752279021345439
9.079984904712337 0.9543448696336762
9.061946364485271 1.1126671052889965
9.031244786923121 1.2692586807557966
3.727279095358485 1.5059185055319662
3.0836912590656755 1.308949280439067
2.640146372587117 1.1754688984890624
2.3473371684249233 1.0945812979084115
2.1211539492660343 1.0345559064222227
1.9245740922468748 0.980619479437421
1.7570657097892648 0.9342484099439227
1.6355388523506702 0.9065939898606503
1.5328649646984565 0.8849999999999999
1.4400410651795488 0.865263965848891
1.3653574348118458 0.8531700154154599
1.2915526746359531 0.8387441139231415
1.2269756073814617 0.8276054971367053
1.1631959028903682 0.8144785396184854
1.1083532822936781 0.8052657956406882
1.0541988732624266 0.7943958305607037
1.0007736570805368 0.7818900736635861
0.9558895325920741 0.7740640809913001
0.903932442880394 0.7584893794301163
0.8679160172561877 0.7544678833390833
0.8248907562799077 0.7427349730583327
0.7898619977487041 0.7365582288674984
0.7553067903555838 0.7293912889819472
0.728319984622144 0.7283199846221439
0.6946583704589974 0.7193398003386511
0.6683583928612485 0.7167266275867871
0.6356740760409153 0.7059875842035245
0.6166954872510769 0.7094270054094055
0.5913646009116162 0.7047608876694598
0.5663883519448538 0.6994313653112737
0.5417820982865793 0.6934494631739153
0.523579070142282 0.6948128937411447
0.5054953169715269 0.6957546151624548
0.48180420653487865 0.6880877172027531
0.46413010988071984 0.6881011852206846
0.44115761836217204 0.6793231600357934
0.42393541138656393 0.6784384769251409
0.4017296984298424 0.6685904945476475
0.3900000000000001 0.6754998149518622
0.3684553113872162 0.6647109774259408
0.3521036720894182 0.6622106946441951
0.3359529698072647 0.6593448278993922
0.3200109371560265 0.6561196537983919
0.30428514845330357 0.6525416066663879
0.2887830165838183 0.6486172749262465
0.2735117899424916 0.6443533974167083
0.2584785494569794 0.6397568596510832
0.2472738851862571 0.6441704942830692
0.23257369746145481 0.6389909821344177
0.21813066348629503 0.6334974456515422
0.20395121628746532 0.6276973007548013
0.1929653251170063 0.6311611389356034
0.17916428128104947 0.6248201023599073
0.16823237931663848 0.6278517870878945
0.157249232139784 0.6306922220793977
0.1439686747800737 0.6235968414625506
0.1330634821233659 0.6260144644696356
0.12211775704098875 0.628241397406505
0.10939835193016616 0.6204288843976911
0.09855371297534549 0.6222436545749368
0.08628732259524059 0.6139662026197736
0.07555899291119145 0.6153786140176196
0.0637623625932686 0.6066583561746467
0.053165003076071596 0.6076787658359648
0.04185388424647514 0.5985384301558945
0.03140157374576638 0.5991777208527442
0.020939698021500648 0.5996344962114575
0.010296919797997323 0.5899101401422708
