# .PCD v0.7 - Point Cloud Data file format
VERSION 0.7
FIELDS x y
SIZE 4 4
TYPE F F
COUNT 1 1
WIDTH 142
HEIGHT 1
VIEWPOINT 0 0 0 1 0 0 0
POINTS 142
DATA ascii
8.38883057415937e-17 -1.37
0.023735272754705695 -1.3597928654126923
0.047114320548376463 -1.3491776164757794
0.07013018136554491 -1.338163576571129
0.09207854534224531 -1.316784546342968
0.11417402299943245 -1.3050150545001866
0.12647944055386068 -1.2033714933956106
0.1547740661245373 -1.260533612584479
0.17118291418088052 -1.2180297245521314
0.19710742595069097 -1.2444873091498736
0.22747911274367885 -1.2900981564459926
0.2595002337121011 -1.335012969488823
0.28691813332850774 -1.3498436890126517
0.3126819655379725 -1.3543743900514769
0.3338522159275414 -1.339008102260875
0.36493485359455424 -1.3619554150675863
0.3886486717019688 -1.3553789912730296
0.41224410365905884 -1.34838970590788
0.4326237921249264 -1.3314791228132148
0.4623067793291626 -1.3426363773510297
0.4856686035224497 -1.3343635215159897
0.5052988088588732 -1.3163484013610545
0.5394334945189135 -1.3351447505761738
0.5587455137396614 -1.3163219404369897
0.5816333995983946 -1.3063700044289193
0.6127964795240142 -1.3141462912031423
0.6356381628441623 -1.3032513671337922
0.6900655596041112 -1.354329916766319
0.6700000000000002 -1.1604740410711478
0.690151020379473 -1.1486041829408304
0.6729974655761702 -1.0770210821186612
0.6644596227183331 -1.023178092893417
0.704583058373141 -1.0445873414193525
0.797271246527954 -1.1386213415616986
0.8170215006865376 -1.1245336221811768
0.9508677365802363 -1.2618441058747227
0.9789017457677968 -1.252937098234688
1.0257922374112352 -1.2667479171748623
1.0477438037890592 -1.248652442283934
1.082497397834337 -1.2452708073675736
1.1107568065557045 -1.2336204102924744
1.1457572449049973 -1.2286742187202064
1.1809192297802955 -1.2228776605757068
1.2091525958289964 -1.2091525958289961
1.2444578545858664 -1.2017589808940652
1.3018095888821235 -1.2139570809112472
1.3302292376045357 -1.1977437853823563
1.350930148598762 -1.1743456618930082
2.0314948751494786 -1.0350983394061666
3.653887742944632 -0.8435664537894937
3.7071794067811235 -0.7879853081993078
4.093385354976759 -0.7956735107201918
4.136192562651273 -0.7293223462011075
4.582873900361439 -0.7258559177866711
4.654259923085381 -0.6541135745123076
4.545861374517255 -0.5581615927955754
4.4753485291572295 -0.47037808470444054
8.178758471333232 -0.7155486479582737
8.27978161715654 -0.5789787320762401
8.128844412902232 -0.4260146838175628
7.975138799612385 -0.27849798368595774
7.618839437091702 -0.13298733705210036
7.66 0.0
7.30888665159322 0.12757709105654247
7.2655713124288255 0.253719341027182
7.489721510659304 0.3925196718220787
7.4717547364460835 0.5224759883434985
9.224762904329564 0.8070621778433146
9.41812234913755 0.9898845471446783
9.627697670920822 1.1821326310299305
9.466962737169412 1.3304948451782257
8.000275558820615 1.26711916682587
8.036031264579618 1.4169691297621516
8.687400573511827 1.6886596090824215
7.90343261392915 1.6799264618074954
7.794960518281882 1.7996084347509198
7.3742475196975725 1.8386064065574748
7.244443697168013 1.9411428382689055
7.199850102578009 2.0645237950693236
7.344420525796113 2.245414692270618
5.3449376215787625 1.7366755083872043
5.285448837600181 1.819925983415506
5.23408789777751 1.9050521983239748
5.172035562794497 1.9853584404809634
5.01606465320632 2.026621670380084
4.933906014505081 2.0943188487025073
4.860061834658637 2.163838941163257
4.912188205738643 2.290590978634591
5.069198421127302 2.4724132678903965
5.248028427469487 2.67400404346593
5.430127696082401 2.8872501111332287
5.658789505191891 3.1367182429938008
5.871652237658495 3.3899999999999997
6.111602854006061 3.672221474108686
6.4536460117504015 4.032685600814689
6.717751249242847 4.362558670470366
7.063400118168955 4.764323537570762
7.4788581643584955 5.236752863885051
7.920276374930735 5.754417619943312
1.780015719763121 1.9088331612260347
1.7397395765330315 1.932176546241225
1.699192885085414 1.9546978127769792
1.6648199090881368 1.984055107678153
1.629939812819079 2.0128080401735544
1.668442598132534 2.1355091422742163
2.052189228948485 2.7233470892612686
2.010225562840258 2.76683812076232
1.9673671766840881 2.809691511911242
1.9180316589046615 2.8435988738637934
1.8735582804516935 2.8850267537322583
1.828221461604557 2.92576593173967
1.782031739188788 2.965798860429308
1.7350000000000005 3.005108151132002
1.6919855746597166 3.052422777916491
1.6384557541227591 3.081487099077655
1.5935066540858094 3.1274328999011707
1.5474501481654432 3.1727429834360596
1.496068646562076 3.208329566109741
0.5531618345830885 1.2424218223939372
0.5118577783209486 1.205861358022697
0.5132110329797998 1.2702418807564988
1.2972919773539866 3.3795611439198705
1.2483735231386912 3.4298780658685653
1.1948351268577653 3.4700531724494925
1.1433628791873056 3.518909110292068
1.0905464586158082 3.567016739742122
1.0363964578719167 3.6143439767280787
0.21999618833714263 0.8210369523457081
0.20079517334772415 0.805345452809077
0.19345790673572402 0.8379582557153022
0.8087764772810835 3.804994166854504
0.7498793518298216 3.8577948309493197
0.6893832653377138 3.909686779458466
0.6319952387625329 3.9902608960043566
0.5692179829266677 4.0501964011530225
0.5045390816973105 4.109141067795073
0.4076610067438485 3.8786353919362657
0.05665123278597794 0.6475265537596346
0.043946578458798895 0.6284653516636892
0.030878214183336937 0.5891914255051985
0.024080652724725742 0.689579670643176
0.06108342253049259 3.4994669330473696
