# .PCD v0.7 - Point Cloud Data file format
VERSION 0.7
FIELDS x y
SIZE 4 4
TYPE F F
COUNT 1 1
WIDTH 180
HEIGHT 1
VIEWPOINT 0 0 0 1 0 0 0
POINTS 180
DATA ascii
6.490628035480972e-17 -1.06
0.019023123016639124 -1.0898339877204666
0.03943643127382622 -1.1293116345315781
0.060709709241815 -1.1584102603153055
0.08370776849295028 -1.197076860311789
0.10720156357961978 -1.225319478652847
0.13484171761527297 -1.2829332450250726
0.16208622672884618 -1.3200863816829582
0.19484234134409165 -1.3863752962381983
0.22839431895873713 -1.442024977268901
0.2639452300537342 -1.496907784578556
0.33200765195518817 -1.7080312991989353
0.35968722511472345 -1.692195349269484
0.3891653240148867 -1.685660212078457
0.41852487938742505 -1.6786116064574739
0.4477569480273609 -1.6710516794800883
0.47685262556340857 -1.6629827339732917
0.5058030491703346 -1.6544072278160513
0.534599400268659 -1.6453277731906155
0.5632329072108812 -1.6357471357868179
0.5916948479534071 -1.6256682339596213
0.6199765527133693 -1.615094137840159
0.648069406609528 -1.6040280684005421
0.6759648522864435 -1.5924733964727218
0.7036543925211346 -1.5804336417216995
0.73112959281141 -1.5679124715734043
0.758382083945104 -1.554913700097559
0.7899434695468115 -1.5503513520877599
0.821575234875309 -1.545158287503122
0.8532649316335533 -1.5393306845653365
0.8800000000000002 -1.524204710660612
0.9116173925907962 -1.5171861222427387
0.9379570976927727 -1.5010451301968741
0.9694574823267484 -1.4928336109428546
1.0009552972126368 -1.4839772548735248
1.032437585431883 -1.4744736797201852
1.0638913066493765 -1.464320759818655
1.095303342136728 -1.453516628286073
1.065094352313389 -1.3632586037396288
1.0257922374112352 -1.2667479171748623
0.9898929189172706 -1.1797084424032263
0.9578461823261407 -1.101875987125247
0.9367828489024015 -1.040402755668352
0.900237835282498 -0.9653868861373051
0.8822161304829267 -0.9135615464300869
0.8555992052357225 -0.8555992052357224
0.8488209643996084 -0.8196968771416168
0.819116145813471 -0.7638381632699983
0.8100278597703597 -0.7293523609311555
0.7999921550361384 -0.6954225707299377
0.8120071097061168 -0.6813548662677317
0.823774719144389 -0.6670796145128278
0.8510516138952597 -0.664914393351711
0.8705127059515493 -0.6559783752357327
0.8980088637561917 -0.6524416300446453
0.9174502896036709 -0.6424056087131716
0.9451028327127475 -0.6374799099566513
0.9644711531372376 -0.626334890267281
0.9922162725030184 -0.6200055391528497
1.0114574148284925 -0.6077449283938638
1.0392304845413265 -0.5999999999999999
1.058289845638669 -0.5866196404980678
1.0860255392164802 -0.5774500222266457
1.1048480899935762 -0.562948219677038
1.141468438799942 -0.5567313564221283
1.1691370452772785 -0.5451775576455022
1.1967445495118072 -0.5328250024292982
1.2334765036262703 -0.5235797121756268
1.260970042210831 -0.5094649670456404
1.2976767928311104 -0.4981314498679673
1.33436352151599 -0.48566860352244956
1.3710019346190094 -0.4720738239628772
1.3885425137909242 -0.4511648117874232
1.4248940863849229 -0.4356338400368777
1.4707303947856278 -0.42172515440000874
1.5068442890109466 -0.40375771035993235
1.5621761193043544 -0.38949425191546505
1.6077106068956382 -0.3711692396673772
1.6432879692327935 -0.34929164057383566
1.6982150273644587 -0.3300995620014225
1.7431097228316081 -0.3073572744704667
1.7975927798831508 -0.2847107263732202
1.8617039692341522 -0.261645429804923
1.9156140726677513 -0.23520783277193463
1.9691533528291811 -0.20696635726995385
2.0421991310880783 -0.17866927263269922
2.1248114270534253 -0.14858128907498688
2.206971271807608 -0.11566246329690585
2.29859890214392 -0.08026884241575222
2.3896359914237753 -0.041711251385107596
2.5 0.0
2.5996040074066173 0.04537625673693713
3.1980506464611067 0.11167838944800311
3.325436350732731 0.17427873428900295
3.2819857253548217 0.22949879861817224
3.257556662760008 0.2849992787848422
3.2123057220395226 0.3376269363545207
3.1761476852522303 0.38998189889647195
3.1589551392856094 0.44396219206260873
3.1309720396865868 0.49589725417753183
3.092296344458333 0.5452552778741613
3.062676812356712 0.5953240655748198
3.032257562274798 0.6445262415350539
3.010803500186377 0.6950987579225427
2.978807879667309 0.7427002194909799
2.955733028444549 0.7919862780137135
2.9222355556524895 0.8379375616836775
2.8976034105679975 0.8858862653098922
2.872190679211364 0.9332313230123411
2.855466098309937 0.9832158264606132
2.8190778623577253 1.0260604299770062
2.7914054752266333 1.071520169140448
2.7722797251546947 1.120073714313577
2.7431044632882724 1.1643787628980358
2.713230009198525 1.2080078299351265
2.1660756110175936 1.0100576455602717
2.1391298301920174 1.0433233293580042
2.1205955275683155 1.0804973893801213
2.101415271004246 1.1173423194304202
2.0815949029917618 1.1538468961862822
2.061140461006964 1.1899999999999997
2.040058175671027 1.2257906182859288
2.018354468852294 1.2612078488750276
1.9876492460306552 1.290794512985614
1.9731094226809993 1.3308791102603774
1.9495818654078003 1.3651119185154896
1.9335506165561245 1.404806752979011
1.90873886901303 1.4383379053333953
1.8833457011200654 1.4714309260283234
1.8573788478821602 1.5040757346091118
1.8385066634855471 1.5426902632476942
1.8188500883368806 1.5811022598671227
1.798410477655294 1.619296067388437
1.7771894949345843 1.6572560149518714
1.7551891128263089 1.6949664239199533
1.7324116139070416 1.7324116139070413
1.7088595913291336 1.7695759088330816
1.6845359493543715 1.8064436429993511
1.6594439037699684 1.8429991671839376
1.6335869821863636 1.8792268547547022
1.6133969003132136 1.9227715522286346
1.5921805893560887 1.966179282486136
1.5637801473271722 2.0015473141610736
1.5406464592692437 2.04450690572107
1.5106080983916559 2.0791736755436148
1.4855629701492092 2.1216037947084887
1.448309619989234 2.147207312917558
1.3670439778877181 2.105063125543014
1.282404619444356 2.052276392698551
1.2051890952895272 2.0057714836429423
1.1350000000000002 1.9658776665906756
1.071429260744405 1.9329095527780646
0.9999744287339475 1.8806783727895142
0.9488401444556529 1.8622036355536886
0.8898934279818271 1.824551913987309
0.8325579756291779 1.7854263404622004
0.7809343547055367 1.7540072786737937
0.7345745215598345 1.7305491244905877
0.6892761318852785 1.7060182924028888
0.6450623091815403 1.6804447676949632
0.6019554522531771 1.6538590125831987
0.5664885887554527 1.645202321542811
0.5253288904374106 1.616796077701761
0.48533702983974303 1.5874658948986387
0.44928888998170863 1.5668565643794596
0.4166986626150584 1.5551405803254001
0.3822365950474749 1.5330672475160745
0.348674134232991 1.5102736004171147
0.31602577004299404 1.4867843531153846
0.28621349306481736 1.472440775171496
0.2552628211703877 1.4476673969279457
0.22682997430833482 1.4321480938629498
0.20040926538249426 1.4259860189878613
0.17427316106936092 1.4193409968470905
0.14738513320739136 1.4022758724692652
0.12114648241924511 1.3847106303475263
0.09556636902945158 1.3666627488559593
0.07065354092797436 1.3481498719186749
0.04641633061432644 1.3291897999353974
0.023037176497214353 1.3197989576064366
