# .PCD v0.7 - Point Cloud Data file format
VERSION 0.7
FIELDS x y
SIZE 4 4
TYPE F F
COUNT 1 1
WIDTH 159
HEIGHT 1
VIEWPOINT 0 0 0 1 0 0 0
POINTS 159
DATA ascii
0.08045559367587739 -4.609297874670964
0.16158466973258 -4.627179529098413
0.24807243259155443 -4.73350399473668
0.31669439079832856 -4.528940788179602
0.3948155146468924 -4.512761982355608
0.8926917947627737 -3.580391229958427
0.9576304668793267 -3.5739255572695527
1.3708569633348013 -2.5782069711480666
1.4156440911193044 -2.5538895448470353
1.4950000000000003 -2.5894159573154716
1.5502646054792635 -2.5800735751133574
1.6109545632689428 -2.578066212315535
1.661149056795833 -2.5579452322335428
1.7279060717246075 -2.561726099195079
1.7895584814152636 -2.5557543781816543
1.8397678396754409 -2.5322231923935856
1.9137717736235136 -2.539660921950391
1.9270204177693104 -2.4664736587890395
1.9005475809705092 -2.3469808036000517
1.8897955724784257 -2.2521706627697955
1.8828894132027563 -2.1660164952393552
1.9337874523771004 -2.1476885456296695
2.14829483419687 -2.303764160100387
2.222906785468792 -2.3018873610836836
2.170817818242701 -2.1708178182427007
2.16521279901934 -2.0909216950815814
2.157493419776553 -2.011895162184371
2.155119993884443 -1.9404787584406888
2.1509223036349003 -1.869768232622946
2.014696885402912 -1.6905314134755982
2.0361224190172638 -1.6488194245505743
2.056708066913544 -1.606876450599968
2.084438681223434 -1.570737210426846
2.1600753749811097 -1.5693866236209033
2.301817244452067 -1.6117497861464394
2.321305203154117 -1.5657401297180908
2.406984530003367 -1.5631140304931275
2.213405530968272 -1.3830892796486647
2.237206654832513 -1.3442493755152414
2.32960833618014 -1.3449999999999998
2.4226965887761263 -1.3429226480823537
2.807773345291388 -1.4929195696591329
2.9225013993378464 -1.4890888391457133
3.019947995565201 -1.4729270532113001
3.1358249431468086 -1.46225918562282
4.723030016012246 -2.1028284447018866
4.78662523795269 -2.0318018681442234
4.978977299023649 -2.0116374066434477
5.237386192649302 -2.0104441969491345
5.23408789777751 -1.9050521983239748
5.219262537308229 -1.7971362126035049
3.262123850892377 -1.0599282907060696
3.2705622653935813 -0.9999112301517595
5.200425775026305 -1.4911980949699655
5.1870216871722965 -1.3898582722005364
4.608904699810983 -1.1491290040984217
4.589283005138458 -1.0595194659596041
4.607075199456225 -0.9792640637516463
4.692177936879834 -0.9120669978998842
4.953582997651407 -0.8734503336646596
5.037210537035202 -0.7978157717051774
4.7730920913343695 -0.6708143466275155
5.131463603985635 -0.6300645054046125
5.1118425421929246 -0.5372763011957388
4.0545124212334045 -0.35472387298296876
3.80071903148993 -0.2657721649651174
3.7548470506771974 -0.19678319547346879
3.7577095095918 -0.13122210760140363
3.789422764642723 -0.06614462039730451
3.8 0.0
3.8194181954974145 0.06666819259042302
3.8476546840235186 0.13436306230462874
5.0630517412056895 0.26534329815172525
5.1075279373303 0.35715314556992156
5.100516854229737 0.44623740286800984
5.101897323239242 0.5362310165630623
5.091761757919982 0.6251897316684065
5.080075192644256 0.7139580079251356
5.066841187253057 0.8025088056563844
5.0619118504827485 0.8925516332080219
5.055379994755469 0.9826663261892058
5.008115715757085 1.0645078569869277
4.413896393477116 1.0190282761777083
4.269301195614385 1.0644563406385381
4.250073635671901 1.1388037984510913
4.306452397803669 1.2348553540601563
4.207740926237356 1.2864355007800417
4.1846486716986755 1.3596747752497687
4.179192104148981 1.4390112427006325
4.172235236289434 1.5185694363659692
4.173104506442492 1.6019047344674922
4.163055507004875 1.681983604437445
4.059426403725262 1.723124276637697
4.010464559051018 1.7855738631027624
3.978691185090893 1.8552941690416704
4.790572266774561 2.3365182123857826
4.775794969649652 2.433389078603971
4.759087525509616 2.5304517234159514
3.6296717846284925 2.011959924022299
3.5680246635918875 2.0599999999999996
1.251464259025084 0.751955589368679
1.2042282965421247 0.7524853552111509
1.1657520894441393 0.7570482586708874
1.1274910986748568 0.7605023487202157
1.089472218904359 0.7628566603468913
1.0598122626311812 0.7699986805031398
1.0302398079610078 0.7763413798661423
1.008653764616604 0.7880466884168427
0.9714324518212135 0.7866504888122969
0.9422346650363429 0.7906287599144433
0.9131985920695541 0.7938314250785138
0.8843423423180992 0.7962654215670413
0.7606078496839374 0.7092782944649985
0.7337265963454243 0.7085515378681773
0.7071067811865476 0.7071067811865475
0.6738186193452275 0.6977596063284915
0.6547184256599985 0.7020995535544036
0.6289827699773267 0.6985561359487505
0.5970137163813617 0.6867857180027225
0.5720809726210201 0.6817795543758904
0.553801944123857 0.6838884460821343
0.5294688687800662 0.6776892481017808
0.5175609199107615 0.6868265386406718
0.5113731694944517 0.7038447851062043
0.5047472639889206 0.7208537989743128
0.5088655421583796 0.754424191025088
0.5010679122138251 0.77157692250979
0.49812410837921256 0.7971652103870405
0.4995869326627527 0.8314522816810488
0.5000000000000001 0.8660254037844386
0.49450581265126387 0.8921121012821837
0.48825042529732654 0.9182654965732839
0.49030973971871067 0.9622870461234373
0.48220826146798523 0.9886734509290839
0.4817848183843973 1.0331908772217808
0.4758818723986864 1.068848185441843
0.47669197675691394 1.1230159212119772
0.4682582417698902 1.158979818208484
0.46229465491343724 1.2043187501813903
0.4548867906231396 1.2497911856452582
0.45253973469544784 1.3142708200830502
0.4449844718999243 1.369521383465021
0.44148127413133254 1.4440201815041835
0.4327506486326887 1.5091808626231606
0.424463233968134 1.5841183551140718
0.41852487938742505 1.6786116064574739
0.4094109189058346 1.7733535179091282
0.4012695632782753 1.887824869416245
0.39115844052191706 2.012335726067711
0.37508006376056974 2.1271847465063694
0.36136361424293345 2.281560066774768
0.34236582836176105 2.436059449104263
0.32295376002364085 2.630247301849503
0.30104197421084194 2.864223058660627
0.2788983767925068 3.187823033893586
0.24205496389211456 3.46154725440159
0.20201679109776371 3.854710004152655
0.15355778549100477 4.397319638884022
0.08691298405767232 4.979241521878829
