# .PCD v0.7 - Point Cloud Data file format
VERSION 0.7
FIELDS x y
SIZE 4 4
TYPE F F
COUNT 1 1
WIDTH 154
HEIGHT 1
VIEWPOINT 0 0 0 1 0 0 0
POINTS 154
DATA ascii
2.0451601545760798e-16 -3.34
0.058291037500527214 -3.339491301822347
0.06526205883367703 -1.8688608465257093
0.17323201516414452 -3.3054637600376395
0.22949879861817202 -3.2819857253548217
0.2849992787848428 -3.257556662760008
0.34076279025255024 -3.2421413789005706
0.3948566726326779 -3.2158495313178834
0.44952911610101143 -3.1985658620352724
0.5021546327791413 -3.1704795733103923
0.5574106503108466 -3.1612328871691875
0.6105887852049438 -3.141206987032525
0.663238293708652 -3.1202908463408403
0.7153443528134912 -3.098496806017048
0.7668924090509465 -3.0758374522949086
0.8204563729749907 -3.0619848693363463
0.8737704179398873 -3.047199576124471
0.9268183039710756 -3.0314860764028224
0.9950347218873309 -3.0624019824703947
1.0743749097086173 -3.120211299477745
1.1457674801409905 -3.147970279632793
1.2005326309767557 -3.127494428765626
1.254932087943306 -3.1060659127987376
1.3128565917239596 -3.0928963076001996
1.3666351207346892 -3.0695127376791387
1.41999735944875 -3.0451941644431435
1.477310764679191 -3.028935936028193
1.5344878891196683 -3.011602051756683
1.5868138822163111 -2.984362863863173
1.6386565164326194 -2.9562146101311577
1.7000000000000004 -2.9444863728670914
1.761430216192386 -2.9315121684012238
1.8176230763198928 -2.9088049698165417
0.7733874297213386 -1.190912206482502
1.923623587939369 -2.8518892495893433
1.9960459985016403 -2.8506491141256913
2.0454926779778067 -2.815379140424817
2.1123707312636895 -2.8032106402659975
2.1671283931463172 -2.7737978526956613
2.2277941843164246 -2.7510967035576765
2.2883238904840804 -2.7271182175035618
2.3552519140759216 -2.709407392999751
2.40887018289189 -2.6753213717186193
1.5685962281437464 -1.682113513724092
1.5977142520556937 -1.6544815407788973
0.7636753236814714 -0.7636753236814713
0.7265331983420377 -0.7016049541635873
2.764516992120464 -2.577953801036244
1.3599550306236314 -1.2245090096367106
1.403759819214356 -1.2202697939223437
2.78840177295308 -2.339746899259003
2.867668597776222 -2.3221922429739004
2.9392801109530726 -2.2964173029647053
2.0285341955201237 -1.5286101588062027
3.08235474856855 -2.2394618112343228
3.1619268909555083 -2.2140050443150376
3.233246532964663 -2.1808523235359125
3.312748743384425 -2.151324188309357
3.400672865587268 -2.1249762495751514
1.1228891639197671 -0.6746998781321709
1.1344932789576148 -0.6549999999999999
1.1370056192812146 -0.6302525063202382
1.1301729188594265 -0.6009236003659403
1.140488350961111 -0.5811078396666198
1.1504563792629339 -0.5611150678900191
4.033069652313093 -1.8806512647461127
4.138360923120982 -1.8425169931333747
4.252732422950275 -1.8051778136204446
4.367035955009569 -1.7643970549889456
4.4811860471865685 -1.7201661578174412
4.613890768058811 -1.6793189037290335
2.165237538122436 -0.7455510737068889
1.2173523408577966 -0.3955417527999327
1.1953809449537944 -0.3654646309034209
2.5761813451146947 -0.7387081135895578
5.341569819378548 -1.4312693194169397
5.46276493893386 -1.3620202722261292
5.63185897445866 -1.3002170941075397
1.8486989653868926 -0.3929530956455651
1.8454591048816082 -0.35872091130790423
2.048400126265393 -0.3611882095472151
1.6593164121998314 -0.26280990126758785
1.6735530361732538 -0.2352025406225106
1.846135842052859 -0.2266769787335743
6.7229680126895275 -0.7066124116893373
3.277480556721843 -0.28674239363979537
4.269574135112048 -0.29855770762485634
4.7534765854317715 -0.2491191517164126
4.057526757697528 -0.14169195661215392
3.999390780625565 -0.06980962574913405
3.66 0.0
1.1198294185751583 0.019546695209757534
5.066911492986816 0.17694044828167993
5.093010627248326 0.2669133768390135
7.292193207399315 0.509919823069556
1.5441017820422056 0.13509140125887015
1.521618499913458 0.1599285487995098
7.523499829441221 0.9237696230110178
7.5359400031233506 1.059107298306098
7.6150771059885125 1.20610972546018
7.681500473495222 1.3544557858020565
7.754854749236546 1.507391063474704
3.2376685584288967 0.6881876966067834
3.234908615086981 0.7468375004216317
3.308708426601148 0.824953663994867
3.3034663259086137 0.8851611342506209
2.9222355556524895 0.8379375616836775
5.230987015117805 1.5992732248333696
7.028307655421184 2.2836355884308612
6.817188930071074 2.3473463936360996
5.064943226036046 1.8434885725253543
6.61908522386516 2.540828762276179
6.471743304876177 2.614754022043066
6.388303682959936 2.71167403171556
3.307034556666215 1.4723866479343966
2.9092479963876463 1.3566046201876452
3.5322606019557266 1.7227986068810743
3.492745574818402 1.7796427589790231
3.673061986293136 1.9530017011893057
3.6121793904857045 2.002263731617372
5.545872435542667 3.3322963446680505
5.495351663093641 3.433876832231168
3.782404261433862 2.4563220479177716
5.086934195034639 3.561909669739996
5.032085705012173 3.656024269259183
2.644579361637688 2.6445793616376876
2.3151918980016495 2.5712810961517842
2.2765248305970607 2.6188422433730185
1.6048836329610434 2.3793378332329698
1.5631140304931281 2.406984530003367
3.2579605110371608 7.317499115717233
2.524123090040708 5.946461353302765
2.419958593466793 5.989607700501446
0.41929050096800113 1.092289099001726
0.4001635676910325 1.0994403663195127
2.3668804829035293 6.873920044607032
0.49133702105616645 1.5121798609092942
0.4736421616508336 1.5492137046601175
0.5292237231686384 1.8456224562015722
0.4917561856947894 1.8352590699492297
0.4499747258153819 1.8047500508733536
0.3846663029280094 1.6661728107827523
0.3409751729411251 1.6041620652034412
0.31292675241753365 1.6098685808541688
0.2847830113737659 1.6150847149400211
0.2565525226659787 1.6198088785760258
0.23102734759370866 1.6438449941110067
0.20108441661849336 1.637701150208181
0.1756078182896578 1.670796784218699
0.1472932052435426 1.68356903977505
0.11928357010245415 1.7058345259442993
0.08949448517543418 1.7076565044303211
0.05967813936127685 1.7089583142026536
0.030192663136500625 1.7297365126205568
