# .PCD v0.7 - Point Cloud Data file format
VERSION 0.7
FIELDS x y
SIZE 4 4
TYPE F F
COUNT 1 1
WIDTH 174
HEIGHT 1
VIEWPOINT 0 0 0 1 0 0 0
POINTS 174
DATA ascii
3.91886975727153e-17 -0.64
0.010995016055488667 -0.6299040479485265
0.02198668292257568 -0.6296162210220303
0.0329716524330547 -0.6291366068953815
0.043946578458798895 -0.6284653516636892
0.05490811793102477 -0.6276026597977997
0.06689821649129822 -0.636494013035695
0.0779963797792944 -0.635229537050446
0.0890707846144419 -0.633771563994605
0.1001180576257478 -0.6321205379808882
0.11113483370683547 -0.6302769619278131
0.1240258469947542 -0.6380576692409816
0.1351425990315435 -0.6357959404769737
0.148467695866951 -0.6430842427582553
0.157249232139784 -0.6306922220793977
0.1708205697676637 -0.6375110453507851
0.18192065483921946 -0.6344327193192905
0.1929653251170063 -0.6311611389356034
0.20395121628746532 -0.6276973007548013
0.21487498194172347 -0.6240422598955491
0.22573329459494143 -0.6201971297186996
0.2401065261953511 -0.6254988857531252
0.2509864175886612 -0.6212131825597476
0.26569716737270616 -0.6259433003476595
0.2806482837223022 -0.6303463657733945
0.2958327832184896 -0.6344154509256549
0.3068598027523542 -0.6291558324094169
0.32233325481507824 -0.6326146321737411
0.3380195252058414 -0.6357222668584274
0.3539110227798261 -0.6384723862117588
0.37000000000000005 -0.6408587988004846
0.3862785561825408 -0.6428754755265842
0.3974394481749037 -0.6360360721173195
0.41392566661142066 -0.6373896316385222
0.43057853567247506 -0.6383589308673822
0.4473896203538159 -0.6389385945454136
0.4643503493110538 -0.6391234255562085
0.4874701687531591 -0.6468947631383072
0.5048424097670398 -0.6461688179575119
0.5223359245713651 -0.6450311480092857
0.539941592136693 -0.6434773322199415
0.5642107649318363 -0.6490502389915839
0.5888349335957953 -0.653967446420107
0.6069785404556236 -0.6509047944410618
0.6251925334130977 -0.647405820304786
0.6505382386916237 -0.6505382386916236
0.6761794123183321 -0.6529788682314573
0.7020995535544036 -0.6547184256599985
0.7208504807130725 -0.6490566881680925
0.7471624844205443 -0.6494984387006022
0.7813653319813576 -0.6556433618802701
0.8160032595298193 -0.6607864106023295
0.8431715063591925 -0.6587577785984544
0.8705127059515493 -0.6559783752357327
0.9060990336999413 -0.65831948256757
0.9502163713752304 -0.6653486661672133
0.9782643356149492 -0.6598476260954812
1.0315647985728715 -0.6699060130684832
1.077021082118661 -0.6729974655761702
1.114317490912746 -0.6695494973830705
1.1777945491468367 -0.6799999999999999
1.2419599841379418 -0.6884296607497986
1.2891034855740333 -0.6854284816674006
1.3632399820082028 -0.6946054646015065
1.4290825336156756 -0.6970101233946331
1.504470926480839 -0.7015463144895611
1.5895690962981255 -0.7077217589518923
1.684523881817966 -0.7150379651353709
1.7987366778595675 -0.7267367912268693
1.9231756785842355 -0.7382379760633185
2.104911470560435 -0.766125121049498
2.325975695974319 -0.8008976599646055
2.596384289485769 -0.8436163946436064
2.926292553246889 -0.8946574164515744
3.6335692106468453 -1.0419092049882568
5.476799435059017 -1.4675039857312926
4.686528357913063 -1.1684827557463953
4.706207412912686 -1.0865135924808678
4.12778287509666 -0.8773873352509443
4.407506053680011 -0.8567323892406862
4.658140671747744 -0.8213558803645805
4.810042218698321 -0.7618358447459244
4.842410856146278 -0.6805564636947199
4.863476143042478 -0.5971597826852226
4.982554695795049 -0.5236876009709438
9.892213352051034 -0.8654565254842456
9.885859738074858 -0.6912866548042818
9.886432394070281 -0.5181259668051439
9.873981370948666 -0.3448070274207096
9.878495228145146 -0.1724297756003611
9.86 0.0
9.848499797290454 0.17190620340724258
9.853993554408284 0.34410903748665955
9.856473508027642 0.5165558881178556
8.784485156868895 1.5489417447890186
7.705773390064162 1.4978506137058767
7.365451433525557 1.5655750318577277
7.375981390424231 1.702879481383058
5.860586186707018 1.4612082494219931
5.380206852430111 1.4416220812210405
4.9793355849604914 1.4278015031320557
4.590262828622571 1.4033841826691362
4.289264888491142 1.3936666446310126
4.018453946297097 1.383664656442916
3.7775643355593513 1.374920976169188
3.5662772292193106 1.368965567263047
3.3564055535317707 1.3560758681656016
3.166536695876395 1.3441150820031016
3.0147000102205825 1.3422309221501405
2.8548695291654473 1.3312475244832032
2.723345960286476 1.3282645747709045
2.5928289853881505 1.321112354242081
2.463423784076406 1.3098256601726355
2.3702194063477626 1.3138340708675733
2.2689865579152295 1.3099999999999998
2.168633270776344 1.3030463295224368
2.0692373546216793 1.29300300472902
1.9876492460306552 1.290794512985614
1.9150767926021464 1.291735607017425
1.8267090587644517 1.2790754530628328
1.755566877793636 1.2754939974746666
1.6851209261997877 1.2698296988508218
1.6233021524298472 1.268262639170856
1.562063382528511 1.2649339860101732
1.5014471085131968 1.259863714985617
1.4490423940277222 1.259633335661774
1.3896808236427274 1.251274233891065
1.338377273963082 1.2480569989143722
1.2948116406095722 1.250385066826195
1.2586500705120547 1.2586500705120545
1.2642782342353753 1.309198436616345
1.2753369333168723 1.367631422027849
1.2713481520818306 1.411975168407049
1.2661939259516792 1.4565894898299496
1.272719467179348 1.5167679973755765
1.3404524329361538 1.6553208979033478
1.329828786703422 1.7021032277905195
1.3300112011660266 1.7649844772045171
1.3225168176580646 1.8202882373436318
1.307754274880385 1.8676666609789012
1.3085113941215474 1.9399479197787974
1.301687293685915 2.004422657389563
1.29300300472902 2.0692373546216793
2.358874383088049 3.925826237215674
2.2600000000000002 3.914434825105662
2.1719470987035905 3.9182962879844934
2.0797590231414964 3.9114578363650456
1.9884783888592152 3.9026085759450506
1.902530777064596 3.900766160938385
1.6946992295802046 3.634294226016966
1.6228792058724435 3.6450463759939775
1.5433879575326312 3.6359941711371397
1.4497275165195802 3.588201517173467
0.17201661578174407 0.44811860471865683
0.1710100716628344 0.46984631039295416
0.1595283956840068 0.4633041020436652
0.15141832724372425 0.4660176929846252
0.143262135314141 0.46858933042188733
0.1350623043503296 0.47101823100977624
0.12682133210023516 0.47330365488164344
0.11854172884383715 0.47544490587523824
0.10797650608505527 0.4676976310969129
0.09771849468434683 0.45972937234488864
0.0896802278269761 0.46136477622040206
0.0833511252801266 0.4727077214458598
0.07352419856890853 0.4642135200797147
0.06541135745123076 0.46542599230853804
0.05727859140041932 0.4664966912714213
0.04912837773579712 0.4674252908230884
0.04096319909139943 0.4682115081031204
0.032785542659738855 0.46885510362211735
0.024597899434183664 0.46935588133464967
0.016402763450175505 0.469713688698975
0.008377155089896128 0.4799268936750678
