# .PCD v0.7 - Point Cloud Data file format
VERSION 0.7
FIELDS x y
SIZE 4 4
TYPE F F
COUNT 1 1
WIDTH 179
HEIGHT 1
VIEWPOINT 0 0 0 1 0 0 0
POINTS 179
DATA ascii
4.7761225166746774e-17 -0.78
0.013438352956708371 -0.7698827252704213
0.026872612460925833 -0.7695309368047037
0.039775326744637414 -0.7589584464134761
0.05301492004553518 -0.7581486781974665
0.06623836448822036 -0.7571079705497267
0.07839634745074009 -0.7458914215262049
0.09140200755386062 -0.7444096137309915
0.10577155672964976 -0.7526037322435934
0.1329692952841963 -0.8395350895058671
0.19622244076363135 -1.112832760903795
0.23851124422068115 -1.22703397930958
0.2889972502366853 -1.3596251650199898
0.3509236447764296 -1.5200173010649671
0.49835910493531543 -1.9988091961285528
0.5305790424601675 -1.98014794389259
0.5567874587503383 -1.9417486257954042
0.5847434094454735 -1.9126095119260709
0.6118536488623959 -1.883091902264404
0.6381135827360273 -1.8532164081746607
0.6669392794850542 -1.8324006105325212
0.6952338221178823 -1.8111460274045714
0.7229907252927105 -1.7894648393138994
0.7502037666994055 -1.7673693186286854
0.7727996218440206 -1.7357363695209416
0.7987485146899219 -1.7129217174992684
0.8241377559634656 -1.689732807042434
0.8444223295155572 -1.657272134990364
0.873217106781757 -1.642282522717604
0.8968977974557237 -1.6180464582078822
0.9250000000000003 -1.6021469970012114
0.9940234845764049 -1.6543328903550765
1.0174449873277533 -1.628252344620338
1.0457069472288523 -1.610247490455214
1.0736503746638337 -1.5917521393056802
1.1012667577940083 -1.5727719250348642
1.0932805692640002 -1.5047716095374024
0.87263178357047 -1.1580214895685745
1.1574435736122375 -1.481460216780637
1.195708742994691 -1.4765773267682445
1.2212964584044248 -1.4554844419260582
1.239951564792059 -1.426401106621039
1.264656846018242 -1.404543720152275
1.288976900518122 -1.382258496060232
1.312904320167505 -1.3595522226400505
1.3364318164425748 -1.3364318164425746
1.3595522226400507 -1.3129043201675048
1.382258496060232 -1.288976900518122
1.404543720152275 -1.264656846018242
1.4264011066210391 -1.2399515647920587
1.4554844419260582 -1.2212964584044246
1.4765773267682445 -1.195708742994691
1.5051005393888388 -1.1759134178720072
1.5253938241903293 -1.1494666942204121
1.5452224592561496 -1.1226698318786237
1.5727719250348642 -1.1012667577940083
1.5834617635801296 -1.0680584456291264
1.501220316622309 -0.9749038726768983
1.5180060921200025 -0.9485554829774367
1.200034220982957 -0.7210533048740758
1.1777945491468367 -0.6799999999999999
1.1544980134240024 -0.6399486987251649
1.1566613466451945 -0.615007747249517
1.140488350961111 -0.5811078396666198
1.1145046174109672 -0.543580222018456
1.1147585780550795 -0.5198204619410604
1.096254549171121 -0.4880839716909602
1.095400775608404 -0.4649700429022357
1.094076948388809 -0.44203578023077617
1.101624903266698 -0.4228741804634543
1.1558219235666674 -0.4206847762905725
1.1629878479871596 -0.40044882998230275
1.141267819554184 -0.3708203932499369
1.3005744681097284 -0.397625518422922
1.2784780555979642 -0.3665976832366089
1.255703574175789 -0.33646475863327696
1.1740578287939556 -0.29272549367559797
1.188731479037987 -0.2744402862995153
1.2324659769245951 -0.2619687304303767
1.2466665229785332 -0.2423274241282119
1.2704020013857484 -0.22400614919034012
1.2938717261796304 -0.20492914920270244
1.3170565314262888 -0.18510022427688705
1.3399373047157848 -0.16452361359694911
1.3624949966545346 -0.14320399467668524
1.3847106303475263 -0.12114648241924485
1.4165409513689502 -0.09905419271665793
1.4380265300465862 -0.0753637769898391
1.4691045157180707 -0.05130226015267642
1.499771542734587 -0.026178609655925267
2.44 0.0
2.499619237890978 0.04363101609320878
2.538452700628503 0.08864472162435247
2.546505313624163 0.13345668841950675
2.55376396866515 0.17857657278496078
2.560220374095786 0.22399025886148147
2.5758117090038275 0.27072871986322244
2.5806199942674373 0.31686029285338346
1.6933583975480853 0.23798600264171188
1.6889470624176857 0.26750293521879476
1.6741731801207536 0.29520190203378155
1.6687662118610287 0.32437529214012617
1.6628509212474696 0.3534498743901908
2.1143830405839603 0.48814378792618696
2.7556398626238297 0.6870581835030564
2.762547863186735 0.7402224689932093
2.806884152139891 0.8048610789856375
3.0027969337239315 0.9180471528293933
1.9306447280791614 0.6273044985811431
1.9004923369546267 0.6543919904588849
1.8981790939875351 0.6908806895178508
1.8858324615243476 0.7239032580815066
1.900726901861914 0.7679435165026196
2.6970792206156506 1.1448422064735722
1.5530272779924215 0.6914522932288603
1.4772816928697392 0.6888677666373401
1.4830101763936254 0.7233123922019776
2.1205955275683155 1.0804973893801213
2.0749268432184786 1.1032581725468433
2.05535631177758 1.1393026075788921
2.061140461006964 1.1899999999999997
2.1257749057412387 1.2772944257769343
2.2303664928914 1.3936876649333287
1.7360480756470276 1.1274028024811058
1.6249136422078818 1.0960180908026638
1.597346486363534 1.1184740508845397
1.860739087062379 1.351906080272688
2.2601384934338387 1.7031365155202967
2.222190325170956 1.7361653604183562
2.1915516113086575 1.7746835027605417
2.152584885164328 1.8062331832191754
2.120733920425989 1.8435258714633256
2.088236959591478 1.8802570038683917
2.055103901549869 1.9164153917756208
2.02134483895161 1.9519900209897822
1.4637110370561535 1.4637110370561532
1.4309962431455345 1.4818399886976212
1.404916621728747 1.5065886253354912
1.3851003551628365 1.538309788738206
1.3514815997204452 1.55470173525891
1.3177145998574056 1.5703911083939048
1.2901068016521668 1.59314922098679
1.2559494096643429 1.6075419373577127
1.2337207974616988 1.6372027955969501
1.2167154722454192 1.674665178356141
1.2045105163371967 1.720219293006883
1.1687131682538607 1.7326885266400371
1.1546347542318578 1.7779816040442988
1.0227441799700854 1.6367328255819023
0.9785723423291033 1.6286178713340131
0.9350000000000003 1.6194675050769003
0.9162901822655771 1.6530312464934578
0.8966906849210515 1.6864299023605502
0.8671218545025344 1.7018224611997823
0.8460563133029194 1.7346725093573923
0.8198794277769569 1.758237106851101
0.7931364539978107 1.7814136424030715
0.7658330118389765 1.804189512766783
0.8653412307907572 2.141794704049279
1.0966059256086185 2.856756105081437
1.0568422428763167 2.9036501982284566
1.0222840049954722 2.9689283273818545
0.970313362337335 2.986317461166782
0.9268183039710756 3.0314860764028224
0.8792831650562273 3.0664248100432374
0.8385737061321672 3.1295996771765817
0.7910845986109133 3.1728670249225086
0.7400889687913164 3.205677513143424
0.6923459304231383 3.257231510443573
0.43504450945852235 2.2381099782606735
0.39070839975059346 2.215817444277468
0.3566705802917265 2.251929416556914
0.3173146701889492 2.2578111967307803
0.2754247160956333 2.2431543027093874
0.2362343269848968 2.2476194835322976
0.18302705977008257 2.092008865992666
0.14509346538778048 2.0749332245404344
0.11042886767261176 2.1071083183321506
0.07259095314120224 2.078732920199719
