# .PCD v0.7 - Point Cloud Data file format
VERSION 0.7
FIELDS x y
SIZE 4 4
TYPE F F
COUNT 1 1
WIDTH 532
HEIGHT 1
VIEWPOINT 0 0 0 1 0 0 0
POINTS 532
DATA ascii
-7.5843662686261215 20.838016224671104
-7.533521168687581 21.07850031897605
-7.481706911417143 21.323568276985437
-7.428891921403052 21.573369439993936
-7.375043254462888 21.828059625617342
-7.32012652186954 22.08780148413456
-7.264105809614645 22.35276487854461
-7.206943593522778 22.62312728982569
-7.148600646418949 22.89907425054307
-7.089035942137348 23.180799807330548
-7.02820654767505 23.46850701727037
-6.966067514795023 23.76240847713261
-1.4788979057571585 12.01076259087235
-1.3930449277690935 11.882178086716369
-1.3133941741561923 11.794836019676447
-1.237078306365852 11.728520704332949
-1.1628985430757641 11.674982329100727
-1.0901972815180982 11.629669202385385
-1.0185530834156502 11.589496415802744
-0.9476665682321669 11.55198196145628
-0.8773111991180744 11.514834752576972
-0.8073143670173567 11.475767144225372
-0.7375590925317438 11.432524746155357
-0.6680025215089571 11.383219879280375
-0.5986991725714735 11.32697512591882
-0.5297998156744455 11.264526031336766
-0.4615015814703704 11.198149624533855
-0.39397204168551814 11.130784972675443
-0.32730072192033816 11.065042097526568
-0.26149753927069463 11.002730778529934
-0.19651660169745755 10.94488852452903
-0.13228138323460656 10.892004889541866
-0.06870202728938168 10.844241522375471
-0.005684936684842072 10.801588227089438
0.05686276705730219 10.763959797778684
0.1190317149903938 10.731252667712543
0.1809103308773878 10.703377648794026
0.2425857166860396 10.680279654403517
0.30414504789853 10.661951200784218
0.3656773754864605 10.648444025321638
0.42727588580200826 10.639881979043052
0.489040807446366 10.636478147427875
0.5510833311674365 10.638559906715825
0.6135312026310573 10.646607710339884
0.6765372118302643 10.661318007847472
0.7402929993656496 10.68371092649795
0.8050534131481429 10.715327910082074
0.8711841634350194 10.758631115884228
0.939269453074119 10.817931521313907
1.0104159020711274 10.902082133460855
1.0875739166991605 11.036532816282588
14.587899679060156 17.23673333554352
14.531283278988365 16.968952492100392
14.47585879543221 16.706809103696116
14.421585356630562 16.45010985753357
14.36842392324267 16.19867010768714
14.316337186565423 15.952313393697027
14.265289473458111 15.710870990888182
14.215246657464572 15.474181490001007
14.16617607566638 15.242090403928671
14.118046450840508 15.014449799543147
14.070827818530827 14.791117952762244
14.024491458675163 14.571959025163483
13.979009831459411 14.356842760590705
14.108460437756994 14.32238807167128
14.244641301552392 14.293595607775709
14.381852079906857 14.264585390982038
14.52011386710931 14.235352961364434
14.659448224818481 14.205893760181945
14.799877196444537 14.176203126837823
14.941423322042564 14.146276295730617
15.084109653739475 14.116108392992484
15.227959771717288 14.085694433109897
8.208006594245008 7.504312093081703
8.185248730055761 7.396673315981173
8.162852436044826 7.290744671836904
8.140807687372812 7.186478745519342
8.119104818117258 7.083829819887315
8.097734505295623 6.982753799856945
8.076687753760224 6.883208140466342
8.055955881686698 6.785151778955186
8.03553050695077 6.688545070236688
8.015403534290174 6.593349725604901
7.995567142877705 6.499528754878012
7.976013774880506 6.40704641105228
7.956736124160119 6.315868138274961
7.937727125951854 6.225960521907964
7.91897994675077 6.137291241441941
7.900487974882902 6.049829025489094
7.882244811564457 5.963543608925317
7.8642442620575705 5.878405692543755
7.846480327677357 5.794386904087308
7.828947197834865 5.711459761588498
7.811639242954266 5.629597637762616
7.7945510069609885 5.548774727101943
7.777677200873108 5.4689660134683
7.7610126958149 5.3901472404018165
7.744552517908258 5.312294880572932
7.728291841148386 5.235386109828791
7.712225982774883 5.159398779291854
7.696350397418369 5.0843113907678985
7.68066067225078 5.0101030721586755
7.7460493403556185 4.988855278354275
7.820904938041714 4.973028700138246
7.896654266417974 4.957013162087409
7.973318632374005 4.940804159430949
8.050919985922492 4.924397051155407
8.129480944715933 4.907787055443007
8.209024820651374 4.89096924337165
8.289575646916035 4.873938533632819
8.371158206627182 4.856689686503891
8.45379806313148 4.839217297026646
8.537521591076615 4.82151578903502
8.622356009816217 4.803579407472019
8.708329417759005 4.785402211528632
8.795470828750034 4.766978066864728
8.883810210166983 4.748300637614507
8.97337852309808 4.729363377676648
9.064207764292105 4.7101595220477845
9.156331010428609 4.690682077387771
9.249782464615183 4.670923812197898
9.344597505307098 4.6508772464779105
9.440812737791763 4.630534640840746
9.538466048396371 4.609887985051498
20.93299141555233 9.967216355134127
20.898077498494317 9.802082610391551
20.863468648861087 9.638391755204145
20.82915858024447 9.476114056496685
20.795141154299348 9.315220481493693
20.761410376118068 9.155682675841556
20.727960389772637 8.99747294252429
20.694785474017564 8.840564221539104
20.66188003814656 8.684930070299727
20.629238617996645 8.530544644736747
20.59685587209343 8.377382681065924
20.564726577931772 8.225419478196576
20.532845628386166 8.074630880753656
20.50120802824551 7.92499326268822
20.46980889086724 7.776483511452216
20.438643434945902 7.6290790127146515
20.407706981391506 7.482757635597217
20.376994950313374 7.337497718408443
20.346502858105104 7.193278054856459
20.316226314626697 7.050077880721228
20.286161020480037 6.90787686096811
20.256302764373924 6.766655077285311
20.226647420575258 6.626393016028602
20.197190946442966 6.4870715565573915
20.167929380041436 6.348671959946972
20.13885883783044 6.211175858062372
20.109975512428548 6.074565242979909
20.081275670447237 5.938822456743124
20.052755650393014 5.803930181440355
20.024411860634963 5.669871429591734
19.99624077743523 5.536629534833896
19.96823894304008 5.4041881428912815
19.940402963829317 5.272531202823163
19.91272950852177 5.141642958536252
19.885215306434876 5.011507940552917
19.857857145796306 4.882110958025594
19.830651872105726 4.753437090988332
19.803596386544832 4.6254716828367455
19.776687644433945 4.498200333028002
19.749922653733396 4.3716088899928796
19.72329847358815 4.245683444252137
19.69681221291405 4.120410321729828
19.670461029024203 3.995776077256466
19.644242126294042 3.871767488255158
19.61815275486373 3.7483715486042195
19.592190209376483 3.625575462669916
19.56635182775164 3.5033666395032474
19.54063498999114 3.381732687194998
19.515037117018302 3.2606614073833784
19.489555669547684 3.140140789908901
19.46418814698503 3.020159007611239
19.438932086356125 2.900704411263116
19.41378506126364 2.781765524636368
19.38874468087089 2.6633310396955157
19.36380858891168 2.5453898119144167
19.338974462725194 2.4279308557116455
19.314240012315135 2.3109433400004433
19.28960297943221 2.1944165838492253
19.265061136679257 2.0783400522487834
19.240612286638008 1.9627033519824502
19.216254261016985 1.8474962275955722
19.191984919819568 1.7327085574608851
19.167802150531678 1.6183303499363577
19.1437038673283 1.504351739612301
19.119688010298212 1.3907629836445685
19.09575254468632 1.2775544581708447
19.071895460152852 1.1647166548070478
19.048114770048983 1.0522401772210503
19.02440851070816 0.9401157377809128
19.000774740752654 0.8283341542750389
18.97721154041476 0.7168863467016015
18.95371701087211 0.6057633341248037
18.930289273596625 0.4949562315955182
18.906926469716566 0.3844562471339796
18.8836267593912 0.2742546787722465
18.860388321197725 0.1643429116542192
18.83720935152978 0.05471241519109643
18.81408806400736 -0.05464525972984867
18.7910226888975 -0.1637384834851502
18.768011472545417 -0.2725755504056976
18.7450526768157 -0.3811646814198139
18.72214457854311 -0.4895140266507719
18.69928546899267 -0.5976316679705101
18.6764736533286 -0.7055256215113513
18.653707450091794 -0.813203840137403
18.630985190685475 -0.9206742158773487
18.608305218868644 -1.0279445823202282
18.585665890257037 -1.1350227169758298
18.563065571831228 -1.2419163436012313
18.540502641451546 -1.3486331344950138
18.517975487379577 -1.4551807127606424
18.495482507805782 -1.5615666545404587
18.473022110383127 -1.6677984912217168
18.45059271176625 -1.7738837116160502
18.428192737156007 -1.8798297641137458
18.405820619849024 -1.9856440588141642
18.383474800792044 -2.091333969633616
18.361153728140756 -2.196906836392011
18.338855856822818 -2.302369966879514
18.3165796481049 -2.4077306389045217
18.294323569163346 -2.512996102324118
18.27208609265835 -2.6181735810582967
18.249865696311236 -2.723270275089105
18.227660862484765 -2.8282933624459177
18.20547007776604 -2.933250001177986
18.18329183255192 -3.0381473313154705
18.16112462063659 -3.1429924768200417
18.13896693880109 -3.2477925475262364
18.116817286404633 -3.3525546410746707
18.09467416497729 -3.457285844838242
18.072536077814018 -3.5619932378424264
18.05040152956967 -3.66668389268078
18.02826902585476 -3.7713648774267425
18.006137072831848 -3.8760432575428636
17.984004176812128 -3.9807260977885086
17.961868843852248 -4.085420464127175
17.939729579350832 -4.190133425634497
17.917584887644743 -4.294872056408035
17.895433271604663 -4.399643437479944
17.873273232229884 -4.504454658733636
17.851103268241975 -4.609312820825511
17.82892187567718 -4.714225037112898
17.806727547477237 -4.819198435589297
17.784518773082674 -4.92424016081276
17.762294037996025 -5.029357375944948
17.740051823405846 -5.1345572645717485
17.717790605759937 -5.2398470327174556
17.695508856346112 -5.345233910832901
17.67320504077623 -5.450725156102079
17.650877618675693 -5.556328054064008
17.62852504333031 -5.662049920420292
17.60614576096201 -5.767898104008677
17.58373821058356 -5.873879987944161
17.561300823379053 -5.980002992265882
17.538832022387343 -6.086274575657598
17.51633022186743 -6.1927022381202725
17.49379382709891 -6.299293522388114
17.471221233867084 -6.406056016295281
17.448610827440895 -6.512997356494327
17.425960983004426 -6.620125228203567
17.403270064691732 -6.727447368837535
17.380536424875277 -6.8349715708695
17.357758404193735 -6.942705682804336
17.334934330770217 -7.050657612293175
17.312062519707627 -7.1588353285228665
17.206049968592666 -7.2323206060917
16.659620150893186 -7.1167899776365235
16.144356627285116 -7.007848779981112
15.657634982002444 -6.904942137932622
15.197117365087829 -6.807575764278773
14.760714416776192 -6.715307909889868
14.346553106076923 -6.627742562957778
13.952949437719697 -6.544523679460045
13.578385189698963 -6.4653302650065
13.221488003936022 -6.389872164488699
12.881014278612776 -6.3178864451846355
12.555834412823073 -6.249134277754769
12.244920035378447 -6.18339823545298
11.9473329121335 -6.120479949959586
11.662215282215973 -6.060198065628011
11.38878140911615 -6.002386456281958
11.126310176682164 -5.946892657118614
10.87413857810133 -5.893576490227862
10.63165597784493 -5.842308850328527
10.398299040369716 -5.792970631778087
10.173547235455583 -5.745451780605322
9.956918848864401 -5.6996504481027435
9.747967428403943 -5.655472242282728
9.546278615523653 -5.612829556084755
9.351467311692824 -5.571640968397929
9.163175139139183 -5.531830708510138
8.98106816280119 -5.493328173050604
8.80483484052958 -5.456067493181226
8.634184176376637 -5.4199871441951695
8.468844053701913 -5.385029593065428
8.308559728083678 -5.351140979571814
8.153092462064714 -5.3182708279290765
8.00221828685789 -5.286371784837803
7.85572687717123 -5.255399381617105
7.713420527364932 -5.225311817735412
7.575113218439207 -5.196069763545478
7.440629766588719 -5.1676361802648305
7.3098050451237295 -5.139976155468045
7.182483272486916 -5.1130567525534545
7.058517359906738 -5.086846872818745
6.937768312939797 -5.061317128930184
6.820104681779004 -5.0364397287022875
6.705402055753649 -5.012188368220949
6.59354259793116 -4.988538133445156
6.484414616157381 -4.965465409512823
6.37791216724981 -4.942947797056142
6.27393469139229 -4.920964034902319
6.172386674076348 -4.8994939285984795
6.073177333197696 -4.878518284255062
5.9762203291508245 -4.858018847251663
5.881433495973357 -4.837978245393403
5.788738591778364 -4.818379936145289
5.698061066879221 -4.7992081576072945
5.609329848160755 -4.780447882924358
5.522477138383893 -4.762084777853738
5.437438229230963 -4.7441051612375364
5.354151327006367 -4.726495968150923
5.2725573900042875 -4.709244715517075
5.192599976642349 -4.692339469998401
5.114225103538637 -4.675768817989987
5.0373811127808565 -4.659521837556607
4.962018547700244 -4.6435880721678
4.8880900365212 -4.627957506098151
4.815550183310119 -4.612620541370802
4.744355465694652 -4.597567976132425
4.674464138867976 -4.582790984357034
4.605836145431993 -4.568281096784286
4.538433030669209 -4.554030183005592
4.472217862865678 -4.540030434618134
4.40715515833707 -4.526274349373275
4.343210810837106 -4.5127547162515125
4.280352025052322 -4.4994646014014075
4.21854725390975 -4.486397334884649
4.157766139444883 -4.473546498173912
4.0979794569961 -4.46090591235395
4.039159062509324 -4.448469626980344
3.981277842752355 -4.436231909553409
3.924309668253181 -4.424187235568023
3.8682293487898463 -4.412330279102934
3.813012591271885 -4.4006559039157205
3.7586359598646744 -4.389159155011946
3.7050768382185315 -4.377835250659335
3.6523133936739858 -4.366679574819761
3.6003245433236275 -4.355687669973763
3.5490899218190544 -4.3448552303140335
3.4985898508190774 -4.334178095285906
3.448805309982325 -4.323652243454381
3.3997179094138494 -4.313273786678555
3.351309863481391 -4.303038964575654
3.3035639659224083 -4.2929441392579495
3.256463566168223 -4.282985790327026
3.2099925468163404 -4.273160510110786
3.1641353021864393 -4.263464999129592
3.1188767178996475 -4.253896061778748
3.0742021514245095 -4.244450602215367
3.03009741353663 -4.235125620438427
2.986548750642259 -4.225918208551464
2.9435428279191225 -4.2168255471980896
2.90106671323073 -4.207844902161009
2.8591078617729972 -4.198973621115889
2.8176541014144956 -4.190209130531873
2.776693618694044 -4.181548932711088
2.7362149454413527 -4.172990602959854
2.696206945988659 -4.164531786884888
2.65665880494296 -4.156170197807981
2.6175600154903877 -4.147903614293245
2.578900368205813 -4.139729877781123
2.5406699403423234 -4.1316468903239025
2.502859085576679 -4.123652612417604
2.4654584241882347 -4.11574506092553
2.4284588336499624 -4.107922307088953
2.3918514396115342 -4.100182474620668
2.3556276072554563 -4.092523737877463
2.3197789330082896 -4.084944320107604
2.284297236590022 -4.077442491769877
2.249174553385486 -4.070016568920675
2.2144031271227163 -4.06266491166601
2.179975402843781 -4.055385922675329
2.1458840201545577 -4.048178045754353
2.112121806740484 -4.041039764474102
2.0786817721361377 -4.03396960085362
2.045557101737005 -4.026966114093888
2.0127411510424826 -4.020027899360648
1.9802274401196756 -4.0131535866138695
1.9480096482781342 -4.006341839481863
1.9160816089461121 -3.999591354177961
1.884437304739424 -3.9929008584579417
1.8530708627144943 -3.9862691106163957
1.8219765497974676 -3.979694898520295
1.7911487683818117 -3.9731770386782226
1.7605820520870687 -3.9667143753436385
1.7302710616719068 -3.960305779650792
1.7002105810948271 -3.9539501487818356
1.6703955137163125 -3.9476464051638662
1.6408208786364107 -3.9413934956945735
1.6114818071621135 -3.935190390995353
1.5823735393990856 -3.9290360846906958
1.5534914209626123 -3.922929592712799
1.524830899802821 -3.916869952630319
1.4963875231395383 -3.9108562230003163
1.4681569345022534 -3.904887482742428
1.4401348708709725 -3.8989628305343516
1.4123171599138717 -3.8930813842278216
1.3846997173178568 -3.8872422802841977
1.357278544208347 -3.8814446732289523
1.3300497246547 -3.8756877351242323
1.3030094232579434 -3.8699706550588493
1.2761538828175263 -3.8642926386549545
1.2494794220740382 -3.858652907590798
1.2229824335249102 -3.8530506991388944
1.1966593813102986 -3.8474852657190484
1.1705067991664144 -3.841955874465626
1.1445212884437412 -3.8364618068085545
1.1186995161876274 -3.831002358067498
1.093038213278924 -3.8255768370587453
1.0675341726323624 -3.820184565714289
1.0421842474504917 -3.8148248787126624
1.0169853495311367 -3.80949712312109
0.9919344476263166 -3.8042006580485106
0.9670285658507526 -3.7989348543090986
0.9422647821381059 -3.793699094095862
0.9176402267431969 -3.7884927706639773
0.8931520807884998 -3.783315288023469
0.8687975748533087 -3.778166060640928
0.8445739876039964 -3.7730445131499026
0.8204786444638981 -3.7679500800696797
0.7965089163213547 -3.762882205532126
0.7726622182745596 -3.7578403430163143
0.748936008411872 -3.7528239550906473
0.7253277866263272 -3.747832513162212
0.7018350934631206 -3.742865497233105
0.6784555089988806 -3.737922395663479
0.6551866517516166 -3.7330027049410774
0.6320261776202271 -3.72810592945701
0.6089717788525429 -3.7232315812875796
0.5860211830408838 -3.7183791799819024
0.5631721521441609 -3.713548252355162
0.540422481535591 -3.7087383322872625
0.5177699990751202 -3.703948960526719
0.4952125642056847 -3.699179684499577
0.4727480670724857 -3.694430058123205
0.4503744276644529 -3.6896996416247743
0.42808959497713334 -3.6849880013642724
0.40589154619624856 -3.680294709661879
0.38377828590119784 -3.6756193446295704
0.361747845287813 -3.6709614900067846
0.33979828140967466 -3.666320735000014
0.31792767643736225 -3.6616966741261927
0.29613413693499163 -3.657088907059731
0.27441579315343345 -3.652497038483089
0.252770798339631 -3.647920677940741
0.2311973280614444 -3.6433594396964306
0.20969357954747364 -3.6388129425935913
0.18825777104132738 -3.6342808099188213
0.1668881411698198 -3.6297626692683
0.14558294832460755 -3.625258152417052
0.12434047005676876 -3.6207668951909406
0.10315900248386786 -3.616288537341308
0.08203685970904795 -3.611822722422152
0.060972373251711905 -3.6073690976697583
0.03996389148936544 -3.602927313884689
0.019009779110208864 -3.598497025316047
-0.001891583423929161 -3.5940778895479224
-0.02274180040469443 -3.5896695673879497
-0.04354246139474196 -3.585271722757887
-0.06429514173606042 -3.5808840225861402
-0.0850014030494452 -3.5765061367021618
-0.10566279372548018 -3.5721377377326435
-0.12628084940735107 -3.5677785009994336
-0.1468570934658435 -3.563428104419114
-0.16739303746681464 -3.5590862284041562
-0.1878901816315024 -3.554752555765608
-0.20835001528992872 -3.5504267716172224
-0.22877401732772915 -3.546108563280992
-0.24916365662669487 -3.5417976201940014
-0.2695203924993088 -3.537493633816558
-0.28984567511754944 -3.5331962975415276
-0.31014094593626446 -3.5289053066048233
-0.3304076381113444 -3.52462035799699
-0.3506471769129906 -3.5203411503758306
-0.37086098013432395 -3.5160673839800114
-0.3910504584955778 -3.5117987605436074
-0.41121701604414856 -3.507534983211518
-0.431362050550727 -3.503275756455716
-0.45148695390175553 -3.4990207859922675
-0.47159311248845887 -3.4947697786990846
-0.49168190759267033 -3.4905224425343464
-0.5117547157696888 -3.486278486455555
-0.531812909228398 -3.4820376203391685
-0.5518578562088564 -3.4777995549007628
-0.5718909213576086 -3.4735640016156872
-0.591913466100907 -3.4693306726401496
-0.6119268490160864 -3.4650992807326992
-0.6319324262012913 -3.460869539176055
-0.6519315516437717 -3.456641161699241
-0.6719255775869846 -3.4524138623999656
-0.691915854896669 -3.4481873556672267
-0.7119037334261407 -3.443961356104076
-0.7318905623810128 -3.4397355784505086
-0.7518776906835375 -3.4355097375064303
-0.7718664673367778 -3.4312835480546604
-0.7918582417888398 -3.4270567247839243
-0.8118543642973515 -3.422828982211791
-0.8318561862944119 -3.4186000346075134
-0.851865060752205 -3.414369595914728
-0.8718823425495077 -3.4101373796739636
-0.891909388839295 -3.4059030989449184
-0.9119475594176417 -3.401666466228466
-0.9319982170941571 -3.3974271933883347
-0.9520627280641498 -3.3931849915724195
-0.9721424622827576 -3.3889395711336823
-0.9922387938412305 -3.384690641550594
-1.0123531013456226 -3.3804379113470713
-1.0324867682981005 -3.3761810880118515
-1.0526411834810878 -3.3719198779172794
-1.0728177413444842 -3.3676539862374355
-1.0930178423961874 -3.36338311686557
-1.1132428935961542 -3.3591069723307845
-1.1334943087542395 -3.354825253713921
-1.1537735089320547 -3.350537660562595
-1.1740819228490913 -3.3462438908053325
-1.1944209872933642 -3.3419436406647463
-1.2147921475368257 -3.337636604569705
