# .PCD v0.7 - Point Cloud Data file format
VERSION 0.7
FIELDS x y
SIZE 4 4
TYPE F F
COUNT 1 1
WIDTH 590
HEIGHT 1
VIEWPOINT 0 0 0 1 0 0 0
POINTS 590
DATA ascii
-5.992122594767307 19.194534287583956
-5.869948251036691 19.194442854756698
-5.748208376821101 19.194351747215546
-5.626892486558762 19.194260956922705
-5.505990223914983 19.194170476160064
-5.3854913585774336 19.194080297335567
-5.26538578340502 19.193990412738685
-5.145663508529324 19.193900815167375
-5.026314661310239 19.193811496958098
-4.907329479584634 19.193722450881296
-4.788698309615075 19.193633669760754
-4.6704116027444815 19.193545146475692
-4.552459912676321 19.193456873830364
-4.4348338903952484 19.193368845004265
-4.317524283727272 19.193281052904048
-4.200521931828768 19.19319349073773
-4.083817762807204 19.193106151846028
-3.967402792836005 19.19301902926011
-3.8512681194580902 19.192932116511965
-3.735404922283943 19.19284540687827
-3.619804457924091 19.192758893850133
-3.5044580576985838 19.19267257102276
-3.3893571258650343 19.19258643191885
-3.274493136765666 19.19250047003778
-3.15985763022744 19.192414679192783
-3.0454422110916584 19.192329053128688
-2.9420292674835653 19.262895676637644
-2.9414489482129724 20.03833061251255
-2.9408210635333023 20.87732284686986
-0.122106422360868 5.1377312968721345
-0.0912502503053165 5.082134582016748
-0.06114245307295982 5.034449153348719
-0.03162683178590543 4.99212346426505
-0.002607165941990159 4.953710921734175
0.025981876507959606 4.918295198696513
0.05418751142461692 4.885251603566771
0.08204536884676011 4.854131673091956
0.10958321135513213 4.824601211847735
0.13682323398824486 4.796404393218457
0.16378358703889603 4.769341708739794
0.1904794448068226 4.74325577343104
0.21692379437052206 4.718021816067449
0.24312804235932087 4.6935410624066005
0.2691024965499273 4.6697359520653965
0.29485675537471173 4.646546532610502
0.3204000243090385 4.623927611761658
0.345741370254682 4.601846404045099
0.37088992020069594 4.580280500400367
0.3958550086009466 4.5592160603100575
0.4206462774849506 4.5386461722102585
0.44527373382118995 4.518569358909704
0.46974776965175385 4.498988224865562
0.49407915146214715 4.47990825214476
0.5182789858730623 4.461336754525636
0.5423586689440236 4.443281997186981
0.5663298258853072 4.425752482752207
0.5902042472727387 4.408756398817591
0.6139938267902487 4.392301215929688
0.6377105040132616 4.3763934180085595
0.6613662150541029 4.361038348096836
0.6849728520905385 4.3462401458764175
0.7085422326679527 4.332001759286973
0.732086078285191 4.318325009265569
0.7556160017286696 4.305210691959012
0.7791435023608685 4.292658705370135
0.8026799679245072 4.280668187223787
0.8262366821045749 4.2692376575862445
0.849824836521163 4.258365158447172
0.8734555463009128 4.248048386590817
0.8971398682864344 4.238284816495973
0.920888821075387 4.2290718113370165
0.9447134062941291 4.220406721534638
0.9686246305029909 4.212286970397178
0.9926335272134901 4.20471012685325
1.016751178587313 4.197673965659844
1.0409887364427066 4.191176515634504
1.0653574421332193 4.185216096131444
1.089868644958955 4.1797913423218604
1.1145338186795852 4.174901219411372
1.1393645757166428 4.17054502598805
1.1643726785513353 4.166722386387776
1.1895700478478075 4.163433232086049
1.214968766610233 4.160677771386025
1.2405810798776016 4.158456447473656
1.2664193891225604 4.156769883815809
1.2924962407849232 4.155618816920275
1.3188243080517719 4.155004015498597
1.345416365444521 4.154926186639608
1.3722852556198992 4.155385869076228
1.3994438481595801 4.156383314741458
1.4269049906363442 4.1579183611594415
1.4546814530450365 4.159990299161384
1.4827858670821723 4.162597740898199
1.5112306639946258 4.165738498589449
1.5400280154127455 4.169409484852233
1.5691897846200191 4.173606651994187
1.5987274973020817 4.178324989363422
1.6286523444407617 4.183558604462862
1.6589752325857061 4.189300916419218
1.689706899470034 4.195544993181421
1.7208581158083758 4.202284066440125
1.7524399951594951 4.2095122559975655
1.7844644351736154 4.2172255341990015
1.8169447130553402 4.225422955483211
1.8498962568535604 4.234108169556096
1.8833376157400736 4.243291237193701
1.9172916546015195 4.252990769378847
1.951787006915903 4.263236426003868
1.9868598400322615 4.274071848414309
2.022556020900982 4.28555816201671
2.0589338311247847 4.297778294694123
2.0960674797768823 4.310842531006002
2.1340518310426955 4.324896012576871
2.173009052115036 4.340129385510487
2.2130984114268673 4.356794685615588
2.254531467656276 4.375230266895167
2.2975969818089155 4.395902138122431
2.342704624164168 4.419477165660391
2.39046853565375 4.446964142550569
2.4418870074769625 4.480019262084433
2.498802639726827 4.52173359815166
2.5654916985716385 4.57937115033875
17.504620433539568 17.770044293813733
17.50446670124947 17.564623991631745
17.504314753433146 17.361588140641683
17.50416454912114 17.160881996591996
17.504016048511506 16.962452375300995
17.503869212927544 16.766247596140563
17.50372400477728 16.572217427940597
17.50358038751474 16.38031303719419
17.50343832560279 16.190486938449663
17.5032977844776 16.002692946782084
17.50315873051452 15.816886132243129
17.503021130967493 15.633022776224692
17.502884954084205 15.45106032941914
17.50275016880914 15.270957371948205
17.502616744888023 15.092673574674683
17.502484653020872 14.916169661996943
17.50235386457296 14.741407376631027
17.502224351583575 14.568349445465929
17.502096086951493 14.39695954654535
17.501969044073764 14.227202277986324
17.50184319727648 14.059043127165362
17.501718521271815 13.892448442259411
17.501594991549453 13.727385403758456
17.50147258408064 13.563821997893347
17.501351275450027 13.401726990549271
17.501231043046182 13.2410699020611
17.501111864498753 13.08182098392729
17.500993718088058 12.92395119514961
17.500876582371024 12.767432180457385
17.500760436937494 12.61223624781383
17.500645261433036 12.458336349058936
17.50053103631206 12.305706058936673
17.500417741596845 12.154319557628643
17.5003053591991 12.004151608910004
17.50019387007565 11.855177546334827
17.50008325641156 11.707373252845091
17.49997350047758 11.560715145773512
17.499864585219793 11.415180159895987
17.499756493406082 11.270745733209509
17.499649208777484 11.12738979018873
17.499542715155634 10.985090728669599
17.49943699654917 10.843827405716844
17.499332037726035 10.703579123186806
17.499227823226413 10.56432561624999
17.49912433840007 10.426047039075682
17.499021568720103 10.288723953726965
17.498919499757044 10.152337318407204
17.498818117754748 10.016868475043088
17.498717408790395 9.882299139662313
17.498617359615796 9.748611390226563
17.49851795709941 9.615787657229662
17.498419188342215 9.48381071346088
17.49832104060199 9.352663664424687
17.4982235015469 9.222329938450565
17.49812655899913 9.092793278034899
17.498030201020274 8.964037730837088
17.497934415893923 8.836047641135126
17.49783919211942 8.708807641521119
17.497744518405867 8.58230264484744
17.497650383666237 8.45651783641415
17.49755677701174 8.331438666388891
17.49746368774631 8.207050842450602
8.83765832195685 4.08277331728874
8.837611810791952 4.020624125716548
8.837565545302613 3.958803210966693
8.83751952044954 3.8973038394282966
8.837473731278036 3.8361193905347624
8.837428172915674 3.7752433536452945
8.837382840570022 3.7146693250137717
8.837337729526444 3.65439100484179
8.83729283514595 3.5944021944129396
8.83724815286311 3.534696793305359
8.837203678184023 3.47526879667984
8.837159406684354 3.4161122926407796
8.837115334007393 3.3572214596673993
8.837071455862201 3.2985905641127737
8.837027768021779 3.2402139577682636
8.836984266321283 3.1820860754910547
8.836940946656318 3.1242014328926
8.83689780498122 3.0665546240857977
8.836854837307447 3.009140319488883
8.836812039701956 2.9519532636840182
8.836769408285637 2.894988273328679
8.836726939231797 2.838240235117981
8.836684628764676 2.781704103796175
8.836642473157982 2.725374900215562
8.836600468733476 2.669247709441191
8.836558611859598 2.6133176788997217
8.836516898950096 2.557580016570892
8.836475326462718 2.5020299892200963
8.836433890897908 2.446662920670617
8.836392588797553 2.3914741901141263
8.836351416743728 2.336459230458045
8.836310371357513 2.2816135267085222
8.836269449297784 2.226932614387683
8.836228647260059 2.1724120779839615
8.836187961975375 2.1180475494343054
8.83614739020916 2.063834706637099
8.878334584020985 2.0193739366570407
9.122241949175105 2.0191914014479146
9.379248749515734 2.01899906289341
9.650458202411444 2.018796095368547
9.937100952101005 2.0185815778847243
10.240554015790632 2.018354479910847
10.562363213681017 2.018113644587164
10.904269853977292 2.0178577687547627
11.268242645327755 2.0175853790729543
17.493587395048788 3.027467446193042
17.493509135419465 2.922895292257892
17.493431028258243 2.8185268694002295
17.493353067863794 2.7143545593714498
17.493275248575962 2.61037079894938
17.493197564774064 2.506568077671607
17.493120010875238 2.402938935600553
17.493042581332787 2.2994759611188713
17.492965270634546 2.1961717887537264
17.492888073301273 2.093019097028563
17.49281098388506 1.9900106063410108
17.492733996967775 1.8871390768655918
17.492657107159506 1.784397306479934
17.492580309097 1.681778128713153
17.492503597442195 1.5792744107152186
17.49242696688066 1.4768790512459946
17.492350412120143 1.3745849786827784
17.492273927889077 1.2723851490451004
17.492197508935106 1.170272544035634
17.49212115002366 1.068240169096013
17.49204484593647 0.9662810514764355
17.491968591470165 0.8643882383178705
17.491892381434823 0.7625547947457993
17.49181621065257 0.6607738019743078
17.491740073956166 0.5590383554194778
17.491663966187573 0.45734156282094846
17.4915878821966 0.3556765423705755
17.49151181683947 0.25403642084710004
17.49143576497743 0.15241433175574118
17.491359721475398 0.050803413471670354
17.491283681200525 -0.050803192613741784
17.49120763902084 -0.15241234394492562
17.491131589803864 -0.254030898653466
17.491055528415213 -0.3556657174098273
17.490979449717212 -0.45732366527655804
17.49090334856752 -0.5590116135639968
17.490827219817724 -0.6607364416895818
17.49075105831195 -0.7625050390418036
17.490674858885455 -0.8643243068499025
17.49059861636324 -0.9662011600603675
17.49052232555863 -1.0681425292213413
17.49044598127185 -1.1701553623760197
17.49036957828861 -1.2722466269661432
17.490293111378676 -1.3744233117467068
17.490216575294408 -1.476692428713002
17.490139964769337 -1.5790610150411373
17.490063274516675 -1.6815361350431757
17.489986499227854 -1.7841248821380697
17.489909633571042 -1.886834380839566
17.489832672189618 -1.9896717887622708
17.48975560970069 -2.0926442986471154
17.489678440693545 -2.1957591404074255
17.489601159728092 -2.2990235831968917
17.489523761333324 -2.402444937500671
17.4894462400057 -2.50603055725097
17.48936859020758 -2.609787841968407
17.489290806365577 -2.713724238930524
17.489212882868916 -2.8178472453688075
17.489134814067768 -2.92216441069567
17.48905659427157 -3.0266833387627923
17.48897821774731 -3.1314116901523317
17.488899678717768 -3.2363571845024914
17.06414087570739 -3.260385468454378
16.540275270574636 -3.259993418309748
16.046521054142964 -3.2596239029033796
15.580324002584067 -3.2592750107071633
15.139410788632627 -3.258945040410178
14.721751399565767 -3.258632472793056
14.325527431784595 -3.258335947000272
13.949105217167158 -3.258054240428505
13.591012943406483 -3.257786251603988
13.24992109255144 -3.2575309855430956
12.92462564956133 -3.2572875411859523
12.614033633800972 -3.257055100568527
12.317150587008808 -3.256832919458921
12.033069715887008 -3.256620319231834
11.760962439542535 -3.2564166797844303
11.500070134163316 -3.256221433414795
11.249696901731218 -3.2560340593145325
11.009203217511063 -3.255854078843515
10.778000334229153 -3.2556810513436627
10.555545339770372 -3.2555145706234283
10.341336781221013 -3.255354261434928
10.134910780834533 -3.2551997764442633
9.935837580402385 -3.2550507941841373
9.74371846039795 -3.2549070162023392
9.558182986782281 -3.2547681653223255
9.378886545908571 -3.254633983578715
9.205508132649426 -3.2545042308533794
9.03774836228094 -3.2543786829875634
8.875327679797838 -3.2542571305518573
8.717984744044958 -3.2541393783983183
8.565474968009617 -3.254025243289058
8.417569196645728 -3.2539145536143965
8.274052508060599 -3.2538071487561404
8.134723125082388 -3.253702877607985
7.999391424851316 -3.2536015982031525
7.867879036744364 -3.2535031770288025
7.740018019461002 -3.2534074884037727
7.615650109201684 -3.2533144141012853
7.494626032290553 -3.253223842196191
7.376804875052561 -3.2531356672706773
7.262053506311373 -3.25304978969446
7.150246046932609 -3.2529661153834755
7.041263382410961 -3.2528845550248335
6.934992713896799 -3.2528050241682713
6.83132714462171 -3.252727443009176
6.730165298639771 -3.252651735673287
6.63141096855174 -3.2525778300102783
6.534972789724422 -3.2525056576689537
6.440763939105177 -3.252435153595616
6.348701855847654 -3.252366256365401
6.258707983157398 -3.252298906769456
6.1707075273834215 -3.2522330491298685
6.0846292356082 -3.2521686298447063
6.000405187714514 -3.252105598265259
5.917970603665529 -3.252043906031989
5.837263663989429 -3.2519835065479903
5.758225341606521 -3.251924356016257
5.680799246360726 -3.251866411846317
5.604931478303381 -3.2518096339835165
5.530570491900956 -3.2517539838479874
5.457666968535917 -3.251699424297329
5.386173696819506 -3.251645920219178
5.316045461317789 -3.251593437719381
5.247238937704489 -3.25154194433956
5.179712594586311 -3.25149140900825
5.113426601397551 -3.2514418019608273
5.048342741984919 -3.2513930945514367
4.98442433324261 -3.25134525934113
4.9216361487445335 -3.2512982699671924
4.859944346843726 -3.2512521011032276
4.799316402993526 -3.2512067284085484
4.739721045996215 -3.251162128480433
4.6811281979159345 -3.2511182788091832
4.623508917412246 -3.251075157735696
4.566835346269411 -3.251032744411468
4.511080658912846 -3.25099101876079
4.456219014719958 -3.2509499614450763
4.402225512946415 -3.250909553829128
4.349076150101964 -3.2508697779492355
4.296747779621846 -3.250830616482987
4.245218073690813 -3.250792052720704
4.1944654870867915 -3.250754070538395
4.144469222920594 -3.2507166543721016
4.095209200156586 -3.250679789193591
4.04666602280724 -3.2506434604873067
3.9988209507016896 -3.2506076542284976
3.951655871735156 -3.2505723568624356
3.905153275512504 -3.250537555284711
3.8592962283047045 -3.250503236822469
3.8140683492425924 -3.2504693892166037
3.7694537876770733 -3.2504360006048225
3.7254372016395636 -3.2504030595055164
3.6820037373407692 -3.2503705548024158
3.6391390096498073 -3.250338475729983
3.596829083499345 -3.250306811859508
3.5550604561658394 -3.2502755530858325
3.5138200403771642 -3.2502446896147137
3.473095148202853 -3.2502142119507647
3.432873475684899 -3.25018411088596
3.39314308816965 -3.2501543774886565
3.3538924063036992 -3.2501250030931024
3.3151101926589353 -3.2500959792894397
3.276785538953948 -3.250067297914139
3.2389078538408986 -3.2500389510408536
3.2014668512289015 -3.2500109309716887
3.1644525391164664 -3.249983230228837
3.12785520890731 -3.249955841546583
3.091665425185213 -3.2499287578636613
3.055874015925006 -3.2499019723159184
3.020472063118085 -3.2498754782293027
2.9854508937920694 -3.2498492691131373
2.950802071405345 -3.2498233386536906
2.9165173875982635 -3.2497976807080025
2.88258885428384 -3.2497722892979493
2.8490086960617096 -3.2497471586045807
2.8157693429399338 -3.2497222829626784
2.7828634233501246 -3.249697656855507
2.75028375744217 -3.249673274909821
2.718023350645445 -3.249649131891026
2.68607538748425 -3.2496252226985627
2.654433225635715 -3.249601542361453
2.6230903902191396 -3.2495780860340338
2.5920405683061976 -3.2495548489918376
2.5612776036420972 -3.2495318266276505
2.5307954915681883 -3.2495090144477117
2.500588374137064 -3.2494864080680577
2.4706505354116026 -3.2494640032109974
2.4409763969398925 -3.2494417957017308
2.4115605133983022 -3.249419781465096
2.382397568395394 -3.249397956522409
2.3534823704297465 -3.249376316988465
2.3248098489950304 -3.249354859068599
2.2963750508261005 -3.249333579055891
2.268173136280044 -3.2493124733284504
2.2401993758465584 -3.2492915383468137
2.212449146782164 -3.249270770651414
2.184917929863122 -3.2492501668601554
2.1576013062521193 -3.249229723666074
2.130494954474007 -3.2492094378350695
2.103594647496128 -3.2491893062037174
2.0768962499089665 -3.2491693256771588
2.0503957152030337 -3.2491494932270744
2.024089083138111 -3.249129805889704
1.99797247720112 -3.2491102607639406
1.9720421021491013 -3.2490908550095066
1.9462942416339155 -3.249071585845164
1.920725255905396 -3.2490524505469973
1.8953315795899206 -3.249033446446757
1.8701097195413958 -3.2490145709302456
1.8450562527618748 -3.24899582143576
1.8201678243890766 -3.2489771954525906
1.7954411457482353 -3.2489586905195655
1.77087299246581 -3.2489403042236287
1.7464602026426885 -3.2489220341984772
1.7221996750846211 -3.2489038781232464
1.6980883675876985 -3.2488858337212103
1.6741232952768348 -3.2488678987585535
1.6503015289952228 -3.2488500710431523
1.6266201937428821 -3.2488323484234205
1.6030764671624547 -3.24881472878716
1.579667578070518 -3.2487972100604794
1.5563908050327058 -3.24877979020671
1.5332434749810333 -3.2487624672253843
1.5102229618719027 -3.2487452391512255
1.4873266853832636 -3.248728104053176
1.464552109649533 -3.2487110600334455
1.4418967420328845 -3.248694105226594
1.4193581319296171 -3.248677237798642
1.3969338696103104 -3.2486604559461987
1.3746215850925705 -3.2486437578956173
1.352418947045192 -3.248627141902178
1.3303236617226224 -3.2486106062492905
1.3083334719286346 -3.248594149247714
1.286446156008186 -3.24857776923481
1.2646595268664411 -3.248561464573801
1.2429714310140367 -3.2485452336530596
1.2213797476376103 -3.248529074885414
1.1998823876947498 -3.2485129867074685
1.178477293032474 -3.2484969675789443
1.1571624355284296 -3.2484810159820356
1.135935816254008 -3.2484651304207857
1.1147954646586002 -3.2484493094204776
1.0937394377742706 -3.248433551527032
1.0727658194401153 -3.248417855306435
1.0518727195456266 -3.2484022193441664
1.0310582732923872 -3.24838664224465
1.0103206404734708 -3.248371122630714
0.9896580047699015 -3.2483556591430625
0.9690685730636042 -3.248340250439763
0.9485505747662288 -3.248324895195743
0.9281022611633328 -3.248309592102303
0.9077219047733451 -3.2482943398666304
0.8874077987207947 -3.248279137211334
0.8671582561233241 -3.2482639828739877
0.8469716094919583 -3.2482488756066776
0.826846210144181 -3.248233814175563
0.8067804276293515 -3.248218797360448
0.7867726491660165 -3.2482038239543614
0.7668212790906832 -3.248188892763142
0.7469247383176411 -3.248174002605034
0.7270814638094171 -3.2481591523102926
0.7072899080574858 -3.2481443407207955
0.6875485385728327 -3.248129566689658
0.6678558373860158 -3.248114829080865
0.648210300556354 -3.248100126768898
0.6286104376898991 -3.2480854586383767
0.6090547714658449 -3.2480708235837046
0.5895418371710409 -3.248056220508723
0.5700701822422978 -3.248041648326361
0.5506383658161528 -3.248027105958307
0.5312449582858033 -3.248012592334674
0.5118885408649027 -3.2479981063936707
0.4925677051579257 -3.247983647081284
0.4732810527368235 -3.2479692133509586
0.45402719472368563 -3.2479548041632875
0.43480475137913593 -3.2479404184857015
0.415612351696206 -3.247926055292169
0.3964486329994113 -3.247911713562891
0.37731224054878665 -3.247897392284009
0.3582018271486263 -3.247883090447308
0.33911605276068385 -3.2478688070499335
0.3200535841215966 -3.2478545410940964
0.3010130943642842 -3.247840291586799
0.2819932626431092 -3.2478260575395472
0.2629927737625592 -3.2478118379680754
0.2440103178092234 -3.247797631892072
0.22504458978685102 -3.247783438334905
0.2060942892542678 -3.247769256323351
0.18715811996593618 -3.2477550848873267
0.168234789514948 -3.2477409230596224
0.14932300897823358 -3.2477267698756336
0.1304214925637914 -3.2477126243731007
0.11152895725971629 -3.2476984855918447
0.0926441224848339 -3.247684352573505
0.07376570974073357 -3.24767022436128
0.05489244226499898 -3.247656099999667
0.036023044685436816 -3.247641978534203
0.017156242675104467 -3.24762785901121
-0.001709237392065698 -3.2476137404775316
-0.0205746687852327 -3.2475996219802803
-0.03944132476041568 -3.2475855025665767
-0.05831047890425224 -3.247571381283296
-0.07718340547794358 -3.247557257176806
-0.09606137976159398 -3.247543129292716
-0.11494567839912655 -3.2475289966756105
-0.1338375797439938 -3.2475148583687963
-0.15273836420585138 -3.2475007134140417
-0.17164931459843924 -3.247486560851316
-0.1905717164888264 -3.2474723997185264
-0.20950685854825016 -3.2474582290512592
-0.22845603290474895 -3.247444047882512
-0.24742053549778936 -3.247429855242431
-0.2664016664350901 -3.2474156501580422
-0.28540073035187835 -3.2474014316529836
-0.3044190367727556 -3.2473871987472345
-0.32345790047641687 -3.2473729504568416
-0.3425186418634313 -3.247358685793645
-0.3616025873272936 -3.2473444037649983
-0.3807110696289972 -3.247330103373492
-0.39984542827533276 -3.247315783616666
-0.41900700990115136 -3.247301443486728
-0.4381971686558356 -3.2472870819702595
-0.4574172665942089 -3.247272698047927
-0.476668674072132 -3.247258290694186
-0.49595277014703915 -3.2472438588769768
-0.5152709429836543 -3.2472294015574263
-0.534624590265173 -3.2472149176895386
-0.5540151196101464 -3.24720040621988
-0.5734439489953633 -3.2471858660872654
-0.5929125071849906 -3.247171296222439
-0.612422234166259 -3.247156695547743
-0.63197458159201 -3.2471420629767915
-0.651571013230355 -3.2471273974141295
-0.6712130054217953 -3.2471126977548965
-0.6909020475441032 -3.2470979628844714
-0.7106396424852832 -3.247083191678125
-0.7304273071249351 -3.247068383000655
-0.7502665728243881 -3.247053535706023
-0.7701589859259269 -3.247038648636978
-0.7901061082614899 -3.2470237206246786
-0.8101095176711904 -3.247008750488301
-0.830170808532064 -3.2469937370346473
-0.850291592297425 -3.2469786790577384
-0.870473498047226 -3.2469635753384054
-0.8907181730498583 -3.246948424643866
-0.9110272833358093 -3.2469332257272985
-0.9314025142836334 -3.2469179773274006
-0.9518455712186721 -3.246902678167941
-0.9723581800250224 -3.2468873269573044
-0.9929420877712356 -3.2468719223880216
-1.0135990633502379 -3.24685646313629
-1.0343308981340082 -3.246840947861483
-1.0551394066435502 -3.2468253752056513
-1.076026427234715 -3.246809743793007
-1.096993822800455 -3.2467940522294003
-1.118043481490103 -3.2467782991017797
-1.139177317446297 -3.24676248297764
-1.160397271560193 -3.2467466024044587
-1.1817053122456282 -3.246730655909115
