# .PCD v0.7 - Point Cloud Data file format
VERSION 0.7
FIELDS x y
SIZE 4 4
TYPE F F
COUNT 1 1
WIDTH 618
HEIGHT 1
VIEWPOINT 0 0 0 1 0 0 0
POINTS 618
DATA ascii
-1.5067131008836578 4.139688265322345
-1.4777374633957152 4.134652162791472
-1.449796879973088 4.132057446769308
-1.4227802140635941 4.131728327003382
-1.3965981418196476 4.133538809310458
-1.371178297267922 4.137403081616746
-1.3464619364568953 4.143269367537954
-1.322401641132677 4.1511162488501565
-1.2989597737578078 4.160950901999155
-1.2761075173338121 4.172808987483558
-1.2538244120860864 4.186756153773143
-1.2320983700719608 4.202891328784476
-1.2109262074718208 4.221352220952106
-1.1903148180454635 4.242323805846378
-1.1702832244968169 4.266051133798372
-1.1508659405819779 4.292858769033304
-1.1321184379371163 4.323180969400604
-1.1141262179124758 4.357610282909342
-1.0970205173386391 4.39697984225316
-1.0810072581421568 4.442512433085555
-1.0664253444885028 4.496116220948053
-1.053879886756036 4.561051413593571
-1.0446114968860285 4.643754321520529
-1.0419334353820286 4.760844093736197
-1.0646667835011125 5.0037155864748675
-1.0988217887763827 5.315746497893466
-1.0815849570467901 5.390117232803961
-1.0577167140773345 5.434643311747079
-1.0314197005848709 5.46874558054032
-1.0039191552382645 5.498108785162411
-0.9757428948162172 5.525245392756133
-0.947167008503227 5.55154721559686
-0.9183557774113188 5.577930073337465
-0.8894183481111126 5.605100481194085
-0.8604365589099479 5.6336963924306005
-0.8314818864074112 5.664388276488609
-0.8026296210079851 5.697986161766605
-0.7739767861158418 5.735602598365039
-0.7456753508247417 5.778978837314574
-0.7180165471758951 5.831319559569152
-1.7720750690424294 23.258738301411725
-1.635791876749049 23.25236294671802
-1.4996946264846789 23.245996290425218
-1.3637737715145217 23.23963788591345
-1.2280198129978115 23.233287288869814
-1.0924232982283686 23.226944057099978
-0.9569748180573026 23.22060775040866
-0.8216650034110515 23.21427793051751
-0.6864845234395511 23.207954160907367
-0.5514240823424355 23.20163600672043
-0.4164744161466255 23.195323034644673
-0.2816262925315339 23.1890148127399
-0.14687050581826133 23.182710910378614
-0.01219787551307941 23.176410898099792
0.12240075581708038 23.170114347497023
0.2569345261576314 23.163820831104182
5.595417011360247 23.701704533070142
5.5605763559476 22.95693095321107
5.5277691906966755 22.255626410585045
5.496820505906778 21.59404979872445
5.4675748115019385 20.968877273713613
5.439893489377335 20.37714565644648
5.41365256531829 19.81620480390528
5.388740824916807 19.28367733392557
5.365058213077911 18.777424412137314
5.342514468534627 18.295516562584393
5.321027954074674 17.83620866198645
5.300524650516027 17.397918434393173
5.2809372882989685 16.979207887601863
5.262204595221398 16.578767232323237
5.244270642590668 16.195400905151093
5.227084275090703 15.828015381081022
5.210598612121128 15.475608513851324
5.1947706103689795 15.13726018522937
5.179560679016956 14.812124079484775
5.164932340343903 14.499420428193307
5.150851929590813 14.19842959440274
5.137288328892866 13.908486385012889
5.124212730850115 13.62897499672934
5.111598427955278 13.359324514752318
5.099420624638423 13.0990048949378
5.087656269144408 12.847523369913564
5.076283902843573 12.604421227860707
5.065283524902761 12.369270919643208
5.054636470520219 12.141673455889483
5.044325301164594 11.92125606067777
5.034333705459458 11.707670052788966
5.024646409528183 11.500588929186707
5.015249095761985 11.29970662855786
5.00612832910225 11.104735955481347
4.997271490038419 10.915407148153214
4.98866671361839 10.731466574638539
4.980302833851278 10.552675544392844
4.972169332954292 10.37880922333516
4.9642562949584645 10.209655642097543
4.956554363242575 10.045014788246457
4.949054701612714 9.884697774296743
4.941748958586692 9.728526074236145
4.934629234579792 9.576330822068105
4.927688051720348 9.427952166573387
4.920918326052661 9.28323867710327
4.9143133419097005 9.142046795756581
4.907866728260657 9.00424033177075
4.901572436857914 8.869689994379666
4.8954247220258065 8.738272960766736
4.889418121949038 8.609872476075086
4.883547441332449 8.484377482733588
4.877807735316411 8.361682276622375
4.872194294542882 8.241686187837235
4.86670263127736 8.124293284024082
4.861328466500541 8.009412094443247
4.856067717891619 7.896955353093169
4.8509164886320795 7.786839759374791
4.845871056965503 7.678985754915174
4.840927866454334 7.573317315291325
4.836083516880052 7.4697617555064895
4.831334755737597 7.368249548170765
4.826678470279365 7.268714153428598
4.822111680067699 7.171091859756873
4.817631529998404 7.075321634831556
4.813235283760877 6.981344985727629
4.8089203177032855 6.889105827777796
4.804684115073838 6.798550361470602
4.800524260611516 6.709626956818723
4.796438435461753 6.622286044673758
4.792424412394515 6.536480014505437
4.788480051304044 6.452163118200985
4.784603294971002 6.369291379474912
4.780792165069426 6.287822508511177
4.777044758402099 6.20771582148831
4.773359243349243 6.128932164664698
4.76973385651656 6.051433842725247
4.76616689956969 5.975184551112894
4.762656736243082 5.900149312088683
4.759201789512189 5.8262944142828585
4.755800538918653 5.753587355516504
4.752451518038908 5.6819967886890685
4.749153312087316 5.611492470541604
4.745904555645557 5.542045213118906
4.742703930510583 5.473626837766058
4.739550163653954 5.406210131506279
4.736442025285916 5.339768805657356
4.7333783270179675 5.274277456553736
4.730357920118135 5.209711528250286
4.727379693853538 5.146047277091882
4.724442573915169 5.083261738040842
4.721545520920195 5.021332692661143
4.718687528987343 4.960238638665074
4.715867624381242 4.899958760933936
4.713084864221859 4.8404729039302055
4.710338335255403 4.781761545423695
4.707627152683311 4.723805771459239
4.704950459046122 4.666587252497886
4.70230742315928 4.6100882206678415
4.69969723909804 4.55429144806532
4.697119125228856 4.499180226049154
4.694572323284818 4.444738345476338
4.692056097482743 4.390950077828945
4.689569733679815 4.33780015718581
4.687112538567691 4.285273762995039
4.684683838902109 4.233356503606142
4.682282980758778 4.182034400531237
4.679909328867902 4.131293873338083
4.6775622658685245 4.081121725316367
4.675241191698823 4.031505129642535
4.672945523026409 3.982431616113461
4.670674692586293 3.9338890585740858
4.6684281486229935 3.8858656627856427
4.6662053544030675 3.838349954740507
4.664005787603985 3.7913307696318395
4.661828939935318 3.744797241025291
4.65967431652053 3.6987387907823415
4.657541435546872 3.6531451190932827
4.655429827750497 3.608006195131727
4.653339036032861 3.563312247943811
4.651268615109224 3.5190537576723795
4.649218130972715 3.475221447386367
4.64718716063208 3.4318062749008464
4.645175291655582 3.388799425183654
4.643182122028766 3.346192302652882
4.641207259565157 3.303976524384569
4.639250321788832 3.2621439129650165
4.63731093530008 3.220686490343173
4.635388736096968 3.1795964705891433
4.633483368538583 3.1388662548443538
4.631594485651153 3.098488424589122
4.629721748563005 3.0584557363968985
4.6278648264078335 3.0187611162265284
4.62602339585539 2.9793976544879586
4.624197141181171 2.940358600490707
4.622385753803982 2.9016373578990953
4.620588932095866 2.8632274799637036
4.618806381322643 2.8251226647157943
4.617037813180107 2.7873167509845245
4.6152829458717965 2.7498037137041464
4.613541503738569 2.7125776601063047
4.611813217069114 2.6756328257767237
4.610097822075296 2.638963570571472
4.608395060500261 2.6025643753026273
4.606704679675452 2.566429837784632
4.605026432214374 2.530554669639201
4.603360075889319 2.494933692908821
4.601705373462688 2.459561836870476
4.600062092609853 2.4244341347941436
4.598430005712564 2.38954572105054
4.596808889746801 2.3548918281518927
4.595198526147916 2.3204677839365755
4.593598700682922 2.2862690088388766
4.592009203326832 2.252291013245752
4.590429828142922 2.218529394937225
4.588860373166764 2.184979836607258
4.587300640293862 2.151638103462014
4.585750435170796 2.118500040892616
4.584209567089685 2.085561572219558
4.5826778488859246 2.052818696506123
4.58115509683898 2.020267486438194
4.579641130576206 1.9879040862680237
4.578135772979545 1.9557247098195687
4.576638850094968 1.9237256385531343
4.575150191044633 1.8919032196871381
4.573669627941584 1.8602538643749194
4.572196995806941 1.828774045934561
4.570732132489489 1.7974602981298236
4.5692748785875565 1.766309213500327
4.567825077373123 1.735317441739198
4.566382574718072 1.7044816881164868
4.564947219022496 1.6737987119467042
4.563518861144996 1.6432653250988978
4.5620973543349095 1.6128783905477628
4.560682554166373 1.582634820964306
4.559274318474187 1.5525315773446775
4.557872507291389 1.5225656676758133
4.5564769827884914 1.4927341456365797
4.555087609214329 1.463034109333177
4.553704252838445 1.433462700067592
4.5523267818949655 1.404017101137935
4.5509550665279255 1.3746945366695447
4.549588978737972 1.3454922704757795
4.548228392330413 1.3164076049474562
4.546873182864562 1.2874378799699309
4.545523227604317 1.2585804718668492
4.544178405469966 1.2298327923696515
4.542838596991129 1.2011922876118937
4.541503684260842 1.1726564371475592
4.5401735508907155 1.144222752992482
4.538848081967131 1.115888778688089
4.537527164008453 1.087652088386673
4.536210684923207 1.0595102859574363
4.534898533969203 1.0314610041125687
4.53359060171355 1.0035019035526527
4.532286779993556 0.9756306721307126
4.530986961878459 0.9478450240342322
4.529691041631974 0.9201426989845105
4.52839891467562 0.8925214614527178
4.527110477552801 0.8649790998920608
4.52582562789361 0.8375134259854627
4.524544264380339 0.8101222739081908
4.523266286713653 0.7828034996048836
4.521991595579422 0.7555549800804399
4.52072009261617 0.7283746127042533
4.519451680383128 0.7012603145272789
4.518186262328865 0.674210021611454
4.516923742760475 0.6472216883709903
4.515664026813289 0.620293286925065
4.514407020421116 0.5934228064614772
4.51315263028696 0.5666082526108143
4.511900763854219 0.5398476468307075
4.5106513292783275 0.513139025799756
4.509404235398844 0.48648044082071346
4.508159391711941 0.4598699572325444
4.506916708343303 0.433305653830948
4.505676096021391 0.4067856222969883
4.5044374660510815 0.38030796663344557
4.503200730287639 0.3538708026085357
4.5019658011110195 0.32747225720663403
4.500732591400494 0.3011104680856647
4.499501014509556 0.27478358304080625
4.498270984241109 0.2484897594741866
4.4970424148229355 0.22222716387022903
4.495815220883388 0.19599397127634033
4.494589317427346 0.16978836478860862
4.493364619812362 0.1436085350422104
4.492141043725041 0.11745267970621301
4.490918505157588 0.09131900298247211
4.489696920384554 0.06520571510832528
4.488476205939726 0.039111031862782614
4.487256278593184 0.013033174075931088
4.486037055328485 -0.013029632858747026
4.484818453319971 -0.039079159469415425
4.483600389910189 -0.0651171726885789
4.4823827825874085 -0.09114543633370163
4.481165548963223 -0.11716571158603892
4.479948606750219 -0.14317975746794812
4.478731873739706 -0.16918933131896352
4.477515267779489 -0.19519618927090093
4.4762987067516775 -0.2212020867222729
4.475082108550514 -0.24720877881227948
4.473865391060203 -0.27321802089465286
4.472648472132742 -0.29923156901162457
4.471431269565728 -0.3252511803682863
4.470213701080139 -0.3512786138076201
4.468995684298067 -0.37731563028646786
4.467777136720389 -0.40336399335271556
4.466557975704388 -0.42942546962396744
4.465338118441265 -0.4555018292679852
4.464117481933574 -0.48159484648517437
4.462895982972539 -0.5077062999933916
4.461673538115262 -0.5338379735153651
4.460450063661773 -0.5599916562690013
4.459225475631954 -0.5861691434608804
4.457999689742285 -0.6123722367832173
4.456772621382426 -0.638602744914594
4.455544185591597 -0.6648624840247571
4.454314297034759 -0.6911532782837835
4.453082869978582 -0.71747696037592
4.451849818267168 -0.7438353720184148
4.450615055297536 -0.7702303644856467
4.449378493994838 -0.796663799138887
4.448140046787295 -0.8231375479620091
4.446899625580853 -0.8496534941034932
4.445657141733502 -0.8762135324250525
4.444412506029301 -0.9028195700572411
4.443165628652029 -0.9294735269623866
4.441916419158503 -0.9561773365052202
4.440664786451501 -0.9829329460315654
4.439410638752295 -1.009742317455467
4.438153883572775 -1.0366074278551511
4.436894427687134 -1.0635302700782059
4.435632177103116 -1.0905128533563968
4.434367037032773 -1.1175572039305262
4.4330989118627535 -1.1446653656857684
4.431827705124067 -1.1718394007979198
4.430553319461316 -1.199081390391012
4.429275656602444 -1.2263934352029413
4.427994617320904 -1.253777656288588
4.426710101412944 -1.2812361956786706
4.42542200766225 -1.3087712170970756
4.4241302338065305 -1.336384906682291
4.422834676479941 -1.3640794737993363
4.421535231206991 -1.3918571516916474
4.420231792386061 -1.419720198190253
4.418924253180093 -1.4476708967268455
4.417612505552535 -1.4757115568996935
4.41629644018474 -1.5038445154290305
4.414975946469675 -1.5320721368925367
4.4136509124260215 -1.5603968147129548
4.4123212247221355 -1.5888209718427355
4.410986768621209 -1.6173470617010988
4.409647427798642 -1.645977569466875
4.408303084526812 -1.6747150123833223
4.406953619508081 -1.7035619410571874
4.405598911771961 -1.732520940580293
4.4042388387601665 -1.7615946311880983
4.402873276207526 -1.7907856694762274
4.401502098093643 -1.8200967494503042
4.400125176592715 -1.849530603604151
4.398742381974988 -1.879090004135912
4.3973535827077095 -1.9087777637197738
4.395958645239573 -1.938596737056007
4.394557434012646 -1.9685498219051691
4.393149811362894 -1.998639960410511
4.391735637574222 -2.0288701401091176
4.390314770703563 -2.059243395484444
4.388887066484537 -2.0897628093629868
4.38745237838848 -2.120431514012509
4.386010557549171 -2.151252692576076
4.384561452595625 -2.1822295807242145
4.383104909669255 -2.213365467961304
4.381640772166346 -2.2446636995219182
4.380168881085849 -2.2761276771111563
4.378689074434221 -2.3077608615453675
4.377201187606048 -2.339566773525595
4.375705052925943 -2.371548996076744
4.37420049975251 -2.4037111759513228
4.372687354559906 -2.436057025150942
4.371165440377275 -2.4685903236592592
4.3696345773081156 -2.50131492027174
4.368094581831318 -2.534234735667083
4.366545267110807 -2.5673537637343653
4.364986442885953 -2.600676073719006
4.363417915050509 -2.6342058129434878
4.361839485884461 -2.6679472084821865
4.3602509538105485 -2.701904569713348
4.358652113268032 -2.7360822907353888
4.357042754600128 -2.770484852831468
4.3554226640007885 -2.8051168269167595
4.35379162331275 -2.839982876298992
4.352149409938972 -2.8750877593385065
4.3504957967037425 -2.9104363322719813
4.348830551716743 -2.9460335521181946
4.34715343823255 -2.9818844796813506
4.345464214505396 -3.017994282655916
4.343762633638973 -3.0543682388371396
4.342048443431109 -3.091011739441554
4.34032138621306 -3.1279302925420502
4.33858119868325 -3.165129526622249
4.336827611735176 -3.202615194255147
4.335060350279265 -3.2403931759112754
4.333279133058406 -3.2784694839018194
4.331483672456925 -3.316850266462422
4.3296736743026605 -3.355541811983699
4.327848837661919 -3.394550553394733
4.32600885462694 -3.4338830727061778
4.32415341009558 -3.4735461057198895
4.322282181542864 -3.51354654691235
4.320394838784053 -3.5538914544995603
4.318491043728839 -3.5945880556913656
4.316570450126294 -3.6356437521436984
4.314632703300138 -3.6770661256175496
4.312677439873908 -3.718862943854005
4.310704287485551 -3.761042166675126
4.308712864490984 -3.803611952320979
4.306702779656088 -3.8465806640336324
4.304673631836622 -3.88995687689955
4.302625009645484 -3.9337493849623693
4.300556491106734 -3.977967208618744
4.298467643295754 -4.022619602310524
4.296358021964875 -4.067716062527383
4.294227171153808 -4.113266336134677
4.292074622784117 -4.159280429042149
4.2898998962369745 -4.205768615229983
4.287702497913398 -4.252741446149598
4.285481920776078 -4.300209760517564
4.283237643871934 -4.3481846945220495
4.280969131834382 -4.396677692462299
4.27867583436435 -4.4457005178428295
4.27635718568895 -4.495265264945301
4.274012603996663 -4.545384370902262
4.271641490847841 -4.596070628298518
4.269243230559262 -4.647337198327251
4.266817189561385 -4.699197624529708
4.264362715726883 -4.751665847149005
4.261879137668918 -4.804756218130338
4.2593657640075895 -4.8584835168019715
4.256821882602826 -4.9128629662733845
4.254246759751914 -4.967910250589233
4.251639639349761 -5.023641532680165
4.248999742009829 -5.080073473154131
4.246326264143597 -5.1372232499745145
4.2436183769962055 -5.195108579074415
4.240875225635882 -5.2537477359595295
4.238095927894493 -5.313159578355501
4.235279573256447 -5.373363569959182
4.232425221693006 -5.434379805357227
4.229531902438816 -5.496229036179559
4.2265986127073045 -5.558932698559835
4.223624316341333 -5.622512941979762
4.220607942395278 -5.686992659579497
4.217548383644411 -5.752395520021818
4.214444495017215 -5.818746001003936
4.21129509194592 -5.886069424517252
4.2080989486302585 -5.954391993962469
4.204854796209035 -6.023740833235078
4.201561320833758 -6.094144027904365
4.198217161638172 -6.165630668618097
4.194820908597023 -6.238230896874567
4.191371100266978 -6.3119759533140884
4.187866221402029 -6.386898228693354
4.184304700435187 -6.463031317718251
4.180684906817626 -6.5404100759239645
4.177005148205738 -6.619070679805658
4.17326366748593 -6.699050690418599
4.169458639626044 -6.780389120683654
4.12790684177212 -6.801043626460529
4.072482055280325 -6.798450843983141
4.017483468746091 -6.795877999224089
3.96290251556746 -6.793324691436034
3.9087308147033273 -6.79079052855222
3.8549601651603984 -6.788275126928557
3.8015825406670087 -6.785778111094467
3.748590084526296 -6.783299113512116
3.6959751046416 -6.780837774343704
3.6437300687071903 -6.778393741226476
3.591847599557815 -6.775966669055182
3.5403204706707987 -6.773556219771662
3.489141601814753 -6.771162062161292
3.438304054839149 -6.768783871656017
3.387801029599291 -6.76642133014372
3.337625860011505 -6.764074125783692
3.287772010233497 -6.761741952827935
3.2382330709651357 -6.75942451144812
3.189002755865014 -6.757121507567957
3.1400748980784967 -6.754832652700762
3.09144344687296 -6.752557663792065
3.043102464376259 -6.750296263067035
2.995046122414509 -6.748048177882545
2.947268699445552 -6.745813140583719
2.899764577584487 -6.743590888364789
2.8525282397179197 -6.7413811631341
2.8055542667036226 -6.739183711383108
2.758837334652519 -6.7369982840592275
2.712372212289941 -6.734824636442394
2.666153758393319 -6.732662528025199
2.620176919303471 -6.730511722396468
2.5744367265069195 -6.728371987128153
2.528928294286577 -6.726243093665446
2.483646817438425 -6.724124817219951
2.4385875690517795 -6.7220169366658515
2.3937458983508813 -6.719919234438937
2.3491172285956368 -6.717831496438401
2.30469705503938 -6.715753511931302
2.2604809429416823 -6.713685073459607
2.216464525634206 -6.711625976749706
2.1726435026377775 -6.709576020624333
2.129013637828831 -6.707535006916788
2.0855707576535374 -6.7055027403873995
2.0423107493878843 -6.703479028642124
1.9992295594421505 -6.701463682053232
1.9563231917081594 -6.699456513681992
1.9135877059478774 -6.6974573392032895
1.8710192162218602 -6.695465976832108
1.8286138893561477 -6.693482247251813
1.7863679434463222 -6.691505973544166
1.7442776463973484 -6.689536981121024
1.7023393144979917 -6.687575097657645
1.6605493110285847 -6.685620153027565
1.6189040449009708 -6.683671979238969
1.5773999693294911 -6.681730410372523
1.5360335805319212 -6.679795282520599
1.4948014164592887 -6.677866433727864
1.4537000555535695 -6.675943703933155
1.4127261155322401 -6.674026934912627
1.371876252198746 -6.6721159702241035
1.3311471582779482 -6.670210655152599
1.2905355622756483 -6.668310836656968
1.2500382273613182 -6.666416363317637
1.20965195027318 -6.664527085285388
1.1693735602448316 -6.662642854231139
1.1291999179525998 -6.66076352329671
1.089127914482856 -6.658888947046506
1.0491544703185482 -6.657018981420109
1.009276534344207 -6.655153483685733
0.9694910828687211 -6.653292312394511
0.9297951186651942 -6.651435327335577
0.890185670027198 -6.649582389491913
0.8506597898407908 -6.647733360996949
0.8112145546716357 -6.645888105091846
0.7718470638666158 -6.64404648608348
0.7325544386693345 -6.642208369303052
0.6933338213489086 -6.640373621065353
0.6541823743414875 -6.638542108628579
0.615097279403904 -6.63671370015476
0.5760757367789502 -6.634888264670699
0.537114964371709 -6.633065672029445
0.4982121969364147 -6.631245792872255
0.4593646852733389 -6.629428498591021
0.42056969543518674 -6.627613661291148
0.38182450794251005 -6.62580115375485
0.34312641700764973 -6.623990849404843
0.30447272976672124 -6.622182622268423
0.2658607655191937 -6.620376346941889
0.2272878549745712 -6.618571898555303
0.18875133950574266 -6.616769152737565
0.15024857040854156 -6.614967985581767
0.11177690816707561 -6.613168273610834
0.07333372172438864 -6.611369893743402
0.034916387758024525 -6.6095727232599275
-0.003477710039941727 -6.607776639769007
-0.04185118167880664 -6.605981521173891
-0.0802066315815219 -6.604187245639156
-0.11854665929375317 -6.602393691557544
-0.15687386019012542 -6.600600737516915
-0.19519082617808406 -6.598808262267326
-0.23350014639974603 -6.597016144688198
-0.2718044079321857 -6.5952242637555525
-0.3101061964864964 -6.593432498509313
-0.3484080971061183 -6.591640728020637
-0.38671269486474186 -6.589848831359264
-0.4250225755642453 -6.588056687560871
-0.46334032643305473 -6.586264175594401
-0.5016685368253188 -6.584471174329355
-0.5400097989212866 -6.582677562503028
-0.5783667084293453 -6.580883218687666
-0.6167418652900484 -6.579088021257538
-0.655137874382599 -6.5772918483558795
-0.6935573462341784 -6.575494577861711
-0.7320028977325074 -6.573696087356508
-0.770477152842105 -6.5718962540906904
-0.8089827433246227 -6.57009495494993
-0.8475223094636807 -6.568292066421233
-0.8860985007946587 -6.566487464558814
-0.9247139768398467 -6.564681024949691
-0.9633714078494051 -6.562872622679034
-1.0020734755485836 -6.561062132295206
-1.0408228738916177 -6.559249427774494
-1.0796223098228122 -6.557434382485509
-1.11847450404522 -6.555616869153223
-1.1573821917974279 -6.553796759822635
-1.1963481236389042 -6.551973925822026
-1.235375066244395 -6.550148237725807
-1.2744658032079141 -6.548319565316899
-1.313623135856749 -6.546487777548656
-1.352849884076069 -6.544652742506292
-1.3921488871446563 -6.542814327367785
-1.4315230045822724 -6.540972398364233
-1.4709751170092122 -6.539126820739652
-1.5105081270186511 -6.537277458710155
-1.55012496006232 -6.535424175422534
-1.589828565350131 -6.533566832912163
-1.629621916764327 -6.531705292060246
-1.669508013788818 -6.52983941255033
-1.7094898824543263 -6.5279690528240994
-1.7495705762999731 -6.5260940700363905
-1.7897531773520219 -6.524214320009405
-1.8300407971204393 -6.522329657186091
-1.8704365776140186 -6.520439934582655
-1.9109436923747432 -6.518545003740175
-1.951565347532201 -6.516644714675275
-1.9923047828788132 -6.514738915829826
-2.0331652729666456 -6.5128274540196305
-2.074150128226661 -6.510910174382078
-2.115262696111243 -6.508986920322681
-2.156506362260883 -6.5070575334605065
-2.197884551695922 -6.505121853572429
-2.2394007300342813 -6.503179718536153
-2.281058404736156 -6.501230964271998
-2.3228611263766505 -6.499275424683359
-2.3648124899474 -6.497312931595814
