# .PCD v0.7 - Point Cloud Data file format
VERSION 0.7
FIELDS x y
SIZE 4 4
TYPE F F
COUNT 1 1
WIDTH 662
HEIGHT 1
VIEWPOINT 0 0 0 1 0 0 0
POINTS 662
DATA ascii
-5.793166252342287 15.916701288266408
-5.677257711250393 15.88474709208896
-5.562291045074904 15.853052556111606
-5.448247154005095 15.821612415051653
-5.335107367596459 15.790421521730737
-5.222853431402152 15.75947484362316
-5.111467494128425 15.728767459492364
-5.000932096129077 15.69829455584809
-4.891230156831263 15.668051424005984
-4.782344964765707 15.638033456549973
-4.6742601645308195 15.608236144984563
-4.566959748791234 15.578655076040198
-4.4604280462465855 15.549285929430388
-4.354649712268351 15.520124474979449
-4.249609720074364 15.491166569800843
-4.145293349688017 15.46240815626611
-4.041686181862771 15.433845258767048
-3.9387740868204038 15.40547398206349
-3.836543217003119 15.377290508677378
-3.7349799989895534 15.349291096669912
-3.6340711261128456 15.321472077383731
-3.5338035493887086 15.293829853716993
-3.4341644723373994 15.266360897585445
-3.335141341936507 15.23906174842357
-3.236721842250245 15.21192901115269
-3.1388938894025147 15.18495935399242
-3.041645622103885 15.158149507321246
-2.944965398195178 15.131496261349437
-2.8488417867733005 15.104996464815054
-2.7532635626616693 15.078647023270488
-2.6582197014223956 15.052444897366183
-2.5636993736485185 15.026387101359175
-2.469691938021798 15.000470701891059
-2.3761869377333036 14.974692816245074
-2.283174095767135 14.949050610900997
-2.1906433081042183 14.923541300470063
-2.098584639844335 14.89816214621116
-2.0069883218708746 14.872910454562362
-1.915844743321873 14.847783576313592
-1.8251444497618161 14.82277890502139
-1.7348781389214194 14.797893875847985
-1.6450366536523748 14.773125964756709
-1.555610982229057 14.748472686874079
-1.4665922498713169 14.723931595920968
-1.3779717177782485 14.699500282818994
-1.2897407799073792 14.675176374633256
-1.2018909563520592 14.65095753384745
-1.114413892495564 14.626841457127512
-1.0273013541811438 14.60282587449202
-0.9405452249405237 14.578908548331679
-0.8541375025638919 14.55508727251685
-0.768070295442008 14.531359871539049
-0.6823358200271026 14.50772419960952
-0.5969263978381917 14.48417813982129
-0.5118344519601118 14.460719603354029
-0.42705250461701166 14.437346528650487
-0.3425731739753631 14.414056880648536
-0.25838917097294106 14.390848650019679
-0.17449329809116462 14.367719852388376
-0.09087844517383249 14.344668527639115
-0.007537587503830341 14.3216927391852
0.07553621648949618 14.298790573274287
0.15834982839514242 14.275960138307113
0.24091003175109035 14.253199564166932
0.32322353454081354 14.230507001566208
0.4052969715164638 14.207880621406145
0.48713690647443597 14.18531861414936
0.5687498344850617 14.162819189205186
0.6501421840781112 14.140380574327153
0.7313203193857358 14.118001015022234
0.8122905422444291 14.09567877397134
0.8930590942575646 14.073412130460735
0.9736321588199582 14.051199379823878
1.0540158631059677 14.02903883289334
1.1342162800224955 14.0069288154624
1.2142394301282862 13.984867667755909
1.2940912835208551 13.9628537439101
1.373777761692343 13.94088541146096
1.4533047393555873 13.918961050840808
1.5326780462416 13.897079054882763
1.611903468869717 13.875237828332725
1.6909867522915543 13.853435787368616
1.769933601809938 13.831671359126478
1.8487496846739266 13.809942981233194
1.927440631751026 13.788249101345478
2.0060120391776715 13.766588176694865
2.084469469989039 13.744958673638395
2.1628184557291856 13.723359067214728
2.2410644980425705 13.701787840705373
2.3192130702479243 13.680243485200814
2.397269618895444 13.658724499171203
2.475239565308272 13.637229388041403
2.5531283071092 13.615756663770094
2.630941219733521 13.594304844432715
2.7086836579289613 13.572872453807937
2.786360957243539 13.551458020967505
2.8639784355023052 13.530060079869104
2.9415413942737954 13.508677168952097
3.0190551203270686 13.487307830735828
3.096524887080199 13.465950611420306
3.173955956041053 13.444604060488999
3.2513535782412175 13.423266730313518
3.3287229956638664 13.401937175759993
3.406069442666446 13.380613953796843
3.483398147398968 13.35929562310378
3.560714333218734 13.337980743681792
3.6380232201023124 13.316667876463889
3.71533002605557 13.295355582926364
3.7926399685225753 13.274042424700397
3.8699582657941898 13.252726963183715
3.9472901384171193 13.231407759152146
4.024640810604282 13.210083372370802
4.102015511647288 13.188752361204674
4.17941947733179 13.167413282228445
4.256857951356633 13.146064689835256
4.334336186757486 13.12470513584423
4.411859447335914 13.103333169106499
4.489433009094575 13.081947335109533
4.567062161679525 13.060546175579542
4.6447522098303455 13.039128228081674
4.722508474839052 13.017692025617832
4.80033629601851 12.996236096221843
4.878241032181388 12.974758962551743
4.9562280631303794 12.953259141478938
5.03430279116068 12.93173514367401
5.112470642575552 12.91018547318887
5.190737069215954 12.888608627035092
5.269107550005131 12.867003094758081
5.347587592509082 12.845367358006868
5.42618273451394 12.823699890099272
5.504898545621172 12.80199915558211
5.583740628861627 12.780263609786227
5.66271462232943 12.758491698376071
5.741826200836785 12.736681856893483
5.821081077590709 12.714832510295444
5.900485005892824 12.692942072485476
5.980043780863218 12.671008945838384
3.1970709468028167 6.673503496836555
3.193398488873041 6.567650210264013
3.1884080837912196 6.461667522535737
2.864429322695915 5.721096220952287
2.8326456953032912 5.576460426616267
2.8288259975298313 5.489728265819611
2.8349637832440426 5.424024950820811
2.846744438904836 5.370340722616419
2.862342447958587 5.324786350426142
2.880797406364867 5.2852682499885235
2.9015401742074394 5.250511378335544
2.924208096998507 5.219675512665866
2.948559509174931 5.1921763958274365
2.974429369304213 5.1675921792664266
3.0017042676079613 5.145610228216818
3.0303074618663075 5.125994909795945
3.060189497666819 5.108567107419525
3.0913221249464957 5.093190675344321
3.1236942524057802 5.079763191332155
3.157309205533896 5.068209463491359
3.192182831515608 5.058476835667822
3.2283421407479342 5.050531656055948
3.2658242435287805 5.044356440365059
3.3046753532200612 5.039947324970101
3.3449495852580697 5.037311381436021
3.3867071745697275 5.036463247279294
3.4300115308078207 5.037420284330944
3.4749241997138003 5.0401950470412045
3.5214962274368085 5.0447831488542665
3.569753553793722 5.051143578277114
3.619672923237358 5.0591672288573015
3.6711438595285033 5.068628540961334
3.7239132986484114 5.079117114380179
3.7775171198550024 5.089956808416425
3.8312244605668577 5.100148000811383
3.884056020114712 5.108411749424161
3.9349493135557636 5.11342228216539
3.9830587491681744 5.114196446776814
4.028021677151886 5.110412326894408
4.070004860542433 5.102429410909458
4.109541418435004 5.091046723662449
4.147317946964813 5.077215982290355
4.184029549295162 5.061856424156443
4.220320650455924 5.045784957954493
4.2567840651839886 5.029720070250337
4.293992751597625 5.014323759598211
4.33255518852427 5.000267928058493
4.373205194157593 4.988335477302663
4.416972013053119 4.979604784529982
4.46558659585588 4.9758842597417
4.5228309747285165 4.9811547175234
4.603930873887429 5.011665546622301
5.446508786778632 5.86016853598699
10.692838911802749 11.371764047872635
10.791985655467847 11.34443082050378
10.891750865979715 11.316927091368372
10.992147145000025 11.289249386382737
11.093187339850646 11.261394163738473
11.194884550665336 11.233357811930835
11.297252137772047 11.205136647723569
11.400303729314892 11.176726914047622
11.504053229125335 11.148124777831201
11.608514824852454 11.119326327758378
11.713702996362795 11.090327571953367
11.819632524420548 11.061124435587555
11.926318499659414 11.031712758406083
12.033776331858114 11.00208829217074
12.142021759531824 10.972246698015734
12.251070859833073 10.942183543734691
12.360940058917366 10.911894300836366
12.471646142376557 10.881374341825097
12.583206266321518 10.850618937071783
12.695637968891603 10.819623251524618
12.808959181850417 10.78838234167439
12.923188242811396 10.75689115216826
13.038343908034342 10.725144512140096
13.154445365276363 10.693137131897542
13.271512247706543 10.66086359876911
13.389564647591579 10.628318373700369
13.508623131200652 10.595495786850021
13.628708753734225 10.562390033677987
13.749843075143685 10.528995170473303
13.872048176595333 10.495305109639157
13.995346676958812 10.461313615586135
14.119761750703042 10.42701429945786
14.245317145847634 10.392400614488295
14.372037203533349 10.357465849926918
14.49994687692855 10.322203126667484
14.629071752312823 10.286605390746567
14.759438069321508 10.250665408927228
14.891072745013334 10.214375759819793
15.024003394495269 10.177728830938294
15.158258356702023 10.14071680944438
15.293866718342949 10.103331676665888
15.430858340344015 10.06556520018056
15.56926388410358 10.027408927495262
15.709114840629246 9.988854176736474
15.8504435590558 9.949892029755024
15.993283277268551 9.91051332357933
16.137668154257923 9.870708640789772
16.28363330241342 9.830468301805924
16.43121482309937 9.789782353786888
16.58044984215341 9.748640561679673
16.731376547561524 9.7070323978855
16.884034229374027 9.664947030460667
17.038463320021023 9.622373313145063
17.1947054380753 9.579299772110216
17.35280343260892 9.535714594498867
17.512801430233896 9.491605615289886
17.67474488410411 9.446960303904087
17.8386806255133 9.401765749567994
17.990747118826572 9.348780506148591
17.948266321731587 9.194688468518784
17.90623597961386 9.04223038152203
17.86464617352781 8.891370265830261
17.823487250224296 8.742073105885115
17.782749813013663 8.594304816755155
17.742424712999007 8.448032212336027
17.702503040662204 8.30322297483013
17.662976117786158 8.159845625445948
17.62383548969764 8.01786949626022
17.58507291781587 7.877264703189156
17.546680372492812 7.738002120017815
17.508650026131864 7.600053353439306
17.470974246572336 7.4633907190579745
17.433645590727654 7.327987218313209
17.396656798466044 7.193816516282529
17.36000078672283 7.060852920324933
17.323670643834085 6.929071359527212
17.287659624081982 6.798447364918024
17.251961142442482 6.668957050416129
17.216568769526692 6.540577094480887
17.18147622670742 6.4132847224347245
17.146677381423068 6.287057689428717
17.112166242651213 6.161874264023816
17.07793695654474 6.037713212361656
17.04398380222366 5.914553782900002
17.010301187716045 5.792375691689224
16.976883646041912 5.671159108167192
16.943725831434072 5.550884641451122
16.910822515690384 5.4315333271058455
16.878168584651913 5.313086614369001
16.84575903480192 5.195526353814483
16.81358896998082 5.078834785436378
16.781653598212344 4.962994527136427
16.749948228636452 4.8479885635988
16.718468268544846 4.733800235536737
16.68720922051486 4.620413229296261
16.656166679637884 4.507811566802886
16.62533633083872 4.395979595837772
16.59471394628209 4.284901980630517
16.564295382863143 4.174563692756188
16.5340765797785 4.064950002324836
16.50405355617488 3.956046469452203
16.474222408872265 3.847838936000863
16.444579310158726 3.740313517581402
16.41512050565428 3.633456595803808
16.38584231224105 3.5272548107695725
16.356741116057325 3.4216950537954225
16.327813370553077 3.3167644603600195
16.29905559460463 3.212450403265252
16.270464370686305 3.1087404860041743
16.242036343096895 3.0056225363279165
16.213768216239032 2.9030846000042048
16.185656752949352 2.8011149347604745
16.157698772877747 2.6997020044047932
16.129891150913817 2.598834473118114
16.10223081565885 2.498501199911605
16.07471474794166 2.3986912332431105
16.0473399793767 2.2993938057869587
16.020103590962943 2.2005983293515996
15.993002711722037 2.1022943899397877
15.96603451737436 2.004471742946178
15.939196229051621 1.9071203084874468
15.912485112044658 1.810230166860206
15.885898474585247 1.7137915541221809
15.859433666660676 1.6177948577922954
15.833088078859939 1.5222306126654088
15.80685914125043 1.4270894967377314
15.780744322284072 1.332362327238952
15.754741127731815 1.2380400567673686
15.728847099645556 1.1441137695243744
15.70305981534648 1.0505746776448335
15.677376886438891 0.9574141176199638
15.651795957848691 0.8646235468095131
15.62631470688557 0.7721945400400582
15.600930842328134 0.6801187862864665
15.57564210353116 0.5883880854335495
15.550446259554164 0.49699434511514207
15.525341108310577 0.4059295776278654
15.500324475736786 0.31518589691696564
15.475394214980346 0.22475551563168836
15.450548205606696 0.13463074224773042
15.425784352823685 0.044803978254425884
15.401100586723352 -0.044732284595661864
15.376494861540273 -0.13398546697691885
15.351965154925919 -0.222962904622814
15.327509467238471 -0.3116718509020264
15.30312582084748 -0.40011947934061837
15.278812259452902 -0.4883128860921663
15.254566847417932 -0.5762590923577726
15.230387669115165 -0.6639650467577616
15.206272828285579 -0.751437627656864
15.18222044740987 -0.8386836454445913
15.158228667091684 -0.925709844772496
15.134295645452257 -1.0125229067499297
15.110419557536103 -1.0991294510998886
15.08659859472726 -1.1855360382764784
15.062830964175687 -1.2717491715454985
15.03911488823347 -1.3577752990295988
15.015448603900367 -1.4436208157194221
14.991830362278357 -1.5292920654521172
14.968258428034838 -1.6147953428585686
14.944731078874053 -1.7001368952806446
14.921246605016453 -1.7853229246597613
14.897803308685612 -1.8703595893979876
14.874399503602376 -1.9552530061929467
14.85103351448592 -2.040009251847662
14.827703676561368 -2.124634365056559
14.804408335073692 -2.20913434816874
14.781145844807554 -2.2935151689296576
14.757914569612812 -2.3777827622022745
14.734712881935371 -2.4619430316688127
14.71153916235311 -2.5460018515141103
14.688391799116589 -2.6299650680916575
14.66526918769423 -2.713838501573303
14.64216973032176 -2.797627947583655
14.619091835555565 -2.881339178820159
14.596033917829752 -2.9649779466598165
14.572994397016615 -3.04854998275351
14.54997169799025 -3.132061000608893
14.526964250193089 -3.215516697162765
14.50397048720506 -3.2989227543438555
14.480988846315121 -3.3822848406269563
14.45801776809498 -3.4656086125792815
14.43505569597465 -3.548899716399969
14.412101075819702 -3.6321637894536227
14.389152355509871 -3.7154064617987634
14.36620798451886 -3.7986333577120837
14.343266413495027 -3.881850097209396
14.320326093846175 -3.9650622975517966
14.29738547730219 -4.048275574831695
14.27444301552865 -4.131495545373601
14.251497159701474 -4.214727827281492
14.228546360089613 -4.297978041955746
14.20558906556181 -4.381251815856572
14.18262372326052 -4.464554781707144
14.159648778243154 -4.547892579836903
14.13666267282696 -4.631270860451716
14.113663846400883 -4.714695284421767
14.090650734858126 -4.798171525269263
14.067621770273666 -4.8817052704020165
14.04457538032818 -4.965302223100863
14.021509988082617 -5.048968103488652
13.998424011501259 -5.132708650251654
13.97531586257021 -5.216529623432644
13.952183947582185 -5.300436804031045
13.929026666303423 -5.384435996704203
13.905842411345821 -5.468533031840651
13.882629568132286 -5.552733766109616
13.859386514215393 -5.637044084713552
13.836111618819443 -5.721469903047875
13.81280324237572 -5.806017168384126
6.031567170068916 -2.5766131758464224
5.865070638361074 -2.5458758788861964
5.739686508959187 -2.531174298020782
5.637893309437047 -2.52550433959824
5.551899268440292 -2.5258068152782256
5.47730628664469 -2.530376163384801
5.411353901689595 -2.538153951293457
5.352193874943836 -2.548440080349788
5.298529442716004 -2.5607500296982937
5.249416692809371 -2.5747365736324626
5.204147605471082 -2.5901438421831315
5.162177618128546 -2.606778964893779
5.1230788909987135 -2.624493840175368
5.086509103924309 -2.6431730067106223
5.052189993175212 -2.662725334716173
5.019892200311563 -2.6830781805924677
4.989424326168681 -2.7041731809172016
4.960624853839143 -2.7259631563641618
4.933356073963285 -2.7484097871796944
4.9074994275923665 -2.7714818314614647
4.882951874508354 -2.795153727980805
4.859623005144047 -2.819404477436858
4.837432702241118 -2.844216719440522
4.816309204980996 -2.869575948727397
4.796187469290204 -2.8954698260720515
4.777007743174376 -2.9218875464225316
4.7587142918369745 -2.948819237075774
4.741254222931265 -2.9762553601714536
4.724576371336833 -3.0041860982462283
4.708630211328841 -3.0326007041057994
4.693364772005878 -3.0614867999997837
4.67872754139472 -3.090829614632309
4.664663355711971 -3.120611153921399
4.651113285744774 -3.150809311045167
4.6380135535927725 -3.181396936757998
4.62529454001952 -3.2123409118828454
4.612879977773061 -3.243601292705635
4.600686463699847 -3.275130633399554
4.58862346129389 -3.3068736272023505
4.576593988688752 -3.3387672378603823
4.564496181850813 -3.370741503895329
4.552225869475169 -3.402721173582705
4.539680173907923 -3.434628247990741
4.526761970643567 -3.466385373680613
4.513384815608394 -3.497919843759482
4.4994777548524425 -3.5291677865008633
4.484989334254836 -3.5600780011564614
4.46989019160946 -3.590614900898574
4.454173844611726 -3.6207601618218495
4.437855624504512 -3.650512920404336
4.4209700390657085 -3.6798886314867234
4.403567083083917 -3.708916913956839
4.3857080943793045 -3.737638816475412
4.367461693946552 -3.766103929348018
4.348900200757069 -3.7943676816787644
4.330096737656513 -3.8224890411680064
4.311123094463104 -3.850528718574551
4.292048306704591 -3.878547888780866
4.272937849571761 -3.906607385039185
4.25385332526012 -3.9347672965467355
4.234852525162507 -3.9630868938102704
4.215989766447011 -3.991624814494518
4.197316425308809 -4.020439456557454
4.178881613050304 -4.049589542590405
4.16073296258886 -4.0791348361669195
4.142917513903728 -4.109137009373101
4.125482704193042 -4.1396606774634614
4.108477487671688 -4.170774637088188
4.091953630620849 -4.2025533687115635
4.075967252567488 -4.235078895183871
4.060580722321678 -4.268443136051647
4.045865070424912 -4.302750965379027
4.031903168198435 -4.338124294186151
4.018794065249529 -4.374707680781244
4.006659125872765 -4.412676290107718
3.9956510558634726 -4.452247598275668
3.9859677705166052 -4.493699331213781
3.977874817743836 -4.537398360390173
11.693038075711302 -13.495113328599322
11.659781275325381 -13.615746849789042
11.626262711766026 -13.737329873425278
11.592476993216948 -13.859881957426287
11.558418605215525 -13.983423104589596
11.524081906821788 -14.107973776488254
11.48946112664822 -14.233554907872168
11.454550358744239 -14.3601879215964
11.419343558329095 -14.487894744099398
11.383834537366505 -14.616697821455308
11.348016959973998 -14.746620136025665
11.31188433765975 -14.877685223737211
11.275430024379046 -15.00991719201358
11.238647211402377 -15.143340738390497
11.2015289219866 -15.277981169845242
11.16406800584021 -15.41386442287297
11.126257133373269 -15.55101708434408
11.088088789722148 -15.689466413178586
11.049555268538482 -15.829240362875586
11.010648665531463 -15.97036760493747
10.971360871751834 -16.1128775532312
10.93168356660533 -16.256800389330863
10.891608210582712 -16.402167088888252
10.851126037692802 -16.549009449080803
10.810228047584149 -16.697360117188907
10.768904997340249 -16.84725262035745
10.727147392932245 -16.998721396599596
10.684945480312386 -17.15180182710397
10.642289236130207 -17.306530269910024
10.59916835805274 -17.462944095019903
10.5555722546688 -17.621081721019024
10.511490034956152 -17.78098265328208
10.466910497289408 -17.942687523845233
10.421822117964838 -18.10623813303022
10.376213039217292 -18.271677492911202
10.330071056702504 -18.439049872720464
10.283383606416834 -18.608400846295044
10.23613775102452 -18.77977734167215
10.188320165560949 -18.95322769294838
10.13991712247823 -19.12880169452426
10.090914475997554 -19.30655065786356
10.0412976457304 -19.48652747090458
9.991051599528397 -19.668786660269525
9.847994564347557 -19.66930167891896
9.683072451412656 -19.62383519717319
9.519847283138231 -19.57883653688603
9.358282155073123 -19.534295524069723
9.198341131458474 -19.49020225179007
9.039989212456362 -19.4465470711318
8.883192302682552 -19.403320582523584
8.727917180983134 -19.360513627405897
8.57413147139754 -19.318117280225984
8.421803615253879 -19.276122840744957
8.270902844344883 -19.234521826642837
8.121399155135757 -19.193305966408044
7.97326328395753 -19.152467192498587
7.826466683142001 -19.111997634762847
7.6809814980564335 -19.071889614108372
7.536780544998428 -19.03213563640787
7.393837289913155 -18.99272838663185
7.252125827897355 -18.95366072319819
7.111620863455797 -18.914925672529197
6.97229769147801 -18.8765164238071
6.834132178904407 -18.83842632391975
6.697100747052452 -18.800648872588212
6.5611803545750425 -18.76317771766861
6.426348481024408 -18.726006650621
6.2925831109964 -18.68912960213815
6.159862718830848 -18.652540637927704
6.02816625384514 -18.616233954641284
5.897473126079028 -18.580203875944555
5.76776319252984 -18.544444848722495
5.639016743858045 -18.50895143941431
5.5112144915443055 -18.473718330472856
5.384337555479639 -18.438740316943402
5.258367451971619 -18.40401230315716
5.133286082149856 -18.36952929953483
5.009075720754952 -18.335286419495898
4.88571900529601 -18.30127887646954
4.763198925561993 -18.26750198100304
4.641498813473306 -18.233951137964045
4.520602333260314 -18.200621843832934
4.400493471956199 -18.167509684081843
4.281156530192042 -18.134610330637
4.162576113282582 -18.10191953942122
4.044737122591555 -18.069433147973474
3.927624747166052 -18.03714707314257
3.811224455629684 -18.005057308852262
3.69552198832486 -17.97315992393499
3.5805033496948377 -17.941451060031703
3.4661548008966245 -17.90992692955539
3.352462852636138 -17.878583813715814
3.2394142582174026 -17.847418060603296
3.1269960067979543 -17.81642608332933
3.0151953168428025 -17.78560435822193
2.903999629769751 -17.754949423073786
2.7933966037790907 -17.724457875441143
2.6833741078609665 -17.694126370991764
2.573920215973996 -17.663951621900075
2.4650232013889597 -17.63393039528777
2.356671531191624 -17.60405951170835
2.2488538609390245 -17.574335843673936
2.141559029463676 -17.544756314222877
2.0347760538204627 -17.51531789552667
1.9284941243711462 -17.486017607534848
1.8227026000015794 -17.456852516656436
1.7173910034669764 -17.42781973447672
1.6125490168606256 -17.398916416508015
1.5081664772018148 -17.37013976097337
1.4042333721386862 -17.341487007621858
1.3007398357619904 -17.312955436574537
1.1976761445258752 -17.28454236719986
1.0950327132719344 -17.256245157017545
0.9928000913529036 -17.228061200629973
0.8909689588525133 -17.199987928680034
0.7895301228981109 -17.17202280683459
0.6884745140628576 -17.1441633347926
0.5877931828542865 -17.116407045317093
0.48747729628625086 -17.088751503290073
0.38751813453131223 -17.06119430478967
0.2879070876507472 -17.03373307618863
0.18863565239943775 -17.006365473273476
0.08969542910301048 -16.979089180383607
-0.008921881395355123 -16.951901909569532
-0.10722448072086257 -16.924801399769738
-0.2052204758882466 -16.897785416005366
-0.30291788216039556 -16.870851748592095
-0.40032462584669204 -16.843998212368756
-0.49744854704329383 -16.817222645941797
-0.594297402317382 -16.790522910945338
-0.6908788673375181 -16.763896891315998
-0.7872005394519344 -16.73734249258209
-0.8832699402169039 -16.710857641166612
-0.9790945178768232 -16.684440283703516
-1.074681649797966 -16.658088386366753
-1.1700386448576365 -16.631799934211625
-1.2651727457904118 -16.60557293052797
-1.360091131493102 -16.579405396204706
-1.4548009192901834 -16.5532953691053
-1.5493091671610923 -16.527240903453727
-1.6436228759310645 -16.501240069230498
-1.7377489914269593 -16.475290951578316
-1.8316944065994767 -16.449391650217034
-1.9254659636133067 -16.42354027886743
-2.019070455906494 -16.39773496468346
-2.1125146302203994 -16.371973847692626
-2.205805188601626 -16.3462550802441
-2.298948790377153 -16.320576826464187
-2.3919520541039687 -16.29493726171885
-2.4848215594944647 -16.26933457208291
-2.5775638493187225 -16.243766953815612
-2.6701854312850313 -16.218232612842204
-2.7626927798996492 -16.192729764241204
-2.855092338307081 -16.167256631737093
-2.9473905201119277 -16.141811447198048
-3.0395937111834113 -16.116392450138463
-3.1317082714438005 -16.0909978872259
-3.2237405366415883 -16.06562601179226
-3.315696820110671 -16.04027508334881
-3.4075834145165307 -16.014943367104767
-3.4994065935904204 -15.989629133489233
-3.5911726138525455 -15.964330657676129
-3.6828877163253715 -15.93904621911186
-3.7745581282379446 -15.91377410104547
-3.866190064722291 -15.888512590060948
-3.95778973050281 -15.863259975611532
-4.04936332157971 -15.838014549555561
-4.140917026907455 -15.812774605693795
-4.23245703006909 -15.787538439307793
-2.2838778151324233 -8.325454333700009
-2.3322234300781775 -8.312126193644668
-2.3805715977853437 -8.298797349832396
-2.4289255818164617 -8.285466902549357
-2.4772886473045617 -8.27213395164876
-2.525664061835375 -8.258797596307632
-2.5740550963309405 -8.245456934783244
-2.6224650259351265 -8.232111064168967
-2.6708971309015785 -8.218759080149482
-2.7193546974846172 -8.205400076755186
-2.7678410188335736 -8.192033146115618
-2.816359395891113 -8.178657378211822
-2.8649131382960387 -8.165271860627449
-2.9135055652911284 -8.15187567829848
-2.9621400066365196 -8.138467913261424
