# .PCD v0.7 - Point Cloud Data file format
VERSION 0.7
FIELDS x y
SIZE 4 4
TYPE F F
COUNT 1 1
WIDTH 662
HEIGHT 1
VIEWPOINT 0 0 0 1 0 0 0
POINTS 662
DATA ascii
-6.044639537531821 16.607623141358836
-5.916497220067161 16.554129967638033
-5.7897036351956785 16.50119982382754
-5.664229176754781 16.448820351103596
-5.540045028086975 16.396979519884102
-5.417123134636391 16.345665618686937
-5.2954361777108785 16.29486724340398
-5.174957550220519 16.24457328669854
-5.055661331866364 16.194772928321523
-4.937522267555525 16.145455625089266
-4.820515743149844 16.096611102358427
-4.704617766895578 16.04822934436312
-4.589804947145454 16.000300586293406
-4.476054473270227 15.952815305953946
-4.363344097532395 15.905764215695754
-4.251652115076705 15.859138255370006
-4.140957349394889 15.812928584242286
-4.031239132820848 15.767126574725907
-3.922477291487171 15.721723805317735
-3.8146521297449705 15.676712054101461
-3.707744415609365 15.632083292381422
-3.6017353647747803 15.587829679018098
-3.4966066288858713 15.543943554086365
-3.392340280128102 15.500417433739104
-3.288918798806551 15.457244004664995
-3.186325062530498 15.41441611852093
-3.0845423311132323 15.371926787557456
-2.9835542378090505 15.32976917915858
-2.8833447762757465 15.287936611537027
-2.783898290122803 15.246422549124599
-2.6851994631999907 15.205220598066921
-2.5872333093419937 15.164324502048002
-2.4899851610482506 15.123728138484173
-2.393440661730111 15.083425514285631
-2.297585756968309 15.043410762009458
-2.202406683834264 15.003678136481128
-2.107889963303448 14.964222011076602
-2.0140223933522208 14.925036874100034
-1.9207910379808815 14.886117325881573
-1.8281832220959793 14.84745807518673
-1.736186524071499 14.80905393612268
-1.6447887656471862 14.770899825468158
-1.5539780092985942 14.732990759233774
-1.4637425469339365 14.695321850354423
-1.374070896212686 14.657888305616249
-1.284951794705998 14.620685422977976
-1.196374190767632 14.583708589278508
-1.1083272402611808 14.546953277487512
-1.0208002994060317 14.51041504441269
-0.9337829197623597 14.474089528305718
-0.8472648426446338 14.437972446603155
-0.7612359933916271 14.402059593746468
-0.6756864768251479 14.366346839003308
-0.5906065723305934 14.330830124394012
-0.5059867285095054 14.295505462701053
-0.4218175589661261 14.26036893548951
-0.3380898373986548 14.22541669122024
-0.25479449278295024 14.190644943405745
-0.1719226065356166 14.156049968782202
-0.08946540682257269 14.121628105601832
-0.007414265154488728 14.08737575192004
0.07423930732778021 14.053289363950197
0.15550366437112031 14.019365454461724
0.23638702786136817 13.985600591217889
0.3168974915810728 13.951991395458844
0.39704302474798225 13.91853454042448
0.4768314754596718 13.88522674991645
0.5562705740476398 13.852064796898018
0.6353679363440553 13.81904550213033
0.7141310668642283 13.786165732843898
0.7925673619077575 13.753422401444016
0.8706841125812264 13.720812464248953
0.9484885077451527 13.688332920259711
1.0259876368879035 13.65598080996033
1.10318849292909 13.623753214147602
1.18009797495493 13.591647252789183
1.2567228908879597 13.559660083909131
1.3330699600933902 13.52778890249987
1.4091458159243542 13.49603093945967
1.484957008208147 13.464383460554776
1.5605100056755916 13.432843765405257
1.6358111983354977 13.401409186493783
1.71086689979617 13.370077088196519
1.7856833495358408 13.338844865835316
1.860266715123848 13.307709944750492
1.9346230943943101 13.276669779393412
2.008758517574026 13.245721852438212
2.0826789493662026 13.214863673911932
2.1563902909916663 13.184092780342409
2.229898382189077 13.15340673392329
2.303209003175654 13.122803121695531
2.3763278765698774 13.092279554744746
2.4492606692775873 13.061833667413865
2.522012994342839 13.031463116530485
2.5945904127648913 13.00116558064838
2.666998435282565 12.970938759302596
2.7392425241273015 12.94078037227765
2.811328094746114 12.910688158888286
2.8832605174956334 12.880659877272274
2.955045119308426 12.850693303694825
1.1905284165343646 5.042975833549477
1.2067137392247806 4.981937522005947
1.2259217402213078 4.935744478061521
1.2468299622938397 4.898123973191915
1.2688792479826425 4.866320835727374
1.2917772057406192 4.838832291193811
1.3153520646499857 4.814731937052428
1.339495432991696 4.7934013824978425
1.364135743825383 4.774404079183448
1.389224444047491 4.757418809983935
1.4147281876986773 4.7422015771340975
1.44062413191447 4.728562320566956
1.4668969533405056 4.7163499509158
1.493536872105199 4.705442311765994
1.5205382917508277 4.695739198992436
1.547898827272179 4.6871573437556995
1.5756185822630366 4.679626691937054
1.6036995855670615 4.673087554091025
1.6321453264439827 4.667488342974254
1.6609603435672986 4.6627837015063625
1.6901498318984476 4.658932875616191
1.7197192354998658 4.655898217445265
1.7496737944221121 4.653643720340898
1.7800180111643786 4.652133493741853
1.8107549959856564 4.6513300827446455
1.8418856432592692 4.651192532403778
1.8734075791146465 4.651674080994645
1.905313809386802 4.652719355072078
1.9375909866205911 4.654260932082562
1.9702172089031404 4.656215140816871
2.00315927830676 4.658477023119395
2.0363693959078413 4.660914504531562
2.0697813932120286 4.663362094677826
2.1033068395808696 4.665614932626403
2.136831775248605 4.667424789796686
2.170215408313139 4.668500713928336
2.2032927485402256 4.668518015937351
2.235883429944831 4.667139433729941
2.2678081789359545 4.664050200788866
2.298911896394158 4.65900347374539
2.3290885598630195 4.651865435295324
2.358300308310654 4.64264498916206
2.386583949758991 4.631496380188786
2.4140431669068367 4.6186940542421775
2.4408306638666235 4.604590469039988
2.467127424650453 4.589571888894686
2.4931251394088885 4.574023537182087
2.519014729437415 4.55830858958164
2.5449811633960118 4.542760097138474
2.571203415864206 4.52768263390304
2.5978582851852243 4.513360544347366
2.625127326612656 4.500070899040931
2.6532070269736243 4.488100922447471
2.6823235571416846 4.477771688948673
2.7127554474508813 4.469472992784754
2.7448717001176535 4.463720550258157
2.7792032480127618 4.46126219689096
2.8165966360217394 4.463306016833395
2.8586152794146464 4.47211798865409
2.908999167616233 4.4932083271958305
3.4390455539248244 5.244874787190494
3.478454889355632 5.23836307763396
3.518532430647147 5.232504128015154
3.5593540087728575 5.2273766201259
3.6009993987839564 5.223060501764064
3.6435560204284902 5.219642114210954
3.687122776133573 5.217219130769882
3.731814599808065 5.2159061130403
3.777768385984954 5.215841545584111
3.8251512696214554 5.21719753402393
3.87417286312751 5.220194089395667
3.9251043554930622 5.225121455995844
3.978310175192674 5.232377271738664
8.203129184328025 10.659873917593144
8.27786656398128 10.628674703140359
8.352841113309909 10.597376481904114
8.428059047363975 10.565976659403834
8.503526654571235 10.534472610527331
8.579250298990793 10.502861678590017
8.655236422617255 10.471141174373026
8.73149154773714 10.439308375139536
8.808022279339564 10.407360523628412
8.884835307583135 10.375294827024417
8.96193741032113 10.343108455904048
9.039335455687018 10.310798543156237
9.117036404742652 10.278362182876831
9.195047314191282 10.245796429236062
9.273375339157775 10.213098295317923
9.352027736038572 10.180264751930475
9.431011865423748 10.147292726385995
9.510335195093964 10.114179101249922
9.590005303094898 10.080920713057427
9.670029880892054 10.047514350996428
9.750416736608814 10.013956755555858
9.831173798350836 9.980244617137899
9.912309117619849 9.946374574632884
9.993830872820203 9.912343213955488
10.07574737286152 9.878147066540794
10.158067060860976 9.843782607798767
10.240798517948855 9.809246255525629
10.323950467181254 9.774534368270485
10.407531777563797 9.739643243655626
10.491551468190513 9.704569116648747
10.576018712502204 9.669308157785286
10.660942842668641 9.63385647133907
10.74633335408217 9.598210093458503
10.832199910091775 9.562364990127069
10.91855234662196 9.526317055349564
11.005400677178887 9.490062109008795
11.092755098039591 9.453595894613851
11.18062599331815 9.416914077303979
11.26902394037567 9.380012241578896
11.357959715512006 9.34288588881813
11.447444299478917 9.305530435149224
11.537488883684109 9.267941208623515
11.628104875948765 9.230113447085907
11.719303907067948 9.192042295217766
11.811097837121348 9.153722802053725
11.903498762275374 9.115149918059894
11.996519021847725 9.076318492052959
12.090171205084395 9.037223268698673
12.184468158831423 8.99785888505508
12.279422994915196 8.958219867720965
12.375049098564936 8.918300628810211
12.471360135890224 8.878095463460822
12.568370062845167 8.837598545575597
12.666093133061894 8.796803925428634
12.76454390854022 8.7557055235131
12.863737266930288 8.714297129566786
12.963688412767498 8.67257239626259
13.064412886637625 8.630524836227236
13.165926575958316 8.588147817067185
13.26824572505443 8.545434557856872
13.371386947118191 8.502378123179538
13.475367235035652 8.458971419339269
13.580203973373353 8.415207189278728
13.685914951167522 8.371078006704444
13.792518373958725 8.326576271966372
13.900032877871688 8.281694205199233
14.008477542847892 8.23642384143236
14.117871906901602 8.19075702467914
14.22823598140325 8.144685400952028
14.33959026578767 8.098200412992396
14.451955764207659 8.05129329241465
14.565354001670483 8.003955053554712
14.679807041361887 7.956176486111256
14.795337502485642 7.907948147786232
14.911968579085059 7.859260356114024
15.029724059173859 7.810103180771162
15.148628344924266 7.760466435039728
15.268706473577028 7.710339667091642
15.389984139207119 7.659712150902537
15.512487715376373 7.608572876795389
15.636244278715845 7.556910541596032
15.761281633482858 7.504713538381795
15.887628337140416 7.451969945803313
16.01531372700923 7.398667516958642
16.144367948045414 7.344793667797411
16.27482198180001 7.2903354650316246
16.40670767661965 7.235279613528359
16.540057779151148 7.179612443158148
16.674905967216358 7.1233198950712975
16.676597714166277 7.00977281305746
16.619223995941994 6.872334693660698
16.562515858537342 6.736490965894596
16.506458025475414 6.602205035124494
16.45103565544089 6.46944134914061
16.396234326521107 6.33816536040766
16.342040021121914 6.208343489930972
16.288439111524802 6.079943092658746
16.23541834605361 5.9529324243445325
16.182964835820897 5.827280609798343
16.131066042025793 5.702957612458759
16.07970976377658 5.579934205222081
16.028884126412876 5.458181942468205
15.978577570303477 5.337673133226047
15.928778840097424 5.218380815424518
15.87947697440685 5.10027873117794
15.830661295901491 4.983341303057513
15.782321401795642 4.867543611302984
15.734447154709539 4.752861371931135
15.68702867388791 4.639270915699948
15.640056326759469 4.526749167889421
15.593520720821852 4.415273628862076
15.547412695837405 4.304822355368025
15.501723316325926 4.195373942561387
15.456443864341052 4.0869075066962814
15.411565832517953 3.9794026684725603
15.367080917380216 3.8728395370025948
15.322981012894763 3.767198694372106
15.279258204263954 3.6624611807692395
15.235904761944695 3.5586084801573907
15.192913135884783 3.45562250646845
15.150275949967284 3.3534855902943193
15.107985996654035 3.2521804660555764
15.066036231820023 3.1516902596271748
15.024419769770494 3.051998476402064
14.983129878433298 2.9530889897744563
14.942159974719145 2.854946030025396
14.901503620042888 2.7575541735940408
14.861154515999234 2.6608983327188493
14.821106500186565 2.5649637454336323
14.781353542172921 2.4697359659040634
14.741889739598358 2.375200855090949
14.702709314408246 2.281344571727124
14.663806609212283 2.1881535635955127
14.625176083764227 2.095614559096368
14.586812311557585 2.0037145590922805
14.548709976532722 1.9124408290200603
14.510863869890976 1.8217808912590543
14.473268887011711 1.7317225177459197
14.435920024468235 1.6422537228263194
14.39881237713884 1.5533627563344181
14.361941135409262 1.4650380968914498
14.325301582463123 1.3772684454149617
14.288889091656976 1.290042718830789
14.252699123976775 1.2033500439800375
14.216727225572692 1.1171797517137738
14.18096902536934 1.03152137116835
14.145420232748613 0.9463646242146523
14.110076635302411 0.8616994200747782
14.074934096652663 0.7775158500999686
14.039988554336222 0.6938041827038146
14.005236017752145 0.6105548584450773
13.970672566169183 0.527758485254595
13.936294346791213 0.4454058338010637
13.902097572878532 0.363487832990617
13.868078521922989 0.28199556559537337
13.834233533875004 0.2009202640062904
13.800559009420622 0.12025330610584278
13.767051408306788 0.03998621125624851
13.733707247713117 -0.0398893636009237
13.700523100668525 -0.11938162773770512
13.667495594511113 -0.19849866032909302
13.634621409389736 -0.2772484140424755
13.601897276805827 -0.3556387185306907
13.569319978194045 -0.4336772838320934
13.536886343540342 -0.5113717036809394
13.504593250036164 -0.5887294587312196
13.472437620767524 -0.6657579196970137
13.440416423437668 -0.7424643504122704
13.408526669122242 -0.8188559108128638
13.376765411055718 -0.8949396598436354
13.345129743448068 -0.9707225582930558
13.313616800330594 -1.0462114715580422
13.282223754429886 -1.1214131723413747
13.250947816068921 -1.1963343432840778
13.219786232094387 -1.2709815795350392
13.188736284829263 -1.3453613912600737
13.157795291049796 -1.4194802060925615
13.126960600986017 -1.4933443715277035
13.096229597344962 -1.5669601572624001
13.065599694355782 -1.640333757482652
13.035068336835998 -1.713471293100371
13.004632999278108 -1.7863788139413603
12.974291184955872 -1.8590623008862461
12.944040425049504 -1.9315276679660176
12.913878277789172 -2.003780764413822
12.88380232761606 -2.075827376674585
12.853810184360414 -2.1476732303740143
12.823899482435928 -2.219323992248436
12.794067880049864 -2.290785272036952
12.764313058428316 -2.362062624337277
12.734632721056087 -2.4331615504266457
12.705024592930577 -2.5040875000490983
12.675486419829182 -2.5748458731704273
12.64601596758966 -2.6454420217020354
12.616611021402974 -2.7158812511949306
12.58726938511812 -2.78616882250502
12.55798888055843 -2.8563099534308654
12.528767346848928 -2.9263098203250286
12.499602639754238 -2.9961735596800825
12.470492631026632 -3.065906269690367
12.441435207763758 -3.1355130117905277
12.412428271775656 -3.2049988121718513
12.383469738960612 -3.274368663277386
12.35455753868945 -3.343627525276835
12.325689613200852 -3.412780327511546
12.29686391698486 -3.481831969991225
12.26807841621741 -3.5507873247143382
12.239331088168223 -3.61965123709814
12.210619920622417 -3.688428527365886
12.181942911243658 -3.75712399212898
12.15329806708729 -3.8257424054717033
12.124683404091513 -3.8942885201409
12.09609694632096 -3.962767069513208
12.0675367256165 -4.031182768275958
12.039000780926077 -4.0995403141198885
12.010487157851038 -4.167844388770239
11.981993907981488 -4.236099659646049
11.953519088536744 -4.304310780633534
11.92506076179629 -4.372482393486535
11.896616994191918 -4.440619130122547
11.868185856399007 -4.5087256121819745
11.839765422480106 -4.576806453214591
11.811353769209475 -4.644866260312123
11.782948975906915 -4.712909634429396
11.754549123726564 -4.7809411721373625
11.726152295140853 -4.848965466854815
11.697756573423584 -4.9169871100831095
11.669360042008622 -4.985010692932668
11.640960784381921 -5.053040806393363
11.61255688313586 -5.121082043595425
11.584146419631963 -5.1891390006178
11.555727473371517 -5.257216277978208
11.527298121773548 -5.3253184812190355
11.498856439352238 -5.393450222833391
11.470400497106183 -5.461616123686528
11.441928362321834 -5.529820813565655
11.413438098020377 -5.59806893251908
11.384927762168516 -5.666365132664457
11.356395407372393 -5.734714078995004
11.32783907986044 -5.803120451614962
11.299256820035874 -5.871588944875337
11.270646660589444 -5.9401242713211175
11.242006627137561 -6.008731160696361
11.213334736696876 -6.077414363133042
11.18462899761029 -6.146178649548921
11.155887409410658 -6.2150288122355315
11.127107961045281 -6.283969668413535
11.098288631860463 -6.353006058794136
11.06942738947864 -6.4221428517237795
11.040522190247215 -6.491384942741893
11.01157097861656 -6.560737256084738
10.982571685734976 -6.630204747485607
10.953522229694702 -6.699792404175516
10.924420514575775 -6.769505246941578
10.895264429787925 -6.839348331672825
10.866051849447242 -6.909326750854386
10.836780631900524 -6.979445634841443
10.807448618878178 -7.04971015373062
10.778053634930682 -7.120125518787653
10.748593486739196 -7.190696984084004
10.719065962433639 -7.261429848130459
10.689468830899306 -7.332329455538085
10.659799841071607 -7.403401198707674
10.6300567212184 -7.474650519548921
10.600237178209444 -7.546082911230435
10.57033889677241 -7.617703919961956
10.54035953873496 -7.689519146809944
10.510296742252322 -7.761534249547915
10.480148121019804 -7.833754944542873
10.449911263469643 -7.906187008679219
10.419583731951635 -7.978836281321566
10.389163061896873 -8.051708666317982
10.35864676096401 -8.124810134045116
10.32803230816734 -8.198146723496881
10.297317152986045 -8.271724544418207
10.266498714453926 -8.34554977948562
10.23557438022884 -8.419628686536374
10.204541505641153 -8.493967600847874
10.173397412720409 -8.568572937469296
10.142139389199404 -8.643451193607284
10.11076468749489 -8.718608951067695
10.07927052366399 -8.79405287875549
10.047654076335483 -8.869789735234798
10.015912485615054 -8.945826371351421
9.984042851963514 -9.02216973292002
3.709058832885556 -3.391071234407896
3.6075813163640293 -3.3369728333061865
3.523476542175898 -3.297362451697037
3.4492907633229763 -3.2657277095076593
3.3819133162647166 -3.239397833668777
3.319715570312508 -3.217005577743378
3.2617229936731387 -3.197755782226459
3.2072920804253573 -3.1811404748743786
3.1559620485529036 -3.1668080873743394
3.10738009792493 -3.15449753323647
3.0612616015237637 -3.1440031870642424
3.0173680850145614 -3.135155683058313
2.975494594737128 -3.1278111057973748
2.935462107958396 -3.121844697980754
2.8971126795660807 -3.1171470082293906
2.8603060997920617 -3.113621365261182
2.8249174122569745 -3.1111820833681403
2.790834950455113 -3.1097530869502776
2.7579587102598713 -3.109266789230396
2.7261989637012825 -3.1096631429471424
2.695475056732145 -3.11088881516365
2.6657143601956856 -3.112896463939796
2.6368513500005073 -3.1156440999294635
2.6088268000300334 -3.119094522848171
2.581587074333806 -3.1232148250332443
2.55508350581142 -3.1279759540225758
2.5292718513751504 -3.1333523284208202
2.504111813862368 -3.1393215008481117
2.4795666224714346 -3.14586386282651
2.4556026642720963 -3.1529623867432903
2.432189160169085 -3.1606024004439766
2.409297879430237 -3.168771390372645
2.3869028879810226 -3.1774588300853983
2.3649803258638937 -3.186656030790902
2.343508209898658 -3.1963560110024285
2.322466258292293 -3.20655338298616
2.3018357342220654 -3.217244253763566
2.281599305412211 -3.2284261381256036
2.26174091780275 -3.2400978823454514
2.2422456806839306 -3.2522595960405356
2.2230997616760364 -3.2649125908100634
2.2042902894553076 -3.2780593233859237
2.185805262565064 -3.291703341433847
2.1676334624781983 -3.3058492296641586
2.149764369127637 -3.320502553731734
2.132188077009045 -3.3356697989589104
2.1148952097472544 -3.3513583002675267
2.097876831016427 -3.3675761593324154
2.0811243492013842 -3.3843321437481637
2.064629412638558 -3.4016355615720015
2.048383792753988 -3.419496104738801
2.032379250520538 -3.4379236509971025
2.0166073824621495 -3.4569280143522887
2.0010594409322566 -3.4765186304046254
1.9857261238051143 -3.496704162326317
1.9705973270953432 -3.517492008903914
1.9556618564527743 -3.5388876985950706
1.9409070916573448 -3.560894148630345
1.9263186029888801 -3.583510774918832
1.9118797203199527 -3.606732440910184
1.897571063928279 -3.6305482481066913
1.8833700548896564 -3.6549401887405937
1.8692504381195456 -3.679881713725122
1.855181868353761 -3.7053363097919383
1.8411296314439713 -3.7312562355988286
1.827054592990007 -3.757581624599972
1.8129134791109587 -3.7842402135016795
1.7986595916135157 -3.811147980017468
1.7842440262662058 -3.838210934517638
1.7696174002456349 -3.865328201327923
1.7547319975977385 -3.8923963240574007
1.7395441327326728 -3.919314473117284
1.7240164459420235 -3.945989993313467
1.708119812640776 -3.9723435805105782
1.691834595110839 -3.998313395048689
1.6751510831996261 -4.0238576127307795
1.6580691236558547 -4.0489552249473295
1.6405970750790675 -4.073605218949474
1.6227503143989477 -4.097824515821925
1.60454954240983 -4.12164515487225
1.5860191045515544 -4.145111202089617
1.5671854813037995 -4.168275764847727
1.5480760353547276 -4.191198368135233
1.5287180446146083 -4.2139428239937455
1.5091380098454446 -4.236575631009924
1.4893612036138104 -4.259164881776324
1.4694114176504007 -4.281779623478113
1.4493108653965647 -4.304489606160228
1.429080202800019 -4.327365360935295
1.4087386368750856 -4.3504785602555085
1.3883041005034016 -4.373902632145264
1.3677934793407784 -4.397713618847761
1.3472228845093133 -4.421991293891834
1.3266079714590147 -4.44682057599006
1.3059643137448214 -4.4722933130054985
1.2853078490650194 -4.498510551724135
1.2646554266609975 -4.525585471389811
1.2440255035825376 -4.553647258082508
1.2234390641274482 -4.5828463480385455
1.202920883758276 -4.613361728211164
1.1825013397629993 -4.645411432019869
1.1622191210948567 -4.679268195542314
1.142125485386351 -4.715283853601348
1.1222913318484646 -4.753929420004311
1.1028197847232495 -4.795865460775749
1.0838706398757505 -4.842076870433943
1.065713943968704 -4.894163873249892
4.315653754216259 -20.388091563342233
4.180460065879878 -20.33165478572655
4.046332681825879 -20.275663138193462
3.9132500902319705 -20.220107640605313
3.7811912530572074 -20.164979510605086
3.6501355918376657 -20.11027015768677
3.520062973970051 -20.055971177469445
3.390953699463311 -20.002074346166715
3.2627884881394342 -19.94857161524369
3.135548467265363 -19.895455106253884
3.0092151595987744 -19.842717105848912
2.8837704718313 -19.79035006095413
2.759196683413445 -19.73834657410356
2.63547643574617 -19.68669939892788
2.5125927217248365 -19.63540143578957
2.3905288756217042 -19.584445727559338
2.269268563293903 -19.533825455528408
2.1487957727043074 -19.483533935451455
2.0290948047432837 -19.433564613715152
1.910150264339841 -19.38391106362747
1.791947051851083 -19.334566981823222
1.6744703547195445 -19.285526184781414
1.557705639388217 -19.236782605450134
1.4416386434635915 -19.188330289975017
1.3262553681174813 -19.14016339452739
1.2115420707187026 -19.092276182228336
1.0974852576860983 -19.044663020165185
0.9840716775547294 -18.99731837649701
0.8712883142473619 -18.95023681764576
0.7591223805437913 -18.90341300557005
0.6475613117406886 -18.85684169511846
0.5365927594950992 -18.810517731459477
0.42620458584490756 -18.764436047585328
0.31638485739987404 -18.71859166188704
0.20712183969709838 -18.672979675798107
0.09840399171500461 -18.62759527150436
-0.00978003945985311 -18.582433709717595
-0.11744142381856247 -18.537490327510792
-0.22459115347353595 -18.49276053621261
-0.3312400475650966 -18.44823981935911
-0.43739875703582953 -18.403923730700733
-0.54307776927743 -18.35980789226244
-0.6482874126544667 -18.315887992455274
-0.753037860909505 -18.27215978423742
-0.8573391374535997 -18.228619083323153
-0.9612011195464253 -18.185261766437822
-1.0646335423696704 -18.142083769617418
-1.167646002997598 -18.099081086551053
-1.2702479642683377 -18.056249766964868
-1.3724487585593725 -18.013585915046
-1.4742575914705303 -17.971085687905042
-1.5756835454178721 -17.928745294075842
-1.6767355831413973 -17.886560992051145
-1.7774225511297483 -17.84452908885299
-1.8777531829647685 -17.8026459386365
-1.9777361025886815 -17.76090794132599
-2.077379827496736 -17.719311541282206
-2.176692771857844 -17.677853225999613
-2.2756832495657724 -17.636529524832646
-2.37435947722342 -17.595337007749947
-2.472729577062486 -17.554272284115537
-2.5708015798008823 -17.51333200149598
-2.668583427440129 -17.472512844492613
-2.7660829760048316 -17.431811533597948
-2.86330799822647 -17.39122482407531
-2.960266186173398 -17.350749504860957
-3.056965153829122 -17.310382397487764
-3.153412439620732 -17.27012035502973
-3.2496155088993217 -17.22996026106652
-3.345581756374336 -17.189899028667245
-3.4413185085033917 -17.149933599392824
-3.536833025839439 -17.110060942316174
-3.6321325053369145 -17.070278053059486
-3.727224082618428 -17.030581952847996
-3.8221148342035574 -16.99096968757959
-3.9168117797013813 -16.9514383269095
-4.011321883968142 -16.911984963349603
-4.105652059231559 -16.872606711381625
-4.199809167183138 -16.833300706583703
-4.293800021039948 -16.794064104769664
-4.387631387577211 -16.75489408114058
-4.48130998913292 -16.715787829447873
-4.574842505585926 -16.6767425611676
-4.668235576308665 -16.63775550468527
-4.761495802095839 -16.598823904490715
-4.85462974707015 -16.559945020382543
-4.947643940566409 -16.521116126681605
-5.040544878995149 -16.482334511453047
-5.133339027686837 -16.443597475736414
-5.226032822717881 -16.404902332783404
-5.318632672719506 -16.366246407302736
-5.411144960670624 -16.32762703471173
-5.503576045675743 -16.289041560394093
-5.59593226472901 -16.25048733896353
-5.688219934465409 -16.21196173353272
-5.78044535290017 -16.173462114987178
-5.872614801157396 -16.134985861263626
