# .PCD v0.7 - Point Cloud Data file format
VERSION 0.7
FIELDS x y
SIZE 4 4
TYPE F F
COUNT 1 1
WIDTH 662
HEIGHT 1
VIEWPOINT 0 0 0 1 0 0 0
POINTS 662
DATA ascii
-2.0288387216266544 5.574226336270481
-1.9904108877140223 5.569092538819056
-1.95163891591023 5.56235444239702
-1.9127084715970408 5.554471235459285
-1.8738441494413807 5.546053143263839
-1.8352689502040367 5.537753496608928
-1.7971694309102573 5.530165279651381
-1.7596780730112533 5.523759207804454
-1.722872649967441 5.518868753089135
-1.6867855582535218 5.5157060371712845
-1.651416052582764 5.514389617831053
-1.6167412620804205 5.514971853171925
-1.5827245132649048 5.517460599994178
-1.5493209481811363 5.521834259072691
-1.516480952156421 5.528050945199318
-1.484151966905165 5.5360529502550095
-1.4522791640499948 5.545767504430215
-1.4208053233249602 5.5571045608582565
-1.389670179333341 5.56995212881951
-1.3588094661618164 5.584169673377333
-1.3281539288351982 5.59958036839043
-1.2976286734491482 5.615963611918596
-1.2671533775788466 5.633050172913338
-1.2366439896046897 5.650523377057376
-1.2060164716554471 5.668030138897894
-1.175192679448948 5.6852043105982615
-1.144107581450277 5.70170096281213
-1.1127160315182811 5.717234735994197
-1.0809968979725355 5.731611491435394
-1.0489530820269204 5.744743613490102
-1.0166075352951116 5.756645659908655
-0.9839968253863685 5.767414602797825
-0.9511642723217161 5.777203051112482
-0.9181541906632645 5.786193310298239
-0.8850079006471872 5.794576910429083
-0.8517614661034938 5.802540911393179
-0.8184447659868087 5.810260210564478
-0.7850814358436289 5.8178942884714875
-0.7516892921928519 5.825586841530778
-0.7182809752543587 5.83346709312128
-0.6848646420914454 5.84165196714653
-0.6514446199396106 5.850248630061601
-0.6180219812118143 5.859357136145572
-0.5845950189721326 5.869073064730194
-0.5511596285655939 5.879490131365777
-0.5177095972096392 5.890702820482576
-0.48423680826504995 5.90280913315978
-0.4507313698782694 5.915913585929733
-0.41718166755008274 5.930130651993543
-0.3835743423853045 5.945588910384867
-0.3498941879039401 5.962436289006415
-0.31612395189447423 5.980846982694627
-0.2822440187678882 6.001030960255452
-0.24823192848037584 6.023247564728664
-0.2140616574635319 6.0478258049159
-0.17970253038414086 6.075196082874901
-0.14511751696194905 6.105942621235264
-0.11026042486263209 6.140896231487857
-0.07507091150427934 6.181313765949957
-0.03946458855557417 6.229270761911936
-0.00818406574963383 15.55002511930816
0.0820044174512053 15.523202586949754
0.17188780766336706 15.496470790861329
0.2614736860825282 15.469827476355162
0.35076954377198694 15.443270415549366
0.439782784347959 15.416797406569284
0.5285207266068603 15.390406272766118
0.6169906070966713 15.36409486195219
0.7051995826343886 15.337861045652236
0.7931547327715127 15.31170271837016
0.8808630622094529 15.28561779687068
0.9683315031667018 15.25960421947532
1.0555669176995048 15.23365994537222
1.1425760999778107 15.207782953939276
1.2293657785181311 15.181971244080053
1.315942618374948 15.156222833572064
1.4023132232922508 15.130535758426886
1.4884841378167277 15.104908072261688
1.5744618493741296 15.079337845681708
1.6602527903102071 15.053823165673267
1.7458633398977008 15.028362135006878
1.8312998263107154 15.002952871650065
1.9165685285678358 14.977593508189457
2.0016756784452983 14.95228219126181
2.0866274623614864 14.927017080993549
2.1714300232340036 14.901796350448457
2.2560894623105527 14.876618185083169
2.3406118409747743 14.8514807822101
2.4250031825282634 14.826382350467465
2.5092694739498675 14.801321109296067
2.5934166676333867 14.776295288422473
2.677450683104793 14.751303127348322
2.7613774087200076 14.726342874845392
2.8452027033443206 14.701412788456128
2.928932398014485 14.676511133999329
3.0125722975844664 14.651636185080697
3.0961281823559044 14.626786222607922
3.179605809694232 14.60195953431005
3.263010915631438 14.577154414260793
3.346349216456428 14.552369162405576
3.429626410293925 14.527602084091935
3.51284817867287 14.502851489603087
3.5960201880851828 14.47811569369434
3.679148091535878 14.45339301513207
3.762237530085382 14.428681776235049
3.845294134384971 14.403980302417777
3.9283235262062184 14.379286921735623
4.011331319965336 14.354599964431486
4.094323124243287 14.3299177624837
4.177304543302554 14.305238649154923
4.260281178601417 14.28056095854182
4.343258630306622 14.255883025125145
4.426242498805337 14.231203183320112
4.509238386217178 14.20651976702669
4.592251897907295 14.181831109179601
4.675288644001267 14.157135541297809
4.758354240902769 14.13243139303312
4.841454312814809 14.107716991717787
4.924594493265483 14.08299066191073
5.007780426639063 14.058250724942189
5.091017769713373 14.033495498456489
5.174312193204251 14.00872329595272
5.2576693833181185 13.98393242632299
5.341095043313451 13.959121193388034
5.4245948950721505 13.934287895429886
5.508174680681673 13.909430824721335
5.591840164028921 13.884548267051906
5.6755971324068035 13.859638501250046
5.759451398134419 13.834699798701287
5.843408800191888 13.80973042286203
5.9274752058707625 13.784728628768706
6.011656512441066 13.75969266254199
6.095958648835948 13.734620760885777
6.180387577355032 13.70951115058059
6.264949295387482 13.684362047971147
6.349649837155914 13.659171658447697
6.434495275482157 13.633938175920875
6.5194917235761345 13.60865978228969
6.604645336848865 13.583334646902317
6.68996231475087 13.55796092600935
6.775448902637093 13.532536762209169
6.8611113936596375 13.50706028388502
6.946956130689549 13.48152960463348
7.032989508268885 13.455942822683882
7.119217974594466 13.430298020308358
7.205648033534626 13.404593263222036
7.292286246680338 13.37882659997302
7.379139235432145 13.352996061321738
7.466213683124389 13.327099659609175
7.5535163371882055 13.301135388113593
7.641054011354869 13.275101220395232
7.728833587901016 13.248995109628593
7.816862019937481 13.222814987921701
7.9051463337433505 13.19655876562196
7.9936936311470035 13.170224330608013
8.082511091955926 13.143809547567102
8.171605976437155 13.117312257257378
8.260985627850259 13.09073027575457
8.350657475034765 13.064061393682472
8.44062903505417 13.037303375426607
8.530907915898528 13.010453958330457
8.621501819247804 12.983510851873623
8.712418543298265 12.956471736831258
8.803665985654193 12.929334264414038
8.895252146287286 12.902096055388025
8.987185130566269 12.874754699173655
9.079473152359228 12.847307752923072
9.172124537211328 12.819752740575069
9.26514772560068 12.792087151886776
9.358551276275103 12.764308441441276
9.452343869672884 12.736414027630271
9.54653431143041 12.708401291610887
9.641131535979907 12.680267576235677
9.736144610240586 12.652010184954866
9.831582737406533 12.623626380689817
9.927455260834897 12.595113384676647
10.023771668038014 12.566468375278959
10.120541594783276 12.537688486768523
10.217774829304641 12.508770808072741
10.315481316629961 12.479712381487676
10.413671163028257 12.450510201355426
10.51235464058144 12.421161212704451
10.611542191885043 12.391662309851549
10.711244434882742 12.362010334964062
10.811472167839536 12.33220207658082
10.912236374458908 12.302234268090254
11.013548229149201 12.27210358616417
11.11541910244478 12.241806649145447
11.217860566587932 12.211340015387968
11.32088440127739 12.180700181546975
11.424502599589868 12.149883580817953
11.528727374081173 12.118886581122156
11.633571163073698 12.087705483236656
11.739046637137422 12.056336518866868
11.845166705771895 12.024775848659276
11.951944524296884 11.993019560152142
12.05939350095981 11.9610636656617
12.167527304268377 11.928904100101398
12.276359870557222 11.896536718731534
12.38590541179769 11.863957294836595
12.496178423660432 11.831161517327391
12.607193693840724 11.798144988265058
12.718966310657004 11.764903220303818
12.8315116719336 11.731431634049201
12.944845494178946 11.69772555532839
7.603789161250138 6.791410937230766
7.561687947282601 6.675247936109068
7.543103054562459 6.581274604702478
7.534341727429276 6.4969348269225415
7.529907554737583 6.417224802778656
7.525853194175419 6.338671281045236
7.517633739104883 6.257462658133246
7.497909386049309 6.167666865632936
7.453748598314817 6.059089052805148
7.375915892258301 5.924994211337734
7.291965286588211 5.788188837773091
7.229267261744608 5.670279648035437
7.187658757517247 5.570509767117662
7.161771410651086 5.4841539778075665
7.14767756297339 5.407785201848938
7.142866732151148 5.339186711422537
7.14572951068253 5.276903754005259
7.155219335944307 5.2199543935981305
7.170658340171985 5.167663277518223
7.191626953097583 5.1195659440108585
7.217901672054531 5.075353208100602
7.2494224259155855 5.034839629192624
7.286280482411481 4.9979479660869295
7.328723501670538 4.964706045277963
7.377178532752998 4.935255528237144
7.43229808938541 4.909874925668692
7.495040513449375 4.889022846439893
7.566805328168058 4.873412889980041
7.649656641467099 4.864138143295781
7.746657924790724 4.862855077584045
7.862095441768563 4.871882794550674
7.999419684186878 4.892896559976271
8.14771647758934 4.918795890175978
8.272479066891837 4.928775532608673
8.363963034565161 4.917675338811047
8.436471641113563 4.894582541450657
8.501125381180364 4.866308927843197
8.564532196876016 4.836769871961069
8.631916234207303 4.8089054804111955
8.710631033803491 4.786666995849596
8.828096936644352 4.784660797416342
18.68937851393345 9.989271023909126
18.858158179373945 9.939075057893849
19.028955448852173 9.888279045756626
19.20181845396139 9.83686867290682
19.376796779922653 9.78482919243719
19.55394152206511 9.73214540832634
19.7333053449444 9.67880165785663
19.91494254424425 9.62478179320427
20.09890911161569 9.570069162155837
20.28526280261806 9.514646587902218
20.47406320793667 9.458496347858137
20.665371828063154 9.401600151451795
20.859252151636966 9.34393911682572
21.055769737659244 9.285493746385898
21.254992301804666 9.226243901132198
21.456989807071817 9.166168773698463
21.661834559028794 9.105246860025957
21.869601305928683 9.043455929588493
22.08036734398793 8.980772994082104
22.294212628141317 8.9171742744859
22.35221387758471 8.790105360731808
22.30194825144525 8.621091469049912
22.252131922946216 8.453588302461158
22.202755577398438 8.28756454111564
22.15381012279958 8.122989613928997
22.105286682806756 7.959833674953367
22.0571765899672 7.7980675806162205
22.00947137919601 7.637662867789721
21.96216278149029 7.478591732655081
21.915242717869674 7.320827010328119
21.86870329353366 7.164342155213768
21.82253679222662 7.009111222058935
21.776735670801852 6.855108847674509
21.73129255397629 6.702310233298659
21.686200229268145 6.55069112757495
21.641451642109832 6.400227810119984
21.59703989112902 6.250897075656451
21.552958223591077 6.102676218688617
21.509200030996254 5.955543018698269
21.465758844825462 5.809475725840255
21.422628332428644 5.664453047117487
21.379802293050105 5.520454133016483
21.337274653985375 5.377458564585062
21.295039466864367 5.23544634093484
21.253090904055927 5.094397867151847
21.21142325518905 4.954293942599366
21.170030923786175 4.815115749597698
21.128908424004273 4.676844842466358
21.08805037747958 4.539463136914734
21.047451510271973 4.402952899767849
21.00710664990525 4.267296739014491
20.967010722499605 4.132477594165453
20.927158749992866 3.9984787269101867
20.88754584744716 3.8652837120606636
20.848167220437762 3.732876428771631
20.80901816252113 3.6012410520270413
20.770094052779104 3.4703620443826977
20.731390353436527 3.3402241479556922
20.69290260754955 3.2108123766514955
20.65462643676203 3.0821120086200287
20.616557539127502 2.954108578932313
20.57869168699442 2.8267878724696525
20.54102472495226 2.700135917017666
20.50355256783635 2.5741389765577356
20.466271198789364 2.448783544748749
20.42917666737724 2.324056338592296
20.392265087757842 2.1999442922747523
20.355532636900268 2.076434551179934
20.31897555285308 1.9535144660661885
20.282590133059745 1.831171587402161
20.246372732719554 1.709393659855526
20.210319763192434 1.5881686169293276
20.174427690446095 1.4674845757406685
20.13869303354407 1.3473298319367695
20.10311236317309 1.2276928547435269
20.067682300208553 1.1085622821419445
20.032399514316655 0.9899269161679065
19.997260722591918 0.8717757183310244
19.962262688228883 0.7540978051483176
19.927402219226785 0.6368824437887604
19.892676167126016 0.5201190478247772
19.858081425775314 0.4037971730869599
19.82361493012851 0.287906513618382
19.78927365506997 0.17243689772500928
19.75505461426748 0.05737828411886347
19.720954859051844 -0.05727924184936394
19.686971477322135 -0.17154547187134828
19.65310159247565 -0.2854300782789112
19.619342362361866 -0.3989426175614393
19.58569097825933 -0.5120925338058404
19.552144663874863 -0.6248891620617477
19.51870067436415 -0.7373417316346806
19.48535629537299 -0.8494593693097113
19.45210884209849 -0.9612511025081735
19.418955658369427 -1.0727258623798106
19.38589411574515 -1.1838924868327387
19.352921612632237 -1.2947597235034962
19.32003557341837 -1.4053362326693897
19.287233447622704 -1.5156305901052955
19.25451270906213 -1.6256512898869988
19.221870855032854 -1.7354067471430967
19.18930540550668 -1.8449053007574387
19.156813902341405 -1.9541552160240196
19.124393908504867 -2.0631646872561973
19.09204300731196 -2.1719418403520305
19.059758801674228 -2.280494735317535
19.02753891336144 -2.388831368749544
18.99538098227467 -2.496959676279899
18.96328266573043 -2.60488753498255
18.931241637755306 -2.7126227657452247
18.899255588390695 -2.8201731356071837
18.867322223007196 -2.92754636006462
18.83543926162812 -3.034750105345155
18.80360443826182 -3.141791990652954
18.771815500242287 -3.2486795903858123
18.7400702075777 -3.355420436325694
18.708366332306422 -3.462022019804023
18.676701657860164 -3.568491793843137
18.645073978433775 -3.6748371752751825
18.613481098361415 -3.7810655468397805
18.581920831498614 -3.8871842592617174
18.550391000609924 -3.993200633309951
18.518889436761764 -4.099121961839145
18.48741397872008 -4.204955511814954
18.45596247235247 -4.310708526324306
18.42453277003446 -4.416388226571805
18.393122730059503 -4.522001813863499
18.36173021605244 -4.627556471579139
18.33035309638599 -4.733059367134085
18.298989243600037 -4.838517653932024
18.26763653382324 -4.943938473309614
9.971233724409235 -2.7608702931507927
9.684576486277681 -2.7421681050866615
9.524997194277358 -2.756848966719248
9.408543574644435 -2.7824761127816147
9.315617564550976 -2.813943092036648
9.238016083723199 -2.8491655330115515
9.171424148193456 -2.8870769143178032
9.11325323273073 -2.927056836253896
9.06180809415519 -2.968712541336604
9.015904411543591 -3.0117793987804036
8.974670832748679 -3.0560696484961074
8.937436629597746 -3.101443315087266
8.903662848272056 -3.147790213450566
8.872897033576942 -3.195017808078111
8.844741310428141 -3.2430422307520907
8.818828275886943 -3.291780979944814
8.79480165204709 -3.3411464854390553
8.77230021020698 -3.391040175118679
8.75094472100295 -3.4413470864283124
8.730328915675818 -3.4919315480833792
8.710016742458087 -3.542635044160823
8.689549302353335 -3.5932779507821957
8.668464968549783 -3.643667078130339
8.646334134841357 -3.6936102718306247
8.622804990965994 -3.7429372276024684
8.597649883712169 -3.7915224768921876
8.570797332239064 -3.839303915197381
8.542337380101413 -3.8862906061203755
8.512498031520622 -3.932557535141014
8.481601982331092 -3.9782302129658307
8.450018398010275 -4.023465156222217
8.418122136525811 -4.068431957238019
8.386266324780154 -4.11330017908675
8.354768309889664 -4.158231728088853
8.323905903010504 -4.203377802716785
8.29392021682524 -4.248879039947867
8.26502209775429 -4.294867631672291
8.2374001981344 -4.341470576007257
8.211229672986969 -4.388813602423049
8.186681169231134 -4.4370256388985805
8.163930281383653 -4.486243933756493
8.143168056926607 -4.536620193386168
8.124613596911411 -4.588328394881091
8.108530494131225 -4.641575387510642
8.09525008996404 -4.696616244810786
8.085207009385993 -4.753777958622466
8.078997765735767 -4.813498613087739
8.077485904921986 -4.876397525738325
8.082011235095223 -4.943414213973926
8.094869537919855 -5.01612527063949
8.120681227525816 -5.097642922155916
16.598971766270566 -10.554681797069106
16.56504857891395 -10.668745628632438
16.531010539037347 -10.783195642023445
16.496854753387105 -10.898041565561417
16.462578292708464 -11.013293248616264
16.428178190664 -11.128960665245268
16.393651442726778 -11.245053917914577
16.358995005047532 -11.36158324130846
16.324205793294624 -11.47855900622962
16.2892806814661 -11.595991723593741
16.25421650067254 -11.713892048521847
16.21901003788992 -11.832270784533934
16.183658034681134 -11.951138887847529
16.148157185885253 -12.070507471785103
16.1125041382732 -12.190387811294146
16.076695489168728 -12.310791347584097
16.04072778503333 -12.431729692884335
16.004597520013927 -12.553214635327624
15.968301134451783 -12.675258143963617
15.931835013351407 -12.797872373907138
15.895195484807868 -12.921069671626116
15.858378818391065 -13.044862580374414
15.821381223485343 -13.169263845774704
15.784198847582815 -13.294286421557013
15.746827774528702 -13.419943475458622
15.709264022716921 -13.546248395291286
15.671503543234026 -13.673214795181977
15.633542217949696 -13.800856521993595
15.595375857551643 -13.929187661932291
15.55700019952298 -14.058222547348484
15.518410906059824 -14.187975763738708
15.479603561926897 -14.318462156955965
15.440573672248831 -14.449696840636282
15.401316660234677 -14.581695203849883
15.36182786483311 -14.714472918985328
15.322102538315688 -14.848045949875582
15.282135843785406 -14.982430560175336
15.24192285260768 -15.11764332199911
15.201458541760699 -15.25370112483041
15.160737791102138 -15.390621184712241
15.119755380548831 -15.52842105373014
15.078505987166128 -15.66711862979904
15.036984182163275 -15.806732166766007
14.995184427791186 -15.947280284841256
14.953101074138646 -16.08878198137057
14.910728355822998 -16.231256641962663
14.868060388570997 -16.374724051985755
14.825091165685418 -16.51920440844824
14.781814554392847 -16.664718332278987
14.738224292067766 -16.811286881023552
14.694313982327856 -16.95893156197331
14.650077090995287 -17.107674345745323
14.605506941918417 -17.257537680331573
14.560596712648042 -17.408544505637074
14.51533942996224 -17.56071826852732
14.46972796523332 -17.71408293840646
14.423755029630302 -17.868663023348606
14.377413169149845 -18.024483586805854
14.330694759468376 -18.181570264917607
14.283592000607674 -18.339949284447066
14.23609691140586 -18.499647481372065
14.188201323785346 -18.660692320158628
14.13989687680882 -18.823111913747173
14.091175010513975 -18.986935044282752
14.04202695951716 -19.1521911846222
13.992443746375656 -19.31891052065292
13.942416174697778 -19.4871239744596
13.891934821989425 -19.656863228377052
13.840990032225061 -19.828160749969697
13.789571908130624 -20.001049817979574
13.581300451453945 -19.94591498228415
13.37015703611881 -19.88311981277809
13.161966644411086 -19.821202888132017
12.956653995897925 -19.76014181954667
12.754146260195926 -19.699914946880476
12.554372956934557 -19.640501308898102
12.35726586056676 -19.581880614960674
12.162758909754752 -19.524033218076617
11.970788121076067 -19.46694008923735
11.781291506811307 -19.410582792966984
11.59420899658994 -19.354943464019296
11.40948236268404 -19.30000478515975
11.227055148753353 -19.24574996597387
11.046872601856654 -19.192162722647087
10.868881607555915 -19.13922725866434
10.693030627950021 -19.086928246381
10.519269642484588 -19.035250809419377
10.347550091393813 -18.984180505848066
10.17782482163829 -18.9337033121035
10.010048035211126 -18.883805607615994
9.844175239691847 -18.834474160104143
9.680163200934675 -18.785696111504127
9.517969897784154 -18.73745896450184
9.35755447871717 -18.689750569638058
9.198877220316247 -18.64255911295811
9.041899487484235 -18.595873104179592
8.886583695315434 -18.54968136535256
8.732893272542972 -18.503973019988642
8.580792626486826 -18.458737482636376
8.430247109430569 -18.413964448881476
8.281222986359284 -18.369643885751906
8.133687403994339 -18.325766022508684
7.987608361064503 -18.28232134180433
7.842954679755733 -18.23930057119189
7.699695978285296 -18.196694674968338
7.557802644548537 -18.15449484633699
7.417245810789468 -18.11269249987439
7.277997329248661 -18.07127926428787
7.14002974874456 -18.03024697545071
7.0033162921462635 -17.98958766970242
6.867830834698393 -17.949293577402443
6.733547883160076 -17.909357116725996
6.600442555722539 -17.869770887691416
6.468490562671166 -17.83052766640899
6.33766818775974 -17.791620399541543
6.207952270266182 -17.753042198967716
6.07932018770046 -17.714786336639204
5.951749839137021 -17.676846239623757
5.82521962914509 -17.639215485325927
5.699708452291772 -17.601887796878245
5.575195678193862 -17.56485703869553
5.451661137095596 -17.528117212185634
5.329085105950424 -17.491662451610107
5.207448294986175 -17.455487020088587
5.086731834733642 -17.419585305741027
4.966917263499876 -17.38395181796222
4.847986515268042 -17.348581183823114
4.729921908006608 -17.31346814459392
4.61270613237162 -17.278607552384113
4.496322240786174 -17.243994366894608
4.380753636882238 -17.209623652277685
4.265984065290473 -17.175490574100447
4.151997601764388 -17.141590396407686
4.038778643625744 -17.1079184788803
3.9263119005187184 -17.074470274085513
3.814582385460858 -17.041241324815402
3.7035754061794295 -17.00822726151029
3.5932765567221434 -16.97542379976368
1.721680178367486 -8.37338629872267
1.6678480387980599 -8.357376335429375
1.6143453176816174 -8.34146434292793
1.5611654224807863 -8.325648360562813
1.5083018832919708 -8.309926464150449
1.455748349411619 -8.294296764957977
1.403498586006117 -8.278757408712874
1.351546470881508 -8.26330657464225
1.299885991349337 -8.247942474540725
1.248511241185088 -8.23266335186586
1.197416417675829 -8.217467480860108
1.1465958187538046 -8.202353165698337
1.096043840212847 -8.187318739659961
1.0457549730046263 -8.172362564324843
0.9957238006118253 -8.157483028792056
0.9459449964954938 -8.14267854892072
0.8964133216139086 -8.127947566592091
0.8471236220103825 -8.113288548992166
0.798070826467573 -8.098699987914058
0.7492499442258869 -8.084180399079445
0.7006560627637578 -8.069728321478406
0.6522843456375684 -8.055342316727003
0.6041300303791096 -8.041020968441984
0.5561884264485614 -8.02676288163197
0.5084549132410303 -8.012566682104605
0.4609249381447623 -7.998431015889054
0.4135940146492145 -7.984354548673328
0.36645772050123054 -7.970335965255928
0.3195116959076547 -7.956373969011289
0.2727516417827257 -7.942467281368547
0.22617331803870638 -7.928614641303162
0.17977254191822462 -7.914814804840947
0.13354518636686674 -7.90106654457407
0.08748717844461201 -7.88736864918861
0.04159449777474713 -7.873719923003247
-0.004136824971065096 -7.860119185518719
-0.04971070955280929 -7.846565270977658
-0.09513102760849772 -7.833057027934421
-0.1404016040680712 -7.8195933188345945
-0.1855262185359714 -7.8061730196038095
-0.2305086066435208 -7.792795019245533
-0.2753524613721501 -7.779458219447538
-0.32006143434856377 -7.766161534196713
-0.3646391371127801 -7.752903889401932
-0.4090891423601316 -7.739684222524695
-0.453414985158064 -7.726501482217227
-0.4976201641387252 -7.713354627967804
-0.5417081426682209 -7.700242629753011
-0.5856823499933937 -7.687164467696687
-0.6295461823669519 -7.674119131735291
-0.6733030041518273 -7.661105621289482
-0.7169561489054701 -7.6481229449416235
-0.7605089204449224 -7.635170120119036
-0.8039645938933964 -7.622246172782741
-0.847326416709063 -7.609350137121483
-0.89059760969682 -7.596481055250837
-0.9337813680036826 -7.583637976917164
-0.9768808620984843 -7.57081995920625
-1.0198992387365673 -7.558026066256398
-1.062839621910082 -7.545255368975802
-1.1057051137845353 -7.532506944764019
-1.1484987956222077 -7.519779877237335
-1.1912237286930023 -7.507073255957872
-1.2405078661181497 -7.534624709970962
-1.3460563711616094 -7.889522578926354
-1.4622810460889584 -8.280318160870086
-1.5908971522419808 -8.712778876142679
-1.7340081710098374 -9.193977501967225
-1.8942222255458587 -9.732683630567767
-3.012107952876671 -15.01094747794893
-3.0976640487757803 -14.985502642097742
-3.183135258062071 -14.960083051974596
-3.2685274670286644 -14.93468695696475
-3.353846540438137 -14.90931261285677
-3.4390983231474483 -14.883958281359252
-3.5242886417212906 -14.85862222962101
-3.6094233060348744 -14.833302729754402
-3.6945081108670106 -14.807998058361532
-3.7795488374845285 -14.782706496063035
-3.864551255218901 -14.757426327029194
-3.9495211230359457 -14.732155838513084
-4.034464191099603 -14.706893320385506
-4.1193862023306345 -14.681637064671428
-4.204292893961201 -14.656385365087628
-4.289189999086086 -14.631136516581366
-4.3740832482116225 -14.605888814869726
-4.458978370803117 -14.580640555979393
-4.543881096831667 -14.555390035786628
-4.628797158321257 -14.53013554955715
-4.713732290897055 -14.504875391485673
-4.798692235335764 -14.47960785423481
-4.883682739118933 -14.454331228473132
-4.968709557990123 -14.429043802412021
-5.05377845751682 -14.403743861341189
-5.138895214658 -14.378429687162454
-5.224065619338247 -14.353099557921592
