# .PCD v0.7 - Point Cloud Data file format
VERSION 0.7
FIELDS x y
SIZE 4 4
TYPE F F
COUNT 1 1
WIDTH 598
HEIGHT 1
VIEWPOINT 0 0 0 1 0 0 0
POINTS 598
DATA ascii
-1.5166716917253877 4.167049454139564
-1.4920596166632043 4.174724992675055
-1.4675330549303012 4.182607213306615
-1.4430833514371608 4.190688275268208
-1.418702755018744 4.198962264911089
-1.3943843907113218 4.207425311925024
-1.3701222273553442 4.216075702312289
-1.3459110397339673 4.224913984348218
-1.321746364054473 4.233943064931271
-1.297624447591406 4.243168294001505
-1.2735421914139131 4.252597537258545
-1.2494970890396189 4.262241236922783
-1.2254871598584214 4.272112464075992
-1.2015108804866557 4.282226965502917
-1.1775671151745781 4.292603210623781
-1.1536550462341737 4.303262445286626
-1.1297741081871528 4.31422875961281
-1.1059239245127215 4.325529179810289
-1.0821042509867929 4.337193793191963
-1.0583149255731505 4.349255918095286
-1.0345558265583719 4.36175233203637
-1.010826839061878 4.374723572524897
-0.9871278325667536 4.3882143285229285
-0.9634586480290319 4.402273944060815
-0.9398190975211084 4.416957060751768
-0.9162089773620326 4.432324433768507
-0.8926280947240212 4.448443965968333
-0.8690763134100099 4.46539201963125
-0.8455536196265041 4.483255087933835
-0.8220602147856423 4.502131934889458
-0.798596643477558 4.5221363624441056
-0.7751639672655584 4.543400821049041
-0.7517640025136247 4.56608118641494
-0.7283996489842174 4.590363164526253
-0.7050753483709818 4.6164710290106035
-0.6817977326502729 4.644679754176179
-0.6585765584532645 4.675332205928197
-0.635426073626397 4.708864018067558
-0.6123670414323433 4.745840356922562
-0.5894297588913017 4.787011240247871
-0.566658474099756 4.83339536965481
-0.5441172979273853 4.886403816010628
-0.5218953548594306 4.947997587109728
-0.500097348146622 5.020754163986904
-0.47876085995937756 5.107176951151373
-0.45756053107981415 5.206303158181403
-0.4354834374156816 5.308509324037343
-0.4115327695372139 5.401426359603088
-0.3856241495071306 5.481548608237069
-0.3581550041619069 5.5515768017789675
-0.32950110819533207 5.614924261934428
-0.29991673188077755 5.6742175661765675
-0.2695605603936872 5.731357127240462
-0.23852796072661192 5.787784703448573
-0.20687210768747863 5.844701409932879
-0.17461599527956248 5.903235798973037
-0.14175830802798828 5.964601055910083
-0.10827458527427493 6.030295942583885
-0.07411318587661375 6.102454957822192
-0.03918187491128375 6.184645950078616
0.7760292787364915 16.878383847241953
0.8321590726832229 16.064674153549642
0.8831549990222597 15.3253897791891
0.9591906728715611 15.11555700828258
1.0478069226120441 15.121669768001215
1.1365663290359438 15.127792402685335
1.2254752443839458 15.133925350513284
1.3145400625305534 15.140069052535301
1.4037672208754066 15.146223952803998
1.4931632022607166 15.152390498506625
1.5827345369160835 15.15856914009921
1.6724878044319227 15.164760331442709
1.7624296357628686 15.17096452994118
1.8525667152624492 15.177182196682143
1.9429057827504141 15.183413796579192
2.0334536356141237 15.189659798516928
2.1242171309454374 15.19592067549839
2.2152031877145775 15.20219690479499
2.3064187889825103 15.208488968099118
2.3978709841533536 15.214797351679533
2.4895668912684865 15.221122546539602
2.581513699343953 15.227465048578528
2.673718670752893 15.23382535875569
2.766189143654738 15.240203983258223
2.8589325344729737 15.246601433671932
2.9519563404233153 15.25301822715566
3.045268142094258 15.259454886619336
3.1388756060818803 15.265911940905685
3.232786487681051 15.272389924975897
3.3270086336350513 15.278889380099283
3.4215499849458277 15.285410854047123
13.089008544375627 21.285394293485478
13.106056988477269 21.038244192755684
13.122833665857812 20.7950338751576
13.139346128989999 20.5556538530225
13.155601659203787 20.319998569419973
13.17160727883063 20.087966222102473
13.187369762701852 19.859458596814147
13.202895649040897 19.63438090938769
13.218191249786253 19.412641656092955
13.233262660379584 19.194152471738477
13.248115769051221 18.978827995061195
13.262756265632774 18.766585740970925
13.277189649924674 18.557345979245408
13.291421239644945 18.351031619299302
13.305456177983041 18.147568100674416
13.319299440782016 17.946883288922795
13.332955843369641 17.748907376574593
13.346430047058792 17.553572788903594
13.35972656533536 17.360814094220636
13.372849769751264 17.170567918443325
13.385803895538816 16.98277286370554
13.398593046961603 16.7973694307855
13.411221202416332 16.614299945144573
13.423692219299024 16.433508486382255
13.436009838648285 16.254940820924197
13.448177689577243 16.07854433777146
13.460199293505553 15.904267987149609
13.47207806820185 15.732062221905835
13.4838173316465 15.561878941511274
13.495420305723854 15.393671438534179
13.50689011975281 15.227394347457226
13.518229813863972 15.063003595720126
13.529442342230915 14.900456356874932
13.5405305761632 14.739711005748298
13.551497307067667 14.580727075510744
13.562345249284755 14.423465216558727
13.573077042805933 14.267887157120647
13.583695255877995 14.113955665502644
13.59420238749969 13.961634513894898
13.60460086981589 13.810888443663362
13.614893070414196 13.661683132056123
13.625081294528622 13.513985160257215
13.635167787154648 13.367761982724375
13.645154735079888 13.222981897750707
13.655044268834217 13.07961401919339
13.664838464563228 12.937628249315464
13.674539345828268 12.796995252689529
13.6841488853367 12.65768643111521
13.693669006605322 12.51967389950406
13.703101585560086 12.382930462688712
13.712448452053053 12.247429593139222
13.7217113914578 12.113145409369773
13.730892145885361 11.980052655513642
13.739992415660351 11.848126681322375
13.749013860783911 11.717343422849614
13.7579581020002 11.5876793842412
13.766826722048904 11.45911161993763
13.77562126701166 11.331617717352001
5.567785784488036 4.52600586807861
5.571280061220763 4.47534958297466
5.574746206253577 4.425101121065862
5.5781847890941645 4.375252226454329
5.581596366499168 4.32579482758193
5.584981482906372 4.27672103160272
5.588340670872246 4.228023118919475
5.5916744512560275 4.179693538221166
5.594983333701566 4.131724901295155
5.598267816857031 4.084109978340059
5.601528388944496 4.036841692952562
5.604765527764199 3.9899131180251994
5.607979701241625 3.943317471039762
5.611171367325889 3.8970481103996732
5.614340975019924 3.851098530279538
5.617488963745614 3.805462357971742
5.620615764311516 3.7601333490520275
5.623721798805611 3.7151053842049775
5.626807481035391 3.670372465357154
5.629873216496407 3.62592871262217
5.63291940297746 3.581768360374245
5.6359464305014075 3.537885754429493
5.638954681579839 3.4942753488451603
5.641944531611169 3.4509317025667783
5.64491634876977 3.4078494769777623
5.647870494541087 3.3650234324854686
5.650807323695185 3.322448426095106
5.6537271844670185 3.280119408730049
5.656630418925577 3.2380314222944544
5.659517362880227 3.1961795975972227
5.662388346325051 3.1545591514141513
5.665243693425857 3.113165384405649
5.66808372272015 3.0719936787283753
5.67090874725034 3.0310394958242073
5.673719074799171 2.990298374075102
5.6765150079556195 2.949765926824764
5.679296844287226 2.909437840257372
5.682064876475096 2.869309871395445
5.684819392448604 2.829377846146911
5.687560675516411 2.789637657406021
5.69028900449387 2.750085263206137
5.693004653826994 2.710716684922593
5.695707893713094 2.671528005523833
5.698398990218213 2.632515367869142
5.70107820539143 2.5936749730512907
5.703745797376215 2.5550030787825473
5.7064020205188575 2.516495997822505
5.70904712547414 2.478150096446276
5.815980970319574 2.484517336210772
5.929403621119365 2.492341244500956
6.04675227713872 2.500435969110172
6.168242713625054 2.508816394241321
6.294106790576172 2.5174985136253314
6.424593980455331 2.5264995359031497
6.559973073395768 2.535838002250968
6.700534084427127 2.5455339179409178
6.846590391209789 2.5556088998022415
6.9984811354478325 2.5660863418710567
7.156573926721086 2.576991601901033
7.321267894121071 2.5883522118656086
7.492997139030371 2.600198116131102
7.672234651943419 2.612561941639539
7.859496767755048 2.6254793052349465
8.055348247906897 2.6389891642304804
8.260408094760505 2.6531342174845656
14.247894791530676 4.485101491915253
14.254027835777597 4.396191178788194
14.26014419728648 4.30752271414661
14.266244355157262 4.219089152512284
14.272328783773224 4.130883616784003
14.278397952956603 4.042899295981753
14.284452328121308 3.9551294430326043
14.290492370422893 3.867567372596755
14.296518536905866 3.7802064589320774
14.302531280648404 3.693040133795777
14.308531050904687 3.6060618843816217
14.314518293244792 3.519265251291333
14.320493449692382 3.4326438265387704
14.326456958860213 3.3461912515855405
14.33240925608356 3.2599012154066904
14.33835077355165 3.173767452585225
14.344281940437202 3.0877837414341838
14.35020318302417 3.001943902145027
14.356114924833715 2.9162417949611585
14.362017586748541 2.830671318375373
14.367911587135682 2.7452264073501134
14.373797341967762 2.6599010315593943
14.379675264942849 2.574689193651264
14.38554576760297 2.489584927529762
14.391409259451354 2.404582296655277
14.397266148068466 2.3196753923622735
14.403116839226938 2.234858332193341
14.408961737005422 2.1501252582485804
14.414801243901454 2.065470335549316
14.420635760943421 1.9808877504151363
14.42646568780165 1.8963717088533296
14.432291422898711 1.8119164349597305
14.438113363519017 1.7275161693300427
14.443931905917742 1.643165167480695
14.44974744542917 1.5588576982783224
14.455560376574482 1.4745880423769495
14.4613710931691 1.3903504906619404
14.46717998842962 1.3061393426998662
14.47298745508039 1.2219489051933414
14.478793885459813 1.1377734904399777
14.484599671626432 1.0536074147945325
14.490405205464848 0.9694449971334045
14.496210878791535 0.8852805573205618
14.502017083460627 0.8011084146740507
14.507824211469723 0.7169228864321707
14.513632655065761 0.6327182862184842
14.519442806851053 0.5484889225047236
14.525255059889524 0.4642290970707594
14.531069807813193 0.3799331034607139
14.53688744492901 0.295595225434346
14.54270836632606 0.21120973541280694
14.548532967983238 0.12677089291785737
14.554361646877407 0.04227294300366516
14.56019480109216 -0.04228988531976726
14.56603282992721 -0.12692338067242923
14.571876134008484 -0.21163335090035065
14.577725115398993 -0.2964256246827782
14.583580177710513 -0.38130605315146937
14.589441726216208 -0.4662805115230347
14.595310167964177 -0.551354900745336
14.601185911892077 -0.6365351491589065
14.607069368942819 -0.7218272141744252
14.612960952181473 -0.8072370839672448
14.618861076913394 -0.8927707791900358
14.624770160803685 -0.9784343547045914
14.63068862399806 -1.0642339013338775
14.636616889245165 -1.150175547635428
14.64255538202046 -1.2362654616972042
14.648504530651723 -1.3225098529570662
14.65446476644628 -1.4089149740470241
14.660436523819987 -1.4954871226634578
14.666420240428145 -1.582232643464545
14.672416357298326 -1.6691579299961217
14.678425318965274 -1.7562694266472836
14.684447573607946 -1.8435736306370127
14.690483573188788 -1.9310770940332087
14.696533773595325 -2.0187864258054575
14.702598634784204 -2.1067082939130035
14.678328084067207 -2.190320478217296
14.289111418410533 -2.2171686913002797
13.919354058396603 -2.2426745991059125
13.567609102098526 -2.2669380091056417
13.232569584913279 -2.2900490758772363
12.91305196034728 -2.3120894406022297
12.607981866880598 -2.333133212869329
12.316381820134973 -2.353247819670211
12.037360533204161 -2.372494742084408
11.770103619285976 -2.390930156612894
11.513865472288774 -2.4086054952548377
11.267962154889267 -2.42556793609024
11.031765151158135 -2.4418608342245904
10.80469586356964 -2.4575241013858027
10.586220752933169 -2.472594541172342
10.375847035287999 -2.4871061458819383
10.173118862690941 -2.5010903599613283
9.977613925580815 -2.5145763143755673
9.788940423409562 -2.5275910355742606
9.60673435779752 -2.540159632210045
9.430657108850436 -2.5523054623245454
9.260393260674133 -2.564050283336807
9.095648646681996 -2.575414386921997
8.936148589249697 -2.5864167203664725
8.781636311489368 -2.5970749961455373
8.631871501849869 -2.607405790938482
8.486629014607916 -2.6174246354127875
8.345697691612148 -2.6271460953067876
8.208879292178004 -2.636583845147127
8.07598751957377 -2.645750735827263
7.94684713448886 -2.6546588553297368
7.821293146108275 -2.6633195847798596
7.699170073301538 -2.671743649234211
7.580331268681711 -2.6799411645399838
7.464638299688257 -2.687921679707733
7.351960380861633 -2.695694216159767
7.2421738523447186 -2.703267304318199
7.135161701062715 -2.710649015602996
7.030813119465043 -2.717846993439239
6.929023099044208 -2.7248684815092004
6.829692055675729 -2.7317203490565576
6.73272548333474 -2.7384091150719203
6.638033634103181 -2.744940970357784
6.545531222068537 -2.751321797948661
6.455137148990312 -2.7575571921872686
6.366774250243502 -2.7636524757250163
6.280369058596661 -2.769612716372465
6.195851585115564 -2.77544274197669
6.113155115313621 -2.781147154611447
6.032216019678511 -2.7867303433076396
5.9529735769025605 -2.7921964966000643
5.875369809224865 -2.797549613963275
5.799349329039911 -2.802793516035902
5.724859195514229 -2.807931854557745
5.6518487805033635 -2.8129681218843694
5.580269643417327 -2.817905659388988
5.510075413783841 -2.8227476660150193
5.441221682035289 -2.827497204789877
5.373665896007354 -2.832157211214926
5.307367265073833 -2.8367304987996556
5.242286669181403 -2.841219766202113
5.178386574105548 -2.8456276026391687
5.115630951797896 -2.8499564930502825
5.05398520475357 -2.8542088242935275
4.993416096097925 -2.8583868887245147
4.933891682390487 -2.862492890044231
4.8753812514657 -2.866528946778189
4.817855263382525 -2.8704970963978513
4.761285294399804 -2.8743992997620365
4.70564398482334 -2.8782374440985943
4.650904989259397 -2.882013346686048
4.597042929751097 -2.8857287581072057
4.544033351503532 -2.889385365293926
4.491852681080422 -2.892984794305963
4.440478186703881 -2.8965286131959496
4.389887940793006 -2.9000183345310924
4.340060784438061 -2.9034554178555707
4.29097629374523 -2.906841272012064
4.242614747931167 -2.9101772573426223
4.194957099061986 -2.9134646877760404
4.147984943338674 -2.9167048328086254
4.101680493837408 -2.9198989193845497
4.056026554619451 -2.9230481336817666
4.011006496130946 -2.9261536228089313
3.9666042318182257 -2.9292164964184746
3.9228041958890563 -2.9322378282406487
3.8795913221547678 -2.935218657542983
3.8369510238924653 -2.9381599905194022
3.794869174670285 -2.941062801612903
3.753332090082376 -2.943928034775466
3.7123265103435705 -2.946756604668693
3.6718395836968547 -2.9495493978083522
3.631858850589634 -2.9523072736558946
3.592372228577527 -2.9550310656598167
3.5533679979168347 -2.957721582249463
3.5148347878093475 -2.960379607783883
3.476761563265143 -2.9630059034580274
3.4391376125512267 -2.965601208168545
3.401952535195662 -2.9681662393412593
3.365196230518691 -2.970701693722293
3.328858886663955 -2.9732082481346938
3.2929309701045035 -2.9756865602023135
3.2574032155997354 -2.978137269042579
3.222266616580749 -2.9805609959297144
3.1875124159428987 -2.9829583449298656
3.1531320972254915 -2.9853299035095278
3.1191173761597266 -2.9876762431185777
3.085460192566984 -2.9899979197491144
3.052152702590605 -2.992295474471333
3.019187271245163 -2.9945694339474547
2.986556465268151 -2.996820310924838
2.9542530462597907 -2.99904860470918
2.9222699640974397 -3.0012548016188023
2.8906003506118108 -3.00343937542086
2.8592375135128534 -3.0056027877503384
2.8281749305538355 -3.0077454885126094
2.797406243922713 -3.0098679162703266
2.7669252548504724 -3.0119704986153324
2.736725918426658 -3.014053652526286
2.7068023386127718 -3.016117784712644
2.677148763444738 -3.01816329194559
2.6477595804160643 -3.020190561376506
2.618629312033709 -3.0221999708435296
2.589752611539139 -3.024191889166717
2.561124258787367 -3.026166676432308
2.5327391562771275 -3.0281246842665603
2.5045923253257243 -3.030066256099613
2.476678902382344 -3.031991727419797
2.448994135473955 -3.033901426018789
2.4215333807782073 -3.0357956722280233
2.394292099317973 -3.0376747791466956
2.3672658537724756 -3.0395390528617336
2.340450305400146 -3.041388792660061
2.3138412110686013 -3.043224291233466
2.287434420387346 -3.0450458348763934
2.261225872938996 -3.046853703676928
2.2352115956050285 -3.048648171701271
2.2093876999822326 -3.050429507171949
2.183750379886224 -3.052197972640028
2.1582959089385376 -3.053953825151546
2.1330206382339627 -3.0556973164084313
2.1079209940849695 -3.057428692924086
2.0829934758401745 -3.059148196173868
2.0582346537739418 -3.060856062740672
2.0336411670443666 -3.0625525244557816
2.0092097217169633 -3.0642378085351996
1.984937088851541 -3.065912137711615
1.96082010264983 -3.0675757303621776
1.9368556586615318 -3.0692288006322475
1.9130407120465873 -3.070871558555265
1.8893722758915021 -3.0725042101688858
1.8658474195777126 -3.0741269576275383
1.8424632672000392 -3.0757399993115095
1.8192169960333342 -3.0773435299327274
1.7961058350455426 -3.0789377406373184
1.773127063455451 -3.080522819105105
1.7502780093334778 -3.082098949646114
1.727556048243912 -3.0836663132942426
1.7049586019270768 -3.085225087898156
1.6824831370199826 -3.0867754482095444
1.66012716381404 -3.0883175659688082
1.6378882350485062 -3.0898516099882927
1.6157639447383632 -3.091377746233138
1.5937519270353955 -3.0928961378998427
1.5718498551212698 -3.094406945492619
1.5500554401314628 -3.095910326897622
1.528366430108947 -3.0974064374551205
1.5067806089865736 -3.0988954300296987
1.4852957955971238 -3.1003774550785352
1.4639098427100454 -3.1018526607178574
1.4426206360939524 -3.103321192787604
1.4214260936039487 -3.1047831949143827
1.4003241642929236 -3.106238808572777
1.3793128275459563 -3.1076881731450503
1.3583900922370398 -3.1091314259793164
1.3375539959073188 -3.110568702446227
1.3168026039641016 -3.1120001359942226
1.2961340088999072 -3.113425858203402
1.2755463295308602 -3.1148459988380583
1.2550377102537387 -3.116260685897927
1.2346063203210382 -3.1176700456681963
1.2142503531333997 -3.1190742027683087
1.1939680255488232 -3.1204732801996173
1.1737575772080422 -3.12186739939192
1.1536172698755212 -3.1232566802489146
1.133545386795509 -3.1246412411926237
1.11354023206262 -3.126021199206807
1.0936001300064344 -3.1273966698794147
1.0737234245896081 -3.128767767444105
1.0539084788190314 -3.130134604820862
1.0341536741695478 -3.131497293655748
1.014457410019798 -3.1328559443598207
0.99481810309974 -3.1342106661472404
0.9752341869494364 -3.135561567072604
0.9557041113886803 -3.1369087540675316
0.9362263419970784 -3.1382523329765304
0.9167993596041835 -3.139592408592162
0.8974216597893286 -3.1409290846895472
0.8780917523907772 -3.142262464060225
0.8588081610238301 -3.1435926485453924
0.8395694226075767 -3.144919739068548
0.8203740868999181 -3.1462438356675695
0.8012207160405573 -3.147565037526236
0.7821078841016358 -3.1488834430052246
0.7630341766457049 -3.150199149672603
0.7439981902907321 -3.1515122543338356
0.7249985322818485 -3.1528228530613225
0.7060338200695482 -3.1541310412234975
0.6871026808940692 -3.1554369135134963
0.6682037513756689 -3.1567405639774204
0.6493356771105372 -3.15804208604221
0.630497112272083 -3.159341572543146
0.6116867192173392 -3.1606391157510054
0.592903168098234 -3.1619348073988696
0.5741451364774824 -3.1632287387086238
0.5554113089488679 -3.1645210004171496
0.5367003767616593 -3.165811682802231
0.518011037448948 -3.1671008757081958
0.4993419944596713 -3.168388668571294
0.4806919567940938 -3.1696751504448444
0.46205963864253485 -3.170960410024156
0.44344375902711747 -3.1722445356712394
0.4248430414463257 -3.173527615439324
0.4062562135221656 -3.1748097370971995
0.3876820066497102 -3.1760909881533887
0.3691191556488293 -3.177371455880172
0.35056639841789833 -3.178651227337472
0.332022475589282 -3.1799303893966226
0.31348613018639815 -3.1812090287640213
0.29495610728214783 -3.1824872320046933
0.2764311536585351 -3.1837650855657684
0.25791001746726544 -3.1850426757998944
0.23939144789112812 -3.186320088988596
0.22087419480597317 -3.1875974113655885
0.20235700844308577 -3.188874729140071
0.1838386390517641 -3.1901521285199994
0.16531783656190865 -3.1914296957353616
0.14679335024642456 -3.1927075170614647
0.12826392838325382 -3.1939856788422496
0.10972831791682951 -3.1952642675136422
0.09118526411876757 -3.196543369626959
0.0726335102475965 -3.1978230718723806
0.054071797207329145 -3.199103461102501
0.03549886320467946 -3.200384624355976
0.01691344340472539 -3.201666648881272
-0.0016857304151861698 -3.202949622160543
-0.02029993021348433 -3.2042336319336364
-0.03893043203458719 -3.205518766222251
-0.05757851636147919 -3.2068051133542608
-0.07624546847086157 -3.2080927619882087
-0.09493257879109686 -3.209381801138001
-0.11364114326314606 -3.2106723201978022
-0.1323724637047353 -3.211964408967159
-0.1511278481779414 -3.213258157676352
-0.16990861136046462 -3.2145536570120106
-0.1887160749207701 -3.2158509981429866
-0.20755156789735876 -3.2171502727465167
-0.22641642708239668 -3.2184515730346885
-0.24531199740993884 -3.2197549917812176
-0.2642396323489861 -3.22106062234856
-0.28320069430165057 -3.2223685587153796
-0.3021965550066484 -3.2236788955043814
-0.3212285959484102 -3.224991728010529
-0.34029820877206435 -3.2263071522296736
-0.3594067957045553 -3.2276252648876005
-0.3785557699822 -3.228946163469524
-0.39774655628494704 -3.23026994625004
-0.4169805911776367 -3.231596712323566
-0.43625932355857 -3.232926561635286
-0.4555842151156859 -3.234259595012609
-0.4749567407906675 -3.235595914197195
-0.4943783892513041 -3.236935621877528
-0.51385066337243 -3.2382788217220986
-0.5333750807258092 -3.239625618413191
-0.5529531740792907 -3.24097611768132
-0.5725864919056186 -3.2423304263403234
-0.5922765989012608 -3.2436886523231543
-0.6120250765156384 -3.2450509047183873
-0.6318335234911787 -3.2464172938074696
-0.6517035564145578 -3.2477879311027475
-0.6716368102795918 -3.249162929386294
-0.6916349390622037 -3.2505424027495704
-0.7116996163079085 -3.2519264666339494
-0.7318325357322741 -3.253315237872139
-0.752035411834864 -3.254708834730527
-0.7723099805271306 -3.2561073769524977
-0.7926579997747896 -3.257510985802741
-0.8130812502551855 -3.2589197841125963
-0.8335815360302197 -3.260333896326475
-0.8541606852353948 -3.261753448549386
-0.8748205507855525 -3.2631785685956216
-0.895563011097933 -3.2646093860386327
-0.9163899708331664 -3.266046032262142
-0.937303361654866 -3.26748864051254
-0.9583051430084703 -3.268937345952612
-0.9793973029200597 -3.270392285716641
-1.0005818588158686 -3.271853598966935
-1.0218608583632278 -3.273321426951834
-1.043236380333736 -3.2747959130652586
-1.0647105354894557 -3.276277202907833
-1.0862854674929887 -3.277765444349664
-1.1079633538422886 -3.279260787594828
-1.1297464068311232 -3.2807633852476172
-1.1516368745361272 -3.2822733923806324
-1.1736370418314204 -3.28379096660477
-1.1957492314318083 -3.2853162681411803
