# .PCD v0.7 - Point Cloud Data file format
VERSION 0.7
FIELDS x y
SIZE 4 4
TYPE F F
COUNT 1 1
WIDTH 536
HEIGHT 1
VIEWPOINT 0 0 0 1 0 0 0
POINTS 536
DATA ascii
-2.3596673345217685 19.16386793033387
-2.2468317875617623 19.164676528745375
-2.1341403231799987 19.165484094719215
-2.0215850759828085 19.166290684449883
-1.9091582151445214 19.167096354180913
-1.7968519459283538 19.167901159788684
-1.6846585081889933 19.16870515676448
-1.5725701703225425 19.16950840059572
-1.4605792306423981 19.17031094644638
-1.3486780134578882 19.171112849334975
-1.236858867741649 19.171914164083752
-1.1251141648401097 19.172714945352407
-1.0134362957864709 19.173515247686876
-0.9018176699938012 19.174315125483034
-0.7902507132624845 19.175114633005983
-0.6787278650289101 19.175913824439238
-0.567241576948344 19.176712753870532
-0.4557843103749317 19.177511475326167
-0.34434853378933433 19.178310042789846
-0.23292672273478526 19.179108510172586
-0.12151135574473983 19.179906931376728
-0.010094913197151799 19.180705360287376
0.10133012439357113 19.18150385079169
0.2127712793275911 19.182302456795583
0.3242360780915829 19.183101232235124
0.4357320535585617 19.18390023109215
0.5472667470256847 19.184699507408858
0.6588477102568702 19.185499115302452
8.587577281650306 16.905850580266247
8.589276883864882 16.668680270005467
8.590939243852338 16.436706911408713
8.592565681016136 16.209746388850267
8.594157453598706 15.987623121395842
8.59571576219143 15.770169573001294
8.597241753005724 15.55722579605089
8.598736520924014 15.34863900561714
8.600201112347563 15.144263182056292
8.641891334588914 15.013894945886191
8.758881273732804 15.014733315408215
8.876679997750257 15.015577480818271
8.995303956139503 15.016427559996211
9.114769941865543 15.017283673283245
9.235095101622804 15.01814594355547
9.356296946446344 15.019014496299887
3.562367778961167 5.645088593327453
3.5501217078891196 5.553934895014389
3.54924567866489 5.482126092084451
3.554480148650843 5.420923631544151
3.563683707971659 5.366713023454664
3.5757356483202503 5.317572570188134
3.5899634808925067 5.272330631027394
3.605926507941609 5.230207014823163
3.623317319442675 5.190648796855547
3.6419110942544286 5.153245331697885
3.6615370925989477 5.117680204529163
3.6820615193877027 5.0837021976962005
3.703376672022573 5.051106813548313
3.725393780930134 5.019724024442116
3.7480381326766476 4.989409883467737
3.7712456708279607 4.960040636657341
3.7949605924090912 4.931508516847688
3.819133644084074 4.903718710254926
3.8437209289389442 4.876587166303604
3.868683100308143 4.850039031616743
3.8939848588029937 4.824007556772531
3.9195946924678773 4.798433366137867
3.945484813294628 4.773264006214172
3.9716312505650313 4.748453703506651
3.9980140637994808 4.7239632713120026
4.0246176382730185 4.699760110070511
4.051431025785015 4.675818250309277
4.078448293705145 4.652118392023649
4.105668847651003 4.628647901105177
4.1330976983098155 4.605400732812973
4.160745650808096 4.5823772638732665
4.18862940529471 4.559584027889518
4.21677156893597 4.537033361941663
4.245200591013316 4.51474298407381
4.2739506427634595 4.492735530324963
4.3030614716061235 4.47103808589203
4.332578263726108 4.449681746434176
4.362551551307317 4.42870124462911
4.393037200588252 4.40813467365306
4.424096515156389 4.388023334391233
4.455796487574061 4.3684117290777404
4.488210232271258 4.349347721359854
4.521417632836303 4.330882880552006
4.555506242815414 4.313073031183137
4.590572484540117 4.2959790312577315
4.6267232056269085 4.279667813549122
4.66407766707626 4.26421373304612
4.702770064071828 4.249700282947686
4.74295271101309 4.236222261460857
4.784800063491052 4.2238884983333875
4.828513803056654 4.2128252843226495
4.874329267716778 4.203180678947277
4.922523569973425 4.195129902440996
4.97342577352764 4.18888201851563
5.027429432299662 4.1846880322691735
5.085007488076428 4.182850256107123
5.146728661331224 4.183732101815303
5.213272528415193 4.187765967533127
5.285436905613892 4.195454270208447
5.364126900785084 4.207355807130704
5.450318512059709 4.224053134628513
5.545031594200444 4.2461292508131585
5.649496424208464 4.274292298661536
5.766074875606846 4.310055263152846
5.90181657973677 4.358311914620564
21.201965035399567 13.138162647818538
21.20317685589091 12.969059656144612
21.204380232261084 12.801134971627503
21.20557533307796 12.634365105239766
21.2067623232726 12.468727045086327
21.2079413642169 12.304198242726953
21.209112614527175 12.140756598672217
21.210276229148388 11.97838045124487
21.211432360472774 11.817048562336547
21.21258115775945 11.656740106496265
21.21372276736765 11.497434658988222
21.214857332754928 11.33911218462732
21.21598499487171 11.181753026221566
21.21710589193505 11.025337894491521
21.21822015961396 10.869847857554701
21.2193279310878 10.715264330951742
21.22042933711573 10.561569067948897
21.221524506104128 10.408744150130335
21.222613564171994 10.256771978269553
21.223696635214452 10.105635263469724
21.224773840964406 9.955317018563084
21.225845301052367 9.805800549759962
21.226911133064533 9.657069448538326
21.22797145259932 9.50910758376524
21.229026373322156 9.361899094041771
21.23007600701885 9.215428380263393
21.231120463647397 9.069680098388082
21.232159851388317 8.924639152404753
21.233194276693744 8.780290687494835
21.234223844335038 8.636620083380196
21.2352486574492 8.493612947850682
21.236268817583987 8.351255110465035
21.23728442474185 8.209532616419004
21.23829557742276 8.068431720574766
21.23930237266586 7.9279388816459635
21.240304906090028 7.788040756532907
21.241303271933464 7.6487241948026625
21.242297563092265 7.509976233308974
21.243287871157953 7.371784090947016
21.244274286454196 7.234135163538404
21.245256898072526 7.097017018841765
12.60957328352238 4.130985556016438
12.610152101251767 4.050214667812482
12.610728815954028 3.9697372456873468
12.611303477781792 3.8895462911112446
12.611876136255153 3.8096348938224747
12.61244684028005 3.7299962292617552
12.613015638166237 3.6506235560645988
12.613582577644836 3.5715102136096766
12.614147705885536 3.4926496196212007
12.614711069513408 3.414035267823414
12.615272714625334 3.335660725645257
12.615832686806115 3.257519631973523
12.616391031144243 3.179605694952652
12.616947792247343 3.1019126898295304
12.617503014257306 3.0244344568416417
12.618056740865127 2.9471648991469825
12.618609015325443 2.8700979807941795
12.61915988047081 2.7932277247313393
12.619709378725704 2.7165482108521655
12.620257552120261 2.6400535740779087
12.620804442303783 2.563738002473818
12.621350090557986 2.4875957353987075
12.621894537810046 2.411621061686387
12.622437824645411 2.3358083178576616
12.622979991320387 2.2601518863616628
12.623521077774553 2.184646193845341
12.624061123642978 2.1092857094499218
13.096921253702181 2.110164918497062
13.623833211059907 2.1139408579416754
14.19384794012627 2.1180256790762826
14.812523399970372 2.1224592111676053
21.27517247501661 2.9224598167766613
21.276073270297005 2.796758700185148
21.2769727670391 2.6712387875996493
21.277871028626226 2.5458912342209254
21.278768118101226 2.420707242758293
21.279664098184536 2.2956780609148266
21.280559031291986 2.170794978899051
21.281452979552444 2.046049326961543
21.282346004825335 1.9214324729550187
21.28323816871793 1.796935819916356
21.28412953260256 1.6725508036691528
21.28502015763363 1.5482688904453323
21.285910104764568 1.4240815745244313
21.2867994347646 1.2999803758891237
21.28768820823544 1.1759568378956446
21.288576485627935 1.0520025249576872
21.2894643272585 0.9281090202424942
21.29035179332562 0.8042679233777206
21.291238943926185 0.6804708481677992
21.292125839071783 0.556709420318449
21.29301253870499 0.43297527516803275
21.29389910271555 0.30926005542444646
21.29478559095661 0.18555540890622968
21.29567206326084 0.06185298628663055
21.29655857945661 -0.06185556116071809
21.297445199384146 -0.18557858381575149
21.29833198291168 -0.30932443596690024
21.299218989951626 -0.4331014780682328
21.30010628047679 -0.5569180790001653
21.300993914536583 -0.6807826183349859
21.301881952273334 -0.804703488608544
21.302770453938585 -0.9286890975993739
21.30365947990952 -1.0527478706166107
21.304549090705407 -1.1768882527979863
21.30543934700417 -1.3011187114192757
21.306330309659014 -1.4254477382165218
21.307222039715164 -1.5498838517224025
21.308114598426748 -1.6744355996181208
21.309008047273732 -1.7991115611022035
21.30990244797906 -1.923920349277617
21.310797862525884 -2.0488706135586243
21.31169435317497 -2.173971042098831
21.312591982482264 -2.2992303642418865
21.313490813316605 -2.4246573529963222
21.314390908877684 -2.550260827536063
21.31529233271411 -2.676049655728111
21.316195148741784 -2.8020327566890284
21.317099421262377 -2.9282191033717444
21.318005214982154 -3.054617725184385
20.829388042327828 -3.1081901778287175
20.06674942371714 -3.1136553740570267
19.356750574441495 -3.1187433448710835
18.694080030711778 -3.1234921531110853
18.074117607567366 -3.127934907797229
17.492825479845678 -3.132100544661721
16.946659227767842 -3.1360144636110694
16.43249470431986 -3.139699052806665
15.947567535802492 -3.1431741222139977
15.489422780788312 -3.1464572643550084
15.055872811688486 -3.149564156135841
14.644961893545034 -3.1525088126811633
14.254936249715614 -3.1553038018484876
13.884218647807218 -3.1579604263496277
13.531386729062097 -3.160488879045959
13.195154453304875 -3.162898375917034
12.87435614910491 -3.1651972703597977
12.56793275216337 -3.1673931518066105
12.27491988950752 -3.1694929311159115
11.994437526972517 -3.171502914760103
11.725680945813357 -3.1734288694886432
11.467912853537007 -3.175276078853352
11.220456466016367 -3.177049392838186
10.982689424235655 -3.1787532713598434
10.754038430440087 -3.1803918227339314
10.533974506383641 -3.181968837656679
10.322008791035008 -3.1834878194979743
10.117688807638679 -3.1849520108105582
9.92059513996492 -3.1863644170283196
9.730338466174047 -3.1877278282479335
9.546556906687309 -3.1890448377017604
9.36891364743037 -3.1903178591034473
9.197094806037576 -3.191549141724417
9.030807512225133 -3.192740784435139
8.869778178030714 -3.193894747709743
8.713750936016092 -3.1950128649254785
8.562486226597281 -3.196096853231629
8.41575951907034 -3.197148321462974
8.27336015052008 -3.1981687791528004
8.13509027083159 -3.199159644348548
8.000763882898898 -3.200122249838285
7.870205967488852 -3.201057849783324
7.743251684625561 -3.201967625431024
7.619745643687307 -3.202852690339168
7.499541235336791 -3.203714095345396
7.3825000196676775 -3.20455283232545
7.268491164300857 -3.2053698388844007
7.157390928579362 -3.206166001770824
7.049082188996832 -3.2069421604305233
6.9434540024689735 -3.2076991097332095
6.840401203397454 -3.208437603279801
6.739824031959219 -3.209158356157235
6.641627790963121 -3.209862046975025
6.545722528325131 -3.210549320196763
6.452022743008335 -3.211220788560975
6.360447112820707 -3.2118770347602386
6.27091824156132 -3.2125186137847375
6.183362425144392 -3.21314605339859
6.097709432967259 -3.2137598571773704
6.013892305929546 -3.214360504687931
5.9318471672836885 -3.21494845386015
5.851513047181027 -3.2155241417328324
5.772831719052097 -3.2160879852400135
5.695747546090728 -3.216640383456176
5.620207339288544 -3.2171817171593906
5.5461602232018326 -3.2177123512102455
5.473557511679728 -3.218232634497696
5.40235259102527 -3.2187429008334236
5.332500810179154 -3.219243470410783
5.263959378581914 -3.2197346498190798
5.196687269803137 -3.220216733025764
5.130645131230376 -3.220690002047872
5.065795199265843 -3.2211547275487864
5.002101219696617 -3.221611169287263
4.939528372641811 -3.222059576802137
4.878043202058309 -3.2225001898450265
4.817613549311214 -3.222933238870096
4.75820849059411 -3.2233589454825364
4.699798277933598 -3.2237775228613046
4.64235428354101 -3.224189176157942
4.585848947291531 -3.224594102872921
4.530255727127736 -3.2249924932110767
4.475549052199109 -3.2253845304174105
4.4217042785630785 -3.2257703910945503
4.368697647285615 -3.2261502455029993
4.316506244791049 -3.226524257845284
4.265107965321424 -3.2268925865349734
4.214481475375576 -3.2272553844515124
4.164606180007092 -3.2276127991817423
4.115462190868748 -3.227964973248893
4.067030295898664 -3.2283120443298245
4.0192919305505415 -3.2286541454611846
3.972229150477008 -3.2289914052351794
3.9258246055809765 -3.2293239479855096
3.880061515355847 -3.229651893964105
3.8349236454402855 -3.2299753595091176
3.7903952853183944 -3.230294457204739
3.746461227100422 -3.2306092960332586
3.7031067453233475 -3.230919981519813
3.6603175777145847 -3.23122661587024
3.618079906865572 -3.231529298102405
3.5763803427653706 -3.2318281241713733
3.5352059061475076 -3.2321231870887424
3.494544012606156 -3.232414577036478
3.4543824574404653 -3.232702381475512
3.4147094011883103 -3.2329866852494145
3.3755133558131067 -3.2332675706833824
3.3367831715094924 -3.2335451176787915
3.2985080240956917 -3.2338194038035413
3.260677402962339 -3.2340905043784245
3.2232810995491716 -3.234358492559693
3.186309196322861 -3.234623439418054
3.149752056230584 -3.234885414014244
3.113600312605549 -3.235144483471369
3.07784485950195 -3.235400713044164
3.0424768424381443 -3.235654166185327
3.007487649527997 -3.235904904609081
2.9728689029814905 -3.2361529883520723
2.9386124509567226 -3.2363984758317677
2.9047103597463755 -3.2366414239024435
2.8711549062827175 -3.236881887908899
2.837938570946008 -3.23711992173799
2.805054030661999 -3.2373555778680947
2.7724941522750264 -3.2375889074166007
2.740251986183873 -3.2378199601855195
2.7083207602282178 -3.2380487847052857
2.6766938738142443 -3.23827542827686
2.6453648922684327 -3.238499937012194
2.614327541409234 -3.238722355873123
2.5835757023267987 -3.2389427287087833
2.5531034063614455 -3.2391610982915893
2.522904830272049 -3.2393775063518633
2.4929742915859308 -3.239591993611158
2.4633062441222906 -3.2398045998143368
2.433895273681602 -3.2400153637604587
2.4047360938937588 -3.240224323332539
2.375823542218137 -3.2404315155262102
2.347152576089038 -3.240636976477344
2.318718269200331 -3.240840741488675
2.290515807923399 -3.241042845055474
2.262540487852725 -3.241243320890299
2.234787710473837 -3.2414422019468767
2.20725297994846 -3.2416395204431376
2.1799319000120367 -3.2418353078834508
2.1528201709789916 -3.242029595080084
2.125913586851313 -3.242222412173925
2.0992080325262465 -3.2424137886544897
2.072699481099084 -3.2426037533792518
2.0463839912572017 -3.2427923345923197
2.0202577047617147 -3.24297955994248
1.994316844013213 -3.2431654565006425
1.9685577096982656 -3.243350050776708
1.942976678513521 -3.243533368735878
1.9175702009642952 -3.243715435814424
1.892334799234806 -3.243896276934957
1.867267065127207 -3.244075916521196
1.8423636580668 -3.2442543785122595
1.817621303170848 -3.244431686376504
1.7930367893785564 -3.2446078631249318
1.7686069676398994 -3.2447829313241634
1.7443287491610362 -3.2449569131090126
1.7201991037041902 -3.245129830194672
1.6962150579399267 -3.2453017038885172
1.6723736938498839 -3.2454725551015597
1.6486721471780503 -3.2456424043595375
1.625107605928793 -3.245811271813683
1.601677308909905 -3.24597917725116
1.5783785443190184 -3.246146140105204
1.5552086483717726 -3.2463121794649354
1.5321650039702113 -3.2464773140849204
1.5092450394099644 -3.246641562394422
1.4864462271247694 -3.2468049425064045
1.4637660824670073 -3.24696747222627
1.4412021625229297 -3.2471291690603468
1.4187520649613548 -3.247290050224144
1.396413426914605 -3.2474501326503673
1.3741839238905467 -3.2476094329967164
1.3520612687146194 -3.247767967653469
1.330043210500788 -3.2479257527508514
1.308127533650384 -3.2480828041662146
1.2863120568778612 -3.2482391375310176
1.264594632262493 -3.24839476823762
1.2429731443251264 -3.248549711445899
1.2214455091290741 -3.248703982089697
1.2000096734043266 -3.248857594883089
1.1786636136942499 -3.2490105643265057
1.157405335523978 -3.249162904712688
1.136232872589751 -3.2493146301324978
1.1151442859684466 -3.2494657544805845
1.094137663346624 -3.249616291460906
1.073211118268368 -3.249766254592122
1.0523627894012986 -3.2499156572128527
1.031590839820089 -3.2500645124868126
1.0108934563069 -3.2502128334078253
0.9902688486681137 -3.250360632804718
0.969715249066814 -3.2505079233461074
0.9492309113704356 -3.250654717545071
0.9288141105130766 -3.2508010277637203
0.9084631418719283 -3.25094686621767
0.8881763206573228 -3.251092244980403
0.8679519813159416 -3.2512371759875554
0.8477884769466735 -3.2513816710410963
0.8276841787286958 -3.2515257418134285
0.8076374753613251 -3.2516693998514032
0.7876467725152132 -3.2518126565802516
0.767710492294471 -3.251955523307441
0.7478270727093201 -3.2520980112264515
0.7279949671588768 -3.252240131420484
0.7082126439236986 -3.2523818948660974
0.6884785856677121 -3.252523312436776
0.6687912889491735 -3.252664394906436
0.6491492637403091 -3.2528051529528663
0.629551032955299 -3.252945597161111
0.6099951319862745 -3.253085738026796
0.5904801082470024 -3.2532255859593984
0.5710045207239566 -3.253365151285462
0.5515669395344569 -3.2535044442517655
0.5321659454915866 -3.2536434750284418
0.5128001296755986 -3.253782253712045
0.49346809301152306 -3.253920790328581
0.4741684458527027 -3.254059094836491
0.45489980756998466 -3.254197177129595
0.4356608061463008 -3.254335047039997
0.41645007777638743 -3.254472714340955
0.3972662664713761 -3.254610188749712
0.37810802366801866 -3.2547474799302987
0.35897400784229705 -3.2548845974963005
0.3398628841271791 -3.2550215510135994
0.32077332393428926 -3.255158350003082
0.3017040045792497 -3.2552950039433264
0.28265360891048347 -3.2554315222732613
0.2636208249412432 -3.255567914394804
0.2446043454846427 -3.255704189675475
0.2256028677914817 -3.255840357450994
0.20661509319064353 -3.2559764270278553
0.18763972673185458 -3.2561124076858903
0.16867547683059586 -3.256248308680809
0.14972105491495458 -3.2563841392467356
0.13077517507421998 -3.2565199085987206
0.11183655370900526 -3.256655625935253
0.09290390918270311 -3.2567913004407556
0.07397596147406908 -3.256926941288075
0.05505143183073323 -3.2570625576409653
0.03612904242344034 -3.257198158656565
0.017207516000820815 -3.257333753487872
-0.001714424455510432 -3.2574693512862143
-0.02063805607571423 -3.25760496120372
-0.03956465644655872 -3.2577405923957907
-0.05849550395651005 -3.2578762540235724
-0.07743187814128033 -3.258011955256433
-0.09637506003004145 -3.258147705274442
-0.11532633249248826 -3.2582835132708583
-0.13428698058697136 -3.258419388454626
-0.15325829190986937 -3.2585553400528773
-0.1722415569464481 -3.2586913773134447
-0.19123806942336424 -3.2588275095073915
-0.21024912666304812 -3.2589637459315473
-0.22927602994016716 -3.2591000959110636
-0.24832008484037452 -3.259236568801988
-0.2673826016215486 -3.259373173993848
-0.28646489557776367 -3.2595099209122598
-0.30556828740617253 -3.2596468190215613
-0.3246941035770498 -3.2597838778274624
-0.34384367670720806 -3.2599211068797165
-0.36301834593700366 -3.2600585157748294
-0.38221945731118506 -3.2601961141587834
-0.40144836416379764 -3.2603339117297963
-0.4207064275073863 -3.260471918241113
-0.4399950164267489 -3.2606101435038246
-0.45931550847747593 -3.2607485973897257
-0.47866929008953374 -3.2608872898342054
-0.4980577569761511 -3.2610262308391786
-0.5174823145482582 -3.2611654304760567
-0.5369443783347706 -3.2613048988887563
-0.5564453744089669 -3.2614446462967583
-0.575986739821261 -3.2615846829982065
-0.5955699230386441 -3.2617250193730585
-0.6151963843910898 -3.2618656658862837
-0.6348675965252504 -3.262006633091115
-0.6545850448657087 -3.262147931632354
-0.6743502280841414 -3.2622895722497325
-0.6941646585767134 -3.2624315657813368
-0.7140298629500261 -3.2625739231670843
-0.7339473825159659 -3.2627166554522753
-0.7539187737958252 -3.262859773791202
-0.7739456090340411 -3.2630032894508316
-0.7940294767219415 -3.263147213814559
-0.8141719821318676 -3.2632915583860354
-0.8343747478620936 -3.263436334793073
-0.8546394143929436 -3.2635815547916276
-0.8749676406545167 -3.2637272302698705
-0.895361104606481 -3.263873373252343
-0.9158215038303678 -3.264019995904199
-0.9363505561348479 -3.2641671105355425
-0.9569500001744452 -3.2643147296058634
-0.9776215960822107 -3.264462865728571
-0.9983671261168593 -3.2646115316756306
-1.019188395324894 -3.264760740382307
-1.0400872322182673 -3.2649105049520237
-1.0610654894681557 -3.265060838661334
-1.0821250446154211 -3.265211754965008
-1.1032678007983794 -3.2653632675012574
-1.1244956874984913 -3.265515390097068
-1.145810661304636 -3.2656681367736837
-1.1672147066966405 -3.265821521752221
-1.1887098368487585 -3.2659755594594224
