# .PCD v0.7 - Point Cloud Data file format
VERSION 0.7
FIELDS x y
SIZE 4 4
TYPE F F
COUNT 1 1
WIDTH 540
HEIGHT 1
VIEWPOINT 0 0 0 1 0 0 0
POINTS 540
DATA ascii
-4.201427732766973 11.543406022510112
-4.0945274588395195 11.456329173923399
-3.9953986876594563 11.387261986977121
-3.902397246488184 11.332491896611764
-3.8142351800839873 11.289066391118281
-3.7299410661018557 11.254750525068493
-3.648782874796302 11.227863116370067
-3.570200723720325 11.207123293644718
-3.493757722606693 11.19153544315787
-3.4191060396245083 11.18030903940858
-3.3459639365557243 11.17280455432372
-3.2741003874930485 11.16849795634478
-3.2033248854018037 11.16695842899802
-3.133480773720884 11.167835500314089
-3.0644408833697527 11.17085268874003
-2.996104529284876 11.175805233211532
-2.9283951229525353 11.182559741277831
-2.861257841559094 11.191053932645525
-2.7946570396257235 11.201295212833289
-2.728573333774867 11.21335760567714
-2.6630005227365694 11.227377432980841
-2.5979426477705716 11.243548847414345
-2.533411546237415 11.262120751207433
-2.4694252012436415 11.28339679391662
-2.406007133195013 11.307740205764592
-2.3431870409467304 11.335585473502807
-2.281002959913612 11.367459654651352
-2.2195054431842434 11.404017967806794
-2.1587647743379055 11.446102214638765
-2.0988833478105073 11.494838915479434
-2.0400178750116407 11.551812905766791
-1.982422423955106 11.619399312943079
-1.9265416100909116 11.701471966293344
-1.8732469748561391 11.805173057718173
-1.8246013384348465 11.94655186547025
-1.787516668201266 12.177280858318143
-1.7723048766333527 12.581853942551971
-1.7325978648666582 12.839523088956794
-1.6824393363623864 13.038893278623314
-1.6321256777952906 13.25519088109708
0.22101472115075177 2.54551248396923
0.235241783173975 2.538187726586206
0.24945769802643883 2.5314583480440964
0.26366831348547604 2.525271463280676
0.2778791851858456 2.5195826440547653
0.2920956249151664 2.514354204569915
0.30632274095319156 2.5095539135685185
0.3205654720885102 2.505154009437039
0.33482861674239994 2.501130436440495
0.3491168580746355 2.497462243617345
0.36343478588382505 2.4941311062115514
0.37778691591025043 2.4911209405504033
0.39217770699043464 2.488417590912476
0.40661157644612356 2.486008572669696
0.421092914004535 2.483882859826653
0.43562609449320844 2.482030707949404
0.45021548949028906 2.480443505460759
0.4648654780923017 2.479113647938262
0.4795804569016147 2.4780344310441187
0.4943648493637684 2.477199958887329
0.5092231144498481 2.476605064693454
0.524159754813575 2.4762452419909016
0.5391793243957927 2.4761165841878725
0.9417177346978027 4.207023877111755
0.9542144175744377 4.149620845411205
0.9683541319039325 4.101864699479313
0.9833884731956669 4.059935487656727
0.9989783506851324 4.022036412542157
1.0149355003901208 3.9871354202609415
1.0311403954014642 3.954560687063068
1.0475078239101523 3.9238304106074873
1.0639688745954936 3.894565613433546
1.080458498922167 3.8664344311334173
1.0969026546090435 3.839102180510668
1.1131973877294346 3.812160241133757
1.129158652455633 3.7849658959719625
0.7608797148206287 2.4974364029313385
0.7777390847838139 2.5005776213470523
0.7947640196867779 2.5039329901725886
0.8119600002394803 2.5075017326582634
0.8293323839444146 2.5112825885848196
0.8468863329060548 2.5152736411700016
0.8646267215480337 2.51947210547663
0.8825580196063706 2.523874070384479
0.900684144212092 2.5284741830846644
0.9190082737390926 2.533265263634687
0.937532614436364 2.538237834551108
0.9562581091868554 2.5433795482501687
0.9751840756362751 2.5486744922674016
0.994307760896827 2.554102355105426
1.0136237968295292 2.559637430116304
1.0331235432462142 2.565247446503294
1.0527943092007377 2.5708922253098425
1.072618450818017 2.5765221789044035
1.0925723630889785 2.5820767154323785
1.1126254102087987 2.5874826654711702
1.1327388855727547 2.5926529401897893
1.152865152776272 2.5974857399740316
1.1729471977412254 2.601864767412764
1.1929188953792447 2.6056610019579978
1.2127063354426506 2.6087366125558966
1.2322305089446697 2.6109514201447994
1.2514114711639277 2.612171880997962
1.2701737557818369 2.6122818568678996
1.2884523721121446 2.61119362026945
1.3061983478754613 2.6088569798647234
1.3233826875772858 2.605264470166524
1.3399979269566322 2.600451389437548
1.3560570845308493 2.5944908025653906
1.3715904753637849 2.5874848770874093
1.386641279834027 2.5795545760304117
1.401260830307024 2.570829645990128
1.4155043631825286 2.5614402416480657
1.429427651051329 2.5515107885032027
1.4430846268608297 2.541156084336542
1.4565259112117541 2.5304792863302854
1.4697980594061397 2.5195713013795245
1.4829433269383299 2.508511113496084
1.495999776052406 2.4973666678076976
1.5090015856681305 2.4861960334650464
1.5219794667430755 2.4750486598265478
1.534961118310492 2.4639666119102874
1.547971684703927 2.4529857225084886
1.5610341918245432 2.4421366318283138
1.574169952032146 2.4314457066992903
1.587398934721587 2.420935843793216
1.6007401037238127 2.410627167221395
1.6142117255341801 2.4005376343211826
1.6278316536107154 2.390683564099668
1.6416175945508493 2.381080102372406
1.6555873625212447 2.371741637213817
1.6697591284219868 2.362682177271019
1.6841516706135218 2.353915704840187
1.6987846345205433 2.3454565151754276
1.7136788091603201 2.3373195534160054
1.7288564296719622 2.3295207608009707
1.7443415168703023 2.322077443273078
1.7601602666963696 2.315008676676023
1.7763415064249508 2.3083357664601487
1.792917238393396 2.302082782954516
1.8099232993016496 2.2962772002817537
1.8274001722375537 2.2909506754454387
1.845394001463384 2.286140016224559
1.8639578809344732 2.2818884070179686
1.8831535148637562 2.2782469876417784
1.9030533944097372 2.2752769249084284
1.9237437003481042 2.273052180118113
1.9453282520019903 2.2716632836890485
1.967933994420644 2.2712225946715057
1.991718814535087 2.271871815351765
2.016882986642129 2.2737930284457706
2.043686483771984 2.277225441308197
2.072476158984836 2.282491752171161
2.1037303543226953 2.290041537317914
2.138136052882241 2.3005264681066944
2.1767309101871115 2.3149390457043384
2.2211846091903205 2.3348877530948635
2.274402648231662 2.363187449214357
2.3419028939322253 2.4052012277072072
15.871446810026752 16.112106737298397
16.07173370978369 16.12696715209456
16.27472936938518 16.142028545062168
16.480503096111406 16.157296058499224
16.68912648752758 16.172775004632957
10.915248106581254 7.4872003905573985
10.711867112780153 7.256553122642909
10.063784982185249 6.732567233910355
9.948648612900389 6.572209534831433
9.894136512635734 6.45395570167627
9.865905894574201 6.354152231056328
9.853671003918294 6.26559063080436
9.852727936471535 6.184910775599934
9.860476442597705 6.110213985898611
9.87530933630599 6.040296544989268
9.896155102459105 5.974332462403252
9.92225671114628 5.911719535427555
9.953051385944258 5.851995656162279
9.988098745304876 5.794789080165935
10.027034215373535 5.739786667548997
10.06953683410339 5.686712509710539
10.115306432357412 5.635313320793512
10.164048493472945 5.585349130174089
10.215467160592873 5.536589097441606
10.269268179554468 5.488812963272019
10.325173758136641 5.441818654387957
10.382949922215541 5.395435730823436
10.442444004108086 5.349542833085316
10.503626650943746 5.304085801586546
10.566631528143892 5.259092873529333
10.631788646722349 5.214685111343544
10.699653894037072 5.171083660629423
10.77104610234249 5.128619447739791
10.847113219270186 5.08775507542343
10.929465308607195 5.049134930160323
11.02045017082531 5.013694738093128
11.123757473972667 4.982906953305074
11.245913514795385 4.9593940717950655
11.40089901076781 4.948836182668936
11.632318849699901 4.969187139692915
18.98815813801468 5.376458298829925
18.99680606761016 5.259902534286878
19.005434065677573 5.143615404503958
19.014042781353353 5.027588160497627
19.022632858278627 4.911812127349558
19.03120493479984 4.796278701502207
19.03975964416622 4.680979348098232
19.048297614724 4.565905598361911
19.05681947010774 4.451049047020819
19.065325829428794 4.336401349766002
19.073817307460995 4.221954220749027
19.082294514823754 4.107699430114213
19.090758058162667 3.9936288015644696
19.099208540327744 3.8797342099591767
19.107646560549387 3.766007578942536
19.11607271461217 3.652440878600927
19.124487595026643 3.5390261231477926
19.132891791199157 3.4257553686345523
19.86160372075936 3.437280035014674
21.139610809624994 3.5321025894405462
24.577543049294192 -1.5009453980889633
23.56154983226016 -1.5763276654941063
22.625522506396273 -1.6457768123917356
21.760321528795902 -1.709970953021
20.95814896378374 -1.769488660213331
20.21231102412585 -1.8248265837993969
19.51702932295324 -1.8764134548935778
18.867289564224272 -1.9246213124019595
18.258719285297904 -1.96977457399043
17.687488345589582 -2.012157419392577
17.15022737255558 -2.0520198413621125
16.643960494816426 -2.089582636581856
16.166049525198083 -2.1250415470387503
15.714147382627688 -2.1585707159161225
15.286159016689126 -2.1903255868213183
14.880208461776396 -2.220445348223891
14.49461092764765 -2.249055004214816
14.127849050468285 -2.276267136575558
13.778552598308103 -2.3021834105417103
13.44548105874708 -2.326895866726736
13.127508642113279 -2.3504880338163177
12.823611318213006 -2.3730358903864963
12.53285557197426 -2.3946086991858846
12.254388617839888 -2.4152697331850406
11.987429856795854 -2.435076909427727
11.731263395753228 -2.4540833440601517
11.48523147828724 -2.4723378397414937
11.248728699776304 -2.4898853148553686
11.021196899801945 -2.5067671824714846
10.802120641074776 -2.5230216857896264
10.591023197783532 -2.5386841957866686
10.387462987634168 -2.5537874759437167
10.191030391364224 -2.5683619182242814
10.001344911512602 -2.582435753881167
9.818052628963304 -2.5960352421698483
9.640823921478496 -2.6091848396233477
9.469351413270806 -2.621907352177102
9.30334812875431 -2.6342240721972106
9.142545827186789 -2.646154901967454
8.98669349780488 -2.6577184653658716
8.83555599771938 -2.668932208927991
8.688912816965548 -2.6798124936217986
8.546556957213637 -2.690374677844769
8.408293912011933 -2.70063319298457
8.273940737839501 -2.710601612777798
8.143325207094692 -2.7202927157141343
8.016285034256581 -2.7297185427113875
7.892667168277686 -2.738890449438107
7.772327144425651 -2.7478191546423307
7.655128490143659 -2.756514783906514
7.540942179443581 -2.7649869102176647
7.429646131174809 -2.773244591823294
7.321124747911124 -2.7812964053885834
7.215268490545034 -2.789150478142245
7.111973486029466 -2.7968145171985324
7.011141165497868 -2.8042958358542998
6.912677929461651 -2.811601378735899
6.816494838151287 -2.8187377447661452
6.722507324723133 -2.8257112084380527
6.630634929315876 -2.8325277397031114
6.540801052572793 -2.839193021721517
6.4529327262525396 -2.8457124684514272
6.366960400317477 -2.852091240204318
6.28281774467477 -2.858334258486767
6.200441464770143 -2.8644462193346167
6.1197711294003705 -2.8704316064505226
6.040749010212534 -2.876294703192245
5.9633199320897 -2.8820396033076485
5.887431133191638 -2.8876702213667067
5.813032133978602 -2.8931903027516865
5.740074614907021 -2.898603432495797
5.668512301556687 -2.9039130442696828
5.5983008577719025 -2.9091224272637835
5.529397784270194 -2.9142347349938844
5.461762324732419 -2.919252991162243
5.3953553765902855 -2.924180097164906
5.330139407898801 -2.9290188378127198
5.266078379157003 -2.9337718867924965
5.203137668997461 -2.9384418131850722
5.141284005515294 -2.94303108528406
5.080485400165592 -2.9475420767448757
5.020711086635265 -2.9519770702903387
4.96193146272061 -2.956338262072399
4.904118035139938 -2.960627766358951
4.847243368166064 -2.964847618712899
4.791281034582335 -2.9689997798877585
4.736205569464294 -2.9730861392783727
4.681992426494645 -2.97710851815259
4.628617936700564 -2.981068672605211
4.576059269242744 -2.9849682965971205
4.524294394404224 -2.9888090246372783
4.473302048474207 -2.99259243440032
4.423061700466919 -2.99632004919589
4.373553520557367 -2.9999933403105463
4.324758350131644 -3.0036137292299236
4.276657673356011 -3.0071825897481603
4.229233590175781 -3.0107012499712793
4.182468790660585 -3.0141709942206476
4.1363465306184155 -3.017593064842319
4.090850608405693 -3.02096866392761
4.045965342865469 -3.0242989549500066
4.001675552330162 -3.027585064323056
3.9579665346293504 -3.030828082883709
3.914824048046842 -3.0340290673052186
3.8722342931748353 -3.037189041443484
3.830183895616153 -3.040308997620471
3.788659889488618 -3.043389897848108
3.7476497016884833 -3.0464326749958834
3.7071411368723375 -3.049438233905107
3.667122363119544 -3.0524074524527145
3.6275818982393537 -3.0553411825671963
3.588508596689143 -3.058240251199228
3.549891637072075 -3.061105461249277
3.5117205101844293 -3.063937592454443
3.4739850075845484 -3.066737402236595
3.4366752106569685 -3.069505626513758
3.3997814801468214 -3.0722429804766196
3.363294446141051 -3.0749501593318795
3.327204998474233 -3.077627839014099
3.2915042775381425 -3.0802766768675816
3.2561836654752887 -3.0828973122997825
3.2212347777377794 -3.085490367407604
3.1866494549938906 -3.0880564475778867
3.152419755365681 -3.0905961420633514
3.1185379469819186 -3.0931100245351377
3.084996500831353 -3.095598653613055
3.0517880839023204 -3.0980625733745994
3.0189055525952346 -3.100502313843718
2.986341946395381 -3.1029183914602587
2.9540904817939904 -3.1053113095309994
2.92214454644625 -3.1076815586630944
2.8904976935554787 -3.1100296171807567
2.8591436364732403 -3.1123559515258905
2.8280762435057234 -3.114661016643446
2.7972895329171545 -3.116945256352139
2.7667776681215415 -3.1192091037012064
2.736534953054431 -3.121452981313797
2.7065558277167914 -3.1236773017176005
2.676834863883545 -3.12588246766325
2.647366760969627 -3.1280688724310552
2.618146342046753 -3.13023690012652
2.589168550004519 -3.1323869259651915
2.5604284438496396 -3.134519316547231
2.5319211951375156 -3.136634430122178
2.50364208453056 -3.138732616844306
2.4755864984779903 -3.1408142190189703
2.447749926012036 -3.142879571340315
2.420127955655752 -3.1449290011206954
2.3927162724378546 -3.1469628285121707
2.3655106550102065 -3.1489813667203683
2.33850697286377 -3.150984922211052
2.311701183639062 -3.1529737949096726
2.2850893305272932 -3.154948278394193
2.2586675397585787 -3.1569086600814487
2.232432018173762 -3.1588552214073147
2.206379050876495 -3.160788238000903
2.1805049989624847 -3.1627079798530486
2.154806297322821 -3.1646147114792904
2.129279452518522 -3.166508692077571
2.1039210407235434 -3.1683901756808566
2.0787277057335745 -3.170259411304875
2.053696157038126 -3.1721166430911603
2.0288231679534676 -3.1739621104455757
2.0041055738141 -3.175796048172508
1.9795402702205551 -3.177618686604862
1.955124211341377 -3.1794302517300532
1.9308544082672559 -3.181230965312123
1.9067279274153874 -3.1830210450101255
1.8827418889821321 -3.1848007044929356
1.8588934654422395 -3.186570153550601
1.8351798800928714 -3.1883295982023667
1.8115984056408059 -3.190079240801501
1.7881463628312186 -3.191819280137028
1.7648211191165242 -3.1935499115325054
1.7416200873638308 -3.1952713269419144
1.7185407245995918 -3.1969837150428044
1.6955805307901195 -3.1986872613267767
1.6727370476566563 -3.2003821481873986
1.6500078575237793 -3.202068555005645
1.6273905821999286 -3.2037466582329635
1.6048828818889087 -3.2054166314720303
1.5824824541312752 -3.2070786455552986
1.5601870327745324 -3.208732868621404
1.537994386971128 -3.2103794661895093
1.5159023202032362 -3.212018601231662
1.4939086693334327 -3.213650434243227
1.472011303680294 -3.2152751233114785
1.4502081241180829 -3.2168928241823953
1.4284970621996458 -3.2185036903257376
1.4068760793017372 -3.2201078729984625
1.3853431657919537 -3.2217055213065335
1.3638963402165418 -3.223296782265181
1.342533648508334 -3.22488180085767
1.321253163214125 -3.226460720092626
1.3000529827407863 -3.2280336810599675
1.2789312306194838 -3.2296008229855024
1.2578860547873378 -3.2311622832842226
1.2369156268859498 -3.2327181976123485
1.2160181415761608 -3.234268699918178
1.1951918158685046 -3.2358139224917535
1.1744348884687859 -3.2373539960134274
1.153745619138247 -3.238889049601329
1.1331222880678158 -3.2404192108577936
1.112563195265919 -3.2419446059147843
1.092066659959396 -3.2434653594783427
1.0716310200070231 -3.2449815948721
1.0512546313252076 -3.2464934340798934
1.0309358673253997 -3.2480009977875004
1.010673118362809 -3.249504405423547
0.9904647911959938 -3.2510037751996044
0.970309308456936 -3.252499224149501
0.9502051081311939 -3.2539908681678984
0.930150643047778 -3.2554788220481408
0.9101443803783585 -3.2569631995194057
0.8901848011454477 -3.2584441132832023
0.870270399739234 -3.2599216750492137
0.8503996834426938 -3.261395995570536
0.8305711719646743 -3.262867184678319
0.8107833969806193 -3.264335351315844
0.7910349016806226 -3.265800603572054
0.7713242403245067 -3.267263048714569
0.7516499778036279 -3.2687227932221923
0.7320106892091125 -3.27017994281695
0.7124049594062539 -3.27163460249567
0.6928313826147717 -3.273086876561119
0.6732885619946809 -3.274536868652735
0.653775109237493 -3.2759846817769542
0.6342896441624972 -3.2774304183371696
0.6148307943178591 -3.2788741801633234
0.5953971945862914 -3.2803160685411674
0.5759874867950545 -3.2817561842411975
0.5566003193300374 -3.283194627547288
0.5372343467536882 -3.2846314982850404
0.5178882294265622 -3.286066895849861
0.4985606331322538 -3.2875009192347897
0.47925022870548994 -3.2889336670580964
0.45995569166316286 -3.290365237590653
0.4406757018380762 -3.2917957287831094
0.4214089430152009 -3.293225238292884
0.40215410257020967 -3.2946538635109786
0.3829098711100906 -3.296081701588646
0.3636749421156243 -3.297508849463917
0.34444801158551613 -3.2989354038880028
0.3252277776819838 -3.300361461451591
0.3060129403775778 -3.3017871186110503
0.2868022011030544 -3.303212471714559
0.267594262396082 -3.3046376170281637
0.24838782755058034 -3.3060626507618034
0.22918160026649656 -3.3074876690952912
0.20997428429981352 -3.308912768204282
0.1907645831125903 -3.3103380442862376
0.17155119952283487 -3.3117635935864085
0.15233283535400316 -3.3131895124238326
0.13310819108393496 -3.31461589721739
0.1138759654930095 -3.316042844511904
0.09463485531132915 -3.3174704510043194
0.07538355486472342 -3.318898813569966
0.05612075571936918 -3.320328029288931
0.03684514632482079 -3.3217581954725386
0.017555411655243332 -3.3231894096899737
-0.001749767151365039 -3.3246217697950455
-0.021071713156162075 -3.326055373953126
-0.04041175398489017 -3.3274903206682565
-0.059771222195950637 -3.32892670881046
-0.07915145565134231 -3.330364637643266
-0.09855379789069647 -3.3318042068514573
-0.1179795985086165 -3.3332455165690695
-0.13743021353557122 -3.3346886674076512
-0.15690700582254147 -3.3361337604848047
-0.17641134542970158 -3.337580897453022
-0.19594461001932753 -3.3390301805288374
-0.2155081852532066 -3.340481712522315
-0.23510346519478958 -3.3419355968668847
-0.25473185271633497 -3.3433919376495527
-0.27439475991129725 -3.3448508396414978
-0.29409360851224964 -3.3463124083290774
-0.31382983031457407 -3.3477767499452673
-0.33360486760622365 -3.3492439715015463
-0.35342017360382927 -3.3507141808202534
-0.3732772128954273 -3.3521874865674346
-0.3931774618901299 -3.353663998286211
-0.4131224092750182 -3.3551438264306723
-0.4331135564795745 -3.3566270824003417
-0.4531524181479814 -3.3581138785752147
-0.4732405226196044 -3.3596043283514074
-0.493379412417999 -3.361098546177445
-0.5135706447487908 -3.3625966475911953
-0.5338157920067683 -3.3640987492574963
-0.5541164422925818 -3.365604969006493
-0.5744741999393937 -3.3671154258727123
-0.59489068604989 -3.368630240134906
-0.6153675390440383 -3.3701495333566918
-0.6359064152180031 -3.3716734284280254
-0.6565089893146645 -3.3732020496075283
-0.6771769551061347 -3.374735522565705
-0.6979120259887585 -3.376273974429096
-0.718715935591057 -3.3778175338253793
-0.7395904383950815 -3.379366330929474
-0.7605373103716738 -3.3809204975106746
-0.7815583496301646 -3.3824801669808546
-0.8026553770830168 -3.3840454744437793
-0.82383023712598 -3.385616556745574
-0.845084798334298 -3.387193552526374
-0.8664209541755833 -3.3887766022732224
-0.8878406237399502 -3.390365848374239
-0.9093457524880237 -3.391961435174121
-0.9309383130174953 -3.393563509031018
-0.9526203058488814 -3.39517221837483
-0.9743937602311996 -3.3967877137669875
-0.9962607349682554 -3.3984101479617563
-1.0182233192663201 -3.400039675969136
-1.0402836336039656 -3.4016764551193917
-1.0624438306248534 -3.403320645129297
-1.0847060960543218 -3.4049724081701442
-1.107072649640639 -3.4066319089375785
-1.1295457461218212 -3.4082993147233287
-1.1521276762189554 -3.409974795488915
-1.1748207676569888 -3.4116585239413793
-1.1976273862140059 -3.413350675611143
-1.2205499368000323 -3.4150514289320433
-1.2435908645664662 -3.416760965323657
