# .PCD v0.7 - Point Cloud Data file format
VERSION 0.7
FIELDS x y
SIZE 4 4
TYPE F F
COUNT 1 1
WIDTH 498
HEIGHT 1
VIEWPOINT 0 0 0 1 0 0 0
POINTS 498
DATA ascii
-0.9860248162589298 2.709099269655116
-0.968783567166741 2.710618882232513
-0.9516473744671566 2.7122845101159743
-0.9346100982108791 2.7140910305832397
-0.917665899060266 2.716033692271822
-0.9008092177344561 2.71810809785233
-0.8840347561608926 2.720310189145528
-0.8673374603432656 2.722636234618925
-0.8507125042686592 2.7250828189531227
-0.8341552753271844 2.7276468342687266
-0.8176613601311935 2.7303254731945263
-0.8012265320322374 2.733116223239278
-0.7848467386104896 2.7360168627100308
-0.7685180901888411 2.739025457639215
-0.7522368489693266 2.742140359920403
-0.7359994181353248 2.745360206374601
-0.7198023322248388 2.748683918685053
-0.703642246801313 2.7521107042036337
-0.6875159290873435 2.755640057451938
-0.6714202486060193 2.7592717623227885
-0.6553521680700868 2.76300589490084
-0.6393087340582153 2.7668428270079977
-0.6232870684469305 2.7707832302022664
-0.6072843591748199 2.7748280805824694
-0.5912978514952627 2.7789786641473215
-0.575324839451238 2.783236582767125
-0.5593626565131634 2.7876037611423365
-0.5434086672538845 2.7920824543392753
-0.5274602581464061 2.7966752564577937
-0.5115148286838711 2.801385110198606
-0.4955697825275195 2.8062153178323377
-0.47962251833538316 2.8111695533082734
-0.4636704202463159 2.8162518762601185
-0.4477108487654207 2.8214667475438358
-0.4317411312416759 2.8268190470910675
-0.4157585516464628 2.832314094022478
-0.39976034062053156 2.837957669713552
-0.3837436652341509 2.843756043987725
-0.3677056174596223 2.8497160048412034
-0.3516432032500188 2.8558448926652047
-0.33555333047243896 2.8621506390676865
-0.31943279559114246 2.868641811758403
-0.30327827083499515 2.875327665482958
-0.28708628861083385 2.8822182007327775
-0.27085322615537694 2.8893242314818774
-0.254575288241275 2.896657463085025
-0.23824848742185545 2.904230582045025
-0.22186862337040555 2.912057360558232
-0.20543125890930053 2.920152777780954
-0.18893169343763874 2.928533160840777
-0.17236493272483117 2.93721635099818
-0.15572565427694396 2.946221897862738
-0.13900816779597788 2.95557129009728
-0.12220636915787228 2.965288228354064
-0.10531368661647335 2.9753989531658225
-0.08832301760278606 2.9859326377937925
-0.07122665355670012 2.996921865978793
-0.054016189834724664 3.0084032145590904
-0.03668241719966581 3.020417973634013
-0.01921518847432645 3.0330130410251663
-0.001603254338254149 3.0462420507322103
0.016165942252366967 3.0601668104250987
0.03410652700466307 3.074859157786126
0.05223453004278059 3.0904033984332213
0.07056832597072847 3.106899558665814
0.08912922186004407 3.124467817581234
0.10794226082779235 3.1432546814315376
0.12703734952253842 3.1634418200623315
0.14645088977092693 3.1852591133525614
0.16622822905147025 3.2090046512657846
0.18642751076786987 3.2350768225788724
0.20712607551705478 3.2640288223477256
0.22843190547195052 3.2966682739708024
0.2505061795511929 3.334258092138518
0.27361434254830297 3.3789821980756725
0.2982698550482894 3.43528990134208
0.325848417409366 3.515805919496578
1.8758230468433164 19.035563740677777
1.9899092192994126 19.058266424163012
2.104406819660353 19.08105098012499
2.2193258471105612 19.103919398360663
2.3346764316753936 19.12687369470381
2.4504688380810378 19.149915911793112
2.5667134697077394 19.173048119858862
2.6834208726397395 19.196272417528842
2.800601739815448 19.21959093265424
2.9182669152814893 19.24300582315614
3.0364273985543613 19.266519277893508
3.155094349093669 19.290133517553354
3.2742790908909325 19.313850795563837
3.393993117178202 19.33767339903131
3.514248095260822 19.361603649701994
3.635055871478868 19.38564390494931
3.756428476301933 19.409796558787683
3.8783781295621895 19.434064042913924
4.0009172458306805 19.458448827777094
4.124058439942211 19.482953423677916
4.2478145326742025 19.507580381898862
4.372198556585241 19.532332295866
4.497223762019172 19.557211802343744
4.622903623280902 19.582221582663895
4.749251844990276 19.60736436398995
4.876282368620612 19.63264292061831
5.004009379228876 19.658060075317493
5.132447312384618 19.68361870070704
5.261610861305153 19.709321720677334
3.7795749894561057 13.834805828248944
3.8155533880135697 13.654006153832071
3.850716056565754 13.477305709099655
3.8850927204093324 13.304555117643158
3.9187116868121876 13.135612128972888
3.9515999287132884 12.970341197906631
3.9837831625646247 12.808613093396652
4.015285920787794 12.650304534418195
4.046131619275268 12.495297850760801
4.076342620326986 12.343480666757005
4.105940291378681 12.194745606159534
4.134945059846397 12.048990016534708
4.1633764643837825 11.906115711682995
4.191253202822879 11.766028730725699
4.222630845300195 11.63976902844322
4.305389691271288 11.656237701598226
4.388740475436339 11.672824168042036
4.472695257612878 11.689530827629193
4.557266355164653 11.70636013146491
4.642466350777696 11.723314583452424
4.728308100505193 11.74039674189395
4.814804742092249 11.757609221147233
4.901969703592256 11.774954693340188
4.989816712287185 11.792435890145988
5.078359803924572 11.810055604621214
5.167613332284692 11.82781669310966
5.257591979092014 11.845722077214672
5.348310764285783 11.863774745842955
5.439785056665219 11.881977757322943
5.532030584925647 11.900334241600921
5.625063449102608 11.918847402518367
5.718900132442024 11.937520520174045
5.813557513715172 11.956356953374682
5.909052879998348 11.975360142178026
6.005403939937983 11.994533610532557
6.102628837523233 12.013880969018201
6.200746166388931 12.033405917692516
6.299774984673236 12.053112249047363
6.399734830455373 12.073003851080884
6.500645737800456 12.093084710490432
6.602528253439451 12.11335891599173
6.705403454114241 12.133830661770547
6.80929296461904 12.154504251072835
6.914218976571256 12.175384099940024
7.020204267946759 12.19647474109651
7.1272722234161385 12.217780827996462
7.235446855521041 12.23930713903784
12.692260984255881 21.18799081964995
12.883148378460586 21.225976633343713
13.07607957492458 21.26436915535978
15.445752785544832 11.54547062306209
15.469913021023176 11.424059918967572
15.493941590231808 11.303310867326408
15.517841175367462 11.183209990504622
15.541614412216308 11.063744042710681
15.565263892106001 10.944900002668787
15.588792162051057 10.826665068952618
15.612201728031106 10.70902665099262
15.635495053638499 10.591972366813735
15.658674563168672 10.47549003452212
15.681742641716406 10.35956766821765
15.70470163678682 10.24419347180242
15.727553858584884 10.129355834880357
15.750301582074115 10.015043326060388
15.772947047174867 9.901244689191651
15.795492459830987 9.787948838381803
15.817939993472889 9.675144852440837
16.031039137015302 9.67797660108706
16.350136766876155 9.741475729313963
16.679858857054665 9.807089081719171
17.02076840432322 9.874928692687343
17.373468833684516 9.945114640954237
17.73860769407154 10.017775786576808
18.11688076881557 10.093050587291074
14.753092181776786 1.5049387746037766
14.598883767276764 1.4035712850586857
14.468510239325349 1.3062594416432651
14.345081000955373 1.2111498112211871
14.205380889861042 1.1162881332482806
13.937576372369257 1.013817029334883
13.692034444621495 0.9160319607839942
13.583438597074744 0.8295377455595091
13.512344821303273 0.7464377593837616
13.456590945678938 0.6649748357638687
13.405274963373735 0.5843997021760747
13.349593104465367 0.5042964826645919
13.281851704919324 0.4244897593178181
13.199591677742442 0.3451199324527647
13.109384018224251 0.2665681590266543
13.02117967186895 0.18911194833736786
12.941148812077628 0.11276470238616573
12.87135936008594 0.03738468603501701
12.81188672672995 -0.037211948590318074
12.762157433900587 -0.11120503331946227
12.72150355292622 -0.18475962879708382
12.689354043646151 -0.2580272072242183
12.66529069274003 -0.33114996092975185
12.649059845817963 -0.4042656467515933
12.640574095238724 -0.4775124608822577
12.639917011910889 -0.5510341083993703
12.64735685171606 -0.6249854869830577
12.66337333717995 -0.6995395799211847
12.68870189131023 -0.7748963626383207
12.724400432348988 -0.8512947820127679
12.771942487480024 -0.9290290108948037
12.83332931194727 -1.008469489981709
12.9111697189008 -1.0900852192225334
13.008545976752423 -1.1744495959229955
13.128261727682819 -1.2621821967658409
13.2714555658454 -1.3537994496599461
13.438888773805377 -1.4498049395305854
13.64504813338329 -1.5522828511942022
23.803316294997792 -7.341358549761975
23.508060201032738 -7.400113309573998
23.21899675340409 -7.457635757768105
22.935914242624577 -7.513968023999332
22.65861042158226 -7.569150354493249
22.386891981315927 -7.6232212170512215
22.120574061620378 -7.676217397962471
21.859479793066914 -7.728174093776506
21.603439869011723 -7.779124995594773
21.352292144451226 -7.829102369129605
21.105881259519506 -7.8781371313268425
20.864058288184786 -7.926258917429757
20.626680406956428 -7.973496148471667
20.393610584112363 -8.019876093714501
20.164717288565758 -8.065424927082985
19.93987421521995 -8.110167782646705
19.718960026909663 -8.154128805950913
19.5018581114702 -8.197331202345618
19.28845635270591 -8.23979728299251
19.07864691540203 -8.281548506171346
18.87232604122553 -8.322605519457305
18.669393857118514 -8.362988197186992
18.469754193937995 -8.40271567691248
18.2733144157855 -8.44180639240176
18.079985257762647 -8.480278106924308
17.889680672878168 -8.51814794394011
17.702317687847493 -8.555432414781018
17.517816266051987 -8.592147446050655
17.336099177395884 -8.628308406279988
17.157091875723296 -8.663930129664848
16.980722381551374 -8.699026940696154
5.343808269782372 -2.7768769274055636
5.294674383446554 -2.790525225480557
5.2501472318421 -2.806147008849949
5.2090524002612675 -2.8232074239305085
5.170641286693892 -2.841371411384697
5.134396467471631 -2.860410903023113
5.099937646118365 -2.8801601989666996
5.066970750757616 -2.900491863843295
5.035257820376128 -2.9213024197124127
5.0045977320860136 -2.94250306305629
4.974812856825792 -2.964013047294261
4.945738963035488 -2.9857544198991475
4.9172167529526805 -3.0076472900932063
4.889083903445211 -3.029605011355168
4.861166686705436 -3.0515287153383475
4.833270258161247 -3.07330058346088
4.805166598223451 -3.094775116138424
4.77657895838085 -3.115767501700031
4.747161714604872 -3.1360381392449144
4.716475455464004 -3.1552729084928828
4.683960822719212 -3.1730612578341573
4.648925828874132 -3.1888820979702346
4.610588961804999 -3.202127653003293
4.568267314765568 -3.212231369339017
4.521805594212551 -3.218977023696867
4.47211122343062 -3.2229069975831623
4.421204137226305 -3.225405522479671
4.3714145109419915 -3.22815656662194
4.324458385728626 -3.2324683649962602
4.281179442696352 -3.239051934344569
4.241794925211136 -3.2481707636185067
4.206204910383623 -3.2598522448315044
4.174192995977179 -3.2740305116861936
4.145527518744352 -3.2906212752727875
4.120005895591056 -3.3095565945374203
4.097472067626314 -3.3308003109457496
4.077822999816886 -3.354355528322432
4.061012067508038 -3.3802699424561986
4.047053355633523 -3.408642211914024
4.036029523156844 -3.4396317049748237
4.028105989052686 -3.473474264062373
4.023555663625814 -3.510508144757988
4.0228020725715155 -3.551217852355602
4.026497117354084 -3.596311783707116
4.035670654131602 -3.6468699271036273
4.052048521310369 -3.704655493520617
4.078838528470278 -3.7728805444269193
4.123191662279514 -3.858591707823563
4.2072791949983355 -3.983377798949159
4.315157292617736 -4.133314452034809
4.31187784676185 -4.178470953243495
4.2851543824992335 -4.201116168034458
4.252774277050227 -4.218098022876326
4.218537506800418 -4.233035279861225
4.183752737492623 -4.247191291115312
4.148980294675534 -4.2611213831035135
4.114489392946083 -4.275104806484293
4.080417297763139 -4.289295152074977
4.046835259658482 -4.303782755265412
4.013779261939296 -4.318623885875637
3.981265646595038 -4.333855659336551
3.9492995881595134 -4.349504189829866
3.917879930739948 -4.3655893039938665
3.887002067841956 -4.382127402506356
3.8566597210183033 -4.3991332800805525
3.8268460793450623 -4.416621343185532
3.7975545588581485 -4.434606473373311
3.7687793351101817 -4.453104684634522
3.7405157432823364 -4.472133668423284
3.7127606059982896 -4.491713288208813
3.6855125313217965 -4.511866070131605
3.658772212720596 -4.532617727768743
3.632542758333759 -4.553997757152089
3.6068300767486967 -4.576040141438147
3.5816433497822535 -4.5987842124858425
3.556995630346709 -4.622275730749901
3.5329046167574374 -4.6465682679070985
3.5093936757754784 -4.671725012143562
3.4864932214569513 -4.697821173801509
3.464242611950459 -4.724947260482368
3.442692821396686 -4.753213646750162
3.421910307292233 -4.782757131342792
3.4019827929655975 -4.813750663497593
3.3830282603160513 -4.84641835671154
3.365209629754111 -4.881059825575187
3.3487602423335225 -4.918092146506271
3.3340317886613895 -4.958128265396102
3.3215949192499328 -5.002140530009467
3.312487332198023 -5.051861343245552
6.927176776013431 -10.699641553849796
6.849216982654284 -10.715155235088321
6.771610113066949 -10.73059868593421
6.694348573748211 -10.745973417463665
6.61742488503222 -10.761280918099711
6.540831677932267 -10.776522654240686
6.4645616910640635 -10.791700070872475
6.38860776764747 -10.806814592165162
6.312962852584116 -10.821867622054578
6.237619989608116 -10.836860544809298
6.162572318507418 -10.851794725583563
6.087813072413243 -10.86667151095669
6.013335575155235 -10.881492229459383
5.939133238680077 -10.896258192087402
5.86519956053129 -10.910970692803097
5.791528121388081 -10.925631009025151
5.718112582661169 -10.940240402107007
5.6449466841435925 -10.95480011780434
5.5720242417145585 -10.96931138673199
5.499339145094409 -10.983775424810716
5.426885355648964 -10.998193433704115
5.354656904241444 -11.012566601246089
5.282647889130277 -11.026896101859158
5.210852473911109 -11.041183096964014
5.139264885501521 -11.055428735380534
5.067879412166782 -11.069634153720658
4.996690401585242 -11.083800476773366
4.9256922589518135 -11.097928817882073
4.8548794451182475 -11.112020279314713
4.7842464747687234 -11.126075952626783
4.713787914629482 -11.140096919017624
4.643498381711195 -11.154084249680182
4.573372541582821 -11.1680390061445
4.503405106675705 -11.181962240615194
4.433590834616764 -11.195854996303147
4.363924526589553 -11.209718307751654
4.2944010257221645 -11.223553201157209
4.225015215500748 -11.237360694685224
4.1557620182076915 -11.251141798780814
4.086636393383358 -11.264897516474912
4.017633336310354 -11.278628843685885
3.9487478765193718 -11.292336769516874
3.8799750763155676 -11.306022276549038
3.8113100293246194 -11.319686341130872
3.742747859057428 -11.333329933663844
3.674283717492619 -11.346954018884444
3.605912783675917 -11.360559556142942
3.5376302623355413 -11.374147499678879
3.469431382512725 -11.387718798893609
3.4013113962065664 -11.401274398619972
3.3332655770322934 -11.414815239389274
3.265289218892246 -11.428342257695778
3.1973776346586695 -11.441856386258811
3.129526154867536 -11.455358554282688
3.061730126422708 -11.468849687714577
2.9939849113095427 -11.482330709500504
2.9262858853172595 -11.495802539839566
2.858628436769293 -11.509266096436615
2.7910079652608863 -11.52272229475345
2.7234198804031893 -11.536172048258752
2.6558596005731268 -11.549616268676841
2.588322551668308 -11.56305586623546
2.5208041658662825 -11.576491749912662
2.4532998803873793 -11.589924827683015
2.3858051362604598 -11.603356006763201
2.3183153770908493 -11.61678619385719
2.250826047829752 -11.630216295401137
2.1833325935444385 -11.643647217808098
2.115830458188484 -11.657079867712744
2.0483150833714014 -11.670515152216213
1.9807819071268944 -11.683953979131207
1.9132263626790766 -11.697397257227525
1.8456438772059243 -11.710845896478116
1.7780298705992523 -11.724300808305845
1.710379754220504 -11.737762905831092
1.642688929651628 -11.751233104120313
1.5749527874403146 -11.764712320435736
1.5071667058388845 -11.778201474486321
1.439326049536056 -11.791701488680124
1.3714261683808777 -11.805213288378237
1.3034623960980614 -11.818737802150434
1.2354300489939558 -11.832275962032664
1.16732442465241 -11.845828703786584
1.0991408006196934 -11.859396967161244
1.0308744330777606 -11.872981696157106
0.9625205555050037 -11.886583839292554
0.8940743773236783 -11.900204349873032
0.8255310825332042 -11.913844186263042
0.7568858283284731 -11.927504312161064
0.6881337437023174 -11.941185696877678
0.6192699280312645 -11.954889315616988
0.5502894496436702 -11.96861614976156
0.481187344369361 -11.98236718716103
0.4119586140698047 -11.996143422424602
0.34259822514790017 -12.009945857217591
0.2731011070363991 -12.02377550056222
0.203462150663972 -12.037633369142865
0.13367620689790108 -12.05152048761596
0.06373808496236284 -12.065437888924743
-0.006357449168782291 -12.07938661461909
-0.07661567440574685 -12.093367715180625
-0.14704191620429527 -12.107382250353346
-0.21764154825605955 -12.121431289479997
-0.2884199942088743 -12.135515911844395
-0.35938272941838545 -12.149637207020007
-0.4305352827321231 -12.163796275224962
-0.5018832383074 -12.177994227683817
-0.5734322374642432 -12.19223218699627
-0.6451879805748878 -12.20651128751317
-0.7171562289910655 -12.220832675720036
-0.7893428070106424 -12.235197510628419
-0.8617536038850737 -12.249606964175355
-0.9343945758691984 -12.264062221631296
-1.0072717483149318 -12.278564482016717
-1.0803912178105997 -12.29311495852786
-1.1537591543674572 -12.307714878971824
-1.227381803655258 -12.322365486211442
-1.3012654892886324 -12.337068038620261
-1.375416615166098 -12.351823810547993
-1.4498416678637267 -12.366634092796849
-1.524547219085374 -12.381500193109117
-1.5995399281715577 -12.396423436666431
-1.6748265446691513 -12.41140516660112
-1.7504139109640597 -12.426446744520094
-1.8263089649791922 -12.44154955104175
-1.9025187429400994 -12.456714986346299
-1.97905038221069 -12.471944470740082
-2.0559111242016614 -12.487239445234323
-2.1331083173541803 -12.502601372138873
-2.210649420201629 -12.518031735671487
-2.2885420045122093 -12.53353204258318
-2.366793758515341 -12.549103822800292
-2.4454124902150127 -12.5647486300838
-2.5244061307930856 -12.580468042706576
-2.6037827381059837 -12.596263664149218
-2.6835505002781788 -12.612137123815142
-2.7637177393959638 -12.628090077765599
-2.8442929153052274 -12.644124209475464
-2.9252846295171318 -12.660241230610408
-3.0067016292256152 -12.676442881826384
-3.0885528114409326 -12.692730933592186
-3.1708472272434762 -12.709107187035926
-3.253594086162476 -12.725573474816409
-3.3368027606841992 -12.742131662020206
-3.4204827908944986 -12.758783647085533
-3.5046438892608527 -12.775531362753851
-3.589295945559122 -12.792376777050261
-3.6744490319505947 -12.809321894293811
-3.7601134082149557 -12.826368756138862
-3.8462995271452636 -12.843519442648649
-3.933018040111149 -12.860776073402324
-4.020279802796692 -12.878140808636791
-4.108095881119797 -12.895615850424626
-4.196477557340159 -12.913203443889536
-4.28543633636318 -12.930905878460825
-4.3749839522475735 -12.948725489168366
-4.465132374924708 -12.966664657979731
-4.555893817138078 -12.984725815181116
-4.647280741611736 -13.002911440803825
-4.739305868456847 -13.021224066098162
