# .PCD v0.7 - Point Cloud Data file format
VERSION 0.7
FIELDS x y
SIZE 4 4
TYPE F F
COUNT 1 1
WIDTH 661
HEIGHT 1
VIEWPOINT 0 0 0 1 0 0 0
POINTS 661
DATA ascii
-1.2718292668098805 3.494345863335613
-1.2498688221905432 3.4970845342180445
-1.2283059661282194 3.5007875133139286
-1.2071296139505954 3.505482836368291
-1.186331457794728 3.5112083960753364
-1.16590618553291 3.5180135614101933
-1.145851840828786 3.5259614128682584
-1.1261703746561103 3.5351318357443096
-1.106868468014756 3.5456258487948715
-1.087958757285528 3.5575717709881127
-1.0694616796896805 3.5711342238229653
-1.0514083221257986 3.5865276891943823
-1.0338449701140506 3.604037747124793
-1.0168407210829231 3.624056033249617
-1.0005010348457737 3.647141550632273
-0.9849939297610716 3.674137603447648
-0.9706068181759522 3.7064222121094206
-0.9578929866672407 3.7465452850117047
-0.9481780801918688 3.8004028544372077
-5.6630422582062 23.875741784107323
-5.417170430844938 23.444790209761624
-5.18064163145001 23.03021461664033
-4.952918160676867 22.631072553470265
-4.7335027678210375 22.24649246600948
-4.521934919175054 21.875667151699282
-4.31778746571919 21.517847927641917
-4.120663674862592 21.172339419904237
-3.930194567467967 20.83849490107295
-3.7460365324747635 20.515712108163395
-3.567869183936431 20.203429484581996
-3.3953934306154854 19.901122797104946
-3.2283297331173206 19.6083020850201
-3.066416533342408 19.324508903016053
-2.9094088315291993 19.049313826293623
-2.7570768935676577 18.782314189403937
-2.60920508074685 18.523132032724664
-2.4655907861491313 18.271412235127766
-2.326043460841934 18.02682081419483
-2.190383732409213 17.789043375111685
-2.0584425969799796 17.557783694578195
-1.9300606769454556 17.332762426194623
-1.8050875495919592 17.113715914004427
-1.6833811214453451 16.90039510586585
-1.564807062239372 16.692564554976162
-1.4492382820889984 16.49000150251423
-1.3365544465169936 16.292495033850255
-1.2266415358813316 16.099845300640887
-1.1193914346718252 15.911862803821572
-1.0147015544327254 15.728367731450838
-0.912474484481682 15.549189346808054
-0.8126176684406161 15.374165422301731
-0.7150431057601452 15.203141715157741
-0.6196670744981081 15.035971481437906
-0.5264098735029024 14.872515025142883
-0.4351955839897657 14.712639279409998
-0.3459518470749417 14.55621741725245
-0.2586096567547236 14.403128489392072
-0.17310316899280595 14.253257086984998
-0.0893695208580562 14.106493027368366
-0.007348663951994044 13.962731060900202
0.07301679148171375 13.821870597326583
0.15178172307364327 13.683815450155366
0.22899863219472136 13.548473597666417
0.30471777164743424 13.415756959315479
0.37898726510726755 13.285581186383302
0.4518532190341093 13.15786546582306
0.5233598276017766 13.032532336345222
0.5935494711486763 12.909507515858285
0.6624628086116157 12.78871973945551
0.7301388643675034 12.6701006072032
0.7966151098737838 12.55358444104558
0.8619275404674652 12.43910815019528
0.9261107476545495 12.326611104428261
0.989197987195798 12.216035014746414
1.051221243271389 12.107323820913159
1.112211288985445 12.000423585404073
1.1721977434518038 11.895282393350007
1.231209125684344 11.791850258080744
1.289272905498673 11.690079031907219
1.3464155516168506 11.589922321805965
1.4026625771528693 11.491335409694507
1.4580385826438433 11.394275177008492
1.5125672967800852 11.298700033312086
1.5662716149764278 11.204569848692133
1.6191736359171636 11.111845889704057
1.6712946961977957 11.020490758653585
1.7226554031782657 10.93046833601323
1.7732756661545823 10.841743725786351
1.8231747259484203 10.754283203643901
1.8723711830076921 10.668054167671302
1.9208830241047905 10.583025091573003
1.968727647713591 10.499165480193097
2.015921888140871 10.416445827218881
2.0624820384830245 10.334837574943592
2.1084238724742304 10.254313075971998
2.1537626652881614 10.174845556760262
2.198513213351257 10.096409082888222
2.2426898532220054 10.018978525968762
2.2863064795872634 9.942529532104787
2.3293765624234655 9.867038491809922
2.37191316336767 9.792482511314192
2.413928951340592 9.718839385180743
2.4554362174613003 9.646087570164172
2.496446889290784 9.574206160245057
2.536972544439462 9.5031748627795
2.577024423571542 9.432973975705663
2.6166134428373105 9.363584365753159
2.6557502057625006 9.294987447603914
2.694445014622326 9.227165163956391
2.732707881326053 9.160099966447643
2.770548537836622 9.093774797390328
2.8079764461483756 9.028173072284288
2.845000807844635 8.963278663064472
2.8816305732557534 8.899075882049203
2.91787445023699 8.835549466554756
2.9537409125846166 8.772684564144056
2.9892382081075266 8.710466718479116
3.0243743663708518 8.648881855748515
3.059157206126985 8.587916271642575
3.0935943424488084 8.527556618850703
3.127693193578917 8.467789895056335
3.1614609875081205 8.408603431406554
3.1949047682955887 8.349984881434382
3.2280314021425602 8.291922210413166
3.260847583230749 8.234403685123269
3.2933598393361327 8.17741786401253
3.3255745372281966 8.120953587732746
3.357497887864184 8.064999970035432
3.3891359513875052 8.009546389010904
3.420494641938869 7.954582478655538
3.451579732288399 7.900098120752856
3.482396858296489 7.846083437054747
3.5129515232108552 7.792528781749847
3.543249101806781 7.739424734206677
3.5732948443773322 7.686762091979855
3.603093880579839 7.634531864068128
3.6326512231448134 7.582725264413623
3.6619717714530036 7.5313337056321155
3.691060314986166 7.48034879296473
3.719921536656749 7.429762318441824
3.7485600160215373 7.379566255250283
3.776980232384006 7.329752752295874
3.8051865677899266 7.2803141289526865
3.8331833099205914 7.2312428699920615
3.860974654887776 7.182531620683691
3.888564709934412 7.134173182062063
3.915957496044702 7.086160506351522
3.9431569504673547 7.038486692543745
3.9701669291553 6.991144982121464
3.996991209125247 6.9441287549228035
4.023633490740167 6.897431525140638
4.05009739991776 6.851046937451709
4.076386490267745 6.804968763270491
4.102504245160739 6.759190897122963
4.128454079731356 6.7137073531357006
4.154239342818025 6.668512261635822
4.179863318841986 6.623599865857628
4.205329229627687 6.578964518751837
4.230640236166916 6.5346006798935905
4.255799440328656 6.490502912485441
4.280809886516774 6.446665880451858
4.305674563277476 6.403084345621763
4.330396404858381 6.3597531649958805
4.354978292720999 6.316667288095712
4.37942305700835 6.273821754391193
4.403733477969358 6.231211690804083
4.4279122873415915 6.188832309284368
4.45196216969389 6.14667890445697
4.475885763730298 6.104746851336271
4.499685663556767 6.063031603105924
4.523364419911895 6.02152868896166
4.546924541363042 5.980233712014798
4.570368495469058 5.939142347254278
4.593698709910806 5.898250339565139
4.616917573590639 5.85755350180141
4.640027437701918 5.817047712911519
4.663030616769655 5.776728916114295
4.685929389663286 5.7365931171238405
4.708726000582577 5.696636382421486
4.731422660017583 5.6568548375732215
4.754021545683601 5.617244665590955
4.7765248034319825 5.577802105336094
4.798934548137654 5.538523449963935
4.821252864564156 5.499405045407482
4.8434818082070095 5.460443288899214
4.865623406116158 5.421634627529582
4.887679657698184 5.382975556840892
4.90965253549909 5.3444626194553155
4.9315439859682275 5.306092403735889
4.953355930204115 5.267861542479296
4.975090264682735 5.229766711639351
4.996748861968938 5.191804629080071
5.018333571411551 5.153972053357334
5.039846219822768 5.116265782528076
5.0612886121423655 5.07868265298609
5.082662532087296 5.041219538323452
5.103969742787166 5.003873348216683
5.1252119874061215 4.966641027336747
5.146390989751594 4.929519554282063
5.167508454870433 4.892505940533643
5.188566069632831 4.855597229431612
5.209565503304508 4.818790495172316
5.230508408107599 4.782082841825228
5.251396419770635 4.745471402368967
5.272231158059625 4.70895333775511
5.293014227351606 4.672525835930833
5.313747217074018 4.636186111017705
5.3344317022548 4.599931402374027
5.355069244078989 4.5637589736516295
5.375661390301848 4.527666112023256
5.396209675743339 4.491650127323417
5.416715622829282 4.455708351135938
5.437180741956246 4.419838136096822
5.457606532093398 4.38403685491483
5.477994481075566 4.348301899772164
5.498346066179154 4.3126306813821556
5.5186627544776305 4.277020628322773
5.538946003324065 4.241469186214843
5.559197260847336 4.20597381688037
5.579417966203825 4.170531997823819
5.599609550130978 4.135141221323322
5.619773435246968 4.099798993858796
5.639911036707189 4.06450283505802
5.660023762300784 4.029250277405778
5.680113013097673 3.994038865202964
5.700180183447191 3.9588661544348778
5.720226662128815 3.923729711003513
5.740253831820822 3.8886271113618522
5.760263070200803 3.853555940810334
5.780255749959635 3.818513793359695
5.800233239378784 3.783498270772153
5.8201969024290685 3.748506982323381
5.840148099530157 3.713537543558671
5.860088187631321 3.6785875760847015
5.880018520619751 3.643654706868152
5.8999404498848556 3.6087365672752307
5.919855324357443 3.5738307929562447
5.939764491227893 3.538935022632995
5.959669296083322 3.5040468978282666
5.97957108326476 3.469164062246259
5.999471196429766 3.4342841607954937
6.0193709786314 3.399404839440134
6.039271772971489 3.3645237440609015
6.059174922774941 3.3296385201454335
6.079081771994554 3.2947468120809544
6.098993665550121 3.259846262563746
6.118911949782726 3.2249345117940402
6.138837972732639 3.1900091969960878
6.158773084536696 3.1550679517190354
6.178718637791135 3.1201084052013157
6.198675987919681 3.085128181725489
6.218646493543249 3.050124899970238
6.238631516851505 3.0150961723591236
6.258632423976484 2.9800396044057322
6.278650585368473 2.944952794054822
6.2986873761744215 2.909833331019098
6.318744176619049 2.8746787961111955
6.338822372388931 2.839486760570503
6.358923355019735 2.804254785384401
6.379048522286901 2.76898042060353
6.3991992785999505 2.7336612046506468
6.419377035400686 2.698294663622684
6.439583211565534 2.6628783105855467
6.459819233812255 2.6274096448612494
6.4800865371112994 2.5918861513069187
6.500386565102035 2.556305299585235
6.520720770514147 2.5206645434258457
6.541090615594439 2.484961319877272
6.56149757253934 2.449193048548846
6.5819431239333674 2.4133571308421837
6.602428763193861 2.3774509491716884
6.622955995022249 2.3414718661735865
6.643526335862172 2.305417223902955
6.664141314364753 2.269284343018221
6.684802471861332 2.2330705219525755
6.705511362843985 2.1967730360717437
6.726269555454159 2.160389136817523
6.747078631979771 2.123916050836516
6.767940189361088 2.087350979093426
6.7888558397057785 2.0506910959683067
6.809827210813494 2.0139335483371146
6.8308559467103365 1.9770754546349065
6.851943708193632 1.940113903900997
6.873092173387392 1.9030459548053715
6.894303038308871 1.865868634655658
6.9155780174466575 1.8285789383838629
6.936918844350733 1.7911738275121654
6.958327272234942 1.7536502290969314
6.979805074592345 1.7160050346501508
7.001354045823932 1.678235099037458
7.022976001881203 1.6403372393518652
7.044672780923106 1.602308233762298
7.066446243987883 1.5641448203360253
7.08829827568036 1.525843695834012
7.11023078487525 1.4874015144782047
7.132245705437051 1.4488148866897343
7.154344996957145 1.410080377796958
7.176530645508734 1.371194506712264
7.198804664420229 1.3321537445764897
7.221169095067816 1.2929545133697757
7.243626007687835 1.2535931844876482
7.26617750220975 1.2140660772810594
7.288825709110394 1.1743694575590806
7.311572790290325 1.1344995360528842
7.334420939973055 1.0944524668396256
7.357372385627995 1.0542243457247502
7.380429388917978 1.0138112085812119
7.403594246672271 0.9732090296440463
7.426869291885972 0.9324137197586558
7.450256894746808 0.8914211245811148
7.473759463690283 0.8502270227287385
7.49737944648427 0.8088271238790877
7.521119331344075 0.7672170668155175
7.544981648079167 0.725392417417273
7.568968969272666 0.683348666592113
7.593083911494887 0.6410812281493004
7.617329136552141 0.5985854366107536
7.641707352772147 0.5558565449580402
7.666221316327423 0.5128897223128184
7.6908738325980615 0.4696800515482104
7.715667757575418 0.4262225268285185
7.7406059993082135 0.3825120510745446
7.765691519392699 0.33854343335171744
7.790927334508554 0.29431138617804614
7.816316518002269 0.24981052274885515
7.8418622015198345 0.20503535407508097
7.867567576690653 0.15998028603179998
7.893435896864654 0.11463961631349931
7.919470478904703 0.06900753129245117
7.9456747050364225 0.023078102776409447
7.972052024757756 -0.023154715338350777
7.998605956810576 -0.06969709052276672
8.025340091216812 -0.11655531518383348
8.052258091381708 -0.1637358103510548
8.079363696266846 -0.21124512948523597
8.106660722635803 -0.25908996241452886
8.13415306737533 -0.3072771394029002
8.161844709895169 -0.3558136353563987
8.189739714609713 -0.40470657417287453
8.217842233504852 -0.4539632332410372
8.246156508793588 -0.5035910480950424
8.274686875664015 -0.553597617231063
8.303437765123638 -0.603990707092623
8.332413706943983 -0.654778257231784
8.361619332709806 -0.7059683856536232
8.391059378977294 -0.7575693943517898
8.420738690545967 -0.8095897750433092
8.45066222384913 -0.862038215111206
8.480835050468038 -0.9149236037639333
8.511262360775099 -0.9682550384210319
8.541949467711854 -1.0220418313349364
8.572901810707572 -1.0762935164593033
8.604124959744729 -1.1310198565748009
8.635624619577952 -1.186230850683814
8.667406634113227 -1.241936741686136
8.699476990954686 -1.2981480243483146
8.731841826126512 -1.3548754535799887
8.76450742897801 -1.412130053031229
8.797480247280237 -1.4699231240256618
8.830766892523068 -1.5282662548448844
8.864374145422016 -1.5871713303805572
8.898308961644668 -1.6466505421713882
8.93257847776707 -1.706716398843183
8.967190017470985 -1.767381736971097
9.002151097993563 -1.828659732384276
9.037469436841558 -1.8905639119341862
9.07315295878291 -1.9531081657491056
9.109209803129213 -2.01630675999849
9.145648331323427 -2.0801743501922783
9.182477134847844 -2.1447259950416
9.219705043468323 -2.2099771709088523
9.257341133831666 -2.275943786876724
9.295394738433947 -2.3426422004674463
9.333875454978724 -2.4100892340453632
9.372793156145066 -2.478302191937853
9.412157999786618 -2.5472988783117083
9.45198043958632 -2.6170976158361317
9.484128940588935 -2.6854117908266204
9.414813883510307 -2.7249582752846777
9.346276246281029 -2.7640612165329723
9.278498474217225 -2.8027306300497146
9.211463501149906 -2.84097625271645
9.145154732142712 -2.8788075525036247
9.079556026914478 -2.916233737835774
9.014651683764086 -2.953263767154023
8.950426424455625 -2.9899063571438207
8.88686537948709 -3.0261699913737528
8.823954074113654 -3.0620629281070006
8.761678414780373 -3.097593208260261
8.70002467631866 -3.1327686624073667
8.638979489501274 -3.1675969179586545
8.57852982884401 -3.202085406707603
8.518663001599768 -3.2362413701291266
8.459366636509502 -3.270071866337261
8.400628673114682 -3.303583776389804
8.342437351840228 -3.33678380942707
8.284781204075285 -3.369678508617773
8.227649042766217 -3.4022742565186204
8.171029953364222 -3.4345772802345387
8.114913285026132 -3.466593656588691
8.059288642511774 -3.498329316232364
8.004145877807396 -3.529790048967138
7.949475082472203 -3.5609815078810514
7.895266580067108 -3.5919092137949105
7.841510919135682 -3.6225785589320125
7.788198866034715 -3.6529948113563866
7.73532139816384 -3.683163118913541
7.682869697715269 -3.7130885124435085
7.630835145410096 -3.7427759093996626
7.579209314299211 -3.772230117649038
7.527983964101426 -3.801455838474525
7.477151035272252 -3.8304576704083066
7.426702644308396 -3.8592401108959984
7.376631077625303 -3.8878075610341303
7.3269287872839035 -3.9161643269343784
7.277588385467405 -3.9443146237368434
7.2286026400794094 -3.972262577687788
7.179964470454836 -4.000012228257296
7.131666942168262 -4.027567532076225
7.08370326377238 -4.054932363558621
7.036066781679948 -4.082110519028867
6.988750976836482 -4.1091057178150745
6.941749460834811 -4.135921604514499
6.895055971667075 -4.1625617519897515
6.84866437064552 -4.189029662514069
6.802568638681083 -4.215328770143015
6.756762872867556 -4.241462442683928
6.711241283199238 -4.2674339835591395
6.665998189486979 -4.293246633462251
6.621028018148308 -4.318903572314193
6.576325299274143 -4.344407920875207
6.531884663714973 -4.3697627424189385
6.4877008402660445 -4.3949710443383765
6.443768652936896 -4.420035779703678
6.400083018302141 -4.444959848773619
6.356638942930504 -4.46974610046243
6.313431520889264 -4.494397333763576
6.270455931321325 -4.518916299132127
6.227707436092287 -4.543305699827179
6.185181377504998 -4.567568193215766
6.142873176079115 -4.591706392039706
6.100778328393363 -4.615722865646654
6.058892404988241 -4.639620141186678
6.017211048326968 -4.663400704775604
5.9757299708126785 -4.687067002626278
5.934444952859757 -4.710621442148915
5.893351841017482 -4.734066393021642
5.852446546144075 -4.757404188232245
5.811725041629382 -4.780637125092197
5.7711833616644785 -4.803767466223897
5.730817599556547 -4.826797440522096
5.690623906087419 -4.849729244090395
5.650598487914267 -4.872565041153699
5.610737606010949 -4.895306964947491
5.571037574148602 -4.917957118584698
5.531494757414083 -4.94051757590096
5.492105570764956 -4.962990382279069
5.452866477619731 -4.985377555453277
5.413773988482117 -5.007681086294207
5.374824659598124 -5.029902939575015
5.336015091644812 -5.052045054719507
5.29734192844963 -5.0741093465327936
5.258801855739229 -5.096097705915135
5.2203915999167245 -5.118012000559549
5.182107926866425 -5.139854075633756
5.143947640785001 -5.161625754447035
5.105907583038212 -5.183328839102495
5.067984631042238 -5.20496511113531
5.030175697168769 -5.226536332137407
4.9924777276729655 -5.2480442443690976
4.954887701643489 -5.269490571358111
4.91740262997378 -5.290877018486529
4.880019554353818 -5.312205273566004
4.842735546281619 -5.333477007401741
4.805547706093704 -5.354693874345644
4.76845316201386 -5.375857512839028
4.7314490692195 -5.396969545945294
4.694532608924918 -5.418031581872956
4.657700987480832 -5.4390452144893855
4.620951435489559 -5.460012023825635
4.584281206935178 -5.480933576572697
4.54768757832814 -5.501811426569548
4.511167847863676 -5.522647115283288
4.474719334593472 -5.54344217228174
4.4383393776100455 -5.564198115698779
4.402025335243259 -5.584916452692756
4.365774584268474 -5.6055986798982635
4.329584519125796 -5.6262462838715885
4.293452551149927 -5.646860741530102
4.257376107810106 -5.667443520585903
4.221352631959676 -5.687996079973953
4.185379581094787 -5.708519870275027
4.14945442662176 -5.729016334133691
4.1135746531326856 -5.7494869066716054
4.077737757688788 -5.769933015896384
4.04194124911109 -5.790356083106297
4.0061826472779964 -5.810757523291018
3.9704594824293364 -5.831138745528697
3.934769294476434 -5.851501153379574
3.89910963231784 -5.871846145276396
3.8634780531602555 -5.892175114911833
3.8278721218442926 -5.912489451623165
3.7922894101746545 -5.932790540774434
3.7567274962543267 -5.9530797641363025
3.7211839638224378 -5.9733585002638385
3.6856564015953315 -5.993628124872441
3.6501424026105234 -6.013890011212145
3.6146395635731636 -6.034145530440478
3.5791454842045693 -6.054396051994146
3.543657766592525 -6.074642943959715
3.508174014542915 -6.094887573443512
3.472691832932365 -6.115131306940977
3.4372088270614864 -6.135375510705647
3.4017226020083564 -6.155621551118027
3.3662307619818885 -6.175870795054506
3.330730909674691 -6.196124610256572
3.2952206456150623 -6.2163843657005255
3.259697567517733 -6.236651431967898
3.224159269633005 -6.256927181616787
3.1886033420938977 -6.277212989554335
3.1530273702609097 -6.297510233410564
3.1174289340640473 -6.317820293913762
3.0818056073417224 -6.338144555267675
3.046154957176133 -6.358484405530685
3.0104745432247215 -6.378841236997238
2.9747619170473674 -6.3992164465817005
2.9390146214288606 -6.419611436204913
2.9032301896962935 -6.440027613183639
2.867406145030929 -6.460466390623166
2.831539999774184 -6.480929187813263
2.7956292547272548 -6.501417430627771
2.7596713984439933 -6.5219325519280344
2.723663906516593 -6.5424759919704485
2.68760424085365 -6.563049198818341
2.6514898489501393 -6.583653628758474
2.6153181631488813 -6.604290746722408
2.5790865998929817 -6.624962026713006
2.5427925589688507 -6.645668952236314
2.506433422739227 -6.666413016739148
2.470006555365796 -6.687195724052612
2.4335093020208505 -6.708018588841873
2.3969389880874883 -6.7288831370624775
2.360292918347834 -6.7497909064234936
2.3235683761587125 -6.770743446857814
2.2867626226142757 -6.79174232099991
2.249872895694954 -6.812789104671378
2.212896409402198 -6.833885387374599
2.1758303528783807 -6.855032772794862
2.138671889511283 -6.876232879311287
2.1014181560224894 -6.897487340516922
2.0640662615390926 -6.918797805748362
2.0266132866479936 -6.9401659406253104
1.9890562824321631 -6.961593427600417
1.9513922694881267 -6.983081966519833
1.9136182369239323 -7.00463327519491
1.875731141336921 -7.026249089985407
1.8377279057704472 -7.047931166394719
1.7996054186488095 -7.069681279677535
1.7613605326895523 -7.091501225460404
1.722990063792296 -7.113392820375691
1.6844907899032224 -7.135357902709427
1.6458594498543178 -7.157398333063558
1.6070927421764294 -7.1795159950331335
1.568187323885201 -7.201712795898974
1.5291398092388582 -7.223990667336391
1.4899467684668402 -7.246351566140541
1.4506047264682065 -7.268797474969033
1.4111101614787154 -7.291330403102398
1.3714595037054402 -7.313952387223089
1.3316491339277334 -7.336665492213673
1.2916753820633393 -7.359471811974911
1.2515345256983592 -7.382373470264463
1.2112227885797815 -7.405372621556944
1.170736339069209 -7.428471451926126
1.1300712885563706 -7.4516721799500765
1.0892236898309633 -7.474977057640084
1.0481895354113007 -7.498388371394209
1.006964755828193 -7.521908442976391
0.965545217862441 -7.545539630522015
0.9239267227342233 -7.569284329570921
0.8821050042426326 -7.593144974128865
0.8400757268535266 -7.6171240377584555
0.7978344837337887 -7.6412240347006755
0.7553767947300357 -7.665447521028096
0.7126981042896839 -7.689797095830969
0.6697937793222852 -7.714275402437415
0.6266591069988785 -7.738885129668952
0.5832892924870443 -7.763629013132729
0.5396794566192722 -7.788509836551794
0.4958246334921256 -7.813530433134853
0.45171976799359953 -7.838693686986983
0.4073597132559567 -7.864002534562882
0.3627392280312022 -7.889459966164238
0.31785297398627455 -7.915069027482914
0.2726955129148476 -7.940832821191705
0.22726130386256463 -7.966754508584485
0.18154470016235444 -7.9928373112676505
0.13553994637634906 -8.019084512904863
0.08924117514076714 -8.045499461017144
0.04264240390997275 -8.072085568840487
-0.004262468404259896 -8.098846317243273
-0.051479664902382566 -8.12578525670581
-0.09901553427996226 -8.152906009364488
-0.14687655452830806 -8.180212271123098
-0.195069336757547 -8.207707813834034
-0.2436006291470991 -8.235396487552153
-0.2924773210286602 -8.263282222864264
-0.34170644710712705 -8.291369033297284
-0.39129519182501743 -8.3196610178083
-0.44125089387639194 -8.348162363359897
-0.4915810508763254 -8.376877347584239
-0.5422933241924589 -8.405810341539636
-0.5933955439453772 -8.434965812563417
-0.644895714184879 -8.464348327225157
-0.696802018249545 -8.493962554384487
-0.7491228243174427 -8.52381326835795
-0.8018666911560298 -8.553905352199509
-0.8550423740798723 -8.584243801099614
-0.9086588311251245 -8.614833725907948
-0.9627252294501372 -8.64568035678517
-1.0172509519721473 -8.676789046989386
-1.0722456042503425 -8.708165276803125
-1.1277190216262114 -8.739814657607175
-1.183681276632632 -8.771742936107678
-1.240142686683695 -8.803955998723447
-1.2971138220579028 -8.836459876140626
-1.3546055141880378 -8.869260748042333
-1.4126288642716314 -8.902364948021205
-1.4711952522168144 -8.935778968683309
-1.5303163459389355 -8.969509466952145
-1.590004111024312 -9.00356326958215
-1.650270820778227 -9.037947378891383
-1.7111290666752639 -9.072668978723803
-1.772591769231096 -9.107735440651958
-1.8346721893157056 -9.143154330431546
-1.897383939929331 -9.178933414719987
-1.9607409984634803 -9.215080668071716
-2.024757719470587 -9.251604280223683
-2.0894488479672173 -9.288512663685275
-2.1548295332972285 -9.325814461647685
-2.2209153435826123 -9.363518556228598
-2.287722280791489 -9.401634077068957
-2.3552667964542873 -9.440170410299558
-2.4235658080610727 -9.479137207896269
-2.4926367161748133 -9.518544397443673
-2.562497422297409 -9.558402192328247
-2.633166347527591 -9.598721102383276
-2.7046624520520273 -9.639511945009177
-2.7770052555135325 -9.680785856794204
-2.850214858302824 -9.722554305662097
-2.9243119638232713 -9.764829103574844
-2.999317901780998 -9.807622419820431
-3.0752546525559477 -9.850946794917322
-3.152144872713059 -9.894815155169418
-3.2300119217163688 -9.939240827907316
-3.3088798899128897 -9.984237557454016
-3.3887736278573324 -10.029819521855625
-3.469718777053363 -10.076001350420242
-3.551741802191993 -10.12279814211099
-3.6348700249729973 -10.17022548484225
-3.7191316596008877 -10.218299475731259
