# .PCD v0.7 - Point Cloud Data file format
VERSION 0.7
FIELDS x y
SIZE 4 4
TYPE F F
COUNT 1 1
WIDTH 162
HEIGHT 1
VIEWPOINT 0 0 0 1 0 0 0
POINTS 162
DATA ascii
0.33817612304723543 -9.684097113815037
0.694076913754046 -9.92576230008525
0.8689427551941539 -9.932061139974703
0.8684401499908085 -6.179272748947399
0.9792797511518455 -6.1829290121255625
1.0922470375249924 -6.194440766446789
1.2059128507797638 -6.203883799389237
1.320239236692771 -6.211237264659665
1.432938216170421 -6.206737312681948
1.5531385697498665 -6.2292985626918975
1.6693828409112588 -6.230221579564491
1.7888864392523247 -6.23858840663969
1.9062635147922435 -6.235107008878991
2.030241653043405 -6.248441312059159
2.155261182506378 -6.259332970467477
1.470711550857634 -3.153951098887542
1.4930450522668939 -2.2135303187219613
2.5122647912175817 -3.587885953985784
2.2864846314177205 -3.147076108118546
1.7272091164463785 -2.2920839138357305
2.1486585488865475 -2.7501575300874594
2.385124282078884 -2.9453831939219195
2.4233092885182534 -2.887987550558547
2.460221358714403 -2.830160925835395
2.489165855654953 -2.764498750775907
1.9914352113824956 -2.1355528087279776
2.67443472626714 -2.7694582313038065
2.8637824638055176 -2.863782463805517
3.064387549442654 -2.959244658155328
3.276464583253884 -3.0553526530799933
3.3144259216291783 -2.9843225043605077
3.3584576319913357 -2.9194626790077574
3.3935768830170723 -2.847549110911369
3.3961278515669626 -2.75013010888779
2.9708005410973417 -2.321043761977732
3.4021872728014673 -2.5637319986277256
3.519223925531021 -2.556865847472258
3.5223537904426645 -2.466378676309498
3.5234096833589272 -2.376569839750674
3.597896736485869 -2.336501460214466
3.0529731461631333 -1.9077093512395378
3.0858022825276046 -1.854137069676195
3.1263517076618235 -1.8049999999999997
3.1311385515590366 -1.7356184404818866
3.1697818583635478 -1.685402910401348
3.1452530303849384 -1.6025864640806
1.770624271209359 -0.8635911591744825
1.7763632625918337 -0.8283317930117708
3.4532018298890312 -1.5374645108265246
3.884530481569298 -1.648885362224735
3.9405313819088468 -1.592078022017626
3.9677168126131073 -1.5230637855675262
4.0030905645479695 -1.4570058105673487
4.0279091320530895 -1.3869203379874875
1.7689651203089856 -0.5747716095374021
1.7882898936508766 -0.5467350878315177
4.094974824697238 -1.1742151357804165
4.124503278254322 -1.1051573225877636
4.152865708461265 -1.035425713166578
3.4492700293397327 -0.796326732377282
3.090946418318826 -0.6570009429841195
4.230813160659431 -0.8223867700729081
4.254369493012739 -0.750160127521139
2.419836434458088 -0.38326443934856563
2.445962129791679 -0.34375755937136165
1.5682229195932889 -0.192553562580133
1.5713445946818718 -0.16515497196289247
1.573987622984958 -0.1377060735412999
1.5761511994105224 -0.11021522851571798
1.5778346649122268 -0.08269081086385126
1.5790375066901714 -0.055141204789951534
1.5797593583470984 -0.02757480217090795
1.58 0.0
1.5797593583470984 0.02757480217090795
1.5590496901497894 0.05444321485590151
1.5578620742171352 0.08164409173899237
1.7158101664468977 0.11998113483989552
1.753302668641472 0.15339410723587837
4.624526813462471 0.4860573541945886
4.655041451197801 0.5715672205701418
4.6839679651476285 0.6582887675411095
4.652012084203099 0.7368063303394874
4.431634888554936 0.7814167995011865
4.230813160659431 0.8223867700729081
4.049531067037956 0.8607543999855235
3.9267113610844984 0.9065527490057759
3.910291776892266 0.974945239266661
3.940977371259399 1.0559817040182846
3.960398187265874 1.1356259059660365
3.978227784806228 1.2162662916465847
4.003947933602596 1.3009615463185285
4.018453946297097 1.383664656442916
4.0218844169636885 1.4638462134338621
4.042403246732883 1.5517332215311501
4.061065283002529 1.6407768791616946
4.087041549328836 1.7348462104923754
4.101819104815278 1.8262475274103427
4.132763508887123 1.9271392735375892
4.152428493902152 2.025274698165538
4.1520904027177945 2.115595728786288
4.185171590151314 2.2252952076051224
1.827955187921337 1.0132521063148443
1.7147302994931886 0.9899999999999999
1.671476236369119 1.0043242460746056
1.6282523446203379 1.0174449873277533
1.6186341961346684 1.051153337579002
1.6414943936589825 1.1072019488720786
1.6383040885779836 1.147152872702092
1.5047716095374024 1.0932805692640002
1.4774756935874918 1.1133577928312894
1.465700001708503 1.1451303441057246
1.4765773267682445 1.195708742994691
1.4784657752196275 1.2405800866950207
1.479230777236633 1.2858756968213942
1.4862896509547885 1.3382612127177165
1.4846480142869158 1.3844566709268717
1.4962267847043946 1.4448894105547143
1.499066376115481 1.4990663761154808
1.5004620801914343 1.5537739687314864
1.4935764085368717 1.6016646065459832
1.505543864307431 1.672075857324137
1.502375176388262 1.7282849387101478
1.5105508827633676 1.8002044413295983
1.5166621424301086 1.8729217671112997
1.5206838440543762 1.9463865614086033
1.558700909963805 2.0684659710224884
1.704577231648172 2.3461492836873474
1.7092577803261173 2.4410730919811954
1.7111302846204852 2.536854972018428
1.7156129602973356 2.6418122890280853
1.7222376087579159 2.7561563125083848
1.7253775509486822 2.871510457352076
1.7250000000000005 2.9877876430563135
1.7307703442794233 3.122392354487643
1.7370447823077964 3.2669060935780294
1.7387836140024646 3.4125549876414487
1.7447171642205284 3.5772003042706846
1.7580919688413097 3.770240394072464
1.7733717638104898 3.98305819532174
1.785641257195981 4.206707180277653
1.809349846198856 4.478298017557583
1.8276765426810306 4.761260175135728
1.8503289753918684 5.083737078451764
1.8720168881286514 5.436731809696071
0.664386537906137 2.04477151003458
0.628599165153884 2.056055225320526
0.5926203150065482 2.0667126462673857
0.5538727565193944 2.0670812682586064
0.18627985961174412 0.7471277092325173
0.13047161151944178 0.5651346375754364
0.12058878067430034 0.5673256084256073
0.10876112736463059 0.5595274945651684
0.09897946127015032 0.5613404192169585
0.08916764507293162 0.5629823541392285
0.0793286675472373 0.5644527991826951
0.06946552574093406 0.5657513064355535
0.059581224062562464 0.5668774803599157
0.04967877336616526 0.5678309779122949
0.03976119003415138 0.5686115086480997
0.02983149505847806 0.569218834810107
0.019892713120425613 0.5696527714008845
0.00994787166925165 0.569913186239143
