# .PCD v0.7 - Point Cloud Data file format
VERSION 0.7
FIELDS x y
SIZE 4 4
TYPE F F
COUNT 1 1
WIDTH 171
HEIGHT 1
VIEWPOINT 0 0 0 1 0 0 0
POINTS 171
DATA ascii
2.608497682183862e-16 -4.26
0.07382367922970963 -4.229355750511536
0.14692688111752955 -4.207435381750393
0.21876429709550577 -4.174271455274118
0.2734453770769709 -3.910451077018511
0.3399073967158676 -3.8851593225578074
0.406615722111172 -3.8686901729825833
0.4716343589779208 -3.841153606851916
0.5344247076866514 -3.80262938396763
0.597579656453682 -3.7729694610734263
0.6615995569110049 -3.7521175389765125
0.7651440714599451 -3.9363250056251324
0.8316467632710369 -3.9125904029352228
0.8953051962885833 -3.877992857845236
0.9604299255306807 -3.852074033315706
1.0249234186059821 -3.8250662721047104
1.0915239290353167 -3.8065963159157428
1.1548682336548104 -3.77740378605399
1.217526957837293 -3.747162674202905
1.2827385285611976 -3.725343187861308
1.3475593647031352 -3.7023889258964786
1.4119697212084825 -3.6783068803989747
1.472203912124535 -3.6438325484474743
1.5355733349628458 -3.6175840740680907
1.6025423737186535 -3.5993691031118473
1.6651159512583558 -3.570852680924401
1.7271823183489652 -3.541248542418718
1.7887225689738147 -3.510565705302169
1.854412673004269 -3.4876429917927614
1.9149979999730318 -3.454747843200613
1.9800000000000004 -3.4294605989863767
2.044701157392916 -3.4029541837873856
2.1090786716481555 -3.375231422702576
2.1731097497099587 -3.3462955661022415
1.3700226135033298 -2.0311420527598525
1.405262269060063 -2.0069225085080302
1.4518295731624087 -1.9982719761061203
1.4864831071855593 -1.9726297098168135
1.5329970735608893 -1.9621467764807377
1.5733009776245939 -1.942864903642427
1.6198247764100793 -1.9304319966598247
1.6663899336358887 -1.9169623337658406
1.7062830462150884 -1.8950193049673552
1.745915801759996 -1.8722654761450763
1.785272012079623 -1.8487032868703333
1.8243354954612927 -1.8243354954612925
1.8774768788838796 -1.8130583468979828
1.9234602352584182 -1.793655686964371
1.9693337875150947 -1.7731961068509743
2.0150745791948013 -1.7516776074046543
2.060659551990051 -1.7290986700567905
0.7849174210715405 -0.6356135949603359
0.7880107536067219 -0.6156614753256583
0.7027992488416177 -0.5295972203738025
0.8332875042061959 -0.6054188098612473
0.7536198807458725 -0.5276903214429624
0.8704894511827939 -0.5871525486442841
0.9057642133810581 -0.5882101578162292
0.9328529057720686 -0.5829111906565254
0.9514557037793447 -0.5716922631501602
0.9786087062764156 -0.5649999999999998
1.005812663210305 -0.5575310632832876
1.0242192077163552 -0.5445870128316332
1.0602977637841577 -0.5402486946900606
1.0695649150960087 -0.5216616646790021
1.1056955001847129 -0.5155942793236533
1.132796367476825 -0.5043534374139922
1.1506310668155504 -0.4884139106115921
1.1775234952998201 -0.47575037363820827
0.9709236435570898 -0.3727026675271123
0.4980370890165315 -0.18127067596260443
0.4822144735556516 -0.16603975877314991
1.34838970590788 -0.4122441036590587
1.3649916082324127 -0.3914050452601388
1.1301332167582099 -0.30281828276994927
1.5005298997692622 -0.34642462368955207
1.555254685166751 -0.3305795884002373
1.5902360371852158 -0.3091105725100026
1.624932792470143 -0.286519493150435
1.6790701790117342 -0.2659385905683925
1.7428718009851638 -0.24494465768971518
1.8498107253849885 -0.19442294167783544
1.7897273743299404 0.031239807522737487
1.7789156720939905 0.06212110413045173
1.3880950533088576 0.07274697917769192
0.8778563642286453 0.06138569689483027
1.753302668641472 0.15339410723587837
1.7404133168944782 0.18292481071839356
1.7369557653723136 0.2132713509590081
1.7329691202977482 0.24355292668011452
1.7087008292295884 0.2706316245195994
1.6938693351809977 0.29867486558712014
1.688398755529982 0.3281914720476571
1.6726323972548076 0.3555289912983684
1.6564291101348998 0.38241679238457044
1.649502734669194 0.41126722251943515
1.6227553881656347 0.43481599577223484
1.6149196491763758 0.46307075777255857
1.5874658948986389 0.4853370298397429
1.8355390764496462 0.5964027991436485
2.1746927238784286 0.7488067552514603
2.1612930278075893 0.786646329649038
2.147234980943564 0.8242462839541905
1.2887855578478344 0.5207031648481176
1.2150664065572214 0.5157650896058413
1.1602027312061032 0.5165555367062662
1.0966324223143464 0.5113680967062463
1.0515890341700254 0.5128942417432205
1.0068373723328556 0.5130092647056878
0.9712423521448198 0.5164187190644799
0.9270968895677595 0.5138981974611173
0.9006664199358163 0.5199999999999999
0.8657389737091334 0.5201884556591547
0.8310871342332974 0.5193208789485408
0.7967370395481528 0.5174070832642756
0.7958760696528401 0.5368251873319169
0.794577482960322 0.5563691432605147
0.7928366544874484 0.5760295472466237
0.7906491549468199 0.5957968729205277
0.7958908611427892 0.6218180900789149
0.8004603403006799 0.6482000027813326
0.8043466652749269 0.6749269901708662
0.7999921550361384 0.6954225707299377
0.8025964115155858 0.7226610548675669
0.8044890717810875 0.7501981960687484
0.8056605763792895 0.778017374914077
0.8061017305526642 0.806101730552664
0.8058037097324369 0.8344341683928352
0.7979380812731232 0.8556838308944293
0.8029567276306299 0.8917737905728731
0.800392015368419 0.9207456878717817
0.8034845121081742 0.9575555538987225
0.805530100543792 0.9947468306649226
0.8372996064428954 1.0716946249051418
0.8365228821813471 1.110103358965737
0.8875557309616344 1.2216156615061706
0.7915354821644435 1.1304298211188086
0.7716862067896305 1.1440718501259575
0.7679410393711883 1.1825255008030477
0.8531700154154599 1.365357434811846
0.8240609198560871 1.3714676811233797
0.7900000000000003 1.368320137979413
0.7611511037867493 1.3731529402088514
0.7276809223181309 1.3685687689313366
0.6991453695989022 1.3721500472500865
0.6663241431193977 1.366166950374734
0.6381535752284562 1.3685247584253415
0.6101049646137006 1.3703181864639014
0.5821893814490179 1.3715522316441362
0.5431795604530727 1.3444165891218416
0.5232172063361382 1.3630274226859145
0.4890888049557064 1.3437604477238487
0.2539431604765823 0.7375044889674671
0.24721359549995797 0.7608452130361228
0.4151678207062862 1.3579527534675102
0.3886486717019688 1.3553789912730296
0.36752304404557945 1.371614673330477
0.3411098727955314 1.368116974049155
0.24744615977825168 1.0718070712637588
0.2183072753586472 1.027054980770496
0.26522450357339744 1.364461784992253
0.24137096695703325 1.3688827766869691
0.21744390640592096 1.3728867934272415
0.19205887932489032 1.366569934863367
0.11333848936678717 0.9230679210264295
0.09721147083891772 0.9249053626924942
0.08105484075532228 0.9264610692253235
0.06487352058203646 0.9277345667416366
0.048149079743508454 0.918739171974208
0.032456531933326004 0.9294334691277591
0.016056213922300912 0.91985987954388
