# .PCD v0.7 - Point Cloud Data file format
VERSION 0.7
FIELDS x y
SIZE 4 4
TYPE F F
COUNT 1 1
WIDTH 176
HEIGHT 1
VIEWPOINT 0 0 0 1 0 0 0
POINTS 176
DATA ascii
1.806354028742346e-16 -2.95
0.05148459898998662 -2.9495507007113546
0.10365150520642821 -2.9681907562467145
0.13869028404380151 -2.6463682670996205
0.17020579593566557 -2.434056282633971
0.20481599545699716 -2.341057540515602
0.24355131941363256 -2.317236016208077
0.28395557013399364 -2.31263253332428
0.3256650562465532 -2.3172272808552745
0.369185337494945 -2.330944483804525
0.41328266284729437 -2.343842452169055
0.4693901286263005 -2.4148028712812533
0.4969089410544446 -2.3377727657537957
0.5398825304252763 -2.3384881554845647
0.5927086442191859 -2.3772245293761913
0.6418712318542514 -2.3954960491968893
0.686337015984328 -2.3935416228864144
0.9706740596794861 -3.1749317897972773
1.0382971010998234 -3.1955498947517156
1.1036760436097615 -3.205307971281684
1.0465816385765465 -2.8754594196048795
1.2399531054267385 -3.230188275680318
1.3148691428898516 -3.254415329529423
1.0979544710548592 -2.5866186382013576
1.4520498157806072 -3.261357283784085
1.538330472736146 -3.298960344813406
1.613205820183805 -3.3075620903809346
1.6933845640285097 -3.323454335222612
1.1549000444532915 -2.1720510784329603
1.1926316658059892 -2.1515644795629134
1.9400000000000004 -3.3601785666836217
1.9313927809127038 -3.2143773776329208
1.9183077365242018 -3.0699341080862625
1.906236622552595 -2.935346987808984
1.459493478058649 -2.1637880643686587
1.5027702632397406 -2.146178356037159
1.8867906598588386 -2.596944551943581
1.8776628722343907 -2.4917427913475536
1.8654542702367445 -2.387672583428367
1.862788357507519 -2.3003520459126334
1.8448004398003681 -2.1985475517514668
1.8369652811734205 -2.113186824623761
1.8401091674868602 -2.043648270062834
1.834575588568121 -1.9673414573555685
1.826951514307163 -1.8918636748906523
1.8243354954612927 -1.8243354954612925
1.812736296853401 -1.7505390935566731
1.8137571800155428 -1.6913559329549963
1.8058419259100682 -1.6259873734520256
1.7131907471056924 -1.4892539958084516
1.7925439968984085 -1.5041230066665017
1.0957758056543287 -0.8873417513802708
1.111095162585478 -0.8680826802091781
1.7729708323049902 -1.3360293513975472
1.7798373876248845 -1.293127555043441
1.7693684156642224 -1.2389251025182595
1.7658500295422388 -1.1910808843926906
1.7695948983648446 -1.1491883638817069
1.3823183967349741 -0.863768400700124
1.380039354130401 -0.8292113006051872
1.7580315696824105 -1.0149999999999997
1.7579856113501853 -0.9744673366951374
1.7482362338606754 -0.9295536943160638
1.746372787409201 -0.8898213794895116
1.743660449820384 -0.8504400247708102
1.7401109511103678 -0.8114270625421429
1.7357363695209416 -0.7727996218440203
1.7305491244905877 -0.7345745215598345
1.7338338080398925 -0.7005143296877555
1.7177879847548512 -0.6593970271633525
1.7196374960382126 -0.6258968622859737
1.7113886218347636 -0.5892783595674537
1.7214122944942278 -0.5593207598186548
1.7882898936508766 -0.5467350878315177
1.884072924039105 -0.5402492174013184
1.9704886856296995 -0.5279908520091423
5.055240733897942 -1.260413076074269
5.047236935587518 -1.1652464615012206
2.944224278208755 -0.6258141893614555
2.9252490066740386 -0.5686108062221035
2.924879026446258 -0.5157350876707831
2.9235574881616078 -0.4630460165190834
2.9609015255372957 -0.4161275718705957
3.275402300416362 -0.40216883323698666
2.9935109050585025 -0.31463067443563686
2.9985460412561538 -0.26233878567045105
3.3119126468626163 -0.231591492830496
3.714901869287015 -0.19468975722375104
5.416698282443499 -0.18915527212755526
6.2790435255821375 -0.10960111242614046
7.42 0.0
9.06861859506847 0.15829332638616145
6.156090532329612 0.6470311876267749
5.131463603985635 0.6300645054046125
4.842410856146278 0.6805564636947199
4.049522196440065 0.6413813066649465
3.801357926627123 0.6702819657943511
3.818529743611413 0.7422469920147593
3.814775642861842 0.8108555941892613
3.8097869533102697 0.8795586224845121
3.803559247001906 0.9483338307506974
3.7960884973160387 1.0171588472529065
3.7777584650375933 1.0832548083608067
3.4809493117054493 1.0642330051907616
3.1955498947517156 1.0382971010998232
2.9500179558698685 1.0157726419063289
2.7251086002791345 0.9918584156444392
2.539338760072389 0.9747608227632168
2.364318829145308 0.9552468132105756
2.255236890958479 0.9572912647987206
2.2381863712243724 0.9965047755357105
2.2385802339805254 1.0438671064995277
2.237997175284926 1.0915441555048029
3.5640260967534716 1.815961998958187
3.558278799221476 1.89197039802714
3.550956010985946 1.9683270582001282
3.5420439014783542 2.0449999999999995
3.5401009518997237 2.1271072493785237
3.527880080010732 2.2044641392101325
3.514029679691327 2.282037556712963
3.506828931907827 2.3653859816812592
3.505970749556885 2.4549071475824773
3.494953415699773 2.539232289903484
3.434132693203359 2.5878045995538073
3.309645165148232 2.585778196367765
3.1785269823590103 2.573920399393835
3.0565173280447224 2.5647225626492918
2.935820267066583 2.5520696227730735
2.823950336814098 2.542696304163661
2.720635770023314 2.5370338994324944
2.6183968732326903 2.52855646847075
2.5173001410241094 2.517300141024109
2.4174111291973106 2.503302505178506
2.3324343914137446 2.5012296595375627
2.241587531302175 2.4895351653492708
2.164994795668674 2.490541614735147
2.082631855384388 2.4819839957054888
2.0012388435384834 2.471324157433167
1.9270204177693104 2.4664736587890395
1.8535902713083088 2.4597973709456618
1.7868671669691183 2.45941166289984
1.7149935446896278 2.4492646124240856
1.649619065238703 2.445660839037373
1.5848995918937292 2.440531352721184
1.5261674809916301 2.442378516930507
1.457557751995454 2.4257834609869775
1.4000000000000001 2.424871130596428
1.2265683392232327 2.212787859062671
1.178373622592586 2.2161984580759064
1.1258964393540762 2.209696179987152
1.07400930963324 2.2020454134329595
1.0227361934124926 2.193264844628693
0.9761679433819208 2.192509098342242
0.9299400858044714 2.190801551216808
0.8840715604615527 2.1881538967776177
0.8385810019360023 2.184578198003452
0.790066531082295 2.1706899540154483
0.7650851629743184 2.2219686526583944
0.7540014662748717 2.3205778997601745
0.7221581106651599 2.3620727472286975
0.6780678953098179 2.3647037720082644
0.6315184700501506 2.3568590161453264
0.5854509873511957 2.348115657587911
0.542132040968715 2.348231856132417
0.4969089410544446 2.3377727657537957
0.45221731904241147 2.3264564247709636
0.41154618107062513 2.3339943746389333
0.369185337494945 2.330944483804525
0.32705678725615384 2.3271299615426906
0.2851742635680451 2.322557994840693
0.24355131941363256 2.317236016208077
0.20307288060204398 2.321133646553767
0.16183501908637052 2.314348596602792
0.12141941848363 2.316820520630611
0.0806178373827775 2.3085928104141114
0.04031505887012511 2.309648175811264
