# .PCD v0.7 - Point Cloud Data file format
VERSION 0.7
FIELDS x y
SIZE 4 4
TYPE F F
COUNT 1 1
WIDTH 180
HEIGHT 1
VIEWPOINT 0 0 0 1 0 0 0
POINTS 180
DATA ascii
6.245698675651501e-17 -1.02
0.01780145456602927 -1.0198446490595192
0.03629547657060112 -1.0393664600998596
0.05495275405509117 -1.0485610114923025
0.07394186216877276 -1.0574178932754137
0.09412820216747103 -1.0758902739390852
0.11393602496174228 -1.084028865951418
0.13527497117971374 -1.1017262283218674
0.15030694903687072 -1.069489514240896
0.1658205329426448 -1.046949641030846
0.18059410477360763 -1.0242000631326964
0.19271708533031037 -0.9914434552821406
0.20583257390958165 -0.9683661247264677
0.21820252271354917 -0.9451389628416782
0.2298258008196843 -0.9217809399621966
0.2432899023963695 -0.9079702767117241
0.25358636735163925 -0.8843607602632534
0.2631345342504631 -0.8606742803667319
0.27193495504995374 -0.8369297343397352
0.28324429437772636 -0.8226011607714055
0.29755752469333185 -0.8175325800837402
0.3046127571135051 -0.7935433625226215
0.31466953846936624 -0.7788344378361013
0.32430683664609716 -0.7640190283655255
0.32945668089139835 -0.7399718206905067
0.3380946093925596 -0.72504622962932
0.35069691743126197 -0.7190352370393337
0.35865249479424205 -0.7038951541088105
0.3661878189729949 -0.688699122429963
0.3684553113872162 -0.6647109774259408
0.3800000000000001 -0.6581793068761733
0.3862785561825408 -0.6428754755265842
0.39214025553257165 -0.6275555911557553
0.39758649556096987 -0.6122295146001595
0.40821081953364513 -0.6051974279651805
0.41297503417275316 -0.5897894718880741
0.4173275291276559 -0.5744020660062127
0.42127051620643374 -0.5590448570331049
0.43096303272796077 -0.5516075275247053
0.43423106982438786 -0.5362307134053098
0.44352345068371213 -0.5285706657520948
0.45268073000345005 -0.5207496103537126
0.4550088123240236 -0.5053384813246281
0.463758884842499 -0.497320517101036
0.46542110820752824 -0.48195766622689623
0.4808326112068524 -0.48083261120685233
0.48195766622689634 -0.4654211082075282
0.48269344306865253 -0.450118917641249
0.49047558481508025 -0.44162620019684645
0.49810832294702956 -0.4329989591337348
0.5055893324585256 -0.4242398223931159
0.5051448749470311 -0.4090582541823944
0.5200870973804365 -0.4063365737149345
0.5270994366312133 -0.39719791528035187
0.5339512162874653 -0.3879382665130323
0.5406403492307346 -0.3785604479916904
0.5471647978863275 -0.3690673162906929
0.5535225748439799 -0.35946176310991784
0.5597117434632412 -0.34974671439391525
0.5657304184633941 -0.33992512944063574
0.5629165124598852 -0.32499999999999996
0.5685028096406073 -0.3151262531601191
0.5739159353583025 -0.30515651581082903
0.5791542407224392 -0.2950938248307054
0.5842161300944586 -0.28494124541290033
0.5891000615738224 -0.27470187013145464
0.5938045474676906 -0.2643788179992701
0.5983281547440863 -0.2539752335180279
0.6026695054684118 -0.24349428572034282
0.6161630814881531 -0.23652284669989818
0.6201971297186996 -0.22573329459494137
0.6240422598955492 -0.21487498194172344
0.6276973007548013 -0.2039512162874653
0.6407241864952339 -0.1958890421642336
0.6440453362786737 -0.18467702839738945
0.6471703036136758 -0.1734087602186889
0.6500981366049177 -0.16208767005177738
0.6528279434061076 -0.15071720641038955
0.6651403684989879 -0.14137994975607635
0.6675064847444115 -0.12975011685605048
0.6696692720483015 -0.11808076081351264
0.681504955010645 -0.1079397808777593
0.6832849674316835 -0.09602943966244515
0.6947823061489253 -0.08530854038360323
0.6961653267577913 -0.07316992428735741
0.6973362886642218 -0.06100901992336071
0.6982948351818768 -0.04882953162088771
0.7090269696757474 -0.037158528932490116
0.709567487183558 -0.024778642658775687
0.7098918635610377 -0.012391208570471293
0.72 0.0
0.7298888174641656 0.012740256699216964
0.7395492119941308 0.025825627559850718
0.7389858557183846 0.038728607619778435
0.7481730376948681 0.05231735530809398
0.7571079705497267 0.06623836448822021
0.7657818594335705 0.08048691671609316
0.7741859982802312 0.09505808785601504
0.7823117743058406 0.1099467497584517
0.7901506724761103 0.1251475720321847
0.7878462024097664 0.13891854213354426
0.8049342904270844 0.15646337620876674
0.8118625086090587 0.17256670337874022
0.8282145550674499 0.19120839619228522
0.8344543245973569 0.20805283021571425
0.8500147271343801 0.22776075969021825
0.8555229093851038 0.24531724667712926
0.860674280366732 0.26313453425046307
0.8749719949915413 0.2842956348249516
0.8793322753073647 0.30277838364515575
0.8927079897466129 0.3249191361593853
0.9055730137022857 0.34761691105894127
0.9086401774754517 0.36711446154759375
0.911299804917916 0.38682381720438097
0.9409518213718789 0.41893874236807416
0.9334970206477494 0.43529680959292044
0.9527216890771171 0.46467341559642206
0.971197111365321 0.494849644716106
0.9889013040019983 0.5258081503201978
1.005812663210305 0.5575310632832876
1.0219099764656376 0.5899999999999999
1.045744106856577 0.628346451390266
1.0600601201955324 0.6623990802915061
1.081885032649597 0.7025843551693848
1.1026199714982057 0.7437265616160933
1.1386213415616986 0.797271246527954
1.1649844718999243 0.8464107633011613
1.1819805548699933 0.8906862342650315
1.2056564530182845 0.9419620572482572
1.2356620787165835 1.0006194217692417
1.2639733311463137 1.0605995559827897
1.29055338218094 1.1218609395737673
1.3450921341140836 1.2111263975095334
1.3310637369468903 1.2412370153137473
1.3955192126569833 1.3476372386904547
1.3647160876900368 1.3647160876900366
1.333744071281275 1.38113241665021
1.309436851319997 1.4041991071088071
1.278039458145419 1.4194066166618229
1.246512155081964 1.4339482024232666
1.2148685823075593 1.4478239974948683
1.1831223351736944 1.461034407539105
1.1512869588589811 1.47358010924457
1.1253940932943303 1.4934484037884377
1.0932805692640002 1.5047716095374024
1.0668521716129458 1.523622802377525
1.0345068714208816 1.5337195092268272
1.0075822147778004 1.5515405506990343
0.9803506388314291 1.5688889778893882
0.9476700578345001 1.5771878332918865
0.9200000000000003 1.593486742963367
0.8920497012532603 1.6093002611364882
0.8638276755260392 1.6246235708604255
0.8353425195207662 1.6394520045065968
0.8066029100919025 1.6537810451904673
0.781843784220294 1.6766694060178025
0.7524627896902307 1.6900590966388116
0.7228525877051564 1.7029339788870148
0.6930221978194375 1.7152901309485566
0.6665643861542583 1.7364595932847953
0.636157466585744 1.7478282746617895
0.6088124488348832 1.7681197363707224
0.5809519494249011 1.7879862506348885
0.5496588048787451 1.7978529412105064
0.5209546024941284 1.8167846053234227
0.4917561856947894 1.8352590699492297
0.46207082059536525 1.8532648371871532
0.4296565137967824 1.8610468237397992
0.3991904463700977 1.878043393408907
0.3682613610767317 1.8945404640539913
0.336877464673845 1.9105270408436834
0.30504720682845027 1.9259922641605187
0.2727792778817283 1.9409254147334778
0.24130129994219202 1.9652413802498174
0.20801164190263038 1.9790985717828637
0.16646746864802747 1.9027318733552339
0.12835191168919044 1.8355178524780766
0.09211128298758138 1.75758798116805
0.05967813936127685 1.7089583142026536
0.028796470621517935 1.6497486970080455
