# .PCD v0.7 - Point Cloud Data file format
VERSION 0.7
FIELDS x y
SIZE 4 4
TYPE F F
COUNT 1 1
WIDTH 169
HEIGHT 1
VIEWPOINT 0 0 0 1 0 0 0
POINTS 169
DATA ascii
8.939921633775678e-17 -1.46
0.025480513398434053 -1.4597776349283311
0.050953265185651575 -1.4591106074478797
0.07693385567712763 -1.4679854160892236
0.10323958114130534 -1.4763947943845397
0.12899049926653436 -1.4743681531757833
0.15574741026880365 -1.4818376240987272
0.18158532167366975 -1.4788937659455696
0.21015138244969886 -1.4953047837997713
0.23465169756034637 -1.4815325108927067
0.2639452300537342 -1.496907784578556
0.29193776292611373 -1.501889590674926
0.3181048869511716 -1.4965658291227226
0.34642462368955235 -1.5005298997692622
0.3749789381794849 -1.5039583757277946
0.40116951990890715 -1.4971850307480559
0.4327506486326887 -1.5091808626231606
0.4619472934619241 -1.510961514421596
0.49442719099991594 -1.5216904260722457
0.5274204102205939 -1.5317400924708933
0.5609130350540968 -1.5410958980888896
0.5913071167497452 -1.5404077037203827
0.6255930110045733 -1.5483970371265348
0.6603356071468726 -1.5556532023346241
0.6955196596596186 -1.5621627325688474
0.7269034101940031 -1.5588493937030379
0.7671495068808856 -1.5728895810235424
0.803563184538998 -1.577081547813411
0.8403540973867447 -1.5804761912174792
0.8775054126458702 -1.5830616699223063
0.9200000000000003 -1.593486742963367
0.9682715808309021 -1.611474525319971
1.0068466020430893 -1.6112913826972095
1.0565997279291528 -1.6270209018141224
1.1072019488720786 -1.6414943936589825
1.1528886370656024 -1.6464956090208733
1.1990819146766452 -1.650394668524893
1.2517752481562605 -1.6611618608983691
1.3052023276903957 -1.6705827976462506
1.3656252485781473 -1.6864067363616266
1.4334163696009827 -1.708279108155321
1.4892539958084519 -1.7131907471056922
1.5456917006889626 -1.7166645468527808
1.6163361133481216 -1.733308272837434
1.6880198402153637 -1.7479957148229222
1.7465537495307726 -1.7465537495307724
1.827123092860174 -1.7644322609658531
1.9088331612260347 -1.780015719763121
1.9841966840246426 -1.7865787189781515
2.082998441414851 -1.8107229200138
2.1832266628890875 -1.831944687606637
2.292580586298064 -1.8564951535970207
2.387672583428367 -1.8654542702367445
2.5077155015484998 -1.8896991726974317
2.629305231718579 -1.9103020699505378
2.7687339096967922 -1.9386883548665357
2.893341128217096 -1.9515832331129064
3.0359874559624354 -1.9715933067543978
3.2056218034712898 -2.0030948188015145
3.394382510780365 -2.0395507766438143
3.576684917629732 -2.0649999999999995
3.795849528984977 -2.1040737518691026
4.926847568152812 -2.619651320345271
4.882715752552256 -2.4878679385727165
4.907415492793452 -2.3935064614683625
4.939377439349743 -2.303269526486812
5.271157290597807 -2.3468704305473667
5.707130091405131 -2.422532996633497
6.212131825597476 -2.5098641758866105
6.768458092104713 -2.598167634203427
7.470556335247972 -2.7190601394390663
8.282742722250015 -2.8519770330446925
9.263290468714796 -3.009825525211988
4.9924999147487314 -0.5247328856036203
4.363332777641846 -0.38174215323474275
3.950353639028904 -0.2762356360267362
3.6150389158115575 -0.18945616159945666
3.3379653622437795 -0.11656431898635324
3.119524808887941 -0.05445150808432456
2.95 0.0
2.7895750694863315 0.048692213960021
2.658379599870795 0.09283266122865258
2.5365190182766177 0.13293332885707732
2.424080642131373 0.1695082311982245
2.3310955935346844 0.2039444380295201
2.2376742645786147 0.23518904235222027
2.1438996875452556 0.2632377817551186
2.079562944357298 0.29226351201613743
1.9951304480021783 0.31599761938126636
1.9302231959039278 0.3403504282271834
1.8650916485505615 0.3625370912154351
1.8095730613575407 0.38463662801285475
1.7636098172612757 0.4071614083623956
1.6980175209829937 0.4233633172994185
1.6517331629543068 0.44258056712531046
1.6053070322169924 0.4603143842143886
1.5587767522197478 0.47656587869806083
1.5121798609092942 0.4913370210561664
1.4750089779349342 0.5078863209531644
1.428332783594581 0.5198706178550164
1.4003706397458027 0.5375519243179504
1.3629602662131775 0.5506716923213907
1.3347320375060385 0.5665601363094469
1.297234549852493 0.5775660331676362
1.2688309018513098 0.5916655664369792
1.2403357838928504 0.6049521825689268
1.2028588076542968 0.6128871746483882
1.1743202985023729 0.6243971785052348
1.1544980134240024 0.6399486987251649
1.1258330249197703 0.6499999999999999
1.0971741448987038 0.6592487358848693
1.0685406011570968 0.6676982729338382
1.0483382099317802 0.6807987937687837
1.0280065899682518 0.693399200303726
0.99936549403257 0.6997632523482762
0.9789105631936864 0.7112201552738925
0.9583626120567513 0.7221780277824579
0.9377327967919991 0.7326371556375333
0.9092607749046557 0.7363048575283099
0.8886115540180144 0.7456336272363855
0.8679160172561877 0.7544678833390833
0.8471851010442294 0.7628088912490983
0.8264296828296626 0.7706581468706232
0.7984671783759029 0.7710707912094871
0.7778174593052024 0.7778174593052023
0.7571776238003072 0.7840803823691297
0.7433782124681234 0.7971755347648959
0.7226610548675669 0.8025964115155858
0.6954225707299379 0.7999921550361383
0.6813548662677318 0.8120071097061168
0.6670796145128278 0.823774719144389
0.6464445490919413 0.827411291287058
0.6319057743096507 0.8385672855496575
0.6112966623841721 0.8413776741499454
0.596519493805088 0.8519181260605515
0.5815606196095767 0.8621990754572434
0.5664245964156283 0.8722173906632409
0.5458168421602011 0.8734895390411189
0.5253388364082555 0.8743106467161544
0.5100000000000001 0.8833459118601273
0.49450581265126387 0.8921121012821837
0.47416627841374975 0.8917770687875162
0.4630703097343378 0.9088266546721352
0.447138569724859 0.9167699272251504
0.43107062697551346 0.924433942777383
0.4148713759373164 0.9318163667954529
0.40245306234395195 0.9481199990560136
0.38209872528423044 0.9457275316581231
0.36911898803165916 0.9615878392921178
0.3522807476254389 0.9678833994094856
0.3320795175462999 0.9644289471113031
0.3151973342624464 0.9700776466210567
0.29529542176996415 0.9658678035226658
0.28115010293333914 0.9804869298570853
0.26399542600457115 0.9852443428148497
0.24676033351166105 0.9897016408015165
0.22945007543074245 0.9938574660809399
0.214149041542292 1.0074920287558198
0.19653326523784126 1.011075998951094
0.18233058655027695 1.0340481406628184
0.16425618829224248 1.0370727576248946
0.14613175600806874 1.039781472178649
0.12918150400945635 1.0520989207398013
0.11080017106371268 1.0541932090903698
0.09325664473999445 1.0659283269581679
0.07533699164365526 1.0773691742806102
0.056522832742379486 1.0785198975349397
0.289665822630759 8.294943864258496
0.14520402155819953 8.318732823701176
