# .PCD v0.7 - Point Cloud Data file format
VERSION 0.7
FIELDS x y
SIZE 4 4
TYPE F F
COUNT 1 1
WIDTH 180
HEIGHT 1
VIEWPOINT 0 0 0 1 0 0 0
POINTS 180
DATA ascii
5.694607616035192e-17 -0.93
0.01640526205104658 -0.9398568334470078
0.032456531933326004 -0.9294334691277591
0.04867243930593789 -0.9287254673217538
0.06487352058203646 -0.9277345667416366
0.08105484075532228 -0.9264610692253235
0.09721147083891772 -0.9249053626924942
0.11333848936678717 -0.9230679210264295
0.1294309838928609 -0.9209493039296605
0.14548405248741478 -0.9185501567534782
0.16149280523024528 -0.9158712103013535
0.17745236570018677 -0.9129132806063276
0.19335787246051608 -0.9096772686824394
0.2092044805397946 -0.9061641602502688
0.22498736290769095 -0.9023750254366768
0.2407017119453443 -0.8983110184488335
0.2590991144679792 -0.9035859941820197
0.27482940243937254 -0.8989264706052532
0.29047597471245057 -0.8939931253174442
0.3027783836451558 -0.8793322753073646
0.32149893472612867 -0.8833110635387538
0.3368658725725821 -0.8775656009073696
0.35587626374511655 -0.8808246618384479
0.37119457206481 -0.8744796107798183
0.3863998109220103 -0.8678681847604708
0.40571353127107146 -0.8700554755551839
0.42083630091751434 -0.8628422844472003
0.435830879749965 -0.8553662632208331
0.45538741590231413 -0.856459165073159
0.470265331638947 -0.8483811159252138
0.4900000000000001 -0.8487048957087499
0.5047373134118532 -0.84002395468807
0.5193208789485408 -0.8310871342332975
0.5391926446648769 -0.8302838622659697
0.5591929034707468 -0.8290375725550417
0.5793122007145565 -0.8273435647318818
0.5995409573383226 -0.8251973342624465
0.6198694738466097 -0.8225945753487116
0.6402879343386847 -0.8195311837509908
0.6670796145128278 -0.823774719144389
0.6813548662677318 -0.8120071097061168
0.7019831610198429 -0.807539250838366
0.7293523609311555 -0.8100278597703597
0.7433782124681234 -0.7971755347648959
0.7710707912094872 -0.7984671783759028
0.7919595949289333 -0.7919595949289332
0.8128539743826758 -0.7849639586186669
0.841056756862046 -0.7842981140718732
0.8620479975537773 -0.7761915033762755
0.890557304662871 -0.7741496542087986
0.9269137761739634 -0.7777730077207125
0.9481180729775044 -0.7677708770808017
0.9771333344723352 -0.7634202294038163
1.0142670977600619 -0.7643050794031013
1.0517220926874318 -0.7641208279802151
1.089472218904359 -0.7628566603468913
1.1523622258515078 -0.777278135824338
4.41140718739293 -2.8648013241790418
4.562498757321571 -2.8509656415746423
4.6629901158194915 -2.8018071275106946
4.641896164284592 -2.6799999999999997
4.635484447838797 -2.5694909873055862
4.6178159106521885 -2.455336273370209
4.6510540562632805 -2.369830408640434
4.709680802607635 -2.2970648091747656
3.98775426296126 -1.8595203516590777
4.640810924824413 -2.0662221468250648
4.712984849676495 -2.0005433778650814
4.867715236475634 -1.966684615433538
3.071479603175794 -1.179030554004038
3.0727948699699206 -1.1184058686749367
3.063480184941787 -1.0548408204411879
3.0433808521444914 -0.9888543819998317
3.0410491239624533 -0.9297420210183028
3.0279743422057046 -0.8682576708235473
3.023347836284784 -0.8101036111708899
2.9691049224045494 -0.7402810005349832
2.962084996947115 -0.6838512052053496
2.954005754216093 -0.6278933062696331
2.944881550342992 -0.5724269861296344
2.924879026446258 -0.5157350876707831
3.0223263222211214 -0.47868946302310644
3.1886631813478568 -0.4481373850914107
3.384582377096908 -0.41557446101155293
3.6200596991405147 -0.3804836062942586
3.895121269538725 -0.3407789541433434
4.169817730086065 -0.29158206025044375
4.503819201743128 -0.23603516265567664
4.917002868933951 -0.17170552377630477
9.488554627034153 -0.16562333708982052
8.65 0.0
8.628685609199657 0.15061426755375673
8.644730653715179 0.3018806464766334
9.407090217388085 0.49300470780853084
9.446931555960536 0.6605938063568667
8.148872630390478 0.7129339756758438
8.035736914575649 0.8445899832026399
8.00984744374547 0.9834856012795402
9.338227888233009 1.312402342053417
4.869303519134029 0.7712219126483382
4.845254144820063 0.8543490341212973
4.839422014396983 0.9406883472063658
4.822267671617662 1.0250046357315534
4.803644419391209 1.1090086979152542
4.783557930540662 1.1926749453063619
4.771673581867998 1.2785660828064525
4.758245394894678 1.3644049112941459
4.733708542017026 1.4472399383775467
4.726750885986913 1.5358144620434884
4.7181376922405915 1.624585090741212
4.707860030137401 1.7135209180616002
4.695909545280925 1.8025907862128605
4.682278465562276 1.8917632967503557
4.685369704072921 1.988821444010403
2.229050916647946 0.9924374091049524
2.1479494552768603 1.0016052803254578
2.0582383660250927 1.0038699261469872
2.0047646794238276 1.0214786244139802
2.0042910357897643 1.0657004475239722
2.01162532642061 1.1150621265665752
2.0178391908177424 1.1649999999999998
2.022914829656985 1.2154898567877277
2.018354468852294 1.2612078488750276
2.021196068748472 1.312580074386215
2.0311420527598525 1.3700226135033298
2.0314970698367 1.4224695621505943
2.0387228258248675 1.4812188357770324
2.04450690572107 1.5406464592692437
2.048827959377477 1.6007198358467116
1.9894936613298453 1.611060201087584
1.915111107797445 1.6069690242163481
1.8263971841391082 1.5876628501570276
1.7315274433623287 1.5590743128161397
1.6528593656593251 1.5413162937412463
1.611321152758579 1.556034749828154
1.5980613254815974 1.5980613254815972
1.569927917237334 1.6257079487653512
1.5481362773418716 1.660172902675517
1.4854699461166654 1.6497815125598154
1.417087502619496 1.6301726932811875
1.3691376086323288 1.6316746638434232
1.3152796172941603 1.6242350594450687
1.2621060244175994 1.6154220448937797
1.209648196535617 1.6052573751950585
1.1638147995390968 1.601853648862396
1.1127382865210294 1.589154965920644
1.0680584456291264 1.5834617635801296
1.018474995478101 1.568313962057943
0.9750514461890971 1.560408496927824
0.937369296336299 1.5600444872778443
0.9000000000000002 1.5588457268119895
0.8581130278360167 1.5480768816367305
0.821575234875309 1.545158287503122
0.7808636595520206 1.5325312216039926
0.7452309495414317 1.527949878708584
0.709998679724375 1.5225970822215718
0.6670480946443126 1.4982145505338653
0.6368917394375161 1.5004229111274776
0.6068626813337777 1.5020378443981957
0.5733887192724803 1.493728682395523
0.5403918264545567 1.4847143408417351
0.5111420024977361 1.4844641636909273
0.47897634128116856 1.474137600257488
0.44732870822578724 1.4631462766234442
0.42172515440000874 1.4707303947856278
0.3934049485558315 1.468207255959384
0.36530206235549817 1.4651465466767546
0.33742658151579774 1.4615550971778528
0.30978841931846124 1.4574399250933705
0.28239731315728644 1.4528082315025426
0.2552628211703877 1.4476673969279457
0.22839431895873713 1.442024977268901
0.20319272740169558 1.4457913803626927
0.17671054793746385 1.4391919198799168
0.15052098710542097 1.4321115293303135
0.12463271212915145 1.4245584182711961
0.09975175745409907 1.4265165918715486
0.07431705786498043 1.4180539393514948
0.04955728531755153 1.419134974367116
0.02460789307656987 1.4097852501705117
