# .PCD v0.7 - Point Cloud Data file format
VERSION 0.7
FIELDS x y
SIZE 4 4
TYPE F F
COUNT 1 1
WIDTH 173
HEIGHT 1
VIEWPOINT 0 0 0 1 0 0 0
POINTS 173
DATA ascii
1.757368156776452e-16 -2.87
0.05008840647500393 -2.869562885098843
0.09981256056915308 -2.858257765274614
0.23132492659381232 -4.413942543615216
0.29227962498788473 -4.179793370588664
0.3616963324027822 -4.134207997080744
0.4285666993973791 -4.07753977100992
0.49966430796110467 -4.06943922172942
0.5650427898978657 -4.020488359090775
0.6460743406161537 -4.0791528466579186
0.9446460865081016 -5.357354176386412
1.01892003531075 -5.241889159610525
1.0416375709969736 -4.900519479676366
1.0955116346546232 -4.745182215504096
1.1805788505263781 -4.735043144226863
1.2759778923554272 -4.762014323605107
1.3644049112941459 -4.758245394894678
1.5641886202666415 -5.116230444402239
1.563625991537234 -4.8123459724534765
1.6506305430977848 -4.793779178288536
1.7408825295276542 -4.7830354398002735
1.8420112606628427 -4.798603392195616
1.932970022026107 -4.784268689564622
2.317035591941393 -5.458593780972971
2.4404198584548022 -5.481272745855605
2.5568404835312317 -5.483162111571732
2.6784477068812635 -5.491631622887911
2.8056612883903993 -5.506420319484112
2.9295025517839592 -5.509592979439704
3.0639967999568505 -5.5275965491209815
3.1950000000000007 -5.5339023301825625
2.4361300943245574 -4.0544013323209915
2.5065181198230593 -4.011267494819895
3.6164031924997806 -5.568772571157615
3.7242247371151738 -5.521390233216578
3.7339826006453096 -5.332679808321337
3.7030470894425807 -5.096807064562169
3.7613438947003015 -4.9914719377955805
3.7740048437462854 -4.830505919609205
3.782215550209523 -4.670647228356394
3.1110920308828502 -3.7076551046958537
1.692632294795509 -1.9471507169747515
1.7129743522786771 -1.9024507532221293
1.725455850958121 -1.8503248650965012
1.7227527587383134 -1.7839627048398548
1.7465537495307726 -1.7465537495307724
1.7479957148229226 -1.6880198402153634
1.7625624209022008 -1.6436160477506214
1.7686846846361983 -1.5925308431340826
1.7735675135235143 -1.5417387181276923
1.7848835524672189 -1.4976951305696364
1.7952071709656026 -1.4537301033251246
1.6390623675019815 -1.2805758686773694
1.6292164404964773 -1.2277026472301784
1.6342143286373938 -1.1873262096307957
1.6301125681350936 -1.1414171083385816
1.6414943936589825 -1.1072019488720786
1.643794313173031 -1.0674925086294529
1.6282523446203379 -1.0174449873277533
1.6543328903550767 -0.9940234845764044
1.7320508075688774 -0.9999999999999999
1.827955187921337 -1.0132521063148443
1.9159962765038716 -1.018753291245383
1.969124418456293 -1.0033190044243983
1.9683589613951757 -0.9600328114680795
1.9666878978695304 -0.9170816279773177
1.973258188508018 -0.8785511490437284
1.9698803863882226 -0.8361646149670457
1.9749016102272572 -0.7979120439758925
1.9791905041740678 -0.7597400530360366
1.9733545036504079 -0.7182423009839043
1.9855890087585655 -0.683693124360029
1.9781975538939194 -0.6427553482998906
1.989113892403114 -0.6081331458232924
1.9994243275517034 -0.5733257000993582
1.9994664604183712 -0.5357554233622179
1.9988091961285528 -0.49835910493531554
1.9974586328097321 -0.46114966140492314
2.0052025815043013 -0.42621896617640653
2.012335726067711 -0.39115844052191684
2.0582482037955145 -0.3629246913238844
2.093899282061692 -0.33164106588528947
2.574696978728083 -0.36185006249617013
3.523538838326693 -0.4326361690882735
4.236663274268844 -0.4452912535202037
4.243789413870836 -0.3712834641050238
4.259598494609449 -0.297860142887415
4.2541618180544845 -0.22295117359494068
4.267398831371539 -0.14902085091967912
4.269349658317791 -0.07452177548720058
4.28 0.0
4.2893466122209185 0.07487082361594627
4.2973805561821115 0.15006783582075417
4.304093294792213 0.22556797140708787
4.2995010566198415 0.30065040183718
4.313523042737258 0.37738436609735987
4.316225025898306 0.453653530581616
4.31757575963975 0.5301316438123915
4.317568779713247 0.6067947201858853
4.326074931806703 0.6851829568762112
4.333154113253715 0.7640519817344935
4.338792150838675 0.843375759564328
4.342975347258098 0.9231279072308515
4.355434189590001 1.0055312129170764
4.356627810979225 1.086229311242508
4.365984734826588 1.1698620838633937
4.19110099429107 1.2017788713621165
3.987790832365858 1.219190008693812
3.8137366303435654 1.239158147443539
3.64024651605737 1.2534373946600532
3.4862596231157204 1.2688947317382309
3.3328821225950103 1.2793735798767218
3.2080561368010843 1.2961388132190557
3.0836912590656755 1.308949280439067
2.959887282762027 1.3178267235655925
2.836743373424714 1.3227951592483893
2.7413218412124594 1.337031997706686
2.6373793115975688 1.3438118792290583
2.5428890674337095 1.3520781008233655
2.457681377061702 1.3623150328922071
2.372909606369362 1.3699999999999999
2.2886366928746398 1.3751516600098446
2.213405530968272 1.3830892796486647
2.1386099482608314 1.3888295392883188
2.0725939313876043 1.3979822586768669
2.0069225085080302 1.405262269060063
1.9416407864998737 1.4106846055019355
1.8767934486111382 1.4142653044073135
1.8281849483675947 1.4283346227555271
1.7641213325073237 1.4285572876831312
1.7006186637241314 1.4269884935041173
1.6528139806878708 1.4367692734892108
1.6051928230311716 1.4453221097351339
1.557783384448833 1.4526565069331216
1.5034201827077809 1.4518359942593042
1.4637110370561535 1.4637110370561532
1.4101564920317644 1.4602597946874616
1.363996720124997 1.462707403238341
1.3181872945269506 1.4639953061904667
1.2793151065314894 1.4716836814344052
1.2341522105981555 1.4708053307884377
1.195708742994691 1.4765773267682445
1.1574435736122375 1.481460216780637
1.1133577928312894 1.4774756935874918
1.075647011695226 1.4805010997061538
1.0381733497953933 1.4826652001630751
0.9897714391432219 1.467396503422424
1.0021358244276501 1.54315384501958
1.0015474094007573 1.602810901735645
1.0094746268237065 1.68004790937614
1.0050000000000001 1.7407110616067214
1.5174541113710351 2.7375596833463085
1.4506671290084028 2.728308061934084
1.3710513092134315 2.6908397030488707
1.319497151835123 2.7053700793604927
1.2467238721350635 2.6736079717581176
1.1876709977813371 2.6675527363163947
1.1409348951886793 2.6878741720811257
1.0901051868403044 2.698105016789351
1.1181080025813366 2.9127709306712695
1.1286664729747071 3.1009856485934972
1.1459999036891917 3.3282253861095947
1.171174408681051 3.604504196758632
1.1958002723159933 3.911286451888815
1.2210734862693062 4.258389313006752
1.2500959878451752 4.6654217409762
1.294282141458222 5.191082135576581
1.3452073049763136 5.826732987415707
1.4096412637444076 6.631840732975203
1.461596904584334 7.519264225209106
0.5176026072427159 9.876446098722736
0.24604145175263262 7.045705330484625
0.07783773271028485 4.459320720397505
