# .PCD v0.7 - Point Cloud Data file format
VERSION 0.7
FIELDS x y
SIZE 4 4
TYPE F F
COUNT 1 1
WIDTH 167
HEIGHT 1
VIEWPOINT 0 0 0 1 0 0 0
POINTS 167
DATA ascii
2.816687638038912e-17 -0.46
0.008028106961150456 -0.45992993977194
0.015704773516125488 -0.4497258721585931
0.024074539871754227 -0.459369585987104
0.03208797792229761 -0.45887946311951916
0.040091641663922845 -0.458249561122203
0.048083093103120596 -0.45748007186940576
0.05605989796636785 -0.45657122975500813
0.06401962644163012 -0.45552331162112236
0.07039550926810392 -0.444459753267812
0.07814167995011868 -0.4431634888554936
0.08586404791944521 -0.4417322325514488
0.09563937777616925 -0.4499478963375506
0.10122797445473931 -0.4384665291533559
0.10886485301985045 -0.43663307682419844
0.11905676074715954 -0.44432588009297147
0.12679318367581963 -0.4421803801316267
0.13449098417245892 -0.43990018774299633
0.14523798735622528 -0.4469965626587221
0.15301703259486366 -0.44439373053167885
0.16074946736306434 -0.4416555317693769
0.1648492567908381 -0.4294469961887128
0.17231903297131962 -0.4265045731007222
0.1797363191050659 -0.42343223258812257
0.18709885581486818 -0.4202309105155964
0.19440440040072174 -0.416901582036859
0.2060344389908664 -0.4224332017606085
0.213375534877587 -0.41877306636853284
0.2206516345093687 -0.4149853686436956
0.22786052151577843 -0.411071262355516
0.24000000000000005 -0.4156921938165305
0.2472182759568261 -0.41144030433701384
0.25436124683193834 -0.4070630861550845
0.26687312715736333 -0.4109485782932577
0.27400452270066594 -0.40622841055197045
0.286788218175523 -0.4095760221444959
0.2997704786691613 -0.41259866713122323
0.3069256618075446 -0.4073041101241193
0.32014396716934235 -0.4097655918754954
0.3335398072564139 -0.4118873595721945
0.3406774331338659 -0.4060035548530584
0.354271875654874 -0.4075431733202969
0.36133052743378347 -0.4012982057577929
0.3750990980343742 -0.40224453589054376
0.38900868745703854 -0.40283028818964467
0.4030508652763321 -0.403050865276332
0.41002368619303114 -0.3959552711616284
0.42418514693911885 -0.3955590488362491
0.43102399877688863 -0.38809575168813776
0.45282574813366316 -0.39363541739430435
0.4596266658713868 -0.38567256581192355
0.4740590364887522 -0.38388543854040086
0.4885666672361676 -0.38171011470190813
0.5111267264302675 -0.3851616148173109
0.5258610463437159 -0.38206041399010754
0.5406403492307346 -0.3785604479916904
0.5637455493374284 -0.38025117436010786
0.5870693975617968 -0.38124732451051885
0.6021141482710624 -0.37624267760557545
0.625732129512542 -0.3759777946843395
0.649519052838329 -0.37499999999999994
0.6734571744973348 -0.37330340758967956
0.6886991224299631 -0.36618781897299485
0.721715284592578 -0.3677323047890329
0.7549869988913003 -0.36823176330282503
0.7794246968515189 -0.36345170509700153
0.8221909118783408 -0.36606297876822014
0.8560695137107696 -0.36337994949502456
0.8993683389297837 -0.36336839561343465
0.9429162307621738 -0.3619516290407533
0.9866772518252039 -0.35912115049195215
1.0306152474032555 -0.35486928835830084
1.0937149937394264 -0.3553695435311895
1.1380026595960122 -0.3479223286200567
1.2111897368822817 -0.34730306832941893
1.2750220907015701 -0.3416411395353274
1.339008102260875 -0.33385221592754144
1.4323239952342959 -0.3306780498854815
1.516128781137399 -0.32226312076752694
1.6196848526886454 -0.3148348423712989
1.723413567771364 -0.3038843109171281
1.856854080318859 -0.294096794275634
1.9904388181705561 -0.2797379329297315
2.173676072094495 -0.26689386205727295
2.3669621109764902 -0.2487777425770152
2.540296480133951 -0.2222471440065283
3.421644692391197 -0.2392647049423498
3.4252993042081883 -0.17951232991329732
3.597806977268745 -0.1256381881290035
7.639332761731022 1.6237903052867002
4.715951113560538 1.0887631030243063
4.686528357913063 1.1684827557463953
4.597806933135965 1.2319786546879987
4.67173184226023 1.339597549270616
4.523321495705159 1.3829181633385448
4.165627541372772 1.3534944353622695
3.243128714305657 1.1166987697880475
3.58962581140217 1.3065169475040543
3.351553731124954 1.2865409388676279
3.1338814284357412 1.2661702857457826
2.9456155310478094 1.250339611165676
2.795449100386359 1.2446141278119485
2.646418738147018 1.2340453242828424
2.507635389174676 1.223055499541526
1.8978438965212234 0.9669997644452345
2.2691753136474424 1.2065419163597393
2.1690568737057014 1.2023278582109158
2.0698007150448086 1.1949999999999998
1.9800564646218795 1.1897379530422252
1.89114725442883 1.181719959240047
1.8115284267621161 1.1764203156324584
1.7326885266400371 1.1687131682538607
1.6628786499066532 1.1643601657926235
1.585673308974897 1.1520590944932474
1.5253938241903293 1.1494666942204121
1.465700001708503 1.1451303441057246
1.3988627306225474 1.1327767038897076
1.355898664320591 1.1377340691451745
1.3056475737853956 1.1349821201535775
1.26334620331157 1.1375220308100589
1.2067336076716313 1.1252972941031225
1.1581370785452285 1.1183999764389856
1.1242997820866107 1.1242997820866105
1.083667057916036 1.1221700885282957
1.0434574908956227 1.1189711634773307
1.0036959095382874 1.1147172382160915
0.9644067726160458 1.1094230829274747
0.932042034045482 1.110764442522518
0.7363048575283099 0.9092607749046557
0.8619260654559215 1.1032150550494106
0.8365228821813471 1.110103358965737
0.8052657956406882 1.1083532822936781
0.7685924247104018 1.097663739347249
0.7381346325813858 1.094329595772655
0.7080307455195354 1.0902717383290512
0.6835958508608343 1.0939820440417896
0.6592487358848697 1.0971741448987036
0.6300000000000001 1.0911920087683926
0.6060120253079214 1.0932746339242447
0.5774500222266458 1.0860255392164802
0.5493285046848517 1.078117894267925
0.526045376146893 1.0785528555590005
0.5029157314714323 1.0785062665736134
0.4799492388294444 1.077983640018269
0.4571554203324502 1.0769906785393553
0.4382897142966172 1.084805109843141
0.41212314197709515 1.073617490471782
0.3899029633912624 1.0712495876959354
0.3678920145365871 1.0684359904272278
0.3491892036436906 1.0746938634135235
0.32745630928946523 1.0710613266785998
0.3059574649568691 1.067000482491534
0.2847009496127728 1.0625184089179753
0.2636948662036378 1.0576223416408361
0.24294713869137438 1.0523196699680541
0.22454462608318 1.0563994087925102
0.20416562505290306 1.0503410862890006
0.18406706832694625 1.0438962181929405
0.1658205329426448 1.046949641030846
0.1475234870176694 1.0496841528660645
0.12796281057540487 1.0421734592233882
0.1087096017983596 1.0343027711830042
0.0906419724575647 1.0360424860154154
0.07254673269389024 1.0374666122702172
0.05442939449266173 1.0385747161447567
0.03629547657060112 1.0393664600998596
0.01815050269477494 1.039841602962647
