# .PCD v0.7 - Point Cloud Data file format
VERSION 0.7
FIELDS x y
SIZE 4 4
TYPE F F
COUNT 1 1
WIDTH 172
HEIGHT 1
VIEWPOINT 0 0 0 1 0 0 0
POINTS 172
DATA ascii
0.06227978792910332 -1.1883691463579429
0.08091750954318526 -1.157174298301396
0.09761443187737737 -1.115738061862755
0.11498130959441881 -1.0939740849051007
0.13283758431161077 -1.081875305289041
0.14613175600806874 -1.039781472178649
0.15956315434103555 -1.0074421074070405
0.1753846594435997 -0.9946558305423301
0.18890090542277946 -0.9718109116131873
0.20375345700140404 -0.9585846487191295
0.2047054594529173 -0.8866767589545641
0.5273897324072756 -2.1152446832816723
0.56163732787247 -2.096059043047278
0.5926203150065482 -2.0667126462673857
0.6227517310594293 -2.0369291302012655
0.6551160280748887 -2.0162398145457257
0.5176533655868792 -1.5033745352029138
0.3420201433256688 -0.9396926207859083
0.4300415394543602 -1.1202965117966421
0.7754356483709381 -1.9192705789532496
0.8049061246879039 -1.8962399981120273
0.8378774847361488 -1.8819036427437579
0.8663674365684337 -1.8579309634251322
0.8986608509176087 -1.8425277949132923
0.9806194794374213 -1.9245740922468746
1.1126476038025614 -2.092585795075657
1.2750493012478665 -2.3002498297766105
1.4350000000000003 -2.485492908861339
1.4781592749918562 -2.4600701530150624
1.5155690957069659 -2.4254175550073787
0.7025843551693851 -1.081885032649597
1.5936997748916284 -2.362757081781869
1.6289570792369708 -2.3263918057807365
1.6693101165106237 -2.2976082640248507
1.7031365155202967 -2.2601384934338387
1.7484785899248694 -2.23795054024309
1.7872699105815384 -2.207094530537797
1.8255168115097717 -2.1755662184578974
1.4695722249387366 -1.6905494596990092
1.8936396159955688 -2.103099856101026
1.9436953261781207 -2.084358049614636
1.9797763558081425 -2.0501184309651554
2.0152543263816605 -2.0152543263816605
2.035731634958383 -1.9658831883989623
2.0916715866308273 -1.9505153097787455
2.1402570973748953 -1.9270961463135117
2.181110686843811 -1.8960105937825662
2.022357329834102 -1.6969592895724637
1.8185215498093115 -1.4726097150566198
1.7651440880790572 -1.3790817047294748
1.7729708323049902 -1.3360293513975472
1.8041078974561329 -1.3107611126122152
1.8349005792073418 -1.2848112174263433
1.8736249139743941 -1.2637759618438877
1.8953954835566582 -1.2308842191339608
1.9674715830829081 -1.2294126930210352
1.9286264265797528 -1.1588356685476218
1.991858428704209 -1.1499999999999997
2.0203715234920043 -1.1199102227690387
2.0572678913613 -1.0938687412911257
2.0938653318426645 -1.066877674387935
2.795249483990409 -1.3633342665140307
2.836743373424714 -1.3227951592483893
2.886803646150619 -1.2852877921195285
2.9272054339787603 -1.2425249885958904
2.9762601731593876 -1.2024871648650775
2.632696802722109 -1.0105976177177467
3.0727948699699206 -1.1184058686749367
2.4583482965582237 -0.8464772015886074
2.681979375952333 -0.8714279241373516
3.203620932476169 -0.979445210821168
3.2490645322715177 -0.9316542626614571
3.3034663259086137 -0.8851611342506209
3.347520255652188 -0.8346305398188537
2.182588945118927 -0.5038903617302576
3.462642506597672 -0.736007385494868
3.514225316742637 -0.6830962034480305
3.5650040659041933 -0.6286064031542878
3.58530867636035 -0.5678571080960381
3.4461328792206647 -0.4843223913410277
2.3920362254555863 -0.29370511760640544
2.357016892022808 -0.2477324579443387
3.088203564084411 -0.2701828025177403
2.9926921507794724 -0.2092694212323759
2.716272334532441 -0.14235380098080722
2.338574535224684 -0.08166482228385226
2.259655791053444 -0.03944243854826073
2.17 0.0
2.159671021537805 0.03769719790453239
2.1686780946314377 0.0757319078444271
2.1969849764600626 0.11513910373447643
2.21459219157681 0.15485937171195818
2.2215141767445927 0.1943573063272777
2.2277290456249323 0.23414375771954377
2.1836015336109087 0.26811255549132446
2.1092709864195447 0.29643870504493935
1.0667034078427489 0.16894922224344935
1.23100969126526 0.2170602220836629
1.9828869105642812 0.3854341706606205
1.9367322494529353 0.4116651478191634
1.9000216263312086 0.4386545559705367
1.8532648371871532 0.46207082059536536
1.8062812951605578 0.4839916143417138
1.7687215205265068 0.5071727347032785
1.7404746558527247 0.5321165025953808
1.407563644116827 0.4573451516749221
1.2197189625231188 0.41998291924973213
1.6350651601674806 0.5951150493866636
1.596422529310215 0.6128091937224635
1.5669407142178706 0.6330851428728913
1.5372431052655753 0.6525209845770871
1.5073500051102913 0.6711154610750703
1.468218614999373 0.6846415840199331
1.4380704740786674 0.7013938348625239
1.416700373459505 0.7218448945858794
1.3950571967171046 0.7417650692017075
1.3644067431374574 0.7563030075842858
1.3336791218280357 0.7699999999999999
1.311465970074232 0.7880082546123829
1.2805526251962032 0.8001780889921394
1.258005851918136 0.8169585525225405
1.235265983107012 0.8331974261714127
1.212345025547708 0.8488931257995481
1.1892549817311728 0.8640443208699355
1.221912330372358 0.9207769854226339
1.252937098234688 0.9789017457677968
1.2978337556331412 1.0509650530532286
1.286954664439883 1.0798831842733858
3.6754356556849 3.1950074711837706
3.596820955310588 3.238592134776874
3.5251248418044017 3.287232095501243
1.8990570728940392 1.8338980980117527
1.845548698896889 1.8455486988968888
1.8200049306025732 1.8846702768872658
1.780015719763121 1.9088331612260347
1.9003309220591573 2.1105313043557996
2.033782989870573 2.339599698690593
1.7098150417661948 2.0376782186964815
1.6991650558345615 2.0982940959338214
1.8900807292497708 2.4191930135726363
2.2206974354310582 2.9469650320745107
3.2680860027461502 4.498134488724707
3.848697887915519 5.496510217179135
4.624525311703076 6.856140725030195
2.7933557985760507 5.253538177510615
2.188234208744616 4.294651446587933
2.117332638991244 4.341175243624977
1.8299370733372287 3.9243127178686943
1.5333971443957675 3.4440663753126053
1.3870955061369217 3.267792229756163
1.3410916044289656 3.3193181993490986
1.2865409388676274 3.351553731124954
1.2278523145391511 3.3734965086214106
1.1753010375903359 3.4133220579135335
1.1186415196373098 3.4428245889884557
1.0642330051907618 3.4809493117054493
0.972999866034007 3.3932537866622656
0.8592792297403689 3.2068737432797065
0.7523770953149664 3.0176197087183487
0.6568570786840862 2.845160589172887
0.5779945004733706 2.7192503300399795
0.5018276578403131 2.581679492467356
0.4358569259439953 2.471867460060642
0.37700706074695656 2.3803289008342823
0.3187064011985499 2.267713877418196
0.2681125554913245 2.1836015336109087
0.22891733455616106 2.1780029508565186
0.19261419147232497 2.2015902827827576
0.15485937171195804 2.21459219157681
0.19939999328561653 3.804778527414926
0.13366507237057915 3.8276668674831367
0.06771533697666036 3.879409057206798
